<?xml version="1.0" encoding="UTF-8" standalone="no"?>
<svg
   id="bb37ee11-1d78-42dc-9e68-1ef6f693c14b"
   width="16"
   height="16"
   viewBox="0 0 16 16"
   version="1.1"
   sodipodi:docname="Client_Apps.svg"
   inkscape:version="1.1 (c68e22c387, 2021-05-23)"
   xmlns:inkscape="http://www.inkscape.org/namespaces/inkscape"
   xmlns:sodipodi="http://sodipodi.sourceforge.net/DTD/sodipodi-0.dtd"
   xmlns="http://www.w3.org/2000/svg"
   xmlns:svg="http://www.w3.org/2000/svg"
   xmlns:rdf="http://www.w3.org/1999/02/22-rdf-syntax-ns#"
   xmlns:cc="http://creativecommons.org/ns#"
   xmlns:dc="http://purl.org/dc/elements/1.1/">
  <sodipodi:namedview
     id="namedview35439"
     pagecolor="#ffffff"
     bordercolor="#666666"
     borderopacity="1.0"
     inkscape:pageshadow="2"
     inkscape:pageopacity="0.0"
     inkscape:pagecheckerboard="0"
     showgrid="false"
     fit-margin-top="0"
     fit-margin-left="0"
     fit-margin-right="0"
     fit-margin-bottom="0"
     inkscape:zoom="44.055556"
     inkscape:cx="8.001261"
     inkscape:cy="8.001261"
     inkscape:window-width="1920"
     inkscape:window-height="1017"
     inkscape:window-x="-8"
     inkscape:window-y="-8"
     inkscape:window-maximized="1"
     inkscape:current-layer="bb37ee11-1d78-42dc-9e68-1ef6f693c14b" />
  <defs
     id="defs35432">
    <linearGradient
       id="a2546c3d-06f2-4d81-b3fa-b5b62d9f6f89"
       x1="9"
       y1="17"
       x2="9"
       y2="1"
       gradientUnits="userSpaceOnUse"
       gradientTransform="translate(-1,-1)">
      <stop
         offset="0"
         stop-color="#0078d4"
         id="stop35421" />
      <stop
         offset="0.16"
         stop-color="#1380da"
         id="stop35423" />
      <stop
         offset="0.53"
         stop-color="#3c91e5"
         id="stop35425" />
      <stop
         offset="0.82"
         stop-color="#559cec"
         id="stop35427" />
      <stop
         offset="1"
         stop-color="#5ea0ef"
         id="stop35429" />
    </linearGradient>
  </defs>
  <title
     id="title35434">Icon-intune-331</title>
  <path
     d="m 5.6,11.2 h 4.8 V 16 H 5.6 Z M 0,4.8 H 4.8 V 0 H 0.67 A 0.67,0.67 0 0 0 0,0.67 Z M 0.67,16 H 4.8 V 11.2 H 0 v 4.13 A 0.67,0.67 0 0 0 0.67,16 Z M 0,10.4 H 4.8 V 5.6 H 0 Z M 11.2,16 h 4.13 A 0.67,0.67 0 0 0 16,15.33 V 11.2 H 11.2 Z M 5.6,10.4 h 4.8 V 5.6 H 5.6 Z m 5.6,0 H 16 V 5.6 H 11.2 Z M 11.2,0 V 4.8 H 16 V 0.67 A 0.67,0.67 0 0 0 15.33,0 Z M 5.6,4.8 h 4.8 V 0 H 5.6 Z"
     fill="url(#a2546c3d-06f2-4d81-b3fa-b5b62d9f6f89)"
     id="path35436"
     style="fill:url(#a2546c3d-06f2-4d81-b3fa-b5b62d9f6f89)" />
  <metadata
     id="metadata35521">
    <rdf:RDF>
      <cc:Work
         rdf:about="">
        <dc:title>Icon-intune-331</dc:title>
      </cc:Work>
    </rdf:RDF>
  </metadata>
</svg>
