<?xml version="1.0" encoding="UTF-8" standalone="no"?>
<svg
   xmlns:dc="http://purl.org/dc/elements/1.1/"
   xmlns:cc="http://creativecommons.org/ns#"
   xmlns:rdf="http://www.w3.org/1999/02/22-rdf-syntax-ns#"
   xmlns:svg="http://www.w3.org/2000/svg"
   xmlns="http://www.w3.org/2000/svg"
   xmlns:sodipodi="http://sodipodi.sourceforge.net/DTD/sodipodi-0.dtd"
   xmlns:inkscape="http://www.inkscape.org/namespaces/inkscape"
   width="17.872"
   height="18.000523"
   viewBox="0 0 17.872 18.000523"
   version="1.1"
   id="svg55981"
   sodipodi:docname="Device_Security_Windows.svg"
   inkscape:version="0.92.3 (2405546, 2018-03-11)">
  <sodipodi:namedview
     pagecolor="#ffffff"
     bordercolor="#666666"
     borderopacity="1"
     objecttolerance="10"
     gridtolerance="10"
     guidetolerance="10"
     inkscape:pageopacity="0"
     inkscape:pageshadow="2"
     inkscape:window-width="1920"
     inkscape:window-height="1017"
     id="namedview55983"
     showgrid="false"
     fit-margin-top="0"
     fit-margin-left="0"
     fit-margin-right="0"
     fit-margin-bottom="0"
     inkscape:zoom="48.111111"
     inkscape:cx="8.936"
     inkscape:cy="9.0005223"
     inkscape:window-x="-8"
     inkscape:window-y="-8"
     inkscape:window-maximized="1"
     inkscape:current-layer="svg55981" />
  <defs
     id="defs55956">
    <linearGradient
       id="b34e541a-f267-45a6-9cce-021b15a8536a"
       x1="11.202"
       y1="13.906"
       x2="2.8310001"
       y2="-0.57599998"
       gradientUnits="userSpaceOnUse"
       gradientTransform="translate(0.064)">
      <stop
         offset="0"
         stop-color="#0078d4"
         id="stop55951" />
      <stop
         offset="0.998"
         stop-color="#83b9f9"
         id="stop55953" />
    </linearGradient>
  </defs>
  <g
     id="bac6293a-af63-4cea-ac41-34ab61f3fcef"
     transform="translate(-0.064)">
    <path
       d="m 12.574,7.01 c 0,4.036 -4.969,7.286 -6.049,7.945 a 0.4,0.4 0 0 1 -0.412,0 C 5.032,14.3 0.064,11.046 0.064,7.01 V 2.153 A 0.39,0.39 0 0 1 0.448,1.768 C 4.312,1.666 3.423,0 6.319,0 9.215,0 8.325,1.666 12.19,1.768 a 0.39,0.39 0 0 1 0.384,0.385 z"
       id="path55958"
       inkscape:connector-curvature="0"
       style="fill:#5ea0ef" />
    <path
       d="m 12.055,7.051 c 0,3.7 -4.556,6.682 -5.547,7.286 a 0.366,0.366 0 0 1 -0.378,0 C 5.139,13.737 0.583,10.753 0.583,7.051 V 2.6 A 0.357,0.357 0 0 1 0.935,2.247 C 4.479,2.15 3.663,0.623 6.319,0.623 c 2.656,0 1.84,1.527 5.381,1.621 a 0.357,0.357 0 0 1 0.352,0.353 z"
       id="path55960"
       inkscape:connector-curvature="0"
       style="fill:url(#b34e541a-f267-45a6-9cce-021b15a8536a)" />
    <path
       d="m 6.13,8.631 h 11.418 a 0.369,0.369 0 0 1 0.388,0.347 v 8.675 A 0.369,0.369 0 0 1 17.548,18 H 6.13 A 0.369,0.369 0 0 1 5.742,17.653 V 8.978 A 0.37,0.37 0 0 1 6.13,8.631 Z"
       id="path55962"
       inkscape:connector-curvature="0"
       style="fill:#83b9f9" />
    <path
       d="m 6.108,8.631 h 11.463 a 0.348,0.348 0 0 1 0.365,0.327 v 0 1.307 H 5.742 V 8.958 A 0.349,0.349 0 0 1 6.108,8.631 Z"
       id="path55964"
       inkscape:connector-curvature="0"
       style="opacity:0.7;fill:#ffffff" />
    <path
       d="M 16.275,13.673 H 8.749 c -0.167,0 -0.3,0.076 -0.3,0.17 v 0.42 c 0,0.094 0.136,0.17 0.3,0.17 h 7.526 c 0.168,0 0.3,-0.076 0.3,-0.17 v -0.42 c 0.003,-0.094 -0.132,-0.17 -0.3,-0.17 z"
       id="path55966"
       inkscape:connector-curvature="0"
       style="opacity:0.7;fill:#ffffff" />
    <path
       d="M 16.275,11.759 H 8.749 c -0.167,0 -0.3,0.076 -0.3,0.17 v 0.42 c 0,0.094 0.136,0.17 0.3,0.17 h 7.526 c 0.168,0 0.3,-0.076 0.3,-0.17 v -0.42 c 0.003,-0.094 -0.132,-0.17 -0.3,-0.17 z"
       id="path55968"
       inkscape:connector-curvature="0"
       style="opacity:0.7;fill:#ffffff" />
    <path
       d="M 16.76,16.272 H 8.733 c -0.179,0 -0.324,0.082 -0.324,0.182 V 16.9 c 0,0.1 0.145,0.181 0.324,0.181 h 8.027 c 0.179,0 0.324,-0.081 0.324,-0.181 v -0.448 c 0,-0.098 -0.145,-0.18 -0.324,-0.18 z"
       id="path55970"
       inkscape:connector-curvature="0"
       style="opacity:0.7;fill:#ffffff" />
    <circle
       cx="7.198"
       cy="12.139"
       r="0.498"
       id="circle55972"
       style="opacity:0.7;fill:#ffffff" />
    <circle
       cx="7.198"
       cy="14.053"
       r="0.498"
       id="circle55974"
       style="opacity:0.7;fill:#ffffff" />
    <circle
       cx="7.0780001"
       cy="16.677999"
       r="0.53100002"
       id="circle55976"
       style="opacity:0.7;fill:#ffffff" />
  </g>
  <metadata
     id="metadata55979">
    <rdf:RDF>
      <rdf:li>public:true</rdf:li>
      <rdf:li>sdk:false</rdf:li>
      <rdf:li>category: Intune</rdf:li>
      <cc:Work
         rdf:about="">
        <dc:format>image/svg+xml</dc:format>
        <dc:type
           rdf:resource="http://purl.org/dc/dcmitype/StillImage" />
        <dc:title></dc:title>
      </cc:Work>
    </rdf:RDF>
  </metadata>
</svg>
