<?xml version="1.0" encoding="UTF-8" standalone="no"?>
<svg
   xmlns:dc="http://purl.org/dc/elements/1.1/"
   xmlns:cc="http://creativecommons.org/ns#"
   xmlns:rdf="http://www.w3.org/1999/02/22-rdf-syntax-ns#"
   xmlns:svg="http://www.w3.org/2000/svg"
   xmlns="http://www.w3.org/2000/svg"
   xmlns:sodipodi="http://sodipodi.sourceforge.net/DTD/sodipodi-0.dtd"
   xmlns:inkscape="http://www.inkscape.org/namespaces/inkscape"
   width="17.872"
   height="18.000578"
   viewBox="0 0 17.872 18.000578"
   version="1.1"
   id="svg55811"
   sodipodi:docname="Device_Security_Apple.svg"
   inkscape:version="0.92.3 (2405546, 2018-03-11)">
  <sodipodi:namedview
     pagecolor="#ffffff"
     bordercolor="#666666"
     borderopacity="1"
     objecttolerance="10"
     gridtolerance="10"
     guidetolerance="10"
     inkscape:pageopacity="0"
     inkscape:pageshadow="2"
     inkscape:window-width="1920"
     inkscape:window-height="1017"
     id="namedview55813"
     showgrid="false"
     fit-margin-top="0"
     fit-margin-left="0"
     fit-margin-right="0"
     fit-margin-bottom="0"
     inkscape:zoom="48.111111"
     inkscape:cx="9.016"
     inkscape:cy="9.0135784"
     inkscape:window-x="-8"
     inkscape:window-y="-8"
     inkscape:window-maximized="1"
     inkscape:current-layer="svg55811" />
  <defs
     id="defs55786">
    <linearGradient
       id="b6e62241-55ab-48cf-9a34-9e0759a89dfd"
       x1="11.122"
       y1="13.92"
       x2="2.7509999"
       y2="-0.56199998"
       gradientUnits="userSpaceOnUse"
       gradientTransform="translate(-0.016,0.013)">
      <stop
         offset="0"
         stop-color="#a33a85"
         id="stop55781" />
      <stop
         offset="0.998"
         stop-color="#dc92bf"
         id="stop55783" />
    </linearGradient>
  </defs>
  <g
     id="e89679d5-804c-4336-983f-2cbd0b6387ec"
     transform="translate(0.016,-0.013)">
    <path
       d="m 12.494,7.023 c 0,4.037 -4.969,7.286 -6.049,7.945 a 0.4,0.4 0 0 1 -0.412,0 C 4.952,14.309 -0.016,11.06 -0.016,7.023 V 2.167 A 0.389,0.389 0 0 1 0.368,1.782 C 4.232,1.679 3.343,0.013 6.239,0.013 c 2.896,0 2.006,1.666 5.871,1.769 a 0.39,0.39 0 0 1 0.384,0.385 z"
       id="path55788"
       inkscape:connector-curvature="0"
       style="fill:#ce74b6" />
    <path
       d="m 11.975,7.065 c 0,3.7 -4.556,6.681 -5.547,7.285 a 0.362,0.362 0 0 1 -0.378,0 C 5.059,13.746 0.5,10.766 0.5,7.065 V 2.611 A 0.357,0.357 0 0 1 0.852,2.258 C 4.4,2.164 3.583,0.636 6.239,0.636 c 2.656,0 1.84,1.528 5.384,1.622 a 0.357,0.357 0 0 1 0.352,0.353 z"
       id="path55790"
       inkscape:connector-curvature="0"
       style="fill:url(#b6e62241-55ab-48cf-9a34-9e0759a89dfd)" />
    <path
       d="m 6.05,8.645 h 11.418 a 0.368,0.368 0 0 1 0.388,0.346 v 8.676 a 0.368,0.368 0 0 1 -0.388,0.346 H 6.05 A 0.369,0.369 0 0 1 5.662,17.667 V 8.991 A 0.369,0.369 0 0 1 6.05,8.645 Z"
       id="path55792"
       inkscape:connector-curvature="0"
       style="fill:#dc92bf" />
    <path
       d="m 6.028,8.645 h 11.463 a 0.347,0.347 0 0 1 0.365,0.326 v 0 1.308 H 5.662 V 8.971 A 0.348,0.348 0 0 1 6.028,8.645 Z"
       id="path55794"
       inkscape:connector-curvature="0"
       style="opacity:0.7;fill:#ffffff" />
    <path
       d="M 16.2,13.686 H 8.669 c -0.167,0 -0.3,0.076 -0.3,0.17 v 0.42 c 0,0.094 0.136,0.17 0.3,0.17 H 16.2 c 0.168,0 0.3,-0.076 0.3,-0.17 v -0.42 c 0,-0.094 -0.137,-0.17 -0.3,-0.17 z"
       id="path55796"
       inkscape:connector-curvature="0"
       style="opacity:0.7;fill:#ffffff" />
    <path
       d="M 16.2,11.773 H 8.669 c -0.167,0 -0.3,0.076 -0.3,0.17 v 0.42 c 0,0.094 0.136,0.17 0.3,0.17 H 16.2 c 0.168,0 0.3,-0.076 0.3,-0.17 v -0.42 c 0,-0.094 -0.137,-0.17 -0.3,-0.17 z"
       id="path55798"
       inkscape:connector-curvature="0"
       style="opacity:0.7;fill:#ffffff" />
    <path
       d="M 16.68,16.286 H 8.652 c -0.178,0 -0.323,0.081 -0.323,0.181 v 0.448 c 0,0.1 0.145,0.182 0.323,0.182 h 8.028 c 0.179,0 0.324,-0.081 0.324,-0.182 V 16.467 C 17,16.367 16.859,16.286 16.68,16.286 Z"
       id="path55800"
       inkscape:connector-curvature="0"
       style="opacity:0.7;fill:#ffffff" />
    <circle
       cx="7.118"
       cy="12.153"
       r="0.498"
       id="circle55802"
       style="opacity:0.7;fill:#ffffff" />
    <circle
       cx="7.118"
       cy="14.066"
       r="0.498"
       id="circle55804"
       style="opacity:0.7;fill:#ffffff" />
    <circle
       cx="6.9980001"
       cy="16.691"
       r="0.53100002"
       id="circle55806"
       style="opacity:0.7;fill:#ffffff" />
  </g>
  <metadata
     id="metadata55809">
    <rdf:RDF>
      <rdf:li>public:true</rdf:li>
      <rdf:li>sdk:false</rdf:li>
      <rdf:li>category: Intune</rdf:li>
      <cc:Work
         rdf:about="">
        <dc:format>image/svg+xml</dc:format>
        <dc:type
           rdf:resource="http://purl.org/dc/dcmitype/StillImage" />
        <dc:title></dc:title>
      </cc:Work>
    </rdf:RDF>
  </metadata>
</svg>
