<?xml version="1.0" encoding="UTF-8" standalone="no"?>
<svg
   id="f1f6e76f-d092-4f49-822b-ac30882e2da5"
   width="17.030001"
   height="14.880691"
   viewBox="0 0 17.030001 14.880691"
   version="1.1"
   sodipodi:docname="eBooks.svg"
   inkscape:version="1.1 (c68e22c387, 2021-05-23)"
   xmlns:inkscape="http://www.inkscape.org/namespaces/inkscape"
   xmlns:sodipodi="http://sodipodi.sourceforge.net/DTD/sodipodi-0.dtd"
   xmlns="http://www.w3.org/2000/svg"
   xmlns:svg="http://www.w3.org/2000/svg"
   xmlns:rdf="http://www.w3.org/1999/02/22-rdf-syntax-ns#"
   xmlns:cc="http://creativecommons.org/ns#"
   xmlns:dc="http://purl.org/dc/elements/1.1/">
  <sodipodi:namedview
     id="namedview37341"
     pagecolor="#ffffff"
     bordercolor="#666666"
     borderopacity="1.0"
     inkscape:pageshadow="2"
     inkscape:pageopacity="0.0"
     inkscape:pagecheckerboard="0"
     showgrid="false"
     fit-margin-top="0"
     fit-margin-left="0"
     fit-margin-right="0"
     fit-margin-bottom="0"
     inkscape:zoom="44.055556"
     inkscape:cx="8.5006305"
     inkscape:cy="7.4337957"
     inkscape:window-width="1920"
     inkscape:window-height="1017"
     inkscape:window-x="-8"
     inkscape:window-y="-8"
     inkscape:window-maximized="1"
     inkscape:current-layer="f1f6e76f-d092-4f49-822b-ac30882e2da5" />
  <defs
     id="defs37316">
    <linearGradient
       id="e0041211-eb0d-4cb2-85af-4e9adf09afce"
       x1="9"
       y1="9"
       x2="15.8"
       y2="9"
       gradientUnits="userSpaceOnUse"
       gradientTransform="translate(-0.5,-1.56)">
      <stop
         offset="0"
         stop-color="#ccc"
         id="stop37307" />
      <stop
         offset="0.32"
         stop-color="#dfdfdf"
         id="stop37309" />
      <stop
         offset="0.67"
         stop-color="#ececec"
         id="stop37311" />
      <stop
         offset="1"
         stop-color="#f0f0f0"
         id="stop37313" />
    </linearGradient>
  </defs>
  <title
     id="title37318">Icon-intune-330</title>
  <path
     d="M 16.29,1.86 H 0.71 A 0.68,0.68 0 0 0 0,2.51 v 11.72 a 0.68,0.68 0 0 0 0.71,0.65 H 16.29 A 0.68,0.68 0 0 0 17,14.23 V 2.51 A 0.68,0.68 0 0 0 16.29,1.86 Z"
     fill="#0078d4"
     id="path37320" />
  <path
     d="M 16.35,1.86 H 8.5 v 13 h 7.88 a 0.65,0.65 0 0 0 0.65,-0.65 V 2.51 A 0.65,0.65 0 0 0 16.35,1.86 Z"
     fill="#005ba1"
     id="path37322" />
  <path
     d="M 7.14,0 H 2.04 A 0.35,0.35 0 0 0 1.7,0.34 v 13 a 0.35,0.35 0 0 0 0.34,0.35 h 5.1 A 1.24,1.24 0 0 1 8.5,14.87 V 1.37 A 1.37,1.37 0 0 0 7.14,0 Z"
     fill="#f2f2f2"
     id="path37324" />
  <path
     d="m 9.86,0 h 5.1 a 0.35,0.35 0 0 1 0.34,0.34 v 13 a 0.35,0.35 0 0 1 -0.34,0.35 H 9.86 A 1.24,1.24 0 0 0 8.5,14.87 V 1.37 A 1.37,1.37 0 0 1 9.86,0 Z"
     fill="url(#e0041211-eb0d-4cb2-85af-4e9adf09afce)"
     id="path37326"
     style="fill:url(#e0041211-eb0d-4cb2-85af-4e9adf09afce)" />
  <path
     d="M 6.99,3.44 H 3.22 A 0.16,0.16 0 0 0 3.06,3.59 V 3.97 A 0.16,0.16 0 0 0 3.22,4.12 H 6.99 A 0.15,0.15 0 0 0 7.14,3.97 V 3.57 A 0.15,0.15 0 0 0 6.99,3.44 Z"
     fill="#b3b3b3"
     id="path37328" />
  <path
     d="M 6.99,5.44 H 3.22 A 0.16,0.16 0 0 0 3.06,5.59 V 5.97 A 0.16,0.16 0 0 0 3.22,6.12 H 6.99 A 0.15,0.15 0 0 0 7.14,5.97 V 5.62 A 0.15,0.15 0 0 0 6.99,5.44 Z"
     fill="#b3b3b3"
     id="path37330" />
  <path
     d="M 6.99,1.37 H 3.22 A 0.16,0.16 0 0 0 3.06,1.52 V 1.9 A 0.16,0.16 0 0 0 3.22,2.05 H 6.99 A 0.15,0.15 0 0 0 7.14,1.9 V 1.52 A 0.15,0.15 0 0 0 6.99,1.37 Z"
     fill="#b3b3b3"
     id="path37332" />
  <path
     d="M 6.99,7.52 H 3.22 A 0.16,0.16 0 0 0 3.06,7.67 V 8.05 A 0.16,0.16 0 0 0 3.22,8.2 H 6.99 A 0.15,0.15 0 0 0 7.14,8.05 V 7.67 A 0.15,0.15 0 0 0 6.99,7.52 Z"
     fill="#b3b3b3"
     id="path37334" />
  <path
     d="M 6.99,9.57 H 3.22 A 0.16,0.16 0 0 0 3.06,9.72 v 0.38 a 0.16,0.16 0 0 0 0.16,0.15 H 6.99 A 0.15,0.15 0 0 0 7.14,10.1 V 9.72 A 0.15,0.15 0 0 0 6.99,9.57 Z"
     fill="#b3b3b3"
     id="path37336" />
  <path
     d="M 4.95,11.62 H 3.22 a 0.16,0.16 0 0 0 -0.16,0.15 v 0.38 A 0.16,0.16 0 0 0 3.22,12.3 H 4.95 A 0.15,0.15 0 0 0 5.1,12.15 V 11.77 A 0.15,0.15 0 0 0 4.95,11.62 Z"
     fill="#b3b3b3"
     id="path37338" />
  <metadata
     id="metadata37423">
    <rdf:RDF>
      <cc:Work
         rdf:about="">
        <dc:title>Icon-intune-330</dc:title>
      </cc:Work>
    </rdf:RDF>
  </metadata>
</svg>
