<?xml version="1.0" encoding="UTF-8" standalone="no"?>
<svg
   xmlns:dc="http://purl.org/dc/elements/1.1/"
   xmlns:cc="http://creativecommons.org/ns#"
   xmlns:rdf="http://www.w3.org/1999/02/22-rdf-syntax-ns#"
   xmlns:svg="http://www.w3.org/2000/svg"
   xmlns="http://www.w3.org/2000/svg"
   xmlns:sodipodi="http://sodipodi.sourceforge.net/DTD/sodipodi-0.dtd"
   xmlns:inkscape="http://www.inkscape.org/namespaces/inkscape"
   id="a9ed4d43-c916-4b9a-b9ca-be76fbdc694c"
   width="16.99"
   height="15.48"
   viewBox="0 0 16.99 15.48"
   version="1.1"
   sodipodi:docname="10343-icon-service-Intune-For-Education.svg"
   inkscape:version="0.92.3 (2405546, 2018-03-11)">
  <metadata
     id="metadata3195">
    <rdf:RDF>
      <cc:Work
         rdf:about="">
        <dc:format>image/svg+xml</dc:format>
        <dc:type
           rdf:resource="http://purl.org/dc/dcmitype/StillImage" />
        <dc:title>Icon-intune-329</dc:title>
      </cc:Work>
    </rdf:RDF>
  </metadata>
  <sodipodi:namedview
     pagecolor="#ffffff"
     bordercolor="#666666"
     borderopacity="1"
     objecttolerance="10"
     gridtolerance="10"
     guidetolerance="10"
     inkscape:pageopacity="0"
     inkscape:pageshadow="2"
     inkscape:window-width="1920"
     inkscape:window-height="1017"
     id="namedview3193"
     showgrid="false"
     fit-margin-top="0"
     fit-margin-left="0"
     fit-margin-right="0"
     fit-margin-bottom="0"
     inkscape:zoom="48.111111"
     inkscape:cx="8.5"
     inkscape:cy="7.74"
     inkscape:window-x="-8"
     inkscape:window-y="-8"
     inkscape:window-maximized="1"
     inkscape:current-layer="a9ed4d43-c916-4b9a-b9ca-be76fbdc694c" />
  <defs
     id="defs3174">
    <linearGradient
       id="aaede26b-698f-4a65-b6db-859d207e2da6"
       x1="8.0500002"
       y1="11.32"
       x2="8.0500002"
       y2="1.26"
       gradientUnits="userSpaceOnUse">
      <stop
         offset="0"
         stop-color="#0078d4"
         id="stop3159" />
      <stop
         offset="0.82"
         stop-color="#5ea0ef"
         id="stop3161" />
    </linearGradient>
    <linearGradient
       id="bc54987f-34ba-4701-8ce4-6eca10aff9e9"
       x1="8.0500002"
       y1="15.21"
       x2="8.0500002"
       y2="11.32"
       gradientUnits="userSpaceOnUse">
      <stop
         offset="0"
         stop-color="#1490df"
         id="stop3164" />
      <stop
         offset="0.98"
         stop-color="#1f56a3"
         id="stop3166" />
    </linearGradient>
    <linearGradient
       id="a5434fd8-c18c-472c-be91-f2aa070858b7"
       x1="8.0500002"
       y1="7.8699999"
       x2="8.0500002"
       y2="4.9400001"
       gradientUnits="userSpaceOnUse">
      <stop
         offset="0"
         stop-color="#d2ebff"
         id="stop3169" />
      <stop
         offset="1"
         stop-color="#f0fffd"
         id="stop3171" />
    </linearGradient>
  </defs>
  <title
     id="title3176">Icon-intune-329</title>
  <rect
     x="0"
     y="0"
     width="15.1"
     height="10.06"
     rx="0.5"
     id="rect3178"
     style="fill:url(#aaede26b-698f-4a65-b6db-859d207e2da6)" />
  <rect
     x="0.84000003"
     y="0.83999991"
     width="13.42"
     height="8.3900003"
     rx="0.28"
     id="rect3180"
     style="fill:#ffffff" />
  <path
     d="m 10.58,13.11 c -1.5,-0.23 -1.56,-1.31 -1.55,-3 h -3 c 0,1.74 -0.06,2.82 -1.55,3 a 0.87,0.87 0 0 0 -0.74,0.84 h 7.54 a 0.88,0.88 0 0 0 -0.7,-0.84 z"
     id="path3182"
     inkscape:connector-curvature="0"
     style="fill:url(#bc54987f-34ba-4701-8ce4-6eca10aff9e9)" />
  <path
     d="M 16.67,4.65 H 9.79 a 2.31,2.31 0 1 0 0,0.92 h 0.71 v 9.58 a 0.33,0.33 0 0 0 0.33,0.33 h 5.83 a 0.33,0.33 0 0 0 0.33,-0.33 V 4.98 A 0.33,0.33 0 0 0 16.67,4.65 Z"
     id="path3184"
     inkscape:connector-curvature="0"
     style="fill:#32bedd" />
  <rect
     x="11.12"
     y="5.5600004"
     width="5.27"
     height="8.6999998"
     rx="0.12"
     id="rect3186"
     style="fill:#ffffff" />
  <circle
     cx="7.5500002"
     cy="5.1499996"
     r="1.46"
     id="circle3188"
     style="opacity:0.9;fill:url(#a5434fd8-c18c-472c-be91-f2aa070858b7)" />
  <path
     d="M 14.38,9.56 13.26,8.44 a 0.06,0.06 0 0 0 -0.1,0.05 V 9.17 A 0.06,0.06 0 0 1 13.1,9.23 h -2.6 v 0.83 h 2.6 a 0.06,0.06 0 0 1 0.06,0.06 v 0.69 a 0.06,0.06 0 0 0 0.1,0 l 1.12,-1.07 a 0.12,0.12 0 0 0 0,-0.18 z"
     id="path3190"
     inkscape:connector-curvature="0"
     style="fill:#0078d4" />
</svg>
