<?xml version="1.0" encoding="UTF-8" standalone="no"?>
<svg
   id="bfb8d958-f86d-4357-98cc-2385bd2d11c3"
   width="18"
   height="15.74"
   viewBox="0 0 18 15.74"
   version="1.1"
   sodipodi:docname="Software_Updates.svg"
   inkscape:version="1.1 (c68e22c387, 2021-05-23)"
   xmlns:inkscape="http://www.inkscape.org/namespaces/inkscape"
   xmlns:sodipodi="http://sodipodi.sourceforge.net/DTD/sodipodi-0.dtd"
   xmlns="http://www.w3.org/2000/svg"
   xmlns:svg="http://www.w3.org/2000/svg"
   xmlns:rdf="http://www.w3.org/1999/02/22-rdf-syntax-ns#"
   xmlns:cc="http://creativecommons.org/ns#"
   xmlns:dc="http://purl.org/dc/elements/1.1/">
  <sodipodi:namedview
     id="namedview39336"
     pagecolor="#ffffff"
     bordercolor="#666666"
     borderopacity="1.0"
     inkscape:pageshadow="2"
     inkscape:pageopacity="0.0"
     inkscape:pagecheckerboard="0"
     showgrid="false"
     fit-margin-top="0"
     fit-margin-left="0"
     fit-margin-right="0"
     fit-margin-bottom="0"
     inkscape:zoom="44.055556"
     inkscape:cx="9"
     inkscape:cy="7.8650694"
     inkscape:window-width="1920"
     inkscape:window-height="1017"
     inkscape:window-x="-8"
     inkscape:window-y="-8"
     inkscape:window-maximized="1"
     inkscape:current-layer="bfb8d958-f86d-4357-98cc-2385bd2d11c3" />
  <defs
     id="defs39319">
    <linearGradient
       id="b7830ebc-973a-42a1-a635-f5891080c376"
       x1="9"
       y1="15.84"
       x2="9"
       y2="0.51999998"
       gradientUnits="userSpaceOnUse"
       gradientTransform="translate(0,-1.13)">
      <stop
         offset="0"
         stop-color="#d2ebff"
         id="stop39314" />
      <stop
         offset="1"
         stop-color="#f0fffd"
         id="stop39316" />
    </linearGradient>
  </defs>
  <title
     id="title39321">Icon-intune-335</title>
  <rect
     y="0"
     width="18"
     height="12.81"
     rx="0.60000002"
     fill="#0078d4"
     id="rect39323"
     x="0" />
  <rect
     x="1.05"
     y="0.89999998"
     width="15.91"
     height="10.9"
     rx="0.33000001"
     opacity="0.9"
     fill="url(#b7830ebc-973a-42a1-a635-f5891080c376)"
     id="rect39325"
     style="fill:url(#b7830ebc-973a-42a1-a635-f5891080c376)" />
  <rect
     x="8.0699997"
     y="0.39999998"
     width="1.91"
     height="0.25999999"
     rx="0.12"
     fill="#f2f2f2"
     id="rect39327" />
  <circle
     cx="12.87"
     cy="11.52"
     r="4.2199998"
     fill="#76bc2d"
     id="circle39329" />
  <path
     d="m 10.35,10.87 a 2.76,2.76 0 0 0 -0.08,1 2.65,2.65 0 0 0 0.36,1 2.53,2.53 0 0 0 0.48,0.6 2.92,2.92 0 0 0 0.61,0.43 3.61,3.61 0 0 0 0.72,0.25 2.75,2.75 0 0 0 0.76,0 L 13.13,13.42 A 0.14,0.14 0 0 0 12.99,13.28 H 12.6 a 2,2 0 0 1 -0.48,-0.17 2.42,2.42 0 0 1 -0.42,-0.24 1.52,1.52 0 0 1 -0.32,-0.4 1.69,1.69 0 0 1 -0.24,-0.67 1.88,1.88 0 0 1 0,-0.71 l 0.25,0.42 a 0.15,0.15 0 0 0 0.2,0.05 l 0.31,-0.18 a 0.15,0.15 0 0 0 0.05,-0.2 L 11.11,9.76 A 0.16,0.16 0 0 0 10.9,9.71 l -1.41,0.84 a 0.14,0.14 0 0 0 0,0.2 l 0.17,0.3 a 0.15,0.15 0 0 0 0.21,0.06 z"
     fill="#ffffff"
     id="path39331" />
  <path
     d="m 13.3,9.75 a 2.48,2.48 0 0 1 0.48,0.17 2,2 0 0 1 0.42,0.3 1.6,1.6 0 0 1 0.33,0.4 1.78,1.78 0 0 1 0.23,0.67 1.89,1.89 0 0 1 0,0.71 l -0.25,-0.42 a 0.15,0.15 0 0 0 -0.2,-0.06 l -0.3,0.18 a 0.15,0.15 0 0 0 -0.05,0.21 l 0.83,1.41 A 0.16,0.16 0 0 0 15,13.38 l 1.41,-0.84 a 0.15,0.15 0 0 0 0.06,-0.21 l -0.18,-0.3 a 0.16,0.16 0 0 0 -0.21,-0.05 l -0.49,0.29 a 2.62,2.62 0 0 0 0.08,-1.08 2.88,2.88 0 0 0 -0.35,-1 3.09,3.09 0 0 0 -0.48,-0.59 2.79,2.79 0 0 0 -1.38,-0.73 2.47,2.47 0 0 0 -0.61,0 0.14,0.14 0 0 0 -0.13,0.16 v 0.58 a 0.15,0.15 0 0 0 0.14,0.13 2.56,2.56 0 0 1 0.44,0.01 z"
     fill="#ffffff"
     id="path39333" />
  <metadata
     id="metadata39418">
    <rdf:RDF>
      <cc:Work
         rdf:about="">
        <dc:title>Icon-intune-335</dc:title>
      </cc:Work>
    </rdf:RDF>
  </metadata>
</svg>
