<svg xmlns="http://www.w3.org/2000/svg" viewBox="0 0 60 59.7"><ellipse cx="30" cy="29.9" rx="30" ry="29.9" fill="#89c540"/><path d="M18.1 30.8v-.3h-6.8c.1 2.1.5 4.2 1.2 6.2H19c-.6-2-.9-3.9-.9-5.9zm0-1.5c.1-2.2.6-4.4 1.3-6.5h-6.8c-.8 2.1-1.2 4.3-1.3 6.5h6.8zm1.7-7.7c.5-1.4 1.2-2.8 1.9-4.2l1-1.8h-5.6l-.4.4c-1.6 1.6-2.8 3.5-3.8 5.5h6.9zm2.9-3.6L21 21.6h8.4v-5.9h-5.3a17.61 17.61 0 0 0-1.4 2.3zm-2.1 4.8c-.8 2.1-1.2 4.3-1.4 6.5h10.2v-6.5h-8.8zm-1.4 7.6v.3c0 2 .3 4 .9 5.9h9.3v-6.2H19.2zm4.3-15.9c1-1.4 2.1-2.7 3.4-3.9-3.1.5-6 1.9-8.5 3.9h5.1zm5.9-4c-1.3.4-3 1.9-4.5 4.1h4.5v-4.1zm.6-1.3c5.3 0 10.3 2.2 14 6.1 7.8 8.2 7.8 21 0 29.2-3.5 3.7-8.3 5.8-13.4 6h-.2c-.1 0-.3.1-.4.1h-.5c-.2 0-.4 0-.7-.1-4.9-.3-9.5-2.4-12.9-6-7.8-8.2-7.8-21 0-29.2 3.7-3.9 8.8-6.1 14.1-6.1zm3.7 1.5c1.3 1.1 2.4 2.3 3.3 3.8h4.6c-2.3-1.9-5-3.1-7.9-3.8zm4 5l.2.3c1 1.8 1.8 3.7 2.5 5.6H47c-.9-2-2.2-3.9-3.7-5.5l-.4-.4h-5.2zm-.9.8c-.2-.3-.3-.6-.5-.9h-5.8v5.9H39c-.5-1.7-1.3-3.4-2.2-5zm-1.2-2c-1.5-2.1-3.2-3.7-5-4.1v4.1h5zm5.1 8.3a24.06 24.06 0 0 1 1.2 6.5h6.8c-.1-2.2-.5-4.4-1.3-6.5h-6.7zm.1 6.5c-.2-2.2-.6-4.4-1.3-6.5h-8.9v6.5h10.2zm1.2 1.1c0 2.1-.4 4.2-1.1 6.2h6.7c.7-2 1.1-4.1 1.2-6.2H42zm-1.5 7.4c-.8 2.1-1.8 4.1-3 5.9h5.7l.1-.1c1.6-1.7 2.9-3.7 3.9-5.8h-6.7zm-3.7 7.1c-1 1.5-2.2 2.9-3.5 4.2 3.2-.6 6.2-2 8.7-4.2h-5.2zm-6.2 4.4c1.4-.3 3.3-2 5-4.4h-5v4.4zm5.7-5.6c1.2-1.9 2.2-3.9 3-6h-8.8v5.9l5.8.1zm3.5-7.1c.7-2 1.1-4.1 1.1-6.2H30.6v6.2h9.2zM26.2 48.9c-1.3-1.2-2.5-2.6-3.4-4.1h-4.7c2.3 2.1 5.1 3.5 8.1 4.1zm-4.1-5.2c-1.1-1.9-2-3.9-2.7-5.9h-6.5c.9 2.2 2.2 4.1 3.9 5.8l.1.1h5.2zm-1.6-5.9c.7 2.1 1.6 4.1 2.8 5.9h6.1v-5.9h-8.9zm3.5 7.1c1.6 2.4 3.4 4 4.9 4.4h.5v-4.4H24z" fill="#fff"/></svg>