<svg xmlns="http://www.w3.org/2000/svg" viewBox="0 0 59.8 59.5"><ellipse cx="29.9" cy="29.8" rx="29.9" ry="29.8" fill="#8dc541"/><path d="M46.5 36.5L36.7 47v-6.6h-1.5c-3.1 0-6.2-.9-8.8-2.6v-.3c0-2.3-.9-4.6-2.5-6.2-1.1-1.1-2.5-1.9-4-2.3-.5-1.5-.7-3.1-.7-4.7 0-4.3 1.7-8.4 4.7-11.4 6.1-6.2 16.2-6.3 22.4-.1l.1.1c3 3 4.7 7.1 4.7 11.4.1 4.6-1.5 8.9-4.6 12.2z" fill="none" stroke="#fff" stroke-width="1.18" stroke-miterlimit="10"/><g fill="#fff"><circle cx="27.4" cy="18.1" r="1.8"/><circle cx="31.6" cy="18.1" r="1.8"/><circle cx="36.1" cy="18.1" r="1.8"/><circle cx="40.7" cy="18.1" r="1.8"/></g><path d="M11 44.8l5.1 5.6v-3.5h.8a26.14 26.14 0 0 0 5.4-2.4c.2-.2.4-.3.6-.5.5-.5.9-1.1 1.3-1.7.3-.6.6-1.1.8-1.7.1-.3.2-.6.2-.9.1-.4.1-.8.1-1.3 0-2.3-.9-4.4-2.5-6-3.1-3.3-8.3-3.4-11.6-.2l-.2.2c-1.6 1.6-2.5 3.8-2.4 6-.1 2.4.8 4.6 2.4 6.4z" fill="none" stroke="#fff" stroke-width="1.18" stroke-miterlimit="10"/><g fill="#fff"><circle cx="21" cy="35" r=".9"/><circle cx="18.8" cy="35" r=".9"/><circle cx="16.4" cy="35" r=".9"/><circle cx="14.1" cy="35" r=".9"/></g></svg>