<svg xmlns="http://www.w3.org/2000/svg" viewBox="0 0 59.5 59.5"><circle cx="29.8" cy="29.8" r="29.8" fill="#8cc441"/><path d="M29.8 12.4c-9.6 0-17.3 7.8-17.3 17.4s7.8 17.3 17.4 17.3a17.31 17.31 0 0 0 17.3-17.3c-.1-9.6-7.9-17.4-17.4-17.4zm15.8 17.4c0 1.3-.2 2.7-.5 4-1.9-3.4-4.5-6.3-7.5-8.7.2-.3.3-.6.3-.9 0-.7-.4-1.3-1-1.5.4-2.1 1-4.1 1.8-6 4.3 2.9 6.9 7.8 6.9 13.1zm-7.8 6.5a1.83 1.83 0 0 0-1.3-1.5c-.5-3-.6-6.1-.2-9.2.1 0 .3 0 .4-.1 3.3 2.5 6 5.8 8 9.4-.3.9-.8 1.9-1.3 2.7-1.8-.7-3.7-1.2-5.6-1.3zm-23.9-6.5v-.7c.5.1 1.3.2 2.4.4 0 .2.1.3.2.5-.7.8-1.5 1.5-2.4 2.1-.1-.8-.2-1.6-.2-2.3zm3.1-9.4c1.7-.2 3.3-.3 5-.1.1.2.3.4.5.6-1 2.4-2.4 4.7-4 6.8-.2-.1-.4-.1-.6-.1-.6 0-1.2.4-1.4.9-1.1-.2-1.9-.4-2.4-.4.2-2.9 1.3-5.5 2.9-7.7zm2.3 7.9c1.7-2.2 3.1-4.7 4.2-7.2.4 0 .8-.2 1.1-.6.7.1 1.5.3 2.3.4 2.7.6 5.3 1.7 7.7 3.2 0 .5.3.9.7 1.2-.4 3.2-.3 6.4.2 9.6-.5.3-.9.8-.9 1.4l-1.8.3c-.3-.3-.7-.5-1.2-.6h-.3c-2.1-2.4-4.8-4.3-7.7-5.5-1.3-.6-2.7-1.1-4.1-1.5 0-.2-.1-.5-.2-.7zm13.9 9.4l1.7-.3c.3.4.7.6 1.2.6.5 1.8 1.1 3.5 1.9 5.1-.9.6-2 1.1-3 1.5-.3-2.1-1-4.2-2.1-6 .1-.2.2-.5.2-.8v-.1zm4.6-21.6c-.9 2.1-1.5 4.2-2 6.4-.4.1-.7.3-.9.6-3-1.8-6.4-3-9.9-3.6 0-.4-.2-.8-.5-1.1.4-1.2.8-2.5 1.1-3.9 4.1-1.2 8.5-.6 12.2 1.6zm-13.3-1.3c-.3 1.1-.6 2.1-.9 3.1h-.2c-.8 0-1.5.6-1.6 1.4-1.3-.1-2.6-.1-3.9 0 1.8-2 4-3.6 6.6-4.5zM14.3 33.2c1.1-.8 2.1-1.6 3-2.6.2.1.4.1.6.1.5 0 .9-.2 1.2-.6 3.6 1.1 8.1 3 11.3 6.6-.2.3-.4.6-.4 1-.7.3-1.4.6-2 .9a27.87 27.87 0 0 0-6.6 4.6c-3.6-2.3-6.1-5.9-7.1-10zm8 10.5c2.4-2.1 5.1-3.8 8-5 .3.5.8.8 1.4.8.2 0 .4 0 .6-.1 1 1.7 1.6 3.7 1.9 5.7-1.4.4-2.9.6-4.4.6-2.7-.1-5.2-.8-7.5-2zM39 42.6c-.8-1.6-1.4-3.2-1.8-4.8.2-.1.3-.3.4-.4 1.8.1 3.6.5 5.3 1.3a18.03 18.03 0 0 1-3.9 3.9z" fill="#fff"/></svg>