<svg xmlns="http://www.w3.org/2000/svg" viewBox="0 0 59.8 59.5"><ellipse cx="29.9" cy="29.8" rx="29.9" ry="29.8" fill="#8dc541"/><g fill="none" stroke="#fff" stroke-width=".75" stroke-miterlimit="10"><path d="M44.4 52.1l-2.7-2.4-4.7-4.4c-.3-.2-.6-.3-.9-.4-3.6-.6-6.9-2.4-9.5-5-2-2-3.1-4.6-3.3-7.4-.3-3.8 1.4-7.5 4.4-9.9 2.8-2.3 6.2-3.7 9.8-4.1 4.9-.6 9.8.7 13.7 3.6a12.07 12.07 0 0 1 5 8.1c.1.5.1.9.2 1.3v.5c-.1.4-.1.8-.2 1.3-.4 2.6-1.6 5.1-3.5 6.9-2 2-4.6 3.5-7.3 4.3-.4.1-.5.3-.4.6l.7 5.6c.1.5-.2 1.1-.7 1.3-.1 0-.2.1-.3.2l-.3-.1z"/><path d="M33.8 31.1c1.2 0 2.1-1 2.1-2.1 0-1.2-1-2.1-2.1-2.1-1.2 0-2.1.9-2.1 2.1-.1 1.1.8 2 1.9 2.1h.2zm6.1 0c1.2 0 2.1-.9 2.1-2.1s-.9-2.1-2.1-2.1-2.1.9-2.1 2.1a1.95 1.95 0 0 0 1.9 2.1h.2zm8.3-2.1c0-1.2-.9-2.1-2.1-2.1-1.1 0-2.1.9-2.1 2.1 0 1.1.9 2.1 2 2.1 1.1.1 2.1-.7 2.1-1.8.1-.1.1-.2.1-.3z"/></g><path d="M15 24.9c1.2 0 2.1-.9 2.1-2.1s-.9-2.1-2.1-2.1-2.1.9-2.1 2.1 1 2.1 2.1 2.1zm8.3-2c0-1.2-.9-2.1-2.1-2.1s-2.1.9-2.1 2.1c0 1.1.9 2.1 2 2.1 1.1.1 2.1-.7 2.1-1.8.1-.2.1-.3.1-.3zm-1.7-13l2.9.4c3.9.7 7.4 2.7 9.9 5.7.2.2.3.4.5.7-.8.3-1.6.5-2.4.7-.1 0-.2-.1-.2-.1-2.6-2.9-6.2-4.6-10.1-4.9-4-.4-8 .6-11.2 2.8-2.3 1.4-3.9 3.7-4.5 6.3-.7 3.1.3 6.3 2.5 8.5 2 2.1 4.6 3.6 7.5 4.1 1 .2 1.3.6 1.2 1.7s-.3 2.1-.4 3.1v.4l4.1-3.9c.3.8.6 1.5.9 2.2 0 .1 0 .3-.1.4l-5.6 5.4c-.4.4-.9.4-1.4.2s-.7-.7-.6-1.2c.2-1.8.4-3.6.7-5.3.1-.7.1-.7-.6-.9-3.6-1-6.8-3.3-8.9-6.4-1-1.5-1.6-3.2-1.8-5 0-.1-.1-.3-.1-.4v-1.6c0-.1.1-.2.1-.3a11.64 11.64 0 0 1 2.1-5.6c2.5-3.4 6.2-5.7 10.4-6.4.9-.2 1.9-.3 2.9-.4l2.2-.2z" stroke="#fff" stroke-width=".75" stroke-miterlimit="10" fill="#fff"/></svg>