<svg xmlns="http://www.w3.org/2000/svg" viewBox="0 0 65 65"><circle transform="matrix(.7071 -.7071 .7071 .7071 -13.4619 32.5)" cx="32.5" cy="32.5" r="32.5" fill="#8cc340"/><path d="M30.8 45.1V29.5H11.2v15.6h7.9v1.8h-3v.7H26v-.7h-3v-1.8h7.8zm-18.1-14h16.5v12H12.7v-12zm40.6 14V29.5H33.7v15.6h7.8v1.8h-3v.7h9.9v-.7h-3v-1.8h7.9zm-18.1-14h16.6v12H35.2v-12zm7.1-5.5V10H22.7v15.6h7.9v1.8h-3v.7h9.9v-.7h-3v-1.8h7.8zm-18.1-14h16.6v12H24.2v-12z" fill="#fff"/><ellipse cx="32.5" cy="32.5" rx="26.7" ry="27.1" fill="none" stroke="#fff" stroke-width="2.5"/></svg>