<svg xmlns="http://www.w3.org/2000/svg" viewBox="0 0 58.5 58.5"><circle cx="29.3" cy="29.3" r="29.3" fill="#8dc63f"/><g fill="#fff"><path d="M42.2 16.1a13.46 13.46 0 0 0-19.1 0c-3.4 3.4-4.8 8.4-3.5 13h-.4a6.81 6.81 0 0 0-6.8 6.8c0 1.9.7 3.7 2 5.1l4.8 5.1v-3.4c3.2 0 5.9-2.2 6.6-5.3 2.1 1.3 4.5 1.9 6.9 1.9V46l9.6-10.2c2.6-2.7 4-6.4 4-10.1-.1-3.6-1.6-7.1-4.1-9.6zM41.3 35l-7.6 8.1v-5h-1.1a12.57 12.57 0 0 1-6.8-2v-.2c0-3.1-2.1-5.8-5.1-6.6-.3-1.2-.5-2.4-.5-3.6 0-6.8 5.6-12.4 12.4-12.4S45 18.9 45 25.7c0 3.5-1.3 6.8-3.7 9.3z"/><circle cx="32.6" cy="25.7" r="1.7"/><circle cx="38.2" cy="25.7" r="1.7"/><circle cx="27" cy="25.7" r="1.7"/></g></svg>