<svg xmlns="http://www.w3.org/2000/svg" viewBox="0 0 60.5 60.5"><circle cx="30.3" cy="30.3" r="30.3" fill="#8dc63f"/><path d="M37.3 17.9l-.1 1.4 5.6.4-9.7 7.9c-.5-.8-1.3-1.5-2.3-1.8l.2-13.9 3.8 4.2 1-.9L30.4 9l-5.7 6 1 1 3.9-4.1-.2 13.8c-1.1.1-2.1.6-2.7 1.5l-9-7.8 5.6-.3v-1.4L15 18l.9 8.2 1.4-.2-.6-5.6 9.3 8c-.6 1.8.2 3.7 1.8 4.6v11.3c-1.8 1.2-2.4 3.6-1.2 5.4s3.6 2.4 5.4 1.2 2.4-3.6 1.2-5.4c-.3-.5-.7-.9-1.2-1.2V32.9c1.4-.9 2.1-2.5 1.8-4.1l9.9-7.9-.7 5.6 1.4.2 1.2-8.2-8.3-.6zm-7.5 32a2.26 2.26 0 0 1-2.3-2.3 2.26 2.26 0 0 1 2.3-2.3 2.26 2.26 0 0 1 2.3 2.3c-.1 1.3-1 2.2-2.3 2.3z" fill="#fff"/></svg>