<svg xmlns="http://www.w3.org/2000/svg" viewBox="0 0 64.5 64.5"><circle cx="32.3" cy="32.3" r="32.3" fill="#7dbd31"/><path d="M9.7 40.1v-1.6c.4-.5.7-1.2 1.2-1.4a4.73 4.73 0 0 0 2-2.2l1-1.5c2.5-3.2 5.7-5.8 9.3-7.7.6-.3 1-.8 1.2-1.5.2-1.4 1.6-2.3 3-2.1.1 0 .2.1.4.1.3.1.7.1.9 0 3.3-2.7 7.1-3.9 11.2-4.8.3-.1.6-.3.8-.5.6-.7 1.3-1.4 1.9-2.1h1.3c1.2.4 2 1.6 2 2.9 0 .3.2.6.4.9 3.5 5.9 5.8 12.4 6.7 19.2.3 2.2 0 4.7 2 6.4v1.6c-.2.3-.4.5-.6.8-1.2 1.6-3.8 1.5-4.3-.3-.5-1.4-1.3-1.3-2.3-1.4-.8 0-1.5-.1-2.3-.1-4.4-.3-8.7.4-12.8 2-.4.2-.8.5-1.2.8-.7.7-1.2 1.4-1.9 2.1h-1.3c-1.8-.9-2.1-1.6-1.9-3.5 0-.3 0-.6-.2-.8-1.9-2.2-4.1-4-7-4.7-1.9-.4-3.8-1-5.5.8-1.2 1.1-2.8.4-4-1.4zm21.4-6.5c1 3.5.9 7.2-.4 10.7-.2.4 0 .8.4.9.2.1.4.1.6 0 3.6-1.5 7.4-2.2 11.2-2.1 2.1 0 4.3.2 6.4.3.8 0 1.5-.2 1-1-1-2.1-2.2-4.2-3.4-6.2 0-.2-.5-.2-.9-.2-.8-.1-1.9.1-2.3-.4-.8-.8-1.9-1.2-3-1.2-3-.3-6.2-.5-9.6-.8zm-1.4-9c6.1-.8 11 1.4 14.7 6.3.5-3.4.2-6.9-.8-10.3-.1-.2-.3-.4-.5-.5-.7-.4-1.4-.8-2.1-1.1h-.7c-3.7.8-7.3 1.8-10.3 4.2-.5.4-.9.8-.3 1.4zm-14.9 14c3.9-.4 7.7.9 10.5 3.6.7.6 1.3 1.3 2 1.9.5.4 1.3.4 1.7-.1.1-.1.1-.1.1-.2 1.2-3.2 1.3-6.6.3-9.9-5.1.1-11 2-14.6 4.7zm16.5-12.3h-1.9c-.7.1-1 .4-.6 1.1l1.8 4.1c.2.3.4.5.8.6 3.6.3 7.3.5 10.9.7.8 0 .9-.3.6-.9-.1-.3-.3-.5-.5-.7-3-3.5-6.8-4.7-11.1-4.9zm-6.6.4c-4.5 2.5-8.6 5.4-10.9 10.3 4.6-2.8 9.8-4.5 15.2-4.8-.7-1.6-1.3-2.9-2-4.3-.2-.2-.4-.4-.6-.5l-1.7-.7zm21-5.5c.2 2.8.3 5.9.5 9 0 .3.4.6.6.9.4.7 1.2 1.5 1.1 2.2-.1.8.3 1.7.8 2.3.3.4.6.8.9 1.3l.9 1.5c.3.5.5.9.7 1.4-.5-6.6-2.3-12.9-5.5-18.6z" fill="#fff"/></svg>