<svg xmlns="http://www.w3.org/2000/svg" viewBox="0 0 60.5 60.5"><circle cx="30.3" cy="30.3" r="30.3" fill="#8cc441"/><g fill="#fff"><path d="M47.6 44.5H12.9V16h34.7v28.5zm-33.4-1.3h32.1v-26H14.2v26z"/><path d="M13.6 24.9H47v1.3H13.6zm0 9.5H47v1.3H13.6z"/><circle cx="43.3" cy="20.9" r="1.5"/><circle cx="39.6" cy="20.9" r="1.5"/><circle cx="35.6" cy="20.9" r="1.5"/><circle cx="43.5" cy="30.3" r="1.5"/><circle cx="39.7" cy="30.3" r="1.5"/><circle cx="35.7" cy="30.3" r="1.5"/><circle cx="43.5" cy="39.5" r="1.5"/><circle cx="39.8" cy="39.5" r="1.5"/><circle cx="35.8" cy="39.5" r="1.5"/><path d="M16.5 19.9h2v2h-2zm0 9.4h2v2h-2zm0 9.2h2v2h-2z"/></g></svg>