<svg xmlns="http://www.w3.org/2000/svg" viewBox="0 0 60.5 60.5"><circle cx="30.3" cy="30.3" r="30.3" fill="#8cc441"/><g fill="#fff"><circle cx="29.8" cy="21.5" r="2.5"/><path d="M29.1 23.4h1.3v23.9h-1.3z"/><path d="M15 47.7l14.7-26.3 14.7 26.3-14.7-8.4L15 47.7zm16-9.2l10 5.7-4.8-8.6-5.2 2.9zm-7.7-2.9l-4.9 8.6 10-5.7-5.1-2.9zm.6-1.2l5.8 3.3 5.8-3.3L29.8 24l-5.9 10.4zm-.5-6.6c-3.2-3.6-3.2-9.1 0-12.7l.9.9c-.2.2-4.6 5 0 11l-.9.8zm-3.7 3.5c-8.7-10.5 0-19.6 0-19.7l.9.9c-.3.4-7.9 8.4 0 18l-.9.8zm1-18.8l-.5-.5.5.5zM36.6 28l-1-.8c4.7-6 .2-10.8 0-11l.9-.9c3.2 3.6 3.3 9.1.1 12.7zm3.7 3.5l-1-.8c8-9.6.4-17.6 0-18l.9-.9c.1.1 8.8 9.2.1 19.7z"/></g></svg>