<svg xmlns="http://www.w3.org/2000/svg" viewBox="0 0 64.5 64.2"><ellipse cx="32.3" cy="32.1" rx="32.3" ry="32.1" fill="#7dbd31"/><path d="M10 14.3v35.5h44.4V14.3H10zm43 34.1H11.5V21.8H53v26.6zM32.3 44c6.6 0 11.7-3.6 14.8-8.9-3.1-5.3-8.2-8.9-14.8-8.9s-11.7 3.6-14.8 8.9c3.1 5.3 8.1 8.9 14.8 8.9zm0-16.3c5.4 0 10.3 2.8 13.1 7.4-4.3 7.2-13.7 9.6-20.9 5.2-2.1-1.3-3.9-3.1-5.2-5.2 2.6-4.6 7.6-7.4 13-7.4zm0 12.6c2.9 0 5.2-2.3 5.1-5.2 0-2.9-2.3-5.2-5.2-5.1-2.8 0-5.1 2.3-5.1 5.2-.1 2.7 2.2 5.1 5.2 5.1-.1 0-.1 0 0 0zm0-7c1 0 1.7.8 1.7 1.7s-.8 1.7-1.7 1.7-1.7-.8-1.7-1.7c-.1-.9.7-1.6 1.7-1.7-.1 0-.1 0 0 0z" fill="#fff"/></svg>