<svg xmlns="http://www.w3.org/2000/svg" viewBox="0 0 59.5 59.5"><circle cx="29.8" cy="29.8" r="29.8" fill="#8cc441"/><g fill="#fff"><path d="M19.4 42.7C13.1 42.7 8 37.6 8 31.3 8 25.1 13.1 20 19.4 20c4.4 0 8.5 2.6 10.3 6.7l-1.2.5c-2.3-5-8.2-7.2-13.3-4.9S8 30.5 10.3 35.5c1.6 3.5 5.1 5.8 9 5.8h.2v1.3h-.1v.1z"/><path d="M31 22.4l-1-.3-1.2 4.6-4.4-1.5-.3.9 5.4 1.8zm-11.6 19h16.5v1.3H19.4zm21.4-19.7C40.4 15.6 35.1 11 29 11.4c-5.1.4-9.3 4.2-10.1 9.3l-1.3-.3c1.1-6.7 7.4-11.3 14.1-10.2 5.6.9 9.9 5.5 10.4 11.2l-1.3.3z"/><path d="M40.5 43.8c-5.5 0-10.2-3.9-11.2-9.3l1.3-.2c1 5.5 6.3 9.1 11.7 8.1s9.1-6.3 8.1-11.7c-.9-4.7-4.9-8.1-9.7-8.3V21a11.26 11.26 0 0 1 10.9 11.8c-.1 6.1-5.1 10.9-11.1 11z"/><path d="M27.1 38.3l.9.5 2.2-4.1 4 2.5.5-.8-4.8-3.1z"/></g></svg>