<?xml version="1.0" standalone="no"?>
<svg contentScriptType="text/ecmascript" zoomAndPan="magnify" xmlns:rdf="http://www.w3.org/1999/02/22-rdf-syntax-ns#"
    xmlns:xlink="http://www.w3.org/1999/xlink" xmlns:svg="http://www.w3.org/2000/svg" baseProfile="full"
    contentStyleType="text/css" id="ef79a744-318f-442b-aa6b-8fc230cf7aaf" sodipodi:docname="10212-icon-service-Azure-API-for-FHIR.svg"
    version="1.1" width="16.994802" xmlns:sodipodi="http://sodipodi.sourceforge.net/DTD/sodipodi-0.dtd" xmlns:dc="http://purl.org/dc/elements/1.1/"
    xmlns:inkscape="http://www.inkscape.org/namespaces/inkscape" xmlns:cc="http://creativecommons.org/ns#"
    preserveAspectRatio="xMidYMid meet" inkscape:version="0.92.3 (2405546, 2018-03-11)" viewBox="0 0 16.994802 16.134813"
    height="16.134813" xmlns="http://www.w3.org/2000/svg">
    <defs id="defs2883">
        <linearGradient x1="9.0900002" y1="17.5" x2="9.0900002" gradientUnits="userSpaceOnUse" y2="1.36" id="e25b5478-43f7-4f53-84a7-1f55844412ae">
            <stop offset="0" stop-color="#ef7100" id="stop2872"/>
            <stop offset="0.13" stop-color="#f27d07" id="stop2874"/>
            <stop offset="0.43" stop-color="#f69113" id="stop2876"/>
            <stop offset="0.72" stop-color="#f99e1b" id="stop2878"/>
            <stop offset="1" stop-color="#faa21d" id="stop2880"/>
        </linearGradient>
    </defs>
    <path style="fill:url(#e25b5478-43f7-4f53-84a7-1f55844412ae)" d="M 12.87748,0.01481299 A 4.26,4.26 0 0 0 
        8.4974798,2.864813 a 4.28,4.28 0 0 0 -4.39,-2.85000001 c -3.94999996,0.31 -4.15999996,4.22000001 
        -4.09999996,5.72000001 0.03,1.07 0.24,4.44 8.39999996,10.3 v 0.1 l 0.07,-0.05 0.07,0.05 v -0.1 c 8.2000002,-5.86 
        8.4100002,-9.29 8.4400002,-10.4 0.06,-1.46 -0.16,-5.31000001 -4.11,-5.62000001 z"/>
    <path style="fill:#ffe452" d="m 16.40748,2.434813 a 6.37,6.37 0 0 1 -0.31,4 c -0.88,2 -2.8,3.6 -5.59,4.78 a 
        1.34,1.34 0 0 0 -1.0000002,-0.43 1.37,1.37 0 1 0 1.3600002,1.41 13.68,13.68 0 0 0 5.54,-4.22 6.19,6.19 0 0 0 
        0.54,-3.26 7,7 0 0 0 -0.54,-2.28 z"/>
    <path style="fill:#ffe452" d="m 6.2774798,10.574813 v 0 l -0.39,0.4 c -2.75,-2.71 -3.62,-4.86 -2.48,-5.98 1.14,-1.12 
        3.27,-0.25 6,2.47 l -0.39,0.4 a 0.52,0.52 0 0 0 0,0.74 0.51,0.51 0 0 0 0.74,0 v 0 l 0.7400002,-0.74 a 0.53,0.53 
        0 0 0 0,-0.74 l -0.37,-0.37 c -1.8500002,-1.86 -5.0000002,-4.11 -7.0000002,-2.78 a 3.24,3.24 0 0 1 -1,-2 
        2.28,2.28 0 0 1 0.46,-1.63000001 4,4 0 0 0 -1.48,1.13000001 3.52,3.52 0 0 0 1.3,3.24 c -1.3,2 0.94,5.14 2.79,7 l 
        0.37,0.38 a 0.53,0.53 0 0 0 0.74,0 l 0.75,-0.75 a 0.53,0.53 0 0 0 0,-0.74 0.52,0.52 0 0 0 -0.78,-0.03 z"/>
</svg>