<?xml version="1.0" encoding="UTF-8" standalone="no"?>
<svg
   xmlns:dc="http://purl.org/dc/elements/1.1/"
   xmlns:cc="http://creativecommons.org/ns#"
   xmlns:rdf="http://www.w3.org/1999/02/22-rdf-syntax-ns#"
   xmlns:svg="http://www.w3.org/2000/svg"
   xmlns="http://www.w3.org/2000/svg"
   xmlns:sodipodi="http://sodipodi.sourceforge.net/DTD/sodipodi-0.dtd"
   xmlns:inkscape="http://www.inkscape.org/namespaces/inkscape"
   width="17.001556"
   height="15.14"
   viewBox="0 0 17.001556 15.14"
   version="1.1"
   id="svg54504"
   sodipodi:docname="Event_Grid_Subscriptions.svg"
   inkscape:version="0.92.3 (2405546, 2018-03-11)">
  <sodipodi:namedview
     pagecolor="#ffffff"
     bordercolor="#666666"
     borderopacity="1"
     objecttolerance="10"
     gridtolerance="10"
     guidetolerance="10"
     inkscape:pageopacity="0"
     inkscape:pageshadow="2"
     inkscape:window-width="1920"
     inkscape:window-height="1017"
     id="namedview54506"
     showgrid="false"
     fit-margin-top="0"
     fit-margin-left="0"
     fit-margin-right="0"
     fit-margin-bottom="0"
     inkscape:zoom="48.111111"
     inkscape:cx="8.5015563"
     inkscape:cy="7.57"
     inkscape:window-x="-8"
     inkscape:window-y="-8"
     inkscape:window-maximized="1"
     inkscape:current-layer="svg54504" />
  <defs
     id="defs54454">
    <linearGradient
       id="a20547e5-d6af-456b-afbc-05d22ff8cb9d"
       x1="4589.7202"
       y1="-5180.02"
       x2="4589.7202"
       y2="-5184.21"
       gradientTransform="matrix(0.5,0,0,-0.5,-2274.8116,-2587.89)"
       gradientUnits="userSpaceOnUse">
      <stop
         offset="0"
         stop-color="#c69aeb"
         id="stop54448" />
      <stop
         offset="1"
         stop-color="#6f4bb2"
         id="stop54450" />
    </linearGradient>
    <linearGradient
       id="a4745f51-5e75-4126-812d-6bb8a5130e16"
       x1="9645.8291"
       y1="-10884.767"
       x2="9645.8291"
       y2="-10893.544"
       href="#a20547e5-d6af-456b-afbc-05d22ff8cb9d"
       gradientUnits="userSpaceOnUse"
       gradientTransform="translate(0.49844367,1.43)" />
  </defs>
  <title
     id="title54456">Icon-integration-221</title>
  <g
     id="g54500"
     transform="translate(-0.49844367,-1.43)">
    <g
       id="b30b0bd5-e4d2-456b-8d49-c2df20200912">
      <path
         id="b51878b5-8d50-4b8b-bc48-74f5f7315a99"
         d="M 12.7,8.15 V 7.55 H 8.18 L 6.06,9.66 H 4.5 L 8.12,6 h 2.47 V 5.43 H 7.87 L 3.65,9.66 h -0.6 v 0.6 H 4.86 L 7,12.37 h 5.1 v -0.6 H 7.22 L 5.71,10.26 H 9.38 V 9.66 H 6.92 l 1.5,-1.51 z"
         inkscape:connector-curvature="0"
         style="fill:#32bedd" />
      <circle
         id="ad0ed4eb-cd5f-4cc0-bd19-2830d27ec806"
         cx="9.9799995"
         cy="9.96"
         r="0.87"
         style="fill:#ffffff" />
      <circle
         id="a2746b4a-0ae4-4308-876e-5b82657e1872"
         cx="10.89"
         cy="5.7399998"
         r="0.87"
         style="fill:#ffffff" />
      <circle
         id="fc3316e0-7094-4ce0-99ed-43f1e6e4350c"
         cx="13"
         cy="7.8499999"
         r="0.87"
         style="fill:#ffffff" />
      <circle
         id="b5d18443-d50e-4590-8e8f-80b6a7f6d348"
         cx="12.1"
         cy="12.07"
         r="0.87"
         style="fill:#ffffff" />
      <circle
         cx="10.86"
         cy="5.7399998"
         r="1.05"
         id="circle54463"
         style="fill:#50e6ff" />
      <circle
         cx="12.97"
         cy="7.8499999"
         r="1.05"
         id="circle54465"
         style="fill:url(#a20547e5-d6af-456b-afbc-05d22ff8cb9d)" />
      <circle
         cx="12.1"
         cy="12.07"
         r="1.05"
         id="circle54467"
         style="fill:url(#a4745f51-5e75-4126-812d-6bb8a5130e16)" />
      <circle
         cx="9.9799995"
         cy="9.96"
         r="1.05"
         id="circle54469"
         style="fill:#50e6ff" />
      <g
         id="g54475">
        <path
           d="M 1.07,1.43 H 2.36 V 5 A 0.29,0.29 0 0 1 2.07,5.29 H 0.79 A 0.29,0.29 0 0 1 0.5,5 V 2 A 0.57,0.57 0 0 1 1.07,1.43 Z"
           id="path54471"
           inkscape:connector-curvature="0"
           style="fill:#999999" />
        <path
           d="M 1.07,1.43 H 2.36 V 5 A 0.29,0.29 0 0 1 2.07,5.29 H 0.79 A 0.29,0.29 0 0 1 0.5,5 V 2 A 0.57,0.57 0 0 1 1.07,1.43 Z"
           id="path54473"
           inkscape:connector-curvature="0"
           style="opacity:0.5;fill:#999999" />
      </g>
      <g
         id="g54481">
        <path
           d="m 15.64,1.43 h 1.29 A 0.57,0.57 0 0 1 17.5,2 V 5 A 0.29,0.29 0 0 1 17.21,5.29 H 15.92 A 0.29,0.29 0 0 1 15.64,5 Z"
           id="path54477"
           inkscape:connector-curvature="0"
           style="fill:#999999" />
        <path
           d="m 15.64,1.43 h 1.29 A 0.57,0.57 0 0 1 17.5,2 V 5 A 0.29,0.29 0 0 1 17.21,5.29 H 15.92 A 0.29,0.29 0 0 1 15.64,5 Z"
           id="path54479"
           inkscape:connector-curvature="0"
           style="opacity:0.5;fill:#999999" />
      </g>
      <path
         d="m 8.66,-6.16 h 1.25 v 17 H 8.66 A 0.57,0.57 0 0 1 8.09,10.27 V -5.6 a 0.57,0.57 0 0 1 0.57,-0.56 z"
         transform="rotate(90,9,2.34)"
         id="path54483"
         inkscape:connector-curvature="0"
         style="fill:#949494" />
      <g
         id="g54489">
        <path
           d="m 0.79,12.68 h 1.29 a 0.29,0.29 0 0 1 0.29,0.29 v 3.6 H 1.07 A 0.57,0.57 0 0 1 0.5,16 v -3 a 0.29,0.29 0 0 1 0.29,-0.32 z"
           id="path54485"
           inkscape:connector-curvature="0"
           style="fill:#999999" />
        <path
           d="m 0.79,12.68 h 1.29 a 0.29,0.29 0 0 1 0.29,0.29 v 3.6 H 1.07 A 0.57,0.57 0 0 1 0.5,16 v -3 a 0.29,0.29 0 0 1 0.29,-0.32 z"
           id="path54487"
           inkscape:connector-curvature="0"
           style="opacity:0.5;fill:#999999" />
      </g>
      <g
         id="g54495">
        <path
           d="m 15.92,12.68 h 1.29 a 0.29,0.29 0 0 1 0.29,0.29 v 3 a 0.57,0.57 0 0 1 -0.57,0.57 H 15.64 V 13 a 0.29,0.29 0 0 1 0.28,-0.32 z"
           id="path54491"
           inkscape:connector-curvature="0"
           style="fill:#999999" />
        <path
           d="m 15.92,12.68 h 1.29 a 0.29,0.29 0 0 1 0.29,0.29 v 3 a 0.57,0.57 0 0 1 -0.57,0.57 H 15.64 V 13 a 0.29,0.29 0 0 1 0.28,-0.32 z"
           id="path54493"
           inkscape:connector-curvature="0"
           style="opacity:0.5;fill:#999999" />
      </g>
      <path
         d="m 8.66,7.16 h 1.25 v 17 H 8.66 A 0.57,0.57 0 0 1 8.09,23.59 V 7.73 A 0.57,0.57 0 0 1 8.66,7.16 Z"
         transform="rotate(-90,9,15.66)"
         id="path54497"
         inkscape:connector-curvature="0"
         style="fill:#949494" />
    </g>
  </g>
  <metadata
     id="metadata54502">
    <rdf:RDF>
      <rdf:li>public:true</rdf:li>
      <rdf:li>sdk:false</rdf:li>
      <rdf:li>category: Integration</rdf:li>
      <cc:Work
         rdf:about="">
        <dc:format>image/svg+xml</dc:format>
        <dc:type
           rdf:resource="http://purl.org/dc/dcmitype/StillImage" />
        <dc:title>Icon-integration-221</dc:title>
      </cc:Work>
    </rdf:RDF>
  </metadata>
</svg>
