<?xml version="1.0" encoding="UTF-8" standalone="no"?>
<svg
   xmlns:dc="http://purl.org/dc/elements/1.1/"
   xmlns:cc="http://creativecommons.org/ns#"
   xmlns:rdf="http://www.w3.org/1999/02/22-rdf-syntax-ns#"
   xmlns:svg="http://www.w3.org/2000/svg"
   xmlns="http://www.w3.org/2000/svg"
   xmlns:sodipodi="http://sodipodi.sourceforge.net/DTD/sodipodi-0.dtd"
   xmlns:inkscape="http://www.inkscape.org/namespaces/inkscape"
   width="17.040691"
   height="15.180094"
   viewBox="0 0 17.040691 15.180094"
   version="1.1"
   id="svg54728"
   sodipodi:docname="Event_Grid_Topics.svg"
   inkscape:version="0.92.3 (2405546, 2018-03-11)">
  <sodipodi:namedview
     pagecolor="#ffffff"
     bordercolor="#666666"
     borderopacity="1"
     objecttolerance="10"
     gridtolerance="10"
     guidetolerance="10"
     inkscape:pageopacity="0"
     inkscape:pageshadow="2"
     inkscape:window-width="1920"
     inkscape:window-height="1017"
     id="namedview54730"
     showgrid="false"
     fit-margin-top="0"
     fit-margin-left="0"
     fit-margin-right="0"
     fit-margin-bottom="0"
     inkscape:zoom="48.111111"
     inkscape:cx="8.5206905"
     inkscape:cy="7.5900941"
     inkscape:window-x="-8"
     inkscape:window-y="-8"
     inkscape:window-maximized="1"
     inkscape:current-layer="svg54728" />
  <defs
     id="defs54683">
    <linearGradient
       id="afc27830-8354-4c08-adf9-e299527ebe55"
       x1="7.9400001"
       y1="7.6999998"
       x2="7.9400001"
       y2="3.75"
       gradientUnits="userSpaceOnUse"
       gradientTransform="translate(0.47930947,1.41)">
      <stop
         offset="0"
         stop-color="#5e9624"
         id="stop54673" />
      <stop
         offset="1"
         stop-color="#76bc2d"
         id="stop54675" />
    </linearGradient>
    <linearGradient
       id="edc561ac-a1d6-439f-a08b-594ef0214ee3"
       x1="7.9400001"
       y1="14.26"
       x2="7.9400001"
       y2="10.31"
       gradientUnits="userSpaceOnUse"
       gradientTransform="translate(0.47930947,1.41)">
      <stop
         offset="0"
         stop-color="#5e9624"
         id="stop54678" />
      <stop
         offset="1"
         stop-color="#76bc2d"
         id="stop54680" />
    </linearGradient>
  </defs>
  <title
     id="title54685">Icon-integration-206</title>
  <g
     id="g54724"
     transform="translate(-0.47930947,-1.41)">
    <g
       id="aa7ea84e-faaa-4698-89ff-203b553089f2">
      <g
         id="g54721">
        <g
           id="g54691">
          <path
             d="M 1.06,1.42 H 2.35 V 5 A 0.29,0.29 0 0 1 2.06,5.29 H 0.77 A 0.29,0.29 0 0 1 0.48,5 V 2 A 0.57,0.57 0 0 1 1.06,1.42 Z"
             id="path54687"
             inkscape:connector-curvature="0"
             style="fill:#a3a3a3" />
          <path
             d="M 1.06,1.42 H 2.35 V 5 A 0.29,0.29 0 0 1 2.06,5.29 H 0.77 A 0.29,0.29 0 0 1 0.48,5 V 2 A 0.57,0.57 0 0 1 1.06,1.42 Z"
             id="path54689"
             inkscape:connector-curvature="0"
             style="opacity:0.5;fill:#a3a3a3" />
        </g>
        <g
           id="g54697">
          <path
             d="m 15.65,1.42 h 1.29 a 0.57,0.57 0 0 1 0.57,0.57 V 5 A 0.29,0.29 0 0 1 17.22,5.29 H 15.94 A 0.29,0.29 0 0 1 15.65,5 Z"
             id="path54693"
             inkscape:connector-curvature="0"
             style="fill:#a3a3a3" />
          <path
             d="m 15.65,1.42 h 1.29 a 0.57,0.57 0 0 1 0.57,0.57 V 5 A 0.29,0.29 0 0 1 17.22,5.29 H 15.94 A 0.29,0.29 0 0 1 15.65,5 Z"
             id="path54695"
             inkscape:connector-curvature="0"
             style="opacity:0.5;fill:#a3a3a3" />
        </g>
        <path
           d="m 8.66,-6.19 h 1.25 v 17 H 8.66 A 0.57,0.57 0 0 1 8.09,10.24 V -5.62 a 0.57,0.57 0 0 1 0.57,-0.57 z"
           transform="rotate(90,9,2.32)"
           id="path54699"
           inkscape:connector-curvature="0"
           style="fill:#949494" />
        <g
           id="g54705">
          <path
             d="m 0.77,12.69 h 1.29 a 0.29,0.29 0 0 1 0.29,0.29 v 3.61 H 1.06 A 0.57,0.57 0 0 1 0.48,16 v -3 a 0.29,0.29 0 0 1 0.29,-0.31 z"
             id="path54701"
             inkscape:connector-curvature="0"
             style="fill:#a3a3a3" />
          <path
             d="m 0.77,12.69 h 1.29 a 0.29,0.29 0 0 1 0.29,0.29 v 3.61 H 1.06 A 0.57,0.57 0 0 1 0.48,16 v -3 a 0.29,0.29 0 0 1 0.29,-0.31 z"
             id="path54703"
             inkscape:connector-curvature="0"
             style="opacity:0.5;fill:#a3a3a3" />
        </g>
        <g
           id="g54711">
          <path
             d="m 15.94,12.69 h 1.29 a 0.29,0.29 0 0 1 0.29,0.29 v 3 a 0.57,0.57 0 0 1 -0.57,0.57 h -1.3 V 13 a 0.29,0.29 0 0 1 0.29,-0.31 z"
             id="path54707"
             inkscape:connector-curvature="0"
             style="fill:#a3a3a3" />
          <path
             d="m 15.94,12.69 h 1.29 a 0.29,0.29 0 0 1 0.29,0.29 v 3 a 0.57,0.57 0 0 1 -0.57,0.57 h -1.3 V 13 a 0.29,0.29 0 0 1 0.29,-0.31 z"
             id="path54709"
             inkscape:connector-curvature="0"
             style="opacity:0.5;fill:#a3a3a3" />
        </g>
        <path
           d="m 8.66,7.16 h 1.25 v 17 H 8.66 A 0.57,0.57 0 0 1 8.09,23.59 V 7.73 A 0.57,0.57 0 0 1 8.66,7.16 Z"
           transform="rotate(-90,9,15.68)"
           id="path54713"
           inkscape:connector-curvature="0"
           style="fill:#949494" />
        <path
           d="M 14.91,8.84 13.09,7 A 0.09,0.09 0 0 0 12.93,7.07 V 8.2 a 0.09,0.09 0 0 1 -0.1,0.1 H 7.59 a 1.05,1.05 0 0 0 -0.83,-0.41 1.1,1.1 0 1 0 0,2.19 1.08,1.08 0 0 0 0.84,-0.42 h 5.23 a 0.09,0.09 0 0 1 0.1,0.09 v 1.11 a 0.09,0.09 0 0 0 0.16,0.06 l 1.82,-1.81 a 0.2,0.2 0 0 0 0,-0.27 z"
           id="path54715"
           inkscape:connector-curvature="0"
           style="fill:#5ea0ef" />
        <path
           d="M 11.55,5.59 9.73,3.78 A 0.09,0.09 0 0 0 9.57,3.85 V 5 A 0.09,0.09 0 0 1 9.48,5.1 H 6.2 A 1.07,1.07 0 0 0 5.36,4.69 1.1,1.1 0 1 0 6.21,6.46 h 3.27 a 0.09,0.09 0 0 1 0.09,0.09 v 1.06 a 0.09,0.09 0 0 0 0.16,0.06 l 1.82,-1.81 a 0.2,0.2 0 0 0 0,-0.27 z"
           id="path54717"
           inkscape:connector-curvature="0"
           style="fill:url(#afc27830-8354-4c08-adf9-e299527ebe55)" />
        <path
           d="M 11.55,12.15 9.73,10.34 a 0.09,0.09 0 0 0 -0.16,0.07 v 1.1 a 0.1,0.1 0 0 1 -0.09,0.1 H 6.2 A 1.07,1.07 0 0 0 5.36,11.2 1.1,1.1 0 1 0 6.21,13 h 3.27 a 0.09,0.09 0 0 1 0.09,0.09 v 1.11 a 0.09,0.09 0 0 0 0.16,0.06 l 1.82,-1.81 a 0.2,0.2 0 0 0 0,-0.3 z"
           id="path54719"
           inkscape:connector-curvature="0"
           style="fill:url(#edc561ac-a1d6-439f-a08b-594ef0214ee3)" />
      </g>
    </g>
  </g>
  <metadata
     id="metadata54726">
    <rdf:RDF>
      <rdf:li>public:true</rdf:li>
      <rdf:li>sdk:false</rdf:li>
      <rdf:li>category: Integration</rdf:li>
      <cc:Work
         rdf:about="">
        <dc:format>image/svg+xml</dc:format>
        <dc:type
           rdf:resource="http://purl.org/dc/dcmitype/StillImage" />
        <dc:title>Icon-integration-206</dc:title>
      </cc:Work>
    </rdf:RDF>
  </metadata>
</svg>
