<?xml version="1.0" standalone="no"?>
<svg contentScriptType="text/ecmascript" zoomAndPan="magnify" xmlns:rdf="http://www.w3.org/1999/02/22-rdf-syntax-ns#"
    xmlns:xlink="http://www.w3.org/1999/xlink" xmlns:svg="http://www.w3.org/2000/svg" baseProfile="full"
    contentStyleType="text/css" id="svg2767" sodipodi:docname="02072-icon-service-Partner-Topic.svg" version="1.1"
    width="18.000633" xmlns:sodipodi="http://sodipodi.sourceforge.net/DTD/sodipodi-0.dtd" xmlns:dc="http://purl.org/dc/elements/1.1/"
    xmlns:inkscape="http://www.inkscape.org/namespaces/inkscape" xmlns:cc="http://creativecommons.org/ns#"
    preserveAspectRatio="xMidYMid meet" inkscape:version="0.92.3 (2405546, 2018-03-11)" viewBox="0 0 18.000633 16.035004"
    height="16.035004" xmlns="http://www.w3.org/2000/svg">
    <defs id="defs2741">
        <linearGradient x1="10.275" y1="11.03" x2="10.275" gradientUnits="userSpaceOnUse" y2="7.7729998" id="b27e0b88-9d6f-4764-b5a0-04b62ac83910">
            <stop offset="0" stop-color="#0078d4" id="stop2736"/>
            <stop offset="1" stop-color="#5ea0ef" id="stop2738"/>
        </linearGradient>
    </defs>
    <path style="fill:#a3a3a3" d="M 0.61363341,0.00800333 H 1.9766334 V 3.7900033 a 0.306,0.306 0 0 1 -0.306,0.306 H 
        0.30763341 a 0.306,0.306 0 0 1 -0.30700000211,-0.306 V 0.62100333 a 0.6,0.6 0 0 1 0.59200000211,-0.613 z"/>
    <path style="opacity:0.5;fill:#a3a3a3" d="M 0.61363341,0.00800333 H 1.9766334 V 3.7900033 a 0.306,0.306 0 0 1 
        -0.306,0.306 H 0.30763341 a 0.306,0.306 0 0 1 -0.30700000211,-0.306 V 0.62100333 a 0.6,0.6 0 0 1 
        0.59200000211,-0.613 z"/>
    <path style="fill:#a3a3a3" d="m 16.025633,0.00800333 h 1.362 a 0.6,0.6 0 0 1 0.6,0.6 V 3.7880033 a 0.306,0.306 0 0 1 
        -0.306,0.306 h -1.35 a 0.306,0.306 0 0 1 -0.306,-0.306 z"/>
    <path style="opacity:0.5;fill:#a3a3a3" d="m 16.025633,0.00800333 h 1.362 a 0.6,0.6 0 0 1 0.6,0.6 V 3.7880033 a 
        0.306,0.306 0 0 1 -0.306,0.306 h -1.35 a 0.306,0.306 0 0 1 -0.306,-0.306 z"/>
    <path style="fill:#949494" d="M 17.989633,0.60000333 V 1.9200033 H 0.03263341 V 0.60000333 a 0.6,0.6 0 0 1 
        0.6,-0.5999999966574 H 17.387633 A 0.6,0.6 0 0 1 17.989633,0.60000333 Z"/>
    <path style="fill:#a3a3a3" d="M 0.30763341,11.915003 H 1.6706334 a 0.306,0.306 0 0 1 0.306,0.306 v 3.813 H 
        0.61363341 a 0.6,0.6 0 0 1 -0.61300000211,-0.593 c 0,-0.011 0,-0.021 0,-0.032 v -3.169 a 0.306,0.306 0 0 1 
        0.28500000211,-0.325 z"/>
    <path style="opacity:0.5;fill:#a3a3a3" d="M 0.30763341,11.915003 H 1.6706334 a 0.306,0.306 0 0 1 0.306,0.306 v 3.813 
        H 0.61363341 a 0.6,0.6 0 0 1 -0.61300000211,-0.593 c 0,-0.011 0,-0.021 0,-0.032 v -3.169 a 0.306,0.306 0 0 1 
        0.28500000211,-0.325 z"/>
    <path style="fill:#a3a3a3" d="m 16.331633,11.915003 h 1.363 a 0.306,0.306 0 0 1 0.306,0.3 v 0 3.169 a 0.6,0.6 0 0 1 
        -0.6,0.6 h -1.375 v -3.75 a 0.306,0.306 0 0 1 0.284,-0.327 z"/>
    <path style="opacity:0.5;fill:#a3a3a3" d="m 16.331633,11.915003 h 1.363 a 0.306,0.306 0 0 1 0.306,0.3 v 0 3.169 a 
        0.6,0.6 0 0 1 -0.6,0.6 h -1.375 v -3.75 a 0.306,0.306 0 0 1 0.284,-0.327 z"/>
    <path style="fill:#949494" d="m 6.3340789e-4,15.430003 v -1.315 H 17.958633 v 1.32 a 0.6,0.6 0 0 1 -0.6,0.6 H 
        0.60063341 a 0.6,0.6 0 0 1 -0.60000000211,-0.605 z"/>
    <path style="fill:url(#b27e0b88-9d6f-4764-b5a0-04b62ac83910)" d="m 12.919633,10.307003 v 0 a 0.105,0.105 0 0 0 
        0.082,-0.04 l 2.14,-2.1279997 a 0.234,0.234 0 0 0 0,-0.318 l -2.14,-2.163 a 0.1,0.1 0 0 0 -0.148,-0.02 
        0.106,0.106 0 0 0 -0.04,0.1 v 1.331 a 0.106,0.106 0 0 1 -0.093,0.117 H 7.7366334 a 1.235,1.235 0 0 0 
        -0.976,-0.482 c -0.042,0 -0.083,-0.006 -0.124,-0.006 a 1.294,1.294 0 0 0 -0.122,2.582 c 0.041,0 0.082,0 0.123,0 
        0.041,0 0.082,0 0.123,0 a 1.274,1.274 0 0 0 0.988,-0.494 h 4.9629996 a 0.106,0.106 0 0 1 0.105,0.094 v 1.3179997 
        a 0.107,0.107 0 0 0 0.103,0.109 z"/>
    <path style="fill:#773adc" d="m 8.8866334,9.5850033 a 2.747,2.747 0 1 1 -0.01,-3.2 h 1.4899996 a 4.04,4.04 0 1 0 
        0.006,3.2 z"/>​
</svg>