<?xml version="1.0" encoding="UTF-8" standalone="no"?>
<svg
   xmlns:dc="http://purl.org/dc/elements/1.1/"
   xmlns:cc="http://creativecommons.org/ns#"
   xmlns:rdf="http://www.w3.org/1999/02/22-rdf-syntax-ns#"
   xmlns:svg="http://www.w3.org/2000/svg"
   xmlns="http://www.w3.org/2000/svg"
   xmlns:sodipodi="http://sodipodi.sourceforge.net/DTD/sodipodi-0.dtd"
   xmlns:inkscape="http://www.inkscape.org/namespaces/inkscape"
   width="17.011557"
   height="15.150001"
   viewBox="0 0 17.011557 15.150001"
   version="1.1"
   id="svg55337"
   sodipodi:docname="Relays.svg"
   inkscape:version="0.92.3 (2405546, 2018-03-11)">
  <sodipodi:namedview
     pagecolor="#ffffff"
     bordercolor="#666666"
     borderopacity="1"
     objecttolerance="10"
     gridtolerance="10"
     guidetolerance="10"
     inkscape:pageopacity="0"
     inkscape:pageshadow="2"
     inkscape:window-width="1920"
     inkscape:window-height="1017"
     id="namedview55339"
     showgrid="false"
     fit-margin-top="0"
     fit-margin-left="0"
     fit-margin-right="0"
     fit-margin-bottom="0"
     inkscape:zoom="48.111111"
     inkscape:cx="8.4215563"
     inkscape:cy="7.42"
     inkscape:window-x="-8"
     inkscape:window-y="-8"
     inkscape:window-maximized="1"
     inkscape:current-layer="svg55337" />
  <defs
     id="defs55295">
    <linearGradient
       id="bc749e5b-d92e-4108-bd03-94292d319bad"
       x1="6.1100001"
       y1="12.5"
       x2="6.1100001"
       y2="9.4200001"
       gradientUnits="userSpaceOnUse"
       gradientTransform="translate(0.57844367,1.2699995)">
      <stop
         offset="0"
         stop-color="#6f4bb2"
         id="stop55285" />
      <stop
         offset="1"
         stop-color="#c69aeb"
         id="stop55287" />
    </linearGradient>
    <linearGradient
       id="a6c0d9d6-4ddb-42bb-a4e1-0936b3e0d5bd"
       x1="12.06"
       y1="12.5"
       x2="12.06"
       y2="9.4200001"
       gradientUnits="userSpaceOnUse"
       gradientTransform="translate(0.57844367,1.2699995)">
      <stop
         offset="0"
         stop-color="#6f4bb2"
         id="stop55290" />
      <stop
         offset="1"
         stop-color="#c69aeb"
         id="stop55292" />
    </linearGradient>
  </defs>
  <title
     id="title55297">Icon-integration-209</title>
  <g
     id="g55333"
     transform="translate(-0.57844367,-1.2699995)">
    <g
       id="a648095e-7302-4e27-a235-6a21bc33cd8e">
      <polygon
         points="9.13,6.18 8.87,6.01 5.88,10.79 6.49,11.16 9.13,6.93 11.78,11.17 12.38,10.79 9.4,6.01 "
         id="polygon55299"
         style="fill:#949494" />
      <circle
         id="ba379c67-2b18-4ca9-949e-135360c6791b"
         cx="9.0799999"
         cy="6.21"
         r="1.54"
         style="fill:#86d633" />
      <circle
         id="f9fc8275-0c73-430b-aa4d-fa59c8a3d174"
         cx="6.1100001"
         cy="10.96"
         r="1.54"
         style="fill:url(#bc749e5b-d92e-4108-bd03-94292d319bad)" />
      <circle
         id="bcd6bcfb-f475-487d-a26d-eedd4cead763"
         cx="12.06"
         cy="10.96"
         r="1.54"
         style="fill:url(#a6c0d9d6-4ddb-42bb-a4e1-0936b3e0d5bd)" />
      <g
         id="g55308">
        <path
           d="m 1.15,1.27 h 1.29 v 3.6 A 0.29,0.29 0 0 1 2.15,5.16 H 0.87 A 0.29,0.29 0 0 1 0.58,4.87 v -3 a 0.57,0.57 0 0 1 0.57,-0.6 z"
           id="path55304"
           inkscape:connector-curvature="0"
           style="fill:#999999" />
        <path
           d="m 1.15,1.27 h 1.29 v 3.6 A 0.29,0.29 0 0 1 2.15,5.16 H 0.87 A 0.29,0.29 0 0 1 0.58,4.87 v -3 a 0.57,0.57 0 0 1 0.57,-0.6 z"
           id="path55306"
           inkscape:connector-curvature="0"
           style="opacity:0.5;fill:#999999" />
      </g>
      <g
         id="g55314">
        <path
           d="M 15.72,1.27 H 17 a 0.57,0.57 0 0 1 0.57,0.57 v 3 A 0.29,0.29 0 0 1 17.28,5.13 H 16 A 0.29,0.29 0 0 1 15.71,4.84 V 1.27 Z"
           id="path55310"
           inkscape:connector-curvature="0"
           style="fill:#999999" />
        <path
           d="M 15.72,1.27 H 17 a 0.57,0.57 0 0 1 0.57,0.57 v 3 A 0.29,0.29 0 0 1 17.28,5.13 H 16 A 0.29,0.29 0 0 1 15.71,4.84 V 1.27 Z"
           id="path55312"
           inkscape:connector-curvature="0"
           style="opacity:0.5;fill:#999999" />
      </g>
      <path
         d="M 8.74,-6.32 H 10 v 17 H 8.74 A 0.57,0.57 0 0 1 8.17,10.11 V -5.75 a 0.57,0.57 0 0 1 0.57,-0.57 z"
         transform="rotate(90,9.08,2.18)"
         id="path55316"
         inkscape:connector-curvature="0"
         style="fill:#949494" />
      <g
         id="g55322">
        <path
           d="m 0.87,12.52 h 1.29 a 0.29,0.29 0 0 1 0.29,0.29 v 3.6 H 1.15 A 0.57,0.57 0 0 1 0.58,15.84 v -3 a 0.29,0.29 0 0 1 0.29,-0.32 z"
           id="path55318"
           inkscape:connector-curvature="0"
           style="fill:#999999" />
        <path
           d="m 0.87,12.52 h 1.29 a 0.29,0.29 0 0 1 0.29,0.29 v 3.6 H 1.15 A 0.57,0.57 0 0 1 0.58,15.84 v -3 a 0.29,0.29 0 0 1 0.29,-0.32 z"
           id="path55320"
           inkscape:connector-curvature="0"
           style="opacity:0.5;fill:#999999" />
      </g>
      <g
         id="g55328">
        <path
           d="m 16,12.52 h 1.3 a 0.29,0.29 0 0 1 0.29,0.29 v 3 a 0.57,0.57 0 0 1 -0.57,0.57 h -1.3 v -3.6 A 0.29,0.29 0 0 1 16,12.52 Z"
           id="path55324"
           inkscape:connector-curvature="0"
           style="fill:#999999" />
        <path
           d="m 16,12.52 h 1.3 a 0.29,0.29 0 0 1 0.29,0.29 v 3 a 0.57,0.57 0 0 1 -0.57,0.57 h -1.3 v -3.6 A 0.29,0.29 0 0 1 16,12.52 Z"
           id="path55326"
           inkscape:connector-curvature="0"
           style="opacity:0.5;fill:#999999" />
      </g>
      <path
         d="M 8.74,7 H 10 V 24 H 8.74 A 0.57,0.57 0 0 1 8.17,23.43 V 7.57 A 0.57,0.57 0 0 1 8.74,7 Z"
         transform="rotate(-90,9.085,15.505)"
         id="path55330"
         inkscape:connector-curvature="0"
         style="fill:#949494" />
    </g>
  </g>
  <metadata
     id="metadata55335">
    <rdf:RDF>
      <rdf:li>public:true</rdf:li>
      <rdf:li>sdk:false</rdf:li>
      <rdf:li>category: Integration</rdf:li>
      <cc:Work
         rdf:about="">
        <dc:format>image/svg+xml</dc:format>
        <dc:type
           rdf:resource="http://purl.org/dc/dcmitype/StillImage" />
        <dc:title>Icon-integration-209</dc:title>
      </cc:Work>
    </rdf:RDF>
  </metadata>
</svg>
