<?xml version="1.0" encoding="UTF-8" standalone="no"?>
<svg
   xmlns:dc="http://purl.org/dc/elements/1.1/"
   xmlns:cc="http://creativecommons.org/ns#"
   xmlns:rdf="http://www.w3.org/1999/02/22-rdf-syntax-ns#"
   xmlns:svg="http://www.w3.org/2000/svg"
   xmlns="http://www.w3.org/2000/svg"
   xmlns:sodipodi="http://sodipodi.sourceforge.net/DTD/sodipodi-0.dtd"
   xmlns:inkscape="http://www.inkscape.org/namespaces/inkscape"
   id="be35ad43-1aa6-4603-935f-1197686f7c0c"
   width="16.99"
   height="14.012591"
   viewBox="0 0 16.99 14.012591"
   version="1.1"
   sodipodi:docname="Software_as_a_Service.svg"
   inkscape:version="0.92.3 (2405546, 2018-03-11)">
  <sodipodi:namedview
     pagecolor="#ffffff"
     bordercolor="#666666"
     borderopacity="1"
     objecttolerance="10"
     gridtolerance="10"
     guidetolerance="10"
     inkscape:pageopacity="0"
     inkscape:pageshadow="2"
     inkscape:window-width="1920"
     inkscape:window-height="1017"
     id="namedview55458"
     showgrid="false"
     fit-margin-top="0"
     fit-margin-left="0"
     fit-margin-right="0"
     fit-margin-bottom="0"
     inkscape:zoom="48.111111"
     inkscape:cx="8.49"
     inkscape:cy="7.0101042"
     inkscape:window-x="-8"
     inkscape:window-y="-8"
     inkscape:window-maximized="1"
     inkscape:current-layer="be35ad43-1aa6-4603-935f-1197686f7c0c" />
  <defs
     id="defs55448">
    <linearGradient
       id="eecac283-5787-4815-966b-5038e8694ef9"
       x1="9"
       y1="1.99"
       x2="9"
       y2="14.03"
       gradientUnits="userSpaceOnUse">
      <stop
         offset="0"
         stop-color="#5ea0ef"
         id="stop55428" />
      <stop
         offset="0.18"
         stop-color="#559cec"
         id="stop55430" />
      <stop
         offset="0.47"
         stop-color="#3c91e5"
         id="stop55432" />
      <stop
         offset="0.84"
         stop-color="#1380da"
         id="stop55434" />
      <stop
         offset="1"
         stop-color="#0078d4"
         id="stop55436" />
    </linearGradient>
    <linearGradient
       id="f10368bd-0855-4655-99c6-f816802ac965"
       x1="9.0600004"
       y1="6.3899999"
       x2="9.0600004"
       y2="16.01"
       gradientUnits="userSpaceOnUse">
      <stop
         offset="0"
         stop-color="#b3b3b3"
         id="stop55439" />
      <stop
         offset="0.12"
         stop-color="#adadad"
         id="stop55441" />
      <stop
         offset="0.64"
         stop-color="#9b9b9b"
         id="stop55443" />
      <stop
         offset="1"
         stop-color="#949494"
         id="stop55445" />
    </linearGradient>
  </defs>
  <path
     d="m 16.99,8.2624867 a 3.82,3.82 0 0 0 -3.32,-3.67 A 4.8,4.8 0 0 0 8.72,0.00248673 4.94,4.94 0 0 0 4,3.2024867 a 4.56,4.56 0 0 0 -4,4.39 4.62,4.62 0 0 0 4.78,4.4100003 h 8.17 a 1.2,1.2 0 0 0 0.2,0 3.87,3.87 0 0 0 3.84,-3.7400003 z"
     id="path55450"
     inkscape:connector-curvature="0"
     style="fill:url(#eecac283-5787-4815-966b-5038e8694ef9)" />
  <path
     d="m 11.37,13.532487 a 0.48,0.48 0 0 1 -0.49,0.48 H 6.21 a 0.48,0.48 0 0 1 -0.49,-0.48 V 4.8724867 a 0.48,0.48 0 0 1 0.49,-0.48 h 4.67 a 0.48,0.48 0 0 1 0.49,0.48 z"
     id="path55452"
     inkscape:connector-curvature="0"
     style="fill:url(#f10368bd-0855-4655-99c6-f816802ac965)" />
  <path
     id="b27878c5-7f3c-4613-bf1f-666b5e29766a"
     d="m 6.39,5.3924867 h 1.1 v 1.35 h -1.1 z m 1.62,0 h 1.08 v 1.35 H 8.01 Z m 1.62,0 h 1.08 v 1.35 H 9.63 Z m -3.24,2.16 h 1.1 v 1.35 h -1.1 z m 1.62,0 h 1.08 v 1.35 H 8.01 Z m 1.62,0 h 1.08 v 1.35 H 9.63 Z m -3.24,2.16 h 1.1 v 1.3500003 h -1.1 z m 1.62,0 H 9.09 V 11.062487 H 8.01 Z m 0,2.1600003 h 1.08 v 1.62 H 8.01 Z M 9.63,9.7124867 h 1.08 V 11.062487 H 9.63 Z"
     inkscape:connector-curvature="0"
     style="fill:#ffffff" />
  <metadata
     id="metadata55455">
    <rdf:RDF>
      <rdf:li>public:true</rdf:li>
      <rdf:li>sdk:false</rdf:li>
      <rdf:li>category: Integration</rdf:li>
      <cc:Work
         rdf:about="">
        <dc:format>image/svg+xml</dc:format>
        <dc:type
           rdf:resource="http://purl.org/dc/dcmitype/StillImage" />
        <dc:title></dc:title>
      </cc:Work>
    </rdf:RDF>
  </metadata>
</svg>
