<?xml version="1.0" encoding="UTF-8" standalone="no"?>
<svg
   xmlns:dc="http://purl.org/dc/elements/1.1/"
   xmlns:cc="http://creativecommons.org/ns#"
   xmlns:rdf="http://www.w3.org/1999/02/22-rdf-syntax-ns#"
   xmlns:svg="http://www.w3.org/2000/svg"
   xmlns="http://www.w3.org/2000/svg"
   xmlns:sodipodi="http://sodipodi.sourceforge.net/DTD/sodipodi-0.dtd"
   xmlns:inkscape="http://www.inkscape.org/namespaces/inkscape"
   id="f45ab782-7a6d-4f18-9416-8f78a4087155"
   width="14.180355"
   height="17.033997"
   viewBox="0 0 14.180355 17.033997"
   version="1.1"
   sodipodi:docname="Activity_Log.svg"
   inkscape:version="0.92.3 (2405546, 2018-03-11)">
  <sodipodi:namedview
     pagecolor="#ffffff"
     bordercolor="#666666"
     borderopacity="1"
     objecttolerance="10"
     gridtolerance="10"
     guidetolerance="10"
     inkscape:pageopacity="0"
     inkscape:pageshadow="2"
     inkscape:window-width="1920"
     inkscape:window-height="1017"
     id="namedview57322"
     showgrid="false"
     fit-margin-top="0"
     fit-margin-left="0"
     fit-margin-right="0"
     fit-margin-bottom="0"
     inkscape:zoom="48.111111"
     inkscape:cx="7.09"
     inkscape:cy="8.53"
     inkscape:window-x="-8"
     inkscape:window-y="-8"
     inkscape:window-maximized="1"
     inkscape:current-layer="f45ab782-7a6d-4f18-9416-8f78a4087155" />
  <defs
     id="defs57307">
    <linearGradient
       id="f8a6a4fc-9e8d-423a-97d1-d514179ece73"
       x1="8.1499996"
       y1="17.5"
       x2="8.1499996"
       y2="2.0899999"
       gradientUnits="userSpaceOnUse">
      <stop
         offset="0"
         stop-color="#1988d9"
         id="stop57302" />
      <stop
         offset="0.9"
         stop-color="#54aef0"
         id="stop57304" />
    </linearGradient>
  </defs>
  <title
     id="title57309">Icon-manage-305</title>
  <path
     d="M 0.02,1.6139957 1.23,0.20399566 a 0.59,0.59 0 0 1 0.45,-0.2 h 11.61 a 0.81,0.81 0 0 1 0.89,0.83 V 15.333996 a 0.57,0.57 0 0 1 -0.2,0.43 l -1.3,1.19 H 0.81 l -0.81,-0.33 z"
     id="path57311"
     inkscape:connector-curvature="0"
     style="fill:#005ba1" />
  <path
     d="M 1,1.6039957 1.74,0.76399566 a 0.5,0.5 0 0 1 0.35,-0.18 H 12.98 A 0.52,0.52 0 0 1 13.5,1.1039957 V 14.883996 a 0.52,0.52 0 0 1 -0.17,0.39 l -1.16,1.05 z"
     id="path57313"
     inkscape:connector-curvature="0"
     style="fill:#ffffff" />
  <path
     d="m 12.09,1.5939957 h -12 a 0.06,0.06 0 0 0 -0.06,0.06 V 16.653996 a 0.39,0.39 0 0 0 0.39,0.38 h 11.67 a 0.38,0.38 0 0 0 0.38,-0.38 V 1.9839957 a 0.39,0.39 0 0 0 -0.38,-0.39 z"
     id="path57315"
     inkscape:connector-curvature="0"
     style="fill:url(#f8a6a4fc-9e8d-423a-97d1-d514179ece73)" />
  <rect
     x="2.8099997"
     y="5.7039957"
     width="6.5799999"
     height="2.3800001"
     rx="0.28"
     id="rect57317"
     style="fill:#ffffff" />
  <metadata
     id="metadata57319">
    <rdf:RDF>
      <rdf:li>public:true</rdf:li>
      <rdf:li>sdk:MsPortalFx.Base.Images.Polychromatic.Log()</rdf:li>
      <rdf:li>category: Management + Governance</rdf:li>
      <cc:Work
         rdf:about="">
        <dc:format>image/svg+xml</dc:format>
        <dc:type
           rdf:resource="http://purl.org/dc/dcmitype/StillImage" />
        <dc:title>Icon-manage-305</dc:title>
      </cc:Work>
    </rdf:RDF>
  </metadata>
</svg>
