<?xml version="1.0" encoding="UTF-8" standalone="no"?>
<svg
   xmlns:dc="http://purl.org/dc/elements/1.1/"
   xmlns:cc="http://creativecommons.org/ns#"
   xmlns:rdf="http://www.w3.org/1999/02/22-rdf-syntax-ns#"
   xmlns:svg="http://www.w3.org/2000/svg"
   xmlns="http://www.w3.org/2000/svg"
   xmlns:sodipodi="http://sodipodi.sourceforge.net/DTD/sodipodi-0.dtd"
   xmlns:inkscape="http://www.inkscape.org/namespaces/inkscape"
   id="bce834e7-d376-4c21-97e6-b6c840c32de0"
   width="17.02"
   height="16.357126"
   viewBox="0 0 17.02 16.357126"
   version="1.1"
   sodipodi:docname="Advisor.svg"
   inkscape:version="0.92.3 (2405546, 2018-03-11)">
  <sodipodi:namedview
     pagecolor="#ffffff"
     bordercolor="#666666"
     borderopacity="1"
     objecttolerance="10"
     gridtolerance="10"
     guidetolerance="10"
     inkscape:pageopacity="0"
     inkscape:pageshadow="2"
     inkscape:window-width="1920"
     inkscape:window-height="1017"
     id="namedview57394"
     showgrid="false"
     fit-margin-top="0"
     fit-margin-left="0"
     fit-margin-right="0"
     fit-margin-bottom="0"
     inkscape:zoom="48.111111"
     inkscape:cx="8.52"
     inkscape:cy="8.3560467"
     inkscape:window-x="-8"
     inkscape:window-y="-8"
     inkscape:window-maximized="1"
     inkscape:current-layer="bce834e7-d376-4c21-97e6-b6c840c32de0" />
  <defs
     id="defs57377">
    <linearGradient
       id="b5b60882-abde-470c-a0f5-cd6e41418837"
       x1="9"
       y1="-0.88"
       x2="9"
       y2="16.01"
       gradientUnits="userSpaceOnUse">
      <stop
         offset="0.22"
         stop-color="#32d4f5"
         id="stop57364" />
      <stop
         offset="0.43"
         stop-color="#31d1f2"
         id="stop57366" />
      <stop
         offset="0.6"
         stop-color="#2dc6e9"
         id="stop57368" />
      <stop
         offset="0.76"
         stop-color="#28b5d9"
         id="stop57370" />
      <stop
         offset="0.91"
         stop-color="#1f9dc4"
         id="stop57372" />
      <stop
         offset="1"
         stop-color="#198ab3"
         id="stop57374" />
    </linearGradient>
  </defs>
  <title
     id="title57379">Icon-manage-301</title>
  <path
     d="m 17.02,8.4410787 a 3.85,3.85 0 0 0 -3.32,-3.74 A 4.85,4.85 0 0 0 8.75,0.00107874 5,5 0 0 0 4,3.2910787 a 4.58,4.58 0 0 0 -4,4.46 4.66,4.66 0 0 0 4.79,4.5300003 3,3 0 0 0 0.42,0 h 7.75 a 0.64,0.64 0 0 0 0.2,0 3.9,3.9 0 0 0 3.86,-3.8400003 z"
     id="path57381"
     inkscape:connector-curvature="0"
     style="fill:url(#b5b60882-abde-470c-a0f5-cd6e41418837)" />
  <path
     d="m 14.05,14.141079 -2,2.14 a 0.26,0.26 0 0 1 -0.44,-0.14 l -1.21,-5.9 a 0.26,0.26 0 0 1 0.12,-0.24 l 1.32,-0.5400003 a 0.26,0.26 0 0 1 0.33,0.13 l 1.95,4.3000003 a 0.24,0.24 0 0 1 -0.07,0.25 z"
     id="path57383"
     inkscape:connector-curvature="0"
     style="fill:#37c2b1" />
  <path
     d="m 7.52,14.141079 2,2.14 a 0.26,0.26 0 0 0 0.44,-0.14 l 1.21,-5.9 A 0.26,0.26 0 0 0 11.02,9.9610787 l -1.32,-0.54 a 0.26,0.26 0 0 0 -0.33,0.13 L 7.42,13.851079 a 0.24,0.24 0 0 0 0.1,0.29 z"
     id="path57385"
     inkscape:connector-curvature="0"
     style="fill:#42e8ca" />
  <path
     d="m 11.1,5.0010787 0.26,-0.22 a 0.41,0.41 0 0 1 0.57,0.05 0.37,0.37 0 0 1 0.07,0.12 l 0.12,0.32 a 0.42,0.42 0 0 0 0.45,0.26 l 0.33,-0.06 a 0.41,0.41 0 0 1 0.47,0.33 0.33,0.33 0 0 1 0,0.14 l -0.06,0.33 a 0.42,0.42 0 0 0 0.26,0.45 l 0.32,0.11 a 0.42,0.42 0 0 1 0.24,0.53 0.75,0.75 0 0 1 -0.07,0.12 l -0.22,0.25 a 0.42,0.42 0 0 0 0,0.52 l 0.22,0.26 a 0.4,0.4 0 0 1 -0.06,0.57 0.41,0.41 0 0 1 -0.11,0.07 l -0.32,0.12 a 0.4,0.4 0 0 0 -0.26,0.45 l 0.06,0.3300003 a 0.39,0.39 0 0 1 -0.33,0.46 0.33,0.33 0 0 1 -0.14,0 h -0.33 a 0.4,0.4 0 0 0 -0.45,0.26 l -0.12,0.31 a 0.4,0.4 0 0 1 -0.52,0.24 0.37,0.37 0 0 1 -0.12,-0.07 l -0.25,-0.25 a 0.4,0.4 0 0 0 -0.52,0 l -0.26,0.21 a 0.4,0.4 0 0 1 -0.57,-0.05 0.24,0.24 0 0 1 -0.07,-0.12 l -0.12,-0.31 a 0.39,0.39 0 0 0 -0.45,-0.26 l -0.33,0.06 a 0.41,0.41 0 0 1 -0.47,-0.34 0.29,0.29 0 0 1 0,-0.13 L 8.38,9.7310787 a 0.4,0.4 0 0 0 -0.26,-0.45 l -0.31,-0.12 a 0.42,0.42 0 0 1 -0.29,-0.5 0.75,0.75 0 0 1 0.07,-0.12 l 0.22,-0.26 a 0.42,0.42 0 0 0 0,-0.52 l -0.22,-0.25 a 0.41,0.41 0 0 1 0.06,-0.58 0.23,0.23 0 0 1 0.12,-0.06 l 0.31,-0.12 a 0.42,0.42 0 0 0 0.26,-0.45 l -0.02,-0.3 a 0.41,0.41 0 0 1 0.33,-0.47 h 0.14 l 0.33,0.06 a 0.41,0.41 0 0 0 0.45,-0.26 l 0.12,-0.33 a 0.41,0.41 0 0 1 0.52,-0.24 l 0.12,0.07 0.26,0.22 a 0.41,0.41 0 0 0 0.51,-0.05 z"
     id="path57387"
     inkscape:connector-curvature="0"
     style="fill:#005ba1" />
  <circle
     cx="10.85"
     cy="8.0210791"
     r="2.3599999"
     id="circle57389"
     style="fill:#ffca00" />
  <metadata
     id="metadata57391">
    <rdf:RDF>
      <rdf:li>public:true</rdf:li>
      <rdf:li>sdk:MsPortalFx.Base.Images.Polychromatic.Advisor()</rdf:li>
      <rdf:li>category: Management + Governance</rdf:li>
      <cc:Work
         rdf:about="">
        <dc:format>image/svg+xml</dc:format>
        <dc:type
           rdf:resource="http://purl.org/dc/dcmitype/StillImage" />
        <dc:title>Icon-manage-301</dc:title>
      </cc:Work>
    </rdf:RDF>
  </metadata>
</svg>
