<?xml version="1.0" encoding="UTF-8" standalone="no"?>
<svg
   xmlns:dc="http://purl.org/dc/elements/1.1/"
   xmlns:cc="http://creativecommons.org/ns#"
   xmlns:rdf="http://www.w3.org/1999/02/22-rdf-syntax-ns#"
   xmlns:svg="http://www.w3.org/2000/svg"
   xmlns="http://www.w3.org/2000/svg"
   xmlns:sodipodi="http://sodipodi.sourceforge.net/DTD/sodipodi-0.dtd"
   xmlns:inkscape="http://www.inkscape.org/namespaces/inkscape"
   id="a9f56b4e-2a51-4471-9488-d461408ae4eb"
   width="17.000172"
   height="14.177593"
   viewBox="0 0 17.000172 14.177593"
   version="1.1"
   sodipodi:docname="Alerts.svg"
   inkscape:version="0.92.3 (2405546, 2018-03-11)">
  <sodipodi:namedview
     pagecolor="#ffffff"
     bordercolor="#666666"
     borderopacity="1"
     objecttolerance="10"
     gridtolerance="10"
     guidetolerance="10"
     inkscape:pageopacity="0"
     inkscape:pageshadow="2"
     inkscape:window-width="1920"
     inkscape:window-height="1017"
     id="namedview57471"
     showgrid="false"
     fit-margin-top="0"
     fit-margin-left="0"
     fit-margin-right="0"
     fit-margin-bottom="0"
     inkscape:zoom="48.111111"
     inkscape:cx="8.5000862"
     inkscape:cy="7.0875928"
     inkscape:window-x="-8"
     inkscape:window-y="-8"
     inkscape:window-maximized="1"
     inkscape:current-layer="a9f56b4e-2a51-4471-9488-d461408ae4eb" />
  <defs
     id="defs57458">
    <linearGradient
       id="e4e1e494-21f1-4e9c-a6fa-0993efff08d3"
       x1="9"
       y1="17.200001"
       x2="9"
       y2="-3.28"
       gradientUnits="userSpaceOnUse"
       gradientTransform="translate(0.49991379,1.91)">
      <stop
         offset="0"
         stop-color="#5e9624"
         id="stop57447" />
      <stop
         offset="0.18"
         stop-color="#629c25"
         id="stop57449" />
      <stop
         offset="0.44"
         stop-color="#6dae2a"
         id="stop57451" />
      <stop
         offset="0.73"
         stop-color="#7fcb30"
         id="stop57453" />
      <stop
         offset="0.82"
         stop-color="#86d633"
         id="stop57455" />
    </linearGradient>
  </defs>
  <g
     id="g57466"
     transform="translate(-0.49991379,-1.91)">
    <path
       d="m 17.5,2.5 v 10.83 a 0.58,0.58 0 0 1 -0.58,0.58 H 12.4 a 0.15,0.15 0 0 0 -0.15,0.14 V 15.8 A 0.28,0.28 0 0 1 11.8,16.03 L 9.08,13.94 H 8.99 1.08 A 0.58,0.58 0 0 1 0.5,13.36 V 2.5 A 0.58,0.58 0 0 1 1.08,1.91 H 16.92 A 0.58,0.58 0 0 1 17.5,2.5 Z"
       id="path57460"
       inkscape:connector-curvature="0"
       style="fill:url(#e4e1e494-21f1-4e9c-a6fa-0993efff08d3)" />
    <path
       d="M 9.54,9.63 H 8.38 A 0.36,0.36 0 0 1 8,9.29 L 7.8,3.43 A 0.35,0.35 0 0 1 8.15,3.07 h 1.7 A 0.35,0.35 0 0 1 10.2,3.44 L 9.89,9.3 A 0.35,0.35 0 0 1 9.54,9.63 Z"
       id="path57462"
       inkscape:connector-curvature="0"
       style="fill:#ffffff" />
    <rect
       x="8.1300001"
       y="10.62"
       width="1.6900001"
       height="1.6900001"
       rx="0.61000001"
       id="rect57464"
       style="fill:#ffffff" />
  </g>
  <metadata
     id="metadata57468">
    <rdf:RDF>
      <rdf:li>public:true</rdf:li>
      <rdf:li>sdk:MsPortalFx.Base.Images.Polychromatic.Notification()</rdf:li>
      <rdf:li>category: Management + Governance</rdf:li>
      <cc:Work
         rdf:about="">
        <dc:format>image/svg+xml</dc:format>
        <dc:type
           rdf:resource="http://purl.org/dc/dcmitype/StillImage" />
        <dc:title></dc:title>
      </cc:Work>
    </rdf:RDF>
  </metadata>
</svg>
