<?xml version="1.0" encoding="UTF-8" standalone="no"?>
<svg
   xmlns:dc="http://purl.org/dc/elements/1.1/"
   xmlns:cc="http://creativecommons.org/ns#"
   xmlns:rdf="http://www.w3.org/1999/02/22-rdf-syntax-ns#"
   xmlns:svg="http://www.w3.org/2000/svg"
   xmlns="http://www.w3.org/2000/svg"
   xmlns:sodipodi="http://sodipodi.sourceforge.net/DTD/sodipodi-0.dtd"
   xmlns:inkscape="http://www.inkscape.org/namespaces/inkscape"
   id="b1565e97-e53a-44a5-9479-199d8c3c42d2"
   width="17.799999"
   height="17.799999"
   viewBox="0 0 17.799999 17.799999"
   version="1.1"
   sodipodi:docname="Automation_Accounts.svg"
   inkscape:version="0.92.3 (2405546, 2018-03-11)">
  <sodipodi:namedview
     pagecolor="#ffffff"
     bordercolor="#666666"
     borderopacity="1"
     objecttolerance="10"
     gridtolerance="10"
     guidetolerance="10"
     inkscape:pageopacity="0"
     inkscape:pageshadow="2"
     inkscape:window-width="1920"
     inkscape:window-height="1017"
     id="namedview57762"
     showgrid="false"
     fit-margin-top="0"
     fit-margin-left="0"
     fit-margin-right="0"
     fit-margin-bottom="0"
     inkscape:zoom="48.111111"
     inkscape:cx="8.9"
     inkscape:cy="8.9"
     inkscape:window-x="-8"
     inkscape:window-y="-8"
     inkscape:window-maximized="1"
     inkscape:current-layer="b1565e97-e53a-44a5-9479-199d8c3c42d2" />
  <defs
     id="defs57751">
    <linearGradient
       id="ec4358fa-c977-42e2-a7ab-994b5de56830"
       x1="9"
       y1="177.89999"
       x2="9"
       y2="160.10001"
       gradientTransform="translate(0,-160)"
       gradientUnits="userSpaceOnUse">
      <stop
         offset="0"
         stop-color="#0078d4"
         id="stop57727" />
      <stop
         offset="0.064"
         stop-color="#0a7cd7"
         id="stop57729" />
      <stop
         offset="0.338"
         stop-color="#2e8ce1"
         id="stop57731" />
      <stop
         offset="0.594"
         stop-color="#4897e9"
         id="stop57733" />
      <stop
         offset="0.822"
         stop-color="#589eed"
         id="stop57735" />
      <stop
         offset="1"
         stop-color="#5ea0ef"
         id="stop57737" />
    </linearGradient>
    <linearGradient
       id="aae9e42c-091e-4dc7-8bec-a93418af93c4"
       x1="-26.188999"
       y1="-295.60001"
       x2="-26.188999"
       y2="-311.10501"
       gradientTransform="matrix(1.156,0,0,1.029,39.425,321.61)"
       gradientUnits="userSpaceOnUse">
      <stop
         offset="0"
         stop-color="#fea11b"
         id="stop57740" />
      <stop
         offset="0.284"
         stop-color="#fea51a"
         id="stop57742" />
      <stop
         offset="0.547"
         stop-color="#feb018"
         id="stop57744" />
      <stop
         offset="0.8"
         stop-color="#ffc314"
         id="stop57746" />
      <stop
         offset="1"
         stop-color="#ffd70f"
         id="stop57748" />
    </linearGradient>
  </defs>
  <title
     id="title57753">Icon-322Artboard 1</title>
  <path
     d="m 17.8,9.9 v -2 L 17.5,7.8 15.3,7.1 14.7,5.7 15.9,3.3 14.4,1.9 14.1,2 12.1,3 10.7,2.4 9.9,0 h -2 L 7.7,0.3 7,2.5 5.6,3 3.3,1.9 1.9,3.4 2,3.7 3,5.7 2.5,7.1 0,7.9 v 2 l 0.3,0.1 2.2,0.7 0.6,1.4 -1.2,2.4 1.5,1.4 0.3,-0.1 2,-1 1.4,0.6 0.8,2.4 h 2 l 0.1,-0.3 0.7,-2.2 1.4,-0.6 2.3,1.1 1.4,-1.4 -0.1,-0.3 -1,-2 0.6,-1.4 z M 8.9,12.8 A 3.842,3.842 0 0 1 5,8.9 3.842,3.842 0 0 1 8.9,5 3.842,3.842 0 0 1 12.8,8.9 v 0 a 3.842,3.842 0 0 1 -3.9,3.9 z"
     id="path57755"
     inkscape:connector-curvature="0"
     style="fill:url(#ec4358fa-c977-42e2-a7ab-994b5de56830)" />
  <path
     d="M 8.4,10.4 H 4.8 A 0.215,0.215 0 0 1 4.6,10.2 V 10.1 L 8.9,1.6 C 8.9,1.5 9,1.5 9.1,1.5 h 4.2 a 0.215,0.215 0 0 1 0.2,0.2 V 1.8 L 8.4,8.5 h 4.9 a 0.215,0.215 0 0 1 0.2,0.2 0.1,0.1 0 0 1 -0.1,0.1 l -8.2,8.5 c -0.1,0 -0.6,0.5 -0.4,-0.2 v 0 z"
     id="path57757"
     inkscape:connector-curvature="0"
     style="fill:url(#aae9e42c-091e-4dc7-8bec-a93418af93c4)" />
  <metadata
     id="metadata57759">
    <rdf:RDF>
      <rdf:li>public:true</rdf:li>
      <rdf:li>sdk:MsPortalFx.Base.Images.Polychromatic.Automation()</rdf:li>
      <rdf:li>category: Management + Governance</rdf:li>
      <cc:Work
         rdf:about="">
        <dc:format>image/svg+xml</dc:format>
        <dc:type
           rdf:resource="http://purl.org/dc/dcmitype/StillImage" />
        <dc:title>Icon-322Artboard 1</dc:title>
      </cc:Work>
    </rdf:RDF>
  </metadata>
</svg>
