<?xml version="1.0" encoding="UTF-8" standalone="no"?>
<svg
   xmlns:dc="http://purl.org/dc/elements/1.1/"
   xmlns:cc="http://creativecommons.org/ns#"
   xmlns:rdf="http://www.w3.org/1999/02/22-rdf-syntax-ns#"
   xmlns:svg="http://www.w3.org/2000/svg"
   xmlns="http://www.w3.org/2000/svg"
   xmlns:xlink="http://www.w3.org/1999/xlink"
   xmlns:sodipodi="http://sodipodi.sourceforge.net/DTD/sodipodi-0.dtd"
   xmlns:inkscape="http://www.inkscape.org/namespaces/inkscape"
   width="18"
   height="13.479"
   viewBox="0 0 18 13.479"
   version="1.1"
   id="svg57944"
   sodipodi:docname="Azure_Arc.svg"
   inkscape:version="0.92.3 (2405546, 2018-03-11)">
  <sodipodi:namedview
     pagecolor="#ffffff"
     bordercolor="#666666"
     borderopacity="1"
     objecttolerance="10"
     gridtolerance="10"
     guidetolerance="10"
     inkscape:pageopacity="0"
     inkscape:pageshadow="2"
     inkscape:window-width="1920"
     inkscape:window-height="1017"
     id="namedview57946"
     showgrid="false"
     fit-margin-top="0"
     fit-margin-left="0"
     fit-margin-right="0"
     fit-margin-bottom="0"
     inkscape:zoom="48.111111"
     inkscape:cx="9"
     inkscape:cy="6.874"
     inkscape:window-x="-8"
     inkscape:window-y="-8"
     inkscape:window-maximized="1"
     inkscape:current-layer="svg57944" />
  <defs
     id="defs57915">
    <linearGradient
       id="b69d2150-b4da-460b-99ae-a9f5a961b313"
       x1="-1194.321"
       y1="9.1280003"
       x2="-1190.755"
       y2="9.1280003"
       gradientTransform="matrix(-1,0,0,1,-1179.887,0)"
       gradientUnits="userSpaceOnUse">
      <stop
         offset="0"
         stop-color="#32bedd"
         id="stop57900" />
      <stop
         offset="0.998"
         stop-color="#9cebff"
         stop-opacity="0.5"
         id="stop57902" />
    </linearGradient>
    <linearGradient
       id="e690cc62-d1a2-4325-90ca-ac2fe51a5b58"
       x1="80.362999"
       y1="9.1350002"
       x2="83.929001"
       y2="9.1350002"
       gradientTransform="translate(-76.796,2.395)"
       gradientUnits="userSpaceOnUse">
      <stop
         offset="0"
         stop-color="#005ba1"
         id="stop57905" />
      <stop
         offset="0.998"
         stop-color="#005ba1"
         stop-opacity="0"
         id="stop57907" />
    </linearGradient>
    <linearGradient
       id="ff649864-6b4c-4fa8-bcca-c12b2b910f3c"
       x1="3.5550001"
       y1="9.3260002"
       x2="14.434"
       y2="9.3260002"
       gradientUnits="userSpaceOnUse"
       gradientTransform="translate(0,2.395)">
      <stop
         offset="0"
         stop-color="#005ba1"
         id="stop57910" />
      <stop
         offset="0.974"
         stop-color="#32bedd"
         id="stop57912" />
    </linearGradient>
    <linearGradient
       inkscape:collect="always"
       xlink:href="#b69d2150-b4da-460b-99ae-a9f5a961b313"
       id="linearGradient57948"
       gradientUnits="userSpaceOnUse"
       gradientTransform="matrix(-1,0,0,1,-1179.887,2.395)"
       x1="-1194.321"
       y1="9.1280003"
       x2="-1190.755"
       y2="9.1280003" />
    <linearGradient
       inkscape:collect="always"
       xlink:href="#b69d2150-b4da-460b-99ae-a9f5a961b313"
       id="linearGradient57950"
       gradientUnits="userSpaceOnUse"
       gradientTransform="matrix(-1,0,0,1,-1179.887,2.395)"
       x1="-1194.321"
       y1="9.1280003"
       x2="-1190.755"
       y2="9.1280003" />
  </defs>
  <g
     id="a826c017-5e9e-4208-897f-2ade2eb58cd6"
     transform="translate(0,-2.395)">
    <polygon
       points="0,4.468 3.567,2.395 7.132,4.469 3.567,6.542 "
       id="polygon57917"
       style="fill:#5ea0ef" />
    <polygon
       points="3.566,15.867 7.132,13.794 3.566,11.735 "
       id="polygon57919"
       style="fill:#005ba1" />
    <polygon
       points="3.566,6.542 0,4.468 0,13.801 3.566,15.874 7.132,13.801 7.132,13.794 3.566,15.867 3.566,11.735 7.132,13.794 7.132,4.469 3.567,6.542 3.566,6.541 "
       id="polygon57921"
       style="fill:#0078d4" />
    <polygon
       points="18,4.468 14.433,2.395 10.868,4.469 14.433,6.542 "
       id="polygon57923"
       style="fill:#9cebff" />
    <polygon
       points="14.434,15.867 10.868,13.794 14.434,11.735 "
       id="polygon57925"
       style="fill:#32bedd" />
    <polygon
       points="14.434,6.535 14.434,11.728 10.868,13.794 10.868,4.462 14.433,6.535 14.434,6.535 "
       id="polygon57927"
       style="fill:url(#linearGradient57948)" />
    <polygon
       points="18,4.468 14.433,2.395 10.868,4.469 14.433,6.542 "
       id="polygon57929"
       style="fill:#9cebff" />
    <polygon
       points="10.868,13.794 14.434,11.735 14.434,15.867 10.868,13.794 10.868,13.801 14.434,15.874 18,13.801 18,4.468 18,4.468 14.433,6.542 10.868,4.469 "
       id="polygon57931"
       style="fill:#50e6ff" />
    <polygon
       points="14.434,15.867 10.868,13.794 14.434,11.735 "
       id="polygon57933"
       style="fill:#32bedd" />
    <polygon
       points="14.434,6.535 14.434,11.728 10.868,13.794 10.868,4.462 14.433,6.535 14.434,6.535 "
       id="polygon57935"
       style="fill:url(#linearGradient57950)" />
    <polygon
       points="3.566,6.541 3.566,11.734 7.132,13.801 7.132,4.469 3.567,6.541 3.566,6.541 "
       id="polygon57937"
       style="fill:url(#e690cc62-d1a2-4325-90ca-ac2fe51a5b58)" />
    <path
       d="M 14.423,10.126 C 13.799,11.682 11.357,12.71 9.075,12.71 H 8.994 8.914 c -2.282,0 -4.724,-1.028 -5.348,-2.584 0,0 -0.025,-1.561 0,-1.713 0.454,1.737 2.834,3.022 5.293,3.022 H 8.994 9.13 c 2.455,0 4.839,-1.285 5.293,-3.022 0.025,0.152 0,1.713 0,1.713 z M 13.4,5.942 A 6.653,6.653 0 0 1 9.13,7.416 H 8.994 8.859 A 6.656,6.656 0 0 1 4.592,5.946 l -0.856,0.5 C 4.553,7.809 6.8,8.69 8.914,8.69 h 0.161 c 2.115,0 4.366,-0.883 5.181,-2.251 z"
       id="path57939"
       inkscape:connector-curvature="0"
       style="fill:url(#ff649864-6b4c-4fa8-bcca-c12b2b910f3c)" />
  </g>
  <metadata
     id="metadata57942">
    <rdf:RDF>
      <rdf:li>public:true</rdf:li>
      <rdf:li>sdk:false</rdf:li>
      <rdf:li>category: Management + Governance</rdf:li>
      <cc:Work
         rdf:about="">
        <dc:format>image/svg+xml</dc:format>
        <dc:type
           rdf:resource="http://purl.org/dc/dcmitype/StillImage" />
        <dc:title></dc:title>
      </cc:Work>
    </rdf:RDF>
  </metadata>
</svg>
