<?xml version="1.0" encoding="UTF-8" standalone="no"?>
<svg
   xmlns:dc="http://purl.org/dc/elements/1.1/"
   xmlns:cc="http://creativecommons.org/ns#"
   xmlns:rdf="http://www.w3.org/1999/02/22-rdf-syntax-ns#"
   xmlns:svg="http://www.w3.org/2000/svg"
   xmlns="http://www.w3.org/2000/svg"
   xmlns:sodipodi="http://sodipodi.sourceforge.net/DTD/sodipodi-0.dtd"
   xmlns:inkscape="http://www.inkscape.org/namespaces/inkscape"
   width="15.402793"
   height="17.709822"
   viewBox="0 0 15.402793 17.709822"
   version="1.1"
   id="svg58124"
   sodipodi:docname="Azure_Lighthouse.svg"
   inkscape:version="0.92.3 (2405546, 2018-03-11)">
  <sodipodi:namedview
     pagecolor="#ffffff"
     bordercolor="#666666"
     borderopacity="1"
     objecttolerance="10"
     gridtolerance="10"
     guidetolerance="10"
     inkscape:pageopacity="0"
     inkscape:pageshadow="2"
     inkscape:window-width="1920"
     inkscape:window-height="1017"
     id="namedview58126"
     showgrid="false"
     fit-margin-top="0"
     fit-margin-left="0"
     fit-margin-right="0"
     fit-margin-bottom="0"
     inkscape:zoom="48.111111"
     inkscape:cx="7.7013964"
     inkscape:cy="8.86"
     inkscape:window-x="-8"
     inkscape:window-y="-8"
     inkscape:window-maximized="1"
     inkscape:current-layer="svg58124" />
  <defs
     id="defs58109">
    <linearGradient
       id="b0415b5b-3b98-48a9-9263-d680ffce93e8"
       x1="9"
       y1="17.860001"
       x2="9"
       y2="4.0599999"
       gradientUnits="userSpaceOnUse"
       gradientTransform="translate(1.2986036,0.1501785)">
      <stop
         offset="0"
         stop-color="#0078d4"
         id="stop58098" />
      <stop
         offset="0.16"
         stop-color="#1380da"
         id="stop58100" />
      <stop
         offset="0.53"
         stop-color="#3c91e5"
         id="stop58102" />
      <stop
         offset="0.82"
         stop-color="#559cec"
         id="stop58104" />
      <stop
         offset="1"
         stop-color="#5ea0ef"
         id="stop58106" />
    </linearGradient>
  </defs>
  <title
     id="title58111">Icon471-AzureLighthouse</title>
  <g
     id="e5b0933f-d08a-4ba0-b46b-ca75717b991a"
     transform="translate(-1.2986036,-0.1501785)">
    <path
       d="M 16.65,17.08 13.06,7.76 A 0.28,0.28 0 0 0 12.8,7.58 H 10.24 V 5.36 a 1.3,1.3 0 1 0 -2.59,0 V 7.58 H 5.34 A 0.29,0.29 0 0 0 5.07,7.76 l -3.72,9.32 a 0.55,0.55 0 0 0 0.45,0.78 h 14.4 a 0.55,0.55 0 0 0 0.45,-0.78 z"
       id="path58113"
       inkscape:connector-curvature="0"
       style="fill:url(#b0415b5b-3b98-48a9-9263-d680ffce93e8)" />
    <path
       d="M 3.37,12 12,7.58 h 0.75 a 0.28,0.28 0 0 1 0.27,0.19 L 13.85,9.92 1.8,16 Z"
       id="path58115"
       inkscape:connector-curvature="0"
       style="fill:#83b9f9" />
    <path
       d="m 9.54,17.84 6,-3.6 1.09,2.84 a 0.56,0.56 0 0 1 -0.46,0.78 z"
       id="path58117"
       inkscape:connector-curvature="0"
       style="fill:#83b9f9" />
    <path
       d="M 8.87,0.16 4.75,2.55 A 0.16,0.16 0 0 0 4.67,2.69 V 3.06 A 0.16,0.16 0 0 0 4.83,3.22 H 5.45 V 7.58 H 6.23 V 3.22 h 5.44 v 4.36 h 0.77 V 3.22 h 0.63 A 0.16,0.16 0 0 0 13.23,3.06 V 2.69 A 0.16,0.16 0 0 0 13.15,2.55 L 9,0.16 a 0.22,0.22 0 0 0 -0.13,0 z"
       id="path58119"
       inkscape:connector-curvature="0"
       style="fill:#0078d4" />
  </g>
  <metadata
     id="metadata58122">
    <rdf:RDF>
      <rdf:li>public:true</rdf:li>
      <rdf:li>sdk:false</rdf:li>
      <rdf:li>category: Management + Governance,</rdf:li>
      <cc:Work
         rdf:about="">
        <dc:format>image/svg+xml</dc:format>
        <dc:type
           rdf:resource="http://purl.org/dc/dcmitype/StillImage" />
        <dc:title>Icon471-AzureLighthouse</dc:title>
      </cc:Work>
    </rdf:RDF>
  </metadata>
</svg>
