<?xml version="1.0" encoding="UTF-8" standalone="no"?>
<svg
   xmlns:dc="http://purl.org/dc/elements/1.1/"
   xmlns:cc="http://creativecommons.org/ns#"
   xmlns:rdf="http://www.w3.org/1999/02/22-rdf-syntax-ns#"
   xmlns:svg="http://www.w3.org/2000/svg"
   xmlns="http://www.w3.org/2000/svg"
   xmlns:sodipodi="http://sodipodi.sourceforge.net/DTD/sodipodi-0.dtd"
   xmlns:inkscape="http://www.inkscape.org/namespaces/inkscape"
   id="accb8b11-ff75-4ed7-86d0-74f3af9e9fdb"
   width="13.88"
   height="17"
   viewBox="0 0 13.88 17"
   version="1.1"
   sodipodi:docname="Compliance.svg"
   inkscape:version="0.92.3 (2405546, 2018-03-11)">
  <sodipodi:namedview
     pagecolor="#ffffff"
     bordercolor="#666666"
     borderopacity="1"
     objecttolerance="10"
     gridtolerance="10"
     guidetolerance="10"
     inkscape:pageopacity="0"
     inkscape:pageshadow="2"
     inkscape:window-width="1920"
     inkscape:window-height="1017"
     id="namedview58517"
     showgrid="false"
     fit-margin-top="0"
     fit-margin-left="0"
     fit-margin-right="0"
     fit-margin-bottom="0"
     inkscape:zoom="48.111111"
     inkscape:cx="6.94"
     inkscape:cy="8.5"
     inkscape:window-x="-8"
     inkscape:window-y="-8"
     inkscape:window-maximized="1"
     inkscape:current-layer="accb8b11-ff75-4ed7-86d0-74f3af9e9fdb" />
  <defs
     id="defs58501">
    <linearGradient
       id="ec34cf3c-0705-4609-8eda-9dd9d51977d2"
       x1="9"
       y1="17.5"
       x2="9"
       y2="0.5"
       gradientUnits="userSpaceOnUse"
       gradientTransform="translate(2.06,0.5)">
      <stop
         offset="0"
         stop-color="#0078d4"
         id="stop58496" />
      <stop
         offset="0.82"
         stop-color="#5ea0ef"
         id="stop58498" />
    </linearGradient>
  </defs>
  <g
     id="g58512"
     transform="translate(-2.06,-0.5)">
    <path
       d="M 10,0.63 H 2.73 A 0.57,0.57 0 0 0 2.16,1.2 v 15.6 a 0.57,0.57 0 0 0 0.57,0.57 H 15.27 A 0.57,0.57 0 0 0 15.84,16.8 V 6.48 A 0.58,0.58 0 0 0 15.27,5.9 H 11.11 A 0.56,0.56 0 0 1 10.54,5.33 V 1.2 A 0.57,0.57 0 0 0 10,0.63 Z"
       id="path58503"
       inkscape:connector-curvature="0"
       style="fill:#ffffff" />
    <path
       d="m 9.7,1.36 v 3.92 a 1.44,1.44 0 0 0 1.44,1.43 h 3.95 v 9.93 H 2.91 V 1.36 H 9.7 M 10,0.5 H 2.64 A 0.58,0.58 0 0 0 2.06,1.08 v 15.84 a 0.58,0.58 0 0 0 0.58,0.58 h 12.72 a 0.58,0.58 0 0 0 0.58,-0.58 V 6.44 A 0.58,0.58 0 0 0 15.36,5.86 H 11.14 A 0.58,0.58 0 0 1 10.56,5.28 V 1.08 A 0.58,0.58 0 0 0 10,0.5 Z"
       id="path58505"
       inkscape:connector-curvature="0"
       style="fill:url(#ec34cf3c-0705-4609-8eda-9dd9d51977d2)" />
    <path
       d="M 15.72,6 10.36,0.63 V 5 a 1,1 0 0 0 1,1 z"
       id="path58507"
       inkscape:connector-curvature="0"
       style="fill:#0078d4" />
    <path
       id="a3a9e1d3-9e08-4e6c-b1f3-95c11e84f06a"
       d="m 10.41,11.18 a 2.21,2.21 0 0 1 -2.93,0 L 7.3,14.81 a 0.29,0.29 0 0 0 0.5,0.22 L 8.92,13.88 10.06,15 a 0.29,0.29 0 0 0 0.49,-0.22 z"
       inkscape:connector-curvature="0"
       style="fill:#b31b1b" />
    <ellipse
       id="a09a1db5-9087-43a3-902a-422185a7e3a0"
       cx="8.9799995"
       cy="9.3100004"
       rx="2.6099999"
       ry="2.6199999"
       style="fill:#e62323" />
    <ellipse
       id="ac490612-dbc7-498b-b2fc-d820fcb1a7b0"
       cx="8.9799995"
       cy="9.3100004"
       rx="1.98"
       ry="1.99"
       style="fill:#ffd400" />
  </g>
  <metadata
     id="metadata58514">
    <rdf:RDF>
      <rdf:li>public:true</rdf:li>
      <rdf:li>sdk:false</rdf:li>
      <rdf:li>category: Management + Governance</rdf:li>
      <cc:Work
         rdf:about="">
        <dc:format>image/svg+xml</dc:format>
        <dc:type
           rdf:resource="http://purl.org/dc/dcmitype/StillImage" />
        <dc:title></dc:title>
      </cc:Work>
    </rdf:RDF>
  </metadata>
</svg>
