<?xml version="1.0" encoding="UTF-8" standalone="no"?>
<svg
   xmlns:dc="http://purl.org/dc/elements/1.1/"
   xmlns:cc="http://creativecommons.org/ns#"
   xmlns:rdf="http://www.w3.org/1999/02/22-rdf-syntax-ns#"
   xmlns:svg="http://www.w3.org/2000/svg"
   xmlns="http://www.w3.org/2000/svg"
   xmlns:sodipodi="http://sodipodi.sourceforge.net/DTD/sodipodi-0.dtd"
   xmlns:inkscape="http://www.inkscape.org/namespaces/inkscape"
   id="b48c5089-b926-4e5c-afdd-c8d37fee705e"
   width="14.20052"
   height="17.039017"
   viewBox="0 0 14.20052 17.039017"
   version="1.1"
   sodipodi:docname="Diagnostics_Settings.svg"
   inkscape:version="0.92.3 (2405546, 2018-03-11)">
  <sodipodi:namedview
     pagecolor="#ffffff"
     bordercolor="#666666"
     borderopacity="1"
     objecttolerance="10"
     gridtolerance="10"
     guidetolerance="10"
     inkscape:pageopacity="0"
     inkscape:pageshadow="2"
     inkscape:window-width="1920"
     inkscape:window-height="1017"
     id="namedview58728"
     showgrid="false"
     fit-margin-top="0"
     fit-margin-left="0"
     fit-margin-right="0"
     fit-margin-bottom="0"
     inkscape:zoom="48.111111"
     inkscape:cx="7.07"
     inkscape:cy="8.53"
     inkscape:window-x="-8"
     inkscape:window-y="-8"
     inkscape:window-maximized="1"
     inkscape:current-layer="b48c5089-b926-4e5c-afdd-c8d37fee705e" />
  <defs
     id="defs58713">
    <linearGradient
       id="ef71ca8b-e0c3-42a3-b174-28e7219ff221"
       x1="8.1499996"
       y1="17.49"
       x2="8.1499996"
       y2="2.0899999"
       gradientUnits="userSpaceOnUse">
      <stop
         offset="0"
         stop-color="#5e9624"
         id="stop58706" />
      <stop
         offset="0.31"
         stop-color="#69a828"
         id="stop58708" />
      <stop
         offset="0.93"
         stop-color="#86d633"
         id="stop58710" />
    </linearGradient>
  </defs>
  <title
     id="title58715">Icon-manage-306</title>
  <path
     d="M 13.27,0.00901626 H 1.66 a 0.57,0.57 0 0 0 -0.44,0.2 L 0,1.6190163 13.38,15.179016 l -2,1.83 h 1 a 0.71,0.71 0 0 0 0.46,-0.17 l 1.17,-1.07 a 0.59,0.59 0 0 0 0.19,-0.43 V 0.83901626 a 0.81,0.81 0 0 0 -0.93,-0.83 z"
     id="path58717"
     inkscape:connector-curvature="0"
     style="fill:#5e9624" />
  <path
     d="M 0.98,1.6090163 1.72,0.76901626 a 0.5,0.5 0 0 1 0.35,-0.18 H 12.95 A 0.52,0.52 0 0 1 13.47,1.1090163 V 14.889016 a 0.52,0.52 0 0 1 -0.17,0.38 l -1.15,1.06"
     id="path58719"
     inkscape:connector-curvature="0"
     style="fill:#ffffff" />
  <path
     d="m 12.07,1.5990163 h -12 a 0.06,0.06 0 0 0 -0.05,0.06 V 16.659016 a 0.38,0.38 0 0 0 0.38,0.38 h 11.67 a 0.38,0.38 0 0 0 0.38,-0.38 V 1.9890163 a 0.38,0.38 0 0 0 -0.38,-0.39 z"
     id="path58721"
     inkscape:connector-curvature="0"
     style="fill:url(#ef71ca8b-e0c3-42a3-b174-28e7219ff221)" />
  <path
     d="m 10.57,7.3290163 a 0.37,0.37 0 0 0 -0.37,-0.39 H 8.35 a 0.16,0.16 0 0 0 -0.15,0.09 l -0.77,1.38 -1.26,-2.55 -1.17,3.65 -1,-2.6 -1.32,2.44 a 0.18,0.18 0 0 1 -0.15,0.1 h -0.6 a 0.37,0.37 0 0 0 -0.37,0.33 v 0 a 0.37,0.37 0 0 0 0.37,0.4099997 h 1 a 0.18,0.18 0 0 0 0.16,-0.1 l 0.78,-1.4699997 1.21,2.9999997 1.23,-3.8599997 1.08,2.19 1.21,-2.17 a 0.16,0.16 0 0 1 0.15,-0.09 h 1.45 a 0.37,0.37 0 0 0 0.37,-0.36 z"
     id="path58723"
     inkscape:connector-curvature="0"
     style="fill:#ffffff" />
  <metadata
     id="metadata58725">
    <rdf:RDF>
      <rdf:li>public:true</rdf:li>
      <rdf:li>sdk:MsPortalFx.Base.Images.Polychromatic.LogDiagnostics()</rdf:li>
      <rdf:li>category: Management + Governance</rdf:li>
      <cc:Work
         rdf:about="">
        <dc:format>image/svg+xml</dc:format>
        <dc:type
           rdf:resource="http://purl.org/dc/dcmitype/StillImage" />
        <dc:title>Icon-manage-306</dc:title>
      </cc:Work>
    </rdf:RDF>
  </metadata>
</svg>
