<?xml version="1.0" encoding="UTF-8" standalone="no"?>
<svg
   xmlns:dc="http://purl.org/dc/elements/1.1/"
   xmlns:cc="http://creativecommons.org/ns#"
   xmlns:rdf="http://www.w3.org/1999/02/22-rdf-syntax-ns#"
   xmlns:svg="http://www.w3.org/2000/svg"
   xmlns="http://www.w3.org/2000/svg"
   xmlns:sodipodi="http://sodipodi.sourceforge.net/DTD/sodipodi-0.dtd"
   xmlns:inkscape="http://www.inkscape.org/namespaces/inkscape"
   id="bac28690-24ba-4d9d-92b0-bad9cc8dbd92"
   width="17.899876"
   height="13.876405"
   viewBox="0 0 17.899876 13.876405"
   version="1.1"
   sodipodi:docname="Education.svg"
   inkscape:version="0.92.3 (2405546, 2018-03-11)">
  <sodipodi:namedview
     pagecolor="#ffffff"
     bordercolor="#666666"
     borderopacity="1"
     objecttolerance="10"
     gridtolerance="10"
     guidetolerance="10"
     inkscape:pageopacity="0"
     inkscape:pageshadow="2"
     inkscape:window-width="1920"
     inkscape:window-height="1017"
     id="namedview58964"
     showgrid="false"
     fit-margin-top="0"
     fit-margin-left="0"
     fit-margin-right="0"
     fit-margin-bottom="0"
     inkscape:zoom="48.111111"
     inkscape:cx="8.9451012"
     inkscape:cy="6.94"
     inkscape:window-x="-8"
     inkscape:window-y="-8"
     inkscape:window-maximized="1"
     inkscape:current-layer="bac28690-24ba-4d9d-92b0-bad9cc8dbd92" />
  <defs
     id="defs58947">
    <linearGradient
       id="a17aa354-e567-4356-a718-7e4e2198998f"
       x1="9"
       y1="-7205.6602"
       x2="9"
       y2="-7219.4399"
       gradientTransform="matrix(1,0,0,-1,0.05489881,-7204.4864)"
       gradientUnits="userSpaceOnUse">
      <stop
         offset="0.13"
         stop-color="#773adc"
         id="stop58936" />
      <stop
         offset="0.23"
         stop-color="#8249e2"
         id="stop58938" />
      <stop
         offset="0.43"
         stop-color="#9664ec"
         id="stop58940" />
      <stop
         offset="0.6"
         stop-color="#a274f2"
         id="stop58942" />
      <stop
         offset="0.74"
         stop-color="#a67af4"
         id="stop58944" />
    </linearGradient>
  </defs>
  <title
     id="title58949">Icon-manage-326</title>
  <g
     id="g58959"
     transform="translate(-0.05489881,-2.0635951)">
    <path
       d="M 14.45,8.8 H 3.68 v 4.85 0 c 0,1.26 2.41,2.29 5.44,2.29 3.03,0 5.44,-1 5.44,-2.29 v 0 z"
       id="path58951"
       inkscape:connector-curvature="0"
       style="fill:#773adc" />
    <path
       d="m 8.39,2.16 -8,4.09 A 0.71,0.71 0 0 0 0.14,7.19 0.62,0.62 0 0 0 0.39,7.47 l 8,3.48 a 0.93,0.93 0 0 0 0.73,0 L 17.6,7.45 A 0.72,0.72 0 0 0 17.88,6.51 0.63,0.63 0 0 0 17.6,6.21 L 9.14,2.14 A 0.86,0.86 0 0 0 8.39,2.16 Z"
       id="path58953"
       inkscape:connector-curvature="0"
       style="fill:url(#a17aa354-e567-4356-a718-7e4e2198998f)" />
    <path
       d="m 15.84,10.2 v 0 A 1.26,1.26 0 0 0 15.61,9.68 5.19,5.19 0 0 0 13.09,7.45 L 9.61,6 8.5,6.79 12,8.28 a 5.05,5.05 0 0 1 2.72,2.66 7.88,7.88 0 0 1 0.28,1.68 m 0.16,0 0.42,-0.83 0.53,0.68 h 0.1 A 5,5 0 0 0 15.83,10.2 Z"
       id="path58955"
       inkscape:connector-curvature="0"
       style="fill:#50e6ff" />
    <ellipse
       cx="8.9399996"
       cy="6.46"
       rx="1.34"
       ry="0.68000001"
       id="ellipse58957"
       style="fill:#552f99" />
  </g>
  <metadata
     id="metadata58961">
    <rdf:RDF>
      <rdf:li>public:true</rdf:li>
      <rdf:li>sdk:false</rdf:li>
      <rdf:li>category: Management + Governance</rdf:li>
      <cc:Work
         rdf:about="">
        <dc:format>image/svg+xml</dc:format>
        <dc:type
           rdf:resource="http://purl.org/dc/dcmitype/StillImage" />
        <dc:title>Icon-manage-326</dc:title>
      </cc:Work>
    </rdf:RDF>
  </metadata>
</svg>
