<?xml version="1.0" encoding="UTF-8" standalone="no"?>
<svg
   xmlns:dc="http://purl.org/dc/elements/1.1/"
   xmlns:cc="http://creativecommons.org/ns#"
   xmlns:rdf="http://www.w3.org/1999/02/22-rdf-syntax-ns#"
   xmlns:svg="http://www.w3.org/2000/svg"
   xmlns="http://www.w3.org/2000/svg"
   xmlns:sodipodi="http://sodipodi.sourceforge.net/DTD/sodipodi-0.dtd"
   xmlns:inkscape="http://www.inkscape.org/namespaces/inkscape"
   width="11.688"
   height="18.001482"
   viewBox="0 0 11.688 18.001482"
   version="1.1"
   id="svg59483"
   sodipodi:docname="MachinesAzureArc.svg"
   inkscape:version="0.92.3 (2405546, 2018-03-11)">
  <sodipodi:namedview
     pagecolor="#ffffff"
     bordercolor="#666666"
     borderopacity="1"
     objecttolerance="10"
     gridtolerance="10"
     guidetolerance="10"
     inkscape:pageopacity="0"
     inkscape:pageshadow="2"
     inkscape:window-width="1920"
     inkscape:window-height="1017"
     id="namedview59485"
     showgrid="false"
     fit-margin-top="0"
     fit-margin-left="0"
     fit-margin-right="0"
     fit-margin-bottom="0"
     inkscape:zoom="48.111111"
     inkscape:cx="5.613"
     inkscape:cy="9.0007411"
     inkscape:window-x="-8"
     inkscape:window-y="-8"
     inkscape:window-maximized="1"
     inkscape:current-layer="svg59483" />
  <defs
     id="defs59468">
    <linearGradient
       id="fa1955a2-9167-4a48-9f06-e30210fc6ef7"
       x1="9.2299995"
       x2="9.2299995"
       y2="18"
       gradientUnits="userSpaceOnUse"
       gradientTransform="translate(3.387,-7.4109004e-4)">
      <stop
         offset="0"
         stop-color="#a67af4"
         id="stop59463" />
      <stop
         offset="0.999"
         stop-color="#773adc"
         id="stop59465" />
    </linearGradient>
  </defs>
  <g
     id="e09ece90-33de-4b2f-a5a3-49ac04dc41bb"
     transform="translate(-3.387,7.4109004e-4)">
    <path
       d="M 15.074,17.39 A 0.645,0.645 0 0 1 14.4,18 H 4.062 A 0.645,0.645 0 0 1 3.387,17.39 V 0.61 A 0.645,0.645 0 0 1 4.062,0 H 14.4 a 0.645,0.645 0 0 1 0.675,0.61 z"
       id="path59470"
       inkscape:connector-curvature="0"
       style="fill:url(#fa1955a2-9167-4a48-9f06-e30210fc6ef7)" />
    <path
       d="M 13.461,7.7 A 1.34,1.34 0 0 0 12.191,6.3 H 6.375 a 1.34,1.34 0 0 0 -1.27,1.4 v 0 a 1.34,1.34 0 0 0 1.27,1.4 h 5.816 a 1.34,1.34 0 0 0 1.27,-1.4 z"
       id="path59472"
       inkscape:connector-curvature="0"
       style="fill:#552f99" />
    <path
       d="m 13.461,3.537 a 1.34,1.34 0 0 0 -1.27,-1.4 H 6.375 a 1.34,1.34 0 0 0 -1.27,1.4 v 0 a 1.34,1.34 0 0 0 1.27,1.4 h 5.816 a 1.34,1.34 0 0 0 1.27,-1.4 z"
       id="path59474"
       inkscape:connector-curvature="0"
       style="fill:#552f99" />
    <circle
       cx="11.826"
       cy="3.5369999"
       r="0.93900001"
       id="circle59476"
       style="fill:#50e6ff" />
    <circle
       cx="11.826"
       cy="7.6950002"
       r="0.93900001"
       id="circle59478"
       style="fill:#50e6ff" />
  </g>
  <metadata
     id="metadata59481">
    <rdf:RDF>
      <rdf:li>public:true</rdf:li>
      <rdf:li>sdk:false</rdf:li>
      <rdf:li>category: Management + Governance</rdf:li>
      <cc:Work
         rdf:about="">
        <dc:format>image/svg+xml</dc:format>
        <dc:type
           rdf:resource="http://purl.org/dc/dcmitype/StillImage" />
        <dc:title></dc:title>
      </cc:Work>
    </rdf:RDF>
  </metadata>
</svg>
