<?xml version="1.0" encoding="UTF-8" standalone="no"?>
<svg
   id="b165814b-e5d3-4a73-8b60-71fa2d0cb816"
   width="18"
   height="16.629999"
   viewBox="0 0 18 16.629999"
   version="1.1"
   sodipodi:docname="Managed_Desktop.svg"
   inkscape:version="1.1 (c68e22c387, 2021-05-23)"
   xmlns:inkscape="http://www.inkscape.org/namespaces/inkscape"
   xmlns:sodipodi="http://sodipodi.sourceforge.net/DTD/sodipodi-0.dtd"
   xmlns="http://www.w3.org/2000/svg"
   xmlns:svg="http://www.w3.org/2000/svg"
   xmlns:rdf="http://www.w3.org/1999/02/22-rdf-syntax-ns#"
   xmlns:cc="http://creativecommons.org/ns#"
   xmlns:dc="http://purl.org/dc/elements/1.1/">
  <sodipodi:namedview
     id="namedview43292"
     pagecolor="#ffffff"
     bordercolor="#666666"
     borderopacity="1.0"
     inkscape:pageshadow="2"
     inkscape:pageopacity="0.0"
     inkscape:pagecheckerboard="0"
     showgrid="false"
     fit-margin-top="0"
     fit-margin-left="0"
     fit-margin-right="0"
     fit-margin-bottom="0"
     inkscape:zoom="44.055556"
     inkscape:cx="9"
     inkscape:cy="8.3190416"
     inkscape:window-width="1920"
     inkscape:window-height="1017"
     inkscape:window-x="-8"
     inkscape:window-y="-8"
     inkscape:window-maximized="1"
     inkscape:current-layer="b165814b-e5d3-4a73-8b60-71fa2d0cb816" />
  <defs
     id="defs43277">
    <linearGradient
       id="a900f86d-5158-4de7-b0f9-968553d5dad2"
       x1="9"
       y1="12.68"
       x2="9"
       y2="0.68000001"
       gradientUnits="userSpaceOnUse"
       gradientTransform="translate(0,-0.68000001)">
      <stop
         offset="0"
         stop-color="#0078d4"
         id="stop43267" />
      <stop
         offset="0.82"
         stop-color="#5ea0ef"
         id="stop43269" />
    </linearGradient>
    <linearGradient
       id="ba7aba1e-2982-4235-b222-37c6e8ce6a5d"
       x1="9"
       y1="17.32"
       x2="9"
       y2="12.68"
       gradientUnits="userSpaceOnUse"
       gradientTransform="translate(0,-0.68000001)">
      <stop
         offset="0"
         stop-color="#1490df"
         id="stop43272" />
      <stop
         offset="0.98"
         stop-color="#1f56a3"
         id="stop43274" />
    </linearGradient>
  </defs>
  <title
     id="title43279">Icon-manage-311</title>
  <rect
     y="0"
     width="18"
     height="12"
     rx="0.60000002"
     fill="url(#a900f86d-5158-4de7-b0f9-968553d5dad2)"
     id="rect43281"
     x="0"
     style="fill:url(#a900f86d-5158-4de7-b0f9-968553d5dad2)" />
  <rect
     x="1"
     y="0.99999994"
     width="16"
     height="10"
     rx="0.33000001"
     fill="#ffffff"
     id="rect43283" />
  <path
     d="M 12.61,15.63 C 10.83,15.35 10.76,14.07 10.77,12 H 7.23 c 0,2.07 -0.06,3.35 -1.84,3.63 a 1.05,1.05 0 0 0 -0.89,1 h 9 a 1.05,1.05 0 0 0 -0.89,-1 z"
     fill="url(#ba7aba1e-2982-4235-b222-37c6e8ce6a5d)"
     id="path43285"
     style="fill:url(#ba7aba1e-2982-4235-b222-37c6e8ce6a5d)" />
  <path
     d="M 8.583211,8.3884924 7.9114596,9.0602438 a 0.29,0.29 0 0 1 -0.410122,0 L 4.8426161,6.4015223 a 0.29,0.29 0 0 1 0,-0.4101219 L 5.3093066,5.5247099 a 0.29,0.29 0 0 1 0.4101219,0 L 8.5478557,8.353137 Z"
     fill="#86d633"
     id="path43287" />
  <path
     d="M 7.5105104,9.0517893 6.8387589,8.3800379 12.94109,2.2777064 a 0.29,0.29 0 0 1 0.410122,0 l 0.45962,0.4596194 a 0.29,0.29 0 0 1 0,0.4101219 L 7.9135612,9.0447183 a 0.29,0.29 0 0 1 -0.4101219,0 z"
     fill="#5e9624"
     id="path43289" />
  <metadata
     id="metadata43374">
    <rdf:RDF>
      <cc:Work
         rdf:about="">
        <dc:title>Icon-manage-311</dc:title>
      </cc:Work>
    </rdf:RDF>
  </metadata>
</svg>
