<?xml version="1.0" encoding="UTF-8" standalone="no"?>
<svg
   xmlns:dc="http://purl.org/dc/elements/1.1/"
   xmlns:cc="http://creativecommons.org/ns#"
   xmlns:rdf="http://www.w3.org/1999/02/22-rdf-syntax-ns#"
   xmlns:svg="http://www.w3.org/2000/svg"
   xmlns="http://www.w3.org/2000/svg"
   xmlns:sodipodi="http://sodipodi.sourceforge.net/DTD/sodipodi-0.dtd"
   xmlns:inkscape="http://www.inkscape.org/namespaces/inkscape"
   id="ae4df50d-5710-4260-8ee6-bad0cb48dead"
   width="17.788116"
   height="14.038076"
   viewBox="0 0 17.788116 14.038076"
   version="1.1"
   sodipodi:docname="Managed_Applications_Center.svg"
   inkscape:version="0.92.3 (2405546, 2018-03-11)">
  <sodipodi:namedview
     pagecolor="#ffffff"
     bordercolor="#666666"
     borderopacity="1"
     objecttolerance="10"
     gridtolerance="10"
     guidetolerance="10"
     inkscape:pageopacity="0"
     inkscape:pageshadow="2"
     inkscape:window-width="1920"
     inkscape:window-height="1017"
     id="namedview60186"
     showgrid="false"
     fit-margin-top="0"
     fit-margin-left="0"
     fit-margin-right="0"
     fit-margin-bottom="0"
     inkscape:zoom="48.111111"
     inkscape:cx="8.8964554"
     inkscape:cy="7.0380764"
     inkscape:window-x="-8"
     inkscape:window-y="-8"
     inkscape:window-maximized="1"
     inkscape:current-layer="ae4df50d-5710-4260-8ee6-bad0cb48dead" />
  <defs
     id="defs60157">
    <linearGradient
       id="b1a613f6-50f9-42fe-ac44-c79cd2718830"
       x1="13.31"
       y1="0.23"
       x2="6.5100002"
       y2="15"
       gradientUnits="userSpaceOnUse"
       gradientTransform="translate(0.1035446,2)">
      <stop
         offset="0"
         stop-color="#552f99"
         id="stop60142" />
      <stop
         offset="0.07"
         stop-color="#643daa"
         id="stop60144" />
      <stop
         offset="0.2"
         stop-color="#7c53c5"
         id="stop60146" />
      <stop
         offset="0.35"
         stop-color="#8f64da"
         id="stop60148" />
      <stop
         offset="0.51"
         stop-color="#9c71e9"
         id="stop60150" />
      <stop
         offset="0.7"
         stop-color="#a478f1"
         id="stop60152" />
      <stop
         offset="1"
         stop-color="#a67af4"
         id="stop60154" />
    </linearGradient>
  </defs>
  <title
     id="title60159">Icon-manage-313</title>
  <g
     id="g60181"
     transform="translate(-0.1035446,-2)">
    <path
       d="m 9.42,11.66 v 0 l 2.4,-1.33 a 0.07,0.07 0 0 0 0,-0.06 V 7.6 a 0.07,0.07 0 0 0 0,-0.06 H 11.75 L 9.38,8.87 a 0.05,0.05 0 0 0 0,0.05 v 2.67 a 0.07,0.07 0 0 0 0,0.06 v 0 m 0,3.34 v 0 l 2.4,-1.33 a 0.07,0.07 0 0 0 0,-0.06 v -2.66 a 0.07,0.07 0 0 0 0,-0.06 0.09,0.09 0 0 0 -0.07,0 l -2.4,1.33 v 2.67 a 0.07,0.07 0 0 0 0,0.06 v 0 m 3.1,-5 v 0 L 15,8.65 A 0.06,0.06 0 0 0 15,8.59 V 5.93 A 0.06,0.06 0 0 0 15,5.87 H 14.92 L 12.49,7.2 v 2.72 a 0.06,0.06 0 0 0 0,0.06 v 0 m 0,3.34 v 0 L 15,12 a 0.06,0.06 0 0 0 0,-0.06 V 9.27 a 0.06,0.06 0 0 0 0,-0.06 0.11,0.11 0 0 0 -0.08,0 l -2.39,1.33 a 0.05,0.05 0 0 0 0,0.05 v 2.67 a 0.06,0.06 0 0 0 0,0.06 v 0"
       id="path60161"
       inkscape:connector-curvature="0"
       style="fill:#198ab3" />
    <path
       d="m 8.57,11.66 v 0 L 6.14,10.32 a 0.05,0.05 0 0 1 0,-0.06 V 7.6 a 0.06,0.06 0 0 1 0,-0.06 h 0.07 l 2.4,1.33 a 0.06,0.06 0 0 1 0,0.06 v 2.66 a 0.07,0.07 0 0 1 0,0.06 v 0"
       id="path60163"
       inkscape:connector-curvature="0"
       style="fill:#32bedd" />
    <path
       d="m 8.57,15 v 0 L 6.14,13.66 a 0.05,0.05 0 0 1 0,-0.06 v -2.66 a 0.05,0.05 0 0 1 0,-0.06 0.09,0.09 0 0 1 0.07,0 l 2.4,1.33 a 0.06,0.06 0 0 1 0,0.06 v 2.66 a 0.07,0.07 0 0 1 0,0.06 v 0"
       id="path60165"
       inkscape:connector-curvature="0"
       style="fill:#32bedd" />
    <path
       d="m 5.46,10 v 0 L 3,8.65 A 0.07,0.07 0 0 1 3,8.59 V 5.93 A 0.08,0.08 0 0 1 3,5.87 H 3.08 L 5.5,7.2 a 0.07,0.07 0 0 1 0,0.06 v 2.66 a 0.08,0.08 0 0 1 0,0.06 v 0"
       id="path60167"
       inkscape:connector-curvature="0"
       style="fill:#32bedd" />
    <path
       d="m 5.46,13.33 v 0 L 3,12 A 0.07,0.07 0 0 1 3,11.94 V 9.27 a 0.07,0.07 0 0 1 0,-0.06 0.11,0.11 0 0 1 0.08,0 l 2.42,1.33 a 0.07,0.07 0 0 1 0,0.06 v 2.66 a 0.08,0.08 0 0 1 0,0.06 v 0"
       id="path60169"
       inkscape:connector-curvature="0"
       style="fill:#32bedd" />
    <path
       d="m 6.44,6.81 v 0 L 9,5.44 a 0.08,0.08 0 0 1 0.08,0 l 2.45,1.34 a 0.06,0.06 0 0 1 0,0.06 0.07,0.07 0 0 1 0,0.06 L 9,8.24 a 0.035,0 0 0 0 -0.07,0 L 6.47,6.91 a 0.1,0.1 0 0 1 0,-0.07 c 0,0 0,0 0,0"
       id="path60171"
       inkscape:connector-curvature="0"
       style="fill:#50e6ff" />
    <path
       d="m 3.21,5.05 v 0 L 5.69,3.67 H 5.76 L 8.19,5 a 0.06,0.06 0 0 1 0,0.06 0.07,0.07 0 0 1 0,0.06 L 5.74,6.48 H 5.66 L 3.23,5.14 a 0.06,0.06 0 0 1 0,-0.06"
       id="path60173"
       inkscape:connector-curvature="0"
       style="fill:#50e6ff" />
    <path
       d="m 9.75,5.08 v 0 L 12.23,3.7 a 0.09,0.09 0 0 1 0.07,0 L 14.73,5 a 0.08,0.08 0 0 1 0,0.06 0.07,0.07 0 0 1 0,0.06 L 12.28,6.51 H 12.2 L 9.77,5.17 a 0.06,0.06 0 0 1 0,-0.06"
       id="path60175"
       inkscape:connector-curvature="0"
       style="fill:#50e6ff" />
    <path
       d="m 6.45,3.34 v 0 L 9,2 11.5,3.3 a 0.07,0.07 0 0 1 0,0.06 0.05,0.05 0 0 1 0,0.06 L 9,4.75 H 8.94 L 6.48,3.43 a 0.07,0.07 0 0 1 0,-0.05 c 0,0 0,0 0,0"
       id="path60177"
       inkscape:connector-curvature="0"
       style="fill:#50e6ff" />
    <path
       d="M 17.57,4.48 C 16.91,3.39 15.37,2.96 13.22,3.28 h -0.26 l 1.91,1 a 2.07,2.07 0 0 1 1.73,0.75 v 0 C 17,5.7 16.66,6.84 15.67,8.17 a 17.45,17.45 0 0 1 -5,4.23 17.33,17.33 0 0 1 -6.06,2.4 C 2.97,15.05 1.8,14.8 1.4,14.14 1,13.48 1.31,12.45 2.17,11.22 V 9.39 C 1.9,9.7 1.67,10 1.42,10.33 c -1.29,1.73 -1.65,3.29 -1,4.39 a 3.33,3.33 0 0 0 3,1.3 8.92,8.92 0 0 0 1.31,-0.1 18.71,18.71 0 0 0 6.5,-2.52 18.6,18.6 0 0 0 5.3,-4.53 c 1.34,-1.73 1.7,-3.29 1.04,-4.39 z"
       id="path60179"
       inkscape:connector-curvature="0"
       style="fill:url(#b1a613f6-50f9-42fe-ac44-c79cd2718830)" />
  </g>
  <metadata
     id="metadata60183">
    <rdf:RDF>
      <rdf:li>public:true</rdf:li>
      <rdf:li>sdk:false</rdf:li>
      <rdf:li>category: Management + Governance</rdf:li>
      <cc:Work
         rdf:about="">
        <dc:format>image/svg+xml</dc:format>
        <dc:type
           rdf:resource="http://purl.org/dc/dcmitype/StillImage" />
        <dc:title>Icon-manage-313</dc:title>
      </cc:Work>
    </rdf:RDF>
  </metadata>
</svg>
