<?xml version="1.0" encoding="UTF-8" standalone="no"?>
<svg
   xmlns:dc="http://purl.org/dc/elements/1.1/"
   xmlns:cc="http://creativecommons.org/ns#"
   xmlns:rdf="http://www.w3.org/1999/02/22-rdf-syntax-ns#"
   xmlns:svg="http://www.w3.org/2000/svg"
   xmlns="http://www.w3.org/2000/svg"
   xmlns:sodipodi="http://sodipodi.sourceforge.net/DTD/sodipodi-0.dtd"
   xmlns:inkscape="http://www.inkscape.org/namespaces/inkscape"
   id="a4532404-4c5c-4d46-bcf5-7eb251bd3d88"
   width="16.901033"
   height="16.950315"
   viewBox="0 0 16.901033 16.950315"
   version="1.1"
   sodipodi:docname="Solutions.svg"
   inkscape:version="0.92.3 (2405546, 2018-03-11)">
  <sodipodi:namedview
     pagecolor="#ffffff"
     bordercolor="#666666"
     borderopacity="1"
     objecttolerance="10"
     gridtolerance="10"
     guidetolerance="10"
     inkscape:pageopacity="0"
     inkscape:pageshadow="2"
     inkscape:window-width="1920"
     inkscape:window-height="1017"
     id="namedview62670"
     showgrid="false"
     fit-margin-top="0"
     fit-margin-left="0"
     fit-margin-right="0"
     fit-margin-bottom="0"
     inkscape:zoom="48.111111"
     inkscape:cx="8.45"
     inkscape:cy="8.5"
     inkscape:window-x="-8"
     inkscape:window-y="-8"
     inkscape:window-maximized="1"
     inkscape:current-layer="a4532404-4c5c-4d46-bcf5-7eb251bd3d88" />
  <defs
     id="defs62657">
    <linearGradient
       id="beb91629-a2bd-40af-be99-914b769571a4"
       x1="-6941.9302"
       y1="-2082.96"
       x2="-6941.9302"
       y2="-2101.6799"
       gradientTransform="matrix(0.5,0,0,-0.5,3476.4,-1033.45)"
       gradientUnits="userSpaceOnUse">
      <stop
         offset="0"
         stop-color="#5ea0ef"
         id="stop62633" />
      <stop
         offset="0.18"
         stop-color="#589eed"
         id="stop62635" />
      <stop
         offset="0.41"
         stop-color="#4897e9"
         id="stop62637" />
      <stop
         offset="0.66"
         stop-color="#2e8ce1"
         id="stop62639" />
      <stop
         offset="0.94"
         stop-color="#0a7cd7"
         id="stop62641" />
      <stop
         offset="1"
         stop-color="#0078d4"
         id="stop62643" />
    </linearGradient>
    <linearGradient
       id="b166d928-c1e7-4c12-bb3f-f2e4856c02db"
       x1="11.5"
       y1="12.45"
       x2="11.5"
       y2="0.55000001"
       gradientUnits="userSpaceOnUse">
      <stop
         offset="0"
         stop-color="#198ab3"
         id="stop62646" />
      <stop
         offset="0.24"
         stop-color="#22a5cb"
         id="stop62648" />
      <stop
         offset="0.53"
         stop-color="#2bbfe2"
         id="stop62650" />
      <stop
         offset="0.79"
         stop-color="#30cff0"
         id="stop62652" />
      <stop
         offset="1"
         stop-color="#32d4f5"
         id="stop62654" />
    </linearGradient>
  </defs>
  <title
     id="title62659">Icon-manage-321</title>
  <path
     d="m 5.04,12.580316 h 4.32 v 3.87 a 0.5,0.5 0 0 1 -0.5,0.5 H 5.04 Z m -4.44,4.32 h 3.72 v -4.32 H 0 v 3.72 a 0.6,0.6 0 0 0 0.6,0.6 z m -0.6,-5 H 4.32 V 7.5403162 H 0.5 a 0.5,0.5 0 0 0 -0.5,0.5 z"
     id="path62661"
     inkscape:connector-curvature="0"
     style="fill:url(#beb91629-a2bd-40af-be99-914b769571a4)" />
  <path
     d="M 10.95,3.1622647e-4 A 5.89,5.89 0 0 1 16.9,6.0003162 5.89,5.89 0 0 1 10.95,11.950316 H 5 V 5.9503162 A 5.89,5.89 0 0 1 10.95,3.1622647e-4 Z"
     id="path62663"
     inkscape:connector-curvature="0"
     style="fill:url(#b166d928-c1e7-4c12-bb3f-f2e4856c02db);fill-rule:evenodd" />
  <path
     d="m 14.61,2.6903162 a 1,1 0 0 0 -1,1 1,1 0 0 0 0.22,0.62 l -1.67,2.99 h -0.13 a 1,1 0 0 0 -0.53,0.16 l -1.29,-1.32 a 1,1 0 0 0 0.08,-0.39 1.025,1.025 0 1 0 -2.05,0 1,1 0 0 0 0.13,0.48 l -1.17,1.54 a 1.26,1.26 0 0 0 -0.28,0 1,1 0 1 0 1,1 1,1 0 0 0 -0.13,-0.47 l 1.23,-1.55 a 1,1 0 0 0 0.25,0 1.05,1.05 0 0 0 0.36,-0.08 l 1.41,1.48 a 1.1,1.1 0 0 0 0,0.18 1,1 0 0 0 2,0 1.1,1.1 0 0 0 -0.2,-0.6 l 1.67,-3 h 0.1 a 1,1 0 0 0 1,-1 1,1 0 0 0 -1,-1.04 z"
     id="path62665"
     inkscape:connector-curvature="0"
     style="fill:#ffffff" />
  <metadata
     id="metadata62667">
    <rdf:RDF>
      <rdf:li>public:true</rdf:li>
      <rdf:li>sdk:false</rdf:li>
      <rdf:li>category: Management + Governance</rdf:li>
      <cc:Work
         rdf:about="">
        <dc:format>image/svg+xml</dc:format>
        <dc:type
           rdf:resource="http://purl.org/dc/dcmitype/StillImage" />
        <dc:title>Icon-manage-321</dc:title>
      </cc:Work>
    </rdf:RDF>
  </metadata>
</svg>
