<?xml version="1.0" encoding="UTF-8" standalone="no"?>
<svg
   xmlns:dc="http://purl.org/dc/elements/1.1/"
   xmlns:cc="http://creativecommons.org/ns#"
   xmlns:rdf="http://www.w3.org/1999/02/22-rdf-syntax-ns#"
   xmlns:svg="http://www.w3.org/2000/svg"
   xmlns="http://www.w3.org/2000/svg"
   xmlns:sodipodi="http://sodipodi.sourceforge.net/DTD/sodipodi-0.dtd"
   xmlns:inkscape="http://www.inkscape.org/namespaces/inkscape"
   id="bb70dade-293f-45b2-9a10-be6db017cd74"
   width="16.005415"
   height="17.029346"
   viewBox="0 0 16.005415 17.029346"
   version="1.1"
   sodipodi:docname="User_Privacy.svg"
   inkscape:version="0.92.3 (2405546, 2018-03-11)">
  <sodipodi:namedview
     pagecolor="#ffffff"
     bordercolor="#666666"
     borderopacity="1"
     objecttolerance="10"
     gridtolerance="10"
     guidetolerance="10"
     inkscape:pageopacity="0"
     inkscape:pageshadow="2"
     inkscape:window-width="1920"
     inkscape:window-height="1017"
     id="namedview62565"
     showgrid="false"
     fit-margin-top="0"
     fit-margin-left="0"
     fit-margin-right="0"
     fit-margin-bottom="0"
     inkscape:zoom="48.111111"
     inkscape:cx="8.0054149"
     inkscape:cy="8.5293463"
     inkscape:window-x="-8"
     inkscape:window-y="-8"
     inkscape:window-maximized="1"
     inkscape:current-layer="bb70dade-293f-45b2-9a10-be6db017cd74" />
  <defs
     id="defs62548">
    <linearGradient
       id="a1b98161-c331-4559-9700-7c3dbf716821"
       x1="8.1099997"
       y1="6.4499998"
       x2="8.1099997"
       y2="18.200001"
       gradientUnits="userSpaceOnUse">
      <stop
         offset="0.22"
         stop-color="#32d4f5"
         id="stop62533" />
      <stop
         offset="1"
         stop-color="#198ab3"
         id="stop62535" />
    </linearGradient>
    <linearGradient
       id="ae2314f4-c766-47db-ad18-ec313459d520"
       x1="7.7800002"
       y1="0.15000001"
       x2="8.6400003"
       y2="10.82"
       gradientUnits="userSpaceOnUse">
      <stop
         offset="0.22"
         stop-color="#32d4f5"
         id="stop62538" />
      <stop
         offset="1"
         stop-color="#198ab3"
         id="stop62540" />
    </linearGradient>
    <linearGradient
       id="e2290250-b7a3-47ee-abfe-de7d410961d8"
       x1="13.49"
       y1="17.15"
       x2="13.49"
       y2="9.3500004"
       gradientUnits="userSpaceOnUse">
      <stop
         offset="0"
         stop-color="#1988d9"
         id="stop62543" />
      <stop
         offset="0.9"
         stop-color="#54aef0"
         id="stop62545" />
    </linearGradient>
  </defs>
  <title
     id="title62550">Icon-manage-303</title>
  <path
     d="m 12.935415,15.58 a 1.26,1.26 0 0 0 1.26,-1.25 0.76,0.76 0 0 0 0,-0.15 c -0.49,-4 -2.75,-7.1799998 -7.0000001,-7.1799998 -4.25,0 -6.71000004,2.73 -7.19000004,7.1899998 A 1.27,1.27 0 0 0 1.1354149,15.57 H 12.935415 Z"
     id="path62552"
     inkscape:connector-curvature="0"
     style="fill:url(#a1b98161-c331-4559-9700-7c3dbf716821)" />
  <path
     d="m 7.1354149,7.9400002 a 3.94,3.94 0 0 1 -2.13,-0.64 l 2.1,5.5599998 2.12,-5.5199998 a 4,4 0 0 1 -2.09,0.6 z"
     id="path62554"
     inkscape:connector-curvature="0"
     style="opacity:0.8;fill:#ffffff" />
  <circle
     cx="7.1354151"
     cy="3.97"
     r="3.97"
     id="circle62556"
     style="fill:url(#ae2314f4-c766-47db-ad18-ec313459d520)" />
  <path
     d="m 16.005415,12.5 c 0,2.28 -2.76,4.12 -3.36,4.5 a 0.24,0.24 0 0 1 -0.23,0 c -0.64,-0.41 -3.4100001,-2.25 -3.4100001,-4.5 V 9.7200002 a 0.22,0.22 0 0 1 0.21,-0.22 c 2.1500001,-0.06 1.6600001,-1 3.2700001,-1 1.61,0 1.11,0.94 3.26,1 a 0.22,0.22 0 0 1 0.21,0.22 z"
     id="path62558"
     inkscape:connector-curvature="0"
     style="fill:#005ba1" />
  <path
     d="m 15.675415,12.5 c 0,2.1 -2.53,3.79 -3.08,4.13 a 0.2,0.2 0 0 1 -0.21,0 c -0.55,-0.34 -3.0800001,-2 -3.0800001,-4.13 V 9.9700002 a 0.19,0.19 0 0 1 0.19,-0.2 c 2.0000001,0 1.5200001,-0.92 3.0000001,-0.92 1.48,0 1,0.87 3,0.92 a 0.19,0.19 0 0 1 0.19,0.2 z"
     id="path62560"
     inkscape:connector-curvature="0"
     style="fill:url(#e2290250-b7a3-47ee-abfe-de7d410961d8)" />
  <metadata
     id="metadata62562">
    <rdf:RDF>
      <rdf:li>public:true</rdf:li>
      <rdf:li>sdk:false</rdf:li>
      <rdf:li>category: Management + Governance</rdf:li>
      <cc:Work
         rdf:about="">
        <dc:format>image/svg+xml</dc:format>
        <dc:type
           rdf:resource="http://purl.org/dc/dcmitype/StillImage" />
        <dc:title>Icon-manage-303</dc:title>
      </cc:Work>
    </rdf:RDF>
  </metadata>
</svg>
