<svg xmlns="http://www.w3.org/2000/svg" viewBox="0 0 61.115 91.401"><path d="M6.958 67.815C3.82 66.377.18 61.444.205 57.543L.18 9.607C.3 7.645.68 6.5 2.248 5.314s7.806-4.266 8.85-4.688c1.1-.445 2.464-1.176 5.995.917l38.52 23.262c4.56 2.605 5.176 6.29 5.31 8.966s.032 45.68-.22 48.7c-.116 1.388-.517 2.638-2.235 3.752-1.956 1.27-5.28 2.77-7.413 3.907-3.958 2.104-5.326.733-5.914.45C42.14 89.12 6.958 67.815 6.958 67.815" fill="#646567"/><g fill="none"><path d="M6.958 67.815C3.82 66.377.18 61.444.205 57.543L.18 9.607C.3 7.645.68 6.5 2.248 5.314s7.806-4.266 8.85-4.688c1.1-.445 2.464-1.176 5.995.917l38.52 23.262c4.56 2.605 5.176 6.29 5.31 8.966s.032 45.68-.22 48.7c-.116 1.388-.517 2.638-2.235 3.752-1.956 1.27-5.28 2.77-7.413 3.907-3.958 2.104-5.326.733-5.914.45C42.14 89.12 6.958 67.815 6.958 67.815z" stroke="#646567" stroke-width=".262"/><g stroke="#616365" stroke-width="3.139" stroke-linejoin="round"><path d="M2.77 6.835l9.414-4.938c.833-.393 2.017-.134 3.487.593L6.557 7.463c-.8-.318-2.707-1.2-3.786-.628zm55.003 77.892c-12.7 6.747 3.453-2.073-9.256 4.674.883-.47 1.435-1.56 1.433-3.14l9.258-4.673c0 1.58-.552 2.668-1.435 3.138z"/><path d="M6.296 7.463l9.437-4.882 38.915 23.847-9.286 4.5zm43.62 31.694l9.353-5.427-.013 47.43-9.307 5.1z"/><path d="M45.362 30.937l9.933-4.416c2.513 1.5 3.97 4.18 3.974 7.21l-9.352 5.427c-.002-3.03-2.04-6.7-4.555-8.22z"/><path d="M45.362 30.937c2.516 1.5 4.553 5.19 4.555 8.22l.033 47.105c.004 3.03-2.03 4.262-4.547 2.752L6.337 65.54c-2.52-1.515-4.56-5.194-4.56-8.225L1.743 10.21C1.74 7.18 3.776 5.95 6.296 7.463l39.066 23.474z"/></g></g><path d="M2.964 6.672c1.6-.87 1.137-.897 9.023-4.7.83-.4 2.215-.2 3.424.527L6.346 7.036c-1.208-.727-2.568-.795-3.382-.364" fill="#8d8f92"/><path d="M58.007 84.124l-9.44 4.85c.837-.543 1.434-1.56 1.432-3.14l9.258-5.067c0 1.578-.367 2.887-1.25 3.357" fill="#58585b"/><path d="M6.345 7.036l8.925-4.64 38.915 23.478L45.41 30.5z" fill="#6e7072"/><path d="M50.072 38.576l9.197-4.847.004 47.945-9.13 4.197z" fill="#6c6e70"/><path d="M45.412 30.51l8.773-4.636c2.514 1.5 5.08 4.826 5.084 7.856l-9.303 5c-.002-3.03-2.04-6.7-4.554-8.22" fill="#8d8f92"/><path d="M45.412 30.51c2.515 1.5 4.552 5.19 4.554 8.22L50 85.834c.004 3.03-2.03 4.262-4.547 2.753L6.386 65.113c-2.52-1.514-4.56-5.194-4.56-8.225L1.793 9.783C1.79 6.752 3.826 5.52 6.346 7.035L45.412 30.51z" fill="#b1b3b5"/><path d="M49.94 85.94l-.034-47.104c-.01-2.795-1.884-6.183-4.2-7.582L6.64 7.78c-2.32-1.386-4.19-.248-4.193 2.537l.033 47.105c.008 2.794 1.88 6.18 4.2 7.573L45.75 88.468c2.312 1.4 4.186.256 4.192-2.53zM45.708 30.39c2.713 1.63 4.912 5.6 4.916 8.873l.033 47.107c.002 3.262-2.195 4.6-4.908 2.968L6.682 65.866c-2.714-1.64-4.914-5.6-4.916-8.873L1.733 9.887c-.002-3.27 2.194-4.6 4.908-2.97L45.708 30.39z" fill="#e7e8e9"/><path d="M45.718 31.3c2.315 1.4 4.19 4.787 4.2 7.58l.035 47.105c-.005 2.785-1.88 3.92-4.193 2.53L6.693 65.052C4.37 63.658 2.5 60.272 2.49 57.48L2.46 10.374c.004-2.786 1.87-3.924 4.193-2.538L45.718 31.3z" fill="#fefefe"/><path d="M14.253 57.237c0 .865-.576 1.232-1.286.82s-1.287-1.452-1.287-2.318.576-1.232 1.287-.817 1.286 1.45 1.286 2.316m4.432 2.58c0 .866-.576 1.23-1.287.818s-1.286-1.45-1.286-2.317.575-1.232 1.286-.818 1.287 1.45 1.287 2.317m4.43 2.58c0 .864-.575 1.232-1.286.82s-1.287-1.452-1.287-2.318.576-1.232 1.287-.817 1.286 1.45 1.286 2.316m4.434 2.58c0 .866-.576 1.23-1.287.818s-1.286-1.45-1.286-2.317.575-1.232 1.286-.82 1.287 1.452 1.287 2.318m4.43 2.58c0 .864-.577 1.232-1.287.82s-1.287-1.45-1.287-2.318.577-1.232 1.287-.817 1.287 1.45 1.287 2.316" fill="#58585b"/><g fill="#6c6e70"><path d="M11.868 25.5l1.044 4.878-1.506-.87-.206-1.12-.998.426-2.636-1.523zm.272.15l.417 1.988.37.215-.262.273.513 2.412 1.544-1.65.308.18 1.068-1.132z"/><path d="M13.78 30.88l1.726-1.86c-.086.558.108 1.237.48 1.875.378.648.888 1.134 1.317 1.1l-.55.608-2.974-1.714zm2.428-2.547l1.332.768c-.186-.298-.418-.545-.667-.688s-.478-.163-.665-.08"/><path d="M16.883 31.504c.26.15.5.165.7.07l-1.38-.798c.2.317.43.58.7.73m-.938-1.238l1.872 1.08a1 1 0 0 0 .117-.262l-2.1-1.218a3 3 0 0 0 .121.399m-.198-.957l.006.158 2.232 1.287.005-.15v-.183l-2.227-1.284-.007.173m.07-.503l2.1 1.2c-.034-.136-.077-.272-.128-.403l-1.846-1.068c-.05.073-.094.162-.125.26"/></g><g fill="#58585b"><path d="M20.03 32.798l-.328-.19-.13-.074.534-1.497.01.005.566 2.133-.652-.376zm1.567 2.472a1.94 1.94 0 0 1-.108-.297L20.1 30.067l-.01-.006-1.295 3.467c-.018.044-.043.07-.077.08l.485.28c-.013-.03-.035-.073-.034-.114-.001-.018.015-.062.038-.122l.274-.766.242.14.307.177.785.454.28 1.085.04.166c.001.042-.02.058-.033.075l.493.286z"/><path d="M21.64 35.294c.067-.006.078-.145.077-.378l-.012-3.558c-.001-.113-.006-.218-.072-.3l.372.216.014 4.006c.002.125.033.227.08.3l-.46-.265zm.744.43c.07-.007.08-.146.077-.378l-.013-3.56c0-.113-.004-.22-.07-.3l.373.216.014 4.007c0 .125.032.226.078.3l-.46-.265zm.746.43c.07-.006.078-.145.077-.38l-.008-2.232c0-.114-.005-.22-.07-.3l.373.214.01 2.682c.001.126.03.227.08.3l-.46-.266zm.414-3.41c0 .15-.1.217-.194.156s-.196-.232-.198-.38.1-.217.195-.158.197.233.197.382m14.29 11.895c.067-.008.076-.146.075-.38l-.008-2.233c-.001-.114-.005-.218-.07-.3l.373.214.01 2.683c.001.124.03.224.08.287l-.458-.263zm.412-3.4c0 .15-.1.215-.194.157s-.197-.232-.197-.38.1-.218.194-.158a.49.49 0 0 1 .197.38m-10.05-2.906l-.304-.5-.005-1.044c-.225-.44-.378-.695-.798-.94-.486-.28-.818.06-.816.698.002.62.4 1.363.858 1.627.4.226.6.014.76-.013l-.001-.504.304.482c.001.143.001.352.05.434-.1-.028-.173-.004-.25.023-.308.06-.483.203-.864-.018-.66-.38-1.164-1.363-1.168-2.253-.003-.9.553-1.212 1.186-.847a1.54 1.54 0 0 1 .723.852l.015-.002-.004-1.457a.44.44 0 0 0-.079-.242l.38.22.013 3.496zm2.38 1.92a.56.56 0 0 0 .054.238l-.434-.25c.028-.035.052-.095.052-.178l-.013-3.638-.5-.282c-.093-.053-.15-.06-.2.005l-.003-.527 1.7.987.001.525a.39.39 0 0 0-.2-.234l-.5-.282.012 3.637z"/><path d="M33.28 42.025c.07-.006.077-.146.077-.378l-.013-3.56c0-.113-.006-.216-.07-.307l.373.214L33.66 42c0 .125.032.226.08.3l-.46-.265zm4.044-.08c-.104-.18-.243-.348-.387-.43-.186-.108-.342-.108-.34.18.003.67.935.872.94 1.97.001.52-.298.728-.67.514a1.98 1.98 0 0 1-.364-.271c-.088-.073-.15-.144-.197-.17-.025-.016-.064-.003-.082.022l-.003-.001v-.717c.14.298.342.556.555.678.226.13.45.17.45-.187-.001-.836-.933-.972-.937-2.02-.001-.484.263-.63.6-.428.12.068.26.2.334.25.03.018.075.03.096.006l.001.604zm2.392 1.38c-.104-.18-.243-.35-.387-.43-.185-.107-.342-.108-.34.178.002.67.933.872.936 1.97.002.52-.296.728-.67.514a2.04 2.04 0 0 1-.364-.27c-.087-.074-.148-.146-.194-.172-.028-.017-.065-.001-.084.023l-.002-.002-.003-.716c.143.298.343.555.555.678.226.13.45.17.45-.188-.003-.835-.933-.974-.937-2.02-.002-.483.262-.628.608-.43.12.07.26.2.334.252.03.018.074.03.096.007l.001.604zm-15.3-8.77c-.34.198-.42.674-.26 1.3l1.333-.774c-.34-.53-.743-.718-1.074-.525m1.542.782l-1.613.94c.34.614.808.865 1.173.654.1-.058.193-.123.263-.22v.595l-.074.046c-.5.3-1.23-.112-1.66-1.065-.434-.96-.338-1.853.177-2.148.538-.314 1.27.3 1.614 1.044.037.08.08.116.12.156m5.582 3.324c-.342.2-.423.674-.26 1.3l1.334-.775c-.34-.527-.744-.715-1.073-.524m1.542.784l-1.615.938c.34.614.8.864 1.174.653.1-.06.2-.124.26-.22l.003.595c-.024.018-.048.032-.073.045-.5.3-1.23-.113-1.66-1.064-.436-.96-.34-1.852.174-2.15.54-.313 1.273.292 1.616 1.046.036.08.082.116.12.156m1.53.99c-.34.2-.42.674-.26 1.3l1.332-.777c-.34-.527-.742-.715-1.072-.524m1.54.784l-1.614.938c.342.613.8.864 1.175.653a.8.8 0 0 0 .26-.22l.003.595-.074.045c-.5.3-1.23-.112-1.66-1.065-.435-.96-.338-1.85.175-2.148.538-.313 1.272.292 1.616 1.046.035.08.08.116.12.156"/></g><path d="M39.784 41.617l-.094-.054v-.047l.228.13.001.048-.095-.055.002.378-.04-.023zm.43.44l-.004-.187h-.001l-.04.14-.055.174-.03-.016-.05-.23-.036-.186-.006.183-.008.177-.038-.02.02-.413.052.03.052.234.032.16.001.002c.007-.04.02-.08.032-.125l.054-.172.05.028.02.435-.038-.02-.01-.192z" fill="#6c6e70"/></svg>