<svg xmlns="http://www.w3.org/2000/svg" viewBox="0 0 43.123 166.111"><style><![CDATA[.S{fill:none}.T{stroke-linejoin:round}.U{stroke:#626366}.V{stroke-linecap:round}.W{stroke-width:2.209}.X{stroke-width:.552}.Y{fill:#6c6e70}]]></style><path d="M10.853 151.9c0 .888-.72 1.605-1.604 1.605s-1.606-.717-1.606-1.605V96.154c0-.887.72-1.603 1.606-1.603s1.604.716 1.604 1.603V151.9z" class="S T U W"/><linearGradient id="A" gradientUnits="userSpaceOnUse" x1="9.355" y1="153.508" x2="9.355" y2="94.553"><stop offset="0" stop-color="#e6e7e7"/><stop offset="1" stop-color="#939598"/></linearGradient><path d="M7.75 96.154V151.9c0 .887.72 1.606 1.605 1.606s1.602-.72 1.602-1.606V96.154a1.6 1.6 0 0 0-1.602-1.603c-.885 0-1.605.716-1.605 1.603" fill="url(#A)"/><g class="S T"><path d="M9.685 102.686v-5.69" stroke="#dfe0df" class="V X"/><path d="M32.26 162.4c0 .887-.718 1.605-1.603 1.605s-1.605-.718-1.605-1.605v-55.747c0-.887.72-1.603 1.605-1.603a1.6 1.6 0 0 1 1.603 1.603V162.4z" class="U W"/></g><linearGradient id="B" gradientUnits="userSpaceOnUse" x1="30.762" y1="164.007" x2="30.762" y2="105.051"><stop offset="0" stop-color="#e6e7e7"/><stop offset="1" stop-color="#939598"/></linearGradient><path d="M29.16 106.654V162.4a1.61 1.61 0 0 0 1.606 1.606c.886 0 1.6-.72 1.6-1.606v-55.747a1.6 1.6 0 0 0-1.601-1.603c-.885 0-1.606.716-1.606 1.603" fill="url(#B)"/><g class="S T V X"><path d="M31.094 113.186v-5.69" stroke="#dfe0df"/><path d="M9.623 150.016v-5.7m21.105 16.368v-5.7" stroke="#636466"/></g><path d="M4.9 101.37C2.695 100.354.126 96.873.144 94.12L.126 60.297c.092-1.385.353-2.2 1.46-3.03s5.508-3.01 6.245-3.307c.775-.314 1.738-.83 4.23.647L39.24 71.02c3.217 1.838 3.652 4.438 3.748 6.327s.023 32.23-.154 34.355c-.083.98-.365 1.862-1.578 2.648-1.38.895-3.724 1.955-5.23 2.756-2.793 1.486-3.757.518-4.173.318C29.734 116.4 4.9 101.37 4.9 101.37" fill="#646567"/><g class="S"><path d="M4.9 101.37C2.695 100.354.126 96.873.144 94.12L.126 60.297c.092-1.385.353-2.2 1.46-3.03s5.508-3.01 6.245-3.307c.775-.314 1.738-.83 4.23.647L39.24 71.02c3.217 1.838 3.652 4.438 3.748 6.327s.023 32.23-.154 34.355c-.083.98-.365 1.862-1.578 2.648-1.38.895-3.724 1.955-5.23 2.756-2.793 1.486-3.757.518-4.173.318C29.734 116.4 4.9 101.37 4.9 101.37z" stroke="#646567" stroke-width=".185"/><g stroke="#616365" stroke-width="2.215" class="T"><path d="M1.955 58.342l6.643-3.484c.588-.277 1.422-.095 2.46.418l-6.432 3.51c-.558-.225-1.9-.848-2.672-.443z"/><g class="V"><path d="M35.245 114.386l6.532-3.297-.02.442-6.532 3.297.02-.442"/><path d="M35.224 114.828l6.532-3.297c-.09.876-.454 1.486-1 1.772l-6.53 3.297c.536-.286.9-.896.99-1.772"/></g><path d="M40.766 113.303c-8.97 4.76 2.437-1.463-6.53 3.297.623-.33 1-1.1 1-2.214l6.533-3.297c0 1.114-.4 1.882-1.012 2.214zM4.443 58.785L11.1 55.34l27.46 16.827-6.552 3.18z"/><path d="M35.222 81.148l6.6-3.83-.01 33.468-6.568 3.6z"/><path d="M32.008 75.348l7.01-3.116c1.773 1.066 2.802 2.95 2.804 5.087l-6.6 3.83c-.001-2.138-1.44-4.735-3.214-5.8z"/><path d="M32.008 75.348c1.775 1.065 3.213 3.662 3.214 5.8l.023 33.238c.003 2.138-1.433 3.007-3.208 1.942L4.472 99.765c-1.778-1.07-3.217-3.666-3.22-5.804L1.23 60.724c-.002-2.14 1.434-3.007 3.212-1.94l27.565 16.563z"/></g></g><path d="M2.09 58.227c1.13-.613.803-.633 6.367-3.323.585-.283 1.563-.14 2.416.372l-6.396 3.208c-.853-.513-1.812-.56-2.387-.257" fill="#8d8f92"/><path d="M40.93 112.878l-6.66 3.42c.592-.383 1.013-1.1 1.01-2.214l6.533-3.576c0 1.113-.26 2.037-.883 2.37" fill="#58585b"/><path d="M35.28 114.084l6.533-3.297-.02.443-6.533 3.297a3.94 3.94 0 0 0 .021-.443" fill="#96989b"/><path d="M35.28 114.275l6.555-3.74c-.09.877-.192 1.945-.545 2.14l-6.814 3.282c.352-.196.715-.806.804-1.683" class="Y"/><path d="M4.478 58.484l6.298-3.274 27.458 16.566-6.19 3.27z" fill="#6e7072"/><path d="M35.33 80.74l6.5-3.42.003 33.83-6.442 2.962z" class="Y"/><path d="M32.043 75.047l6.2-3.27c1.774 1.065 3.585 3.405 3.588 5.543l-6.564 3.528c-.002-2.138-1.44-4.735-3.214-5.8" fill="#8d8f92"/><path d="M32.043 75.047c1.774 1.065 3.212 3.662 3.214 5.8l.022 33.238c.003 2.138-1.432 3.007-3.208 1.942L4.506 99.464c-1.777-1.07-3.217-3.666-3.218-5.804l-.023-33.237c-.001-2.14 1.434-3.008 3.213-1.94l27.565 16.563z" fill="#b1b3b5"/><path d="M35.24 114.158l-.024-33.237c-.006-1.972-1.33-4.363-2.963-5.35L4.686 59.008c-1.637-.978-2.956-.175-2.96 1.79l.024 33.237c.006 1.972 1.326 4.36 2.964 5.344l27.565 16.563c1.633.98 2.955.18 2.96-1.785zm-2.987-39.195c1.915 1.15 3.466 3.952 3.468 6.26l.024 33.238c.001 2.303-1.55 3.24-3.464 2.095L4.715 99.994c-1.914-1.156-3.467-3.958-3.47-6.26l-.023-33.24C1.22 58.187 2.77 57.25 4.686 58.4l27.566 16.563z" fill="#e7e8e9"/><path d="M32.26 75.612c1.634.987 2.957 3.377 2.963 5.35l.024 33.237c-.004 1.965-1.326 2.766-2.958 1.785L4.723 99.42c-1.64-.983-2.96-3.372-2.965-5.343L1.736 60.84c.002-1.966 1.32-2.77 2.958-1.8L32.26 75.612z" fill="#fefefe"/><path d="M13.834 57.454c0 .888-.72 1.605-1.604 1.605s-1.606-.717-1.606-1.605V1.707c0-.887.72-1.603 1.606-1.603s1.604.716 1.604 1.603v55.747z" class="S T U W"/><path d="M13.94 57.454c0 .888-.717 1.605-1.603 1.605s-1.605-.717-1.605-1.605V1.707c0-.887.72-1.603 1.605-1.603a1.6 1.6 0 0 1 1.603 1.603v55.747z" fill="#d7d8d9"/><g class="S T U"><path d="M12.666 8.24V2.55" class="V X"/><path d="M33.74 68.454c0 .887-.718 1.605-1.603 1.605s-1.605-.718-1.605-1.605V12.708c0-.887.72-1.603 1.605-1.603a1.6 1.6 0 0 1 1.603 1.603v55.746z" class="W"/></g><path d="M33.848 68.454a1.6 1.6 0 0 1-1.602 1.605c-.884 0-1.605-.718-1.605-1.605V12.708c0-.887.72-1.603 1.605-1.603a1.6 1.6 0 0 1 1.602 1.603v55.746z" fill="#d7d8d9"/><path d="M32.575 19.24v-5.69" class="S T U V X"/><g class="Y"><path d="M9.033 76.823l.735 3.442-1.062-.613-.145-.8-.704.3-1.86-1.074zm.19.107l.295 1.403.26.15-.185.193.362 1.702 1.1-1.165.217.127.754-.8z"/><path d="M10.383 80.62l1.217-1.312c-.06.394.077.873.34 1.323.266.457.627.8.93.77l-.388.428-2.098-1.2zm1.712-1.797l.94.542c-.13-.2-.293-.385-.47-.486s-.338-.115-.47-.056"/><path d="M12.572 81.06c.184.105.353.116.486.05l-.974-.563c.134.223.304.408.488.514m-.662-.874l1.32.763c.034-.053.063-.115.083-.185l-1.488-.86c.022.095.05.2.085.282m-.133-.674l.004.1 1.575.9c.003-.035.003-.07.003-.107l-.006-.13-1.57-.906a1.22 1.22 0 0 0-.005.122m.048-.354l1.48.854a2.17 2.17 0 0 0-.09-.284l-1.303-.753a.66.66 0 0 0-.088.183"/></g><g fill="#58585b"><path d="M14.79 81.973l-.23-.135-.09-.052.377-1.056.006.003.4 1.505-.46-.265zm1.105 1.744c-.027-.058-.044-.107-.076-.21l-.98-3.462-.006-.005-.914 2.447c-.013.03-.03.05-.055.056l.343.198c-.01-.022-.025-.05-.024-.08-.001-.012.01-.043.027-.085l.193-.54.17.1.216.125.555.32.198.766.027.118c.001.03-.014.04-.023.052l.347.202z"/><path d="M15.928 83.734c.048-.004.056-.103.055-.267l-.008-2.5c-.001-.08-.005-.154-.05-.22l.262.152.01 2.827c.001.088.023.16.056.204l-.324-.187z"/><path d="M16.453 84.038c.05-.005.056-.103.055-.267l-.01-2.5c0-.08-.004-.155-.05-.22l.263.152.01 2.828c0 .088.022.16.055.204l-.324-.187zm.527.302c.05-.004.056-.103.055-.268l-.006-1.575c0-.08-.003-.154-.05-.218l.264.152.006 1.892c.001.1.022.16.056.204l-.325-.187z"/><path d="M17.27 81.936c0 .105-.063.153-.137.1a.36.36 0 0 1-.138-.27c-.001-.106.063-.153.136-.1s.14.165.14.27m10.084 8.404c.048-.006.055-.104.054-.268l-.006-1.576c-.001-.08-.004-.153-.05-.218l.264.152.006 1.893c.001.087.022.158.056.203l-.324-.186z"/><path d="M27.646 87.923c0 .106-.064.152-.137.1s-.14-.163-.14-.268.063-.154.137-.112.138.165.14.27m-7.092-2.053l-.215-.36-.003-.736c-.16-.312-.266-.5-.563-.664-.343-.197-.576.042-.576.493.002.438.282.962.605 1.148.275.16.425.01.537-.01v-.356l.214.34c.001.102.001.25.035.307a.27.27 0 0 0-.178.016c-.216.042-.34.143-.6-.012-.466-.27-.822-.963-.824-1.6s.4-.856.837-.598a1.09 1.09 0 0 1 .51.601l.01-.002-.004-1.028a.31.31 0 0 0-.054-.171l.268.155.01 2.467z"/><path d="M22.233 87.226a.44.44 0 0 0 .037.168l-.306-.177c.02-.025.037-.067.037-.126l-.01-2.566-.346-.2c-.064-.038-.104-.043-.14.003l-.001-.372 1.206.697.001.37c-.038-.1-.078-.13-.14-.165l-.346-.2.01 2.566zm1.907 1.258c.05-.004.055-.104.055-.267l-.01-2.5c0-.08-.005-.153-.05-.217l.263.15v2.827a.34.34 0 0 0 .056.204l-.325-.187zm2.854-.058c-.073-.126-.172-.245-.272-.304-.132-.075-.242-.075-.24.126.002.472.66.615.66 1.4.001.367-.2.514-.47.363a1.4 1.4 0 0 1-.257-.191l-.14-.12c-.018-.01-.046-.002-.058.016l-.002-.001-.002-.506c.1.2.242.392.4.478.16.093.32.12.318-.13-.001-.6-.658-.687-.66-1.425-.001-.34.184-.445.43-.302.085.048.183.148.236.177.02.012.052.022.067.004l.001.426zm1.688.974c-.073-.127-.17-.246-.272-.304-.13-.075-.242-.076-.24.125.002.472.66.616.66 1.4.001.367-.2.514-.472.363-.113-.066-.196-.134-.257-.2s-.105-.104-.137-.122c-.02-.012-.047-.001-.058.017h-.003l-.002-.505c.1.2.243.4.392.478.16.092.32.12.318-.132-.003-.6-.66-.688-.662-1.425-.001-.34.185-.444.43-.303.086.05.184.15.236.178.02.012.05.022.068.005v.426z"/><path d="M17.88 83.212c-.24.14-.297.476-.184.917l.942-.546c-.24-.374-.526-.507-.758-.37m1.087.552l-1.138.663c.24.433.572.6.828.46a.57.57 0 0 0 .186-.156l.001.42-.053.033c-.35.206-.868-.08-1.172-.75-.305-.678-.238-1.307.124-1.516.38-.222.898.205 1.14.737.025.057.057.082.084.1m3.938 2.356c-.24.14-.3.476-.184.917l.94-.547c-.24-.373-.525-.505-.757-.37m1.088.553l-1.14.66c.24.434.572.6.827.462.07-.042.136-.088.186-.155l.002.42c-.018.013-.034.022-.052.032-.353.205-.868-.08-1.172-.75-.307-.678-.24-1.307.122-1.517.38-.22.9.206 1.14.738.025.057.058.08.085.1m1.084.71c-.24.14-.297.476-.183.917l.94-.547c-.24-.373-.524-.505-.757-.37m1.088.553l-1.14.662c.24.432.573.6.83.46a.59.59 0 0 0 .186-.155l.001.42-.052.032c-.352.205-.868-.08-1.172-.75s-.238-1.306.123-1.516c.38-.22.9.206 1.14.738.025.057.058.08.085.1"/></g><path d="M28.73 88.196l-.066-.04v-.032l.16.092.001.034-.067-.04v.267l-.028-.016zm.302.31l-.002-.13h-.001l-.03.095-.038.123-.022-.01-.035-.163-.025-.132-.004.13-.006.125-.026-.015.013-.292.036.022.037.165.023.114.023-.087.038-.122.037.02.014.306-.026-.015-.008-.135z" class="Y"/></svg>