<svg xmlns="http://www.w3.org/2000/svg" xmlns:xlink="http://www.w3.org/1999/xlink" viewBox="0 0 96.172 79.399"><style><![CDATA[.T{fill:#fefefe}.U{fill:#626366}.V{fill:#231f20}.W{fill:none}.X{stroke-linejoin:round}.Y{stroke:#626366}.Z{stroke-linecap:round}.a{fill:#898b8e}.b{fill:#b3b5b7}]]></style><g stroke-width="3" class="W X Y"><path d="M30.8 65.566l25.513-13.543.003 3.87-25.514 13.543z"/><path d="M1.5 47.967l25.514-13.542 29.29 17.6L30.8 65.567z"/><path d="M30.8 65.566l.002 3.87-29.29-17.598-.003-3.872z"/><path d="M1.5 47.967l29.3 17.6.002 3.87" class="Z"/><path d="M64.49 20.5l3.52-.593-8.194 32.505-3.518.593z"/><path d="M35.34 2.092l3.52-.592L68.01 19.907l-3.52.593z"/><path d="M64.49 20.5L56.3 53.005 27.146 34.598 35.34 2.092z"/></g><path d="M30.8 65.566l25.513-13.543.003 3.87-25.514 13.543z" class="a"/><path d="M1.5 47.967l25.514-13.542 29.29 17.6L30.8 65.567z" fill="#bbbdbf"/><path d="M30.8 65.566l.002 3.87-29.29-17.598-.003-3.872z" class="b"/><path d="M1.896 48.204L30.8 65.566l.002 3.465" stroke="#e1e2e3" class="W X Z"/><g class="a"><path d="M64.49 20.5l3.52-.593-8.194 32.505-3.518.593z"/><path d="M35.34 2.092l3.52-.592L68.01 19.907l-3.52.593z"/></g><path d="M64.49 20.5L56.3 53.005 27.146 34.598 35.34 2.092z" class="b"/><path d="M59.72 22.054l-6 23.8-21.346-13.48 6-23.8z" class="T"/><path d="M59.72 22.054l-6 23.8-21.346-13.48 6-23.8z" class="W Y"/><path d="M57.416 22.75c-.777-.455-15.55-9.1-16.942-7.598-1.06 1.1-4.52 10.715-4.703 11.22l3.76-14.8L57.416 22.75z" fill="#c4cace"/><path d="M16.05 53.3l4.265-2.265 6.574 3.95-4.266 2.264z" class="T"/><g class="W"><path d="M16.05 53.3l4.265-2.265 6.574 3.95-4.266 2.264z" stroke="#636466"/><path d="M56.467 53.247L26.73 34.27" class="X Y Z"/></g><path d="M16.342 43.444l1.457-.773v.282l-1.457.773z" class="V"/><path d="M15.084 42.69l1.46-.772 1.256.754-1.457.773z" class="T"/><path d="M16.342 43.444v.282l-1.258-.755v-.282z" class="U"/><path d="M18.2 44.563l1.46-.773v.282l-1.46.773z" class="V"/><path d="M16.945 43.807l1.457-.773 1.258.755-1.46.774z" class="T"/><path d="M18.2 44.563v.282l-1.256-.755v-.283z" class="U"/><path d="M20.154 45.736l1.457-.774.002.282-1.46.774z" class="V"/><path d="M18.898 44.98l1.457-.772 1.256.753-1.457.775z" class="T"/><path d="M20.154 45.736v.282l-1.256-.755v-.283z" class="U"/><path d="M22.02 46.857l1.457-.773.002.283-1.46.773z" class="V"/><path d="M20.766 46.103l1.457-.774 1.256.755-1.457.774z" class="T"/><path d="M22.02 46.857v.283l-1.256-.756v-.28z" class="U"/><path d="M23.95 48.016l1.46-.773v.283l-1.46.773z" class="V"/><use xlink:href="#B" class="T"/><path d="M23.95 48.016v.283l-1.256-.756v-.28z" class="U"/><path d="M25.816 49.14l1.46-.774v.282l-1.46.773z" class="V"/><path d="M24.553 48.38l1.46-.773 1.264.758-1.46.775z" class="T"/><path d="M25.816 49.14v.28l-1.264-.758v-.283z" class="U"/><path d="M27.77 50.312l1.456-.774.003.283-1.46.773z" class="V"/><path d="M26.512 49.557l1.46-.774 1.256.754-1.457.775z" class="T"/><path d="M27.77 50.312v.282l-1.256-.755-.003-.282z" class="U"/><path d="M29.63 51.43l1.457-.774v.282l-1.457.774z" class="V"/><path d="M28.373 50.674l1.457-.773 1.258.754-1.457.775z" class="T"/><path d="M29.63 51.43v.282l-1.258-.755v-.283z" class="U"/><path d="M31.46 52.53l1.457-.773v.28l-1.457.774z" class="V"/><path d="M30.203 51.773l1.46-.773 1.256.756-1.457.773z" class="T"/><path d="M31.46 52.53v.282l-1.258-.755v-.283z" class="U"/><path d="M33.32 53.647l1.46-.773v.283l-1.46.773z" class="V"/><use xlink:href="#B" x="9.371" y="5.631" class="T"/><path d="M33.32 53.647v.283l-1.256-.756v-.28z" class="U"/><path d="M35.273 54.82l1.46-.773v.282l-1.46.774z" class="V"/><path d="M34.018 54.065l1.456-.773 1.258.755-1.46.773z" class="T"/><path d="M35.273 54.82v.283l-1.256-.756v-.282z" class="U"/><path d="M37.14 55.943l1.46-.775v.283l-1.46.773z" class="V"/><path d="M35.885 55.188l1.457-.774 1.258.754-1.46.775z" class="T"/><path d="M37.14 55.943v.28l-1.256-.754v-.282z" class="U"/><path d="M39.068 57.1l1.46-.773v.282l-1.46.773z" class="V"/><path d="M37.813 56.346l1.457-.773 1.258.754-1.46.774z" class="T"/><path d="M39.068 57.1v.282l-1.256-.755v-.282z" class="U"/><path d="M40.893 58.197l1.456-.774.003.282-1.46.773z" class="V"/><path d="M39.635 57.442l1.46-.774 1.256.755-1.457.774z" class="T"/><path d="M40.893 58.197v.28l-1.256-.755-.003-.282z" class="U"/><path d="M18.342 42.32l1.457-.773v.282l-1.457.773z" class="V"/><path d="M17.084 41.564l1.46-.772 1.256.754-1.457.773z" class="T"/><path d="M18.342 42.32v.282l-1.258-.755v-.282z" class="U"/><path d="M20.2 43.438l1.46-.773v.282l-1.46.773z" class="V"/><path d="M18.945 42.682l1.457-.773 1.258.755-1.46.774z" class="T"/><path d="M20.2 43.438v.282l-1.256-.755v-.283z" class="U"/><path d="M22.154 44.61l1.457-.774.002.282-1.46.774z" class="V"/><path d="M20.898 43.855l1.457-.772 1.256.753-1.457.775z" class="T"/><path d="M22.154 44.61v.282l-1.256-.755v-.283z" class="U"/><path d="M24.02 45.732l1.457-.773.002.283-1.46.773z" class="V"/><path d="M22.766 44.978l1.457-.774 1.256.755-1.457.774z" class="T"/><path d="M24.02 45.732v.283l-1.256-.756v-.28z" class="U"/><path d="M25.95 46.89l1.46-.773v.283l-1.46.773z" class="V"/><use xlink:href="#B" x="2" y="-1.125" class="T"/><path d="M25.95 46.89v.283l-1.256-.756v-.28z" class="U"/><path d="M27.816 48.014l1.46-.774v.282l-1.46.773z" class="V"/><path d="M26.553 47.254l1.46-.773 1.264.758-1.46.775z" class="T"/><path d="M27.816 48.014v.28l-1.264-.758v-.283z" class="U"/><path d="M29.77 49.187l1.456-.774.003.283-1.46.773z" class="V"/><path d="M28.512 48.432l1.46-.774 1.256.754-1.457.775z" class="T"/><path d="M29.77 49.187v.282l-1.256-.755-.003-.282z" class="U"/><path d="M31.63 50.305l1.457-.774v.282l-1.457.774z" class="V"/><path d="M30.373 49.55l1.457-.773 1.258.754-1.457.775z" class="T"/><path d="M31.63 50.305v.282l-1.258-.755v-.283z" class="U"/><path d="M33.46 51.404l1.457-.773v.28l-1.457.774z" class="V"/><path d="M32.203 50.648l1.46-.773 1.256.756-1.457.773z" class="T"/><path d="M33.46 51.404v.282l-1.258-.755v-.283z" class="U"/><path d="M35.32 52.522l1.46-.773v.283l-1.46.773z" class="V"/><use xlink:href="#B" x="11.371" y="4.506" class="T"/><path d="M35.32 52.522v.283l-1.256-.756v-.28z" class="U"/><path d="M37.273 53.695l1.46-.773v.282l-1.46.774z" class="V"/><path d="M36.018 52.94l1.456-.773 1.258.755-1.46.773z" class="T"/><path d="M37.273 53.695v.283l-1.256-.756v-.282z" class="U"/><path d="M39.14 54.818l1.46-.775v.283l-1.46.773z" class="V"/><path d="M37.885 54.063l1.457-.774 1.258.754-1.46.775z" class="T"/><path d="M39.14 54.818v.28l-1.256-.754v-.282z" class="U"/><path d="M41.068 55.976l1.46-.773v.282l-1.46.773z" class="V"/><path d="M39.813 55.22l1.457-.773 1.258.754-1.46.774z" class="T"/><path d="M41.068 55.976v.282l-1.256-.755v-.282z" class="U"/><path d="M42.893 57.072l1.456-.774.003.282-1.46.773z" class="V"/><path d="M41.635 56.317l1.46-.774 1.256.755-1.457.774z" class="T"/><path d="M42.893 57.072v.28l-1.256-.755-.003-.282z" class="U"/><path d="M20.467 41.194l1.457-.773v.282l-1.457.773z" class="V"/><path d="M19.21 40.44l1.46-.772 1.256.754-1.457.773z" class="T"/><path d="M20.467 41.194v.282l-1.258-.755v-.282z" class="U"/><path d="M22.326 42.313l1.46-.773v.282l-1.46.773z" class="V"/><path d="M21.07 41.557l1.457-.773 1.258.755-1.46.774z" class="T"/><path d="M22.326 42.313v.282l-1.256-.755v-.283z" class="U"/><path d="M24.28 43.486l1.457-.774.002.282-1.46.774z" class="V"/><path d="M23.023 42.73l1.457-.772 1.256.753-1.457.775z" class="T"/><path d="M24.28 43.486v.282l-1.256-.755v-.283z" class="U"/><path d="M26.146 44.607l1.457-.773.002.283-1.46.773z" class="V"/><path d="M24.89 43.853l1.457-.774 1.256.755-1.457.774z" class="T"/><path d="M26.146 44.607v.283l-1.256-.756v-.28z" class="U"/><path d="M28.074 45.766l1.46-.773v.283l-1.46.773z" class="V"/><use xlink:href="#B" x="4.125" y="-2.25" class="T"/><path d="M28.074 45.766v.283l-1.256-.756v-.28z" class="U"/><path d="M29.94 46.89l1.46-.774v.282l-1.46.773z" class="V"/><path d="M28.678 46.13l1.46-.773 1.264.758-1.46.775z" class="T"/><path d="M29.94 46.89v.28l-1.264-.758v-.283z" class="U"/><path d="M31.895 48.062l1.457-.774.002.283-1.46.773z" class="V"/><path d="M30.637 47.307l1.46-.774 1.256.754-1.457.775z" class="T"/><path d="M31.895 48.062v.282l-1.256-.755-.003-.282z" class="U"/><path d="M33.756 49.18l1.457-.774v.282l-1.457.774z" class="V"/><path d="M32.498 48.424l1.457-.773 1.258.754-1.457.775z" class="T"/><path d="M33.756 49.18v.282l-1.258-.755v-.283z" class="U"/><path d="M35.586 50.28l1.457-.773v.28l-1.457.774z" class="V"/><path d="M34.328 49.523l1.46-.773 1.256.756-1.457.773z" class="T"/><path d="M35.586 50.28v.282l-1.258-.755v-.283z" class="U"/><path d="M37.445 51.397l1.46-.773v.283l-1.46.773z" class="V"/><use xlink:href="#B" x="13.497" y="3.381" class="T"/><path d="M37.445 51.397v.283l-1.256-.756v-.28z" class="U"/><path d="M39.398 52.57l1.46-.773v.282l-1.46.774z" class="V"/><path d="M38.143 51.815l1.456-.773 1.258.755-1.46.773z" class="T"/><path d="M39.398 52.57v.283l-1.256-.756v-.282z" class="U"/><path d="M41.266 53.693l1.46-.775v.283l-1.46.773z" class="V"/><path d="M40 52.938l1.457-.774 1.258.754-1.46.775z" class="T"/><path d="M41.266 53.693v.28L40 53.22v-.282z" class="U"/><path d="M43.193 54.85l1.46-.773v.282l-1.46.773z" class="V"/><path d="M41.938 54.096l1.457-.773 1.258.754-1.46.774z" class="T"/><path d="M43.193 54.85v.282l-1.256-.755v-.282z" class="U"/><path d="M45.018 55.947l1.456-.774.003.282-1.46.773z" class="V"/><path d="M43.76 55.192l1.46-.774 1.256.755-1.457.774z" class="T"/><path d="M45.018 55.947v.28l-1.256-.755-.003-.282z" class="U"/><path d="M14.95 45.12l1.46-.773v.275l-1.46.773z" class="V"/><path d="M13.69 44.366l1.46-.774 1.258.755-1.46.774z" class="T"/><path d="M14.95 45.12v.275l-1.256-.755-.002-.275z" class="U"/><path d="M16.72 46.184l1.457-.773v.275l-1.457.773z" class="V"/><path d="M15.46 45.43l1.46-.773 1.256.754-1.457.774z" class="T"/><path d="M16.72 46.184v.275l-1.258-.755v-.275z" class="U"/><path d="M18.578 47.302l1.46-.773v.274l-1.46.773z" class="V"/><path d="M17.322 46.547l1.457-.773 1.258.754-1.46.774z" class="T"/><path d="M18.578 47.302v.274l-1.256-.753v-.276z" class="U"/><path d="M34.137 56.62l1.46-.773v.275l-1.46.773z" class="V"/><path d="M32.88 55.866l1.46-.774 1.258.755-1.46.774z" class="T"/><path d="M34.137 56.62v.275l-1.256-.755v-.275z" class="U"/><path d="M35.906 57.684l1.457-.773v.275l-1.457.773z" class="V"/><path d="M34.648 56.93l1.46-.773 1.256.754-1.457.774z" class="T"/><path d="M35.906 57.684v.275l-1.258-.755v-.275z" class="U"/><path d="M37.766 58.802l1.46-.773v.274l-1.46.773z" class="V"/><path d="M36.5 58.047l1.457-.773 1.258.754-1.46.774z" class="T"/><path d="M37.766 58.802v.274l-1.256-.753v-.276z" class="U"/><path d="M32.15 55.47l1.46-.774v.274l-1.46.774z" class="V"/><path d="M19.256 47.72l1.46-.774L33.6 54.695l-1.46.774z" class="T"/><path d="M32.15 55.47v.274l-12.895-7.748v-.274z" class="U"/><path d="M22.678 39.936l1.457-.773v.282l-1.457.773z" class="V"/><path d="M21.42 39.18l1.46-.773 1.256.754-1.457.774z" class="T"/><path d="M22.678 39.936v.282l-1.258-.755v-.282z" class="U"/><path d="M24.537 41.054l1.46-.773v.282l-1.46.773z" class="V"/><path d="M23.28 40.298l1.457-.773 1.258.755-1.46.774z" class="T"/><path d="M24.537 41.054v.282l-1.256-.755v-.283z" class="U"/><path d="M26.5 42.228l1.457-.774.002.282-1.46.774z" class="V"/><path d="M25.234 41.472l1.457-.773 1.256.754-1.457.775z" class="T"/><path d="M26.5 42.228v.282l-1.256-.755v-.283z" class="U"/><path d="M28.357 43.35l1.457-.773.002.282-1.46.774z" class="V"/><path d="M27.1 42.594l1.458-.774 1.256.755-1.457.774z" class="T"/><path d="M28.357 43.35v.283l-1.256-.756v-.282z" class="U"/><path d="M30.285 44.507l1.46-.773v.283l-1.46.773z" class="V"/><use xlink:href="#B" x="6.337" y="-3.509" class="T"/><path d="M30.285 44.507v.283l-1.256-.756v-.28z" class="U"/><path d="M32.152 45.63l1.46-.774v.282l-1.46.773z" class="V"/><path d="M30.89 44.87l1.46-.773 1.264.758-1.46.775z" class="T"/><path d="M32.152 45.63v.28l-1.264-.758v-.283z" class="U"/><path d="M34.105 46.803l1.457-.774.002.283-1.46.773z" class="V"/><path d="M32.848 46.048l1.46-.774 1.256.754-1.457.775z" class="T"/><path d="M34.105 46.803v.282l-1.256-.755-.002-.282z" class="U"/><path d="M35.967 47.92l1.457-.774v.282l-1.457.774z" class="V"/><path d="M34.71 47.165l1.457-.773 1.258.754-1.457.775z" class="T"/><path d="M35.967 47.92v.282l-1.258-.755v-.283z" class="U"/><path d="M37.797 49.02l1.457-.773v.28l-1.457.774z" class="V"/><path d="M36.54 48.265l1.46-.773 1.256.755-1.457.774z" class="T"/><path d="M37.797 49.02v.282l-1.258-.755v-.283z" class="U"/><path d="M39.656 50.138l1.46-.773v.283l-1.46.773z" class="V"/><use xlink:href="#B" x="15.707" y="2.122" class="T"/><path d="M39.656 50.138v.283l-1.256-.756v-.28z" class="U"/><path d="M41.61 51.312l1.46-.773v.282l-1.46.774z" class="V"/><path d="M40.354 50.557l1.457-.774 1.258.755-1.46.774z" class="T"/><path d="M41.61 51.312v.283l-1.256-.756v-.282z" class="U"/><path d="M43.477 52.434l1.46-.774v.283l-1.46.773z" class="V"/><path d="M42.22 51.68l1.457-.774 1.258.754-1.46.775z" class="T"/><path d="M43.477 52.434v.282l-1.256-.755v-.282z" class="U"/><path d="M45.404 53.592l1.46-.773v.282l-1.46.773z" class="V"/><path d="M44.148 52.837l1.457-.773 1.258.754-1.46.774z" class="T"/><path d="M45.404 53.592v.282l-1.256-.755v-.282z" class="U"/><path d="M47.23 54.69l1.457-.774.002.282-1.46.773z" class="V"/><path d="M45.97 53.933l1.46-.773 1.256.754-1.457.775z" class="T"/><path d="M47.23 54.69v.28l-1.257-.755-.001-.282z" class="U"/><g stroke="#636466" stroke-width="2" class="W X"><path d="M57.016 40.94l16.87-8.956c.423-.224.992-.174 1.62.202l-16.87 8.956c-.627-.376-1.195-.425-1.62-.202zm37.4 28.368l-16.87 8.956c.46-.245.744-.8.747-1.628l16.87-8.954c0 .816-.287 1.383-.746 1.626z"/><path d="M58.635 41.14l16.87-8.956L92.792 42.57 75.92 51.528zm19.65 14.654l16.873-8.954.014 20.842-16.87 8.954z"/><path d="M75.92 51.528c1.308.784 2.363 2.69 2.366 4.267l.017 20.84c-.003 1.57-1.057 2.213-2.363 1.428L58.654 67.677c-1.306-.785-2.365-2.696-2.368-4.266l-.013-20.843c-.001-1.575 1.056-2.21 2.362-1.427L75.92 51.528z"/><use xlink:href="#C"/></g><path d="M58.354 41.162l16.87-8.956L92.51 42.592 75.638 51.55z" class="b"/><path d="M78.005 55.815l16.873-8.955.014 20.842-16.87 8.955z" class="a"/><path d="M77.323 76.237l-.017-20.842c0-1.11-.744-2.455-1.667-3.008L58.354 42c-.92-.553-1.664-.102-1.664 1.008l.016 20.84c0 1.107.745 2.452 1.667 3.01l17.285 10.386c.92.552 1.665.1 1.665-1.007zm-1.685-24.69c1.308.784 2.364 2.69 2.367 4.267l.016 20.84c-.003 1.57-1.056 2.213-2.363 1.428L58.374 67.697c-1.307-.785-2.365-2.696-2.368-4.266l-.014-20.843c-.001-1.575 1.057-2.21 2.362-1.427l17.284 10.387z" fill="#636466"/><path d="M75.64 52.387c.923.553 1.667 1.897 1.667 3.008l.017 20.842c0 1.107-.745 1.56-1.665 1.007L58.373 66.858c-.92-.557-1.667-1.902-1.667-3.01l-.015-20.84c0-1.1.743-1.56 1.664-1.008L75.64 52.387z" fill="#f5f6f6"/><path d="M68.9 60.398c0 1.48-1.06 2.04-2.368 1.255s-2.368-2.623-2.368-4.102 1.06-2.042 2.368-1.255S68.9 58.92 68.9 60.398" class="U"/><path d="M66.538,60.118v9.665" stroke-width="1.854" class="W X Y Z"/><path d="M67.923 59.142c0 .347-.25.48-.558.294a1.25 1.25 0 0 1-.553-.961c0-.347.248-.48.553-.295s.558.615.558.962" class="T"/><path d="M72.418 62.674c-.418-3.54-2.914-7.57-5.938-9.4-2.992-1.797-5.465-.807-5.922 2.154m14.488 6.43l-.24-.844c-1.35-4.4-4.492-8.802-8.156-11.006-3.87-2.325-7.154-1.498-8.367 1.68" stroke-width="1.246" class="W X Y Z"/><path d="M56.735 40.96l16.87-8.956c.423-.224.992-.174 1.62.202l-16.87 8.956c-.627-.376-1.195-.425-1.62-.202z" fill="#bbbdbf"/><path d="M94.146 69.328l-16.87 8.956c.46-.245.744-.8.747-1.628l16.87-8.954c0 .816-.287 1.383-.746 1.626z" fill="#727378"/><use xlink:href="#C" x="-0.282" y="0.022" fill="#a1a4a6"/><defs ><path id="B" d="M22.693 47.262l1.457-.774 1.258.754-1.46.774z"/><path id="C" d="M75.92 51.528l16.873-8.957c1.306.785 2.36 2.692 2.366 4.27l-16.873 8.955c-.003-1.578-1.058-3.483-2.366-4.267z"/></defs></svg>