<svg xmlns="http://www.w3.org/2000/svg" viewBox="0 0 60.3 60.3"><circle cx="30.1" cy="30.1" r="30.1" fill="#00b09c"/><g fill="#fff"><path d="M19.6 45.3h21.9v1.3H19.6zm21.8-20A11.22 11.22 0 0 0 29.3 15c-5.1.4-9.3 4.3-10.2 9.4l-1.3-.2c1.1-6.8 7.5-11.4 14.3-10.3 5.7.9 10 5.6 10.5 11.3l-1.2.1z"/><path d="M19.6 46.6c-6.3 0-11.5-5.2-11.5-11.5s5.2-11.5 11.5-11.5c2.8 0 5.5 1 7.6 2.9l-.8 1c-4.2-3.7-10.6-3.4-14.4.8s-3.3 10.7.9 14.4a10.14 10.14 0 0 0 6.8 2.6h.2v1.3h-.3zm21.6 0l-.1-1.3h.1c5.3-.1 9.6-4.5 9.5-9.9-.1-5.1-4.2-9.3-9.3-9.5v-1.3c6 .6 10.4 6 9.8 12.1-.6 5.3-4.8 9.5-10 9.9z"/><circle cx="17.8" cy="31.8" r="3.9"/><circle cx="41.6" cy="36.4" r="6.6"/><circle cx="33.5" cy="25.3" r="4.1"/><circle cx="29.4" cy="38.9" r="4.1"/><circle cx="26.3" cy="20.7" r="2.1"/><circle cx="19.6" cy="40.1" r="2.1"/><circle cx="26.3" cy="30.9" r="2.1"/><path d="M19.3 40.6l-1.9-8.7.8-.2 1.8 7.9 9.3-1.2 11.5-2.3-7.6-10.5-7.1-4.6.4-.7 7.3 4.6 8.5 11.7-12.8 2.7z"/><path d="M29.8 38.1l-.8-.3 3.6-11.3-6 4.8-.6-.7 8.3-6.6zm-12.6-6.474l.43-.675 11.896 7.57-.43.675z"/></g></svg>