<svg xmlns="http://www.w3.org/2000/svg" viewBox="0 0 64 64"><circle cx="32" cy="32" r="32" fill="#14a38a"/><g fill="#fff"><path d="M48 26.8c-.9-7.1-7.4-12.2-14.5-11.3-5.6.7-10.1 5-11.2 10.5-6.2-1-12.1 3.3-13.1 9.5s3.3 12.1 9.5 13.1c.6.1 1.2.1 1.9.1h22.9c6.3 0 11.4-5.1 11.5-11.4-.1-4.5-2.8-8.7-7-10.5zm-4.5 18.9H20.6c-4.6.2-8.5-3.5-8.7-8.1s3.5-8.5 8.1-8.6h.6c.4 0 .8 0 1.3.1l3 .5.5-3c.9-5.4 6-9 11.4-8.1 4.4.7 7.8 4.3 8.2 8.7l.2 1.8 1.7.7c4.3 1.8 6.2 6.7 4.4 11-1.4 3-4.4 5-7.8 5z" stroke="#fff" stroke-width=".22" stroke-miterlimit="10"/><path d="M27.9 37.6c2.2 0 4-1.8 4-4s-1.8-4-4-4-4 1.8-4 4 1.8 4 4 4zm0-7.2c1.8 0 3.2 1.4 3.2 3.2s-1.4 3.2-3.2 3.2-3.2-1.4-3.2-3.2c.1-1.7 1.5-3.2 3.2-3.2zm8.8 3.2c0 2.2 1.8 4 4 4s4-1.8 4-4-1.8-4-4-4-4 1.8-4 4zm4-3.2c1.8 0 3.2 1.4 3.2 3.2s-1.4 3.2-3.2 3.2-3.2-1.4-3.2-3.2c0-1.7 1.5-3.1 3.2-3.2zm-2.4-5.6c0-2.2-1.8-4-4-4s-4 1.8-4 4 1.8 4 4 4 4-1.8 4-4zm-4 3.2c-1.8 0-3.2-1.4-3.2-3.2s1.4-3.2 3.2-3.2 3.2 1.4 3.2 3.2-1.4 3.2-3.2 3.2zm-3.2 11.2h-6.4a1.58 1.58 0 0 0-1.6 1.6v2.4h9.6v-2.4a1.58 1.58 0 0 0-1.6-1.6zm12.8 0h-6.4a1.58 1.58 0 0 0-1.6 1.6v2.4h9.6v-2.4a1.58 1.58 0 0 0-1.6-1.6z"/></g></svg>