<svg xmlns="http://www.w3.org/2000/svg" viewBox="0 0 65 65"><circle cx="32.5" cy="32.5" r="32.5" fill="#00ae9a"/><path d="M47.8 32.5c0-.8-.1-1.6-.2-2.4l4.8-4.2-4.1-6.8-5.8 1.9c-1.4-1.2-3-2.2-4.7-2.8l-1.3-5.6h-8l-1.3 5.6c-1.7.6-3.3 1.6-4.7 2.8l-5.8-1.9-4.1 6.8 4.9 4.2a12.91 12.91 0 0 0 0 4.8l-4.9 4.3 4.1 6.8 5.8-1.9c1.4 1.2 3 2.2 4.7 2.8l1.3 5.6h8l1.3-5.6c1.7-.6 3.3-1.6 4.7-2.8l5.8 1.9 4.1-6.8-4.9-4.2c.2-.9.3-1.7.3-2.5zm1.2 7.2l-1.9 3.1-3.8-1.2-1.4-.6-1.1 1c-1.2 1-2.5 1.8-3.9 2.3l-1.3.5-.3 1.4-.8 3.5h-3.7l-.8-3.5-.3-1.4-1.3-.5c-1.4-.5-2.8-1.3-3.9-2.3l-1.1-1-1.4.5-3.8 1.2-2.2-3 3.2-2.8 1.1-1-.2-1.5a13.41 13.41 0 0 1 0-4l.2-1.5-1.1-1-3.2-2.5 1.9-3.1 3.8 1.2 1.4.5 1.1-1c1.2-1 2.5-1.8 3.9-2.3l1.3-.5.3-1.4.8-3.5h3.7l.8 3.5.3 1.4 1.3.5c1.4.5 2.8 1.3 3.9 2.3l1.1 1 1.4-.5 3.8-1.2 1.9 3.1-3.2 2.7-1.1 1 .2 1.5a13.41 13.41 0 0 1 0 4l.1 1.4 1.1 1 3.2 2.7zM32.5 24.5c-4.4 0-8 3.6-8 8s3.6 8 8 8 8-3.6 8-8-3.6-8-8-8zm0 10.7c-1.5 0-2.6-1.2-2.6-2.7s1.2-2.6 2.7-2.6 2.6 1.2 2.6 2.6a2.69 2.69 0 0 1-2.7 2.7z" fill="#fff"/></svg>