<svg xmlns="http://www.w3.org/2000/svg" viewBox="0 0 59.3 59.3"><circle transform="matrix(.7071 -.7071 .7071 .7071 -12.2773 29.64)" cx="29.6" cy="29.6" r="29.6" fill="#00af9d"/><g fill="#fff"><path d="M18.9 39.8h22.4v1.3H18.9zm22.2-20.4c-.4-6.3-5.9-11-12.2-10.6-5.3.4-9.7 4.4-10.5 9.7l-1.3-.2c1-6.2 6.3-10.8 12.6-10.8a12.76 12.76 0 0 1 12.7 11.8l-1.3.1z"/><path d="M18.9 41.2c-6.5.1-11.9-4.9-12.1-11.4s4.9-11.9 11.4-12.1h.7c2.9 0 5.6 1.1 7.8 2.9l-.9 1c-1.9-1.7-4.4-2.6-6.9-2.6-5.7 0-10.4 4.7-10.4 10.4s4.7 10.4 10.4 10.4h.2v1.3c-.1.1-.1.1-.2.1zm22 0v-1.3c5.5-.1 9.8-4.6 9.7-10.1-.1-5.2-4.3-9.5-9.5-9.7v-1.3c6.2.1 11.2 5.2 11.1 11.4s-5.2 11-11.3 11z"/></g><path d="M43.9 38.9c0-.8-.2-1.7-.5-2.4l1.7-2.1-2.2-2.8-2.6 1.3c-.6-.4-1.3-.6-2-.8l-1-2.7-3.5.6-.1 2.7c-.7.4-1.4.9-1.9 1.5l-2.6-.2-1.3 3.3 2.2 1.5c0 .8.2 1.7.5 2.4l-1.7 2.1 2.2 2.8 2.6-1.3c.6.4 1.3.6 2 .8l1 2.7 3.5-.6.1-2.7c.7-.4 1.4-.9 1.9-1.5l2.6.4 1.3-3.3-2.2-1.7zm.5 4.1l-2.1-.3H42l-.2.3c-.5.6-1.1 1-1.8 1.4l-.3.2v.3l-.1 2.3-2.6.4-.8-2.3-.2-.3-.3-.1c-.7-.1-1.3-.4-1.9-.7l-.2-.2-.3.2-2.1 1.1-1.6-2 1.4-1.8.2-.3-.2-.2c-.3-.7-.4-1.5-.4-2.2v-.3l-.2-.1-1.8-1.2.9-2.5 2.1.3h.3l.2-.2c.5-.6 1.1-1 1.8-1.4l.3-.2v-.3l.1-2.3 2.6-.5.9 2.2.1.3.3.1c.7.1 1.3.4 1.9.7l.3.2.3-.2 2.1-1.1 1.6 2-1.4 1.8-.2.3.1.3c.3.7.4 1.5.4 2.2v.4l2.1 1.4-1 2.3zm-10.9-5.4c-.7 1.9.2 4 2 4.7 1.9.7 4-.2 4.7-2 .7-1.9-.2-4-2-4.7h-.1c-1.8-.8-3.8.1-4.6 2zm4.6 1.7c-.2.6-.9 1-1.5.7-.6-.2-1-.9-.7-1.5.2-.6.9-1 1.5-.7.6.2.9.9.7 1.5z" fill="#00b09c" stroke="#05b09c" stroke-width="6" stroke-miterlimit="10"/><g fill="#fff"><path d="M43 38.9c0-.7-.1-1.4-.4-2.1l1.5-1.8-2-2.5-2.3 1.2c-.6-.3-1.2-.5-1.8-.7l-.9-2.4-3.1.6v2.4c-.6.3-1.2.8-1.7 1.3l-2.3-.3-1 2.9 1.9 1.3c0 .7.1 1.4.4 2.1l-1.5 1.8 2 2.5L34 44c.6.3 1.2.5 1.8.7l.9 2.4 3.1-.6.1-2.4c.6-.3 1.2-.8 1.7-1.3l2.3.3 1.1-2.9-2-1.3zm.5 3.6l-1.8-.2h-.3l-.2.2c-.4.5-1 .9-1.5 1.2l-.3.1v.3l-.1 2-2.3.4-.8-2-.1-.3-.3-.1c-.6-.1-1.1-.3-1.6-.6l-.2-.1-.3.1-1.9 1-1.4-1.8 1.2-1.5.2-.2-.1-.3c-.2-.6-.4-1.3-.4-1.9v-.3l-.2-.2-1.6-1 .8-2.1 1.9.3h.3l.2-.2c.4-.5 1-.9 1.5-1.2l.3-.1v-.2l.1-2 2.3-.4.8 2 .1.3.3.1c.6.1 1.1.3 1.6.6l.3.1.3-.1 1.9-1 1.4 1.8-1.2 1.5H42l.1.3c.2.6.4 1.3.4 1.9v.3l.2.2 1.6 1-.8 2.1z" stroke="#fff" stroke-miterlimit="10"/><path d="M34 37.7a3.06 3.06 0 0 0 1.8 4.1c1.7.6 3.5-.1 4.1-1.8a3.06 3.06 0 0 0-1.8-4.1H38c-1.6-.6-3.4.2-4 1.8zm4 1.5c-.2.6-.8.8-1.4.6s-.8-.8-.6-1.4.8-.8 1.4-.6c.5.2.8.7.7 1.2-.1.1-.1.2-.1.2z"/><circle cx="28.6" cy="31.2" r="2.2"/><circle cx="34.8" cy="25.8" r="2.9"/></g></svg>