<svg xmlns="http://www.w3.org/2000/svg" viewBox="0 0 60.3 60.3"><circle cx="30.1" cy="30.1" r="30.1" fill="#00b19d"/><g fill="#fff"><path d="M48 24.9c.1-.3.3-.6.3-.9l2.5-.7-.3-3.2-2.5-.4c-.3-.7-.7-1.3-1.2-1.9l.5-2.3-2.9-1.4-1.4 1.8c-.8-.1-1.5 0-2.2.2L39 14.4l-2.7 1.7 1 2.4c-.4.5-.7 1.1-.9 1.8l-2.5.7.3 3.2 2.5.4c.3.7.7 1.3 1.2 1.9l-.5 2.3 2.9 1.4 1.5-1.9c.8.1 1.5 0 2.2-.2l1.8 1.7 2.7-1.7-1-2.4c.2-.3.3-.6.5-.8zm-.2 3l-2 1.3-1.5-1.4-.2-.2-.3.1c-.7.2-1.3.2-2 .2h-.3l-.2.1-1.2 1.5-2.2-1 .4-1.9.1-.3-.2-.2c-.5-.5-.9-1.1-1.1-1.8L37 24h-.3l-2-.3-.2-2.3 2.1-.6.3-.1.1-.3c.2-.6.4-1.1.8-1.6l.2-.2-.2-.3-.8-2 2-1.3 1.5 1.4.2.2.3-.1c.7-.2 1.3-.2 2-.2h.3l.2-.2 1.2-1.5 2.2 1-.4 1.9v.5l.2.2c.5.5.9 1.1 1.1 1.7l.1.3h.3l2 .3.3 2.4-2.1.6-.3.1-.1.3c-.2.6-.4 1.1-.8 1.6l-.2.2.1.3.7 1.9zm-4-8.7c-1.6-.8-3.6-.1-4.3 1.5-.8 1.6-.1 3.6 1.5 4.3 1.6.8 3.5.1 4.3-1.5s.1-3.5-1.5-4.3zm-1.9 3.9c-.5-.3-.8-.9-.5-1.4s.9-.8 1.4-.5.8.9.5 1.4c-.2.5-.9.8-1.4.5z"/><circle cx="30" cy="47.3" r="1.8"/><path d="M27.6 11h4.8v.9h-4.8zm9.1 17.7l.6-2.3c-.5-.5-.9-1.2-1.2-1.9l-2.5-.4-.3-3.1 2.5-.7c.2-.6.5-1.2.9-1.8l-1-2.4 2.7-1.7.8.7v-1.6H20.9v30.4h18.3v-14l-2.5-1.2zm4.4 1.1v16.9a3.76 3.76 0 0 1-3.7 3.7H22.7a3.76 3.76 0 0 1-3.7-3.7V13.5a3.76 3.76 0 0 1 3.7-3.7h14.7a3.76 3.76 0 0 1 3.7 3.7v1.9h1.3v-1.9a4.95 4.95 0 0 0-5-5H22.7a4.95 4.95 0 0 0-5 5v33.3a4.95 4.95 0 0 0 5 5h14.6a4.95 4.95 0 0 0 5-5v-17h-1.2z"/></g></svg>