<svg xmlns="http://www.w3.org/2000/svg" viewBox="0 0 59.3 59.3"><circle cx="29.6" cy="29.6" r="29.6" fill="#01af9c"/><path d="M25.1 9.7c-8 0-14.4 6.5-14.4 14.5s6.5 14.4 14.4 14.4c8 0 14.4-6.5 14.4-14.4.1-8-6.4-14.5-14.4-14.5zm0 27.7c-7.4 0-13.4-6-13.4-13.4s6-13.4 13.4-13.4 13.4 6 13.4 13.4c-.1 7.4-6 13.4-13.4 13.4zm6.8-20.9l-6.5 6.4-3.6-3.7-1.5 1.5 3.7 3.8-1.3 1.3.7.7 1.4-1.3 1.6 1.6 1.5-1.4-1.7-1.7 6.5-6.5z" fill="#fff"/><path d="M41.3 39.5H26.8a.47.47 0 0 1-.5-.5V27.5a.47.47 0 0 1 .5-.5h14.5a.47.47 0 0 1 .5.5v11.7c-.1.1-.3.3-.5.3z" fill="#01af9c"/><g fill="#fff"><path d="M45.5 38.6c0-.9-.2-1.8-.5-2.7l1.9-2.4-2.5-3.1-2.9 1.5c-.3-.2-.7-.4-1.1-.5l-1.2-.4-1.2-3-4 .8-.1 3c-.8.4-1.6 1-2.2 1.7l-2.9-.4-1.4 3.7 2.5 1.6c0 .9.2 1.8.5 2.7l-1.9 2.4 2.5 3.1 2.9-1.5c.3.2.7.4 1.1.5l1.2.3 1.2 3 4-.8.1-3c.8-.4 1.6-1 2.2-1.7l2.9.4 1.4-3.7-2.5-1.5zm.5 4.6l-2.4-.3h-.3l-.2.3c-.5.6-1.2 1.2-1.9 1.5l-.3.2v.3l-.1 2.5-2.9.5-1-2.5-.1-.3-.3-.1-1.1-.3c-.3-.1-.7-.3-1-.4l-.4-.2-.3.2-2.4 1.3-1.8-2.3 1.6-1.9.2-.3-.1-.3c-.3-.8-.5-1.6-.4-2.5v-.3l-.3-.2-1.9-1.3 1.1-2.7 2.4.3h.3l.2-.3c.5-.6 1.2-1.2 1.9-1.5l.3-.2V32l.2-2.5 2.9-.5 1 2.5.1.3.3.1 1.1.3c.3.1.7.3 1 .4l.3.2.3-.2 2.4-1.3 1.8 2.3-1.6 1.9-.2.3.1.3c.3.8.5 1.6.4 2.5v.4l.3.2 1.9 1.3-1.1 2.7z" stroke="#fff" stroke-miterlimit="10"/><path d="M33.9 37.1c-.7 2.1.3 4.4 2.4 5.2s4.4-.2 5.2-2.3c.7-2.1-.3-4.4-2.4-5.2-2-.8-4.3.2-5.2 2.3.1-.1.1-.1 0 0zM39 39c-.3.7-1.1 1-1.7.7-.7-.3-1-1.1-.7-1.7.3-.7 1.1-1 1.7-.7.7.2 1 1 .7 1.7z"/></g></svg>