<svg xmlns="http://www.w3.org/2000/svg" viewBox="0 0 59.3 59.3"><circle cx="29.6" cy="29.6" r="29.6" fill="#00b09c"/><path d="M43.5 29.6c0-.7-.1-1.5-.2-2.2l4.4-3.9-3.7-6.1-5.3 1.7c-1.3-1.1-2.7-2-4.3-2.6l-1.2-5.1H26l-1.2 5.1c-1.6.6-3 1.4-4.3 2.5l-5.3-1.7-3.8 6.2 4.4 3.9c-.3 1.4-.3 2.9 0 4.4l-4.4 3.9 3.8 6.2 5.3-1.7c1.3 1.1 2.7 2 4.3 2.5l1.2 5.1h7.3l1.2-5.1c1.6-.6 3-1.4 4.3-2.5l5.3 1.7 3.8-6.2-4.4-3.9v-2.2zm1.2 6.6L43 39l-3.5-1.1-1.3-.4-1 .9c-1.1.9-2.3 1.6-3.6 2.1l-1.2.5-.3 1.3-.7 3.2H28l-.7-3.2-.3-1.4-1.2-.5c-1.3-.5-2.6-1.2-3.6-2.1l-1-.9-1.3.4-3.6 1.2-1.7-2.8 2.9-2.5 1-.9-.2-1.3c-.2-1.2-.2-2.4 0-3.6l.2-1.3-1-.9-2.9-2.5 1.7-2.8 3.5 1.1 1.3.4 1-.9c1.1-.9 2.3-1.6 3.6-2.1l1.2-.5.3-1.3.7-3.2h3.4l.7 3.2.3 1.3 1.2.5c1.3.5 2.5 1.2 3.6 2.1l1 .9 1.3-.4 3.5-1.1 1.7 2.8-2.9 2.5-1 .9.2 1.3c.2 1.2.2 2.4 0 3.6l-.2 1.3 1 .9 3 2.5zM29.6 22.4c-4 0-7.3 3.3-7.3 7.3s3.3 7.3 7.3 7.3 7.3-3.3 7.3-7.3-3.3-7.3-7.3-7.3zm0 9.7c-1.3 0-2.4-1.1-2.4-2.4s1.1-2.4 2.4-2.4 2.4 1.1 2.4 2.4c.1 1.3-1 2.4-2.4 2.4z" fill="#fff"/></svg>