<svg xmlns="http://www.w3.org/2000/svg" viewBox="0 0 60.3 60.3"><circle cx="30.1" cy="30.1" r="30.1" fill="#00b19d"/><path d="M38 33.1c-2.5 0-4.6 1.9-4.9 4.4h-5.9c-.1-1-.5-1.9-1.1-2.6l8.8-8.8c2.1 1.7 5.2 1.4 6.9-.7s1.4-5.2-.7-6.9-5.2-1.4-6.9.7c-.6.7-1 1.7-1.1 2.6h-6c-.3-2.7-2.7-4.7-5.4-4.4s-4.7 2.7-4.4 5.4 2.7 4.7 5.4 4.4c2.3-.2 4.2-2.1 4.4-4.4h6c.1 1 .5 1.9 1 2.6l-8.8 8.8c-2.1-1.7-5.2-1.4-6.9.7s-1.4 5.2.7 6.9 5.2 1.4 6.9-.7c.6-.7 1-1.7 1.1-2.6h6c.3 2.7 2.7 4.7 5.4 4.4s4.7-2.7 4.4-5.4c-.2-2.5-2.4-4.4-4.9-4.4zm-15.7-6.9a3.84 3.84 0 0 1-3.9-3.9 3.84 3.84 0 0 1 3.9-3.9 3.84 3.84 0 0 1 3.9 3.9c0 2.1-1.8 3.9-3.9 3.9zm11.8-3.9c0-2.2 1.8-3.9 3.9-3.9s3.9 1.8 3.9 3.9-1.8 3.9-3.9 3.9-3.9-1.7-3.9-3.9zM22.3 41.9a3.84 3.84 0 0 1-3.9-3.9 3.84 3.84 0 0 1 3.9-3.9 3.84 3.84 0 0 1 3.9 3.9c0 2.2-1.8 3.9-3.9 3.9z" fill="#fff"/></svg>