<svg xmlns="http://www.w3.org/2000/svg" viewBox="0 0 59.3 59.3"><circle cx="29.6" cy="29.6" r="29.6" fill="#00b09c"/><g fill="#fff"><path d="M20.2 48.6v-2.1h5.5v-3.8h8v3.2c0 .5 0 .5.5.5h4.7v2.2H20.2zm9.4-34h8.9l6.8-.1c1-.1 2 .3 2.7.9a3.04 3.04 0 0 1 1.1 2.4v18.3c0 1.6-.5 3.1-1.5 4.3-.4.6-1 .9-1.6 1.1H14.2a1.69 1.69 0 0 1-1-.3c-1.6-.8-2.7-2.5-2.6-4.3l-.2-16.1V18c0-1.5 1.1-2.8 2.6-3.1.5-.1.9-.1 1.4-.1h7.7l7.5-.2zm-.1 1.7h-1.3l-12 .1h-2.7c-.8 0-1.5.6-1.5 1.4 0 .2-.1.4-.1.6V21l.1 9.2.1 6.7c0 .6.2 1.3.6 1.8.3.5.9.9 1.5.9h30.9c.4 0 .7-.1.9-.4.7-.8 1.1-1.8 1.1-2.8V18.1c.1-.9-.5-1.6-1.4-1.7h-.1c-.5-.1-1-.1-1.5-.1H29.5zm-5.8 20.8c-3.5 0-6.4-2.8-6.4-6.3s2.8-6.4 6.3-6.4a6.43 6.43 0 0 1 5.9 3.8l-.7.3c-1.3-2.8-4.7-4-7.5-2.7s-4 4.7-2.7 7.5c.9 2 2.9 3.2 5.1 3.2h.1l-.1.6z"/><path d="M23.7 36.4h9.2v.7h-9.2zm12-11.1c-.2-3.2-2.9-5.7-6.2-5.8-3.1 0-5.6 2.2-6.1 5.3l-.7-.1c.5-3.4 3.4-5.9 6.8-5.9 3.6 0 6.6 2.8 6.9 6.5h-.7z"/><path d="M35.5 37.8c-3.1 0-5.7-2.2-6.2-5.3l.7-.1c.6 3 3.5 5 6.6 4.4 3-.6 5-3.5 4.4-6.6-.5-2.6-2.7-4.5-5.4-4.5V25a6.32 6.32 0 0 1 6.3 6.5c-.1 3.6-2.9 6.3-6.4 6.3z"/></g></svg>