<svg xmlns="http://www.w3.org/2000/svg" viewBox="0 0 59.3 59.3"><circle cx="29.6" cy="29.6" r="29.6" fill="#00b09c"/><path d="M30.6 14.5c-3.3 0-6.6 1.1-9.2 3.2-3.2 2.5-5.3 6.1-5.7 10.1-.5 4 .6 8.1 3.2 11.2 2.5 3.2 6.2 5.2 10.2 5.5 3.6.4 7.3-.6 10.2-2.7.3-.2.5-.3.8 0 .5.6 1.1 1.1 1.7 1.7.2.2.2.3 0 .5-7.9 6.2-19.4 4.7-25.5-3.2-.5-.7-1-1.4-1.4-2.1-3.8-6.6-3-15 1.9-20.8 2.8-3.4 6.8-5.7 11.2-6.2 3.7-.6 7.5.1 10.9 1.8 1 .5 2 1.1 2.9 1.9.3.3.5.3.9 0l1.8-1.8c.2-.2.4-.3.4.1l1.8 8.6c.1.5-.2.4-.4.3l-7.1-1.7c-.4-.1-.9-.2-1.3-.3s-.4-.2-.2-.5l1.9-1.9c.3-.3.3-.4 0-.7-2.6-2-5.8-3-9-3z" fill="#fff"/></svg>