<svg xmlns="http://www.w3.org/2000/svg" viewBox="0 0 60.3 60.3"><circle cx="30.1" cy="30.1" r="30.1" fill="#0cb29d"/><path d="M14.7 31.4l-4.9-4.9 1.5-1.5h1.9v-1.9l7.7-7.7h9.9L18.1 28h-1.9v1.9l-1.5 1.5zM11 26.5l3.6 3.6.6-.6v-2.4h2.4l10.8-10.8h-7.3l-7.2 7.2v2.4h-2.4l-.5.6zm28.1 5c4.1 1.4 8.6-.9 9.9-5 .3-.8.4-1.5.4-2.3 0-.5 0-.9-.1-1.4l-.4-1.5-4.2 4.2c-.5.6-1.3.9-2.1.9s-1.6-.3-2.1-.9c-.6-.5-.9-1.3-.9-2.1s.3-1.6.9-2.1l4.2-4.2-1.7-.3c-.5-.1-.9-.1-1.4-.1-4.3 0-7.7 3.5-7.7 7.7 0 .9.1 1.7.4 2.5l-3.7 3.7-6.7-6.7-4 4 6.7 6.7-5.4 5.4a3.32 3.32 0 0 0 0 4.7c.6.6 1.4 1 2.3 1s1.7-.3 2.3-1l5.3-5.3 6.5 6.5 4-4-.5-.7-5.9-5.9 3.9-3.8zm-18-3.6l2.8-2.8 6.1 6.2-2.8 2.8-6.1-6.2zm19.5 14l-2.7 2.7-5.9-5.9 2.8-2.8 5.8 6zM38.4 31l-13 13a2.34 2.34 0 0 1-1.7.7c-.6 0-1.2-.3-1.7-.7-.9-1-.9-2.5 0-3.4l13.4-13.4-.2-.6c-.3-.7-.4-1.5-.4-2.2a6.74 6.74 0 0 1 6.8-6.8c.4 0 .8 0 1.2.1l-3 3c-1.5 1.5-1.5 4 0 5.5a3.8 3.8 0 0 0 5.4 0l3-3c.1.4.1.8.1 1.2 0 3.8-3 6.8-6.8 6.9-.8 0-1.5-.1-2.2-.4l-.4-.3-.5.4z" fill="#fff"/></svg>