<?xml version="1.0" encoding="UTF-8" standalone="no"?>
<svg
   xmlns:dc="http://purl.org/dc/elements/1.1/"
   xmlns:cc="http://creativecommons.org/ns#"
   xmlns:rdf="http://www.w3.org/1999/02/22-rdf-syntax-ns#"
   xmlns:svg="http://www.w3.org/2000/svg"
   xmlns="http://www.w3.org/2000/svg"
   xmlns:sodipodi="http://sodipodi.sourceforge.net/DTD/sodipodi-0.dtd"
   xmlns:inkscape="http://www.inkscape.org/namespaces/inkscape"
   width="17.874001"
   height="12.469757"
   version="1.1"
   id="svg72155"
   sodipodi:docname="Azure_Cloud_Shell.svg"
   inkscape:version="0.92.3 (2405546, 2018-03-11)">
  <sodipodi:namedview
     pagecolor="#ffffff"
     bordercolor="#666666"
     borderopacity="1"
     objecttolerance="10"
     gridtolerance="10"
     guidetolerance="10"
     inkscape:pageopacity="0"
     inkscape:pageshadow="2"
     inkscape:window-width="1920"
     inkscape:window-height="1017"
     id="namedview72157"
     showgrid="false"
     fit-margin-top="0"
     fit-margin-left="0"
     fit-margin-right="0"
     fit-margin-bottom="0"
     inkscape:zoom="48.111111"
     inkscape:cx="8.937"
     inkscape:cy="6.2337572"
     inkscape:window-x="-8"
     inkscape:window-y="-8"
     inkscape:window-maximized="1"
     inkscape:current-layer="svg72155" />
  <defs
     id="defs72137">
    <linearGradient
       id="ba88ea91-3b3a-4da0-9b97-9a10ebaa3e50"
       x1="12.805"
       y1="15.237"
       x2="12.805"
       y2="7.9619999"
       gradientUnits="userSpaceOnUse">
      <stop
         offset="0"
         stop-color="#0078d4"
         id="stop72126" />
      <stop
         offset=".156"
         stop-color="#1380da"
         id="stop72128" />
      <stop
         offset=".528"
         stop-color="#3c91e5"
         id="stop72130" />
      <stop
         offset=".822"
         stop-color="#559cec"
         id="stop72132" />
      <stop
         offset="1"
         stop-color="#5ea0ef"
         id="stop72134" />
    </linearGradient>
  </defs>
  <path
     d="M 15.537,2.936 H 0.004 V 0.226 A 0.226,0.226 0 0 1 0.23,0 h 15.077 a 0.227,0.227 0 0 1 0.227,0.226 z"
     id="path72139"
     inkscape:connector-curvature="0"
     style="fill:#949494" />
  <path
     d="m 0,2.936 h 15.53 v 9.254 a 0.231,0.231 0 0 1 -0.231,0.231 H 0.231 A 0.231,0.231 0 0 1 0,12.19 Z"
     id="path72141"
     inkscape:connector-curvature="0"
     style="fill:#bfbfbf" />
  <path
     d="m 1.072,3.736 h 13.37 v 7.57 H 1.072 Z"
     id="path72143"
     inkscape:connector-curvature="0"
     style="fill:#005ba1" />
  <g
     id="g72149"
     style="fill:#ffffff"
     transform="translate(-0.063,-2.764)">
    <rect
       x="4.5760002"
       y="10.738"
       width="2.8369999"
       height="0.52700001"
       rx="0.26300001"
       id="rect72145" />
    <path
       d="M 2.675,11.215 4.35,9.54 a 0.169,0.169 0 0 0 0,-0.243 L 2.65,7.664 A 0.17,0.17 0 0 0 2.406,7.674 L 2.28,7.8 A 0.17,0.17 0 0 0 2.29,8.036 L 3.623,9.3 a 0.171,0.171 0 0 1 0,0.242 l -1.3,1.333 a 0.171,0.171 0 0 0 0,0.239 l 0.1,0.1 a 0.17,0.17 0 0 0 0.252,10e-4 z"
       id="path72147"
       inkscape:connector-curvature="0" />
  </g>
  <path
     d="m 17.874,10.194 a 2.3,2.3 0 0 0 -2,-2.216 2.906,2.906 0 0 0 -2.994,-2.78 2.982,2.982 0 0 0 -2.851,1.938 2.752,2.752 0 0 0 -2.42,2.648 2.793,2.793 0 0 0 2.89,2.684 l 0.255,-0.01 h 4.683 a 0.465,0.465 0 0 0 0.124,-0.019 2.333,2.333 0 0 0 2.313,-2.244 z"
     id="path72151"
     inkscape:connector-curvature="0"
     style="fill:url(#ba88ea91-3b3a-4da0-9b97-9a10ebaa3e50)" />
  <metadata
     id="metadata72153">
    <rdf:RDF>
      <rdf:li>public:true</rdf:li>
      <rdf:li>sdk:false</rdf:li>
      <rdf:li>category: Preview</rdf:li>
      <cc:Work
         rdf:about="">
        <dc:format>image/svg+xml</dc:format>
        <dc:type
           rdf:resource="http://purl.org/dc/dcmitype/StillImage" />
        <dc:title></dc:title>
      </cc:Work>
    </rdf:RDF>
  </metadata>
</svg>
