<?xml version="1.0" encoding="UTF-8" standalone="no"?>
<svg
   xmlns:dc="http://purl.org/dc/elements/1.1/"
   xmlns:cc="http://creativecommons.org/ns#"
   xmlns:rdf="http://www.w3.org/1999/02/22-rdf-syntax-ns#"
   xmlns:svg="http://www.w3.org/2000/svg"
   xmlns="http://www.w3.org/2000/svg"
   xmlns:sodipodi="http://sodipodi.sourceforge.net/DTD/sodipodi-0.dtd"
   xmlns:inkscape="http://www.inkscape.org/namespaces/inkscape"
   id="b8d4ff6d-c1e7-4878-8e1b-24a12cad15e1"
   width="17"
   height="17.652"
   viewBox="0 0 17 17.652"
   version="1.1"
   sodipodi:docname="Azure_Sphere.svg"
   inkscape:version="0.92.3 (2405546, 2018-03-11)">
  <sodipodi:namedview
     pagecolor="#ffffff"
     bordercolor="#666666"
     borderopacity="1"
     objecttolerance="10"
     gridtolerance="10"
     guidetolerance="10"
     inkscape:pageopacity="0"
     inkscape:pageshadow="2"
     inkscape:window-width="1920"
     inkscape:window-height="1017"
     id="namedview72255"
     showgrid="false"
     fit-margin-top="0"
     fit-margin-left="0"
     fit-margin-right="0"
     fit-margin-bottom="0"
     inkscape:zoom="48.111111"
     inkscape:cx="8.5"
     inkscape:cy="8.8260002"
     inkscape:window-x="-8"
     inkscape:window-y="-8"
     inkscape:window-maximized="1"
     inkscape:current-layer="b8d4ff6d-c1e7-4878-8e1b-24a12cad15e1" />
  <defs
     id="defs72224">
    <linearGradient
       id="fdda967e-7651-4c84-9759-7be8308e5f44"
       x1="9"
       y1="17.826"
       x2="9"
       y2="0.82599998"
       gradientUnits="userSpaceOnUse"
       gradientTransform="translate(0.5,0.17399974)">
      <stop
         offset="0"
         stop-color="#198ab3"
         id="stop72212" />
      <stop
         offset="0.442"
         stop-color="#28b7db"
         id="stop72214" />
      <stop
         offset="0.775"
         stop-color="#32d4f5"
         id="stop72216" />
    </linearGradient>
    <linearGradient
       id="a71b08ef-312b-4529-8bf0-fa396a725f2f"
       x1="5.75"
       y1="-3114.5911"
       x2="12.303"
       y2="-3119.908"
       gradientUnits="userSpaceOnUse"
       gradientTransform="translate(0.5,0.17399974)">
      <stop
         offset="0"
         stop-color="#fff"
         stop-opacity="0.9"
         id="stop72219" />
      <stop
         offset="1"
         stop-color="#fff"
         stop-opacity="0.8"
         id="stop72221" />
    </linearGradient>
  </defs>
  <g
     id="g72250"
     transform="translate(-0.5,-0.17399974)">
    <circle
       cx="9"
       cy="9.3260002"
       r="8.5"
       id="circle72226"
       style="fill:url(#fdda967e-7651-4c84-9759-7be8308e5f44)" />
    <path
       d="M 8.81,15.067 C 7.837,14.467 4.659,12.32 4.659,9.812 V 6.605 L 5,6.584 A 4.044,4.044 0 0 0 7.35,5.842 2.48,2.48 0 0 1 9,5.353 2.511,2.511 0 0 1 10.648,5.84 4.048,4.048 0 0 0 13,6.584 l 0.34,0.021 v 3.207 c 0,2.508 -3.178,4.656 -4.152,5.255 L 9,15.183 Z"
       id="path72228"
       inkscape:connector-curvature="0"
       style="fill:url(#a71b08ef-312b-4529-8bf0-fa396a725f2f)" />
    <path
       d="M 9,14.643 C 7.114,13.472 5.119,11.6 5.119,9.812 V 7.037 A 4.446,4.446 0 0 0 7.605,6.225 2.027,2.027 0 0 1 9,5.813 a 2.073,2.073 0 0 1 1.394,0.411 4.456,4.456 0 0 0 2.487,0.813 v 2.775 c 0,1.788 -1.995,3.66 -3.881,4.831 z"
       id="path72230"
       inkscape:connector-curvature="0"
       style="fill:#50e6ff" />
    <g
       id="g72236">
      <circle
         cx="15.345"
         cy="14.083"
         r="1.302"
         id="circle72232"
         style="fill:#ffffff" />
      <path
         d="m 15.345,12.781 a 1.3,1.3 0 1 1 -1.3,1.3 1.3,1.3 0 0 1 1.3,-1.3 m 0,-0.651 A 1.954,1.954 0 1 0 17.3,14.083 1.956,1.956 0 0 0 15.347,12.13 Z"
         id="path72234"
         inkscape:connector-curvature="0"
         style="fill:#b3b3b3" />
    </g>
    <g
       id="g72242">
      <circle
         cx="2.655"
         cy="14.083"
         r="1.302"
         id="circle72238"
         style="fill:#ffffff" />
      <path
         d="m 2.655,12.781 a 1.3,1.3 0 1 1 -1.3,1.3 1.3,1.3 0 0 1 1.3,-1.3 m 0,-0.651 A 1.954,1.954 0 1 0 4.608,14.083 1.955,1.955 0 0 0 2.655,12.13 Z"
         id="path72240"
         inkscape:connector-curvature="0"
         style="fill:#b3b3b3" />
    </g>
    <g
       id="g72248">
      <circle
         cx="9"
         cy="2.128"
         r="1.302"
         id="circle72244"
         style="fill:#ffffff" />
      <path
         d="M 9,0.826 A 1.3,1.3 0 1 1 7.7,2.126 1.3,1.3 0 0 1 9,0.826 M 9,0.174 A 1.954,1.954 0 1 0 10.953,2.128 1.956,1.956 0 0 0 9,0.174 Z"
         id="path72246"
         inkscape:connector-curvature="0"
         style="fill:#b3b3b3" />
    </g>
  </g>
  <metadata
     id="metadata72252">
    <rdf:RDF>
      <rdf:li>public:true</rdf:li>
      <rdf:li>sdk:false</rdf:li>
      <rdf:li>category: Preview</rdf:li>
      <cc:Work
         rdf:about="">
        <dc:format>image/svg+xml</dc:format>
        <dc:type
           rdf:resource="http://purl.org/dc/dcmitype/StillImage" />
        <dc:title></dc:title>
      </cc:Work>
    </rdf:RDF>
  </metadata>
</svg>
