<?xml version="1.0" encoding="UTF-8" standalone="no"?>
<svg
   xmlns:dc="http://purl.org/dc/elements/1.1/"
   xmlns:cc="http://creativecommons.org/ns#"
   xmlns:rdf="http://www.w3.org/1999/02/22-rdf-syntax-ns#"
   xmlns:svg="http://www.w3.org/2000/svg"
   xmlns="http://www.w3.org/2000/svg"
   xmlns:sodipodi="http://sodipodi.sourceforge.net/DTD/sodipodi-0.dtd"
   xmlns:inkscape="http://www.inkscape.org/namespaces/inkscape"
   id="ad094621-3a1a-48a5-aaf9-2376221c6085"
   width="15.7"
   height="18"
   viewBox="0 0 15.7 18"
   version="1.1"
   sodipodi:docname="Private_Link_Hub.svg"
   inkscape:version="0.92.3 (2405546, 2018-03-11)">
  <sodipodi:namedview
     pagecolor="#ffffff"
     bordercolor="#666666"
     borderopacity="1"
     objecttolerance="10"
     gridtolerance="10"
     guidetolerance="10"
     inkscape:pageopacity="0"
     inkscape:pageshadow="2"
     inkscape:window-width="1920"
     inkscape:window-height="1017"
     id="namedview72602"
     showgrid="false"
     fit-margin-top="0"
     fit-margin-left="0"
     fit-margin-right="0"
     fit-margin-bottom="0"
     inkscape:zoom="48.111111"
     inkscape:cx="7.85"
     inkscape:cy="8.975"
     inkscape:window-x="-8"
     inkscape:window-y="-8"
     inkscape:window-maximized="1"
     inkscape:current-layer="ad094621-3a1a-48a5-aaf9-2376221c6085" />
  <defs
     id="defs72583">
    <linearGradient
       id="ea0182c4-a05a-47e0-8d38-dceaa08cffc1"
       x1="7.6880002"
       y1="-26.771"
       x2="7.6880002"
       y2="-21.482"
       gradientTransform="translate(1.15,31.975)"
       gradientUnits="userSpaceOnUse">
      <stop
         offset="0.23"
         stop-color="#5ea0ef"
         id="stop72558" />
      <stop
         offset="0.32"
         stop-color="#5b9fee"
         id="stop72560" />
      <stop
         offset="0.48"
         stop-color="#509aeb"
         id="stop72562" />
      <stop
         offset="0.57"
         stop-color="#3f92e6"
         id="stop72564" />
      <stop
         offset="0.75"
         stop-color="#2688df"
         id="stop72566" />
      <stop
         offset="0.93"
         stop-color="#127fd9"
         id="stop72568" />
    </linearGradient>
    <linearGradient
       id="b2374fe1-82b4-4770-97f1-de978b276dd6"
       x1="10.312"
       y1="-24.568001"
       x2="10.312"
       y2="-19.278999"
       gradientTransform="translate(1.15,31.975)"
       gradientUnits="userSpaceOnUse">
      <stop
         offset="0.2"
         stop-color="#50e6ff"
         id="stop72571" />
      <stop
         offset="0.65"
         stop-color="#32bedd"
         id="stop72573" />
      <stop
         offset="1"
         stop-color="#198ab3"
         id="stop72575" />
    </linearGradient>
    <linearGradient
       id="f85376f9-8ccb-4ef0-ab3e-33ae7fcb4e4a"
       x1="9"
       y1="5.3800001"
       x2="9"
       gradientUnits="userSpaceOnUse"
       gradientTransform="translate(1.15,-0.025)">
      <stop
         offset="0.199"
         stop-color="#005ba1"
         id="stop72578" />
      <stop
         offset="1"
         stop-color="#0078d4"
         id="stop72580" />
    </linearGradient>
  </defs>
  <g
     id="g72597"
     transform="translate(-1.15,0.025)">
    <g
       id="g72593">
      <g
         id="g72589">
        <path
           d="M 8.736,5.229 H 6.62 A 2.644,2.644 0 0 0 6.21,10.482 2.824,2.824 0 0 1 6.237,9.5 1.67,1.67 0 0 1 6.62,6.2 h 2.116 a 1.675,1.675 0 0 1 0,3.35 H 8.154 A 1.275,1.275 0 0 0 8.03,10.079 1.234,1.234 0 0 0 8.114,10.52 h 0.622 a 2.645,2.645 0 0 0 0,-5.289 z"
           id="path72585"
           inkscape:connector-curvature="0"
           style="fill:url(#ea0182c4-a05a-47e0-8d38-dceaa08cffc1)" />
        <path
           d="m 11.79,7.468 a 3.042,3.042 0 0 1 0.031,0.405 2.722,2.722 0 0 1 -0.058,0.577 1.671,1.671 0 0 1 -0.383,3.3 H 9.264 a 1.675,1.675 0 0 1 0,-3.35 H 9.846 A 1.195,1.195 0 0 0 9.886,7.43 H 9.264 a 2.645,2.645 0 0 0 0,5.289 h 2.116 a 2.644,2.644 0 0 0 0.41,-5.253 z"
           id="path72587"
           inkscape:connector-curvature="0"
           style="fill:url(#b2374fe1-82b4-4770-97f1-de978b276dd6)" />
      </g>
      <path
         d="m 9,-0.025 -7.85,4.49 v 8.97 l 7.85,4.54 7.85,-4.49 v -9 z m 6.4,12.57 -6.4,3.7 -6.4,-3.661 V 5.355 l 6.4,-3.7 6.4,3.71 z"
         id="path72591"
         inkscape:connector-curvature="0"
         style="fill:#0078d4" />
    </g>
    <polygon
       points="1.15,4.49 2.6,5.38 9,1.68 9,1.68 15.4,5.38 16.85,4.49 9,0 "
       id="polygon72595"
       style="fill:url(#f85376f9-8ccb-4ef0-ab3e-33ae7fcb4e4a)" />
  </g>
  <metadata
     id="metadata72599">
    <rdf:RDF>
      <rdf:li>public:true</rdf:li>
      <rdf:li>sdk:false</rdf:li>
      <rdf:li>category: Preview</rdf:li>
      <cc:Work
         rdf:about="">
        <dc:format>image/svg+xml</dc:format>
        <dc:type
           rdf:resource="http://purl.org/dc/dcmitype/StillImage" />
        <dc:title></dc:title>
      </cc:Work>
    </rdf:RDF>
  </metadata>
</svg>
