<?xml version="1.0" encoding="UTF-8" standalone="no"?>
<svg
   xmlns:dc="http://purl.org/dc/elements/1.1/"
   xmlns:cc="http://creativecommons.org/ns#"
   xmlns:rdf="http://www.w3.org/1999/02/22-rdf-syntax-ns#"
   xmlns:svg="http://www.w3.org/2000/svg"
   xmlns="http://www.w3.org/2000/svg"
   xmlns:sodipodi="http://sodipodi.sourceforge.net/DTD/sodipodi-0.dtd"
   xmlns:inkscape="http://www.inkscape.org/namespaces/inkscape"
   width="18"
   height="14.471"
   viewBox="0 0 18 14.471"
   version="1.1"
   id="svg72992"
   sodipodi:docname="Static_Apps.svg"
   inkscape:version="0.92.3 (2405546, 2018-03-11)">
  <sodipodi:namedview
     pagecolor="#ffffff"
     bordercolor="#666666"
     borderopacity="1"
     objecttolerance="10"
     gridtolerance="10"
     guidetolerance="10"
     inkscape:pageopacity="0"
     inkscape:pageshadow="2"
     inkscape:window-width="1920"
     inkscape:window-height="1017"
     id="namedview72994"
     showgrid="false"
     fit-margin-top="0"
     fit-margin-left="0"
     fit-margin-right="0"
     fit-margin-bottom="0"
     inkscape:zoom="48.111111"
     inkscape:cx="9.0000008"
     inkscape:cy="7.235"
     inkscape:window-x="-8"
     inkscape:window-y="-8"
     inkscape:window-maximized="1"
     inkscape:current-layer="svg72992" />
  <defs
     id="defs72973">
    <linearGradient
       id="e6ad4df9-0ab7-4b49-9706-620b42380f0b"
       x1="9"
       y1="16.236"
       x2="9"
       y2="5.599"
       gradientUnits="userSpaceOnUse"
       gradientTransform="translate(-8.3333391e-7,1.764)">
      <stop
         offset="0"
         stop-color="#005ba1"
         id="stop72968" />
      <stop
         offset="0.775"
         stop-color="#0078d4"
         id="stop72970" />
    </linearGradient>
  </defs>
  <g
     id="e7885b9c-9714-4276-bd41-591cb7e086a5"
     transform="translate(8.3333391e-7,-1.764)">
    <path
       d="m 0,5.6 h 18 v 10.035 a 0.6,0.6 0 0 1 -0.6,0.6 H 0.6 A 0.6,0.6 0 0 1 0,15.635 Z"
       id="path72975"
       inkscape:connector-curvature="0"
       style="fill:url(#e6ad4df9-0ab7-4b49-9706-620b42380f0b)" />
    <rect
       x="1.309"
       y="6.6570001"
       width="15.527"
       height="8.5139999"
       rx="0.60000002"
       id="rect72977"
       style="opacity:0.6;fill:#5ea0ef" />
    <path
       d="m 0.6,1.764 h 16.8 a 0.6,0.6 0 0 1 0.6,0.6 V 5.6 H 0 V 2.365 A 0.6,0.6 0 0 1 0.6,1.764 Z"
       id="path72979"
       inkscape:connector-curvature="0"
       style="fill:#005ba1" />
    <path
       d="m 7.109,13.217 -0.321,0.32 a 0.144,0.144 0 0 1 -0.205,0 L 4.258,11.205 a 0.29,0.29 0 0 1 0,-0.41 l 0.321,-0.32 2.531,2.537 a 0.145,0.145 0 0 1 -0.001,0.205 z m 3.653,0 0.321,0.32 a 0.144,0.144 0 0 0 0.205,0 l 2.325,-2.332 a 0.29,0.29 0 0 0 0,-0.41 l -0.322,-0.32 -2.53,2.537 a 0.145,0.145 0 0 0 0.001,0.205 z"
       id="path72981"
       inkscape:connector-curvature="0"
       style="opacity:0.8;fill:#ffffff" />
    <path
       d="m 6.831,8.433 0.32,0.321 a 0.144,0.144 0 0 1 0,0.205 l -2.575,2.568 -0.32,-0.322 a 0.289,0.289 0 0 1 0,-0.41 l 2.37,-2.363 a 0.145,0.145 0 0 1 0.205,10e-4 z m 4.207,0 -0.32,0.321 a 0.144,0.144 0 0 0 0,0.205 l 2.575,2.568 0.32,-0.321 a 0.292,0.292 0 0 0 0,-0.411 l -2.37,-2.362 a 0.144,0.144 0 0 0 -0.205,10e-4 z"
       id="path72983"
       inkscape:connector-curvature="0"
       style="fill:#ffffff" />
    <path
       d="M 8.159,14.363 7.646,14.2 A 0.105,0.105 0 0 1 7.579,14.069 L 9.669,7.54 a 0.1,0.1 0 0 1 0.13,-0.067 l 0.513,0.164 a 0.1,0.1 0 0 1 0.067,0.13 L 8.289,14.3 a 0.1,0.1 0 0 1 -0.13,0.063 z"
       id="path72985"
       inkscape:connector-curvature="0"
       style="fill:#ffffff" />
    <path
       d="m 3.166,3.847 a 0.76,0.76 0 1 1 -0.76,-0.76 0.76,0.76 0 0 1 0.76,0.76 z M 4.8,3.087 A 0.76,0.76 0 1 0 5.56,3.847 0.76,0.76 0 0 0 4.8,3.087 Z m 2.393,0 a 0.76,0.76 0 1 0 0.76,0.76 0.76,0.76 0 0 0 -0.762,-0.76 z"
       id="path72987"
       inkscape:connector-curvature="0"
       style="fill:#ffffff" />
  </g>
  <metadata
     id="metadata72990">​
   <rdf:RDF>​
      <rdf:li>public:true</rdf:li>
​
      <rdf:li>sdk:false</rdf:li>
​
      <rdf:li>category: Preview</rdf:li>
​
   <cc:Work
   rdf:about="">
  <dc:format>image/svg+xml</dc:format>
  <dc:type
     rdf:resource="http://purl.org/dc/dcmitype/StillImage" />
  <dc:title></dc:title>
</cc:Work>
</rdf:RDF>
​
</metadata>
</svg>
