<?xml version="1.0" encoding="UTF-8" standalone="no"?>
<svg
   xmlns:dc="http://purl.org/dc/elements/1.1/"
   xmlns:cc="http://creativecommons.org/ns#"
   xmlns:rdf="http://www.w3.org/1999/02/22-rdf-syntax-ns#"
   xmlns:svg="http://www.w3.org/2000/svg"
   xmlns="http://www.w3.org/2000/svg"
   xmlns:xlink="http://www.w3.org/1999/xlink"
   xmlns:sodipodi="http://sodipodi.sourceforge.net/DTD/sodipodi-0.dtd"
   xmlns:inkscape="http://www.inkscape.org/namespaces/inkscape"
   width="16.999149"
   height="17.675854"
   viewBox="0 0 16.999149 17.675854"
   version="1.1"
   id="svg73312"
   sodipodi:docname="Web_Environment.svg"
   inkscape:version="0.92.3 (2405546, 2018-03-11)">
  <sodipodi:namedview
     pagecolor="#ffffff"
     bordercolor="#666666"
     borderopacity="1"
     objecttolerance="10"
     gridtolerance="10"
     guidetolerance="10"
     inkscape:pageopacity="0"
     inkscape:pageshadow="2"
     inkscape:window-width="1920"
     inkscape:window-height="1017"
     id="namedview73314"
     showgrid="false"
     fit-margin-top="0"
     fit-margin-left="0"
     fit-margin-right="0"
     fit-margin-bottom="0"
     inkscape:zoom="48.111111"
     inkscape:cx="8.4991487"
     inkscape:cy="8.868"
     inkscape:window-x="-8"
     inkscape:window-y="-8"
     inkscape:window-maximized="1"
     inkscape:current-layer="svg73312" />
  <defs
     id="defs73268">
    <radialGradient
       id="a6c0c18d-733f-412e-9946-4b3220f15c3a"
       cx="4649.5151"
       cy="3578.3569"
       r="48.597"
       gradientTransform="matrix(0.15,0,0,0.15,-689.14015,-529.13385)"
       gradientUnits="userSpaceOnUse">
      <stop
         offset="0.183"
         stop-color="#5ea0ef"
         id="stop73242" />
      <stop
         offset="1"
         stop-color="#0078d4"
         id="stop73244" />
    </radialGradient>
    <linearGradient
       id="ba95cf02-a4ad-444a-ba86-4a77c3d6b54d"
       x1="3.8440001"
       y1="9.5609999"
       x2="3.8169999"
       y2="6.165"
       gradientUnits="userSpaceOnUse">
      <stop
         offset="0"
         stop-color="#ccc"
         id="stop73247" />
      <stop
         offset="0.123"
         stop-color="#d7d7d7"
         id="stop73249" />
      <stop
         offset="1"
         stop-color="#fcfcfc"
         id="stop73251" />
    </linearGradient>
    <linearGradient
       id="a3cb84a1-8f3b-4dab-92a1-05b9fc1b9b9d"
       x1="8.7629995"
       y1="12.958"
       x2="8.7629995"
       y2="9.9130001"
       gradientUnits="userSpaceOnUse"
       gradientTransform="translate(0.50085128,0.19214651)">
      <stop
         offset="0"
         stop-color="#ccc"
         id="stop73254" />
      <stop
         offset="0.123"
         stop-color="#d7d7d7"
         id="stop73256" />
      <stop
         offset="1"
         stop-color="#fcfcfc"
         id="stop73258" />
    </linearGradient>
    <linearGradient
       id="ef149404-1205-4370-825c-1764b56b5820"
       x1="-105.292"
       y1="373.01099"
       x2="-105.292"
       y2="364.16501"
       gradientTransform="matrix(0.949,-0.314,0.314,0.949,-2.2131487,-371.30385)"
       gradientUnits="userSpaceOnUse">
      <stop
         offset="0"
         stop-color="#32bedd"
         id="stop73261" />
      <stop
         offset="0.576"
         stop-color="#32ceef"
         id="stop73263" />
      <stop
         offset="1"
         stop-color="#32d4f5"
         id="stop73265" />
    </linearGradient>
    <linearGradient
       inkscape:collect="always"
       xlink:href="#ba95cf02-a4ad-444a-ba86-4a77c3d6b54d"
       id="linearGradient73316"
       gradientUnits="userSpaceOnUse"
       x1="3.8440001"
       y1="9.5609999"
       x2="3.8169999"
       y2="6.165"
       gradientTransform="translate(0.50085128,0.19214651)" />
    <linearGradient
       inkscape:collect="always"
       xlink:href="#ba95cf02-a4ad-444a-ba86-4a77c3d6b54d"
       id="linearGradient73318"
       gradientUnits="userSpaceOnUse"
       x1="3.8440001"
       y1="9.5609999"
       x2="3.8169999"
       y2="6.165"
       gradientTransform="translate(0.50085128,0.19214651)" />
  </defs>
  <g
     id="f7be321e-44f2-40dd-a677-39c899dfee20"
     transform="translate(-0.50085128,-0.19214651)">
    <g
       id="g73307">
      <path
         id="a030666d-76ea-43d2-b12a-26b869b32da2"
         data-name="Path 1237"
         d="M 12.257,13.19 A 7.2891487,7.2891487 0 1 1 3.323,1.67 L 3.4,1.614 a 7.289,7.289 0 0 1 8.857,11.576"
         inkscape:connector-curvature="0"
         style="fill:url(#a6c0c18d-733f-412e-9946-4b3220f15c3a)" />
      <g
         id="g73297">
        <path
           d="M 5.808,5.913 A 11.162,11.162 0 0 1 13.45,2.842 7.185,7.185 0 0 0 12.176,1.6 12.386,12.386 0 0 0 8.15,2.55 10.628,10.628 0 0 0 4.65,4.964 2.348,2.348 0 0 1 5.808,5.913 Z"
           id="path73271"
           inkscape:connector-curvature="0"
           style="opacity:0.6;fill:#ffffff" />
        <path
           d="m 2.2,8.841 a 16.236,16.236 0 0 0 -0.717,2.25 7.7,7.7 0 0 0 0.534,0.791 6.782,6.782 0 0 0 0.475,0.555 A 15.3,15.3 0 0 1 3.42,9.462 2.332,2.332 0 0 1 2.2,8.841 Z"
           id="path73273"
           inkscape:connector-curvature="0"
           style="opacity:0.6;fill:#ffffff" />
        <path
           d="M 3.039,4.952 A 10.239,10.239 0 0 1 2.448,2.426 7.277,7.277 0 0 0 1.5,3.676 11.361,11.361 0 0 0 1.991,5.7 2.33,2.33 0 0 1 3.039,4.952 Z"
           id="path73275"
           inkscape:connector-curvature="0"
           style="opacity:0.55;fill:#f2f2f2" />
        <circle
           cx="3.825"
           cy="7.1570001"
           r="2.3429999"
           id="circle73277"
           style="fill:url(#linearGradient73316)" />
        <g
           id="g73283">
          <path
             d="M 7.241,11.435 A 1.515,1.515 0 0 1 7.7,10.347 10.307,10.307 0 0 1 5.535,8.755 a 2.336,2.336 0 0 1 -1.28,0.7 10.213,10.213 0 0 0 1.245,1.1 10.6,10.6 0 0 0 1.755,1.07 1.4,1.4 0 0 1 -0.014,-0.19 z"
             id="path73279"
             inkscape:connector-curvature="0"
             style="opacity:0.55;fill:#f2f2f2" />
          <path
             d="M 12.642,11.617 A 10.288,10.288 0 0 1 10.28,11.342 c 0,0.031 0.005,0.062 0.005,0.093 a 1.515,1.515 0 0 1 -0.433,1.065 11.879,11.879 0 0 0 2.925,0.209 7.185,7.185 0 0 0 0.987,-1.152 10.517,10.517 0 0 1 -1.122,0.06 z"
             id="path73281"
             inkscape:connector-curvature="0"
             style="opacity:0.55;fill:#f2f2f2" />
        </g>
        <circle
           cx="8.7629995"
           cy="11.435"
           r="1.522"
           id="circle73285"
           style="fill:url(#a3cb84a1-8f3b-4dab-92a1-05b9fc1b9b9d)" />
        <path
           d="M 10.635,7.368 A 1.588,1.588 0 0 1 11.16,6.52 21.663,21.663 0 0 1 7.333,2.962 14.576,14.576 0 0 1 5.632,0.457 7.227,7.227 0 0 0 4.7,0.816 a 15.211,15.211 0 0 0 1.829,2.732 22.61,22.61 0 0 0 4.106,3.82 z"
           id="path73287"
           inkscape:connector-curvature="0"
           style="opacity:0.7;fill:#f2f2f2" />
        <circle
           cx="12.232"
           cy="7.6599998"
           r="1.617"
           id="circle73289"
           style="fill:#f2f2f2" />
        <path
           d="M 14.948,8.75 C 14.848,8.7 14.768,8.656 14.673,8.605 L 14.647,8.591 C 14.561,8.546 14.477,8.5 14.393,8.454 L 14.346,8.428 14.117,8.3 14.061,8.268 C 13.97,8.217 13.88,8.168 13.791,8.114 a 1.536,1.536 0 0 1 -0.546,0.793 c 0.105,0.062 0.212,0.123 0.321,0.184 l 0.072,0.041 0.3,0.165 0.029,0.016 c 0.241,0.131 0.487,0.262 0.739,0.391 v 0 a 7.107,7.107 0 0 0 0.243,-0.955 z"
           id="path73291"
           inkscape:connector-curvature="0"
           style="opacity:0.55;fill:#f2f2f2" />
        <circle
           cx="3.825"
           cy="7.1570001"
           r="2.3429999"
           id="circle73293"
           style="fill:url(#linearGradient73318)" />
        <circle
           cx="8.7629995"
           cy="11.435"
           r="1.522"
           id="circle73295"
           style="fill:#f2f2f2" />
      </g>
      <path
         d="M 17.5,10.571 17.183,9.613 h -0.151 -1.136 l -0.485,-0.566 0.154,-1.281 -0.895,-0.45 -0.112,0.112 -0.8,0.8 -0.744,-0.052 -0.8,-1.02 -0.958,0.317 -0.006,0.151 V 8.76 l -0.566,0.485 -1.26,-0.157 -0.449,0.894 0.112,0.112 0.8,0.8 -0.051,0.743 -1.037,0.81 0.317,0.957 0.151,0.006 h 1.136 l 0.485,0.566 -0.154,1.281 0.895,0.449 0.112,-0.112 0.8,-0.8 0.744,0.052 0.8,1.02 0.958,-0.317 0.006,-0.151 v -1.135 l 0.566,-0.486 1.281,0.154 0.45,-0.894 -0.112,-0.113 -0.8,-0.8 0.052,-0.744 z m -3.739,2.779 a 1.941,1.941 0 1 1 1.233,-2.45 1.94,1.94 0 0 1 -1.233,2.45 z"
         id="path73299"
         inkscape:connector-curvature="0"
         style="fill:url(#ef149404-1205-4370-825c-1764b56b5820)" />
      <path
         d="M 7.613,14.753 V 13.959 L 7.5,13.918 6.65,13.639 6.429,13.1 6.861,12.181 6.3,11.619 6.188,11.675 5.394,12.075 4.851,11.852 4.507,10.9 H 3.713 l -0.042,0.111 -0.278,0.85 -0.544,0.223 -0.905,-0.432 -0.557,0.557 0.055,0.112 0.4,0.794 L 1.62,13.658 0.649,14 v 0.8 l 0.111,0.042 0.85,0.279 0.223,0.543 -0.432,0.919 0.557,0.557 0.111,-0.056 0.794,-0.4 0.543,0.222 0.349,0.962 h 0.794 l 0.041,-0.112 0.279,-0.85 0.543,-0.222 0.92,0.431 0.557,-0.557 -0.056,-0.111 -0.4,-0.794 0.223,-0.543 z m -3.482,1.153 a 1.529,1.529 0 1 1 1.528,-1.529 1.528,1.528 0 0 1 -1.528,1.529 z"
         id="path73301"
         inkscape:connector-curvature="0"
         style="fill:#50e6ff" />
      <circle
         cx="13.151"
         cy="11.507"
         r="1.941"
         id="circle73303"
         style="fill:#ffffff" />
      <circle
         cx="4.131"
         cy="14.377"
         r="1.528"
         id="circle73305"
         style="fill:#ffffff" />
    </g>
  </g>
  <metadata
     id="metadata73310">
    <rdf:RDF>
      <rdf:li>public:true</rdf:li>
      <rdf:li>sdk:false</rdf:li>
      <rdf:li>category: Preview</rdf:li>
      <cc:Work
         rdf:about="">
        <dc:format>image/svg+xml</dc:format>
        <dc:type
           rdf:resource="http://purl.org/dc/dcmitype/StillImage" />
        <dc:title></dc:title>
      </cc:Work>
    </rdf:RDF>
  </metadata>
</svg>
