<svg xmlns="http://www.w3.org/2000/svg" xmlns:xlink="http://www.w3.org/1999/xlink" viewBox="0 0 60.4 60.4"><symbol id="A" viewBox="-26.5 -26.5 53 53"><circle cx="0" cy="0" r="26.5" fill="#bf6328"/></symbol><use xlink:href="#A" width="53" height="53" x="-26.5" y="-26.5" transform="matrix(-1.1398 -.001393 .001393 -1.1398 30.2043 30.1929)"/><path d="M26.3 19.8v-3.9H10.7v28.6h39V19.8H26.3zm22.1 23.4H12V23.7h36.4v19.5zM38.3 32.4h-.9c-.6-3.9-4.2-6.6-8.1-6.1-2.3.3-4.3 1.8-5.4 3.8l1.9.7c1.4-2.5 4.5-3.3 7-2 1.3.7 2.2 2 2.5 3.4H34c-.2.2-.3.3-.1.5l1.9 1.9a.37.37 0 0 0 .6 0l1.9-1.9c.2.1.1-.1 0-.3zm-8 6.2a5.13 5.13 0 0 1-4.9-3.6h1.1c.2-.2.2-.4.1-.5l-1.9-2a.37.37 0 0 0-.6 0l-1.9 2c-.2.3-.1.4.1.5h.9c.9 3.9 4.7 6.3 8.6 5.5 1.9-.4 3.6-1.6 4.6-3.3l-1.9-.8c-1 1.4-2.6 2.2-4.2 2.2z" fill="#fff"/></svg>