<svg xmlns="http://www.w3.org/2000/svg" xmlns:xlink="http://www.w3.org/1999/xlink" viewBox="0 0 59.3 59.3"><symbol id="A" viewBox="-26.5 -26.5 53 53"><circle cx="0" cy="0" r="26.5" fill="#bf6328"/></symbol><use xlink:href="#A" width="53" height="53" x="-26.5" y="-26.5" transform="matrix(-1.1198 -.001368 .001368 -1.1198 29.6744 29.6632)"/><g fill="#fff"><use xlink:href="#C"/><use xlink:href="#D"/><use xlink:href="#C" x="13.4"/><use xlink:href="#D" x="13.4"/><path d="M40 11.7c-4.2-4.2-11.1-4.2-15.3 0-2.7 2.7-3.8 6.7-2.8 10.4h-.3c-3 0-5.4 2.4-5.4 5.4 0 1.5.6 3 1.6 4.1l3.8 4.1V33c2.5 0 4.7-1.8 5.3-4.2a10.84 10.84 0 0 0 5.5 1.5v5.4l7.7-8.2c2.1-2.2 3.2-5.1 3.2-8.1-.1-3-1.3-5.7-3.3-7.7zm-.7 15.1l-6.1 6.5v-4h-.9c-1.9 0-3.8-.6-5.4-1.6v-.2c0-2.5-1.7-4.7-4.1-5.3-1.1-3.5-.1-7.3 2.5-9.9 3.9-3.9 10.2-3.9 14.1-.1 1.9 1.9 2.9 4.4 2.9 7.1a10.94 10.94 0 0 1-3 7.5z"/><circle cx="32.3" cy="19.3" r="1.4"/><circle cx="36.8" cy="19.3" r="1.4"/><circle cx="27.8" cy="19.3" r="1.4"/></g><defs ><path id="C" d="M24.8 47.2h-6.9c-.9 0-1.7.8-1.7 1.7v1.7l10.3.1V49c0-1-.7-1.8-1.7-1.8z"/><path id="D" d="M21.4 45.4c-2.4 0-4.4-2-4.4-4.4s2-4.4 4.4-4.4 4.4 2 4.4 4.4-2 4.4-4.4 4.4zm0-8.2a3.8 3.8 0 0 0 0 7.6 3.8 3.8 0 0 0 3.8-3.8c0-2-1.7-3.8-3.8-3.8z"/></defs></svg>