<svg xmlns="http://www.w3.org/2000/svg" xmlns:xlink="http://www.w3.org/1999/xlink" viewBox="0 0 59.3 59.3"><symbol id="A" viewBox="-26.5 -26.5 53 53"><circle cx="0" cy="0" r="26.5" fill="#bf6328"/></symbol><use xlink:href="#A" width="53" height="53" x="-26.5" y="-26.5" transform="matrix(1.1198 0 0 1.1198 29.6744 29.6632)"/><path d="M33.5 13.6h-7.3a1.79 1.79 0 0 0-1.8 1.8v1.8l11 .1v-1.8c-.1-1-.9-1.9-1.9-1.9zm-3.7-1.9c-2.6 0-4.7-2.1-4.7-4.7s2.1-4.7 4.7-4.7 4.7 2.1 4.7 4.7c-.1 2.7-2.2 4.7-4.7 4.7zm0-8.7c-2.2 0-4.1 1.8-4.1 4.1s1.8 4.1 4.1 4.1c2.2 0 4.1-1.8 4.1-4.1S32 3 29.8 3zm3.8 42.3h-7.3a1.79 1.79 0 0 0-1.8 1.8v1.8l11 .1v-1.8c0-1.1-.9-1.9-1.9-1.9zm-3.7-1.9c-2.6 0-4.7-2.1-4.7-4.7s2.1-4.7 4.7-4.7 4.7 2.1 4.7 4.7-2.1 4.7-4.7 4.7zm0-8.7c-2.2 0-4.1 1.8-4.1 4.1s1.8 4.1 4.1 4.1c2.2 0 4.1-1.8 4.1-4.1s-1.8-4.1-4.1-4.1zm20-2.5h-7.3a1.79 1.79 0 0 0-1.8 1.8v1.8l11 .1V34c0-1-.8-1.8-1.9-1.8zm-3.7-1.9c-2.6 0-4.7-2.1-4.7-4.7s2.1-4.7 4.7-4.7 4.7 2.1 4.7 4.7-2.1 4.7-4.7 4.7zm0-8.8c-2.2 0-4.1 1.8-4.1 4.1s1.8 4.1 4.1 4.1c2.2 0 4.1-1.8 4.1-4.1 0-2.2-1.8-4.1-4.1-4.1zM17 32.2H9.7A1.79 1.79 0 0 0 7.9 34v1.8l11 .1V34c-.1-1-.9-1.8-1.9-1.8zm-3.7-1.9c-2.6 0-4.7-2.1-4.7-4.7s2.1-4.7 4.7-4.7S18 23 18 25.6s-2.1 4.7-4.7 4.7zm0-8.7c-2.2 0-4.1 1.8-4.1 4.1 0 2.2 1.8 4.1 4.1 4.1 2.2 0 4.1-1.8 4.1-4.1s-1.8-4.2-4.1-4.1c0-.1 0-.1 0 0z" fill="#fff"/><circle cx="29.8" cy="31.5" r="16.5" fill="none" stroke="#fff"/><g fill="#fff"><circle cx="13.3" cy="25.6" r="4"/><circle cx="29.8" cy="7.1" r="4"/><circle cx="29.9" cy="38.7" r="4"/><circle cx="46.2" cy="25.6" r="4"/></g></svg>