<svg xmlns="http://www.w3.org/2000/svg" viewBox="0 0 49.359 94.707"><style><![CDATA[.N{stroke-linejoin:round}.O{stroke-linecap:round}.P{fill:#939ba0}]]></style><g fill="none" stroke="#626366" stroke-width="2.835" class="N"><path d="M11.448 26.792L47.895 7.444l.047 66.5L11.495 93.3z"/><path d="M1.418 20.765L37.863 1.418l10.033 6.027-36.448 19.347z"/><path d="M11.448 26.792l.047 66.498-10.03-6.026-.047-66.5z"/></g><path d="M11.448 26.792L47.895 7.444l.047 66.5L11.495 93.3z" fill="#231f20"/><path d="M1.418 20.764L37.863 1.418l10.033 6.026-36.448 19.348z" fill="#bbbdbf"/><path d="M11.448 26.792l.047 66.498-10.03-6.026-.047-66.5z" fill="#b3b5b7"/><path d="M8.508 80.593L4.403 78.1v-5.84l4.105 2.492zM8.5 40.934l-4.107-2.5V32.6L8.5 35.092zm0 7.416l-4.107-2.5v-5.845L8.5 42.508zm0 14.4l-4.107-2.493v-5.842L8.5 56.898z" fill="#fefefe"/><g fill="none" stroke="#626366" stroke-width="2.126" class="N"><path d="M33.044 8.096L26.62 4.3l6.433 3.8m0-.01l-6.425-3.805c.127-.064.244-.065.33-.013l6.425 3.804c-.087-.05-.204-.05-.33.014"/><path d="M26.958 4.272l6.425 3.805c-.1-.053-.208-.05-.34.018L26.622 4.3c.128-.07.25-.07.336-.018zm-1.865 13.016l-5.562-3.294c-.07-.043-.12-.128-.126-.245l5.562 3.295c.007.117.055.2.126.244"/><path d="M25.094 17.288l-5.562-3.294c-.072-.043-.12-.128-.126-.245l5.562 3.295c.007.117.055.2.126.244z"/><path d="M25.017 17.086L18.6 13.28l-.233-4.1 6.426 3.804zm.2-4.846L18.78 8.436l7.808-4.152L33.014 8.1z"/><path d="M24.783 12.985L18.36 9.18c-.001-.013-.001-.027-.001-.04l6.425 3.805c-.002.014-.001.027 0 .04"/><path d="M24.782 12.944L18.358 9.14c.004-.27.188-.578.424-.703l6.425 3.805a.87.87 0 0 0-.425.703"/><path d="M24.783 12.985L18.36 9.18a.87.87 0 0 1 .422-.744l6.425 3.805c-.25.132-.44.465-.423.744z"/><path d="M33.014 8.1c.25-.134.467-.017.483.262l.234 4.1c.015.28-.174.613-.426.746l-7.808 4.152c-.248.13-.464.013-.48-.265l-.234-4.1c-.016-.28.173-.613.422-.745l7.81-4.15z"/><path d="M24.97 12.397l.247 4.7" class="O"/><path d="M24.31 16.837l-5.56-3.294c-.072-.043-.12-.128-.126-.245l5.562 3.295c.005.117.054.2.125.244"/><path d="M24.31 16.837l-5.562-3.294c-.072-.043-.12-.128-.126-.245l5.562 3.295c.007.117.056.2.126.244z"/></g><path d="M33.044 8.096L26.62 4.3l6.433 3.8" fill="#b8bdc1"/><path d="M33.053 8.1l-6.425-3.805c.127-.064.244-.065.33-.013l6.425 3.804c-.087-.05-.204-.05-.33.014m-7.96 9.198l-5.562-3.294c-.07-.043-.12-.128-.126-.245l5.562 3.295c.007.117.055.2.126.244" class="P"/><path d="M25.017 17.086l-6.425-3.805-.233-4.1 6.424 3.804z" fill="#b3b5b7"/><path d="M25.206 12.24L18.78 8.436l7.808-4.152L33.015 8.1z" fill="#bbbdbf"/><path d="M24.783 12.985L18.36 9.18c-.001-.013-.001-.027-.001-.04l6.425 3.805c-.002.014-.001.027 0 .04" class="P"/><path d="M24.782 12.944L18.358 9.14c.004-.27.188-.578.424-.703l6.425 3.805a.87.87 0 0 0-.425.703" fill="#e1e2e3"/><path d="M33.014 8.1c.25-.134.467-.017.483.262l.234 4.1c.015.28-.174.613-.426.746l-7.807 4.152c-.248.13-.464.013-.48-.265l-.234-4.1c-.016-.28.173-.613.422-.745l7.808-4.15z" fill="#898b8e"/><path d="M24.97 12.397l.248 4.7" fill="none" stroke="#e1e2e3" stroke-width=".511" class="N O"/><path d="M24.31 16.837l-5.56-3.294c-.072-.043-.12-.128-.126-.245l5.562 3.295c.005.117.054.2.125.244" class="P"/><path d="M1.418 20.765l10.03 6.027.047 66.498" fill="none" stroke="#e1e2e3" stroke-width=".85" class="N O"/><path d="M36.3 24.532l-7.348 13.8 8.482-.922-5.73 9 5.882-.64L27.44 61.72l4.48-12.74-7.386.802 4.8-7.543-8.427.917L35.732 25.26zM24.188 76.807l1.28-.7c.84-.456 1.384-1.215 1.384-2.03 0-.6-.3-1.08-1.34-.524l-1.325.715v2.53zm1.326-4.302c1.72-.927 2.504-.295 2.504 1 0 1.283-.83 2.74-2.653 3.723l-1.176.635V81.4l-1.13.6v-8.18l2.456-1.326zM29.3 75.9c0 1.14.68 1.528 1.672.992 1.084-.585 1.765-1.672 1.765-2.835 0-1.044-.74-1.4-1.765-.846-.97.522-1.672 1.657-1.672 2.7m4.487-2.42c0 1.703-1.142 3.47-2.803 4.367-1.592.86-2.735.276-2.735-1.38 0-1.548 1.2-3.388 2.735-4.222 1.627-.878 2.803-.362 2.803 1.234M39.542 66l-3.334 1.8v2.47l3.22-1.737v1.057l-3.22 1.736v2.54l3.438-1.854v1.055l-4.568 2.465v-8.18l4.464-2.4z" fill="#fefefe"/></svg>