<svg xmlns="http://www.w3.org/2000/svg" xmlns:xlink="http://www.w3.org/1999/xlink" viewBox="0 0 49.359 94.707"><style><![CDATA[.M{stroke-linejoin:round}.N{stroke-linecap:round}.O{fill:#939ba0}]]></style><g fill="none" stroke="#626366" stroke-width="2.835" class="M"><path d="M11.448 26.792L47.895 7.444l.047 66.5L11.495 93.3z"/><path d="M1.418 20.765L37.864 1.418l10.032 6.027-36.448 19.347z"/><path d="M11.448 26.792l.047 66.498-10.03-6.026-.047-66.5z"/></g><path d="M11.448 26.792L47.895 7.444l.047 66.5L11.495 93.3z" fill="#898b8e"/><path d="M1.418 20.764L37.864 1.418l10.032 6.026-36.448 19.348z" fill="#bbbdbf"/><path d="M11.448 26.792l.047 66.498-10.03-6.026-.047-66.5z" fill="#b3b5b7"/><path d="M8.5 80.593L4.403 78.1v-5.84l4.107 2.5zm-.01-39.66l-4.107-2.5V32.6L8.5 35.092zm0 7.416l-4.107-2.5v-5.845L8.5 42.508zm0 14.4l-4.107-2.493v-5.842L8.5 56.898z" fill="#fefefe"/><g fill="none" stroke="#626366" stroke-width="2.126" class="M"><path d="M33.045 8.096L26.62 4.3l6.433 3.8m.001-.01L26.63 4.286c.127-.064.244-.065.33-.013l6.425 3.804c-.087-.05-.204-.05-.33.014"/><path d="M26.96 4.272l6.425 3.805c-.1-.053-.208-.05-.34.018L26.622 4.3c.128-.07.25-.07.337-.018zm-1.866 13.016l-5.562-3.294c-.072-.043-.12-.128-.126-.245l5.562 3.295c.007.117.055.2.126.244"/><path d="M25.094 17.288l-5.562-3.294c-.072-.043-.12-.128-.126-.245l5.562 3.295c.007.117.055.2.126.244z"/><path d="M25.018 17.086l-6.426-3.805-.233-4.1 6.425 3.804zm.19-4.846L18.78 8.436l7.808-4.152L33.014 8.1z"/><path d="M24.784 12.985L18.36 9.18c-.001-.013-.001-.027-.001-.04l6.425 3.805c-.001.014 0 .027.001.04"/><path d="M24.783 12.944L18.358 9.14c.004-.27.188-.578.424-.703l6.425 3.805a.87.87 0 0 0-.424.703"/><path d="M24.784 12.985L18.36 9.18a.87.87 0 0 1 .423-.744l6.425 3.805c-.25.132-.44.465-.423.744z"/><use xlink:href="#B"/><path d="M24.97 12.397l.247 4.7" class="N"/><use xlink:href="#C"/><path d="M24.3 16.837l-5.562-3.294c-.072-.043-.12-.128-.126-.245l5.562 3.295c.006.117.055.2.126.244z"/></g><path d="M33.045 8.096L26.62 4.3l6.433 3.8" fill="#b8bdc1"/><path d="M33.054 8.1L26.63 4.286c.127-.064.244-.065.33-.013l6.425 3.804c-.087-.05-.204-.05-.33.014m-7.96 9.197l-5.562-3.294c-.072-.043-.12-.128-.126-.245l5.562 3.295c.007.117.055.2.126.244" class="O"/><path d="M25.018 17.086l-6.426-3.805-.233-4.1 6.425 3.804z" fill="#b3b5b7"/><path d="M25.207 12.24l-6.425-3.805 7.807-4.152L33.015 8.1z" fill="#bbbdbf"/><path d="M24.784 12.985L18.36 9.18c-.001-.013-.001-.027-.001-.04l6.425 3.805c-.001.014 0 .027.001.04" class="O"/><path d="M24.783 12.944L18.358 9.14c.004-.27.188-.578.424-.703l6.425 3.805a.87.87 0 0 0-.424.703" fill="#e1e2e3"/><use xlink:href="#B" fill="#898b8e"/><path d="M24.97 12.397l.247 4.7" fill="none" stroke="#e1e2e3" stroke-width=".511" class="M N"/><use xlink:href="#C" class="O"/><path d="M1.418 20.764l10.03 6.028.047 66.498" fill="none" stroke="#e1e2e3" stroke-width=".85" class="M N"/><defs ><path id="B" d="M33.014 8.1c.25-.134.467-.017.483.262l.234 4.1c.015.28-.174.613-.426.746l-7.807 4.152c-.248.13-.464.013-.48-.265l-.234-4.1c-.016-.28.173-.613.422-.745l7.808-4.15z"/><path id="C" d="M24.3 16.837l-5.562-3.294c-.072-.043-.12-.128-.126-.245l5.562 3.295c.006.117.055.2.126.244"/></defs></svg>