<svg xmlns="http://www.w3.org/2000/svg" viewBox="0 0 75.713 61.36"><g fill="none" stroke="#626366" stroke-width="3" stroke-linejoin="round"><path d="M40.025 42.946L74.213 24.8v16.915L40.025 59.86z"/><path d="M40.02 42.946l.005 16.914L1.5 36.76v-16.87z"/><path d="M1.5 19.888L35.58 1.5l38.627 23.298L40.02 42.946z"/></g><path d="M1.5 19.888L35.58 1.5l38.627 23.3L40.02 42.946z" fill="#bbbdbf"/><path d="M1.7 19.88l38.32 22.834v16.935" fill="none" stroke="#dfe0df" stroke-width=".525" stroke-linecap="round" stroke-linejoin="round"/><path d="M40.02 42.946l.005 16.915L1.5 36.76v-16.87z" fill="#b3b5b7"/><path d="M24.916 48.768l-6.558-3.947.014-6.568 6.52 3.933zM35.74 55.23l-6.558-3.946.014-6.568 6.522 3.933z" fill="#fefefe"/><path d="M40.02 42.946L74.208 24.8l.005 16.915L40.025 59.86z" fill="#898b8e"/></svg>