<svg xmlns="http://www.w3.org/2000/svg" viewBox="0 0 75.713 61.359"><g fill="none" stroke="#626366" stroke-width="3" stroke-linejoin="round"><path d="M40.02 42.945l34.188-18.147.005 16.915-34.19 18.146z"/><path d="M40.02 42.945l.004 16.914L1.5 36.758v-16.87z"/><path d="M1.5 19.888L35.58 1.5l38.627 23.298L40.02 42.946z"/></g><path d="M1.82 19.64L35.9 1.252l38.627 23.3L40.34 42.698z" fill="#231f20"/><path d="M1.698 19.88L40.02 42.713v16.935" fill="none" stroke="#dfe0df" stroke-width=".525" stroke-linecap="round" stroke-linejoin="round"/><path d="M40.02 42.946l.004 16.915L1.5 36.76v-16.87z" fill="#b3b5b7"/><path d="M24.914 48.768l-6.556-3.947.014-6.568 6.52 3.933zM35.74 55.23l-6.56-3.946.014-6.568 6.522 3.933z" fill="#fefefe"/><path d="M40.02 42.946L74.208 24.8l.005 16.915-34.19 18.146z" fill="#898b8e"/><path d="M35.15 4.357l-1.204 13.96 7.2-4.097-1.625 10.23 5-2.842-2.877 18.126-.93-13.08-6.27 3.567 1.36-8.572-7.154 4.072 6.294-21.666z" fill="#fefefe"/></svg>