<svg xmlns="http://www.w3.org/2000/svg" viewBox="0 0 117.96 90.752"><g fill="none" stroke="#626366" stroke-width="2.717" stroke-linejoin="round"><path d="M1.36 24.845L45.597 1.36l70.995 42.666-44.238 23.48z"/><path d="M72.355 67.506l.01 21.888-70.998-42.66-.007-21.888z"/><path d="M72.355 67.506l44.238-23.48.01 21.886-44.238 23.483z"/></g><path d="M72.355 67.506l44.238-23.48.01 21.886-44.238 23.483z" fill="#898b8e"/><path d="M1.36 24.844l44.238-23.48 70.995 42.662-44.238 23.48z" fill="#bbbdbf"/><path d="M72.355 67.506l.01 21.888-70.998-42.66-.007-21.888z" fill="#b3b5b7"/><path d="M1.714 24.758l70.64 42.446v21.913" fill="none" stroke="#dfe0df" stroke-width=".679" stroke-linecap="round" stroke-linejoin="round"/><path d="M42.022 69.075L38.3 66.9V49.455l3.733 2.198zm8.238 5.138l-3.732-2.174V54.593l3.732 2.198zm8.294 4.743l-3.733-2.174V59.336l3.733 2.198zm8.62 5.39l-3.733-2.174V64.725l3.733 2.2zM9.805 49.968l-3.733-2.173V30.348l3.733 2.198zm7.797 4.68l-3.733-2.173V35.028l3.733 2.197zm8.03 4.613L21.9 57.086V39.64l3.733 2.197zm8.148 4.914L30.048 62V44.555l3.733 2.197z" fill="#fefefe"/></svg>