<?xml version="1.0" encoding="UTF-8"?>
<svg width="66px" height="49px" viewBox="0 0 66 49" version="1.1" xmlns="http://www.w3.org/2000/svg" xmlns:xlink="http://www.w3.org/1999/xlink">
    <!-- Generator: sketchtool 49.3 (51167) - http://www.bohemiancoding.com/sketch -->
    <title>62B5CB35-53FE-4B67-96BC-FC7000AE9C20</title>
    <desc>Created with sketchtool.</desc>
    <defs></defs>
    <g id="Symbols" stroke="none" stroke-width="1" fill="none" fill-rule="evenodd">
        <g id="icon-nework-666" transform="translate(-2.000000, -10.000000)" fill="#666666">
            <path d="M18,53 L18,56 L24,56 L24,59 L8,59 L8,56 L14,56 L14,53 L2,53 L2,37 L30,37 L30,53 L18,53 Z M9,26.9810552 C8.83497919,26.9936085 8.668236,27 8.5,27 C4.91014913,27 2,24.0898509 2,20.5 C2,16.9101491 4.91014913,14 8.5,14 C8.70046484,14 8.89881014,14.0090748 9.0946475,14.0268361 C9.54749246,11.7312387 11.57157,10 14,10 C16.42843,10 18.4525075,11.7312387 18.9053525,14.0268361 C19.1011899,14.0090748 19.2995352,14 19.5,14 C22.5748955,14 25.1511059,16.1351242 25.8269355,19.0036765 C25.8843189,19.0012338 25.9420154,19 26,19 C28.209139,19 30,20.790861 30,23 C30,24.8638394 28.7252272,26.4299397 27,26.8739825 L27,27 L9,27 L9,26.9810552 Z M40,53 L68,53 L68,59 L40,59 L40,53 Z M40,45 L68,45 L68,51 L40,51 L40,45 Z M40,37 L68,37 L68,43 L40,43 L40,37 Z M43,57 C43.5522847,57 44,56.5522847 44,56 C44,55.4477153 43.5522847,55 43,55 C42.4477153,55 42,55.4477153 42,56 C42,56.5522847 42.4477153,57 43,57 Z M43,49 C43.5522847,49 44,48.5522847 44,48 C44,47.4477153 43.5522847,47 43,47 C42.4477153,47 42,47.4477153 42,48 C42,48.5522847 42.4477153,49 43,49 Z M43,41 C43.5522847,41 44,40.5522847 44,40 C44,39.4477153 43.5522847,39 43,39 C42.4477153,39 42,39.4477153 42,40 C42,40.5522847 42.4477153,41 43,41 Z M5,40 L5,50 L27,50 L27,40 L5,40 Z M40,19 L68,19 L68,27 L40,27 L40,19 Z M63,10 L65,10 L65,18 L63,18 L63,10 Z M43,23 C43.5522847,23 44,22.5522847 44,22 C44,21.4477153 43.5522847,21 43,21 C42.4477153,21 42,21.4477153 42,22 C42,22.5522847 42.4477153,23 43,23 Z M47,23 C47.5522847,23 48,22.5522847 48,22 C48,21.4477153 47.5522847,21 47,21 C46.4477153,21 46,21.4477153 46,22 C46,22.5522847 46.4477153,23 47,23 Z M51,23 C51.5522847,23 52,22.5522847 52,22 C52,21.4477153 51.5522847,21 51,21 C50.4477153,21 50,21.4477153 50,22 C50,22.5522847 50.4477153,23 51,23 Z"></path>
        </g>
    </g>
</svg>