<?xml version="1.0" encoding="UTF-8"?>
<svg width="52px" height="48px" viewBox="0 0 52 48" version="1.1" xmlns="http://www.w3.org/2000/svg" xmlns:xlink="http://www.w3.org/1999/xlink">
    <!-- Generator: sketchtool 49.3 (51167) - http://www.bohemiancoding.com/sketch -->
    <title>D1DB671D-692E-4B0D-B8B9-F27A0DE3FE59</title>
    <desc>Created with sketchtool.</desc>
    <defs></defs>
    <g id="Symbols" stroke="none" stroke-width="1" fill="none" fill-rule="evenodd">
        <g id="icon-flowchart-666" transform="translate(-9.000000, -11.000000)" fill="#666666">
            <path d="M37,36 L50,36 L52,36 L52,44 L50,44 L50,38 L22,38 L22,42 L20,42 L20,36 L22,36 L35,36 L35,30 L37,30 L37,36 Z M41,45 L61,45 L61,57 L41,57 L41,45 Z M21,59 C14.372583,59 9,55.418278 9,51 C9,46.581722 14.372583,43 21,43 C27.627417,43 33,46.581722 33,51 C33,55.418278 27.627417,59 21,59 Z M36,11 L50,20 L36,29 L21,20 L36,11 Z"></path>
        </g>
    </g>
</svg>