<svg xmlns="http://www.w3.org/2000/svg" xmlns:xlink="http://www.w3.org/1999/xlink" width="613.07" height="523.453" viewBox="0 0 162.208 138.497"><defs><linearGradient id="A" gradientUnits="userSpaceOnUse"><stop offset="0" stop-color="#0274fc"/><stop offset="1" stop-color="#96cefe"/></linearGradient><linearGradient id="B" x1="102.364" y1="206.128" x2="102.243" y2="96.305" gradientUnits="userSpaceOnUse"><stop offset="0" stop-color="#ffc426"/><stop offset="1" stop-color="#fe6305"/></linearGradient><linearGradient xlink:href="#A" id="C" x1="100.731" y1="140.329" x2="100.447" y2="120.296"/><linearGradient xlink:href="#A" id="D" x1="69.248" y1="194.363" x2="68.964" y2="174.331"/><linearGradient xlink:href="#A" id="E" x1="100.667" y1="194.363" x2="100.384" y2="174.331"/><linearGradient xlink:href="#A" id="F" x1="132.086" y1="194.363" x2="131.803" y2="174.331"/></defs><g transform="translate(-21.54 -77.375)"><path d="M21.54 215.872l80.597-138.497 81.61 138.497z" fill="#fff"/><path d="M28.352 211.85L102.18 84.985l74.757 126.866z" fill="#e57a10"/><path d="M38.394 206.023l63.85-109.718 64.653 109.718z" fill="url(#B)"/><path d="M99.346 134.057v45.436h3v-45.436zm-2.867.316L70.004 177.61l2.56 1.566 26.475-43.236zm8.736 0l-2.56 1.566 26.475 43.236 2.56-1.566z" dominant-baseline="auto" fill="#2c6dc9" fill-opacity="1"/><circle cx="100.936" cy="130.518" r="9.899" fill="url(#C)" paint-order="normal"/><circle cx="69.453" cy="184.552" r="9.899" fill="url(#D)" paint-order="normal"/><circle cx="100.872" cy="184.552" r="9.899" fill="url(#E)" paint-order="normal"/><circle cx="132.292" cy="184.552" r="9.899" fill="url(#F)" paint-order="normal"/></g></svg>