<svg xmlns="http://www.w3.org/2000/svg" width="678.527" height="678.527" viewBox="0 0 179.527 179.527"><style><![CDATA[.B{dominant-baseline:auto}]]></style><defs><linearGradient id="A" x1="29.31" y1="149.735" x2="188.247" y2="149.735" gradientUnits="userSpaceOnUse"><stop offset="0" stop-color="#e6f7ff"/><stop offset="1" stop-color="#6dceff"/></linearGradient></defs><g transform="translate(-18.881 -59.838)"><path d="M108.645 59.838c-49.545 0-89.764 40.218-89.764 89.764s40.218 89.764 89.764 89.764 89.764-40.218 89.764-89.764-40.218-89.764-89.764-89.764z" fill="#fff" paint-order="normal" class="B"/><path d="M108.645 64.838c46.843 0 84.764 37.92 84.764 84.764s-37.92 84.764-84.764 84.764-84.764-37.92-84.764-84.764 37.92-84.764 84.764-84.764z" fill="#06f" paint-order="normal" class="B"/><circle cx="108.779" cy="149.735" r="79.469" fill="url(#A)" paint-order="normal"/><path d="M34.007 122.842c6.414-16.456 16.578-31.34 34.906-41.776l29 47.178c-5.582 4.15-10.893 7.977-13.54 14.62zm97.118 36.408l51.06 20.673c-7.9 18.885-23.232 34.218-39.404 41.625l-26.587-47.322c7.056-2.8 11.417-8.45 14.932-14.976z" fill="#fff"/><path d="M107.912 124.594c-14.4 0-26.13 11.72-26.13 26.13s11.72 26.13 26.13 26.13 26.13-11.72 26.13-26.13-11.72-26.13-26.13-26.13z" fill="#06f" paint-order="normal" class="B"/><path d="M107.912 128.094c12.52 0 22.63 10.1 22.63 22.63s-10.1 22.63-22.63 22.63-22.63-10.112-22.63-22.63 10.1-22.63 22.63-22.63z" fill="#36c" paint-order="normal" class="B"/></g></svg>