<svg xmlns="http://www.w3.org/2000/svg" xmlns:xlink="http://www.w3.org/1999/xlink" width="270.127" height="644.787" viewBox="0 0 71.471 170.6"><style><![CDATA[.B{dominant-baseline:auto}]]></style><defs><linearGradient id="A" x1="97.553" y1="233.123" x2="98.89" y2="82.65" xlink:href="#F"><stop offset="0" stop-color="#076bff"/><stop offset="1" stop-color="#9cf"/></linearGradient><linearGradient id="B" x1="128.646" y1="230.674" x2="128.646" y2="113.408" xlink:href="#F"><stop offset="0" stop-color="#0d10a2"/><stop offset="1" stop-color="#7f9fed"/></linearGradient><linearGradient id="C" x1="78.02" y1="86.543" x2="116.4" y2="86.543" xlink:href="#F"><stop offset="0" stop-color="#bce3ff"/><stop offset="1" stop-color="#72c6ff"/></linearGradient><linearGradient id="D" x1="120.4" y1="73.588" x2="133.205" y2="73.588" xlink:href="#F"><stop offset="0" stop-color="#bae2ff"/><stop offset="1" stop-color="#5abdff"/></linearGradient><linearGradient id="E" x1="120.4" y1="90.519" x2="133.205" y2="90.519" xlink:href="#F"><stop offset="0" stop-color="#3940b4"/><stop offset=".5" stop-color="#bde1fd"/><stop offset="1" stop-color="#2d31af"/></linearGradient><linearGradient id="F" gradientUnits="userSpaceOnUse"/></defs><g transform="translate(-69.062 -66.619)"><path d="M126.418 66.62c-2.555 0-4.848.475-6.682 1.47s-3.336 2.757-3.336 4.938h-.066c0 .086.063.15.066.236v10.434L92.73 71.924a2 2 0 0 0-.018-.01c-3.207-1.552-6.56-1.342-8.902-.18l-8.203 3.934a2 2 0 0 0-.131.07c-1.273.73-2.69 1.52-3.9 2.488-.756.6-1.416 1.39-1.9 2.313-.337.545-.604 1.16-.604 1.877v118.998c0 6.965 4.803 12.245 9.28 14.486l-.033-.016 39.043 20.47a2 2 0 0 0 .131.063c3.897 1.698 7.79.325 9.986-.668a2 2 0 0 0 .078-.037l11.89-6.008a2 2 0 0 0 1.098-1.785v-122.64c0-3.252-1.73-6.096-3.328-8.29V73.504c.003-.073.033-.136.033-.21h-.033c0-2.295-1.67-3.896-3.615-4.967s-4.43-1.71-7.172-1.71z" fill="#fff" class="B"/><path d="M126.418 70.62c2.096 0 4.002.53 5.242 1.213s1.545 1.418 1.545 1.463v.115c-.038.895-.443 1.473-1.547 2.086-1.16.643-3 1.06-4.924 1.06-2.136 0-3.882-.493-4.94-1.172-.954-.61-1.32-1.25-1.393-2.098v-.26c0-.42.214-.863 1.244-1.422s2.745-.986 4.773-.986z" fill="url(#D)" class="B"/><path d="M87.893 74.885c.984-.01 2.096.154 3.076.63l25.432 12.65V98.2L78.02 78.95l7.537-3.617a2 2 0 0 0 .025-.012c.47-.234 1.327-.424 2.31-.436z" fill="url(#C)" class="B"/><path d="M120.4 79.074c1.806.953 3.934 1.482 6.334 1.482 2.307 0 4.548-.45 6.47-1.418V97.55c0 .94.004 1.437-.156 1.88-.15.416-.58 1.018-1.645 1.88-1.79 1.01-4.1.683-6.12.146-3.168-.957-4.558-2.48-4.883-3.26v-11.27z" fill="url(#E)" class="B"/><path d="M75.316 82.068l40.71 20.418c1.918 1.103 4.196 2.753 5.896 4.56 1.706 1.813 2.725 3.73 2.725 5.217V232.46c-1.7.6-3.776 1.057-5.55.293l-38.932-20.412a2 2 0 0 0-.033-.018c-3.18-1.592-7.07-5.877-7.07-10.9V82.57c.085-.082.32-.246.637-.365.65-.243 1.583-.153 1.617-.137z" fill="url(#A)" class="B"/><path d="M135.77 102.604c.255.6.375 1.152.484 1.693l-8.26 4.854c-.5-1.313-1.33-2.473-2.236-3.6 2.25.48 5.035.806 7.793-.838a2 2 0 0 0 .203-.139c.847-.656 1.5-1.315 2.016-1.98z" fill="#bbe3ff" class="B"/><path d="M136.533 108.77V226.69l-7.887 3.984V113.408z" fill="url(#B)" class="B"/><path d="M79.744 98.896a1.25 1.25 0 0 0-1.205 1.25l.012 34.986a1.25 1.25 0 0 0 .689 1.117l34.87 17.434a1.25 1.25 0 0 0 1.809-1.117v-34.963a1.25 1.25 0 0 0-.689-1.119l-34.88-17.457a1.25 1.25 0 0 0-.604-.131z" fill="#06f" class="B"/><path d="M81.04 102.17l32.38 16.205v32.168L81.05 134.36z" fill="#fff" class="B"/><path d="M79.604 148.625a1.25 1.25 0 0 0-1.195 1.256l.283 45.168a1.25 1.25 0 0 0 .699 1.113l34.584 17a1.25 1.25 0 0 0 1.803-1.111l.377-44.885a1.25 1.25 0 0 0-.699-1.133L80.21 148.75a1.25 1.25 0 0 0-.605-.125z" fill="#06f" class="B"/><g fill="#fff"><path d="M80.922 151.885l32.727 16.057-.354 42.11-32.107-15.79z" class="B"/><path d="M94.556 211.955c0-1.894 1.356-2.164 2.41-1.784 1.522.603 2.335 2.056 2.335 4.17 0 1.583-1.1 2.668-2.238 2.284-1.644-.81-2.507-2.308-2.507-4.67z"/></g></g></svg>