<svg xmlns="http://www.w3.org/2000/svg" xmlns:xlink="http://www.w3.org/1999/xlink" width="782.687" height="782.695" viewBox="0 0 207.086 207.088"><style><![CDATA[.B{dominant-baseline:auto}.C{stroke-width:3.938}]]></style><defs><linearGradient xlink:href="#B" id="A" x1="97.23" y1="235.365" x2="97.511" y2="119.946"/><linearGradient id="B" xlink:href="#N"><stop offset="0" stop-color="#05239a"/><stop offset="1" stop-color="#91bcf8"/></linearGradient><linearGradient xlink:href="#D" id="C" x1="61.229" y1="227.607" x2="60.745" y2="131.658"/><linearGradient id="D" xlink:href="#N"><stop offset="0" stop-color="#0677fc"/><stop offset="1" stop-color="#8fcafe"/></linearGradient><linearGradient xlink:href="#F" id="E" x1="86.488" y1="144.252" x2="86.636" y2="105.838"/><linearGradient id="F" xlink:href="#N"><stop offset="0" stop-color="#a8defe"/><stop offset="1" stop-color="#12a7fc"/></linearGradient><linearGradient xlink:href="#B" id="G" x1="140.712" y1="246.944" x2="140.992" y2="131.525"/><linearGradient xlink:href="#D" id="H" x1="104.711" y1="239.186" x2="104.227" y2="143.237"/><linearGradient xlink:href="#F" id="I" x1="129.97" y1="155.831" x2="130.117" y2="117.416"/><linearGradient id="J" x1="108.796" y1="84.566" x2="108.501" y2="60.626" xlink:href="#N"><stop offset="0" stop-color="#b0e1fe"/><stop offset="1" stop-color="#10a6fc"/></linearGradient><linearGradient id="K" x1="108.601" y1="106.522" x2="108.831" y2="77.978" xlink:href="#N"><stop offset="0" stop-color="#0a279b"/><stop offset="1" stop-color="#9abfe9"/></linearGradient><linearGradient id="L" x1="107.487" y1="239.367" x2="108.804" y2="57.377" xlink:href="#N"><stop offset="0" stop-color="#fec225"/><stop offset="1" stop-color="#e3611e"/></linearGradient><path id="M" d="M55.345 162.55v1.736l8.704 4.776v-1.736z"/><linearGradient id="N" gradientUnits="userSpaceOnUse"/></defs><g transform="translate(-5.551 -44.779)"><path d="M109.094 44.78C51.932 44.78 5.55 91.16 5.55 148.322s46.38 103.545 103.543 103.545 103.543-46.383 103.543-103.545S166.255 44.78 109.094 44.78z" fill="#fff" paint-order="normal" class="B"/><circle cx="109.235" cy="148.52" r="92.472" fill="url(#L)" paint-order="normal"/><path d="M59.594 86.164v44.594h2.5V88.664h91.238v41.56h2.5v-44.06z" fill="#0073fc" class="B"/><path d="M121.19 210.642l-48.518 25.816v-91.784l48.518-26.17z" fill="url(#A)"/><path d="M72.673 236.458l-24.248-13.396v-91.66l24.248 13.272" fill="url(#C)"/><path d="M121.19 118.503l-48.518 26.17-24.248-13.272 48.367-25.8z" fill="url(#E)"/><g fill="#fff" class="B"><use xlink:href="#M"/><use xlink:href="#M" y="8.75"/></g><path d="M72.673 144.674l48.518-26.17zm0 91.784v-91.784l-24.248-13.272m24.248 105.056l-24.248-13.396v-91.66l48.367-25.8 24.4 12.91v92.14z" fill="none" stroke="#fff" class="C"/><path d="M164.673 222.22l-48.518 25.816v-91.784l48.518-26.17z" fill="url(#G)"/><path d="M116.155 248.037L91.906 234.64v-91.66l24.248 13.272" fill="url(#H)"/><path d="M164.673 130.08l-48.518 26.17-24.248-13.272 48.367-25.8z" fill="url(#I)"/><g fill="#fff" class="B"><use xlink:href="#M" x="43.481" y="11.578"/><use xlink:href="#M" x="43.481" y="20.34"/></g><path d="M116.155 156.252l48.518-26.17zm0 91.784v-91.784L91.906 142.98m24.248 105.056L91.906 234.64v-91.66l48.367-25.8 24.4 12.91v92.14z" fill="none" stroke="#fff" class="C"/><path d="M108.5 60.626h.002c7.498-.014 16.52 1.187 23.512 3.362 3.495 1.088 6.484 2.434 8.46 3.87s2.747 2.758 2.747 3.882c0 1.73-.84 3.33-2.74 4.982s-4.79 3.17-8.263 4.39c-6.946 2.44-16.192 3.73-24.708 3.73-9.53 0-18.527-1.606-24.99-4.134-3.23-1.264-5.822-2.77-7.495-4.297s-2.343-2.926-2.343-4.18c0-.68.395-1.78 1.683-3.09s3.398-2.74 6.342-4.016c5.89-2.55 15.096-4.5 27.792-4.5z" fill="url(#J)" class="B"/><path d="M142.85 76.17l.14 19.605c-5.168 6.298-18.605 10.653-34.91 10.653-6.17 0-13.557-.676-20.114-2.423-6.326-1.685-11.757-4.44-14.72-8.146L73.2 76.326c.045.04.08.087.124.127 2.123 1.872 4.996 3.426 8.436 4.726 6.88 2.6 16.046 4.15 25.792 4.15 8.71 0 18.064-1.234 25.41-3.728 3.674-1.247 6.852-2.798 9.234-4.8.233-.196.422-.425.64-.633z" fill="url(#K)" class="B"/><path d="M108.462 59.552c-12.175 0-21.134 1.64-27.183 3.98-3.025 1.17-5.327 2.508-6.954 3.987s-2.644 3.172-2.644 5h0l.044 24.29.355.444c3.504 4.405 9.512 7 16.1 8.62s13.79 2.22 19.858 2.22c16.318 0 30.058-3.575 36.014-10.905l.37-.455-.188-24.624c0-2.503-1.75-4.487-4.06-5.985s-5.353-2.678-8.82-3.642c-6.935-1.927-15.552-2.94-22.88-2.93zm.003 3.266h.002c7.016-.012 15.46.992 22.003 2.8 3.27.91 6.068 2.035 7.917 3.234s2.57 2.305 2.57 3.245c0 1.447-.786 2.784-2.563 4.165s-4.483 2.65-7.733 3.67c-6.5 2.04-15.153 3.118-23.122 3.118-8.92 0-17.338-1.342-23.385-3.456-3.023-1.057-5.448-2.315-7.014-3.592s-2.192-2.446-2.192-3.495c0-.568.37-1.488 1.575-2.584s3.18-2.29 5.935-3.357c5.51-2.13 14.127-3.76 26.008-3.76zm32.54 15.48l.132 17.188c-4.9 5.52-17.646 9.34-33.108 9.34-5.85 0-12.858-.593-19.077-2.124-6-1.477-11.15-3.893-13.96-7.142l-.032-17.125c.042.035.075.077.118.112 2.013 1.64 4.74 3.003 8 4.143 6.525 2.28 15.22 3.638 24.462 3.638 8.26 0 17.132-1.082 24.1-3.268 3.484-1.093 6.5-2.453 8.758-4.207.22-.172.4-.373.607-.555z" fill="#fff" class="B"/><path d="M109.094 48.78c-55 0-99.543 44.543-99.543 99.543s44.543 99.545 99.543 99.545 99.543-44.545 99.543-99.545-44.543-99.543-99.543-99.543zm0 7.072a92.47 92.47 0 0 1 92.472 92.472 92.47 92.47 0 0 1-92.472 92.472 92.47 92.47 0 0 1-92.472-92.472 92.47 92.47 0 0 1 92.472-92.472z" fill="#0073fc" paint-order="normal" class="B"/></g></svg>