<svg xmlns="http://www.w3.org/2000/svg" xmlns:xlink="http://www.w3.org/1999/xlink" width="486.017" height="439.725" viewBox="0 0 128.592 116.344"><style><![CDATA[.B{dominant-baseline:auto}]]></style><defs><linearGradient id="A" x1="325.447" y1="159.211" x2="324.979" y2="137.171" xlink:href="#F"><stop offset="0" stop-color="#1b82fc"/><stop offset="1" stop-color="#deedff"/></linearGradient><linearGradient id="B" x1="334.627" y1="170.555" x2="334.988" y2="157.901" xlink:href="#F"><stop offset="0" stop-color="#98cffe"/><stop offset="1" stop-color="#98cffe"/></linearGradient><linearGradient id="C" x1="317.028" y1="207.48" x2="317.344" y2="160.64" xlink:href="#F"><stop offset="0" stop-color="#1c84fd"/><stop offset="1" stop-color="#89c6fe"/></linearGradient><linearGradient id="D" x1="344.628" y1="206.836" x2="344.098" y2="167.017" xlink:href="#F"><stop offset="0" stop-color="#0f2da0"/><stop offset="1" stop-color="#89b3f3"/></linearGradient><linearGradient id="E" x1="231.57" y1="122.905" x2="306.254" y2="122.905" xlink:href="#F"><stop offset="0" stop-color="#feffff" stop-opacity=".995"/><stop offset="1" stop-color="#bddeff"/></linearGradient><linearGradient id="F" gradientUnits="userSpaceOnUse"/></defs><g transform="translate(-227.57 -96.354)" class="B"><path d="M318.725 144.786l-21.39 11.26.398 40.156 1.172.52 35.785 15.975 21.28-11.355.19-40.162z" fill="#fff"/><path d="M318.885 149.22l30.674 13.434-14.932 7.9-30.676-13.473z" fill="url(#B)"/><path d="M301.38 160.32l31.324 13.758-.082 33.314-30.912-13.8z" fill="url(#C)"/><path d="M352.14 165.813l-.158 33.125-15.36 8.197.082-33.154z" fill="url(#D)"/><path d="M324.98 133.17c-8.417 0-15.283 6.866-15.283 15.283s6.866 15.283 15.283 15.283 15.283-6.866 15.283-15.283-6.866-15.283-15.283-15.283z" fill="#fff" paint-order="normal"/><path d="M324.98 137.17c6.255 0 11.283 5.028 11.283 11.283s-5.028 11.283-11.283 11.283-11.283-5.028-11.283-11.283 5.028-11.283 11.283-11.283z" fill="url(#A)" paint-order="normal"/><path d="M269.826 96.354c-8.083 0-18.306 1.834-26.746 5.45-4.22 1.808-8 4.06-10.82 6.88s-4.69 6.318-4.69 10.277c0 3.8 1.735 7.156 4.287 9.916s5.934 5.008 9.6 6.83c7.31 3.644 15.646 5.603 21.145 5.604 7.26.113 13.063-.07 20.373-1.277l24.674 12.316a2 2 0 0 0 2.564-2.887l-10.158-15.46c2.28-1.223 4.446-2.87 6.188-5 2.315-2.843 4.02-6.205 4.02-9.635 0-3.942-1.664-7.465-4.262-10.346s-6.116-5.2-10.088-7.057c-7.945-3.716-17.745-5.604-26.078-5.604z" fill="#fff"/><path d="M269.826 100.354c7.715 0 17.127 1.832 24.385 5.227 3.63 1.697 6.7 3.784 8.81 6.113s3.232 4.824 3.232 7.666c0 1.994-1.213 4.76-3.125 7.107s-4.487 4.26-6.557 4.928a2 2 0 0 0-1.057 3.002l7.268 11.06-18.555-9.264a2 2 0 0 0-1.234-.182c-7.406 1.28-12.925 1.417-20.367 1.3a2 2 0 0 0-.031 0c-4.483 0-12.657-1.84-19.363-5.184-3.353-1.672-6.357-3.714-8.437-5.965s-3.225-4.616-3.225-7.2c0-2.728 1.22-5.15 3.518-7.45s5.668-4.362 9.568-6.033c7.8-3.343 17.707-5.127 25.17-5.127z" fill="url(#E)"/></g></svg>