<svg xmlns="http://www.w3.org/2000/svg" width="188.927" height="210.043" viewBox="0 0 49.987 55.574"><defs><linearGradient id="A" x1="147.066" y1="217.349" x2="146.866" y2="176.658" gradientUnits="userSpaceOnUse"><stop offset="0" stop-color="#0e2da0"/><stop offset="1" stop-color="#8bb5f4"/></linearGradient><linearGradient id="B" x1="122.475" y1="217.585" x2="122.609" y2="177.026" gradientUnits="userSpaceOnUse"><stop offset="0" stop-color="#0e7bfc"/><stop offset="1" stop-color="#8cc8fe"/></linearGradient><linearGradient id="C" x1="134.704" y1="188.489" x2="135.372" y2="165.503" gradientUnits="userSpaceOnUse"><stop offset="0" stop-color="#a8defe"/><stop offset="1" stop-color="#14a7fc"/></linearGradient></defs><g transform="translate(-109.873 -163.832)"><g stroke="#000" stroke-width=".265"><path d="M112.12 177.196l23.252-11.693 22.25 11.36-22.918 11.626z" fill="url(#C)"/><path d="M112.12 177.196l22.584 11.292-.067 29-23.32-10.624z" fill="url(#B)"/><path d="M134.637 217.487l.067-29 22.918-11.626 1.002 30z" fill="url(#A)"/></g><path d="M134.977 163.832l-24.748 12.088-.356 32.106.89.404 24.146 10.977 24.95-11.586-.07-31.7zm-.01 3.344l4.796 2.377-4.98 2.494-4.832-2.42zm6.817 3.38l4.668 2.314-4.997 2.52-4.662-2.336zm-13.868.066l4.858 2.432-4.693 2.35-4.907-2.465zm20.553 3.248l6.453 3.198-5.07 2.528-6.39-3.2zm-27.328.06l4.93 2.48-6.06 3.035-4.948-2.545zm13.642.13l4.67 2.34-4.69 2.365-4.678-2.352zm6.674 3.344l6.38 3.196-4.73 2.358-6.34-3.187zm-13.38.013l4.685 2.355-6.116 3.085-4.653-2.393zm-14.887 1.89l3.943 2.028-.037 7.864-3.994-1.995zm43.606.176l.017 7.56-4.347 2.173-.02-7.563zm-22.033 1.295l6.33 3.182-6.247 3.115-6.223-3.2zm-15.833 1.482l6.547 3.368-.003 7.758-6.582-3.29zm31.72.29l.018 7.565-6.6 3.293-.02-7.572zm-23.373 4.005l6.063 3.12.018 7.65-6.083-3.04zm14.985.178l.02 7.574-5.924 2.96-.018-7.58zm14.556 2.322l.018 8.03-4.344 2.162-.02-8.02zm-43.736.154l4.006 2-.037 8.022-4.057-2.026zm5.802 2.898l6.59 3.292-.003 8.04-6.626-3.3zm31.79.02l.02 8.016-6.6 3.278-.02-8.002zm-23.4 4.172l6.088 3.042.02 8.05-6.1-3.052zm15.013.02l.02 7.997-5.926 2.95-.018-7.986zm14.554 2.776l.015 6.817-4.343 2.017-.017-6.672zm-43.868.114l4.07 2.033-.03 6.737-4.113-1.87zm5.864 2.93l6.635 3.315v6.37l-6.664-3.03zm31.86.013l.016 6.612-6.59 3.06-.016-6.394zm-8.386 4.172l.016 6.335-5.93 2.753-.014-6.14zm-15.04.027l6.115 3.055.013 6.02-6.13-2.786z" dominant-baseline="auto" fill="#fff"/></g></svg>