<svg xmlns="http://www.w3.org/2000/svg" xmlns:xlink="http://www.w3.org/1999/xlink" width="316.509" height="393.823" viewBox="0 0 83.743 104.199"><defs><linearGradient id="A" x1="83.839" y1="200.393" x2="83.47" y2="127.295" xlink:href="#F"><stop offset="0" stop-color="#0677fc"/><stop offset="1" stop-color="#8fcafe"/></linearGradient><linearGradient id="B" x1="111.266" y1="206.304" x2="111.48" y2="118.372" xlink:href="#F"><stop offset="0" stop-color="#05239a"/><stop offset="1" stop-color="#91bcf8"/></linearGradient><linearGradient id="C" x1="103.082" y1="136.89" x2="103.194" y2="107.624" xlink:href="#F"><stop offset="0" stop-color="#a8defe"/><stop offset="1" stop-color="#12a7fc"/></linearGradient><linearGradient id="D" x1="132.459" y1="207.574" x2="132.352" y2="189.998" xlink:href="#F"><stop offset="0" stop-color="#102e9f"/><stop offset="1" stop-color="#85a9de"/></linearGradient><linearGradient id="E" x1="131.268" y1="195.085" x2="131.37" y2="179.03" xlink:href="#F"><stop offset="0" stop-color="#a9defe"/><stop offset="1" stop-color="#17a8fc"/></linearGradient><linearGradient id="F" gradientUnits="userSpaceOnUse"/></defs><g transform="translate(-72.583 -105.738)"><path d="M129.52 187.468l-36.963 19.668V137.21l36.963-19.938z" fill="url(#B)"/><path d="M92.557 207.136L74.083 196.93V127.1l18.474 10.11" fill="url(#A)"/><path d="M129.52 117.272L92.557 137.21 74.083 127.1l36.848-19.663z" fill="url(#C)"/><path d="M79.355 150.83v1.322l6.63 3.638v-1.322zm0 6.673v1.322l6.63 3.638v-1.322z" dominant-baseline="auto" fill="#fff"/><path d="M92.557 137.21l36.963-19.938zm0 69.926V137.21L74.083 127.1m18.474 80.036L74.083 196.93V127.1l36.848-19.663 18.59 9.836v70.196z" fill="none" stroke="#fff" stroke-width="3"/><path d="M154.652 189.63l-.098 10.81c0 .048-.076.44-.484 1s-1.096 1.244-2 1.92c-1.803 1.348-4.455 2.677-7.495 3.54-6.942 1.677-18.274 1.546-25.228.17-2.6-.582-5.495-1.558-7.81-2.898-2.255-1.305-3.83-2.94-4.404-4.606v-7.75c.81.478 1.57.978 2.603 1.345 3.053 1.085 7.084 1.857 11.55 2.52 7.21 1.235 14.59 1.068 21.406-.533l.03-.006.03-.01c5.034-1.428 8.637-3.103 11.072-4.77.355-.243.518-.493.825-.736z" dominant-baseline="auto" fill="url(#D)"/><path d="M131.37 179.03c4.94-.146 10.004.385 14.073 1.54 1.97.717 4.558 1.744 6.547 2.995 1 .63 1.84 1.316 2.36 1.95s.69 1.12.69 1.566c0-.194.002.1-.394.594s-1.114 1.165-2.167 1.88c-2.1 1.422-5.528 3.037-10.443 4.422-6.583 1.527-13.786 1.697-20.8.504l-.034-.004c-4.523-.665-8.57-1.454-11.342-2.43-1.386-.488-2.45-1.038-3.037-1.512s-.602-.665-.602-.774c0 .15.072-.31.594-.953s1.383-1.447 2.48-2.28c2.192-1.666 5.323-3.47 8.754-4.97 3.545-1.55 8.373-2.378 13.332-2.524z" dominant-baseline="auto" fill="url(#E)"/><path d="M106.606 189.598c0 2.782 6.74 4.273 15.2 5.38 6.692 1.012 13.55.872 19.854-.433 9.374-2.344 13.166-5.49 13.166-7.158m-35.36 20.106c-5.187-1.017-11.456-3.38-12.86-7.4v-10.497c0-2.085 5.382-5.624 11.925-8.17 7.07-2.754 18.473-2.87 26.384-.858 3.72 1.203 9.912 3.475 9.912 6.82v13.067c0 2.216-4.62 5.36-10.733 6.883-6.94 1.483-17.754 1.356-24.627.156z" fill="none" stroke="#fff" stroke-width="3"/></g></svg>