<svg xmlns="http://www.w3.org/2000/svg" width="504.96" height="336.998" viewBox="0 0 133.604 89.164"><defs><linearGradient id="A" x1="107.443" y1="146.017" x2="106.901" y2="102.041" gradientUnits="userSpaceOnUse"><stop offset="0" stop-color="#b0e1fe"/><stop offset="1" stop-color="#10a6fc"/></linearGradient><linearGradient id="B" x1="107.085" y1="186.349" x2="107.507" y2="133.914" gradientUnits="userSpaceOnUse"><stop offset="0" stop-color="#0a279b"/><stop offset="1" stop-color="#9abfe9"/></linearGradient></defs><g transform="translate(-39.264 -100.066)"><path d="M106.9 102.04h.004c13.773-.025 30.35 2.18 43.2 6.175 6.42 1.998 11.91 4.47 15.54 7.108s5.047 5.066 5.047 7.13c-.001 3.18-1.543 6.12-5.032 9.152s-8.8 5.825-15.18 8.066c-12.76 4.482-29.743 6.853-45.387 6.853-17.51 0-34.034-2.95-45.903-7.594-5.935-2.322-10.695-5.087-13.77-7.893s-4.304-5.376-4.304-7.68c0-1.248.726-3.27 3.09-5.678s6.24-5.035 11.65-7.376c10.818-4.682 27.73-8.264 51.052-8.264z" dominant-baseline="auto" fill="url(#A)"/><path d="M169.996 130.593l.255 36.014c-9.493 11.568-34.177 19.57-64.126 19.57-11.333 0-24.904-1.243-36.95-4.45-11.62-3.095-21.597-8.158-27.04-14.964l-.062-35.88c.082.074.145.16.23.234 3.9 3.44 9.178 6.292 15.497 8.682 12.637 4.778 29.476 7.623 47.38 7.623 15.998 0 33.182-2.266 46.68-6.848 6.75-2.29 12.587-5.14 16.963-8.815.428-.36.775-.78 1.176-1.163z" dominant-baseline="auto" fill="url(#B)"/><path d="M106.828 100.066c-22.365.001-38.822 3.015-49.934 7.31-5.556 2.148-9.785 4.607-12.773 7.324s-4.857 5.828-4.857 9.186v.002l.08 44.617.652.816c6.437 8.092 17.473 12.856 29.557 15.832s25.33 4.076 36.48 4.076c29.976 0 55.216-6.566 66.156-20.03l.68-.836-.346-45.232c0-4.6-3.217-8.243-7.457-10.994s-9.833-4.92-16.203-6.69c-12.738-3.54-28.57-5.403-42.027-5.38zm.006 6h.004c12.89-.02 28.4 1.822 40.418 5.162 6.01 1.67 11.146 3.738 14.543 5.94s4.723 4.235 4.723 5.96c0 2.658-1.444 5.114-4.71 7.65s-8.235 4.87-14.205 6.742c-11.94 3.747-27.835 5.73-42.475 5.73-16.385 0-31.85-2.466-42.957-6.348-5.554-1.94-10.008-4.252-12.885-6.598s-4.027-4.494-4.027-6.42c0-1.043.68-2.734 2.893-4.746s5.84-4.21 10.902-6.166c10.124-3.914 25.95-6.908 47.775-6.908zm59.773 28.434l.242 31.574c-9.003 10.142-32.414 17.156-60.818 17.156-10.748 0-23.62-1.09-35.043-3.902-11.02-2.714-20.483-7.152-25.646-13.12l-.06-31.457c.078.065.138.14.217.205 3.698 3.015 8.704 5.517 14.697 7.61 11.986 4.19 27.956 6.684 44.936 6.684 15.172 0 31.47-1.987 44.27-6.004 6.4-2.01 11.938-4.505 16.088-7.73.406-.316.735-.685 1.115-1.02z" dominant-baseline="auto" fill="#fff"/><path d="M132.006 106.377L70 144.062l-.4 36.215" fill="none" stroke="#fff" stroke-width="4" stroke-linecap="round" stroke-dasharray="8.00000022,8.00000022"/></g></svg>