<svg xmlns="http://www.w3.org/2000/svg" width="385.334" height="582.815" viewBox="0 0 101.953 154.203"><style><![CDATA[.B{dominant-baseline:auto}]]></style><path d="M30.31 0v110.457l1.074.71 70.57 37.848V40.076z" fill="#fff" class="B"/><path d="M35.296 8.5L96.96 43.002v97.662l-61.665-33.19z" fill="#48a0fc" fill-opacity=".97" class="B"/><path d="M40.238 104.5V16.855l51.824 29.242v86.3z" fill="#fff"/><path d="M47.646 82.876v5.612l30.3 15.03v-5.612zm0-40.432v5.612l30.3 15.03v-5.612zm0 20.216v5.612l30.3 15.03V77.69z" fill="#0073fc" class="B"/><path d="M0 5.187v110.457l1.074.71 70.57 37.848V45.263z" fill="#fff" class="B"/><path d="M4.986 13.697L66.65 48.19v97.662L4.986 112.66z" fill="#48a0fc" fill-opacity=".97" class="B"/><path d="M9.928 109.677V22.042l51.824 29.242v86.3z" fill="#fff"/><path d="M17.336 88.063v5.612l30.3 15.03v-5.612zm0-40.432v5.612l30.3 15.03V62.66zm0 20.216v5.612l30.3 15.03v-5.612z" fill="#0073fc" class="B"/></svg>