<svg xmlns="http://www.w3.org/2000/svg" width="798.867" height="602.135" viewBox="0 0 211.367 159.315"><style><![CDATA[.B{dominant-baseline:auto}]]></style><defs><linearGradient id="A" x1="16.783" y1="130.162" x2="206.672" y2="130.162" gradientUnits="userSpaceOnUse"><stop offset="0" stop-color="#bfe5ff"/><stop offset="1" stop-color="#7fcbff"/></linearGradient><linearGradient id="B" x1="100.629" y1="171.642" x2="209.471" y2="171.642" gradientUnits="userSpaceOnUse"><stop offset="0" stop-color="#7fa0ee"/><stop offset="1" stop-color="#0d10a1"/></linearGradient><linearGradient id="C" x1="14.23" y1="178.611" x2="96.809" y2="178.611" gradientUnits="userSpaceOnUse"><stop offset="0" stop-color="#98cbff"/><stop offset="1" stop-color="#1373ff"/></linearGradient></defs><g transform="translate(-2.109 -66.078)" class="B"><path d="M114.037 66.143c-1.646-.12-3.246-.074-4.764.166-1.22.187-2.645.702-4.652 1.486l-7.307 3.11c-5.63 2.53-12.58 5.874-19.6 9.428s-14.07 7.313-19.9 10.674c-5.832 3.356-10.357 6.198-12.727 8.4-5.394 4.685-10.923 10.972-13.13 21.76l-20.29 10.824a2 2 0 0 0-1.307 2.193l-.133 46.336a2 2 0 0 0 1.105 1.795l4.863 2.432-12.914 5.852a2 2 0 0 0-.047 3.621l40.793 19.777a2 2 0 0 0 1.68.031l15.65-6.906 36.32 17.902a2 2 0 0 0 2.326-.029l112.393-58.396a2 2 0 0 0 1.078-1.785l-.266-44.537a2 2 0 0 0-1.387-2.211l-73.873-36.18c-1.708-3.927-4.278-8.098-8.906-10.854a2 2 0 0 0-.039-.023c-4.682-2.644-10.026-4.514-14.97-4.877z" fill="#fff"/><path d="M113.713 70.17c4.14.346 9.087 1.945 13.3 4.318 3.872 2.31 6.015 5.9 7.555 9.61.894 2.72 1.547 5.238 1.55 7.32.004 2.1-.505 3.704-2.125 5.28-.82.758-3.776 2.007-6.928 2.705-3.16.7-6.63 1.027-8.598.895a2 2 0 0 0-.029-.002c-1.442-.075-4.396-.924-7.14-2.434-2.078-1.143-3.88-2.718-5.297-4.412 4.545-2.463 8.74-4.638 12.61-6.533a2 2 0 1 0-1.758-3.592c-4.512 2.21-9.23 4.58-14.803 7.668-.01.006-.017.008-.027.014a2 2 0 0 0-.076.039c-.007.004-.01.006-.018.01l-30.88 16.72a2 2 0 0 0-.855 2.611c2.538 5.374 2.292 9.822.158 15.264-1.424 3.453-4.393 5.647-7.94 6.912-3.536 1.262-7.576 1.487-10.48 1.033-9.423-1.933-12.995-6.09-16.133-11.39 1.964-10.004 6.748-15.296 11.945-19.805a2 2 0 0 0 .057-.051c1.68-1.57 6.255-4.568 12.006-7.877s12.763-7.043 19.723-10.572 13.872-6.854 19.422-9.348c2.775-1.247 5.2-2.288 7.123-3.035s3.415-1.198 3.805-1.258a2 2 0 0 0 .012-.002c1.144-.18 2.436-.205 3.818-.1z" fill="#06f"/><path d="M139.594 87.156l67.078 32.85-108.06 53.162-81.83-39.363 16.203-8.643c3.426 5.398 8.303 10.352 18.197 12.367a2 2 0 0 0 .086.016c3.635.577 8.202.315 12.488-1.215s8.355-4.436 10.3-9.168a2 2 0 0 0 .012-.029c2.168-5.52 2.5-10.99.373-16.646l27.838-15.072c1.882 2.52 4.45 4.503 7.088 5.953 3.187 1.753 6.35 2.8 8.85 2.922 2.648.175 6.238-.212 9.71-.98 3.48-.77 6.718-1.74 8.81-3.697a2 2 0 0 0 .025-.023c2.404-2.327 3.36-5.284 3.354-8.176-.003-1.42-.208-2.84-.523-4.256z" fill="url(#A)"/><path d="M209.23 123.203l.242 40.422L100.81 220.08l-.18-43.445z" fill="url(#B)"/><path d="M14.352 137.076l82.277 39.576.18 43.494-82.578-40.844z" fill="url(#C)"/><path d="M53.453 171.95a1.4 1.4 0 0 0-.604.129l-41.736 19.355a1.4 1.4 0 0 0-.012 2.533l33.236 15.822a1.4 1.4 0 0 0 1.164.019l39.975-17.537a1.4 1.4 0 0 0 .121-2.504l-31.475-17.64a1.4 1.4 0 0 0-.67-.178z" fill="#06f"/><path d="M53.377 174.92l28.402 15.916-36.814 16.15-29.97-14.266z" fill="#fff"/><path d="M150.78 100.465a2.5 2.5 0 0 0-1.037.268l-50.576 25.6a2.5 2.5 0 0 0-.037 4.441l31.533 16.63a2.5 2.5 0 0 0 2.324.004l50.648-26.46a2.5 2.5 0 0 0-.043-4.453L152 100.725a2.5 2.5 0 0 0-1.209-.26z" fill="#06f"/><path d="M150.88 105.76l26.1 13.023-45.145 23.584-26.094-13.76z" fill="#fff"/></g></svg>