<svg xmlns="http://www.w3.org/2000/svg" width="395.501" height="657.978" viewBox="0 0 104.643 174.09"><style><![CDATA[.B{dominant-baseline:auto}]]></style><defs><linearGradient id="A" x1="146.346" y1="228.451" x2="146.413" y2="112.15" gradientUnits="userSpaceOnUse"><stop offset="0" stop-color="#052299"/><stop offset="1" stop-color="#90bcf8"/></linearGradient><linearGradient id="B" x1="99.424" y1="228.846" x2="98.622" y2="73.028" gradientUnits="userSpaceOnUse"><stop offset="0" stop-color="#0576fc"/><stop offset="1" stop-color="#92cbfe"/></linearGradient><linearGradient id="C" x1="105.839" y1="112.317" x2="105.571" y2="65.01" gradientUnits="userSpaceOnUse"><stop offset="0" stop-color="#abdffe"/><stop offset="1" stop-color="#09a4fc"/></linearGradient></defs><g transform="translate(-51.256 -60.592)" class="B"><path d="M62.877 60.592l-11.273 8.14v119.762l1.11.55 91.82 45.64 11.363-8.176V106.934z" fill="#fff"/><path d="M63.258 65.25l86.764 43.225-5.857 4.17-86.71-43.205z" fill="url(#C)"/><path d="M55.604 72.984l86.742 43.223v112.92l-86.742-43.115z" fill="url(#B)"/><path d="M151.898 112.05v112.406l-5.553 3.996V116z" fill="url(#A)"/><path d="M79.693 83.443v16.965L54.178 87.693l-1.785 3.58 13.16 6.557v14.5l-12.514-6.236-1.783 3.58 28.438 14.17v16.605l-26.088-13-1.783 3.58 13.73 6.842v14.334l-12.135-6.047-1.785 3.582 28.06 13.982v14.43l-25.52-12.717-1.785 3.58 13.164 6.56v18.697h4v-16.705L96.29 190.9v19.152h4v-17.158l24.463 12.19v19h4v-17.006l14.38 7.164 1.783-3.58-30.46-15.18v-14.43l27.922 13.912 1.783-3.58-15.406-7.678v-14.334l13.81 6.883 1.785-3.58-29.895-14.896v-16.604l27.543 13.725 1.785-3.58-15.03-7.488v-14.5l14.383 7.166 1.783-3.58-30.465-15.18V98.77h-4v16.963L83.693 102.4V83.443zm-10.14 16.38l26.736 13.322v14.508l-26.736-13.322zm30.736 15.314l24.463 12.19v14.5l-24.463-12.19zm-16.596 10.71l26.76 13.334v16.605l-26.76-13.336zm-14.14 14.027l26.736 13.322v14.334L69.553 154.21zm30.736 15.316l24.463 12.19v14.334l-24.463-12.19zm-16.596 10.533l26.76 13.334V193.5l-26.76-13.336z" fill="#fff"/></g></svg>