<svg xmlns="http://www.w3.org/2000/svg" width="473.163" height="641.276" viewBox="0 0 125.191 169.671"><defs><linearGradient id="A" x1="58.98" y1="150.369" x2="164.285" y2="150.369" gradientUnits="userSpaceOnUse"><stop offset="0" stop-color="#98cbff" stop-opacity=".945"/><stop offset="1" stop-color="#0d6fff" stop-opacity=".935"/></linearGradient><linearGradient id="B" x1="47.096" y1="155.31" x2="153.15" y2="155.31" gradientUnits="userSpaceOnUse"><stop offset="0" stop-color="#78b6ff"/><stop offset="1" stop-color="#1372ff"/></linearGradient></defs><g transform="translate(-43.094 -65.641)"><path d="M56.973 65.64a2 2 0 0 0-1.996 2.002L55 80.31l-8.965-4.725a2 2 0 0 0-2.932 1.77l.03 96.15a2 2 0 0 0 1.045 1.758l109.988 59.807a2 2 0 0 0 2.002-.053l11.174-6.87a2 2 0 0 0 .953-1.703l-.016-101.47a2 2 0 0 0-.045-.42l-3.342-15.62a2 2 0 0 0-1.135-1.404l-38.395-17.295a2 2 0 0 0-2.406.602l-5.652 7.326-59.363-32.277a2 2 0 0 0-.959-.242z" dominant-baseline="auto" fill="#fff"/><path d="M58.98 71.006l57.9 31.484a2 2 0 0 0 2.539-.535l5.73-7.428 36.03 16.23 3.088 14.424.016 100.14-7.172 4.4.037-92.96a2 2 0 0 0-1.049-1.76l-97.11-52.582z" dominant-baseline="auto" fill="url(#A)"/><path d="M47.096 80.67l8.965 4.725a2 2 0 0 0 .014.006l97.076 52.562-.037 91.986-106-57.635z" dominant-baseline="auto" fill="url(#B)"/></g></svg>