<svg xmlns="http://www.w3.org/2000/svg" width="621.192" height="676.044" viewBox="0 0 164.357 178.87"><style><![CDATA[.B{dominant-baseline:auto}]]></style><defs><linearGradient id="A" x1="259.6" y1="556.011" x2="689.381" y2="556.011" gradientUnits="userSpaceOnUse"><stop offset="0" stop-color="#9cf"/><stop offset="1" stop-color="#076bff" stop-opacity="1"/></linearGradient><linearGradient id="B" x1="111.584" y1="649.758" x2="644.809" y2="649.758" gradientUnits="userSpaceOnUse"><stop offset="0" stop-color="#9cf"/><stop offset="1" stop-color="#096cff"/></linearGradient></defs><g transform="translate(-22.043 -57.531)" class="B"><path d="M66.684 57.53a2 2 0 0 0-2 2.002l.057 66.988-39.793-19.844c-1.808-.902-3.66 1.14-2.588 2.852l46.46 74.17a2 2 0 0 0 .8.727l103.362 51.633a2 2 0 0 0 2.461-.174l10.04-6.444a2 2 0 0 0 .92-1.686l-.117-105.152c0-.173-.023-.346-.068-.514l-3.6-13.496a2 2 0 0 0-1.015-1.262L138.36 85.08a2 2 0 0 0-2.65.783l-3.97 6.922-64.096-35a2 2 0 0 0-.959-.244z" fill="#fff"/><g transform="scale(.26458333)"><path d="M259.6 237.748L497.162 367.5a7.56 7.56 0 0 0 10.18-2.871l15.1-26.316 153.992 79.26 12.52 46.822.436 392.297-27.39 17.582-11.182-32.46.275-342.166c.028-5.963-1.835-7.94-7.334-10.023L311.3 320.162c-7.94-4.675-13.8-2.992-13.898 7.48l.855 177.188-38.453-19.11z" fill="url(#A)"/><path d="M111.584 428.71l459.765 228.48 73.46 213.613-373.02-186.334z" fill="url(#B)"/></g><path d="M144.896 135.012a2 2 0 0 0-1.969 2.027v28.33l4 2.005V137.04a2 2 0 0 0-2.031-2.027zm-20.453-8.916a2 2 0 0 0-1.969 2.029v27.09l4 2.005v-29.093a2 2 0 0 0-2.031-2.029zm-20.352-12.236a2 2 0 0 0-1.971 2.029v29.17l4 1.938V115.89a2 2 0 0 0-2.029-2.029z" fill="#06f"/></g></svg>