<svg xmlns="http://www.w3.org/2000/svg" width="220.864" height="389.688" viewBox="0 0 58.437 103.105"><defs><linearGradient id="A" x1="83.839" y1="200.393" x2="83.47" y2="127.295" gradientUnits="userSpaceOnUse"><stop offset="0" stop-color="#0677fc"/><stop offset="1" stop-color="#8fcafe"/></linearGradient><linearGradient id="B" x1="111.266" y1="206.304" x2="111.48" y2="118.372" gradientUnits="userSpaceOnUse"><stop offset="0" stop-color="#05239a"/><stop offset="1" stop-color="#91bcf8"/></linearGradient><linearGradient id="C" x1="103.082" y1="136.89" x2="103.194" y2="107.624" gradientUnits="userSpaceOnUse"><stop offset="0" stop-color="#a8defe"/><stop offset="1" stop-color="#12a7fc"/></linearGradient></defs><g transform="translate(-72.583 -105.738)"><path d="M129.52 187.468l-36.963 19.668V137.21l36.963-19.938z" fill="url(#B)"/><path d="M92.557 207.136L74.083 196.93V127.1l18.474 10.11" fill="url(#A)"/><path d="M129.52 117.272L92.557 137.21 74.083 127.1l36.848-19.663z" fill="url(#C)"/><path d="M79.355 150.83v1.322l6.63 3.638v-1.322zm0 6.673v1.322l6.63 3.638v-1.322z" dominant-baseline="auto" fill="#fff"/><path d="M92.557 137.21l36.963-19.938zm0 69.926V137.21L74.083 127.1m18.474 80.036L74.083 196.93V127.1l36.848-19.663 18.59 9.836v70.196z" fill="none" stroke="#fff" stroke-width="3"/></g></svg>