<svg xmlns="http://www.w3.org/2000/svg" width="847.706" height="459.708" viewBox="0 0 224.289 121.631"><style><![CDATA[.B{dominant-baseline:auto}]]></style><defs><linearGradient id="A" x1="413.152" y1="612.393" x2="413.152" y2="347.733" gradientUnits="userSpaceOnUse"><stop offset="0" stop-color="#bfe5ff" stop-opacity=".844"/><stop offset="1" stop-color="#40b2ff" stop-opacity=".96"/></linearGradient><linearGradient id="B" x1="121.432" y1="137.737" x2="121.43" y2="116.33" gradientUnits="userSpaceOnUse"><stop offset="0" stop-color="#7676c8"/><stop offset="1" stop-color="#eeeef8"/></linearGradient><linearGradient id="C" x1="-2.133" y1="614.044" x2="792.66" y2="614.044" gradientUnits="userSpaceOnUse"><stop offset="0" stop-color="#f6f6fc"/><stop offset="1" stop-color="#1717a2"/></linearGradient><linearGradient id="D" x1="-2.133" y1="697.798" x2="792.66" y2="697.798" gradientUnits="userSpaceOnUse"><stop offset="0" stop-color="#f6f6fc"/><stop offset="1" stop-color="#1717a2"/></linearGradient></defs><g transform="translate(7.564 -88.771)" class="B"><path d="M104.58 88.77c-30.306 0-57.74 3.93-77.897 10.424-10.078 3.248-18.345 7.114-24.332 11.676s-9.916 10.1-9.916 16.412c0 4.126 1.685 7.93 4.53 11.345-2.842 3.414-4.53 7.214-4.53 11.338 0 3.973 1.563 7.646 4.217 10.962-2.654 3.316-4.217 7-4.217 10.962 0 6.302 3.93 11.85 9.916 16.412s14.254 8.428 24.332 11.676c20.156 6.495 47.6 10.424 77.897 10.424s57.74-3.928 77.897-10.424c10.078-3.248 18.345-7.114 24.332-11.676s9.916-10.1 9.916-16.412c0-3.972-1.566-7.644-4.22-10.96 2.656-3.316 4.22-6.99 4.22-10.964 0-4.124-1.687-7.925-4.53-11.34 2.844-3.415 4.53-7.218 4.53-11.345 0-6.302-3.93-11.85-9.916-16.412s-14.254-8.428-24.332-11.676C162.32 92.7 134.886 88.77 104.58 88.77z" fill="#fff" paint-order="normal"/><path d="M395.264 361.97c112.24 0 213.86 14.777 286.3 38.12 36.22 11.672 65.112 25.57 84.043 39.994s27.055 28.26 27.055 40.984-8.124 26.568-27.055 40.992-47.823 28.322-84.043 39.994c-72.44 23.344-174.06 38.12-286.3 38.12s-213.86-14.777-286.3-38.12c-36.22-11.672-65.112-25.57-84.043-39.994S-2.133 493.795-2.133 481.07s8.124-26.56 27.055-40.984 47.823-28.322 84.043-39.994c72.44-23.344 174.06-38.12 286.3-38.12z" transform="scale(.26458333)" fill="url(#A)" paint-order="normal"/><path d="M105.498 110.094c-11.204 0-21.35 1.554-28.9 4.18-3.78 1.313-6.924 2.88-9.28 4.814s-4.035 4.423-4.035 7.3 1.68 5.37 4.035 7.303 5.5 3.502 9.28 4.814c7.56 2.626 17.706 4.18 28.9 4.18s21.347-1.554 28.908-4.18c3.78-1.313 6.924-2.88 9.28-4.814s4.035-4.425 4.035-7.303-1.68-5.367-4.035-7.3-5.5-3.502-9.28-4.814c-7.56-2.626-17.704-4.18-28.908-4.18z" fill="#fff" paint-order="normal"/><path d="M105.364 112.79c11.465 0 21.842 1.88 29.122 4.782 3.64 1.45 6.497 3.172 8.275 4.847s2.357 3.07 2.357 4.213-.58 2.54-2.357 4.215-4.635 3.396-8.275 4.847c-7.28 2.9-17.657 4.782-29.122 4.782s-21.844-1.88-29.124-4.782c-3.64-1.45-6.495-3.172-8.273-4.847s-2.36-3.072-2.36-4.215.58-2.537 2.36-4.213 4.633-3.396 8.273-4.847c7.28-2.9 17.66-4.782 29.124-4.782z" fill="url(#B)" stroke="#fff" stroke-width="5.72" stroke-linejoin="round" paint-order="normal"/><g transform="scale(.26458333)"><path d="M782.807 542.178c6.774 8.548 9.854 16.797 9.854 24.625 0 12.725-8.124 26.568-27.055 40.992s-47.823 28.316-84.043 39.988c-72.44 23.344-174.06 38.127-286.3 38.127s-213.86-14.782-286.3-38.127c-36.22-11.672-65.112-25.564-84.043-39.988s-27.055-28.267-27.055-40.992c0-7.826 3.09-16.074 9.86-24.62l1.16.916c22.627 17.24 53.874 31.862 91.963 44.137 76.18 24.55 179.87 39.398 294.412 39.398s218.234-14.85 294.412-39.398c38.09-12.275 69.336-26.897 91.963-44.137.398-.303.775-.616 1.168-.922z" fill="url(#C)" paint-order="normal"/><path d="M6.35 626.83l2.54 2.004c22.627 17.24 53.874 31.862 91.963 44.137 76.18 24.55 179.87 39.396 294.412 39.396s218.234-14.847 294.412-39.396c38.09-12.275 69.336-26.897 91.963-44.137.865-.66 1.697-1.334 2.54-2.004 5.82 7.9 8.482 15.557 8.482 22.836 0 12.725-8.124 26.56-27.055 40.984s-47.823 28.322-84.043 39.994c-72.44 23.344-174.06 38.12-286.3 38.12s-213.86-14.777-286.3-38.12c-36.22-11.672-65.112-25.57-84.043-39.994s-27.055-28.26-27.055-40.984c0-7.28 2.663-14.925 8.482-22.836z" fill="url(#D)" paint-order="normal"/></g></g></svg>