<svg xmlns="http://www.w3.org/2000/svg" xmlns:xlink="http://www.w3.org/1999/xlink" width="713.594" height="636.159" viewBox="0 0 188.805 168.317"><style><![CDATA[.B{dominant-baseline:auto}.C{fill:#fff}]]></style><defs><linearGradient id="A" x1="70.511" y1="138.118" x2="70.776" y2="103.986" xlink:href="#H"><stop offset="0" stop-color="#2c6dc9"/><stop offset="1" stop-color="#94cdfe"/></linearGradient><linearGradient id="B" x1="-3.199" y1="131.439" x2="150.539" y2="131.439" xlink:href="#H"><stop offset="0" stop-color="#fe5d02"/><stop offset="1" stop-color="#fff835"/></linearGradient><linearGradient id="C" x1="97.828" y1="153.135" x2="97.549" y2="125.697" xlink:href="#H"><stop offset="0" stop-color="#b7defe"/><stop offset="1" stop-color="#eaf5ff"/></linearGradient><linearGradient id="D" x1="146.38" y1="172.714" x2="145.912" y2="150.674" xlink:href="#H"><stop offset="0" stop-color="#1b82fc"/><stop offset="1" stop-color="#deedff"/></linearGradient><linearGradient id="E" x1="155.561" y1="184.059" x2="155.922" y2="171.404" xlink:href="#H"><stop offset="0" stop-color="#98cffe"/><stop offset="1" stop-color="#98cffe"/></linearGradient><linearGradient id="F" x1="137.961" y1="220.983" x2="138.278" y2="174.144" xlink:href="#H"><stop offset="0" stop-color="#1c84fd"/><stop offset="1" stop-color="#89c6fe"/></linearGradient><linearGradient id="G" x1="165.561" y1="220.34" x2="165.032" y2="180.52" xlink:href="#H"><stop offset="0" stop-color="#0f2da0"/><stop offset="1" stop-color="#89b3f3"/></linearGradient><linearGradient id="H" gradientUnits="userSpaceOnUse"/></defs><g transform="translate(11.71 -57.885)"><path d="M-11.7 57.885V204.38h170.225V57.885z" paint-order="normal" class="B C"/><path d="M-6.7 63.04v136.8H154.04V63.04z" fill="#00a0fc" paint-order="normal" class="B"/><path d="M-3.2 66.54H150.54v129.8H-3.2z" fill="url(#B)" paint-order="normal" class="B"/><path d="M51.3 177.51h85.07v3.433H51.3zm0-14.344h85.07v3.433H51.3zm0-14.344h85.07v3.433H51.3zm47.858-14.297h37.212v3.34H99.148zm0-14.344h37.212v3.34H99.148zm0-14.344h37.212v3.34H99.148z" fill="#2c6dc9" paint-order="normal"/><path d="M-3.2 66.54h153.73v23.193H-3.2z" fill="#0073fc" fill-opacity=".95" paint-order="normal"/><path d="M92.203 69.9h10.366v10.38H92.203z" paint-order="normal" class="C"/><path d="M-3.2 89.732h37.4v103.085H-3.2z" fill="#7eb9fd" paint-order="normal"/><path d="M51.268 104.01h37.57v34.24h-37.57z" fill="url(#A)" paint-order="normal"/><path d="M110.98 69.89h10.366v10.38H110.98z" paint-order="normal" class="C"/><path d="M129.755 69.89h10.366v10.38h-10.366z" fill="#fd1800" paint-order="normal"/><path d="M139.658 158.29l-21.39 11.26.398 40.156 1.172.52 35.785 15.975 21.28-11.355.19-40.162z" class="B C"/><path d="M139.818 162.725l30.674 13.434-14.932 7.9-30.676-13.473z" fill="url(#E)" class="B"/><path d="M122.313 173.824l31.324 13.758-.082 33.314-30.912-13.8z" fill="url(#F)" class="B"/><path d="M173.074 179.316l-.158 33.125-15.36 8.197.082-33.154z" fill="url(#G)" class="B"/><path d="M96.053 121.416c-7.33 0-13.998 1.462-18.988 3.74-2.495 1.14-4.578 2.478-6.125 4.043s-2.61 3.445-2.61 5.535c0 3.63 2.3 6.616 5.648 8.863s7.88 4.038 13.334 5.766l.03.01.03.008c5.696 1.613 11.01 1.134 16.047.754l26.742 12.725-11.857-19.84c1.057-.723 2.045-1.5 2.836-2.475 1.198-1.49 1.893-3.448 1.893-5.717 0-2.515-.924-4.796-2.48-6.57s-3.674-3.083-6.145-4.076c-4.94-1.987-11.374-2.766-18.354-2.766z" class="B C"/><path d="M96.053 125.416c6.668 0 12.726.815 16.86 2.48 2.068.832 3.633 1.863 4.63 3s1.486 2.336 1.486 3.934c0 1.55-.336 2.374-1 3.213s-1.825 1.68-3.443 2.648l-1.713 1.027 7.084 11.854-15.748-7.492-.53.04c-5.248.39-10.16.84-15.187-.58-5.274-1.672-9.527-3.414-12.277-5.26-2.758-1.85-3.877-3.526-3.877-5.543 0-.71.387-1.64 1.457-2.723s2.77-2.226 4.94-3.217c4.342-1.982 10.536-3.38 17.326-3.38z" fill="url(#C)" class="B"/><path d="M145.912 146.674c-8.417 0-15.283 6.866-15.283 15.283s6.866 15.283 15.283 15.283 15.283-6.866 15.283-15.283-6.866-15.283-15.283-15.283z" paint-order="normal" class="B C"/><path d="M145.912 150.674c6.255 0 11.283 5.028 11.283 11.283s-5.028 11.283-11.283 11.283-11.283-5.028-11.283-11.283 5.028-11.283 11.283-11.283z" fill="url(#D)" paint-order="normal" class="B"/></g></svg>