<svg xmlns="http://www.w3.org/2000/svg" width="641.775" height="623.32" viewBox="0 0 169.803 164.92"><style><![CDATA[.B{dominant-baseline:auto}]]></style><defs><linearGradient id="A" x1="118.295" y1="165.588" x2="118.307" y2="72.104" gradientUnits="userSpaceOnUse"><stop offset="0" stop-color="#b9e4fe"/><stop offset="1" stop-color="#07a2fc"/></linearGradient><linearGradient id="B" x1="142.308" y1="219.515" x2="143.064" y2="148.644" gradientUnits="userSpaceOnUse"><stop offset="0" stop-color="#08259b"/><stop offset="1" stop-color="#7099e2"/></linearGradient><linearGradient id="C" x1="72.193" y1="219.893" x2="71.688" y2="109.52" gradientUnits="userSpaceOnUse"><stop offset="0" stop-color="#0b79fc"/><stop offset="1" stop-color="#88c5fd"/></linearGradient><linearGradient id="D" x1="84.856" y1="215.924" x2="84.289" y2="152.802" gradientUnits="userSpaceOnUse"><stop offset="0" stop-color="#ffc526"/><stop offset="1" stop-color="#fe5f03"/></linearGradient></defs><g transform="translate(-23.594 -61.666)" class="B"><path d="M90.854 61.666L71.78 69.432l.035 21.545-48.223 41.39 7.223 10.19 1.574-1.182v50.516l74.502 34.697 68.287-30.904v-50.46l18.217-8.28-54.695-71.11-36.877 13.71.025-9.355z" fill="#fff"/><path d="M71.688 109.52l32.72 45.363v65.03L37.39 188.7v-51.145z" fill="url(#C)"/><path d="M74.133 153.04l19.98 8.42v53.66l-19.98-9.306z" fill="url(#D)" paint-order="normal"/><path d="M90.068 67.383l6.773 5.25-.023 8.77-20.006 7.44-.025-16.053z" fill="#0073fc"/><path d="M136.986 71.805l48.605 63.19-67.297 30.592-45.658-63.303-39.27 32.102-1.443 1.084-1.615-2.28 44.654-38.326z" fill="url(#A)"/><path d="M170.18 147.496v44.96l-60.77 27.502v-58.145l7.227 10.02z" fill="url(#B)"/><path d="M44.645 153.6l15.1 7.75v17.304l-15.1-7.75z" fill="#fff" paint-order="normal"/></g></svg>