<svg xmlns="http://www.w3.org/2000/svg" xmlns:xlink="http://www.w3.org/1999/xlink" width="470.744" height="698.94" viewBox="0 0 124.551 184.928"><style><![CDATA[.B{dominant-baseline:auto}.C{fill:#fff}.D{fill:#0073fc}.E{fill:#00a0fc}.F{fill-opacity:.995}]]></style><defs><linearGradient id="A" x1="101.335" y1="237.733" x2="101.865" y2="70.252" gradientUnits="userSpaceOnUse"><stop offset="0" stop-color="#0576fd"/><stop offset="1" stop-color="#93ccfe"/></linearGradient><linearGradient id="B" x1="164.42" y1="237.079" x2="164.252" y2="119.701" gradientUnits="userSpaceOnUse"><stop offset="0" stop-color="#032198"/><stop offset="1" stop-color="#92bdf9"/></linearGradient><linearGradient id="C" x1="111.692" y1="119.64" x2="110.756" y2="64.262" gradientUnits="userSpaceOnUse"><stop offset="0" stop-color="#b0e1fe"/><stop offset="1" stop-color="#09a3fc"/></linearGradient><path id="D" d="M70.277 106.355l6.014 3.16v7.02l-12.898-6.63z"/><path id="E" d="M102.27 112.647l4.758 2.402v7.377l-4.758-2.502zm-12.123-9.008v22.77l19.38 9.957v-22.854l-.453-.23z"/><path id="F" d="M92.646 107.72l7.123 3.63v8.57l-7.123 3.676z"/></defs><g transform="translate(-43.701 -58.937)" class="B"><path d="M71.71 162.256l4.758 2.402v7.377l-4.758-2.502zM102.445 178l4.758 2.402v7.377l-4.758-2.502zm30.736 15.734l4.758 2.402v7.377l-4.758-2.502zm-.132-32.147l4.758 2.402v7.377l-4.758-2.502zm-30.736-15.734l4.758 2.402v7.377l-4.758-2.502zM71.577 130.11l4.758 2.402v7.377l-4.758-2.502zm61.427-1.728l4.758 2.402v7.377l-4.758-2.502zm-30.736-15.734l4.758 2.402v7.377l-4.758-2.502zM71.533 96.912l4.758 2.402v7.377l-4.758-2.502zM57.98 58.938L43.7 64.6v122.62l111.77 56.656 12.78-8.896V115.195z" class="C"/><path d="M133.18 201.002l4.758 2.502v-7.377l-4.758-2.402zm-30.736-15.734l4.758 2.502v-7.377L102.445 178zM71.71 169.533l4.758 2.502v-7.377l-4.758-2.402zm-.132-32.147l4.758 2.502v-7.377l-4.758-2.402zm30.736 15.734l4.758 2.502v-7.377l-4.758-2.402zm30.736 15.734l4.758 2.502v-7.377l-4.758-2.402zm-.044-33.197l4.758 2.502v-7.377l-4.758-2.402zm-30.736-15.734l4.758 2.502v-7.377l-4.758-2.402zM71.533 104.19l4.758 2.502v-7.377l-4.758-2.402zM47.7 69.22l105.61 54.066v114.998L47.7 184.752z" fill="url(#A)"/><path d="M71.533 96.912l4.758 2.402v7.377l-4.758-2.502zM59.4 87.904v22.77l19.38 9.957V97.777l-.453-.23z" class="C"/><path d="M61.9 91.984l7.123 3.63v8.57L61.9 107.86z" class="D"/><use xlink:href="#D" class="E F"/><path d="M57.77 63.322l104.1 53.107-6.562 3.385-104.764-53.63z" fill="url(#C)"/><path d="M164.252 119.7v113.18l-6.94 4.832v-114.43z" fill="url(#B)"/><use xlink:href="#E" class="C"/><use xlink:href="#F" class="D"/><use xlink:href="#D" x="30.736" y="15.745" class="E F"/><use xlink:href="#E" x="30.734" y="15.733" class="C"/><use xlink:href="#F" x="30.734" y="15.733" class="D"/><use xlink:href="#D" x="61.473" y="31.469" class="E F"/><path d="M71.577 130.11l4.758 2.402v7.377l-4.758-2.502zM59.454 121.1v22.77l19.38 9.957v-22.854l-.453-.23z" class="C"/><use xlink:href="#F" x="-30.692" y="17.46" class="D"/><use xlink:href="#D" x="0.043" y="33.197" class="E F"/><path d="M102.313 145.843l4.758 2.402v7.377l-4.758-2.502zM90.2 136.836v22.77l19.38 9.957V146.71l-.453-.23z" class="C"/><path d="M92.7 140.916l7.123 3.63v8.57L92.7 156.79z" class="D"/><use xlink:href="#D" x="30.78" y="48.932" class="E F"/><use xlink:href="#E" x="30.778" y="48.931" class="C"/><use xlink:href="#F" x="30.779" y="48.93" class="D"/><use xlink:href="#D" x="61.516" y="64.665" class="E F"/><path d="M71.71 162.256l4.758 2.402v7.377l-4.758-2.502zm-12.123-9.008v22.77l19.38 9.957V163.12l-.453-.23z" class="C"/><use xlink:href="#F" x="-30.56" y="49.608" class="D"/><use xlink:href="#D" x="0.177" y="65.345" class="E F"/><use xlink:href="#E" x="0.175" y="65.353" class="C"/><use xlink:href="#F" x="0.176" y="65.343" class="D"/><use xlink:href="#D" x="30.913" y="81.079" class="E F"/><path d="M133.18 193.725l4.758 2.402v7.377l-4.758-2.502zm-12.123-9.008v22.77l19.38 9.957V194.6l-.453-.23z" class="C"/><use xlink:href="#F" x="30.912" y="81.077" class="D"/><use xlink:href="#D" x="61.648" y="96.813" class="E F"/></g></svg>