<svg xmlns="http://www.w3.org/2000/svg" width="984.824" height="621.218" viewBox="0 0 260.568 164.364"><defs><linearGradient id="A" x1="118.133" y1="224.837" x2="118.744" y2="73.35" gradientUnits="userSpaceOnUse"><stop offset="0" stop-color="#80bafd"/><stop offset="1" stop-color="#fbfdff"/></linearGradient></defs><path d="M135.535.001l-7.354.27-.1.006-.088.012C111.46 2.44 99.827 7.267 89.522 17.702c-11.568-3.4-23.53-4.582-36.32-.473l-.076.023-.074.03c-16.12 6.14-27.675 13.92-33.578 26.268l-.02.04-.018.04c-3.13 7.077-4.07 12.764-3.842 17.715-6.377 4.404-11.573 10.2-14 18.55-2.57 8.876-2.15 20.294 2 35.836l.025.098.033.094c6.8 20.03 25.812 31.336 44.395 36.33l.094.023c26.434 6.2 41.59 1.092 52.078-4.19 13.046 10.896 26.79 15.285 41.217 16.17l.043.002.04.002c20.74.687 36.262-1.82 49.717-11.94l.004-.002.004-.004c3.515-2.66 6.472-5.483 9.016-8.412 11.833-2.5 25.43-7.705 35.742-13.533 15.05-7.585 24.856-21.1 24.56-38.947.252-14.687-5.775-31.275-19.95-42.318-10.835-8.618-25.694-15.335-41.373-16.572-3.762-7.204-9.37-13.78-19.11-20.234l-.004-.004-.004-.002C167.55 4.014 152.44-.046 135.535.001z" dominant-baseline="auto" fill="#fff"/><path d="M118.744 73.35c13.14.895 24.732 4.61 34.576 11.088 15.854 10.513 19.157 19.556 22.74 33.938l5.822-1.45c-.94-3.768-1.95-7.322-3.205-10.72 13.04 1.786 25.584 7.472 34.71 14.736l.014.01.012.01c12.544 9.768 17.887 24.567 17.648 37.55l-.002.053.002.055c.276 15.712-7.77 26.747-21.31 33.553l-.066.033-.065.037c-7.81 4.423-17.98 8.553-27.463 11.242 3.078-5.334 4.936-10.933 5.648-16.672l-5.953-.74c-1.287 10.365-6.313 19.948-17.732 28.594-12.074 9.08-25.716 11.396-45.86 10.732-21.4-1.32-39.982-9.852-58.64-39.787l-5.092 3.174c5.673 9.102 11.516 16.224 17.494 22.04-9.615 4.588-22.386 8.276-45.965 2.756-17.34-4.67-34.265-15.004-40.193-32.37-3.946-14.86-4.13-25.16-2-32.5 1.726-5.96 4.97-10.137 9.385-13.64.808 2.946 1.833 5.757 3.088 8.434l5.434-2.547c-3.906-8.334-6.52-13.764-.365-27.71 5.016-10.453 14.822-17.303 30.2-23.172 16.3-5.208 30.967-1.08 46.592 5.6l2.355-5.52c-2.643-1.128-5.326-2.06-8-3.035 8.716-7.987 18.115-11.803 32.63-13.7 4.684-.324 9.2-.343 13.563-.047z" dominant-baseline="auto" fill="url(#A)" transform="translate(23.502 -67.138)"/></svg>