<svg xmlns="http://www.w3.org/2000/svg" width="724.8" height="529.281" viewBox="0 0 191.77 140.039"><style><![CDATA[.B{dominant-baseline:auto}]]></style><defs><linearGradient id="A" x1="30.557" y1="148.045" x2="203.979" y2="148.045" gradientUnits="userSpaceOnUse"><stop offset="0" stop-color="#b2d9ff"/><stop offset="1" stop-color="#0b6dff"/></linearGradient><linearGradient id="B" x1="47.602" y1="102.713" x2="107.637" y2="102.713" gradientUnits="userSpaceOnUse"><stop offset="0" stop-color="#bfe4ff"/><stop offset="1" stop-color="#a5daff"/></linearGradient><linearGradient id="C" x1="102.432" y1="148.914" x2="196.908" y2="148.914" gradientUnits="userSpaceOnUse"><stop offset="0" stop-color="#a2d9ff"/><stop offset="1" stop-color="#aedeff"/></linearGradient><linearGradient id="D" x1="193.467" y1="185.706" x2="214.355" y2="185.706" gradientUnits="userSpaceOnUse"><stop offset="0" stop-color="#8fb4f8"/><stop offset="1" stop-color="#2129af"/></linearGradient></defs><g transform="translate(-26.586 -74.457)"><path d="M58.482 74.457c-1.616.002-3.285.107-5.016.328l-.42.055-15.877 9.635a2 2 0 0 0-.695.57c-8.27 7.378-11.065 16.99-9.453 27.56C30.506 138.714 47 157.84 70.834 168.14l.027.012c13.85 5.75 24.543.928 30.38-6.482l27.896 14.043 12.664 15.848 13.19-6.072 8.654 16.586 13.592-3.11 10.377 15.53 18.873-8.006a2 2 0 0 0 .916-.516l10.95-8.055v-5.803L202.45 167.05a2 2 0 0 0-.354-.555l-.12-.19-.21-.105a2 2 0 0 0-.543-.275l-89.56-45.176c-5.024-12.717-9.92-21.653-23.56-34.604l-.113-.11-.13-.1c-9.327-6.412-18.067-11.503-29.38-11.488z" fill="#fff" class="B"/><path d="M50.473 86.584c3.396-.086 6.3.264 8.957.988 5.334 1.45 9.927 4.467 15.793 8.96l.02.016c14.05 10.49 18.785 22.393 21.232 33.885a2 2 0 0 0 .121.512l.137.645.588.29a2 2 0 0 0 .547.27l91.568 45.055 10.992 17.658-95.016-48.5a2 2 0 1 0-1.818 3.563l100.355 51.236.03 2.06-14.877 6.31-10.068-15.07-13.27 3.037-8.986-17.223-13.805 6.355-11.256-14.086-31.695-15.955-.984 1.457c-4.682 6.928-13.338 11.934-26.615 6.434l-.004-.002c-22.805-9.862-38.144-27.668-41.437-52.414l-.004-.04c-1.46-9.56.817-17.366 8.11-23.904 4.394-.93 8.14-1.443 11.385-1.525z" fill="url(#A)" class="B"/><g fill="#fff"><path d="M83.893 121.646a2 2 0 0 0-1.971 2.029v26.594a2 2 0 1 0 4 0v-26.594a2 2 0 0 0-2.029-2.029z" class="B"/><path d="M65.48 131.293c-2.113 3.904-5.513 5.654-10.223 4.21-5.114-2.12-9.7-5.1-12.695-9.69-2.166-3.578-3.9-8.092-3.408-12.294.348-3.735 3.42-7.507 8.753-8.22 4.44-.467 8.79 2.902 12.027 6.615 5.87 6.18 8.062 15.005 5.546 19.377z"/></g><path d="M49.244 110.446l-.067 3.742c2.72 6.182 7.182 8.36 11.893 11.16.556 3.887-.445 6.358-3.475 5.68-4.766-1.598-8.95-4.608-11.426-8.62-3.686-6.146-2.893-13.027 3.074-11.96z" fill="#06f"/><path d="M58.514 78.445c10.15-.046 17.813 4.44 26.94 10.705 12.96 12.33 17.394 20.326 22.184 32.336l-7.97 5.494c-2.774-11.278-8.212-23.322-22.03-33.64h-.002c-5.967-4.568-11.034-7.966-17.154-9.63-3.785-1.03-8-1.278-12.88-.89l6.748-4.096c1.433-.17 2.827-.277 4.164-.283z" fill="url(#B)" class="B"/><path d="M110.273 124.525l86.635 43.7-6.336 5.076-88.14-43.367z" fill="url(#C)" class="B"/><path d="M200.094 170.8l14.262 22.48v2.617l-6.414 4.717-.006-.416a2 2 0 0 0-.008-.596l-.004-.27-.156-.252-.004-.008a2 2 0 0 0-.236-.379l-14.06-22.582z" fill="url(#D)" class="B"/></g></svg>