<svg xmlns="http://www.w3.org/2000/svg" xmlns:xlink="http://www.w3.org/1999/xlink" width="519.957" height="581.182" viewBox="0 0 137.572 153.771"><style><![CDATA[.B{dominant-baseline:auto}]]></style><defs><linearGradient id="A" x1="78.755" y1="211.727" x2="78.358" y2="164.669" xlink:href="#F"><stop offset="0" stop-color="#0e7cfc" stop-opacity=".995"/><stop offset="1" stop-color="#88c6fe"/></linearGradient><linearGradient id="B" x1="108.729" y1="200.268" x2="107.961" y2="139.438" xlink:href="#F"><stop offset="0" stop-color="#bce6fe"/><stop offset="1" stop-color="#10a6fc"/></linearGradient><linearGradient id="C" x1="142.463" y1="210.194" x2="143.453" y2="96.801" xlink:href="#F"><stop offset="0" stop-color="#032098"/><stop offset="1" stop-color="#92bef9"/></linearGradient><linearGradient id="D" x1="130.616" y1="173.653" x2="131.206" y2="67.253" xlink:href="#F"><stop offset="0" stop-color="#0274fc"/><stop offset="1" stop-color="#8ac6fd"/></linearGradient><linearGradient id="E" x1="134.429" y1="100.385" x2="134.302" y2="63.91" xlink:href="#F"><stop offset="0" stop-color="#b2e2fe"/><stop offset="1" stop-color="#0ca5fc"/></linearGradient><linearGradient id="F" gradientUnits="userSpaceOnUse"/></defs><g transform="translate(-39.189 -60.504)"><path d="M94.93 66.65l67.24 33.896.22 73.52-68.437-35.36z" fill="url(#D)" class="B"/><path d="M103 129.24V86.467l45.853 22.68.024 43.963z" fill="#0073fc"/><path d="M106.728 126.9l.003-34.385L145.12 111.4l.024 35.34z" fill="#fff"/><path d="M102.977 63.18l70.634 33.235-11.442 4.13L94.93 66.65z" fill="url(#E)" class="B"/><path d="M173.612 96.416l.835 83.594-65.85 32.08-.15-9.367 53.944-28.658-.22-73.52z" fill="url(#C)" class="B"/><path d="M93.952 138.706l68.437 35.36-53.944 28.658-66.746-38.23z" fill="url(#B)" class="B"/><path d="M41.7 164.495l66.746 38.23.15 9.367L41.62 174.94z" fill="url(#A)" class="B"/><path d="M103.416 60.504l-11.473 5.373.088 71.377-52.842 26.072.04 13.053 69.248 37.896.924-.445 67.36-32.355-.164-86.318zm-.01 4.422l65.957 31.23-6.926 2.453-63.87-31.416zm-7.457 5.438l64.36 31.658v69.115L96.03 137.29zm76.656 28.887l.15 79.71-62.164 29.86.084-5.06 53.635-28.102v-73.47zm-78.602 41.5L158 174.445l-49.28 25.822-63.25-35.584zm-50.8 27.254l63.473 35.707-.084 4.982-63.37-34.68z" fill="#fff" class="B"/></g></svg>