<svg xmlns="http://www.w3.org/2000/svg" width="419.497" height="599.626" viewBox="0 0 110.992 158.651"><defs><linearGradient id="A" x1="54.995" y1="136.018" x2="89.882" y2="136.018" gradientUnits="userSpaceOnUse"><stop offset="0" stop-color="#fff"/><stop offset="1" stop-color="#83b6ff" stop-opacity=".915"/></linearGradient><linearGradient id="B" x1="120.204" y1="172.258" x2="156.637" y2="172.258" gradientUnits="userSpaceOnUse"><stop offset="0" stop-color="#fff"/><stop offset="1" stop-color="#83b6ff"/></linearGradient><linearGradient id="C" x1="85.882" y1="154.513" x2="124.204" y2="154.513" gradientUnits="userSpaceOnUse"><stop offset="0" stop-color="#fff"/><stop offset="1" stop-color="#83b6ff" stop-opacity=".96"/></linearGradient></defs><g transform="translate(-50.35 -66.882)"><path d="M57.744 66.922c-1.556-.2-3.096.375-4.34 1.225-1.66 1.133-3.055 2.982-3.055 5.316v86.662c0 2.54.97 5.166 2.39 7.535s3.288 4.48 5.586 5.666l-.062-.033 90.406 50.762c1.873 1.348 4.492 1.834 7.223 1.21 1.365-.313 2.766-.997 3.81-2.23s1.64-2.952 1.64-4.947V134.9c0-6.365-2.708-11.69-7.512-14.662l-.037-.023-94.498-52.816a4.8 4.8 0 0 0-1.551-.477z" dominant-baseline="auto" fill="#fff"/><path d="M57.498 70.975l94.238 52.672c3.596 2.23 5.605 5.975 5.605 11.254v83.188c0 1.255-.306 1.9-.687 2.36s-.93.752-1.654.918c-1.45.332-3.584-.26-3.994-.557l-.1-.066-90.756-50.97c-1.277-.66-2.855-2.277-3.988-4.168s-1.822-4.055-1.822-5.48V73.463c0-.6.507-1.463 1.313-2.014s1.64-.57 1.836-.475z" dominant-baseline="auto" fill="#06f" fill-opacity=".935"/><path d="M56.995 89.9l30.886 17.623v74.652l-26.4-14.733c-2.26-1.5-4.477-4.608-4.477-8.352z" fill="url(#A)"/><path d="M87.882 107.523l34.322 19.46v74.53l-34.322-19.34z" fill="url(#C)"/><path d="M122.204 126.983l32.434 18.34v72.364c0 1.395-.988 1.564-2.32.8l-30.113-16.975z" fill="url(#B)"/></g></svg>