<svg xmlns="http://www.w3.org/2000/svg" xmlns:xlink="http://www.w3.org/1999/xlink" width="511.049" height="540.215" viewBox="0 0 135.215 142.932"><style><![CDATA[.B{dominant-baseline:auto}]]></style><defs><linearGradient id="A" x1="-64.527" y1="234.672" x2="-64.645" y2="158.131" xlink:href="#G"><stop offset="0" stop-color="#0b299d"/><stop offset="1" stop-color="#8fbaf7"/></linearGradient><linearGradient id="B" x1="-68.538" y1="256.736" x2="-68.425" y2="193.424" xlink:href="#G"><stop offset="0" stop-color="#0d2b9f"/><stop offset="1" stop-color="#8ab4f3"/></linearGradient><linearGradient id="C" x1="-130.85" y1="256.231" x2="-132.298" y2="205.298" xlink:href="#G"><stop offset="0" stop-color="#0777fd"/><stop offset="1" stop-color="#3b97fd"/></linearGradient><linearGradient id="D" x1="-122.615" y1="233.811" x2="-125.301" y2="136.525" xlink:href="#G"><stop offset="0" stop-color="#2187fc"/><stop offset="1" stop-color="#8ac6fd"/></linearGradient><linearGradient id="E" x1="-116.799" y1="164.86" x2="-117.146" y2="125.438" xlink:href="#G"><stop offset="0" stop-color="#b6e3fe"/><stop offset="1" stop-color="#06a2fc"/></linearGradient><path id="F" d="M-122.52 240.888c-1.338-.53-1.703-1.763-1.323-3.07.355-1.218 1.794-1.474 3.19-.898l7.11 3.307c1.43.784 1.608 2.157 1.1 3.33-.488 1.05-1.716.956-2.858.378z"/><linearGradient id="G" gradientUnits="userSpaceOnUse"/></defs><g transform="translate(170.563 -120.922)"><path d="M-93.095 165.203c-1.335 2.5-1.284 5.03-2.198 9.087s-1.752 8.687-2.402 12.937l-.008.05c-2.334 16.766-3.27 31.637-4.45 47.764l-61.085-29.96c2.222-23.22 4.542-45.212 7.954-68.984z" fill="url(#D)" class="B"/><path d="M-163.24 205.08l61.085 29.96c-.733 6.528-2.332 16.814-2.55 23.77l-60.636-29.618 2.1-24.114z" fill="url(#C)" class="B"/><path d="M-156.07 194.42l6.737-47.726 43.26 21.835-6.712 49.1z" fill="#0073fc"/><g fill="#fff"><path d="M-151.937 192.346l5.692-39.875 35.98 18.104-5.546 41.21z"/><use xlink:href="#F"/><use xlink:href="#F" x="-36.933" y="-18.328"/></g><path d="M-155.286 136.096c4.454-5.153 7.542-9.896 13.6-11.135l59.418 30.43c-1.107.634-2.142 1.387-3.135 2.204-2.18 1.794-4.243 3.944-6.21 6l-1.48 1.605z" fill="url(#E)" class="B"/><path d="M-77.758 157.633c1.72.144 3.443.538 4.998 1.415l.168.088c14.25 7.214 21.403 11.238 29.618 18.408 1.712 1.724 4.392 8.667 5.354 15.514l-63.382 43.127c1.19-16.698 2.19-32.154 4.52-49.265l.002-.012c.668-4.457 1.536-9.35 2.45-13.495.874-3.964 1.9-7.193 2.398-8.254 1.882-2 3.756-3.972 5.37-5.33 1.775-1.492 3.288-2.1 3.51-2.116h.018c1.538-.12 3.256-.225 4.978-.08z" fill="url(#A)" class="B"/><path d="M-37.62 193.058c-.86 4.873-4.37 12.6-7.716 18.485l-.022.035-.02.035c-7.832 14.39-19.173 24.77-28.59 31.62h-.002c-8.586 6.252-18.625 11.8-29.344 17.46.382-5.803 1.6-17.04 2.3-24.508z" fill="url(#B)" class="B"/><path d="M-139.774 120.922l-1.135.186c-8.488 1.386-13.153 5.91-18.117 11.69l-.662.77-.146 1.006c-4.77 32.808-7.743 64.68-10.512 96.395l-.217 2.467 66.95 30.418 1.48-.717c11.6-5.628 22.467-11.045 32.03-17.535 8.993-6.098 20-15.396 27.758-28.686 5.13-8.4 6.998-15.455 6.998-23.71v-.148l-.012-.146c-.63-7.49-2.557-15.044-7.055-19.367l-.072-.07-.076-.065c-7.666-6.57-14.636-10.4-26.998-16.525v-.002c-.067-.033-.09-.048-.14-.072l.043.02zm-.996 7.354l54.596 27.96c-1.017.583-1.968 1.275-2.88 2.025-2.004 1.648-3.898 3.624-5.707 5.514l-.336.35-.227.428c-1.226 2.306-1.978 5.32-2.818 9.047s-1.61 7.982-2.207 11.887l-.008.047c-2.144 15.405-3.003 29.07-4.1 43.887l-56.127-27.53c2.063-21.558 4.345-43.2 7.53-65.29 4.093-4.735 6.707-7.188 12.273-8.326zm58.695 26.623zm4.81 6.914c1.485.12 2.972.454 4.314 1.195l.145.075c12.3 6.092 18.475 9.5 25.566 15.545 1.478 1.456 3.79 7.32 4.62 13.102l-54.71 36.42c1.026-14.1 1.89-27.153 3.9-41.604v-.01c.576-3.763 1.326-7.895 2.115-11.396.755-3.347 1.648-6.075 2.07-6.97 1.625-1.69 3.242-3.355 4.635-4.5 1.532-1.26 2.838-1.773 3.03-1.787h.016c1.328-.1 2.8-.2 4.297-.068zm34.225 38.605c-.772 4.076-2.293 7.968-5.295 12.883l-.02.03-.018.03c-7.03 12.037-17.208 20.72-25.658 26.45h-.002c-7.706 5.23-16.716 9.87-26.336 14.604.342-4.854 1.627-11.092 2.264-17.338zm-118.236 8.926l56.11 27.52c-.673 5.57-2.14 11.595-2.34 17.533l-55.635-25.28 1.863-19.773z" fill="#fff" class="B"/></g></svg>