<svg xmlns="http://www.w3.org/2000/svg" xmlns:xlink="http://www.w3.org/1999/xlink" width="739.593" height="704.462" viewBox="0 0 195.684 186.389"><style><![CDATA[.B{dominant-baseline:auto}]]></style><defs><linearGradient id="A" x1="261.958" y1="438.763" x2="262.301" y2="227.267" xlink:href="#J"><stop offset="0" stop-color="#a6dbff"/><stop offset="1" stop-color="#c0e5ff"/></linearGradient><linearGradient id="B" x1="432.147" y1="488.323" x2="429.758" y2="353.973" xlink:href="#J"><stop offset="0" stop-color="#84cdff"/><stop offset="1" stop-color="#a2d9ff"/></linearGradient><linearGradient id="C" x1="571.896" y1="591.857" x2="577.281" y2="404.556" xlink:href="#J"><stop offset="0" stop-color="#c0e5ff"/><stop offset="1" stop-color="#8acfff"/></linearGradient><linearGradient id="D" x1="672.487" y1="890.302" x2="670.8" y2="509.475" xlink:href="#J"><stop offset="0" stop-color="#1014a4"/><stop offset="1" stop-color="#8baff6"/></linearGradient><linearGradient id="E" x1="540.281" y1="879.607" x2="540.281" y2="592.307" xlink:href="#J"><stop offset="0" stop-color="#06f"/><stop offset="1" stop-color="#06f"/></linearGradient><linearGradient id="F" x1="465.858" y1="872.575" x2="464.162" y2="505.889" xlink:href="#J"><stop offset="0" stop-color="#1373ff"/><stop offset="1" stop-color="#6fb0ff"/></linearGradient><linearGradient id="G" x1="329.159" y1="460.05" x2="330.009" y2="788.269" xlink:href="#J"><stop offset="0" stop-color="#cce2ff"/><stop offset="1" stop-color="#80bcff"/></linearGradient><linearGradient id="H" x1="180.513" y1="738.515" x2="180.136" y2="349.606" xlink:href="#J"><stop offset="0" stop-color="#5ca3ff"/><stop offset="1" stop-color="#98cbff"/></linearGradient><linearGradient id="I" x1="65.049" y1="626.236" x2="67.906" y2="343.811" xlink:href="#J"><stop offset="0" stop-color="#06f" stop-opacity=".965"/><stop offset="1" stop-color="#06f"/></linearGradient><linearGradient id="J" gradientUnits="userSpaceOnUse"/></defs><g transform="translate(-7.715 -55.357)" class="B"><path d="M58.83 55.357L7.715 83.178v81.984l143.642 76.584 52.04-28.863v-82.94z" fill="#fff"/><g transform="scale(.26458333)"><path d="M222.54 226.336L461.3 349.5l-173.605 92.84-234.95-123.6z" fill="url(#A)"/><path d="M44.277 331.38l23.63 12.43-2.857 282.426-20.77-11.074z" fill="url(#I)"/><path d="M77.307 348.756l201.824 106.17v285.45L74.447 631.248z" fill="url(#H)"/><path d="M471.496 354.77l80.5 41.525-172.654 94.262-81.535-42.893z" fill="url(#B)"/><path d="M562.13 401.525l183.035 94.428-173.268 95.904-182.527-96.02z" fill="url(#C)"/><path d="M288.58 459.898l79.945 42.055v286.082l-79.945-42.623z" fill="url(#G)"/><path d="M377.975 506.924l152.857 80.412V874.57l-152.857-81.496z" fill="url(#F)"/><path d="M753.633 508.54v287.154l-174.08 96.555V604.902z" fill="url(#D)"/><path d="M540.28 592.307l24.152 12.705v287.473l-24.152-12.877z" fill="url(#E)"/></g><path d="M81.436 135.637v22.717l.754.326 11.465 4.97v-22.5z" fill="#039"/><path d="M83.936 139.5l7.22 3.264v17.068l-7.22-3.13z" fill="#fff"/></g></svg>