<svg xmlns="http://www.w3.org/2000/svg" width="482.34" height="667.884" viewBox="0 0 127.619 176.711"><style><![CDATA[.B{dominant-baseline:auto}]]></style><defs><linearGradient id="A" x1="141.765" y1="230.897" x2="140.517" y2="96.995" gradientUnits="userSpaceOnUse"><stop offset="0" stop-color="#090c9f"/><stop offset="1" stop-color="#92b7fa"/></linearGradient><linearGradient id="B" x1="111.607" y1="119.715" x2="111.491" y2="64.441" gradientUnits="userSpaceOnUse"><stop offset="0" stop-color="#61bfff"/><stop offset="1" stop-color="#bfe5ff"/></linearGradient><linearGradient id="C" x1="90.125" y1="227.108" x2="91.1" y2="109.242" gradientUnits="userSpaceOnUse"><stop offset="0" stop-color="#1674ff"/><stop offset="1" stop-color="#8ec5ff" stop-opacity=".995"/></linearGradient><linearGradient id="D" x1="66.523" y1="215.824" x2="66.09" y2="97.156" gradientUnits="userSpaceOnUse"><stop offset="0" stop-color="#38f"/><stop offset="1" stop-color="#98cbff"/></linearGradient></defs><g transform="translate(-43.625 -59.781)" class="B"><path d="M103.842 59.78L43.637 88.605 43.625 204l66.977 32.492 60.643-29.234V92.64z" fill="#fff"/><path d="M103.826 64.225l60.852 29.666-53.07 25.824-61.37-29.834z" fill="url(#B)"/><path d="M47.637 93.063l4.775 2.32-.043 108.414-4.744-2.3z" fill="#06f"/><path d="M167.244 97.088v107.658l-54.61 26.326.963-107.88z" fill="url(#A)"/><path d="M56.4 97.328l19.568 9.512-.273 108.277-19.338-9.38z" fill="url(#D)"/><path d="M79.973 108.783l21.283 10.346-.437 108.17L79.7 217.057z" fill="url(#C)"/><path d="M105.248 121.07l4.348 2.113-.965 107.906-3.82-1.854z" fill="#06f"/></g></svg>