<svg xmlns="http://www.w3.org/2000/svg" xmlns:xlink="http://www.w3.org/1999/xlink" width="546.21" height="499.801" viewBox="0 0 144.518 132.239"><style><![CDATA[.B{dominant-baseline:auto}]]></style><defs><linearGradient id="A" xlink:href="#P"><stop offset="0" stop-color="#0f2da0"/><stop offset="1" stop-color="#89b3f3"/></linearGradient><linearGradient id="B" xlink:href="#P"><stop offset="0" stop-color="#1c84fd"/><stop offset="1" stop-color="#89c6fe"/></linearGradient><linearGradient id="C" xlink:href="#P"><stop offset="0" stop-color="#98cffe"/><stop offset="1" stop-color="#98cffe"/></linearGradient><linearGradient id="D" xlink:href="#P"><stop offset="0" stop-color="#1b82fc"/><stop offset="1" stop-color="#deedff"/></linearGradient><linearGradient xlink:href="#D" id="E" x1="325.447" y1="159.211" x2="324.979" y2="137.171"/><linearGradient xlink:href="#C" id="F" x1="334.627" y1="170.555" x2="334.988" y2="157.901"/><linearGradient xlink:href="#B" id="G" x1="317.028" y1="207.48" x2="317.344" y2="160.64"/><linearGradient xlink:href="#A" id="H" x1="344.628" y1="206.836" x2="344.098" y2="167.017"/><linearGradient xlink:href="#C" id="I" x1="238.276" y1="170.555" x2="237.915" y2="157.901"/><linearGradient xlink:href="#B" id="J" x1="255.876" y1="207.48" x2="255.559" y2="160.64"/><linearGradient xlink:href="#A" id="K" x1="228.276" y1="206.836" x2="228.805" y2="167.017"/><linearGradient xlink:href="#D" id="L" x1="247.457" y1="159.211" x2="247.925" y2="137.171"/><linearGradient id="M" x1="326.359" y1="258.568" x2="325.786" y2="219.484" xlink:href="#P"><stop offset="0" stop-color="#0f2ea0"/><stop offset="1" stop-color="#89b3f3"/></linearGradient><linearGradient id="N" x1="251.524" y1="258.193" x2="250.401" y2="220.027" xlink:href="#P"><stop offset="0" stop-color="#0f7cfc"/><stop offset="1" stop-color="#b1d9fe"/></linearGradient><linearGradient id="O" x1="287.266" y1="246.183" x2="286.568" y2="186.741" xlink:href="#P"><stop offset="0" stop-color="#acdffe"/><stop offset="1" stop-color="#09a3fc"/></linearGradient><linearGradient id="P" gradientUnits="userSpaceOnUse"/></defs><g transform="translate(-215.68 -133.171)" class="B"><path d="M318.725 144.786l-21.39 11.26.398 40.156 1.172.52 35.785 15.975 21.28-11.355.19-40.162z" fill="#fff"/><path d="M318.885 149.22l30.674 13.434-14.932 7.9-30.676-13.473z" fill="url(#F)"/><path d="M301.38 160.32l31.324 13.758-.082 33.314-30.912-13.8z" fill="url(#G)"/><path d="M352.14 165.813l-.158 33.125-15.36 8.197.082-33.154z" fill="url(#H)"/><path d="M324.98 133.17c-8.417 0-15.283 6.866-15.283 15.283s6.866 15.283 15.283 15.283 15.283-6.866 15.283-15.283-6.866-15.283-15.283-15.283z" fill="#fff" paint-order="normal"/><path d="M324.98 137.17c6.255 0 11.283 5.028 11.283 11.283s-5.028 11.283-11.283 11.283-11.283-5.028-11.283-11.283 5.028-11.283 11.283-11.283z" fill="url(#E)" paint-order="normal"/><path d="M254.18 144.786l21.39 11.26-.398 40.156-1.172.52-35.785 15.975-21.28-11.355-.19-40.162z" fill="#fff"/><path d="M254.018 149.22l-30.674 13.434 14.932 7.9 30.676-13.473z" fill="url(#I)"/><path d="M271.524 160.32L240.2 174.08l.082 33.314 30.912-13.8z" fill="url(#J)"/><path d="M220.763 165.813l.158 33.125 15.36 8.197-.082-33.154z" fill="url(#K)"/><path d="M247.925 133.17c8.417 0 15.283 6.866 15.283 15.283s-6.866 15.283-15.283 15.283-15.283-6.866-15.283-15.283 6.866-15.283 15.283-15.283z" fill="#fff" paint-order="normal"/><path d="M247.925 137.17c-6.255 0-11.283 5.028-11.283 11.283s5.028 11.283 11.283 11.283 11.283-5.028 11.283-11.283-5.028-11.283-11.283-11.283z" fill="url(#L)" paint-order="normal"/><path d="M286.45 181.284l-70.77 32.865.46 17.105 71.146 34.154 72.912-36.717v-16.98z" fill="#fff"/><path d="M286.568 186.74l65.13 26.873-64.434 32.568-63.195-30.418z" fill="url(#O)"/><path d="M355.197 217.45v8.162l-65.43 32.95.02-8.05z" fill="url(#M)"/><path d="M220.832 219.755l63.957 30.787-.022 8.113-63.713-30.586z" fill="url(#N)"/></g></svg>