<svg xmlns="http://www.w3.org/2000/svg" width="532.743" height="438.52" viewBox="0 0 140.955 116.025"><style><![CDATA[.B{dominant-baseline:auto}]]></style><defs><linearGradient id="A" x1="115.851" y1="190.464" x2="118.036" y2="121.241" gradientUnits="userSpaceOnUse"><stop offset="0" stop-color="#c0e5ff"/><stop offset="1" stop-color="#64c1ff"/></linearGradient><linearGradient id="B" x1="83.742" y1="224.588" x2="83.207" y2="163.383" gradientUnits="userSpaceOnUse"><stop offset="0" stop-color="#086bff"/><stop offset="1" stop-color="#9cf"/></linearGradient><linearGradient id="C" x1="177.553" y1="224.321" x2="177.821" y2="156.969" gradientUnits="userSpaceOnUse"><stop offset="0" stop-color="#080a9e"/><stop offset="1" stop-color="#7998ea"/></linearGradient></defs><g transform="translate(-60.88 -116.078)" class="B"><path d="M138.7 116.078l-77.8 40.87.068 41.396 1.348.697 62.518 33.06 77.02-39.243v-41.285z" fill="#fff"/><path d="M138.643 121.687l55.297 31.42-69.26 37.98-55.87-32.507z" fill="url(#A)"/><path d="M65.9 162.686l56.285 32.73.14 29.764-56.373-29.88z" fill="url(#B)"/><path d="M196.835 157.235v32.533l-69.52 35.497-.14-29.842z" fill="url(#C)"/><path d="M111.035 201.435v7.125l5.715 3.006v-7.125zm-11.96-6.29v7.125l5.95 3.13v-7.125zm-11.962-6.292v7.126l5.95 3.13v-7.126z" fill="#fff"/></g></svg>