<svg xmlns="http://www.w3.org/2000/svg" xmlns:xlink="http://www.w3.org/1999/xlink" width="723.024" height="654.1" viewBox="0 0 191.3 173.064"><style><![CDATA[.B{dominant-baseline:auto}]]></style><defs><linearGradient id="A" x1="20.785" y1="134.942" x2="162.636" y2="133.976" xlink:href="#K"><stop offset="0" stop-color="#fe5d02"/><stop offset="1" stop-color="#fff835"/></linearGradient><linearGradient xlink:href="#C" id="B" x1="136.532" y1="199.278" x2="136.687" y2="177.86"/><linearGradient id="C" xlink:href="#K"><stop offset="0" stop-color="#2c6dc9"/><stop offset="1" stop-color="#94cdfe"/></linearGradient><linearGradient xlink:href="#C" id="D" x1="40.373" y1="199.278" x2="40.528" y2="177.86"/><linearGradient xlink:href="#C" id="E" x1="88.453" y1="199.278" x2="88.608" y2="177.86"/><linearGradient xlink:href="#C" id="F" x1="88.811" y1="138.206" x2="89.149" y2="94.599"/><linearGradient id="G" x1="161.547" y1="171.593" x2="160.956" y2="143.776" xlink:href="#K"><stop offset="0" stop-color="#1b82fc"/><stop offset="1" stop-color="#deedff"/></linearGradient><linearGradient id="H" x1="185.756" y1="231.703" x2="185.088" y2="181.445" xlink:href="#K"><stop offset="0" stop-color="#0f2da0"/><stop offset="1" stop-color="#89b3f3"/></linearGradient><linearGradient id="I" x1="150.921" y1="232.515" x2="151.321" y2="173.398" xlink:href="#K"><stop offset="0" stop-color="#1c84fd"/><stop offset="1" stop-color="#89c6fe"/></linearGradient><linearGradient id="J" x1="173.134" y1="185.912" x2="173.59" y2="169.941" xlink:href="#K"><stop offset="0" stop-color="#98cffe"/><stop offset="1" stop-color="#98cffe"/></linearGradient><linearGradient id="K" gradientUnits="userSpaceOnUse"/></defs><g transform="translate(-9.015 -66.038)"><path d="M9.015 66.038v157.64h167.533V66.038z" fill="#fff" paint-order="normal" class="B"/><path d="M15.587 73.647v142.325h152.83V73.647z" fill="#00a0fc" paint-order="normal" class="B"/><path d="M20.742 78.546h142.786v132.257H20.742z" fill="url(#A)" paint-order="normal" class="B"/><path d="M83.83 135.248v22.8H40.167v21.83h4.472V162.52H83.83v18.98h4.472v-18.98h47.923v18.86h4.472V158.05H88.302v-22.8z" fill="#2c6dc9" class="B"/><path d="M125.256 177.876h22.015v21.487h-22.015z" fill="url(#B)" paint-order="normal"/><path d="M29.096 177.876h22.015v21.487H29.096z" fill="url(#D)" paint-order="normal"/><path d="M77.176 177.876H99.19v21.487H77.176z" fill="url(#E)" paint-order="normal"/><path d="M64.225 94.63h48v43.747h-48z" fill="url(#F)" paint-order="normal"/><path d="M153.063 153.387l-26.995 14.21.503 50.683 1.48.658 45.166 20.162 26.86-14.332.24-50.7z" fill="#fff" class="B"/><path d="M153.265 158.985l38.715 16.955-18.846 9.97-38.717-17.004z" fill="url(#J)" class="B"/><path d="M131.17 172.995l39.535 17.364-.103 42.047L131.587 215z" fill="url(#I)" class="B"/><path d="M195.24 179.927l-.2 41.808-19.388 10.346.103-41.845z" fill="url(#H)" class="B"/><path d="M160.956 138.727c-10.623 0-19.29 8.666-19.29 19.29s8.666 19.29 19.29 19.29 19.29-8.666 19.29-19.29-8.666-19.29-19.29-19.29z" fill="#fff" paint-order="normal" class="B"/><path d="M160.956 143.776c7.895 0 14.24 6.346 14.24 14.24s-6.346 14.24-14.24 14.24-14.24-6.346-14.24-14.24 6.346-14.24 14.24-14.24z" fill="url(#G)" paint-order="normal" class="B"/></g></svg>