<svg xmlns="http://www.w3.org/2000/svg" xmlns:xlink="http://www.w3.org/1999/xlink" width="589.406" height="673.863" viewBox="0 0 155.947 178.293"><style><![CDATA[.B{dominant-baseline:auto}]]></style><defs><linearGradient id="A" x1="208.073" y1="347.756" x2="205.216" y2="141.327" xlink:href="#F"><stop offset="0" stop-color="#bfe5ff"/><stop offset="1" stop-color="#6ec5ff"/></linearGradient><linearGradient id="B" x1="51.379" y1="176.139" x2="116.5" y2="176.139" xlink:href="#F"><stop offset="0" stop-color="#9cf"/><stop offset="1" stop-color="#c0d9ff"/></linearGradient><linearGradient id="C" x1="128.557" y1="234.459" x2="128.557" y2="155.347" xlink:href="#F"><stop offset="0" stop-color="#c0e5ff"/><stop offset="1" stop-color="#34adff"/></linearGradient><linearGradient id="D" x1="149.671" y1="232.054" x2="149.136" y2="145.458" xlink:href="#F"><stop offset="0" stop-color="#0e12a3"/><stop offset="1" stop-color="#94bafc"/></linearGradient><linearGradient id="E" x1="305.048" y1="141.685" x2="573.922" y2="138.297" xlink:href="#F"><stop offset="0" stop-color="#8dc4ff" stop-opacity=".94"/><stop offset="1" stop-color="#3d8fff"/></linearGradient><linearGradient id="F" gradientUnits="userSpaceOnUse"/></defs><g transform="translate(-47.379 -59.535)" class="B"><path d="M179.8 59.538c-5.086-.082-10.2 1.255-15.162 3.438-7.562 3.326-14.892 8.614-21.748 14.166l-.045.037-.043.04c-6.077 5.525-16.67 17.988-18.18 31.8L93.427 92.04l-24.248.042-21.8 13.396v94.16l70.615 38.19h20.348l22.45-12.832v-96.29l-17.64-9.6c.088-3.136.38-6.014.964-8.73 1.31-6.08 4.03-11.43 9.436-17.385 7.747-7.962 12.515-12.136 21.972-13.683l.022-.004.022-.004c4.522-.843 6.89-.106 8.242 1.148s2.02 3.47 2.02 6.44v14.97c0 2.114.94 4.054 2.293 5.6s3.22 2.758 5.455 2.758c2.133 0 4.423-.738 6.34-2.252s3.4-3.954 3.4-6.964v-15.06c0-5.81-1.105-11.078-3.644-15.424s-6.542-7.698-11.93-9.584h-.004l-.004-.002a25.21 25.21 0 0 0-5.768-1.256c-.725-.07-1.45-.112-2.178-.124z" fill="#fff"/><g transform="matrix(.264583 0 0 .264583 47.378906 59.468703)"><path d="M168.11 136.9l123.088 67.324-.727 70.64c0 24.557 17.83 42.592 37.47 42.592 9.333 0 17.246-5.626 23.904-13.146s11.885-17.643 11.885-29.004v-.28l-.023-.28c-.843-11.4-1.456-21.923-1.71-31.795l51.53 28.186V306.2l-73.73 41.797H270.71L15.117 210.88v-28.213l76.28-44.852z" fill="url(#A)"/><path d="M346.73 234.61c.047 12.65.8 26.115 1.875 40.734-.01 6.5-3.384 13.657-8.076 18.957-4.7 5.308-10.9 8.047-12.586 8.047-10.068 0-22.35-10.167-22.354-27.47v-.008l.893-79.684c2.42-47.374 42.392-96.898 64.217-116.785 25.395-20.552 52.192-39.7 78.572-51.305 17.356-7.635 34.333-12.012 50.822-11.752 2.356.037 4.702.168 7.037.398v.002c6.228.614 12.38 1.93 18.455 4.023 17.365 6.083 29.13 16.108 37 29.564 7.866 13.465 11.715 30.64 11.715 50.668v56.916c0 6.64-2.83 11.05-7.146 14.46s-10.3 5.256-14.586 5.256c-2.444 0-6.25-1.87-9.27-5.3s-4.895-8.092-4.895-11.133v-56.574c0-13.445-2.916-26.55-12.47-35.418-9.537-8.853-24.423-11.78-44.113-8.127-39.41 6.468-61.776 25.65-91.498 56.205l-.1.096-.088.096c-21.833 24.04-33.8 47.237-39.293 72.742-1.95 9.053-3.094 18.37-3.662 28.117z" fill="url(#E)"/></g><path d="M51.38 119.805l65.12 34.936v77.732l-65.12-35.22z" fill="url(#B)"/><path d="M156.79 145.082v77.592l-16.98 9.707V154.71z" fill="url(#D)"/><path d="M120.5 155.543h15.31v78.285H120.5z" fill="url(#C)"/></g></svg>