<svg xmlns="http://www.w3.org/2000/svg" xmlns:xlink="http://www.w3.org/1999/xlink" width="361.338" height="671.546" viewBox="0 0 95.604 177.68"><style><![CDATA[.B{dominant-baseline:auto}]]></style><defs><linearGradient id="A" x1="140.361" y1="214.086" x2="142.795" y2="112.779" gradientUnits="userSpaceOnUse"><stop offset="0" stop-color="#222bb0"/><stop offset="1" stop-color="#7694e7"/></linearGradient><linearGradient id="B" x1="67.609" y1="92.513" x2="142.443" y2="92.513" gradientUnits="userSpaceOnUse"><stop offset="0" stop-color="#bde4ff"/><stop offset="1" stop-color="#8ad0ff"/></linearGradient><linearGradient id="C" x1="95.148" y1="231.519" x2="97.019" y2="78.106" gradientUnits="userSpaceOnUse"><stop offset="0" stop-color="#0b6dff"/><stop offset="1" stop-color="#9cf" stop-opacity=".95"/></linearGradient><path id="D" d="M76.64 201.585c-4.57-2.7-5.813-5.02-5.813-8.553 0-2.146 1.92-4.825 5.078-3.408 3.708 1.978 5.412 4.428 5.412 8.553 0 2.688-2.8 4.352-4.677 3.408z"/></defs><g transform="translate(-55.719 -59.275)"><path d="M143.445 59.275c-1.266.013-2.5.354-3.596.916-2.172 1.124-3.935 3.022-5.105 5.213L122.33 88.92 75.898 67.305a2 2 0 0 0-1.721.016l-11.98 5.832.035-.016c-3.522 1.632-6.514 5.2-6.514 9.402l.018 98.658a2 2 0 0 0 .172.813l13.357 30.053a2 2 0 0 0 .916.967l45.035 23.076c.045.023.1.043.137.063 1.442.607 3.018.795 4.506.787s2.8-.118 4.05-.81c.045-.024.088-.05.13-.078l14.3-9.355a2 2 0 0 0 .703-.797l7.6-15.58a2 2 0 0 0 .203-.879l-.05-99.88c-.001-2.86-1.655-5.713-3.783-8.463-1.594-2.06-3.465-3.98-5.588-5.19l12.742-23.752c.01-.016.017-.032.025-.05 1.045-2.085 1.414-4.335.9-6.44s-1.882-3.98-3.89-5.328l-.04-.025c-1.173-.75-2.46-1.064-3.727-1.05z" fill="#fff" class="B"/><path d="M134.076 98.8c1.508.44 3.962 2.425 5.77 4.76 1.4 1.82 2.224 3.687 2.598 4.938l-10.635 5.195c-.5-1.572-1.2-3.147-2.164-4.705-1.543-2.52-3.314-4.8-5.506-6l-.072-.037L67.61 74.967l7.465-3.635 47.293 22.018z" fill="url(#B)" class="B"/><path d="M63.303 77.295L122.22 106.5c.842.462 2.69 2.427 4.014 4.586s2.193 4.688 2.193 5.518l-.533 100.363-6.428 15.76c-.346.088-.814.234-1.63.238-1.064.005-2.24-.2-2.912-.47l-44.29-22.695-12.898-29.02-.018-98.232c0-1.787 1.73-4.055 3.584-5.244z" fill="url(#C)" class="B"/><path d="M142.795 112.78l.05 95.473-10.934 5.775.512-96.182z" fill="url(#A)" class="B"/><path d="M140.36 214.086l-4.674 9.58-8.47 5.54 4.252-10.424z" fill="#191fa9" class="B"/><path d="M69.684 95.05a1.5 1.5 0 0 0-1.451 1.498v79.932a1.5 1.5 0 0 0 .814 1.334l48.518 24.93a1.5 1.5 0 0 0 2.186-1.334v-80.355a1.5 1.5 0 0 0-.824-1.338L70.408 95.21a1.5 1.5 0 0 0-.725-.16z" fill="#06f" class="B"/><g fill="#fff"><path d="M71.232 98.986l45.518 23v76.975l-45.518-23.39z" class="B"/><use xlink:href="#D"/><use xlink:href="#D" x="12.327" y="10.789"/><use xlink:href="#D" x="25.156" y="17.405"/><use xlink:href="#D" x="38.12" y="19.609"/></g><path d="M98.168 142.883l40.1-75.604c.817-1.524 2.14-2.878 3.4-3.535.636-.33 1.203-.51 1.744-.525.535-.014 1.044.14 1.57.473 1.303.882 1.954 1.86 2.207 2.918.255 1.065.112 2.306-.594 3.715l-40.67 75.693-7.854 5.497z" fill="#039" class="B"/></g></svg>