<svg xmlns="http://www.w3.org/2000/svg" width="714.671" height="561.929" viewBox="0 0 189.09 148.677"><style><![CDATA[.B{dominant-baseline:auto}]]></style><defs><linearGradient id="A" x1="121.897" y1="205.53" x2="121.708" y2="83.632" gradientUnits="userSpaceOnUse"><stop offset="0" stop-color="#c0e5ff" stop-opacity=".985"/><stop offset="1" stop-color="#52b9ff"/></linearGradient><linearGradient id="B" x1="151.379" y1="221.783" x2="151.002" y2="112.359" gradientUnits="userSpaceOnUse"><stop offset="0" stop-color="#0c0ea1"/><stop offset="1" stop-color="#6d88e1" stop-opacity=".945"/></linearGradient><linearGradient id="C" x1="14.529" y1="196.836" x2="86.719" y2="196.836" gradientUnits="userSpaceOnUse"><stop offset="0" stop-color="#97cbff"/><stop offset="1" stop-color="#579bff" stop-opacity=".894"/></linearGradient></defs><g transform="translate(-10.489 -78.579)" class="B"><path d="M149.605 78.58a2 2 0 0 0-1.592.881l-18.12 26.86-6.568-3.357c-.594-4.85-3.5-10.088-7.203-13.113a2 2 0 0 0-.057-.043c-6.755-5.12-16.642-5.647-23.13-4.17-2.073.413-4.408 1.74-7.654 3.684-3.257 1.95-7.2 4.536-11.46 7.426l-26.187 18.27c-12.286 8.153-22.09 15.35-25.996 26.22a2 2 0 0 0-.043.141c-1.2 4.317-1.327 10.864 1.164 16.037L11.5 166.56a2 2 0 0 0-.977 2.049l.113 20a2 2 0 0 0 1.131 1.791l75.795 36.506a2 2 0 0 0 2.301-.025l108.62-54.443a2 2 0 0 0 1.104-1.797l-.332-65.88a2 2 0 0 0-1.393-2.125l-47.28-23.84a2 2 0 0 0-.967-.213z" fill="#fff"/><path d="M150.344 83.158l44.088 22.23-13.967 23.52-92.002 76.98-72.334-37.943 9.037-7.332c3.434 2.948 8.47 4.72 14.746 5.525 6.488 1.098 13.6-1.488 17.55-5.025a2 2 0 0 0 .07-.066c4.014-3.957 6.545-9.2 8.094-13.5a2 2 0 0 0 .035-1.25c-.82-2.74-2-4.633-2.98-6.447-.83-1.55-1.498-3.202-1.97-5.443l23.988-19.215c3.496 2.85 9.24 7.55 16.285 8.666a2 2 0 0 0 .148.018c3.277.27 7.31-.28 11.025-1.543s7.208-3.185 8.887-6.4a2 2 0 0 0 .039-.078c1.417-3.038 1.904-5.845 2.164-8.418l6.404 3.273a2 2 0 0 0 2.568-.662z" fill="url(#A)"/><path d="M154.938 93.48a2 2 0 0 0-1.748.932l-8.752 13.898a2 2 0 0 0 .865 2.887l27.662 12.563a2 2 0 0 0 2.523-.762l8.686-13.898a2 2 0 0 0-.867-2.879L155.71 93.658a2 2 0 0 0-.773-.178z" fill="#06f"/><path d="M155.645 98.023l23.93 10.893-6.55 10.477-23.982-10.89z" fill="#fff"/><path d="M137.404 118.2a2 2 0 0 0-1.26.424l-60.736 47.508a2 2 0 0 0 .414 3.4l27.596 12.36a2 2 0 0 0 2.123-.311l57.195-49.31a2 2 0 0 0-.502-3.346l-24.055-10.56a2 2 0 0 0-.775-.168z" fill="#06f"/><path d="M137.668 122.514l20.055 8.8-53.83 46.4-23.408-10.486z" fill="#fff"/><path d="M98.396 89.008c5.087-.136 11.27.99 15.225 3.973 2.826 2.323 5.78 7.987 5.912 11.35-.074 2.846-.43 6.237-2.057 9.754-.855 1.62-3.43 3.37-6.607 4.45-3.16 1.074-6.805 1.533-9.33 1.34-5.022-.82-9.743-4.27-13.262-7.03 3.457-2.094 9.014-4.888 13.018-6.766a2 2 0 1 0-1.697-3.621c-4.73 2.22-12.054 5.63-15.74 8.363a2 2 0 0 0-.42.248 2 2 0 0 0-.025.018 2 2 0 0 0-.004.004l-26.193 20.98a2 2 0 0 0-.727 1.865c.53 3.446 1.61 5.823 2.664 7.79.94 1.76 1.777 3.228 2.424 5.086-1.435 3.813-3.667 8.218-6.814 11.34-2.765 2.456-9.38 4.865-14.2 4.043a2 2 0 0 0-.084-.012c-6.582-.837-11.316-2.837-13.66-5.383-2.26-3.65-2.366-10.664-1.38-14.285 3.393-9.338 12.274-16.114 24.445-24.19a2 2 0 0 0 .037-.025l26.146-18.242c4.228-2.868 8.13-5.422 11.27-7.303s5.754-3.074 6.393-3.2a2 2 0 0 0 .063-.014c1.33-.305 2.906-.5 4.605-.535z" fill="#06f" fill-opacity=".925"/><path d="M195.28 111.79l.29 57.627-104.88 52.57.027-12.768 92.576-77.46a2 2 0 0 0 .436-.514z" fill="url(#B)"/><path d="M14.53 171.623l72.19 37.87-.027 12.557-72.072-34.713z" fill="url(#C)"/></g></svg>