<svg xmlns="http://www.w3.org/2000/svg" width="889.406" height="589.259" viewBox="0 0 235.322 155.908"><style><![CDATA[.B{dominant-baseline:auto}]]></style><defs><linearGradient id="A" x1="112.689" y1="171.807" x2="218.785" y2="171.807" gradientUnits="userSpaceOnUse"><stop offset="0" stop-color="#81a1ef"/><stop offset="1" stop-color="#090c9f"/></linearGradient><linearGradient id="B" x1="23.867" y1="179.755" x2="108.689" y2="179.755" gradientUnits="userSpaceOnUse"><stop offset="0" stop-color="#95caff"/><stop offset="1" stop-color="#1d79ff"/></linearGradient><linearGradient id="C" x1="143.14" y1="172.117" x2="141.552" y2="75.544" gradientUnits="userSpaceOnUse"><stop offset="0" stop-color="#c0e5ff"/><stop offset="1" stop-color="#50b9ff"/></linearGradient></defs><g transform="translate(12.537 -71.158)"><path d="M132.488 71.158a2 2 0 0 0-.922.25l-110.668 61.4a2 2 0 0 0-1.031 1.748v33.393l-31.295 15.547a2 2 0 0 0-.062 3.549l45.643 24.775a2 2 0 0 0 1.92-.006l20.47-11.27 53.262 26.307a2 2 0 0 0 1.842-.037l110.096-59.828a2 2 0 0 0 1.045-1.758V118.65a2 2 0 0 0-1.084-1.777L133.453 71.38a2 2 0 0 0-.965-.223z" fill="#fff" class="B"/><path d="M132.57 75.426l83.824 43.21-105.758 53.736-84.314-37.992z" fill="url(#C)" class="B"/><path d="M218.785 121.9v42.137L112.69 221.703v-45.887z" fill="url(#A)" class="B"/><path d="M23.867 137.662l84.822 38.22v45.965l-84.822-42.33z" fill="url(#B)" class="B"/><path d="M47.44 158.98a1.4 1.4 0 0 0-.668.143l-50.598 24.97a1.4 1.4 0 0 0-.051 2.486l38.37 20.877a1.4 1.4 0 0 0 1.348-.004l50.63-28.027a1.4 1.4 0 0 0-.088-2.494L47.98 159.11a1.4 1.4 0 0 0-.541-.129z" fill="#06f" class="B"/><g fill="#fff" class="B"><path d="M47.4 161.932l35.295 16.377-47.55 26.32L-.168 185.4zm79.877-69.957a1.5 1.5 0 0 0-.723.189l-66.082 36.95c-1.038.582-1.018 2.083.035 2.637l50.314 26.393a1.5 1.5 0 0 0 1.383.006l68.182-35.13c1.073-.553 1.086-2.082.023-2.654l-52.412-28.213a1.5 1.5 0 0 0-.721-.18z"/><path d="M127.3 95.186l49.246 26.422-65.022 33.52-47.17-24.744z"/></g><path d="M64.355 130.383L127.3 95.186l49.246 26.422-18.014 9.268-31.18-14.35-61.316 14.74z" fill="#06f"/><path d="M129.245 113.52l.067-17.21 47.235 25.3-13.913 7.184z" fill="#09f"/></g></svg>