<svg xmlns="http://www.w3.org/2000/svg" width="739.313" height="565.98" viewBox="0 0 195.61 149.749"><style><![CDATA[.B{dominant-baseline:auto}]]></style><defs><linearGradient id="A" x1="106.908" y1="168.443" x2="107.175" y2="98.686" gradientUnits="userSpaceOnUse"><stop offset="0" stop-color="#b7e4fe"/><stop offset="1" stop-color="#09a3fc"/></linearGradient><linearGradient id="B" x1="143.442" y1="192.301" x2="143.064" y2="141.085" gradientUnits="userSpaceOnUse"><stop offset="0" stop-color="#0c2a9e"/><stop offset="1" stop-color="#7da6eb"/></linearGradient><linearGradient id="C" x1="78.619" y1="192.301" x2="79.375" y2="134.092" gradientUnits="userSpaceOnUse"><stop offset="0" stop-color="#0c7afc"/><stop offset="1" stop-color="#85c4fe"/></linearGradient></defs><g transform="translate(-9.315 -73.602)"><path d="M104.743 223.35H9.315v-62.845L40.97 177.86l37.77-30.005-42.736-28.4-26.688 19.43V73.602h90.2L70.573 97.147l37.942 26.182 34.84-26.074-33.99-23.653h95.56v61.384L176.68 117.63l-39.966 33.395 39.794 26.6 28.417-21.163v66.89h-90.684l29.15-21.633-36.272-24.822-33.055 24.816z" fill="#ef790f" fill-opacity=".985"/><path d="M100.127 93.146l-58.05 35.77v26.043l71.55 43.69 57.064-35.205v-27.812z" fill="#fff" class="B"/><path d="M100.15 97.83l64.746 38.984-51.305 32.727-65.668-39.527z" fill="url(#A)" class="B"/><path d="M46.078 133.572l65.545 39.45v19.72l-65.545-40.025z" fill="url(#C)" class="B"/><path d="M166.693 140.414v20.8l-51.07 31.506V173z" fill="url(#B)" class="B"/><path d="M93.036 176.75v-9.594l8.5 5.13-.024 9.485zm-16.38-9.923v-9.594l8.5 5.13-.024 9.485zm-16.38-9.923v-9.594l8.5 5.13-.024 9.485z" fill="#fff"/></g></svg>