<svg xmlns="http://www.w3.org/2000/svg" xmlns:xlink="http://www.w3.org/1999/xlink" width="428.644" height="674.113" viewBox="0 0 113.412 178.359"><style><![CDATA[.B{dominant-baseline:auto}]]></style><defs><linearGradient id="A" x1="68.816" y1="101.562" x2="139.486" y2="101.562" xlink:href="#F"><stop offset="0" stop-color="#93c8ff"/><stop offset="1" stop-color="#1373ff"/></linearGradient><linearGradient id="B" x1="102.432" y1="151.479" x2="101.676" y2="96.862" xlink:href="#F"><stop offset="0" stop-color="#bfe5ff"/><stop offset="1" stop-color="#6cc4ff"/></linearGradient><linearGradient id="C" x1="51.379" y1="176.139" x2="116.5" y2="176.139" xlink:href="#F"><stop offset="0" stop-color="#9cf"/><stop offset="1" stop-color="#c0d9ff"/></linearGradient><linearGradient id="D" x1="128.557" y1="234.459" x2="128.557" y2="155.347" xlink:href="#F"><stop offset="0" stop-color="#c0e5ff"/><stop offset="1" stop-color="#34adff"/></linearGradient><linearGradient id="E" x1="149.671" y1="232.054" x2="149.136" y2="145.458" xlink:href="#F"><stop offset="0" stop-color="#0e12a3"/><stop offset="1" stop-color="#94bafc"/></linearGradient><linearGradient id="F" gradientUnits="userSpaceOnUse"/></defs><g transform="translate(-47.379 -59.469)" class="B"><path d="M88 79.07c3.2.013 8.532 1.794 14.477 4.742 12.36 7.538 20.29 16.4 21.94 27.543L84.12 91.69l-.004-8.22c-.11-1.974.306-2.948.836-3.494s1.443-.915 3.05-.908zm2.338-19.602c-5.81 0-12.025 2.01-16.94 5.58s-8.582 8.87-8.582 15.262v15.21l-17.437 9.955v94.16l70.615 38.19h20.348l22.45-12.832v-96.29l-17.305-8.412v-6.04c0-12.978-5.48-25.223-16.693-35.86l-.04-.035c-7.626-6.87-20.708-18.3-36.342-18.887h-.037z" fill="#fff"/><path d="M90.303 63.473c13.692.535 26.194 11.03 33.736 17.822 10.583 10.046 15.447 21.094 15.447 32.96v20.715c0 1.37-.59 2.38-1.775 3.24s-3.002 1.44-5.078 1.44c-1.273 0-3.88-1.78-3.88-4.95l-.002-17.422c.673-15.686-9.157-27.74-24.277-36.94l-.072-.045-.076-.037c-6.22-3.092-11.78-5.17-16.307-5.187-2.264-.01-4.425.564-5.937 2.12s-2.108 3.848-1.96 6.506v-.11 25.6c0 .658-.442 1.303-1.854 1.996s-3.574 1.148-5.77 1.148c-.898 0-1.78-.516-2.512-1.387s-1.153-2.094-1.168-2.555V80.31c0-4.87 2.757-8.99 6.934-12.025 4.166-3.027 9.696-4.804 14.553-4.812z" fill="url(#A)"/><path d="M84.12 96.14l40.6 19.81.045 1.158-.002.043v17.55c0 5.22 3.842 8.95 7.88 8.95 2.796 0 5.406-.736 7.428-2.203s3.426-3.798 3.426-6.48v-10.227l13.305 6.467v9.275l-19.508 11.06h-18.28l-67.625-36.28V107.8l13.438-7.672.002 8.377c.056 1.78.835 3.496 2.105 5.006s3.193 2.81 5.572 2.81c2.71 0 5.36-.5 7.533-1.557s4.1-2.996 4.1-5.588z" fill="url(#B)"/><path d="M51.38 119.805l65.12 34.936v77.732l-65.12-35.22z" fill="url(#C)"/><path d="M156.79 145.082v77.592l-16.98 9.707V154.71z" fill="url(#E)"/><path d="M120.5 155.543h15.31v78.285H120.5z" fill="url(#D)"/></g></svg>