<svg xmlns="http://www.w3.org/2000/svg" xmlns:xlink="http://www.w3.org/1999/xlink" width="479.305" height="762.418" viewBox="0 0 126.816 201.723"><style><![CDATA[.B{dominant-baseline:auto}]]></style><defs><linearGradient id="A" x1="68.816" y1="101.562" x2="139.486" y2="101.562" xlink:href="#J"><stop offset="0" stop-color="#93c8ff"/><stop offset="1" stop-color="#1373ff"/></linearGradient><linearGradient id="B" x1="102.432" y1="151.479" x2="101.676" y2="96.862" xlink:href="#J"><stop offset="0" stop-color="#bfe5ff"/><stop offset="1" stop-color="#6cc4ff"/></linearGradient><linearGradient id="C" x1="51.379" y1="176.139" x2="116.5" y2="176.139" xlink:href="#J"><stop offset="0" stop-color="#9cf"/><stop offset="1" stop-color="#c0d9ff"/></linearGradient><linearGradient id="D" x1="128.557" y1="234.459" x2="128.557" y2="155.347" xlink:href="#J"><stop offset="0" stop-color="#c0e5ff"/><stop offset="1" stop-color="#34adff"/></linearGradient><linearGradient id="E" x1="149.671" y1="232.054" x2="149.136" y2="145.458" xlink:href="#J"><stop offset="0" stop-color="#0e12a3"/><stop offset="1" stop-color="#94bafc"/></linearGradient><linearGradient id="F" x1="36.324" y1="221.88" x2="138.916" y2="221.88" xlink:href="#J"><stop offset="0" stop-color="#b2d9ff"/><stop offset="1" stop-color="#0b6dff"/></linearGradient><linearGradient id="G" x1="46.407" y1="195.062" x2="81.922" y2="195.062" xlink:href="#J"><stop offset="0" stop-color="#bfe4ff"/><stop offset="1" stop-color="#a5daff"/></linearGradient><linearGradient id="H" x1="78.843" y1="222.394" x2="134.733" y2="222.394" xlink:href="#J"><stop offset="0" stop-color="#a2d9ff"/><stop offset="1" stop-color="#aedeff"/></linearGradient><linearGradient id="I" x1="132.697" y1="244.159" x2="145.054" y2="244.159" xlink:href="#J"><stop offset="0" stop-color="#8fb4f8"/><stop offset="1" stop-color="#2129af"/></linearGradient><linearGradient id="J" gradientUnits="userSpaceOnUse"/></defs><g transform="translate(-33.975 -59.469)"><path d="M88 79.07c3.2.013 8.532 1.794 14.477 4.742 12.36 7.538 20.29 16.4 21.94 27.543L84.12 91.69l-.004-8.22c-.11-1.974.306-2.948.836-3.494s1.443-.915 3.05-.908zm2.338-19.602c-5.81 0-12.025 2.01-16.94 5.58s-8.582 8.87-8.582 15.262v15.21l-17.437 9.955v94.16l70.615 38.19h20.348l22.45-12.832v-96.29l-17.305-8.412v-6.04c0-12.978-5.48-25.223-16.693-35.86l-.04-.035c-7.626-6.87-20.708-18.3-36.342-18.887h-.037z" fill="#fff" class="B"/><path d="M90.303 63.473c13.692.535 26.194 11.03 33.736 17.822 10.583 10.046 15.447 21.094 15.447 32.96v20.715c0 1.37-.59 2.38-1.775 3.24s-3.002 1.44-5.078 1.44c-1.273 0-3.88-1.78-3.88-4.95l-.002-17.422c.673-15.686-9.157-27.74-24.277-36.94l-.072-.045-.076-.037c-6.22-3.092-11.78-5.17-16.307-5.187-2.264-.01-4.425.564-5.937 2.12s-2.108 3.848-1.96 6.506v-.11 25.6c0 .658-.442 1.303-1.854 1.996s-3.574 1.148-5.77 1.148c-.898 0-1.78-.516-2.512-1.387s-1.153-2.094-1.168-2.555V80.31c0-4.87 2.757-8.99 6.934-12.025 4.166-3.027 9.696-4.804 14.553-4.812z" fill="url(#A)" class="B"/><path d="M84.12 96.14l40.6 19.81.045 1.158-.002.043v17.55c0 5.22 3.842 8.95 7.88 8.95 2.796 0 5.406-.736 7.428-2.203s3.426-3.798 3.426-6.48v-10.227l13.305 6.467v9.275l-19.508 11.06h-18.28l-67.625-36.28V107.8l13.438-7.672.002 8.377c.056 1.78.835 3.496 2.105 5.006s3.193 2.81 5.572 2.81c2.71 0 5.36-.5 7.533-1.557s4.1-2.996 4.1-5.588z" fill="url(#B)" class="B"/><path d="M51.38 119.805l65.12 34.936v77.732l-65.12-35.22z" fill="url(#C)" class="B"/><path d="M156.79 145.082v77.592l-16.98 9.707V154.71z" fill="url(#E)" class="B"/><path d="M120.5 155.543h15.31v78.285H120.5z" fill="url(#D)" class="B"/><path d="M52.844 178.347c-.956.001-1.944.063-2.967.194l-.248.032-9.392 5.7a1.183 1.183 0 0 0-.411.337c-4.892 4.364-6.546 10.05-5.592 16.304 2.062 15.445 11.825 26.76 25.918 32.853l.016.008c8.194 3.402 14.52.55 17.973-3.835l16.503 8.307 7.492 9.375 7.803-3.592 5.12 9.812 8.04-1.84 6.14 9.188 11.165-4.736a1.183 1.183 0 0 0 .542-.305l6.478-4.765v-3.433l-9.41-14.83a1.183 1.183 0 0 0-.209-.328l-.07-.112-.125-.062a1.183 1.183 0 0 0-.321-.163l-52.98-26.725c-2.972-7.523-5.87-12.81-13.938-20.47l-.067-.065-.077-.053c-5.517-3.793-10.688-6.805-17.38-6.796z" fill="#fff" class="B"/><path d="M48.105 185.52c2.01-.05 3.72.156 5.3.585 3.155.857 5.873 2.643 9.343 5.3l.012.01c8.312 6.205 11.113 13.247 12.56 20.045a1.183 1.183 0 0 0 .072.303l.08.38.348.17a1.183 1.183 0 0 0 .324.159l54.17 26.653 6.503 10.446-56.21-28.697a1.183 1.183 0 1 0-1.076 2.107l59.368 30.3.017 1.22-8.8 3.733-5.956-8.915-7.85 1.797-5.316-10.188-8.166 3.76-6.66-8.333-18.75-9.44-.582.862c-2.77 4.098-7.9 7.06-15.745 3.806l-.002-.001c-13.49-5.834-22.565-16.368-24.513-31.007l-.002-.023c-.864-5.655.483-10.273 4.798-14.14 2.6-.55 4.816-.854 6.735-.902z" fill="url(#F)" class="B"/><g fill="#fff"><path d="M67.876 206.263a1.183 1.183 0 0 0-1.166 1.2v15.732a1.183 1.183 0 1 0 2.366 0v-15.732a1.183 1.183 0 0 0-1.2-1.2z" class="B"/><path d="M56.984 211.97c-1.25 2.3-3.26 3.345-6.048 2.5-3.025-1.253-5.738-3.016-7.5-5.73-1.282-2.116-2.307-4.787-2.016-7.273.206-2.2 2.024-4.44 5.178-4.862 2.627-.276 5.2 1.717 7.115 3.913 3.473 3.656 4.77 8.877 3.28 11.463z"/></g><path d="M47.38 199.637l-.04 2.214c1.61 3.657 4.25 4.945 7.036 6.6.33 2.3-.263 3.76-2.055 3.36-2.82-.945-5.294-2.726-6.76-5.1-2.18-3.636-1.712-7.706 1.818-7.075z" fill="#06f"/><path d="M52.862 180.706c6.004-.027 10.538 2.626 15.937 6.333 7.667 7.293 10.3 12.024 13.123 19.13l-4.714 3.25c-1.64-6.672-4.858-13.796-13.033-19.9h-.001c-3.53-2.703-6.528-4.712-10.148-5.696-2.24-.608-4.732-.756-7.62-.526l3.992-2.423c.848-.1 1.672-.164 2.463-.168z" fill="url(#G)" class="B"/><path d="M83.482 207.966l51.25 25.852-3.748 3.003-52.142-25.655z" fill="url(#H)" class="B"/><path d="M136.617 235.34l8.437 13.3v1.548l-3.794 2.8-.004-.246a1.183 1.183 0 0 0-.005-.352l-.002-.16-.092-.15-.002-.005a1.183 1.183 0 0 0-.14-.224l-8.318-13.36z" fill="url(#I)" class="B"/></g></svg>