<svg xmlns="http://www.w3.org/2000/svg" xmlns:xlink="http://www.w3.org/1999/xlink" width="782.687" height="782.695" viewBox="0 0 207.086 207.088"><style><![CDATA[.B{dominant-baseline:auto}.C{fill:#fff}.D{stroke-width:3.938}]]></style><defs><linearGradient id="A" gradientUnits="userSpaceOnUse"><stop offset="0" stop-color="#05239a"/><stop offset="1" stop-color="#91bcf8"/></linearGradient><linearGradient id="B" gradientUnits="userSpaceOnUse"><stop offset="0" stop-color="#0677fc"/><stop offset="1" stop-color="#8fcafe"/></linearGradient><linearGradient id="C" gradientUnits="userSpaceOnUse"><stop offset="0" stop-color="#a8defe"/><stop offset="1" stop-color="#12a7fc"/></linearGradient><linearGradient xlink:href="#A" id="D" x1="51.569" y1="155.679" x2="51.754" y2="79.522"/><linearGradient xlink:href="#B" id="E" x1="27.814" y1="150.56" x2="27.495" y2="87.25"/><linearGradient xlink:href="#C" id="F" x1="44.481" y1="95.56" x2="44.578" y2="70.213"/><linearGradient id="G" x1="107.487" y1="239.367" x2="108.804" y2="57.377" gradientUnits="userSpaceOnUse"><stop offset="0" stop-color="#fec225"/><stop offset="1" stop-color="#e3611e"/></linearGradient><linearGradient xlink:href="#A" id="H" x1="140.712" y1="246.944" x2="140.992" y2="131.525"/><linearGradient xlink:href="#B" id="I" x1="104.711" y1="239.186" x2="104.227" y2="143.237"/><linearGradient xlink:href="#C" id="J" x1="129.97" y1="155.831" x2="130.117" y2="117.416"/><linearGradient xlink:href="#A" id="K" x1="185.845" y1="223.223" x2="186.031" y2="147.066"/><linearGradient xlink:href="#B" id="L" x1="162.091" y1="218.103" x2="161.772" y2="154.794"/><linearGradient xlink:href="#C" id="M" x1="178.758" y1="163.104" x2="178.855" y2="137.757"/><path id="N" d="M23.932 107.633v1.145l5.743 3.15v-1.145z"/><path id="O" d="M164.673 222.22l-48.518 25.816v-91.784l48.518-26.17z"/><path id="P" d="M116.155 248.037L91.906 234.64v-91.66l24.248 13.272"/><path id="Q" d="M164.673 130.08l-48.518 26.17-24.248-13.272 48.367-25.8z"/><path id="R" d="M98.826 174.128v1.736l8.704 4.776v-1.736z"/><path id="S" d="M116.155 156.252l48.518-26.17zm0 91.784v-91.784L91.906 142.98m24.248 105.056L91.906 234.64v-91.66l48.367-25.8 24.4 12.91v92.14z"/></defs><g transform="translate(-5.551 -44.779)"><path d="M109.094 44.78C51.932 44.78 5.55 91.16 5.55 148.322s46.38 103.545 103.543 103.545 103.543-46.383 103.543-103.545S166.255 44.78 109.094 44.78z" paint-order="normal" class="B C"/><circle cx="109.235" cy="148.52" r="92.472" fill="url(#G)" paint-order="normal"/><path d="M67.38 139.366L35.365 156.4V95.838L67.38 78.57z" fill="url(#D)"/><path d="M35.365 156.4l-16-8.84V112.17l10.16-19.528 5.84 3.196" fill="url(#E)"/><path d="M67.38 78.57L35.365 95.838l-4.717-2.582L46.35 72.68l4.928-2.63z" fill="url(#F)"/><g class="C B"><use xlink:href="#N"/><use xlink:href="#N" y="5.781"/><path d="M51.28 71.52l13.34 7.06L35.37 94.36l-5.137-2.812-.954 2.44 4.79 2.62V154.2l-13.402-7.404v-35.013l-2.598 4.143v32.403l17.287 9.55.62-.33 32.703-17.4v-62.36l-17.4-9.207zm14.8 9.225v57.84l-29.416 15.652V96.615z"/></g><g transform="matrix(.659828 0 0 .659828 -6.785823 8.688279)"><use xlink:href="#O" fill="url(#H)"/><use xlink:href="#P" fill="url(#I)"/><use xlink:href="#Q" fill="url(#J)"/><g class="C B"><use xlink:href="#R"/><use xlink:href="#R" y="8.762"/></g><use xlink:href="#S" fill="none" stroke="#fff" class="D"/></g><g transform="matrix(.659828 0 0 .659828 24.586201 28.721017)"><use xlink:href="#O" fill="url(#H)"/><use xlink:href="#P" fill="url(#I)"/><use xlink:href="#Q" fill="url(#J)"/><g class="C B"><use xlink:href="#R"/><use xlink:href="#R" y="8.762"/></g><use xlink:href="#S" fill="none" stroke="#fff" class="D"/></g><g transform="matrix(.659828 0 0 .659828 55.958226 45.729945)"><use xlink:href="#O" fill="url(#H)"/><use xlink:href="#P" fill="url(#I)"/><use xlink:href="#Q" fill="url(#J)"/><g class="C B"><use xlink:href="#R"/><use xlink:href="#R" y="8.762"/></g><use xlink:href="#S" fill="none" stroke="#fff" class="D"/></g><path d="M169.642 223.944v-60.562l32.014-17.268v27.274c-4.946 16.437-11.366 33.378-32.014 50.556z" fill="url(#K)"/><path d="M169.642 223.944l-16-8.84v-60.48l16 8.757" fill="url(#L)"/><path d="M201.656 146.113l-32.014 17.268-16-8.757 31.914-17.03z" fill="url(#M)"/><g class="C B"><use xlink:href="#N" x="134.276" y="67.543"/><use xlink:href="#N" x="134.276" y="73.324"/><path d="M202.955 170.582v-25.25l-17.402-9.207-33.21 17.723v62.025l17.287 9.55.62-.332.7-3.31v-57.625l29.414-15.867v24.163zm-17.396-31.515l13.34 7.06-29.252 15.777-13.27-7.264zm-30.617 17.75l13.4 7.336v57.6l-13.4-7.404z"/></g><path d="M109.094 48.78c-55 0-99.543 44.543-99.543 99.543s44.543 99.545 99.543 99.545 99.543-44.545 99.543-99.545-44.543-99.543-99.543-99.543zm0 7.072a92.47 92.47 0 0 1 92.472 92.472 92.47 92.47 0 0 1-92.472 92.472 92.47 92.47 0 0 1-92.472-92.472 92.47 92.47 0 0 1 92.472-92.472z" fill="#0073fc" paint-order="normal" class="B"/></g></svg>