<svg xmlns="http://www.w3.org/2000/svg" xmlns:xlink="http://www.w3.org/1999/xlink" width="533.397" height="652.116" viewBox="0 0 141.128 172.539"><style><![CDATA[.B{dominant-baseline:auto}]]></style><defs><linearGradient xlink:href="#B" id="A" x1="115.851" y1="190.464" x2="118.036" y2="121.241"/><linearGradient id="B" gradientUnits="userSpaceOnUse"><stop offset="0" stop-color="#c0e5ff"/><stop offset="1" stop-color="#64c1ff"/></linearGradient><linearGradient xlink:href="#D" id="C" x1="83.742" y1="224.588" x2="83.207" y2="163.383"/><linearGradient id="D" gradientUnits="userSpaceOnUse"><stop offset="0" stop-color="#086bff"/><stop offset="1" stop-color="#9cf"/></linearGradient><linearGradient xlink:href="#F" id="E" x1="177.553" y1="224.321" x2="177.821" y2="156.969"/><linearGradient id="F" gradientUnits="userSpaceOnUse"><stop offset="0" stop-color="#080a9e"/><stop offset="1" stop-color="#7998ea"/></linearGradient><linearGradient xlink:href="#B" id="G" x1="115.678" y1="133.95" x2="117.862" y2="64.727"/><linearGradient xlink:href="#D" id="H" x1="83.568" y1="168.074" x2="83.033" y2="106.869"/><linearGradient xlink:href="#F" id="I" x1="177.38" y1="167.807" x2="177.647" y2="100.455"/><path id="J" d="M111.035 201.435v7.125l5.715 3.006v-7.125zm-11.96-6.29v7.125l5.95 3.13v-7.125zm-11.962-6.292v7.126l5.95 3.13v-7.126z"/></defs><g transform="translate(-60.706 -59.564)" class="B"><path d="M138.7 116.078l-77.8 40.87.068 41.396 1.348.697 62.518 33.06 77.02-39.243v-41.285z" fill="#fff"/><path d="M138.643 121.687l55.297 31.42-69.26 37.98-55.87-32.507z" fill="url(#A)"/><path d="M65.9 162.686l56.285 32.73.14 29.764-56.373-29.88z" fill="url(#C)"/><path d="M196.835 157.235v32.533l-69.52 35.497-.14-29.842z" fill="url(#E)"/><g fill="#fff"><use xlink:href="#J"/><path d="M138.516 59.564l-77.8 40.87.068 41.396 1.348.697 62.518 33.06 77.02-39.243V95.06z"/></g><path d="M138.47 65.173l55.297 31.42-69.26 37.98-55.87-32.507z" fill="url(#G)"/><path d="M65.716 106.172L122 138.9l.14 29.764-56.373-29.88z" fill="url(#H)"/><path d="M196.66 100.72v32.533l-69.52 35.497-.14-29.842z" fill="url(#I)"/><use xlink:href="#J" x="-0.175" y="-56.515" fill="#fff"/></g></svg>