<svg xmlns="http://www.w3.org/2000/svg" xmlns:xlink="http://www.w3.org/1999/xlink" width="495.606" height="466.337" viewBox="0 0 131.129 123.385"><style><![CDATA[.B{dominant-baseline:auto}]]></style><defs><linearGradient id="A" x1="56.926" y1="155.719" x2="167.953" y2="154.963" gradientUnits="userSpaceOnUse"><stop offset="0" stop-color="#fe5d02"/><stop offset="1" stop-color="#fff835"/></linearGradient><linearGradient xlink:href="#C" id="B" x1="147.521" y1="206.075" x2="147.643" y2="189.312"/><linearGradient id="C" gradientUnits="userSpaceOnUse"><stop offset="0" stop-color="#2c6dc9"/><stop offset="1" stop-color="#94cdfe"/></linearGradient><linearGradient xlink:href="#C" id="D" x1="72.257" y1="206.075" x2="72.378" y2="189.312"/><linearGradient xlink:href="#C" id="E" x1="109.889" y1="206.075" x2="110.011" y2="189.312"/><linearGradient xlink:href="#C" id="F" x1="110.17" y1="158.274" x2="110.434" y2="124.142"/></defs><g transform="translate(-47.713 -101.788)"><path d="M47.713 101.788v123.385h131.13V101.788z" fill="#fff" paint-order="normal" class="B"/><path d="M52.857 107.744v111.4h119.62v-111.4z" fill="#00a0fc" paint-order="normal" class="B"/><path d="M56.892 111.578h111.76v103.518H56.892z" fill="url(#A)" paint-order="normal" class="B"/><path d="M106.272 155.96v17.846H72.096v17.086h3.5v-13.586h30.676v14.855h3.5v-14.855h37.5v14.762h3.5v-18.262h-41V155.96z" fill="#2c6dc9" class="B"/><path d="M138.695 189.323h17.232v16.818h-17.232z" fill="url(#B)" paint-order="normal"/><path d="M63.43 189.323h17.232v16.818H63.43z" fill="url(#D)" paint-order="normal"/><path d="M101.063 189.323h17.232v16.818h-17.232z" fill="url(#E)" paint-order="normal"/><path d="M90.926 124.166h37.57v34.24h-37.57z" fill="url(#F)" paint-order="normal"/></g></svg>