<svg xmlns="http://www.w3.org/2000/svg" xmlns:xlink="http://www.w3.org/1999/xlink" width="643.37" height="553.678" viewBox="0 0 170.225 146.494"><style><![CDATA[.B{dominant-baseline:auto}]]></style><defs><linearGradient id="A" gradientUnits="userSpaceOnUse"><stop offset="0" stop-color="#2c6dc9"/><stop offset="1" stop-color="#94cdfe"/></linearGradient><linearGradient xlink:href="#A" id="B" x1="94.646" y1="134.75" x2="94.91" y2="100.619"/><linearGradient id="C" x1="-3.199" y1="131.439" x2="150.539" y2="131.439" gradientUnits="userSpaceOnUse"><stop offset="0" stop-color="#fe5d02"/><stop offset="1" stop-color="#fff835"/></linearGradient><linearGradient xlink:href="#A" id="D" x1="56.733" y1="182.552" x2="56.855" y2="165.788"/><linearGradient xlink:href="#A" id="E" x1="94.366" y1="182.552" x2="94.487" y2="165.788"/><linearGradient xlink:href="#A" id="F" x1="131.998" y1="182.552" x2="132.119" y2="165.788"/></defs><g transform="translate(11.71 -57.885)"><path d="M-11.7 57.885V204.38h170.225V57.885z" fill="#fff" paint-order="normal" class="B"/><path d="M-6.7 63.04v136.8H154.04V63.04z" fill="#00a0fc" paint-order="normal" class="B"/><path d="M-3.2 66.54H150.54v129.8H-3.2z" fill="url(#C)" paint-order="normal" class="B"/><path d="M90.748 132.436v17.846H56.572v17.086h3.5V153.78h30.676v14.855h3.5V153.78h37.5v14.762h3.5V150.28h-41v-17.846z" fill="#2c6dc9" class="B"/><path d="M-3.2 66.54h153.73v23.193H-3.2z" fill="#0073fc" fill-opacity=".95" paint-order="normal"/><path d="M92.203 69.9h10.366v10.38H92.203z" fill="#fff" paint-order="normal"/><path d="M-3.2 89.732h37.4v103.085H-3.2z" fill="#7eb9fd" paint-order="normal"/><path d="M110.98 69.89h10.366v10.38H110.98z" fill="#fff" paint-order="normal"/><path d="M129.755 69.89h10.366v10.38h-10.366z" fill="#fd1800" paint-order="normal"/><path d="M123.17 165.8h17.232v16.818H123.17z" fill="url(#F)" paint-order="normal"/><path d="M47.907 165.8H65.14v16.818H47.907z" fill="url(#D)" paint-order="normal"/><path d="M85.54 165.8h17.232v16.818H85.54z" fill="url(#E)" paint-order="normal"/><path d="M75.402 100.643h37.57v34.24h-37.57z" fill="url(#B)" paint-order="normal"/></g></svg>