<svg xmlns="http://www.w3.org/2000/svg" xmlns:xlink="http://www.w3.org/1999/xlink" width="676.596" height="676.116" viewBox="0 0 179.016 178.889"><style><![CDATA[.B{dominant-baseline:auto}]]></style><defs><linearGradient id="A" x1="106.908" y1="168.443" x2="107.175" y2="98.686" xlink:href="#F"><stop offset="0" stop-color="#b7e4fe"/><stop offset="1" stop-color="#09a3fc"/></linearGradient><linearGradient id="B" x1="143.442" y1="192.301" x2="143.064" y2="141.085" xlink:href="#F"><stop offset="0" stop-color="#0c2a9e"/><stop offset="1" stop-color="#7da6eb"/></linearGradient><linearGradient id="C" x1="78.619" y1="192.301" x2="79.375" y2="134.092" xlink:href="#F"><stop offset="0" stop-color="#0c7afc"/><stop offset="1" stop-color="#85c4fe"/></linearGradient><linearGradient id="D" x1="112.259" y1="228.964" x2="112.259" y2="154.125" xlink:href="#F"><stop offset="0" stop-color="#f07c10"/><stop offset="1" stop-color="#f6a21b"/></linearGradient><linearGradient id="E" x1="110.747" y1="133.714" x2="110.666" y2="59.174" xlink:href="#F"><stop offset="0" stop-color="#f9b922"/><stop offset="1" stop-color="#ffdf2e"/></linearGradient><linearGradient id="F" gradientUnits="userSpaceOnUse"/></defs><g transform="translate(-17.363 -55.115)"><path d="M110.8 55.174c-27.92-.72-45.503 5.166-69.514 18.195l-.016.01-.014.008c-18.777 10.61-25.84 26.1-22.406 39.076 2.528 11.162 13.54 23.662 22.825 29.292l1.1.668 1.063-.725 27.458-23.47-1.94-1.703c-3.02-2.65-5.115-4.913-6.348-6.807s-1.6-3.32-1.47-4.62c.258-2.59 3.046-5.7 8.834-9.777 8.206-5.12 18.362-6.94 29.45-8.19l-.002.002c12.692-1.418 24.54 1.072 36.416 4.105 7.778 2.102 11.292 4.394 14.775 8.234l-14.12 11.295h59.488l-.11-50.283-17.57 15.078c-23.242-12.743-45.755-19.098-67.836-20.385l-.033-.002z" fill="#fff" class="B"/><path d="M110.666 59.174c21.855 1.28 44.127 7.596 67.332 20.535l1.217.68 13.074-11.217.082 37.596h-44.076l8.47-6.777-1.293-1.566c-4.33-5.247-8.922-8.545-18.22-11.053l-.014-.004-.012-.002c-11.983-3.06-24.374-5.714-37.853-4.21h-.002c-11.257 1.27-22.066 3.1-31.17 8.797l-.1.06c-6.07 4.266-10.08 7.905-10.557 12.688-.238 2.39.543 4.81 2.1 7.2 1.21 1.857 3.04 3.804 5.215 5.863l-22.116 19.833c-8.01-5.206-17.893-16.633-20.015-26.056l-.02-.074c-2.902-10.91 2.765-24.563 20.473-34.58l.008-.004c23.73-12.876 40.158-18.41 67.465-17.71z" fill="url(#E)" class="B"/><path d="M167.434 147.516l-1.234.98-27.207 21.602 1.98 1.566c3.004 2.376 6.05 5.298 8.104 8.4 2.03 3.077 3.06 6.227 2.516 9.396-1.186 3.73-2.812 5.45-6.566 6.95-3.798 1.517-9.822 2.474-18.75 3.72-21.09 2.413-31.56.464-49.873-2.773H76.4c-6.968-1.293-11.456-3.918-14.85-7.648l17.475-15.137-61.555 1.398-.107 52.016 17.48-12.27c19.096 11.46 42.392 15.98 66.213 17.773 9.338 1.203 22.47.134 35.06-2.047 12.597-2.182 24.518-5.44 31.486-9.027l.062-.035c4.543-2.548 10.87-6.534 16.19-11.756s9.73-11.773 9.873-19.428c.234-7.993-2.113-16.374-7.36-23.783-5.148-7.544-10.14-13.038-17.69-18.94z" fill="#fff" class="B"/><path d="M167.412 152.643c6.563 5.295 10.98 10.186 15.672 17.066l.01.016.01.014c4.755 6.713 6.837 14.233 6.625 21.37v.023c-.112 6.143-3.766 11.83-8.676 16.65-4.9 4.81-10.946 8.65-15.31 11.102-6.17 3.17-17.98 6.495-30.307 8.63-12.344 2.14-25.332 3.122-33.88 2.018h-.012-.01c-24.975-.985-50.38-9.052-66.074-17.86l-1.06-.514-13.02 9.14.082-40.4 46.547-1.057L55.94 189.29l1.162 1.498c4.088 5.267 10.006 8.928 18.586 10.518l.016.004c18.31 3.237 29.547 5.27 51.053 2.807l.023-.004h.025c8.966-1.252 15.132-2.145 19.705-3.973s7.504-4.942 8.953-9.605l.035-.115.022-.117c.823-4.5-.693-8.776-3.105-12.43-1.942-2.942-4.503-5.45-7.098-7.686z" fill="url(#D)" class="B"/><path d="M100.127 93.146l-58.05 35.77v26.043l71.55 43.69 57.064-35.205v-27.812z" fill="#fff" class="B"/><path d="M100.15 97.83l64.746 38.984-51.305 32.727-65.668-39.527z" fill="url(#A)" class="B"/><path d="M46.078 133.572l65.545 39.45v19.72l-65.545-40.025z" fill="url(#C)" class="B"/><path d="M166.693 140.414v20.8l-51.07 31.506V173z" fill="url(#B)" class="B"/><path d="M93.036 176.75v-9.594l8.5 5.13-.024 9.485zm-16.38-9.923v-9.594l8.5 5.13-.024 9.485zm-16.38-9.923v-9.594l8.5 5.13-.024 9.485z" fill="#fff"/></g></svg>