<svg xmlns="http://www.w3.org/2000/svg" width="520.668" height="712.006" viewBox="0 0 137.76 188.385"><style><![CDATA[.B{dominant-baseline:auto}]]></style><defs><linearGradient id="A" x1="166.509" y1="238.468" x2="165.974" y2="128.086" gradientUnits="userSpaceOnUse"><stop offset="0" stop-color="#0d11a2"/><stop offset="1" stop-color="#8cb0f6"/></linearGradient><linearGradient id="B" x1="102.632" y1="67.148" x2="105.304" y2="239.27" gradientUnits="userSpaceOnUse"><stop offset="0" stop-color="#9cf"/><stop offset="1" stop-color="#056aff"/></linearGradient><linearGradient id="C" x1="48.377" y1="94.277" x2="171.568" y2="94.277" gradientUnits="userSpaceOnUse"><stop offset="0" stop-color="#82ccff"/><stop offset="1" stop-color="#bfe5ff"/></linearGradient></defs><g transform="translate(-38.328 -56.009)"><path d="M56.846 56.023c-1.604-.1-3.24.34-4.797 1.242l-8.414 4.44-3.205 1.828c-.472.33-.91.678-1.31 1.16-.154.186-.176.546-.307.795-.066.097-.158.155-.22.26l.098.057c-.13.323-.365.542-.365.943v106.54c0 5.38.97 9.45 2.844 12.645s4.6 5.4 7.723 7.22l.053.03.057.027 99.533 49.998c2.973 1.283 6.957 1.49 9.73.777l.246-.062 12.422-6.848c2.942-1.84 5.152-4.812 5.152-8.166V125.346c0-1.643-.706-3.025-1.61-4.455s-2.09-2.87-3.393-4.234c-2.603-2.732-5.492-5.127-8.012-6.174l.158.074-101.775-53.07c-1.525-.79-3.006-1.363-4.61-1.463z" fill="#fff" class="B"/><path d="M56.596 60.016c.786.05 1.744.365 3.02 1.025l101.922 53.137c1.32.548 4.32 2.794 6.648 5.238 1.164 1.222 2.206 2.503 2.9 3.615.335.528.31.698.47 1.1l-12.182 4.416c-.878-5.372-4.13-10.917-9.357-13.95l-.05-.03-100.52-50.5c-.327-.15-.725-.215-1.082-.332l5.68-2.998c1.05-.61 1.753-.76 2.54-.71z" fill="url(#C)" class="B"/><path d="M44.188 67.08c1.286-.057 2.858.27 3.594.61l100.258 50.38c4.624 2.696 7.73 8.79 7.73 13.19v108.88c-1.807.055-4.48-.105-5.637-.6L50.89 189.686c-2.784-1.626-4.84-3.343-6.27-5.777-1.433-2.44-2.293-5.714-2.293-10.62V67.664c.223-.194.734-.534 1.86-.584z" fill="url(#B)" class="B"/><path d="M172.088 128.2v100.713c0 1.368-1.3 3.532-3.264 4.766l-9.055 5V132.662z" fill="url(#A)" class="B"/><path d="M61.043 88.94a2.25 2.25 0 0 0-2.199 2.25v85.662a2.25 2.25 0 0 0 1.221 2.002l77.057 39.643a2.25 2.25 0 0 0 3.279-2v-85.44a2.25 2.25 0 0 0-1.215-1.998l-77.06-39.87a2.25 2.25 0 0 0-1.084-.25z" fill="#06f" class="B"/><path d="M63.344 94.89l72.557 37.54v80.38l-72.557-37.326z" fill="#fff" class="B"/><path d="M123.04 164.684c-1.99 1.882-3.983 2.27-5.974 2.958-1.028-2.01-1.568-4.37-.896-7.216l39.21-81.563c1.907-3.193 4.182-5.327 7.09-3.852 2.537 1.616 2.38 6.592 1.274 8.616z" fill="#039"/></g></svg>