<svg xmlns="http://www.w3.org/2000/svg" width="795.878" height="164.935" viewBox="0 0 210.576 43.639"><defs><linearGradient id="A" x1="11.921" y1="163.389" x2="12.189" y2="127.805" gradientUnits="userSpaceOnUse"><stop offset="0" stop-color="#b9dcfb"/><stop offset="1" stop-color="#090a9e"/></linearGradient><linearGradient id="B" x1="116.953" y1="162.822" x2="117.168" y2="128.048" gradientUnits="userSpaceOnUse"><stop offset="0" stop-color="#1574ff"/><stop offset=".5" stop-color="#bee4ff"/><stop offset="1" stop-color="#1473ff"/></linearGradient></defs><g transform="translate(4.363 -123.805)"><path d="M12.19 123.805c-4.754 0-8.98 2.64-11.9 6.604s-4.652 9.3-4.652 15.117S-2.634 156.72.28 160.73s7.138 6.713 11.908 6.713c.09 0 .17-.035.26-.037v.037h178.203c3.55 0 7.11-2.517 10.152-6.4s5.408-9.352 5.408-15.79c0-5.337-1.817-10.565-4.8-14.572s-7.253-6.875-12.123-6.875H12.332v.02c-.05-.001-.094-.02-.143-.02z" dominant-baseline="auto" fill="#fff"/><path d="M12.19 127.805c3.283 0 6.334 1.794 8.68 4.977s3.873 7.717 3.873 12.744-1.53 9.62-3.88 12.854-5.405 5.064-8.672 5.064-6.32-1.83-8.672-5.064-3.88-7.826-3.88-12.854 1.527-9.56 3.873-12.744 5.397-4.977 8.68-4.977z" dominant-baseline="auto" fill="url(#A)"/><path d="M21.756 127.805H189.29c3.284 0 6.474 1.983 8.914 5.262s4.008 7.774 4.008 12.186c0 5.456-2.018 10.084-4.557 13.322s-5.76 4.87-7.004 4.87H21.703a18.92 18.92 0 0 0 2.395-2.713c2.915-4 4.645-9.377 4.645-15.205s-1.73-11.154-4.652-15.117a18.63 18.63 0 0 0-2.334-2.604z" dominant-baseline="auto" fill="url(#B)"/></g></svg>