<svg xmlns="http://www.w3.org/2000/svg" xmlns:xlink="http://www.w3.org/1999/xlink" width="255.628" height="672.934" viewBox="0 0 67.635 178.047"><style><![CDATA[.B{dominant-baseline:auto}]]></style><defs><linearGradient id="A" x1="100.994" y1="235.962" x2="100.899" y2="100.189" xlink:href="#F"><stop offset="0" stop-color="#0978fc"/><stop offset="1" stop-color="#92ccfe"/></linearGradient><linearGradient id="B" x1="124.78" y1="231.999" x2="123.875" y2="170.957" xlink:href="#F"><stop offset="0" stop-color="#0a289c"/><stop offset="1" stop-color="#7fa9ec"/></linearGradient><linearGradient id="C" x1="132.043" y1="171.973" x2="132.273" y2="112.45" xlink:href="#F"><stop offset="0" stop-color="#0b299d"/><stop offset="1" stop-color="#8cb7f5"/></linearGradient><linearGradient id="D" x1="111.451" y1="93.608" x2="111.719" y2="114.722" xlink:href="#F"><stop offset="0" stop-color="#3bb6fc"/><stop offset="1" stop-color="#aee0fe"/></linearGradient><linearGradient id="E" x1="112.52" y1="97.884" x2="112.254" y2="65.941" xlink:href="#F"><stop offset="0" stop-color="#107cfc"/><stop offset="1" stop-color="#edf5ff"/></linearGradient><linearGradient id="F" gradientUnits="userSpaceOnUse"/></defs><g transform="translate(-76.936 -61.941)" class="B"><path d="M97.732 87.094l-20.797 8.303.164 59.076 7.535 3.697-.312 67.002 30.465 14.816 21.385-8.695-.133-60.934 8.53-3.45-.256-58.963z" fill="#fff"/><path d="M97.643 91.436l39.578 17.715-15.273 6.19-38.053-18.416z" fill="url(#D)"/><path d="M80.95 99.945l38.926 18.836v51.94l-7.123-3.48.104 67.36-11.397-5.844v-54.436l-4-2.005v54.495l-9.125-4.137.313-66.992-7.555-3.707z" fill="url(#A)"/><path d="M140.334 112.207l.225 52-7.27 2.94-9.412 3.8v-52.082z" fill="url(#C)"/><path d="M132.043 171.973l.123 56.63-15.31 6.227-.094-61.18 5.037 2.46z" fill="url(#B)"/><path d="M112.254 61.94c-11.192 0-20.31 9.115-20.31 20.307s9.117 20.31 20.31 20.31 20.307-9.117 20.307-20.31-9.115-20.307-20.307-20.307z" fill="#fff" paint-order="normal"/><path d="M112.254 65.94c9.03 0 16.307 7.276 16.307 16.307a16.28 16.28 0 1 1-32.615 0 16.28 16.28 0 0 1 16.309-16.307z" fill="url(#E)" paint-order="normal"/></g></svg>