<svg xmlns="http://www.w3.org/2000/svg" width="641.688" height="625.534" viewBox="0 0 169.78 165.506"><style><![CDATA[.B{dominant-baseline:auto}.C{fill:#fff}]]></style><defs><linearGradient id="A" x1="99.154" y1="153.797" x2="180.85" y2="153.797" gradientUnits="userSpaceOnUse"><stop offset="0" stop-color="#c0ddfe"/><stop offset="1" stop-color="#0a78fc"/></linearGradient><linearGradient id="B" x1="148.067" y1="107.773" x2="148.067" y2="69.286" gradientUnits="userSpaceOnUse"><stop offset="0" stop-color="#6d92dd"/><stop offset="1" stop-color="#94c0fb"/></linearGradient><linearGradient id="C" x1="52.42" y1="153.257" x2="137.346" y2="153.257" gradientUnits="userSpaceOnUse"><stop offset="0" stop-color="#f6faff"/><stop offset="1" stop-color="#85bdfd"/></linearGradient><linearGradient id="D" x1="84.457" y1="176.461" x2="83.923" y2="69.821" gradientUnits="userSpaceOnUse"><stop offset="0" stop-color="#0475fc"/><stop offset="1" stop-color="#95cdfe"/></linearGradient></defs><g transform="translate(-17.4 -64.957)" class="B"><path d="M105.07 76.127L94.883 230.45l51.844-.145v-49.02l14.928.123 10.21-9.143-.262-18.607 15.578-5.77-15.22-21.016 8.78-32.047z" class="C"/><path d="M108.746 81.154l67.053 16.57-8.203 29.94 13.254 18.303-13.287 4.92.275 19.61-7.7 6.895-17.412-.143v49.066l-43.572.12z" fill="url(#A)"/><path d="M114.9 64.957l-19.273 7.148 32.822 41.906 22.922-16.945 11.39-.07 10.87 11.27 8.617-1.436 3.227-23.14-28.846-18.736z" class="C"/><path d="M115.62 68.957h39.824l25.72 16.705-2.47 17.707-3.645.607-10.6-11-14.406.088-20.844 15.408-27.045-34.53z" fill="url(#B)"/><path d="M151.307 198.467l-1.016 4.44c-1.772 7.743-4.23 11.91-7.43 15.088s-7.345 5.414-12.453 8.766l-5.6 3.668 48.506.035z" class="C"/><path d="M153 207.982l12.713 18.475-27.363-.02c2.635-1.692 5.127-3.417 7.33-5.605 3.044-3.024 5.487-7.052 7.32-12.85z" fill="#0073fc"/><path d="M118.11 82.068L51.79 98.44l-3.215 73.264-.166 46.56 1.783.2 54.318 6.086.008-43.354 17.186.008 5.45-6.855-.158-19.762 16.885-5.977-16.523-21.46 10.102-28.77z" class="C"/><path d="M117.088 86.44l15.682 13.215-9.904 28.215 14.48 18.807-14.373 5.088.17 21.2-3.367 4.236-19.258-.01-.008 42.883-48.1-5.39.152-42.887 3.082-70.193z" fill="url(#C)"/><path d="M55.195 64.957l-31.27 26.387.068 60.814 25.39 28.947 8.98.285.613-.955L72.86 158.78l-8.02-11.258-2.48-10.72 3.69-9.166 22.797-7.248 13.18-16.44 9.357-6.94 10.05-.06 10.756 11.1 9.008-.742 3.42-23.482-28.76-18.857z" class="C"/><path d="M56.656 68.957h58.006l25.63 16.805-2.594 17.81-3.953.326-10.627-10.96-13.066.076-10.822 8.027-12.746 15.898-23.44 7.453-4.86 12.082 2.94 12.72 6.914 9.7L56.22 177.32l-4.975-.158L28 150.65l-.064-57.45z" fill="url(#D)"/><path d="M56.92 187.26l-20.957.318L17.4 230.445l117.783-.014-24.137-37.275-.566 5.68c-.5 5.104-2.857 8.473-5.96 11.402-2.82 2.664-6.225 4.853-9.223 7.295-11.193-3.118-20.956-6.845-27.758-10.936-7-4.2-10.62-8.628-10.62-12.65z" class="C"/><path d="M113.343 204.064l14.482 22.367-39.496.006c2.6-1.357 5.146-2.895 7.643-4.527l.21.06.807-.697c2.8-2.412 6.76-4.805 10.277-8.125 2.514-2.375 4.755-5.343 6.076-9.082zM52.92 191.322v2.625c0 6.267 5.04 11.556 12.56 16.078 6.542 3.934 15.46 7.308 25.395 10.27-3.998 2.403-8.08 4.544-12.34 6.14l-55.043.008 15.115-34.908z" fill="#003c97"/></g></svg>