<svg xmlns="http://www.w3.org/2000/svg" xmlns:xlink="http://www.w3.org/1999/xlink" width="548.508" height="830.094" viewBox="0 0 145.126 219.629"><style><![CDATA[.B{dominant-baseline:auto}.C{fill:#fff}]]></style><defs><linearGradient id="A" xlink:href="#Y"><stop offset="0" stop-color="#107cfc"/><stop offset="1" stop-color="#edf5ff"/></linearGradient><linearGradient id="B" xlink:href="#Y"><stop offset="0" stop-color="#3bb6fc"/><stop offset="1" stop-color="#aee0fe"/></linearGradient><linearGradient id="C" xlink:href="#Y"><stop offset="0" stop-color="#0b299d"/><stop offset="1" stop-color="#8cb7f5"/></linearGradient><linearGradient id="D" xlink:href="#Y"><stop offset="0" stop-color="#0a289c"/><stop offset="1" stop-color="#7fa9ec"/></linearGradient><linearGradient id="E" xlink:href="#Y"><stop offset="0" stop-color="#0978fc"/><stop offset="1" stop-color="#92ccfe"/></linearGradient><linearGradient xlink:href="#E" id="F" x1="138.792" y1="223.866" x2="138.696" y2="88.094"/><linearGradient xlink:href="#D" id="G" x1="162.577" y1="219.904" x2="161.673" y2="158.862"/><linearGradient xlink:href="#C" id="H" x1="169.841" y1="159.877" x2="170.071" y2="100.354"/><linearGradient xlink:href="#B" id="I" x1="149.249" y1="81.513" x2="149.516" y2="102.627"/><linearGradient xlink:href="#A" id="J" x1="150.318" y1="85.789" x2="150.052" y2="53.846"/><linearGradient xlink:href="#A" id="K" x1="150.319" y1="85.789" x2="150.053" y2="53.846"/><linearGradient xlink:href="#D" id="L" x1="162.576" y1="219.904" x2="161.672" y2="158.862"/><linearGradient xlink:href="#C" id="M" x1="92.35" y1="166.817" x2="92.58" y2="107.294"/><linearGradient xlink:href="#E" id="N" x1="138.792" y1="223.856" x2="138.696" y2="88.083"/><linearGradient xlink:href="#B" id="O" x1="71.758" y1="88.453" x2="72.025" y2="109.567"/><linearGradient xlink:href="#A" id="P" x1="150.319" y1="85.789" x2="150.052" y2="53.846"/><linearGradient xlink:href="#D" id="Q" x1="162.577" y1="219.903" x2="161.672" y2="158.861"/><linearGradient xlink:href="#C" id="R" x1="151.605" y1="201.459" x2="151.835" y2="141.936"/><linearGradient xlink:href="#E" id="S" x1="120.556" y1="265.448" x2="120.461" y2="129.675"/><linearGradient xlink:href="#B" id="T" x1="131.013" y1="123.094" x2="131.281" y2="144.209"/><path id="U" d="M118.747 87.85l38.926 18.836v51.94l-7.123-3.48.104 67.36-11.397-5.844v-54.436l-4-2.005v54.495l-9.125-4.137.313-66.992-7.555-3.707z"/><path id="V" d="M169.84 159.877l.123 56.63-15.31 6.227-.094-61.18 5.037 2.46z"/><path id="W" d="M150.052 49.846c-11.192 0-20.31 9.115-20.31 20.307s9.117 20.31 20.31 20.31 20.307-9.117 20.307-20.31-9.115-20.307-20.307-20.307z"/><path id="X" d="M150.052 53.846c9.03 0 16.307 7.276 16.307 16.307a16.28 16.28 0 1 1-32.615 0 16.28 16.28 0 0 1 16.309-16.307z"/><linearGradient id="Y" gradientUnits="userSpaceOnUse"/></defs><g transform="translate(-37.242 -49.846)" class="B"><path d="M135.53 75L114.733 83.3l.164 59.076 7.535 3.697-.312 67.002 30.465 14.816 21.385-8.695-.133-60.934 8.53-3.45-.256-58.963z" class="C"/><path d="M135.44 79.34l39.578 17.715-15.273 6.19-38.053-18.416z" fill="url(#I)"/><use xlink:href="#U" fill="url(#F)"/><path d="M178.132 100.112l.225 52-7.27 2.94-9.412 3.8V106.78z" fill="url(#H)"/><use xlink:href="#V" fill="url(#G)"/><use xlink:href="#W" paint-order="normal" class="C"/><use xlink:href="#X" fill="url(#J)" paint-order="normal"/><path d="M58.04 81.938L37.242 90.24l.164 59.076 7.535 3.697-.312 67.002 30.465 14.816 21.385-8.695-.133-60.934 8.53-3.45-.256-58.963z" class="C"/><path d="M57.95 86.28l39.578 17.715-15.273 6.19L44.2 91.77z" fill="url(#O)"/><use xlink:href="#U" x="-77.491" y="6.95" fill="url(#N)"/><path d="M100.64 107.052l.225 52-7.27 2.94-9.412 3.8V113.72z" fill="url(#M)"/><use xlink:href="#V" x="-77.49" y="6.94" fill="url(#L)"/><path d="M72.56 56.786c-11.192 0-20.31 9.115-20.31 20.307S61.368 97.4 72.56 97.4s20.307-9.117 20.307-20.31-9.115-20.307-20.307-20.307z" paint-order="normal" class="C"/><use xlink:href="#X" x="-77.492" y="6.94" fill="url(#K)" paint-order="normal"/><path d="M117.294 116.58l-20.797 8.303.164 59.076 7.535 3.697-.312 67.002 30.465 14.816 21.385-8.695-.133-60.934 8.53-3.45-.256-58.963z" class="C"/><path d="M117.205 120.922l39.578 17.715-15.273 6.19-38.053-18.416z" fill="url(#T)"/><path d="M100.51 129.432l38.926 18.836v51.94l-7.123-3.48.104 67.36-11.397-5.844V203.81l-4-2.005V256.3l-9.125-4.137.313-66.992-7.555-3.707z" fill="url(#S)"/><path d="M159.896 141.694l.225 52-7.27 2.94-9.412 3.8V148.36z" fill="url(#R)"/><use xlink:href="#V" x="-18.235" y="41.583" fill="url(#Q)"/><use xlink:href="#W" x="-18.236" y="41.582" paint-order="normal" class="C"/><use xlink:href="#X" x="-18.236" y="41.582" fill="url(#P)" paint-order="normal"/></g></svg>