<svg xmlns="http://www.w3.org/2000/svg" xmlns:xlink="http://www.w3.org/1999/xlink" width="552.832" height="719.581" viewBox="0 0 146.27 190.389"><style><![CDATA[.B{dominant-baseline:auto}]]></style><defs><linearGradient id="A" x1="147.933" y1="242.83" x2="147.599" y2="169.33" xlink:href="#H"><stop offset="0" stop-color="#09279c"/><stop offset="1" stop-color="#8db8f6"/></linearGradient><linearGradient id="B" x1="74.86" y1="243.421" x2="74.449" y2="171.794" xlink:href="#H"><stop offset="0" stop-color="#0c7afc"/><stop offset="1" stop-color="#8cc8fe"/></linearGradient><linearGradient id="C" x1="109.094" y1="204.967" x2="108.116" y2="152.45" xlink:href="#H"><stop offset="0" stop-color="#aee0fe"/><stop offset="1" stop-color="#2eb1fd"/></linearGradient><linearGradient id="D" x1="114.392" y1="189.848" x2="113.959" y2="157.059" xlink:href="#H"><stop offset="0" stop-color="#0a79fc"/><stop offset="1" stop-color="#76bafe"/></linearGradient><linearGradient id="E" x1="104.949" y1="180.845" x2="105.858" y2="64.583" xlink:href="#H"><stop offset="0" stop-color="#0677fc"/><stop offset="1" stop-color="#8fcafd"/></linearGradient><linearGradient id="F" x1="109.44" y1="102.688" x2="108.171" y2="59.977" xlink:href="#H"><stop offset="0" stop-color="#a5ddfd"/><stop offset="1" stop-color="#0fa6fd"/></linearGradient><linearGradient id="G" x1="142.609" y1="180.527" x2="141.617" y2="100.209" xlink:href="#H"><stop offset="0" stop-color="#0a289d"/><stop offset="1" stop-color="#84aff0"/></linearGradient><linearGradient id="H" gradientUnits="userSpaceOnUse"/></defs><g transform="translate(-36.213 -57.219)"><path d="M109.25 135.278l70.682 34.037-71.554 38.483L40.58 169.8z" fill="url(#C)" class="B"/><path d="M111.672 152.257c9.72 0 18.496 2.327 24.674 5.934s9.552 8.28 9.552 13.04-3.374 9.434-9.552 13.04-14.955 5.936-24.674 5.936-18.498-2.33-24.676-5.936-9.55-8.28-9.55-13.04 3.372-9.433 9.55-13.04 14.957-5.934 24.676-5.934z" fill="url(#D)" paint-order="normal" class="B"/><path d="M179.93 169.315l.008 38.102-70.905 36.23-.656-35.85z" fill="url(#A)" class="B"/><path d="M39.343 171.378l69.034 36.42.656 35.85-69.892-40.735z" fill="url(#B)" class="B"/><g fill="#fff" class="B"><path d="M108.182 132.336l-71.97 35.914v36.588l72.814 42.77 73.455-38.488v-41.316zm.05 5.564l66.246 31.62-65.383 35.447-64.955-35.084zm69.252 35.678v32.516l-65.887 34.523V209.3zm-136.27.4l65.383 35.313v31.08l-65.383-38.404zM80.056 209v4.706l16.445 8.3v-4.704z"/><path d="M111.72 150.14c-9.818 0-18.728 2.163-25.344 5.805s-11.135 8.948-11.135 15.17 4.52 11.53 11.135 15.172 15.526 5.805 25.344 5.805 18.728-2.163 25.344-5.805 11.135-8.95 11.135-15.172-4.52-11.53-11.135-15.17-15.526-5.805-25.344-5.805zm0 4c9.223 0 17.55 2.082 23.414 5.31s9.064 7.408 9.064 11.666-3.202 8.44-9.064 11.666-14.19 5.31-23.414 5.31-17.553-2.084-23.416-5.31-9.062-7.408-9.062-11.666 3.2-8.44 9.063-11.666 14.193-5.31 23.416-5.31z" paint-order="normal"/></g><path d="M63.887 64.42l74.043 40.143v76.71l-74.275-39.02z" fill="url(#E)" class="B"/><path d="M73.882 84.87l50.094 27.204v49.657L73.95 133.37z" fill="#0073fc"/><path d="M77.906 91.68l41.817 22.85v40.113l-41.817-23.722z" fill="#fff"/><path d="M71.608 59.775l72.85 40.8-6.496 3.07-72.366-39.963z" fill="url(#F)" class="B"/><path d="M144.944 102.14l.802 73.94-6.917 4.214.1-75.536z" fill="url(#G)" class="B"/><path d="M71.598 57.22l-9.9 5.223.05 80.695 76.307 40.895 9.832-6.947V99.08zm-.037 4.54l70.057 38.45-3.69 1.9L67.9 63.684zm-5.87 5.268l70.207 38.53v72.787l-70.164-37.602zm78.184 36.516v71.47l-3.977 2.81v-72.23z" fill="#fff" class="B"/></g></svg>