<svg xmlns="http://www.w3.org/2000/svg" xmlns:xlink="http://www.w3.org/1999/xlink" width="326.876" height="408.552" viewBox="0 0 86.486 108.096"><defs><linearGradient id="A" x1="83.839" y1="200.393" x2="83.47" y2="127.295" xlink:href="#F"><stop offset="0" stop-color="#0677fc"/><stop offset="1" stop-color="#8fcafe"/></linearGradient><linearGradient id="B" x1="111.266" y1="206.304" x2="111.48" y2="118.372" xlink:href="#F"><stop offset="0" stop-color="#05239a"/><stop offset="1" stop-color="#91bcf8"/></linearGradient><linearGradient id="C" x1="103.082" y1="136.89" x2="103.194" y2="107.624" xlink:href="#F"><stop offset="0" stop-color="#a8defe"/><stop offset="1" stop-color="#12a7fc"/></linearGradient><linearGradient id="D" x1="132.351" y1="211.705" x2="131.819" y2="159.606" xlink:href="#F"><stop offset="0" stop-color="#fdc125"/><stop offset="1" stop-color="#d03604"/></linearGradient><linearGradient id="E" x1="132.714" y1="211.562" x2="131.29" y2="160.135" xlink:href="#F"><stop offset="0" stop-color="#0375fc"/><stop offset="1" stop-color="#f6fbff"/></linearGradient><linearGradient id="F" gradientUnits="userSpaceOnUse"/></defs><g transform="translate(-72.583 -105.738)"><path d="M129.52 187.468l-36.963 19.668V137.21l36.963-19.938z" fill="url(#B)"/><path d="M92.557 207.136L74.083 196.93V127.1l18.474 10.11" fill="url(#A)"/><path d="M129.52 117.272L92.557 137.21 74.083 127.1l36.848-19.663z" fill="url(#C)"/><path d="M79.355 150.83v1.322l6.63 3.638v-1.322zm0 6.673v1.322l6.63 3.638v-1.322z" dominant-baseline="auto" fill="#fff"/><path d="M92.557 137.21l36.963-19.938zm0 69.926V137.21L74.083 127.1m18.474 80.036L74.083 196.93V127.1l36.848-19.663 18.59 9.836v70.196z" fill="none" stroke="#fff" stroke-width="3"/><path d="M131.3 160.135c14.325 0 25.902 11.58 25.902 25.904a25.88 25.88 0 0 1-25.902 25.902c-14.325 0-25.904-11.577-25.904-25.902s11.58-25.904 25.904-25.904z" dominant-baseline="auto" fill="url(#E)" paint-order="normal"/><path d="M136 192.573c-2.335 1.39-3.678 1.66-6.108 2.063-2.33.357-5.267.208-8.067-.186l-6.07-1.086-5.373-8.016-3.14-8.352c1.265-5.68 5.016-10.533 11.626-14.433 3.153-1.063 4.744-2.392 10.334-2.83 3.702 1.525 7.256 3.478 10.045 6.772 3.145 3.912 5.09 7.873 4.858 12.247-.168 2.786-1.2 6.228-2.696 8.533-1.52 2.258-2.188 3.312-5.408 5.287z" opacity=".1"/><path d="M151.512 173.576l1.353-.01 1.388 2.33c.47 1.73.632 3.428.91 5.208.237 1.975.124 5.16.094 6.89-.04 1.457-.52 2.393-.9 3.723-.797.402-1.906.7-2.462 1.506l-1.493.015-1.952-1.013-1.494-1.58-.953-2.333c-.01-1.968.277-3.876.467-5.803l2.996-5.497c.572-1.156 1.25-2.278 2.044-3.433zm-5.085-8.673c1.285 1.2 2.434 2.454 3.363 3.754 1.166 1.586 2.282 3.2 2.524 3.95l-3.896-.1-.006 2.295-.756 2.7-1.592.05-1.126-.634-1.368-2.072c-.028-.516.235-1.243.522-1.755l.995-.92.055-3.768zm-2.423-1.567l-2.635 1.884-1.145-2.802-.283 1.496-2.457-.05.045.81-1.355-.003-3.09 1.3-3.85.545-1.57.35-.414-2.382 1.046-1.933-2.502-.277-1.262-1.245c1.84-.658 4.43-1.086 7.288-1.434l7.276 1.323zm-23.925 45.478l.425-2.906-1.56-.496c-1.87-1.35-3.437-3.19-5.126-4.96l-.024-2.835c.3-1.34.93-2.773 1.394-3.71-.897-.698-1.83-1.365-2.516-2.244l-3.13-5.09c-.88-1.297-2.124-2.096-3.603-2.575l2.54-10.88 6.142-7.087 7.126-4.3-.762 1.822c-.338-.06-.646-.172-1.11.001.022.613.09 1.64.35 2.244.79.782 1.6 1.45 1.674 2.35l1.05-1.145.63-2.14c1.15.654 1.594.78 2.467 1.465l2.47 1.97 2.268.756-1.984 1.736c-.973 1.078-2.15 2.307-3.933 3.236l-1.122-.024-.98 1.134-.85 1.878-2.197 1.725c-.6.548-1.054 1.286-1.18 2.114l-.012 3.154c-.69-.57-1.046-1.42-1.358-2.398l-.508-1.713c-.876-.907-2.006-1.74-3.236-2.457-1.036.316-1.784.66-2.54 1.04-.372.935-.5 1.745-.496 2.492.29 1.447.947 2.557 1.866 3.532.878.302 1.932-.034 2.47-.496l.45 1.973c-.74.226-1.15.572-1.382.886l-.024 1.772c.317.905.64 1.803 1.1 2.492.494.3 1.096.418 1.843.33l.378.543 5.764-.06c2.24.972 3.45 2.213 4.69 3.445l2.918 2.98c1.182.53 2.33.898 3.47 1.206 2.054.218 3.155.366 4.196.78l1.08 1.033.007 1.567-1.44.378-7.75 8.22c-1.78-.236-3.276-.365-5.315-.97a30.97 30.97 0 0 1-4.63-1.772z" fill="url(#D)" stroke="#ffc727" stroke-width="1.7" stroke-linejoin="round"/><circle r="26.222" cy="186.111" cx="131.347" fill="#fff" fill-opacity="0" stroke="#fff" stroke-width="3" paint-order="normal"/></g></svg>