<svg xmlns="http://www.w3.org/2000/svg" xmlns:xlink="http://www.w3.org/1999/xlink" width="730.148" height="731.838" viewBox="0 0 193.185 193.632"><style><![CDATA[.B{dominant-baseline:auto}.C{fill:#fff}.D{fill:#0073fc}]]></style><defs><linearGradient id="A" x1="31.691" y1="137.911" x2="185.429" y2="137.911" gradientUnits="userSpaceOnUse"><stop offset="0" stop-color="#fe5d02"/><stop offset="1" stop-color="#fff835"/></linearGradient><linearGradient id="B" x1="105.402" y1="144.589" x2="105.666" y2="110.458" gradientUnits="userSpaceOnUse"><stop offset="0" stop-color="#2c6dc9"/><stop offset="1" stop-color="#94cdfe"/></linearGradient><linearGradient id="C" x1="162.78" y1="180.442" x2="155.482" y2="173.62" gradientUnits="userSpaceOnUse"><stop offset="0" stop-color="#ff7a0c"/><stop offset="1" stop-color="#ffde2d"/></linearGradient><path id="D" d="M159.332 186.66v5.612l30.3 15.03v-5.612zm0-40.432v5.612l30.3 15.03v-5.612zm0 20.216v5.612l30.3 15.03v-5.612z"/></defs><g transform="translate(-23.18 -64.356)"><path d="M23.18 64.356V210.85h170.225V64.356z" paint-order="normal" class="B C"/><path d="M28.19 69.5v136.8H188.93V69.5z" fill="#00a0fc" paint-order="normal" class="B"/><path d="M31.69 73H185.43v129.8H31.69z" fill="url(#A)" paint-order="normal" class="B"/><path d="M86.18 183.982h85.07v3.433H86.18zm0-14.344h85.07v3.433H86.18zm0-14.344h85.07v3.433H86.18zm47.858-14.297h37.212v3.34h-37.212zm0-14.344h37.212v3.34h-37.212zm0-14.344h37.212v3.34h-37.212z" fill="#2c6dc9" paint-order="normal"/><path d="M31.69 73h153.73v23.193H31.69z" fill-opacity=".95" paint-order="normal" class="D"/><path d="M127.093 76.36h10.366v10.38h-10.366z" paint-order="normal" class="C"/><path d="M31.69 96.203h37.4v103.085h-37.4z" fill="#7eb9fd" paint-order="normal"/><path d="M86.158 110.482h37.57v34.24h-37.57z" fill="url(#B)" paint-order="normal"/><path d="M145.87 76.362h10.366v10.38H145.87z" paint-order="normal" class="C"/><path d="M164.645 76.362H175v10.38h-10.366z" fill="#fd1800" paint-order="normal"/><path d="M141.996 103.785v110.457l1.074.71 70.57 37.848V143.86z" class="B C"/><path d="M146.982 112.295l61.665 34.492v97.662l-61.665-33.19z" fill="#48a0fc" fill-opacity=".97" class="B"/><path d="M151.925 208.275V120.64l51.824 29.242v86.3z" class="C"/><use xlink:href="#D" class="B D"/><path d="M111.687 108.972V219.43l1.074.71 70.57 37.848v-108.94z" class="B C"/><path d="M116.673 117.482l61.665 34.492v97.662l-61.665-33.19z" fill="#48a0fc" fill-opacity=".97" class="B"/><path d="M121.615 213.462v-87.635l51.824 29.242v86.3z" class="C"/><use xlink:href="#D" x="-30.309" y="5.188" class="B D"/><path d="M202.506 120.178L120.67 201.39l-18.613 33.045 3.678 3.227 29.684-22.23 80.947-82.168-3.037-10.24z" class="B C"/><path d="M203.998 125.74l5.336 1.404 1.398 4.715-1.54 1.563-6.342-6.545z" fill="#00a0fc" fill-opacity=".93" class="B"/><path d="M199.305 130.398l6.38 6.586L192.95 149.9l-6.605-6.65z" fill="#ccc" class="B"/><path d="M182.795 146.783l6.645 6.69-55.723 56.563-7.46-7.146z" fill="url(#C)" class="B"/><path d="M123.273 206.955l6.637 6.355-17.668 13.23z" fill="#ccc" fill-opacity=".94" class="B"/></g></svg>