<svg xmlns="http://www.w3.org/2000/svg" xmlns:xlink="http://www.w3.org/1999/xlink" width="332.326" height="408.094" viewBox="0 0 87.928 107.975"><defs><linearGradient id="A" x1="83.839" y1="200.393" x2="83.47" y2="127.295" xlink:href="#J"><stop offset="0" stop-color="#0677fc"/><stop offset="1" stop-color="#8fcafe"/></linearGradient><linearGradient id="B" x1="111.266" y1="206.304" x2="111.48" y2="118.372" xlink:href="#J"><stop offset="0" stop-color="#05239a"/><stop offset="1" stop-color="#91bcf8"/></linearGradient><linearGradient id="C" x1="103.082" y1="136.89" x2="103.194" y2="107.624" xlink:href="#J"><stop offset="0" stop-color="#a8defe"/><stop offset="1" stop-color="#12a7fc"/></linearGradient><linearGradient id="D" x1="114.233" y1="172.796" x2="136.44" y2="179.458" xlink:href="#J"><stop offset="0" stop-color="#f2580a"/><stop offset=".413" stop-color="#fea15f"/><stop offset="1" stop-color="#a11a00"/></linearGradient><linearGradient id="E" x1="138.574" y1="179.105" x2="158.561" y2="183.64" xlink:href="#J"><stop offset="0" stop-color="#4a610e"/><stop offset=".579" stop-color="#a3d944"/><stop offset="1" stop-color="#6ca01f"/></linearGradient><linearGradient id="F" x1="117.494" y1="175.442" x2="136.015" y2="179.694" xlink:href="#J"><stop offset="0" stop-color="#2c6ffa"/><stop offset=".28" stop-color="#9eb9fd"/><stop offset="1" stop-color="#033ac8"/></linearGradient><linearGradient id="G" x1="138.07" y1="181.36" x2="157.712" y2="185.503" xlink:href="#J"><stop offset="0" stop-color="#8b7312"/><stop offset=".641" stop-color="#fdcc38"/><stop offset="1" stop-color="#e7b623"/></linearGradient><path id="H" d="M114.41 186.758l4.96-17.434c3.615-1.532 6.895-2.22 11.056-2.22 2.783 0 6.59 1.795 8.33 3.346l-5.008 17.754c-3.05-2.063-6.227-3.685-9.133-3.685-4.33 0-6.403.922-10.204 2.24z"/><path id="I" d="M160.51 173.742l-4.96 17.434c-3.615 1.532-6.895 2.22-11.056 2.22-2.783 0-6.59-1.795-8.33-3.346l5.008-17.754c3.05 2.063 6.227 3.685 9.133 3.685 4.33 0 6.403-.922 10.204-2.24z"/><linearGradient id="J" gradientUnits="userSpaceOnUse"/></defs><g transform="translate(-72.583 -105.738)"><path d="M129.52 187.468l-36.963 19.668V137.21l36.963-19.938z" fill="url(#B)"/><path d="M92.557 207.136L74.083 196.93V127.1l18.474 10.11" fill="url(#A)"/><path d="M129.52 117.272L92.557 137.21 74.083 127.1l36.848-19.663z" fill="url(#C)"/><path d="M79.355 150.83v1.322l6.63 3.638v-1.322zm0 6.673v1.322l6.63 3.638v-1.322z" dominant-baseline="auto" fill="#fff"/><path d="M92.557 137.21l36.963-19.938zm0 69.926V137.21L74.083 127.1m18.474 80.036L74.083 196.93V127.1l36.848-19.663 18.59 9.836v70.196z" fill="none" stroke="#fff" stroke-width="3"/><use xlink:href="#H" opacity=".1"/><use xlink:href="#H" x="-5.66" y="19.858" opacity=".1"/><use xlink:href="#I" opacity=".1"/><use xlink:href="#I" x="-5.763" y="20.316" opacity=".1"/><use xlink:href="#H" x="-0.828" y="-1.166" fill="url(#D)"/><use xlink:href="#H" x="-6.487" y="18.692" fill="url(#F)"/><use xlink:href="#I" x="-0.826" y="-1.167" fill="url(#E)"/><use xlink:href="#I" x="-6.59" y="19.148" fill="url(#G)"/><path d="M110.17 155.074V138.35l8.203 4.38 6.67-5.453-7.942-5.602-6.93 4.34v-17.27h24.46l-7.852 6.277 7.215 5.84 7.72-5.854-9.514-6.265h26.22v16.4l-7.464-4.525-8.042 6.548 7.97 5.602 7.535-5.548v17.854h-24.758l8.08-5.862-7.418-5.34-6.71 5.315 8.74 5.886z" fill="#ef790f" stroke="#fff" stroke-width="2.5"/></g></svg>