<svg xmlns="http://www.w3.org/2000/svg" xmlns:xlink="http://www.w3.org/1999/xlink" width="324.072" height="389.688" viewBox="0 0 85.744 103.105"><defs><linearGradient id="A" gradientUnits="userSpaceOnUse"><stop offset="0" stop-color="#a8defe"/><stop offset="1" stop-color="#12a7fc"/></linearGradient><linearGradient id="B" gradientUnits="userSpaceOnUse"><stop offset="0" stop-color="#0677fc"/><stop offset="1" stop-color="#8fcafe"/></linearGradient><linearGradient xlink:href="#B" id="C" x1="83.839" y1="200.393" x2="83.47" y2="127.295"/><linearGradient id="D" x1="111.266" y1="206.304" x2="111.48" y2="118.372" gradientUnits="userSpaceOnUse"><stop offset="0" stop-color="#05239a"/><stop offset="1" stop-color="#91bcf8"/></linearGradient><linearGradient xlink:href="#A" id="E" x1="103.082" y1="136.89" x2="103.194" y2="107.624"/><linearGradient xlink:href="#A" id="F" x1="61.763" y1="166.207" x2="61.308" y2="143.555"/><linearGradient xlink:href="#B" id="G" x1="60.846" y1="195.093" x2="60.343" y2="151.929"/></defs><g transform="translate(-45.276 -105.738)"><path d="M73.362 195.194L46.777 181.27l.03-29.78 26.554 14.882z" opacity=".5" fill="url(#G)"/><path d="M51.03 162.48l16.78 8.364v16.186l-16.78-9.01z" fill="#0073fc" fill-opacity=".96"/><path d="M129.52 187.468l-36.963 19.668V137.21l36.963-19.938z" fill="url(#D)"/><path d="M92.557 207.136L74.083 196.93V127.1l18.474 10.11" fill="url(#C)"/><path d="M129.52 117.272L92.557 137.21 74.083 127.1l36.848-19.663z" fill="url(#E)"/><path d="M79.355 150.83v1.322l6.63 3.638v-1.322zm0 6.673v1.322l6.63 3.638v-1.322z" dominant-baseline="auto" fill="#fff"/><path d="M92.557 137.21l36.963-19.938zm0 69.926V137.21L74.083 127.1m18.474 80.036L74.083 196.93V127.1l36.848-19.663 18.59 9.836v70.196z" fill="none" stroke="#fff" stroke-width="3"/><path d="M73.076 147.802l.222 18.57-26.49-14.882 16.817-8.3z" fill="url(#F)"/><path d="M73.362 147.802l-9.736-4.62-16.817 8.3-.03 29.78 26.585 13.924zm0 18.57L46.81 151.49" fill="none" stroke="#fff" stroke-width="3"/><path d="M52.434 164.795l13.904 6.976v12.918l-13.904-7.49z" fill="#fff"/></g></svg>