<svg xmlns="http://www.w3.org/2000/svg" width="927.712" height="629.439" viewBox="0 0 245.457 166.539"><style><![CDATA[.B{dominant-baseline:auto}]]></style><defs><linearGradient id="A" x1="116.567" y1="190.98" x2="116.079" y2="72.045" gradientUnits="userSpaceOnUse"><stop offset="0" stop-color="#c0e5ff"/><stop offset="1" stop-color="#64c1ff"/></linearGradient><linearGradient id="B" x1="178.269" y1="224.837" x2="177.467" y2="145.725" gradientUnits="userSpaceOnUse"><stop offset="0" stop-color="#080a9e"/><stop offset="1" stop-color="#7998ea"/></linearGradient><linearGradient id="C" x1="52.385" y1="225.639" x2="53.454" y2="123.809" gradientUnits="userSpaceOnUse"><stop offset="0" stop-color="#086bff"/><stop offset="1" stop-color="#9cf"/></linearGradient></defs><g transform="translate(16.18 -66.08)" class="B"><path d="M87.822 66.08L-16.18 117.908l.068 41.396 1.348.697L125.53 232.62l103.748-51.805V139.53z" fill="#fff"/><path d="M87.775 71.69l133.607 69.373-95.986 50.54L-8.248 119.54z" fill="url(#A)"/><path d="M-11.17 123.646l134.06 72.285.14 29.764-134.148-69.436z" fill="url(#C)"/><path d="M224.277 145.19v32.533l-96.246 48.06-.14-29.842z" fill="url(#B)"/><path d="M4.678 143.513v8.3l5.654 2.974v-8.3zm12.655 6.656v8.3l6.93 3.645v-8.3zm13.93 7.327v8.3l6.932 3.646v-8.3zm13.93 7.328v8.3l6.932 3.646v-8.3zm13.932 7.328v8.3l6.93 3.646v-8.3zm13.93 7.328v8.3l6.932 3.646v-8.3zm13.932 7.328v8.3l6.93 3.646v-8.3zm13.93 7.328v8.3l6.656 3.5v-8.3z" fill="#fff"/></g></svg>