<svg xmlns="http://www.w3.org/2000/svg" xmlns:xlink="http://www.w3.org/1999/xlink" width="750.852" height="729.192" viewBox="0 0 198.663 192.932"><style><![CDATA[.B{dominant-baseline:auto}.C{fill:#fff}]]></style><defs><linearGradient id="A" xlink:href="#R"><stop offset="0" stop-color="#0f2da0"/><stop offset="1" stop-color="#89b3f3"/></linearGradient><linearGradient id="B" xlink:href="#R"><stop offset="0" stop-color="#1c84fd"/><stop offset="1" stop-color="#89c6fe"/></linearGradient><linearGradient id="C" xlink:href="#R"><stop offset="0" stop-color="#98cffe"/><stop offset="1" stop-color="#98cffe"/></linearGradient><linearGradient id="D" xlink:href="#R"><stop offset="0" stop-color="#1b82fc"/><stop offset="1" stop-color="#deedff"/></linearGradient><linearGradient id="E" x1="70.511" y1="138.118" x2="70.776" y2="103.986" xlink:href="#R"><stop offset="0" stop-color="#2c6dc9"/><stop offset="1" stop-color="#94cdfe"/></linearGradient><linearGradient id="F" x1="-3.199" y1="131.439" x2="150.539" y2="131.439" xlink:href="#R"><stop offset="0" stop-color="#fe5d02"/><stop offset="1" stop-color="#fff835"/></linearGradient><linearGradient xlink:href="#D" id="G" x1="152.203" y1="144.618" x2="151.735" y2="122.578"/><linearGradient xlink:href="#C" id="H" x1="161.383" y1="155.962" x2="161.744" y2="143.308"/><linearGradient xlink:href="#B" id="I" x1="143.784" y1="192.887" x2="144.1" y2="146.047"/><linearGradient xlink:href="#A" id="J" x1="171.383" y1="192.243" x2="170.854" y2="152.424"/><linearGradient xlink:href="#C" id="K" x1="65.032" y1="155.962" x2="64.671" y2="143.308"/><linearGradient xlink:href="#B" id="L" x1="82.632" y1="192.887" x2="82.315" y2="146.047"/><linearGradient xlink:href="#A" id="M" x1="55.032" y1="192.243" x2="55.561" y2="152.424"/><linearGradient xlink:href="#D" id="N" x1="74.213" y1="144.618" x2="74.681" y2="122.578"/><linearGradient id="O" x1="153.115" y1="243.975" x2="152.542" y2="204.891" xlink:href="#R"><stop offset="0" stop-color="#0f2ea0"/><stop offset="1" stop-color="#89b3f3"/></linearGradient><linearGradient id="P" x1="78.28" y1="243.6" x2="77.157" y2="205.434" xlink:href="#R"><stop offset="0" stop-color="#0f7cfc"/><stop offset="1" stop-color="#b1d9fe"/></linearGradient><linearGradient id="Q" x1="114.021" y1="231.59" x2="113.324" y2="172.148" xlink:href="#R"><stop offset="0" stop-color="#acdffe"/><stop offset="1" stop-color="#09a3fc"/></linearGradient><linearGradient id="R" gradientUnits="userSpaceOnUse"/></defs><g transform="translate(11.71 -57.885)"><path d="M-11.7 57.885V204.38h170.225V57.885z" paint-order="normal" class="B C"/><path d="M-6.7 63.04v136.8H154.04V63.04z" fill="#00a0fc" paint-order="normal" class="B"/><path d="M-3.2 66.54H150.54v129.8H-3.2z" fill="url(#F)" paint-order="normal" class="B"/><path d="M51.3 177.51h85.07v3.433H51.3zm0-14.344h85.07v3.433H51.3zm0-14.344h85.07v3.433H51.3zm47.858-14.297h37.212v3.34H99.148zm0-14.344h37.212v3.34H99.148zm0-14.344h37.212v3.34H99.148z" fill="#2c6dc9" paint-order="normal"/><path d="M-3.2 66.54h153.73v23.193H-3.2z" fill="#0073fc" fill-opacity=".95" paint-order="normal"/><path d="M92.203 69.9h10.366v10.38H92.203z" paint-order="normal" class="C"/><path d="M-3.2 89.732h37.4v103.085H-3.2z" fill="#7eb9fd" paint-order="normal"/><path d="M51.268 104.01h37.57v34.24h-37.57z" fill="url(#E)" paint-order="normal"/><path d="M110.98 69.89h10.366v10.38H110.98z" paint-order="normal" class="C"/><path d="M129.755 69.89h10.366v10.38h-10.366z" fill="#fd1800" paint-order="normal"/><path d="M145.48 130.193l-21.39 11.26.398 40.156 1.172.52 35.785 15.975 21.28-11.355.19-40.162z" class="B C"/><path d="M145.64 134.628l30.674 13.434-14.932 7.9-30.676-13.473z" fill="url(#H)" class="B"/><path d="M128.135 145.728l31.324 13.758-.082 33.314-30.912-13.8z" fill="url(#I)" class="B"/><path d="M178.897 151.22l-.158 33.125-15.36 8.197.082-33.154z" fill="url(#J)" class="B"/><path d="M151.735 118.578c-8.417 0-15.283 6.866-15.283 15.283s6.866 15.283 15.283 15.283 15.283-6.866 15.283-15.283-6.866-15.283-15.283-15.283z" paint-order="normal" class="B C"/><path d="M151.735 122.578c6.255 0 11.283 5.028 11.283 11.283s-5.028 11.283-11.283 11.283-11.283-5.028-11.283-11.283 5.028-11.283 11.283-11.283z" fill="url(#G)" paint-order="normal" class="B"/><path d="M80.934 130.193l21.39 11.26-.398 40.156-1.172.52-35.785 15.975-21.28-11.355-.19-40.162z" class="B C"/><path d="M80.774 134.628L50.1 148.062l14.932 7.9L95.708 142.5z" fill="url(#K)" class="B"/><path d="M98.28 145.728l-31.324 13.758.082 33.314L97.95 179z" fill="url(#L)" class="B"/><path d="M47.518 151.22l.158 33.125 15.36 8.197-.082-33.154z" fill="url(#M)" class="B"/><path d="M74.68 118.578c8.417 0 15.283 6.866 15.283 15.283s-6.866 15.283-15.283 15.283-15.283-6.866-15.283-15.283 6.866-15.283 15.283-15.283z" paint-order="normal" class="B C"/><path d="M74.68 122.578c-6.255 0-11.283 5.028-11.283 11.283s5.028 11.283 11.283 11.283 11.283-5.028 11.283-11.283-5.028-11.283-11.283-11.283z" fill="url(#N)" paint-order="normal" class="B"/><path d="M113.207 166.69l-70.77 32.865.46 17.105 71.146 34.154 72.912-36.717v-16.98z" class="B C"/><path d="M113.324 172.148l65.13 26.873L114.02 231.6l-63.195-30.418z" fill="url(#Q)" class="B"/><path d="M181.953 202.857v8.162l-65.43 32.95.022-8.05z" fill="url(#O)" class="B"/><path d="M47.588 205.162l63.957 30.787-.022 8.113-63.713-30.586z" fill="url(#P)" class="B"/></g></svg>