<svg xmlns="http://www.w3.org/2000/svg" xmlns:xlink="http://www.w3.org/1999/xlink" width="457.44" height="539.607" viewBox="0 0 121.031 142.771"><style><![CDATA[.B{dominant-baseline:auto}]]></style><defs><linearGradient id="A" x1="77.255" y1="209.239" x2="75.103" y2="161.494" xlink:href="#H"><stop offset="0" stop-color="#0676fc"/><stop offset="1" stop-color="#439cfd"/></linearGradient><linearGradient id="B" x1="78" y1="178.476" x2="77.365" y2="100.118" xlink:href="#H"><stop offset="0" stop-color="#2d8efd"/><stop offset="1" stop-color="#8bc7fe"/></linearGradient><linearGradient id="C" x1="87.264" y1="119.193" x2="87.871" y2="85.175" xlink:href="#H"><stop offset="0" stop-color="#a0dbfe"/><stop offset="1" stop-color="#1eabfd"/></linearGradient><linearGradient id="D" x1="119.87" y1="106.976" x2="120.226" y2="82.865" xlink:href="#H"><stop offset="0" stop-color="#77ccfd"/><stop offset="1" stop-color="#12a7fc"/></linearGradient><linearGradient id="E" x1="111.911" y1="176.834" x2="113.256" y2="116.164" xlink:href="#H"><stop offset="0" stop-color="#3355b9"/><stop offset="1" stop-color="#82acee"/></linearGradient><linearGradient id="F" x1="144.325" y1="167.808" x2="144.66" y2="102.121" xlink:href="#H"><stop offset="0" stop-color="#4063c1"/><stop offset="1" stop-color="#8fbaf7"/></linearGradient><linearGradient id="G" x1="134.321" y1="212.854" x2="134.265" y2="154.723" xlink:href="#H"><stop offset="0" stop-color="#032098"/><stop offset="1" stop-color="#4a6ec8"/></linearGradient><linearGradient id="H" gradientUnits="userSpaceOnUse"/></defs><g transform="translate(-46.258 -74.809)"><path d="M110.363 78.732l33.917 17.88-22.005 12.702-32.04-16.902z" fill="url(#D)" class="B"/><path d="M69.277 85.028l18.4 9.17.4.208 30.032 15.51-15.55 9.422L52.868 94z" fill="url(#C)" class="B"/><path d="M50.002 94.74l52.554 24.6-.71 61.127-52.126-25.4z" fill="url(#B)" class="B"/><path d="M146.776 98.88l.447 46.705 12.372 7.46-36.234 15.534-1.086-59.267z" fill="url(#F)" class="B"/><path d="M120.228 112.466l.38 57.894-17.545 7.5-.505-58.52z" fill="url(#E)" class="B"/><path d="M163.264 154.165l-.866 31.8-60.1 27.58-.44-33.08z" fill="url(#G)" class="B"/><path d="M49.72 155.056l52.126 25.4-1.465 31.093-50.573-24.367z" fill="url(#A)" class="B"/><path d="M75.92 182.634v4.174l15.06 7.594v-4.174z" fill="#fff" class="B"/><path d="M58.966 113.453l30.62 14.232v33.776l-30.62-14.165z" fill="#0073fc"/><g fill="#fff"><path d="M62.775 119.3L85.8 130.1v25.59l-23.035-10.657z"/><path d="M111.936 74.81l-23.688 14.81-19.11-9.223-22.86 12.254-.02 97.574 55.828 27.357 65.203-30.205-.305-36.12-15.604-7.936.336-49.223zm.43 7.986l28.105 13.627-18.234 9.68-26.55-12.88zm-43.06 5.45l17.98 8.68 27.29 13.242-12.62 6.7-44.56-22.234zM53.28 100.4l45.23 22.568.068 51.666-45.31-22.203zm91.38 1.72l-.31 45.477 10.955 5.57-29.525 12.89.06-53.945zm-25.824 13.71l-.06 53.283-13.2 5.764-.068-51.973zm41.21 42.906l.203 24.184-54.63 25.31-.033-25.717zm-106.783 1.5l45.322 22.21.033 25.65-45.36-22.23z" class="B"/></g></g></svg>