<svg xmlns="http://www.w3.org/2000/svg" xmlns:xlink="http://www.w3.org/1999/xlink" width="432.034" height="452.107" viewBox="0 0 114.309 119.62"><style><![CDATA[.B{dominant-baseline:auto}]]></style><defs><linearGradient id="A" x1="303.898" y1="179.373" x2="296.6" y2="172.551" xlink:href="#G"><stop offset="0" stop-color="#ff7a0c"/><stop offset="1" stop-color="#ffde2d"/></linearGradient><linearGradient id="B" x1="308.225" y1="136.252" x2="308.387" y2="149.106" xlink:href="#G"><stop offset="0" stop-color="#3bb6fc"/><stop offset="1" stop-color="#aee0fe"/></linearGradient><linearGradient id="C" x1="301.858" y1="222.918" x2="301.8" y2="140.258" xlink:href="#G"><stop offset="0" stop-color="#0978fc"/><stop offset="1" stop-color="#92ccfe"/></linearGradient><linearGradient id="D" x1="320.761" y1="183.961" x2="320.901" y2="147.723" xlink:href="#G"><stop offset="0" stop-color="#0b299d"/><stop offset="1" stop-color="#8cb7f5"/></linearGradient><linearGradient id="E" x1="316.339" y1="220.505" x2="315.788" y2="183.342" xlink:href="#G"><stop offset="0" stop-color="#0a289c"/><stop offset="1" stop-color="#7fa9ec"/></linearGradient><linearGradient id="F" x1="308.876" y1="138.855" x2="308.713" y2="119.408" xlink:href="#G"><stop offset="0" stop-color="#107cfc"/><stop offset="1" stop-color="#edf5ff"/></linearGradient><linearGradient id="G" gradientUnits="userSpaceOnUse"/></defs><g transform="translate(-243.175 -116.973)" class="B"><path d="M343.624 119.11l-81.836 81.213-18.613 33.045 3.678 3.227 29.684-22.23 80.947-82.168-3.037-10.24z" fill="#fff"/><path d="M345.116 124.67l5.336 1.404 1.398 4.715-1.54 1.563-6.342-6.545z" fill="#00a0fc" fill-opacity=".93"/><path d="M340.423 129.33l6.38 6.586-12.734 12.926-6.605-6.65z" fill="#ccc"/><path d="M323.913 145.714l6.645 6.69-55.723 56.563-7.46-7.146z" fill="url(#A)"/><path d="M264.392 205.886l6.637 6.355-17.668 13.23z" fill="#ccc" fill-opacity=".94"/><path d="M299.873 132.286l-12.66 5.055.1 35.966 4.587 2.25-.2 40.79 18.547 9.02 13.02-5.294-.08-37.097 5.194-2.1-.156-35.897z" fill="#fff"/><path d="M299.818 134.93l24.095 10.785-9.3 3.77-23.167-11.212z" fill="url(#B)"/><path d="M289.655 140.1l23.698 11.467v31.62l-4.337-2.118.063 41.01-6.94-3.558v-33.14l-2.435-1.22v33.177l-5.555-2.52.2-40.785-4.6-2.257z" fill="url(#C)"/><path d="M325.81 147.575l.137 31.664-4.427 1.8-5.73 2.314v-31.708z" fill="url(#D)"/><path d="M320.76 183.96l.075 34.477-9.32 3.79-.057-37.247 3.067 1.498z" fill="url(#E)"/><path d="M308.713 116.973c-6.814 0-12.364 5.55-12.364 12.363s5.55 12.364 12.364 12.364 12.363-5.55 12.363-12.364-5.55-12.363-12.363-12.363z" fill="#fff" paint-order="normal"/><path d="M308.713 119.408a9.91 9.91 0 1 1 0 19.856 9.91 9.91 0 1 1 0-19.856z" fill="url(#F)" paint-order="normal"/></g></svg>