<?xml version="1.0" encoding="UTF-8" standalone="no"?>
<svg
   xmlns:dc="http://purl.org/dc/elements/1.1/"
   xmlns:cc="http://creativecommons.org/ns#"
   xmlns:rdf="http://www.w3.org/1999/02/22-rdf-syntax-ns#"
   xmlns:svg="http://www.w3.org/2000/svg"
   xmlns="http://www.w3.org/2000/svg"
   xmlns:sodipodi="http://sodipodi.sourceforge.net/DTD/sodipodi-0.dtd"
   xmlns:inkscape="http://www.inkscape.org/namespaces/inkscape"
   width="18"
   height="16.830353"
   viewBox="0 0 18 16.830353"
   version="1.1"
   id="svg16540"
   sodipodi:docname="Biz_Talk.svg"
   inkscape:version="0.92.3 (2405546, 2018-03-11)">
  <sodipodi:namedview
     pagecolor="#ffffff"
     bordercolor="#666666"
     borderopacity="1"
     objecttolerance="10"
     gridtolerance="10"
     guidetolerance="10"
     inkscape:pageopacity="0"
     inkscape:pageshadow="2"
     inkscape:window-width="1920"
     inkscape:window-height="1017"
     id="namedview16542"
     showgrid="false"
     fit-margin-top="0"
     fit-margin-left="0"
     fit-margin-right="0"
     fit-margin-bottom="0"
     inkscape:zoom="48.111111"
     inkscape:cx="9"
     inkscape:cy="8.4139997"
     inkscape:window-x="-8"
     inkscape:window-y="-8"
     inkscape:window-maximized="1"
     inkscape:current-layer="svg16540" />
  <defs
     id="defs16521">
    <linearGradient
       id="a9fb18f0-3b0f-496b-bdcd-0aa2af06c410"
       x1="9"
       y1="13.343"
       x2="9"
       y2="0.58600003"
       gradientUnits="userSpaceOnUse"
       gradientTransform="translate(0,0.58364692)">
      <stop
         offset="0"
         stop-color="#0078d4"
         id="stop16504" />
      <stop
         offset="1"
         stop-color="#5ea0ef"
         id="stop16506" />
    </linearGradient>
    <linearGradient
       id="f9c8631e-1318-46e5-81e7-ddf268fd2ea1"
       x1="9.1040001"
       y1="10.28"
       x2="9.1040001"
       y2="7.6030002"
       gradientUnits="userSpaceOnUse"
       gradientTransform="translate(0,0.58364692)">
      <stop
         offset="0"
         stop-color="#76bc2d"
         id="stop16509" />
      <stop
         offset="0.412"
         stop-color="#7ac32f"
         id="stop16511" />
      <stop
         offset="1"
         stop-color="#86d633"
         id="stop16513" />
    </linearGradient>
    <linearGradient
       id="f3400587-2bbd-47f6-ac28-e9a941b1f347"
       x1="9.1190004"
       y1="17.414"
       x2="9.1190004"
       y2="13.924"
       gradientUnits="userSpaceOnUse"
       gradientTransform="translate(0,0.58364692)">
      <stop
         offset="0"
         stop-color="#0078d4"
         id="stop16516" />
      <stop
         offset="1"
         stop-color="#5ea0ef"
         id="stop16518" />
    </linearGradient>
  </defs>
  <title
     id="title16523">MsPortalFx.base.images-6</title>
  <g
     id="b5d6c51f-fecd-4739-b92c-3a3190935499"
     transform="translate(0,-0.58364692)">
    <g
       id="g16535">
      <path
         d="M 18,9.348 A 4.045,4.045 0 0 0 14.49,5.46 5.1,5.1 0 0 0 9.24,0.586 5.228,5.228 0 0 0 4.24,3.993 4.827,4.827 0 0 0 0,8.637 4.9,4.9 0 0 0 5.068,13.343 c 0.151,0 0.3,-0.007 0.447,-0.019 h 8.207 A 0.819,0.819 0 0 0 13.939,13.292 4.093,4.093 0 0 0 18,9.348 Z"
         id="path16525"
         inkscape:connector-curvature="0"
         style="fill:url(#a9fb18f0-3b0f-496b-bdcd-0aa2af06c410)" />
      <rect
         x="8.2950001"
         y="10.097"
         width="1.693"
         height="5.3499999"
         id="rect16527"
         style="fill:#005ba1" />
      <path
         d="M 13.937,5.8 A 0.207,0.207 0 0 0 13.73,5.6 H 11.285 A 0.092,0.092 0 0 0 11.22,5.758 l 0.705,0.705 0.047,0.047 a 0.094,0.094 0 0 1 0,0.13 L 11.225,7.387 A 2.677,2.677 0 0 0 9.708,6.349 V 4.874 A 0.093,0.093 0 0 1 9.8,4.781 h 1.068 A 0.093,0.093 0 0 0 10.934,4.623 L 9.2,2.886 a 0.207,0.207 0 0 0 -0.293,0 L 7.167,4.623 A 0.092,0.092 0 0 0 7.232,4.781 H 8.3 a 0.093,0.093 0 0 1 0.093,0.093 v 1.475 a 2.678,2.678 0 0 0 -1.56,1.092 l -0.805,-0.8 a 0.094,0.094 0 0 1 0,-0.13 L 6.075,6.464 6.78,5.764 A 0.092,0.092 0 0 0 6.715,5.6 H 4.27 A 0.207,0.207 0 0 0 4.063,5.806 v 2.443 a 0.093,0.093 0 0 0 0.158,0.065 l 0.705,-0.7 0.047,-0.047 a 0.092,0.092 0 0 1 0.13,0 l 1.275,1.271 c 0,0.034 0,0.068 0,0.1 a 2.677,2.677 0 1 0 5.354,0 c 0,-0.067 -0.005,-0.133 -0.01,-0.2 l 1.18,-1.18 a 0.092,0.092 0 0 1 0.13,0 l 0.047,0.047 0.705,0.705 a 0.093,0.093 0 0 0 0.158,-0.065 z"
         id="path16529"
         inkscape:connector-curvature="0"
         style="fill:#ffffff" />
      <circle
         cx="9.1040001"
         cy="8.941"
         r="1.3380001"
         id="circle16531"
         style="fill:url(#f9c8631e-1318-46e5-81e7-ddf268fd2ea1)" />
      <circle
         cx="9.1190004"
         cy="15.669"
         r="1.745"
         id="circle16533"
         style="fill:url(#f3400587-2bbd-47f6-ac28-e9a941b1f347)" />
    </g>
  </g>
  <metadata
     id="metadata16538">
    <rdf:RDF>
      <rdf:li>public:true</rdf:li>
      <rdf:li>sdk: MsPortalFx.Base.Images.Polychromatic.BizTalk()</rdf:li>
      <rdf:li>category: General</rdf:li>
      <cc:Work
         rdf:about="">
        <dc:format>image/svg+xml</dc:format>
        <dc:type
           rdf:resource="http://purl.org/dc/dcmitype/StillImage" />
        <dc:title>MsPortalFx.base.images-6</dc:title>
      </cc:Work>
    </rdf:RDF>
  </metadata>
</svg>
