<?xml version="1.0" encoding="UTF-8" standalone="no"?>
<svg
   xmlns:dc="http://purl.org/dc/elements/1.1/"
   xmlns:cc="http://creativecommons.org/ns#"
   xmlns:rdf="http://www.w3.org/1999/02/22-rdf-syntax-ns#"
   xmlns:svg="http://www.w3.org/2000/svg"
   xmlns="http://www.w3.org/2000/svg"
   xmlns:sodipodi="http://sodipodi.sourceforge.net/DTD/sodipodi-0.dtd"
   xmlns:inkscape="http://www.inkscape.org/namespaces/inkscape"
   width="15.618003"
   height="16.934565"
   viewBox="0 0 15.618003 16.934565"
   version="1.1"
   id="svg17284"
   sodipodi:docname="Bug.svg"
   inkscape:version="0.92.3 (2405546, 2018-03-11)">
  <sodipodi:namedview
     pagecolor="#ffffff"
     bordercolor="#666666"
     borderopacity="1"
     objecttolerance="10"
     gridtolerance="10"
     guidetolerance="10"
     inkscape:pageopacity="0"
     inkscape:pageshadow="2"
     inkscape:window-width="1920"
     inkscape:window-height="1017"
     id="namedview17286"
     showgrid="false"
     fit-margin-top="0"
     fit-margin-left="0"
     fit-margin-right="0"
     fit-margin-bottom="0"
     inkscape:zoom="48.111111"
     inkscape:cx="7.8090016"
     inkscape:cy="8.4344511"
     inkscape:window-x="-8"
     inkscape:window-y="-8"
     inkscape:window-maximized="1"
     inkscape:current-layer="svg17284" />
  <defs
     id="defs17255">
    <linearGradient
       id="bc9022b1-0342-40a9-9cf5-001cbbd7832d"
       x1="8.9160004"
       y1="17.5"
       x2="8.9160004"
       y2="2.605"
       gradientUnits="userSpaceOnUse"
       gradientTransform="translate(1.1909984,0.49988722)">
      <stop
         offset="0"
         stop-color="#773adc"
         id="stop17250" />
      <stop
         offset="1"
         stop-color="#a67af4"
         id="stop17252" />
    </linearGradient>
  </defs>
  <title
     id="title17257">MsPortalFx.base.images-75</title>
  <g
     id="bd1c5136-8a78-4293-a9c5-1141130b41f4"
     transform="translate(-1.1909984,-0.49988722)">
    <g
       id="g17279">
      <path
         d="M 9,4.759 A 0.432,0.432 0 0 1 8.665,4.6 L 5.865,1.2 A 0.43,0.43 0 0 1 6.53,0.657 L 8.995,3.65 11.422,0.659 A 0.43011278,0.43011278 0 0 1 12.09,1.201 L 9.331,4.6 A 0.431,0.431 0 0 1 9,4.759 Z"
         id="path17259"
         inkscape:connector-curvature="0"
         style="fill:#773adc" />
      <path
         d="M 1.621,8.837 A 0.43,0.43 0 0 1 1.191,8.407 V 7.127 A 0.43,0.43 0 0 1 1.438,6.738 L 5.957,4.619 a 0.43,0.43 0 0 1 0.365,0.778 l -4.271,2 v 1.01 a 0.431,0.431 0 0 1 -0.43,0.43 z"
         id="path17261"
         inkscape:connector-curvature="0"
         style="fill:#773adc" />
      <path
         d="m 1.621,12.741 a 0.429,0.429 0 0 1 -0.43,-0.43 v -1.279 a 0.428,0.428 0 0 1 0.247,-0.389 l 4.519,-2.12 a 0.43013544,0.43013544 0 0 1 0.365,0.779 l -4.271,2 v 1.006 a 0.43,0.43 0 0 1 -0.43,0.433 z"
         id="path17263"
         inkscape:connector-curvature="0"
         style="fill:#773adc" />
      <path
         d="m 1.621,16.845 a 0.43,0.43 0 0 1 -0.43,-0.43 v -1.28 a 0.43,0.43 0 0 1 0.247,-0.389 l 4.519,-2.119 a 0.43,0.43 0 0 1 0.365,0.778 l -4.271,2 v 1.007 a 0.431,0.431 0 0 1 -0.43,0.433 z"
         id="path17265"
         inkscape:connector-curvature="0"
         style="fill:#773adc" />
      <path
         d="m 16.379,8.837 a 0.431,0.431 0 0 1 -0.43,-0.43 V 7.4 l -4.271,-2 a 0.43,0.43 0 0 1 0.365,-0.778 l 4.519,2.119 a 0.43,0.43 0 0 1 0.247,0.389 v 1.28 a 0.43,0.43 0 0 1 -0.43,0.427 z"
         id="path17267"
         inkscape:connector-curvature="0"
         style="fill:#773adc" />
      <path
         d="m 16.379,12.741 a 0.43,0.43 0 0 1 -0.43,-0.43 v -1.006 l -4.271,-2 a 0.43013544,0.43013544 0 0 1 0.365,-0.779 l 4.519,2.12 a 0.428,0.428 0 0 1 0.247,0.389 v 1.279 a 0.429,0.429 0 0 1 -0.43,0.427 z"
         id="path17269"
         inkscape:connector-curvature="0"
         style="fill:#773adc" />
      <path
         d="m 16.379,16.845 a 0.431,0.431 0 0 1 -0.43,-0.43 v -1.007 l -4.271,-2 a 0.43,0.43 0 0 1 0.365,-0.778 l 4.519,2.119 a 0.43,0.43 0 0 1 0.247,0.389 v 1.28 a 0.43,0.43 0 0 1 -0.43,0.427 z"
         id="path17271"
         inkscape:connector-curvature="0"
         style="fill:#773adc" />
      <path
         d="m 13.345,7.034 a 4.429,4.429 0 1 0 -8.857,0 v 6.038 a 4.429,4.429 0 0 0 8.857,0 z"
         id="path17273"
         inkscape:connector-curvature="0"
         style="fill:url(#bc9022b1-0342-40a9-9cf5-001cbbd7832d)" />
      <path
         d="m 12.817,4.937 a 4.44,4.44 0 0 0 -1.8,-1.8 1.29,1.29 0 0 0 1.8,1.8 z"
         id="path17275"
         inkscape:connector-curvature="0"
         style="fill:#b796f9" />
      <path
         d="m 5.016,4.937 a 1.29,1.29 0 0 0 1.8,-1.8 4.44,4.44 0 0 0 -1.8,1.8 z"
         id="path17277"
         inkscape:connector-curvature="0"
         style="fill:#b796f9" />
    </g>
  </g>
  <metadata
     id="metadata17282">
    <rdf:RDF>
      <rdf:li>public:true</rdf:li>
      <rdf:li>sdk: MsPortalFx.Base.Images.Polychromatic.Bug()</rdf:li>
      <rdf:li>category: General</rdf:li>
      <cc:Work
         rdf:about="">
        <dc:format>image/svg+xml</dc:format>
        <dc:type
           rdf:resource="http://purl.org/dc/dcmitype/StillImage" />
        <dc:title>MsPortalFx.base.images-75</dc:title>
      </cc:Work>
    </rdf:RDF>
  </metadata>
</svg>
