<?xml version="1.0" encoding="UTF-8" standalone="no"?>
<svg
   xmlns:dc="http://purl.org/dc/elements/1.1/"
   xmlns:cc="http://creativecommons.org/ns#"
   xmlns:rdf="http://www.w3.org/1999/02/22-rdf-syntax-ns#"
   xmlns:svg="http://www.w3.org/2000/svg"
   xmlns="http://www.w3.org/2000/svg"
   xmlns:sodipodi="http://sodipodi.sourceforge.net/DTD/sodipodi-0.dtd"
   xmlns:inkscape="http://www.inkscape.org/namespaces/inkscape"
   width="15.408463"
   height="18.001438"
   viewBox="0 0 15.408463 18.001438"
   version="1.1"
   id="svg19801"
   sodipodi:docname="Cost_Analysis.svg"
   inkscape:version="0.92.3 (2405546, 2018-03-11)">
  <sodipodi:namedview
     pagecolor="#ffffff"
     bordercolor="#666666"
     borderopacity="1"
     objecttolerance="10"
     gridtolerance="10"
     guidetolerance="10"
     inkscape:pageopacity="0"
     inkscape:pageshadow="2"
     inkscape:window-width="1920"
     inkscape:window-height="1017"
     id="namedview19803"
     showgrid="false"
     fit-margin-top="0"
     fit-margin-left="0"
     fit-margin-right="0"
     fit-margin-bottom="0"
     inkscape:zoom="48.111111"
     inkscape:cx="7.703368"
     inkscape:cy="9.0014179"
     inkscape:window-x="-8"
     inkscape:window-y="-8"
     inkscape:window-maximized="1"
     inkscape:current-layer="svg19801" />
  <defs
     id="defs19784">
    <linearGradient
       id="f8977a6e-0ed8-4940-aaa5-7fa249809f51"
       x1="5.8390002"
       y1="17.068001"
       x2="5.8390002"
       gradientUnits="userSpaceOnUse"
       gradientTransform="translate(1.296632,-2.0834352e-5)">
      <stop
         offset="0"
         stop-color="#5e9624"
         id="stop19773" />
      <stop
         offset="0.037"
         stop-color="#609925"
         id="stop19775" />
      <stop
         offset="0.439"
         stop-color="#75ba2d"
         id="stop19777" />
      <stop
         offset="0.775"
         stop-color="#81cf31"
         id="stop19779" />
      <stop
         offset="1"
         stop-color="#86d633"
         id="stop19781" />
    </linearGradient>
  </defs>
  <title
     id="title19786">MsPortalFx.base.images-32</title>
  <g
     id="ad6dac45-d20b-4f6a-9e78-80f4c72c1818"
     transform="translate(-1.296632,2.0834352e-5)">
    <g
       id="g19796">
      <path
         d="m 9.477,8.936 v 0 A 7.412,7.412 0 0 0 6.7,7.3 V 4.244 A 6.734,6.734 0 0 1 9.211,5.131 0.215,0.215 0 0 0 9.538,4.946 V 2.49 A 0.218,0.218 0 0 0 9.428,2.301 6.592,6.592 0 0 0 6.7,1.667 V 0.216 A 0.216,0.216 0 0 0 6.481,0 H 5.163 A 0.216,0.216 0 0 0 4.947,0.216 v 1.5 A 4.5,4.5 0 0 0 2.382,2.916 3.511,3.511 0 0 0 1.3,5.51 3.488,3.488 0 0 0 2.187,7.991 7.536,7.536 0 0 0 4.947,9.624 v 2.92 A 7.14,7.14 0 0 1 3.376,12.144 5.118,5.118 0 0 1 1.884,11.4 0.216,0.216 0 0 0 1.541,11.574 V 14.1 a 0.216,0.216 0 0 0 0.116,0.191 7.588,7.588 0 0 0 3.29,0.859 v 1.707 a 0.216,0.216 0 0 0 0.216,0.216 h 1.318 a 0.216,0.216 0 0 0 0.215,-0.216 v -1.79 A 4.678,4.678 0 0 0 9.375,13.9 3.457,3.457 0 0 0 10.38,11.323 3.363,3.363 0 0 0 9.477,8.936 Z m -1.925,2.5 v 0.015 A 0.984,0.984 0 0 1 6.7,12.483 V 10.34 c 0.558,0.31 0.845,0.677 0.852,1.093 z M 4.127,5.355 A 1,1 0 0 1 4.948,4.307 v 2.25 A 1.413,1.413 0 0 1 4.127,5.355 Z"
         id="path19788"
         inkscape:connector-curvature="0"
         style="fill:url(#f8977a6e-0ed8-4940-aaa5-7fa249809f51)" />
      <rect
         x="11.394"
         y="14.994"
         width="5.9660001"
         height="1.359"
         rx="0.63499999"
         transform="rotate(-135,14.377504,15.673636)"
         id="rect19790"
         style="fill:#198ab3" />
      <circle
         cx="10.45"
         cy="11.677"
         r="4.0929999"
         id="circle19792"
         style="fill:#32bedd" />
      <circle
         cx="10.458"
         cy="11.604"
         r="3.2149999"
         id="circle19794"
         style="fill:#ffffff" />
    </g>
  </g>
  <metadata
     id="metadata19799">
    <rdf:RDF>
      <rdf:li>public:true</rdf:li>
      <rdf:li>sdk: MsPortalFx.Base.Images.Polychromatic.CostAnalysis()</rdf:li>
      <rdf:li>category: General</rdf:li>
      <cc:Work
         rdf:about="">
        <dc:format>image/svg+xml</dc:format>
        <dc:type
           rdf:resource="http://purl.org/dc/dcmitype/StillImage" />
        <dc:title>MsPortalFx.base.images-32</dc:title>
      </cc:Work>
    </rdf:RDF>
  </metadata>
</svg>
