<?xml version="1.0" encoding="UTF-8" standalone="no"?>
<svg
   xmlns:dc="http://purl.org/dc/elements/1.1/"
   xmlns:cc="http://creativecommons.org/ns#"
   xmlns:rdf="http://www.w3.org/1999/02/22-rdf-syntax-ns#"
   xmlns:svg="http://www.w3.org/2000/svg"
   xmlns="http://www.w3.org/2000/svg"
   xmlns:sodipodi="http://sodipodi.sourceforge.net/DTD/sodipodi-0.dtd"
   xmlns:inkscape="http://www.inkscape.org/namespaces/inkscape"
   width="17"
   height="16.68"
   viewBox="0 0 17 16.68"
   version="1.1"
   id="svg23915"
   sodipodi:docname="Extensions.svg"
   inkscape:version="0.92.3 (2405546, 2018-03-11)">
  <sodipodi:namedview
     pagecolor="#ffffff"
     bordercolor="#666666"
     borderopacity="1"
     objecttolerance="10"
     gridtolerance="10"
     guidetolerance="10"
     inkscape:pageopacity="0"
     inkscape:pageshadow="2"
     inkscape:window-width="1920"
     inkscape:window-height="1017"
     id="namedview23917"
     showgrid="false"
     fit-margin-top="0"
     fit-margin-left="0"
     fit-margin-right="0"
     fit-margin-bottom="0"
     inkscape:zoom="48.111111"
     inkscape:cx="8.5"
     inkscape:cy="8.34"
     inkscape:window-x="-8"
     inkscape:window-y="-8"
     inkscape:window-maximized="1"
     inkscape:current-layer="svg23915" />
  <defs
     id="defs23900">
    <linearGradient
       id="a7ee2b34-5d31-4c40-9ffe-8433e6b85e09"
       x1="8.1440001"
       y1="13.837"
       x2="8.1440001"
       y2="6.1100001"
       gradientUnits="userSpaceOnUse"
       gradientTransform="translate(0.5,0.66)">
      <stop
         offset="0"
         stop-color="#32bedd"
         id="stop23891" />
      <stop
         offset="0.175"
         stop-color="#32caea"
         id="stop23893" />
      <stop
         offset="0.41"
         stop-color="#32d2f2"
         id="stop23895" />
      <stop
         offset="0.775"
         stop-color="#32d4f5"
         id="stop23897" />
    </linearGradient>
  </defs>
  <title
     id="title23902">MsPortalFx.base.images-21</title>
  <g
     id="b60cdf7c-998d-4b07-83eb-3c17ec41d74f"
     transform="translate(-0.5,-0.66)">
    <g
       id="g23910">
      <rect
         x="4.2810001"
         y="6.1100001"
         width="7.7259998"
         height="7.7259998"
         rx="0.303"
         id="rect23904"
         style="fill:url(#a7ee2b34-5d31-4c40-9ffe-8433e6b85e09)" />
      <path
         d="m 16.894,0.66 h -7.3 a 0.3,0.3 0 0 0 -0.3,0.3 v 1.327 a 0.3,0.3 0 0 0 0.3,0.3 h 5.371 a 0.605,0.605 0 0 1 0.605,0.606 v 5.458 a 0.3,0.3 0 0 0 0.3,0.3 h 1.33 a 0.3,0.3 0 0 0 0.3,-0.3 V 1.266 A 0.606,0.606 0 0 0 16.894,0.66 Z"
         id="path23906"
         inkscape:connector-curvature="0"
         style="fill:#773adc" />
      <path
         d="m 14.333,10.223 v 4.806 a 0.552,0.552 0 0 1 -0.552,0.552 H 2.81 A 0.552,0.552 0 0 1 2.258,15.029 V 4.672 A 0.552,0.552 0 0 1 2.81,4.12 h 5.5 a 0.3,0.3 0 0 0 0.3,-0.3 V 2.665 a 0.3,0.3 0 0 0 -0.3,-0.3 H 1.052 A 0.552,0.552 0 0 0 0.5,2.914 v 13.874 a 0.552,0.552 0 0 0 0.552,0.552 h 14.487 a 0.553,0.553 0 0 0 0.553,-0.552 v -6.565 a 0.3,0.3 0 0 0 -0.3,-0.3 h -1.156 a 0.3,0.3 0 0 0 -0.303,0.3 z"
         id="path23908"
         inkscape:connector-curvature="0"
         style="fill:#b3b3b3" />
    </g>
  </g>
  <metadata
     id="metadata23913">
    <rdf:RDF>
      <rdf:li>public:true</rdf:li>
      <rdf:li>sdk: MsPortalFx.Base.Images.Polychromatic.Extensions()</rdf:li>
      <rdf:li>category: General</rdf:li>
      <cc:Work
         rdf:about="">
        <dc:format>image/svg+xml</dc:format>
        <dc:type
           rdf:resource="http://purl.org/dc/dcmitype/StillImage" />
        <dc:title>MsPortalFx.base.images-21</dc:title>
      </cc:Work>
    </rdf:RDF>
  </metadata>
</svg>
