<?xml version="1.0" encoding="UTF-8" standalone="no"?>
<svg
   xmlns:dc="http://purl.org/dc/elements/1.1/"
   xmlns:cc="http://creativecommons.org/ns#"
   xmlns:rdf="http://www.w3.org/1999/02/22-rdf-syntax-ns#"
   xmlns:svg="http://www.w3.org/2000/svg"
   xmlns="http://www.w3.org/2000/svg"
   xmlns:sodipodi="http://sodipodi.sourceforge.net/DTD/sodipodi-0.dtd"
   xmlns:inkscape="http://www.inkscape.org/namespaces/inkscape"
   width="16"
   height="12.867015"
   viewBox="0 0 16 12.867015"
   version="1.1"
   id="svg25556"
   sodipodi:docname="FTP.svg"
   inkscape:version="0.92.3 (2405546, 2018-03-11)">
  <sodipodi:namedview
     pagecolor="#ffffff"
     bordercolor="#666666"
     borderopacity="1"
     objecttolerance="10"
     gridtolerance="10"
     guidetolerance="10"
     inkscape:pageopacity="0"
     inkscape:pageshadow="2"
     inkscape:window-width="1920"
     inkscape:window-height="1017"
     id="namedview25558"
     showgrid="false"
     fit-margin-top="0"
     fit-margin-left="0"
     fit-margin-right="0"
     fit-margin-bottom="0"
     inkscape:zoom="48.111111"
     inkscape:cx="8"
     inkscape:cy="6.435"
     inkscape:window-x="-8"
     inkscape:window-y="-8"
     inkscape:window-maximized="1"
     inkscape:current-layer="svg25556" />
  <defs
     id="defs25535">
    <linearGradient
       id="f9735c41-4373-4adb-b2b2-792fb469daad"
       x1="9"
       y1="15.432"
       x2="9"
       y2="5.9770002"
       gradientUnits="userSpaceOnUse"
       gradientTransform="translate(1,2.567985)">
      <stop
         offset="0"
         stop-color="#32bedd"
         id="stop25526" />
      <stop
         offset="0.175"
         stop-color="#32caea"
         id="stop25528" />
      <stop
         offset="0.41"
         stop-color="#32d2f2"
         id="stop25530" />
      <stop
         offset="0.775"
         stop-color="#32d4f5"
         id="stop25532" />
    </linearGradient>
  </defs>
  <title
     id="title25537">MsPortalFx.base.images-67</title>
  <g
     id="e570f1c2-02c9-41ea-b129-22ed8e502359"
     transform="translate(-1,-2.567985)">
    <g
       id="g25551">
      <path
         d="M 1,5.977 H 17 V 14.9 a 0.535,0.535 0 0 1 -0.535,0.535 H 1.535 A 0.535,0.535 0 0 1 1,14.9 Z"
         id="path25539"
         inkscape:connector-curvature="0"
         style="fill:url(#f9735c41-4373-4adb-b2b2-792fb469daad)" />
      <path
         d="M 1.539,2.568 H 16.463 A 0.535,0.535 0 0 1 17,3.1 V 5.977 H 1 V 3.1 A 0.535,0.535 0 0 1 1.539,2.568 Z"
         id="path25541"
         inkscape:connector-curvature="0"
         style="fill:#0078d4" />
      <rect
         x="3.2520001"
         y="3.5799999"
         width="11.499"
         height="1.35"
         rx="0.26300001"
         id="rect25543"
         style="fill:#f2f2f2" />
      <g
         id="g25549">
        <path
           d="M 6.611,13.469 8.666,7.923 A 0.27,0.27 0 0 0 8.413,7.56 H 7.136 A 0.269,0.269 0 0 0 6.884,7.736 l -2.055,5.546 a 0.269,0.269 0 0 0 0.252,0.362 h 1.277 a 0.27,0.27 0 0 0 0.253,-0.175 z"
           id="path25545"
           inkscape:connector-curvature="0"
           style="fill:#f2f2f2" />
        <path
           d="M 11.116,13.469 13.171,7.923 A 0.269,0.269 0 0 0 12.919,7.56 h -1.277 a 0.269,0.269 0 0 0 -0.253,0.176 l -2.055,5.546 a 0.269,0.269 0 0 0 0.253,0.362 h 1.277 a 0.269,0.269 0 0 0 0.252,-0.175 z"
           id="path25547"
           inkscape:connector-curvature="0"
           style="fill:#f2f2f2" />
      </g>
    </g>
  </g>
  <metadata
     id="metadata25554">
    <rdf:RDF>
      <rdf:li>public:true</rdf:li>
      <rdf:li>sdk: MsPortalFx.Base.Images.Polychromatic.Ftp()</rdf:li>
      <rdf:li>category: General</rdf:li>
      <cc:Work
         rdf:about="">
        <dc:format>image/svg+xml</dc:format>
        <dc:type
           rdf:resource="http://purl.org/dc/dcmitype/StillImage" />
        <dc:title>MsPortalFx.base.images-67</dc:title>
      </cc:Work>
    </rdf:RDF>
  </metadata>
</svg>
