<?xml version="1.0" encoding="UTF-8" standalone="no"?>
<!-- Generator: Adobe Illustrator 24.0.1, SVG Export Plug-In . SVG Version: 6.00 Build 0)  -->

<svg
   xmlns:dc="http://purl.org/dc/elements/1.1/"
   xmlns:cc="http://creativecommons.org/ns#"
   xmlns:rdf="http://www.w3.org/1999/02/22-rdf-syntax-ns#"
   xmlns:svg="http://www.w3.org/2000/svg"
   xmlns="http://www.w3.org/2000/svg"
   xmlns:sodipodi="http://sodipodi.sourceforge.net/DTD/sodipodi-0.dtd"
   xmlns:inkscape="http://www.inkscape.org/namespaces/inkscape"
   version="1.1"
   id="Layer_1"
   x="0px"
   y="0px"
   viewBox="0 0 17 16.9"
   xml:space="preserve"
   sodipodi:docname="Gear.svg"
   width="17"
   height="16.9"
   inkscape:version="0.92.3 (2405546, 2018-03-11)"><defs
   id="defs25697" /><sodipodi:namedview
   pagecolor="#ffffff"
   bordercolor="#666666"
   borderopacity="1"
   objecttolerance="10"
   gridtolerance="10"
   guidetolerance="10"
   inkscape:pageopacity="0"
   inkscape:pageshadow="2"
   inkscape:window-width="1920"
   inkscape:window-height="1017"
   id="namedview25695"
   showgrid="false"
   fit-margin-top="0"
   fit-margin-left="0"
   fit-margin-right="0"
   fit-margin-bottom="0"
   inkscape:zoom="48.111111"
   inkscape:cx="8.5"
   inkscape:cy="8.4"
   inkscape:window-x="-8"
   inkscape:window-y="-8"
   inkscape:window-maximized="1"
   inkscape:current-layer="Layer_1" />
<style
   type="text/css"
   id="style25672">
	.st0{fill:url(#SVGID_1_);}
	.st1{fill:#FFFFFF;}
</style>
<title
   id="title25674">MsPortalFx.base.images-76</title>
<g
   id="b8796109-74b3-4e41-9593-a5e3ee23b931"
   transform="translate(-0.5,-0.5)">
	<g
   id="g25689">
		
			<linearGradient
   id="SVGID_1_"
   gradientUnits="userSpaceOnUse"
   x1="9"
   y1="2.5"
   x2="9"
   y2="19.5"
   gradientTransform="matrix(1,0,0,-1,0.5,20.5)">
			<stop
   offset="0"
   style="stop-color:#32BEDD"
   id="stop25676" />
			<stop
   offset="0.226"
   style="stop-color:#32C9E9"
   id="stop25678" />
			<stop
   offset="0.547"
   style="stop-color:#32D1F2"
   id="stop25680" />
			<stop
   offset="1"
   style="stop-color:#32D4F5"
   id="stop25682" />
		</linearGradient>
		<path
   class="st0"
   d="M 17.5,9.9 V 8 L 17.2,7.9 15.1,7.2 14.6,5.9 15.7,3.7 14.3,2.3 14,2.4 12.1,3.4 10.8,2.9 9.9,0.5 H 8 L 7.9,0.8 7.2,2.8 5.9,3.4 3.7,2.3 2.3,3.7 2.4,4 3.4,5.9 2.9,7.2 0.5,8.1 V 10 l 0.3,0.1 2.1,0.7 0.5,1.3 -1.1,2.2 1.4,1.4 0.3,-0.1 1.9,-1 1.3,0.5 0.9,2.3 H 10 l 0.1,-0.3 0.7,-2.1 1.3,-0.5 2.2,1.1 1.4,-1.4 -0.1,-0.2 -1,-1.9 0.5,-1.3 z"
   id="path25685"
   inkscape:connector-curvature="0"
   style="fill:url(#SVGID_1_)" />
		<path
   class="st1"
   d="m 12.3,6.5 -0.8,0.7 c 1.1,1.2 1,3.1 -0.3,4.2 C 9.9,12.5 8.1,12.4 7,11.1 6,10 6,8.3 7,7.2 c 0,0 0.1,0 0.1,0 v 0 l 0.6,0.5 c 0,0 0.1,0 0.1,0 0,0 0,0 0,-0.1 L 7.6,5.6 C 7.6,5.5 7.5,5.5 7.4,5.5 L 5.5,5.8 c 0,0 -0.1,0 -0.1,0.1 0,0 0,0 0,0 L 6,6.4 v 0 c 0,0 0,0.1 0,0.1 v 0 c -1.4,1.7 -1.2,4.2 0.5,5.6 1.7,1.4 4.2,1.2 5.6,-0.5 1.5,-1.5 1.5,-3.7 0.2,-5.1 z"
   id="path25687"
   inkscape:connector-curvature="0"
   style="fill:#ffffff" />
	</g>
</g>
<metadata
   id="metadata25692">
   <rdf:RDF>
      <rdf:li>public:true</rdf:li>
      <rdf:li>sdk: MsPortalFx.Base.Images.Polychromatic.Gear()</rdf:li>
      <rdf:li>category: General</rdf:li>
   <cc:Work
   rdf:about=""><dc:format>image/svg+xml</dc:format><dc:type
     rdf:resource="http://purl.org/dc/dcmitype/StillImage" /><dc:title>MsPortalFx.base.images-76</dc:title></cc:Work></rdf:RDF>
</metadata>
</svg>