<?xml version="1.0" encoding="UTF-8" standalone="no"?>
<svg
   xmlns:dc="http://purl.org/dc/elements/1.1/"
   xmlns:cc="http://creativecommons.org/ns#"
   xmlns:rdf="http://www.w3.org/1999/02/22-rdf-syntax-ns#"
   xmlns:svg="http://www.w3.org/2000/svg"
   xmlns="http://www.w3.org/2000/svg"
   xmlns:sodipodi="http://sodipodi.sourceforge.net/DTD/sodipodi-0.dtd"
   xmlns:inkscape="http://www.inkscape.org/namespaces/inkscape"
   width="14.3701"
   height="17"
   viewBox="0 0 14.3701 17"
   version="1.1"
   id="svg26046"
   sodipodi:docname="Globe_Success.svg"
   inkscape:version="0.92.3 (2405546, 2018-03-11)">
  <sodipodi:namedview
     pagecolor="#ffffff"
     bordercolor="#666666"
     borderopacity="1"
     objecttolerance="10"
     gridtolerance="10"
     guidetolerance="10"
     inkscape:pageopacity="0"
     inkscape:pageshadow="2"
     inkscape:window-width="1920"
     inkscape:window-height="1017"
     id="namedview26048"
     showgrid="false"
     fit-margin-top="0"
     fit-margin-left="0"
     fit-margin-right="0"
     fit-margin-bottom="0"
     inkscape:zoom="48.111111"
     inkscape:cx="7.1920004"
     inkscape:cy="8.5"
     inkscape:window-x="-8"
     inkscape:window-y="-8"
     inkscape:window-maximized="1"
     inkscape:current-layer="svg26046" />
  <defs
     id="defs26023">
    <linearGradient
       id="a688f580-ce26-4bab-99ad-74e6813bb8cb"
       x1="-234.30901"
       y1="776.48499"
       x2="-234.30901"
       y2="788.61102"
       gradientTransform="matrix(0.707,0.707,0.707,-0.707,-377.984,726.089)"
       gradientUnits="userSpaceOnUse">
      <stop
         offset="0"
         stop-color="#5e9624"
         id="stop26018" />
      <stop
         offset="0.82"
         stop-color="#76bc2d"
         id="stop26020" />
    </linearGradient>
  </defs>
  <title
     id="title26025">MsPortalFx.base.images-70</title>
  <g
     id="e5e21a0c-214a-4f21-9e9f-6b29445c78c6"
     transform="translate(-1.8079996,-0.5)">
    <g
       id="g26041">
      <path
         d="m 9.3,14.752 c 0,-0.154 -0.613,-0.154 -0.613,0 a 1.656,1.656 0 0 1 -1.636,1.8 h 3.882 A 1.655,1.655 0 0 1 9.3,14.752 Z"
         id="path26027"
         inkscape:connector-curvature="0"
         style="fill:#999999" />
      <path
         d="m 13.335,1.1 a 0.571,0.571 0 0 1 0.807,0 l 0.026,0.028 a 8.32,8.32 0 0 1 -11.736,11.73 0.57,0.57 0 0 1 -0.049,-0.8 l 0.025,-0.026 v 0 A 0.571,0.571 0 0 1 3.19,12 7.178,7.178 0 0 0 13.312,1.882 0.573,0.573 0 0 1 13.335,1.1 Z"
         id="path26029"
         inkscape:connector-curvature="0"
         style="fill:#a3a3a3" />
      <path
         d="m 11.946,17.5 h -5.9 A 0.476,0.476 0 0 1 5.57,17.024 v 0 a 0.476,0.476 0 0 1 0.476,-0.476 h 5.9 a 0.476,0.476 0 0 1 0.475,0.476 v 0 A 0.476,0.476 0 0 1 11.946,17.5 Z"
         id="path26031"
         inkscape:connector-curvature="0"
         style="fill:#a3a3a3" />
      <circle
         cx="7.8709998"
         cy="6.5630002"
         r="6.0630002"
         id="circle26033"
         style="fill:url(#a688f580-ce26-4bab-99ad-74e6813bb8cb)" />
      <g
         id="g26039">
        <path
           d="M 5.093,5.875 H 5.881 A 0.243,0.243 0 0 1 6.124,6.118 V 9.247 A 0.243,0.243 0 0 1 5.881,9.49 H 5.336 A 0.243,0.243 0 0 1 5.093,9.247 Z"
           transform="rotate(135,5.6081801,7.6823444)"
           id="path26035"
           inkscape:connector-curvature="0"
           style="fill:#ffffff" />
        <path
           d="m 8.525,2.615 h 0.788 v 7.2 A 0.243,0.243 0 0 1 9.07,10.058 H 8.525 A 0.243,0.243 0 0 1 8.282,9.815 V 2.857 A 0.243,0.243 0 0 1 8.525,2.614 Z"
           transform="rotate(-135,8.7978569,6.3340945)"
           id="path26037"
           inkscape:connector-curvature="0"
           style="fill:#f2f2f2" />
      </g>
    </g>
  </g>
  <metadata
     id="metadata26044">
    <rdf:RDF>
      <rdf:li>public:true</rdf:li>
      <rdf:li>sdk: MsPortalFx.Base.Images.Polychromatic.GlobeSuccess()</rdf:li>
      <rdf:li>category: General</rdf:li>
      <cc:Work
         rdf:about="">
        <dc:format>image/svg+xml</dc:format>
        <dc:type
           rdf:resource="http://purl.org/dc/dcmitype/StillImage" />
        <dc:title>MsPortalFx.base.images-70</dc:title>
      </cc:Work>
    </rdf:RDF>
  </metadata>
</svg>
