<?xml version="1.0" encoding="UTF-8" standalone="no"?>
<svg
   xmlns:dc="http://purl.org/dc/elements/1.1/"
   xmlns:cc="http://creativecommons.org/ns#"
   xmlns:rdf="http://www.w3.org/1999/02/22-rdf-syntax-ns#"
   xmlns:svg="http://www.w3.org/2000/svg"
   xmlns="http://www.w3.org/2000/svg"
   xmlns:sodipodi="http://sodipodi.sourceforge.net/DTD/sodipodi-0.dtd"
   xmlns:inkscape="http://www.inkscape.org/namespaces/inkscape"
   id="bf97f450-0d91-4db3-8ea1-010780a2af52"
   width="16.967587"
   height="16.971489"
   viewBox="0 0 16.967587 16.971489"
   version="1.1"
   sodipodi:docname="Information.svg"
   inkscape:version="0.92.3 (2405546, 2018-03-11)">
  <sodipodi:namedview
     pagecolor="#ffffff"
     bordercolor="#666666"
     borderopacity="1"
     objecttolerance="10"
     gridtolerance="10"
     guidetolerance="10"
     inkscape:pageopacity="0"
     inkscape:pageshadow="2"
     inkscape:window-width="1920"
     inkscape:window-height="1017"
     id="namedview28095"
     showgrid="false"
     fit-margin-top="0"
     fit-margin-left="0"
     fit-margin-right="0"
     fit-margin-bottom="0"
     inkscape:zoom="48.111111"
     inkscape:cx="8.9430876"
     inkscape:cy="8.5930876"
     inkscape:window-x="-8"
     inkscape:window-y="-8"
     inkscape:window-maximized="1"
     inkscape:current-layer="bf97f450-0d91-4db3-8ea1-010780a2af52" />
  <defs
     id="defs28085">
    <linearGradient
       id="fe22bed8-8e36-415d-8032-3026ad9e8503"
       x1="8.5600004"
       y1="17.59"
       x2="8.5600004"
       y2="0.58999997"
       gradientUnits="userSpaceOnUse">
      <stop
         offset="0"
         stop-color="#1988d9"
         id="stop28076" />
      <stop
         offset="0.22"
         stop-color="#218ddc"
         id="stop28078" />
      <stop
         offset="0.56"
         stop-color="#379ce5"
         id="stop28080" />
      <stop
         offset="0.9"
         stop-color="#54aef0"
         id="stop28082" />
    </linearGradient>
  </defs>
  <title
     id="title28087">Icon-general-5</title>
  <path
     id="b3492ff9-55dd-4864-be78-9e79f3547897"
     d="M 13.713088,15.188401 A 8.5030877,8.5030877 0 0 1 3.2930876,1.7484011 l 0.09,-0.06 A 8.5,8.5 0 0 1 13.713088,15.188401"
     inkscape:connector-curvature="0"
     style="fill:url(#fe22bed8-8e36-415d-8032-3026ad9e8503)" />
  <path
     d="m 8.5030876,5.5484011 a 1.24,1.24 0 0 1 -0.89,-0.33 1,1 0 0 1 -0.34,-0.79 1,1 0 0 1 0.34,-0.79 1.31,1.31 0 0 1 0.89,-0.26 1.28,1.28 0 0 1 0.89,0.3 1,1 0 0 1 0.35,0.79 1,1 0 0 1 -0.35,0.8 1.24,1.24 0 0 1 -0.89,0.28 z m 0.64,8.0499999 h -1.31 a 0.42,0.42 0 0 1 -0.42,-0.42 V 7.0684011 a 0.42,0.42 0 0 1 0.42,-0.42 h 1.31 a 0.42,0.42 0 0 1 0.42,0.42 v 6.1099999 a 0.42,0.42 0 0 1 -0.42,0.42 z"
     id="path28090"
     inkscape:connector-curvature="0"
     style="fill:#ffffff" />
  <metadata
     id="metadata28092">
    <rdf:RDF>
      <rdf:li>public:true</rdf:li>
      <rdf:li>sdk:MsPortalFx.Base.Images.Polychromatic.Info()</rdf:li>
      <rdf:li>category: General</rdf:li>
      <cc:Work
         rdf:about="">
        <dc:format>image/svg+xml</dc:format>
        <dc:type
           rdf:resource="http://purl.org/dc/dcmitype/StillImage" />
        <dc:title>Icon-general-5</dc:title>
      </cc:Work>
    </rdf:RDF>
  </metadata>
</svg>
