<?xml version="1.0" encoding="UTF-8" standalone="no"?>
<svg
   xmlns:dc="http://purl.org/dc/elements/1.1/"
   xmlns:cc="http://creativecommons.org/ns#"
   xmlns:rdf="http://www.w3.org/1999/02/22-rdf-syntax-ns#"
   xmlns:svg="http://www.w3.org/2000/svg"
   xmlns="http://www.w3.org/2000/svg"
   xmlns:sodipodi="http://sodipodi.sourceforge.net/DTD/sodipodi-0.dtd"
   xmlns:inkscape="http://www.inkscape.org/namespaces/inkscape"
   width="12.268356"
   height="18.000849"
   viewBox="0 0 12.268356 18.000849"
   version="1.1"
   id="svg29442"
   sodipodi:docname="Learn.svg"
   inkscape:version="0.92.3 (2405546, 2018-03-11)">
  <sodipodi:namedview
     pagecolor="#ffffff"
     bordercolor="#666666"
     borderopacity="1"
     objecttolerance="10"
     gridtolerance="10"
     guidetolerance="10"
     inkscape:pageopacity="0"
     inkscape:pageshadow="2"
     inkscape:window-width="1920"
     inkscape:window-height="1017"
     id="namedview29444"
     showgrid="false"
     fit-margin-top="0"
     fit-margin-left="0"
     fit-margin-right="0"
     fit-margin-bottom="0"
     inkscape:zoom="48.111111"
     inkscape:cx="6.134"
     inkscape:cy="8.9975029"
     inkscape:window-x="-8"
     inkscape:window-y="-8"
     inkscape:window-maximized="1"
     inkscape:current-layer="svg29442" />
  <defs
     id="defs29413">
    <linearGradient
       id="b3088683-8265-4928-ad86-999607a53d8b"
       x1="54.258999"
       y1="17.732"
       x2="54.258999"
       y2="12.155"
       gradientTransform="translate(-45.333,0.9196544)"
       gradientUnits="userSpaceOnUse">
      <stop
         offset="0"
         stop-color="#76bc2d"
         id="stop29399" />
      <stop
         offset="0.192"
         stop-color="#7fcb30"
         id="stop29401" />
      <stop
         offset="0.42"
         stop-color="#84d332"
         id="stop29403" />
      <stop
         offset="0.775"
         stop-color="#86d633"
         id="stop29405" />
    </linearGradient>
    <linearGradient
       id="b6572822-9d06-40d7-9f8a-609e85cc5056"
       x1="8.2670002"
       y1="14.714"
       x2="8.2670002"
       y2="1.3789999"
       gradientUnits="userSpaceOnUse"
       gradientTransform="translate(2.866,-0.0033456)">
      <stop
         offset="0"
         stop-color="#1988d9"
         id="stop29408" />
      <stop
         offset="0.9"
         stop-color="#54aef0"
         id="stop29410" />
    </linearGradient>
  </defs>
  <title
     id="title29415">MsPortalFx.base.images-47</title>
  <g
     id="e7f2c134-7fdf-4736-82a0-a541e4ef89e7"
     transform="translate(-2.866,0.0033456)">
    <g
       id="g29437">
      <path
         d="M 2.881,1.393 3.93,0.175 A 0.51,0.51 0 0 1 4.314,0 h 10.052 a 0.7,0.7 0 0 1 0.768,0.719 v 12.546 a 0.508,0.508 0 0 1 -0.166,0.377 l -1.132,1.031 H 3.561 L 2.866,14.381 Z"
         id="path29417"
         inkscape:connector-curvature="0"
         style="fill:#005ba1" />
      <path
         d="M 3.725,1.387 4.367,0.655 A 0.453,0.453 0 0 1 4.707,0.5 H 14.1 a 0.451,0.451 0 0 1 0.451,0.452 v 11.93 a 0.45,0.45 0 0 1 -0.147,0.334 l -1,0.914 z"
         id="path29419"
         inkscape:connector-curvature="0"
         style="fill:#ffffff" />
      <g
         id="g29425">
        <path
           d="M 7.654,12.9 H 4.464 A 0.172,0.172 0 0 0 4.293,13.072 V 17.9 a 0.086,0.086 0 0 0 0.139,0.067 L 6.006,16.733 A 0.082,0.082 0 0 1 6.042,16.718 H 6.036 l 1.79,-1.4 V 13.07 A 0.172,0.172 0 0 0 7.654,12.9 Z"
           id="path29421"
           inkscape:connector-curvature="0"
           style="fill:url(#b3088683-8265-4928-ad86-999607a53d8b)" />
        <path
           d="m 6.036,16.712 1.79,-1.4 v 2.6 A 0.086,0.086 0 0 1 7.688,17.98 Z"
           id="path29423"
           inkscape:connector-curvature="0"
           style="fill:#76bc2d" />
      </g>
      <path
         d="M 13.334,1.379 H 2.914 A 0.048,0.048 0 0 0 2.866,1.427 v 12.954 a 0.333,0.333 0 0 0 0.333,0.333 h 10.135 a 0.334,0.334 0 0 0 0.334,-0.333 V 1.712 A 0.334,0.334 0 0 0 13.334,1.379 Z"
         id="path29427"
         inkscape:connector-curvature="0"
         style="fill:url(#b6572822-9d06-40d7-9f8a-609e85cc5056)" />
      <g
         id="g29435">
        <path
           d="M 6.059,6.142 V 9.686 H 5.3 V 7 A 0.931,0.931 0 0 1 5.151,7.1 1.463,1.463 0 0 1 4.969,7.189 1.7,1.7 0 0 1 4.769,7.257 1.386,1.386 0 0 1 4.563,7.297 V 6.662 a 3.08,3.08 0 0 0 0.561,-0.223 3.169,3.169 0 0 0 0.477,-0.3 z"
           id="path29429"
           inkscape:connector-curvature="0"
           style="fill:#ffffff" />
        <path
           d="m 8.3,9.747 q -1.239,0 -1.238,-1.739 A 2.358,2.358 0 0 1 7.4,6.634 1.115,1.115 0 0 1 8.37,6.161 q 1.209,0 1.209,1.768 A 2.331,2.331 0 0 1 9.249,9.278 1.085,1.085 0 0 1 8.3,9.747 Z m 0.034,-3 q -0.5,0 -0.5,1.245 0,1.173 0.486,1.173 0.486,0 0.48,-1.212 0,-1.209 -0.465,-1.209 z"
           id="path29431"
           inkscape:connector-curvature="0"
           style="fill:#ffffff" />
        <path
           d="M 11.756,6.142 V 9.686 H 10.994 V 7 a 0.888,0.888 0 0 1 -0.149,0.1 1.463,1.463 0 0 1 -0.182,0.089 1.636,1.636 0 0 1 -0.2,0.068 1.4,1.4 0 0 1 -0.205,0.04 V 6.662 a 3.139,3.139 0 0 0 0.561,-0.223 3.209,3.209 0 0 0 0.476,-0.3 z"
           id="path29433"
           inkscape:connector-curvature="0"
           style="fill:#ffffff" />
      </g>
    </g>
  </g>
  <metadata
     id="metadata29440">
    <rdf:RDF>
      <rdf:li>public:true</rdf:li>
      <rdf:li>sdk: MsPortalFx.Base.Images.Polychromatic.Learn()</rdf:li>
      <rdf:li>category: General</rdf:li>
      <cc:Work
         rdf:about="">
        <dc:format>image/svg+xml</dc:format>
        <dc:type
           rdf:resource="http://purl.org/dc/dcmitype/StillImage" />
        <dc:title>MsPortalFx.base.images-47</dc:title>
      </cc:Work>
    </rdf:RDF>
  </metadata>
</svg>
