<?xml version="1.0" encoding="UTF-8" standalone="no"?>
<svg
   xmlns:dc="http://purl.org/dc/elements/1.1/"
   xmlns:cc="http://creativecommons.org/ns#"
   xmlns:rdf="http://www.w3.org/1999/02/22-rdf-syntax-ns#"
   xmlns:svg="http://www.w3.org/2000/svg"
   xmlns="http://www.w3.org/2000/svg"
   xmlns:sodipodi="http://sodipodi.sourceforge.net/DTD/sodipodi-0.dtd"
   xmlns:inkscape="http://www.inkscape.org/namespaces/inkscape"
   width="14.175284"
   height="17.003498"
   viewBox="0 0 14.175284 17.003498"
   version="1.1"
   id="svg30559"
   sodipodi:docname="Log_Streaming.svg"
   inkscape:version="0.92.3 (2405546, 2018-03-11)">
  <sodipodi:namedview
     pagecolor="#ffffff"
     bordercolor="#666666"
     borderopacity="1"
     objecttolerance="10"
     gridtolerance="10"
     guidetolerance="10"
     inkscape:pageopacity="0"
     inkscape:pageshadow="2"
     inkscape:window-width="1920"
     inkscape:window-height="1017"
     id="namedview30561"
     showgrid="false"
     fit-margin-top="0"
     fit-margin-left="0"
     fit-margin-right="0"
     fit-margin-bottom="0"
     inkscape:zoom="48.111111"
     inkscape:cx="7.087"
     inkscape:cy="8.5000052"
     inkscape:window-x="-8"
     inkscape:window-y="-8"
     inkscape:window-maximized="1"
     inkscape:current-layer="svg30559" />
  <defs
     id="defs30534">
    <linearGradient
       id="ac22aabe-4ac7-4cbd-b097-801c2888e610"
       x1="8.1529999"
       y1="17.5"
       x2="8.1529999"
       y2="2.0929999"
       gradientUnits="userSpaceOnUse"
       gradientTransform="translate(1.913,0.49650682)">
      <stop
         offset="0"
         stop-color="#ef7100"
         id="stop30529" />
      <stop
         offset="0.9"
         stop-color="#f78d1e"
         id="stop30531" />
    </linearGradient>
  </defs>
  <title
     id="title30536">MsPortalFx.base.images-59</title>
  <g
     id="a681ca9a-06ce-4a10-9f33-874f6c970dec"
     transform="translate(-1.913,-0.49650682)">
    <g
       id="g30554">
      <path
         d="M 1.931,2.109 3.142,0.7 A 0.591,0.591 0 0 1 3.586,0.5 H 15.2 a 0.813,0.813 0 0 1 0.888,0.831 v 14.5 a 0.59,0.59 0 0 1 -0.192,0.435 l -1.308,1.191 H 2.716 l -0.8,-0.337 z"
         id="path30538"
         inkscape:connector-curvature="0"
         style="fill:#d15900" />
      <path
         d="M 2.905,2.1 3.647,1.254 A 0.522,0.522 0 0 1 4.041,1.075 h 10.845 a 0.522,0.522 0 0 1 0.522,0.522 v 13.786 a 0.521,0.521 0 0 1 -0.171,0.386 l -1.158,1.055 z"
         id="path30540"
         inkscape:connector-curvature="0"
         style="fill:#ffffff" />
      <path
         d="M 14.008,2.093 H 1.969 A 0.056,0.056 0 0 0 1.913,2.149 V 17.115 A 0.385,0.385 0 0 0 2.3,17.5 h 11.71 a 0.385,0.385 0 0 0 0.385,-0.385 V 2.478 A 0.386,0.386 0 0 0 14.008,2.093 Z"
         id="path30542"
         inkscape:connector-curvature="0"
         style="fill:url(#ac22aabe-4ac7-4cbd-b097-801c2888e610)" />
      <path
         d="M 10.5,9.859 A 2.263,2.263 0 0 1 9.862,11.446 0.384,0.384 0 0 1 9.288,11.51 0.394,0.394 0 0 1 9.294,10.917 1.565,1.565 0 0 0 9.294,8.743 0.39,0.39 0 1 1 9.866,8.221 2.311,2.311 0 0 1 10.5,9.859 Z"
         id="path30544"
         inkscape:connector-curvature="0"
         style="fill:#ffffff" />
      <path
         d="m 5.807,9.858 a 2.382,2.382 0 0 1 0.636,-1.632 0.392,0.392 0 1 1 0.569,0.528 1.565,1.565 0 0 0 0,2.158 0.4,0.4 0 0 1 0,0.607 0.381,0.381 0 0 1 -0.545,-0.052 2.367,2.367 0 0 1 -0.66,-1.609 z"
         id="path30546"
         inkscape:connector-curvature="0"
         style="fill:#ffffff" />
      <path
         d="m 7.5,9.822 a 0.657,0.657 0 0 1 0.659,-0.656 0.665,0.665 0 0 1 0,1.329 A 0.65,0.65 0 0 1 7.5,9.822 Z"
         id="path30548"
         inkscape:connector-curvature="0"
         style="fill:#ffffff" />
      <path
         d="m 12.5,9.8 a 3.369,3.369 0 0 1 -0.952,2.367 0.573,0.573 0 0 1 -0.855,0.1 0.588,0.588 0 0 1 0.009,-0.886 2.333,2.333 0 0 0 0,-3.242 A 0.582,0.582 0 1 1 11.556,7.361 3.437,3.437 0 0 1 12.5,9.8 Z"
         id="path30550"
         inkscape:connector-curvature="0"
         style="fill:#ffffff" />
      <path
         d="m 3.8,9.726 a 3.369,3.369 0 0 0 0.952,2.367 0.573,0.573 0 0 0 0.855,0.1 A 0.588,0.588 0 0 0 5.6,11.3 2.334,2.334 0 0 1 5.6,8.058 0.582,0.582 0 1 0 4.747,7.28 3.442,3.442 0 0 0 3.8,9.726 Z"
         id="path30552"
         inkscape:connector-curvature="0"
         style="fill:#ffffff" />
    </g>
  </g>
  <metadata
     id="metadata30557">
    <rdf:RDF>
      <rdf:li>public:true</rdf:li>
      <rdf:li>sdk: MsPortalFx.Base.Images.Polychromatic.LogStreaming()</rdf:li>
      <rdf:li>category: General</rdf:li>
      <cc:Work
         rdf:about="">
        <dc:format>image/svg+xml</dc:format>
        <dc:type
           rdf:resource="http://purl.org/dc/dcmitype/StillImage" />
        <dc:title>MsPortalFx.base.images-59</dc:title>
      </cc:Work>
    </rdf:RDF>
  </metadata>
</svg>
