<?xml version="1.0" encoding="UTF-8" standalone="no"?>
<svg
   xmlns:dc="http://purl.org/dc/elements/1.1/"
   xmlns:cc="http://creativecommons.org/ns#"
   xmlns:rdf="http://www.w3.org/1999/02/22-rdf-syntax-ns#"
   xmlns:svg="http://www.w3.org/2000/svg"
   xmlns="http://www.w3.org/2000/svg"
   xmlns:sodipodi="http://sodipodi.sourceforge.net/DTD/sodipodi-0.dtd"
   xmlns:inkscape="http://www.inkscape.org/namespaces/inkscape"
   id="ace1255c-94e6-4d53-bb3a-34ece21d92fa"
   width="14.78"
   height="17.000786"
   viewBox="0 0 14.78 17.000786"
   version="1.1"
   sodipodi:docname="Marketplace.svg"
   inkscape:version="0.92.3 (2405546, 2018-03-11)">
  <sodipodi:namedview
     pagecolor="#ffffff"
     bordercolor="#666666"
     borderopacity="1"
     objecttolerance="10"
     gridtolerance="10"
     guidetolerance="10"
     inkscape:pageopacity="0"
     inkscape:pageshadow="2"
     inkscape:window-width="1920"
     inkscape:window-height="1017"
     id="namedview31870"
     showgrid="false"
     fit-margin-top="0"
     fit-margin-left="0"
     fit-margin-right="0"
     fit-margin-bottom="0"
     inkscape:zoom="48.111111"
     inkscape:cx="7.55"
     inkscape:cy="8.57"
     inkscape:window-x="-8"
     inkscape:window-y="-8"
     inkscape:window-maximized="1"
     inkscape:current-layer="ace1255c-94e6-4d53-bb3a-34ece21d92fa" />
  <defs
     id="defs31853">
    <linearGradient
       id="a9aaf2bb-2b64-49fc-9aeb-39d687a60471"
       x1="7.6300001"
       y1="15.34"
       x2="7.6300001"
       y2="5.8400002"
       gradientUnits="userSpaceOnUse">
      <stop
         offset="0"
         stop-color="#ccc"
         id="stop31842" />
      <stop
         offset="0.15"
         stop-color="#dadada"
         id="stop31844" />
      <stop
         offset="0.44"
         stop-color="#eee"
         id="stop31846" />
      <stop
         offset="0.72"
         stop-color="#fbfbfb"
         id="stop31848" />
      <stop
         offset="1"
         stop-color="#fff"
         id="stop31850" />
    </linearGradient>
  </defs>
  <title
     id="title31855">Icon-general-8</title>
  <path
     id="f354248b-347f-4f34-a8b1-60412d94c898"
     d="m 13.55,4.2007853 h -1 V 17.000785 l 1,-1.93 z"
     inkscape:connector-curvature="0"
     style="fill:#50e6ff" />
  <path
     id="bf20c85f-cfbc-4e9f-9f35-5cecd5301485"
     d="m 13.55,15.060785 v 0 l -1,1.93 1,-0.8 1.23,-0.95 z"
     inkscape:connector-curvature="0"
     style="fill:#9cebff" />
  <path
     id="be80f902-4822-48d8-b1cc-57ee4a39e795"
     d="M 6.94,2.2907853 A 1.57,1.57 0 0 1 8.55,0.78078526 1.57,1.57 0 0 1 10.18,2.2907853 v 1.91 h 0.78 v -1.91 A 2.35,2.35 0 0 0 8.55,7.8525794e-4 2.35,2.35 0 0 0 6.15,2.2907853 v 1.91 h 0.78 z"
     inkscape:connector-curvature="0"
     style="fill:#a3a3a3" />
  <path
     id="bb07ca4b-ec49-44a9-9a8d-bb0f7a8be768"
     d="M 4.55,2.2907853 A 1.57,1.57 0 0 1 6.17,0.78078526 1.58,1.58 0 0 1 7.8,2.2907853 v 1.91 h 0.75 v -1.91 A 2.36,2.36 0 0 0 6.17,7.8525794e-4 2.35,2.35 0 0 0 3.77,2.2907853 v 1.91 h 0.78 z"
     inkscape:connector-curvature="0"
     style="fill:#767676" />
  <polygon
     points="1.45,16.58 1.83,4.77 13.92,4.77 13.92,17.57 "
     id="polygon31861"
     style="fill:#32bedd"
     transform="translate(-1.45,-0.56921474)" />
  <polygon
     points="16.18,15.82 15.81,4.77 14.95,4.77 14.95,15.64 "
     id="polygon31863"
     style="fill:#32bedd"
     transform="translate(-1.45,-0.56921474)" />
  <path
     d="m 10.74,11.740785 a 2.3,2.3 0 0 0 -1.79,-2.1799997 2.84,2.84 0 0 0 -2.66,-2.75 2.47,2.47 0 0 0 -2.54,1.62 2.3,2.3 0 0 0 -2.13,2.3099997 2.74,2.74 0 0 0 2.56,2.69 H 4.4 l 4.16,0.28 h 0.11 a 2,2 0 0 0 2.07,-1.97 z"
     id="path31865"
     inkscape:connector-curvature="0"
     style="fill:url(#a9aaf2bb-2b64-49fc-9aeb-39d687a60471)" />
  <metadata
     id="metadata31867">
    <rdf:RDF>
      <rdf:li>public:true</rdf:li>
      <rdf:li>sdk:false</rdf:li>
      <rdf:li>category: General</rdf:li>
      <cc:Work
         rdf:about="">
        <dc:format>image/svg+xml</dc:format>
        <dc:type
           rdf:resource="http://purl.org/dc/dcmitype/StillImage" />
        <dc:title>Icon-general-8</dc:title>
      </cc:Work>
    </rdf:RDF>
  </metadata>
</svg>
