<?xml version="1.0" encoding="UTF-8" standalone="no"?>
<svg
   xmlns:dc="http://purl.org/dc/elements/1.1/"
   xmlns:cc="http://creativecommons.org/ns#"
   xmlns:rdf="http://www.w3.org/1999/02/22-rdf-syntax-ns#"
   xmlns:svg="http://www.w3.org/2000/svg"
   xmlns="http://www.w3.org/2000/svg"
   xmlns:sodipodi="http://sodipodi.sourceforge.net/DTD/sodipodi-0.dtd"
   xmlns:inkscape="http://www.inkscape.org/namespaces/inkscape"
   width="13.884"
   height="17"
   viewBox="0 0 13.884 17"
   version="1.1"
   id="svg32966"
   sodipodi:docname="Media_File.svg"
   inkscape:version="0.92.3 (2405546, 2018-03-11)">
  <sodipodi:namedview
     pagecolor="#ffffff"
     bordercolor="#666666"
     borderopacity="1"
     objecttolerance="10"
     gridtolerance="10"
     guidetolerance="10"
     inkscape:pageopacity="0"
     inkscape:pageshadow="2"
     inkscape:window-width="1920"
     inkscape:window-height="1017"
     id="namedview32968"
     showgrid="false"
     fit-margin-top="0"
     fit-margin-left="0"
     fit-margin-right="0"
     fit-margin-bottom="0"
     inkscape:zoom="48.111111"
     inkscape:cx="6.942"
     inkscape:cy="8.5"
     inkscape:window-x="-8"
     inkscape:window-y="-8"
     inkscape:window-maximized="1"
     inkscape:current-layer="svg32966" />
  <defs
     id="defs32941">
    <linearGradient
       id="bcca396e-f939-4355-b7b5-51363d97cee0"
       x1="9"
       y1="17.5"
       x2="9"
       y2="0.5"
       gradientUnits="userSpaceOnUse"
       gradientTransform="translate(2.058,0.5)">
      <stop
         offset="0"
         stop-color="#0078d4"
         id="stop32936" />
      <stop
         offset="0.817"
         stop-color="#5ea0ef"
         id="stop32938" />
    </linearGradient>
  </defs>
  <title
     id="title32943">MsPortalFx.base.images-61</title>
  <g
     id="b5641c8f-5957-4500-9380-ed121d5f3f80"
     transform="translate(-2.058,-0.5)">
    <g
       id="g32961">
      <g
         id="g32951">
        <path
           d="M 9.966,0.627 H 2.731 A 0.571,0.571 0 0 0 2.16,1.2 v 15.6 a 0.571,0.571 0 0 0 0.571,0.572 H 15.269 A 0.571,0.571 0 0 0 15.84,16.8 V 6.475 A 0.571,0.571 0 0 0 15.269,5.903 H 11.108 A 0.571,0.571 0 0 1 10.537,5.332 V 1.2 A 0.572,0.572 0 0 0 9.966,0.627 Z"
           id="path32945"
           inkscape:connector-curvature="0"
           style="fill:#ffffff" />
        <path
           d="m 9.7,1.357 v 3.919 a 1.438,1.438 0 0 0 1.436,1.438 h 3.947 v 9.929 H 2.915 V 1.357 H 9.7 M 9.978,0.5 h -7.34 a 0.581,0.581 0 0 0 -0.58,0.581 v 15.838 a 0.581,0.581 0 0 0 0.58,0.581 h 12.724 a 0.581,0.581 0 0 0 0.58,-0.581 V 6.437 a 0.58,0.58 0 0 0 -0.58,-0.58 H 11.138 A 0.58,0.58 0 0 1 10.558,5.276 V 1.081 A 0.581,0.581 0 0 0 9.978,0.5 Z"
           id="path32947"
           inkscape:connector-curvature="0"
           style="fill:url(#bcca396e-f939-4355-b7b5-51363d97cee0)" />
        <path
           d="M 15.72,5.972 10.358,0.627 v 4.355 a 0.984,0.984 0 0 0 0.978,0.99 z"
           id="path32949"
           inkscape:connector-curvature="0"
           style="fill:#0078d4" />
      </g>
      <path
         d="m 4.639,5.231 v 3.544 a 0.285,0.285 0 0 0 0.426,0.247 l 3.1,-1.772 a 0.284,0.284 0 0 0 0,-0.494 L 5.065,4.984 A 0.285,0.285 0 0 0 4.639,5.231 Z"
         id="path32953"
         inkscape:connector-curvature="0"
         style="fill:#32bedd" />
      <rect
         x="4.5879998"
         y="10.418"
         width="7.3699999"
         height="0.98900002"
         rx="0.44400001"
         id="rect32955"
         style="fill:#5ea0ef" />
      <rect
         x="4.5879998"
         y="12.189"
         width="7.3699999"
         height="0.98900002"
         rx="0.44400001"
         id="rect32957"
         style="fill:#5ea0ef" />
      <rect
         x="4.5879998"
         y="13.961"
         width="4.645"
         height="0.98900002"
         rx="0.44400001"
         id="rect32959"
         style="fill:#5ea0ef" />
    </g>
  </g>
  <metadata
     id="metadata32964">
    <rdf:RDF>
      <rdf:li>public:true</rdf:li>
      <rdf:li>sdk: MsPortalFx.Base.Images.Polychromatic.MediaFile()</rdf:li>
      <rdf:li>category: General</rdf:li>
      <cc:Work
         rdf:about="">
        <dc:format>image/svg+xml</dc:format>
        <dc:type
           rdf:resource="http://purl.org/dc/dcmitype/StillImage" />
        <dc:title>MsPortalFx.base.images-61</dc:title>
      </cc:Work>
    </rdf:RDF>
  </metadata>
</svg>
