<?xml version="1.0" encoding="UTF-8" standalone="no"?>
<svg
   xmlns:dc="http://purl.org/dc/elements/1.1/"
   xmlns:cc="http://creativecommons.org/ns#"
   xmlns:rdf="http://www.w3.org/1999/02/22-rdf-syntax-ns#"
   xmlns:svg="http://www.w3.org/2000/svg"
   xmlns="http://www.w3.org/2000/svg"
   xmlns:sodipodi="http://sodipodi.sourceforge.net/DTD/sodipodi-0.dtd"
   xmlns:inkscape="http://www.inkscape.org/namespaces/inkscape"
   id="bd1d72a3-1f46-41dd-9c1e-f197eed5bd13"
   width="17.478884"
   height="17.478884"
   viewBox="0 0 17.478884 17.478884"
   version="1.1"
   sodipodi:docname="Quickstart_Center.svg"
   inkscape:version="0.92.3 (2405546, 2018-03-11)">
  <sodipodi:namedview
     pagecolor="#ffffff"
     bordercolor="#666666"
     borderopacity="1"
     objecttolerance="10"
     gridtolerance="10"
     guidetolerance="10"
     inkscape:pageopacity="0"
     inkscape:pageshadow="2"
     inkscape:window-width="1920"
     inkscape:window-height="1017"
     id="namedview36819"
     showgrid="false"
     fit-margin-top="0"
     fit-margin-left="0"
     fit-margin-right="0"
     fit-margin-bottom="0"
     inkscape:zoom="48.111111"
     inkscape:cx="8.7407715"
     inkscape:cy="8.7407715"
     inkscape:window-x="-8"
     inkscape:window-y="-8"
     inkscape:window-maximized="1"
     inkscape:current-layer="bd1d72a3-1f46-41dd-9c1e-f197eed5bd13" />
  <defs
     id="defs36792">
    <linearGradient
       id="e5071660-aef6-4ef7-b2c3-5b03145c6e10"
       x1="8.4700003"
       y1="2.8900001"
       x2="14.96"
       y2="9.6199999"
       gradientUnits="userSpaceOnUse"
       gradientTransform="translate(0.25922848,0.26188779)">
      <stop
         offset="0"
         stop-color="#dfa500"
         id="stop36772" />
      <stop
         offset="0.28"
         stop-color="#efb700"
         id="stop36774" />
      <stop
         offset="0.51"
         stop-color="#ffca00"
         id="stop36776" />
      <stop
         offset="1"
         stop-color="#e1a800"
         id="stop36778" />
    </linearGradient>
    <linearGradient
       id="ab9f452c-d59c-4813-b9db-ac7f1a29f09a"
       x1="6.8600001"
       y1="11.19"
       x2="-0.99000001"
       y2="18.809999"
       gradientUnits="userSpaceOnUse"
       gradientTransform="translate(0.25922848,0.26188779)">
      <stop
         offset="0"
         stop-color="#faa21d"
         id="stop36781" />
      <stop
         offset="0.24"
         stop-color="#f99d1a"
         id="stop36783" />
      <stop
         offset="0.51"
         stop-color="#f69012"
         id="stop36785" />
      <stop
         offset="0.8"
         stop-color="#f17905"
         id="stop36787" />
      <stop
         offset="0.88"
         stop-color="#ef7100"
         id="stop36789" />
    </linearGradient>
  </defs>
  <title
     id="title36794">Icon-general-10</title>
  <g
     id="g36814"
     transform="translate(-0.25922848,-0.26188779)">
    <path
       d="M 4.07,10.44 A 5.66,5.66 0 0 0 1.07,9.3 0.28,0.28 0 0 1 0.8,8.89 5.35,5.35 0 0 1 2.31,7.18 4.87,4.87 0 0 1 6.71,6.33 1.67,1.67 0 0 1 7.33,6.6 Z"
       id="path36796"
       inkscape:connector-curvature="0"
       style="fill:#f78d1e" />
    <path
       d="m 7.7,14.06 3.84,-3.26 a 1.82,1.82 0 0 1 0.27,0.63 4.91,4.91 0 0 1 -0.86,4.4 A 5.21,5.21 0 0 1 9.24,17.31 0.28,0.28 0 0 1 8.83,17 5.73,5.73 0 0 0 7.7,14.06 Z"
       id="path36798"
       inkscape:connector-curvature="0"
       style="fill:#f78d1e" />
    <path
       d="M 17.38,0.27 A 24.27,24.27 0 0 0 4,10.31 L 7.69,14 A 24.27,24.27 0 0 0 17.73,0.62 0.29,0.29 0 0 0 17.38,0.27 Z"
       id="path36800"
       inkscape:connector-curvature="0"
       style="fill:#fcd116" />
    <path
       d="M 17.38,0.27 A 24.27,24.27 0 0 0 4,10.31 L 7.69,14 A 24.27,24.27 0 0 0 17.73,0.62 0.29,0.29 0 0 0 17.38,0.27 Z"
       id="path36802"
       inkscape:connector-curvature="0"
       style="fill:url(#e5071660-aef6-4ef7-b2c3-5b03145c6e10)" />
    <path
       d="M 17.38,0.27 A 22,22 0 0 0 12.93,2.1 l 3,3 a 22,22 0 0 0 1.8,-4.48 0.29,0.29 0 0 0 -0.35,-0.35 z"
       id="path36804"
       inkscape:connector-curvature="0"
       style="fill:#0078d4" />
    <path
       d="M 0.26,17.44 A 10.32,10.32 0 0 1 4,10.31 L 7.69,14 a 10.32,10.32 0 0 1 -7.13,3.74 0.28,0.28 0 0 1 -0.3,-0.3 z"
       id="path36806"
       inkscape:connector-curvature="0"
       style="fill:url(#ab9f452c-d59c-4813-b9db-ac7f1a29f09a)" />
    <circle
       cx="11.42"
       cy="6.5799999"
       r="1.91"
       id="circle36808"
       style="fill:#dfa500" />
    <circle
       cx="11.42"
       cy="6.5799999"
       r="1.4299999"
       id="circle36810"
       style="fill:#f2f2f2" />
    <path
       d="M 5.16,13.59 A 3,3 0 0 1 3.83,14.18 3.3,3.3 0 0 1 4.41,12.84 L 8,9.24 8.75,9.99 Z"
       id="path36812"
       inkscape:connector-curvature="0"
       style="fill:#d15900" />
  </g>
  <metadata
     id="metadata36816">
    <rdf:RDF>
      <rdf:li>public:true</rdf:li>
      <rdf:li>sdk:false</rdf:li>
      <rdf:li>category: General</rdf:li>
      <cc:Work
         rdf:about="">
        <dc:format>image/svg+xml</dc:format>
        <dc:type
           rdf:resource="http://purl.org/dc/dcmitype/StillImage" />
        <dc:title>Icon-general-10</dc:title>
      </cc:Work>
    </rdf:RDF>
  </metadata>
</svg>
