<?xml version="1.0" encoding="UTF-8" standalone="no"?>
<svg
   xmlns:dc="http://purl.org/dc/elements/1.1/"
   xmlns:cc="http://creativecommons.org/ns#"
   xmlns:rdf="http://www.w3.org/1999/02/22-rdf-syntax-ns#"
   xmlns:svg="http://www.w3.org/2000/svg"
   xmlns="http://www.w3.org/2000/svg"
   xmlns:sodipodi="http://sodipodi.sourceforge.net/DTD/sodipodi-0.dtd"
   xmlns:inkscape="http://www.inkscape.org/namespaces/inkscape"
   width="15.960007"
   height="16.000046"
   viewBox="0 0 15.960007 16.000046"
   version="1.1"
   id="svg40274"
   sodipodi:docname="Scale.svg"
   inkscape:version="0.92.3 (2405546, 2018-03-11)">
  <sodipodi:namedview
     pagecolor="#ffffff"
     bordercolor="#666666"
     borderopacity="1"
     objecttolerance="10"
     gridtolerance="10"
     guidetolerance="10"
     inkscape:pageopacity="0"
     inkscape:pageshadow="2"
     inkscape:window-width="1920"
     inkscape:window-height="1017"
     id="namedview40276"
     showgrid="false"
     fit-margin-top="0"
     fit-margin-left="0"
     fit-margin-right="0"
     fit-margin-bottom="0"
     inkscape:zoom="48.111111"
     inkscape:cx="7.98"
     inkscape:cy="8.0000002"
     inkscape:window-x="-8"
     inkscape:window-y="-8"
     inkscape:window-maximized="1"
     inkscape:current-layer="svg40274" />
  <defs
     id="defs40247">
    <linearGradient
       id="eb168260-1d86-43d3-aaf9-b23d953b33e0"
       x1="9.7770004"
       y1="-1.321"
       x2="15.063"
       y2="13.028"
       gradientUnits="userSpaceOnUse"
       gradientTransform="translate(1.02,0.99995454)">
      <stop
         offset="0"
         stop-color="#6bb9f2"
         id="stop40242" />
      <stop
         offset="1"
         stop-color="#1b93eb"
         id="stop40244" />
    </linearGradient>
  </defs>
  <title
     id="title40249">MsPortalFx.base.images-54</title>
  <g
     id="a66f5715-d52a-4ecb-a69d-9f467a01f67d"
     transform="translate(-1.02,-0.99995454)">
    <g
       id="g40269">
      <path
         d="M 16.98,6.058 V 1.176 A 0.176,0.176 0 0 0 16.8,1 h -4.878 a 0.175,0.175 0 0 0 -0.124,0.3 l 1.344,1.345 0.09,0.089 a 0.177,0.177 0 0 1 0,0.249 L 7.345,8.869 a 0.177,0.177 0 0 0 0,0.249 l 1.517,1.517 a 0.177,0.177 0 0 0 0.249,0 L 15,4.748 a 0.176,0.176 0 0 1 0.249,0 l 0.089,0.089 1.342,1.345 a 0.175,0.175 0 0 0 0.3,-0.124 z"
         id="path40251"
         inkscape:connector-curvature="0"
         style="fill:url(#eb168260-1d86-43d3-aaf9-b23d953b33e0)" />
      <path
         d="m 13.394,9.377 v 3.573 a 0.411,0.411 0 0 1 -0.41,0.411 H 4.826 A 0.41,0.41 0 0 1 4.416,12.95 V 5.25 A 0.41,0.41 0 0 1 4.826,4.84 H 8.914 A 0.225,0.225 0 0 0 9.139,4.615 V 3.756 A 0.225,0.225 0 0 0 8.914,3.531 h -5.4 a 0.411,0.411 0 0 0 -0.41,0.411 v 10.316 a 0.41,0.41 0 0 0 0.41,0.41 h 10.777 a 0.41,0.41 0 0 0 0.411,-0.41 V 9.377 A 0.225,0.225 0 0 0 14.476,9.152 h -0.857 a 0.225,0.225 0 0 0 -0.225,0.225 z"
         id="path40253"
         inkscape:connector-curvature="0"
         style="fill:#b3b3b3" />
      <rect
         x="15.697"
         y="15.97"
         width="1.03"
         height="1.03"
         id="rect40255"
         style="fill:#76bc2d" />
      <path
         d="M 14.647,17 H 13.6 v -1.03 h 1.05 z m -2.1,0 H 11.5 v -1.03 h 1.049 z m -2.1,0 H 9.4 v -1.03 h 1.05 z m -2.1,0 H 7.3 v -1.03 h 1.048 z m -2.1,0 H 5.2 v -1.03 h 1.05 z m -2.1,0 H 3.1 v -1.03 h 1.049 z"
         id="path40257"
         inkscape:connector-curvature="0"
         style="fill:#76bc2d" />
      <rect
         x="1.02"
         y="15.97"
         width="1.03"
         height="1.03"
         id="rect40259"
         style="fill:#76bc2d" />
      <path
         d="M 2.05,14.92 H 1.02 v -1.049 h 1.03 z m 0,-2.1 H 1.02 v -1.05 h 1.03 z m 0,-2.1 H 1.02 V 9.672 h 1.03 z m 0,-2.1 H 1.02 V 7.572 h 1.03 z m 0,-2.1 H 1.02 V 5.473 h 1.03 z m 0,-2.1 H 1.02 V 3.373 h 1.03 z"
         id="path40261"
         inkscape:connector-curvature="0"
         style="fill:#76bc2d" />
      <rect
         x="1.02"
         y="1.294"
         width="1.03"
         height="1.03"
         id="rect40263"
         style="fill:#76bc2d" />
      <path
         d="M 8.348,2.324 H 7.3 v -1.03 h 1.048 z m -2.1,0 H 5.2 v -1.03 h 1.05 z m -2.1,0 H 3.1 v -1.03 h 1.049 z"
         id="path40265"
         inkscape:connector-curvature="0"
         style="fill:#76bc2d" />
      <path
         d="M 16.726,14.92 H 15.7 v -1.049 h 1.029 z m 0,-2.1 H 15.7 v -1.05 h 1.029 z m 0,-2.1 H 15.7 V 9.672 h 1.029 z"
         id="path40267"
         inkscape:connector-curvature="0"
         style="fill:#76bc2d" />
    </g>
  </g>
  <metadata
     id="metadata40272">
    <rdf:RDF>
      <rdf:li>public:true</rdf:li>
      <rdf:li>sdk: MsPortalFx.Base.Images.Polychromatic.Scale()</rdf:li>
      <rdf:li>category: General</rdf:li>
      <cc:Work
         rdf:about="">
        <dc:format>image/svg+xml</dc:format>
        <dc:type
           rdf:resource="http://purl.org/dc/dcmitype/StillImage" />
        <dc:title>MsPortalFx.base.images-54</dc:title>
      </cc:Work>
    </rdf:RDF>
  </metadata>
</svg>
