<?xml version="1.0" encoding="UTF-8" standalone="no"?>
<svg
   xmlns:dc="http://purl.org/dc/elements/1.1/"
   xmlns:cc="http://creativecommons.org/ns#"
   xmlns:rdf="http://www.w3.org/1999/02/22-rdf-syntax-ns#"
   xmlns:svg="http://www.w3.org/2000/svg"
   xmlns="http://www.w3.org/2000/svg"
   xmlns:sodipodi="http://sodipodi.sourceforge.net/DTD/sodipodi-0.dtd"
   xmlns:inkscape="http://www.inkscape.org/namespaces/inkscape"
   width="17"
   height="15.512"
   viewBox="0 0 17 15.512"
   version="1.1"
   id="svg45963"
   sodipodi:docname="SSD.svg"
   inkscape:version="0.92.3 (2405546, 2018-03-11)">
  <sodipodi:namedview
     pagecolor="#ffffff"
     bordercolor="#666666"
     borderopacity="1"
     objecttolerance="10"
     gridtolerance="10"
     guidetolerance="10"
     inkscape:pageopacity="0"
     inkscape:pageshadow="2"
     inkscape:window-width="1920"
     inkscape:window-height="1017"
     id="namedview45965"
     showgrid="false"
     fit-margin-top="0"
     fit-margin-left="0"
     fit-margin-right="0"
     fit-margin-bottom="0"
     inkscape:zoom="48.111111"
     inkscape:cx="8.5"
     inkscape:cy="7.756"
     inkscape:window-x="-8"
     inkscape:window-y="-8"
     inkscape:window-maximized="1"
     inkscape:current-layer="svg45963" />
  <defs
     id="defs45944">
    <linearGradient
       id="b7e818fc-7d3f-4e66-aeef-4fd721e36265"
       x1="9"
       y1="13.333"
       x2="9"
       y2="1.244"
       gradientUnits="userSpaceOnUse"
       gradientTransform="translate(0.5,1.244)">
      <stop
         offset="0"
         stop-color="#0078d4"
         id="stop45933" />
      <stop
         offset="0.156"
         stop-color="#1380da"
         id="stop45935" />
      <stop
         offset="0.528"
         stop-color="#3c91e5"
         id="stop45937" />
      <stop
         offset="0.822"
         stop-color="#559cec"
         id="stop45939" />
      <stop
         offset="1"
         stop-color="#5ea0ef"
         id="stop45941" />
    </linearGradient>
  </defs>
  <title
     id="title45946">MsPortalFx.base.images-36</title>
  <g
     id="be136587-6678-4499-b6cd-788b4eed2774"
     transform="translate(-0.5,-1.244)">
    <g
       id="g45958">
      <path
         d="M 17.5,13.333 H 0.5 L 1.683,2.412 a 1.308,1.308 0 0 1 1.3,-1.168 h 12.033 a 1.308,1.308 0 0 1 1.3,1.168 z"
         id="path45948"
         inkscape:connector-curvature="0"
         style="fill:url(#b7e818fc-7d3f-4e66-aeef-4fd721e36265)" />
      <path
         d="m 0.5,13.333 h 17 v 2.114 a 1.309,1.309 0 0 1 -1.309,1.309 H 1.809 A 1.309,1.309 0 0 1 0.5,15.447 Z"
         id="path45950"
         inkscape:connector-curvature="0"
         style="fill:#5ea0ef" />
      <path
         d="M 15.028,11.835 H 2.972 A 0.328,0.328 0 0 1 2.646,11.472 L 3.56,3.034 A 0.327,0.327 0 0 1 3.885,2.742 h 10.23 a 0.327,0.327 0 0 1 0.325,0.292 l 0.914,8.438 a 0.328,0.328 0 0 1 -0.326,0.363 z"
         id="path45952"
         inkscape:connector-curvature="0"
         style="fill:#f2f2f2" />
      <path
         d="M 13.691,15.294 V 14.5 A 0.294,0.294 0 0 0 13.397,14.206 H 13.362 A 0.294,0.294 0 0 0 13.068,14.5 v 0.753 H 9.221 V 14.5 A 0.294,0.294 0 0 0 8.927,14.206 H 8.892 A 0.294,0.294 0 0 0 8.6,14.5 v 0.753 H 4.542 V 14.51 A 0.294,0.294 0 0 0 4.248,14.216 H 4.213 A 0.294,0.294 0 0 0 3.919,14.51 v 0.79 a 0.588,0.588 0 0 0 0.588,0.588 h 0.035 l 8.562,-0.01 a 0.587,0.587 0 0 0 0.587,-0.584 z"
         id="path45954"
         inkscape:connector-curvature="0"
         style="fill:#f2f2f2" />
      <path
         d="M 8.579,7.584 H 6.441 C 6.374,7.584 6.32,7.551 6.32,7.51 A 0.05,0.05 0 0 1 6.331,7.48 L 8.9,3.985 A 0.14,0.14 0 0 1 9.01,3.942 h 2.529 c 0.067,0 0.121,0.033 0.121,0.074 A 0.057,0.057 0 0 1 11.639,4.058 L 8.624,6.793 h 2.935 c 0.067,0 0.121,0.033 0.121,0.074 a 0.064,0.064 0 0 1 -0.031,0.05 l -4.88,3.5 C 6.724,10.436 6.398,10.622 6.558,10.339 v 0 z"
         id="path45956"
         inkscape:connector-curvature="0"
         style="fill:#5ea0ef" />
    </g>
  </g>
  <metadata
     id="metadata45961">
    <rdf:RDF>
      <rdf:li>public:true</rdf:li>
      <rdf:li>sdk: MsPortalFx.Base.Images.Polychromatic.SSD()</rdf:li>
      <rdf:li>category: General</rdf:li>
      <cc:Work
         rdf:about="">
        <dc:format>image/svg+xml</dc:format>
        <dc:type
           rdf:resource="http://purl.org/dc/dcmitype/StillImage" />
        <dc:title>MsPortalFx.base.images-36</dc:title>
      </cc:Work>
    </rdf:RDF>
  </metadata>
</svg>
