<?xml version="1.0" encoding="UTF-8" standalone="no"?>
<svg
   xmlns:dc="http://purl.org/dc/elements/1.1/"
   xmlns:cc="http://creativecommons.org/ns#"
   xmlns:rdf="http://www.w3.org/1999/02/22-rdf-syntax-ns#"
   xmlns:svg="http://www.w3.org/2000/svg"
   xmlns="http://www.w3.org/2000/svg"
   xmlns:sodipodi="http://sodipodi.sourceforge.net/DTD/sodipodi-0.dtd"
   xmlns:inkscape="http://www.inkscape.org/namespaces/inkscape"
   width="16.912001"
   height="13.599"
   viewBox="0 0 16.912001 13.599"
   version="1.1"
   id="svg46603"
   sodipodi:docname="Storage_Azure_Files.svg"
   inkscape:version="0.92.3 (2405546, 2018-03-11)">
  <sodipodi:namedview
     pagecolor="#ffffff"
     bordercolor="#666666"
     borderopacity="1"
     objecttolerance="10"
     gridtolerance="10"
     guidetolerance="10"
     inkscape:pageopacity="0"
     inkscape:pageshadow="2"
     inkscape:window-width="1920"
     inkscape:window-height="1017"
     id="namedview46605"
     showgrid="false"
     fit-margin-top="0"
     fit-margin-left="0"
     fit-margin-right="0"
     fit-margin-bottom="0"
     inkscape:zoom="48.111111"
     inkscape:cx="8.456"
     inkscape:cy="6.799"
     inkscape:window-x="-8"
     inkscape:window-y="-8"
     inkscape:window-maximized="1"
     inkscape:current-layer="svg46603" />
  <defs
     id="defs46582">
    <linearGradient
       id="b761c5df-7d35-45ec-bc23-be885bc53266"
       x1="9"
       y1="15.799"
       x2="9"
       y2="5.316"
       gradientUnits="userSpaceOnUse"
       gradientTransform="translate(0.544,2.2)">
      <stop
         offset="0"
         stop-color="#32bedd"
         id="stop46577" />
      <stop
         offset="0.775"
         stop-color="#32d4f5"
         id="stop46579" />
    </linearGradient>
  </defs>
  <title
     id="title46584">MsPortalFx.base.images-1</title>
  <g
     id="f7bf1580-21b3-4768-930f-6670371e2655"
     transform="translate(-0.544,-2.2)">
    <g
       id="g46598">
      <path
         d="m 0.544,5.316 h 16.912 v 9.918 a 0.565,0.565 0 0 1 -0.565,0.565 H 1.109 A 0.565,0.565 0 0 1 0.544,15.234 Z"
         id="path46586"
         inkscape:connector-curvature="0"
         style="fill:url(#b761c5df-7d35-45ec-bc23-be885bc53266)" />
      <path
         d="m 1.112,2.2 h 15.776 a 0.565,0.565 0 0 1 0.565,0.565 v 2.55 H 0.547 V 2.766 A 0.565,0.565 0 0 1 1.112,2.2 Z"
         id="path46588"
         inkscape:connector-curvature="0"
         style="fill:#0078d4" />
      <path
         d="M 13.9,7.32 H 9.715 A 0.224,0.224 0 0 1 9.59,7.282 L 8.39,6.487 A 0.219,0.219 0 0 0 8.266,6.449 H 4.752 A 0.224,0.224 0 0 0 4.528,6.673 v 7.392 a 0.223,0.223 0 0 0 0.224,0.223 H 13.9 a 0.224,0.224 0 0 0 0.224,-0.223 V 7.544 A 0.224,0.224 0 0 0 13.9,7.32 Z"
         id="path46590"
         inkscape:connector-curvature="0"
         style="fill:#5ea0ef" />
      <rect
         x="5.1539998"
         y="6.9050002"
         width="2.3180001"
         height="0.46399999"
         rx="0.097999997"
         id="rect46592"
         style="fill:#ffffff" />
      <rect
         x="5.1539998"
         y="6.9050002"
         width="0.46399999"
         height="0.46399999"
         rx="0.067000002"
         id="rect46594"
         style="fill:#0078d4" />
      <path
         d="M 13.9,7.309 H 9.3 A 0.225,0.225 0 0 0 9.141,7.375 L 8.402,8.114 A 0.225,0.225 0 0 1 8.243,8.18 H 4.752 A 0.224,0.224 0 0 0 4.528,8.404 v 5.65 a 0.223,0.223 0 0 0 0.224,0.223 H 13.9 a 0.224,0.224 0 0 0 0.224,-0.223 V 7.533 A 0.224,0.224 0 0 0 13.9,7.309 Z"
         id="path46596"
         inkscape:connector-curvature="0"
         style="opacity:0.9;fill:#ffffff" />
    </g>
  </g>
  <metadata
     id="metadata46601">
    <rdf:RDF>
      <rdf:li>public:true</rdf:li>
      <rdf:li>sdk: MsPortalFx.Base.Images.Polychromatic.StorageAzureFiles()</rdf:li>
      <rdf:li>category: General</rdf:li>
      <cc:Work
         rdf:about="">
        <dc:format>image/svg+xml</dc:format>
        <dc:type
           rdf:resource="http://purl.org/dc/dcmitype/StillImage" />
        <dc:title>MsPortalFx.base.images-1</dc:title>
      </cc:Work>
    </rdf:RDF>
  </metadata>
</svg>
