<?xml version="1.0" encoding="UTF-8" standalone="no"?>
<svg
   xmlns:dc="http://purl.org/dc/elements/1.1/"
   xmlns:cc="http://creativecommons.org/ns#"
   xmlns:rdf="http://www.w3.org/1999/02/22-rdf-syntax-ns#"
   xmlns:svg="http://www.w3.org/2000/svg"
   xmlns="http://www.w3.org/2000/svg"
   xmlns:sodipodi="http://sodipodi.sourceforge.net/DTD/sodipodi-0.dtd"
   xmlns:inkscape="http://www.inkscape.org/namespaces/inkscape"
   width="16.912001"
   height="13.599"
   viewBox="0 0 16.912001 13.599"
   version="1.1"
   id="svg47213"
   sodipodi:docname="Storage_Container.svg"
   inkscape:version="0.92.3 (2405546, 2018-03-11)">
  <sodipodi:namedview
     pagecolor="#ffffff"
     bordercolor="#666666"
     borderopacity="1"
     objecttolerance="10"
     gridtolerance="10"
     guidetolerance="10"
     inkscape:pageopacity="0"
     inkscape:pageshadow="2"
     inkscape:window-width="1920"
     inkscape:window-height="1017"
     id="namedview47215"
     showgrid="false"
     fit-margin-top="0"
     fit-margin-left="0"
     fit-margin-right="0"
     fit-margin-bottom="0"
     inkscape:zoom="48.111111"
     inkscape:cx="8.456"
     inkscape:cy="6.799"
     inkscape:window-x="-8"
     inkscape:window-y="-8"
     inkscape:window-maximized="1"
     inkscape:current-layer="svg47213" />
  <defs
     id="defs47192">
    <linearGradient
       id="aa32ebca-eeba-4b3a-9ee4-7e15a794a5d5"
       x1="9"
       y1="15.799"
       x2="9"
       y2="5.316"
       gradientUnits="userSpaceOnUse"
       gradientTransform="translate(0.544,2.2)">
      <stop
         offset="0"
         stop-color="#32bedd"
         id="stop47187" />
      <stop
         offset="0.775"
         stop-color="#32d4f5"
         id="stop47189" />
    </linearGradient>
  </defs>
  <title
     id="title47194">MsPortalFx.base.images-2</title>
  <g
     id="a9342976-9512-4674-89f1-52a588cf420b"
     transform="translate(-0.544,-2.2)">
    <g
       id="g47208">
      <path
         d="m 0.544,5.316 h 16.912 v 9.918 a 0.565,0.565 0 0 1 -0.565,0.565 H 1.109 A 0.565,0.565 0 0 1 0.544,15.234 Z"
         id="path47196"
         inkscape:connector-curvature="0"
         style="fill:url(#aa32ebca-eeba-4b3a-9ee4-7e15a794a5d5)" />
      <path
         d="m 1.112,2.2 h 15.776 a 0.565,0.565 0 0 1 0.565,0.565 v 2.55 H 0.547 V 2.766 A 0.565,0.565 0 0 1 1.112,2.2 Z"
         id="path47198"
         inkscape:connector-curvature="0"
         style="fill:#0078d4" />
      <path
         d="M 13.528,7.347 H 9.384 A 0.228,0.228 0 0 1 9.26,7.31 L 8.077,6.523 A 0.218,0.218 0 0 0 7.954,6.485 H 4.472 A 0.222,0.222 0 0 0 4.25,6.707 v 7.315 a 0.221,0.221 0 0 0 0.222,0.222 h 9.056 A 0.221,0.221 0 0 0 13.75,14.022 V 7.569 A 0.222,0.222 0 0 0 13.528,7.347 Z"
         id="path47200"
         inkscape:connector-curvature="0"
         style="fill:#f78d1e" />
      <rect
         x="5.1139998"
         y="6.9099998"
         width="2.1589999"
         height="0.43200001"
         rx="0.090999998"
         id="rect47202"
         style="fill:#ffffff" />
      <rect
         x="5.1139998"
         y="6.9099998"
         width="0.43200001"
         height="0.43200001"
         rx="0.061999999"
         id="rect47204"
         style="fill:#d15900" />
      <path
         d="M 13.528,7.337 H 8.977 A 0.219,0.219 0 0 0 8.82,7.4 L 8.088,8.131 A 0.22,0.22 0 0 1 7.931,8.197 H 4.472 A 0.221,0.221 0 0 0 4.25,8.418 v 5.591 a 0.221,0.221 0 0 0 0.222,0.222 h 9.056 A 0.221,0.221 0 0 0 13.75,14.009 V 7.558 A 0.221,0.221 0 0 0 13.528,7.337 Z"
         id="path47206"
         inkscape:connector-curvature="0"
         style="fill:#ffffff" />
    </g>
  </g>
  <metadata
     id="metadata47211">
    <rdf:RDF>
      <rdf:li>public:true</rdf:li>
      <rdf:li>sdk: MsPortalFx.Base.Images.Polychromatic.StorageContainer()</rdf:li>
      <rdf:li>category: General</rdf:li>
      <cc:Work
         rdf:about="">
        <dc:format>image/svg+xml</dc:format>
        <dc:type
           rdf:resource="http://purl.org/dc/dcmitype/StillImage" />
        <dc:title>MsPortalFx.base.images-2</dc:title>
      </cc:Work>
    </rdf:RDF>
  </metadata>
</svg>
