<?xml version="1.0" encoding="UTF-8" standalone="no"?>
<svg
   id="b1ee46c6-ba3c-46bc-b019-18f22bb5d20a"
   width="15.492008"
   height="16.065786"
   viewBox="0 0 15.492008 16.065786"
   version="1.1"
   sodipodi:docname="Troubleshoot.svg"
   inkscape:version="1.1 (c68e22c387, 2021-05-23)"
   xmlns:inkscape="http://www.inkscape.org/namespaces/inkscape"
   xmlns:sodipodi="http://sodipodi.sourceforge.net/DTD/sodipodi-0.dtd"
   xmlns="http://www.w3.org/2000/svg"
   xmlns:svg="http://www.w3.org/2000/svg"
   xmlns:rdf="http://www.w3.org/1999/02/22-rdf-syntax-ns#"
   xmlns:cc="http://creativecommons.org/ns#"
   xmlns:dc="http://purl.org/dc/elements/1.1/">
  <sodipodi:namedview
     id="namedview24232"
     pagecolor="#ffffff"
     bordercolor="#666666"
     borderopacity="1.0"
     inkscape:pageshadow="2"
     inkscape:pageopacity="0.0"
     inkscape:pagecheckerboard="0"
     showgrid="false"
     fit-margin-top="0"
     fit-margin-left="0"
     fit-margin-right="0"
     fit-margin-bottom="0"
     inkscape:zoom="44.055556"
     inkscape:cx="7.7515763"
     inkscape:cy="8.0239596"
     inkscape:window-width="1920"
     inkscape:window-height="1017"
     inkscape:window-x="-8"
     inkscape:window-y="-8"
     inkscape:window-maximized="1"
     inkscape:current-layer="b1ee46c6-ba3c-46bc-b019-18f22bb5d20a" />
  <defs
     id="defs24224">
    <linearGradient
       id="b09d7f9a-69b3-43f5-ae5f-e25dbe60ead2"
       x1="9"
       y1="1"
       x2="9"
       y2="17"
       gradientUnits="userSpaceOnUse"
       gradientTransform="translate(-1.2567485,-0.97124298)">
      <stop
         offset="0"
         stop-color="#198ab3"
         id="stop24200" />
      <stop
         offset="0.29"
         stop-color="#1786b1"
         id="stop24202" />
      <stop
         offset="0.59"
         stop-color="#1079ad"
         id="stop24204" />
      <stop
         offset="0.89"
         stop-color="#0565a5"
         id="stop24206" />
      <stop
         offset="1"
         stop-color="#005ba1"
         id="stop24208" />
    </linearGradient>
    <linearGradient
       id="faf99971-18aa-4520-879b-e0f5be430608"
       x1="8.96"
       y1="1.1"
       x2="8.96"
       y2="16.98"
       gradientUnits="userSpaceOnUse"
       gradientTransform="translate(-1.2567485,-0.97124298)">
      <stop
         offset="0"
         stop-color="#32d4f5"
         id="stop24211" />
      <stop
         offset="0.23"
         stop-color="#31d0f1"
         id="stop24213" />
      <stop
         offset="0.46"
         stop-color="#2cc3e6"
         id="stop24215" />
      <stop
         offset="0.7"
         stop-color="#25afd4"
         id="stop24217" />
      <stop
         offset="0.94"
         stop-color="#1c92ba"
         id="stop24219" />
      <stop
         offset="1"
         stop-color="#198ab3"
         id="stop24221" />
    </linearGradient>
  </defs>
  <title
     id="title24226">Icon-intune-341</title>
  <path
     id="b5a41e5e-621e-4e56-aaec-3e36f2ddfa5b"
     d="m 13.113252,3.198757 0.08,0.07 a 0.14,0.14 0 0 0 0.19,0 l 0.74,-0.62 1.34,-2.20999998 a 0.14,0.14 0 0 0 0,-0.17 l -0.23,-0.24 a 0.14,0.14 0 0 0 -0.17,0 l -2.11,1.42999998 -0.6,0.77 a 0.14,0.14 0 0 0 0,0.18 l 0.08,0.08 -4.3600005,4.54 -0.9,-1 -1,1 a 1.81,1.81 0 0 1 -0.43,1.51 1.57,1.57 0 0 1 -1.37,0.5 l -4.28999999,4.35 a 0.27,0.27 0 0 0 0,0.39 l 2.07999999,2.16 a 0.27,0.27 0 0 0 0.4,0 l 4.18,-4.36 a 1.72,1.72 0 0 1 0.5,-1.44 1.6,1.6 0 0 1 1.37,-0.5 l 1,-1 -0.87,-0.97 z"
     fill="url(#b09d7f9a-69b3-43f5-ae5f-e25dbe60ead2)"
     style="fill:url(#b09d7f9a-69b3-43f5-ae5f-e25dbe60ead2)" />
  <path
     d="m 14.843252,13.098757 -1,-1.07 -6.6800005,-6.85 v 0 l -0.33,-0.36 a 3.72,3.72 0 0 0 -0.87,-3.64 3.43,3.43 0 0 0 -3.09,-0.99999998 0.15,0.15 0 0 0 -0.08,0.24 l 1.74,1.76999998 a 0.15,0.15 0 0 1 0,0.14 l -0.42,1.81 a 0.14,0.14 0 0 1 -0.1,0.1 l -1.78,0.49 a 0.14,0.14 0 0 1 -0.14,0 l -1.68999999,-1.79 a 0.14,0.14 0 0 0 -0.24,0.09 3.63,3.63 0 0 0 0.99999999,3.18 3.37,3.37 0 0 0 3.37,0.9 l 0.06,0.07 0.38,0.39 v 0 l 7.6100005,8 a 1.58,1.58 0 0 0 2.22,0.08 l 0.08,-0.08 a 1.68,1.68 0 0 0 0.47,-1.2 1.85,1.85 0 0 0 -0.51,-1.27 z"
     fill="url(#faf99971-18aa-4520-879b-e0f5be430608)"
     id="path24229"
     style="fill:url(#faf99971-18aa-4520-879b-e0f5be430608)" />
  <metadata
     id="metadata24314">
    <rdf:RDF>
      <cc:Work
         rdf:about="">
        <dc:title>Icon-intune-341</dc:title>
      </cc:Work>
    </rdf:RDF>
  </metadata>
</svg>
