<?xml version="1.0" encoding="UTF-8" standalone="no"?>
<svg
   xmlns:dc="http://purl.org/dc/elements/1.1/"
   xmlns:cc="http://creativecommons.org/ns#"
   xmlns:rdf="http://www.w3.org/1999/02/22-rdf-syntax-ns#"
   xmlns:svg="http://www.w3.org/2000/svg"
   xmlns="http://www.w3.org/2000/svg"
   xmlns:sodipodi="http://sodipodi.sourceforge.net/DTD/sodipodi-0.dtd"
   xmlns:inkscape="http://www.inkscape.org/namespaces/inkscape"
   id="b089cfca-0de1-451c-a1ca-6680ea50cb4f"
   width="16.999975"
   height="16.912003"
   viewBox="0 0 16.999975 16.912003"
   version="1.1"
   sodipodi:docname="Azure_Cosmos_DB.svg"
   inkscape:version="0.92.3 (2405546, 2018-03-11)">
  <sodipodi:namedview
     pagecolor="#ffffff"
     bordercolor="#666666"
     borderopacity="1"
     objecttolerance="10"
     gridtolerance="10"
     guidetolerance="10"
     inkscape:pageopacity="0"
     inkscape:pageshadow="2"
     inkscape:window-width="1920"
     inkscape:window-height="1017"
     id="namedview11459"
     showgrid="false"
     fit-margin-top="0"
     fit-margin-left="0"
     fit-margin-right="0"
     fit-margin-bottom="0"
     inkscape:zoom="48.111111"
     inkscape:cx="8.4999754"
     inkscape:cy="8.456"
     inkscape:window-x="-8"
     inkscape:window-y="-8"
     inkscape:window-maximized="1"
     inkscape:current-layer="b089cfca-0de1-451c-a1ca-6680ea50cb4f" />
  <defs
     id="defs11436">
    <radialGradient
       id="b25d0836-964a-4c84-8c20-855f66e8345e"
       cx="-105.006"
       cy="-10.409"
       r="5.954"
       gradientTransform="matrix(1.036,0,0,1.027,118.23902,20.187997)"
       gradientUnits="userSpaceOnUse">
      <stop
         offset="0.183"
         stop-color="#5ea0ef"
         id="stop11428" />
      <stop
         offset="1"
         stop-color="#0078d4"
         id="stop11430" />
    </radialGradient>
    <clipPath
       id="b36c7f5d-2ef1-4760-8a25-eeb9661f4e47">
      <path
         d="M 14.969,7.53 A 6.137,6.137 0 1 1 7.574,2.987 6.137,6.137 0 0 1 14.969,7.53 Z"
         id="path11433"
         inkscape:connector-curvature="0"
         style="fill:none" />
    </clipPath>
  </defs>
  <title
     id="title11438">Icon-databases-121</title>
  <path
     d="m 2.4539754,4.7220029 a 0.175,0.175 0 0 1 -0.176,-0.176 v 0 a 2.012,2.012 0 0 0 -2.00900002,-2.009 0.176,0.176 0 0 1 -0.176,-0.175 v 0 a 0.176,0.176 0 0 1 0.176,-0.176 2.012,2.012 0 0 0 2.00900002,-2.01000003 0.175,0.175 0 0 1 0.176,-0.1759999963893 v 0 A 0.175,0.175 0 0 1 2.6299754,0.17600287 v 0 a 2.012,2.012 0 0 0 2.009,2.00900003 0.175,0.175 0 0 1 0.176,0.176 v 0 a 0.175,0.175 0 0 1 -0.176,0.176 v 0 a 2.011,2.011 0 0 0 -2.009,2.009 0.177,0.177 0 0 1 -0.176,0.176 z"
     id="path11440"
     inkscape:connector-curvature="0"
     style="fill:#50e6ff" />
  <path
     d="m 15.110975,16.912003 a 0.141,0.141 0 0 1 -0.141,-0.141 v 0 a 1.609,1.609 0 0 0 -1.607,-1.607 0.141,0.141 0 0 1 -0.141,-0.14 v 0 a 0.141,0.141 0 0 1 0.141,-0.141 v 0 a 1.608,1.608 0 0 0 1.607,-1.607 0.141,0.141 0 0 1 0.141,-0.141 v 0 a 0.141,0.141 0 0 1 0.141,0.141 v 0 a 1.608,1.608 0 0 0 1.607,1.607 0.141,0.141 0 1 1 0,0.282 v 0 a 1.609,1.609 0 0 0 -1.607,1.607 0.141,0.141 0 0 1 -0.141,0.14 z"
     id="path11442"
     inkscape:connector-curvature="0"
     style="fill:#50e6ff" />
  <g
     id="g11452"
     transform="translate(-0.50002462,-0.54399713)">
    <path
       d="M 14.969,7.53 A 6.137,6.137 0 1 1 7.574,2.987 6.137,6.137 0 0 1 14.969,7.53 Z"
       id="path11444"
       inkscape:connector-curvature="0"
       style="fill:url(#b25d0836-964a-4c84-8c20-855f66e8345e)" />
    <g
       clip-path="url(#b36c7f5d-2ef1-4760-8a25-eeb9661f4e47)"
       id="g11450">
      <path
         d="M 5.709,13.115 A 1.638,1.638 0 1 0 5.714,9.84 1.307,1.307 0 0 0 5.721,9.7 1.651,1.651 0 0 0 4.06,8.064 H 2.832 a 6.251,6.251 0 0 0 1.595,5.051 z"
         id="path11446"
         inkscape:connector-curvature="0"
         style="fill:#f2f2f2" />
      <path
         d="m 15.045,7.815 c 0,-0.015 0,-0.03 -0.007,-0.044 a 5.978,5.978 0 0 0 -1.406,-2.88 1.825,1.825 0 0 0 -0.289,-0.09 1.806,1.806 0 0 0 -2.3,1.663 2,2 0 0 0 -0.2,-0.013 1.737,1.737 0 0 0 -0.581,3.374 1.451,1.451 0 0 0 0.541,0.1 h 2.03 a 13.453,13.453 0 0 0 2.212,-2.11 z"
         id="path11448"
         inkscape:connector-curvature="0"
         style="fill:#f2f2f2" />
    </g>
  </g>
  <path
     d="m 16.690975,3.2880029 c -0.629,-1.047 -2.1,-1.455 -4.155,-1.149 a 14.606,14.606 0 0 0 -2.082,0.452 6.456,6.456 0 0 1 1.528,0.767 c 0.241,-0.053 0.483,-0.116 0.715,-0.151 a 7.49,7.49 0 0 1 1.103,-0.089 2.188,2.188 0 0 1 1.959,0.725 v 0 c 0.383,0.638 0.06,1.729 -0.886,3 a 16.723,16.723 0 0 1 -4.749,4.0510001 16.758,16.758 0 0 1 -5.8239996,2.262 c -1.564,0.234 -2.682,0 -3.065,-0.636 -0.38300002,-0.636 -0.06,-1.73 0.886,-2.9950001 0.117,-0.157 0.146,-0.234 0.279,-0.392 a 6.252,6.252 0 0 1 0.026,-1.63 11.552,11.552 0 0 0 -1.17,1.372 C 0.01697538,10.532003 -0.31902462,12.022003 0.30897538,13.069003 a 3.165,3.165 0 0 0 2.90000002,1.249 8.434,8.434 0 0 0 1.251,-0.1 17.855,17.855 0 0 0 6.2189996,-2.4 17.808,17.808 0 0 0 5.061,-4.3320001 c 1.243,-1.661 1.579,-3.15 0.951,-4.198 z"
     id="path11454"
     inkscape:connector-curvature="0"
     style="fill:#50e6ff" />
  <metadata
     id="metadata11456">
    <rdf:RDF>
      <rdf:li>public:true</rdf:li>
      <rdf:li>sdk:false</rdf:li>
      <rdf:li>category: Databases</rdf:li>
      <cc:Work
         rdf:about="">
        <dc:format>image/svg+xml</dc:format>
        <dc:type
           rdf:resource="http://purl.org/dc/dcmitype/StillImage" />
        <dc:title>Icon-databases-121</dc:title>
      </cc:Work>
    </rdf:RDF>
  </metadata>
</svg>
