<?xml version="1.0" encoding="UTF-8" standalone="no"?>
<svg
   id="a5a9981f-29e5-449a-b083-17f85d947f14"
   width="14.766844"
   height="17"
   viewBox="0 0 14.766844 17"
   version="1.1"
   sodipodi:docname="Azure_Database_PostgreSQL_Server_Group.svg"
   inkscape:version="1.1 (c68e22c387, 2021-05-23)"
   xmlns:inkscape="http://www.inkscape.org/namespaces/inkscape"
   xmlns:sodipodi="http://sodipodi.sourceforge.net/DTD/sodipodi-0.dtd"
   xmlns="http://www.w3.org/2000/svg"
   xmlns:svg="http://www.w3.org/2000/svg">
  <sodipodi:namedview
     id="namedview12597"
     pagecolor="#ffffff"
     bordercolor="#666666"
     borderopacity="1.0"
     inkscape:pageshadow="2"
     inkscape:pageopacity="0.0"
     inkscape:pagecheckerboard="0"
     showgrid="false"
     fit-margin-top="0"
     fit-margin-left="0"
     fit-margin-right="0"
     fit-margin-bottom="0"
     inkscape:zoom="44.055556"
     inkscape:cx="6.4123581"
     inkscape:cy="8.5006305"
     inkscape:window-width="1920"
     inkscape:window-height="1017"
     inkscape:window-x="-8"
     inkscape:window-y="-8"
     inkscape:window-maximized="1"
     inkscape:current-layer="a5a9981f-29e5-449a-b083-17f85d947f14" />
  <defs
     id="defs12580">
    <linearGradient
       id="f4235b1f-7143-4b32-9804-b021fa2010fe"
       x1="2.447"
       y1="9.3389997"
       x2="15.27"
       y2="9.3389997"
       gradientTransform="matrix(1,0,0,-1,-2.447,19)"
       gradientUnits="userSpaceOnUse">
      <stop
         offset="0"
         stop-color="#005ba1"
         id="stop12565" />
      <stop
         offset="0.07"
         stop-color="#0060a9"
         id="stop12567" />
      <stop
         offset="0.36"
         stop-color="#0071c8"
         id="stop12569" />
      <stop
         offset="0.52"
         stop-color="#0078d4"
         id="stop12571" />
      <stop
         offset="0.64"
         stop-color="#0074cd"
         id="stop12573" />
      <stop
         offset="0.82"
         stop-color="#006abb"
         id="stop12575" />
      <stop
         offset="1"
         stop-color="#005ba1"
         id="stop12577" />
    </linearGradient>
  </defs>
  <path
     d="M 6.41,4.64 C 2.87,4.64 0,3.64 0,2.32 v 12.36 c 0,1.27 2.82,2.3 6.32,2.32 h 0.09 c 3.54,0 6.41,-1 6.41,-2.32 V 2.32 c 0,1.28 -2.87,2.32 -6.41,2.32 z"
     fill="url(#f4235b1f-7143-4b32-9804-b021fa2010fe)"
     id="path12582"
     style="fill:url(#f4235b1f-7143-4b32-9804-b021fa2010fe)" />
  <path
     d="M 12.82,2.32 C 12.82,3.6 9.95,4.64 6.41,4.64 2.87,4.64 0,3.64 0,2.32 0,1 2.87,0 6.41,0 c 3.54,0 6.41,1 6.41,2.32"
     fill="#e8e8e8"
     id="path12584" />
  <path
     d="m 11.32,2.13 c 0,0.82 -2.2,1.48 -4.91,1.48 -2.71,0 -4.92,-0.66 -4.92,-1.47 0,-0.81 2.2,-1.48 4.92,-1.48 2.72,0 4.91,0.66 4.91,1.47"
     fill="#50e6ff"
     id="path12586" />
  <path
     d="M 6.41,2.5 A 11.649,11.649 0 0 0 2.51,3.07 11.535,11.535 0 0 0 6.41,3.61 11.471,11.471 0 0 0 10.3,3.03 11.949,11.949 0 0 0 6.41,2.5 Z"
     fill="#198ab3"
     id="path12588" />
  <path
     d="m 9.564,8.491 c 0,0.083 -0.027,0.24 -0.054,0.422 a 5.047,5.047 0 0 0 -0.074,0.63 c 0,0.121 0.028,0.306 0.048,0.468 0.018,0.137 0.034,0.266 0.039,0.355 a 1.569,1.569 0 0 1 -0.258,0.863 c -0.011,0.024 -0.022,0.047 -0.034,0.07 0.033,0.041 0.067,0.081 0.1,0.12 A 10.551,10.551 0 0 0 10.41,9.03 v 0 C 10.698,8.08 10.732,7.396 10.502,7.105 A 2.638,2.638 0 0 0 7.778,6.24 3.536,3.536 0 0 1 8.704,6.918 2.269,2.269 0 0 1 9.564,8.491 Z M 9.25,8.574 A 1.165,1.165 0 0 0 8.45,8.661 C 8.15,8.846 8.244,9.212 8.398,9.672 a 6.763,6.763 0 0 0 0.349,0.855 l 0.092,0.166 v 0 c 0.049,0.087 0.086,0.154 0.11,0.2 0.024,0.046 0.053,0.087 0.081,0.129 a 1.286,1.286 0 0 0 0.186,-0.646 c 0,-0.078 -0.02,-0.2 -0.037,-0.333 C 9.156,9.865 9.133,9.681 9.129,9.543 A 4.935,4.935 0 0 1 9.206,8.857 C 9.224,8.761 9.24,8.653 9.25,8.574 Z M 8.94,8.98 A 0.323,0.323 0 0 1 8.757,9.08 H 8.722 A 0.274,0.274 0 0 1 8.474,8.922 V 8.914 C 8.463,8.836 8.592,8.776 8.726,8.757 a 0.517,0.517 0 0 1 0.184,0 c 0.058,0.014 0.094,0.042 0.1,0.078 A 0.209,0.209 0 0 1 8.94,8.98 Z M 4.163,9.88 C 4.171,9.806 4.178,9.742 4.178,9.709 c 0,-0.057 0,-0.116 -0.006,-0.177 A 5.3,5.3 0 0 1 4.202,8.576 5.273,5.273 0 0 1 4.444,7.453 2.465,2.465 0 0 1 5.02,6.553 4.853,4.853 0 0 0 3.647,6.31 1.919,1.919 0 0 0 2.531,6.61 1.973,1.973 0 0 0 1.887,8.441 12.49,12.49 0 0 0 2.381,10.687 c 0.355,1.15 0.743,1.849 1.092,1.963 v 0 c 0.156,0.052 0.312,-0.018 0.477,-0.213 0.285,-0.342 0.551,-0.636 0.709,-0.8 A 1.869,1.869 0 0 1 4.163,9.878 Z m 0.273,0.4 a 1.844,1.844 0 0 0 0.057,0.556 1.24,1.24 0 0 0 0.268,0.446 1.042,1.042 0 0 0 0.356,0.249 1.069,1.069 0 0 0 0.4,0.082 5.847,5.847 0 0 1 0.227,-0.6 5.041,5.041 0 0 0 0.219,-0.589 6.279,6.279 0 0 0 0.028,-1.113 C 5.976,9.211 5.958,9.111 5.934,9.004 A 0.461,0.461 0 0 0 5.81,8.732 0.308,0.308 0 0 0 5.783,8.708 0.565,0.565 0 0 0 5.493,8.608 1.238,1.238 0 0 0 5.249,8.608 1.635,1.635 0 0 0 4.761,8.753 1.58,1.58 0 0 0 4.482,8.93 c 0,0.04 0,0.077 0,0.114 0.012,0.2 0.016,0.406 0.01,0.609 V 9.7 A 1.215,1.215 0 0 1 4.482,9.856 C 4.474,9.987 4.464,10.118 4.448,10.248 v 0 z M 5.11,8.933 A 0.089,0.089 0 0 1 5.137,8.9 0.415,0.415 0 0 1 5.422,8.86 0.549,0.549 0 0 1 5.615,8.92 c 0.091,0.049 0.1,0.105 0.091,0.134 V 9.069 A 0.311,0.311 0 0 1 5.423,9.25 H 5.383 C 5.217,9.226 5.083,9.059 5.097,8.971 A 0.1,0.1 0 0 1 5.11,8.933 Z m 0.749,2.986 a 0.241,0.241 0 0 0 -0.136,0.068 c -0.057,0.064 -0.1,0.12 -0.138,0.166 -0.171,0.216 -0.243,0.284 -0.747,0.386 a 0.582,0.582 0 0 0 -0.258,0.093 0.58,0.58 0 0 0 0.245,0.12 1.185,1.185 0 0 0 0.724,0 1.171,1.171 0 0 0 0.361,-0.192 0.6,0.6 0 0 0 0.2,-0.311 0.345,0.345 0 0 0 -0.1,-0.274 0.183,0.183 0 0 0 -0.153,-0.056 z m 4.7,0 a 1.725,1.725 0 0 1 -1.156,-0.027 0.278,0.278 0 0 0 -0.143,0.006 0.293,0.293 0 0 0 -0.166,0.137 0.95,0.95 0 0 0 -0.036,0.317 1.893,1.893 0 0 0 1.125,-0.1 1.36,1.36 0 0 0 0.486,-0.344 0.677,0.677 0 0 0 -0.116,0.009 z M 8.11,9.769 C 7.971,9.354 7.763,8.727 8.292,8.401 A 1.383,1.383 0 0 1 9.202,8.255 3.219,3.219 0 0 0 8.508,7.155 C 8.476,7.121 8.444,7.089 8.408,7.055 8.372,7.021 8.365,7.015 8.343,6.996 L 8.335,6.988 8.267,6.928 8.221,6.891 8.194,6.868 A 2.752,2.752 0 0 0 6.51,6.287 1.77,1.77 0 0 0 5.482,6.551 a 2.138,2.138 0 0 0 -0.751,1 4.916,4.916 0 0 0 -0.214,0.977 1.694,1.694 0 0 1 1,-0.232 0.837,0.837 0 0 1 0.775,0.914 7.01,7.01 0 0 1 -0.033,1.275 4.915,4.915 0 0 1 -0.234,0.636 C 5.956,11.288 5.881,11.47 5.835,11.61 a 0.478,0.478 0 0 1 0.392,0.143 0.646,0.646 0 0 1 0.189,0.523 v 0 c -0.005,0.08 -0.008,0.161 -0.017,0.242 a 6.554,6.554 0 0 0 0.237,2.451 0.582,0.582 0 0 0 0.251,0.216 0.671,0.671 0 0 0 0.318,0.1 1.351,1.351 0 0 0 0.993,-0.337 1.015,1.015 0 0 0 0.292,-0.664 C 8.569,13.828 8.72,12.571 8.74,12.31 v 0 A 0.72,0.72 0 0 1 8.834,11.861 0.6,0.6 0 0 1 9.107,11.624 5.338,5.338 0 0 1 8.11,9.769 Z"
     fill="#ffffff"
     id="path12590" />
  <ellipse
     cx="-0.098647922"
     cy="18.717932"
     rx="3.0885689"
     ry="2.2406874"
     transform="rotate(-40.172423)"
     fill="#76bc2d"
     id="ellipse12592"
     style="stroke-width:0.99986" />
  <path
     d="m 11.254,15.341 a 1.084,1.084 0 0 1 0.044,-1.833 c 1.159,-0.83 1.23,0.365 0.3,0.52 0,0.43 1.208,0.379 1.728,-0.582 0.584,-1.081 -1.132,-1.766 -2.619,-0.127 -0.951,1.049 -0.975,2.484 -0.134,2.8 a 2.538,2.538 0 0 0 3.255,-2.655 c -0.798,1.873 -1.939,2.144 -2.574,1.877 z"
     fill="#ffffff"
     id="path12594" />
</svg>
