<?xml version="1.0" encoding="UTF-8" standalone="no"?>
<svg
   id="ab3a9672-a2e2-4826-a910-2e6b2c6404c9"
   width="17.459101"
   height="17.464001"
   viewBox="0 0 17.459101 17.464001"
   version="1.1"
   sodipodi:docname="Azure_SQL_Edge.svg"
   inkscape:version="1.1 (c68e22c387, 2021-05-23)"
   xmlns:inkscape="http://www.inkscape.org/namespaces/inkscape"
   xmlns:sodipodi="http://sodipodi.sourceforge.net/DTD/sodipodi-0.dtd"
   xmlns="http://www.w3.org/2000/svg"
   xmlns:svg="http://www.w3.org/2000/svg">
  <sodipodi:namedview
     id="namedview13584"
     pagecolor="#ffffff"
     bordercolor="#666666"
     borderopacity="1.0"
     inkscape:pageshadow="2"
     inkscape:pageopacity="0.0"
     inkscape:pagecheckerboard="0"
     showgrid="false"
     fit-margin-top="0"
     fit-margin-left="0"
     fit-margin-right="0"
     fit-margin-bottom="0"
     inkscape:zoom="44.055556"
     inkscape:cx="8.7276166"
     inkscape:cy="8.7276166"
     inkscape:window-width="1920"
     inkscape:window-height="1017"
     inkscape:window-x="-8"
     inkscape:window-y="-8"
     inkscape:window-maximized="1"
     inkscape:current-layer="ab3a9672-a2e2-4826-a910-2e6b2c6404c9" />
  <defs
     id="defs13557">
    <linearGradient
       id="ac8acba0-fcad-4e54-8c97-734c09b955aa"
       x1="11.091"
       y1="16.84"
       x2="14.933"
       y2="16.84"
       gradientTransform="matrix(1,0,0,-1,-0.27008718,19.732)"
       gradientUnits="userSpaceOnUse">
      <stop
         offset="0"
         stop-color="#005ba1"
         id="stop13519" />
      <stop
         offset="0.068"
         stop-color="#0060a9"
         id="stop13521" />
      <stop
         offset="0.517"
         stop-color="#0078d4"
         id="stop13523" />
      <stop
         offset="0.82"
         stop-color="#006abb"
         id="stop13525" />
      <stop
         offset="1"
         stop-color="#005ba1"
         id="stop13527" />
    </linearGradient>
    <linearGradient
       id="a4a83e6d-99f2-4a90-9db2-be369371220e"
       x1="9.8129997"
       y1="6.5780001"
       x2="9.8129997"
       y2="17.649"
       gradientTransform="matrix(1,0,0,-1,-0.27008718,19.732)"
       gradientUnits="userSpaceOnUse">
      <stop
         offset="0"
         stop-color="#198ab3"
         id="stop13530" />
      <stop
         offset="0.097"
         stop-color="#209ec5"
         id="stop13532" />
      <stop
         offset="0.396"
         stop-color="#2ec7e9"
         id="stop13534" />
      <stop
         offset="0.775"
         stop-color="#32d4f5"
         id="stop13536" />
    </linearGradient>
    <linearGradient
       id="a71c004a-5d5d-412e-b751-34ae0b69e153"
       x1="5.171"
       y1="6.0370002"
       x2="11.757"
       y2="6.0370002"
       gradientUnits="userSpaceOnUse"
       gradientTransform="translate(-0.27008718,-0.268)">
      <stop
         offset="0"
         stop-color="#005ba1"
         id="stop13539" />
      <stop
         offset="0.068"
         stop-color="#0060a9"
         id="stop13541" />
      <stop
         offset="0.517"
         stop-color="#0078d4"
         id="stop13543" />
      <stop
         offset="0.82"
         stop-color="#006abb"
         id="stop13545" />
      <stop
         offset="1"
         stop-color="#005ba1"
         id="stop13547" />
    </linearGradient>
    <radialGradient
       id="b1836271-e91b-48db-815f-ae9f59b03dcf"
       cx="8.6470003"
       cy="5.8280001"
       r="3.632"
       gradientTransform="matrix(1,0,0,-1,-0.27008718,19.732)"
       gradientUnits="userSpaceOnUse">
      <stop
         offset="0"
         stop-color="#f2f2f2"
         id="stop13550" />
      <stop
         offset="0.58"
         stop-color="#eee"
         id="stop13552" />
      <stop
         offset="1"
         stop-color="#e6e6e6"
         id="stop13554" />
    </radialGradient>
  </defs>
  <path
     d="m 12.741913,1.391 c -1.06,0 -1.921,-0.311 -1.921,-0.7 v 3.7 c 0,0.381 0.845,0.69 1.893,0.7 h 0.028 c 1.06,0 1.921,-0.311 1.921,-0.7 V 0.695 c -0.003,0.385 -0.862,0.696 -1.921,0.696 z"
     fill="url(#ac8acba0-fcad-4e54-8c97-734c09b955aa)"
     id="path13559"
     style="fill:url(#ac8acba0-fcad-4e54-8c97-734c09b955aa)" />
  <path
     d="m 14.659913,0.695 c 0,0.385 -0.859,0.7 -1.921,0.7 -1.062,0 -1.918,-0.311 -1.918,-0.7 0,-0.389 0.859,-0.695 1.921,-0.695 1.062,0 1.921,0.312 1.921,0.7"
     fill="#e8e8e8"
     id="path13561" />
  <path
     d="m 14.211913,0.639 c 0,0.245 -0.659,0.442 -1.472,0.442 -0.813,0 -1.471,-0.2 -1.471,-0.442 0,-0.242 0.661,-0.442 1.473,-0.442 0.812,0 1.471,0.2 1.471,0.442"
     fill="#50e6ff"
     id="path13563" />
  <path
     d="m 12.741913,0.741 a 3.576,3.576 0 0 0 -1.166,0.168 3.42,3.42 0 0 0 1.166,0.174 3.458,3.458 0 0 0 1.164,-0.174 3.56,3.56 0 0 0 -1.164,-0.168 z"
     fill="#198ab3"
     id="path13565" />
  <path
     d="m 17.351913,9.686 a 3.509,3.509 0 0 0 -3.045,-3.373 4.422,4.422 0 0 0 -4.5560002,-4.229 4.537,4.537 0 0 0 -4.336,2.957 4.188,4.188 0 0 0 -3.685,4.029 4.25,4.25 0 0 0 4.4,4.084 c 0.13,0 0.259,-0.007 0.387,-0.017 h 7.1220002 a 0.742,0.742 0 0 0 0.187,-0.028 3.552,3.552 0 0 0 3.526,-3.423 z"
     fill="url(#a4a83e6d-99f2-4a90-9db2-be369371220e)"
     id="path13567"
     style="fill:url(#a4a83e6d-99f2-4a90-9db2-be369371220e)" />
  <path
     d="m 17.012913,2.909 a 2.365,2.365 0 0 0 -1.359,-0.813 v 1.085 a 1.194,1.194 0 0 1 0.531,0.364 c 0.883,1.158 -0.722,4.954 -5.342,8.506 -4.6200002,3.552 -8.6880002,4.121 -9.5710002,2.962 -0.43299998,-0.568 -0.256,-1.776 0.574,-3.275 a 4.691,4.691 0 0 1 -0.558,-1.1 c -1.28999998,2.041 -1.68499998,3.9 -0.84499998,5.007 1.51899998,1.991 6.45899998,0.753 11.03500018,-2.766 4.576,-3.519 7.052,-7.979 5.535,-9.97 z"
     fill="#0072c6"
     id="path13569" />
  <path
     d="m 8.1939128,11.119 c -1.818,0 -3.293,-0.534 -3.293,-1.192 v 6.344 c 0,0.653 1.45,1.184 3.248,1.193 h 0.045 c 1.8190002,0 3.2930002,-0.534 3.2930002,-1.193 V 9.932 c 0,0.653 -1.474,1.187 -3.2930002,1.187 z"
     fill="url(#a71c004a-5d5d-412e-b751-34ae0b69e153)"
     id="path13571"
     style="fill:url(#a71c004a-5d5d-412e-b751-34ae0b69e153)" />
  <path
     d="m 11.486913,9.932 c 0,0.658 -1.474,1.192 -3.2930002,1.192 -1.819,0 -3.293,-0.539 -3.293,-1.192 0,-0.653 1.475,-1.2 3.293,-1.2 1.8180002,0 3.2930002,0.534 3.2930002,1.193"
     fill="#e8e8e8"
     id="path13573" />
  <path
     d="m 10.717913,9.832 c 0,0.419 -1.1300002,0.759 -2.5240002,0.759 -1.394,0 -2.524,-0.342 -2.524,-0.759 0,-0.417 1.13,-0.76 2.524,-0.76 1.394,0 2.5240002,0.34 2.5240002,0.758"
     fill="#50e6ff"
     id="path13575" />
  <path
     d="m 8.1939128,10.005 a 6.083,6.083 0 0 0 -2,0.288 5.9,5.9 0 0 0 2,0.3 5.9,5.9 0 0 0 2.0000002,-0.3 6.083,6.083 0 0 0 -2.0000002,-0.288 z"
     fill="#198ab3"
     id="path13577" />
  <path
     d="M 10.195913,14.332 V 12.596 H 9.7179128 v 2.122 H 10.981913 V 14.332 Z M 6.5299128,13.475 a 1.026,1.026 0 0 1 -0.264,-0.159 0.223,0.223 0 0 1 -0.065,-0.165 0.186,0.186 0 0 1 0.08,-0.156 0.364,0.364 0 0 1 0.217,-0.059 0.841,0.841 0 0 1 0.489,0.148 v -0.442 a 1.408,1.408 0 0 0 -0.515,-0.082 0.86,0.86 0 0 0 -0.559,0.172 0.56,0.56 0 0 0 -0.212,0.458 0.7,0.7 0 0 0 0.485,0.621 1.433,1.433 0 0 1 0.317,0.184 0.22,0.22 0 0 1 0.077,0.167 0.182,0.182 0 0 1 -0.081,0.157 0.384,0.384 0 0 1 -0.228,0.06 0.854,0.854 0 0 1 -0.561,-0.217 v 0.474 a 1.146,1.146 0 0 0 0.549,0.118 0.975,0.975 0 0 0 0.605,-0.165 0.553,0.553 0 0 0 0.219,-0.468 0.523,0.523 0 0 0 -0.126,-0.361 1.286,1.286 0 0 0 -0.427,-0.285 z m 2.663,0.817 a 1.316,1.316 0 0 0 0.043,-1.214 0.925,0.925 0 0 0 -0.36,-0.384 1.032,1.032 0 0 0 -0.524,-0.135 1.106,1.106 0 0 0 -0.557,0.14 0.954,0.954 0 0 0 -0.377,0.4 1.249,1.249 0 0 0 -0.134,0.588 1.178,1.178 0 0 0 0.124,0.54 0.936,0.936 0 0 0 0.349,0.381 1.022,1.022 0 0 0 0.51,0.149 l 0.44,0.494 h 0.623 l -0.615,-0.57 a 0.906,0.906 0 0 0 0.481,-0.389 z m -0.478,-0.13 a 0.476,0.476 0 0 1 -0.392,0.18 0.468,0.468 0 0 1 -0.389,-0.186 0.909,0.909 0 0 1 0,-1 0.483,0.483 0 0 1 0.4,-0.188 0.449,0.449 0 0 1 0.384,0.187 0.831,0.831 0 0 1 0.14,0.51 0.756,0.756 0 0 1 -0.14,0.497 z"
     fill="url(#b1836271-e91b-48db-815f-ae9f59b03dcf)"
     id="path13579"
     style="fill:url(#b1836271-e91b-48db-815f-ae9f59b03dcf)" />
</svg>
