<?xml version="1.0" encoding="UTF-8" standalone="no"?>
<svg
   xmlns:dc="http://purl.org/dc/elements/1.1/"
   xmlns:cc="http://creativecommons.org/ns#"
   xmlns:rdf="http://www.w3.org/1999/02/22-rdf-syntax-ns#"
   xmlns:svg="http://www.w3.org/2000/svg"
   xmlns="http://www.w3.org/2000/svg"
   xmlns:sodipodi="http://sodipodi.sourceforge.net/DTD/sodipodi-0.dtd"
   xmlns:inkscape="http://www.inkscape.org/namespaces/inkscape"
   id="f2f5701e-cb3b-4d6f-b407-5866ec5b7784"
   width="15.7"
   height="18"
   viewBox="0 0 15.7 18"
   version="1.1"
   sodipodi:docname="Azure_Synapse_Analytics.svg"
   inkscape:version="0.92.3 (2405546, 2018-03-11)">
  <sodipodi:namedview
     pagecolor="#ffffff"
     bordercolor="#666666"
     borderopacity="1"
     objecttolerance="10"
     gridtolerance="10"
     guidetolerance="10"
     inkscape:pageopacity="0"
     inkscape:pageshadow="2"
     inkscape:window-width="1920"
     inkscape:window-height="1017"
     id="namedview12804"
     showgrid="false"
     fit-margin-top="0"
     fit-margin-left="0"
     fit-margin-right="0"
     fit-margin-bottom="0"
     inkscape:zoom="48.111111"
     inkscape:cx="7.85"
     inkscape:cy="9"
     inkscape:window-x="-8"
     inkscape:window-y="-8"
     inkscape:window-maximized="1"
     inkscape:current-layer="f2f5701e-cb3b-4d6f-b407-5866ec5b7784" />
  <defs
     id="defs12791">
    <linearGradient
       id="a891901b-79ae-490a-8568-9c4334417d35"
       x1="9"
       y1="5.3800001"
       x2="9"
       gradientUnits="userSpaceOnUse"
       gradientTransform="translate(1.15)">
      <stop
         offset="0.199"
         stop-color="#005ba1"
         id="stop12761" />
      <stop
         offset="1"
         stop-color="#0078d4"
         id="stop12763" />
    </linearGradient>
    <linearGradient
       id="bbdaa009-2281-4da8-9e89-6f41689e91a7"
       x1="9"
       y1="12.713"
       x2="9"
       y2="5.2870002"
       gradientUnits="userSpaceOnUse">
      <stop
         offset="0"
         stop-color="#198ab3"
         id="stop12766" />
      <stop
         offset="0.172"
         stop-color="#32bedd"
         id="stop12768" />
      <stop
         offset="0.5"
         stop-color="#50e6ff"
         id="stop12770" />
      <stop
         offset="0.5"
         stop-color="#4fe4fd"
         id="stop12772" />
      <stop
         offset="0.5"
         stop-color="#4bddf8"
         id="stop12774" />
      <stop
         offset="0.5"
         stop-color="#44d2ee"
         id="stop12776" />
      <stop
         offset="0.5"
         stop-color="#3ac1e0"
         id="stop12778" />
      <stop
         offset="0.5"
         stop-color="#2dabce"
         id="stop12780" />
      <stop
         offset="0.5"
         stop-color="#1d90b8"
         id="stop12782" />
      <stop
         offset="0.5"
         stop-color="#198ab3"
         id="stop12784" />
      <stop
         offset="0.662"
         stop-color="#32bedd"
         id="stop12786" />
      <stop
         offset="0.975"
         stop-color="#50e6ff"
         id="stop12788" />
    </linearGradient>
  </defs>
  <path
     d="M 7.85,0 0,4.49 v 8.97 L 7.85,18 15.7,13.51 v -9 z m 6.4,12.57 -6.4,3.7 -6.4,-3.661 V 5.38 l 6.4,-3.7 6.4,3.71 z"
     id="path12793"
     inkscape:connector-curvature="0"
     style="fill:#0078d4" />
  <polygon
     points="1.15,4.49 2.6,5.38 9,1.68 9,1.68 15.4,5.38 16.85,4.49 9,0 "
     id="polygon12795"
     style="fill:url(#a891901b-79ae-490a-8568-9c4334417d35)"
     transform="translate(-1.15)" />
  <path
     d="M 11.59,10.475 A 0.73,0.73 0 0 0 11.267,10.189 5.835,5.835 0 0 0 6.789,6.843 L 13.266,3.1 11.76,2.236 4.384,6.5 A 0.75,0.75 0 0 0 4.76,7.9 0.684,0.684 0 0 0 4.85,7.877 L 4.975,8.4 a 4.319,4.319 0 0 1 4.837,2.238 l -7.349,4.247 1.5,0.866 7.353,-4.251 a 0.729,0.729 0 0 0 0.242,-0.236 l 0.075,-0.018 C 11.626,11.217 11.615,11.191 11.608,11.162 A 0.735,0.735 0 0 0 11.59,10.475 Z"
     id="path12797"
     inkscape:connector-curvature="0"
     style="fill:#50e6ff" />
  <path
     d="m 10.941,9.013 a 1.85,1.85 0 1 0 1.85,1.85 1.85,1.85 0 0 0 -1.85,-1.85 z M 4.759,5.267 a 1.85,1.85 0 1 0 1.85,1.85 1.85,1.85 0 0 0 -1.85,-1.85 z"
     id="path12799"
     inkscape:connector-curvature="0"
     style="fill:url(#bbdaa009-2281-4da8-9e89-6f41689e91a7)" />
  <metadata
     id="metadata12801">
    <rdf:RDF>
      <rdf:li>public:true</rdf:li>
      <rdf:li>sdk:false</rdf:li>
      <rdf:li>category: Databases, Analytics</rdf:li>
      <cc:Work
         rdf:about="">
        <dc:format>image/svg+xml</dc:format>
        <dc:type
           rdf:resource="http://purl.org/dc/dcmitype/StillImage" />
        <dc:title></dc:title>
      </cc:Work>
    </rdf:RDF>
  </metadata>
</svg>
