<?xml version="1.0" encoding="UTF-8" standalone="no"?>
<svg
   xmlns:dc="http://purl.org/dc/elements/1.1/"
   xmlns:cc="http://creativecommons.org/ns#"
   xmlns:rdf="http://www.w3.org/1999/02/22-rdf-syntax-ns#"
   xmlns:svg="http://www.w3.org/2000/svg"
   xmlns="http://www.w3.org/2000/svg"
   xmlns:sodipodi="http://sodipodi.sourceforge.net/DTD/sodipodi-0.dtd"
   xmlns:inkscape="http://www.inkscape.org/namespaces/inkscape"
   id="a5c93a83-9fd9-4ccb-ba77-53d6c609a7d3"
   width="17.000092"
   height="16.782612"
   viewBox="0 0 17.000092 16.782612"
   version="1.1"
   sodipodi:docname="SQL_Managed_Instance.svg"
   inkscape:version="0.92.3 (2405546, 2018-03-11)">
  <sodipodi:namedview
     pagecolor="#ffffff"
     bordercolor="#666666"
     borderopacity="1"
     objecttolerance="10"
     gridtolerance="10"
     guidetolerance="10"
     inkscape:pageopacity="0"
     inkscape:pageshadow="2"
     inkscape:window-width="1920"
     inkscape:window-height="1017"
     id="namedview15645"
     showgrid="false"
     fit-margin-top="0"
     fit-margin-left="0"
     fit-margin-right="0"
     fit-margin-bottom="0"
     inkscape:zoom="48.111111"
     inkscape:cx="8.5000909"
     inkscape:cy="8.3925211"
     inkscape:window-x="-8"
     inkscape:window-y="-8"
     inkscape:window-maximized="1"
     inkscape:current-layer="a5c93a83-9fd9-4ccb-ba77-53d6c609a7d3" />
  <defs
     id="defs15624">
    <linearGradient
       id="acf2da4b-8aca-4b58-b995-ca6956cf663e"
       x1="5.4099998"
       y1="17.33"
       x2="5.4099998"
       y2="0.61000001"
       gradientUnits="userSpaceOnUse">
      <stop
         offset="0"
         stop-color="#949494"
         id="stop15606" />
      <stop
         offset="0.53"
         stop-color="#a2a2a2"
         id="stop15608" />
      <stop
         offset="1"
         stop-color="#b3b3b3"
         id="stop15610" />
    </linearGradient>
    <linearGradient
       id="b152b416-25c2-4a4a-9d7f-a0bb2a13f84a"
       x1="10.04"
       y1="17.389999"
       x2="10.04"
       y2="6.8200002"
       gradientUnits="userSpaceOnUse">
      <stop
         offset="0"
         stop-color="#0078d4"
         id="stop15613" />
      <stop
         offset="0.16"
         stop-color="#1380da"
         id="stop15615" />
      <stop
         offset="0.53"
         stop-color="#3c91e5"
         id="stop15617" />
      <stop
         offset="0.82"
         stop-color="#559cec"
         id="stop15619" />
      <stop
         offset="1"
         stop-color="#5ea0ef"
         id="stop15621" />
    </linearGradient>
  </defs>
  <title
     id="title15626">Icon-databases-136</title>
  <path
     d="m 9.8200909,16.150091 a 0.58,0.58 0 0 1 -0.57,0.57 H 0.57009092 a 0.57,0.57 0 0 1 -0.569999995878,-0.57 V 0.57009092 A 0.56,0.56 0 0 1 0.57009092,9.0924122e-5 H 9.2500909 a 0.57,0.57 0 0 1 0.57,0.569999995878 z"
     id="path15628"
     inkscape:connector-curvature="0"
     style="fill:url(#acf2da4b-8aca-4b58-b995-ca6956cf663e)" />
  <path
     d="m 1.4400909,5.8600909 a 1.07,1.07 0 0 1 1.06,-1.06 h 4.9 a 1.07,1.07 0 0 1 1.1,1.06 v 0 a 1.07,1.07 0 0 1 -1.1,1.07 h -4.9 a 1.07,1.07 0 0 1 -1.06,-1.07 z"
     id="path15630"
     inkscape:connector-curvature="0"
     style="fill:#003067" />
  <path
     d="m 1.4400909,2.7000909 a 1.07,1.07 0 0 1 1.06,-1.07 h 4.9 a 1.07,1.07 0 0 1 1.1,1.07 v 0 a 1.07,1.07 0 0 1 -1.1,1.06 h -4.9 a 1.07,1.07 0 0 1 -1.06,-1.06 z"
     id="path15632"
     inkscape:connector-curvature="0"
     style="fill:#003067" />
  <circle
     cx="2.5600908"
     cy="2.7000909"
     r="0.72000003"
     id="circle15634"
     style="fill:#50e6ff" />
  <circle
     cx="2.5600908"
     cy="5.8600907"
     r="0.72000003"
     id="circle15636"
     style="fill:#50e6ff" />
  <path
     d="m 17.000091,13.470091 a 3.36,3.36 0 0 0 -2.91,-3.22 4.22,4.22 0 0 0 -4.3500001,-4.0000001 4.32,4.32 0 0 0 -4.14,2.78 4,4 0 0 0 -3.52,3.8500001 4.06,4.06 0 0 0 4.2,3.9 h 0.37 6.8500001 0.17 a 3.39,3.39 0 0 0 3.33,-3.31 z"
     id="path15638"
     inkscape:connector-curvature="0"
     style="fill:url(#b152b416-25c2-4a4a-9d7f-a0bb2a13f84a)" />
  <path
     d="m 13.110091,13.840091 v -3.36 h -0.93 v 4.12 h 2.45 v -0.76 z m -7.1000001,-1.65 a 2.23,2.23 0 0 1 -0.51,-0.31 0.44,0.44 0 0 1 -0.12,-0.32 0.34,0.34 0 0 1 0.15,-0.3 0.66,0.66 0 0 1 0.42,-0.12 1.66,1.66 0 0 1 1,0.29 v -0.86 a 2.89,2.89 0 0 0 -1,-0.15 1.69,1.69 0 0 0 -1.09,0.33 1.1,1.1 0 0 0 -0.41,0.89 1.34,1.34 0 0 0 0.94,1.2 2.51,2.51 0 0 1 0.61,0.36 0.42,0.42 0 0 1 0.15,0.32 0.34,0.34 0 0 1 -0.15,0.3 0.75,0.75 0 0 1 -0.45,0.12 1.63,1.63 0 0 1 -1.08,-0.42 v 0.92 a 2.25,2.25 0 0 0 1.03,0.23 1.91,1.91 0 0 0 1.15,-0.28 1.07,1.07 0 0 0 0.43,-0.91 1,1 0 0 0 -0.25,-0.7 2.36,2.36 0 0 0 -0.82,-0.59 z m 5.1600001,1.58 a 2.37,2.37 0 0 0 0.33,-1.26 2.28,2.28 0 0 0 -0.25,-1.12 1.77,1.77 0 0 0 -0.69,-0.74 1.94,1.94 0 0 0 -1.0600001,-0.26 2.21,2.21 0 0 0 -1,0.29 1.87,1.87 0 0 0 -0.73,0.77 2.52,2.52 0 0 0 -0.27,1.14 2.26,2.26 0 0 0 0.24,1.05 1.87,1.87 0 0 0 0.68,0.74 2,2 0 0 0 1,0.29 l 0.8500001,1 h 1.2 l -1.19,-1.1 a 1.82,1.82 0 0 0 0.89,-0.8 z m -0.93,-0.25 a 0.92,0.92 0 0 1 -0.7600001,0.35 0.91,0.91 0 0 1 -0.75,-0.36 1.5,1.5 0 0 1 -0.28,-1 1.46,1.46 0 0 1 0.29,-1 0.92,0.92 0 0 1 0.77,-0.37 0.86,0.86 0 0 1 0.7400001,0.37 1.54,1.54 0 0 1 0.28,1 1.47,1.47 0 0 1 -0.29,1.01 z"
     id="path15640"
     inkscape:connector-curvature="0"
     style="fill:#f2f2f2" />
  <metadata
     id="metadata15642">
    <rdf:RDF>
      <rdf:li>public:true</rdf:li>
      <rdf:li>sdk:false</rdf:li>
      <rdf:li>category: Databases</rdf:li>
      <cc:Work
         rdf:about="">
        <dc:format>image/svg+xml</dc:format>
        <dc:type
           rdf:resource="http://purl.org/dc/dcmitype/StillImage" />
        <dc:title>Icon-databases-136</dc:title>
      </cc:Work>
    </rdf:RDF>
  </metadata>
</svg>
