<?xml version="1.0" encoding="UTF-8" standalone="no"?>
<svg
   xmlns:dc="http://purl.org/dc/elements/1.1/"
   xmlns:cc="http://creativecommons.org/ns#"
   xmlns:rdf="http://www.w3.org/1999/02/22-rdf-syntax-ns#"
   xmlns:svg="http://www.w3.org/2000/svg"
   xmlns="http://www.w3.org/2000/svg"
   xmlns:sodipodi="http://sodipodi.sourceforge.net/DTD/sodipodi-0.dtd"
   xmlns:inkscape="http://www.inkscape.org/namespaces/inkscape"
   id="a876d441-6985-4b03-ac91-0cfb754233ca"
   width="17"
   height="16.382618"
   viewBox="0 0 17 16.382618"
   version="1.1"
   sodipodi:docname="Virtual_Clusters.svg"
   inkscape:version="0.92.3 (2405546, 2018-03-11)">
  <sodipodi:namedview
     pagecolor="#ffffff"
     bordercolor="#666666"
     borderopacity="1"
     objecttolerance="10"
     gridtolerance="10"
     guidetolerance="10"
     inkscape:pageopacity="0"
     inkscape:pageshadow="2"
     inkscape:window-width="1920"
     inkscape:window-height="1017"
     id="namedview15922"
     showgrid="false"
     fit-margin-top="0"
     fit-margin-left="0"
     fit-margin-right="0"
     fit-margin-bottom="0"
     inkscape:zoom="48.111111"
     inkscape:cx="8.5"
     inkscape:cy="8.1913088"
     inkscape:window-x="-8"
     inkscape:window-y="-8"
     inkscape:window-maximized="1"
     inkscape:current-layer="a876d441-6985-4b03-ac91-0cfb754233ca" />
  <defs
     id="defs15881">
    <linearGradient
       id="ac8ec029-dede-4106-852c-6daca45a4fea"
       x1="5.3499999"
       y1="7.02"
       x2="5.3499999"
       y2="17.190001"
       gradientUnits="userSpaceOnUse"
       gradientTransform="translate(0.5,0.80869121)">
      <stop
         offset="0"
         stop-color="#b3b2b3"
         id="stop15861" />
      <stop
         offset="0.38"
         stop-color="#afaeaf"
         id="stop15863" />
      <stop
         offset="0.76"
         stop-color="#a2a2a2"
         id="stop15865" />
      <stop
         offset="1"
         stop-color="#979797"
         id="stop15867" />
    </linearGradient>
    <linearGradient
       id="b524cf9e-cab2-4314-a18d-cd0ba7515d77"
       x1="11.33"
       y1="15.74"
       x2="11.33"
       y2="6.9899998"
       gradientUnits="userSpaceOnUse"
       gradientTransform="translate(0.5,0.80869121)">
      <stop
         offset="0"
         stop-color="#0078d4"
         id="stop15870" />
      <stop
         offset="0.16"
         stop-color="#1380da"
         id="stop15872" />
      <stop
         offset="0.53"
         stop-color="#3c91e5"
         id="stop15874" />
      <stop
         offset="0.82"
         stop-color="#559cec"
         id="stop15876" />
      <stop
         offset="1"
         stop-color="#5ea0ef"
         id="stop15878" />
    </linearGradient>
  </defs>
  <title
     id="title15883">Icon-databases-127</title>
  <g
     id="g15917"
     transform="translate(-0.5,-0.80869121)">
    <path
       d="M 7.77,10.68 A 0.39,0.39 0 0 1 7.35,11.02 H 0.92 A 0.39,0.39 0 0 1 0.5,10.68 V 1.2 A 0.39,0.39 0 0 1 0.92,0.86 H 7.35 A 0.39,0.39 0 0 1 7.77,1.2 Z"
       id="path15885"
       inkscape:connector-curvature="0"
       style="fill:#949494" />
    <path
       d="M 1.57,5.2 A 0.79,0.79 0 0 1 2.36,4.41 H 6 A 0.79,0.79 0 0 1 6.79,5.2 v 0 A 0.79,0.79 0 0 1 6,6 H 2.36 A 0.79,0.79 0 0 1 1.57,5.21 Z"
       id="path15887"
       inkscape:connector-curvature="0"
       style="fill:#003067" />
    <path
       d="M 1.57,2.86 A 0.79,0.79 0 0 1 2.36,2.06 H 6 a 0.79,0.79 0 0 1 0.79,0.8 v 0 A 0.79,0.79 0 0 1 6,3.65 H 2.36 A 0.79,0.79 0 0 1 1.57,2.86 Z"
       id="path15889"
       inkscape:connector-curvature="0"
       style="fill:#003067" />
    <circle
       cx="2.3900001"
       cy="2.8599999"
       r="0.52999997"
       id="circle15891"
       style="fill:#50e6ff" />
    <circle
       cx="2.3900001"
       cy="5.1999998"
       r="0.52999997"
       id="circle15893"
       style="fill:#50e6ff" />
    <path
       d="m 15.79,10.63 a 0.39,0.39 0 0 1 -0.42,0.35 H 8.94 A 0.39,0.39 0 0 1 8.52,10.63 V 1.16 A 0.39,0.39 0 0 1 8.94,0.81 h 6.43 a 0.39,0.39 0 0 1 0.42,0.35 z"
       id="path15895"
       inkscape:connector-curvature="0"
       style="fill:#949494" />
    <path
       d="M 9.59,5.16 A 0.79,0.79 0 0 1 10.38,4.37 H 14 a 0.79,0.79 0 0 1 0.79,0.79 v 0 A 0.79,0.79 0 0 1 14,6 H 10.38 A 0.79,0.79 0 0 1 9.59,5.21 Z"
       id="path15897"
       inkscape:connector-curvature="0"
       style="fill:#003067" />
    <path
       d="M 9.59,2.81 A 0.79,0.79 0 0 1 10.38,2 H 14 a 0.8,0.8 0 0 1 0.79,0.79 v 0 A 0.79,0.79 0 0 1 14,3.6 H 10.38 A 0.79,0.79 0 0 1 9.59,2.81 Z"
       id="path15899"
       inkscape:connector-curvature="0"
       style="fill:#003067" />
    <circle
       cx="10.41"
       cy="2.8099999"
       r="0.52999997"
       id="circle15901"
       style="fill:#50e6ff" />
    <circle
       cx="10.41"
       cy="5.1599998"
       r="0.52999997"
       id="circle15903"
       style="fill:#50e6ff" />
    <path
       d="M 9,16.84 A 0.39,0.39 0 0 1 8.58,17.19 H 2.14 A 0.39,0.39 0 0 1 1.72,16.84 V 7.37 A 0.39,0.39 0 0 1 2.14,7 H 8.57 A 0.39,0.39 0 0 1 9,7.37 Z"
       id="path15905"
       inkscape:connector-curvature="0"
       style="fill:url(#ac8ec029-dede-4106-852c-6daca45a4fea)" />
    <path
       d="M 2.79,11.37 A 0.79,0.79 0 0 1 3.58,10.58 H 7.2 a 0.79,0.79 0 0 1 0.79,0.79 H 8 A 0.8,0.8 0 0 1 7.21,12.16 H 3.58 A 0.79,0.79 0 0 1 2.79,11.37 Z"
       id="path15907"
       inkscape:connector-curvature="0"
       style="fill:#003067" />
    <path
       d="M 2.79,9 A 0.79,0.79 0 0 1 3.58,8.21 H 7.2 A 0.79,0.79 0 0 1 8,9 V 9 A 0.8,0.8 0 0 1 7.21,9.79 H 3.58 A 0.79,0.79 0 0 1 2.79,9 Z"
       id="path15909"
       inkscape:connector-curvature="0"
       style="fill:#003067" />
    <circle
       cx="3.6099999"
       cy="9.0200005"
       r="0.52999997"
       id="circle15911"
       style="fill:#50e6ff" />
    <circle
       cx="3.6099999"
       cy="11.37"
       r="0.52999997"
       id="circle15913"
       style="fill:#50e6ff" />
    <path
       d="M 17.5,13 A 2.77,2.77 0 0 0 15.09,10.34 3.49,3.49 0 0 0 11.5,7 3.58,3.58 0 0 0 8.07,9.33 3.31,3.31 0 0 0 5.16,12.51 3.37,3.37 0 0 0 8.64,15.74 h 5.93 a 0.4,0.4 0 0 0 0.15,0 A 2.8,2.8 0 0 0 17.5,13 Z"
       id="path15915"
       inkscape:connector-curvature="0"
       style="fill:url(#b524cf9e-cab2-4314-a18d-cd0ba7515d77)" />
  </g>
  <metadata
     id="metadata15919">
    <rdf:RDF>
      <rdf:li>public:true</rdf:li>
      <rdf:li>sdk:false</rdf:li>
      <rdf:li>category: Databases</rdf:li>
      <cc:Work
         rdf:about="">
        <dc:format>image/svg+xml</dc:format>
        <dc:type
           rdf:resource="http://purl.org/dc/dcmitype/StillImage" />
        <dc:title>Icon-databases-127</dc:title>
      </cc:Work>
    </rdf:RDF>
  </metadata>
</svg>
