<svg xmlns="http://www.w3.org/2000/svg" viewBox="0 0 70.175 100.05"><style><![CDATA[.g{fill:none}.h{stroke:#231f20}.i{stroke-width:.259}.j{fill:#231f20}.k{stroke-width:.386}.l{stroke-linejoin:round}.m{stroke-linecap:round}.n{fill:#fefefe}.o{fill:#fff100}.p{fill:#faaf3f}.q{fill:#8cc63f}.r{fill:#27a9e0}.s{fill:#eb008b}.t{stroke-width:.504}]]></style><g stroke="#626366" stroke-width="3.375" class="g l"><path d="M41.77 92.853l13.17-6.992.003 3.71-13.17 6.993z"/><path d="M8.137 72.645l13.17-6.99L54.94 85.86l-13.17 6.992z"/><path d="M41.77 92.853l.002 3.7-33.633-20.2-.002-3.708z"/></g><path d="M41.77 92.853l13.17-6.992.003 3.71-13.17 6.993z" fill="#898b8e"/><path d="M8.137 72.645l13.17-6.99L54.94 85.86l-13.17 6.992z" fill="#bbbdbf"/><path d="M41.77 92.853l.002 3.7-33.633-20.2-.002-3.708z" fill="#b3b5b7"/><g class="g l"><path d="M8.41 72.682L41.49 92.558v3.605" stroke="#e1e2e3" stroke-width="1.125" class="m"/><g stroke="#626366" stroke-width="3.002"><path d="M62.8 41.43l5.833-3.096.042 57.117-5.836 3.098z"/><path d="M1.5 4.6L7.336 1.5l61.296 36.833L62.8 41.43z"/><path d="M62.8 41.43l.04 57.12L1.54 61.717 1.5 4.6z"/></g></g><path d="M62.797 41.43l5.835-3.096.04 57.117-5.834 3.098z" fill="#898b8e"/><path d="M1.5 4.6L7.334 1.5l61.298 36.833-5.835 3.096z" fill="#bbbdbf"/><path d="M62.797 41.43l.04 57.12L1.54 61.717 1.5 4.6z" fill="#b3b5b7"/><path d="M59.59 92.13L3.724 58.153V9.88L59.59 43.853z" class="n"/><path d="M38.863 34.4l18.54 11.14.103 10.367s-.33-7.435-5.842-12.092C44.628 37.867 38.863 34.4 38.863 34.4" fill="#c4cace"/><g class="g"><path d="M2.216,62.896l60.616,36.422" stroke="#636466" stroke-width="1.301"/><path d="M2.018 4.8l60.758 36.508.04 56.765" stroke="#e1e2e3" class="l m"/></g><defs><filter id="A" filterUnits="userSpaceOnUse" x="68.667" y="76.61" width="1.451" height="15.008"><feColorMatrix values="1 0 0 0 0 0 1 0 0 0 0 0 1 0 0 0 0 0 1 0"/></filter></defs><mask maskUnits="userSpaceOnUse" x="68.667" y="76.61" width="1.451" height="15.008" id="B"><g filter="url(#A)"><path d="M69.393 76.6h.78v15.008h-.78z" fill="#fff"/></g></mask><path d="M69.393 76.6v15.008" mask="url(#B)" stroke="#636466" stroke-width="1.451" class="g"/><path d="M60.917 94.875L1.823 60.026V8.15L60.917 43z" class="n"/><path d="M60.917 94.875L1.823 60.026V8.15L60.917 43z" class="g h t"/><path d="M22.045 54.32L1.94 42.464V25.5l20.104 11.855z" class="j"/><path d="M22.045 54.32L1.94 42.464V25.5l20.104 11.855z" class="g h k"/><path d="M11.692 40.222c0 1.858-1.973 2.202-4.405.767s-4.404-4.104-4.404-5.96 1.973-2.2 4.404-.767 4.405 4.103 4.405 5.96" fill="#00a550"/><path d="M11.692 40.222c0 1.858-1.973 2.202-4.405.767s-4.404-4.104-4.404-5.96 1.973-2.2 4.404-.767 4.405 4.103 4.405 5.96z" class="g h i"/><path d="M20.125 48.947c0-.928-.545-2.002-1.217-2.4l-8.247-4.864c-.673-.396-1.22.035-1.22.963s.546 2.005 1.22 2.4l8.247 4.863c.672.397 1.217-.034 1.217-.964" fill="#00adee"/><path d="M20.125 48.947c0-.928-.545-2.002-1.217-2.4l-8.247-4.864c-.673-.396-1.22.035-1.22.963s.546 2.005 1.22 2.4l8.247 4.863c.672.397 1.217-.034 1.217-.964z" class="g h i"/><path d="M15.628 45.13l-3.746-1.012-2.625-5.43 1.124-4.416 3.746 1.013 2.624 5.428z" class="o"/><path d="M15.628 45.13l-3.746-1.012-2.625-5.43 1.124-4.416 3.746 1.013 2.624 5.428z" class="g h i"/><path d="M22.045 71.578L1.94 59.722V42.76l20.104 11.855z" class="j"/><path d="M22.045 71.578L1.94 59.722V42.76l20.104 11.855z" class="g h k"/><path d="M11.692 57.48c0 1.858-1.973 2.202-4.405.767s-4.404-4.103-4.404-5.962 1.973-2.2 4.404-.766 4.405 4.103 4.405 5.96" class="p"/><path d="M11.692 57.48c0 1.858-1.973 2.202-4.405.767s-4.404-4.103-4.404-5.962 1.973-2.2 4.404-.766 4.405 4.103 4.405 5.96z" class="g h i"/><path d="M20.964 67.085c0-.93-.546-2.003-1.22-2.4L11.5 59.822c-.672-.397-1.218.034-1.218.963s.546 2.004 1.218 2.4l8.246 4.862c.673.397 1.22-.034 1.22-.963" class="q"/><path d="M20.964 67.085c0-.93-.546-2.003-1.22-2.4L11.5 59.822c-.672-.397-1.218.034-1.218.963s.546 2.004 1.218 2.4l8.246 4.862c.673.397 1.22-.034 1.22-.963z" class="g h i"/><path d="M15.628 62.39l-3.746-1.012-2.625-5.43 1.124-4.417 3.746 1.014 2.624 5.428z" fill="#d0d2d3"/><path d="M15.628 62.39l-3.746-1.012-2.625-5.43 1.124-4.417 3.746 1.014 2.624 5.428z" class="g h i"/><path d="M22.045 37.05L1.94 25.194V8.232l20.104 11.855z" class="j"/><path d="M22.045 37.05L1.94 25.194V8.232l20.104 11.855z" class="g h k"/><path d="M11.692 22.952c0 1.86-1.973 2.2-4.405.767s-4.404-4.103-4.404-5.96 1.973-2.2 4.404-.767 4.405 4.105 4.405 5.96" class="r"/><path d="M11.692 22.952c0 1.86-1.973 2.2-4.405.767s-4.404-4.103-4.404-5.96 1.973-2.2 4.404-.767 4.405 4.105 4.405 5.96z" class="g h i"/><path d="M20.125 31.68c0-.928-.546-2.004-1.217-2.4l-8.247-4.864c-.673-.397-1.22.035-1.22.964s.546 2.004 1.22 2.4l8.247 4.863c.672.396 1.217-.035 1.217-.964" class="s"/><path d="M20.125 31.68c0-.928-.546-2.004-1.217-2.4l-8.247-4.864c-.673-.397-1.22.035-1.22.964s.546 2.004 1.22 2.4l8.247 4.863c.672.396 1.217-.035 1.217-.964z" class="g h i"/><path d="M15.628 27.862l-3.746-1.013-2.625-5.428 1.124-4.416 3.746 1.012 2.624 5.43z" fill="#2b388f"/><path d="M15.628 27.862l-3.746-1.013-2.625-5.428 1.124-4.416 3.746 1.012 2.624 5.43z" class="g h i"/><path d="M41.854 66.39L21.75 54.535V37.572L41.854 49.43z" class="j"/><path d="M41.854 66.39L21.75 54.535V37.572L41.854 49.43z" class="g h k"/><path d="M31.502 52.294c0 1.857-1.972 2.2-4.405.766s-4.403-4.103-4.403-5.96 1.973-2.2 4.403-.767 4.405 4.104 4.405 5.962" class="o"/><path d="M31.502 52.294c0 1.857-1.972 2.2-4.405.766s-4.403-4.103-4.403-5.96 1.973-2.2 4.403-.767 4.405 4.104 4.405 5.962z" class="g h i"/><path d="M39.936 61.02c0-.93-.545-2.003-1.218-2.4l-8.247-4.863c-.672-.397-1.218.034-1.218.963s.546 2.004 1.218 2.4l8.247 4.862c.673.397 1.218-.033 1.218-.963" class="s"/><path d="M39.936 61.02c0-.93-.545-2.003-1.218-2.4l-8.247-4.863c-.672-.397-1.218.034-1.218.963s.546 2.004 1.218 2.4l8.247 4.862c.673.397 1.218-.033 1.218-.963z" class="g h i"/><path d="M35.438 57.2L31.69 56.19l-2.624-5.428 1.123-4.416 3.747 1.012 2.624 5.43z" class="q"/><path d="M35.438 57.2L31.69 56.19l-2.624-5.428 1.123-4.416 3.747 1.012 2.624 5.43z" class="g h i"/><path d="M41.854 83.65L21.75 71.794V54.83l20.104 11.856z" class="j"/><path d="M41.854 83.65L21.75 71.794V54.83l20.104 11.856z" class="g h k"/><path d="M31.502 69.552c0 1.858-1.972 2.202-4.405.767s-4.403-4.103-4.403-5.96 1.973-2.202 4.403-.767 4.405 4.103 4.405 5.96" class="p"/><path d="M31.502 69.552c0 1.858-1.972 2.202-4.405.767s-4.403-4.103-4.403-5.96 1.973-2.202 4.403-.767 4.405 4.103 4.405 5.96z" class="g h i"/><path d="M40.773 79.157c0-.93-.546-2.003-1.218-2.4l-8.247-4.863c-.672-.397-1.218.034-1.218.963s.546 2.004 1.218 2.4l8.247 4.862c.672.397 1.218-.034 1.218-.963" fill="#00a550"/><path d="M40.773 79.157c0-.93-.546-2.003-1.218-2.4l-8.247-4.863c-.672-.397-1.218.034-1.218.963s.546 2.004 1.218 2.4l8.247 4.862c.672.397 1.218-.034 1.218-.963z" class="g h i"/><path d="M35.438 74.46l-3.747-1.013-2.624-5.428 1.123-4.416 3.747 1.013 2.624 5.428z" class="s"/><path d="M35.438 74.46l-3.747-1.013-2.624-5.428 1.123-4.416 3.747 1.013 2.624 5.428z" class="g h i"/><path d="M41.854 49.122L21.75 37.266v-16.96L41.854 32.16z" class="j"/><path d="M41.854 49.122L21.75 37.266v-16.96L41.854 32.16z" class="g h k"/><path d="M31.502 35.025c0 1.857-1.972 2.2-4.405.766s-4.403-4.103-4.403-5.96 1.973-2.2 4.403-.766 4.405 4.103 4.405 5.96" class="p"/><path d="M31.502 35.025c0 1.857-1.972 2.2-4.405.766s-4.403-4.103-4.403-5.96 1.973-2.2 4.403-.766 4.405 4.103 4.405 5.96z" class="g h i"/><path d="M39.936 43.75c0-.93-.546-2.003-1.218-2.4l-8.247-4.863c-.672-.397-1.218.034-1.218.963s.546 2.003 1.218 2.4l8.247 4.862c.672.397 1.218-.034 1.218-.963" class="r"/><path d="M39.936 43.75c0-.93-.546-2.003-1.218-2.4l-8.247-4.863c-.672-.397-1.218.034-1.218.963s.546 2.003 1.218 2.4l8.247 4.862c.672.397 1.218-.034 1.218-.963z" class="g h i"/><path d="M35.438 39.933L31.69 38.92l-2.624-5.43 1.123-4.416 3.747 1.013 2.624 5.428z" fill="#652c90"/><path d="M35.438 39.933L31.69 38.92l-2.624-5.43 1.123-4.416 3.747 1.013 2.624 5.428z" class="g h i"/><path d="M60.922 77.46L40.818 65.605V48.642l20.104 11.856z" class="j"/><path d="M60.922 77.46L40.818 65.605V48.642l20.104 11.856z" class="g h k"/><path d="M50.57 63.363c0 1.857-1.97 2.2-4.403.766s-4.405-4.102-4.405-5.96 1.972-2.202 4.405-.767 4.403 4.103 4.403 5.96" class="n"/><path d="M50.57 63.363c0 1.857-1.97 2.2-4.403.766s-4.405-4.102-4.405-5.96 1.972-2.202 4.405-.767 4.403 4.103 4.403 5.96z" class="g h i"/><path d="M59.005 72.088c0-.928-.546-2.002-1.218-2.4l-8.247-4.863c-.673-.398-1.218.034-1.218.962s.545 2.004 1.218 2.402l8.247 4.862c.672.397 1.218-.035 1.218-.964" class="q"/><path d="M59.005 72.088c0-.928-.546-2.002-1.218-2.4l-8.247-4.863c-.673-.398-1.218.034-1.218.962s.545 2.004 1.218 2.402l8.247 4.862c.672.397 1.218-.035 1.218-.964z" class="g h i"/><path d="M54.506 68.27L50.76 67.26l-2.625-5.43 1.124-4.417 3.747 1.014 2.624 5.43z" fill="#f6931d"/><path d="M54.506 68.27L50.76 67.26l-2.625-5.43 1.124-4.417 3.747 1.014 2.624 5.43z" class="g h i"/><path d="M60.922 94.72L40.818 82.864V65.9l20.104 11.856z" class="j"/><path d="M60.922 94.72L40.818 82.864V65.9l20.104 11.856z" class="g h k"/><path d="M50.57 80.62c0 1.858-1.97 2.202-4.403.767s-4.405-4.103-4.405-5.96 1.972-2.202 4.405-.767 4.403 4.103 4.403 5.96" fill="#ec1d24"/><path d="M50.57 80.62c0 1.858-1.97 2.202-4.403.767s-4.405-4.103-4.405-5.96 1.972-2.202 4.405-.767 4.403 4.103 4.403 5.96z" class="g h i"/><path d="M59.842 90.226c0-.93-.546-2.003-1.217-2.4l-8.248-4.863c-.672-.397-1.218.034-1.218.963s.546 2.004 1.218 2.4l8.248 4.864c.67.396 1.217-.035 1.217-.964" fill="#f6931d"/><path d="M59.842 90.226c0-.93-.546-2.003-1.217-2.4l-8.248-4.863c-.672-.397-1.218.034-1.218.963s.546 2.004 1.218 2.4l8.248 4.864c.67.396 1.217-.035 1.217-.964z" class="g h i"/><path d="M54.506 85.53l-3.746-1.012-2.625-5.43 1.124-4.416 3.747 1.013 2.624 5.43z" class="r"/><path d="M54.506 85.53l-3.746-1.012-2.625-5.43 1.124-4.416 3.747 1.013 2.624 5.43z" class="g h i"/><path d="M60.922 60.19L40.818 48.335V31.373L60.922 43.23z" class="j"/><path d="M60.922 60.19L40.818 48.335V31.373L60.922 43.23z" class="g h k"/><path d="M50.57 46.094c0 1.857-1.97 2.202-4.403.767s-4.405-4.103-4.405-5.96 1.972-2.2 4.405-.767 4.403 4.103 4.403 5.96" class="o"/><path d="M50.57 46.094c0 1.857-1.97 2.202-4.403.767s-4.405-4.103-4.405-5.96 1.972-2.2 4.405-.767 4.403 4.103 4.403 5.96z" class="g h i"/><path d="M59.005 54.82c0-.928-.546-2.004-1.218-2.4l-8.247-4.864c-.673-.397-1.218.036-1.218.964s.545 2.004 1.218 2.4l8.247 4.863c.672.397 1.218-.034 1.218-.964" fill="#91278f"/><path d="M59.005 54.82c0-.928-.546-2.004-1.218-2.4l-8.247-4.864c-.673-.397-1.218.036-1.218.964s.545 2.004 1.218 2.4l8.247 4.863c.672.397 1.218-.034 1.218-.964z" class="g h i"/><path d="M54.506 51.003L50.76 50l-2.625-5.43 1.124-4.416 3.747 1.013 2.624 5.428z" fill="#ec1d24"/><g class="g"><path d="M54.506 51.003L50.76 50l-2.625-5.43 1.124-4.416 3.747 1.013 2.624 5.428z" class="h i"/><g class="m"><path d="M21.702 19.754v52.683m19.434-41.54v52.682" stroke="#fefefe" class="t"/><path d="M1.482 25.678l59.952 35.355m-59.94-17.98L61.45 78.407" stroke="#fefefe" stroke-width=".507"/></g></g></svg>