<svg xmlns="http://www.w3.org/2000/svg" viewBox="0 0 149.215 107.9"><g fill="none" stroke="#58585b" stroke-width="1.226" stroke-linejoin="round"><path d="M96.738 85.89l51.85-27.52.013 21.396-51.85 27.52z"/><path d="M.613 28.134L52.463.613 148.59 58.37 96.738 85.89z"/><path d="M96.738 85.89l.015 21.396L.63 49.53.613 28.134z"/></g><path d="M97.02 85.89l.014 21.396 51.85-27.52-.015-21.398z" fill="#231f20"/><path d="M.896 28.134L97.02 85.89l51.85-27.52L52.746.613z" fill="#626366"/><path d="M.9 49.53l96.125 57.756-.014-21.396L.896 28.134z" fill="#404042"/><path d="M.756 27.907L96.88 86.143m0 .107v20.173" fill="none" stroke="#dfdfde" stroke-width=".285" stroke-linecap="round"/><path d="M46.22 66.402l-7.427-4.45v-5.835l7.427 4.45zM21.974 51.7l-7.28-4.362v-5.834l7.28 4.362zM74.77 84.965c0 .16-.113.226-.253.143l-5.524-3.3c-.14-.083-.252-.283-.252-.445v-6.88c0-.162.113-.226.252-.143l5.524 3.3c.14.083.253.283.253.445v6.88zm8.896 5.33c0 .162-.113.226-.252.143l-5.525-3.3c-.14-.083-.252-.283-.252-.445v-6.88c0-.16.113-.226.252-.143l5.525 3.3c.14.083.252.283.252.445v6.88zm9.118-.458c0 1.456-1.116 1.968-2.5 1.144s-2.492-2.674-2.492-4.13 1.116-1.968 2.492-1.144 2.5 2.674 2.5 4.13" fill="#e5e6e7"/><path d="M91.964 89.347c0 .978-.748 1.32-1.67.768s-1.672-1.794-1.672-2.77.748-1.32 1.672-.768 1.67 1.794 1.67 2.77" fill="#6c6e70"/><path d="M10.017 39.542c0 1.456-1.115 1.968-2.49 1.144s-2.49-2.674-2.49-4.13 1.115-1.968 2.49-1.144 2.49 2.674 2.49 4.13" fill="#e5e6e7"/><path d="M9.198 39.05c0 .978-.75 1.32-1.672.768s-1.672-1.794-1.672-2.77.748-1.32 1.672-.768 1.672 1.794 1.672 2.77" fill="#58585b"/><path d="M5.94 49.178c0 .728-.558.983-1.245.57S3.45 48.412 3.45 47.685s.557-.984 1.246-.57S5.94 48.45 5.94 49.178M37.18 68.5c0 .728-.558.983-1.245.57S34.7 67.734 34.7 67.007s.557-.984 1.246-.57S37.18 67.77 37.18 68.5m19.026 11.606c0 .728-.558.983-1.245.57s-1.246-1.336-1.246-2.064.557-.984 1.246-.57 1.245 1.336 1.245 2.064m37.21 21.8c0 .728-.558.983-1.246.57s-1.245-1.337-1.245-2.064.557-.984 1.245-.57 1.246 1.335 1.246 2.064" fill="#e5e6e7"/><path d="M54.33 68.37l-1.995-1.197v-2.326l1.995 1.198zm-.046 3.508l-1.992-1.196v-2.325l1.992 1.195zm-3.714-5.764l-1.996-1.2V62.6l1.996 1.197zm-.045 3.504l-2-1.196v-2.324l2 1.194zm1.328-50.998l-5.405-3.263-4.893 2.713 5.27 3.18-.788.437-5.27-3.18-4.965 2.752 5.54 3.343-.8.438-6.438-3.886 12.223-6.776 6.303 3.804zm-.406 3.676l2.134 1.288-.7.388-2.134-1.288-4.785 2.652c-1.38.766-1.866 1.054-.747 1.73.458.276.783.4 1.782.62l-.824.457c-.243-.042-.585-.147-.962-.27-.36-.134-.754-.288-1.026-.452-.847-.512-1.26-1.342-.04-2.018l5.8-3.2-2.05-1.237.7-.388 2.05 1.238 1.917-1.064 1.3-.08.255.154-2.67 1.48zm2.74 3.272l.035.02c1.84-.197 2.966-.015 4.067.65 1.627.982 1.7 2.334-.452 3.526l-4.928 2.733-.813-.5 4.6-2.543c1.738-.964 2.167-1.9.7-2.8-1.118-.674-2.37-.766-4.2-.55l-5.646 3.13-.814-.492 12.224-6.776.813.5-5.574 3.1zm10.934 8.488c1.3-1.048 1.246-1.967-.06-2.754-1.253-.757-3.114-.863-4.872-.222l4.93 2.976zm-5.73-2.65c-2.3 1-2.333 2.804-.605 3.847 1.017.614 2.205.916 4.03 1.042l-.967.536c-1.633-.134-2.906-.508-4.007-1.172-2.202-1.33-2.002-3.285.488-4.666 2.366-1.312 5.562-1.375 7.577-.16 1.627.982 2.17 2.7-.517 4.192l-5.998-3.62zm14.206 6.107c-.03-.827-.188-1.172-.6-1.428-.746-.45-2.435-.514-4.752-.2l-5.055 2.803-.812-.492 8.047-4.46.813.5-2.115 1.173.034.02c2.404-.293 4.1-.168 4.936.344.526.317.748.742.795 1.58l-1.28.16zm14.604 6.2c-.72-1.307-1.768-2.375-3.2-3.234-3.135-1.892-6.28-1.424-8.1-.42-2.17 1.202-1.993 2.967.396 4.4.7.43 1.14.604 2.345.918l1.434-.795-1.678-1.013 2.24-1.242 4.558 2.75-5 2.772c-1.815.005-4.648-.896-6.512-2.02-4.033-2.434-4.298-5.604-.642-7.63 3.73-2.066 9.138-1.77 13.256.716 1.728 1.043 2.993 2.284 3.553 3.308l-2.67 1.48zm3.896 4.095l1.524.92c.797.48 1.935.753 2.975.177.914-.507.82-1.104-.264-1.758l-1.457-.88-2.778 1.54zm7.306-1.4c2.372 1.43 2.093 3.214.265 4.227-1.344.745-3.008.903-4.975.463.56 1.064-.6 2.113-2.55 5.082l-3.17-1.912c1.38-2.197 3.27-3.775 1.712-4.716l-.83-.502-4.965 2.753L82 50.064l12.224-6.777 5.168 3.12zM96.2 58.633l-2.88-1.738 12.224-6.777 2.88 1.74zm7.506 1.937l1.88 1.136c2.896 1.748 5.84 1.118 7.634.124 2.096-1.162 2.802-2.8.075-4.438l-1.847-1.115-7.743 4.293zm12.204-4.194c4.22 2.546 3.6 5.395.258 7.253-3.513 1.948-8.195 2.1-12.804-.67l-4.778-2.884L110.82 53.3l5.1 3.078z" fill="#fefefe"/></svg>