<svg xmlns="http://www.w3.org/2000/svg" viewBox="0 0 84.724 66.274"><g fill="none" stroke="#626366" stroke-width="3" stroke-linecap="round" stroke-linejoin="round"><path d="M61.808 2.204c.7-.368 1.365-.586 1.994-.67m0 .001c.572-.073 1.1-.032 1.594.1l14.386 8.52"/><path d="M79.783 10.167l-14.387-8.52c.26.078.504.184.733.32l14.386 8.52a3.19 3.19 0 0 0-.732-.319"/><path d="M61.808 2.204c1.654-.88 3.2-.908 4.32-.238l14.387 8.52c-1.13-.67-2.666-.642-4.32.238M25.105 64.3L10.72 55.8a3.14 3.14 0 0 1-.93-.83l14.385 8.52a3.36 3.36 0 0 0 .932.83m-.933-.84L9.788 54.96c-.277-.358-.5-.787-.658-1.28l14.386 8.52a4.23 4.23 0 0 0 .658 1.281M9.13 53.68a5.83 5.83 0 0 1-.26-1.404"/><path d="M8.87 52.275l-.002-.066m0 .001l-.846-14.785m5.434-9.51L61.8 2.205M8.022 37.424a8.39 8.39 0 0 1 .033-1.252"/><path d="M8.055 36.172a9.13 9.13 0 0 1 .156-.979m.001 0c.096-.445.223-.892.383-1.332m-.001-.001c.406-1.144 1.012-2.25 1.758-3.227m0 .002c.7-.926 1.545-1.734 2.46-2.338m.001 0l.643-.383"/><path d="M8.022 37.424c-.2-3.55 2.23-7.807 5.434-9.5m62.74-17.2c3.2-1.703 5.97-.2 6.174 3.34l.844 14.785c.2 3.55-2.237 7.8-5.442 9.513l-48.35 25.7c-3.206 1.704-5.965.208-6.168-3.342"/></g><path d="M76.195 10.722l-14.387-8.52c.692-.368 1.366-.587 1.994-.668l14.387 8.52c-.63.08-1.303.3-1.994.667" fill="#a6a8ab"/><path d="M78.19 10.056l-14.387-8.52a3.86 3.86 0 0 1 1.594.111l14.387 8.52c-.485-.144-1.022-.185-1.594-.1" fill="#808184"/><path d="M79.783 10.166l-14.387-8.52c.26.078.504.184.733.32l14.386 8.52a3.15 3.15 0 0 0-.732-.319" fill="#90989e"/><path d="M25.105 64.308l-14.386-8.52a3.3 3.3 0 0 1-.931-.829l14.385 8.52c.266.343.58.62.932.83" fill="#8c9499"/><path d="M24.174 63.478L9.788 54.96c-.277-.358-.5-.788-.658-1.28l14.386 8.52c.16.494.383.922.658 1.28" fill="#8e969c"/><path d="M23.515 62.2L9.13 53.68c-.136-.42-.224-.9-.26-1.405l14.388 8.52a5.91 5.91 0 0 0 .258 1.404" fill="#b3b5b7"/><path d="M23.258 60.795L8.87 52.274l-.002-.065 14.386 8.52.004.066" fill="#939ba0"/><path d="M23.254 60.728l-14.386-8.52-.845-14.786 14.387 8.52z" fill="#b3b5b7"/><path d="M27.844 36.433l-14.388-8.52L61.81 2.204l14.387 8.52z" fill="#231f20"/><path d="M22.4 45.942l-14.388-8.52c-.02-.4-.01-.83.034-1.252l14.387 8.52a7.76 7.76 0 0 0-.033 1.253" fill="#b3b5b7"/><path d="M22.443 44.69L8.055 36.17a9 9 0 0 1 .157-.976L22.6 43.7a8.69 8.69 0 0 0-.156.979" fill="#b1b7bc"/><path d="M22.6 43.71L8.21 35.193a10.25 10.25 0 0 1 .383-1.333l14.388 8.52a10.27 10.27 0 0 0-.383 1.331" fill="#a6a8ab"/><path d="M22.982 42.38L8.594 33.86a11.97 11.97 0 0 1 1.758-3.226l14.388 8.52c-.748.975-1.352 2.082-1.758 3.226" fill="#c8cdd0"/><path d="M24.74 39.154l-14.388-8.52c.71-.926 1.545-1.734 2.46-2.336l14.386 8.52c-.914.604-1.752 1.4-2.46 2.338" fill="#939597"/><path d="M27.2 36.816l-14.386-8.52.643-.383 14.388 8.52c-.22.115-.434.245-.645.384" fill="#6c6e70"/><path d="M76.195 10.722c3.2-1.703 5.97-.21 6.174 3.34l.844 14.785c.2 3.552-2.237 7.8-5.442 9.515l-48.35 25.707c-3.206 1.705-5.965.21-6.168-3.34L22.4 45.942c-.2-3.55 2.23-7.808 5.433-9.5l48.352-25.7z" fill="#898b8e"/><g fill="none" stroke-linecap="round" stroke-linejoin="round"><path d="M26.263 64.906c-1.5-.248-2.623-1.422-2.934-3.305m56.41-51.267a3.26 3.26 0 0 1 1.725 1.182" stroke="#babcbc" stroke-width=".75"/><path d="M23.33 61.6l-.076-.69-.844-14.786c-.2-3.55 2.23-7.807 5.434-9.5l48.35-25.7c1.3-.69 2.53-.857 3.543-.57" stroke="#dfe0df" stroke-width=".75"/></g><path d="M37.476 44.427l-3.037 1.64v-2.4c0-.694-.03-1.112-.097-1.248s-.2-.146-.43-.026c-.25.134-.4.325-.476.57s-.102.718-.102 1.414v6.385c0 .667.033 1.084.102 1.252s.22.188.454.06c.226-.12.374-.303.443-.546s.105-.74.105-1.494v-1.727l3.037-1.64v.536c0 1.423-.086 2.478-.257 3.165s-.547 1.413-1.132 2.175a6.7 6.7 0 0 1-2.16 1.838c-.888.48-1.624.688-2.2.62s-.96-.386-1.147-.956-.28-1.527-.28-2.875v-4.016l.086-2.276c.058-.525.23-1.094.516-1.708s.682-1.188 1.2-1.725a6.95 6.95 0 0 1 1.749-1.339c.896-.482 1.634-.678 2.215-.585s.965.394 1.148.903.274 1.406.274 2.688v1.306zm4.73.3l-.463-5.523-.583 6.087 1.046-.564zm1.6-9.708l1.736 12.808-3.103 1.676-.162-2.382-1.087.586-.183 2.57-3.14 1.695 1.55-14.582 4.4-2.37zm11.622-6.273V42.5l-2.655 1.434-.003-9.28-1.058 9.85-1.883 1.017-1.115-8.467-.002 9.07-2.655 1.432V33.803l3.93-2.12.8 6 .7-6.795 3.95-2.132zm1.22-.66l5.064-2.733v2.75l-2.027 1.094v2.607l1.9-1.024v2.615l-1.9 1.024v3.022l2.23-1.203v2.75l-5.266 2.843zm9.177-2.6v3.057c.34-.185.58-.37.72-.554s.205-.58.205-1.185v-.755c0-.436-.068-.687-.2-.75s-.374-.001-.725.188zm-3.037-.713l2.15-1.16c1.433-.773 2.404-1.232 2.9-1.376s.92-.034 1.24.327.48 1.13.48 2.3c0 1.07-.112 1.85-.338 2.34s-.67.948-1.335 1.382c.6-.15 1.005-.133 1.2.05s.337.385.387.602.075.884.075 1.993v3.627l-2.82 1.522V31.81c0-.736-.05-1.166-.15-1.287s-.357-.07-.775.155v6.198l-3.037 1.64V24.772zm11.596 2.578l-.462-5.524-.583 6.088 1.045-.564zm1.6-9.708l1.738 12.8-3.104 1.675-.163-2.382-1.087.586-.18 2.57-3.14 1.694 1.55-14.58 4.388-2.37z" fill="#fefefe"/><g fill="none" stroke="#636466"><path d="M15.286 59.07l-2.27 1.164c-.376.188-1.722.815-2.985.302-7.11-2.884-9.28-12.005-8.316-14.89.234-.702.63-1.78 1.34-2.448.405-.382 2.8-1.642 4.563-2.547" stroke-width="3"/><path d="M3.022 43.246c.406-.382 2.79-1.642 4.563-2.547l1.965-.98c.65-.264 1.76-.566 3.668.07 1.072.358 3.556 2.08 5.065 4.63 1.322 2.233 2.816 4.863 2.55 9.256-.123 1.99-1.074 2.75-1.2 2.9-.324.38-2.57 1.6-4.38 2.543l-2.27 1.164c-.375.188-1.723.815-2.984.302C2.89 57.7.72 48.58 1.68 45.694c.235-.702.63-1.78 1.34-2.448z" stroke-width="2"/></g><path d="M3.652 42.846l5.832-3.095c.58-.308 1.258-.437 2.003-.367L5.655 42.48c-.745-.07-1.422.06-2.003.367" fill="#a6a8ab"/><path d="M5.655 42.48l5.832-3.095c.45.04.928.156 1.423.346l-5.832 3.095c-.495-.2-.972-.304-1.423-.346" fill="#bbbdbf"/><path d="M7.078 42.825L12.9 39.73a7.69 7.69 0 0 1 1.196.591l-5.832 3.095c-.408-.245-.807-.442-1.196-.59" fill="#d0d2d3"/><path d="M8.275 44.47c3.253 1.955 5.898 6.73 5.9 10.65s-2.637 5.52-5.89 3.566-5.9-6.73-5.902-10.65 2.638-5.52 5.892-3.566" fill="#626466"/><path d="M8.274 43.417l5.832-3.095.176.108-5.832 3.095-.176-.108" fill="#d0d2d3"/><path d="M8.45 43.525l5.832-3.095a10.81 10.81 0 0 1 1.45 1.106L9.9 44.63a10.81 10.81 0 0 0-1.45-1.106" fill="#e5e6e7"/><g fill="#fefefe"><path d="M9.9 44.632l5.832-3.095c.484.435.948.92 1.386 1.447l-5.832 3.095c-.438-.526-.902-1.012-1.386-1.447"/><path d="M11.286 46.078l5.832-3.095a17.3 17.3 0 0 1 2.713 4.578L14 50.657a17.29 17.29 0 0 0-2.713-4.579"/><path d="M14 50.657l5.832-3.095a15.89 15.89 0 0 1 .559 1.642L14.558 52.3a15.89 15.89 0 0 0-.559-1.642"/></g><path d="M14.557 52.3l5.832-3.095a13.59 13.59 0 0 1 .382 1.806l-5.832 3.095a13.59 13.59 0 0 0-.382-1.806" fill="#e5e6e7"/><path d="M14.94 54.105L20.77 51a11.18 11.18 0 0 1 .112 1.543l-.001.172-5.832 3.095v-.172a11.18 11.18 0 0 0-.112-1.543" fill="#d0d2d3"/><path d="M15.05 55.82l5.832-3.095c-.01.608-.077 1.165-.194 1.668l-5.832 3.095c.117-.503.183-1.06.194-1.668" fill="#bbbdbf"/><path d="M14.856 57.49l5.832-3.095c-.317 1.362-1.005 2.327-1.942 2.824l-5.832 3.096c.937-.498 1.625-1.463 1.942-2.825" fill="#a6a8ab"/><path d="M8.285 58.688c3.254 1.955 5.895.356 5.892-3.566s-2.65-8.696-5.902-10.65-5.894-.356-5.89 3.566 2.648 8.696 5.9 10.65m-.01-15.27c3.734 2.243 6.775 7.73 6.778 12.23s-3.032 6.338-6.766 4.095-6.768-7.727-6.772-12.228 3.027-6.342 6.76-4.098" fill="#999b9d"/><path d="M11.73 50.248c1.32 2.83 1.007 5.773-.704 6.57s-4.168-.847-5.49-3.68-1.007-5.773.704-6.572 4.168.848 5.49 3.68" fill="#e1e2e3"/><path d="M35.964 22.33l.785-.4c.698-.357.576-.977-.7-1.784-1.234-.773-2.284-1.04-3.167-.6l-.735.375 3.828 2.4zM28.5 19.66l3.088-1.578c1.8-.915 4.3-.044 6.18 1.14 2.6 1.636 2.677 2.946 1 3.797l-.943.482 5.027 3.15-1.765.902-12.598-7.89zm20.13 2.2c1.042-.532-.073-1.427-3.46-3.55-3.368-2.1-4.846-2.84-5.9-2.3s.094 1.44 3.462 3.55c3.388 2.123 4.846 2.842 5.888 2.3M37.4 14.82c2.648-1.352 5.696.18 9.525 2.58s6.2 4.27 3.564 5.623-5.694-.182-9.523-2.58-6.213-4.27-3.566-5.622m9.162-4.39l2.08 1.305-3.123 1.596 2.962 1.857 2.94-1.503L53.515 15l-2.94 1.502 3.386 2.123 3.248-1.66 2.08 1.304-5.014 2.56-12.593-7.892z" fill="#fefefe"/></svg>