<svg xmlns="http://www.w3.org/2000/svg" xmlns:xlink="http://www.w3.org/1999/xlink" viewBox="0 0 113.141 119.688"><style><![CDATA[.b{fill:#fefefe}.c{fill:#626366}.d{fill:#231f20}.e{stroke:#626366}.f{stroke-width:3}.g{stroke-linecap:round}.h{fill:none}.i{stroke-linejoin:round}.j{fill:#898b8e}.k{fill:#b3b5b7}.l{stroke:#e1e2e3}.m{fill:#bbbdbf}.n{fill:#939ba0}]]></style><g class="e f h i"><path d="M55.976 108.797l41.454-22 .006 9.39-41.454 22z"/><path d="M1.5 76.07l41.454-22 54.476 32.73-41.454 22z"/><path d="M55.976 108.797l.006 9.4L1.506 85.46l-.006-9.4zm9.004-3.83l46.653-24.764.01 12.092L65 117.06z"/><path d="M4.39 68.562l46.653-24.765 60.588 36.406-46.653 24.763z"/><path d="M64.98 104.966l.01 12.093L4.4 80.654l-.01-12.092z"/></g><path d="M65.034 105.018l46.653-24.764.01 12.092-46.653 24.765z" class="j"/><path d="M4.39 68.562l46.653-24.765 60.588 36.406-46.653 24.763z" class="m"/><path d="M64.98 104.966l.01 12.093L4.4 80.654l-.01-12.092z" class="k"/><g class="h i"><g class="g"><path d="M4.63 68.9L64.727 105l.004 11.518" class="l"/><g class="e"><path d="M6.673 73.213l55.5 33.348-.066 9.366"/><g class="f"><path d="M46.996 2.714l2.188-1.16c.097-.053.216-.067.348-.04l-2.187 1.16a.51.51 0 0 0-.349.04"/><path d="M47.345 2.674l2.187-1.16c.094.02.196.06.3.124l-2.186 1.16a1 1 0 0 0-.302-.124"/></g></g></g><path d="M46.995 2.714l2.188-1.16c.168-.1.396-.068.65.084l-2.187 1.16c-.253-.153-.48-.174-.65-.084z" class="e f"/><path d="M61.454 19.58l2.188-1.16c0 .33-.116.556-.3.654l-2.187 1.16c.185-.097.3-.325.3-.653" class="e f g"/><path d="M63.34 19.074l-2.187 1.16c.185-.098.3-.325.3-.653l2.188-1.16c0 .33-.115.555-.3.654zM47.647 2.798l2.187-1.16L62.686 9.36 60.5 10.52z" class="e f"/><path d="M61.45 12.235l2.187-1.16.005 7.346-2.187 1.16z" class="e f"/><g class="g e f"><path d="M60.5 10.52l2.187-1.16.04.025-2.187 1.16-.04-.025"/><path d="M60.54 10.546l2.187-1.16a1.63 1.63 0 0 1 .338.295l-2.187 1.16a1.72 1.72 0 0 0-.338-.296"/><path d="M60.877 10.84l2.187-1.16a2.11 2.11 0 0 1 .181.234l-2.186 1.16a2.5 2.5 0 0 0-.182-.233m.183.234l2.187-1.16c.067.098.126.204.18.312l-2.187 1.16a2.61 2.61 0 0 0-.179-.313"/><path d="M61.238 11.388l2.188-1.16c.13.274.21.572.21.847l-2.186 1.16c0-.276-.08-.573-.21-.847"/></g><path d="M60.5 10.52l2.187-1.16a2.2 2.2 0 0 1 .949 1.714l-2.187 1.16c-.001-.64-.426-1.4-.95-1.715z" class="e f"/><use xlink:href="#B" class="e f"/><path d="M55.144 45.85c.348.198.055.436-.655.53s-1.568.013-1.916-.185-.055-.436.655-.532 1.567-.01 1.916.186z" class="e f"/><path d="M52.487 13.407c0-.146.295-.287.802-.355.7-.096 1.567-.013 1.916.185l-.06 32.612c-.348-.197-1.206-.28-1.916-.185-.507.068-.802.21-.802.356l.06-32.613z" class="e f"/></g><path d="M55.144 45.85c.348.198.055.436-.655.53s-1.568.013-1.916-.185-.055-.436.655-.532 1.567-.01 1.916.186" fill="#9fa2a4"/><path d="M52.426 46.02l.06-32.613c0 .06.046.12.146.175.18.102.49.173.85.206l-.06 32.612c-.358-.032-.67-.104-.85-.205-.1-.057-.146-.116-.146-.175" fill="#9d9fa2"/><path d="M53.422 46.4l.06-32.612a4.99 4.99 0 0 0 .705.012l-.06 32.614c-.238.01-.48.007-.705-.014" fill="#a8aaac"/><path d="M54.127 46.414l.06-32.613.36-.033.274-.048-.06 32.612c-.082.02-.175.035-.275.05l-.36.033" fill="#b2b4b7"/><path d="M54.763 46.332l.06-32.612c.23-.052.393-.122.472-.2l-.06 32.614c-.08.076-.242.146-.473.198" fill="#a8aaac"/><path d="M55.236 46.133l.06-32.613c.036-.034.054-.072.054-.11l-.06 32.614c0 .036-.02.073-.055.108" fill="#9d9fa2"/><path d="M46.996 2.714l2.188-1.16c.097-.053.216-.067.348-.04l-2.187 1.16a.51.51 0 0 0-.349.04" class="n"/><path d="M47.345 2.674l2.187-1.16c.094.02.196.06.3.124l-2.186 1.16a1 1 0 0 0-.302-.124" fill="#a4acb1"/><path d="M61.454 19.58l2.188-1.16c0 .33-.116.556-.3.654l-2.187 1.16c.185-.097.3-.325.3-.653" fill="#8c9499"/><path d="M47.647 2.798l2.187-1.16L62.686 9.36 60.5 10.52z" class="m"/><path d="M61.45 12.235l2.187-1.16.005 7.346-2.187 1.16z" class="j"/><path d="M60.5 10.52l2.187-1.16.04.025-2.187 1.16-.04-.025" fill="#a4acb1"/><path d="M60.54 10.546l2.187-1.16a1.63 1.63 0 0 1 .338.295l-2.187 1.16a1.72 1.72 0 0 0-.338-.296" class="n"/><path d="M60.877 10.84l2.187-1.16a2.11 2.11 0 0 1 .181.234l-2.186 1.16c-.057-.083-.118-.16-.182-.233" fill="#90989e"/><path d="M61.06 11.075l2.187-1.16c.067.098.126.204.18.312l-2.187 1.16a2.61 2.61 0 0 0-.179-.313" fill="#8e969c"/><path d="M61.238 11.388l2.188-1.16c.13.274.21.572.21.847l-2.186 1.16c0-.276-.08-.573-.21-.847" class="j"/><use xlink:href="#B" class="k"/><path d="M59.12 10.595c.413.25.75.85.752 1.354l.003 5.8c0 .5-.336.703-.75.455l-10.17-6.1a1.76 1.76 0 0 1-.75-1.355l-.002-5.81c-.001-.505.334-.702.75-.455l10.168 6.1z" class="b"/><g class="e f h i"><g class="g"><path d="M60.368 48.69l-12.562-7.44 12.58 7.43"/><use xlink:href="#C"/></g><path d="M48.467 41.215l12.562 7.438c-.173-.102-.41-.098-.662.038l-12.56-7.44c.253-.135.488-.14.66-.036z"/><use xlink:href="#D" class="g"/><path d="M45.02 66.832l-12.562-7.438c-.162-.097-.27-.288-.285-.552l12.562 7.438c.015.265.123.455.285.552z"/><path d="M44.734 66.28l-12.562-7.438-.457-8.02 12.56 7.438zm.37-9.473l-12.562-7.44 15.265-8.117 12.562 7.44z"/><g class="g"><path d="M44.276 58.26l-12.56-7.438-.002-.08 12.562 7.44a1.04 1.04 0 0 0 .001.079"/><use xlink:href="#E"/></g><path d="M44.276 58.26l-12.56-7.438c-.03-.546.34-1.198.827-1.456l12.56 7.44c-.485.258-.857.91-.827 1.454z"/><use xlink:href="#F"/></g><path d="M60.368 48.692l-12.562-7.44 12.58 7.43" fill="#b8bdc1"/><g class="n"><use xlink:href="#C" y="0.001"/><use xlink:href="#D" y="0.001"/></g><path d="M44.734 66.28l-12.562-7.438-.457-8.02 12.56 7.438z" class="k"/><path d="M45.103 56.808L32.54 49.37l15.265-8.117 12.562 7.44z" class="m"/><path d="M44.276 58.262l-12.56-7.438-.002-.08 12.562 7.44a1.04 1.04 0 0 0 .001.079" class="n"/><use xlink:href="#E" y="0.001" fill="#e1e2e3"/><use xlink:href="#F" y="0.002" class="j"/><path d="M36.413 48.334l1.304-.692 10.77 6.472-1.303.692z" fill="#626466"/><path d="M48.175 50.647l.755-.127-.818 3.445-.755.127z" fill="#adafb2"/><path d="M38.538 44.81l.755-.127 9.638 5.838-.756.127z" fill="#dddedf"/><path d="M48.175 50.647l-.818 3.445-9.638-5.838.818-3.445z" class="b"/><g class="e f h i"><path d="M93.767 46.707l6.648-3.528.022 34.1-6.648 3.528z"/><path d="M59.98 26.406l6.65-3.528 33.787 20.3-6.65 3.53z"/><path d="M93.767 46.707l.022 34.1-33.785-20.3-.024-34.092z"/></g><g class="c"><path d="M81.9 69.91l2.07-1.1.003 8.928-2.07 1.1z"/><path d="M81.9 69.91l.003 8.928-13.185-7.924-.005-8.927z"/></g><path d="M93.767 46.707l6.648-3.528.022 34.1-6.648 3.528z" class="j"/><path d="M59.98 26.406l6.65-3.528 33.787 20.3-6.65 3.53z" class="m"/><path d="M93.767 46.707l.022 34.1-33.785-20.3-.024-34.092z" class="k"/><path d="M90.677 73.692l-27.8-16.705v-24.64l27.8 16.704z" class="b"/><g class="h i"><path d="M90.677 73.692l-27.8-16.705v-24.64l27.8 16.704z" class="e"/><path d="M60.416 26.724l33.19 19.942v33.58" class="g l"/></g><path d="M92.15 77.11c0 .592-.478.785-1.065.43s-1.06-1.118-1.06-1.71.478-.77 1.06-.42 1.065 1.108 1.065 1.697" class="c"/><path d="M16.85 68.164l43.856 26.354.003 1.926" class="g h i l"/><path d="M56.002 109.913l42.282-22.44.006 8.512-42.282 22.44z" class="j"/><path d="M.44 76.53L42.72 54.09l55.564 33.38-42.283 22.44z" fill="#a9abae"/><path d="M56.002 109.913l.006 8.512L.444 85.043.44 76.53z" class="k"/><path d="M2.447 76.562l40.636-21.565L96.48 87.08l-40.635 21.566z" class="c"/><path d="M44.7 102.397l14.578-7.738 1.005.603-14.58 7.74zm-11.208-6.34l14.578-7.738 1.005.603-14.58 7.74zm-10.432-6.6l14.578-7.738 1.005.603-14.58 7.74zm-11.568-6.9l14.578-7.738 1.005.603-14.58 7.74z" fill="#a9abae"/><path d="M50.354 104.3l14.58-7.74 5.778 3.472-14.58 7.74zM39.52 97.88l14.58-7.74 5.778 3.472-14.58 7.74zm-10.762-6.525l14.58-7.74 5.778 3.472-14.58 7.74zm-10.804-6.43l14.58-7.74 5.778 3.472-14.58 7.74z" fill="#d2d4d5"/><path d="M1.423 76.512l54.43 32.705.004 8.596" class="g h i l"/><path d="M55.573 109.487l.006 8.66L.9 85.3.885 76.63z" class="k"/><g fill="#d2d4d5"><use xlink:href="#G"/><use xlink:href="#G" x="3.168" y="2.332"/><use xlink:href="#G" x="3.335" y="0.5"/></g><g class="h i"><path d="M44.643 57.112l.483 9.208" class="g l"/><g class="e f"><path d="M60.577 94.93l14.58-7.74.002 2.644-14.578 7.74z"/><path d="M16.137 68.226l14.58-7.738L75.157 87.2l-14.58 7.74z"/><path d="M60.577 94.93l.003 2.644L16.14 70.87l-.001-2.644z"/></g></g><path d="M60.577 94.93l14.58-7.74.002 2.644-14.578 7.74z" class="j"/><path d="M16.137 68.226l14.58-7.738L75.157 87.2l-14.58 7.74z" class="m"/><path d="M60.577 94.93l.003 2.644L16.14 70.87l-.001-2.644z" class="k"/><path d="M25.112 67.628l1.563-.83v.303l-1.563.83z" class="d"/><path d="M23.765 66.818l1.562-.83 1.348.81-1.563.83z" class="b"/><path d="M25.112 67.628v.303l-1.347-.8v-.303z" class="c"/><path d="M27.107 68.826l1.562-.83v.304l-1.562.83z" class="d"/><path d="M25.76 68.016l1.563-.83 1.347.81-1.562.83z" class="b"/><path d="M27.107 68.826v.303l-1.348-.8v-.303z" class="c"/><path d="M29.2 70.084l1.562-.83.001.304-1.563.83z" class="d"/><path d="M27.853 69.274l1.563-.83 1.347.81-1.562.83z" class="b"/><path d="M29.2 70.084v.304l-1.348-.81v-.303z" class="c"/><path d="M31.203 71.288l1.56-.83v.303l-1.56.83z" class="d"/><path d="M29.855 70.477l1.563-.83 1.346.808-1.56.832z" class="b"/><path d="M31.203 71.288v.3l-1.35-.808v-.304z" class="c"/><path d="M33.27 72.53l1.563-.83v.303l-1.563.83z" class="d"/><path d="M31.92 71.718l1.563-.83 1.348.81-1.563.83z" class="b"/><path d="M33.27 72.53v.303l-1.348-.8v-.304z" class="c"/><path d="M35.27 73.73l1.563-.83v.303l-1.563.83z" class="d"/><path d="M33.916 72.918l1.562-.83 1.356.814-1.564.83z" class="b"/><path d="M35.27 73.73v.304l-1.354-.815v-.302z" class="c"/><path d="M37.365 75l1.562-.83.001.303-1.563.83z" class="d"/><path d="M36.016 74.18l1.564-.83 1.347.81-1.562.83z" class="b"/><path d="M37.365 75v.302l-1.348-.81-.001-.304z" class="c"/><path d="M39.36 76.187l1.563-.83v.304l-1.563.83z" class="d"/><path d="M38.012 75.38l1.562-.83 1.348.81-1.563.83z" class="b"/><path d="M39.36 76.187v.304l-1.347-.81v-.302z" class="c"/><path d="M41.322 77.367l1.562-.83v.304l-1.562.83z" class="d"/><path d="M39.974 76.558l1.562-.83 1.348.8-1.562.83z" class="b"/><path d="M41.322 77.367v.303l-1.348-.8v-.302z" class="c"/><path d="M43.316 78.566l1.563-.83v.302l-1.563.83z" class="d"/><path d="M41.968 77.755l1.563-.83 1.348.81-1.563.83z" class="b"/><path d="M43.316 78.566v.303l-1.348-.8v-.304z" class="c"/><path d="M45.4 79.823l1.563-.83v.304l-1.563.83z" class="d"/><path d="M44.062 79.014l1.563-.83 1.348.808-1.563.83z" class="b"/><path d="M45.4 79.823v.303l-1.348-.81v-.303z" class="c"/><path d="M47.41 81.026l1.563-.83v.303l-1.563.83z" class="d"/><use xlink:href="#H" class="b"/><path d="M47.41 81.026v.303l-1.348-.8v-.304z" class="c"/><path d="M49.478 82.268l1.563-.83v.302l-1.563.83z" class="d"/><use xlink:href="#H" x="2.066" y="1.245" class="b"/><path d="M49.478 82.268v.304l-1.348-.81v-.303z" class="c"/><path d="M51.434 83.443l1.562-.83.001.302-1.563.83z" class="d"/><path d="M50.085 82.633l1.564-.83 1.346.8-1.56.83z" class="b"/><path d="M51.434 83.443v.304l-1.348-.81-.001-.303z" class="c"/><path d="M27.256 66.42l1.563-.83v.303l-1.563.83z" class="d"/><path d="M25.91 65.612l1.563-.83 1.348.81-1.563.83z" class="b"/><path d="M27.256 66.42v.303l-1.348-.8v-.303z" class="c"/><path d="M29.25 67.62l1.563-.83v.304l-1.563.83z" class="d"/><path d="M27.904 66.8l1.562-.83 1.348.81-1.563.83z" class="b"/><path d="M29.25 67.62v.303l-1.347-.8V66.8z" class="c"/><use xlink:href="#I" class="d"/><path d="M29.998 68.068l1.56-.83 1.348.81-1.56.83z" class="b"/><path d="M31.345 68.878v.304l-1.348-.81v-.303z" class="c"/><path d="M33.346 70.082l1.562-.83.001.303-1.563.83z" class="d"/><path d="M32 69.27l1.562-.83 1.347.808-1.562.832z" class="b"/><path d="M33.346 70.082v.3L32 69.575v-.304z" class="c"/><use xlink:href="#I" x="4.069" y="2.445" class="d"/><path d="M34.066 70.512l1.563-.83 1.347.81-1.562.83z" class="b"/><path d="M35.414 71.323v.303l-1.348-.8v-.304z" class="c"/><path d="M37.415 72.525l1.562-.83V72l-1.562.83z" class="d"/><path d="M36.06 71.712l1.563-.83 1.355.814-1.563.83z" class="b"/><path d="M37.415 72.525v.304l-1.355-.815v-.302z" class="c"/><use xlink:href="#I" x="8.165" y="4.906" class="d"/><path d="M38.16 72.973l1.564-.83 1.346.81-1.56.83z" class="b"/><path d="M39.51 73.784v.302l-1.348-.81v-.304z" class="c"/><path d="M41.503 74.98l1.563-.83v.304l-1.563.83z" class="d"/><path d="M40.156 74.172l1.562-.83 1.35.81-1.563.83z" class="b"/><path d="M41.503 74.98v.304l-1.348-.81v-.302z" class="c"/><path d="M43.465 76.16l1.563-.83v.304l-1.563.83z" class="d"/><use xlink:href="#H" x="-3.946" y="-4.863" class="b"/><path d="M43.465 76.16v.303l-1.348-.8v-.302z" class="c"/><path d="M45.46 77.36l1.562-.83v.302l-1.562.83z" class="d"/><path d="M44.113 76.55l1.562-.83 1.348.81-1.562.83z" class="b"/><path d="M45.46 77.36v.303l-1.348-.8v-.304z" class="c"/><path d="M47.554 78.617l1.562-.83v.304l-1.562.83z" class="d"/><path d="M46.207 77.808l1.563-.83 1.347.808-1.562.83z" class="b"/><path d="M47.554 78.617v.303l-1.348-.8v-.302z" class="c"/><use xlink:href="#I" x="18.211" y="10.942" class="d"/><path d="M48.208 79.01l1.562-.83 1.348.8-1.562.83z" class="b"/><path d="M49.556 79.82v.303l-1.348-.8v-.304z" class="c"/><path d="M51.623 81.062l1.563-.83v.302l-1.563.83z" class="d"/><use xlink:href="#H" x="4.211" y="0.038" class="b"/><path d="M51.623 81.062v.304l-1.348-.81v-.303z" class="c"/><use xlink:href="#I" x="22.233" y="13.359" class="d"/><path d="M52.23 81.427l1.563-.83 1.347.81-1.56.83z" class="b"/><path d="M53.578 82.237v.303l-1.348-.8v-.303z" class="c"/><path d="M29.535 65.214l1.563-.83v.303l-1.563.83z" class="d"/><path d="M28.187 64.406l1.563-.83 1.348.81-1.563.83z" class="b"/><path d="M29.535 65.214v.304l-1.348-.8v-.303z" class="c"/><path d="M31.53 66.414l1.563-.83v.304l-1.563.83z" class="d"/><path d="M30.18 65.604l1.563-.83 1.348.81-1.563.83z" class="b"/><path d="M31.53 66.414v.303l-1.348-.8v-.303z" class="c"/><path d="M33.623 67.67l1.562-.83.001.303-1.563.83z" class="d"/><path d="M32.276 66.862l1.562-.83 1.347.81-1.562.83z" class="b"/><path d="M33.623 67.67v.304l-1.347-.81v-.303z" class="c"/><path d="M35.624 68.876l1.562-.83.001.303-1.563.83z" class="d"/><path d="M34.277 68.065l1.563-.83 1.347.808-1.562.832z" class="b"/><path d="M35.624 68.876v.3l-1.348-.808v-.304z" class="c"/><use xlink:href="#I" x="6.347" y="1.239" class="d"/><path d="M36.344 69.306l1.562-.83 1.348.81-1.562.83z" class="b"/><path d="M37.692 70.117v.303l-1.348-.8v-.304z" class="c"/><path d="M39.693 71.32l1.563-.83v.303l-1.563.83z" class="d"/><path d="M38.338 70.505l1.563-.83 1.355.814-1.564.83z" class="b"/><path d="M39.693 71.32v.304l-1.354-.815v-.302z" class="c"/><path d="M41.788 72.577l1.56-.83v.303l-1.56.83z" class="d"/><path d="M40.44 71.767l1.564-.83 1.346.81-1.56.83z" class="b"/><path d="M41.788 72.577v.303l-1.35-.81-.001-.304z" class="c"/><path d="M43.782 73.775l1.563-.83v.304l-1.563.83z" class="d"/><path d="M42.434 72.966l1.562-.83 1.35.81-1.563.83z" class="b"/><path d="M43.782 73.775v.304l-1.348-.81v-.302z" class="c"/><path d="M45.744 74.955l1.563-.83v.304l-1.563.83z" class="d"/><path d="M44.396 74.145l1.563-.83 1.348.81-1.563.83z" class="b"/><path d="M45.744 74.955v.303l-1.348-.8v-.303z" class="c"/><path d="M47.738 76.154l1.563-.83v.302l-1.563.83z" class="d"/><path d="M46.39 75.343l1.562-.83 1.348.81-1.563.83z" class="b"/><path d="M47.738 76.154v.303l-1.347-.8v-.304z" class="c"/><path d="M49.832 77.41l1.562-.83v.304l-1.562.83z" class="d"/><path d="M48.485 76.602l1.563-.83 1.347.81-1.562.83z" class="b"/><path d="M49.832 77.41v.303l-1.348-.8v-.302z" class="c"/><path d="M51.833 78.614l1.563-.83v.303l-1.563.83z" class="d"/><path d="M50.487 77.803l1.562-.83 1.348.8-1.563.83z" class="b"/><path d="M51.833 78.614v.303l-1.347-.8v-.304z" class="c"/><path d="M53.9 79.856l1.562-.83v.302l-1.562.83z" class="d"/><path d="M52.553 79.046l1.563-.83 1.347.8-1.562.83z" class="b"/><path d="M53.9 79.856v.304l-1.348-.81v-.303z" class="c"/><use xlink:href="#I" x="24.512" y="12.152" class="d"/><path d="M54.508 80.22l1.563-.83 1.347.81-1.56.83z" class="b"/><path d="M55.857 81.03v.303l-1.348-.8-.001-.303z" class="c"/><path d="M23.62 69.425l1.562-.83v.295l-1.562.83z" class="d"/><path d="M22.272 68.616l1.562-.83 1.35.808-1.562.83z" class="b"/><path d="M23.62 69.425v.295l-1.348-.81-.002-.294z" class="c"/><path d="M25.516 70.565l1.563-.83v.294l-1.563.83z" class="d"/><path d="M24.168 69.754l1.563-.83 1.348.81-1.563.83z" class="b"/><path d="M25.516 70.565v.294l-1.348-.8v-.295z" class="c"/><path d="M27.51 71.762l1.562-.83v.295l-1.562.83z" class="d"/><path d="M26.163 70.954l1.563-.83 1.347.8-1.56.83z" class="b"/><path d="M27.51 71.762v.296l-1.348-.81v-.294z" class="c"/><path d="M44.19 81.754l1.563-.83v.295l-1.563.83z" class="d"/><path d="M42.842 80.945l1.563-.83 1.35.808-1.563.83z" class="b"/><path d="M44.19 81.754v.295l-1.348-.81-.001-.294z" class="c"/><path d="M46.087 82.894l1.562-.83v.294l-1.562.83z" class="d"/><path d="M44.74 82.084l1.563-.83 1.347.81-1.562.83z" class="b"/><path d="M46.087 82.894v.294l-1.348-.8v-.295z" class="c"/><path d="M48.082 84.09l1.563-.83v.295l-1.563.83z" class="d"/><use xlink:href="#H" x="0.67" y="3.068" class="b"/><path d="M48.082 84.09v.296l-1.348-.81v-.294z" class="c"/><path d="M42.062 80.517l1.562-.83v.295l-1.562.83z" class="d"/><path d="M28.238 72.21l1.562-.83 13.825 8.307-1.563.83z" class="b"/><path d="M42.062 80.517v.296l-13.824-8.307V72.2z" class="c"/><path d="M59.04 88.094l1.563-.83v.303l-1.563.83z" class="d"/><use xlink:href="#H" x="11.626" y="7.069" class="b"/><path d="M59.04 88.094v.303l-1.348-.8v-.304z" class="c"/><path d="M61.105 89.337l1.563-.83v.302l-1.563.83z" class="d"/><use xlink:href="#H" x="13.693" y="8.312" class="b"/><path d="M61.105 89.337v.304l-1.348-.81v-.303z" class="c"/><path d="M63.06 90.51l1.562-.83.001.302-1.563.83z" class="d"/><path d="M61.712 89.702l1.564-.83 1.346.8-1.56.83z" class="b"/><path d="M63.06 90.51v.304l-1.348-.81-.001-.303z" class="c"/><use xlink:href="#I" x="29.838" y="18.01" class="d"/><path d="M59.835 86.078l1.562-.83 1.348.8-1.562.83z" class="b"/><path d="M61.183 86.888v.303l-1.348-.8v-.304z" class="c"/><path d="M63.25 88.13l1.563-.83v.302l-1.563.83z" class="d"/><use xlink:href="#H" x="15.838" y="7.105" class="b"/><path d="M63.25 88.13v.304l-1.348-.81v-.303z" class="c"/><use xlink:href="#I" x="33.86" y="20.427" class="d"/><path d="M63.857 88.496l1.563-.83 1.347.81-1.56.83z" class="b"/><path d="M65.205 89.305v.303l-1.347-.8-.002-.303z" class="c"/><path d="M63.46 85.682l1.563-.83v.303l-1.563.83z" class="d"/><path d="M62.114 84.872l1.562-.83 1.348.8-1.563.83z" class="b"/><path d="M63.46 85.682v.303l-1.347-.8v-.304z" class="c"/><path d="M65.528 86.924l1.562-.83v.302l-1.562.83z" class="d"/><path d="M64.18 86.115l1.563-.83 1.347.8-1.562.83z" class="b"/><path d="M65.528 86.924v.304l-1.348-.81v-.303z" class="c"/><use xlink:href="#I" x="36.139" y="19.222" class="d"/><path d="M66.135 87.3l1.563-.83 1.347.81-1.56.83z" class="b"/><path d="M67.484 88.1v.303l-1.348-.8-.001-.303z" class="c"/><path d="M54.228 85.142l1.563-.83v.302l-1.563.83z" class="d"/><use xlink:href="#H" x="6.816" y="4.118" class="b"/><path d="M54.228 85.142v.304l-1.348-.81v-.303z" class="c"/><path d="M56.184 86.317l1.562-.83.001.302-1.563.83z" class="d"/><path d="M54.835 85.507l1.564-.83 1.346.8-1.56.83z" class="b"/><path d="M56.184 86.317v.304l-1.348-.81-.001-.303z" class="c"/><path d="M56.373 83.936l1.563-.83v.302l-1.563.83z" class="d"/><use xlink:href="#H" x="8.961" y="2.912" class="b"/><path d="M56.373 83.936v.304l-1.348-.81v-.303z" class="c"/><use xlink:href="#I" x="26.983" y="16.232" class="d"/><path d="M56.98 84.3l1.563-.83 1.347.81-1.56.83z" class="b"/><path d="M58.328 85.11v.303l-1.348-.8V84.3z" class="c"/><path d="M58.65 82.73l1.562-.83v.302l-1.562.83z" class="d"/><path d="M57.303 81.92l1.563-.83 1.347.8-1.562.83z" class="b"/><path d="M58.65 82.73v.304l-1.348-.81v-.303z" class="c"/><use xlink:href="#I" x="29.262" y="15.027" class="d"/><path d="M59.258 83.095l1.563-.83 1.347.81-1.56.83z" class="b"/><path d="M60.607 83.905v.303l-1.348-.8-.001-.303z" class="c"/><path d="M51.993 86.46l1.562-.83.001.304-1.563.83z" class="d"/><path d="M50.645 85.65l1.563-.83 1.347.81-1.562.83z" class="b"/><path d="M51.993 86.46v.304l-1.348-.81v-.303z" class="c"/><g class="g h"><path d="M16.516 69.03l43.856 26.354.003 1.926" class="i l"/><path d="M.798 76.056l5.508-2.93" class="e"/></g><defs ><path id="B" d="M60.5 10.52c.523.314.948 1.076.95 1.715l.005 7.346c.001.63-.424.887-.947.573L47.653 12.43c-.53-.317-.95-1.08-.95-1.714l-.006-7.344c0-.64.42-.893.948-.575L60.5 10.52z"/><path id="C" d="M60.384 48.682l-12.562-7.44c.248-.126.476-.128.645-.028l12.562 7.44c-.17-.1-.398-.1-.645.028"/><path id="D" d="M45.02 66.832l-12.562-7.438c-.162-.097-.27-.288-.285-.552l12.562 7.438c.015.265.123.455.285.552"/><path id="E" d="M44.275 58.182l-12.562-7.438a1.71 1.71 0 0 1 .829-1.376l12.56 7.44c-.462.245-.822.848-.828 1.375"/><path id="F" d="M60.368 48.69c.49-.262.914-.033.945.512l.457 8.018a1.69 1.69 0 0 1-.833 1.459l-15.263 8.116c-.486.258-.91.03-.94-.516l-.458-8.02c-.03-.545.342-1.196.827-1.454l15.265-8.116z"/><path id="G" d="M10.38 77.448c0 .553-.896 1-2 1s-2-.447-2-1 .896-1 2-1 2 .447 2 1"/><path id="H" d="M46.064 80.215l1.563-.83 1.348.8-1.563.83z"/><path id="I" d="M31.345 68.878l1.562-.83v.303l-1.562.83z"/></defs></svg>