<svg xmlns="http://www.w3.org/2000/svg" xmlns:xlink="http://www.w3.org/1999/xlink" viewBox="0 0 92.647 65.448"><g fill="none" stroke="#626366" stroke-width="2.409" stroke-linejoin="round"><use xlink:href="#B"/><path d="M90.92 44.414L53.744 64.148c.32-.17.522-.565.52-1.136L91.44 43.278c0 .572-.2.966-.52 1.136zM2.852 21.17L40.03 1.437l49.756 29.897L52.6 51.067z"/><path d="M91.442 43.28L54.265 63.013l-.007-8.965 37.178-19.734z"/><path d="M52.61 51.068l37.177-19.734c.905.545 1.65 1.888 1.65 2.98l-37.18 19.734c0-1.092-.744-2.436-1.65-2.98z"/><path d="M52.61 51.068c.906.544 1.65 1.888 1.65 2.98l.007 8.965c.001 1.098-.742 1.542-1.647.997L2.862 34.114c-.912-.547-1.65-1.88-1.65-2.98l-.007-8.965c0-1.092.737-1.545 1.648-.997L52.61 51.068z"/></g><path d="M89.785 31.334L52.61 51.067 2.852 21.17 40.03 1.437z" fill="#bbbdbf"/><path d="M91.442 43.28L54.265 63.013l-.007-8.965 37.178-19.734z" fill="#a4a6a9"/><path d="M52.61 51.068c1.65.987 1.65 1.91 1.65 2.98l.007 8.965c.001 1.098-.742 1.542-1.647.997L2.862 34.114c-.912-.547-1.65-1.88-1.65-2.98l-.007-8.965c0-1.092.737-1.545 1.648-.997L52.61 51.068z" fill="#e21b23"/><path d="M52.32 53.557c1.386 1.065 1.712 1.403 1.713 3.525l.005 6.064c.001.88-.497 1.623-1.65.997l-46.73-28.2c-.73-.438-1.32-1.505-1.32-2.384l-.005-7.17c0-.874.6-1.237 1.318-.8l46.67 27.97z" fill="#b3b5b7"/><path d="M27.82 44.72l-11.447-6.878v.017l-8.608-5.17v2.7l11.444 6.876v-.02l8.6 5.174zm22.186 15.764l-2.9-1.753-.006-3.024 2.907 1.752zm-5.824-2.997l-4.2-2.524-.007-4.355 4.183 2.523zM33.36 50.67l-2.9-1.753-.003-3.024 2.905 1.752zM36.938 53l-2.9-1.753-.005-3.024 2.907 1.752z" fill="#fefefe"/><use xlink:href="#B" fill="#bbbdbf"/><path d="M52.608 51.068l37.177-19.734c.905.545 1.65 1.888 1.65 2.98L54.258 54.048c0-1.092-.744-2.436-1.65-2.98zm38.312-6.654L53.745 64.148c.32-.17.522-.565.52-1.136L91.44 43.278c-.001.572-.2.966-.522 1.136z" fill="#a4a6a9"/><path d="M1.205 22.17c-.207-2.126 2.86-.405 2.86-.405L52.853 51.08c-.117-.115.354.212.893.868.52.635.474 1.64.474 1.64l.08 8.716s.247 1.075-.828 1.648" fill="none" stroke="#dfe0df" stroke-width=".637" stroke-linecap="round" stroke-linejoin="round"/><defs ><path id="B" d="M1.725 21.032L38.903 1.3c.295-.157.7-.124 1.127.138L2.852 21.17c-.435-.262-.832-.295-1.127-.14z"/></defs></svg>