<svg xmlns="http://www.w3.org/2000/svg" xmlns:xlink="http://www.w3.org/1999/xlink" viewBox="0 0 92.702 65.41"><style><![CDATA[.J{stroke-linejoin:round}.K{stroke:#626366}.L{stroke-width:2.409}.M{fill:#a4a6a9}]]></style><g fill="none" class="J K L"><path d="M54.344 54.008l37.123-19.833.03 8.966-37.124 19.832z"/><use xlink:href="#B"/></g><use xlink:href="#C" class="J K L M"/><g fill="none" class="J K L"><path d="M89.81 31.2L52.685 51.033 2.85 21.268 39.974 1.435z"/><path d="M52.685 51.032L89.81 31.2c.907.542 1.655 1.884 1.658 2.976L54.344 54.008c-.004-1.093-.752-2.434-1.66-2.976z"/><path d="M52.685 51.032c.907.542 1.655 1.883 1.66 2.976l.03 8.964c.004 1.1-.738 1.544-1.645 1.002L2.893 34.2c-.913-.545-1.655-1.877-1.658-2.976l-.03-8.965c-.005-1.092.732-1.547 1.645-1.002l49.835 29.765z"/></g><path d="M89.81 31.2L52.685 51.033 2.85 21.268 39.974 1.435z" fill="#bbbdbf"/><path d="M54.344 54.008l37.123-19.833.03 8.966-37.124 19.832z" class="M"/><path d="M52.685 51.032L89.81 31.2c.907.542 1.655 1.884 1.658 2.976L54.344 54.008c-.004-1.093-.752-2.434-1.66-2.976" fill="#bbbdbf"/><path d="M52.685 51.032c1.653.982 1.656 1.906 1.66 2.976l.03 8.964c.004 1.1-.738 1.544-1.645 1.002L2.893 34.2c-.913-.545-1.655-1.877-1.658-2.976l-.03-8.965c-.005-1.092.732-1.547 1.645-1.002l49.835 29.765z" fill="#e21b23"/><path d="M52.403 53.523c1.4 1.062 1.717 1.4 1.725 3.52l.02 6.063c.003.88-.492 1.626-1.645 1.002L5.696 36.032c-.73-.436-1.324-1.5-1.328-2.38l-.024-7.172c-.003-.874.586-1.238 1.318-.802l46.74 27.845z" fill="#b3b5b7"/><path d="M19.293 38.238L7.827 31.4l-.007-2.697 11.465 6.847zm-.033 4.078L7.798 35.47l-.007-2.7 11.463 6.845zm8.42 5.184L21.85 44l-.025-6.05 5.822 3.5zm22.427 12.956l-2.915-1.745-.012-3.025 2.9 1.745zm-5.83-2.982L40.08 54.96l-.02-4.355 4.192 2.512z" fill="#fefefe"/><path d="M47.747 17.57l-8.397 4.27c-4.903 2.492-8.882 1.994-11.66.345-2.942-1.747-3.07-4.023 1.508-6.35l8.418-4.28 2.526 1.5-8.505 4.323c-2.126 1.08-2.352 2.358-.897 3.222 1.336.794 3.6 1.008 6.235-.338l8.246-4.2 2.525 1.5zm8.623 8.1l-3.668-2.18-12.084 6.143-2.526-1.5L50.177 22l-3.67-2.18 2.713-1.378 9.862 5.856zm12.946 4.702l2.197 1.305-14.797 7.52-2.524-1.5 9.243-4.7-7.375.738-.387-.23 1.9-3.984-9.243 4.7-2.525-1.5 14.797-7.523 2.198 1.305-2.237 4.722z" fill="#e21b23"/><use xlink:href="#C" class="M"/><use xlink:href="#B" fill="#96989b"/><path d="M1.204 22.27c-.212-2.125 2.858-.413 2.858-.413L52.93 51.044c-.12-.114.354.21.894.866.523.633.478 1.64.478 1.64l.103 8.716s.25 1.074-.823 1.65" fill="none" stroke="#dfe0df" stroke-width=".637" stroke-linecap="round" class="J"/><defs ><path id="B" d="M1.722 21.132L38.847 1.3c.294-.158.69-.126 1.127.135L2.85 21.267c-.437-.26-.833-.293-1.128-.135z"/><path id="C" d="M90.98 44.278L53.856 64.1c.32-.17.52-.566.518-1.138L91.498 43.14c.002.573-.198.967-.518 1.138z"/></defs></svg>