<svg xmlns="http://www.w3.org/2000/svg" xmlns:xlink="http://www.w3.org/1999/xlink" viewBox="0 0 61.643 58.61"><g fill="none" stroke="#626366" stroke-width="2.481" stroke-linejoin="round"><path d="M58.006 34.33c0 12.087-12.85 23.038-27.737 23.038S3.638 46.495 3.638 32.765c0-3.022.343-6.343 1.75-8.1 4.33-5.437 50.22-7.372 52.256 1.658.424 1.887.36 5.962.36 8.018z"/><use xlink:href="#B"/></g><path d="M58.006 34.33c0 12.087-12.85 23.038-27.737 23.038S3.638 46.495 3.638 32.765c0-3.022.343-6.343 1.75-8.1 4.33-5.437 50.22-7.372 52.256 1.658.424 1.887.36 5.962.36 8.018" fill="#898b8e"/><path d="M18.566 44.468c1.03.958-4.513 3.334-4.867 3.075-8.737-6.386-7.865-15.07-7.204-15.976 1.75-2.396 6.082-3.87 6.082-3.87-.115 6.358 3.725 14.666 6 16.77M49.824 27.73c-.5-1.3 5.715 3.036 5.8 3.466 1.557 7.885-5.654 15.435-6.727 15.758-2.842.855-5.74-2.602-5.253-2.856 3.335-1.736 7.016-14.22 6.18-16.368M30.736 55.263c-7.667 0-8.916-5.052-8.776-9.025.12-3.427 1.62-9.848 8.785-10.117 5.04-.2 8.736 3.426 8.772 9.98.025 4.475-1.917 9.163-8.78 9.163" fill="#e5e6e7"/><path d="M37.457 46.772c0 3.155-3.012 5.713-6.728 5.713s-6.726-2.558-6.726-5.713 3.012-5.713 6.726-5.713 6.728 2.558 6.728 5.713" fill="#58585b"/><path d="M34.416 48.087a3.78 3.78 0 0 1-3.778 3.778 3.78 3.78 0 0 1-3.779-3.778 3.78 3.78 0 0 1 3.779-3.778 3.78 3.78 0 0 1 3.778 3.778" fill="#fefefe"/><use xlink:href="#B" fill="#b3b5b7"/><path d="M11.804 4.22v19.785c-8.26 2.456-10.564 6-10.564 6v-19.62S4.07 6.888 11.804 4.22m48.6 6.157V30s-2.108-3.046-9.117-5.446V4.783c6.233 2.568 9.117 5.594 9.117 5.594" fill="#808184"/><g fill="none" stroke-linejoin="round" stroke-width="1.24" stroke-linecap="round"><path d="M59.485 29.1c-2.253-2.115-9.617-7.25-28.142-7.397-19.612-.155-27.126 5.18-29.38 7.373" stroke="#58585b"/><path d="M57.327 29.1c-2.252-2.115-9.874-6.206-26.402-6.207-15.923-.001-25.034 4.2-27.288 6.402" stroke="#f0f0f1"/></g><defs ><path id="B" d="M60.403 30s-5.62-8.11-28.967-8.293C6.77 21.512 1.24 30 1.24 30V10.372S8.336 1.618 30.82 1.25C51.384.912 60.4 10.372 60.4 10.372L60.403 30z"/></defs></svg>