<?xml version="1.0" encoding="UTF-8" standalone="no"?>
<svg
   xmlns:dc="http://purl.org/dc/elements/1.1/"
   xmlns:cc="http://creativecommons.org/ns#"
   xmlns:rdf="http://www.w3.org/1999/02/22-rdf-syntax-ns#"
   xmlns:svg="http://www.w3.org/2000/svg"
   xmlns="http://www.w3.org/2000/svg"
   xmlns:sodipodi="http://sodipodi.sourceforge.net/DTD/sodipodi-0.dtd"
   xmlns:inkscape="http://www.inkscape.org/namespaces/inkscape"
   id="a2071c0a-6e62-4699-8e32-285f1bc1e420"
   width="18"
   height="11.064388"
   viewBox="0 0 18 11.064388"
   version="1.1"
   sodipodi:docname="Azure_Migrate.svg"
   inkscape:version="0.92.3 (2405546, 2018-03-11)">
  <sodipodi:namedview
     pagecolor="#ffffff"
     bordercolor="#666666"
     borderopacity="1"
     objecttolerance="10"
     gridtolerance="10"
     guidetolerance="10"
     inkscape:pageopacity="0"
     inkscape:pageshadow="2"
     inkscape:window-width="1920"
     inkscape:window-height="1017"
     id="namedview62762"
     showgrid="false"
     fit-margin-top="0"
     fit-margin-left="0"
     fit-margin-right="0"
     fit-margin-bottom="0"
     inkscape:zoom="48.111111"
     inkscape:cx="9"
     inkscape:cy="5.5325211"
     inkscape:window-x="-8"
     inkscape:window-y="-8"
     inkscape:window-maximized="1"
     inkscape:current-layer="a2071c0a-6e62-4699-8e32-285f1bc1e420" />
  <defs
     id="defs62748">
    <linearGradient
       id="a89be84a-3752-4123-adee-32901ecefd3d"
       x1="10.75"
       y1="13.54"
       x2="10.75"
       y2="2.9200001"
       gradientUnits="userSpaceOnUse">
      <stop
         offset="0"
         stop-color="#0078d4"
         id="stop62722" />
      <stop
         offset="0.16"
         stop-color="#1380da"
         id="stop62724" />
      <stop
         offset="0.53"
         stop-color="#3c91e5"
         id="stop62726" />
      <stop
         offset="0.82"
         stop-color="#559cec"
         id="stop62728" />
      <stop
         offset="1"
         stop-color="#5ea0ef"
         id="stop62730" />
    </linearGradient>
    <linearGradient
       id="a2f994c2-8580-44cf-92d2-32655328fefe"
       x1="7.4499998"
       y1="17.24"
       x2="7.4499998"
       y2="1.1900001"
       gradientUnits="userSpaceOnUse">
      <stop
         offset="0"
         stop-color="#198ab3"
         id="stop62733" />
      <stop
         offset="0"
         stop-color="#198ab3"
         id="stop62735" />
      <stop
         offset="0.11"
         stop-color="#22a5cb"
         id="stop62737" />
      <stop
         offset="0.23"
         stop-color="#29bade"
         id="stop62739" />
      <stop
         offset="0.37"
         stop-color="#2ec9eb"
         id="stop62741" />
      <stop
         offset="0.53"
         stop-color="#31d1f3"
         id="stop62743" />
      <stop
         offset="0.78"
         stop-color="#32d4f5"
         id="stop62745" />
    </linearGradient>
  </defs>
  <title
     id="title62750">Icon-migrate-281</title>
  <path
     d="m 18,7.0618668 a 3.26,3.26 0 0 0 -2.83,-3.13 4.11,4.11 0 0 0 -4.23,-3.92999998 4.22,4.22 0 0 0 -4,2.74999998 3.89,3.89 0 0 0 -3.44,3.78 4,4 0 0 0 4.08,3.7900002 h 7 0.18 A 3.29,3.29 0 0 0 18,7.0618668 Z"
     id="path62752"
     inkscape:connector-curvature="0"
     style="fill:url(#a89be84a-3752-4123-adee-32901ecefd3d)" />
  <path
     d="M 14.9,7.7518668 A 3.35,3.35 0 0 0 12,4.5318668 4.21,4.21 0 0 0 7.65,0.53186682 4.33,4.33 0 0 0 3.51,3.3218668 4,4 0 0 0 0,7.1618668 4.06,4.06 0 0 0 4.2,11.061867 h 0.37 6.79 0.18 A 3.38,3.38 0 0 0 14.9,7.7518668 Z"
     id="path62754"
     inkscape:connector-curvature="0"
     style="fill:url(#a2f994c2-8580-44cf-92d2-32655328fefe)" />
  <g
     id="b1b7ddb8-8ec2-480f-967f-c2bf89d2fe16"
     transform="translate(0,-3.4681332)">
    <path
       d="m 4.82,9.37 h 0.85 a 0.23,0.23 0 0 1 0.17,0.07 l 2,2 a 0.24,0.24 0 0 1 0,0.35 L 5.12,14.46 A 0.24,0.24 0 0 1 4.95,14.53 H 4.14 A 0.25,0.25 0 0 1 4,14.11 l 2.31,-2.34 a 0.23,0.23 0 0 0 0,-0.34 L 4.65,9.78 A 0.24,0.24 0 0 1 4.82,9.37 Z M 8.25,6 h 0.87 a 0.25,0.25 0 0 1 0.17,0.08 l 1.53,1.55 a 0.24,0.24 0 0 1 0,0.34 l -2,1.91 A 0.24,0.24 0 0 1 8.65,9.95 H 7.92 A 0.25,0.25 0 0 1 7.74,9.54 L 9.27,8 a 0.25,0.25 0 0 0 0,-0.34 L 8.08,6.46 A 0.245204,0.245204 0 0 1 8.25,6 Z m 1.79,4 h 0.85 a 0.28,0.28 0 0 1 0.17,0.07 l 1.25,1.25 a 0.25,0.25 0 0 1 0,0.34 l -1.81,1.83 a 0.23,0.23 0 0 1 -0.17,0.07 H 9.51 A 0.24,0.24 0 0 1 9.34,13.15 l 1.42,-1.44 a 0.25,0.25 0 0 0 0,-0.34 L 9.87,10.46 A 0.24,0.24 0 0 1 10,10.05 Z"
       id="path62756"
       inkscape:connector-curvature="0"
       style="fill:#ffffff" />
  </g>
  <metadata
     id="metadata62759">
    <rdf:RDF>
      <rdf:li>public:true</rdf:li>
      <rdf:li>sdk:false</rdf:li>
      <rdf:li>category: Migrate</rdf:li>
      <cc:Work
         rdf:about="">
        <dc:format>image/svg+xml</dc:format>
        <dc:type
           rdf:resource="http://purl.org/dc/dcmitype/StillImage" />
        <dc:title>Icon-migrate-281</dc:title>
      </cc:Work>
    </rdf:RDF>
  </metadata>
</svg>
