<?xml version="1.0" encoding="UTF-8" standalone="no"?>
<svg
   xmlns:dc="http://purl.org/dc/elements/1.1/"
   xmlns:cc="http://creativecommons.org/ns#"
   xmlns:rdf="http://www.w3.org/1999/02/22-rdf-syntax-ns#"
   xmlns:svg="http://www.w3.org/2000/svg"
   xmlns="http://www.w3.org/2000/svg"
   xmlns:xlink="http://www.w3.org/1999/xlink"
   xmlns:sodipodi="http://sodipodi.sourceforge.net/DTD/sodipodi-0.dtd"
   xmlns:inkscape="http://www.inkscape.org/namespaces/inkscape"
   id="b731f684-7cb9-4db7-b2c1-15068abf133d"
   width="16.98"
   height="17.010151"
   viewBox="0 0 16.98 17.010151"
   version="1.1"
   sodipodi:docname="00004-icon-service-Cost-Management-and-Billing.svg"
   inkscape:version="0.92.3 (2405546, 2018-03-11)">
  <metadata
     id="metadata3632">
    <rdf:RDF>
      <cc:Work
         rdf:about="">
        <dc:format>image/svg+xml</dc:format>
        <dc:type
           rdf:resource="http://purl.org/dc/dcmitype/StillImage" />
        <dc:title></dc:title>
      </cc:Work>
    </rdf:RDF>
  </metadata>
  <sodipodi:namedview
     pagecolor="#ffffff"
     bordercolor="#666666"
     borderopacity="1"
     objecttolerance="10"
     gridtolerance="10"
     guidetolerance="10"
     inkscape:pageopacity="0"
     inkscape:pageshadow="2"
     inkscape:window-width="1920"
     inkscape:window-height="1017"
     id="namedview3630"
     showgrid="false"
     fit-margin-top="0"
     fit-margin-left="0"
     fit-margin-right="0"
     fit-margin-bottom="0"
     inkscape:zoom="48.111111"
     inkscape:cx="8.48"
     inkscape:cy="8.490146"
     inkscape:window-x="-8"
     inkscape:window-y="-8"
     inkscape:window-maximized="1"
     inkscape:current-layer="b731f684-7cb9-4db7-b2c1-15068abf133d" />
  <defs
     id="defs3615">
    <radialGradient
       id="f65398a3-df69-4689-8d5a-25969160d437"
       cx="7.1799998"
       cy="9.5"
       r="7.3800001"
       gradientUnits="userSpaceOnUse">
      <stop
         offset="0"
         stop-color="#76bc2d"
         id="stop3604" />
      <stop
         offset="0.41"
         stop-color="#74b92c"
         id="stop3606" />
      <stop
         offset="0.66"
         stop-color="#6fb12a"
         id="stop3608" />
      <stop
         offset="0.88"
         stop-color="#66a227"
         id="stop3610" />
      <stop
         offset="1"
         stop-color="#5e9624"
         id="stop3612" />
    </radialGradient>
    <radialGradient
       inkscape:collect="always"
       xlink:href="#f65398a3-df69-4689-8d5a-25969160d437"
       id="radialGradient3651"
       gradientUnits="userSpaceOnUse"
       cx="7.1799998"
       cy="9.5"
       r="7.3800001" />
  </defs>
  <path
     style="fill:#258277"
     inkscape:connector-curvature="0"
     id="path3617"
     d="m 9.48,9.7600054 a 1,1 0 0 1 -0.31,0.7899996 1.49,1.49 0 0 1 -0.89,0.37 v 0.6 H 7.84 v -0.62 a 2.36,2.36 0 0 1 -1.1,-0.28 V 9.8100054 a 1.8,1.8 0 0 0 0.5,0.2499996 2.49,2.49 0 0 0 0.6,0.14 V 9.1600054 a 2.42,2.42 0 0 1 -0.91,-0.53 1.15,1.15 0 0 1 0.06,-1.55 1.41,1.41 0 0 1 0.85,-0.38 v -0.55 h 0.43 v 0.54 a 2.21,2.21 0 0 1 0.92,0.2 v 0.8 a 2.28,2.28 0 0 0 -0.92,-0.31 v 1.14 a 2.34,2.34 0 0 1 0.92,0.54 1,1 0 0 1 0.29,0.7 z m -1.64,-1.43 v -0.93 a 0.4,0.4 0 0 0 -0.36,0.42 c 0,0.21 0.13,0.38 0.4,0.51 z m 0.85,1.47 c 0,-0.19 -0.14,-0.34 -0.42,-0.47 v 0.8999996 c 0.28,-0.05 0.42,-0.19 0.42,-0.4299996 z" />
  <path
     style="fill:#ffca00"
     inkscape:connector-curvature="0"
     id="path3619"
     d="m 16.02,9.0100054 h -3.6 a 4.43,4.43 0 0 1 -1.48,3.2999996 l 2.39,2.69 a 8,8 0 0 0 2.69,-5.9999996" />
  <path
     inkscape:connector-curvature="0"
     style="fill:url(#radialGradient3651)"
     id="path3621"
     d="M 8,13.450005 A 4.43,4.43 0 0 1 8,4.5900054 v -3.58 a 8,8 0 0 0 -8,8 v 0 a 8,8 0 0 0 8,7.9999996 v 0 a 8,8 0 0 0 5.34,-2 l -2.4,-2.69 a 4.38,4.38 0 0 1 -2.94,1.13 z" />
  <path
     style="fill:#cccccc"
     inkscape:connector-curvature="0"
     id="path3623"
     d="m 7.63,5.3533206e-6 v 0 V 4.1600054 v 0 a 5.09,5.09 0 0 1 5.17,5.18 h 4.18 A 9.34,9.34 0 0 0 7.63,5.3533206e-6 Z" />
  <path
     style="fill:#999999"
     inkscape:connector-curvature="0"
     id="path3625"
     d="m 12.82,9.3400054 a 5.13,5.13 0 0 0 -5.06,-5.18 H 7.63 l 0.33,0.62 a 4.5,4.5 0 0 1 4.23,4.25 z" />
  <use
     x="0"
     y="0"
     xlink:href="#path3617"
     id="use3639"
     width="100%"
     height="100%" />
  <use
     x="0"
     y="0"
     xlink:href="#path3619"
     id="use3641"
     width="100%"
     height="100%" />
  <use
     x="0"
     y="0"
     xlink:href="#path3621"
     id="use3643"
     width="100%"
     height="100%" />
  <use
     x="0"
     y="0"
     xlink:href="#path3623"
     id="use3645"
     width="100%"
     height="100%" />
  <use
     x="0"
     y="0"
     xlink:href="#path3625"
     id="use3647"
     width="100%"
     height="100%" />
</svg>
