<?xml version="1.0" encoding="UTF-8" standalone="no"?>
<svg
   xmlns:dc="http://purl.org/dc/elements/1.1/"
   xmlns:cc="http://creativecommons.org/ns#"
   xmlns:rdf="http://www.w3.org/1999/02/22-rdf-syntax-ns#"
   xmlns:svg="http://www.w3.org/2000/svg"
   xmlns="http://www.w3.org/2000/svg"
   xmlns:sodipodi="http://sodipodi.sourceforge.net/DTD/sodipodi-0.dtd"
   xmlns:inkscape="http://www.inkscape.org/namespaces/inkscape"
   id="a1b7605f-a809-451b-a4b7-0cf3505cf130"
   width="18.000216"
   height="12.902715"
   viewBox="0 0 18.000216 12.902715"
   version="1.1"
   sodipodi:docname="Data_Box_Edge.svg"
   inkscape:version="0.92.3 (2405546, 2018-03-11)">
  <sodipodi:namedview
     pagecolor="#ffffff"
     bordercolor="#666666"
     borderopacity="1"
     objecttolerance="10"
     gridtolerance="10"
     guidetolerance="10"
     inkscape:pageopacity="0"
     inkscape:pageshadow="2"
     inkscape:window-width="1920"
     inkscape:window-height="1017"
     id="namedview62881"
     showgrid="false"
     fit-margin-top="0"
     fit-margin-left="0"
     fit-margin-right="0"
     fit-margin-bottom="0"
     inkscape:zoom="48.111111"
     inkscape:cx="9.0002151"
     inkscape:cy="6.4502141"
     inkscape:window-x="-8"
     inkscape:window-y="-8"
     inkscape:window-maximized="1"
     inkscape:current-layer="a1b7605f-a809-451b-a4b7-0cf3505cf130" />
  <defs
     id="defs62867">
    <linearGradient
       id="e45189b1-c2d3-4f10-b300-1da54b2b00ea"
       x1="9.5900002"
       y1="17.959999"
       x2="9.5900002"
       y2="-0.17"
       gradientUnits="userSpaceOnUse">
      <stop
         offset="0"
         stop-color="#0078d4"
         id="stop62862" />
      <stop
         offset="0.82"
         stop-color="#5ea0ef"
         id="stop62864" />
    </linearGradient>
  </defs>
  <title
     id="title62869">Icon-storage-95</title>
  <path
     d="m 18.000215,8.1825006 a 3.77,3.77 0 0 0 -3.28,-3.63 4.75,4.75 0 0 0 -4.8999999,-4.55000003 4.89,4.89 0 0 0 -4.69,3.18000003 4.48,4.48 0 0 0 -3.94,4.34 4.57,4.57 0 0 0 4.73,4.3900004 h 0.42 7.6599999 0.21 a 3.81,3.81 0 0 0 3.79,-3.7300004 z"
     id="path62871"
     inkscape:connector-curvature="0"
     style="fill:url(#e45189b1-c2d3-4f10-b300-1da54b2b00ea)" />
  <path
     d="m 2.150662e-4,9.1125006 a 3.76,3.76 0 0 1 3.8000000338,-3.8 3.77,3.77 0 0 1 3.8,3.8 v 3.7900004 h -3.8 A 3.76,3.76 0 0 1 2.150662e-4,9.1125006 Z"
     id="path62873"
     inkscape:connector-curvature="0"
     style="fill:#50e6ff;fill-rule:evenodd" />
  <g
     id="b33a10b5-62f7-4935-ba61-5887e2c71eb8"
     transform="translate(2.150662e-4,-2.5474994)">
    <path
       d="m 6.17,11.91 v -0.56 0 L 5.6,11.15 5.46,10.77 5.74,10.18 V 10.12 L 5.56,9.94 5.35,9.7 H 5.27 L 4.71,10 4.33,9.89 4.08,9.26 H 3.53 v 0 L 3.34,9.83 2.92,10 2.27,9.69 1.88,10.08 v 0.07 L 2.17,10.71 2,11.13 1.33,11.38 v 0.56 h 0.08 l 0.59,0.2 0.16,0.38 -0.3,0.65 0.39,0.4 h 0.08 l 0.55,-0.28 0.39,0.16 0.24,0.67 H 4.07 V 14.04 L 4.26,13.44 4.64,13.28 5.3,13.59 5.69,13.2 V 13.12 L 5.41,12.56 5.52,12.17 Z m -2.35,0.52 a 0.79,0.79 0 0 1 0,-1.57 0.78,0.78 0 0 1 0.79,0.78 v 0 a 0.78,0.78 0 0 1 -0.79,0.79 z"
       id="path62875"
       inkscape:connector-curvature="0"
       style="fill:#ffffff" />
  </g>
  <metadata
     id="metadata62878">
    <rdf:RDF>
      <rdf:li>public:true</rdf:li>
      <rdf:li>sdk:false</rdf:li>
      <rdf:li>category: Storage, Migrate</rdf:li>
      <cc:Work
         rdf:about="">
        <dc:format>image/svg+xml</dc:format>
        <dc:type
           rdf:resource="http://purl.org/dc/dcmitype/StillImage" />
        <dc:title>Icon-storage-95</dc:title>
      </cc:Work>
    </rdf:RDF>
  </metadata>
</svg>
