<?xml version="1.0" encoding="UTF-8" standalone="no"?>
<svg
   width="18"
   height="18.000181"
   viewBox="0 0 18 18.000181"
   version="1.1"
   id="svg5103"
   sodipodi:docname="Applens.svg"
   inkscape:version="1.1 (c68e22c387, 2021-05-23)"
   xmlns:inkscape="http://www.inkscape.org/namespaces/inkscape"
   xmlns:sodipodi="http://sodipodi.sourceforge.net/DTD/sodipodi-0.dtd"
   xmlns="http://www.w3.org/2000/svg"
   xmlns:svg="http://www.w3.org/2000/svg">
  <sodipodi:namedview
     id="namedview5105"
     pagecolor="#ffffff"
     bordercolor="#666666"
     borderopacity="1.0"
     inkscape:pageshadow="2"
     inkscape:pageopacity="0.0"
     inkscape:pagecheckerboard="0"
     showgrid="false"
     fit-margin-top="0"
     fit-margin-left="0"
     fit-margin-right="0"
     fit-margin-bottom="0"
     inkscape:zoom="44.055556"
     inkscape:cx="9"
     inkscape:cy="9"
     inkscape:window-width="1920"
     inkscape:window-height="1017"
     inkscape:window-x="-8"
     inkscape:window-y="-8"
     inkscape:window-maximized="1"
     inkscape:current-layer="svg5103" />
  <defs
     id="defs5090">
    <linearGradient
       id="b64029dc-53b6-43b2-8aae-92413846e51c"
       y1="9"
       x2="18"
       y2="9"
       gradientUnits="userSpaceOnUse"
       gradientTransform="translate(-0.00121291,0.00437726)">
      <stop
         offset="0"
         stop-color="#5ea0ef"
         id="stop5073" />
      <stop
         offset="1"
         stop-color="#0078d4"
         id="stop5075" />
    </linearGradient>
    <linearGradient
       id="bfc54d5e-2678-40a3-87f5-a3381ba974de"
       x1="3.092"
       y1="8.9799995"
       x2="14.9"
       y2="8.9799995"
       gradientUnits="userSpaceOnUse"
       gradientTransform="translate(-0.00121291,0.00437726)">
      <stop
         offset="0"
         stop-color="#50e6ff"
         id="stop5078" />
      <stop
         offset="1"
         stop-color="#32bedd"
         id="stop5080" />
    </linearGradient>
    <linearGradient
       id="b1aeb350-670b-47cd-881a-82e451a61e61"
       x1="3.154"
       y1="6.2150002"
       x2="10.922"
       y2="6.2150002"
       gradientUnits="userSpaceOnUse"
       gradientTransform="translate(-0.00121291,0.00437726)">
      <stop
         offset="0"
         stop-color="#5ea0ef"
         id="stop5083" />
      <stop
         offset="0.432"
         stop-color="#3890e4"
         id="stop5085" />
      <stop
         offset="1"
         stop-color="#0078d4"
         id="stop5087" />
    </linearGradient>
  </defs>
  <path
     d="m 9.2747871,0.00437726 a 8.957,8.957 0 0 0 -5.308,1.54000004 0.6,0.6 0 0 0 -0.138,0.873 l 0.788,0.993 a 7.1,7.1 0 1 1 -2.534,3.953 0.6,0.6 0 0 0 -0.412,-0.707 l -0.657,-0.2 a 0.6,0.6 0 0 0 -0.76300001,0.434 9,9 0 1 0 9.02400001,-6.88600004 z"
     fill="url(#b64029dc-53b6-43b2-8aae-92413846e51c)"
     id="path5092"
     style="fill:url(#b64029dc-53b6-43b2-8aae-92413846e51c)" />
  <circle
     cx="13.688787"
     cy="7.6673775"
     r="1.437"
     fill="#f78d1e"
     id="circle5094" />
  <circle
     cx="7.8947868"
     cy="13.803377"
     r="1.437"
     fill="#f78d1e"
     id="circle5096" />
  <path
     d="m 6.1237871,6.1953773 -1.132,-1.532 a 5.9,5.9 0 0 1 8.8589999,0.983 c -0.054,0 -0.106,-0.016 -0.162,-0.016 a 2.027,2.027 0 0 0 -1.617,0.812 3.984,3.984 0 0 0 -5.9479999,-0.247 z m -0.266,7.6089997 a 2.027,2.027 0 0 1 0.761,-1.575 4,4 0 0 1 -1.598,-2.6249997 4.043,4.043 0 0 1 0.024,-1.338 0.6,0.6 0 0 0 -0.409,-0.689 l -0.66,-0.205 a 0.6,0.6 0 0 0 -0.766,0.448 5.876,5.876 0 0 0 2.668,6.1839997 c -0.006,-0.07 -0.02,-0.134 -0.02,-0.2 z M 13.688787,9.7043773 a 2.01,2.01 0 0 1 -0.721,-0.138 4.016,4.016 0 0 1 -3.2329999,3.3759997 1.987,1.987 0 0 1 -0.114,1.93 5.9,5.9 0 0 0 5.2779999,-5.5749997 2.025,2.025 0 0 1 -1.21,0.407 z"
     fill="url(#bfc54d5e-2678-40a3-87f5-a3381ba974de)"
     id="path5098"
     style="fill:url(#bfc54d5e-2678-40a3-87f5-a3381ba974de)" />
  <path
     d="m 9.2517871,7.0983773 a 1.929,1.929 0 0 0 -0.834,0.074 l -4.446,-5.661 -0.59,0.463 a 0.6,0.6 0 0 0 -0.1,0.843 l 4.076,5.187 a 1.909,1.909 0 0 0 -0.259,1.26 1.923,1.923 0 1 0 2.153,-2.166 z"
     fill="url(#b1aeb350-670b-47cd-881a-82e451a61e61)"
     id="path5100"
     style="fill:url(#b1aeb350-670b-47cd-881a-82e451a61e61)" />
</svg>
