<?xml version="1.0" encoding="UTF-8" standalone="no"?>
<svg
   width="17.768114"
   height="12.602405"
   viewBox="0 0 17.768114 12.602405"
   version="1.1"
   id="svg5341"
   sodipodi:docname="Azure_Hybrid_Center.svg"
   inkscape:version="1.1 (c68e22c387, 2021-05-23)"
   xmlns:inkscape="http://www.inkscape.org/namespaces/inkscape"
   xmlns:sodipodi="http://sodipodi.sourceforge.net/DTD/sodipodi-0.dtd"
   xmlns="http://www.w3.org/2000/svg"
   xmlns:svg="http://www.w3.org/2000/svg">
  <sodipodi:namedview
     id="namedview5343"
     pagecolor="#ffffff"
     bordercolor="#666666"
     borderopacity="1.0"
     inkscape:pageshadow="2"
     inkscape:pageopacity="0.0"
     inkscape:pagecheckerboard="0"
     showgrid="false"
     fit-margin-top="0"
     fit-margin-left="0"
     fit-margin-right="0"
     fit-margin-bottom="0"
     inkscape:zoom="44.055556"
     inkscape:cx="8.8865069"
     inkscape:cy="6.2988651"
     inkscape:window-width="1920"
     inkscape:window-height="1017"
     inkscape:window-x="-8"
     inkscape:window-y="-8"
     inkscape:window-maximized="1"
     inkscape:current-layer="svg5341" />
  <defs
     id="defs5326">
    <linearGradient
       id="e83464b6-e4e6-4ff1-9a65-7dbf37634849"
       x1="9"
       y1="15.296"
       x2="9"
       y2="2.704"
       gradientUnits="userSpaceOnUse"
       gradientTransform="translate(-0.11588575,-2.6975952)">
      <stop
         offset="0"
         stop-color="#0078d4"
         id="stop5321" />
      <stop
         offset="0.817"
         stop-color="#5ea0ef"
         id="stop5323" />
    </linearGradient>
  </defs>
  <path
     d="m 17.768114,8.6544048 a 3.992,3.992 0 0 0 -3.465,-3.837 5.031,5.031 0 0 0 -5.1819998,-4.81499998 5.162,5.162 0 0 0 -4.937,3.36699998 4.765,4.765 0 0 0 -4.18399995494,4.584 A 4.834,4.834 0 0 0 5.0001142,12.598405 c 0.149,0 0.295,-0.007 0.441,-0.019 h 8.0999998 a 0.791,0.791 0 0 0 0.214,-0.032 4.039,4.039 0 0 0 4.013,-3.8930002 z"
     fill="url(#e83464b6-e4e6-4ff1-9a65-7dbf37634849)"
     id="path5328"
     style="fill:url(#e83464b6-e4e6-4ff1-9a65-7dbf37634849)" />
  <path
     d="m 9.3491142,7.8364048 a 4.675,4.675 0 1 0 -4.673,4.7660002 c 0.052,0 0.1,0 0.155,0 h 4.52 V 7.8364048 Z"
     fill="#005ba1"
     id="path5330" />
  <polygon
     points="4.792,14.147 4.792,10.831 7.654,9.172 7.654,12.483 "
     fill="#32bedd"
     id="polygon5332"
     transform="translate(-0.11588575,-2.6975952)" />
  <polygon
     points="1.929,9.171 4.792,7.507 7.654,9.172 4.792,10.835 "
     fill="#9cebff"
     id="polygon5334"
     transform="translate(-0.11588575,-2.6975952)" />
  <polygon
     points="1.929,12.483 1.929,9.171 4.792,10.835 4.792,14.147 "
     fill="#50e6ff"
     id="polygon5336"
     transform="translate(-0.11588575,-2.6975952)" />
</svg>
