<?xml version="1.0" encoding="UTF-8" standalone="no"?>
<svg
   id="b2e8aa02-f5cd-4937-b901-619bbdcc4c6f"
   width="17.01552"
   height="17.00465"
   viewBox="0 0 17.01552 17.00465"
   version="1.1"
   sodipodi:docname="Data_Lake_Analytics.svg"
   inkscape:version="1.1 (c68e22c387, 2021-05-23)"
   xmlns:inkscape="http://www.inkscape.org/namespaces/inkscape"
   xmlns:sodipodi="http://sodipodi.sourceforge.net/DTD/sodipodi-0.dtd"
   xmlns="http://www.w3.org/2000/svg"
   xmlns:svg="http://www.w3.org/2000/svg"
   xmlns:rdf="http://www.w3.org/1999/02/22-rdf-syntax-ns#"
   xmlns:cc="http://creativecommons.org/ns#"
   xmlns:dc="http://purl.org/dc/elements/1.1/">
  <sodipodi:namedview
     id="namedview4239"
     pagecolor="#ffffff"
     bordercolor="#666666"
     borderopacity="1.0"
     inkscape:pageshadow="2"
     inkscape:pageopacity="0.0"
     inkscape:pagecheckerboard="0"
     showgrid="false"
     fit-margin-top="0"
     fit-margin-left="0"
     fit-margin-right="0"
     fit-margin-bottom="0"
     inkscape:zoom="44.055556"
     inkscape:cx="8.5006305"
     inkscape:cy="8.5233291"
     inkscape:window-width="1920"
     inkscape:window-height="1017"
     inkscape:window-x="-8"
     inkscape:window-y="-8"
     inkscape:window-maximized="1"
     inkscape:current-layer="b2e8aa02-f5cd-4937-b901-619bbdcc4c6f" />
  <defs
     id="defs4228">
    <linearGradient
       id="a5de6134-5132-474f-84c5-6848d1902a24"
       x1="8.9799995"
       y1="15.81"
       x2="8.9799995"
       y2="2.1900001"
       gradientUnits="userSpaceOnUse"
       gradientTransform="translate(-0.50185677,-0.48262278)">
      <stop
         offset="0"
         stop-color="#1988d9"
         id="stop4223" />
      <stop
         offset="0.9"
         stop-color="#54aef0"
         id="stop4225" />
    </linearGradient>
  </defs>
  <title
     id="title4230">Icon-analytics-143</title>
  <path
     d="m 10.578143,16.887377 -9.70999977,-4.37 a 1.48,1.48 0 0 1 -0.74,-1.95 L 4.4981432,0.88737722 a 1.48,1.48 0 0 1 2,-0.74 L 16.128143,4.5173772 a 1.48,1.48 0 0 1 0.74,2 l -4.37,9.6299998 a 1.48,1.48 0 0 1 -1.92,0.74 z"
     fill="#50e6ff"
     id="path4232" />
  <path
     d="M 13.798143,15.327377 H 3.1481432 a 1.49,1.49 0 0 1 -1.48,-1.48 V 3.1873772 a 1.49,1.49 0 0 1 1.48,-1.48 H 13.798143 a 1.48,1.48 0 0 1 1.48,1.48 V 13.847377 a 1.48,1.48 0 0 1 -1.48,1.48 z"
     fill="url(#a5de6134-5132-474f-84c5-6848d1902a24)"
     id="path4234"
     style="fill:url(#a5de6134-5132-474f-84c5-6848d1902a24)" />
  <path
     d="m 8.2281432,9.4173772 h -1.61 a 0.09,0.09 0 0 1 -0.12,-0.1 l 2,-4.31 a 0.11,0.11 0 0 1 0.09,0 h 1.8899998 a 0.09,0.09 0 0 1 0.09,0.09 l -2.3099998,3.35 h 2.2399998 a 0.09,0.09 0 0 1 0.09,0.09 0.14,0.14 0 0 1 0,0.06 L 6.8681432,12.877377 c 0,0 -0.28,0.25 -0.16,-0.1 v 0 z"
     fill="#f2f2f2"
     id="path4236" />
  <metadata
     id="metadata4321">
    <rdf:RDF>
      <cc:Work
         rdf:about="">
        <dc:title>Icon-analytics-143</dc:title>
      </cc:Work>
    </rdf:RDF>
  </metadata>
</svg>
