<svg xmlns="http://www.w3.org/2000/svg" viewBox="0 0 59.8 59.8"><circle cx="29.9" cy="29.9" r="29.9" fill="#e02333"/><path d="M27.6 29.5c-.1 0-.2 0-.3-.1s-.1-.2-.1-.4v-3.3c0-.3-.1-.6-.2-.9-.1-.2-.3-.4-.6-.6s-.5-.3-.8-.3c-.3-.1-.6-.1-.9-.1s-.7 0-1 .1l-.9.3c-.3.2-.5.4-.6.6a1.69 1.69 0 0 0-.3 1h1.4c0-.3.2-.6.4-.8.3-.2.7-.3 1-.2h.4c.1 0 .3.1.4.1.1.1.2.1.3.3.1.1.1.3.1.4 0 .2 0 .3-.1.5a.76.76 0 0 1-.4.2c-.2.1-.4.1-.6.1s-.5.1-.7.1c-.3 0-.6 0-.9.1l-.8.3c-.2.1-.4.3-.6.6s-.2.7-.2 1 .1.6.2.8.3.4.5.6.4.3.7.3c.3.1.5.1.8.1.4 0 .8-.1 1.2-.2s.7-.3 1-.6c0 .2.2.5.4.6s.5.2.7.2h.8v-1h-.2l-.1.2zm-1.7-1.2c0 .2 0 .4-.2.6-.1.1-.2.3-.4.4s-.3.2-.5.2-.3.1-.5.1h-.4c-.1 0-.3-.1-.4-.1-.1-.1-.2-.1-.3-.3-.1-.1-.1-.2-.1-.4s0-.3.1-.5c.1-.1.1-.2.3-.3.1-.1.2-.1.4-.2.1 0 .3-.1.4-.1.3-.1.6-.1.9-.1s.5-.1.8-.3l-.1 1zm8.5-3.3c-.2-.3-.6-.6-.9-.7-.5-.2-.9-.3-1.3-.3s-.8.1-1.1.2a1.56 1.56 0 0 0-.8.8v-.9H29v8.6h1.4v-3.1c.1.2.2.3.4.5.2.1.3.2.5.3s.4.1.6.2c.2 0 .4.1.6 0 .8 0 1.6-.3 2.1-1 .2-.3.4-.7.5-1.1s.2-.8.2-1.2-.1-.9-.2-1.3c-.3-.3-.5-.7-.7-1zm-.8 3.1c-.1.3-.2.5-.3.7s-.3.4-.5.5-.5.2-.8.2-.5-.1-.8-.2c-.2-.1-.4-.3-.6-.5s-.3-.4-.3-.7c-.1-.3-.1-.6-.1-.9 0-.6.1-1.1.5-1.6.3-.4.8-.6 1.3-.6.3 0 .5.1.8.2.2.1.4.3.5.5a1.08 1.08 0 0 1 .3.7c.1.3.1.5.1.8 0 .4 0 .7-.1.9zm2.7-6.4h1.4V23h-1.4zm0 2.4h1.4v6.3h-1.4zM14 14v31.8h31.8V14H14zm1.3 1.2h29.3v24.4H15.3V15.2z" fill="#fff"/></svg>