<svg xmlns="http://www.w3.org/2000/svg" viewBox="0 0 59.8 59.8"><circle cx="29.9" cy="29.9" r="29.9" fill="#e02333"/><g fill="#fff"><path d="M23.9 38.9v-7.1l-6.4-3.5-6.4 3.5v7.1l6.4 3.5 6.4-3.5zm-9.8-1.8v-3.5l3.4-1.8 3.4 1.8v3.5l-3.4 1.8-3.4-1.8zm34.6-11.7v-7.1l-6.4-3.5-6.4 3.5v7.1l6.4 3.5 6.4-3.5zm-9.8-5.3l3.4-1.8 3.4 1.8v3.5l-3.4 1.8-3.4-1.8v-3.5z"/><path d="M38.9 23.6v10l-9 4.9-9.1-4.9v-10l9.1-4.9z"/></g><path d="M29.5 28.1l-7.1-3.2v7.8l7.1 3.9zm.4-.7l7-3.1-7-3.9-7 3.9zm7.5 5.3v-7.8l-7.1 3.2v8.5l7.1-3.9z" fill="#2d3f4a"/><path d="M22.4 24.9l7.1 3.2v8.5l-7.1-3.9zm7.9 3.2l7.1-3.2v7.8l-7.1 3.9zm-7.4-3.8l7-3.9 7 3.9-7 3.2z" fill="#e02333"/></svg>