<svg xmlns="http://www.w3.org/2000/svg" viewBox="0 0 60.1 60.1"><circle transform="matrix(.7071 -.7071 .7071 .7071 -12.4554 30.07)" cx="30.1" cy="30.1" r="30.1" fill="#d81f2e"/><g fill="#fff"><ellipse cx="30.4" cy="19.8" rx="10.1" ry="4.3"/><path d="M37.4 38.4c0-1.4.5-2.7 1.4-3.8v-1.9c0-1.5.8-2.8 2-3.6v-7.8c-.5 2.2-5 4-10.4 4s-9.9-1.8-10.4-4V38c0 2.5 4.7 4.4 10.5 4.4 2.6.1 5.2-.4 7.6-1.4-.4-.8-.7-1.7-.7-2.6zm6.2-9.6c2.2 0 3.9 1.8 3.9 3.9v2.1l.1.1c2 2.2 1.8 5.6-.4 7.6s-5.6 1.8-7.6-.4c-1.8-2-1.8-5.1 0-7.1l.1-.1v-2.1c0-2.2 1.8-4 3.9-4m-3.2 5.3l.5-.3c1.7-1 3.7-1 5.3 0l.5.3v-1.4c0-1.8-1.4-3.2-3.2-3.2s-3.2 1.4-3.2 3.2v1.4m2.2 5l-1.6-1.6-1.2 1.2-.3.2 3 3 5.2-5.2-1.4-1.4-.2.3-3.5 3.5m1.1-10.6c-2.3.1-4.2 1.9-4.2 4.3v1.9c-2.1 2.4-1.9 6 .5 8 2.4 2.1 6 1.9 8-.5 1.9-2.2 1.9-5.4 0-7.5v-1.9c0-2.4-1.9-4.3-4.3-4.3zm-2.9 5v-.8c0-1.6 1.3-2.9 2.9-2.9s2.8 1.3 2.8 2.9v.8a5.79 5.79 0 0 0-5.7 0zm1.8 6l3.8-3.8 1 1-4.8 4.8-2.6-2.6 1-1 1.6 1.6z"/></g></svg>