<svg xmlns="http://www.w3.org/2000/svg" viewBox="0 0 59.6 59.3"><ellipse cx="29.8" cy="29.7" rx="29.8" ry="29.7" fill="#e02133"/><path d="M17.7 19.2h12v6.3h-12z" fill="#fff"/><path d="M18.8 20.2h9.8v4.2h-9.8z" fill="#e52134"/><path d="M31.2 19.2h12v6.3h-12z" fill="#fff"/><path d="M32.3 20.2h9.8v4.2h-9.8z" fill="#e52134"/><path d="M24 26.6h12v6.3H24z" fill="#fff"/><path d="M25.1 27.6h9.8v4.2h-9.8z" fill="#e52134"/><path d="M37 26.7h12V33H37z" fill="#fff"/><path d="M38.1 27.7h9.8v4.2h-9.8z" fill="#e52134"/><path d="M31.1 33.7h12V40h-12z" fill="#fff"/><path d="M32.2 34.8H42V39h-9.8z" fill="#e52134"/><path d="M17.9 33.9h12v6.3h-12z" fill="#fff"/><path d="M19 34.9h9.8v4.2H19z" fill="#e52134"/><path d="M10.6 26.6h12v6.3h-12z" fill="#fff"/><path d="M11.7 27.6h9.8v4.2h-9.8z" fill="#e52134"/></svg>