<svg xmlns="http://www.w3.org/2000/svg" viewBox="0 0 59.8 59.8"><circle cx="29.9" cy="29.9" r="29.9" fill="#e02533"/><g fill="#fff"><path d="M13.3 45.2V14.7c0-.4.4-.6.7-.6s.5.3.6.6v28.9l10.1-3V18c0-.4.4-.6.7-.6s.5.3.6.6v23.4l-12.7 3.8z"/><path d="M16.5 44c-.2 0-.4-.2-.4-.4V15.8c0-.2.3-.4.5-.4s.3.2.4.4v27.8c0 .2-.2.4-.5.4zm3-.9c-.2 0-.4-.2-.4-.4V16.5c0-.2.3-.4.5-.4s.3.2.4.4v26.2c0 .2-.2.4-.5.4zm2.9-1c-.2 0-.4-.2-.4-.4V17.2c0-.2.3-.4.5-.4s.3.2.4.4v24.6c-.1.2-.3.4-.5.3z"/><path d="M25.1 21.5l-11.4-3.1.3-.7 11.3 3.1z"/><path d="M11.9 14.1h2.6v31.7h-2.6zm34.7 31.1L34 41.5V18.1c0-.4.4-.6.7-.6s.5.3.6.6v22.6l10.1 3v-29c0-.4.4-.6.7-.6s.5.3.6.6l-.1 30.5z"/><path d="M43.3 44c-.2 0-.4-.2-.4-.4V15.8c0-.2.3-.4.5-.4s.3.2.4.4v27.8c-.1.2-.3.4-.5.4zm-3-.9c-.2 0-.4-.2-.4-.4V16.5c0-.2.3-.4.5-.4s.3.2.4.4v26.3c-.2.2-.3.3-.5.3zm-2.9-1c-.2 0-.4-.2-.4-.4V17.2c0-.2.3-.4.5-.4s.3.2.4.4v24.6a.55.55 0 0 1-.5.3z"/><path d="M34.7 21.5l-.2-.7 11.3-3.1.3.7z"/><path d="M45.3 14h2.6v31.7h-2.6z"/></g></svg>