<svg xmlns="http://www.w3.org/2000/svg" viewBox="0 0 59.5 59.5"><circle transform="matrix(.7071 -.7071 .7071 .7071 -12.3229 29.75)" cx="29.8" cy="29.8" r="29.8" fill="#d81f2e"/><path d="M25.5 42.8l-9.5-.1c-1.3 0-2.4 1.1-2.4 2.4v2.4l14.3.1v-2.4c0-1.4-1-2.4-2.4-2.4zm-4.8-2.5a6.06 6.06 0 0 1-6.1-6.1 6.06 6.06 0 0 1 6.1-6.1c3.3 0 6.1 2.7 6.1 6.1a6.06 6.06 0 0 1-6.1 6.1zm0-11.4a5.34 5.34 0 0 0-5.3 5.3 5.34 5.34 0 0 0 5.3 5.3 5.34 5.34 0 0 0 5.3-5.3 5.34 5.34 0 0 0-5.3-5.3zm24.2 13.9l-9.5-.1c-1.3 0-2.4 1-2.4 2.4v2.4l14.3.1v-2.4c-.1-1.4-1.1-2.4-2.4-2.4zm-4.8-2.5a6.06 6.06 0 0 1-6.1-6.1 6.06 6.06 0 0 1 6.1-6.1c3.3 0 6.1 2.7 6.1 6.1-.1 3.4-2.8 6.1-6.1 6.1zm0-11.4a5.34 5.34 0 0 0-5.3 5.3 5.34 5.34 0 0 0 5.3 5.3 5.34 5.34 0 0 0 5.3-5.3 5.34 5.34 0 0 0-5.3-5.3z" fill="#fff"/><path d="M23.4 14.1c-.1-.7 0-1.5.2-2.2.2-.8.6-1.5 1.1-2.1 1-1.4 2.5-2.4 4.2-2.6.6-.1 1.3-.1 1.9-.1.7 0 1.4.2 2 .4.7.3 1.4.7 2 1.2.5.4.9.9 1.2 1.4s.6 1 .7 1.6c.1.3.2.7.2 1l.1 4.8m-13.8-1.9c.6.1 1.2-.2 1.5-.8a1.69 1.69 0 0 0 .3-1l.2-1.2c.1-.4.2-.8.4-1.1.4-.8 1-1.5 1.8-1.9 1.2-.9 2.7-1.1 4.1-.7.5.1 1.1.4 1.5.7.5.3.9.7 1.3 1.1s.6.8.8 1.3c.1.2.1.5.2.8l.1 4.4c-.1.3 0 .6.1.9a.9.9 0 0 0 .6.6c.3.2.7.4 1.1.4m-14-1.8c.3.1.7.1 1 0 .4-.1.8-.3 1.2-.5s.7-.5 1-.9c.2-.6.4-1.2.4-1.8 0-.5.1-1 .2-1.6.2-.4.4-.7.7-1 .2-.3.5-.5.9-.7.7-.4 1.5-.5 2.3-.3a1.93 1.93 0 0 1 1 .3c.3.2.6.4.8.6.3.3.5.6.7.9a1.69 1.69 0 0 1 .3 1V18c0 .2 0 .5.1.7.2.4.5.7.8 1 .3.2.5.4.8.6.5.2 1.1.4 1.7.4M23.2 19h.9c.4-.1.9-.2 1.3-.4l.9-.6c.5-.4.9-.8 1.3-1.3.3-.3.5-.6.6-1 .1-.3.2-.7.2-1.1 0-.3.1-.7.2-1 0-.2.1-.4.3-.6.1-.2.3-.4.5-.5.2-.2.5-.3.8-.4.2 0 .4 0 .6.1l.6.3c.2.2.4.4.5.6.2.4.2.9.1 1.4 0 .6-.2 1.3-.3 1.9-.2.8-.6 1.5-1.1 2.2-.8 1.2-2 2.1-3.2 2.7s-2.6 1-4 1m.1-1.6c.6 0 1.1-.1 1.7-.2 1-.3 2-.8 2.7-1.5.5-.5 1-1 1.3-1.6.3-.4.5-.8.7-1.3.3-.8.4-1.6.3-2.4m.3 6.8h.8m.9-1.6l.3.8c.2.4.5.8.9 1.1a6.42 6.42 0 0 0 1.3 1c.4.2.7.4 1.1.5.5.1 1 .2 1.5.1m-1.2 1.7l-1.1-.4c-.4-.1-.7-.3-1.1-.5-.6-.3-.7-.4-1.2-.6-.4-.2-.9-.4-1.3-.5-.5-.1-1-.1-1.5 0-.3.1-.7.2-1 .4l-1.8.9c-.5.2-1.1.3-1.7.4-.3.2-.7.2-1.1.2m1.3 1.6c.3 0 .7-.1 1-.1.3-.1.7-.2 1-.4l.8-.5c.5-.3.6-.3.8-.4l.9-.3h.6c.3 0 .5 0 .8.1s.6.2.8.4l.6.4c.1.1.5.3.8.4.4.2.9.3 1.4.4M27.3 27l.9-.3c.4-.1.7-.3 1-.5.4-.3.4-.3.6-.4.3-.1.6-.1.9-.1s.5.1.8.2c.2.1.4.2.6.4.3.2.4.3.7.4.2.1.3.2.5.2m-3.1.6h1" fill="none" stroke="#fff" stroke-width=".8" stroke-miterlimit="10"/></svg>