<svg xmlns="http://www.w3.org/2000/svg" viewBox="0 0 59.8 59.8"><circle cx="29.9" cy="29.9" r="29.9" fill="#e22133"/><path d="M22.6 9.1h14.5c2.4 0 4.3 1.9 4.3 4.3v32.8c0 2.4-1.9 4.3-4.3 4.3H22.6c-2.4 0-4.4-1.9-4.4-4.3V13.5c.1-2.4 2-4.4 4.4-4.4z" fill="#fff" stroke="#fff" stroke-width="1.2" stroke-miterlimit="10"/><path d="M25.8 14.1H34c2.4 0 4.3 1.9 4.3 4.4V40c0 2.4-1.9 4.3-4.3 4.3h-8.2c-2.4 0-4.4-1.9-4.4-4.3V18.5c0-2.4 2-4.4 4.4-4.4z" fill="#df2233"/><path d="M22.9 26c-.1-.8 0-1.5.2-2.3s.6-1.5 1.1-2.1c1-1.4 2.6-2.4 4.3-2.7.6-.1 1.3-.2 1.9-.1.7.1 1.4.2 2 .5.7.3 1.4.7 2 1.3.5.4.9.9 1.3 1.5a11.94 11.94 0 0 1 .8 1.6c.1.3.2.7.2 1.1l.1 4.9m-14.1-2.2c.6.1 1.2-.2 1.5-.7a1.69 1.69 0 0 0 .3-1l.2-1.3c.1-.4.2-.8.4-1.2.4-.8 1-1.5 1.8-2 1.2-.9 2.8-1.2 4.2-.8.6.1 1.1.4 1.6.7s.9.7 1.3 1.2c.4.4.7.8.9 1.3.1.2.1.5.2.8l.1 4.4c-.1.3 0 .6.1.9s.4.5.6.6c.3.2.7.4 1.2.4m-14.5-1.6c.3.1.7.1 1 0 .4-.1.8-.3 1.2-.5a2.41 2.41 0 0 0 1-1c.2-.6.4-1.2.4-1.8 0-.5.1-1 .3-1.5.2-.4.4-.7.7-1s.6-.5.9-.7c.7-.4 1.5-.5 2.3-.4a1.93 1.93 0 0 1 1 .3l.9.6c.3.3.6.6.8.9s.3.6.4 1v4.8c0 .2 0 .5.1.7.2.4.5.7.8 1l.9.6c.5.3 1.1.4 1.8.4m-14.4-1.7c.3.1.6.1.9 0 .4-.1.9-.2 1.3-.4l.9-.6c.5-.4.9-.8 1.3-1.3.3-.3.5-.7.6-1.1s.2-.7.2-1.1c0-.3.1-.7.2-1a1.08 1.08 0 0 1 .3-.7c.1-.2.3-.4.5-.5.2-.2.5-.3.8-.4.2 0 .4 0 .7.1l.6.3c.2.2.4.4.5.6.2.5.2.9.1 1.4a6.28 6.28 0 0 1-.3 1.9c-.3.8-.6 1.5-1.1 2.2-.9 1.2-2 2.2-3.3 2.8s-2.6 1-4.1 1.1m.2-1.6c.6 0 1.1-.1 1.7-.2 1-.3 2-.8 2.8-1.6.5-.5 1-1 1.4-1.6.3-.4.5-.8.7-1.3a5.24 5.24 0 0 0 .3-2.5m.3 7.1h.8m.9-1.7l.3.8c.2.4.5.8.9 1.1a6.42 6.42 0 0 0 1.3 1c.4.2.7.4 1.2.5s1 .2 1.6.1m-1.3 1.9l-1.1-.4c-.4-.1-.8-.3-1.1-.5-.6-.3-.7-.4-1.2-.6-.4-.2-.9-.4-1.4-.5s-1.1-.1-1.6 0c-.4.1-.7.2-1.1.4-1.1.5-1.1.7-1.8.9-.5.2-1.1.4-1.7.4-.3.1-.8.1-1.2.1m1.4 1.6c.3 0 .7-.1 1-.1.3-.1.7-.2 1-.4.4-.2.4-.2.8-.5s.6-.3.8-.4c.3-.1.6-.3.9-.3h.7c.3 0 .5 0 .8.1s.6.2.8.4l.6.4c.1.1.5.3.8.4.4.2.9.3 1.4.4m-7.8 1.5l1-.3c.4-.1.7-.3 1-.5.4-.3.4-.3.6-.4.3-.1.6-.1.9-.1s.6.1.8.2.4.2.7.4c.4.2.4.3.7.5.2.1.4.2.5.2m-3.2.5h1" stroke="#fff" stroke-miterlimit="10" fill="none" stroke-width=".8"/><g fill="#df2233"><circle cx="29.7" cy="47.4" r="1.8"/><path d="M27.4 10.6h4.8v.9h-4.8z"/></g></svg>