<svg xmlns="http://www.w3.org/2000/svg" viewBox="0 0 60.1 60.1"><circle transform="matrix(.7071 -.7071 .7071 .7071 -12.4554 30.07)" cx="30.1" cy="30.1" r="30.1" fill="#d81f2e"/><path d="M47.3 13.9h6.4v6.4h-6.4zm0 25.7h6.4V46h-6.4zm0-12.7h6.4v6.4h-6.4z" fill="#fff"/><path d="M49.5 30.1H13.9" fill="none" stroke="#fff" stroke-miterlimit="10"/><path d="M12 21.8h3.8v16.5H12z" fill="#fff"/><g stroke="#fff"><path d="M50.5 17.1H45v25.8h5.5" fill="none" stroke-miterlimit="10"/><circle transform="matrix(.7071 -.7071 .7071 .7071 -12.4554 30.07)" cx="30.1" cy="30.1" r="7.5" fill="#d81f2e"/></g><path d="M32.8 27.8c.1-1.5-1.1-2.8-2.6-2.9s-2.8 1.1-2.9 2.6V29c-1.3 1.5-1.2 3.8.3 5.2s3.8 1.2 5.2-.3c1.2-1.4 1.2-3.5 0-4.8v-1.3zm-4.6 0a1.79 1.79 0 1 1 3.6 0v.5c-1.1-.7-2.5-.7-3.7 0v-.5zm1.2 5.7l-1.7-1.7.7-.6 1 1 2.4-2.4.7.6-3.1 3.1z" fill="#fff"/></svg>