<svg xmlns="http://www.w3.org/2000/svg" viewBox="0 0 59.3 59.3"><circle transform="matrix(.7071 -.7071 .7071 .7071 -12.2814 29.65)" cx="29.6" cy="29.6" r="29.6" fill="#d81f2e"/><g fill="#fff"><circle cx="29.7" cy="29.6" r="1.3"/><path d="M29.7 34.1c-2.5 0-4.4-2-4.4-4.5s2-4.4 4.5-4.4 4.4 2 4.4 4.4c-.1 2.5-2.1 4.5-4.5 4.5zm0-7.7c-1.8 0-3.2 1.4-3.2 3.2s1.4 3.2 3.2 3.2 3.2-1.4 3.2-3.2c0-1.7-1.5-3.2-3.2-3.2zm0 10.8c-4.2 0-7.5-3.4-7.5-7.5s3.4-7.5 7.5-7.5 7.5 3.4 7.5 7.5-3.4 7.5-7.5 7.5zm0-13.8c-3.5 0-6.3 2.8-6.3 6.3s2.8 6.3 6.3 6.3 6.3-2.8 6.3-6.3-2.9-6.3-6.3-6.3zm0 16.8c-5.8 0-10.6-4.7-10.6-10.6 0-5.8 4.7-10.6 10.6-10.6 5.8 0 10.6 4.7 10.6 10.6-.1 5.9-4.8 10.6-10.6 10.6zm0-19.9c-5.2 0-9.3 4.2-9.3 9.3s4.2 9.3 9.3 9.3 9.3-4.2 9.3-9.3-4.2-9.3-9.3-9.3zm0 22.7c-7.4 0-13.4-6-13.4-13.4s6-13.4 13.4-13.4 13.4 6 13.4 13.4C43 37 37.1 43 29.7 43zm0-25.5c-6.7 0-12.2 5.4-12.2 12.2s5.4 12.1 12.1 12.1 12.2-5.4 12.2-12.1c0-6.8-5.4-12.2-12.1-12.2zm0 28.2c-8.9 0-16.1-7.2-16.1-16.1s7.2-16.1 16.1-16.1 16.1 7.2 16.1 16.1c-.1 8.9-7.3 16.1-16.1 16.1zm0-30.9a14.77 14.77 0 0 0-14.8 14.8 14.77 14.77 0 0 0 14.8 14.8 14.77 14.77 0 0 0 14.8-14.8c0-8.1-6.7-14.8-14.8-14.8z"/></g></svg>