<svg xmlns="http://www.w3.org/2000/svg" viewBox="0 0 59.6 59.6"><circle transform="matrix(.7071 -.7071 .7071 .7071 -12.3518 29.82)" cx="29.8" cy="29.8" r="29.8" fill="#d81f2e"/><g fill="none" stroke="#fff"><circle cx="13.8" cy="30.9" r="2.3"/><circle cx="25.3" cy="22.7" r="2.3"/><circle cx="29.1" cy="30.2" r="2.3"/><circle cx="35.6" cy="31.6" r="2.3"/><circle cx="37.4" cy="39.6" r="2.3"/><circle cx="45.9" cy="28.6" r="2.3"/><path d="M15.7 29.6l7.5-5.9m3.9.7l1.3 3.5m3 3h1.9m1.8 2.9l1 4.3M39 38l5.2-7.8m-22.7-9.8L20.1 19m-.1 4.7h-1.9m7.3-4.6v-1.9m2.8 3.1l1.5-1.2m2 4.6h-2" stroke-miterlimit="10"/></g></svg>