<svg xmlns="http://www.w3.org/2000/svg" viewBox="0 0 59.7 59.7"><path d="M13.9 40.7h36.2v3.1H13.9z" fill="#fff"/><circle cx="29.8" cy="29.8" r="29.8" fill="#e02533"/><path d="M9.9 12.3h39.9v31.3H9.9z" fill="#fff"/><path d="M13 15.4h33.7v24.1H13z" fill="#e02533"/><path d="M37.2 26.6v3.6c.1 1.3-.5 2.6-1.6 3.5-1.5 1.2-3.2 2.1-5 2.7a1.95 1.95 0 0 1-1.5 0c-1.8-.6-3.5-1.5-5-2.7-1.1-.8-1.7-2.1-1.6-3.5v-7.6c0-.3.1-.5.4-.5l6.6-2.4c.3-.1.6-.1.8 0l6.6 2.4c.3.1.4.3.4.6-.1 1.2-.1 2.5-.1 3.9zm-8.3 3.1l-2.2-2.2c-.3-.4-.9-.4-1.2-.1h-.1c-.3.3-.3.9 0 1.2l2.7 2.7c.5.5.9.5 1.5 0l4.9-5c.1-.1.2-.2.2-.3.2-.3.2-.6 0-.9s-.5-.4-.8-.4c-.2.1-.4.2-.6.4L30 28.4c-.3.4-.7.9-1.1 1.3z" fill="#fff"/></svg>