<svg xmlns="http://www.w3.org/2000/svg" viewBox="0 0 58.4 58.4"><circle cx="29.2" cy="29.2" r="29.2" fill="#df2633"/><path d="M44 38.5v-6.9c0-1.5.4-3.2-.7-4.5-.2-.5-.7-1-1.2-1.2-1.4-1.1-3-1-4.6-.8H21.9c-6.3-.3-7.9 1.3-7.5 7.6v8.6c-.2 1.6-.2 3.1 1.3 4.2.3.5.8.9 1.4 1 1.6.8 3.2.5 4.9.4h15.5c.8 0 1.5.1 2.3 0a4.33 4.33 0 0 0 4.4-4.2v-2.4l-.2-1.8zm-13.6 2.3c.2-.7.3-1.3.3-2 0 .7-.1 1.4-.3 2zm-9.3-17.3h1.2c.8.1 1.3-.2 1.2-1.1 0-1.4.2-2.7.7-4 .6-1.1 1.6-2.1 2.8-2.6 1.4-.3 2.9-.3 4.3 0l1.6 1c.6.7 1.1 1.5 1.5 2.4.3 1.1.5 2.2.5 3.4 0 .8.3 1 1 1h1.7c.9.1 1.2-.3 1.2-1.2a13.59 13.59 0 0 0-1.1-5.3c-.4-1.5-1.4-2.7-2.7-3.6-.1-.3-.4-.5-.7-.5-1.2-.9-2.7-1.4-4.2-1.4 0 .2-.1.4-.2.6.1-.2.2-.4.2-.6h-1.7c-4.7.1-7.9 3.4-8.6 8.6v1.7c-.4 1.2-.1 1.8 1.3 1.6zm11.1-8.4l.3-.2-.3.2zm.8-.7zm-3.1-2.2c-.1.2-.2.3-.4.5.1-.2.2-.3.4-.5zM28 14.1c-.3.3-.6.6-.9 1 .3-.4.5-.7.9-1z" fill="#fff"/></svg>