<?xml version="1.0" encoding="UTF-8" standalone="no"?>
<svg
   xmlns:dc="http://purl.org/dc/elements/1.1/"
   xmlns:cc="http://creativecommons.org/ns#"
   xmlns:rdf="http://www.w3.org/1999/02/22-rdf-syntax-ns#"
   xmlns:svg="http://www.w3.org/2000/svg"
   xmlns="http://www.w3.org/2000/svg"
   xmlns:sodipodi="http://sodipodi.sourceforge.net/DTD/sodipodi-0.dtd"
   xmlns:inkscape="http://www.inkscape.org/namespaces/inkscape"
   width="18"
   height="16.49626"
   viewBox="0 0 18 16.49626"
   version="1.1"
   id="svg74175"
   sodipodi:docname="Azure_HCP_Cache.svg"
   inkscape:version="0.92.3 (2405546, 2018-03-11)">
  <sodipodi:namedview
     pagecolor="#ffffff"
     bordercolor="#666666"
     borderopacity="1"
     objecttolerance="10"
     gridtolerance="10"
     guidetolerance="10"
     inkscape:pageopacity="0"
     inkscape:pageshadow="2"
     inkscape:window-width="1920"
     inkscape:window-height="1017"
     id="namedview74177"
     showgrid="false"
     fit-margin-top="0"
     fit-margin-left="0"
     fit-margin-right="0"
     fit-margin-bottom="0"
     inkscape:zoom="48.111111"
     inkscape:cx="9"
     inkscape:cy="8.0640001"
     inkscape:window-x="-8"
     inkscape:window-y="-8"
     inkscape:window-maximized="1"
     inkscape:current-layer="svg74175" />
  <defs
     id="defs74156">
    <linearGradient
       id="a3c84452-5462-4576-9ec1-78e83c3246f7"
       x1="9"
       y1="15.563"
       x2="9"
       y2="-2.323"
       gradientUnits="userSpaceOnUse"
       gradientTransform="translate(0,0.5677412)">
      <stop
         offset="0"
         stop-color="#0078d4"
         id="stop74151" />
      <stop
         offset="1"
         stop-color="#5ea0ef"
         id="stop74153" />
    </linearGradient>
  </defs>
  <g
     id="bf187bb0-4c3d-4c4e-a222-f036f6cbd48e"
     transform="translate(0,-0.5677412)">
    <g
       id="g74162">
      <path
         d="M 18,9.5 A 4.094,4.094 0 0 0 14.49,5.539 5.139,5.139 0 0 0 9.24,0.569 5.27,5.27 0 0 0 4.216,4.044 4.857,4.857 0 0 0 0,8.773 a 4.937,4.937 0 0 0 5.068,4.8 c 0.151,0 0.3,-0.007 0.447,-0.02 h 8.207 A 0.781,0.781 0 0 0 13.939,13.52 4.13,4.13 0 0 0 18,9.5 Z"
         id="path74158"
         inkscape:connector-curvature="0"
         style="fill:url(#a3c84452-5462-4576-9ec1-78e83c3246f7)" />
      <rect
         x="7.3499999"
         y="7.2670002"
         width="9"
         height="9"
         rx="0.60000002"
         id="rect74160"
         style="fill:#50e6ff" />
    </g>
    <rect
       x="6.914"
       y="7.1929998"
       width="9.8710003"
       height="9.8710003"
       rx="0.60000002"
       id="rect74164"
       style="fill:#50e6ff" />
    <rect
       x="8.3929996"
       y="8.5380001"
       width="7.2659998"
       height="1.696"
       rx="0.30000001"
       id="rect74166"
       style="fill:#ffffff" />
    <rect
       x="8.3929996"
       y="11.279"
       width="7.2659998"
       height="1.696"
       rx="0.30000001"
       id="rect74168"
       style="opacity:0.8;fill:#ffffff" />
    <rect
       x="8.3929996"
       y="14.02"
       width="7.2659998"
       height="1.696"
       rx="0.30000001"
       id="rect74170"
       style="opacity:0.6;fill:#ffffff" />
  </g>
  <metadata
     id="metadata74173">
    <rdf:RDF>
      <rdf:li>public:true</rdf:li>
      <rdf:li>sdk:false</rdf:li>
      <rdf:li>category: Storage</rdf:li>
      <cc:Work
         rdf:about="">
        <dc:format>image/svg+xml</dc:format>
        <dc:type
           rdf:resource="http://purl.org/dc/dcmitype/StillImage" />
        <dc:title></dc:title>
      </cc:Work>
    </rdf:RDF>
  </metadata>
</svg>
