<?xml version="1.0" encoding="UTF-8" standalone="no"?>
<svg
   xmlns:dc="http://purl.org/dc/elements/1.1/"
   xmlns:cc="http://creativecommons.org/ns#"
   xmlns:rdf="http://www.w3.org/1999/02/22-rdf-syntax-ns#"
   xmlns:svg="http://www.w3.org/2000/svg"
   xmlns="http://www.w3.org/2000/svg"
   xmlns:sodipodi="http://sodipodi.sourceforge.net/DTD/sodipodi-0.dtd"
   xmlns:inkscape="http://www.inkscape.org/namespaces/inkscape"
   width="17.8941"
   height="12.689482"
   viewBox="0 0 17.8941 12.689482"
   version="1.1"
   id="svg74321"
   sodipodi:docname="Azure_Stack_Edge.svg"
   inkscape:version="0.92.3 (2405546, 2018-03-11)">
  <sodipodi:namedview
     pagecolor="#ffffff"
     bordercolor="#666666"
     borderopacity="1"
     objecttolerance="10"
     gridtolerance="10"
     guidetolerance="10"
     inkscape:pageopacity="0"
     inkscape:pageshadow="2"
     inkscape:window-width="1920"
     inkscape:window-height="1017"
     id="namedview74323"
     showgrid="false"
     fit-margin-top="0"
     fit-margin-left="0"
     fit-margin-right="0"
     fit-margin-bottom="0"
     inkscape:zoom="48.111111"
     inkscape:cx="8.947101"
     inkscape:cy="6.3450585"
     inkscape:window-x="-8"
     inkscape:window-y="-8"
     inkscape:window-maximized="1"
     inkscape:current-layer="svg74321" />
  <defs
     id="defs74302">
    <linearGradient
       id="a6a26b1e-cede-48df-bcf6-3a300bc5db1b"
       x1="9"
       y1="15.342"
       x2="9"
       y2="2.658"
       gradientUnits="userSpaceOnUse"
       gradientTransform="translate(0.05289898,2.6555764)">
      <stop
         offset="0"
         stop-color="#0078d4"
         id="stop74297" />
      <stop
         offset="0.817"
         stop-color="#5ea0ef"
         id="stop74299" />
    </linearGradient>
  </defs>
  <title
     id="title74304">Icon691_DataBox_Gateway</title>
  <g
     id="f6c7b812-ee36-44dd-823e-9aaf382a5c73"
     transform="translate(-0.05289898,-2.6555764)">
    <g
       id="g74316">
      <g
         id="g74310">
        <path
           d="M 17.947,11.369 A 4.019,4.019 0 0 0 14.458,7.505 5.068,5.068 0 0 0 9.238,2.658 5.2,5.2 0 0 0 4.27,6.046 a 4.8,4.8 0 0 0 -4.217,4.616 4.869,4.869 0 0 0 5.038,4.68 c 0.15,0 0.3,-0.008 0.444,-0.02 H 13.7 a 0.8,0.8 0 0 0 0.215,-0.032 4.068,4.068 0 0 0 4.032,-3.921 z"
           id="path74306"
           inkscape:connector-curvature="0"
           style="fill:url(#a6a26b1e-cede-48df-bcf6-3a300bc5db1b)" />
        <path
           d="m 9.468,10.545 a 4.708,4.708 0 1 0 -4.707,4.8 c 0.053,0 0.1,0 0.157,0 H 9.47 v -4.8 z"
           id="path74308"
           inkscape:connector-curvature="0"
           style="fill:#50e6ff" />
      </g>
      <path
         d="m 1.325,11.747 1.782,1.473 a 0.169,0.169 0 0 0 0.277,-0.13 v -0.641 h 4.253 v -1 h -6.2 a 0.168,0.168 0 0 0 -0.112,0.298 z"
         id="path74312"
         inkscape:connector-curvature="0"
         style="opacity:0.75;fill:#ffffff" />
      <path
         d="M 7.96,10.255 6.14,8.778 A 0.169,0.169 0 0 0 5.864,8.908 V 9.554 H 2.01 v 1 H 7.853 A 0.168,0.168 0 0 0 7.96,10.255 Z"
         id="path74314"
         inkscape:connector-curvature="0"
         style="fill:#ffffff" />
    </g>
  </g>
  <metadata
     id="metadata74319">
    <rdf:RDF>
      <rdf:li>public:true</rdf:li>
      <rdf:li>sdk:false</rdf:li>
      <rdf:li>category: Storage</rdf:li>
      <cc:Work
         rdf:about="">
        <dc:format>image/svg+xml</dc:format>
        <dc:type
           rdf:resource="http://purl.org/dc/dcmitype/StillImage" />
        <dc:title>Icon691_DataBox_Gateway</dc:title>
      </cc:Work>
    </rdf:RDF>
  </metadata>
</svg>
