<?xml version="1.0" encoding="UTF-8" standalone="no"?>
<svg
   xmlns:dc="http://purl.org/dc/elements/1.1/"
   xmlns:cc="http://creativecommons.org/ns#"
   xmlns:rdf="http://www.w3.org/1999/02/22-rdf-syntax-ns#"
   xmlns:svg="http://www.w3.org/2000/svg"
   xmlns="http://www.w3.org/2000/svg"
   xmlns:sodipodi="http://sodipodi.sourceforge.net/DTD/sodipodi-0.dtd"
   xmlns:inkscape="http://www.inkscape.org/namespaces/inkscape"
   id="b0a3f584-7121-47a7-bbce-42a37658ecd5"
   width="16.99975"
   height="14.5"
   viewBox="0 0 16.99975 14.5"
   version="1.1"
   sodipodi:docname="Data_Shares.svg"
   inkscape:version="0.92.3 (2405546, 2018-03-11)">
  <sodipodi:namedview
     pagecolor="#ffffff"
     bordercolor="#666666"
     borderopacity="1"
     objecttolerance="10"
     gridtolerance="10"
     guidetolerance="10"
     inkscape:pageopacity="0"
     inkscape:pageshadow="2"
     inkscape:window-width="1920"
     inkscape:window-height="1017"
     id="namedview74970"
     showgrid="false"
     fit-margin-top="0"
     fit-margin-left="0"
     fit-margin-right="0"
     fit-margin-bottom="0"
     inkscape:zoom="48.111111"
     inkscape:cx="8.5"
     inkscape:cy="7.26"
     inkscape:window-x="-8"
     inkscape:window-y="-8"
     inkscape:window-maximized="1"
     inkscape:current-layer="b0a3f584-7121-47a7-bbce-42a37658ecd5" />
  <defs
     id="defs74941">
    <linearGradient
       id="b388ec63-3e86-45d0-b039-f7d6e0e76592"
       x1="0.5"
       y1="9.9899998"
       x2="11.43"
       y2="9.9899998"
       gradientUnits="userSpaceOnUse"
       gradientTransform="translate(0.5,1.76)">
      <stop
         offset="0"
         stop-color="#005ba1"
         id="stop74926" />
      <stop
         offset="0.07"
         stop-color="#0060a9"
         id="stop74928" />
      <stop
         offset="0.36"
         stop-color="#0071c8"
         id="stop74930" />
      <stop
         offset="0.52"
         stop-color="#0078d4"
         id="stop74932" />
      <stop
         offset="0.64"
         stop-color="#0074cd"
         id="stop74934" />
      <stop
         offset="0.82"
         stop-color="#006abb"
         id="stop74936" />
      <stop
         offset="1"
         stop-color="#005ba1"
         id="stop74938" />
    </linearGradient>
  </defs>
  <title
     id="title74943">Icon-storage-98</title>
  <g
     id="g74965"
     transform="translate(-0.5,-1.76)">
    <polygon
       points="13.06,8.97 11.17,8.97 11.17,9.77 13.08,9.77 15.27,14.27 16,13.91 13.78,9.35 16,4.79 15.27,4.43 "
       id="polygon74945"
       style="fill:#949494" />
    <path
       d="m 15.63,6.14 a 1.45,1.45 0 0 1 -0.81,-0.24 1.47,1.47 0 0 1 -0.68,-1 1.53,1.53 0 0 1 1.49,-1.87 1.51,1.51 0 0 1 0.82,0.24 1.54,1.54 0 0 1 0.67,1 1.53,1.53 0 0 1 -1.49,1.86 z"
       id="path74947"
       inkscape:connector-curvature="0"
       style="fill:#ffffff" />
    <path
       d="m 15.63,3.42 a 1.2,1.2 0 0 1 0.64,0.19 1.17,1.17 0 0 1 0.52,0.74 1.19,1.19 0 0 1 -0.15,0.9 1.21,1.21 0 0 1 -1,0.55 A 1.18,1.18 0 0 1 15,5.62 1.2,1.2 0 0 1 14.47,4.87 1.2,1.2 0 0 1 15.63,3.42 m 0,-0.68 a 1.87,1.87 0 1 0 1,0.29 1.85,1.85 0 0 0 -1,-0.29 z"
       id="path74949"
       inkscape:connector-curvature="0"
       style="fill:#32bedd" />
    <path
       d="m 15.63,15.62 a 1.45,1.45 0 0 1 -0.81,-0.24 1.51,1.51 0 0 1 -0.48,-2.1 1.52,1.52 0 0 1 2.11,-0.48 1.53,1.53 0 0 1 -0.82,2.82 z"
       id="path74951"
       inkscape:connector-curvature="0"
       style="fill:#ffffff" />
    <path
       d="m 15.63,12.9 a 1.2,1.2 0 0 1 0.64,0.19 1.17,1.17 0 0 1 0.52,0.74 1.19,1.19 0 0 1 -0.15,0.9 1.21,1.21 0 0 1 -1,0.55 A 1.18,1.18 0 0 1 15,15.1 1.2,1.2 0 0 1 14.47,14.35 1.2,1.2 0 0 1 15.63,12.9 m 0,-0.68 a 1.87,1.87 0 1 0 1,0.29 1.85,1.85 0 0 0 -1,-0.29 z"
       id="path74953"
       inkscape:connector-curvature="0"
       style="fill:#32bedd" />
    <g
       id="g74963">
      <path
         d="M 6,5.72 C 3,5.72 0.5,4.83 0.5,3.74 v 10.52 c 0,1.09 2.41,2 5.39,2 H 6 c 3,0 5.47,-0.88 5.47,-2 V 3.74 C 11.43,4.83 9,5.72 6,5.72 Z"
         id="path74955"
         inkscape:connector-curvature="0"
         style="fill:url(#b388ec63-3e86-45d0-b039-f7d6e0e76592)" />
      <path
         d="m 11.43,3.74 c 0,1.09 -2.45,2 -5.47,2 C 2.94,5.74 0.5,4.83 0.5,3.74 0.5,2.65 3,1.76 6,1.76 c 3,0 5.47,0.88 5.47,2"
         id="path74957"
         inkscape:connector-curvature="0"
         style="fill:#e8e8e8" />
      <path
         d="M 10.15,3.58 C 10.15,4.27 8.28,4.83 5.96,4.83 3.64,4.83 1.77,4.27 1.77,3.58 1.77,2.89 3.65,2.32 6,2.32 c 2.35,0 4.19,0.56 4.19,1.26"
         id="path74959"
         inkscape:connector-curvature="0"
         style="fill:#50e6ff" />
      <path
         d="M 6,3.87 A 10.12,10.12 0 0 0 2.69,4.34 9.67,9.67 0 0 0 6,4.83 9.78,9.78 0 0 0 9.32,4.34 10.14,10.14 0 0 0 6,3.87 Z"
         id="path74961"
         inkscape:connector-curvature="0"
         style="fill:#198ab3" />
    </g>
  </g>
  <metadata
     id="metadata74967">
    <rdf:RDF>
      <rdf:li>public:true</rdf:li>
      <rdf:li>sdk:false</rdf:li>
      <rdf:li>category: Storage</rdf:li>
      <cc:Work
         rdf:about="">
        <dc:format>image/svg+xml</dc:format>
        <dc:type
           rdf:resource="http://purl.org/dc/dcmitype/StillImage" />
        <dc:title>Icon-storage-98</dc:title>
      </cc:Work>
    </rdf:RDF>
  </metadata>
</svg>
