<?xml version="1.0" encoding="UTF-8" standalone="no"?>
<svg
   xmlns:dc="http://purl.org/dc/elements/1.1/"
   xmlns:cc="http://creativecommons.org/ns#"
   xmlns:rdf="http://www.w3.org/1999/02/22-rdf-syntax-ns#"
   xmlns:svg="http://www.w3.org/2000/svg"
   xmlns="http://www.w3.org/2000/svg"
   xmlns:sodipodi="http://sodipodi.sourceforge.net/DTD/sodipodi-0.dtd"
   xmlns:inkscape="http://www.inkscape.org/namespaces/inkscape"
   id="a0cb9122-7e8e-4987-8cad-9cab772115a7"
   width="18.009325"
   height="17.232359"
   viewBox="0 0 18.009325 17.232359"
   version="1.1"
   sodipodi:docname="Data_Box.svg"
   inkscape:version="0.92.3 (2405546, 2018-03-11)">
  <sodipodi:namedview
     pagecolor="#ffffff"
     bordercolor="#666666"
     borderopacity="1"
     objecttolerance="10"
     gridtolerance="10"
     guidetolerance="10"
     inkscape:pageopacity="0"
     inkscape:pageshadow="2"
     inkscape:window-width="1920"
     inkscape:window-height="1017"
     id="namedview74410"
     showgrid="false"
     fit-margin-top="0"
     fit-margin-left="0"
     fit-margin-right="0"
     fit-margin-bottom="0"
     inkscape:zoom="48.111111"
     inkscape:cx="9.0093247"
     inkscape:cy="8.62"
     inkscape:window-x="-8"
     inkscape:window-y="-8"
     inkscape:window-maximized="1"
     inkscape:current-layer="a0cb9122-7e8e-4987-8cad-9cab772115a7" />
  <defs
     id="defs74393">
    <linearGradient
       id="f1b81213-b7d5-465b-a5f3-d99014b0e364"
       x1="9"
       y1="13.14"
       x2="9"
       y2="0.38999999"
       gradientUnits="userSpaceOnUse"
       gradientTransform="translate(-0.00932469,0.38764154)">
      <stop
         offset="0"
         stop-color="#0078d4"
         id="stop74388" />
      <stop
         offset="0.82"
         stop-color="#5ea0ef"
         id="stop74390" />
    </linearGradient>
  </defs>
  <title
     id="title74395">Icon-storage-94</title>
  <g
     id="g74401"
     transform="translate(0.00932469,-0.38764154)">
    <path
       d="M 18,9.15 A 4.05,4.05 0 0 0 14.49,5.26 5.1,5.1 0 0 0 9.24,0.39 5.23,5.23 0 0 0 4.24,3.79 4.84,4.84 0 0 0 0,8.44 a 4.89,4.89 0 0 0 5.07,4.7 3.17,3.17 0 0 0 0.44,0 h 8.21 a 0.78,0.78 0 0 0 0.22,0 A 4.09,4.09 0 0 0 18,9.15 Z"
       id="path74397"
       inkscape:connector-curvature="0"
       style="fill:url(#f1b81213-b7d5-465b-a5f3-d99014b0e364)" />
    <path
       d="M 9.47,8.32 A 4.74,4.74 0 1 0 4.74,13.14 H 9.47 Z"
       id="path74399"
       inkscape:connector-curvature="0"
       style="fill:#50e6ff" />
  </g>
  <path
     d="m 11.809325,14.952358 -2.2500003,2.24 a 0.1,0.1 0 0 1 -0.16,0 l -2.24,-2.24 a 0.12,0.12 0 0 1 0.08,-0.2 h 1.32 a 0.11,0.11 0 0 0 0.11,-0.14 v -2.9 a 0.11,0.11 0 0 1 0.12,-0.1 h 1.3900003 a 0.11,0.11 0 0 1 0.11,0.11 v 2.89 a 0.11,0.11 0 0 0 0.12,0.11 h 1.32 a 0.12175796,0.12175796 0 0 1 0.08,0.23 z"
     id="path74403"
     inkscape:connector-curvature="0"
     style="fill:#0078d4" />
  <path
     d="m 7.1593247,9.4323585 2.32,-2.32 2.3300003,2.32 a 0.11,0.11 0 0 1 -0.08,0.19 h -1.32 a 0.12,0.12 0 0 0 -0.12,0.12 V 12.742358 H 8.6693247 V 9.7423585 a 0.12,0.12 0 0 0 -0.11,-0.13 h -1.32 a 0.11,0.11 0 0 1 -0.08,-0.18 z"
     id="path74405"
     inkscape:connector-curvature="0"
     style="fill:#ffffff" />
  <metadata
     id="metadata74407">
    <rdf:RDF>
      <rdf:li>public:true</rdf:li>
      <rdf:li>sdk:false</rdf:li>
      <rdf:li>category: Storage, Migrate</rdf:li>
      <cc:Work
         rdf:about="">
        <dc:format>image/svg+xml</dc:format>
        <dc:type
           rdf:resource="http://purl.org/dc/dcmitype/StillImage" />
        <dc:title>Icon-storage-94</dc:title>
      </cc:Work>
    </rdf:RDF>
  </metadata>
</svg>
