<?xml version="1.0" encoding="UTF-8" standalone="no"?>
<svg
   xmlns:dc="http://purl.org/dc/elements/1.1/"
   xmlns:cc="http://creativecommons.org/ns#"
   xmlns:rdf="http://www.w3.org/1999/02/22-rdf-syntax-ns#"
   xmlns:svg="http://www.w3.org/2000/svg"
   xmlns="http://www.w3.org/2000/svg"
   xmlns:sodipodi="http://sodipodi.sourceforge.net/DTD/sodipodi-0.dtd"
   xmlns:inkscape="http://www.inkscape.org/namespaces/inkscape"
   id="b98a97dc-55e7-4181-a5f4-561fd8539dc9"
   width="16.26"
   height="17.024744"
   viewBox="0 0 16.26 17.024744"
   version="1.1"
   sodipodi:docname="Import_Export_Jobs.svg"
   inkscape:version="0.92.3 (2405546, 2018-03-11)">
  <sodipodi:namedview
     pagecolor="#ffffff"
     bordercolor="#666666"
     borderopacity="1"
     objecttolerance="10"
     gridtolerance="10"
     guidetolerance="10"
     inkscape:pageopacity="0"
     inkscape:pageshadow="2"
     inkscape:window-width="1920"
     inkscape:window-height="1017"
     id="namedview75133"
     showgrid="false"
     fit-margin-top="0"
     fit-margin-left="0"
     fit-margin-right="0"
     fit-margin-bottom="0"
     inkscape:zoom="48.111111"
     inkscape:cx="8.13"
     inkscape:cy="8.4214359"
     inkscape:window-x="-8"
     inkscape:window-y="-8"
     inkscape:window-maximized="1"
     inkscape:current-layer="b98a97dc-55e7-4181-a5f4-561fd8539dc9" />
  <defs
     id="defs75120">
    <linearGradient
       id="ab3f0482-b286-4128-a42b-f6ffa2c6cbb8"
       x1="9"
       y1="17.4"
       x2="9"
       y2="0.40000001"
       gradientUnits="userSpaceOnUse"
       gradientTransform="translate(0.87,0.39669104)">
      <stop
         offset="0"
         stop-color="#0078d4"
         id="stop75115" />
      <stop
         offset="0.82"
         stop-color="#5ea0ef"
         id="stop75117" />
    </linearGradient>
  </defs>
  <title
     id="title75122">Icon-storage-100</title>
  <g
     id="g75128"
     transform="translate(-0.87,-0.39669104)">
    <path
       d="M 14,4.8 A 4.61,4.61 0 0 0 9.22,0.4 4.73,4.73 0 0 0 4.7,3.48 4.36,4.36 0 0 0 0.87,7.67 4.43,4.43 0 0 0 5.45,11.92 h 0.4 2.53 v 2.63 A 0.13,0.13 0 0 1 8.25,14.68 H 6.78 A 0.13,0.13 0 0 0 6.69,14.9 l 2.47,2.47 a 0.19,0.19 0 0 0 0.26,0 L 11.89,14.9 A 0.13,0.13 0 0 0 11.8,14.68 H 10.32 A 0.12,0.12 0 0 1 10.2,14.55 V 11.9 h 3.06 a 0.64,0.64 0 0 0 0.2,0 A 3.69,3.69 0 0 0 17.13,8.34 3.65,3.65 0 0 0 14,4.8 Z"
       id="path75124"
       inkscape:connector-curvature="0"
       style="fill:url(#ab3f0482-b286-4128-a42b-f6ffa2c6cbb8)" />
    <path
       d="M 4.87,8.18 7.34,5.72 a 0.17,0.17 0 0 1 0.26,0 l 2.47,2.46 A 0.13,0.13 0 0 1 10,8.4 H 8.51 A 0.13,0.13 0 0 0 8.38,8.53 V 11.9 H 6.57 V 8.53 A 0.13,0.13 0 0 0 6.44,8.4 H 5 A 0.13,0.13 0 0 1 4.87,8.18 Z"
       id="path75126"
       inkscape:connector-curvature="0"
       style="fill:#ffffff" />
  </g>
  <metadata
     id="metadata75130">
    <rdf:RDF>
      <rdf:li>public:true</rdf:li>
      <rdf:li>sdk:false</rdf:li>
      <rdf:li>category: Storage</rdf:li>
      <cc:Work
         rdf:about="">
        <dc:format>image/svg+xml</dc:format>
        <dc:type
           rdf:resource="http://purl.org/dc/dcmitype/StillImage" />
        <dc:title>Icon-storage-100</dc:title>
      </cc:Work>
    </rdf:RDF>
  </metadata>
</svg>
