<?xml version="1.0" encoding="UTF-8" standalone="no"?>
<svg
   xmlns:dc="http://purl.org/dc/elements/1.1/"
   xmlns:cc="http://creativecommons.org/ns#"
   xmlns:rdf="http://www.w3.org/1999/02/22-rdf-syntax-ns#"
   xmlns:svg="http://www.w3.org/2000/svg"
   xmlns="http://www.w3.org/2000/svg"
   xmlns:sodipodi="http://sodipodi.sourceforge.net/DTD/sodipodi-0.dtd"
   xmlns:inkscape="http://www.inkscape.org/namespaces/inkscape"
   id="a71b9b98-7497-4914-8ffd-4426ed6ff3dc"
   width="17"
   height="13.67"
   viewBox="0 0 17 13.67"
   version="1.1"
   sodipodi:docname="Storage_Accounts_(Classic).svg"
   inkscape:version="0.92.3 (2405546, 2018-03-11)">
  <sodipodi:namedview
     pagecolor="#ffffff"
     bordercolor="#666666"
     borderopacity="1"
     objecttolerance="10"
     gridtolerance="10"
     guidetolerance="10"
     inkscape:pageopacity="0"
     inkscape:pageshadow="2"
     inkscape:window-width="1920"
     inkscape:window-height="1017"
     id="namedview75719"
     showgrid="false"
     fit-margin-top="0"
     fit-margin-left="0"
     fit-margin-right="0"
     fit-margin-bottom="0"
     inkscape:zoom="48.111111"
     inkscape:cx="8.5"
     inkscape:cy="6.84"
     inkscape:window-x="-8"
     inkscape:window-y="-8"
     inkscape:window-maximized="1"
     inkscape:current-layer="a71b9b98-7497-4914-8ffd-4426ed6ff3dc" />
  <defs
     id="defs75702">
    <linearGradient
       id="bf742bd2-510c-4ed0-8c96-14df7349dd34"
       x1="9"
       y1="15.83"
       x2="9"
       y2="5.79"
       gradientUnits="userSpaceOnUse">
      <stop
         offset="0"
         stop-color="#32bedd"
         id="stop75693" />
      <stop
         offset="0.18"
         stop-color="#32caea"
         id="stop75695" />
      <stop
         offset="0.41"
         stop-color="#32d2f2"
         id="stop75697" />
      <stop
         offset="0.78"
         stop-color="#32d4f5"
         id="stop75699" />
    </linearGradient>
  </defs>
  <title
     id="title75704">Icon-storage-87</title>
  <path
     d="m 0,3.62 h 17 v 9.48 a 0.57,0.57 0 0 1 -0.57,0.57 H 0.57 A 0.57,0.57 0 0 1 0,13.1 Z"
     id="path75706"
     inkscape:connector-curvature="0"
     style="fill:url(#bf742bd2-510c-4ed0-8c96-14df7349dd34)" />
  <path
     d="M 0.57,0 H 16.43 A 0.57,0.57 0 0 1 17,0.57000001 V 3.62 H 0 V 0.56000001 A 0.57,0.57 0 0 1 0.57,0 Z"
     id="path75708"
     inkscape:connector-curvature="0"
     style="fill:#198ab3" />
  <path
     d="m 2.31,4.72 h 12.37 a 0.27,0.27 0 0 1 0.26,0.27 v 1.4 A 0.27,0.27 0 0 1 14.68,6.66 H 2.31 A 0.27,0.27 0 0 1 2.05,6.39 V 4.99 A 0.27,0.27 0 0 1 2.31,4.72 Z"
     id="path75710"
     inkscape:connector-curvature="0"
     style="fill:#ffffff" />
  <path
     d="m 2.32,7.51 h 12.37 a 0.27,0.27 0 0 1 0.26,0.27 V 9.19 A 0.27,0.27 0 0 1 14.69,9.46 H 2.32 A 0.27,0.27 0 0 1 2.06,9.19 V 7.83 A 0.27,0.27 0 0 1 2.32,7.51 Z"
     id="path75712"
     inkscape:connector-curvature="0"
     style="fill:#9cebff" />
  <path
     d="m 2.32,10.33 h 12.37 a 0.27,0.27 0 0 1 0.26,0.27 v 1.41 a 0.27,0.27 0 0 1 -0.26,0.27 H 2.32 A 0.27,0.27 0 0 1 2.06,12.01 V 10.6 a 0.27,0.27 0 0 1 0.26,-0.27 z"
     id="path75714"
     inkscape:connector-curvature="0"
     style="fill:#50e6ff" />
  <metadata
     id="metadata75716">
    <rdf:RDF>
      <rdf:li>public:true</rdf:li>
      <rdf:li>sdk:false</rdf:li>
      <rdf:li>category: Storage</rdf:li>
      <cc:Work
         rdf:about="">
        <dc:format>image/svg+xml</dc:format>
        <dc:type
           rdf:resource="http://purl.org/dc/dcmitype/StillImage" />
        <dc:title>Icon-storage-87</dc:title>
      </cc:Work>
    </rdf:RDF>
  </metadata>
</svg>
