<svg xmlns="http://www.w3.org/2000/svg" viewBox="0 0 82.075 84.463"><style><![CDATA[.Q{stroke-linejoin:round}.R{stroke:#636466}.S{stroke-width:2}]]></style><g fill="none" stroke="#626366" stroke-width="3" class="Q"><path d="M75.644 35.017l4.896-2.6.035 47.946-4.898 2.6z"/><path d="M24.188 4.1l4.897-2.6L80.54 32.417l-4.896 2.6z"/><path d="M75.644 35.017l.033 47.946-51.454-30.918L24.19 4.1z"/></g><path d="M75.643 35.017l4.897-2.6.034 47.946-4.898 2.6z" fill="#898b8e"/><path d="M24.188 4.1l4.896-2.6L80.54 32.417l-4.897 2.6z" fill="#bbbdbf"/><path d="M75.643 35.017l.033 47.946-51.454-30.918L24.188 4.1z" fill="#b3b5b7"/><path d="M70.985 69.122L28.917 43.845V13.62l42.068 25.277z" fill="#fefefe"/><path d="M53.93 30.612l15.564 9.35.087 8.702s-.277-6.24-4.903-10.15c-5.907-4.992-10.748-7.9-10.748-7.9" fill="#c4cace"/><path d="M64.392 70.68l-10.53-6.327v-1.55l10.53 6.326zm3.432 1.36c0 .468-.38.62-.85.338s-.85-.892-.85-1.36.383-.62.85-.34.85.9.85 1.36m2.514 1.512c0 .468-.38.62-.85.338s-.848-.9-.848-1.358.38-.62.848-.34.85.9.85 1.36" fill="#fefefe"/><g fill="none"><path d="M24.788 53.037L75.67 83.6" stroke-width="1.3" class="R"/><path d="M24.622 4.26l51.002 30.645.034 47.65" stroke="#e1e2e3" stroke-linecap="round" class="Q"/><g class="R"><path d="M81.178,64.547v12.598" stroke-width="1.45"/><g class="Q S"><path d="M33.043 62.077l-14.17 7.52c.386-.205.625-.68.628-1.366l14.168-7.52c0 .686-.24 1.162-.627 1.366zM3.156 38.438l14.17-7.52 14.518 8.723-14.17 7.522zm16.346 12.134l14.17-7.522.01 17.505-14.168 7.52z"/><path d="M17.5 47.144c1.1.658 1.985 2.258 1.987 3.583l.015 17.505c-.003 1.318-.888 1.858-1.985 1.198L3 60.707c-1.097-.66-1.986-2.264-1.988-3.583L1 39.62c-.001-1.323.888-1.857 1.984-1.198L17.5 47.144z"/></g></g></g><path d="M17.5 47.144l14.17-7.522c1.097.66 1.982 2.26 1.987 3.585l-14.17 7.52c-.002-1.325-.888-2.925-1.987-3.583z" fill="#636466" class="Q R S"/><path d="M1.796 38.27l14.17-7.52c.354-.19.833-.146 1.36.17l-14.17 7.52c-.527-.315-1.004-.356-1.36-.17" fill="none" class="R S"/><path d="M2.75 38.438l14.17-7.52 14.518 8.722-14.17 7.523z" fill="#b3b5b7"/><path d="M19.252 50.745l14.17-7.52.012 17.504-14.17 7.52z" fill="#898b8e"/><path d="M18.68 67.896l-.014-17.504c0-.933-.625-2.062-1.4-2.527L2.75 39.142c-.773-.464-1.397-.086-1.397.846l.013 17.504c0 .93.626 2.06 1.4 2.527l14.517 8.723c.773.463 1.398.084 1.398-.846zM17.265 47.16c1.1.658 1.985 2.258 1.987 3.583l.014 17.505c-.002 1.318-.887 1.857-1.984 1.198L2.765 60.724C1.668 60.064.78 58.46.777 57.14L.765 39.636c-.001-1.323.888-1.857 1.984-1.198l14.516 8.723z" fill="#636466"/><path d="M17.266 47.866c.775.464 1.4 1.594 1.4 2.527l.014 17.504c0 .93-.625 1.31-1.398.846L2.765 60.02c-.774-.468-1.4-1.597-1.4-2.527L1.352 39.99c0-.933.624-1.31 1.397-.847l14.517 8.724z" fill="#f5f6f6"/><path d="M6.608 59.455l-2.727-1.64v-13.88l2.727 1.64zm4.03-6.327l1.268.76c1.25.752 1.7.513 1.7-.4 0-1.052-.53-1.75-2.006-2.638l-.962-.578v2.866zm2.15-3.842c2.503 1.503 3.626 4.154 3.626 5.842 0 1.74-1.1 3.082-3.6 1.568l-2.166-1.3v6.48L7.9 60.237v-13.88l4.876 2.93z" fill="#626366"/><path d="M17.265 47.16l14.17-7.522c1.097.66 1.982 2.26 1.987 3.585l-14.17 7.52c-.002-1.325-.888-2.925-1.987-3.583zM1.4 38.27l14.17-7.52c.354-.2.833-.146 1.36.17L2.75 38.44c-.527-.315-1.004-.356-1.36-.17" fill="#bbbdbf"/><path d="M32.808 62.094l-14.17 7.52c.386-.205.625-.68.628-1.366l14.168-7.52c0 .686-.24 1.162-.627 1.366z" fill="#787a7d"/></svg>