<svg xmlns="http://www.w3.org/2000/svg" viewBox="0 0 43.37 79.605"><style><![CDATA[.I{fill:#fefefe}.J{fill:#231f20}.K{fill:#626366}.L{stroke-linejoin:round}]]></style><g fill="none" stroke="#626366" stroke-width="3" class="L"><path d="M38.188 25.48l3.645-1.935.037 52.624-3.645 1.936z"/><path d="M1.5 3.435L5.145 1.5l36.688 22.045-3.645 1.935z"/><path d="M38.188 25.48l.037 52.625L1.537 56.06 1.5 3.435z"/></g><path d="M38.188 25.48l3.645-1.935.037 52.624-3.645 1.936z" fill="#898b8e"/><path d="M1.5 3.435L5.145 1.5l36.688 22.045-3.645 1.935z" fill="#bbbdbf"/><path d="M38.188 25.48l.037 52.625L1.537 56.06 1.5 3.435z" fill="#b3b5b7"/><path d="M1.766 3.583L38.37 25.577v52.24" fill="none" stroke="#dfe0df" stroke-width=".75" stroke-linecap="round" class="L"/><path d="M21.59 56.813l-6.84-4.126-.013-7.114 6.838 4.132z" class="I"/><path d="M15.883 45.015l6.843 4.128-1.133.553-6.842-4.128z" class="J"/><path d="M21.612 56.803l-.016-7.108 1.13-.552.016 7.108z" class="K"/><path d="M30.832 62.37l-6.848-4.124-.01-7.116 6.837 4.123z" class="I"/><path d="M25.117 50.573l6.845 4.123-1.13.554-6.842-4.126z" class="J"/><path d="M30.854 62.356l-.017-7.1 1.125-.55.017 7.11z" class="K"/><path d="M12.475 51.328L5.63 47.204 5.618 40.1l6.844 4.126z" class="I"/><path d="M6.767 39.534l6.842 4.126-1.133.553-6.838-4.128z" class="J"/><path d="M12.495 51.317l-.016-7.108 1.13-.55.017 7.104z" class="K"/><path d="M21.597 47.467l-6.842-4.12-.012-7.117 6.84 4.124z" class="I"/><path d="M15.892 35.676l6.842 4.115-1.132.553-6.836-4.12z" class="J"/><path d="M21.625 47.454l-.017-7.1 1.125-.552.017 7.112z" class="K"/><path d="M30.84 53.025l-6.85-4.13-.012-7.11 6.84 4.126z" class="I"/><path d="M25.125 41.226l6.843 4.127-1.127.55-6.844-4.124z" class="J"/><path d="M30.86 53.015l-.017-7.113 1.125-.55.023 7.11z" class="K"/><path d="M12.48 41.986L5.64 37.86l-.015-7.117 6.842 4.13z" class="I"/><path d="M6.77 30.184l6.847 4.128-1.128.55-6.848-4.124z" class="J"/><path d="M12.508 41.97l-.02-7.11 1.128-.55.02 7.108z" class="K"/><path d="M21.582 38.187l-6.845-4.126-.012-7.112 6.838 4.128z" class="I"/><path d="M15.87 26.39l6.843 4.126-1.13.552-6.836-4.13z" class="J"/><path d="M21.604 38.175l-.018-7.108 1.126-.55.02 7.11z" class="K"/><path d="M30.813 43.74l-6.838-4.12-.016-7.114 6.843 4.125z" class="I"/><path d="M25.11 31.947l6.842 4.12-1.132.554-6.837-4.123z" class="J"/><path d="M30.84 43.728l-.017-7.108 1.13-.554.01 7.112z" class="K"/><path d="M12.462 32.7L5.62 28.578l-.012-7.112 6.837 4.123z" class="I"/><path d="M6.75 20.905l6.85 4.125-1.134.553-6.84-4.128z" class="J"/><path d="M12.487 32.687l-.02-7.106 1.132-.55.016 7.108z" class="K"/></svg>