<svg xmlns="http://www.w3.org/2000/svg" xmlns:xlink="http://www.w3.org/1999/xlink" viewBox="0 0 69.511 70.936"><style><![CDATA[.M{fill:#fefefe}.N{fill:#231f20}.O{fill:#626366}.P{stroke:#626366}.Q{stroke-linejoin:round}.R{stroke-linecap:round}]]></style><g fill="none" stroke-width="3" class="P Q"><path d="M30.8 65.567l25.513-13.543.003 3.87-25.514 13.543z"/><path d="M1.5 47.967l25.514-13.54 29.29 17.598L30.8 65.568z"/><path d="M30.8 65.567l.002 3.87-29.29-17.598-.003-3.87z"/><path d="M1.5 47.967l29.3 17.6.002 3.868" class="R"/><path d="M64.49 20.5l3.52-.592-8.194 32.504-3.518.594z"/><path d="M35.34 2.092l3.52-.592L68.01 19.908l-3.52.593z"/><path d="M64.49 20.5L56.3 53.007 27.146 34.6 35.34 2.093z"/></g><path d="M30.8 65.567l25.513-13.543.003 3.87-25.514 13.543z" fill="#898b8e"/><path d="M1.5 47.967l25.514-13.54 29.29 17.598L30.8 65.567z" fill="#bbbdbf"/><path d="M30.8 65.567l.002 3.87-29.29-17.598-.003-3.87z" fill="#b3b5b7"/><path d="M1.896 48.205L30.8 65.566l.002 3.465" fill="none" stroke="#e1e2e3" class="Q R"/><g fill="#898b8e"><path d="M64.49 20.5l3.52-.592-8.194 32.504-3.518.594z"/><path d="M35.34 2.092l3.52-.592L68.01 19.908l-3.52.592z"/></g><path d="M64.49 20.5L56.3 53.006 27.146 34.598 35.34 2.092z" fill="#b3b5b7"/><path d="M61.592 21.37l-7.105 28.192-25.285-15.967 7.106-28.193z" class="M"/><path d="M61.592 21.37l-7.105 28.192-25.285-15.967 7.106-28.193z" fill="none" stroke-width="1.184" class="P"/><path d="M58.864 22.196c-.92-.54-18.42-10.778-20.068-9-1.255 1.315-5.354 12.692-5.57 13.292L37.68 8.96l21.185 13.237z" fill="#c4cace"/><path d="M16.05 53.3l4.265-2.266 6.574 3.952-4.266 2.263z" class="M"/><g fill="none"><path d="M16.05 53.3l4.265-2.266 6.574 3.952-4.266 2.263z" stroke="#636466"/><path d="M56.467 53.248L26.73 34.27" class="P Q R"/></g><path d="M16.342 43.446l1.457-.773v.28l-1.457.773z" class="N"/><use xlink:href="#B" class="M"/><path d="M16.342 43.446v.28l-1.258-.754V42.7z" class="O"/><use xlink:href="#C" class="N"/><use xlink:href="#D" class="M"/><path d="M18.2 44.563v.283l-1.256-.756v-.283z" class="O"/><path d="M20.154 45.737l1.457-.773.002.28-1.46.775z" class="N"/><path d="M18.898 44.98l1.457-.773 1.256.755-1.457.774z" class="M"/><path d="M20.154 45.737v.283l-1.256-.756v-.283z" class="O"/><path d="M22.02 46.858l1.457-.773.002.283-1.46.773z" class="N"/><path d="M20.766 46.104l1.457-.775 1.256.755-1.457.774z" class="M"/><use xlink:href="#E" class="O"/><use xlink:href="#C" x="5.75" y="3.453" class="N"/><use xlink:href="#F" class="M"/><use xlink:href="#E" x="1.93" y="1.158" class="O"/><path d="M25.816 49.14l1.46-.773v.28l-1.46.773z" class="N"/><path d="M24.553 48.38l1.46-.773 1.264.76-1.46.774z" class="M"/><path d="M25.816 49.14v.28l-1.264-.758v-.283z" class="O"/><path d="M27.77 50.313l1.457-.775.002.283-1.46.773z" class="N"/><path d="M26.512 49.557l1.46-.773 1.256.753-1.457.776z" class="M"/><path d="M27.77 50.313v.28l-1.256-.754-.002-.283z" class="O"/><path d="M29.63 51.43l1.457-.773v.28l-1.457.775z" class="N"/><path d="M28.373 50.674l1.457-.773 1.258.755-1.457.774z" class="M"/><path d="M29.63 51.43v.283l-1.258-.756v-.283z" class="O"/><path d="M31.46 52.53l1.457-.772v.28l-1.457.776z" class="N"/><use xlink:href="#B" x="15.119" y="9.074" class="M"/><path d="M31.46 52.53v.284l-1.258-.757v-.283z" class="O"/><use xlink:href="#C" x="15.12" y="9.084" class="N"/><use xlink:href="#F" x="9.371" y="5.631" class="M"/><use xlink:href="#E" x="11.3" y="6.789" class="O"/><use xlink:href="#C" x="17.073" y="10.257" class="N"/><path d="M34.018 54.067l1.457-.775 1.258.755-1.46.774z" class="M"/><use xlink:href="#E" x="13.253" y="7.962" class="O"/><path d="M37.14 55.944l1.46-.775v.283l-1.46.773z" class="N"/><path d="M35.885 55.188l1.457-.773 1.258.753-1.46.776z" class="M"/><path d="M37.14 55.944v.28l-1.256-.754v-.283z" class="O"/><path d="M39.068 57.102l1.46-.773v.28l-1.46.773z" class="N"/><use xlink:href="#D" x="20.868" y="12.539" class="M"/><path d="M39.068 57.102v.28l-1.256-.754v-.283z" class="O"/><path d="M40.893 58.197l1.457-.773.002.28-1.46.773z" class="N"/><use xlink:href="#B" x="24.551" y="14.742" class="M"/><path d="M40.893 58.197v.28l-1.256-.754-.002-.283z" class="O"/><path d="M18.342 42.32l1.457-.773v.28l-1.457.773z" class="N"/><use xlink:href="#B" x="2" y="-1.135" class="M"/><path d="M18.342 42.32v.28l-1.258-.754v-.283z" class="O"/><use xlink:href="#C" x="2" y="-1.125" class="N"/><use xlink:href="#D" x="2" y="-1.125" class="M"/><path d="M20.2 43.438v.283l-1.256-.756v-.283z" class="O"/><path d="M22.154 44.612l1.457-.773.002.28-1.46.775z" class="N"/><path d="M20.898 43.856l1.457-.773 1.256.755-1.457.774z" class="M"/><path d="M22.154 44.612v.283l-1.256-.756v-.283z" class="O"/><path d="M24.02 45.733l1.457-.773.002.283-1.46.773z" class="N"/><path d="M22.766 44.98l1.457-.775 1.256.755-1.457.774z" class="M"/><use xlink:href="#E" x="2" y="-1.125" class="O"/><use xlink:href="#C" x="7.75" y="2.327" class="N"/><use xlink:href="#F" x="2" y="-1.125" class="M"/><use xlink:href="#E" x="3.93" y="0.032" class="O"/><path d="M27.816 48.014l1.46-.773v.28l-1.46.773z" class="N"/><path d="M26.553 47.254l1.46-.773 1.264.76-1.46.774z" class="M"/><path d="M27.816 48.014v.28l-1.264-.758v-.283z" class="O"/><path d="M29.77 49.188l1.457-.775.002.283-1.46.773z" class="N"/><path d="M28.512 48.432l1.46-.773 1.256.753-1.457.776z" class="M"/><path d="M29.77 49.188v.28l-1.256-.754-.002-.283z" class="O"/><path d="M31.63 50.305l1.457-.773v.28l-1.457.775z" class="N"/><path d="M30.373 49.55l1.457-.773 1.258.755-1.457.774z" class="M"/><path d="M31.63 50.305v.283l-1.258-.756v-.283z" class="O"/><path d="M33.46 51.404l1.457-.772v.28l-1.457.776z" class="N"/><use xlink:href="#B" x="17.119" y="7.95" class="M"/><path d="M33.46 51.404v.284l-1.258-.757v-.283z" class="O"/><use xlink:href="#C" x="17.12" y="7.959" class="N"/><use xlink:href="#F" x="11.371" y="4.506" class="M"/><use xlink:href="#E" x="13.3" y="5.664" class="O"/><use xlink:href="#C" x="19.073" y="9.133" class="N"/><path d="M36.018 52.942l1.457-.775 1.258.755-1.46.774z" class="M"/><use xlink:href="#E" x="15.253" y="6.838" class="O"/><path d="M39.14 54.82l1.46-.775v.283l-1.46.773z" class="N"/><path d="M37.885 54.063l1.457-.773 1.258.753-1.46.776z" class="M"/><path d="M39.14 54.82v.28l-1.256-.754v-.283z" class="O"/><path d="M41.068 55.977l1.46-.773v.28l-1.46.773z" class="N"/><use xlink:href="#D" x="22.868" y="11.413" class="M"/><path d="M41.068 55.977v.28l-1.256-.754v-.283z" class="O"/><path d="M42.893 57.072l1.457-.773.002.28-1.46.773z" class="N"/><use xlink:href="#B" x="26.551" y="13.617" class="M"/><path d="M42.893 57.072v.28l-1.256-.754-.002-.283z" class="O"/><path d="M20.467 41.196l1.457-.773v.28l-1.457.773z" class="N"/><use xlink:href="#B" x="4.126" y="-2.26" class="M"/><path d="M20.467 41.196v.28l-1.258-.754v-.283z" class="O"/><use xlink:href="#C" x="4.126" y="-2.25" class="N"/><use xlink:href="#D" x="4.125" y="-2.25" class="M"/><path d="M22.326 42.313v.283l-1.256-.756v-.283z" class="O"/><path d="M24.28 43.487l1.457-.773.002.28-1.46.775z" class="N"/><path d="M23.023 42.73l1.457-.773 1.256.755-1.457.774z" class="M"/><path d="M24.28 43.487v.283l-1.256-.756v-.283z" class="O"/><path d="M26.146 44.608l1.457-.773.002.283-1.46.773z" class="N"/><path d="M24.89 43.854l1.457-.775 1.256.755-1.457.774z" class="M"/><use xlink:href="#E" x="4.126" y="-2.25" class="O"/><use xlink:href="#C" x="9.874" y="1.203" class="N"/><use xlink:href="#F" x="4.125" y="-2.25" class="M"/><use xlink:href="#E" x="6.054" y="-1.092" class="O"/><path d="M29.94 46.89l1.46-.773v.28l-1.46.773z" class="N"/><path d="M28.678 46.13l1.46-.773 1.264.76-1.46.774z" class="M"/><path d="M29.94 46.89v.28l-1.264-.758v-.283z" class="O"/><path d="M31.895 48.063l1.457-.775.002.283-1.46.773z" class="N"/><path d="M30.637 47.307l1.46-.773 1.256.753-1.457.776z" class="M"/><path d="M31.895 48.063v.28L30.64 47.6l-.002-.283z" class="O"/><path d="M33.756 49.18l1.457-.773v.28l-1.457.775z" class="N"/><path d="M32.498 48.424l1.457-.773 1.258.755-1.457.774z" class="M"/><path d="M33.756 49.18v.283l-1.258-.756v-.283z" class="O"/><path d="M35.586 50.28l1.457-.772v.28l-1.457.776z" class="N"/><use xlink:href="#B" x="19.244" y="6.824" class="M"/><path d="M35.586 50.28v.284l-1.258-.757v-.283z" class="O"/><use xlink:href="#C" x="19.245" y="6.834" class="N"/><use xlink:href="#F" x="13.497" y="3.381" class="M"/><use xlink:href="#E" x="15.425" y="4.539" class="O"/><use xlink:href="#C" x="21.198" y="8.007" class="N"/><path d="M38.143 51.817l1.457-.775 1.258.755-1.46.774z" class="M"/><use xlink:href="#E" x="17.378" y="5.712" class="O"/><path d="M41.266 53.694l1.46-.775v.283l-1.46.773z" class="N"/><path d="M40 52.938l1.457-.773 1.258.753-1.46.776z" class="M"/><path d="M41.266 53.694v.28L40 53.22v-.283z" class="O"/><path d="M43.193 54.852l1.46-.773v.28l-1.46.773z" class="N"/><use xlink:href="#D" x="24.993" y="10.289" class="M"/><path d="M43.193 54.852v.28l-1.256-.754v-.283z" class="O"/><path d="M45.018 55.947l1.457-.773.002.28-1.46.773z" class="N"/><use xlink:href="#B" x="28.676" y="12.492" class="M"/><path d="M45.018 55.947v.28l-1.256-.754-.002-.283z" class="O"/><path d="M14.95 45.12l1.46-.773v.275l-1.46.773z" class="N"/><path d="M13.69 44.367l1.46-.775 1.258.755-1.46.774z" class="M"/><path d="M14.95 45.12v.275l-1.256-.755-.002-.274z" class="O"/><path d="M16.72 46.184l1.457-.773v.275l-1.457.773z" class="N"/><path d="M15.46 45.43l1.46-.773 1.256.753-1.457.774z" class="M"/><path d="M16.72 46.184v.275l-1.258-.755v-.274z" class="O"/><path d="M18.578 47.303l1.46-.773v.273l-1.46.773z" class="N"/><use xlink:href="#D" x="0.377" y="2.74" class="M"/><path d="M18.578 47.303v.273l-1.256-.753v-.276z" class="O"/><path d="M34.137 56.62l1.46-.773v.275l-1.46.773z" class="N"/><path d="M32.88 55.867l1.46-.775 1.258.755-1.46.774z" class="M"/><path d="M34.137 56.62v.275l-1.256-.755v-.274z" class="O"/><path d="M35.906 57.684l1.457-.773v.275l-1.457.773z" class="N"/><path d="M34.648 56.93l1.46-.773 1.256.753-1.457.774z" class="M"/><path d="M35.906 57.684v.275l-1.258-.755v-.274z" class="O"/><path d="M37.766 58.803l1.46-.773v.273l-1.46.773z" class="N"/><use xlink:href="#D" x="19.555" y="14.24" class="M"/><path d="M37.766 58.803v.273l-1.256-.753v-.276z" class="O"/><path d="M32.15 55.47l1.46-.773v.273l-1.46.775z" class="N"/><path d="M19.256 47.72l1.46-.773L33.6 54.696l-1.46.773z" class="M"/><path d="M32.15 55.47v.275l-12.895-7.748v-.275z" class="O"/><path d="M22.678 39.936l1.457-.773v.283l-1.457.773z" class="N"/><path d="M21.42 39.182l1.46-.773 1.256.753-1.457.774z" class="M"/><path d="M22.678 39.936v.283l-1.258-.756v-.28z" class="O"/><path d="M24.537 41.055l1.46-.773v.28l-1.46.773z" class="N"/><use xlink:href="#D" x="6.335" y="-3.507" class="M"/><path d="M24.537 41.055v.28l-1.256-.754V40.3z" class="O"/><path d="M26.5 42.23l1.457-.775.002.283-1.46.773z" class="N"/><path d="M25.234 41.473l1.457-.773 1.256.753-1.457.776z" class="M"/><path d="M26.5 42.23v.28l-1.256-.754v-.283z" class="O"/><path d="M28.358 43.35l1.456-.773.002.28-1.458.775z" class="N"/><path d="M27.102 42.594l1.457-.773 1.256.755-1.457.774z" class="M"/><path d="M28.358 43.35v.283l-1.257-.756v-.283z" class="O"/><use xlink:href="#C" x="12.085" y="-0.055" class="N"/><path d="M29.03 43.754l1.457-.775 1.258.755-1.46.774z" class="M"/><use xlink:href="#E" x="8.265" y="-2.35" class="O"/><path d="M32.152 45.63l1.46-.775v.283l-1.46.773z" class="N"/><path d="M30.89 44.87l1.46-.773 1.264.757-1.46.776z" class="M"/><path d="M32.152 45.63v.28l-1.264-.758v-.283z" class="O"/><path d="M34.105 46.803l1.458-.773.001.283-1.46.773z" class="N"/><path d="M32.848 46.05l1.46-.775 1.256.755-1.457.774z" class="M"/><path d="M34.105 46.803v.283l-1.256-.756-.002-.28z" class="O"/><path d="M35.967 47.922l1.457-.775v.283l-1.457.773z" class="N"/><path d="M34.71 47.166l1.457-.773 1.258.753-1.457.776z" class="M"/><path d="M35.967 47.922v.28l-1.258-.754v-.283z" class="O"/><path d="M37.797 49.022l1.457-.773v.28l-1.457.773z" class="N"/><use xlink:href="#B" x="21.456" y="5.566" class="M"/><path d="M37.797 49.022v.28l-1.258-.754v-.283z" class="O"/><use xlink:href="#C" x="21.456" y="5.577" class="N"/><path d="M38.4 49.385l1.457-.775 1.258.755-1.46.774z" class="M"/><use xlink:href="#E" x="17.636" y="3.282" class="O"/><path d="M41.61 51.313l1.46-.773v.28l-1.46.775z" class="N"/><use xlink:href="#D" x="23.409" y="6.75" class="M"/><path d="M41.61 51.313v.283l-1.256-.756v-.283z" class="O"/><use xlink:href="#C" x="25.277" y="7.871" class="N"/><path d="M42.22 51.68l1.457-.775 1.258.755-1.46.774z" class="M"/><use xlink:href="#E" x="21.457" y="5.576" class="O"/><use xlink:href="#C" x="27.204" y="9.029" class="N"/><use xlink:href="#F" x="21.455" y="5.576" class="M"/><use xlink:href="#E" x="23.384" y="6.734" class="O"/><path d="M47.23 54.7l1.457-.775.002.283-1.46.773z" class="N"/><path d="M45.97 53.934l1.46-.773 1.256.753-1.457.776z" class="M"/><path d="M47.23 54.7v.28l-1.256-.756-.002-.28z" class="O"/><defs ><path id="B" d="M15.084 42.7l1.46-.773 1.256.755-1.457.774z"/><path id="C" d="M18.2 44.563l1.46-.773v.283l-1.46.773z"/><path id="D" d="M16.945 43.807l1.457-.773 1.258.755-1.46.774z"/><path id="E" d="M22.02 46.858v.283l-1.256-.756v-.28z"/><path id="F" d="M22.693 47.262l1.457-.773 1.258.753-1.46.774z"/></defs></svg>