<svg xmlns="http://www.w3.org/2000/svg" viewBox="0 0 75.601 103.382"><style><![CDATA[.R{fill:#fefefe}.S{fill:#231f20}.T{fill:#626366}.U{fill:none}.V{stroke-linejoin:round}.W{stroke:#626366}.X{fill:#898b8e}.Y{fill:#bbbdbf}.Z{fill:#b3b5b7}.a{stroke-width:3}.b{stroke:#e1e2e3}.c{stroke-linecap:round}]]></style><g class="U V W a"><path d="M50.348 82.545l11.71-6.215.003 3.297-11.7 6.217z"/><path d="M20.45 64.58l11.71-6.215 29.9 17.965-11.71 6.215z"/><path d="M50.348 82.545l.002 3.3-29.9-17.967V64.58z"/></g><path d="M50.348 82.545l11.71-6.215.003 3.297-11.7 6.217z" class="X"/><path d="M20.45 64.58l11.71-6.215 29.9 17.965-11.71 6.215z" class="Y"/><path d="M50.348 82.545l.002 3.3-29.9-17.967V64.58z" class="Z"/><g class="U V"><path d="M20.69 64.614l29.4 17.67v3.205" class="b c"/><g stroke-width="2.668" class="W"><path d="M69.044 36.83l5.186-2.753.036 50.778L69.08 87.6z"/><path d="M14.55 4.088l5.187-2.754L74.23 34.078l-5.186 2.753z"/><path d="M69.044 36.83l.035 50.78-54.493-32.744-.037-50.778z"/></g></g><path d="M69.043 36.83l5.187-2.753.036 50.778L69.08 87.6z" class="X"/><path d="M14.55 4.088l5.186-2.754L74.23 34.078l-5.188 2.753z" class="Y"/><path d="M69.043 36.83l.037 50.78-54.495-32.744-.035-50.778z" class="Z"/><path d="M66.19 81.903L16.526 51.698V8.783L66.19 38.985z" class="R"/><g transform="translate(1 3.383)"><path d="M46.764 27.198L63.247 37.1l.092 9.216s-.293-6.608-5.193-10.75c-6.256-5.286-11.382-8.368-11.382-8.368" fill="#c4cace"/><g class="U"><path d="M14.184 52.532l53.9 32.38" stroke="#636466" stroke-width="1.156"/><path d="M14.008.875L68.023 33.33l.037 50.465" stroke-width=".889" class="V b c"/></g><g transform="translate(73 64)"><defs><filter id="A" filterUnits="userSpaceOnUse" x=".261" y=".723" width="1.29" height="13.342"><feColorMatrix values="1 0 0 0 0 0 1 0 0 0 0 0 1 0 0 0 0 0 1 0"/></filter></defs><mask maskUnits="userSpaceOnUse" x=".261" y=".723" width="1.29" height="13.342" id="B"><g filter="url(#A)"><path d="M.906.723H1.6v13.342H.906z" fill="#fff"/></g></mask><path d="M.906.723v13.342" mask="url(#B)" stroke="#636466" stroke-width="1.29" class="U"/></g><path d="M48.556 90.78s1.375-.734 2.5-.766 2.516.64 2.516.64 1.375.734 2.046 1.437.72.985.766 1.235.03.828-.047.953-7.75 4.094-7.75 4.094-.453.203-1.187.093-2-1-2.407-1.578-.375-1.468-.375-1.468.016-1.047 1.39-2.6c.906-1.094 2.547-2.03 2.547-2.03z" class="U V W a"/><path d="M48.556 90.78s1.375-.734 2.5-.766 2.516.64 2.516.64 1.377.734 2.046 1.437.72.985.766 1.235.03.828-.047.953-7.75 4.094-7.75 4.094-.453.203-1.187.093-2-1-2.407-1.578-.375-1.468-.375-1.468.016-1.047 1.39-2.6c.906-1.094 2.547-2.03 2.547-2.03" class="Y"/><path d="M48.757 98.07c.012-.1.89-2.55 3.768-4.107 2.884-1.518 3.548.12 3.5-.223l-.006.547-7.19 3.836" class="X"/><path d="M46.462 96.506c.187-.75 1.266-2.39 1.992-3.14s1.36-1.242 2.46-1.804 2.438-.985 3.094-.657 1.57 1.15 1.945 1.64.28 1.008.28 1.008-1.382-.47-2.203-.188-2.133.938-2.976 1.758-1.172 1.9-1.758 2.578-1.71.774-1.71.774-1.148-.235-1.266-.446-.046-.773.14-1.523" class="Z"/><path d="M48.37 93.864l-.504-.303c-.918.996-1.445 1.975-1.7 2.524l.506.302c.252-.548.78-1.53 1.697-2.523" fill="#e1e2e3"/><g class="U V W a"><path d="M30.4 91.095l11.71-6.215v3.297l-11.71 6.217z"/><path d="M.5 73.13l11.71-6.217 29.9 17.966-11.71 6.215z"/><path d="M30.4 91.095l.002 3.3-29.9-17.966L.5 73.13z"/></g><path d="M30.4 91.095l11.71-6.215v3.297l-11.71 6.217z" class="X"/><path d="M.5 73.13l11.71-6.217 29.9 17.966-11.71 6.215z" class="Y"/><path d="M30.4 91.095l.002 3.3-29.9-17.966L.5 73.13z" class="Z"/><path d="M7.657 72.784l1.458-.773v.28l-1.458.775z" class="S"/><path d="M6.4 72.028l1.458-.773L9.116 72l-1.458.774z" class="R"/><path d="M7.657 72.784v.283L6.4 72.31v-.283z" class="T"/><path d="M9.518 73.9l1.458-.773v.283l-1.458.773z" class="S"/><path d="M8.26 73.147l1.458-.775 1.257.755-1.458.774z" class="R"/><path d="M9.518 73.9v.283l-1.257-.756v-.28z" class="T"/><path d="M11.47 75.075l1.457-.773.001.283-1.458.773z" class="S"/><path d="M10.214 74.32l1.458-.773 1.256.755-1.457.774z" class="R"/><path d="M11.47 75.075v.283l-1.257-.756v-.283z" class="T"/><path d="M13.338 76.198l1.457-.775.001.283-1.458.773z" class="S"/><path d="M12.08 75.442l1.458-.773 1.256.753-1.457.776z" class="R"/><path d="M13.338 76.198v.28l-1.257-.754v-.283z" class="T"/><path d="M15.266 77.356l1.458-.775v.283l-1.458.773z" class="S"/><path d="M14.01 76.6l1.458-.773 1.257.753-1.458.776z" class="R"/><path d="M15.266 77.356v.28l-1.257-.754V76.6z" class="T"/><path d="M17.132 78.477l1.46-.773v.28l-1.46.775z" class="S"/><path d="M15.87 77.717l1.46-.773 1.264.76-1.46.774z" class="R"/><path d="M17.132 78.477v.283L15.868 78v-.283z" class="T"/><path d="M19.085 79.65l1.457-.773.002.28-1.46.773z" class="S"/><path d="M17.828 78.895l1.46-.773 1.256.755-1.457.774z" class="R"/><path d="M19.085 79.65v.28l-1.256-.754-.002-.283z" class="T"/><path d="M20.947 80.768l1.457-.773v.283l-1.457.773z" class="S"/><path d="M19.69 80.014l1.457-.775 1.258.755-1.457.774z" class="R"/><path d="M20.947 80.768v.283l-1.258-.756v-.28z" class="T"/><path d="M22.777 81.87l1.457-.774v.283l-1.457.772z" class="S"/><path d="M21.52 81.114l1.46-.775 1.256.755-1.457.775z" class="R"/><path d="M22.777 81.87v.28l-1.258-.755v-.28z" class="T"/><path d="M24.636 82.986l1.46-.773v.28l-1.46.775z" class="S"/><path d="M23.38 82.23l1.457-.772 1.258.754-1.46.774z" class="R"/><path d="M24.636 82.986v.283l-1.256-.756v-.283z" class="T"/><path d="M26.59 84.16l1.46-.775v.283l-1.46.773z" class="S"/><path d="M25.334 83.404l1.457-.773 1.258.753-1.46.776z" class="R"/><path d="M26.59 84.16v.28l-1.256-.754v-.283z" class="T"/><path d="M28.457 85.28l1.46-.773v.283l-1.46.773z" class="S"/><path d="M27.2 84.525l1.457-.773 1.258.755-1.46.774z" class="R"/><path d="M28.457 85.28v.283l-1.256-.756v-.283z" class="T"/><path d="M30.384 86.44l1.46-.773v.283l-1.46.773z" class="S"/><path d="M29.128 85.685l1.457-.775 1.258.755-1.46.774z" class="R"/><path d="M30.384 86.44v.283l-1.256-.756v-.28z" class="T"/><path d="M32.21 87.535l1.457-.773.002.283-1.46.773z" class="S"/><path d="M30.95 86.78l1.46-.775 1.256.755-1.457.774z" class="R"/><path d="M32.21 87.535v.283l-1.256-.756-.002-.28z" class="T"/><path d="M9.657 71.66l1.458-.773v.28l-1.458.775z" class="S"/><path d="M8.4 70.903l1.458-.773 1.257.755-1.458.774z" class="R"/><path d="M9.657 71.66v.283L8.4 71.186v-.283z" class="T"/><path d="M11.518 72.776l1.458-.773v.283l-1.458.773z" class="S"/><path d="M10.26 72.022l1.458-.775 1.257.755-1.458.774z" class="R"/><path d="M11.518 72.776v.283l-1.257-.756v-.28z" class="T"/><path d="M13.47 73.95l1.457-.773.001.283-1.458.773z" class="S"/><path d="M12.214 73.194l1.458-.773 1.256.755-1.457.774z" class="R"/><path d="M13.47 73.95v.283l-1.257-.756v-.283z" class="T"/><path d="M15.338 75.073l1.456-.775.002.283-1.458.773z" class="S"/><path d="M14.08 74.317l1.458-.773 1.255.753-1.457.776z" class="R"/><path d="M15.338 75.073v.28l-1.256-.754v-.283z" class="T"/><path d="M17.265 76.23l1.46-.775v.283l-1.46.773z" class="S"/><path d="M16.01 75.475l1.457-.773 1.258.753-1.46.776z" class="R"/><path d="M17.265 76.23v.28l-1.256-.754v-.283z" class="T"/><path d="M19.132 77.352l1.46-.773v.28l-1.46.775z" class="S"/><path d="M17.87 76.592l1.46-.773 1.264.76-1.46.774z" class="R"/><path d="M19.132 77.352v.283l-1.264-.76v-.283z" class="T"/><path d="M21.085 78.526l1.457-.773.002.28-1.46.773z" class="S"/><path d="M19.828 77.77l1.46-.773 1.256.755-1.457.774z" class="R"/><path d="M21.085 78.526v.28l-1.256-.754-.002-.283z" class="T"/><path d="M22.947 79.643l1.457-.773v.283l-1.457.773z" class="S"/><path d="M21.69 78.89l1.457-.775 1.258.755-1.457.774z" class="R"/><path d="M22.947 79.643v.283l-1.258-.756v-.28z" class="T"/><path d="M24.777 80.743l1.457-.773v.283l-1.457.773z" class="S"/><path d="M23.52 79.99l1.46-.775 1.256.755-1.457.774z" class="R"/><path d="M24.777 80.743v.283l-1.258-.756v-.28z" class="T"/><path d="M26.636 81.86l1.46-.774v.283l-1.46.774z" class="S"/><path d="M25.38 81.106l1.457-.773 1.258.753-1.46.775z" class="R"/><path d="M26.636 81.86v.283l-1.256-.755v-.283z" class="T"/><path d="M28.59 83.035l1.46-.775v.283l-1.46.773z" class="S"/><path d="M27.334 82.28l1.457-.772 1.258.752-1.46.776z" class="R"/><path d="M28.59 83.035v.28l-1.256-.754v-.283z" class="T"/><path d="M30.457 84.156l1.46-.773v.283l-1.46.773z" class="S"/><path d="M29.2 83.4l1.457-.773 1.258.755-1.46.774z" class="R"/><path d="M30.457 84.156v.283l-1.256-.756V83.4z" class="T"/><path d="M32.384 85.314l1.46-.773v.283l-1.46.773z" class="S"/><path d="M31.128 84.56l1.457-.775 1.258.755-1.46.774z" class="R"/><path d="M32.384 85.314v.283l-1.256-.756v-.28z" class="T"/><path d="M34.21 86.4l1.457-.773.002.283-1.46.773z" class="S"/><path d="M32.95 85.656l1.46-.775 1.256.755-1.457.774z" class="R"/><path d="M34.21 86.4v.283l-1.256-.756-.002-.28z" class="T"/><path d="M11.782 70.534l1.458-.773v.28l-1.458.775z" class="S"/><path d="M10.526 69.778l1.458-.773 1.257.755-1.458.774z" class="R"/><path d="M11.782 70.534v.283l-1.257-.756v-.283z" class="T"/><path d="M13.643 71.65l1.458-.773v.283l-1.458.773z" class="S"/><path d="M12.386 70.897l1.458-.775 1.257.755-1.458.774z" class="R"/><path d="M13.643 71.65v.283l-1.257-.756v-.28z" class="T"/><path d="M15.595 72.825l1.457-.773.002.283-1.46.773z" class="S"/><path d="M14.34 72.07l1.458-.773 1.255.755-1.457.774z" class="R"/><path d="M15.595 72.825v.283l-1.256-.756v-.283z" class="T"/><path d="M17.462 73.948l1.457-.775v.283l-1.46.773z" class="S"/><path d="M16.207 73.192l1.457-.773 1.256.753-1.457.776z" class="R"/><path d="M17.462 73.948v.28l-1.256-.754v-.283z" class="T"/><path d="M19.4 75.106l1.46-.775v.283l-1.46.773z" class="S"/><path d="M18.134 74.35l1.457-.773 1.258.753-1.46.776z" class="R"/><path d="M19.4 75.106v.28l-1.256-.754v-.283z" class="T"/><path d="M21.257 76.227l1.46-.773v.28l-1.46.775z" class="S"/><path d="M19.994 75.467l1.46-.773 1.264.76-1.46.774z" class="R"/><path d="M21.257 76.227v.283l-1.264-.76v-.283z" class="T"/><path d="M23.2 77.4l1.457-.773.002.28-1.46.773z" class="S"/><path d="M21.953 76.645l1.46-.773 1.256.755-1.457.774z" class="R"/><path d="M23.2 77.4v.28l-1.256-.754-.002-.283z" class="T"/><path d="M25.072 78.518l1.457-.773v.283l-1.457.773z" class="S"/><path d="M23.814 77.764l1.457-.775 1.258.755-1.457.774z" class="R"/><path d="M25.072 78.518v.283l-1.258-.756v-.28z" class="T"/><path d="M26.902 79.618l1.457-.773v.283l-1.457.773z" class="S"/><path d="M25.644 78.864l1.46-.775 1.256.755-1.457.774z" class="R"/><path d="M26.902 79.618v.283l-1.258-.756v-.28z" class="T"/><path d="M28.76 80.737l1.46-.775v.283l-1.46.773z" class="S"/><path d="M27.505 79.98l1.457-.773 1.258.753-1.46.776z" class="R"/><path d="M28.76 80.737v.28l-1.256-.754v-.283z" class="T"/><path d="M30.714 81.9l1.46-.774v.283l-1.46.772z" class="S"/><path d="M29.46 81.155l1.457-.773 1.258.753-1.46.775z" class="R"/><path d="M30.714 81.9v.28l-1.256-.755v-.28z" class="T"/><path d="M32.582 83.03l1.46-.773v.283l-1.46.773z" class="S"/><path d="M31.326 82.275l1.457-.772 1.258.754-1.46.774z" class="R"/><path d="M32.582 83.03v.283l-1.256-.756v-.283z" class="T"/><path d="M34.51 84.19l1.46-.773v.283l-1.46.773z" class="S"/><path d="M33.253 83.435l1.457-.775 1.258.755-1.46.774z" class="R"/><path d="M34.51 84.19v.283l-1.256-.756v-.28z" class="T"/><path d="M36.334 85.285l1.457-.773.002.283-1.46.773z" class="S"/><path d="M35.076 84.53l1.46-.775 1.256.755-1.457.774z" class="R"/><path d="M36.334 85.285v.283l-1.256-.756-.002-.28z" class="T"/><path d="M6.266 74.46l1.458-.775v.275l-1.458.773z" class="S"/><path d="M5.008 73.705l1.458-.773 1.258.753-1.458.776z" class="R"/><path d="M6.266 74.46v.273L5.01 73.98l-.001-.274z" class="T"/><path d="M8.034 75.524l1.458-.775v.275l-1.458.773z" class="S"/><path d="M6.777 74.768l1.458-.773 1.257.753-1.458.776z" class="R"/><path d="M8.034 75.524v.273l-1.257-.753v-.276z" class="T"/><path d="M9.895 76.64l1.458-.773v.273l-1.458.775z" class="S"/><path d="M8.638 75.885l1.458-.773 1.257.755-1.458.774z" class="R"/><path d="M9.895 76.64v.275l-1.257-.755v-.276z" class="T"/><path d="M25.453 85.96l1.46-.773v.273l-1.46.775z" class="S"/><path d="M24.195 85.204l1.46-.773 1.258.755-1.46.774z" class="R"/><path d="M25.453 85.96v.275l-1.256-.755-.002-.276z" class="T"/><path d="M27.222 87.023l1.457-.773v.273l-1.457.775z" class="S"/><path d="M25.964 86.267l1.46-.773 1.255.755-1.457.774z" class="R"/><path d="M27.222 87.023v.275l-1.258-.755v-.276z" class="T"/><path d="M29.082 88.14l1.46-.773v.275l-1.46.773z" class="S"/><path d="M27.826 87.386l1.457-.775 1.258.755-1.46.774z" class="R"/><path d="M29.082 88.14v.275l-1.256-.755v-.274z" class="T"/><path d="M23.466 84.806l1.46-.773v.275l-1.46.773z" class="S"/><path d="M10.572 77.06l1.458-.773 12.895 7.747-1.46.773z" class="R"/><path d="M23.466 84.806v.275l-12.894-7.747v-.275z" class="T"/><path d="M.742 73.164l29.4 17.67v3.205" class="U V b c"/></g></svg>