<svg xmlns="http://www.w3.org/2000/svg" xmlns:xlink="http://www.w3.org/1999/xlink" viewBox="0 0 103.97 103.382"><style><![CDATA[.S{fill:#fefefe}.T{fill:#231f20}.U{fill:#626366}.V{fill:none}.W{stroke-linejoin:round}.X{stroke:#626366}.Y{fill:#898b8e}.Z{fill:#bbbdbf}.a{fill:#b3b5b7}.b{stroke-width:3}.c{stroke-linecap:round}.d{stroke:#e1e2e3}]]></style><g transform="translate(1)"><g class="V W X b"><path d="M16.8 38.037L49.084 20.9l.025 34.96-32.284 17.136z"/><path d="M.5 28.242l32.283-17.136 16.3 9.795L16.8 38.037z"/><path d="M16.8 38.037l.024 34.96L.524 63.2.5 28.242z"/></g><path d="M16.8 38.038l32.283-17.136.025 34.958-32.284 17.137z" class="Y"/><path d="M.5 28.243l32.283-17.137 16.3 9.795L16.8 38.037z" class="Z"/><path d="M16.8 38.038l.024 34.96-16.3-9.795L.5 28.244z" class="a"/><path d="M1.002 28.274l15.936 9.577v34.996" stroke="#dfe0df" stroke-width=".75" class="V W c"/><path d="M14.658 45.228L2.302 37.804v-4.64l12.356 7.424zm0 4.44L2.302 42.244V39.62l12.356 7.424zm0 13.752L2.302 55.996v-1.212l12.356 7.425zm0 2.7L2.302 58.687v-1.2L14.658 64.9zm0 2.83L2.302 61.514v-1.2l12.356 7.424z" class="S"/><g class="V W X b"><path d="M77.718 82.545l11.71-6.215.003 3.297-11.7 6.217z"/><path d="M47.82 64.58l11.71-6.215 29.9 17.965-11.71 6.215z"/><path d="M77.718 82.545l.002 3.3-29.9-17.967V64.58z"/></g><path d="M77.718 82.545l11.71-6.215.003 3.297-11.7 6.217z" class="Y"/><path d="M47.82 64.58l11.71-6.215 29.9 17.965-11.71 6.215z" class="Z"/><path d="M77.718 82.545l.002 3.3-29.9-17.967V64.58z" class="a"/><g class="V W"><path d="M48.06 64.614l29.4 17.67v3.205" class="c d"/><g stroke-width="2.668" class="X"><path d="M96.414 36.83l5.186-2.753.036 50.778L96.45 87.6z"/><path d="M41.92 4.088l5.187-2.754L101.6 34.078l-5.186 2.753z"/><path d="M96.414 36.83l.035 50.78-54.494-32.744-.036-50.778z"/></g></g><path d="M96.412 36.83l5.187-2.753.036 50.778L96.45 87.6z" class="Y"/><path d="M41.92 4.088l5.186-2.754L101.6 34.078l-5.188 2.753z" class="Z"/><path d="M96.412 36.83l.037 50.78-54.495-32.744-.035-50.778z" class="a"/><path d="M93.56 81.903L43.896 51.698V8.783L93.56 38.985z" class="S"/><g transform="translate(28 3.383)"><path d="M47.134 27.198L63.617 37.1l.092 9.216s-.293-6.608-5.193-10.75c-6.256-5.286-11.382-8.368-11.382-8.368" fill="#c4cace"/><g class="V"><path d="M14.554 52.532l53.9 32.38" stroke="#636466" stroke-width="1.156"/><path d="M14.378.875L68.393 33.33l.037 50.465" stroke-width=".889" class="W c d"/></g><g transform="translate(74 64)"><defs><filter id="A" filterUnits="userSpaceOnUse" x="-.369" y=".723" width="1.29" height="13.342"><feColorMatrix values="1 0 0 0 0 0 1 0 0 0 0 0 1 0 0 0 0 0 1 0"/></filter><path id="B" d="M12.45 75.442l1.46-.773 1.256.753-1.457.776z"/><path id="C" d="M21.316 80.768l1.46-.773v.283l-1.46.773z"/><path id="D" d="M20.06 80.014l1.457-.775 1.258.755-1.46.774z"/></defs><mask maskUnits="userSpaceOnUse" x="-.369" y=".723" width="1.29" height="13.342" id="E"><g filter="url(#A)"><path d="M.276.723H.97v13.342H.276z" fill="#fff"/></g></mask><path d="M.276.723v13.342" mask="url(#E)" stroke="#636466" stroke-width="1.29" class="V"/></g><path d="M48.926 90.78s1.375-.734 2.5-.766 2.516.64 2.516.64 1.375.734 2.046 1.437.72.985.766 1.235.03.828-.047.953-7.75 4.094-7.75 4.094-.453.203-1.187.093-2-1-2.407-1.578-.375-1.468-.375-1.468.016-1.047 1.39-2.6c.906-1.094 2.547-2.03 2.547-2.03z" class="V W X b"/><path d="M48.926 90.78s1.375-.734 2.5-.766 2.516.64 2.516.64 1.377.734 2.046 1.437.72.985.766 1.235.03.828-.047.953-7.75 4.094-7.75 4.094-.453.203-1.187.093-2-1-2.407-1.578-.375-1.468-.375-1.468.016-1.047 1.39-2.6c.906-1.094 2.547-2.03 2.547-2.03" class="Z"/><path d="M49.127 98.07c.012-.1.89-2.55 3.768-4.107 2.884-1.518 3.548.12 3.5-.223l-.006.547-7.19 3.836" class="Y"/><path d="M46.832 96.506c.187-.75 1.266-2.39 1.992-3.14s1.36-1.242 2.46-1.804 2.438-.985 3.094-.657 1.57 1.15 1.945 1.64.28 1.008.28 1.008-1.382-.47-2.203-.188-2.133.938-2.976 1.758-1.172 1.9-1.758 2.578-1.71.774-1.71.774-1.148-.235-1.266-.446-.046-.773.14-1.523" class="a"/><path d="M48.738 93.864l-.504-.303c-.918.996-1.445 1.975-1.7 2.524l.506.302c.252-.548.78-1.53 1.697-2.523" fill="#e1e2e3"/><g class="V W X b"><path d="M30.77 91.095l11.71-6.215v3.297l-11.71 6.217z"/><path d="M.87 73.13l11.71-6.217 29.9 17.966-11.71 6.215z"/><path d="M30.77 91.095l.002 3.3-29.9-17.966L.87 73.13z"/></g><path d="M30.77 91.095l11.71-6.215v3.297l-11.71 6.217z" class="Y"/><path d="M.87 73.13l11.71-6.217 29.9 17.966-11.71 6.215z" class="Z"/><path d="M30.77 91.095l.002 3.3-29.9-17.966L.87 73.13z" class="a"/><path d="M8.027 72.784l1.46-.773v.28l-1.46.775z" class="T"/><path d="M6.77 72.028l1.457-.773L9.486 72l-1.46.774z" class="S"/><path d="M8.027 72.784v.283L6.77 72.31v-.283z" class="U"/><path d="M9.888 73.9l1.457-.773v.283l-1.457.773z" class="T"/><path d="M8.63 73.147l1.46-.775 1.256.755-1.457.774z" class="S"/><path d="M9.888 73.9v.283l-1.258-.756v-.28z" class="U"/><path d="M11.84 75.075l1.457-.773v.283l-1.457.773z" class="T"/><path d="M10.583 74.32l1.46-.773 1.256.755-1.457.774z" class="S"/><path d="M11.84 75.075v.283l-1.258-.756v-.283z" class="U"/><path d="M13.708 76.198l1.457-.775v.283l-1.457.773z" class="T"/><use xlink:href="#B" class="S"/><path d="M13.708 76.198v.28l-1.258-.754v-.283z" class="U"/><path d="M15.636 77.356l1.457-.775v.283l-1.457.773z" class="T"/><use xlink:href="#B" x="1.928" y="1.158" class="S"/><path d="M15.636 77.356v.28l-1.258-.754V76.6z" class="U"/><path d="M17.503 78.477l1.457-.773v.28l-1.457.775z" class="T"/><path d="M16.24 77.717l1.457-.773 1.264.76-1.458.774z" class="S"/><path d="M17.503 78.477v.283L16.24 78v-.283z" class="U"/><path d="M19.456 79.65l1.457-.773v.28l-1.457.773z" class="T"/><path d="M18.198 78.895l1.46-.773 1.255.755-1.456.774z" class="S"/><path d="M19.456 79.65v.28l-1.258-.754v-.283z" class="U"/><use xlink:href="#C" class="T"/><use xlink:href="#D" class="S"/><path d="M21.316 80.768v.283l-1.256-.756v-.28z" class="U"/><path d="M23.146 81.87l1.46-.774v.283l-1.46.772z" class="T"/><path d="M21.9 81.114l1.457-.775 1.258.755-1.46.775z" class="S"/><path d="M23.146 81.87v.28l-1.256-.755v-.28z" class="U"/><path d="M25.007 82.986l1.457-.773v.28l-1.457.775z" class="T"/><path d="M23.75 82.23l1.46-.772 1.256.754-1.457.774z" class="S"/><path d="M25.007 82.986v.283l-1.258-.756v-.283z" class="U"/><path d="M26.96 84.16l1.457-.775v.283l-1.457.773z" class="T"/><use xlink:href="#B" x="13.252" y="7.962" class="S"/><path d="M26.96 84.16v.28l-1.258-.754v-.283z" class="U"/><use xlink:href="#C" x="7.51" y="4.512" class="T"/><path d="M27.57 84.525l1.458-.773 1.258.755-1.46.774z" class="S"/><path d="M28.826 85.28v.283l-1.257-.756v-.283z" class="U"/><use xlink:href="#C" x="9.438" y="5.672" class="T"/><use xlink:href="#D" x="9.438" y="5.671" class="S"/><path d="M30.754 86.44v.283l-1.256-.756v-.28z" class="U"/><path d="M32.578 87.535l1.457-.773.002.283-1.46.773z" class="T"/><path d="M31.32 86.78l1.46-.775 1.256.755-1.457.774z" class="S"/><path d="M32.578 87.535v.283l-1.256-.756-.002-.28z" class="U"/><path d="M10.027 71.66l1.46-.773v.28l-1.46.775z" class="T"/><path d="M8.77 70.903l1.457-.773 1.258.755-1.46.774z" class="S"/><path d="M10.027 71.66v.283l-1.256-.756v-.283z" class="U"/><path d="M11.888 72.776l1.457-.773v.283l-1.457.773z" class="T"/><path d="M10.63 72.022l1.46-.775 1.256.755-1.457.774z" class="S"/><path d="M11.888 72.776v.283l-1.258-.756v-.28z" class="U"/><path d="M13.84 73.95l1.457-.773v.283l-1.457.773z" class="T"/><path d="M12.583 73.194l1.46-.773 1.256.755-1.457.774z" class="S"/><path d="M13.84 73.95v.283l-1.258-.756v-.283z" class="U"/><path d="M15.708 75.073l1.457-.775v.283l-1.457.773z" class="T"/><use xlink:href="#B" x="2" y="-1.125" class="S"/><path d="M15.708 75.073v.28L14.45 74.6v-.283z" class="U"/><path d="M17.636 76.23l1.457-.775v.283l-1.457.773z" class="T"/><use xlink:href="#B" x="3.928" y="0.033" class="S"/><path d="M17.636 76.23v.28l-1.258-.754v-.283z" class="U"/><path d="M19.503 77.352l1.457-.773v.28l-1.457.775z" class="T"/><path d="M18.24 76.592l1.457-.773 1.264.76-1.458.774z" class="S"/><path d="M19.503 77.352v.283l-1.264-.76v-.283z" class="U"/><path d="M21.456 78.526l1.457-.773v.28l-1.457.773z" class="T"/><path d="M20.198 77.77l1.46-.773 1.255.755-1.456.774z" class="S"/><path d="M21.456 78.526v.28l-1.258-.754v-.283z" class="U"/><use xlink:href="#C" x="2" y="-1.125" class="T"/><use xlink:href="#D" x="2" y="-1.124" class="S"/><path d="M23.316 79.643v.283l-1.256-.756v-.28z" class="U"/><use xlink:href="#C" x="3.83" y="-0.025" class="T"/><use xlink:href="#D" x="3.84" y="-0.024" class="S"/><path d="M25.146 80.743v.283L23.9 80.27v-.28z" class="U"/><path d="M27.007 81.86l1.457-.774v.283l-1.457.774z" class="T"/><path d="M25.75 81.106l1.46-.773 1.256.753-1.457.775z" class="S"/><path d="M27.007 81.86v.283l-1.258-.755v-.283z" class="U"/><path d="M28.96 83.035l1.46-.775v.283l-1.46.773z" class="T"/><path d="M27.702 82.28l1.458-.772 1.258.752-1.46.776z" class="S"/><path d="M28.96 83.035v.28l-1.257-.754v-.283z" class="U"/><use xlink:href="#C" x="9.51" y="3.388" class="T"/><path d="M29.57 83.4l1.458-.773 1.257.755-1.46.774z" class="S"/><path d="M30.826 84.156v.283l-1.256-.756V83.4z" class="U"/><use xlink:href="#C" x="11.438" y="4.546" class="T"/><use xlink:href="#D" x="11.438" y="4.546" class="S"/><path d="M32.754 85.314v.283l-1.256-.756v-.28z" class="U"/><path d="M34.578 86.4l1.457-.773.002.283-1.46.773z" class="T"/><path d="M33.32 85.656l1.46-.775 1.256.755-1.457.774z" class="S"/><path d="M34.578 86.4v.283l-1.256-.756-.002-.28z" class="U"/><path d="M12.152 70.534l1.46-.773v.28l-1.46.775z" class="T"/><path d="M10.896 69.778l1.457-.773 1.258.755-1.46.774z" class="S"/><path d="M12.152 70.534v.283l-1.256-.756v-.283z" class="U"/><path d="M14.013 71.65l1.457-.773v.283l-1.457.773z" class="T"/><path d="M12.755 70.897l1.46-.775 1.256.755-1.457.774z" class="S"/><path d="M14.013 71.65v.283l-1.258-.756v-.28z" class="U"/><path d="M15.966 72.825l1.457-.773v.283l-1.457.773z" class="T"/><path d="M14.708 72.07l1.46-.773 1.256.755-1.457.774z" class="S"/><path d="M15.966 72.825v.283l-1.258-.756v-.283z" class="U"/><path d="M17.833 73.948l1.457-.775v.283l-1.457.773z" class="T"/><use xlink:href="#B" x="4.125" y="-2.25" class="S"/><path d="M17.833 73.948v.28l-1.258-.754v-.283z" class="U"/><path d="M19.76 75.106l1.457-.775v.283l-1.457.773z" class="T"/><use xlink:href="#B" x="6.053" y="-1.092" class="S"/><path d="M19.76 75.106v.28l-1.258-.754v-.283z" class="U"/><path d="M21.628 76.227l1.457-.773v.28l-1.457.775z" class="T"/><path d="M20.365 75.467l1.457-.773 1.264.76-1.458.774z" class="S"/><path d="M21.628 76.227v.283l-1.264-.76v-.283z" class="U"/><path d="M23.58 77.4l1.457-.773v.28l-1.457.773z" class="T"/><path d="M22.323 76.645l1.46-.773 1.255.755-1.456.774z" class="S"/><path d="M23.58 77.4v.28l-1.258-.754v-.283z" class="U"/><use xlink:href="#C" x="4.124" y="-2.25" class="T"/><use xlink:href="#D" x="4.125" y="-2.25" class="S"/><path d="M25.44 78.518v.283l-1.256-.756v-.28z" class="U"/><path d="M27.27 79.618l1.458-.773v.283l-1.458.773z" class="T"/><path d="M26.015 78.864l1.457-.775 1.257.755-1.458.774z" class="S"/><path d="M27.27 79.618v.283l-1.256-.756v-.28z" class="U"/><path d="M29.13 80.737l1.46-.775v.283l-1.46.773z" class="T"/><path d="M27.874 79.98l1.458-.773 1.258.753-1.46.776z" class="S"/><path d="M29.13 80.737v.28l-1.257-.754v-.283z" class="U"/><path d="M31.084 81.9l1.46-.774v.283l-1.46.772z" class="T"/><path d="M29.828 81.155l1.457-.773 1.258.753-1.46.775z" class="S"/><path d="M31.084 81.9v.28l-1.256-.755v-.28z" class="U"/><use xlink:href="#C" x="11.634" y="2.262" class="T"/><path d="M31.695 82.275l1.458-.772 1.257.754-1.46.774z" class="S"/><path d="M32.95 83.03v.283l-1.256-.756v-.283z" class="U"/><use xlink:href="#C" x="13.564" y="3.422" class="T"/><use xlink:href="#D" x="13.563" y="3.421" class="S"/><path d="M34.88 84.19v.283l-1.256-.756v-.28z" class="U"/><path d="M36.703 85.285l1.457-.773.002.283-1.46.773z" class="T"/><path d="M35.445 84.53l1.46-.775 1.256.755-1.457.774z" class="S"/><path d="M36.703 85.285v.283l-1.256-.756-.002-.28z" class="U"/><path d="M6.636 74.46l1.457-.775v.275l-1.457.773z" class="T"/><path d="M5.378 73.705l1.457-.773 1.258.753-1.457.776z" class="S"/><path d="M6.636 74.46v.273l-1.258-.755v-.274z" class="U"/><path d="M8.404 75.524l1.46-.775v.275l-1.46.773z" class="T"/><path d="M7.148 74.768l1.457-.773 1.258.753-1.46.776z" class="S"/><path d="M8.404 75.524v.273l-1.257-.753v-.276z" class="U"/><path d="M10.265 76.64l1.457-.773v.273l-1.457.775z" class="T"/><path d="M9.007 75.885l1.46-.773 1.256.755-1.457.774z" class="S"/><path d="M10.265 76.64v.275l-1.258-.755v-.276z" class="U"/><path d="M25.823 85.96l1.458-.773v.273l-1.458.775z" class="T"/><path d="M24.566 85.204l1.457-.773 1.258.755-1.457.774z" class="S"/><path d="M25.823 85.96v.275l-1.257-.755v-.276z" class="U"/><path d="M27.59 87.023l1.458-.773v.273l-1.458.775z" class="T"/><path d="M26.335 86.267l1.457-.773 1.257.755-1.458.774z" class="S"/><path d="M27.59 87.023v.275l-1.256-.755v-.276z" class="U"/><path d="M29.45 88.14l1.46-.773v.275l-1.46.773z" class="T"/><path d="M28.195 87.386l1.458-.775 1.258.755-1.46.774z" class="S"/><path d="M29.45 88.14v.275l-1.257-.755v-.274z" class="U"/><path d="M23.837 84.806l1.457-.773v.275l-1.457.773z" class="T"/><path d="M10.943 77.06l1.457-.773 12.895 7.747-1.457.773z" class="S"/><path d="M23.837 84.806v.275l-12.895-7.747v-.275z" class="U"/><path d="M1.113 73.164l29.408 17.67v3.205" class="V W c d"/></g></g></svg>