<svg xmlns="http://www.w3.org/2000/svg" viewBox="0 0 106.016 107.776"><style><![CDATA[.X{fill:#fefefe}.Y{fill:#626366}.Z{fill:#231f20}.a{stroke-linejoin:round}.b{fill:none}.c{stroke:#626366}.d{fill:#898b8e}.e{fill:#bbbdbf}.f{fill:#b3b5b7}.g{stroke-linecap:round}.h{stroke:#636466}.i{stroke-width:3}.j{stroke:#e1e2e3}.k{stroke-width:2}]]></style><g class="a b c i"><path d="M50.348 82.546l11.71-6.215.003 3.297-11.7 6.217z"/><path d="M20.45 64.58l11.71-6.215 29.9 17.965-11.71 6.215z"/><path d="M50.348 82.546l.002 3.3-29.9-17.967V64.58z"/></g><path d="M50.348 82.546l11.71-6.215.003 3.297-11.7 6.217z" class="d"/><path d="M20.45 64.58l11.71-6.215 29.9 17.965-11.71 6.215z" class="e"/><path d="M50.348 82.546l.002 3.3-29.9-17.967V64.58z" class="f"/><g class="a b"><path d="M20.69 64.614l29.4 17.67v3.205" class="g j"/><g stroke-width="2.668" class="c"><path d="M69.045 36.83l5.185-2.753.037 50.778L69.08 87.6z"/><path d="M14.55 4.088l5.187-2.754L74.23 34.078l-5.186 2.753z"/><path d="M69.044 36.83l.035 50.78-54.493-32.744-.037-50.778z"/></g></g><path d="M69.043 36.83l5.186-2.753.037 50.778L69.08 87.6z" class="d"/><path d="M14.55 4.088l5.186-2.754L74.23 34.078l-5.188 2.753z" class="e"/><path d="M69.043 36.83l.036 50.78-54.494-32.744-.035-50.778z" class="f"/><path d="M66.19 81.903L16.526 51.698V8.783L66.19 38.985z" class="X"/><path d="M47.764 30.58l16.483 9.902.092 9.216s-.293-6.608-5.193-10.75C52.9 33.663 47.764 30.58 47.764 30.58" fill="#c4cace"/><g class="b"><path d="M15.184 55.915l53.9 32.38" stroke-width="1.156" class="h"/><path d="M15.008 4.258l54.015 32.455.037 50.465" stroke-width=".889" class="a g j"/><path d="M74.906,68.106v13.342" stroke-width="1.29" class="h"/><path d="M49.556 94.163s1.375-.734 2.5-.766 2.516.64 2.516.64 1.375.734 2.046 1.437.72.985.766 1.235.03.828-.047.953-7.75 4.094-7.75 4.094-.453.203-1.187.093-2-1-2.407-1.578-.375-1.468-.375-1.468.016-1.047 1.39-2.6c.906-1.094 2.547-2.03 2.547-2.03z" class="a c i"/></g><path d="M49.556 94.163s1.375-.734 2.5-.766 2.516.64 2.516.64 1.377.734 2.046 1.437.72.985.766 1.235.03.828-.047.953-7.75 4.094-7.75 4.094-.453.203-1.187.093-2-1-2.407-1.578-.375-1.468-.375-1.468.016-1.047 1.39-2.6c.906-1.094 2.547-2.03 2.547-2.03" class="e"/><path d="M49.757 101.452c.012-.1.89-2.55 3.768-4.107 2.884-1.518 3.548.12 3.5-.223l-.006.547-7.19 3.836" class="d"/><path d="M47.462 99.89c.187-.75 1.266-2.39 1.992-3.14s1.36-1.242 2.46-1.804 2.438-.985 3.094-.657 1.57 1.15 1.945 1.64.28 1.008.28 1.008-1.382-.47-2.203-.188-2.133.938-2.976 1.758-1.172 1.9-1.758 2.578-1.71.774-1.71.774-1.148-.235-1.266-.446-.046-.773.14-1.523" class="f"/><path d="M49.37 97.247l-.504-.303c-.918.996-1.445 1.975-1.7 2.524l.506.302c.252-.548.78-1.53 1.697-2.523" fill="#e1e2e3"/><g class="a b c i"><path d="M31.4 94.478l11.71-6.215v3.297l-11.71 6.217z"/><path d="M1.5 76.514l11.71-6.217 29.9 17.966-11.71 6.215z"/><path d="M31.4 94.478l.002 3.3-29.9-17.966-.002-3.297z"/></g><path d="M31.4 94.478l11.71-6.215v3.297l-11.71 6.217z" class="d"/><path d="M1.5 76.514l11.71-6.217 29.9 17.966-11.71 6.215z" class="e"/><path d="M31.4 94.478l.002 3.3-29.9-17.966-.002-3.297z" class="f"/><path d="M8.657 76.167l1.458-.773v.28l-1.458.775z" class="Z"/><path d="M7.4 75.41l1.458-.773 1.257.755-1.458.774z" class="X"/><path d="M8.657 76.167v.283L7.4 75.694v-.283z" class="Y"/><path d="M10.518 77.284l1.458-.773v.283l-1.458.773z" class="Z"/><path d="M9.26 76.53l1.458-.775 1.257.755-1.458.774z" class="X"/><path d="M10.518 77.284v.283L9.26 76.81v-.28z" class="Y"/><path d="M12.47 78.458l1.457-.773.001.283-1.458.773z" class="Z"/><path d="M11.214 77.702l1.458-.773 1.256.755-1.457.774z" class="X"/><path d="M12.47 78.458v.283l-1.257-.756v-.283z" class="Y"/><path d="M14.338 79.58l1.457-.775.001.283-1.458.773z" class="Z"/><path d="M13.08 78.825l1.458-.773 1.256.753-1.457.776z" class="X"/><path d="M14.338 79.58v.28l-1.257-.754v-.283z" class="Y"/><path d="M16.266 80.74l1.458-.775v.283l-1.458.773z" class="Z"/><path d="M15.01 79.983l1.458-.773 1.257.753-1.458.776z" class="X"/><path d="M16.266 80.74v.28l-1.257-.754v-.283z" class="Y"/><path d="M18.132 81.86l1.46-.773v.28l-1.46.775z" class="Z"/><path d="M16.87 81.1l1.46-.773 1.264.76-1.46.774z" class="X"/><path d="M18.132 81.86v.283l-1.264-.76V81.1z" class="Y"/><path d="M20.086 83.034l1.456-.773.003.28-1.46.773z" class="Z"/><path d="M18.828 82.278l1.46-.773 1.256.755-1.457.774z" class="X"/><path d="M20.086 83.034v.28l-1.256-.754-.003-.283z" class="Y"/><path d="M21.947 84.15l1.457-.773v.283l-1.457.773z" class="Z"/><path d="M20.69 83.397l1.457-.775 1.258.755-1.457.774z" class="X"/><path d="M21.947 84.15v.283l-1.258-.756v-.28z" class="Y"/><path d="M23.777 85.252l1.457-.774v.283l-1.457.772z" class="Z"/><path d="M22.52 84.497l1.46-.775 1.256.755-1.457.775z" class="X"/><path d="M23.777 85.252v.28l-1.258-.755v-.28z" class="Y"/><path d="M25.636 86.37l1.46-.773v.28l-1.46.775z" class="Z"/><path d="M24.38 85.613l1.457-.772 1.258.754-1.46.774z" class="X"/><path d="M25.636 86.37v.283l-1.256-.756v-.283z" class="Y"/><path d="M27.59 87.543l1.46-.775v.283l-1.46.773z" class="Z"/><path d="M26.333 86.787l1.458-.773 1.258.753-1.46.776z" class="X"/><path d="M27.59 87.543v.28l-1.256-.754v-.283z" class="Y"/><path d="M29.457 88.664l1.46-.773v.283l-1.46.773z" class="Z"/><path d="M28.2 87.908l1.457-.773 1.258.755-1.46.774z" class="X"/><path d="M29.457 88.664v.283L28.2 88.19v-.283z" class="Y"/><path d="M31.384 89.822l1.46-.773v.283l-1.46.773z" class="Z"/><path d="M30.128 89.068l1.457-.775 1.258.755-1.46.774z" class="X"/><path d="M31.384 89.822v.283l-1.256-.756v-.28z" class="Y"/><path d="M33.208 90.918l1.458-.773.001.283-1.46.773z" class="Z"/><path d="M31.95 90.164l1.46-.775 1.256.755-1.457.774z" class="X"/><path d="M33.208 90.918v.283l-1.256-.756-.001-.28z" class="Y"/><path d="M10.657 75.042l1.458-.773v.28l-1.458.775z" class="Z"/><path d="M9.4 74.286l1.458-.773 1.257.755-1.458.774z" class="X"/><path d="M10.657 75.042v.283L9.4 74.57v-.283z" class="Y"/><path d="M12.518 76.16l1.458-.773v.283l-1.458.773z" class="Z"/><path d="M11.26 75.405l1.458-.775 1.257.755-1.458.774z" class="X"/><path d="M12.518 76.16v.283l-1.257-.756v-.28z" class="Y"/><path d="M14.47 77.333l1.457-.773.001.283-1.458.773z" class="Z"/><path d="M13.214 76.577l1.458-.773 1.256.755-1.457.774z" class="X"/><path d="M14.47 77.333v.283l-1.257-.756v-.283z" class="Y"/><path d="M16.337 78.456l1.457-.775.002.283-1.46.773z" class="Z"/><path d="M15.08 77.7l1.458-.773 1.255.753-1.457.776z" class="X"/><path d="M16.337 78.456v.28l-1.256-.754V77.7z" class="Y"/><path d="M18.265 79.614l1.46-.775v.283l-1.46.773z" class="Z"/><path d="M17.01 78.858l1.457-.773 1.258.753-1.46.776z" class="X"/><path d="M18.265 79.614v.28l-1.256-.754v-.283z" class="Y"/><path d="M20.132 80.735l1.46-.773v.28l-1.46.775z" class="Z"/><path d="M18.87 79.975l1.46-.773 1.264.76-1.46.774z" class="X"/><path d="M20.132 80.735v.283l-1.264-.76v-.283z" class="Y"/><path d="M22.086 81.91l1.456-.773.003.28-1.46.773z" class="Z"/><path d="M20.828 81.153l1.46-.773 1.256.755-1.457.774z" class="X"/><path d="M22.086 81.91v.28l-1.256-.754-.003-.283z" class="Y"/><path d="M23.947 83.026l1.457-.773v.283l-1.457.773z" class="Z"/><path d="M22.69 82.272l1.457-.775 1.258.755-1.457.774z" class="X"/><path d="M23.947 83.026v.283l-1.258-.756v-.28z" class="Y"/><path d="M25.777 84.126l1.457-.773v.283l-1.457.773z" class="Z"/><path d="M24.52 83.372l1.46-.775 1.256.755-1.457.774z" class="X"/><path d="M25.777 84.126v.283l-1.258-.756v-.28z" class="Y"/><path d="M27.636 85.244l1.46-.774v.283l-1.46.774z" class="Z"/><path d="M26.38 84.49l1.457-.773 1.258.753-1.46.775z" class="X"/><path d="M27.636 85.244v.283l-1.256-.755v-.283z" class="Y"/><path d="M29.59 86.418l1.46-.775v.283l-1.46.773z" class="Z"/><path d="M28.333 85.662l1.458-.772 1.258.752-1.46.776z" class="X"/><path d="M29.59 86.418v.28l-1.256-.754v-.283z" class="Y"/><path d="M31.457 87.54l1.46-.773v.283l-1.46.773z" class="Z"/><path d="M30.2 86.783L31.658 86l1.258.755-1.46.774z" class="X"/><path d="M31.457 87.54v.283l-1.256-.756v-.283z" class="Y"/><path d="M33.384 88.697l1.46-.773v.283l-1.46.773z" class="Z"/><path d="M32.128 87.943l1.457-.775 1.258.755-1.46.774z" class="X"/><path d="M33.384 88.697v.283l-1.256-.756v-.28z" class="Y"/><path d="M35.208 89.793l1.458-.773.001.283-1.46.773z" class="Z"/><path d="M33.95 89.04l1.46-.775 1.256.755-1.457.774z" class="X"/><path d="M35.208 89.793v.283l-1.256-.756-.001-.28z" class="Y"/><path d="M12.782 73.917l1.458-.773v.28l-1.458.775z" class="Z"/><path d="M11.525 73.16l1.458-.773 1.257.755-1.458.774z" class="X"/><path d="M12.782 73.917v.283l-1.257-.756v-.283z" class="Y"/><path d="M14.643 75.034l1.458-.773v.283l-1.458.773z" class="Z"/><path d="M13.386 74.28l1.458-.775 1.257.755-1.458.774z" class="X"/><path d="M14.643 75.034v.283l-1.257-.756v-.28z" class="Y"/><path d="M16.595 76.208l1.457-.773.002.283-1.46.773z" class="Z"/><path d="M15.34 75.452l1.458-.773 1.255.755-1.457.774z" class="X"/><path d="M16.595 76.208v.283l-1.256-.756v-.283z" class="Y"/><path d="M18.462 77.33l1.457-.775v.283l-1.46.773z" class="Z"/><path d="M17.207 76.575l1.457-.773 1.256.753-1.457.776z" class="X"/><path d="M18.462 77.33v.28l-1.256-.754v-.283z" class="Y"/><path d="M20.4 78.49l1.46-.775v.283l-1.46.773z" class="Z"/><path d="M19.134 77.733l1.457-.773 1.258.753-1.46.776z" class="X"/><path d="M20.4 78.49v.28l-1.256-.754v-.283z" class="Y"/><path d="M22.257 79.6l1.46-.773v.28l-1.46.775z" class="Z"/><path d="M20.994 78.85l1.46-.773 1.264.76-1.46.774z" class="X"/><path d="M22.257 79.6v.283l-1.264-.76v-.283z" class="Y"/><path d="M24.21 80.784l1.456-.773.003.28-1.46.773z" class="Z"/><path d="M22.953 80.028l1.46-.773 1.256.755-1.457.774z" class="X"/><path d="M24.21 80.784v.28l-1.256-.754-.003-.283z" class="Y"/><path d="M26.072 81.9l1.457-.773v.283l-1.457.773z" class="Z"/><path d="M24.814 81.147l1.457-.775 1.258.755-1.457.774z" class="X"/><path d="M26.072 81.9v.283l-1.258-.756v-.28z" class="Y"/><path d="M27.902 83l1.457-.773v.283l-1.457.773z" class="Z"/><path d="M26.644 82.247l1.46-.775 1.256.755-1.457.774z" class="X"/><path d="M27.902 83v.283l-1.258-.756v-.28z" class="Y"/><path d="M29.76 84.12l1.46-.775v.283l-1.46.773z" class="Z"/><path d="M28.505 83.364l1.457-.773 1.258.753-1.46.776z" class="X"/><path d="M29.76 84.12v.28l-1.256-.754v-.283z" class="Y"/><path d="M31.714 85.293l1.46-.774v.283l-1.46.772z" class="Z"/><path d="M30.458 84.538l1.458-.773 1.258.753-1.46.775z" class="X"/><path d="M31.714 85.293v.28l-1.256-.755v-.28z" class="Y"/><path d="M33.582 86.414l1.46-.773v.283l-1.46.773z" class="Z"/><path d="M32.326 85.658l1.457-.772 1.258.754-1.46.774z" class="X"/><path d="M33.582 86.414v.283l-1.256-.756v-.283z" class="Y"/><path d="M35.51 87.572l1.46-.773v.283l-1.46.773z" class="Z"/><path d="M34.253 86.818l1.457-.775 1.258.755-1.46.774z" class="X"/><path d="M35.51 87.572v.283l-1.256-.756v-.28z" class="Y"/><path d="M37.333 88.668l1.458-.773.001.283-1.46.773z" class="Z"/><path d="M36.076 87.914l1.46-.775 1.256.755-1.457.774z" class="X"/><path d="M37.333 88.668v.283l-1.256-.756-.001-.28z" class="Y"/><path d="M7.266 77.845l1.458-.775v.275l-1.458.772z" class="Z"/><path d="M6.008 77.09l1.458-.773 1.258.753-1.458.776z" class="X"/><path d="M7.266 77.845v.272l-1.257-.754-.001-.275z" class="Y"/><path d="M9.034 78.907l1.458-.775v.275l-1.458.773z" class="Z"/><path d="M7.777 78.15l1.458-.773 1.257.753-1.458.776z" class="X"/><path d="M9.034 78.907v.273l-1.257-.753v-.276z" class="Y"/><path d="M10.895 80.024l1.458-.773v.273l-1.458.775z" class="Z"/><path d="M9.638 79.268l1.458-.773 1.257.755-1.458.774z" class="X"/><path d="M10.895 80.024v.275l-1.257-.755v-.276z" class="Y"/><path d="M26.453 89.343l1.46-.772v.272l-1.46.775z" class="Z"/><path d="M25.195 88.588l1.46-.773 1.258.755-1.46.774z" class="X"/><path d="M26.453 89.343v.275l-1.256-.754-.002-.277z" class="Y"/><path d="M28.222 90.406l1.457-.773v.273l-1.457.775z" class="Z"/><path d="M26.964 89.65l1.46-.773 1.256.755-1.457.774z" class="X"/><path d="M28.222 90.406v.275l-1.258-.755v-.276z" class="Y"/><path d="M30.082 91.523l1.46-.773v.275l-1.46.773z" class="Z"/><path d="M28.826 90.77l1.457-.775 1.258.755-1.46.774z" class="X"/><path d="M30.082 91.523v.275l-1.256-.755v-.274z" class="Y"/><path d="M24.466 88.19l1.46-.773v.275l-1.46.773z" class="Z"/><path d="M11.572 80.442l1.458-.773 12.895 7.747-1.46.773z" class="X"/><path d="M24.466 88.19v.275l-12.894-7.747v-.275z" class="Y"/><g class="a b"><path d="M1.742 76.548l29.4 17.67v3.205" class="g j"/><g class="h k"><path d="M104.222 97.317l-17.553 9.317c.478-.254.774-.84.778-1.692L105 95.625c-.001.85-.3 1.44-.777 1.692zM67.197 68.032l17.554-9.317 17.985 10.806-17.554 9.32zm20.25 15.032l17.555-9.318.014 21.685-17.552 9.317z"/><path d="M84.967 78.818c1.36.815 2.46 2.797 2.462 4.44l.02 21.686c-.004 1.633-1.1 2.302-2.46 1.484L67.004 95.62c-1.36-.816-2.46-2.805-2.463-4.44l-.015-21.686c-.001-1.64 1.1-2.3 2.458-1.484l17.983 10.807z"/></g></g><path d="M84.967 78.818l17.555-9.318c1.36.816 2.455 2.8 2.462 4.44L87.43 83.257c-.003-1.642-1.1-3.624-2.462-4.44z" fill="#636466" class="a h k"/><path d="M65.512 67.823l17.554-9.317c.44-.234 1.032-.18 1.684.21l-17.553 9.317c-.653-.4-1.244-.44-1.685-.21" class="b h k"/><path d="M66.693 68.032l17.553-9.317L102.23 69.52l-17.555 9.32z" class="f"/><path d="M87.137 83.28l17.555-9.318.015 21.685-17.553 9.317z" class="d"/><path d="M86.43 104.525l-.017-21.684c0-1.156-.774-2.554-1.734-3.13L66.694 68.905c-.958-.575-1.73-.107-1.73 1.048l.016 21.684c0 1.152.775 2.55 1.734 3.13l17.984 10.806c.957.574 1.732.105 1.732-1.048zM84.676 78.84c1.36.815 2.46 2.797 2.462 4.44l.017 21.686c-.002 1.633-1.1 2.3-2.458 1.484L66.713 95.642c-1.36-.818-2.46-2.806-2.463-4.44l-.015-21.686c-.001-1.64 1.1-2.3 2.458-1.484L84.676 78.84z" fill="#636466"/><path d="M84.677 79.712c.96.575 1.734 1.975 1.734 3.13l.017 21.684c0 1.15-.774 1.622-1.732 1.048L66.712 94.768c-.96-.58-1.734-1.978-1.734-3.13l-.016-21.684c0-1.156.773-1.624 1.73-1.05l17.984 10.807z" fill="#f5f6f6"/><path d="M84.676 78.84l17.555-9.318c1.36.816 2.455 2.8 2.462 4.44l-17.555 9.316c-.003-1.642-1.1-3.624-2.462-4.44zM65.008 67.823l17.554-9.317c.44-.234 1.032-.18 1.684.2l-17.553 9.317c-.653-.4-1.244-.44-1.685-.2" class="e"/><path d="M103.93 97.338l-17.553 9.317c.478-.254.774-.84.778-1.692l17.552-9.317c-.001.85-.3 1.44-.777 1.692z" fill="#787a7d"/><path d="M77.68 87.986c0 1.48-1.06 2.04-2.368 1.255s-2.368-2.623-2.368-4.102 1.06-2.042 2.368-1.255 2.368 2.623 2.368 4.102" class="Y"/><path d="M75.308,87.706v9.665" stroke-width="1.854" class="a b c g"/><path d="M76.692 86.73c0 .347-.25.48-.558.294a1.25 1.25 0 0 1-.553-.961c0-.347.248-.48.553-.295s.558.615.558.962" class="X"/><path d="M81.187 90.26c-.418-3.54-2.914-7.57-5.938-9.4-2.992-1.797-5.465-.807-5.922 2.154m14.488 6.43l-.24-.844c-1.35-4.4-4.492-8.802-8.156-11.006-3.87-2.325-7.154-1.498-8.367 1.68" stroke-width="1.246" class="a b c g"/></svg>