<svg xmlns="http://www.w3.org/2000/svg" xmlns:xlink="http://www.w3.org/1999/xlink" width="105" height="107"><style><![CDATA[.B{fill:#fff}.C{fill:#231f20}.D{fill:#fefefe}.E{stroke-linejoin:round}.F{fill:#626366}.G{stroke:#636466}.H{stroke-width:2}.I{stroke-linecap:round}.J{fill:#898b8e}.K{fill:#b3b5b7}.L{stroke:#626366}.M{fill:#bbbdbf}.N{stroke-width:3}.O{stroke:#e1e2e3}.P{fill:#e0e1e2}.Q{fill:#636466}.R{stroke-width:2.668}]]></style><defs><path d="M1.17 9.44C.845 9.61.644 10 .644 10.6l16.873-8.957c-.001-.577.2-.978.522-1.15L1.17 9.44" id="A"/><path d="M.612 9.826c.442.263.84.297 1.14.14L18.622 1c-.296.158-.698.123-1.14-.14" id="B"/><path d="M17.04.484L.17 9.44c.297-.157.697-.122 1.14.142L18.18.626c-.268-.16-.52-.237-.745-.237-.146 0-.28.033-.397.095" id="C"/><path d="M17.56.585L.69 9.54c.424-.223.992-.174 1.62.202L19.18.787C18.8.56 18.44.45 18.123.45a1.19 1.19 0 0 0-.563.134" id="D"/><path d="M1.277 9.818c0 .576-.203.975-.526 1.147L17.622 2c.324-.173.524-.57.524-1.147" id="E"/><path d="M.975 9.238c-.003.818-.288 1.382-.747 1.627L17.1 1.91c.46-.242.746-.81.746-1.626" id="F"/><path d="M.594 8.97c.922.552 1.666 1.897 1.666 3.007L19.134 3.02c-.004-1.11-.75-2.454-1.67-3.008" id="G"/><path d="M.592 9.13c1.308.784 2.363 2.69 2.367 4.267L19.83 4.442c-.005-1.577-1.06-3.484-2.366-4.27" id="H"/><path d="M.38 9.45c0 1.107.745 2.45 1.666 3.008l16.872-8.954c-.922-.557-1.666-1.902-1.67-3.01" id="I"/><path d="M.888 9.46c-.323.172-.525.57-.525 1.15l16.874-8.955c-.002-.578.2-.978.523-1.15L.888 9.46" id="J"/><path d="M.332 9.846c.44.264.84.297 1.14.14l16.87-8.954c-.296.157-.698.122-1.14-.14" id="K"/><path d="M17.76.505L.888 9.46c.298-.157.7-.123 1.14.14L18.9.645c-.267-.16-.52-.236-.743-.236a.83.83 0 0 0-.397.096" id="L"/><path d="M17.28.606L.408 9.56c.424-.223.993-.174 1.62.202L18.9.808C18.52.58 18.16.47 17.843.47c-.207 0-.396.046-.563.135" id="M"/><path d="M.997 9.838c0 .576-.204.976-.526 1.147l16.87-8.954c.324-.173.524-.57.524-1.147" id="N"/><path d="M1.695 9.258c-.003.82-.288 1.383-.747 1.628L17.82 1.93c.46-.243.746-.81.746-1.626" id="O"/><path d="M.313 8.988c.923.553 1.667 1.898 1.667 3.01L18.853 3.04c-.003-1.1-.748-2.455-1.668-3.01" id="P"/><path d="M.312 9.15c1.308.783 2.363 2.69 2.366 4.266L19.55 4.46C19.545 2.885 18.49.977 17.185.194" id="Q"/><path id="R" d="M49.348 82.546l11.71-6.215.003 3.297-11.7 6.217z"/><path id="S" d="M19.45 64.58l11.71-6.215 29.9 17.965-11.71 6.215z"/><path id="T" d="M49.348 82.546l.002 3.3-29.9-17.967V64.58z"/><path id="U" d="M30.4 94.478l11.71-6.215v3.297l-11.71 6.217z"/><path id="V" d="M.5 76.514l11.71-6.217 29.9 17.966-11.71 6.215z"/><path id="W" d="M30.4 94.478l.002 3.3L.502 79.81.5 76.514z"/><path id="X" d="M6.4 75.41l1.458-.773 1.257.755-1.458.774z"/><path id="Y" d="M8.26 76.53l1.458-.775 1.257.755-1.458.774z"/><path id="Z" d="M17.828 82.278l1.46-.773 1.256.755-1.457.774z"/><path id="a" d="M20.947 84.15l1.457-.773v.283l-1.457.773z"/><path id="b" d="M19.69 83.397l1.457-.775 1.258.755-1.457.774z"/><path id="c" d="M26.59 87.543l1.46-.775v.283l-1.46.773z"/><path id="d" d="M25.334 86.787l1.457-.773 1.258.753-1.46.776z"/><path id="e" d="M28.457 88.664l1.46-.773v.283l-1.46.773z"/><path id="f" d="M29.128 89.068l1.457-.775 1.258.755-1.46.774z"/><path id="g" d="M32.21 90.918l1.457-.773.002.283-1.46.773z"/><path id="h" d="M30.95 90.164l1.46-.775 1.256.755-1.457.774z"/></defs><g transform="translate(1)" fill="none" fill-rule="evenodd"><g class="E L N"><use xlink:href="#R"/><use xlink:href="#S"/><use xlink:href="#T"/></g><use xlink:href="#R" class="J"/><use xlink:href="#S" class="M"/><use xlink:href="#T" class="K"/><g class="E"><path d="M19.69 64.614l29.4 17.67v3.205" class="I O"/><path d="M68.045 36.83l5.186-2.753.036 50.778L68.08 87.6z" class="L R"/><g class="L R"><path d="M13.55 4.088l5.187-2.754L73.23 34.078l-5.186 2.753z"/><path d="M68.045 36.83l.035 50.78-54.494-32.744-.036-50.778z"/></g></g><path d="M68.043 36.83l5.187-2.753.036 50.778L68.08 87.6z" class="J"/><path d="M13.55 4.088l5.186-2.754L73.23 34.078l-5.188 2.753z" class="M"/><path d="M68.043 36.83l.037 50.78-54.495-32.744-.035-50.778z" class="K"/><path d="M65.19 81.903L15.526 51.698V8.783L65.19 38.985z" class="D"/><path d="M46.764 30.58l16.483 9.902.092 9.216s-.293-6.608-5.193-10.75C51.9 33.663 46.764 30.58 46.764 30.58" fill="#c4cace"/><path d="M14.184 55.915l53.9 32.38" stroke-width="1.156" class="G"/><path stroke-width=".889" d="M14.008 4.258l54.015 32.455.037 50.465" class="E I O"/><path d="M73.906 68.106v13.342" stroke-width="1.29" class="G"/><path d="M48.556 94.163s1.375-.734 2.5-.766 2.516.64 2.516.64 1.375.734 2.046 1.437.72.985.766 1.235.03.828-.047.953-7.75 4.094-7.75 4.094-.453.203-1.187.093-2-1-2.407-1.578-.375-1.468-.375-1.468.016-1.047 1.39-2.6c.906-1.094 2.547-2.03 2.547-2.03z" class="E L N"/><path d="M48.556 94.163s1.375-.734 2.5-.766 2.516.64 2.516.64 1.377.734 2.046 1.437.72.985.766 1.235.03.828-.047.953-7.75 4.094-7.75 4.094-.453.203-1.187.093-2-1-2.407-1.578-.375-1.468-.375-1.468.016-1.047 1.39-2.6c.906-1.094 2.547-2.03 2.547-2.03" class="M"/><path d="M48.757 101.452c.012-.1.89-2.55 3.768-4.107 2.884-1.518 3.548.12 3.5-.223l-.006.547-7.19 3.836" class="J"/><path d="M46.462 99.89c.187-.75 1.266-2.39 1.992-3.14s1.36-1.242 2.46-1.804 2.438-.985 3.094-.657 1.57 1.15 1.945 1.64.28 1.008.28 1.008-1.382-.47-2.203-.188-2.133.938-2.976 1.758-1.172 1.9-1.758 2.578-1.71.774-1.71.774-1.148-.235-1.266-.446-.046-.773.14-1.523" class="K"/><path d="M48.37 97.247l-.504-.303c-.918.996-1.445 1.975-1.7 2.524l.506.302c.252-.548.78-1.53 1.697-2.523" fill="#e1e2e3"/><g class="E L N"><use xlink:href="#U"/><use xlink:href="#V"/><use xlink:href="#W"/></g><use xlink:href="#U" class="J"/><use xlink:href="#V" class="M"/><use xlink:href="#W" class="K"/><path d="M7.657 76.167l1.458-.773v.28l-1.458.775z" class="C"/><use xlink:href="#X" class="D"/><path d="M7.657 76.167v.283L6.4 75.694v-.283z" class="F"/><path d="M9.518 77.284l1.458-.773v.283l-1.458.773z" class="C"/><use xlink:href="#Y" class="D"/><path d="M9.518 77.284v.283L8.26 76.81v-.28z" class="F"/><path d="M11.47 78.458l1.457-.773.001.283-1.458.773z" class="C"/><path d="M10.214 77.702l1.458-.773 1.256.755-1.457.774z" class="D"/><path d="M11.47 78.458v.283l-1.257-.756v-.283z" class="F"/><path d="M13.338 79.58l1.457-.775.001.283-1.458.773z" class="C"/><path d="M12.08 78.825l1.458-.773 1.256.753-1.457.776z" class="D"/><path d="M13.338 79.58v.28l-1.257-.754v-.283z" class="F"/><path d="M15.266 80.74l1.458-.775v.283l-1.458.773z" class="C"/><path d="M14.01 79.983l1.458-.773 1.257.753-1.458.776z" class="D"/><path d="M15.266 80.74v.28l-1.257-.754v-.283z" class="F"/><path d="M17.132 81.86l1.46-.773v.28l-1.46.775z" class="C"/><path d="M15.87 81.1l1.46-.773 1.264.76-1.46.774z" class="D"/><path d="M17.132 81.86v.283l-1.264-.76V81.1z" class="F"/><path d="M19.086 83.034l1.457-.773.002.28-1.46.773z" class="C"/><use xlink:href="#Z" class="D"/><path d="M19.086 83.034v.28l-1.256-.754-.002-.283z" class="F"/><use xlink:href="#a" class="C"/><use xlink:href="#b" class="D"/><path d="M20.947 84.15v.283l-1.258-.756v-.28z" class="F"/><path d="M22.777 85.252l1.457-.774v.283l-1.457.772z" class="C"/><path d="M21.52 84.497l1.46-.775 1.256.755-1.457.775z" class="D"/><path d="M22.777 85.252v.28l-1.258-.755v-.28z" class="F"/><path d="M24.636 86.37l1.46-.773v.28l-1.46.775z" class="C"/><path d="M23.38 85.613l1.457-.772 1.258.754-1.46.774z" class="D"/><path d="M24.636 86.37v.283l-1.256-.756v-.283z" class="F"/><use xlink:href="#c" class="C"/><use xlink:href="#d" class="D"/><path d="M26.59 87.543v.28l-1.256-.754v-.283z" class="F"/><use xlink:href="#e" class="C"/><path d="M27.2 87.908l1.457-.773 1.258.755-1.46.774z" class="D"/><path d="M28.457 88.664v.283L27.2 88.19v-.283z" class="F"/><use xlink:href="#e" x="1.927" y="1.158" class="C"/><use xlink:href="#f" class="D"/><path d="M30.384 89.822v.283l-1.256-.756v-.28z" class="F"/><use xlink:href="#g" class="C"/><use xlink:href="#h" class="D"/><path d="M32.21 90.918v.283l-1.256-.756-.002-.28z" class="F"/><path d="M9.657 75.042l1.458-.773v.28l-1.458.775z" class="C"/><use xlink:href="#X" x="2" y="-1.124" class="D"/><path d="M9.657 75.042v.283L8.4 74.57v-.283z" class="F"/><path d="M11.518 76.16l1.458-.773v.283l-1.458.773z" class="C"/><use xlink:href="#Y" x="2" y="-1.125" class="D"/><path d="M11.518 76.16v.283l-1.257-.756v-.28z" class="F"/><path d="M13.47 77.333l1.457-.773.001.283-1.458.773z" class="C"/><path d="M12.214 76.577l1.458-.773 1.256.755-1.457.774z" class="D"/><path d="M13.47 77.333v.283l-1.257-.756v-.283z" class="F"/><path d="M15.337 78.456l1.457-.775.002.283-1.46.773z" class="C"/><path d="M14.08 77.7l1.458-.773 1.255.753-1.457.776z" class="D"/><path d="M15.337 78.456v.28l-1.256-.754V77.7z" class="F"/><use xlink:href="#c" x="-9.325" y="-7.929" class="C"/><use xlink:href="#d" x="-9.324" y="-7.929" class="D"/><path d="M17.265 79.614v.28l-1.256-.754v-.283z" class="F"/><path d="M19.132 80.735l1.46-.773v.28l-1.46.775z" class="C"/><path d="M17.87 79.975l1.46-.773 1.264.76-1.46.774z" class="D"/><path d="M19.132 80.735v.283l-1.264-.76v-.283z" class="F"/><path d="M21.086 81.91l1.457-.773.002.28-1.46.773z" class="C"/><use xlink:href="#Z" x="2" y="-1.125" class="D"/><path d="M21.086 81.91v.28l-1.256-.754-.002-.283z" class="F"/><use xlink:href="#a" x="2" y="-1.124" class="C"/><use xlink:href="#b" x="2" y="-1.125" class="D"/><path d="M22.947 83.026v.283l-1.258-.756v-.28z" class="F"/><use xlink:href="#a" x="3.83" y="-0.024" class="C"/><use xlink:href="#h" x="-7.43" y="-6.792" class="D"/><path d="M24.777 84.126v.283l-1.258-.756v-.28z" class="F"/><path d="M26.636 85.244l1.46-.774v.283l-1.46.774z" class="C"/><path d="M25.38 84.49l1.457-.773 1.258.753-1.46.775z" class="D"/><path d="M26.636 85.244v.283l-1.256-.755v-.283z" class="F"/><use xlink:href="#c" x="2" y="-1.125" class="C"/><path d="M27.334 85.662l1.457-.772 1.258.752-1.46.776z" class="D"/><path d="M28.59 86.418v.28l-1.256-.754v-.283z" class="F"/><use xlink:href="#e" x="2" y="-1.124" class="C"/><path d="M29.2 86.783L30.658 86l1.258.755-1.46.774z" class="D"/><path d="M30.457 87.54v.283l-1.256-.756v-.283z" class="F"/><use xlink:href="#e" x="3.927" y="0.033" class="C"/><use xlink:href="#f" x="2" y="-1.125" class="D"/><path d="M32.384 88.697v.283l-1.256-.756v-.28z" class="F"/><use xlink:href="#g" x="2" y="-1.125" class="C"/><use xlink:href="#h" x="2" y="-1.124" class="D"/><path d="M34.21 89.793v.283l-1.256-.756-.002-.28z" class="F"/><path d="M11.782 73.917l1.458-.773v.28l-1.458.775z" class="C"/><use xlink:href="#X" x="4.125" y="-2.25" class="D"/><path d="M11.782 73.917v.283l-1.257-.756v-.283z" class="F"/><path d="M13.643 75.034l1.458-.773v.283l-1.458.773z" class="C"/><use xlink:href="#Y" x="4.126" y="-2.25" class="D"/><path d="M13.643 75.034v.283l-1.257-.756v-.28z" class="F"/><use xlink:href="#g" x="-16.615" y="-14.71" class="C"/><path d="M14.34 75.452l1.458-.773 1.255.755-1.457.774z" class="D"/><path d="M15.595 76.208v.283l-1.256-.756v-.283z" class="F"/><path d="M17.462 77.33l1.457-.775v.283l-1.46.773z" class="C"/><path d="M16.207 76.575l1.457-.773 1.256.753-1.457.776z" class="D"/><path d="M17.462 77.33v.28l-1.256-.754v-.283z" class="F"/><use xlink:href="#c" x="-7.19" y="-9.053" class="C"/><use xlink:href="#d" x="-7.2" y="-9.054" class="D"/><path d="M19.4 78.49v.28l-1.256-.754v-.283z" class="F"/><path d="M21.257 79.6l1.46-.773v.28l-1.46.775z" class="C"/><path d="M19.994 78.85l1.46-.773 1.264.76-1.46.774z" class="D"/><path d="M21.257 79.6v.283l-1.264-.76v-.283z" class="F"/><path d="M23.21 80.784l1.457-.773.002.28-1.46.773z" class="C"/><use xlink:href="#Z" x="4.125" y="-2.25" class="D"/><path d="M23.21 80.784v.28l-1.256-.754-.002-.283z" class="F"/><use xlink:href="#a" x="4.125" y="-2.25" class="C"/><use xlink:href="#b" x="4.124" y="-2.25" class="D"/><path d="M25.072 81.9v.283l-1.258-.756v-.28z" class="F"/><use xlink:href="#a" x="5.955" y="-1.15" class="C"/><use xlink:href="#h" x="-5.306" y="-7.917" class="D"/><path d="M26.902 83v.283l-1.258-.756v-.28z" class="F"/><use xlink:href="#c" x="2.17" y="-3.423" class="C"/><use xlink:href="#d" x="2.171" y="-3.423" class="D"/><path d="M28.76 84.12v.28l-1.256-.754v-.283z" class="F"/><path d="M30.714 85.293l1.46-.774v.283l-1.46.772z" class="C"/><path d="M29.46 84.538l1.457-.773 1.258.753-1.46.775z" class="D"/><path d="M30.714 85.293v.28l-1.256-.755v-.28z" class="F"/><use xlink:href="#e" x="4.125" y="-2.25" class="C"/><path d="M31.326 85.658l1.457-.772 1.258.754-1.46.774z" class="D"/><path d="M32.582 86.414v.283l-1.256-.756v-.283z" class="F"/><use xlink:href="#e" x="6.053" y="-1.092" class="C"/><use xlink:href="#f" x="4.125" y="-2.25" class="D"/><path d="M34.51 87.572v.283l-1.256-.756v-.28z" class="F"/><use xlink:href="#g" x="4.124" y="-2.25" class="C"/><use xlink:href="#h" x="4.126" y="-2.25" class="D"/><path d="M36.334 88.668v.283l-1.256-.756-.002-.28z" class="F"/><path d="M6.266 77.845l1.458-.775v.275l-1.458.773z" class="C"/><path d="M5.008 77.09l1.458-.773 1.258.753-1.458.776z" class="D"/><path d="M6.266 77.845v.273l-1.257-.755-.001-.274z" class="F"/><path d="M8.034 78.907l1.458-.775v.275l-1.458.773z" class="C"/><path d="M6.777 78.15l1.458-.773 1.257.753-1.458.776z" class="D"/><path d="M8.034 78.907v.273l-1.257-.753v-.276z" class="F"/><path d="M9.895 80.024l1.458-.773v.273l-1.458.775z" class="C"/><use xlink:href="#X" x="2.238" y="3.858" class="D"/><path d="M9.895 80.024v.275l-1.257-.755v-.276z" class="F"/><path d="M25.453 89.343l1.46-.773v.273l-1.46.775z" class="C"/><path d="M24.195 88.588l1.46-.773 1.258.755-1.46.774z" class="D"/><path d="M25.453 89.343v.275l-1.256-.755-.002-.276z" class="F"/><path d="M27.222 90.406l1.457-.773v.273l-1.457.775z" class="C"/><use xlink:href="#Z" x="8.136" y="7.372" class="D"/><path d="M27.222 90.406v.275l-1.258-.755v-.276z" class="F"/><path d="M29.082 91.523l1.46-.773v.275l-1.46.773z" class="C"/><use xlink:href="#f" x="-1.302" y="1.702" class="D"/><path d="M29.082 91.523v.275l-1.256-.755v-.274z" class="F"/><path d="M23.466 88.19l1.46-.773v.275l-1.46.773z" class="C"/><path d="M10.572 80.442l1.458-.773 12.895 7.747-1.46.773z" class="D"/><path d="M23.466 88.19v.275l-12.894-7.747v-.275z" class="F"/><path d="M.742 76.548l29.4 17.67v3.205" class="E I O"/><g transform="translate(64 59.663)"><mask id="i" class="B"><use xlink:href="#A"/></mask><path d="M1.17 9.44L18.04.484c-.278.148-.466.464-.513.92L.656 10.357c.047-.454.236-.772.513-.918" mask="url(#i)" class="E G H I"/><mask id="j" class="B"><use xlink:href="#B" href="#A"/></mask><path d="M.656 10.358l16.87-8.955a2.42 2.42 0 0 0-.01.23L.644 10.59a1.91 1.91 0 0 1 .012-.231" mask="url(#j)" class="E G H I"/></g><path d="M65.168 69.102l16.87-8.955c-.323.17-.524.57-.522 1.15l-16.873 8.956c0-.58.2-.978.524-1.15z" class="E G H"/><g transform="translate(83 94.663)"><mask id="k" class="B"><use xlink:href="#B"/></mask><path d="M.612 9.826L17.483.87c.07.042.14.078.206.108L.82 9.934C.75 9.904.68 9.867.612 9.826" mask="url(#k)" class="E G H I"/><mask id="l" class="B"><use xlink:href="#D" href="#B"/></mask><path d="M.82 9.933L17.69.977c.168.076.325.116.47.125L1.3 10.057c-.147-.01-.306-.05-.47-.124" mask="url(#l)" class="E G H I"/><mask id="m" class="B"><use xlink:href="#E" href="#B"/></mask><path d="M1.3 10.057l16.87-8.955c.173.01.328-.022.462-.092L1.752 9.964c-.135.072-.29.104-.462.093" mask="url(#m)" class="E G H I"/></g><path d="M101.622 95.673l-16.87 8.955c-.3.158-.698.124-1.14-.14l16.87-8.955c.442.263.843.298 1.14.14z" class="E G H"/><g transform="translate(65 59.663)"><mask id="n" class="B"><use xlink:href="#C"/></mask><path d="M.17 9.44L17.04.484c.135-.07.3-.104.46-.093L.63 9.347c-.173-.01-.325.02-.46.092" mask="url(#n)" class="E G H I"/><mask id="o" class="B"><use xlink:href="#G" href="#C"/></mask><path d="M.63 9.347L17.5.39c.146.01.305.05.47.125L1.098 9.47c-.166-.073-.324-.115-.47-.123" mask="url(#o)" class="E G H I"/><mask id="p" class="B"><use xlink:href="#H" href="#C"/></mask><path d="M1.098 9.47L17.97.516a2.24 2.24 0 0 1 .211.109L1.308 9.58c-.07-.044-.143-.078-.2-.11" mask="url(#p)" class="E G H I"/></g><path d="M65.168 69.102l16.87-8.955c.298-.16.698-.124 1.14.14L66.31 69.244c-.442-.265-.842-.3-1.14-.142z" class="E G H"/><g transform="translate(64 58.663)"><mask id="q" class="B"><use xlink:href="#D"/></mask><path d="M.69 9.54L17.56.585c.19-.1.41-.146.652-.13L1.342 9.41c-.24-.015-.464.03-.653.132" mask="url(#q)" class="E G H I"/><mask id="r" class="B"><use xlink:href="#J" href="#D"/></mask><path d="M1.342 9.41L18.212.455c.21.012.432.07.668.176L2.008 9.586c-.234-.106-.457-.162-.666-.177" mask="url(#r)" class="E G H I"/><mask id="s" class="B"><use xlink:href="#K" href="#D"/></mask><path d="M2.008 9.586L18.88.63a2.98 2.98 0 0 1 .299.157L2.308 9.743a2.79 2.79 0 0 0-.3-.157" mask="url(#s)" class="E G H I"/></g><path d="M64.69 68.204l16.87-8.956c.423-.224.992-.174 1.62.202l-16.87 8.956c-.627-.376-1.195-.425-1.62-.202z" class="E G H"/><g transform="translate(84 93.663)"><mask id="t" class="B"><use xlink:href="#E"/></mask><path d="M1.264 10.047l16.87-8.955c-.046.453-.232.77-.513.918L.75 10.965c.278-.148.466-.464.513-.918" mask="url(#t)" class="E G H I"/></g><path d="M101.622 95.673l-16.87 8.955c.322-.172.525-.57.525-1.147l16.87-8.954c0 .575-.2.974-.524 1.146z" class="E G H"/><g transform="translate(85 94.663)"><mask id="u" class="B"><use xlink:href="#F"/></mask><path d="M.975 9.238L17.845.283a3.3 3.3 0 0 1-.016.321L.958 9.56l.017-.32" mask="url(#u)" class="E G H I"/><mask id="v" class="B"><use xlink:href="#N" href="#F"/></mask><path d="M.96 9.558L17.83.603c-.065.644-.335 1.096-.73 1.306L.23 10.865c.396-.21.662-.663.73-1.307" mask="url(#v)" class="E G H I"/></g><g class="E G H"><path d="M102.1 96.572l-16.87 8.956c.46-.245.744-.8.747-1.628l16.87-8.954c0 .816-.287 1.383-.746 1.626zM66.308 69.244l16.872-8.956 17.285 10.387-16.872 8.956z"/><path d="M85.26 82.64l16.873-8.956.013 20.843-16.87 8.955zM66.308 68.405l16.87-8.956 17.286 10.386-16.873 8.957z"/><path d="M85.96 83.06l16.873-8.955.014 20.842-16.87 8.955z"/></g><g transform="translate(83 70.663)"><mask id="w" class="B"><use xlink:href="#G"/></mask><path d="M.593 8.968L17.465.01a2.61 2.61 0 0 1 .271.19L.863 9.155a2.1 2.1 0 0 0-.27-.187" mask="url(#w)" class="E G H I"/><mask id="x" class="B"><use xlink:href="#P" href="#G"/></mask><path d="M.863 9.156L17.736.2c.112.09.222.19.326.304L1.19 9.46c-.104-.11-.214-.214-.328-.304" mask="url(#x)" class="E G H I"/><mask id="y" class="B"><use xlink:href="#Q" href="#G"/></mask><path d="M1.19 9.46L18.062.504a2.88 2.88 0 0 1 .191.219L1.382 9.678l-.19-.22" mask="url(#y)" class="E G H I"/><mask id="z" class="B"><use xlink:href="#R" href="#G"/></mask><path d="M1.382 9.68L18.252.724l.174.232L1.553 9.912l-.17-.233" mask="url(#z)" class="E G H I"/><mask id="AA" class="B"><use xlink:href="#S" href="#G"/></mask><path d="M1.553 9.912L18.426.956c.097.142.187.292.27.447L1.822 10.36a3.81 3.81 0 0 0-.269-.447" mask="url(#AA)" class="E G H I"/><mask id="AB" class="B"><use xlink:href="#T" href="#G"/></mask><path d="M1.822 10.358l16.873-8.956.12.255L1.946 10.6l-.124-.252" mask="url(#AB)" class="E G H I"/><mask id="AC" class="B"><use xlink:href="#U" href="#G"/></mask><path d="M1.946 10.61l16.87-8.954.093.23L2.04 10.84l-.093-.23" mask="url(#AC)" class="E G H I"/><mask id="AD" class="B"><use xlink:href="#V" href="#G"/></mask><path d="M2.04 10.84l16.87-8.955.1.3-16.87 8.956-.1-.3" mask="url(#AD)" class="E G H I"/><mask id="AE" class="B"><use xlink:href="#W" href="#G"/></mask><path d="M2.137 11.14l16.87-8.956c.045.166.08.33.1.49L2.238 11.63c-.02-.16-.055-.325-.1-.488" mask="url(#AE)" class="E G H I"/><mask id="AF" class="B"><use xlink:href="#X" href="#G"/></mask><path d="M2.238 11.63l16.87-8.955c.016.117.023.233.025.346L2.26 11.976c0-.114-.006-.23-.022-.347" mask="url(#AF)" class="E G H I"/></g><g class="E G H"><path d="M83.593 79.63l16.872-8.957c.92.555 1.665 1.9 1.668 3.01L85.26 82.64c0-1.11-.744-2.455-1.667-3.008z"/><path d="M83.592 78.792c1.308.784 2.363 2.69 2.366 4.267l.017 20.84c-.003 1.57-1.057 2.213-2.363 1.428L66.327 94.94c-1.306-.785-2.365-2.696-2.368-4.266l-.013-20.843c-.001-1.575 1.056-2.21 2.362-1.427l17.284 10.387z"/></g><g transform="translate(83 69.663)"><mask id="AG" class="B"><use xlink:href="#H"/></mask><path d="M.592 9.13L17.465.172a3.74 3.74 0 0 1 .382.269L.976 9.396c-.125-.1-.253-.188-.384-.267" mask="url(#AG)" class="E G H I"/><mask id="AH" class="B"><use xlink:href="#Z" href="#H"/></mask><path d="M.976 9.396L17.847.44c.16.127.316.272.464.43L1.44 9.826a4.54 4.54 0 0 0-.464-.43" mask="url(#AH)" class="E G H I"/><mask id="AI" class="B"><use xlink:href="#a" href="#H"/></mask><path d="M1.44 9.826L18.31.87l.272.312L1.71 10.14l-.27-.313" mask="url(#AI)" class="E G H I"/><mask id="AJ" class="B"><use xlink:href="#b" href="#H"/></mask><path d="M1.712 10.14l16.87-8.957.245.33-16.872 8.955-.244-.328" mask="url(#AJ)" class="E G H I"/><mask id="AK" class="B"><use xlink:href="#c" href="#H"/></mask><path d="M1.956 10.467l16.872-8.955a5.86 5.86 0 0 1 .381.635L2.34 11.102c-.114-.22-.243-.433-.383-.635" mask="url(#AK)" class="E G H I"/><mask id="AL" class="B"><use xlink:href="#d" href="#H"/></mask><path d="M2.338 11.102l16.87-8.956.174.36L2.51 11.46l-.17-.358" mask="url(#AL)" class="E G H I"/><mask id="AM" class="B"><use xlink:href="#e" href="#H"/></mask><path d="M2.51 11.46l16.873-8.956.132.326-16.87 8.958-.135-.328" mask="url(#AM)" class="E G H I"/><mask id="AN" class="B"><use xlink:href="#f" href="#H"/></mask><path d="M2.644 11.788l16.87-8.958.14.43-16.87 8.954-.14-.426" mask="url(#AN)" class="E G H I"/><mask id="AO" class="B"><use xlink:href="#g" href="#H"/></mask><path d="M2.784 12.214l16.87-8.954a4.44 4.44 0 0 1 .144.694L2.927 12.91a5.2 5.2 0 0 0-.143-.695" mask="url(#AO)" class="E G H I"/><mask id="AP" class="B"><use xlink:href="#h" href="#H"/></mask><path d="M2.926 12.9l16.87-8.956a4.06 4.06 0 0 1 .034.488L2.958 13.396a3.85 3.85 0 0 0-.032-.486" mask="url(#AP)" class="E G H I"/></g><path d="M83.592 78.792l16.873-8.957c1.306.785 2.36 2.692 2.366 4.27L85.958 83.06c-.003-1.578-1.058-3.483-2.366-4.267z" class="E G H"/><g transform="translate(64 81.663)"><mask id="AQ" class="B"><use xlink:href="#I"/></mask><path d="M.38 9.45L17.25.496c0 .114.01.227.024.344L.402 9.797C.386 9.68.38 9.563.38 9.45" mask="url(#AQ)" class="C"/><mask id="AR" class="B"><use xlink:href="#j" href="#I"/></mask><path d="M.403 9.797L17.273.84c.02.162.055.325.1.49L.503 10.283c-.046-.162-.08-.327-.1-.486" mask="url(#AR)" class="C"/><mask id="AS" class="B"><use xlink:href="#k" href="#I"/></mask><path d="M.502 10.283l16.87-8.955c.027.1.06.2.098.3L.602 10.582l-.1-.3" mask="url(#AS)" class="C"/><mask id="AT" class="B"><use xlink:href="#l" href="#I"/></mask><path d="M.6 10.582l16.87-8.955.094.23-16.87 8.955-.093-.23" fill="#535456" mask="url(#AT)"/><mask id="AU" class="B"><use xlink:href="#m" href="#I"/></mask><path d="M.694 10.814l16.87-8.955.123.253-16.87 8.956-.123-.254" fill="#636467" mask="url(#AU)"/><mask id="AV" class="B"><use xlink:href="#n" href="#I"/></mask><path d="M.817 11.068l16.87-8.956a4.33 4.33 0 0 0 .268.447l-16.87 8.955a4.03 4.03 0 0 1-.269-.446" fill="#6f7073" mask="url(#AV)"/><mask id="AW" class="B"><use xlink:href="#o" href="#I"/></mask><path d="M1.086 11.514l16.87-8.955.174.233L1.26 11.75l-.173-.235" fill="#636467" mask="url(#AW)"/><mask id="AX" class="B"><use xlink:href="#p" href="#I"/></mask><path d="M1.258 11.75l16.87-8.957.192.223L1.45 11.97l-.193-.22" fill="#535456" mask="url(#AX)"/><mask id="AY" class="B"><use xlink:href="#q" href="#I"/></mask><path d="M1.452 11.97l16.87-8.955c.106.11.216.213.33.304L1.78 12.275a3.23 3.23 0 0 1-.329-.305" mask="url(#AY)" class="C"/><mask id="AZ" class="B"><use xlink:href="#r" href="#I"/></mask><path d="M1.78 12.274l16.87-8.956c.087.07.174.13.267.187L2.047 12.46c-.1-.055-.18-.117-.266-.186" mask="url(#AZ)" class="C"/></g><path d="M64.364 70.273l16.873-8.956.013 20.842-16.87 8.955zm1.682 23.85l16.87-8.955L100.2 95.554l-16.87 8.955z" class="C"/><g transform="translate(64 59.663)"><mask id="Aa" class="B"><use xlink:href="#J"/></mask><path d="M.888 9.46L17.76.505c-.278.148-.466.464-.513.92L.375 10.378c.047-.454.236-.772.513-.918" mask="url(#Aa)" class="C"/><mask id="Ab" class="B"><use xlink:href="#t" href="#J"/></mask><path d="M.376 10.378l16.87-8.955a2.42 2.42 0 0 0-.01.23L.364 10.61a1.91 1.91 0 0 1 .012-.231" mask="url(#Ab)" class="C"/></g><g transform="translate(83 94.663)"><mask id="Ac" class="B"><use xlink:href="#K"/></mask><path d="M.332 9.846L17.203.9c.07.042.14.078.206.108L.54 9.954C.47 9.924.4 9.887.332 9.846" mask="url(#Ac)" class="C"/><mask id="Ad" class="B"><use xlink:href="#v" href="#K"/></mask><path d="M.54 9.954L17.41.998c.168.076.325.116.47.125L1 10.078c-.147-.01-.306-.05-.47-.124" mask="url(#Ad)" class="C"/><mask id="Ae" class="B"><use xlink:href="#w" href="#K"/></mask><path d="M1.01 10.078l16.87-8.955c.173.01.328-.022.462-.092L1.47 9.985c-.135.072-.29.104-.462.093" mask="url(#Ae)" class="C"/></g><g transform="translate(64 59.663)"><mask id="Af" class="B"><use xlink:href="#L"/></mask><path d="M.888 9.46L17.76.505c.135-.07.3-.104.46-.093L1.35 9.368c-.173-.01-.325.02-.46.092" fill="#abaeb0" mask="url(#Af)"/><mask id="Ag" class="B"><use xlink:href="#y" href="#L"/></mask><path d="M1.35 9.368L18.22.412c.146.01.305.05.47.125L1.818 9.49c-.166-.073-.324-.115-.47-.123" fill="#c6c7c9" mask="url(#Ag)"/><mask id="Ah" class="B"><use xlink:href="#z" href="#L"/></mask><path d="M1.818 9.49L18.69.537a2.24 2.24 0 0 1 .211.109L2.028 9.602c-.07-.044-.143-.078-.2-.11" mask="url(#Ah)" class="P"/></g><path d="M64.41 68.224l16.87-8.956c.423-.224.992-.174 1.62.202l-16.87 8.956c-.627-.376-1.195-.425-1.62-.202" class="Q"/><g transform="translate(64 58.663)"><mask id="Ai" class="B"><use xlink:href="#M"/></mask><path d="M.41 9.56L17.28.605c.19-.1.41-.146.652-.13L1.062 9.43c-.24-.015-.464.03-.653.132" mask="url(#Ai)" class="Q"/><mask id="Aj" class="B"><use xlink:href="#AB" href="#M"/></mask><path d="M1.062 9.43L17.932.475c.21.012.432.07.668.176L1.728 9.606c-.234-.106-.457-.162-.666-.177" mask="url(#Aj)" class="J"/><mask id="Ak" class="B"><use xlink:href="#AC" href="#M"/></mask><path d="M1.728 9.606L18.6.65a2.98 2.98 0 0 1 .299.157L2.028 9.763a2.79 2.79 0 0 0-.3-.157" fill="#989a9d" mask="url(#Ak)"/></g><g transform="translate(84 93.663)"><mask id="Al" class="B"><use xlink:href="#N"/></mask><path d="M.984 10.067l16.87-8.955c-.046.453-.232.77-.513.918L.47 10.985c.278-.148.466-.464.513-.918" fill="#abaeb0" mask="url(#Al)"/></g><path d="M101.82 96.593l-16.87 8.956c.46-.245.744-.8.747-1.628l16.87-8.954c0 .816-.287 1.383-.746 1.626" class="F"/><g transform="translate(84 94.663)"><mask id="Am" class="B"><use xlink:href="#O"/></mask><path d="M1.695 9.258L18.565.303a3.3 3.3 0 0 1-.016.321L1.678 9.58l.017-.32" fill="#808184" mask="url(#Am)"/><mask id="An" class="B"><use xlink:href="#AF" href="#O"/></mask><path d="M1.678 9.58L18.55.624c-.065.644-.335 1.096-.73 1.306L.948 10.886c.396-.21.662-.663.73-1.307" fill="#76787a" mask="url(#An)"/></g><path fill="#dcdedf" d="M66.028 69.264L82.9 60.308l17.285 10.387-16.872 8.956z"/><path fill="#bdbfc1" d="M84.98 82.66l16.873-8.956.013 20.843-16.87 8.955z"/><path d="M66.028 68.426L82.9 59.47l17.286 10.386-16.873 8.957z" class="K"/><path d="M85.678 83.08l16.873-8.955.014 20.842-16.87 8.955z" class="J"/><g transform="translate(83 70.663)"><mask id="Ao" class="B"><use xlink:href="#P"/></mask><path d="M.313 8.99L17.185.032a2.61 2.61 0 0 1 .271.19L.583 9.176a2.1 2.1 0 0 0-.27-.187" mask="url(#Ao)" class="P"/><mask id="Ap" class="B"><use xlink:href="#AH" href="#P"/></mask><path d="M.583 9.176L17.456.22c.112.09.222.19.326.304L.91 9.48c-.104-.11-.214-.214-.328-.304" mask="url(#Ap)" class="D"/><mask id="Aq" class="B"><use xlink:href="#AI" href="#P"/></mask><path d="M.91 9.48L17.782.525a2.88 2.88 0 0 1 .191.219L1.102 9.7.91 9.48" mask="url(#Aq)" class="D"/><mask id="Ar" class="B"><use xlink:href="#AJ" href="#P"/></mask><path d="M1.102 9.7L17.972.744l.174.232L1.273 9.932l-.17-.233" mask="url(#Ar)" class="D"/><mask id="As" class="B"><use xlink:href="#AK" href="#P"/></mask><path d="M1.273 9.932L18.146.976c.097.142.187.292.27.447L1.542 10.38a3.81 3.81 0 0 0-.269-.447" mask="url(#As)" class="D"/><mask id="At" class="B"><use xlink:href="#AL" href="#P"/></mask><path d="M1.542 10.38l16.873-8.956.12.255-16.87 8.953-.124-.252" mask="url(#At)" class="D"/><mask id="Au" class="B"><use xlink:href="#AM" href="#P"/></mask><path d="M1.666 10.63l16.87-8.954.093.23L1.76 10.86l-.093-.23" mask="url(#Au)" class="D"/><mask id="Av" class="B"><use xlink:href="#AN" href="#P"/></mask><path d="M1.758 10.862l16.87-8.955.1.3-16.87 8.956-.1-.3" mask="url(#Av)" class="D"/><mask id="Aw" class="B"><use xlink:href="#AO" href="#P"/></mask><path d="M1.857 11.162l16.87-8.956c.045.166.08.33.1.49L1.958 11.65c-.02-.16-.055-.325-.1-.488" mask="url(#Aw)" class="P"/><mask id="Ax" class="B"><use xlink:href="#AP" href="#P"/></mask><path d="M1.958 11.65l16.87-8.955c.016.117.023.233.025.346L1.98 11.997c0-.114-.006-.23-.022-.347" fill="#c6c7c9" mask="url(#Ax)"/></g><path d="M84.997 103.502L84.98 82.66c0-1.11-.744-2.455-1.667-3.008L66.028 69.265c-.92-.553-1.664-.102-1.664 1.008l.016 20.84c0 1.107.745 2.452 1.667 3.01l17.285 10.386c.92.552 1.665.1 1.665-1.007zm-1.685-24.69c1.308.784 2.364 2.69 2.367 4.267l.016 20.84c-.003 1.57-1.056 2.213-2.363 1.428L66.048 94.962c-1.307-.785-2.365-2.696-2.368-4.266l-.014-20.843c-.001-1.575 1.057-2.21 2.362-1.427l17.284 10.387z" class="Q"/><path d="M83.313 79.652c.923.553 1.667 1.897 1.667 3.008l.017 20.842c0 1.107-.745 1.56-1.665 1.007L66.046 94.123c-.92-.557-1.667-1.902-1.667-3.01l-.015-20.84c0-1.1.743-1.56 1.664-1.008l17.285 10.387z" fill="#f5f6f6"/><g transform="translate(83 69.663)"><mask id="Ay" class="B"><use xlink:href="#Q"/></mask><path d="M.312 9.15L17.185.193a3.74 3.74 0 0 1 .382.269L.696 9.417C.57 9.316.443 9.23.312 9.15" mask="url(#Ay)" class="K"/><mask id="Az" class="B"><use xlink:href="#AR" href="#Q"/></mask><path d="M.696 9.416L17.567.46c.16.127.316.272.464.43L1.16 9.846a4.54 4.54 0 0 0-.464-.43" mask="url(#Az)" class="K"/><mask id="BA" class="B"><use xlink:href="#AS" href="#Q"/></mask><path d="M1.16 9.846L18.03.9l.272.312L1.43 10.16l-.27-.313" mask="url(#BA)" class="M"/><mask id="BB" class="B"><use xlink:href="#AT" href="#Q"/></mask><path d="M1.43 10.16l16.87-8.957.245.33-16.872 8.955-.244-.328" fill="#d2d4d5" mask="url(#BB)"/><mask id="BC" class="B"><use xlink:href="#AU" href="#Q"/></mask><path d="M1.675 10.488l16.872-8.955a5.86 5.86 0 0 1 .381.635l-16.87 8.955c-.114-.22-.243-.433-.383-.635" fill="#e1e2e3" mask="url(#BC)"/><mask id="BD" class="B"><use xlink:href="#AV" href="#Q"/></mask><path d="M2.058 11.123l16.87-8.956.174.36L2.23 11.48l-.17-.358" fill="#d2d4d5" mask="url(#BD)"/><mask id="BE" class="B"><use xlink:href="#AW" href="#Q"/></mask><path d="M2.23 11.48l16.873-8.956.132.326-16.87 8.958-.135-.328" mask="url(#BE)" class="K"/><mask id="BF" class="B"><use xlink:href="#AX" href="#Q"/></mask><path d="M2.364 11.81l16.87-8.958.14.43-16.87 8.954-.14-.426" mask="url(#BF)" class="J"/><mask id="BG" class="B"><use xlink:href="#AY" href="#Q"/></mask><path d="M2.503 12.235l16.87-8.954a4.44 4.44 0 0 1 .144.694L2.646 12.93a5.2 5.2 0 0 0-.143-.695" mask="url(#BG)" class="J"/><mask id="BH" class="B"><use xlink:href="#AZ" href="#Q"/></mask><path d="M2.646 12.93l16.87-8.956a4.06 4.06 0 0 1 .034.488L2.678 13.416a3.85 3.85 0 0 0-.032-.486" mask="url(#BH)" class="J"/></g><path d="M76.584 87.663c0 1.48-1.06 2.04-2.368 1.255s-2.368-2.623-2.368-4.102 1.06-2.042 2.368-1.255 2.368 2.623 2.368 4.102" class="F"/><path d="M74.212 87.383v9.665" stroke-width="1.854" class="E I L"/><path d="M75.596 86.406c0 .347-.25.48-.558.294a1.25 1.25 0 0 1-.553-.961c0-.347.248-.48.553-.295s.558.615.558.962" class="D"/><path d="M80.1 89.938c-.418-3.54-2.914-7.57-5.938-9.4-2.992-1.797-5.465-.807-5.922 2.154m14.5 6.43l-.24-.844c-1.35-4.4-4.492-8.802-8.156-11.006-3.87-2.325-7.154-1.498-8.367 1.68" stroke-width="1.246" class="E I L"/></g></svg>