<svg xmlns="http://www.w3.org/2000/svg" viewBox="0 0 62.1 53.7"><style><![CDATA[.L{fill:#fefefe}.M{fill:#231f20}.N{fill:#626366}.O{stroke-linejoin:round}]]></style><g fill="none" stroke="#626366" stroke-width="3" class="O"><path d="M49.3 30.95l-27-15.9 11.3-6 27 15.8z"/><path d="M28.5 46.55l-27-15.8 20.8-15.7 27 15.9z"/><path d="M28.5 52.15l-27-15.8v-5.6l27 15.8z"/><path d="M60.6 24.85v10.2l-32.1 17.1v-5.6l20.8-15.6zM20.1 27.1l2.9-1.9 2.8 1.7-3 1.9z"/><path d="M25.8 27.5l-3 1.9v-.6l3-1.9z"/><path d="M20.1 27.1l2.7 1.7v.6l-2.7-1.7zm-4 2.6l2.9-1.9 2.8 1.7-2.9 1.9z"/><path d="M21.8 30.1L18.9 32v-.6l2.9-1.9z"/><path d="M16.1 29.7l2.8 1.7v.6l-2.8-1.7zm7.8-5.1l3-1.9 2.8 1.7-3 1.9z"/><path d="M29.7 25l-3 1.9v-.6l3-1.9z"/><path d="M23.9 24.6l2.8 1.7v.6l-2.8-1.7zm-.2 4.7l2.9-1.9 2.8 1.7-2.9 1.9z"/><path d="M29.4 29.7l-2.9 1.9V31l2.9-1.9z"/><path d="M23.7 29.4l2.8 1.6v.6L23.7 30zm-3.9 2.5l2.9-1.9 2.8 1.7-2.9 1.9z"/><path d="M25.5 32.3l-2.9 1.9v-.6l2.9-1.9z"/><path d="M19.8 31.9l2.8 1.7v.6l-2.8-1.7zm7.8-5.1l2.9-1.9 2.8 1.7-2.9 1.9z"/><path d="M33.3 27.2l-2.9 1.9v-.6l2.9-1.9z"/><path d="M27.6 26.8l2.8 1.7v.6l-2.8-1.7zm-.3 4.7l3-1.9 2.8 1.7-3 1.9z"/><path d="M33.1 31.9l-3 1.9v-.6l3-1.9z"/><path d="M27.3 31.5l2.8 1.7v.6l-2.8-1.7zm-3.9 2.6l2.9-1.9 2.8 1.7-2.9 1.9z"/><path d="M29.1 34.5l-2.9 1.9v-.6l2.9-1.9z"/><path d="M23.4 34.1l2.8 1.7v.6l-2.8-1.7zm7.8-5.1l3-1.9 2.7 1.7-2.9 1.9z"/><path d="M36.9 29.4L34 31.3v-.6l2.9-1.9z"/><path d="M31.2 29l2.8 1.7v.6l-2.8-1.7z"/></g><path d="M49.3 30.95l-27-15.9 11.3-6 27 15.8z" fill="#b0b2b5"/><path d="M28.5 46.55l-27-15.8 20.8-15.7 27 15.9z" fill="#bbbdbf"/><path d="M28.5 52.15l-27-15.8v-5.6l27 15.8z" fill="#b3b5b7"/><path d="M60.6 24.85v10.2l-32.1 17.1v-5.6l20.8-15.6z" fill="#898b8e"/><path d="M20.1 27.15l2.9-1.9 2.8 1.7-3 1.9z" class="L"/><path d="M25.8 27.55l-3 1.9v-.6l3-1.9z" class="M"/><path d="M20.1 27.15l2.7 1.7v.6l-2.7-1.7z" class="N"/><path d="M16.1 29.65l2.9-1.9 2.8 1.7-2.9 1.9z" class="L"/><path d="M21.8 30.05l-2.9 1.9v-.6l2.9-1.9z" class="M"/><path d="M16.1 29.65l2.8 1.7v.6l-2.8-1.7z" class="N"/><path d="M23.9 24.65l3-1.9 2.8 1.6-3 1.9z" class="L"/><path d="M29.7 25.05l-3 1.8v-.6l3-1.8z" class="M"/><path d="M23.9 24.65l2.8 1.6v.6l-2.8-1.6z" class="N"/><path d="M23.7 29.35l2.9-1.9 2.8 1.7-2.9 1.9z" class="L"/><path d="M29.4 29.75l-2.9 1.9v-.6l2.9-1.9z" class="M"/><path d="M23.7 29.35l2.8 1.7v.6l-2.8-1.7z" class="N"/><path d="M19.8 31.85l2.9-1.8 2.8 1.6-2.9 1.9z" class="L"/><path d="M25.5 32.25l-2.9 1.9v-.6l2.9-1.9z" class="M"/><path d="M19.8 31.95l2.8 1.6v.6l-2.8-1.6z" class="N"/><path d="M27.6 26.85l2.9-1.9 2.8 1.7-2.9 1.8z" class="L"/><path d="M33.3 27.25l-2.9 1.9v-.6l2.9-1.9z" class="M"/><path d="M27.6 26.85l2.8 1.7v.6l-2.8-1.7z" class="N"/><path d="M27.3 31.55l3-1.9 2.8 1.7-3 1.8z" class="L"/><path d="M33.1 31.95l-3 1.9v-.6l3-1.9z" class="M"/><path d="M27.3 31.55l2.8 1.7v.6l-2.8-1.7z" class="N"/><path d="M23.4 34.05l2.9-1.9 2.8 1.7-2.9 1.9z" class="L"/><path d="M29.1 34.45l-2.9 1.9v-.6l2.9-1.9z" class="M"/><path d="M23.4 34.05l2.8 1.7v.6l-2.8-1.7z" class="N"/><path d="M31.2 29.05l3-1.9 2.7 1.6-2.9 1.9z" class="L"/><path d="M36.9 29.45l-2.9 1.8v-.6l2.9-1.9z" class="M"/><path d="M31.2 29.05l2.8 1.6v.6l-2.8-1.6zm-6.1-12.6c-.7-.4-.7-1.1 0-1.5l2.1-1.4c.7-.4 1.8-.5 2.5 0l21.6 13c.7.4.7 1.1 0 1.5l-2.1 1.4c-.7.4-1.8.5-2.5 0l-21.6-13z" class="N"/><path d="M2 30.95l26.5 15.6v5.2" fill="none" stroke="#dfe0df" stroke-width=".75" stroke-linecap="round" class="O"/><path d="M42.2 25.35l10-18.6.5.3-10 18.6z" fill="#999b9d"/><path d="M31.2 18.65l10-18.7 11 6.8-10 18.6z" fill="#f0f0f1"/></svg>