<svg xmlns="http://www.w3.org/2000/svg" viewBox="0 0 62.1 46.1"><style><![CDATA[.J{fill:#626366}.K{fill:#fefefe}.L{fill:#231f20}.M{stroke-linejoin:round}]]></style><g fill="none" stroke="#626366" stroke-width="3" class="M"><path d="M49.3 23.4l-27-15.9 11.3-6 27 15.8z"/><path d="M28.5 39l-27-15.8L22.3 7.5l27 15.9z"/><path d="M28.5 44.6l-27-15.8v-5.6l27 15.8z"/><path d="M60.6 17.3v10.2L28.5 44.6V39l20.8-15.6z"/></g><path d="M49.3 23.4l-27-15.9 11.3-6 27 15.8z" fill="#b0b2b5"/><path d="M28.5 39l-27-15.8L22.3 7.5l27 15.9z" fill="#bbbdbf"/><path d="M28.5 44.6l-27-15.8v-5.6l27 15.8z" fill="#b3b5b7"/><path d="M60.6 17.3v10.2L28.5 44.6V39l20.8-15.6z" fill="#898b8e"/><path d="M20.8 14.2l4.9-3.5 4.9 2.7-4.9 3.4z" class="K"/><path d="M30.6 14.5l-4.8 3.4-.1-1 4.9-3.5z" class="L"/><path d="M20.8 14.2l4.9 2.7.1 1-4.9-2.7z" class="J"/><path d="M27.2 17.8l4.8-3.4 4.9 2.7-4.9 3.4z" class="K"/><path d="M37 18.1l-4.9 3.5-.1-1.1 4.9-3.4z" class="L"/><path d="M27.2 17.9l4.8 2.6.1 1.1-4.9-2.7z" class="J"/><path d="M33.5 21.4l4.8-3.4 4.9 2.7-4.9 3.4z" class="K"/><path d="M43.2 21.7l-4.8 3.5-.1-1.1 4.9-3.4z" class="L"/><path d="M33.5 21.5l4.8 2.6.1 1.1-4.9-2.7z" class="J"/><path d="M2 23.4L28.5 39v5.2" fill="none" stroke="#dfe0df" stroke-width=".75" stroke-linecap="round" class="M"/><path d="M25.2 7.7c.2.1 8.5-4.6 8.5-4.6l23.6 14c-.1 0-8.4 4.5-8.4 4.5L25.2 7.7z" class="J"/><path d="M14.5 19l4.8-3.4 4.9 2.6-4.9 3.5z" class="K"/><path d="M24.2 19.3l-4.8 3.4-.1-1 4.9-3.4z" class="L"/><path d="M14.5 19l4.8 2.7.1 1-4.9-2.6z" class="J"/><path d="M20.8 22.7l4.8-3.4 4.9 2.6-4.8 3.5z" class="K"/><path d="M30.6 23l-4.9 3.4v-1l4.8-3.5z" class="L"/><path d="M20.8 22.7l4.9 2.7v1l-4.9-2.7z" class="J"/><path d="M27.1 26.3l4.8-3.5 4.9 2.7-4.9 3.4z" class="K"/><path d="M36.8 26.6L32 30l-.1-1 4.9-3.5z" class="L"/><path d="M27.1 26.3l4.8 2.7.1 1-4.9-2.7z" class="J"/><path d="M7.9 23.5l4.9-3.4 4.9 2.6-4.9 3.5z" class="K"/><path d="M17.7 23.8l-4.9 3.4v-1l4.8-3.4z" class="L"/><path d="M7.9 23.5l4.9 2.7v1L8 24.6z" class="J"/><path d="M14.2 27.2l4.9-3.5 4.9 2.7-4.9 3.4z" class="K"/><path d="M24 27.5l-4.8 3.4-.1-1 4.9-3.5z" class="L"/><path d="M14.2 27.2l4.9 2.7.1 1-4.9-2.7z" class="J"/><path d="M20.5 30.8l4.9-3.5 4.9 2.7-4.9 3.4z" class="K"/><path d="M30.3 31l-4.9 3.5v-1l4.9-3.5z" class="L"/><path d="M20.5 30.8l4.9 2.7v1l-4.8-2.7z" class="J"/></svg>