<svg xmlns="http://www.w3.org/2000/svg" viewBox="0 0 71 89.6"><g fill="none" stroke="#626366" stroke-width="3" stroke-linejoin="round"><path d="M24.3 39.242l45.2-24v48.9l-45.1 24z"/><path d="M1.5 25.442l45.2-23.9 22.8 13.7-45.2 24z"/><path d="M24.3 39.242l.1 48.9-22.9-13.7v-49z"/></g><path d="M24.3 39.2l45.2-24v49L24.4 88.1z" fill="#898b8e"/><path d="M1.5 25.5l45.2-24 22.8 13.7-45.2 24z" fill="#bbbdbf"/><path d="M24.3 39.2l.1 48.9L1.5 74.4V25.5z" fill="#b3b5b7"/><path d="M2.2 25.5l22.3 13.4v49" fill="none" stroke="#dfe0df" stroke-width=".75" stroke-linecap="round" stroke-linejoin="round"/><path d="M21.3 49.3L4 38.9v-6.5l17.3 10.4zm0 6.2L4 45.1v-3.7l17.3 10.4zm0 19.2L4 64.3v-1.7L21.3 73zm0 3.8L4 68.1v-1.7l17.3 10.4zm0 4L4 72.1v-1.7l17.3 10.4z" fill="#fefefe"/></svg>