<svg xmlns="http://www.w3.org/2000/svg" viewBox="0 0 33.3 72.4"><g fill="none" stroke="#231f20" stroke-width="3" stroke-linejoin="round"><path d="M2.9 4.7c12.1-6.4-7 3.4 5.1-3 .8-.4 1.8-.3 3 .4l-5.1 3c-1.2-.7-2.3-.8-3-.4zm27.6 63l-5.1 3c.8-.4 1.4-1.5 1.4-3l5.1-3c-.1 1.5-.6 2.5-1.4 3z"/><path d="M5.9 5.1l5.1-3 16.4 9.7-5.1 3zm20.8 17.5l5.1-3v45.1l-5.1 3z"/><path d="M27.4 11.8c2.4 1.4 4.3 5 4.4 7.9l-5.1 3c0-2.9-2-6.4-4.4-7.9" stroke-linecap="round"/><path d="M22.3 14.8c2.4 1.4 4.4 5 4.4 7.9v45c0 2.9-1.9 4.1-4.3 2.6L5.9 60.6c-2.4-1.4-4.4-5-4.4-7.9v-45c0-2.9 1.9-4.1 4.4-2.6l16.4 9.7z"/></g><path d="M10.46 1.433l.04-.023c-.5-.2-.9-.3-1.3-.3a1.64 1.64 0 0 0-1.2.2l-5.1 3c.4-.2.8-.2 1.2-.2s.8.1 1.2.3l.6.3 5.1-3c-.185-.093-.29-.185-.54-.277z" fill="#606163"/><path d="M5.9 4.7l5.1-3 16.5 9.7-5.1 3z" fill="#808184"/><g fill="#231f20"><path d="M26.7 22.2l5.1-3 .1 45.1-5.2 3z"/><path d="M31.8 18.3l-.3-1.3-.03.018-.27-.718c0-.2-.1-.4-.2-.6-.1-.3-.2-.5-.3-.7-.2-.4-.4-.8-.7-1.2-.2-.2-.3-.4-.5-.6s-.3-.4-.5-.6-.5-.5-.8-.7a3.04 3.04 0 0 0-.7-.5l-5.1 3c.2.1.4.3.7.5s.5.5.8.7c.2.2.3.4.5.6s.3.4.5.6c.2.4.5.8.7 1.2.1.2.2.4.3.7.1.2.2.4.2.6.1.2.2.5.3.8h.02l.268 1.16-.087.05c.1.3.1.6.1.9l5.1-3c0-.282-.083-.563-.094-.845l.094-.055z"/></g><path d="M22.4 14.4c2.4 1.4 4.4 5 4.4 7.9v45c0 2.9-1.9 4.1-4.3 2.6L5.9 60.2c-2.4-1.4-4.4-5-4.4-7.9v-45c0-2.9 1.9-4.1 4.4-2.6l16.5 9.7z" fill="#6d6e70"/><path d="M26.7 67.4v-45c0-2.7-1.8-5.9-4-7.2L6.2 5.5c-2.2-1.3-4-.2-4 2.4v45c0 2.7 1.8 5.9 4 7.2l16.5 9.7c2.2 1.3 4 .3 4-2.4zm-4.1-53.1c2.6 1.6 4.7 5.4 4.7 8.5v45c0 3.1-2.1 4.4-4.7 2.8L6.2 61c-2.6-1.6-4.7-5.4-4.7-8.5v-45c0-3.1 2.1-4.4 4.7-2.8l16.4 9.6z" fill="#c6c8c7"/><path d="M24.1 60.9L4.8 49.1V11.8l19.3 11.8z" fill="#a6a8ab"/><path d="M10.9 18l11.4 6.8.1 9.2s.9-5.5-4-9.6L10.9 18" fill="#c4cace"/><path d="M16 62.1c0 1.3-1 1.7-2.3.9-1.2-.7-2.3-2.4-2.3-3.6 0-1.3 1-1.6 2.3-.9s2.3 2.3 2.3 3.6m.3-46.2l-5.1-3v-1.2l5.1 3z" fill="#404042"/></svg>