<svg xmlns="http://www.w3.org/2000/svg" viewBox="0 0 58 79.6"><g fill="none" stroke="#626366" stroke-width="3" stroke-linejoin="round"><path d="M52.8 25.504l3.7-2v52.7l-3.7 1.9z"/><path d="M16.1 3.404l3.7-1.9 36.7 22-3.7 2z"/><path d="M52.8 25.504v52.6l-36.6-22-.1-52.7z"/></g><path d="M52.8 25.5l3.7-2v52.7l-3.7 1.9z" fill="#898b8e"/><path d="M16.1 3.4l3.7-1.9 36.7 22-3.7 2z" fill="#bbbdbf"/><path d="M52.8 25.5v52.6l-36.6-22-.1-52.7z" fill="#b3b5b7"/><path d="M16.4 3.6l36.6 22v52.2" fill="none" stroke="#dfe0df" stroke-width=".75" stroke-linecap="round" stroke-linejoin="round"/><path d="M49.4 69.5L19 52l-.1-42.9 30.5 17.7zm-7.3.3l-12.5-7.6v-1.8l12.5 7.5zm4.1 1.604c0 .6-.5.7-1 .4-.6-.3-1-1.1-1-1.6 0-.6.5-.7 1-.4.6.3 1 1 1 1.6m3 1.8c0 .6-.5.7-1 .4-.6-.3-1-1.1-1-1.6 0-.6.5-.7 1-.4.6.3 1 1 1 1.6" fill="#fefefe"/><path d="M29 17.404l18.5 11.1.1 10.4s-.3-7.4-5.8-12.1c-7-5.9-12.8-9.4-12.8-9.4" fill="#c4cace"/><g fill="none" stroke-linecap="round" stroke="#636466"><path d="M1.6 18.404l24.1 13.9" stroke-width="2"/><path d="M1.5 18.404l9.3 5.9" stroke-width="3"/></g></svg>