<svg xmlns="http://www.w3.org/2000/svg" xmlns:xlink="http://www.w3.org/1999/xlink" viewBox="0 0 52.193 74.645"><style><![CDATA[.d{fill:#d0d2d3}.e{fill:#bbbdbf}.f{fill:#a6a8ab}.g{fill:#b3b5b7}.h{fill:#fefefe}.i{fill:#e5e6e7}.j{stroke-linejoin:round}.k{fill:#626466}.l{stroke-linecap:round}.m{stroke-width:1.24}]]></style><g fill="none" stroke="#626366" stroke-width="3" class="j"><path d="M46.39 31.316l4.272-2.268.03 41.83-4.273 2.268z"/><path d="M1.5 4.343l4.272-2.27 44.89 26.974-4.272 2.268z"/><path d="M46.39 31.316l.03 41.83L1.53 46.172 1.5 4.343z"/></g><path d="M46.4 31.316l4.272-2.268.03 41.83-4.273 2.268z" fill="#898b8e"/><path d="M1.5 4.343l4.272-2.27 44.9 26.974-4.272 2.268z" class="e"/><path d="M46.4 31.316l.03 41.83L1.53 46.172 1.5 4.343z" class="g"/><path d="M42.328 61.07l-36.7-22.052V12.65l36.7 22.052z" class="h"/><path d="M27.447 27.473l13.578 8.157.076 7.592s-.242-5.445-4.277-8.856c-5.153-4.355-9.377-6.893-9.377-6.893" fill="#c4cace"/><path d="M36.575 62.43l-9.187-5.52v-1.354l9.187 5.52zm2.995 1.186c0 .408-.332.54-.74.294s-.74-.777-.74-1.185.333-.54.74-.296.74.777.74 1.187m2.192 1.318c0 .408-.332.54-.74.294s-.74-.776-.74-1.184.332-.542.74-.297.74.777.74 1.187" class="h"/><g fill="none" class="j l"><path d="M1.878 4.484L46.374 31.22l.03 41.572" stroke="#e1e2e3"/><g stroke="#626366" class="m"><path d="M28.187.9A2.53 2.53 0 0 1 29 .635m0 0c.237-.03.46-.013.66.046l5.946 3.52m.01.001L29.67.68c.107.032.2.076.303.132l5.946 3.52c-.094-.056-.196-.1-.303-.132"/><path d="M28.187.9c.684-.364 1.32-.375 1.786-.098l5.945 3.52c-.466-.277-1.1-.265-1.786.098m-8.305 15.2l-5.945-3.52c-.147-.087-.276-.202-.385-.343l5.945 3.52c.1.14.24.256.385.343"/><path d="M25.442 19.296l-5.945-3.52a1.67 1.67 0 0 1-.272-.53l5.946 3.522c.065.204.158.38.27.53m-6.216-4.053c-.057-.174-.094-.368-.107-.58m0 0c0-.01-.002-.02-.002-.027m0 0l-.35-6.1m2.246-3.93L28.187.9m-9.42 7.617a3.22 3.22 0 0 1 .015-.518M18.78 8a4.03 4.03 0 0 1 .063-.404m.001-.001a4.45 4.45 0 0 1 .159-.55m0 0a4.91 4.91 0 0 1 .726-1.333m.001-.002c.294-.383.64-.717 1.018-.966m-.001.001l.266-.158"/><path d="M18.766 8.527c-.082-1.467.922-3.227 2.246-3.93m13.12-.165c1.323-.704 2.468-.087 2.552 1.38l.35 6.1c.082 1.467-.924 3.227-2.25 3.93L27.6 19.54c-1.326.705-2.465.086-2.55-1.38"/></g></g><path d="M34.132 4.432L28.187.91c.286-.152.563-.243.823-.276l5.946 3.52a2.42 2.42 0 0 0-.824.276" class="f"/><path d="M34.957 4.156L29 .635a1.59 1.59 0 0 1 .659.045l5.946 3.52c-.2-.06-.42-.076-.658-.045" fill="#808184"/><path d="M35.616 4.202L29.67.68c.107.032.21.076.303.132l5.946 3.52c-.094-.056-.196-.1-.303-.132" fill="#90989e"/><path d="M25.827 19.638l-5.945-3.52a1.35 1.35 0 0 1-.385-.343l5.945 3.52c.1.142.24.257.385.343" fill="#8c9499"/><path d="M25.442 19.295l-5.945-3.52c-.116-.147-.207-.325-.272-.53l5.946 3.522a1.72 1.72 0 0 0 .271.528" fill="#8e969c"/><path d="M25.17 18.767l-5.945-3.52a2.37 2.37 0 0 1-.108-.581l5.946 3.52a2.37 2.37 0 0 0 .107.581" class="g"/><path d="M25.063 18.186l-5.945-3.52c0-.01-.002-.02-.002-.027l5.946 3.52c.001.01.001.02.001.028" fill="#939ba0"/><path d="M25.062 18.158l-5.946-3.52-.35-6.11 5.947 3.522z" class="g"/><path d="M26.958 8.117l-5.946-3.52L28.187.9l5.945 3.522z" fill="#636466"/><path d="M24.713 12.048l-5.947-3.52c-.01-.17-.003-.343.014-.518l5.947 3.52a3.11 3.11 0 0 0-.014.518" class="g"/><path d="M24.727 11.53L18.78 8.01a3.8 3.8 0 0 1 .063-.404l5.947 3.52a3.62 3.62 0 0 0-.064.405" fill="#b1b7bc"/><path d="M24.79 11.125l-5.947-3.52c.04-.184.093-.37.16-.55l5.946 3.52c-.065.182-.12.367-.158.55" class="f"/><path d="M24.95 10.575l-5.946-3.52a4.92 4.92 0 0 1 .725-1.333l5.948 3.52a4.93 4.93 0 0 0-.727 1.333" fill="#c8cdd0"/><path d="M25.676 9.242L19.73 5.72c.294-.383.64-.717 1.017-.966l5.947 3.52c-.38.25-.725.583-1.017.966" fill="#939597"/><path d="M26.693 8.276l-5.946-3.52c.086-.058.175-.11.265-.16l5.947 3.52-.266.16" fill="#6c6e70"/><path d="M34.132 4.432c1.323-.704 2.468-.088 2.552 1.38l.35 6.11c.082 1.468-.924 3.228-2.25 3.932L27.61 19.54c-1.326.705-2.465.086-2.55-1.38l-.35-6.1c-.084-1.468.92-3.227 2.245-3.93l7.174-3.685z" fill="#898b8e"/><g fill="none"><g class="j l"><path d="M26.305 19.885c-.623-.103-1.083-.587-1.212-1.366M35.597 4.27a1.35 1.35 0 0 1 .713.488" stroke="#babcbc" stroke-width=".31"/><path d="M25.093 18.52a3.13 3.13 0 0 1-.031-.286l-.35-6.1c-.084-1.468.92-3.227 2.245-3.93l7.174-3.685c.538-.286 1.046-.355 1.465-.237" stroke="#dfe0df" stroke-width=".31"/></g><g stroke="#636466"><path d="M21.77 17.473l-.937.48c-.156.078-.712.336-1.234.125-2.94-1.192-3.836-4.96-3.437-6.154.096-.29.26-.736.553-1.012.167-.158 1.154-.68 1.886-1.053" class="m"/><path d="M16.7 10.933c.17-.158 1.154-.678 1.887-1.053l.812-.405c.268-.108.728-.233 1.516.03.442.148 1.47.86 2.093 1.913.546.923 1.164 2 1.053 3.826-.05.822-.443 1.136-.496 1.198-.134.158-1.062.66-1.8 1.052l-.938.48c-.155.077-.712.336-1.233.125-2.94-1.193-3.835-4.962-3.438-6.155.097-.3.26-.735.554-1.012z" stroke-width=".827"/></g></g><path d="M18.873 17.32l2.4-1.28c.147.088.29.16.43.213l-2.4 1.28c-.14-.054-.283-.125-.43-.213" class="d"/><path d="M19.303 17.534l2.4-1.28c.18.068.35.11.514.124l-2.4 1.28a2 2 0 0 1-.514-.125" class="e"/><path d="M19.817 17.658l2.4-1.28c.27.025.514-.02.724-.133l-2.4 1.28c-.2.112-.455.158-.724.133m-2.614-6.424l2.4-1.28c-.337.18-.587.528-.7 1.02l-2.4 1.28c.115-.5.363-.84.7-1.02" class="f"/><path d="M16.502 12.253l2.4-1.28c-.042.18-.066.38-.07.6l-2.41 1.28c.004-.218.028-.418.07-.6" class="e"/><path d="M16.432 12.852l2.41-1.28-.001.06a4.05 4.05 0 0 0 .04.554l-2.4 1.28c-.026-.187-.04-.373-.04-.553v-.062" class="d"/><path d="M16.472 13.467l2.4-1.28a4.96 4.96 0 0 0 .138.65l-2.4 1.28a4.77 4.77 0 0 1-.138-.65" class="i"/><g class="h"><path d="M16.6 14.118l2.4-1.28a6.07 6.07 0 0 0 .201.592l-2.4 1.28a6.07 6.07 0 0 1-.201-.592"/><path d="M16.8 14.7l2.4-1.28c.24.597.58 1.172.98 1.654l-2.4 1.28c-.4-.482-.74-1.056-.98-1.654m1 1.664l2.4-1.28a4.66 4.66 0 0 0 .5.52l-2.4 1.28c-.175-.157-.342-.332-.5-.52"/></g><path d="M18.3 16.885l2.4-1.28c.167.15.342.284.52.397l-2.4 1.28c-.18-.113-.354-.247-.52-.397" class="i"/><path d="M18.81 17.282l2.4-1.28.063.04-2.41 1.28-.062-.04" class="d"/><g class="k"><path d="M17.203 11.234l2.4-1.28a1.27 1.27 0 0 1 .725-.133l-2.4 1.28c-.27-.025-.515.022-.725.133"/><path d="M17.928 11.1l2.4-1.28a1.91 1.91 0 0 1 .512.125l-2.4 1.28a1.91 1.91 0 0 0-.512-.125"/><path d="M18.44 11.226l2.4-1.28a2.71 2.71 0 0 1 .43.212l-2.4 1.28a2.8 2.8 0 0 0-.43-.212"/><use xlink:href="#B"/><path d="M21.31 15.907l2.4-1.28c-.003.218-.027.42-.07.6l-2.4 1.28a2.89 2.89 0 0 0 .069-.6"/><path d="M21.242 16.506l2.4-1.28c-.114.49-.362.84-.7 1.02l-2.4 1.28c.34-.18.587-.528.7-1.02"/></g><path d="M16.958 10.773l2.4-1.28c.24-.128.522-.18.83-.153l-2.4 1.28c-.31-.03-.6.024-.83.152" class="f"/><path d="M17.788 10.62l2.4-1.28a2.17 2.17 0 0 1 .588.143l-2.4 1.28a2.18 2.18 0 0 0-.588-.143" class="e"/><path d="M18.376 10.764l2.4-1.28c.16.06.325.142.493.243l-2.4 1.28a3.26 3.26 0 0 0-.493-.244" class="d"/><g class="k"><path d="M18.87 11.438c1.344.807 2.44 2.788 2.442 4.407s-1.094 2.283-2.438 1.476-2.44-2.788-2.442-4.407 1.095-2.283 2.438-1.476"/><path d="M18.87 11.438l2.4-1.28.064.04-2.412 1.28-.062-.04"/><path d="M18.932 11.477l2.41-1.28a3.8 3.8 0 0 1 .521.397l-2.41 1.28a3.84 3.84 0 0 0-.521-.397"/><path d="M19.453 11.875l2.4-1.28a4.85 4.85 0 0 1 .499.521l-2.4 1.28c-.157-.19-.324-.364-.5-.52"/></g><path d="M19.953 12.396l2.4-1.28c.402.482.74 1.056.98 1.654l-2.41 1.28a6.26 6.26 0 0 0-.98-1.654" fill="#7a7c7f"/><g class="k"><path d="M20.933 14.05l2.4-1.28c.078.196.146.394.2.592l-2.4 1.28c-.055-.198-.123-.396-.2-.592"/><path d="M21.134 14.642l2.4-1.28a4.77 4.77 0 0 1 .138.65l-2.4 1.28c-.03-.214-.077-.432-.138-.65"/><use xlink:href="#B"/></g><path d="M18.87 11.007l2.4-1.28.072.044-2.4 1.28-.072-.044" class="d"/><path d="M18.942 11.052l2.4-1.28c.205.13.405.283.598.456l-2.4 1.28c-.193-.173-.393-.326-.598-.456" class="i"/><g class="h"><path d="M19.54 11.508l2.4-1.28a5.7 5.7 0 0 1 .572.597l-2.41 1.28a6.03 6.03 0 0 0-.573-.597"/><path d="M20.112 12.105l2.4-1.28c.46.553.85 1.21 1.123 1.896l-2.4 1.28c-.274-.685-.663-1.343-1.123-1.896"/><path d="M21.235 14l2.4-1.28a6.63 6.63 0 0 1 .232.679l-2.412 1.28a6.54 6.54 0 0 0-.23-.679"/></g><path d="M21.465 14.68l2.41-1.28a5.75 5.75 0 0 1 .157.745l-2.4 1.28c-.035-.246-.088-.495-.158-.745" class="i"/><path d="M21.623 15.425l2.4-1.28a4.45 4.45 0 0 1 .047.634v.07l-2.41 1.28v-.07c-.001-.207-.016-.42-.047-.635" class="d"/><path d="M21.668 16.13l2.41-1.28c-.005.25-.032.48-.08.687l-2.41 1.28c.05-.207.076-.437.08-.687" class="e"/><path d="M21.588 16.82L24 15.54c-.132.562-.416.962-.804 1.167l-2.4 1.28c.388-.205.672-.605.803-1.167" class="f"/><path d="M18.873 17.32c1.345.808 2.44.144 2.44-1.476s-1.098-3.6-2.442-4.407-2.44-.143-2.437 1.476 1.098 3.6 2.44 4.407m-.004-6.313c1.54.925 2.8 3.195 2.8 5.052s-1.254 2.617-2.796 1.692-2.798-3.196-2.8-5.053 1.254-2.617 2.795-1.69" fill="#999b9d"/><path d="M20.3 13.827c.546 1.17.416 2.386-.29 2.716s-1.723-.35-2.27-1.52-.416-2.386.3-2.716 1.724.35 2.27 1.52" fill="#e1e2e3"/><defs ><path id="B" d="M21.272 15.292l2.4-1.28c.027.188.04.373.04.553l-.001.062-2.4 1.28.001-.06c0-.18-.015-.366-.04-.554"/></defs></svg>