<svg xmlns="http://www.w3.org/2000/svg" xmlns:xlink="http://www.w3.org/1999/xlink" viewBox="0 0 49.922 75.201"><style><![CDATA[.z{fill:#fff}.AA{fill:none}.AB{stroke-linejoin:round}.AC{stroke:#626366}.AD{stroke-width:3}.AE{stroke-linecap:round}.AF{fill:#898b8e}.AG{fill:#a4a6a9}]]></style><g transform="translate(1 1)"><g class="AA AB AC AD"><use xlink:href="#B"/><path d="M20.086 1.065s-1.437-.75-3.875.5-2.29 2.46-2.46 2.75c-.223.392-.166 1.624-.166 1.624v35.125s-.125.563 0 1.25 1 1.625 1 1.625l12.625 7.5s1.188.813 2 .75 1.375.125 3.125-1 2.125-3 2.125-3V11.565s0-1.375-.375-1.875-1-1-1-1l-13-7.625z"/></g><g transform="translate(0 45.201)"><defs><filter id="A" filterUnits="userSpaceOnUse" x="-.997" y="-1.171" width="17.579" height="10.744"><feColorMatrix values="1 0 0 0 0 0 1 0 0 0 0 0 1 0 0 0 0 0 1 0"/></filter><path id="B" d="M31.46 15.117a1.25 1.25 0 0 1-1.246 1.247 1.25 1.25 0 0 1-1.248-1.247V1.747c0-.7.558-1.247 1.248-1.247s1.246.557 1.246 1.247v13.37z"/><path id="C" d="M14.752.277L.173 8.016c1.12-.596 2.413.115 2.53.18l14.58-7.74C17.2.41 16.526.04 15.742.04a2.08 2.08 0 0 0-.99.236"/><path id="D" d="M.108 7.858c.186.126 3.727 2.515 3.732 8.584l.003 5.058 14.58-7.74-.004-5.057c-.004-6.07-3.545-8.46-3.73-8.584"/><path id="E" d="M14.752.274L.173 8.013c1.12-.596 2.413.115 2.53.18l14.58-7.74c-.083-.045-.756-.415-1.54-.415a2.08 2.08 0 0 0-.99.236"/><path id="F" d="M.108 7.856c.186.126 3.734 2.525 3.737 8.587L3.85 21.5l14.578-7.74-.004-5.058c-.004-6.06-3.55-8.46-3.737-8.587"/></defs><mask maskUnits="userSpaceOnUse" x="-.997" y="-1.171" width="17.579" height="10.744" id="G"><g filter="url(#A)"><path d="M.503 8.07v.004L15.082.33" class="z"/></g></mask><path d="M.503 8.068L15.082.335.503 8.068" mask="url(#G)" class="AA AB AC AD AE"/></g><path d="M15.082 45.536L.503 53.27l14.58-7.74z" class="AA AB AC AD"/><g transform="translate(2 36.201)"><defs><filter id="H" filterUnits="userSpaceOnUse" x="-1.328" y="-1.349" width="17.872" height="10.865"><feColorMatrix values="1 0 0 0 0 0 1 0 0 0 0 0 1 0 0 0 0 0 1 0"/></filter></defs><mask maskUnits="userSpaceOnUse" x="-1.328" y="-1.349" width="17.872" height="10.865" id="I"><g filter="url(#H)"><use xlink:href="#C" class="z"/></g></mask><path d="M.172 8.016L14.75.277a1.96 1.96 0 0 1 .293-.126L.465 7.9c-.1.032-.196.074-.293.126" mask="url(#I)" class="AA AB AC AD AE"/><defs><filter id="J" filterUnits="userSpaceOnUse" x="-1.035" y="-1.459" width="18.63" height="10.849"><feColorMatrix values="1 0 0 0 0 0 1 0 0 0 0 0 1 0 0 0 0 0 1 0"/></filter></defs><mask maskUnits="userSpaceOnUse" x="-1.035" y="-1.459" width="18.63" height="10.849" id="K"><g filter="url(#J)"><use xlink:href="#C" class="z"/></g></mask><path d="M.465 7.9L15.044.15c.36-.12.724-.13 1.05-.086L1.517 7.804a2.32 2.32 0 0 0-1.052.086" mask="url(#K)" class="AA AB AC AD AE"/><defs><filter id="L" filterUnits="userSpaceOnUse" x=".017" y="-1.435" width="18.766" height="11.131"><feColorMatrix values="1 0 0 0 0 0 1 0 0 0 0 0 1 0 0 0 0 0 1 0"/></filter></defs><mask maskUnits="userSpaceOnUse" x=".017" y="-1.435" width="18.766" height="11.131" id="M"><g filter="url(#L)"><use xlink:href="#C" class="z"/></g></mask><path d="M1.517 7.804L16.095.065c.625.083 1.117.353 1.188.39l-14.58 7.74c-.07-.04-.562-.3-1.186-.392" mask="url(#M)" class="AA AB AC AD AE"/></g><g class="AA AB AC AD"><path d="M2.172 44.217l14.58-7.74c1.12-.595 2.413.115 2.53.18l-14.58 7.74c-.117-.065-1.41-.776-2.53-.18z"/><path d="M4.703 44.396l14.58-7.74L43.686 51.32l-14.58 7.738z"/></g><g transform="translate(29 51.201)"><defs><filter id="N" filterUnits="userSpaceOnUse" x="-1.393" y="-1.38" width="19.389" height="12.618"><feColorMatrix values="1 0 0 0 0 0 1 0 0 0 0 0 1 0 0 0 0 0 1 0"/></filter></defs><mask maskUnits="userSpaceOnUse" x="-1.393" y="-1.38" width="19.389" height="12.618" id="O"><g filter="url(#N)"><use xlink:href="#D" class="z"/></g></mask><path d="M.107 7.858L14.686.12c.09.06.942.634 1.8 1.88l-14.58 7.74c-.87-1.244-1.72-1.82-1.8-1.88" mask="url(#O)" class="AA AB AC AD AE"/><defs><filter id="P" filterUnits="userSpaceOnUse" x=".417" y=".499" width="18.044" height="11.474"><feColorMatrix values="1 0 0 0 0 0 1 0 0 0 0 0 1 0 0 0 0 0 1 0"/></filter></defs><mask maskUnits="userSpaceOnUse" x=".417" y=".499" width="18.044" height="11.474" id="Q"><g filter="url(#P)"><use xlink:href="#D" class="z"/></g></mask><path d="M1.917 9.738L16.496 2l.465.735-14.58 7.74-.464-.735" mask="url(#Q)" class="AA AB AC AD AE"/><defs><filter id="R" filterUnits="userSpaceOnUse" x=".88" y="1.235" width="18.041" height="11.655"><feColorMatrix values="1 0 0 0 0 0 1 0 0 0 0 0 1 0 0 0 0 0 1 0"/></filter></defs><mask maskUnits="userSpaceOnUse" x=".88" y="1.235" width="18.041" height="11.655" id="S"><g filter="url(#R)"><use xlink:href="#D" class="z"/></g></mask><path d="M2.38 10.474l14.58-7.74a10.28 10.28 0 0 1 .461.916L2.842 11.4a9.89 9.89 0 0 0-.462-.916" mask="url(#S)" class="AA AB AC AD AE"/><defs><filter id="T" filterUnits="userSpaceOnUse" x="1.342" y="2.151" width="17.981" height="11.798"><feColorMatrix values="1 0 0 0 0 0 1 0 0 0 0 0 1 0 0 0 0 0 1 0"/></filter></defs><mask maskUnits="userSpaceOnUse" x="1.342" y="2.151" width="17.981" height="11.798" id="U"><g filter="url(#T)"><use xlink:href="#D" class="z"/></g></mask><path d="M2.842 11.4l14.58-7.74a10.46 10.46 0 0 1 .402 1.059L3.245 12.45c-.122-.38-.257-.732-.403-1.06" mask="url(#U)" class="AA AB AC AD AE"/><defs><filter id="V" filterUnits="userSpaceOnUse" x="1.746" y="3.21" width="18" height="12.51"><feColorMatrix values="1 0 0 0 0 0 1 0 0 0 0 0 1 0 0 0 0 0 1 0"/></filter></defs><mask maskUnits="userSpaceOnUse" x="1.746" y="3.21" width="18" height="12.51" id="W"><g filter="url(#V)"><use xlink:href="#D" class="z"/></g></mask><path d="M3.246 12.448L17.824 4.7c.174.537.318 1.127.422 1.77L3.668 14.22c-.104-.645-.25-1.235-.422-1.772" mask="url(#W)" class="AA AB AC AD AE"/><defs><filter id="X" filterUnits="userSpaceOnUse" x="2.168" y="4.982" width="17.754" height="18.018"><feColorMatrix values="1 0 0 0 0 0 1 0 0 0 0 0 1 0 0 0 0 0 1 0"/></filter></defs><mask maskUnits="userSpaceOnUse" x="2.168" y="4.982" width="17.754" height="18.018" id="Y"><g filter="url(#X)"><use xlink:href="#D" class="z"/></g></mask><path d="M3.668 14.22l14.578-7.74c.1.678.172 1.418.172 2.22l.004 5.058-14.58 7.74-.003-5.058a14.33 14.33 0 0 0-.172-2.221" mask="url(#Y)" class="AA AB AC AD AE"/></g><g class="AA AB AC AD"><path d="M29.107 59.06l14.58-7.738c.187.125 3.728 2.513 3.732 8.583l.003 5.057-14.58 7.74-.003-5.06c-.004-6.068-3.545-8.457-3.732-8.583z"/><path d="M29.107 59.06c.187.126 3.728 2.515 3.732 8.583l.003 5.06L.503 53.27c0 .067 0-.437-.003-4.175-.005-7.012 3.993-4.814 4.203-4.698L29.107 59.06z"/><path d="M1.496 44.788c1.198-1.497 3.065-.47 3.207-.392L29.107 59.06c.187.126 3.728 2.515 3.733 8.583l.003 5.06" class="AE"/></g><g transform="translate(0 45.201)"><defs><filter id="Z" filterUnits="userSpaceOnUse" x=".504" y=".327" width="14.578" height="7.744"><feColorMatrix values="1 0 0 0 0 0 1 0 0 0 0 0 1 0 0 0 0 0 1 0"/></filter></defs><mask maskUnits="userSpaceOnUse" x=".504" y=".327" width="14.578" height="7.744" id="a"><g filter="url(#Z)"><path d="M.504 8.065v.006L15.082.327z" class="z"/></g></mask><path d="M.504 8.065L15.082.332.504 8.07z" mask="url(#a)" fill="#8e969c"/></g><path d="M2.173 44.214l14.578-7.74c1.12-.595 2.414.115 2.53.18l-14.58 7.74c-.117-.065-1.41-.776-2.53-.18" class="AG"/><g transform="translate(2 36.201)"><defs><filter id="b" filterUnits="userSpaceOnUse" x=".173" y=".148" width="14.871" height="7.865"><feColorMatrix values="1 0 0 0 0 0 1 0 0 0 0 0 1 0 0 0 0 0 1 0"/></filter></defs><mask maskUnits="userSpaceOnUse" x=".173" y=".148" width="14.871" height="7.865" id="c"><g filter="url(#b)"><use xlink:href="#E" class="z"/></g></mask><path d="M.173 8.013L14.75.274c.098-.05.195-.093.293-.126L.466 7.887c-.1.033-.197.074-.293.126" mask="url(#c)" fill="#8e969c"/><defs><filter id="d" filterUnits="userSpaceOnUse" x=".466" y=".038" width="15.63" height="7.849"><feColorMatrix values="1 0 0 0 0 0 1 0 0 0 0 0 1 0 0 0 0 0 1 0"/></filter></defs><mask maskUnits="userSpaceOnUse" x=".466" y=".038" width="15.63" height="7.849" id="e"><g filter="url(#d)"><use xlink:href="#E" class="z"/></g></mask><path d="M.466 7.887L15.044.148c.36-.12.724-.13 1.052-.086L1.517 7.8c-.328-.044-.693-.035-1.05.086" mask="url(#e)" fill="#90989e"/><defs><filter id="f" filterUnits="userSpaceOnUse" x="1.517" y=".062" width="15.766" height="8.131"><feColorMatrix values="1 0 0 0 0 0 1 0 0 0 0 0 1 0 0 0 0 0 1 0"/></filter></defs><mask maskUnits="userSpaceOnUse" x="1.517" y=".062" width="15.766" height="8.131" id="g"><g filter="url(#f)"><use xlink:href="#E" class="z"/></g></mask><path d="M1.517 7.8l14.58-7.74c.624.083 1.116.353 1.187.39l-14.58 7.74c-.07-.04-.562-.3-1.186-.392" mask="url(#g)" class="AG"/></g><path d="M4.703 44.393l14.58-7.74 24.403 14.664-14.58 7.738z" class="AF"/><g transform="translate(29 51.201)"><defs><filter id="h" filterUnits="userSpaceOnUse" x=".107" y=".117" width="16.392" height="9.623"><feColorMatrix values="1 0 0 0 0 0 1 0 0 0 0 0 1 0 0 0 0 0 1 0"/></filter></defs><mask maskUnits="userSpaceOnUse" x=".107" y=".117" width="16.392" height="9.623" id="i"><g filter="url(#h)"><use xlink:href="#F" class="z"/></g></mask><path d="M.107 7.855L14.686.117c.09.06.943.637 1.813 1.884L1.92 9.74C1.05 8.493.197 7.916.107 7.855" mask="url(#i)" class="AG"/><defs><filter id="j" filterUnits="userSpaceOnUse" x="1.92" y="2.001" width="15.045" height="8.476"><feColorMatrix values="1 0 0 0 0 0 1 0 0 0 0 0 1 0 0 0 0 0 1 0"/></filter></defs><mask maskUnits="userSpaceOnUse" x="1.92" y="2.001" width="15.045" height="8.476" id="k"><g filter="url(#j)"><use xlink:href="#F" class="z"/></g></mask><path d="M1.92 9.74L16.5 2l.466.738-14.578 7.738-.467-.737" mask="url(#k)" fill="#c6c7c9"/><defs><filter id="l" filterUnits="userSpaceOnUse" x="2.386" y="2.739" width="15.043" height="8.659"><feColorMatrix values="1 0 0 0 0 0 1 0 0 0 0 0 1 0 0 0 0 0 1 0"/></filter></defs><mask maskUnits="userSpaceOnUse" x="2.386" y="2.739" width="15.043" height="8.659" id="m"><g filter="url(#l)"><use xlink:href="#F" class="z"/></g></mask><path d="M2.386 10.477L16.964 2.74c.16.28.318.588.465.92l-14.58 7.74-.463-.92" mask="url(#m)" fill="#bbbdbf"/><defs><filter id="n" filterUnits="userSpaceOnUse" x="2.849" y="3.659" width="14.982" height="8.797"><feColorMatrix values="1 0 0 0 0 0 1 0 0 0 0 0 1 0 0 0 0 0 1 0"/></filter></defs><mask maskUnits="userSpaceOnUse" x="2.849" y="3.659" width="14.982" height="8.797" id="o"><g filter="url(#n)"><use xlink:href="#F" class="z"/></g></mask><path d="M2.85 11.398l14.58-7.74c.145.327.28.68.402 1.058l-14.58 7.74a10.53 10.53 0 0 0-.403-1.058" mask="url(#o)" fill="#9ea0a3"/><defs><filter id="p" filterUnits="userSpaceOnUse" x="3.253" y="4.718" width="15.001" height="9.509"><feColorMatrix values="1 0 0 0 0 0 1 0 0 0 0 0 1 0 0 0 0 0 1 0"/></filter></defs><mask maskUnits="userSpaceOnUse" x="3.253" y="4.718" width="15.001" height="9.509" id="q"><g filter="url(#p)"><use xlink:href="#F" class="z"/></g></mask><path d="M3.253 12.456l14.58-7.738a12.02 12.02 0 0 1 .422 1.771l-14.58 7.738c-.104-.644-.248-1.234-.42-1.77" mask="url(#q)" class="AF"/><defs><filter id="r" filterUnits="userSpaceOnUse" x="3.673" y="6.489" width="14.754" height="15.011"><feColorMatrix values="1 0 0 0 0 0 1 0 0 0 0 0 1 0 0 0 0 0 1 0"/></filter></defs><mask maskUnits="userSpaceOnUse" x="3.673" y="6.489" width="14.754" height="15.011" id="s"><g filter="url(#r)"><use xlink:href="#F" class="z"/></g></mask><path d="M3.673 14.227l14.58-7.738c.108.676.17 1.413.17 2.215l.003 5.057L3.85 21.5l-.004-5.058a13.91 13.91 0 0 0-.172-2.215" mask="url(#s)" class="AF"/></g><path d="M29.107 59.056c.187.126 3.734 2.525 3.738 8.587l.004 5.06L.503 53.266c0 .068 0-.437-.003-4.175-.004-7.012 3.993-4.814 4.203-4.698l24.404 14.663z" class="AF"/><path d="M1.996 44.788c1.198-1.497 3.065-.47 3.207-.392L29.607 59.06c.187.126 3.728 2.515 3.733 8.583l.003 5.06" stroke="#dfe0df" stroke-width=".75" class="AA AB AE"/><use xlink:href="#B" x="0.085" fill="#939ba0"/><path d="M20.21 1.065s-1.437-.75-3.875.5-2.29 2.46-2.46 2.75c-.223.392-.166 1.624-.166 1.624v38.807s-.125.562 0 1.25 1 1.625 1 1.625l12.625 7.5s1.188.812 2 .75 1.375.125 3.125-1 2.125-3 2.125-3V11.565s0-1.375-.375-1.875-1-1-1-1l-13-7.625z" fill="#b3b5b7"/><path d="M13.065 36.065v8.15s-.134.6 0 1.334 1.067 1.734 1.067 1.734l13.47 8.004s1.268.866 2.135.8 1.466.134 3.334-1.067 2.267-3.2 2.267-3.2v-6.722" stroke-width="1.25" class="AA AC"/><path d="M33.086 11.065c.236.682-.36 1.507-1.332 1.843s-1.95.055-2.187-.626.36-1.507 1.333-1.843 1.95-.056 2.186.626" fill="#cacccd"/><path d="M32.457 11.18c.136.392-.172.854-.687 1.03s-1.044.006-1.18-.385.173-.854.688-1.033 1.043-.006 1.18.387" fill="#dddedf"/><path d="M19.72 25.608c0 .27-.173.382-.388.253l-2.84-1.707a.93.93 0 0 1-.387-.72V21.2c0-.266.176-.377.387-.25l2.84 1.707a.92.92 0 0 1 .388.716v2.235zm4.9 2.944c0 .27-.176.38-.4.252l-2.84-1.706c-.213-.128-.388-.45-.388-.72v-2.235c0-.266.175-.378.388-.25l2.84 1.706c.213.128.4.45.4.717v2.235zm4.88 2.926c0 .27-.174.38-.4.25l-2.84-1.706c-.212-.128-.387-.448-.387-.718V27.07c0-.266.175-.38.387-.25l2.84 1.706c.215.13.4.452.4.718v2.235zm-9.78-1.158c0 .27-.173.382-.388.253l-2.84-1.707a.93.93 0 0 1-.387-.72V25.91c0-.267.176-.377.387-.25l2.84 1.707a.92.92 0 0 1 .388.716v2.235zm4.9 2.944c0 .27-.176.38-.4.252L21.4 31.8c-.213-.128-.388-.45-.388-.72v-2.235c0-.267.175-.378.388-.25l2.84 1.706c.213.128.4.45.4.717v2.235zM29.5 36.2c0 .27-.174.38-.4.25l-2.84-1.706c-.212-.128-.387-.45-.387-.718V31.78c0-.267.175-.38.387-.25l2.84 1.706c.215.13.4.45.4.718V36.2zm-9.78-1.173c0 .27-.173.382-.388.253l-2.84-1.707a.93.93 0 0 1-.387-.72V30.6c0-.268.176-.377.387-.25l2.84 1.707c.215.13.388.448.388.716v2.234zm4.9 2.943c0 .27-.176.38-.4.252l-2.84-1.706c-.213-.128-.388-.45-.388-.72v-2.234c0-.268.175-.378.388-.25L24.23 35c.213.128.4.45.4.717v2.234zm4.88 2.927c0 .27-.174.38-.4.25l-2.84-1.706c-.212-.128-.387-.45-.387-.718V36.48c0-.268.175-.38.387-.25l2.84 1.706c.215.13.4.45.4.718v2.234zm-9.78-1.057c0 .268-.173.38-.388.252l-2.84-1.707a.93.93 0 0 1-.387-.718V35.42c0-.27.176-.38.387-.253l2.84 1.707a.92.92 0 0 1 .388.719v2.235zm4.9 2.942c0 .268-.176.38-.4.25l-2.84-1.706c-.213-.128-.388-.45-.388-.718v-2.235c0-.27.175-.38.388-.253l2.84 1.706c.213.128.4.45.4.72v2.235zM29.5 45.7c0 .268-.174.38-.4.25l-2.84-1.706c-.212-.128-.387-.45-.387-.717V41.3c0-.27.175-.382.387-.254l2.84 1.706c.215.13.4.452.4.72V45.7zm-.356-21.023c0 .908-.623 1.27-1.394.807L17.556 19.36c-.77-.463-1.392-1.574-1.392-2.482V9.283c0-.908.623-1.27 1.392-.807L27.75 14.6c.77.463 1.394 1.574 1.394 2.482v7.594zm-3.047 22.815l-7.846-4.715v-.502L26.097 47zm0 1.025l-7.846-4.715V43.3l7.846 4.715zm0 1.043l-7.846-4.715v-.503l7.846 4.715z" fill="#fefefe"/><path d="M31.886 49.158V12.135m-1.333-5.31V2.4" stroke="#dfe0df" stroke-width=".75" class="AA AB AE"/><path d="M5.12 45.6l2.44 1.467 1.154 8.352.027.014 1.166-6.955 2.442 1.466-2.2 8.585-2.9-1.742zm10.3 9.86c-.648-.4-.838.15-.838 1.968 0 1.83.2 2.593.838 2.983.68.408.815-.132.815-1.977 0-1.857-.135-2.565-.815-2.974m-3.035.674c0-2.247.486-3.675 3.023-2.15 2.686 1.614 3.027 3.495 3.027 5.743s-.492 3.67-3.027 2.15c-2.687-1.615-3.023-3.493-3.023-5.742m6.965-1.988l2.277 1.368v9.905l-2.277-1.37zm5.825 7.815l.623.376c.908.546 1.13.093 1.13-.572 0-.762-.246-1.493-1.168-2.048l-.584-.35v2.594zm-2.28-5.685l3.53 2.12c2.398 1.44 2.863 3.495 2.863 4.73 0 1.773-.828 2.525-3.107 1.156l-1.004-.603v3.87l-2.28-1.37v-9.905z" fill="#fefefe"/></g></svg>