<svg xmlns="http://www.w3.org/2000/svg" viewBox="0 0 62.6 61.7"><style><![CDATA[.Q{fill:#39b44b}.R{fill:#2ca9e1}.S{fill:#fff}.T{fill:#1f92d0}.U{fill:#9dcb3c}.V{fill:#39c5f3}.W{fill:#6ccdf4}.X{fill:#bfd631}.Y{fill:#dce691}.Z{fill:#8cb940}.a{fill:#18aee4}.b{fill:#d5de26}.c{fill:#2ea149}.d{fill:#a9c239}.e{fill:#c1e8fa}.f{fill:#0083c1}]]></style><path d="M34.7 46.5a.76.76 0 0 0-.4-.2c-.1 0-.2-.1-.2-.1 0-.1 0-.1.1-.2.3.1.5.2.8.4-.1 0-.2 0-.3.1zM27.1 42l.2-.2 1.9 1.2c.4.3.8.5 1.3.7h.2c.2-.2.5-.2.7-.1s.4.4.3.6c0 .1.1.3.2.3l1.8 1 .1.1c.1.1 0 .1 0 .2s-.1 0-.2 0l-2-1.2c-.1-.1-.1-.1-.2 0-.2.1-.5.1-.7 0s-.3-.3-.3-.6c0-.1 0-.2-.2-.3-1.1-.4-2.1-1-3.1-1.7zM20 37.8c0-.1.1-.2.1-.2l1.8 1.2c.4.2.8.5 1.2.7h.2c.2-.2.5-.2.7-.1s.4.3.3.6c0 .1.1.3.2.3l1.7 1 .1.1c.1.1 0 .1 0 .2s-.1 0-.1 0l-1.9-1.1h-.2c-.2.1-.4.1-.6 0a.55.55 0 0 1-.3-.5c0-.1 0-.2-.1-.3-1.2-.6-2.1-1.2-3.1-1.9z" class="e"/><path d="M35.3 60.2c-.2.7-.7 1.3-1.4 1.6h-.6c-.6-.2-1.1-.6-1.5-1.2l-.5-.7c-.5-.8-1-1.7-1.3-2.6 0-.1 0-.2-.1-.2 0-.1 0-.2-.1-.3-.1-.2-.1-.4-.3-.6l-.3-1c0-.1 0-.2-.1-.3l-.5-1.3v-.2c0-.1 0-.1-.1-.2 0-.2-.1-.4-.1-.5l-.1-.4c-.1-.3-.1-.6-.3-.9 0-.2-.1-.4-.2-.6l-.3-1.3v-.1l-1.1-5.2v-.3c-.1-.3-.1-.7-.2-1v-.1l-.5-3.2c0-.2-.1-.2-.3-.3-1.2-.4-1.8-1.7-1.5-2.8.2-.6.6-1 1.1-1.3 0 0 .1 0 .1-.1l-.1-.9v-3.1c0-.3 0-.6-.1-.9s0-.6 0-1v-3.6h-.1l-1.6 1.5-1 1.1c0-.1-.1-.2 0-.3l1.1-1.2 1.5-1.5s.1-.1.1-.2v-1.1l.1-2v-.1l.1-1.4.1-.9.1-.4c.1-.7.3-1.3.5-2l.3-.8.6-1.1c.2-.2.4-.4.7-.6.4-.2.9-.1 1.3.1a1.96 1.96 0 0 1 .9.9l-.6.2a.67.67 0 0 0-1-.1l-.3.3c-.2.2-.3.5-.4.7 0 0 0 .1-.1.1-.3 1-.5 2-.6 3v.5c-.1.4-.1.8-.1 1.2v.5c-.1.7-.1 1.3-.1 1.9 0 .2 0 .2.2.2h.1c-.3.2-.4.5-.4.8v5.6c0 .4 0 .8.1 1.2v.9c0 .8.1 1.6.2 2.4 0 .1 0 .2.2.2.4.1.8.3 1.1.6.8.9.8 2.4-.2 3.2-.2.1-.4.3-.6.4-.1 0-.2.2-.1.3l.5 3.3c.1.5.1.9.3 1.4v.2l.6 3.3.3 1.4v.1l.3 1.2c0 .1 0 .2.1.2l.3 1.1.1.4c0 .1.1.2.1.3.1.5.3.9.4 1.4l.6 1.8c.1.3.2.7.4 1l.6 1.4c.3.7.6 1.3 1 1.9.1.2.3.4.5.6l.1.1c.2.2.5.3.8.2.2-.1.4-.3.5-.5l.8-.3zM31.6 0c.3.1.5.2.7.4s.4.6.3.9v7.9c0 .7-.5 1.3-1.3 1.3-.6 0-1.2-.4-1.3-1.1V1.2c0-.6.4-1.1 1-1.3h.1l.5.1zM0 16.4c.1-.3.2-.6.5-.8.4-.3 1-.4 1.5-.1l3.8 2.4 2.9 1.8c.6.4.8 1.2.5 1.8-.2.2-.5.4-.8.5-.4.1-.8.1-1.1-.2l-6-3.8c-.1 0-.3 0-.4-.1-.4-.2-.8-.6-.9-1v-.5zm62.6.5s0 .1 0 0c-.1.4-.3.7-.6.8L56.7 21l-1.4.9c-.6.4-1.4.2-1.8-.4s-.2-1.4.4-1.8l6.7-4.1c.6-.4 1.4-.3 1.8.3.1.1.1.3.2.4v.6z" class="a"/><path d="M53.3 33.3c.6.2 1.1.5 1.6.9s.6 1.1.3 1.7c-.2.3-.5.7-.8.9l-.2.2c-.2.1-.4.2-.5.4l-1.1.6-2.4 1.1c-.1 0-.1.1 0 .1.4 1 .8 2.1 1.1 3.2.2.8.3 1.6.4 2.4-.3-.1-.7-.1-1-.1l-.1-.1-.1-.4c0-.2-.1-.3-.1-.5-.2-.9-.5-1.8-.9-2.7l-.2-.3c-.1-.3-.2-.6-.4-.8 0-.1-.1-.1-.2-.1l-2.6.9-2 .6c-.1 0-.2 0-.3.1l-.8.2-1.5.4-.8.2c-.1 0-.2 0-.4.1h-.1l-3.7.8-.2-.1c-.3 0-.5.1-.8.2-.2 0-.5 0-.7.1l-.9.2h-.1c-1 .2-2 .3-3 .4l-2 .3c.1-.2.2-.5.1-.8 0-.2-.1-.4-.1-.6h.1l1.9-.2 3.8-.6 1-.2.6-.1h.2l4-.8c.5-.1 1-.2 1.5-.4.1 0 .2 0 .3-.1.2 0 .3-.1.5-.1.3-.1.5-.1.8-.2h.1l2.3-.6c.2 0 .4-.1.5-.2.3-.1.5-.1.8-.2.4-.1.9-.3 1.3-.4.2-.1.3-.1.5-.2.3-.1.5-.2.7-.3h.2c.4-.2.9-.3 1.3-.5l1.8-.9c.2-.1.3-.2.5-.3s.4-.2.5-.4c.2-.2.4-.4.6-.7.1-.3.1-.6-.1-.8-.2-.3-.5-.5-.9-.7l-.3-.6zM9.5 43.8l-1.4-.6c-.3-.2-.5-.4-.7-.6-.3-.4-.4-1-.1-1.4.2-.5.6-.9 1-1.2.2-.1.3-.3.5-.4.1.1.1.2.2.4-.4.3-.6.6-.9 1-.2.3-.1.6.1.8.3.3.6.5 1 .6.2.1.4.2.7.2.3.1.5.1.8.2.5.1 1 .2 1.5.2.4.1.7.1 1.1.1h.2c.3 0 .7.1 1 0 .3 0 .5.1.8.1.4 0 .8.1 1.2 0h.9l-.4-.6c0-.1.1-.2.2-.3l.6.8c.1.1.1.1.2.1h2.7c.1 0 .2 0 .2-.1.4-1.1 1.7-1.7 2.8-1.3.5.2 1 .6 1.2 1.1 0 .1.1.1.2.1h.4v.3c0 .4.1.7.2 1h-.5c-.1 0-.2.1-.2.2-.1.3-.3.6-.5.8-.1.2-.3.3-.5.4l-.2.1c-.2.1-.5.1-.7.2a2.33 2.33 0 0 1-2.1-1.3c0-.1 0-.1-.1-.1h-1.8v.1l1.1 1.1c0 .1.1 0 .2 0 .3-.1.7 0 .8.3a.45.45 0 0 1 0 .5c-.1.1-.1.1 0 .2.5.5 1 .9 1.5 1.3.1.1.3.3.5.3 0 .1.1.1.2.1 0 .1.1.1.1.1l.6.5c-.2 0-.4-.1-.5-.1 0-.1-.1-.1-.2-.2s-.1-.1-.1 0c-.1 0-.1 0-.2-.1.1-.2 0-.3-.1-.4l-1.8-1.6c-.1-.1-.1-.1-.3-.1-.2.1-.5 0-.6-.1-.2-.2-.2-.4-.1-.7v-.2L19 44.3c-.1-.1-.1-.1-.2-.1h-2.7c-.4 0-.7 0-1-.1h-.3l-1.3-.1-1-.1c-.3-.1-.5-.1-.8-.1l-.4-.1-1.1.3-.7-.2z" class="U"/><path d="M31.4 59.9l.5.7c-.9.1-1.8 0-2.7-.2-1.1-.2-2.2-.5-3.2-.9h-.1l-1.1-.5-1-.5-1-.6-.7-.5-.3-.2s0-.1-.1-.1l-.3-.3c-.7-.5-1.3-1.1-1.9-1.7l-.5-.6c-.1-.1-.1-.2-.2-.2v-.1l-.8-.9-.8-1.1-.5-.8-.1-.1h-.5a1.37 1.37 0 0 1-1-1.7.76.76 0 0 1 .2-.4c0-.1.1-.1 0-.2l-.6-1.4-.6-1.6v-.4c0-.1 0-.2.1-.1h.5l.4-.1.2.7.3.9v.2c.2.4.3.8.5 1.1.1.2.1.4.4.3h.1c.8.1 1.3.8 1.2 1.6 0 .2-.1.4-.2.5s-.1.3 0 .4l.7 1c.2.3.5.7.8 1l.1.1c.1.2.3.4.5.5.4.5.9 1 1.4 1.5.2.2.5.4.7.6l.3.2c.1.1.3.3.5.4l.3.2c.5.4 1 .7 1.6 1l1.1.6c.3.2.7.3 1.1.5h.1c1.3.7 2.9 1.1 4.6 1.2z" class="Q"/><path d="M14.2 3.9c.5 0 .9.3 1.1.7l2 4.1 1.5 3c.4.6.2 1.4-.4 1.8s-1.4.2-1.8-.4c0-.1-.1-.1-.1-.2l-2.2-4.6L13 5.8c-.3-.7 0-1.4.6-1.7.2-.2.4-.2.6-.2zm35.1 1.3c0 .3-.1.6-.3.9l-2.2 4.5-1.1 2.3a1.59 1.59 0 0 1-1 .8c-.7.1-1.3-.4-1.4-1.1 0-.3 0-.6.2-.9l2.8-5.9.6-1.2c.4-.6 1.2-.8 1.8-.4.3.2.5.4.6.7v.3z" class="a"/><path d="M22.1 28c-.1.1 0 .2 0 .3s.1.3.3.3l.4.1 1.5.6c-.1.1-.1.2-.2.3-.2.3-.3.6-.4 1l-1.9-.7c-.1-.1-.2-.1-.2 0-.2.2-.5.4-.9.5-.1 0-.3 0-.4.1s-.1 0-.2 0H20c-.7-.1-1.2-.7-1.3-1.4 0-.1-.1-.2-.2-.2l-2.8-.8c-.1 0-.2-.1-.3 0 0-.1 0-.1-.1-.1-.3-.1-.6-.1-1-.2l-.2-.1-.6-.1-.5-.1c-.4 0-.7-.1-1.1-.1h-.6c-.2 0-.4.1-.6.2-.3.1-.5.5-.4.8s.2.7.4 1l-.3.4c-.4-.5-.6-1-.8-1.6-.2-.7.2-1.5.9-1.7.4-.1.8-.2 1.2-.2h.7c.6 0 1.1.1 1.7.1l1 .1 1.1.2c.2.1.5.1.7.1h.1l2.1.6c.1 0 .2 0 .3-.1.3-.3.8-.5 1.2-.4.7.1 1.2.4 1.5 1.1 0-.1 0 0 0 0z" class="W"/><path d="M44.2 19c.6 0 1.2.1 1.7.3 1.7.5 2.9 1.9 3.2 3.6.1.3.1.6.1 1v.9l-.5-.5c0-.2 0-.4-.1-.6v-.2c-.2-1-.6-2-1.4-2.7-.4-.4-1-.7-1.6-.9-.4-.1-.9-.2-1.4-.2-.8 0-1.5.1-2.3.3l-.3.1-1.7.6-.2.1c-1.1.4-2.1.9-3.1 1.5-.5.3-1.1.6-1.6 1-.4.2-.8.5-1.2.8-.1 0-.2.1-.3.2-.1 0-.2.1-.3.2-.1 0-.1.1-.2.1-.2.1-.4.3-.6.5-.2 0-.3.2-.4.3s0 0 0 0c-.1 0-.1 0-.1.1l-2.2 1.8-1.4 1.3c-.2-.3-.5-.6-.8-.8l2.7-2.4 1.5-1.1c.1 0 .2-.1.3-.2.3-.2.6-.4.8-.6h.1l1-.7s.1 0 .1-.1h.1c.1 0 .1 0 .2-.1l2.3-1.3c.5-.3 1-.5 1.5-.7.7-.3 1.5-.6 2.3-.8.1 0 .2 0 .3-.1l1.1-.3h.1l.9-.1c.4-.3.9-.3 1.4-.3z" class="b"/><path d="M12.4 26.1h-.7a8.47 8.47 0 0 1 1.5-3c.3-.4.6-.7.9-1 .8-.8 1.8-1.4 2.8-1.8.9-.4 1.9-.7 2.9-.9h.3c.2 0 .4-.1.5-.2.8-.6 1.6-1.2 2.5-1.6.1 0 .1-.1.1-.2.1-.4.5-.7.9-.5h.3l1.6-.6-.3.8c-.3.1-.7.3-1 .4-.1 0-.1.1-.1.2-.1.4-.4.7-.9.7-.1 0-.2 0-.3-.1h-.1l-1.5 1-1.3 1h-.1A15.46 15.46 0 0 0 18 23l-1.2 1.8c-.2.2-.3.5-.4.7-.1 0-.2-.1-.2-.1-.2-.1-.5-.2-.7-.2.7-1.3 1.5-2.6 2.5-3.7.3-.4.7-.7 1-1.1-.2 0-.4 0-.6.1-1.7.4-3.2 1.2-4.4 2.5-.8 1-1.3 2-1.6 3.1z" class="Q"/><path d="M48.7 24.2l.9.9c.8.9 1.4 1.9 2 3l.2.3.6 1.1.5 1.4c.3.8.4 1.6.6 2.5l.1.5v.2c0 .4.1.8 0 1.2l-.7-1.1c0-.2 0-.4-.1-.6l-.1-.4V33c-.1-.6-.2-1.1-.4-1.7-.2-.7-.5-1.4-.8-2l-.9-1.7a11.51 11.51 0 0 0-1.4-1.7 5.73 5.73 0 0 0-1.1-1.1 6.42 6.42 0 0 0-1.3-1c-.2-.2-.5-.4-.8-.5-.7-.5-1.4-.9-2.2-1.2-.1-.1-.2-.1-.3-.1.2-.3.2-.7.2-1v-.1h.1c.9.4 1.8.9 2.6 1.5a3.04 3.04 0 0 0 .7.5c.4.3.9.7 1.3 1.1h.1l.2.2z" class="T"/><path d="M52.9 47.9c-.3-.6-.6-1.2-1-1.7l-.2-.3-1.1-1.2-.3-.3-1.2-1.1c-.1 0-.1-.1-.1-.1-.3-.2-.5-.4-.7-.6l-1.3-1h-.1c-.1.3-.4.7-.6.9 0 0-.1.1-.2.1l2.5 2h.1l1.1.9c.1 0 .1.1.1.2l.5.5c.1 0 .1.1.2.2.3.3.6.7.9 1.1s.5.8.5 1.3a.55.55 0 0 1-.3.5c-.2.2-.4.3-.7.3v.6c.5 0 1-.2 1.5-.4.3-.2.5-.5.6-.8 0-.4 0-.8-.2-1.1z" class="W"/><path d="M51.2 49.7l-.2.5c-.2.6-.4 1.1-.7 1.6-1.2 2.1-3.2 3.6-5.6 4.2-.8.2-1.6.3-2.4.4-.2 0-.5 0-.7.1h-.8a17.33 17.33 0 0 1-3.2-.3l-1.3-.3c-.1 0-.1-.1-.2-.1-.2-.1-.4-.1-.7-.2-.1-.1-.2-.1-.4-.1l-1.5-.5c.1 0 .2-.2.3-.1.2.1.5.1.8.1.4.1.8.3 1.3.3.2.1.4.1.6.1 1.2.3 2.4.4 3.6.5l2.3-.1c.2 0 .4 0 .6-.1h.2c1.1-.2 2.1-.5 3.1-1 1.8-.9 3.2-2.5 3.9-4.5.1-.1.1-.3.1-.4v-.1l.3-1.6h.4c.1 0 .3 0 .4-.1l-.2 1.7z" class="U"/><path d="M18.8 57.8c-.5.1-1 .1-1.5 0-.8-.1-1.6-.3-2.2-.7-.9-.6-1.5-1.4-1.9-2.5-.2-.7-.4-1.4-.4-2.1v-1l.1-1 .1-.8c.1-.2.1-.5.1-.7l.3-1.2c.3.2.6.4.9.5l-.1.4-.3 1.3c-.1.2-.1.4-.1.6-.1.2-.1.5-.1.8 0 .2-.1.3 0 .5v.8c0 .5.1 1 .2 1.5.4 1.8 2.1 3.1 4 3l.9.6z" class="b"/><path d="M13.2 27.4l.5.1c-.4.3-.8.5-1.1.9-.2.2-.4.3-.6.5l-.9.9c-.1.1-.2.2-.3.4-.1.1-.2.3-.4.4-1.4 1.8-2 4.1-1.6 6.3.1.6.3 1.2.5 1.8l-.1 1.7c-.1-.2-.1-.3-.2-.4 0-.2-.1-.3-.2-.5l-.3-.9c-1-3-.3-6.4 1.8-8.7l.1-.1.3-.4.6-.6.6-.5 1.3-.9zm15.7-11.6l.8-.1h2.2c1.5.1 3 .5 4.4 1l1.5.6.4.2.8.5-1 .1c-.1-.1-.2-.1-.3-.2s-.2-.2-.4-.2c0 0-.1-.1-.2-.1l-1.6-.6c-1.7-.6-3.6-.9-5.4-.8h-.7l-2.1.4c.1-.3.2-.5.4-.7l1.2-.1z" class="Q"/><path d="M18.8 57.8l-1-.5-.1-.1c-.8-.5-1.6-1.2-2.2-2-.5-.7-.9-1.4-1.2-2.2.2 0 .4.1.6.1.6 1.3 1.6 2.5 2.8 3.3.5.4 1 .6 1.6.8l.9.3c.5.2 1.1.2 1.6.3h1l1 .6h-2c-1 0-2-.2-3-.6z" class="R"/><path d="M41.6 56.5c.2 0 .5-.1.7-.1-.8.7-1.6 1.3-2.5 1.8-1.4.8-2.8 1.5-4.4 1.8h-.1l-.6.1c-.5.1-1 .2-1.5.2-.2-.2-.4-.4-.5-.6.5 0 .9-.1 1.4-.2.4 0 .8-.1 1.1-.2.2 0 .3 0 .5-.1h.1c2.1-.4 4-1.4 5.8-2.7zm12.1-19.1c.2-.2.3-.3.5-.4.7 2.1.6 4.4-.4 6.4-.3.7-.7 1.3-1.1 1.9 0-.1 0-.1-.1-.2l-.3-.4.1-.1c1.5-2.1 2-4.8 1.3-7.2z" class="Q"/><path d="M12.8 51.5v.8c-1.2-.5-2.1-1.5-2.6-2.7-.2-.7-.3-1.5-.2-2.3 0-.4.2-.7.2-1.1l.3-.9.5-1.1.4.1-.2.4c-.2.4-.3.9-.4 1.4-.1.4-.2.7-.2 1.1-.1.6-.1 1.3.1 1.9.2 1 1 2 2.1 2.4z" class="V"/><path d="M38.1 17.5l-.4-.2c.5-.6 1.2-1 1.9-1.3.6-.3 1.4 0 1.7.7.2.5.4 1 .5 1.5l.1.7v.4h-.1c0-.2-.2-.2-.4-.3h-.7v-.3c0-.2 0-.4-.1-.6 0-.3-.1-.6-.3-.9-.1-.3-.5-.4-.8-.3-.1 0-.3.1-.4.1-.4.1-.7.3-1 .5zm-16.3 41h.4c.1.4.2.8.5 1.1.2.2.5.3.8.3a.76.76 0 0 0 .4-.2c.3-.2.6-.4.9-.7l1.1.5c-.5.5-1.1 1-1.8 1.3-.6.3-1.4.1-1.8-.6-.3-.6-.4-1.2-.5-1.7z" class="X"/><path d="M52.3 29.5l-.5-1.1-.2-.3V28c0-.8-.2-1.5-.6-2.2-.5-.6-1.1-1.1-1.7-1.4v-.6c1 .3 1.8 1 2.4 1.8.4.7.7 1.4.7 2.2 0 .6 0 1.1-.1 1.7 0-.1 0-.1 0 0z" class="V"/><path d="M10.6 45.3l-.3.9c-.3-.8-.6-1.6-.7-2.5l.7.2c0 .5.1 1 .3 1.4z" class="T"/><path d="M41.8 18.8l-.1-.7c.8.1 1.5.4 2.3.7l.2.1c-.5 0-1 0-1.5.1-.3-.1-.6-.1-.9-.2z" class="R"/><path d="M52.3 44.6l.3.4c0 .1.1.1.1.2-.2.3-.5.6-.8.9l-.2-.3v-.6c.2-.1.4-.3.6-.6z" class="c"/><path d="M29.5 51.7l-.3-1.1 1.1.1h.2l1.3.1h.9l2.1.2c0 .3 0 .7.1 1h-.2c-1.2 0-2.4 0-3.5-.2l-1.5-.1h-.2z" class="Q"/><path d="M29.9 57c-.8.4-1.6.6-2.4.9-.1 0-.2.1-.3.1h-.1l-1 .3c-.2 0-.4.1-.6.2l-1.1-.6c.6-.1 1.3-.2 1.9-.4h.1c.5-.1.9-.3 1.3-.4.3-.1.5-.2.7-.5.3 0 .6 0 .9-.2.1 0 .2-.1.2-.1l.3.6c.1-.1.1 0 .1.1z" class="R"/><path d="M26.9 56.4c.5-.7 1-1.5 1.4-2.2l.3-.6.5 1.4c0 .1 0 .2.1.3l-.8 1.2c-.1.3-.4.4-.7.5-.4.1-.9.3-1.3.4h-.1c0-.1 0-.1.1-.1l.4-.5.1-.4z" class="X"/><path d="M27.1 21.2l-.8.2c0-.4.1-.8.1-1.2v-.3c.1 0 .2 0 .3-.1l1.4-.4h.2l.1.2c.2.3.3.6.4 1l-.3.1c-.4.2-.9.3-1.4.5z" class="f"/><path d="M35.5 55.7c-.7.2-1.4.4-2.2.5a8.33 8.33 0 0 1-2.2.3c-.1-.3-.3-.7-.4-1l.5-.3 1.1-.6c.1.3.2.6.2.9l-1.1.7c1.2-.1 2.5-.4 3.7-.7a.76.76 0 0 1 .4.2z" class="T"/><path d="M26.3 28.8l1.1-1 .1-.1c.3.2.6.4.8.8l-.6.6c-.2.2-.5.4-.7.7l-.2.2-.3.2c-.1-.1 0-.2 0-.3-.2-.2-.2-.6-.2-1.1z" class="d"/><path d="M28.7 53.4l-2 1.3s-.1.1 0 .1c0 .2-.1.4-.2.5-.2.1-.4.1-.5 0 0 0-.1-.1-.1 0l-1.6.8c-.2.1-.4.2-.5.3-.3.1-.6.3-.9.4l-.3-.2c.2-.1.5-.2.7-.3s.4-.1.6-.2l.8-.3 1.1-.6c.1 0 .1-.1.1-.2 0-.2.1-.4.2-.5.2-.1.4-.1.5 0h.2a22.63 22.63 0 0 0 2-1.3c-.2.1-.1.1-.1.2z" class="b"/><path d="M25 21.9c-.3.1-.7.3-1 .4l-.2.1v-.1c-.2-.4-.3-.8-.3-1.2l1-.4.6-.2-.1 1.4c.1-.2 0-.1 0 0z" class="f"/><path d="M30.3 53.6l-.1.2c-.2-.5-.3-.9-.4-1.4 0-.1-.1-.2-.1-.3l.2-.3 1.5.1-.8 1.4v.1s-.3.1-.3.2z" class="d"/><path d="M28.9 49.1l1.1-.5c.1.1.2.2.2.4.1.3.2.6.1.9-.4.2-.8.3-1.1.5l-.3-1.2v-.1z" class="R"/><path d="M26.3 23.8h2.4c.1 0 .1 0 .1-.1.1-.2.4-.3.6-.2.1 0 .2.1.2.2s.1.1.2.1c.7 0 1.4.1 2.1.2-.1.1-.2.1-.3.2-.5-.1-1-.1-1.5-.1h-.2c-.1 0-.3 0-.3.1-.1.2-.4.3-.6.1-.1 0-.1-.1-.2-.2 0-.1-.1-.1-.2-.1h-2.1c-.2.1-.3 0-.2-.2z" class="Q"/><path d="M28.7 44.1l-.8.1-.3-1.4 1-.1c.1.2.1.4.1.6.2.3.1.6 0 .8z" class="Z"/><path d="M19.4 24.8l1.2-.3c1.4-.3 2.8-.5 4.3-.6v.2c-1.7.1-3.4.4-5 .8l-1 .3c.2-.2.3-.3.5-.4z" class="Q"/><path d="M26.5 44.4l-.9.1c-.2-.3-.3-.7-.2-1V43h.9c.1.3.1.7.2 1v.4zm-1.3-24l-.6.2-.6-.1c.1-.4.2-.7.4-1.1.3 0 .7.1 1 .1l-.2.9z" class="Z"/><path d="M22.4 34.7l1.2-.2c.1 0 .1-.1.1-.1 0-.2.2-.4.4-.4s.4 0 .5.2c0 .1.1.1.2 0h.3v.2H25c-.1 0-.3.1-.3.2-.1.3-.4.4-.6.3-.1 0-.2-.1-.2-.2-.1-.1-.2-.1-.3-.1l-1.1.3h-.2l.1-.2z" class="Y"/><path d="M25 31.8l-.3.2c-.2-.1-.3-.2-.4-.3-.1-.2-.2-.3-.4-.5l.4-.5.5-.6c.1.3 0 .6.1.9s.1.5.1.8z" class="d"/><path d="M24.9 30.2l-.5.6-.5-.2c0-.4.2-.7.4-1 .1-.1.1-.2.2-.3l.4.1c.1 0 .1 0 .1-.1v-.2c-.1.4-.1.8-.1 1.1z" class="V"/><path d="M26.9 49.9l.7-.3.3 1.3c-.1.1-.3.1-.4.1 0-.2-.2-.2-.3-.3l-.3-.8zm-.6-19.5l.3-.2.3.1v.5c-.1.3-.2.6-.5.8-.1-.4-.1-.8-.1-1.2z" class="R"/><path d="M26.7 51.3c.5.4 1.1.7 1.6 1l.1.4-2-1.2c.2-.1.2-.2.3-.2z" class="U"/><path d="M28.1 51.4l-1.1-.2c.1-.1.3-.1.5-.2.2 0 .3-.1.4-.1.1.2.2.3.2.5z" class="Q"/><path d="M28.9 15.8l-1.3.2.3-.3c.3-.3.7-.2 1 .1z" class="S"/><path d="M26.9 19.9c-.1.1-.2.1-.3.1v-.2l.3.1z" class="Z"/><path d="M24.9 29z" class="V"/><path d="M32.3 54.7c.2-.1.3-.2.4-.3l.2-.1c.1 0 .1-.1.1-.2v-.5c.2-.7.8-1.1 1.5-.9.1 0 .2.1.3.1 0 0 .1.1.2 0 .3-.2.6-.5.8-.7.5-.3.9-.7 1.3-1 .6-.5 1.1-1.1 1.7-1.6s.9-.9 1.3-1.4c.1 0 .1-.1.1-.2.1 0 .1-.1.2-.2 1-1.2 1.9-2.5 2.8-3.9l1.2-2c.1-.1.1-.2-.1-.2-.1-.1-.2-.1-.3-.2l2-.6c0 .1-.1.2-.1.3-.2.4-.4.8-.7 1.2l-1.3 2.1-2.8 3.8-.2.2-1.1 1.2-1.3 1.3-1.2 1.1-.8.7s-.1.1-.1.2c0 .3 0 .7-.1 1s-.1.9-.1 1.4c-.1.1-.1.1-.2.1l.2-2.3-.8.6c-.1 0-.1.1-.1.2 0 .4-.1.7-.4 1-.4.4-1 .5-1.4.3-.1 0-.2.1-.3.1l-.2.1-.8.5c.3-.6.2-.9.1-1.2z" class="R"/><path d="M31 48.1l.8-.4c.1 0 .1-.1.2-.1.2 0 .3-.1.4-.2l1.6-.9c.5-.3.8-.4 1.1-.7.1 0 .1-.1.2-.1l.3-.2c.1 0 .1-.1.1-.2v-.5c.1-.4.3-.9.6-1.2l.2-.1c.6-.4 1.4-.4 2.1 0h.2l1.3-.9c.2-.1.4-.3.6-.5l.8-.2c0 .1 0 .1.1.2.2.2.4.4.6.5l-.2.2-2.7 1.9c-.1.1-.2.2-.1.3v.6c-.1.6-.5 1-1 1.3-.1 0-.2.1-.3.1-.4.1-.9 0-1.3-.2 0 0-.1 0-.1-.1s-.2-.1-.3 0H36L33.8 48c-.3.1-.6.3-.9.5h-.2c-.5.2-.9.5-1.4.7 0-.2-.1-.5-.2-.7.1 0 0-.2-.1-.4z" class="V"/><path d="M51.4 29.2c.3.6.6 1.3.8 2 .2.6.3 1.1.4 1.7v.2c-.3-.1-.5-.2-.8-.2l-.5-.5-.3.6c-.3.7-.7 1.3-1.1 1.9l-.6.9c-.1 0-.1.1-.1.2-.2.2-.3.4-.5.6s-.3.3-.4.5c-.2.2-.4.4-.5.6l-.4.4c-.4.3-.8.8-1.1 1.1-.2.1-.3.1-.5.2-.1-.2-.3-.5-.4-.6l-.2-.2.9-.9c.3-.3.6-.6.9-1 .1 0 .1-.1.2-.2l.3-.3c.2-.2.4-.5.6-.8.2-.2.5-.5.6-.8.1-.1.2-.3.3-.4l.1-.1c.3-.4.5-.8.8-1.2.1-.1.1-.1.1-.2l.3-.6c.1-.1.2-.3.3-.5l.8-2.4z" class="W"/><path d="M51.9 42.8l.2-.3v-.1c.2-.5.4-1 .5-1.5s.3-1.2.5-1.7l.1-.5v-.5c0-.2 0-.4.1-.6l-.8.4c0 .6-.1 1.2-.2 1.8-.2.8-.5 1.7-.9 2.5 0 .1 0 .1-.1.1.1.4.2.8.2 1.2.1-.2.3-.5.4-.8z" class="T"/><path d="M52.8 35.4c-.3-.6-.7-1.2-1.1-1.7-.1-.2-.3-.4-.4-.5 0-.1-.2-.2-.3-.2l.3-.6.5.5c.1.1.2.3.3.4l.6.8.7 1.1.3.7c-.1.2-.3.3-.5.4 0-.3-.2-.6-.4-.9z" class="Q"/><path d="M49.4 37.8l.1.2c-.2.1-.5.2-.7.3s-.3.1-.5.2c-.2-.3-.3-.6-.5-.9.1-.2.3-.4.5-.6.1-.2.3-.3.4-.5l.6 1.1c0 .1.1.2.1.2z" class="Z"/><path d="M35.5 43.2l-.7 1.6c-.2 0-.5-.1-.7-.2s-.4-.2-.5-.3l.3-.8.9-.2c.2-.1.4-.1.7-.1zm.8-2l-.2.4-.6.1-1 .2.5-1.3c.3 0 .6.1.8.2.2.2.3.3.5.4z" class="d"/><path d="M45.1 38.5c0 .1.1.2.2.2.2.2.3.4.5.7l-2.3.6h-.1c0-.1.1-.1.1-.1.2-.1.3-.3.4-.4.1 0 .1-.1.2-.1l1-.9zm-1.2 2.8c-.5.5-1 .9-1.6 1.3-.2-.2-.4-.3-.6-.5 0 0-.1-.1-.1-.2l1.5-.4.8-.2z" class="a"/><path d="M43.9 39.5l-.4.4c-.1 0-.1.1-.1.1-.3.1-.5.2-.8.2.1-.3.2-.5.3-.7s.3-.3.4-.4c.2.1.4.2.6.4z" class="R"/><path d="M51.6 44.8v1.1l-1.1-1.2c.4 0 .8 0 1.1.1z" class="Z"/><path d="M49.4 41v.1l-.3 2.3c-.1 0-.1-.1-.1-.1.2-.9.2-1.7.3-2.6l.1.3z" class="Q"/><path d="M47.4 38.1c0 .1-.1.3-.1.4-.1.2-.1.3-.2.5-.3.1-.5.2-.8.2a5.73 5.73 0 0 1 1.1-1.1zm5.4-2.7c.2.3.3.6.4.9-.1.1-.3.2-.5.3l.1-1.2z" class="T"/><path d="M36.5 43c.1.2 0 .4.1.6l-.2.1V43h.1z" class="e"/><path d="M41.8 40.4c.1-.2.2-.3.3-.5 0 0 .1 0 .1.1-.1.1-.2.2-.2.3s-.1.1-.2.1zm-1.7 2.2c0-.2.2-.2.2-.4.1 0 .2-.1.4-.1-.2.2-.4.3-.6.5z" class="Y"/><path d="M42.1 40.3c0-.1.1-.2.2-.3l.3.2c-.2 0-.4.1-.5.1z" class="S"/><path d="M50.3 44.4l.1-.2.1.4c-.1 0-.2-.1-.2-.2z" class="T"/><path d="M40.8 42.1z" class="Y"/><path d="M40.4 42.2z" class="S"/><path d="M22.4 34.7l-.2.3c-.5.5-.9 1-1.3 1.6-.3.4-.6.7-.8 1.1-.1 0-.1.1-.1.2l-.1.1c-.1.1 0 .1 0 .2.6.8.5 2-.3 2.6-.3.2-.6.3-.9.4h-.9c-.3.4-.5.9-.8 1.3-.1.1-.1.2-.2.3-.1.2-.3.4-.4.6h-1.2L16 42c0-.1.1-.1.1-.2.1-.1.1-.2.2-.3l.1-.1c.1-.3.3-.5.4-.7.1-.1.1-.2 0-.3-.5-.9-.3-2 .6-2.6.4-.2.8-.3 1.2-.3.2 0 .3 0 .4-.2v-.1l.1-.2.8-1.1c.1-.1.2-.3.3-.4s.2-.2.2-.3l.2-.2 1-1.2.9-1c.2-.2.5-.5.7-.8.1.2.3.4.4.5s.2.3.4.3l-1.5 1.8-.1.1z" class="b"/><path d="M9.2 40.3l.1-1.7.1-.7c.2-1.7.7-3.4 1.3-4.9.2-.6.5-1.1.8-1.6l.5-.8.1-.2 1.2-1.7s.1 0 .1.1c.1.2.2.3.3.5 0 .1.1.1.2.1l-.3.9-.1.2c-.4.5-.8 1.1-1.1 1.7-.1.1-.1.2-.2.3-.2.2-.3.5-.4.7l-.6 1.1c-.7 1.5-1.1 3-1.3 4.6l-.1.5c0 .2 0 .5-.1.7v1.6c0 .3.1.7.1 1-.2-.1-.4-.1-.7-.2.2-.8.1-1.5.1-2.2z" class="T"/><path d="M17 46.6c.3.1.5.2.7.4 1.6.8 3.3 1.5 5 2.1h.2s.1.1.2.1.2.1.3.1a.9.9 0 0 0 .5.1c.5.2 1 .3 1.6.4l.9.2-.5.2h-.1l-1.2.4-1.7-.5c-.1 0-.1 0-.1.1l-.2 1h-.2c.1-.4.1-.7.2-1.1 0-.1 0-.1-.1-.2-.5-.1-.9-.3-1.3-.5-.9-.3-1.8-.7-2.7-1.1-.7-.3-1.4-.7-2.1-1.1 0-.1 0-.1.1-.1.2-.1.4-.3.5-.5zm-7.1-5V40c.6 1 1.3 1.9 2.1 2.7l.3.3c-.5 0-1-.1-1.5-.2l-.9-1.2z" class="Q"/><path d="M13.6 45.5c-.4-.3-.8-.7-1.2-1l-.1-.2 1 .1 1.3.1h.3l.2.6-.4.1c-.2 0-.3.1-.5 0-.1 0-.1 0-.1.1s.1.2 0 .3l-.2-.1c-.2.1-.3.1-.3 0zm.7-2.9l.1.6h-1.2l-.2-1h.1c.3-.2.6-.3.9-.3v.2l.3.5z" class="c"/><path d="M15 45.3l-.2-.6c.3 0 .7 0 1 .1l-.3.8s-.1.1 0 .2c-.1.1-.1.2-.2.4l-.3-.9z" class="d"/><path d="M23 48.6l.4-1.6.2.1-.4 1.6c-.1 0-.2 0-.2-.1z" class="b"/><path d="M23.6 47.1l-.2-.1c0-.3.2-.7.3-1v-.2l.2-.1c-.1.3-.1.6-.2.8-.1.3-.1.5-.1.6z" class="Y"/><path d="M16.4 47.4c-.3-.1-.5-.3-.8-.5-.1-.3-.3-.6-.3-.9.1-.1.1-.3.2-.4l1.5.9.1.1c-.2.3-.4.5-.7.8.1-.1 0-.1 0 0z" class="c"/><path d="M14.6 47.5l-.3.8c-.3-.1-.7-.3-.9-.5l.3-.9.4-.9c.2.5.3 1 .5 1.5z" class="X"/><path d="M19.4 55c-.2 0-.4-.1-.6-.2-1-.4-1.9-1-2.8-1.5h1.1v.1l1.6.9c.1 0 .2.2.2.2l.5.5z" class="T"/><path d="M17 53.3h-.6v-.1c-.2-.3-.2-.6-.2-.9h1l.8 1.1c-.3 0-.7-.1-1-.1z" class="R"/><path d="M20 53.1l-.9.1-.1-.1c.2-.3.3-.8.1-1.2.3-.1.6-.1.8-.1.3.5.2.9.1 1.3z" class="a"/><path d="M21.1 55.3l.8.2c.1 0 .2.1.3.1.5.2 1 .3 1.6.4h.1c-.2.1-.4.2-.6.2L22 56c-.1-.1-.2-.1-.3-.1l-.6-.6z" class="T"/><path d="M19.3 57.2l2.1-.4c.1.1.2.1.3.3l-.1.1c-.5.2-.9.3-1.4.4-.3-.1-.6-.2-.9-.4z" class="b"/><path d="M25.5 58.4c.2-.1.4-.1.6-.2l1-.3h.2c-.2.3-.5.6-.8.9-.4-.1-.7-.3-1-.4z" class="X"/><path d="M19.3 52a1.39 1.39 0 0 1-.2 1.1c-.3-.3-.5-.7-.8-1l1-.1z" class="R"/><path d="M21.7 57.8v-.7l.3.2v.5c0 .1-.2.1-.3 0zM22 56v.2l-.3-.2c.1-.1.2-.1.3 0z" class="X"/><path d="M14.1 45.9z" class="c"/><path d="M19.4 55.1z" class="T"/><path d="M20.4 30.3l-1.1 1.5c-.1.1-.1.2 0 .3.2.3.1.6-.2.8 0 .1-.1.1-.2.1-.2 0-.3.1-.4.2l-1.3 2.2v.2c-.1 0-.1.1-.1.2-.1.1-.2.2-.2.4-.1.1-.1.2-.2.3-.2.3-.3.7-.5 1-.1.1-.1.2-.1.3-.1.1-.2.3-.4.4v-.1l.7-1.5c.1-.1.1-.2.1-.3l.3-.6c.1-.1.1-.1.1-.2.1-.1.2-.3.3-.5l1.1-1.9c.1-.1.1-.2 0-.2-.2-.2-.2-.6 0-.9a.47.47 0 0 1 .6-.1c.1 0 .1 0 .2-.1l1-1.4c.2-.1.3-.1.3-.1z" class="R"/><path d="M18.1 25.8l-1.1 1c-.3 0-.5-.1-.7-.1.1-.3.3-.6.5-1s.3-.5.4-.7h.1c0 .1 0 .1.1.1l.3.2c0 .1.2.3.4.5z" class="f"/><path d="M15.5 28c-.2.4-.3.8-.4 1.2-.1 0-.2 0-.3-.1-.2-.1-.4-.2-.6-.4.1-.4.3-.8.4-1.1.3 0 .6.1 1 .2 0 0 0 .1-.1.2zm1.1-2.3c-.1.3-.3.6-.5 1l-1.1-.2c.1-.1.2-.3.2-.5.1-.2.2-.4.3-.7.3 0 .5.1.7.2s.3.2.4.2z" class="c"/><path d="M14.5 27.6c-.1.4-.3.7-.4 1.1l-.2.6c-.1 0-.1 0-.2-.1s-.2-.3-.3-.5l-.1-.1c.3-.3.5-.7.8-1l.1-.1.3.1z" class="f"/><path d="M11.3 28.8c0-.5 0-1 .1-1.4h.6v.9l-.7.5z" class="U"/><path d="M28.9 20.7c0-.4-.2-.7-.4-1l-.1-.2c.6-.2 1.2-.3 1.8-.4l.9-.1h.4c.7-.1 1.3-.1 2-.1.1 0 .2-.1.2-.1.3-.7 1-1.1 1.7-1 .5.1.9.3 1.2.7.1.2.2.3.2.5h.2c1 .1 2 .3 3 .5.1 0 .3 0 .4.1-.8.2-1.5.5-2.3.8-.4-.1-.8-.1-1.3-.2-.1 0-.1 0-.2.1a.78.78 0 0 1-.4.4c-.4.3-.8.4-1.3.4-.1 0-.2-.1-.3-.1a1.59 1.59 0 0 1-1-.8c0-.1-.1-.1-.1-.1h-.7c-.4 0-.8.1-1.3.1l-2.2.4-.4.1z" class="T"/><path d="M35.1 23.2c.5.3 1.1.6 1.6 1l.4.2c-.1.4-.2.7-.5 1.1l-.1.1-.3-.1c-.1-.1-.2-.1-.3-.2l-1-.7c-.2-.1-.3-.2-.5-.3l-.5-.3c.3-.3.8-.5 1.2-.8z" class="Z"/><path d="M42 20l1.5.6.1.1v.1c0 .4 0 .7-.2 1-.3-.2-.6-.3-1-.4-.2-.1-.5-.2-.7-.3-.4-.2-.8-.3-1.3-.4l-.6-.1 1.7-.6h.5z" class="f"/><path d="M47.1 22.7v-.1c-.6-1.1-1.6-2.1-2.7-2.8l-.2-.1c.5 0 .9 0 1.3.2.3.3.6.5.9.8.8.8 1.4 1.8 1.8 2.8l.2.4h-.1c-.3-.4-.7-.8-1.2-1.2 0 .1 0 .1 0 0z" class="R"/><path d="M32.7 23.4l-1.3-.6c.1-.3.2-.5.4-.7.1-.1.2-.2.3-.4h.1c.1.1.2.1.3.2l1.2.6c0 .1.1.1.2.1 0 0 0 .1-.1.1l-1 .7h-.1z" class="Z"/><path d="M40.3 19.5c-.1-.1-.3-.1-.4-.1s-.1-.1-.1-.1l-1-.7h1l.3.3c.1.1.3.2.5.3v.3h-.3z" class="Q"/><path d="M32.5 25.1l-.5 1-.6 1.1c-.1.1-.2.1-.3.1l.9-1.7c.1-.1.1-.2.1-.3.1 0 .2-.2.4-.2z" class="Y"/><path d="M35 21.1l-.8 1.2s-.1.1-.1.2H34c-.1 0-.1 0-.2-.1l.9-1.4c.1 0 .2 0 .3.1z" class="X"/><path d="M33.6 26.1l-.4-1.6c.1-.1.1-.1.2-.1l.3 1.2c0 .2.1.3.2.5h-.3z" class="V"/><path d="M40.6 19.5V19h.7c.2 0 .3 0 .4.3l-1.1.2z" class="d"/><path d="M33.4 24.4c.1-.1.2-.1.3-.2l.8.1c.2.1.4.2.5.3h-.2c-.5-.1-1-.2-1.4-.2z" class="Q"/><path d="M48.4 23.5l.3.1c0 .2.1.4.1.6l-.2-.2-.2-.5z" class="V"/><path d="M32 25.3s0 .1 0 0zm2-2.8z" class="S"/><path d="M32.5 25z" class="Y"/><path d="M23.9 20.5c-.6-.1-1.1-.1-1.7-.1h-1.6a6.42 6.42 0 0 1 1.3-1l2.2.1h.2c-.2.2-.3.6-.4 1z" class="U"/><path d="M17 24.9zm2.1-4.3z" class="S"/><path d="M48.6 34.5c-.2.3-.4.6-.6.8l-.5-.7c0-.2.1-.4.2-.5.1-.5.3-1 .3-1.5v-.2c.1-.4.2-.7.2-1.1 0-.1.1-.3.1-.4v-3.1c0-.6 0-1.1-.1-1.7l-.3-1.3a5.73 5.73 0 0 1 1.1 1.1v.1c.2 1 .3 2 .3 3 0 .5 0 1.1-.1 1.6l-.1.6-.2 1.3v.2c-.1.2-.1.4-.1.7 0 .1-.1.2-.1.3l-.1.8z" class="R"/><path d="M46.7 23.8c-.6-.1-1.1-.1-1.7-.1h-.6c-.3 0-.6 0-1 .1-.1 0-.2 0-.2.1-.1.3-.5.5-.8.3-.1 0-.2-.1-.3-.2 0-.1-.1-.1-.2-.1l-.5.1c0-.1 0-.2.1-.3l.5-.1c.1 0 .1 0 .1-.1.1-.3.4-.5.8-.4.1 0 .3.1.4.3 0 0 0 .1.1.1.3 0 .5 0 .8-.1h1.9c.1 0 .4.2.6.4z" class="V"/><path d="M52.2 33.3c-.1-.1-.2-.3-.3-.4.3 0 .6.1.8.2l.1.4c-.3-.1-.4-.1-.6-.2z" class="U"/><path d="M47.1 22.7z" class="S"/><path d="M46.1 42.6l-.5-.4-.2-.1c.2-.4.5-.8.7-1.2.2.2.5.4.7.6l.1.1c-.1.3-.4.7-.6.9-.1 0-.1.1-.2.1z" class="V"/><path d="M49.9 45.8c-.5.7-1.1 1.4-1.7 2.1v.1c-.3.2-.6.3-.9.5l.5-.5.3-.4v-.1c.1 0 .1 0 .1-.1.5-.5.9-1.1 1.3-1.7.1-.2.1-.2.3 0l.1.1z" class="T"/><path d="M48.1 47.5l-.3.4.5-1.5c0-.2.1-.3-.1-.5a.47.47 0 0 1 .1-.6s.1-.1.2-.1.2-.1.2-.2 0-.2.1-.3.2.1.1.2 0 .1 0 .2v.2a.76.76 0 0 1 .2.4c0 .2-.2.3-.4.3-.1 0-.1 0-.1.1l-.4 1.3c-.1 0-.1.1-.1.1z" class="Q"/><path d="M51.5 48.1c-.1 0-.3 0-.4.1h-.4v-1.6c.3.3.6.7.9 1.1l-.1.4z" class="Z"/><path d="M50.7 46.5v.8c0 .1-.3.3-.5.4-.2-.1-.4-.2-.5-.3s-.2-.1-.1-.2l1.1-.8c-.1 0 0 .1 0 .1z" class="c"/><path d="M47.1 49.9c-.8 1.6-1.7 3.1-2.8 4.5-.4.5-.8.9-1.2 1.3l-.1.1c-.2 0-.4.1-.6.1.4-.4.8-.7 1.1-1.1 1.2-1.3 2.3-2.8 3.1-4.4.1-.2.3-.5.4-.8-.3.2-.7.3-1 .4l-.8.3H45c-.5.2-1.1.4-1.7.5-.1 0-.2.1-.2.2-.2.7-.9 1.1-1.6.9-.2-.1-.4-.2-.6-.4-.1-.1-.2-.1-.3-.1-.4.1-.9.1-1.3.2v-1l1.2-.2c.1 0 .1-.1.1-.1.2-.7.9-1.1 1.6-1 .3.1.5.2.7.5 0 0 .1.1.1 0 .6-.2 1.3-.3 1.9-.6.1 0 .3-.1.4-.1.7-.2 1.3-.5 1.9-.8.3-.1.6-.2.9-.4.5-.2.9-.5 1.3-.8 0 .1.1.2.1.2a.55.55 0 0 0 .5.3v.3c-.8.6-1.7 1.1-2.6 1.6-.1 0-.2.1-.2.2l-.1.2z" class="Q"/><path d="M45.2 50.4l.8-.3a11.51 11.51 0 0 1-1.7 1.4c-1.1.8-2.3 1.5-3.5 2.1-.1 0-.1.1-.1.2 0 .2-.1.5-.3.6s-.5.1-.7-.1c-.1-.1-.2-.1-.2 0l-2.8 1.1c-.1 0-.2 0-.2.1-.2 0-.4-.1-.6-.1.1 0 .2-.1.4-.2.1 0 .2 0 .2-.1h.1c.9-.3 1.8-.7 2.7-1.1.1 0 .1-.1.1-.2 0-.3.1-.5.3-.6s.5-.1.7.1c.1.1.2.1.3 0 1.1-.6 2.1-1.2 3.1-1.9l1.4-1z" class="T"/><path d="M36.4 55.9c-.1 1.2-.4 2.4-.7 3.5-.1.1-.3.1-.5.1.4-1.1.8-2.2.9-3.3l.1-.4s.1.1.2.1z" class="a"/><path d="M47.3 49.6l2.4.2h.7c0 .1-.1.3-.1.4-1 0-2-.2-3-.4h-.2l.2-.2z" class="W"/><path d="M42.3 55.9z" class="Q"/><path d="M43 55.8z" class="S"/><path d="M12.8 50.5c-.9-1-1.6-2.1-2.2-3.3l-.1-.1c0-.4.1-.7.2-1.1.5 1.3 1.2 2.4 2 3.5l.1.1v.9z" class="T"/><path d="M14.3 52.9c-.2-.1-.4-.2-.6-.2v-.8h.3c0 .1.2.1.3.1.2.1.5.1.7.1 0 .3 0 .6.1.9h-.2c-.2 0-.4-.1-.6-.1z" class="V"/><path d="M15 52.1c-.2 0-.5-.1-.7-.1-.1-.2-.3-.3-.5-.5 0-.1-.1-.1-.1-.1 0-.3 0-.5.1-.8l.3.3v.1l1.3 1.2c-.2 0-.3-.1-.4-.1z" class="T"/><path d="M13.8 45.7c-.1.4-.1.8-.1 1.2l-.3.9c0-.6 0-1.2.1-1.8v-.4c.2 0 .2 0 .3.1zm.3 5.2l-.3-.3c0-.2.1-.4.1-.6l.2.9z" class="R"/><path d="M13.7 51.4c.1 0 .1.1.1.1l.1.4h-.3c0-.2.1-.3.1-.5z" class="S"/><path d="M11.5 31.4l-.1-.4-.1-.7v-.8l.6-.6v1.7l-.4.8z" class="U"/><path d="M11.4 30.3l.1.7c-.3-.3-.5-.5-.7-.8.1-.1.2-.3.3-.4 0 .2.1.3.3.5z" class="W"/><path d="M36.6 18.4c.3 0 .5-.1.7-.1s.4 0 .6-.1l1-.1h1.6c0 .2.1.4.1.6h-1.8c-.3 0-.5 0-.8.1-.4 0-.8.1-1.2.2 0-.3-.1-.4-.2-.6z" class="R"/><path d="M30.1 16.3c.4.6.7 1.2 1 1.8l.4.8h-.4c-.1-.3-.3-.6-.4-.9-.3-.6-.7-1.2-1.2-1.8.2.1.4.1.6.1z" class="a"/><path d="M37.3 18.2c-.2.1-.4.1-.7.1l.5-.6a.76.76 0 0 1 .4.2l-.2.3z" class="X"/><path d="M37.3 18.2l.3-.3c.1 0 .2.1.3.2-.2.1-.4.1-.6.1z" class="S"/><path d="M41.8 39.7l-2.5-1.5-1.6-.9c-.6-.3-.8-.5-1.2-.7l-1.5-.9c-1.2-.7-2.4-1.3-3.7-1.9l-4.9-2.2-.1-.1c.2-.2.4-.5.5-.8v-.5h.1c.8.3 1.5.7 2.2 1l4.3 2.1 2.1 1.1 1.4.7c.4.3.8.5 1.2.7l3.1 1.8c.4.3.8.5 1.2.8 0 .1-.2.2-.2.3-.1.4-.3.7-.4 1z" class="W"/><path d="M36.6 36.6c.4.2.8.4 1.2.7l-1.4 3.6-.1.3c-.2-.1-.3-.2-.4-.3-.2-.1-.5-.2-.8-.2l1.1-2.8c.1-.5.2-.9.4-1.3zm-3.1 7.6a.55.55 0 0 0 .5.3c.2.1.5.1.7.2l-.3.6s-.1.1-.1.2c-.2.3-.3.7-.5 1l-1.6.9a.76.76 0 0 1-.4.2l1.5-3.3.2-.1z" class="X"/><path d="M31 48.1c.1.2.2.4.2.5.1.2.1.5.2.7l-.5.3-.6.3c0-.3 0-.6-.1-.9-.1-.1-.1-.3-.2-.4l1-.5z" class="a"/><path d="M20 53.1c.1-.4.1-.8.1-1.2l1.1-.2 1.2-.3h.2l2-.6 1.2-.4h.1l.1.1c.1.2.2.4.3.5a1.38 1.38 0 0 0 .3.4l-1.7.6-2.4.7h-.3l-1.5.3c-.2 0-.4.1-.7.1z" class="V"/><path d="M22.1 52.7h.2c-.2 1-.3 1.9-.3 2.9-.1 0-.2 0-.3-.1l.3-2.7c.1 0 .1 0 .1-.1z" class="X"/><path d="M26.5 51.4c-.1-.2-.2-.3-.3-.4-.1-.2-.2-.4-.2-.6 0 0 0-.1-.1-.1l1-.4.3.8.3.3c-.1.1-.3.1-.5.2-.1 0-.2.1-.3.1s-.1.1-.2.1z" class="a"/><path d="M23.9 49.4z" class="U"/><g class="T"><path d="M17.1 24.9l1.5-1.1c1.5-1.1 3.2-2 4.9-2.7h.1c0 .4.1.8.3 1.2v.1l-1.2.5c-1.1.5-2.2 1.2-3.2 1.8l-.1.1c-.2.1-.4.2-.6.4l-.8.6-.8-.8c-.1 0-.1 0-.1-.1z"/><path d="M18 25.8z"/></g><path d="M30.9 49.6l.5-.3c.5-.2.9-.5 1.4-.7 0 0 .1-.1.2 0l-.7 1.3c-.2.3-.3.5-.4.8 0 0-.1.1 0 .1l-1.3-.1h-.2c.2-.4.4-.7.5-1.1z" class="X"/><path d="M36 52h-1c-.1-.3-.1-.7-.1-1h2.3c-.4.4-.8.7-1.2 1z" class="c"/><path d="M31.9 50.8v-.1h.1c.4-.3.8-.7 1.2-1s1-.9 1.5-1.4 1-.9 1.4-1.4c0 0 .1 0 0-.1.1-.1.2-.1.3 0l-.9.9-1.3 1.2c-.7.7-1.4 1.3-2.2 1.9l-.1.1v-.1z" class="Y"/><path d="M26.3 57.4z" class="X"/><path d="M26.7 56.7l-2-.2-1.1-.2c.2-.1.4-.2.5-.3.4.1.8.2 1.2.2.5.1 1 .1 1.5.1l-.1.4z" class="T"/><path d="M28.9 20.7l.5-.1h.1c0 .4 0 .8-.2 1.3l-2.1-.7h-.1c.5-.2 1-.3 1.5-.4l.3-.1z" class="Z"/><path d="M29.1 21.8l.3.1.1.1c-.9.5-1.7 1.1-2.5 1.8l-.1.1h-.5l2.7-2.1z" class="R"/><path d="M23.3 31.9l.6-.6c.2.1.2.3.4.5.1.1.3.3.4.3-.2.2-.4.5-.6.7-.2 0-.3-.2-.4-.3-.2-.2-.4-.4-.4-.6z" class="X"/><path d="M30.7 27.9c-.3.1-.5.2-.7.3-.5.2-.9.5-1.4.7s-1 .6-1.5.9c-.1 0-.1.1-.2.1l.7-.7.6-.3c.3-.2.6-.4 1-.5l1.7-.9.1-.1c.1 0 .2-.1.3-.1.2 0 .4-.1.5-.2.5-.2 1-.5 1.6-.7 0 0 .1 0 .1-.1 0 .1.1.1.1.1s.2 0 .2.1c-.1 0-.2 0-.2.1-.2.1-.4.1-.6.3l-2 .9c-.1-.1-.2-.1-.3.1zm-3.9 2z" class="e"/><path d="M27.6 29.1z" class="S"/><path d="M30.4 53.4c.8.3 1.5.7 2.3 1h.1c-.1.1-.2.2-.3.2l-2.2-1c0-.1 0-.1.1-.2z" class="U"/><path d="M38.8 50.7h.5v1l-1.7.2 1.2-1.2z" class="c"/><path d="M44.9 49.4c-.3-.1-.5-.2-.8-.2l-2.9-.9h-.1c0-.1.1-.2.1-.2.1.1.2.1.3.1l3.7 1.1s-.1 0-.3.1z" class="W"/><path d="M40.1 47.9c-.4-.2-.8-.3-1.2-.5-.3-.1-.7-.2-1-.4.1 0 .2-.1.3-.1.3.1.6.3.9.4s.7.3 1 .4c0 0 .1 0 .1.1l-.1.1z" class="e"/><path d="M36.7 46.8c0 .5.1 1.1 0 1.7h-.2v-1.6l.1-.1h.1z" class="W"/><path d="M36.3 46.8zm0-.1z" class="S"/><path d="M40 42.7zm0-.1zm.1 0z" class="Y"/><path d="M47 36.3c-.2-.4-.4-.7-.7-1l-.1-.2.8-.5c.1 0 .3 0 .3-.2l.1.2.5.7c-.2.3-.4.5-.6.8l-.3.3v-.1z" class="Z"/><path d="M50.3 32c-.3-.3-.6-.6-1-.9l.1-.6c.4.3.8.6 1.2 1-.2.2-.2.4-.3.5zm-1 5.6c0-.6-.1-1.1-.1-1.7 0-.1.1-.1.1-.2l.2 2.1c-.1 0-.2-.1-.2-.2z" class="Q"/><path d="M49.8 32.8l-.8-.1v-.2l.9.1s0 .1-.1.2z" class="U"/><path d="M47 36.3c0 .2 0 .2-.1.3l.1-.3zm.4 1.7z" class="T"/><path d="M43.1 38.9l.2.1c-.1.2-.3.3-.4.4-.2.2-.3.4-.3.7l-.3-.1s-.1-.1-.2-.1l-.3-.2c.1-.3.3-.6.5-.8.1-.1.2-.2.2-.3l.5.3c0-.1 0 0 .1 0z" class="V"/><path d="M52.2 33.3z" class="S"/><path d="M15.3 39.7c.3.6.7 1.1 1.1 1.7 0 .1-.1.2-.2.3l-1-1.4-.3-.3c-.1-.1-.1-.3-.2-.4l.3-.3.1.2.2.2z" class="U"/><path d="M22.5 32.8c-.2.1-.3.2-.5.3l-1.2.9v-.3c.2-.2.5-.4.7-.6L23 32s.1-.1.2-.1c-.2.2-.4.5-.6.7 0 0-.1 0 0 0l-.1.2z" class="e"/><path d="M20.3 35.4c-.3 0-.5.1-.8.2l-1 .3c0-.1.1-.1.2-.2l.3-.2 1.5-.4h.1c-.1.2-.2.2-.3.3z" class="Y"/><path d="M18.1 36.2l1.1.7-.2.3-1-.7v-.1c0-.1 0-.1.1-.2z" class="W"/><path d="M22.5 32.8zm.1-.1zm-2.3 2.7z" class="S"/><path d="M13.9 29.3l.2-.6c.2.1.4.3.6.4.1 0 .2.1.3.1-.4 1.1-.6 2.3-.8 3.5 0 .2 0 .3-.1.5v.6c0 .5-.1.9-.1 1.4-.1.7-.1 1.3-.1 2v2.1c0 .3 0 .6.1.9v.6l.2 1.3c-.3 0-.7.1-.9.3h-.1l-.1-.5v-.4l-.3-3.4V36l.1-1.1.3-1.9c.1-.3.1-.7.2-1s.2-1 .3-1.5l.2-1.2z" class="Q"/><path d="M10 38.8l.8-.4c.1 0 .1-.1.1-.1 0-.3.2-.6.5-.7.2 0 .4.1.5.2s.1 0 .2 0l.6-.3v.3c-.2.1-.4.1-.6.2-.1 0 0 .1-.1.1 0 .3-.3.6-.7.6-.1 0-.2 0-.3-.1s-.2-.1-.2 0c-.4.2-.7.4-1 .6l.2-.4zm2.8-3.1c-.3-.6-.5-1.3-.7-1.9-.1-.2-.1-.5-.2-.7.1-.2.2-.5.4-.7.1.3.1.5.2.8.1.5.2.9.4 1.4l-.1 1.1z" class="U"/><path d="M14.9 40l.1.2c-.3.8-.5 1.6-.7 2.4l-.1-.5s0-.1.1-.2l.6-1.9z" class="R"/><path d="M11.9 42.7l.9-1.3.1-.2v.4l-.9 1.3-.1-.2z" class="V"/><path d="M15 52.1h1.1c0 .3.1.6.2.9v.1h-.5c-.3 0-.6-.1-.9-.1.1-.3.1-.6.1-.9z" class="a"/><path d="M14.1 33.5v-.4l2.7 2.2.1.1c0 .1 0 .2-.1.2l-.1-.1c-.6-.4-1.2-.9-1.7-1.3l-.9-.7zm1.4-5.5z" class="W"/><path d="M14.7 39.6c-.2.2-.4.5-.6.7H14v-.4c.2-.2.4-.5.6-.7l1.1-1.1a.78.78 0 0 0 .4-.4l1.5-1.5c.1 0 .1-.1 0-.2.2-.1.5-.2.6-.4l.3-.3c.1-.1-.1.2.1.2 0 .1-.1.1-.2.2s-.3.2-.4.3c-.1 0-.1.1-.1.2s-.1 0-.1.1l-2.1 2v.1c-.1.1-.3.2-.4.4-.1.1-.2.2-.3.4s-.2.3-.3.4z" class="V"/><path d="M18.6 35.7c-.1 0 0-.2-.1-.2.3-.3.7-.6 1-.9.4-.3.8-.7 1.2-.9v.3l-1.2 1-.7.6-.2.1z" class="W"/><path d="M18.3 35.7c-.2.2-.4.3-.6.4l-.9.3c0-.1.1-.2.2-.3.2 0 .3-.1.5-.2l.3-.1.5-.1z" class="U"/><path d="M17.6 35.9l-.3.1-.3-.2c0-.1 0-.2.1-.2.2.1.4.2.5.3z" class="W"/><path d="M23.3 31.9z" class="e"/><path d="M16.4 36.5c-.8.2-1.5.5-2.3.8-.1 0-.1.1 0 .2.3.5.5 1 .8 1.5l-.3.3-.1-.1-.7-1.2v-1l2.7-.9c0 .2-.1.3-.1.4z" class="U"/><path d="M17 35.8l.3.2c-.2.1-.3.1-.5.2.1-.2.1-.3.2-.4z" class="S"/><path d="M32.9 20.1l-.6.3c-.2.1-.1.1-.1.3.2.4.3.8.4 1.2-.1 0-.2-.1-.3-.2-.1-.4-.2-.7-.4-1 0-.1-.1-.1-.2 0l-.8.5-.5-.2.8-.5c.1-.1.3-.1.4-.2.4-.1.8-.1 1.3-.2z" class="R"/><path d="M47.4 34.5c-.1.1-.2.1-.3.2-.3.1-.6.3-.8.5-.2-.2-.2-.4-.4-.5 0-.1 0-.1-.1-.2-.2-.3-.4-.5-.6-.8-.1-.1-.2-.1-.3-.1-.7.2-1.4 0-1.8-.5-.2-.2-.3-.4-.4-.6 0-.1 0-.1-.1-.2v-.1c-.1-.4 0-.8.1-1.2v-.2l-1.5-1.4c-.2-.2-.5-.4-.7-.6l-.4-.4c-.2-.2-.5-.4-.8-.6-.4-.3-.8-.7-1.2-1l-1.6-1.2c.1 0 .1-.1.1-.1.2-.3.4-.7.5-1.1l.5.3c.1.1.2.1.3.2l.2.2.6.4.9.7s0 .1.1 0l.4.4.7.6.1.1 2.7 2.5c.1.1.2.1.3.1 1-.3 2 .3 2.3 1.3v.2c.1.3.1.6 0 .9h.7c0 .1 0 .1-.1.2h-.5c-.1 0-.1 0-.1.1v.2l.4.5.2.4c.1.1.3.4.6.8z" class="U"/><path d="M41.5 23.7c0 .1-.1.2-.1.3l-.2.9L41 26s0 .1-.1.2c-.4-.2-.9-.3-1.3-.2v-.2l.1-.3c.1-.4.2-.8.2-1.3 0-.1.1-.2.1-.3.1-.4.2-.8.2-1.2l.3-2c.4.1.8.2 1.3.4v.1c0 .4 0 .8-.1 1.3s-.2.8-.2 1.2z" class="X"/><path d="M40 24c0 .1 0 .2-.1.3l-2.2.6c-.1-.1-.2-.1-.3-.2.3-.1.7-.3 1-.3.6-.1 1.1-.3 1.6-.4z" class="V"/><path d="M29.5 20.6l.9.3.5.2.2.1 1.1.5c-.1.1-.2.2-.3.4-.2.2-.3.5-.4.7-.7-.3-1.3-.6-2-.8l-.1-.1c.1-.4.1-.8.1-1.3z" class="U"/><path d="M33.8 26.1l2.1-.8c.1.1.2.1.3.2l-2.3.9c0-.1-.1-.1-.2-.1s-.1 0-.1-.1l.2-.1z" class="W"/><path d="M31.3 27.2z" class="S"/><path d="M47.9 30.2l-.9 2c-.1.1-.1.1-.1.2-.2.2-.3.5-.4.8l-.1-.2.3-.6c.1-.1.1-.1.1-.2.3-.6.6-1.3.8-1.9.1-.1.1-.3.2-.5.1-.1.1-.3.2-.4.2-.5.3-.9.4-1.4l.1-.4v.9l-.3 1c-.2.3-.3.5-.3.7z" class="b"/><path d="M47.9 30.2c.1-.2.1-.4.2-.6l.3.2v.5c-.1 0-.1-.1-.2-.1 0 .2.1.4.2.6 0 .1 0 .3-.1.4l-.4-1z" class="Q"/><path d="M46.9 32.5c0-.1 0-.2.1-.2h1v.2h-1.1z" class="U"/><path d="M48.4 29.8l-.3-.2.3-1c.1.4.1.8 0 1.2zm-.3.4c.1 0 .2.1.2.1v.5c-.1-.2-.1-.4-.2-.6z" class="S"/><path d="M47.9 29.5a.76.76 0 0 1-.2.4l-.1-.1c-2.1-1.4-4.3-2.6-6.7-3.5v-.1c0-.1 0-.1.1-.2 1.2.4 2.3.9 3.4 1.4 1 .5 2 1.1 3 1.7-.5-1.2-1.1-2.4-1.8-3.6l-1.3-1.9h.5c.7 1 1.3 2 1.9 3.1l1.1 2.5c0 .2 0 .3.1.3zm-.1 18.4z" class="Q"/><path d="M48.1 47.5s0-.1 0 0c0-.1 0 0 0 0z" class="W"/><path d="M13.9 51.9l-.1-.4c.2.1.4.3.5.5-.1 0-.3 0-.4-.1z" class="R"/><path d="M40.6 32.5c0 .9-.8 1.7-1.7 1.8-.1 0-.1.1-.1.2l-.5 1.5c-.4-.2-.8-.4-1.2-.7l.5-1.3c0-.1 0-.1-.1-.2a1.85 1.85 0 0 1-.1-2.5c.3-.3.6-.5 1-.6.1 0 .2-.1.2-.2.1-.5.3-1 .4-1.5h.1c.3.3.8.4 1.2.4-.1.5-.3 1-.4 1.5v.2c.4.3.7.8.7 1.3v.1z" class="X"/><path d="M36.5 48.5h.2V51h-.2v-2.5z" class="V"/><path d="M31.9 50.7z" class="S"/><path d="M34.3 28c.1.6.3 1.1.4 1.7 0 .1.1.2.2.2.2.1.4.4.3.6 0 .1-.1.1-.1.2-.1.1-.1.2-.1.4l.3 1.3c.1.5.2.9.2 1.3a.9.9 0 0 0 .1.5c.1.2 0 .1 0 .1h-.1c-.1-.1-.2-.3-.2-.5-.1-.9-.3-1.8-.5-2.6 0-.1 0-.2-.2-.2s-.3-.1-.3-.3c-.1-.2-.1-.4.1-.5s.2-.3.1-.5l-.3-1.5.1-.2z" class="e"/><path d="M40.3 29.2c-.4 0-.9-.1-1.2-.4H39l.3-1.1c.3.2.5.4.8.6.1.1.3.2.4.4l-.2.5z" class="d"/><path d="M30.8 27.8c.1-.1.2-.1.3-.2-.2.5-.5 1-.7 1.5-.1.3-.4.5-.8.5.1-.1.2-.1.3-.1s.1 0 .1-.1l.7-1.5c0 .1 0 0 .1-.1z" class="Y"/><path d="M34.3 28H34l-.4-1.5c0-.1.1-.1.2-.1l.5 1.6z" class="W"/><path d="M30.8 27.8z" class="S"/><path d="M43 38.8l1.2-1.8c.1-.1.1-.3.1-.4-.1-.2 0-.4.2-.5h.1c.1.3.1.6.1.8-.2 0-.2.1-.3.2l-1.2 1.8c-.2 0-.2 0-.2-.1z" class="Y"/><path d="M44.6 36.9c0-.3 0-.6-.1-.8.2 0 .3 0 .4-.2l.8-1.4c.1 0 .1.1.1.2-.3.5-.5 1-.8 1.4-.1.1-.1.2 0 .3.1.2 0 .5-.2.6-.1-.1-.1-.1-.2-.1z" class="b"/><g class="R"><path d="M15.3 38.9c.1-.1.2-.3.4-.4l-.4 1.2-.1-.2c0-.2.1-.4.1-.6z"/><path d="M15.7 38.5z"/></g><path d="M15.3 38.9z" class="S"/><path d="M15.6 38.2z" class="R"/><path d="M41 26.3l-.2.9-.8-.6a.78.78 0 0 1-.4-.4V26c.4-.1.9 0 1.4.3z" class="d"/><path d="M40.6 32.3c.6 0 1.3-.1 1.9-.1 0 .1.1.1.1.2h-1.9l-.1-.1z" class="Y"/><path d="M38 25.1c.5.1 1 .3 1.5.4h.2l-.1.3h-.1l-1-.3-.5-.4z" class="Q"/><path d="M38.6 25.5zm9.5 4.7zm-.6-1.1z" class="S"/></svg>