<svg xmlns="http://www.w3.org/2000/svg" viewBox="0 0 80.6 62.3" fill="#fff" stroke="#808083" stroke-width="1.32" stroke-miterlimit="10"><path d="M21.4 59.7C10 59.8.8 50.7.6 39.3s9-20.6 20.4-20.8a20.42 20.42 0 0 1 18.9 12.1l-2.1 1c-4.2-9.1-14.9-13.1-24-8.9S.8 37.7 5 46.8c3 6.4 9.4 10.5 16.4 10.5h.3v2.3h-.3z"/><path d="M21.4 57.4H51v2.3H21.4zM60 21.5C59.2 11.1 50.6 3 40.2 3 30.3 3 22 10.2 20.5 19.9l-2.3-.4A22.26 22.26 0 0 1 40.2.7c11.6.1 21.2 9.1 22.1 20.7l-2.3.1z"/><path d="M59.4 61.6c-9.9 0-18.4-7.2-20.1-16.9l2.3-.4c1.9 9.8 11.4 16.3 21.2 14.4s16.3-11.4 14.4-21.2c-1.6-8.4-8.8-14.5-17.4-14.7v-2.3c11.4.3 20.3 9.8 20 21.2-.3 11-9.3 19.8-20.4 19.9z"/></svg>