<svg xmlns="http://www.w3.org/2000/svg" viewBox="0 0 59.7 59.9"><ellipse cx="29.8" cy="30" rx="28.8" ry="29" fill="#fff" stroke="#1975b8" stroke-width="2"/><path d="M14.5 12.8h14.4v14.5H14.5z" fill="#89c542"/><path d="M14.5 29h14.4v14.5H14.5zm16.1-16.2H45v14.5H30.6z" fill="#06adcf"/><path d="M30.6 29H45v14.5H30.6z" fill="#89c542"/><path d="M16.8 14.7h.9v10.5h-.9zm9.1 0h.9v10.5h-.9zm-3 0h.9v10.5h-.9zm-3.1 0h.9v10.5h-.9zm13 0h.9v10.5h-.9zm9.2 0h.9v10.5H42zm-3.1 0h.9v10.5h-.9zm-3 0h.9v10.5h-.9zM16.8 30.9h.9v10.5h-.9zm9.1 0h.9v10.5h-.9zm-3 0h.9v10.5h-.9zm-3.1 0h.9v10.5h-.9zm13 0h.9v10.5h-.9zm9.2 0h.9v10.5H42zm-3.1 0h.9v10.5h-.9zm-3 0h.9v10.5h-.9z" fill="#fff"/><path d="M49.4 47.2H10.3v-8h2v5.9h35v-5.9h2.1z" fill="#074469"/></svg>