<svg xmlns="http://www.w3.org/2000/svg" viewBox="0 0 59.5 60"><path d="M7.9 43.4L0 28.3l9-14.4 17 .7 7.9 15L24.8 44z" fill="#4d5d68"/><path d="M33.9 29.7l-8.2-15L34.4 0l16.9.3 8.2 15L50.8 30z" fill="#2bbaa7"/><path d="M32.6 59.3l-7.8-15.2 9.1-14.5 16.8.4 7.8 15.5-9 14.5-16.9-.7z" fill="#31b8dc"/><g fill="none" stroke="#fff" stroke-width=".5"><path d="M25.4 15l8.4 14.4m0 0l16.3-.2" stroke-miterlimit="10"/><circle transform="matrix(.019996 -.9998 .9998 .019996 4.2076 62.1118)" cx="33.8" cy="28.9" r="17.3"/><g stroke-miterlimit="10"><path d="M37.8 21.8l12.3 7.4-12.5 7-12.6 7 .4-28.8z"/><path d="M33.8 29.4L25 43.2"/></g></g></svg>