<svg xmlns="http://www.w3.org/2000/svg" viewBox="0 0 59.3 59.2"><ellipse cx="29.7" cy="29.6" rx="29.7" ry="29.6" fill="#325c80"/><path d="M11.2 46.1h37l-18.5-32z" fill="#fff"/><path d="M49.8 48H9.5c-.3 0-.7-.2-.8-.5-.2-.3-.2-.6 0-.9l20.1-34.8c.2-.3.5-.5.8-.5s.7.2.8.5l20.1 34.7c.1.2.2.4.2.6 0 .4-.4.9-.9.9zm-38.6-1.9h37l-18.5-32-18.5 32z" fill="#0d4269"/><path d="M41.9 38.6l-3.5 6.1-3.6-6.1zm-15.8-.9l3.6-6.1 3.5 6.1z" fill="#05add0"/><path d="M34.8 37.7l3.5-6.1 3.6 6.1z" fill="#0d4269"/><path d="M37.5 31.3L34 37.4l-3.5-6.1zM13 45l3.6-6.2 3.5 6.2z" fill="#86c440"/><path d="M21.8 45l3.5-6.2 3.5 6.2z" fill="#0d4269"/><path d="M24.5 38.6l-3.6 6.1-3.5-6.1z" fill="#05add0"/><path d="M30.5 45l3.5-6.2 3.5 6.2z" fill="#0d4269"/><path d="M33.2 38.6l-3.6 6.1-3.5-6.1zm6.1 6.4l3.5-6.2 3.5 6.2z" fill="#86c440"/></svg>