<svg xmlns="http://www.w3.org/2000/svg" viewBox="0 0 59.9 59.9"><circle cx="30" cy="30" r="30" fill="#a5276e"/><g fill="#fff"><path d="M37.3 51.5H22.7a4.95 4.95 0 0 1-5-5v-33a4.95 4.95 0 0 1 5-5h14.6a4.95 4.95 0 0 1 5 5v33.1c0 2.7-2.3 4.9-5 4.9zM22.7 9.8c-2 0-3.7 1.6-3.7 3.7v33.1c0 2 1.6 3.7 3.7 3.7h14.6a3.76 3.76 0 0 0 3.7-3.7V13.4c0-2-1.6-3.7-3.7-3.7H22.7z"/><circle cx="30" cy="47.1" r="1.8"/><path d="M27.6 11h4.8v.9h-4.8zm-6.7 2.4v30.2h18.2V13.4H20.9zm9 21.6l-7.1-7.7c.4-.8 7.4-6.6 14.3 0L29.9 35z"/></g></svg>