<svg xmlns="http://www.w3.org/2000/svg" viewBox="0 0 64.8 50.2" fill="#fff" stroke="#808184" stroke-width="1.32" stroke-miterlimit="10"><path d="M17.3 48C8.2 48.1.7 40.7.7 31.6.6 22.5 7.9 15.1 17 15c6.5-.1 12.5 3.7 15.2 9.7l-1.7.8c-3.4-7.3-12-10.4-19.3-7s-10.4 12-7 19.3c2.4 5.1 7.5 8.4 13.1 8.4h.3V48h-.3z"/><path d="M17.3 46.1h23.8V48H17.3zm31-28.7c-.7-8.4-7.6-14.8-16-14.9-7.9 0-14.6 5.8-15.7 13.6l-1.8-.3C16.1 7.1 23.6.7 32.4.7a17.95 17.95 0 0 1 17.7 16.6l-1.8.1z"/><path d="M47.8 49.5c-7.9 0-14.7-5.7-16.1-13.6l1.8-.3c1.5 7.9 9.2 13 17 11.5 7.9-1.5 13-9.2 11.5-17-1.3-6.7-7.1-11.6-13.9-11.8v-1.9c9.1.3 16.3 7.9 16 17.1-.3 8.9-7.5 15.9-16.3 16z"/></svg>