<svg xmlns="http://www.w3.org/2000/svg" contentScriptType="text/ecmascript" zoomAndPan="magnify" contentStyleType="text/css" width="151.423" preserveAspectRatio="xMidYMid meet" viewBox="0 0 141.959 138.756" height="148.006" fill-rule="evenodd"><path d="M11.168 138.756C5.218 138.756 0 134.4 0 127.665V12.403C0 4.575 5.387 0 11.783 0h117.55c9.132 0 12.625 6.648 12.625 12.914V125.5c0 7.35-4.47 13.255-11.365 13.255z" fill="#e7e8e8"/><path d="M97.846 16.966h31.374v31.61h-6.86V24.177H97.846zM42.23 96.377v-32.35h6.424v21.237l37.492-36.478h-21.45v-6.118H97v32.142h-7.263l.207-19.97-36.696 35.9h22.155v5.64zm-24.41 27.97V93.663h7.283V118.2H50.01v6.146z" fill="#999"/></svg>