<svg xmlns="http://www.w3.org/2000/svg" width="1000" height="1000" viewBox="-915 -139 1000 1000"><circle cx="-415" cy="361" r="500" fill="#af6ee8"/><path d="M-418.2 481c0 40.6-14.8 77.4-37.4 107.7-19.4 25.2-83.9 113.5-135.5 159.4v-89.7h-5.2c-98.1 0-176.8-79.4-176.8-177.4s80-177.4 177.4-177.4c97.5 0 177.5 79.3 177.5 177.4z" fill="#562f72"/><g fill="#fff"><circle cx="-513.1" cy="476.5" r="20.6"/><circle cx="-595" cy="476.5" r="20.6"/><circle cx="-676.3" cy="476.5" r="20.6"/><path d="M-557.6 140.4l-24.5-20 42.6-52.3-51.6-43.2 20-25.2 77.4 63.9z"/><path d="M-755.6 310.7c-3.2-28.4-1.3-57.4 5.2-84.5 16.8-69 63.2-126.5 127.7-158.1a244.63 244.63 0 0 1 76.8-22.6l4.5 38.7c-22.6 2.6-44.5 9-64.5 18.7-53.5 25.8-92.3 74.2-107.1 132.3-5.8 23.2-7.1 47.1-4.5 71l-38.1 4.5zM-24.7 530h-431.6V1.6h320l111.6 111z"/></g><path d="M-386.6 149.4h304.5V201h-304.5zm0 112.2h218.7v51.6h-218.7zm0 106.5H-115v51.6h-271.6z" fill="#734098"/><path d="M-24.7 113.9h-112.2V1.6z" fill="#562f72"/></svg>