<?xml version="1.0" encoding="UTF-8" standalone="no"?>
<svg
   xmlns:dc="http://purl.org/dc/elements/1.1/"
   xmlns:cc="http://creativecommons.org/ns#"
   xmlns:rdf="http://www.w3.org/1999/02/22-rdf-syntax-ns#"
   xmlns:svg="http://www.w3.org/2000/svg"
   xmlns="http://www.w3.org/2000/svg"
   xmlns:sodipodi="http://sodipodi.sourceforge.net/DTD/sodipodi-0.dtd"
   xmlns:inkscape="http://www.inkscape.org/namespaces/inkscape"
   width="18.000101"
   height="15.388116"
   viewBox="0 0 18.000101 15.388116"
   version="1.1"
   id="svg63417"
   sodipodi:docname="Azure_Firewall_Manager.svg"
   inkscape:version="0.92.3 (2405546, 2018-03-11)">
  <sodipodi:namedview
     pagecolor="#ffffff"
     bordercolor="#666666"
     borderopacity="1"
     objecttolerance="10"
     gridtolerance="10"
     guidetolerance="10"
     inkscape:pageopacity="0"
     inkscape:pageshadow="2"
     inkscape:window-width="1920"
     inkscape:window-height="1017"
     id="namedview63419"
     showgrid="false"
     fit-margin-top="0"
     fit-margin-left="0"
     fit-margin-right="0"
     fit-margin-bottom="0"
     inkscape:zoom="4.2524616"
     inkscape:cx="52.992543"
     inkscape:cy="13.37328"
     inkscape:window-x="1912"
     inkscape:window-y="-8"
     inkscape:window-maximized="1"
     inkscape:current-layer="svg63417" />
  <defs
     id="defs63369">
    <linearGradient
       id="b9eda14d-5018-4069-8461-e9c1522765ff"
       x1="13.45"
       y1="6.3000002"
       x2="13.45"
       y2="16.459999"
       gradientUnits="userSpaceOnUse"
       gradientTransform="translate(-1.002177e-4,1.5192184)">
      <stop
         offset="0"
         stop-color="#ffd70f"
         id="stop63358" />
      <stop
         offset="0.12"
         stop-color="#fc1"
         id="stop63360" />
      <stop
         offset="0.44"
         stop-color="#feb517"
         id="stop63362" />
      <stop
         offset="0.75"
         stop-color="#fea61a"
         id="stop63364" />
      <stop
         offset="1"
         stop-color="#fea11b"
         id="stop63366" />
    </linearGradient>
  </defs>
  <title
     id="title63371">Artboard 1</title>
  <g
     id="be3822ce-a876-4992-8b2c-8f2bcec68a4e"
     transform="translate(1.002177e-4,-1.5192184)">
    <polygon
       points="13.96,15.81 13.95,15.81 "
       id="polygon63376"
       style="fill:#6bb9f2" />
    <g
       id="g63412">
      <g
         id="g63398">
        <path
           d="M 14.44,1.52 H 0.61 A 0.58,0.58 0 0 0 0,2.11 V 9.22 A 0.58,0.58 0 0 0 0.59,9.8 H 8.25 V 7 A 0.49,0.49 0 0 1 8.59,6.53 H 8.72 A 4.89,4.89 0 0 0 11.91,5.37 2.32,2.32 0 0 1 12.6,5.12 4,4 0 0 1 13.44,5 3.92,3.92 0 0 1 14.28,5.08 2.44,2.44 0 0 1 15.02,5.35 V 2.11 A 0.58,0.58 0 0 0 14.44,1.52 Z M 10.22,7.16 V 9 h 4.06 V 7.16 Z"
           id="path63378"
           inkscape:connector-curvature="0"
           style="fill:#821010" />
        <rect
           x="0.85000002"
           y="2.3399999"
           width="4.0700002"
           height="1.8"
           id="rect63380"
           style="fill:#e62323" />
        <rect
           x="5.5300002"
           y="2.3399999"
           width="4.0700002"
           height="1.8"
           id="rect63382"
           style="fill:#ff7381" />
        <rect
           x="10.22"
           y="2.3399999"
           width="4.0700002"
           height="1.8"
           id="rect63384"
           style="fill:#e62323" />
        <rect
           x="0.85000002"
           y="4.75"
           width="1.6900001"
           height="1.8"
           id="rect63386"
           style="fill:#e62323" />
        <path
           d="M 14.28,4.75 V 5.11 A 3.92,3.92 0 0 0 13.44,5 4,4 0 0 0 12.6,5.08 V 4.75 Z"
           id="path63388"
           inkscape:connector-curvature="0"
           style="fill:#ff7381" />
        <rect
           x="3.1600001"
           y="4.75"
           width="4.0700002"
           height="1.8"
           id="rect63390"
           style="fill:#ff7381" />
        <path
           d="M 11.91,4.75 V 5.36 A 4.89,4.89 0 0 1 8.72,6.52 H 8.59 7.84 V 4.75 Z"
           id="path63392"
           inkscape:connector-curvature="0"
           style="fill:#e62323" />
        <rect
           x="0.85000002"
           y="7.1700001"
           width="4.0700002"
           height="1.8"
           id="rect63394"
           style="fill:#e62323" />
        <rect
           x="5.5300002"
           y="7.1599998"
           width="2.72"
           height="1.8"
           id="rect63396"
           style="fill:#ff7381" />
      </g>
      <g
         id="g63410">
        <path
           d="m 18,11 c 0,3 -3.6,5.38 -4.38,5.87 a 0.32,0.32 0 0 1 -0.3,0 C 12.51,16.39 8.91,14 8.91,11 V 7.43 A 0.29,0.29 0 0 1 9.19,7.14 c 2.8,-0.07 2.15,-1.3 4.25,-1.3 2.1,0 1.45,1.23 4.25,1.3 a 0.29,0.29 0 0 1 0.28,0.29 z"
           id="path63400"
           inkscape:connector-curvature="0"
           style="fill:#dfa500" />
        <g
           id="g63408">
          <path
             d="M 13.44,11.38 V 6.3 c 1.93,0 1.33,1.13 3.9,1.2 A 0.26,0.26 0 0 1 17.6,7.76 V 11 c 0,0.12 0,0.23 0,0.34 z m 0,0 H 9.3 c 0.25,2.57 3.32,4.61 4,5 h 0.12 v 0 z"
             id="path63402"
             inkscape:connector-curvature="0"
             style="fill:url(#b9eda14d-5018-4069-8461-e9c1522765ff)" />
          <path
             d="m 9.54,7.5 c 2.57,-0.07 2,-1.2 3.9,-1.2 v 5.08 H 9.3 c 0,-0.11 0,-0.22 0,-0.34 V 7.76 A 0.26,0.26 0 0 1 9.54,7.5 Z"
             id="path63404"
             inkscape:connector-curvature="0"
             style="fill:#ffd400" />
          <path
             d="m 17.58,11.38 h -4.14 v 5.08 0 h 0.11 C 14.27,16 17.33,14 17.58,11.38 Z"
             id="path63406"
             inkscape:connector-curvature="0"
             style="fill:#ffd400" />
        </g>
      </g>
    </g>
  </g>
  <metadata
     id="metadata63415">
    <rdf:RDF>
      <rdf:li>public:true</rdf:li>
      <rdf:li>sdk:false</rdf:li>
      <rdf:li>category: Networking</rdf:li>
      <cc:Work
         rdf:about="">
        <dc:format>image/svg+xml</dc:format>
        <dc:type
           rdf:resource="http://purl.org/dc/dcmitype/StillImage" />
        <dc:title>Artboard 1</dc:title>
      </cc:Work>
    </rdf:RDF>
  </metadata>
</svg>
