<?xml version="1.0" encoding="UTF-8" standalone="no"?>
<svg
   width="17.996107"
   height="15.835691"
   viewBox="0 0 17.996107 15.835691"
   version="1.1"
   id="svg47280"
   sodipodi:docname="DNS_Private_Resolver.svg"
   inkscape:version="1.1 (c68e22c387, 2021-05-23)"
   xmlns:inkscape="http://www.inkscape.org/namespaces/inkscape"
   xmlns:sodipodi="http://sodipodi.sourceforge.net/DTD/sodipodi-0.dtd"
   xmlns="http://www.w3.org/2000/svg"
   xmlns:svg="http://www.w3.org/2000/svg">
  <sodipodi:namedview
     id="namedview47282"
     pagecolor="#ffffff"
     bordercolor="#666666"
     borderopacity="1.0"
     inkscape:pageshadow="2"
     inkscape:pageopacity="0.0"
     inkscape:pagecheckerboard="0"
     showgrid="false"
     fit-margin-top="0"
     fit-margin-left="0"
     fit-margin-right="0"
     fit-margin-bottom="0"
     inkscape:zoom="44.055556"
     inkscape:cx="9"
     inkscape:cy="7.9104666"
     inkscape:window-width="1920"
     inkscape:window-height="1017"
     inkscape:window-x="-8"
     inkscape:window-y="-8"
     inkscape:window-maximized="1"
     inkscape:current-layer="svg47280" />
  <defs
     id="defs47265">
    <linearGradient
       id="e28f6ef1-fd31-4751-9108-f94729c0f169"
       x1="9.0489998"
       y1="1.196"
       x2="9.0489998"
       y2="16.892"
       gradientUnits="userSpaceOnUse"
       gradientTransform="translate(-0.00396504,-1.0855739)">
      <stop
         offset="0"
         stop-color="#0078d4"
         id="stop47260" />
      <stop
         offset="1"
         stop-color="#005ba1"
         id="stop47262" />
    </linearGradient>
  </defs>
  <path
     d="m 16.440035,7.8824261 a 7.392,7.392 0 0 1 -7.39,7.3899999 7.5,7.5 0 0 1 -0.96,-0.06 7.184,7.184 0 0 1 -2.82,-0.98 l -0.08,-0.59 -0.09,-0.7 -0.06,-0.43 a 0.735,0.735 0 0 0 -0.23,-0.41 0.638,0.638 0 0 0 -0.83,0.05 l -0.21,0.21 -0.33,0.33 a 7.331,7.331 0 0 1 -1.78,-4.5499999 2.348,2.348 0 0 1 -0.01,-0.26 7.4,7.4 0 0 1 7.4,-7.39999997 7.252,7.252 0 0 1 3.746,1.03199997 l 0.08,0.6 0.1,0.69 0.07,0.51 a 0.672,0.672 0 0 0 0.17,0.36 0.647,0.647 0 0 0 0.44,0.18 0.6,0.6 0 0 0 0.44,-0.18 l 0.57,-0.57 a 7.278,7.278 0 0 1 1.774,4.778 z"
     fill="url(#e28f6ef1-fd31-4751-9108-f94729c0f169)"
     id="path47267"
     style="fill:url(#e28f6ef1-fd31-4751-9108-f94729c0f169)" />
  <path
     d="m 14.510035,3.6144261 a 1.462,1.462 0 0 0 -0.16,-0.19 l -0.25,0.25 a 0.6,0.6 0 0 1 -0.44,0.18 0.647,0.647 0 0 1 -0.44,-0.18 8.074,8.074 0 0 1 -1.15,0.32 l -0.11,0.02 -0.04,-0.11 a 8.115,8.115 0 0 0 -0.79,-1.88 l -0.17,-0.29 0.32,0.12 a 6.294,6.294 0 0 1 1.7,0.95 l -0.1,-0.69 a 7,7 0 0 0 -3.41,-1.15999997 c -0.13,0 -0.28,-0.01 -0.42,-0.01 -0.14,0 -0.3,0.01 -0.42,0.01 a 6.715,6.715 0 0 0 -0.9,0.11999997 7.016,7.016 0 0 0 -3.9,2.23 c -0.08,0.1 -0.17,0.2 -0.25,0.31 a 6.866,6.866 0 0 0 -1.47,4.27 3.027,3.027 0 0 0 0.02,0.44 6.829,6.829 0 0 0 1.45,3.8299999 c 0.06,0.07 0.12,0.14 0.19,0.21 l 0.21,-0.21 a 0.638,0.638 0 0 1 0.83,-0.05 10.309,10.309 0 0 1 1.22,-0.33 l 0.11,-0.03 0.03,0.11 a 8.178,8.178 0 0 0 0.79,1.88 l 0.18,0.3 -0.33,-0.12 a 6.3,6.3 0 0 1 -1.71,-0.97 l 0.09,0.7 a 7.018,7.018 0 0 0 2.54,1.05 c 0.07,0.01 0.15,0.03 0.22,0.04 0.22,0.03 0.45,0.06 0.68,0.07 0.12,0.01 0.26,0.02 0.42,0.02 0.16,0 0.29,-0.01 0.42,-0.02 a 7.126,7.126 0 0 0 0.9,-0.11 6.99,6.99 0 0 0 3.89,-2.23 c 0.08,-0.1 0.17,-0.21 0.26,-0.31 a 6.877,6.877 0 0 0 1.46,-4.2699999 6.806,6.806 0 0 0 -1.47,-4.27 z m -6.58,-2.04 0.03,-0.03 0.036,-0.012 a 7.066,7.066 0 0 1 1.04,-0.08 7.452,7.452 0 0 1 1.06,0.08 l 0.04,0.01 0.02,0.03 a 6.06,6.06 0 0 1 1.26,2.4 l 0.04,0.13 -0.14,0.02 a 15.045,15.045 0 0 1 -2.27,0.17 15.281,15.281 0 0 1 -2.28,-0.17 l -0.13,-0.02 0.04,-0.13 a 5.931,5.931 0 0 1 1.254,-2.4 z m -2.07,8.9199999 h 0.02 v 0.11 c 0.03,0.18 0.07,0.36 0.11,0.54 l 0.02,0.12 -0.12,0.02 a 11.445,11.445 0 0 0 -1.79,0.55 l -0.09,0.04 -0.06,-0.07 a 6.443,6.443 0 0 1 -1.29,-3.1899999 5.846,5.846 0 0 1 -0.04,-0.73 6.464,6.464 0 0 1 1.33,-3.92 l 0.06,-0.08 0.09,0.04 a 10.688,10.688 0 0 0 1.79,0.55 l 0.12,0.03 -0.02,0.12 a 14.81,14.81 0 0 0 -0.35,3.26 14.909,14.909 0 0 0 0.22,2.6079999 z m 0.17,-6.4999999 a 9.092,9.092 0 0 1 -1.5,-0.44 l -0.18,-0.06 0.13,-0.14 a 6.481,6.481 0 0 1 2.33,-1.5 l 0.33,-0.12 -0.18,0.29 a 8.371,8.371 0 0 0 -0.79,1.88 l -0.03,0.11 z m 0.48,7.1799999 -0.03,-0.12 a 14.479,14.479 0 0 1 -0.33,-3.1699999 14.572,14.572 0 0 1 0.33,-3.18 l 0.03,-0.11 0.11,0.02 a 16.052,16.052 0 0 0 2.43,0.19 16.154,16.154 0 0 0 2.43,-0.19 l 0.11,-0.02 0.02,0.11 a 13.97,13.97 0 0 1 0.34,3.18 13.881,13.881 0 0 1 -0.34,3.1699999 l -0.02,0.12 -0.11,-0.02 a 14.769,14.769 0 0 0 -2.43,-0.19 14.683,14.683 0 0 0 -2.43,0.19 z m 3.65,3.02 -0.02,0.03 h -0.044 a 6.2,6.2 0 0 1 -1.05,0.09 6.031,6.031 0 0 1 -1.05,-0.092 l -0.04,-0.01 -0.03,-0.03 a 3.168,3.168 0 0 1 -0.46,-0.6 6.411,6.411 0 0 1 -0.66,-1.39 3.136,3.136 0 0 1 -0.13,-0.4 l -0.04,-0.14 0.13,-0.02 a 15.3,15.3 0 0 1 2.28,-0.16 15.071,15.071 0 0 1 2.27,0.16 l 0.14,0.02 -0.04,0.14 a 6,6 0 0 1 -1.256,2.4 z m 3.45,-1.79 a 6.421,6.421 0 0 1 -2.33,1.51 l -0.32,0.12 0.17,-0.3 a 7.7,7.7 0 0 0 0.79,-1.88 l 0.04,-0.11 0.11,0.03 a 10.187,10.187 0 0 1 1.5,0.43 l 0.17,0.07 z m 0.53,-0.6 -0.05,0.07 -0.09,-0.04 a 10.877,10.877 0 0 0 -1.8,-0.55 l -0.12,-0.02 0.03,-0.12 a 14.944,14.944 0 0 0 0.35,-3.2599999 14.877,14.877 0 0 0 -0.35,-3.26 l -0.03,-0.12 0.12,-0.03 a 10.877,10.877 0 0 0 1.8,-0.55 l 0.08,-0.04 0.06,0.08 a 6.4,6.4 0 0 1 0,7.8399999 z"
     fill="#5ea0ef"
     id="path47269" />
  <path
     d="m 9.837035,9.9864261 c -0.263,0 -0.527,0 -0.79,0 -0.263,0 -0.527,0 -0.791,0 a 0.254,0.254 0 0 1 -0.245,-0.332 c 0.041,-0.146 0.417,-1.389 0.562,-1.869 a 1.045,1.045 0 1 1 0.948,0 c 0.145,0.48 0.52,1.723 0.562,1.869 a 0.255,0.255 0 0 1 -0.246,0.332 z"
     fill="#003067"
     id="path47271" />
  <path
     d="m 17.996035,7.8724261 a 8.942,8.942 0 0 1 -2.64,6.3599999 0.578,0.578 0 0 1 -0.4,0.17 0.561,0.561 0 0 1 -0.4,-0.17 0.567,0.567 0 0 1 0,-0.8 7.839,7.839 0 0 0 2.3,-5.5599999 7.743,7.743 0 0 0 -2.16,-5.4 l -0.9,0.9 a 0.2,0.2 0 0 1 -0.33,-0.11 l -0.42,-3.03999997 a 0.192,0.192 0 0 1 0.22,-0.22 l 3.04,0.41 a 0.2,0.2 0 0 1 0.11,0.34 l -0.91,0.90999997 a 8.9,8.9 0 0 1 2.49,6.21 z m -13.39,4.6999999 a 0.2,0.2 0 0 0 -0.33,-0.12 l -0.91,0.91 a 7.859,7.859 0 0 1 0.064,-11.0479999 0.562,0.562 0 0 0 0,-0.81 0.567,0.567 0 0 0 -0.8,0 9.018,9.018 0 0 0 -0.06,12.6699999 l -0.91,0.91 a 0.192,0.192 0 0 0 0.11,0.33 l 3.04,0.42 a 0.2,0.2 0 0 0 0.22,-0.23 z"
     fill="#50e6ff"
     id="path47275" />
</svg>
