<?xml version="1.0" encoding="UTF-8" standalone="no"?>
<svg
   xmlns:dc="http://purl.org/dc/elements/1.1/"
   xmlns:cc="http://creativecommons.org/ns#"
   xmlns:rdf="http://www.w3.org/1999/02/22-rdf-syntax-ns#"
   xmlns:svg="http://www.w3.org/2000/svg"
   xmlns="http://www.w3.org/2000/svg"
   xmlns:sodipodi="http://sodipodi.sourceforge.net/DTD/sodipodi-0.dtd"
   xmlns:inkscape="http://www.inkscape.org/namespaces/inkscape"
   id="a542cf39-2ba6-4206-8278-6a4f1c2452f5"
   width="16.967587"
   height="16.971489"
   viewBox="0 0 16.967587 16.971489"
   version="1.1"
   sodipodi:docname="DNS_Zones.svg"
   inkscape:version="0.92.3 (2405546, 2018-03-11)">
  <sodipodi:namedview
     pagecolor="#ffffff"
     bordercolor="#666666"
     borderopacity="1"
     objecttolerance="10"
     gridtolerance="10"
     guidetolerance="10"
     inkscape:pageopacity="0"
     inkscape:pageshadow="2"
     inkscape:window-width="1920"
     inkscape:window-height="1017"
     id="namedview63928"
     showgrid="false"
     fit-margin-top="0"
     fit-margin-left="0"
     fit-margin-right="0"
     fit-margin-bottom="0"
     inkscape:zoom="48.111111"
     inkscape:cx="8.5030877"
     inkscape:cy="8.5030877"
     inkscape:window-x="-8"
     inkscape:window-y="-8"
     inkscape:window-maximized="1"
     inkscape:current-layer="a542cf39-2ba6-4206-8278-6a4f1c2452f5" />
  <defs
     id="defs63912">
    <radialGradient
       id="e7579f4d-36a3-4693-a726-7a6050ac5671"
       cx="-6811.3999"
       cy="6729.6899"
       r="17"
       gradientTransform="matrix(0.5,0,0,-0.5,3414.91,3374.05)"
       gradientUnits="userSpaceOnUse">
      <stop
         offset="0.18"
         stop-color="#5ea0ef"
         id="stop63907" />
      <stop
         offset="1"
         stop-color="#0078d4"
         id="stop63909" />
    </radialGradient>
  </defs>
  <title
     id="title63914">Icon-networking-64</title>
  <path
     id="f57e105d-6d2d-4ad7-b8c3-c10684c9f9b8"
     d="M 13.713088,15.188401 A 8.5030877,8.5030877 0 0 1 3.2930877,1.7484011 l 0.09,-0.06 A 8.5,8.5 0 0 1 13.713088,15.188401"
     inkscape:connector-curvature="0"
     style="fill:url(#e7579f4d-36a3-4693-a726-7a6050ac5671)" />
  <path
     d="M 8.5030877,0.77840107 A 7.69,7.69 0 1 0 16.193088,8.4684011 7.7,7.7 0 0 0 8.5030877,0.77840107 Z M 13.653088,3.3684011 a 7.37,7.37 0 0 1 -2.15,0.8 8.83,8.83 0 0 0 -1.25,-2.7 7.2,7.2 0 0 1 3.4,1.9 z m -5.1500003,-2.16 a 6.59,6.59 0 0 1 1.09,0.09 v 0 a 7.48,7.48 0 0 1 1.5300003,3 15.12,15.12 0 0 1 -5.4500003,0 7.38,7.38 0 0 1 1.51,-2.94 v 0 a 7.34,7.34 0 0 1 1.32,-0.15 z m -2,0.26 a 8.72,8.72 0 0 0 -1.27,2.68 5.58,5.58 0 0 1 -1.9,-0.77 7.35,7.35 0 0 1 3.17,-1.91 z m -3.28,11.9999999 a 5.27,5.27 0 0 1 1.78,-0.76 7.08,7.08 0 0 0 1.35,2.72 7.25,7.25 0 0 1 -3.13,-1.96 z m 6.41,2.2 a 7.08,7.08 0 0 1 -1.13,0.06 6.83,6.83 0 0 1 -1.44,-0.15 v 0 a 6,6 0 0 1 -1.67,-3 14.73,14.73 0 0 1 5.8800003,0 6,6 0 0 1 -1.6900003,3 z m 0.7300003,-0.16 a 7.13,7.13 0 0 0 1.38,-2.8 6.68,6.68 0 0 1 2,0.83 7.13,7.13 0 0 1 -3.38,1.93 z m 1.48,-3.22 c 0.08,-0.36 0.15,-0.73 0.2,-1.12 l -0.46,0.11 c -0.05,0.31 -0.1,0.62 -0.17,0.91 a 15.23,15.23 0 0 0 -6.0900003,0 c -0.07,-0.27 -0.12,-0.56 -0.17,-0.86 a 0.28,0.28 0 0 1 0,-0.09 l -0.46,-0.13 a 2.36,2.36 0 0 0 0,0.28 c 0,0.32 0.11,0.62 0.17,0.91 a 5.9,5.9 0 0 0 -2,0.85 7.24,7.24 0 0 1 0.11,-9.3999999 6.29,6.29 0 0 0 2.08,0.86 c -0.07,0.24 -0.13,0.5 -0.18,0.76 -0.05,0.26 0,0.25 -0.08,0.37 l 0.47,-0.11 v -0.17 c 0.06,-0.26 0.12,-0.51 0.19,-0.75 a 14.89,14.89 0 0 0 3.05,0.24 15,15 0 0 0 2.7800003,-0.26 c 0.07,0.27 0.14,0.56 0.2,0.85 l 0.46,0.11 q -0.11,-0.54 -0.24,-1 a 7.73,7.73 0 0 0 2.3,-0.91 7.22,7.22 0 0 1 0.06,9.4899999 7.28,7.28 0 0 0 -2.22,-0.97 z"
     id="path63917"
     inkscape:connector-curvature="0"
     style="fill:#5ea0ef" />
  <path
     d="m 3.1930877,6.4684011 a 7.92,7.92 0 0 1 1.16,-0.08 2.44,2.44 0 0 1 1.71,0.52 2,2 0 0 1 0.59,1.46 2.21,2.21 0 0 1 -0.61,1.6399999 2.6,2.6 0 0 1 -1.86,0.61 9.17,9.17 0 0 1 -1,-0.05 z m 0.55,3.7299999 a 4,4 0 0 0 0.55,0 1.62,1.62 0 0 0 1.79,-1.8099999 1.5,1.5 0 0 0 -1.71,-1.62 3.17,3.17 0 0 0 -0.63,0 z"
     id="path63919"
     inkscape:connector-curvature="0"
     style="fill:#ffffff" />
  <path
     d="M 7.3630877,10.578401 V 6.3684011 h 0.59 l 1.35,2.1 a 12.18,12.18 0 0 1 0.7600003,1.37 v 0 c -0.05,-0.56 -0.06,-1.07 -0.06,-1.73 v -1.74 h 0.5 V 10.578401 H 9.9530877 l -1.32,-2.1099999 c -0.29,-0.47 -0.57,-1 -0.79,-1.4 v 0 c 0,0.53 0,1 0,1.74 v 1.7999999 z"
     id="path63921"
     inkscape:connector-curvature="0"
     style="fill:#ffffff" />
  <path
     d="m 11.393088,9.9184011 a 2,2 0 0 0 1,0.2699999 c 0.56,0 0.88,-0.2899999 0.88,-0.7199999 0,-0.43 -0.22,-0.62 -0.79,-0.83 -0.57,-0.21 -1.12,-0.6 -1.12,-1.2 a 1.22,1.22 0 0 1 1.37,-1.14 2,2 0 0 1 0.93,0.2 l -0.16,0.45 a 1.63,1.63 0 0 0 -0.8,-0.2 c -0.58,0 -0.8,0.34 -0.8,0.63 0,0.29 0.26,0.59 0.84,0.81 0.58,0.22 1.08,0.62 1.08,1.24 0,0.6199999 -0.48,1.2099999 -1.48,1.2099999 a 2.16,2.16 0 0 1 -1.07,-0.27 z"
     id="path63923"
     inkscape:connector-curvature="0"
     style="fill:#ffffff" />
  <metadata
     id="metadata63925">
    <rdf:RDF>
      <rdf:li>public:true</rdf:li>
      <rdf:li>sdk:false</rdf:li>
      <rdf:li>category: Networking</rdf:li>
      <cc:Work
         rdf:about="">
        <dc:format>image/svg+xml</dc:format>
        <dc:type
           rdf:resource="http://purl.org/dc/dcmitype/StillImage" />
        <dc:title>Icon-networking-64</dc:title>
      </cc:Work>
    </rdf:RDF>
  </metadata>
</svg>
