<?xml version="1.0" encoding="UTF-8" standalone="no"?>
<svg
   xmlns:dc="http://purl.org/dc/elements/1.1/"
   xmlns:cc="http://creativecommons.org/ns#"
   xmlns:rdf="http://www.w3.org/1999/02/22-rdf-syntax-ns#"
   xmlns:svg="http://www.w3.org/2000/svg"
   xmlns="http://www.w3.org/2000/svg"
   xmlns:sodipodi="http://sodipodi.sourceforge.net/DTD/sodipodi-0.dtd"
   xmlns:inkscape="http://www.inkscape.org/namespaces/inkscape"
   id="af463d32-ec10-44d9-a607-ebad6378a52b"
   width="18"
   height="15.222359"
   viewBox="0 0 18 15.222359"
   version="1.1"
   sodipodi:docname="Firewalls.svg"
   inkscape:version="0.92.3 (2405546, 2018-03-11)">
  <sodipodi:namedview
     pagecolor="#ffffff"
     bordercolor="#666666"
     borderopacity="1"
     objecttolerance="10"
     gridtolerance="10"
     guidetolerance="10"
     inkscape:pageopacity="0"
     inkscape:pageshadow="2"
     inkscape:window-width="1920"
     inkscape:window-height="1017"
     id="namedview64353"
     showgrid="false"
     fit-margin-top="0"
     fit-margin-left="0"
     fit-margin-right="0"
     fit-margin-bottom="0"
     inkscape:zoom="48.111111"
     inkscape:cx="9"
     inkscape:cy="7.6"
     inkscape:window-x="-8"
     inkscape:window-y="-8"
     inkscape:window-maximized="1"
     inkscape:current-layer="af463d32-ec10-44d9-a607-ebad6378a52b" />
  <defs
     id="defs64322">
    <linearGradient
       id="b012de7b-7a0e-4618-9fec-703622e3e8c3"
       x1="9"
       y1="14.14"
       x2="9"
       y2="1.38"
       gradientUnits="userSpaceOnUse">
      <stop
         offset="0"
         stop-color="#0078d4"
         id="stop64317" />
      <stop
         offset="0.82"
         stop-color="#5ea0ef"
         id="stop64319" />
    </linearGradient>
  </defs>
  <title
     id="title64324">Icon-networking-84</title>
  <path
     d="m 18,8.7623585 a 4.06,4.06 0 0 0 -3.51,-3.89 5.1,5.1 0 0 0 -5.25,-4.87000004 5.23,5.23 0 0 0 -5,3.41000004 4.82,4.82 0 0 0 -4.24,4.64 4.9,4.9 0 0 0 5.07,4.7099995 h 0.44 8.21 a 1.46,1.46 0 0 0 0.22,0 A 4.1,4.1 0 0 0 18,8.7623585 Z"
     id="path64326"
     inkscape:connector-curvature="0"
     style="fill:url(#b012de7b-7a0e-4618-9fec-703622e3e8c3)" />
  <path
     d="m 14.29,9.8123585 a 0.42,0.42 0 0 0 -0.42,-0.41 H 4.13 a 0.42,0.42 0 0 0 -0.42,0.41 v 4.9999995 a 0.42,0.42 0 0 0 0.42,0.41 h 9.74 a 0.42,0.42 0 0 0 0.42,-0.41 z"
     id="path64328"
     inkscape:connector-curvature="0"
     style="fill:#821010" />
  <rect
     x="4.3000002"
     y="9.982358"
     width="2.8699999"
     height="1.27"
     id="rect64330"
     style="fill:#e62323" />
  <rect
     x="7.5999999"
     y="9.982358"
     width="2.8699999"
     height="1.27"
     id="rect64332"
     style="fill:#ff7381" />
  <rect
     x="10.9"
     y="9.982358"
     width="2.8699999"
     height="1.27"
     id="rect64334"
     style="fill:#e62323" />
  <rect
     x="4.3000002"
     y="11.682359"
     width="1.1900001"
     height="1.27"
     id="rect64336"
     style="fill:#e62323" />
  <rect
     x="12.58"
     y="11.682359"
     width="1.1900001"
     height="1.27"
     id="rect64338"
     style="fill:#ff7381" />
  <rect
     x="5.9200001"
     y="11.682359"
     width="2.8699999"
     height="1.27"
     id="rect64340"
     style="fill:#ff7381" />
  <rect
     x="9.2299995"
     y="11.682359"
     width="2.8699999"
     height="1.27"
     id="rect64342"
     style="fill:#e62323" />
  <rect
     x="4.3000002"
     y="13.382359"
     width="2.8699999"
     height="1.27"
     id="rect64344"
     style="fill:#e62323" />
  <rect
     x="7.5999999"
     y="13.382359"
     width="2.8699999"
     height="1.27"
     id="rect64346"
     style="fill:#ff7381" />
  <rect
     x="10.9"
     y="13.382359"
     width="2.8699999"
     height="1.27"
     id="rect64348"
     style="fill:#e62323" />
  <metadata
     id="metadata64350">
    <rdf:RDF>
      <rdf:li>public:true</rdf:li>
      <rdf:li>sdk:false</rdf:li>
      <rdf:li>category: Networking</rdf:li>
      <cc:Work
         rdf:about="">
        <dc:format>image/svg+xml</dc:format>
        <dc:type
           rdf:resource="http://purl.org/dc/dcmitype/StillImage" />
        <dc:title>Icon-networking-84</dc:title>
      </cc:Work>
    </rdf:RDF>
  </metadata>
</svg>
