<?xml version="1.0" encoding="UTF-8" standalone="no"?>
<svg
   xmlns:dc="http://purl.org/dc/elements/1.1/"
   xmlns:cc="http://creativecommons.org/ns#"
   xmlns:rdf="http://www.w3.org/1999/02/22-rdf-syntax-ns#"
   xmlns:svg="http://www.w3.org/2000/svg"
   xmlns="http://www.w3.org/2000/svg"
   xmlns:sodipodi="http://sodipodi.sourceforge.net/DTD/sodipodi-0.dtd"
   xmlns:inkscape="http://www.inkscape.org/namespaces/inkscape"
   width="17"
   height="13.222"
   viewBox="0 0 17 13.222"
   version="1.1"
   id="svg64788"
   sodipodi:docname="IP_Groups.svg"
   inkscape:version="0.92.3 (2405546, 2018-03-11)">
  <sodipodi:namedview
     pagecolor="#ffffff"
     bordercolor="#666666"
     borderopacity="1"
     objecttolerance="10"
     gridtolerance="10"
     guidetolerance="10"
     inkscape:pageopacity="0"
     inkscape:pageshadow="2"
     inkscape:window-width="1920"
     inkscape:window-height="1017"
     id="namedview64790"
     showgrid="false"
     fit-margin-top="0"
     fit-margin-left="0"
     fit-margin-right="0"
     fit-margin-bottom="0"
     inkscape:zoom="48.111111"
     inkscape:cx="8.5"
     inkscape:cy="6.611"
     inkscape:window-x="-8"
     inkscape:window-y="-8"
     inkscape:window-maximized="1"
     inkscape:current-layer="svg64788" />
  <defs
     id="defs64753">
    <linearGradient
       id="f739297d-1dff-4878-8e69-be6860163e71"
       x1="12.726"
       y1="2199.2439"
       x2="12.726"
       y2="2193.605"
       gradientTransform="translate(0.5,-2181.253)"
       gradientUnits="userSpaceOnUse">
      <stop
         offset="0"
         stop-color="#32bedd"
         id="stop64744" />
      <stop
         offset="0.18"
         stop-color="#32caea"
         id="stop64746" />
      <stop
         offset="0.41"
         stop-color="#32d2f2"
         id="stop64748" />
      <stop
         offset="0.78"
         stop-color="#32d4f5"
         id="stop64750" />
    </linearGradient>
  </defs>
  <g
     id="aaa7102a-579e-4074-9dfb-2c1893535ac2"
     transform="translate(-0.5,-2.389)">
    <g
       id="g64783">
      <path
         d="m 0.5,4.429 h 9.548 V 9.756 A 0.321,0.321 0 0 1 9.727,10.077 H 0.821 A 0.321,0.321 0 0 1 0.5,9.756 v 0 z"
         id="path64755"
         inkscape:connector-curvature="0"
         style="fill:#83b9f9" />
      <path
         d="m 0.821,2.389 h 8.906 a 0.321,0.321 0 0 1 0.321,0.321 v 0 1.719 H 0.5 V 2.71 A 0.321,0.321 0 0 1 0.821,2.389 Z"
         id="path64757"
         inkscape:connector-curvature="0"
         style="fill:#1f56a3" />
      <rect
         x="1.784"
         y="3.003"
         width="6.9790001"
         height="0.82200003"
         rx="0.161"
         id="rect64759"
         style="fill:#f2f2f2" />
      <path
         d="m 4.221,7.187 h 9.558 v 5.326 a 0.321,0.321 0 0 1 -0.321,0.321 H 4.542 A 0.321,0.321 0 0 1 4.221,12.513 v 0 z"
         id="path64761"
         inkscape:connector-curvature="0"
         style="fill:#83b9f9" />
      <path
         d="m 4.542,5.156 h 8.906 a 0.321,0.321 0 0 1 0.321,0.321 v 0 1.71 H 4.231 V 5.477 A 0.321,0.321 0 0 1 4.542,5.156 Z"
         id="path64763"
         inkscape:connector-curvature="0"
         style="fill:#1f56a3" />
      <rect
         x="5.506"
         y="5.77"
         width="6.9790001"
         height="0.82200003"
         rx="0.161"
         id="rect64765"
         style="fill:#f2f2f2" />
      <g
         id="g64781">
        <path
           d="M 7.952,9.963 H 17.5 v 5.327 a 0.321,0.321 0 0 1 -0.321,0.321 H 8.273 A 0.321,0.321 0 0 1 7.952,15.29 v 0 z"
           id="path64767"
           inkscape:connector-curvature="0"
           style="fill:url(#f739297d-1dff-4878-8e69-be6860163e71)" />
        <path
           d="m 8.273,7.923 h 8.906 A 0.321,0.321 0 0 1 17.5,8.244 V 9.963 H 7.952 V 8.244 A 0.321,0.321 0 0 1 8.273,7.923 Z"
           id="path64769"
           inkscape:connector-curvature="0"
           style="fill:#0078d4" />
        <g
           id="g64777">
          <circle
             cx="14.874"
             cy="12.438"
             r="0.77399999"
             id="circle64771"
             style="fill:#0078d4" />
          <circle
             cx="12.759"
             cy="12.438"
             r="0.77399999"
             id="circle64773"
             style="fill:#0078d4" />
          <circle
             cx="10.577"
             cy="12.438"
             r="0.77399999"
             id="circle64775"
             style="fill:#0078d4" />
        </g>
        <rect
           x="9.2360001"
           y="8.5369997"
           width="6.9790001"
           height="0.82200003"
           rx="0.161"
           id="rect64779"
           style="fill:#f2f2f2" />
      </g>
    </g>
  </g>
  <metadata
     id="metadata64786">
    <rdf:RDF>
      <rdf:li>public:true</rdf:li>
      <rdf:li>sdk:false</rdf:li>
      <rdf:li>category: Networking</rdf:li>
      <cc:Work
         rdf:about="">
        <dc:format>image/svg+xml</dc:format>
        <dc:type
           rdf:resource="http://purl.org/dc/dcmitype/StillImage" />
        <dc:title></dc:title>
      </cc:Work>
    </rdf:RDF>
  </metadata>
</svg>
