<?xml version="1.0" encoding="UTF-8" standalone="no"?>
<svg
   xmlns:dc="http://purl.org/dc/elements/1.1/"
   xmlns:cc="http://creativecommons.org/ns#"
   xmlns:rdf="http://www.w3.org/1999/02/22-rdf-syntax-ns#"
   xmlns:svg="http://www.w3.org/2000/svg"
   xmlns="http://www.w3.org/2000/svg"
   xmlns:sodipodi="http://sodipodi.sourceforge.net/DTD/sodipodi-0.dtd"
   xmlns:inkscape="http://www.inkscape.org/namespaces/inkscape"
   id="e1e71e29-065a-46f7-ad4b-52af36a0bfcb"
   width="18.003101"
   height="18.003065"
   viewBox="0 0 18.003101 18.003065"
   version="1.1"
   sodipodi:docname="Load_Balancers.svg"
   inkscape:version="0.92.3 (2405546, 2018-03-11)">
  <sodipodi:namedview
     pagecolor="#ffffff"
     bordercolor="#666666"
     borderopacity="1"
     objecttolerance="10"
     gridtolerance="10"
     guidetolerance="10"
     inkscape:pageopacity="0"
     inkscape:pageshadow="2"
     inkscape:window-width="1920"
     inkscape:window-height="1017"
     id="namedview65027"
     showgrid="false"
     fit-margin-top="0"
     fit-margin-left="0"
     fit-margin-right="0"
     fit-margin-bottom="0"
     inkscape:zoom="48.111111"
     inkscape:cx="9.0015505"
     inkscape:cy="9.0015143"
     inkscape:window-x="-8"
     inkscape:window-y="-8"
     inkscape:window-maximized="1"
     inkscape:current-layer="e1e71e29-065a-46f7-ad4b-52af36a0bfcb" />
  <defs
     id="defs65009">
    <linearGradient
       id="ef84663a-a7b6-46a7-a275-1e419f5eae62"
       x1="9"
       y1="19.85"
       x2="9"
       y2="-1.02"
       gradientUnits="userSpaceOnUse">
      <stop
         offset="0"
         stop-color="#5e9624"
         id="stop65002" />
      <stop
         offset="0.02"
         stop-color="#5f9724"
         id="stop65004" />
      <stop
         offset="1"
         stop-color="#76bc2d"
         id="stop65006" />
    </linearGradient>
  </defs>
  <title
     id="title65011">Icon-networking-62</title>
  <path
     d="M 0.18155048,8.5715505 8.5715505,0.18155048 a 0.6,0.6 0 0 1 0.86,0 L 17.82155,8.5715505 a 0.6,0.6 0 0 1 0,0.86 L 9.4215505,17.83155 a 0.6,0.6 0 0 1 -0.84,0 L 0.18155048,9.4315505 a 0.6,0.6 0 0 1 0,-0.86 z"
     id="path65013"
     inkscape:connector-curvature="0"
     style="fill:url(#ef84663a-a7b6-46a7-a275-1e419f5eae62)" />
  <path
     d="m 11.20155,4.0015505 -2.1199995,-2.11 a 0.12,0.12 0 0 0 -0.16,0 l -2.12,2.11 a 0.1,0.1 0 0 0 0.08,0.18 h 1.24 a 0.11,0.11 0 0 1 0.11,0.11 v 2 a 0.11,0.11 0 0 0 0.11,0.11 h 1.32 a 0.11,0.11 0 0 0 0.11,-0.11 v -2 a 0.11,0.11 0 0 1 0.11,-0.11 H 11.12155 a 0.1,0.1 0 0 0 0.08,-0.18 z"
     id="path65015"
     inkscape:connector-curvature="0"
     style="fill:#b4ec36" />
  <path
     d="m 4.0015505,6.6115505 -2.1,2.13 a 0.11,0.11 0 0 0 0,0.15 l 2.1,2.1099995 a 0.11,0.11 0 0 0 0.19,-0.08 V 9.6915505 a 0.11,0.11 0 0 1 0.11,-0.11 h 2 a 0.1,0.1 0 0 0 0.1,-0.11 v -1.32 a 0.1,0.1 0 0 0 -0.07,-0.15 h -2 a 0.1,0.1 0 0 1 -0.11,-0.1 v -1.21 a 0.117047,0.117047 0 0 0 -0.22,-0.08 z"
     id="path65017"
     inkscape:connector-curvature="0"
     style="fill:#b4ec36" />
  <path
     d="m 14.08155,11.00155 2.13,-2.1199995 a 0.11,0.11 0 0 0 0,-0.15 l -2.13,-2.12 a 0.11,0.11 0 0 0 -0.18,0.08 v 1.25 a 0.1,0.1 0 0 1 -0.11,0.1 h -2 a 0.1,0.1 0 0 0 -0.1,0.11 v 1.32 a 0.1,0.1 0 0 0 0.1,0.11 h 2 a 0.11,0.11 0 0 1 0.11,0.11 V 10.93155 a 0.11,0.11 0 0 0 0.18,0.07 z"
     id="path65019"
     inkscape:connector-curvature="0"
     style="fill:#b4ec36" />
  <path
     d="M 11.79155,9.0015505 A 2.79,2.79 0 1 0 8.2515505,11.67155 v 0.95 a 1.71,1.71 0 1 0 1.57,0 v -1 A 2.77,2.77 0 0 0 11.79155,9.0015505 Z"
     id="path65021"
     inkscape:connector-curvature="0"
     style="fill:#ffffff" />
  <circle
     id="e99c3387-15c3-4f28-bd4b-cb209b430e06"
     cx="9.0115509"
     cy="8.9915504"
     r="1.62"
     style="fill:#5ea0ef" />
  <metadata
     id="metadata65024">
    <rdf:RDF>
      <rdf:li>public:true</rdf:li>
      <rdf:li>sdk:MsPortalFx.Base.Images.Polychromatic.LoadBalancer()</rdf:li>
      <rdf:li>category: Networking</rdf:li>
      <cc:Work
         rdf:about="">
        <dc:format>image/svg+xml</dc:format>
        <dc:type
           rdf:resource="http://purl.org/dc/dcmitype/StillImage" />
        <dc:title>Icon-networking-62</dc:title>
      </cc:Work>
    </rdf:RDF>
  </metadata>
</svg>
