<?xml version="1.0" encoding="UTF-8" standalone="no"?>
<svg
   xmlns:dc="http://purl.org/dc/elements/1.1/"
   xmlns:cc="http://creativecommons.org/ns#"
   xmlns:rdf="http://www.w3.org/1999/02/22-rdf-syntax-ns#"
   xmlns:svg="http://www.w3.org/2000/svg"
   xmlns="http://www.w3.org/2000/svg"
   xmlns:sodipodi="http://sodipodi.sourceforge.net/DTD/sodipodi-0.dtd"
   xmlns:inkscape="http://www.inkscape.org/namespaces/inkscape"
   id="b8a38613-92d9-40bd-9920-20dea78733ab"
   width="17.74493"
   height="17.74493"
   viewBox="0 0 17.74493 17.74493"
   version="1.1"
   sodipodi:docname="NAT.svg"
   inkscape:version="0.92.3 (2405546, 2018-03-11)">
  <sodipodi:namedview
     pagecolor="#ffffff"
     bordercolor="#666666"
     borderopacity="1"
     objecttolerance="10"
     gridtolerance="10"
     guidetolerance="10"
     inkscape:pageopacity="0"
     inkscape:pageshadow="2"
     inkscape:window-width="1920"
     inkscape:window-height="1017"
     id="namedview65241"
     showgrid="false"
     fit-margin-top="0"
     fit-margin-left="0"
     fit-margin-right="0"
     fit-margin-bottom="0"
     inkscape:zoom="48.111111"
     inkscape:cx="8.8732502"
     inkscape:cy="8.8724649"
     inkscape:window-x="-8"
     inkscape:window-y="-8"
     inkscape:window-maximized="1"
     inkscape:current-layer="b8a38613-92d9-40bd-9920-20dea78733ab" />
  <defs
     id="defs65218">
    <linearGradient
       id="bb278f11-acc5-4f81-a956-3c7e2103f9e0"
       x1="9"
       y1="18.17"
       x2="9"
       y2="1.506"
       gradientTransform="rotate(45,8.7827707,9.089194)"
       gradientUnits="userSpaceOnUse">
      <stop
         offset="0"
         stop-color="#238ab0"
         id="stop65211" />
      <stop
         offset="0.109"
         stop-color="#2da4c8"
         id="stop65213" />
      <stop
         offset="0.775"
         stop-color="#3ed3f2"
         id="stop65215" />
    </linearGradient>
  </defs>
  <g
     id="g65236"
     transform="translate(-0.12674981,-0.12753514)">
    <rect
       x="2.553"
       y="2.553"
       width="12.893"
       height="12.893"
       rx="0.59100002"
       transform="rotate(-45,8.999961,9.0000941)"
       id="rect65220"
       style="fill:url(#bb278f11-acc5-4f81-a956-3c7e2103f9e0)" />
    <polygon
       points="13.734,8.33 10.877,8.33 10.877,9.85 12.158,9.85 8.94,13.069 5.721,9.85 7.023,9.85 7.023,8.33 3.885,8.33 3.885,9.85 4.004,9.85 3.788,10.067 8.286,14.565 8.94,13.912 9.593,14.565 14.092,10.067 13.734,9.709 "
       id="polygon65222"
       style="fill:#9cebff" />
    <g
       id="g65228">
      <ellipse
         id="e7444779-97d4-41c0-b615-8f20dff7b430"
         cx="3.977"
         cy="9.0900002"
         rx="1.577"
         ry="1.585"
         transform="rotate(-45.121,3.9765883,9.0907054)"
         style="fill:#ffffff" />
      <ellipse
         id="f49a3027-2a70-4956-8377-b9fde0692268"
         cx="3.977"
         cy="9.0900002"
         rx="0.89600003"
         ry="0.90499997"
         transform="rotate(-45.061,3.9763194,9.0902711)"
         style="fill:#86d633" />
      <ellipse
         id="a1afee39-6bd9-4799-a876-a587d30d68e2"
         cx="14.014"
         cy="9.0900002"
         rx="1.577"
         ry="1.585"
         transform="rotate(-45.121,14.014661,9.090831)"
         style="fill:#ffffff" />
      <ellipse
         id="e3be4992-7cb5-4729-a727-b6df3846a260"
         cx="14.014"
         cy="9.0900002"
         rx="0.89600003"
         ry="0.90499997"
         transform="rotate(-45.061,14.015122,9.0900713)"
         style="fill:#86d633" />
    </g>
    <g
       id="g65234">
      <path
         d="m 11.04,4.806 -2,-2 a 0.15,0.15 0 0 0 -0.213,0 l -2,2 A 0.15,0.15 0 0 0 6.933,5.063 H 8.068 A 0.107,0.107 0 0 1 8.175,5.17 V 15.433 H 9.7 V 5.17 A 0.107,0.107 0 0 1 9.8,5.063 h 1.131 A 0.15,0.15 0 0 0 11.04,4.806 Z"
         id="path65230"
         inkscape:connector-curvature="0"
         style="fill:#ffffff" />
      <ellipse
         id="b39a4da1-83b2-4022-9206-dc01785cf428"
         cx="8.9350004"
         cy="14.139"
         rx="1.577"
         ry="1.585"
         transform="rotate(-45.121,8.9356423,14.138538)"
         style="fill:#ffffff" />
      <ellipse
         id="fc8023b8-202d-4292-8ba0-f1db060a36ef"
         cx="8.9350004"
         cy="14.139"
         rx="0.89600003"
         ry="0.90499997"
         transform="rotate(-45.061,8.9358405,14.138373)"
         style="fill:#86d633" />
    </g>
  </g>
  <metadata
     id="metadata65238">
    <rdf:RDF>
      <rdf:li>public:true</rdf:li>
      <rdf:li>sdk:false</rdf:li>
      <rdf:li>category: Networking</rdf:li>
      <cc:Work
         rdf:about="">
        <dc:format>image/svg+xml</dc:format>
        <dc:type
           rdf:resource="http://purl.org/dc/dcmitype/StillImage" />
        <dc:title></dc:title>
      </cc:Work>
    </rdf:RDF>
  </metadata>
</svg>
