<?xml version="1.0" encoding="UTF-8" standalone="no"?>
<svg
   xmlns:dc="http://purl.org/dc/elements/1.1/"
   xmlns:cc="http://creativecommons.org/ns#"
   xmlns:rdf="http://www.w3.org/1999/02/22-rdf-syntax-ns#"
   xmlns:svg="http://www.w3.org/2000/svg"
   xmlns="http://www.w3.org/2000/svg"
   xmlns:sodipodi="http://sodipodi.sourceforge.net/DTD/sodipodi-0.dtd"
   xmlns:inkscape="http://www.inkscape.org/namespaces/inkscape"
   id="b75943ba-1a3f-485d-b45d-3fee00ed7e5e"
   width="14.72"
   height="17.997572"
   viewBox="0 0 14.72 17.997572"
   version="1.1"
   sodipodi:docname="Network_Security_Groups.svg"
   inkscape:version="0.92.3 (2405546, 2018-03-11)">
  <sodipodi:namedview
     pagecolor="#ffffff"
     bordercolor="#666666"
     borderopacity="1"
     objecttolerance="10"
     gridtolerance="10"
     guidetolerance="10"
     inkscape:pageopacity="0"
     inkscape:pageshadow="2"
     inkscape:window-width="1920"
     inkscape:window-height="1017"
     id="namedview65807"
     showgrid="false"
     fit-margin-top="0"
     fit-margin-left="0"
     fit-margin-right="0"
     fit-margin-bottom="0"
     inkscape:zoom="48.111111"
     inkscape:cx="7.36"
     inkscape:cy="8.9975717"
     inkscape:window-x="-8"
     inkscape:window-y="-8"
     inkscape:window-maximized="1"
     inkscape:current-layer="b75943ba-1a3f-485d-b45d-3fee00ed7e5e" />
  <defs
     id="defs65790">
    <linearGradient
       id="fe5ce43f-2823-4617-bb54-57df9e778372"
       x1="9.0100002"
       y1="0.75"
       x2="9.0100002"
       y2="17.25"
       gradientUnits="userSpaceOnUse">
      <stop
         offset="0"
         stop-color="#5ea0ef"
         id="stop65779" />
      <stop
         offset="0.18"
         stop-color="#559cec"
         id="stop65781" />
      <stop
         offset="0.47"
         stop-color="#3c91e5"
         id="stop65783" />
      <stop
         offset="0.84"
         stop-color="#1380da"
         id="stop65785" />
      <stop
         offset="1"
         stop-color="#0078d4"
         id="stop65787" />
    </linearGradient>
  </defs>
  <title
     id="title65792">Icon-networking-67</title>
  <path
     d="m 14.72,8.4 c 0,4.84 -5.85,8.74 -7.12,9.53 a 0.46,0.46 0 0 1 -0.48,0 C 5.85,17.14 1.2845085e-8,13.24 1.2845085e-8,8.4 V 2.58 A 0.46,0.46 0 0 1 0.45000001,2.12 C 5,2 3.95,0 7.36,0 c 3.41,0 2.36,2 6.91,2.12 a 0.46,0.46 0 0 1 0.45,0.46 z"
     id="path65794"
     inkscape:connector-curvature="0"
     style="fill:#0078d4" />
  <path
     d="m 14.11,8.45 c 0,4.44 -5.36,8 -6.53,8.74 a 0.43,0.43 0 0 1 -0.44,0 C 5.97,16.47 0.61000001,12.89 0.61000001,8.45 V 3.11 A 0.42,0.42 0 0 1 1.02,2.69 C 5.19,2.58 4.23,0.75 7.36,0.75 c 3.13,0 2.17,1.83 6.34,1.94 a 0.42,0.42 0 0 1 0.41,0.42 z"
     id="path65796"
     inkscape:connector-curvature="0"
     style="fill:#6bb9f2" />
  <path
     d="M 7.36,9 V 0.75 c 3.13,0 2.17,1.83 6.34,1.94 a 0.43,0.43 0 0 1 0.41,0.43 v 5.34 a 4.89,4.89 0 0 1 0,0.54 z m 0,0 H 0.64000001 C 1.04,13.18 6.02,16.5 7.14,17.19 a 0.39,0.39 0 0 0 0.18,0.06 h 0.04 z"
     id="path65798"
     inkscape:connector-curvature="0"
     style="fill:url(#fe5ce43f-2823-4617-bb54-57df9e778372)" />
  <path
     d="M 1.02,2.69 C 5.19,2.58 4.23,0.75 7.36,0.75 V 9 H 0.64000001 a 4.89,4.89 0 0 1 0,-0.54 V 3.12 A 0.43,0.43 0 0 1 1.02,2.69 Z"
     id="path65800"
     inkscape:connector-curvature="0"
     style="fill:#50e6ff" />
  <path
     d="M 14.08,9 H 7.36 v 8.25 0 A 0.39,0.39 0 0 0 7.54,17.19 C 8.7,16.5 13.68,13.18 14.08,9 Z"
     id="path65802"
     inkscape:connector-curvature="0"
     style="fill:#50e6ff" />
  <metadata
     id="metadata65804">
    <rdf:RDF>
      <rdf:li>public:true</rdf:li>
      <rdf:li>sdk:false</rdf:li>
      <rdf:li>category: Networking</rdf:li>
      <cc:Work
         rdf:about="">
        <dc:format>image/svg+xml</dc:format>
        <dc:type
           rdf:resource="http://purl.org/dc/dcmitype/StillImage" />
        <dc:title>Icon-networking-67</dc:title>
      </cc:Work>
    </rdf:RDF>
  </metadata>
</svg>
