<?xml version="1.0" encoding="UTF-8" standalone="no"?>
<svg
   id="b79eeb39-09f1-4c54-bd21-130815ed2057"
   width="18.009325"
   height="17.232359"
   viewBox="0 0 18.009325 17.232359"
   version="1.1"
   sodipodi:docname="On_Premises_Data_Gateways.svg"
   inkscape:version="1.1 (c68e22c387, 2021-05-23)"
   xmlns:inkscape="http://www.inkscape.org/namespaces/inkscape"
   xmlns:sodipodi="http://sodipodi.sourceforge.net/DTD/sodipodi-0.dtd"
   xmlns="http://www.w3.org/2000/svg"
   xmlns:svg="http://www.w3.org/2000/svg"
   xmlns:rdf="http://www.w3.org/1999/02/22-rdf-syntax-ns#"
   xmlns:cc="http://creativecommons.org/ns#"
   xmlns:dc="http://purl.org/dc/elements/1.1/">
  <sodipodi:namedview
     id="namedview48290"
     pagecolor="#ffffff"
     bordercolor="#666666"
     borderopacity="1.0"
     inkscape:pageshadow="2"
     inkscape:pageopacity="0.0"
     inkscape:pagecheckerboard="0"
     showgrid="false"
     fit-margin-top="0"
     fit-margin-left="0"
     fit-margin-right="0"
     fit-margin-bottom="0"
     inkscape:zoom="44.055556"
     inkscape:cx="9"
     inkscape:cy="8.6141236"
     inkscape:window-width="1920"
     inkscape:window-height="1017"
     inkscape:window-x="-8"
     inkscape:window-y="-8"
     inkscape:window-maximized="1"
     inkscape:current-layer="b79eeb39-09f1-4c54-bd21-130815ed2057" />
  <defs
     id="defs48277">
    <linearGradient
       id="a17deb66-d035-4524-a926-2e2e90ae2385"
       x1="9"
       y1="13.14"
       x2="9"
       y2="0.38999999"
       gradientUnits="userSpaceOnUse"
       gradientTransform="translate(0.00932469,-0.38764154)">
      <stop
         offset="0"
         stop-color="#0078d4"
         id="stop48272" />
      <stop
         offset="0.82"
         stop-color="#5ea0ef"
         id="stop48274" />
    </linearGradient>
  </defs>
  <title
     id="title48279">Icon-networking-70</title>
  <path
     d="m 18.009325,8.7623585 a 4.05,4.05 0 0 0 -3.51,-3.89 5.1,5.1 0 0 0 -5.2500003,-4.87000004 5.23,5.23 0 0 0 -5,3.40000004 4.84,4.84 0 0 0 -4.24000001,4.65 4.89,4.89 0 0 0 5.07000001,4.6999995 3.17,3.17 0 0 0 0.44,0 h 8.2100003 a 0.78,0.78 0 0 0 0.22,0 4.09,4.09 0 0 0 4.06,-3.9899995 z"
     fill="url(#a17deb66-d035-4524-a926-2e2e90ae2385)"
     id="path48281"
     style="fill:url(#a17deb66-d035-4524-a926-2e2e90ae2385)" />
  <path
     d="m 9.4793247,7.9323585 a 4.74,4.74 0 1 0 -4.73,4.8199995 h 4.73 z"
     fill="#50e6ff"
     id="path48283" />
  <path
     d="m 11.809325,14.952358 -2.2500003,2.24 a 0.1,0.1 0 0 1 -0.16,0 l -2.24,-2.24 a 0.12,0.12 0 0 1 0.08,-0.2 h 1.32 a 0.11,0.11 0 0 0 0.11,-0.14 v -2.9 a 0.11,0.11 0 0 1 0.12,-0.1 h 1.3900003 a 0.11,0.11 0 0 1 0.11,0.11 v 2.89 a 0.11,0.11 0 0 0 0.12,0.11 h 1.32 a 0.12175796,0.12175796 0 0 1 0.08,0.23 z"
     fill="#0078d4"
     id="path48285" />
  <path
     d="m 7.1593247,9.4323585 2.21,-2.21 a 0.17,0.17 0 0 1 0.23,0 l 2.2100003,2.21 a 0.11,0.11 0 0 1 -0.08,0.19 h -1.32 a 0.12,0.12 0 0 0 -0.12,0.12 V 12.742358 H 8.6693247 V 9.7423585 a 0.12,0.12 0 0 0 -0.11,-0.13 h -1.32 a 0.11,0.11 0 0 1 -0.08,-0.18 z"
     fill="#ffffff"
     id="path48287" />
  <metadata
     id="metadata48372">
    <rdf:RDF>
      <cc:Work
         rdf:about="">
        <dc:title>Icon-networking-70</dc:title>
      </cc:Work>
    </rdf:RDF>
  </metadata>
</svg>
