<?xml version="1.0" encoding="UTF-8" standalone="no"?>
<svg
   id="ad094621-3a1a-48a5-aaf9-2376221c6085"
   width="15.7"
   height="18"
   viewBox="0 0 15.7 18"
   version="1.1"
   sodipodi:docname="Private_Link_Hub.svg"
   inkscape:version="1.1 (c68e22c387, 2021-05-23)"
   xmlns:inkscape="http://www.inkscape.org/namespaces/inkscape"
   xmlns:sodipodi="http://sodipodi.sourceforge.net/DTD/sodipodi-0.dtd"
   xmlns="http://www.w3.org/2000/svg"
   xmlns:svg="http://www.w3.org/2000/svg">
  <sodipodi:namedview
     id="namedview48947"
     pagecolor="#ffffff"
     bordercolor="#666666"
     borderopacity="1.0"
     inkscape:pageshadow="2"
     inkscape:pageopacity="0.0"
     inkscape:pagecheckerboard="0"
     showgrid="false"
     fit-margin-top="0"
     fit-margin-left="0"
     fit-margin-right="0"
     fit-margin-bottom="0"
     inkscape:zoom="44.055556"
     inkscape:cx="7.8423707"
     inkscape:cy="9.0226986"
     inkscape:window-width="1920"
     inkscape:window-height="1017"
     inkscape:window-x="-8"
     inkscape:window-y="-8"
     inkscape:window-maximized="1"
     inkscape:current-layer="ad094621-3a1a-48a5-aaf9-2376221c6085" />
  <defs
     id="defs48930">
    <linearGradient
       id="ea0182c4-a05a-47e0-8d38-dceaa08cffc1"
       x1="7.6880002"
       y1="-26.771"
       x2="7.6880002"
       y2="-21.482"
       gradientTransform="translate(-1.15,32.025)"
       gradientUnits="userSpaceOnUse">
      <stop
         offset="0.23"
         stop-color="#5ea0ef"
         id="stop48905" />
      <stop
         offset="0.32"
         stop-color="#5b9fee"
         id="stop48907" />
      <stop
         offset="0.48"
         stop-color="#509aeb"
         id="stop48909" />
      <stop
         offset="0.57"
         stop-color="#3f92e6"
         id="stop48911" />
      <stop
         offset="0.75"
         stop-color="#2688df"
         id="stop48913" />
      <stop
         offset="0.93"
         stop-color="#127fd9"
         id="stop48915" />
    </linearGradient>
    <linearGradient
       id="b2374fe1-82b4-4770-97f1-de978b276dd6"
       x1="10.312"
       y1="-24.568001"
       x2="10.312"
       y2="-19.278999"
       gradientTransform="translate(-1.15,32.025)"
       gradientUnits="userSpaceOnUse">
      <stop
         offset="0.2"
         stop-color="#50e6ff"
         id="stop48918" />
      <stop
         offset="0.65"
         stop-color="#32bedd"
         id="stop48920" />
      <stop
         offset="1"
         stop-color="#198ab3"
         id="stop48922" />
    </linearGradient>
    <linearGradient
       id="f85376f9-8ccb-4ef0-ab3e-33ae7fcb4e4a"
       x1="9"
       y1="5.3800001"
       x2="9"
       gradientUnits="userSpaceOnUse">
      <stop
         offset="0.199"
         stop-color="#005ba1"
         id="stop48925" />
      <stop
         offset="1"
         stop-color="#0078d4"
         id="stop48927" />
    </linearGradient>
  </defs>
  <path
     d="M 7.586,5.254 H 5.47 A 2.644,2.644 0 0 0 5.06,10.507 2.824,2.824 0 0 1 5.087,9.525 1.67,1.67 0 0 1 5.47,6.225 h 2.116 a 1.675,1.675 0 0 1 0,3.35 H 7.004 a 1.275,1.275 0 0 0 -0.124,0.529 1.234,1.234 0 0 0 0.084,0.441 h 0.622 a 2.645,2.645 0 0 0 0,-5.289 z"
     fill="url(#ea0182c4-a05a-47e0-8d38-dceaa08cffc1)"
     id="path48932"
     style="fill:url(#ea0182c4-a05a-47e0-8d38-dceaa08cffc1)" />
  <path
     d="m 10.64,7.493 a 3.042,3.042 0 0 1 0.031,0.405 2.722,2.722 0 0 1 -0.058,0.577 1.671,1.671 0 0 1 -0.383,3.3 H 8.114 a 1.675,1.675 0 0 1 0,-3.35 h 0.582 a 1.195,1.195 0 0 0 0.04,-0.97 H 8.114 a 2.645,2.645 0 0 0 0,5.289 h 2.116 a 2.644,2.644 0 0 0 0.41,-5.253 z"
     fill="url(#b2374fe1-82b4-4770-97f1-de978b276dd6)"
     id="path48934"
     style="fill:url(#b2374fe1-82b4-4770-97f1-de978b276dd6)" />
  <path
     d="M 7.85,0 0,4.49 v 8.97 L 7.85,18 15.7,13.51 v -9 z m 6.4,12.57 -6.4,3.7 -6.4,-3.661 V 5.38 l 6.4,-3.7 6.4,3.71 z"
     fill="#0078d4"
     id="path48938" />
  <polygon
     points="9,1.68 9,1.68 15.4,5.38 16.85,4.49 9,0 1.15,4.49 2.6,5.38 "
     fill="url(#f85376f9-8ccb-4ef0-ab3e-33ae7fcb4e4a)"
     id="polygon48942"
     style="fill:url(#f85376f9-8ccb-4ef0-ab3e-33ae7fcb4e4a)"
     transform="translate(-1.15,0.025)" />
</svg>
