<?xml version="1.0" encoding="UTF-8" standalone="no"?>
<svg
   xmlns:dc="http://purl.org/dc/elements/1.1/"
   xmlns:cc="http://creativecommons.org/ns#"
   xmlns:rdf="http://www.w3.org/1999/02/22-rdf-syntax-ns#"
   xmlns:svg="http://www.w3.org/2000/svg"
   xmlns="http://www.w3.org/2000/svg"
   xmlns:sodipodi="http://sodipodi.sourceforge.net/DTD/sodipodi-0.dtd"
   xmlns:inkscape="http://www.inkscape.org/namespaces/inkscape"
   id="b8d97b58-1e1f-4258-85c4-83e06e63fbe2"
   width="48.099091"
   height="44.623989"
   viewBox="0 0 48.099091 44.623989"
   version="1.1"
   sodipodi:docname="Private_Link.svg"
   inkscape:version="0.92.3 (2405546, 2018-03-11)">
  <sodipodi:namedview
     pagecolor="#ffffff"
     bordercolor="#666666"
     borderopacity="1"
     objecttolerance="10"
     gridtolerance="10"
     guidetolerance="10"
     inkscape:pageopacity="0"
     inkscape:pageshadow="2"
     inkscape:window-width="1920"
     inkscape:window-height="1017"
     id="namedview66460"
     showgrid="false"
     fit-margin-top="0"
     fit-margin-left="0"
     fit-margin-right="0"
     fit-margin-bottom="0"
     inkscape:zoom="17.32"
     inkscape:cx="24.049544"
     inkscape:cy="21.72399"
     inkscape:window-x="-8"
     inkscape:window-y="-8"
     inkscape:window-maximized="1"
     inkscape:current-layer="b8d97b58-1e1f-4258-85c4-83e06e63fbe2" />
  <defs
     id="defs66437">
    <linearGradient
       id="f7395fd8-aa17-4d4b-84f4-be3619cc5bc0"
       x1="21.523001"
       y1="25"
       x2="21.523001"
       y2="13"
       gradientTransform="matrix(1,0,0,-1,0.95045551,52.1)"
       gradientUnits="userSpaceOnUse">
      <stop
         offset="0.23"
         stop-color="#5ea0ef"
         id="stop66409" />
      <stop
         offset="0.32"
         stop-color="#5b9fee"
         id="stop66411" />
      <stop
         offset="0.48"
         stop-color="#509aeb"
         id="stop66413" />
      <stop
         offset="0.57"
         stop-color="#3f92e6"
         id="stop66415" />
      <stop
         offset="0.75"
         stop-color="#2688df"
         id="stop66417" />
      <stop
         offset="0.93"
         stop-color="#127fd9"
         id="stop66419" />
    </linearGradient>
    <linearGradient
       id="a403e3d9-5b3b-4869-9cea-1d3afbc72355"
       x1="27.476999"
       y1="20"
       x2="27.476999"
       y2="8"
       gradientTransform="matrix(1,0,0,-1,0.95045551,52.1)"
       gradientUnits="userSpaceOnUse">
      <stop
         offset="0.02"
         stop-color="#5ea0ef"
         id="stop66422" />
      <stop
         offset="0.14"
         stop-color="#5b9fee"
         id="stop66424" />
      <stop
         offset="0.23"
         stop-color="#5b9fee"
         id="stop66426" />
      <stop
         offset="0.34"
         stop-color="#509aeb"
         id="stop66428" />
      <stop
         offset="0.44"
         stop-color="#3f92e6"
         id="stop66430" />
      <stop
         offset="0.63"
         stop-color="#2688df"
         id="stop66432" />
      <stop
         offset="0.93"
         stop-color="#127fd9"
         id="stop66434" />
    </linearGradient>
  </defs>
  <g
     id="g66455"
     transform="translate(-0.95045551,-2.1)">
    <path
       d="m 23,7.1 h 3 V 26 h -3 z"
       id="path66439"
       inkscape:connector-curvature="0"
       style="fill:#7a7a7a" />
    <path
       d="M 28.9,6.5 A 4.4,4.4 0 1 1 24.5,2.1 4.4,4.4 0 0 1 28.9,6.5 Z"
       id="path66441"
       inkscape:connector-curvature="0"
       style="fill:#1490df" />
    <path
       d="m 23.9,25 h -4.8 a 6,6 0 0 0 -0.93,11.92 6.427,6.427 0 0 1 0.06,-2.23 3.79,3.79 0 0 1 0.87,-7.49 h 4.8 a 3.8,3.8 0 1 1 0,7.6 h -1.32 a 2.865,2.865 0 0 0 -0.28,1.2 2.783,2.783 0 0 0 0.19,1 h 1.41 a 6,6 0 0 0 0,-12 z"
       id="path66443"
       inkscape:connector-curvature="0"
       style="fill:url(#f7395fd8-aa17-4d4b-84f4-be3619cc5bc0)" />
    <path
       d="M 30.83,30.08 A 6.91,6.91 0 0 1 30.9,31 6.266,6.266 0 0 1 30.77,32.31 3.79,3.79 0 0 1 29.9,39.8 h -4.8 a 3.8,3.8 0 0 1 0,-7.6 h 1.32 A 2.816,2.816 0 0 0 26.7,31 2.783,2.783 0 0 0 26.51,30 H 25.1 a 6,6 0 0 0 0,12 h 4.8 a 6,6 0 0 0 0.93,-11.92 z"
       id="path66445"
       inkscape:connector-curvature="0"
       style="fill:url(#a403e3d9-5b3b-4869-9cea-1d3afbc72355)" />
    <path
       d="m 15.86,44.52 -1.1,1.11 a 0.751,0.751 0 0 1 -1.06,0 L 1.39,33.35 a 1.51,1.51 0 0 1 0,-2.13 l 1.11,-1.1 13.36,13.34 a 0.739,0.739 0 0 1 0.014,1.046 z"
       id="path66447"
       inkscape:connector-curvature="0"
       style="fill:#50e6ff" />
    <path
       d="m 14.53,19.12 1.23,1.23 a 0.751,0.751 0 0 1 0,1.06 L 2.62,34.59 1.39,33.37 a 1.51,1.51 0 0 1 0,-2.13 L 13.47,19.12 a 0.751,0.751 0 0 1 1.06,0 z"
       id="path66449"
       inkscape:connector-curvature="0"
       style="fill:#1490df" />
    <path
       d="M 34.13,45.39 A 0.739,0.739 0 0 1 34.116,44.344 L 34.13,44.33 47.5,31 l 1.11,1.11 a 1.51,1.51 0 0 1 0,2.13 L 36.29,46.5 a 0.739,0.739 0 0 1 -1.046,0.014 L 35.23,46.5 Z"
       id="path66451"
       inkscape:connector-curvature="0"
       style="fill:#50e6ff" />
    <path
       d="m 36.52,20 12.09,12.12 a 1.5,1.5 0 0 1 0,2.12 L 47.38,35.47 34.23,22.29 a 0.771,0.771 0 0 1 0,-1.07 L 35.46,20 a 0.751,0.751 0 0 1 1.06,0 z"
       id="path66453"
       inkscape:connector-curvature="0"
       style="fill:#1490df" />
  </g>
  <metadata
     id="metadata66457">
    <rdf:RDF>
      <rdf:li>public:true</rdf:li>
      <rdf:li>sdk:false</rdf:li>
      <rdf:li>category: Networking</rdf:li>
      <cc:Work
         rdf:about="">
        <dc:format>image/svg+xml</dc:format>
        <dc:type
           rdf:resource="http://purl.org/dc/dcmitype/StillImage" />
        <dc:title></dc:title>
      </cc:Work>
    </rdf:RDF>
  </metadata>
</svg>
