<?xml version="1.0" encoding="UTF-8" standalone="no"?>
<svg
   xmlns:dc="http://purl.org/dc/elements/1.1/"
   xmlns:cc="http://creativecommons.org/ns#"
   xmlns:rdf="http://www.w3.org/1999/02/22-rdf-syntax-ns#"
   xmlns:svg="http://www.w3.org/2000/svg"
   xmlns="http://www.w3.org/2000/svg"
   xmlns:sodipodi="http://sodipodi.sourceforge.net/DTD/sodipodi-0.dtd"
   xmlns:inkscape="http://www.inkscape.org/namespaces/inkscape"
   width="18.047531"
   height="17.360668"
   version="1.1"
   id="svg67114"
   sodipodi:docname="Proximity_Placement_Groups.svg"
   inkscape:version="0.92.3 (2405546, 2018-03-11)">
  <defs
     id="defs67118" />
  <sodipodi:namedview
     pagecolor="#ffffff"
     bordercolor="#666666"
     borderopacity="1"
     objecttolerance="10"
     gridtolerance="10"
     guidetolerance="10"
     inkscape:pageopacity="0"
     inkscape:pageshadow="2"
     inkscape:window-width="1920"
     inkscape:window-height="1017"
     id="namedview67116"
     showgrid="false"
     fit-margin-top="0"
     fit-margin-left="0"
     fit-margin-right="0"
     fit-margin-bottom="0"
     inkscape:zoom="48.111111"
     inkscape:cx="9.02"
     inkscape:cy="8.6731374"
     inkscape:window-x="-8"
     inkscape:window-y="-8"
     inkscape:window-maximized="1"
     inkscape:current-layer="svg67114" />
  <path
     d="m 0.02,15.28753 a 0.16,0.16 0 0 0 0.09,0.15 l 1.22,0.7 2.07,1.2 a 0.18,0.18 0 0 0 0.24,-0.06 l 0.7,-1.22 a 0.16,0.16 0 0 0 0,-0.22 l -2.5,-1.42 a 0.18,0.18 0 0 1 -0.08,-0.15 V 3.1075305 a 0.18,0.18 0 0 1 0.08,-0.15 l 2.43,-1.4 a 0.16,0.16 0 0 0 0.07,-0.22 L 3.64,0.08753049 a 0.18,0.18 0 0 0 -0.24,-0.06 l -2,1.18000001 -1.3,0.73 a 0.16,0.16 0 0 0 -0.09,0.15 z"
     id="path67084"
     inkscape:connector-curvature="0"
     style="fill:#949494" />
  <path
     d="M 4.32,1.3175305 3.64,0.08753049 a 0.18,0.18 0 0 0 -0.18,-0.08 0.11,0.11 0 0 0 -0.08,0 l -2,1.18000001 -1.3,0.75 -0.06,0.05 v 0.08 l 1.74,1 a 0.18,0.18 0 0 1 0.08,-0.15 l 2.43,-1.4 a 0.16,0.16 0 0 0 0.07,-0.22 z m 0,14.7399995 -0.7,1.22 a 0.18,0.18 0 0 1 -0.18,0.08 H 3.36 l -2,-1.18 -1.3,-0.75 -0.06,-0.06 v -0.08 l 1.74,-1 a 0.18,0.18 0 0 0 0.08,0.15 l 2.43,1.4 a 0.16,0.16 0 0 1 0.06,0.21 z"
     id="path67086"
     inkscape:connector-curvature="0"
     style="fill:#a3a3a3" />
  <path
     d="m 18.02,2.0875305 a 0.16,0.16 0 0 0 -0.09,-0.15 l -1.22,-0.7 -2.07,-1.20000001 a 0.18,0.18 0 0 0 -0.24,0.06 L 13.7,1.3175305 a 0.15,0.15 0 0 0 0.05,0.22 l 2.43,1.4 a 0.18,0.18 0 0 1 0.08,0.15 V 14.25753 a 0.18,0.18 0 0 1 -0.08,0.15 l -2.43,1.4 a 0.16,0.16 0 0 0 -0.07,0.22 l 0.7,1.22 a 0.18,0.18 0 0 0 0.24,0.06 l 2,-1.18 1.26,-0.73 a 0.16,0.16 0 0 0 0.09,-0.15 V 2.0875305 Z"
     id="path67088"
     inkscape:connector-curvature="0"
     style="fill:#949494" />
  <path
     d="m 13.72,16.05753 0.7,1.22 a 0.18,0.18 0 0 0 0.18,0.08 h 0.08 l 2,-1.18 1.26,-0.73 0.1,-0.06 a 0.11,0.11 0 0 0 0,-0.08 l -1.74,-1 a 0.18,0.18 0 0 1 -0.08,0.15 l -2.43,1.4 a 0.17,0.17 0 0 0 -0.06,0.19 z m 0,-14.7399995 0.7,-1.23000001 a 0.18,0.18 0 0 1 0.18,-0.08 0.11,0.11 0 0 1 0.08,0 l 2,1.18000001 1.26,0.73 0.1,0.06 a 0.11,0.11 0 0 1 0,0.08 l -1.74,1 a 0.18,0.18 0 0 0 -0.08,-0.15 l -2.43,-1.37 a 0.16,0.16 0 0 1 -0.07,-0.22 z"
     id="path67090"
     inkscape:connector-curvature="0"
     style="fill:#a3a3a3" />
  <path
     d="m 8.54,12.58753 a 0.29,0.29 0 0 1 -0.31,0.29 H 3.39 a 0.3,0.3 0 0 1 -0.32,-0.28 V 4.7475305 a 0.3,0.3 0 0 1 0.31,-0.29 h 4.84 a 0.29,0.29 0 0 1 0.31,0.29 z"
     id="path67092"
     inkscape:connector-curvature="0"
     style="fill:#999999" />
  <path
     d="m 3.88,8.0575305 a 0.62,0.62 0 0 1 0.59,-0.65 h 2.72 a 0.63,0.63 0 0 1 0.6,0.65 0.63,0.63 0 0 1 -0.6,0.66 H 4.47 a 0.63,0.63 0 0 1 -0.59,-0.65 z m 0,-1.94 a 0.63,0.63 0 0 1 0.59,-0.66 h 2.72 a 0.63,0.63 0 0 1 0.6,0.66 0.63,0.63 0 0 1 -0.6,0.65 H 4.47 a 0.63,0.63 0 0 1 -0.59,-0.65 z"
     id="path67094"
     inkscape:connector-curvature="0"
     style="fill:#003067" />
  <g
     id="g67100"
     style="fill:#50e6ff"
     transform="translate(0.02,-0.31246951)">
    <circle
       cx="4.6199999"
       cy="6.4299998"
       r="0.44"
       id="circle67096" />
    <circle
       cx="4.6199999"
       cy="8.3699999"
       r="0.44"
       id="circle67098" />
  </g>
  <path
     d="m 15.1,12.58753 a 0.29,0.29 0 0 1 -0.31,0.29 H 9.95 a 0.3,0.3 0 0 1 -0.32,-0.28 V 4.7475305 a 0.3,0.3 0 0 1 0.31,-0.29 h 4.84 a 0.3,0.3 0 0 1 0.32,0.28 z"
     id="path67102"
     inkscape:connector-curvature="0"
     style="fill:#999999" />
  <path
     d="m 10.42,8.0575305 a 0.64,0.64 0 0 1 0.6,-0.65 h 2.72 a 0.63,0.63 0 0 1 0.6,0.65 0.63,0.63 0 0 1 -0.6,0.66 h -2.72 a 0.63,0.63 0 0 1 -0.6,-0.66 z m 0,-1.94 a 0.64,0.64 0 0 1 0.6,-0.66 h 2.72 a 0.63,0.63 0 0 1 0.6,0.66 0.63,0.63 0 0 1 -0.6,0.65 h -2.72 a 0.64,0.64 0 0 1 -0.6,-0.65 z"
     id="path67104"
     inkscape:connector-curvature="0"
     style="fill:#003067" />
  <g
     id="g67110"
     style="fill:#50e6ff"
     transform="translate(0.02,-0.31246951)">
    <circle
       cx="11.18"
       cy="6.4299998"
       r="0.44"
       id="circle67106" />
    <circle
       cx="11.18"
       cy="8.3699999"
       r="0.44"
       id="circle67108" />
  </g>
  <metadata
     id="metadata67112">
    <rdf:RDF>
      <rdf:li>public:true</rdf:li>
      <rdf:li>sdk:false</rdf:li>
      <rdf:li>category: Networking</rdf:li>
      <cc:Work
         rdf:about="">
        <dc:format>image/svg+xml</dc:format>
        <dc:type
           rdf:resource="http://purl.org/dc/dcmitype/StillImage" />
        <dc:title></dc:title>
      </cc:Work>
    </rdf:RDF>
  </metadata>
</svg>
