<?xml version="1.0" encoding="UTF-8" standalone="no"?>
<svg
   xmlns:dc="http://purl.org/dc/elements/1.1/"
   xmlns:cc="http://creativecommons.org/ns#"
   xmlns:rdf="http://www.w3.org/1999/02/22-rdf-syntax-ns#"
   xmlns:svg="http://www.w3.org/2000/svg"
   xmlns="http://www.w3.org/2000/svg"
   xmlns:xlink="http://www.w3.org/1999/xlink"
   xmlns:sodipodi="http://sodipodi.sourceforge.net/DTD/sodipodi-0.dtd"
   xmlns:inkscape="http://www.inkscape.org/namespaces/inkscape"
   id="f3b54d7d-7db0-469c-afc7-ffc9b14d26c9"
   data-name="azure-fluent-icons"
   width="18"
   height="14"
   viewBox="0 0 18 14"
   version="1.1"
   sodipodi:docname="Public_IP_Prefixes.svg"
   inkscape:version="0.92.3 (2405546, 2018-03-11)">
  <sodipodi:namedview
     pagecolor="#ffffff"
     bordercolor="#666666"
     borderopacity="1"
     objecttolerance="10"
     gridtolerance="10"
     guidetolerance="10"
     inkscape:pageopacity="0"
     inkscape:pageshadow="2"
     inkscape:window-width="1920"
     inkscape:window-height="1017"
     id="namedview68577"
     showgrid="false"
     fit-margin-top="0"
     fit-margin-left="0"
     fit-margin-right="0"
     fit-margin-bottom="0"
     inkscape:zoom="48.111111"
     inkscape:cx="9"
     inkscape:cy="7"
     inkscape:window-x="-8"
     inkscape:window-y="-8"
     inkscape:window-maximized="1"
     inkscape:current-layer="f3b54d7d-7db0-469c-afc7-ffc9b14d26c9" />
  <defs
     id="defs68540">
    <linearGradient
       id="b6125be5-5e46-486d-bdee-ef1ac2eafdaa"
       x1="5.0549998"
       y1="-1401.772"
       x2="5.0549998"
       y2="-1395.802"
       gradientTransform="matrix(1,0,0,-1,0,-1391.642)"
       gradientUnits="userSpaceOnUse">
      <stop
         offset="0"
         stop-color="#32bedd"
         id="stop68529" />
      <stop
         offset="0.18"
         stop-color="#32caea"
         id="stop68531" />
      <stop
         offset="0.41"
         stop-color="#32d2f2"
         id="stop68533" />
      <stop
         offset="0.78"
         stop-color="#32d4f5"
         id="stop68535" />
    </linearGradient>
    <linearGradient
       id="adf1cfb9-1a2a-44ee-aac6-05ac5cdb186f"
       x1="9"
       y1="-1404.702"
       x2="9"
       y2="-1398.7321"
       xlink:href="#b6125be5-5e46-486d-bdee-ef1ac2eafdaa"
       gradientTransform="translate(0,2)" />
    <linearGradient
       id="f0461ac7-cb08-44b4-94c6-8fe04f936f9b"
       x1="12.945"
       y1="-1407.632"
       x2="12.945"
       y2="-1401.662"
       xlink:href="#b6125be5-5e46-486d-bdee-ef1ac2eafdaa"
       gradientTransform="translate(0,2)" />
    <linearGradient
       inkscape:collect="always"
       xlink:href="#b6125be5-5e46-486d-bdee-ef1ac2eafdaa"
       id="linearGradient68579"
       gradientUnits="userSpaceOnUse"
       gradientTransform="matrix(1,0,0,-1,0,-1389.642)"
       x1="5.0549998"
       y1="-1401.772"
       x2="5.0549998"
       y2="-1395.802" />
  </defs>
  <title
     id="title68542">Lighthouse-GS-networking-372</title>
  <g
     id="g68572"
     transform="translate(0,-2)">
    <path
       d="M 0,4.16 H 10.11 V 9.8 A 0.34,0.34 0 0 1 9.77,10.14 H 0.34 A 0.34,0.34 0 0 1 0,9.8 v 0 z"
       id="path68544"
       inkscape:connector-curvature="0"
       style="fill:url(#linearGradient68579)" />
    <path
       d="m 0.34,2 h 9.43 a 0.34,0.34 0 0 1 0.34,0.34 v 0 1.82 H 0 V 2.34 A 0.34,0.34 0 0 1 0.34,2 Z"
       id="path68546"
       inkscape:connector-curvature="0"
       style="fill:#767676" />
    <rect
       x="1.36"
       y="2.6500001"
       width="7.3899999"
       height="0.87"
       rx="0.17"
       id="rect68548"
       style="fill:#f2f2f2" />
    <path
       d="m 3.94,7.08 h 10.12 v 5.64 a 0.34,0.34 0 0 1 -0.34,0.34 H 4.28 A 0.34,0.34 0 0 1 3.94,12.72 v 0 z"
       id="path68550"
       inkscape:connector-curvature="0"
       style="fill:url(#adf1cfb9-1a2a-44ee-aac6-05ac5cdb186f)" />
    <path
       d="m 4.28,4.93 h 9.43 a 0.34,0.34 0 0 1 0.34,0.34 v 0 1.81 H 3.95 V 5.27 A 0.34,0.34 0 0 1 4.28,4.93 Z"
       id="path68552"
       inkscape:connector-curvature="0"
       style="fill:#767676" />
    <rect
       x="5.3000002"
       y="5.5799999"
       width="7.3899999"
       height="0.87"
       rx="0.17"
       id="rect68554"
       style="fill:#f2f2f2" />
    <g
       id="g68570">
      <path
         d="M 7.89,10.02 H 18 v 5.64 A 0.34,0.34 0 0 1 17.66,16 H 8.23 A 0.34,0.34 0 0 1 7.89,15.66 v 0 z"
         id="path68556"
         inkscape:connector-curvature="0"
         style="fill:url(#f0461ac7-cb08-44b4-94c6-8fe04f936f9b)" />
      <path
         d="m 8.23,7.86 h 9.43 A 0.34,0.34 0 0 1 18,8.2 v 1.82 H 7.89 V 8.2 A 0.34,0.34 0 0 1 8.23,7.86 Z"
         id="path68558"
         inkscape:connector-curvature="0"
         style="fill:#767676" />
      <g
         id="g68566">
        <circle
           cx="15.22"
           cy="12.64"
           r="0.81999999"
           id="circle68560"
           style="fill:#f2f2f2" />
        <circle
           cx="12.98"
           cy="12.64"
           r="0.81999999"
           id="circle68562"
           style="fill:#f2f2f2" />
        <circle
           cx="10.67"
           cy="12.64"
           r="0.81999999"
           id="circle68564"
           style="fill:#f2f2f2" />
      </g>
      <rect
         x="9.25"
         y="8.5100002"
         width="7.3899999"
         height="0.87"
         rx="0.17"
         id="rect68568"
         style="fill:#f2f2f2" />
    </g>
  </g>
  <metadata
     id="metadata68574">
    <rdf:RDF>
      <rdf:li>public:true</rdf:li>
      <rdf:li>sdk:false</rdf:li>
      <rdf:li>category: Networking</rdf:li>
      <cc:Work
         rdf:about="">
        <dc:format>image/svg+xml</dc:format>
        <dc:type
           rdf:resource="http://purl.org/dc/dcmitype/StillImage" />
        <dc:title>Lighthouse-GS-networking-372</dc:title>
      </cc:Work>
    </rdf:RDF>
  </metadata>
</svg>
