<?xml version="1.0" encoding="UTF-8" standalone="no"?>
<svg
   xmlns:dc="http://purl.org/dc/elements/1.1/"
   xmlns:cc="http://creativecommons.org/ns#"
   xmlns:rdf="http://www.w3.org/1999/02/22-rdf-syntax-ns#"
   xmlns:svg="http://www.w3.org/2000/svg"
   xmlns="http://www.w3.org/2000/svg"
   xmlns:sodipodi="http://sodipodi.sourceforge.net/DTD/sodipodi-0.dtd"
   xmlns:inkscape="http://www.inkscape.org/namespaces/inkscape"
   id="a7fced15-da9f-41e0-8b9e-21a862586c87"
   width="18.040001"
   height="11.18"
   viewBox="0 0 18.040001 11.18"
   version="1.1"
   sodipodi:docname="Route_Filters.svg"
   inkscape:version="0.92.3 (2405546, 2018-03-11)">
  <sodipodi:namedview
     pagecolor="#ffffff"
     bordercolor="#666666"
     borderopacity="1"
     objecttolerance="10"
     gridtolerance="10"
     guidetolerance="10"
     inkscape:pageopacity="0"
     inkscape:pageshadow="2"
     inkscape:window-width="1920"
     inkscape:window-height="1017"
     id="namedview69377"
     showgrid="false"
     fit-margin-top="0"
     fit-margin-left="0"
     fit-margin-right="0"
     fit-margin-bottom="0"
     inkscape:zoom="48.111111"
     inkscape:cx="9"
     inkscape:cy="5.5900004"
     inkscape:window-x="-8"
     inkscape:window-y="-8"
     inkscape:window-maximized="1"
     inkscape:current-layer="a7fced15-da9f-41e0-8b9e-21a862586c87" />
  <defs
     id="defs69358">
    <linearGradient
       id="ace104d6-1f53-40e3-a991-cb43c1f1aa51"
       x1="5.8200002"
       y1="25.68"
       x2="5.8200002"
       y2="14.64"
       gradientTransform="matrix(1,0,0,1.01,0,-11.41)"
       gradientUnits="userSpaceOnUse">
      <stop
         offset="0"
         stop-color="#5e9624"
         id="stop69347" />
      <stop
         offset="0.01"
         stop-color="#5f9724"
         id="stop69349" />
      <stop
         offset="0.35"
         stop-color="#6cab29"
         id="stop69351" />
      <stop
         offset="0.68"
         stop-color="#73b82c"
         id="stop69353" />
      <stop
         offset="1"
         stop-color="#76bc2d"
         id="stop69355" />
    </linearGradient>
  </defs>
  <title
     id="title69360">Icon-networking-71</title>
  <path
     d="m 18,5.7499999 -2.12,2.12 a 0.1,0.1 0 0 1 -0.18,-0.08 v -1.2 a 0.11,0.11 0 0 0 -0.11,-0.1 h -3.5 l 2.18,2.1 a 0.09,0.09 0 0 0 0.12,0 v 0 l 0.61,-0.62 a 0.08,0.08 0 0 1 0.14,0.06 V 10.22 a 0.12,0.12 0 0 1 -0.12,0.12 H 12.87 A 0.08,0.08 0 0 1 12.81,10.2 l 0.62,-0.6100001 v 0 a 0.09,0.09 0 0 0 0,-0.12 l -1.79,-1.88 v -3.83 l 1.83,-1.82 a 0.08,0.08 0 0 0 0,-0.11 v 0 l -0.62,-0.61 a 0.08,0.08 0 0 1 0.06,-0.14 h 2.19 a 0.13,0.13 0 0 1 0.12,0.13 v 2.13 a 0.08,0.08 0 0 1 -0.14,0.06 l -0.61,-0.61 v 0 a 0.09,0.09 0 0 0 -0.12,0 l -2.23,2.11 h 3.43 a 0.11,0.11 0 0 0 0.11,-0.11 v -1.2 a 0.1,0.1 0 0 1 0.18,-0.08 l 2.16,2.08 a 0.1,0.1 0 0 1 0,0.16 z"
     id="path69362"
     inkscape:connector-curvature="0"
     style="fill:#0078d4" />
  <rect
     y="0"
     width="11.64"
     height="11.18"
     rx="0.57999998"
     id="rect69364"
     x="0"
     style="fill:url(#ace104d6-1f53-40e3-a991-cb43c1f1aa51)" />
  <g
     id="g69372"
     transform="translate(0,-3.4100001)">
    <rect
       x="2.27"
       y="4.7800002"
       width="2.73"
       height="2.6099999"
       rx="0.28999999"
       id="rect69366"
       style="fill:#ffffff" />
    <rect
       x="6.9200001"
       y="7.77"
       width="2.73"
       height="2.6099999"
       rx="0.28999999"
       id="rect69368"
       style="fill:#ffffff" />
    <rect
       x="2.27"
       y="10.61"
       width="2.73"
       height="2.6099999"
       rx="0.28999999"
       id="rect69370"
       style="fill:#ffffff" />
  </g>
  <metadata
     id="metadata69374">
    <rdf:RDF>
      <rdf:li>public:true</rdf:li>
      <rdf:li>sdk:false</rdf:li>
      <rdf:li>category: Networking</rdf:li>
      <cc:Work
         rdf:about="">
        <dc:format>image/svg+xml</dc:format>
        <dc:type
           rdf:resource="http://purl.org/dc/dcmitype/StillImage" />
        <dc:title>Icon-networking-71</dc:title>
      </cc:Work>
    </rdf:RDF>
  </metadata>
</svg>
