<?xml version="1.0" encoding="UTF-8" standalone="no"?>
<svg
   xmlns:dc="http://purl.org/dc/elements/1.1/"
   xmlns:cc="http://creativecommons.org/ns#"
   xmlns:rdf="http://www.w3.org/1999/02/22-rdf-syntax-ns#"
   xmlns:svg="http://www.w3.org/2000/svg"
   xmlns="http://www.w3.org/2000/svg"
   xmlns:sodipodi="http://sodipodi.sourceforge.net/DTD/sodipodi-0.dtd"
   xmlns:inkscape="http://www.inkscape.org/namespaces/inkscape"
   id="b5825b2c-532e-4596-8681-4e75b6a53529"
   width="16.458609"
   height="16.999233"
   viewBox="0 0 16.458609 16.999233"
   version="1.1"
   sodipodi:docname="Service_Endpoint_Policies.svg"
   inkscape:version="0.92.3 (2405546, 2018-03-11)">
  <sodipodi:namedview
     pagecolor="#ffffff"
     bordercolor="#666666"
     borderopacity="1"
     objecttolerance="10"
     gridtolerance="10"
     guidetolerance="10"
     inkscape:pageopacity="0"
     inkscape:pageshadow="2"
     inkscape:window-width="1920"
     inkscape:window-height="1017"
     id="namedview70047"
     showgrid="false"
     fit-margin-top="0"
     fit-margin-left="0"
     fit-margin-right="0"
     fit-margin-bottom="0"
     inkscape:zoom="48.111111"
     inkscape:cx="8.2181868"
     inkscape:cy="8.49"
     inkscape:window-x="-8"
     inkscape:window-y="-8"
     inkscape:window-maximized="1"
     inkscape:current-layer="b5825b2c-532e-4596-8681-4e75b6a53529" />
  <defs
     id="defs70018">
    <linearGradient
       id="b5baf554-e9b4-4fe7-b8e9-cf87296b34cc"
       x1="9.1899996"
       y1="17.5"
       x2="9.1899996"
       y2="0.5"
       gradientUnits="userSpaceOnUse">
      <stop
         offset="0"
         stop-color="#0078d4"
         id="stop70013" />
      <stop
         offset="0.82"
         stop-color="#5ea0ef"
         id="stop70015" />
    </linearGradient>
  </defs>
  <title
     id="title70020">Icon-networking-85</title>
  <path
     d="m 12.568187,2.389234 a 2.31,2.31 0 0 1 2.3,-2.31999997 v 0 a 1.86,1.86 0 0 1 1.59,1.87999997 1.86,1.86 0 0 1 -0.41,1.18 0.71,0.71 0 0 1 -0.55,0.26 h -3 z"
     id="path70022"
     inkscape:connector-curvature="0"
     style="fill:#0078d4" />
  <path
     d="M 12.778187,0.01923403 H 3.7781868 a 2.29,2.29 0 0 0 -2.27,2.28999997 v 14.69 h 9.0000002 a 2.29,2.29 0 0 0 2.29,-2.29 v -2.43 -7.48 a 25.76,25.76 0 0 1 0,-3 c 0.36,-1.98999997 2.51,-1.63999997 2.51,-1.63999997 a 11.13,11.13 0 0 0 -2.53,-0.14 z"
     id="path70024"
     inkscape:connector-curvature="0"
     style="fill:url(#b5baf554-e9b4-4fe7-b8e9-cf87296b34cc)" />
  <path
     d="m 7.2181868,11.149234 v -4.7 a 0.53,0.53 0 0 0 0.27,-0.46 0.54,0.54 0 0 0 -0.54,-0.54 0.54,0.54 0 0 0 -0.26,1 v 4.7 a 0.55,0.55 0 0 0 -0.27,0.47 0.54,0.54 0 1 0 1.07,0 0.55,0.55 0 0 0 -0.27,-0.47 z"
     id="path70026"
     inkscape:connector-curvature="0"
     style="fill:#f2f2f2" />
  <path
     d="m 10.668187,16.939234 v 0 a 1.84,1.84 0 0 1 -0.8900002,-3.24 0.23,0.23 0 0 0 -0.15,-0.41 h -7.82 -0.29 v 0 a 1.85,1.85 0 0 0 0,3.64 v 0 a 1.36,1.36 0 0 0 0.29,0 z"
     id="path70028"
     inkscape:connector-curvature="0"
     style="fill:#5ea0ef" />
  <circle
     cx="8.658186"
     cy="5.9992337"
     r="0.55000001"
     id="circle70030"
     style="fill:#f2f2f2" />
  <circle
     cx="6.9081869"
     cy="5.9992337"
     r="0.55000001"
     id="circle70032"
     style="fill:#f2f2f2" />
  <circle
     cx="5.1681867"
     cy="5.9992337"
     r="0.55000001"
     id="circle70034"
     style="fill:#f2f2f2" />
  <path
     d="m 5.2181868,8.509234 0.32,-0.32 a 0.15,0.15 0 0 0 0,-0.2 l -2.49,-2.48 -0.32,0.32 a 0.28,0.28 0 0 0 0,0.4 l 2.32,2.28 a 0.15,0.15 0 0 0 0.17,0 z"
     id="path70036"
     inkscape:connector-curvature="0"
     style="fill:#b3b3b3" />
  <path
     d="m 5.5181868,3.809234 -0.3,-0.3 a 0.15,0.15 0 0 0 -0.2,0 l -2.29,2.27 a 0.28,0.28 0 0 0 0,0.4 l 0.31,0.33 2.48,-2.5 a 0.13,0.13 0 0 0 0,-0.2 z"
     id="path70038"
     inkscape:connector-curvature="0"
     style="fill:#f2f2f2" />
  <path
     d="m 8.5381868,8.509234 -0.32,-0.33 a 0.13,0.13 0 0 1 0,-0.2 l 2.5300002,-2.47 0.31,0.32 a 0.28,0.28 0 0 1 0,0.4 l -2.3200002,2.28 a 0.15,0.15 0 0 1 -0.2,0 z"
     id="path70040"
     inkscape:connector-curvature="0"
     style="fill:#b3b3b3" />
  <path
     d="m 8.2681868,3.809234 0.32,-0.3 a 0.15,0.15 0 0 1 0.2,0 l 2.2700002,2.28 a 0.28,0.28 0 0 1 0,0.4 l -0.31,0.32 -2.4800002,-2.5 a 0.15,0.15 0 0 1 0,-0.2 z"
     id="path70042"
     inkscape:connector-curvature="0"
     style="fill:#f2f2f2" />
  <metadata
     id="metadata70044">
    <rdf:RDF>
      <rdf:li>public:true</rdf:li>
      <rdf:li>sdk:false</rdf:li>
      <rdf:li>category: Networking</rdf:li>
      <cc:Work
         rdf:about="">
        <dc:format>image/svg+xml</dc:format>
        <dc:type
           rdf:resource="http://purl.org/dc/dcmitype/StillImage" />
        <dc:title>Icon-networking-85</dc:title>
      </cc:Work>
    </rdf:RDF>
  </metadata>
</svg>
