<?xml version="1.0" encoding="UTF-8" standalone="no"?>
<svg
   width="17.171"
   height="15.87"
   viewBox="0 0 17.171 15.87"
   version="1.1"
   id="svg50928"
   sodipodi:docname="Spot_VM.svg"
   inkscape:version="1.1 (c68e22c387, 2021-05-23)"
   xmlns:inkscape="http://www.inkscape.org/namespaces/inkscape"
   xmlns:sodipodi="http://sodipodi.sourceforge.net/DTD/sodipodi-0.dtd"
   xmlns="http://www.w3.org/2000/svg"
   xmlns:svg="http://www.w3.org/2000/svg">
  <sodipodi:namedview
     id="namedview50930"
     pagecolor="#ffffff"
     bordercolor="#666666"
     borderopacity="1.0"
     inkscape:pageshadow="2"
     inkscape:pageopacity="0.0"
     inkscape:pagecheckerboard="0"
     showgrid="false"
     fit-margin-top="0"
     fit-margin-left="0"
     fit-margin-right="0"
     fit-margin-bottom="0"
     inkscape:zoom="44.055556"
     inkscape:cx="8.591425"
     inkscape:cy="7.9331652"
     inkscape:window-width="1920"
     inkscape:window-height="1017"
     inkscape:window-x="-8"
     inkscape:window-y="-8"
     inkscape:window-maximized="1"
     inkscape:current-layer="svg50928" />
  <defs
     id="defs50907">
    <linearGradient
       id="b46a589c-9b6c-4cba-85b8-9b0c79232365"
       x1="9"
       y1="12.513"
       x2="9"
       y2="1.0650001"
       gradientUnits="userSpaceOnUse"
       gradientTransform="translate(-0.41499999,-1.0650001)">
      <stop
         offset="0"
         stop-color="#0078d4"
         id="stop50892" />
      <stop
         offset="0.817"
         stop-color="#5ea0ef"
         id="stop50894" />
    </linearGradient>
    <linearGradient
       id="f9ff4bfd-d0f3-488c-bcc1-b7a2a5e0febb"
       x1="9.0030003"
       y1="16.934999"
       x2="9.0030003"
       y2="12.512"
       gradientUnits="userSpaceOnUse"
       gradientTransform="translate(-0.41499999,-1.0650001)">
      <stop
         offset="0.149"
         stop-color="#ccc"
         id="stop50897" />
      <stop
         offset="1"
         stop-color="#707070"
         id="stop50899" />
    </linearGradient>
    <linearGradient
       id="e58c9e2b-1c86-4d40-8db1-5bdc0ef5cca5"
       x1="9.0290003"
       y1="0.189"
       x2="9.0290003"
       y2="10.695"
       gradientUnits="userSpaceOnUse"
       gradientTransform="translate(-0.41499999,-1.0650001)">
      <stop
         offset="0"
         stop-color="#0078d4"
         id="stop50902" />
      <stop
         offset="1"
         stop-color="#005ba1"
         id="stop50904" />
    </linearGradient>
  </defs>
  <rect
     x="0"
     y="0"
     width="17.171"
     height="11.447"
     rx="0.54799998"
     fill="url(#b46a589c-9b6c-4cba-85b8-9b0c79232365)"
     id="rect50909"
     style="fill:url(#b46a589c-9b6c-4cba-85b8-9b0c79232365)" />
  <path
     d="m 12.028,14.91 c -1.7,-0.265 -1.764,-1.49 -1.759,-3.463 H 6.901 c 0,1.973 -0.062,3.2 -1.76,3.463 a 1,1 0 0 0 -0.846,0.96 h 8.59 a 1,1 0 0 0 -0.857,-0.96 z"
     fill="url(#f9ff4bfd-d0f3-488c-bcc1-b7a2a5e0febb)"
     id="path50911"
     style="fill:url(#f9ff4bfd-d0f3-488c-bcc1-b7a2a5e0febb)" />
  <circle
     cx="8.6140003"
     cy="5.6199999"
     r="4.0450001"
     fill="url(#e58c9e2b-1c86-4d40-8db1-5bdc0ef5cca5)"
     id="circle50915"
     style="fill:url(#e58c9e2b-1c86-4d40-8db1-5bdc0ef5cca5)" />
  <polygon
     points="9.025,9.513 9.025,6.749 11.41,5.367 11.41,8.126 "
     fill="#50e6ff"
     id="polygon50917"
     transform="translate(-0.41499999,-1.0650001)" />
  <polygon
     points="6.641,5.367 9.026,3.98 11.41,5.367 9.026,6.753 "
     fill="#c3f1ff"
     id="polygon50919"
     transform="translate(-0.41499999,-1.0650001)" />
  <polygon
     points="6.635,8.116 6.659,5.356 9.031,6.763 9.007,9.523 "
     fill="#9cebff"
     id="polygon50921"
     transform="translate(-0.41499999,-1.0650001)" />
  <path
     d="m 11.815,2.5169999 v 0 a 0.324,0.324 0 0 0 -0.459,0 v 0 a 0.336,0.336 0 0 0 0,0.471 v 0 a 3.865,3.865 0 1 1 -2.9,-1.133 l -0.047,0.253 a 0.125,0.125 0 0 0 0.166,0.139 l 1.247,-0.474 a 0.164,0.164 0 0 0 0.043,-0.283 L 8.825,0.66699994 a 0.124,0.124 0 0 0 -0.2,0.08 L 8.561,1.1919999 a 4.519,4.519 0 1 0 3.254,1.325 z"
     fill="#ffffff"
     id="path50923" />
</svg>
