<?xml version="1.0" encoding="UTF-8" standalone="no"?>
<svg
   xmlns:dc="http://purl.org/dc/elements/1.1/"
   xmlns:cc="http://creativecommons.org/ns#"
   xmlns:rdf="http://www.w3.org/1999/02/22-rdf-syntax-ns#"
   xmlns:svg="http://www.w3.org/2000/svg"
   xmlns="http://www.w3.org/2000/svg"
   xmlns:sodipodi="http://sodipodi.sourceforge.net/DTD/sodipodi-0.dtd"
   xmlns:inkscape="http://www.inkscape.org/namespaces/inkscape"
   id="a18b905d-93c6-4fee-ba5b-699e2562e00f"
   width="17"
   height="17"
   viewBox="0 0 17 17"
   version="1.1"
   sodipodi:docname="Traffic_Manager_Profiles.svg"
   inkscape:version="0.92.3 (2405546, 2018-03-11)">
  <sodipodi:namedview
     pagecolor="#ffffff"
     bordercolor="#666666"
     borderopacity="1"
     objecttolerance="10"
     gridtolerance="10"
     guidetolerance="10"
     inkscape:pageopacity="0"
     inkscape:pageshadow="2"
     inkscape:window-width="1920"
     inkscape:window-height="1017"
     id="namedview70329"
     showgrid="false"
     fit-margin-top="0"
     fit-margin-left="0"
     fit-margin-right="0"
     fit-margin-bottom="0"
     inkscape:zoom="48.111111"
     inkscape:cx="8.5"
     inkscape:cy="8.5"
     inkscape:window-x="-8"
     inkscape:window-y="-8"
     inkscape:window-maximized="1"
     inkscape:current-layer="a18b905d-93c6-4fee-ba5b-699e2562e00f" />
  <defs
     id="defs70316">
    <linearGradient
       id="b02c7a20-01da-4daf-91b9-e11528418dfc"
       x1="9"
       y1="17.5"
       x2="9"
       y2="0.5"
       gradientUnits="userSpaceOnUse">
      <stop
         offset="0.16"
         stop-color="#6f4bb2"
         id="stop70303" />
      <stop
         offset="0.32"
         stop-color="#7450b5"
         id="stop70305" />
      <stop
         offset="0.51"
         stop-color="#825dbf"
         id="stop70307" />
      <stop
         offset="0.72"
         stop-color="#9a72ce"
         id="stop70309" />
      <stop
         offset="0.94"
         stop-color="#bb90e4"
         id="stop70311" />
      <stop
         offset="1"
         stop-color="#c69aeb"
         id="stop70313" />
    </linearGradient>
  </defs>
  <title
     id="title70318">Icon-networking-65</title>
  <path
     d="M 11.79,0 H 5.21 A 0.56,0.56 0 0 0 4.81,0.17 L 0.17,4.81 A 0.56,0.56 0 0 0 0,5.21 v 6.58 a 0.56,0.56 0 0 0 0.17,0.4 l 4.64,4.64 A 0.56,0.56 0 0 0 5.21,17 h 6.58 a 0.56,0.56 0 0 0 0.4,-0.17 l 4.64,-4.64 A 0.56,0.56 0 0 0 17,11.79 V 5.21 A 0.56,0.56 0 0 0 16.83,4.81 L 12.19,0.17 A 0.56,0.56 0 0 0 11.79,0 Z"
     id="path70320"
     inkscape:connector-curvature="0"
     style="fill:url(#b02c7a20-01da-4daf-91b9-e11528418dfc)" />
  <path
     d="m 5.5,7.14 -0.07,0.07 -1,1 a 0.14,0.14 0 0 0 0.1,0.23 h 3.8 A 0.14,0.14 0 0 0 8.47,8.3 V 4.55 A 0.16688319,0.16688319 0 0 0 8.14,4.5 l -1,1 -0.07,0.07 a 0.15,0.15 0 0 1 -0.2,0 L 4.3,3.04 2.93,4.42 5.5,6.94 a 0.15,0.15 0 0 1 0,0.2 z"
     id="path70322"
     inkscape:connector-curvature="0"
     style="fill:#f2f2f2" />
  <path
     d="M 15.68,5.41 11.59,1.32 A 0.28,0.28 0 0 0 11.39,1.24 H 5.61 A 0.28,0.28 0 0 0 5.41,1.32 L 1.32,5.41 a 0.28,0.28 0 0 0 -0.08,0.2 v 5.78 a 0.3,0.3 0 0 0 0.08,0.2 l 4.09,4.09 a 0.28,0.28 0 0 0 0.2,0.08 h 5.78 a 0.28,0.28 0 0 0 0.2,-0.08 l 4.09,-4.09 a 0.3,0.3 0 0 0 0.08,-0.2 V 5.61 a 0.28,0.28 0 0 0 -0.08,-0.2 z m -0.36,5.45 -3.15,-3.15 0.76,-0.77 a 0.16,0.16 0 0 0 0,-0.24 0.16,0.16 0 0 0 -0.11,0 L 10.11,6.63 A 0.17,0.17 0 0 0 9.94,6.79 v 0 l 0.07,2.71 a 0.16,0.16 0 0 0 0.17,0.16 v 0 a 0.13,0.13 0 0 0 0.12,0 l 0.85,-0.84 3.35,3.3 -2.54,2.54 L 8.5,11.21 9.3,10.5 a 0.16,0.16 0 0 0 0,-0.24 0.16,0.16 0 0 0 -0.11,-0.05 L 6.5,10.09 a 0.17,0.17 0 0 0 -0.17,0.16 v 0 l 0.07,2.71 a 0.16,0.16 0 0 0 0.17,0.16 v 0 a 0.17,0.17 0 0 0 0.12,-0.05 l 0.81,-0.83 3.08,3.08 H 5.67 l -4,-4 V 5.67 L 2.93,4.42 4.3,3.04 5.67,1.67 h 5.66 l 4,4 z"
     id="path70324"
     inkscape:connector-curvature="0"
     style="fill:#f2f2f2" />
  <metadata
     id="metadata70326">
    <rdf:RDF>
      <rdf:li>public:true</rdf:li>
      <rdf:li>sdk:MsPortalFx.Base.Images.Polychromatic.TrafficManager()</rdf:li>
      <rdf:li>category: Networking</rdf:li>
      <cc:Work
         rdf:about="">
        <dc:format>image/svg+xml</dc:format>
        <dc:type
           rdf:resource="http://purl.org/dc/dcmitype/StillImage" />
        <dc:title>Icon-networking-65</dc:title>
      </cc:Work>
    </rdf:RDF>
  </metadata>
</svg>
