<?xml version="1.0" encoding="UTF-8" standalone="no"?>
<svg
   xmlns:dc="http://purl.org/dc/elements/1.1/"
   xmlns:cc="http://creativecommons.org/ns#"
   xmlns:rdf="http://www.w3.org/1999/02/22-rdf-syntax-ns#"
   xmlns:svg="http://www.w3.org/2000/svg"
   xmlns="http://www.w3.org/2000/svg"
   xmlns:sodipodi="http://sodipodi.sourceforge.net/DTD/sodipodi-0.dtd"
   xmlns:inkscape="http://www.inkscape.org/namespaces/inkscape"
   id="a510a120-e8af-4fe0-831e-67ebe9c4368b"
   width="17"
   height="16.794937"
   viewBox="0 0 17 16.794937"
   version="1.1"
   sodipodi:docname="Virtual_WANs.svg"
   inkscape:version="0.92.3 (2405546, 2018-03-11)">
  <sodipodi:namedview
     pagecolor="#ffffff"
     bordercolor="#666666"
     borderopacity="1"
     objecttolerance="10"
     gridtolerance="10"
     guidetolerance="10"
     inkscape:pageopacity="0"
     inkscape:pageshadow="2"
     inkscape:window-width="1920"
     inkscape:window-height="1017"
     id="namedview71232"
     showgrid="false"
     fit-margin-top="0"
     fit-margin-left="0"
     fit-margin-right="0"
     fit-margin-bottom="0"
     inkscape:zoom="48.111111"
     inkscape:cx="8.5"
     inkscape:cy="8.3930251"
     inkscape:window-x="-8"
     inkscape:window-y="-8"
     inkscape:window-maximized="1"
     inkscape:current-layer="a510a120-e8af-4fe0-831e-67ebe9c4368b" />
  <defs
     id="defs71207">
    <linearGradient
       id="a009acc1-6e03-4969-81ca-b157b58a2f69"
       x1="9"
       y1="172.70399"
       x2="9"
       y2="160.61301"
       gradientTransform="translate(0.5,-159.40191)"
       gradientUnits="userSpaceOnUse">
      <stop
         offset="0"
         stop-color="#198ab3"
         id="stop71194" />
      <stop
         offset="0.11"
         stop-color="#22a5cb"
         id="stop71196" />
      <stop
         offset="0.23"
         stop-color="#29bade"
         id="stop71198" />
      <stop
         offset="0.37"
         stop-color="#2ec9eb"
         id="stop71200" />
      <stop
         offset="0.53"
         stop-color="#31d1f3"
         id="stop71202" />
      <stop
         offset="0.78"
         stop-color="#32d4f5"
         id="stop71204" />
    </linearGradient>
  </defs>
  <g
     id="g71227"
     transform="translate(-0.5,-0.59808878)">
    <path
       d="m 17.5,8.9 a 3.854,3.854 0 0 0 -3.3,-3.7 4.871,4.871 0 0 0 -5,-4.6 5.011,5.011 0 0 0 -4.7,3.2 4.693,4.693 0 0 0 -4,4.4 4.612,4.612 0 0 0 4.8,4.5 h 8.4 a 3.8,3.8 0 0 0 3.8,-3.8 z"
       id="path71209"
       inkscape:connector-curvature="0"
       style="fill:url(#a009acc1-6e03-4969-81ca-b157b58a2f69)" />
    <circle
       cx="9"
       cy="12.9"
       r="4.4000001"
       id="circle71211"
       style="fill:#f2f2f2" />
    <path
       d="M 12.7,10.1 A 4.6,4.6 0 0 0 6.3,9.2 v 0 a 4.561,4.561 0 1 0 5.6,7.2 v 0 a 4.557,4.557 0 0 0 0.8,-6.3 z M 5.1,12.6 A 4.707,4.707 0 0 1 5.5,11 H 6.6 A 7.772,7.772 0 0 0 6.4,12.6 Z M 7.2,11 h 1.5 v 1.6 H 7 A 7.772,7.772 0 0 1 7.2,11 Z m 2.1,0 h 1.5 A 7.772,7.772 0 0 1 11,12.6 H 9.3 Z m -0.5,2.1 v 1.6 H 7.2 L 6.9,13.2 Z m 0.5,0 h 1.8 a 9.971,9.971 0 0 1 -0.2,1.6 H 9.3 Z m 2.4,0 H 13 a 4.707,4.707 0 0 1 -0.4,1.6 h -1.1 a 7.772,7.772 0 0 0 0.2,-1.6 z m 0,-0.5 A 9.971,9.971 0 0 0 11.5,11 h 1.1 a 4.193,4.193 0 0 1 0.4,1.6 z m 0.5,-2.2 h -0.9 a 4.5,4.5 0 0 0 -0.6,-1.2 4.428,4.428 0 0 1 1.5,1.2 z m -1.5,0 H 9.3 V 9 a 2.171,2.171 0 0 1 1.4,1.4 z M 8.8,9 v 1.5 H 7.4 A 2.118,2.118 0 0 1 8.8,9 Z M 6.6,9.7 v 0 A 5.582,5.582 0 0 1 7.4,9.2 3.1,3.1 0 0 0 6.8,10.5 H 5.9 A 2.7,2.7 0 0 1 6.6,9.7 Z m -1.5,3.5 h 1.3 a 9.971,9.971 0 0 0 0.2,1.6 H 5.5 A 5.349,5.349 0 0 1 5.1,13.2 Z m 0.8,2.1 h 0.9 l 0.6,1.2 A 3.491,3.491 0 0 1 5.9,15.3 Z m 1.5,0 h 1.3 v 1.5 A 2.433,2.433 0 0 1 7.4,15.3 Z m 1.9,1.5 v -1.5 h 1.3 A 1.968,1.968 0 0 1 9.3,16.8 Z M 11.5,16 v 0 a 2.622,2.622 0 0 1 -0.9,0.5 3.379,3.379 0 0 0 0.6,-1.2 h 0.9 A 1.344,1.344 0 0 1 11.5,16 Z"
       id="path71213"
       inkscape:connector-curvature="0"
       style="fill:#0078d4" />
    <path
       d="M 5.1,11.4 A 4.025,4.025 0 0 1 2.9,8.5 3.646,3.646 0 0 1 4.4,5.6 L 5,5.1 5.5,5.7 4.9,6.2 a 2.509,2.509 0 0 0 -1.2,2.2 3.031,3.031 0 0 0 1.8,2.3 z"
       id="path71215"
       inkscape:connector-curvature="0"
       style="fill:#e6e6e6" />
    <circle
       cx="5.3000002"
       cy="5.4000001"
       r="1.1"
       id="circle71217"
       style="fill:#f2f2f2" />
    <path
       d="M 12.7,11.4 12.3,10.7 A 3.259,3.259 0 0 0 14.1,8.4 2.748,2.748 0 0 0 12.9,6.2 l -0.6,-0.4 0.5,-0.6 0.6,0.4 a 3.071,3.071 0 0 1 1.5,2.9 4.025,4.025 0 0 1 -2.2,2.9 z"
       id="path71219"
       inkscape:connector-curvature="0"
       style="fill:#e6e6e6" />
    <circle
       cx="12.6"
       cy="5.4000001"
       r="1.1"
       id="circle71221"
       style="fill:#f2f2f2" />
    <circle
       cx="5.3000002"
       cy="11.1"
       r="1.1"
       id="circle71223"
       style="fill:#ce74b6" />
    <circle
       cx="12.6"
       cy="11.1"
       r="1.1"
       id="circle71225"
       style="fill:#ce74b6" />
  </g>
  <metadata
     id="metadata71229">
    <rdf:RDF>
      <rdf:li>public:true</rdf:li>
      <rdf:li>sdk:false</rdf:li>
      <rdf:li>category: Networking</rdf:li>
      <cc:Work
         rdf:about="">
        <dc:format>image/svg+xml</dc:format>
        <dc:type
           rdf:resource="http://purl.org/dc/dcmitype/StillImage" />
        <dc:title></dc:title>
      </cc:Work>
    </rdf:RDF>
  </metadata>
</svg>
