<?xml version="1.0" encoding="UTF-8" standalone="no"?>
<svg
   width="16.658001"
   height="16.658001"
   viewBox="0 0 16.658001 16.658001"
   version="1.1"
   id="svg53203"
   sodipodi:docname="Virtual_Router.svg"
   inkscape:version="1.1 (c68e22c387, 2021-05-23)"
   xmlns:inkscape="http://www.inkscape.org/namespaces/inkscape"
   xmlns:sodipodi="http://sodipodi.sourceforge.net/DTD/sodipodi-0.dtd"
   xmlns="http://www.w3.org/2000/svg"
   xmlns:svg="http://www.w3.org/2000/svg">
  <sodipodi:namedview
     id="namedview53205"
     pagecolor="#ffffff"
     bordercolor="#666666"
     borderopacity="1.0"
     inkscape:pageshadow="2"
     inkscape:pageopacity="0.0"
     inkscape:pagecheckerboard="0"
     showgrid="false"
     fit-margin-top="0"
     fit-margin-left="0"
     fit-margin-right="0"
     fit-margin-bottom="0"
     inkscape:zoom="44.055556"
     inkscape:cx="8.3190416"
     inkscape:cy="8.3190416"
     inkscape:window-width="1920"
     inkscape:window-height="1017"
     inkscape:window-x="-8"
     inkscape:window-y="-8"
     inkscape:window-maximized="1"
     inkscape:current-layer="svg53203" />
  <defs
     id="defs53186">
    <linearGradient
       id="a87938b3-0abc-4d3b-b8ce-d56133f1c044"
       x1="9"
       y1="17.329"
       x2="9"
       y2="0.671"
       gradientUnits="userSpaceOnUse"
       gradientTransform="translate(-0.67099953,-0.67099953)">
      <stop
         offset="0"
         stop-color="#005ba1"
         id="stop53175" />
      <stop
         offset="0.15"
         stop-color="#0063af"
         id="stop53177" />
      <stop
         offset="0.439"
         stop-color="#006fc3"
         id="stop53179" />
      <stop
         offset="0.724"
         stop-color="#0076d0"
         id="stop53181" />
      <stop
         offset="1"
         stop-color="#0078d4"
         id="stop53183" />
    </linearGradient>
  </defs>
  <circle
     cx="8.3290005"
     cy="8.3290005"
     r="8.3290005"
     fill="url(#a87938b3-0abc-4d3b-b8ce-d56133f1c044)"
     id="circle53188"
     style="fill:url(#a87938b3-0abc-4d3b-b8ce-d56133f1c044)" />
  <path
     d="m 5.9290005,3.4670005 2.3,-2.3 a 0.273,0.273 0 0 1 0.387,0 l 2.2999995,2.3 a 0.122,0.122 0 0 1 -0.086,0.209 H 9.4150005 a 0.122,0.122 0 0 0 -0.122,0.123 v 2.873 a 0.1,0.1 0 0 1 -0.1,0.1 h -1.543 a 0.1,0.1 0 0 1 -0.1,-0.1 v -2.873 a 0.122,0.122 0 0 0 -0.121,-0.123 h -1.413 a 0.123,0.123 0 0 1 -0.087,-0.209 z"
     fill="#9cebff"
     id="path53190" />
  <path
     d="m 10.915,13.191 -2.2999995,2.3 a 0.273,0.273 0 0 1 -0.387,0 l -2.3,-2.3 a 0.123,0.123 0 0 1 0.087,-0.209 h 1.414 a 0.122,0.122 0 0 0 0.122,-0.123 V 9.9860005 a 0.1,0.1 0 0 1 0.1,-0.1 h 1.544 a 0.1,0.1 0 0 1 0.1,0.1 V 12.859 a 0.122,0.122 0 0 0 0.122,0.123 H 10.829 a 0.122,0.122 0 0 1 0.086,0.209 z"
     fill="#9cebff"
     id="path53192" />
  <path
     d="M 12.213,10.842 9.9130005,8.5420005 a 0.273,0.273 0 0 1 0,-0.387 l 2.2999995,-2.3 a 0.122,0.122 0 0 1 0.209,0.086 v 1.415 a 0.123,0.123 0 0 0 0.122,0.123 h 2.874 a 0.1,0.1 0 0 1 0.1,0.1 v 1.542 a 0.1,0.1 0 0 1 -0.1,0.1 h -2.874 a 0.122,0.122 0 0 0 -0.122,0.122 V 10.757 a 0.123,0.123 0 0 1 -0.209,0.085 z"
     fill="#f2f2f2"
     id="path53194" />
  <path
     d="m 4.4450005,5.8560005 2.3,2.3 a 0.273,0.273 0 0 1 0,0.387 l -2.3,2.2999995 a 0.123,0.123 0 0 1 -0.209,-0.087 V 9.3410005 a 0.122,0.122 0 0 0 -0.122,-0.122 h -2.874 a 0.1,0.1 0 0 1 -0.1,-0.1 v -1.543 a 0.1,0.1 0 0 1 0.1,-0.1 h 2.874 a 0.123,0.123 0 0 0 0.122,-0.123 v -1.411 a 0.122,0.122 0 0 1 0.209,-0.086 z"
     fill="#f2f2f2"
     id="path53196" />
</svg>
