<?xml version="1.0" encoding="UTF-8" standalone="no"?>
<svg
   xmlns:dc="http://purl.org/dc/elements/1.1/"
   xmlns:cc="http://creativecommons.org/ns#"
   xmlns:rdf="http://www.w3.org/1999/02/22-rdf-syntax-ns#"
   xmlns:svg="http://www.w3.org/2000/svg"
   xmlns="http://www.w3.org/2000/svg"
   xmlns:sodipodi="http://sodipodi.sourceforge.net/DTD/sodipodi-0.dtd"
   xmlns:inkscape="http://www.inkscape.org/namespaces/inkscape"
   id="b6f74ca5-3ae6-426f-9ef1-9ff6bbaa7f1c"
   width="13.56"
   height="18.050442"
   viewBox="0 0 13.56 18.050442"
   version="1.1"
   sodipodi:docname="Virtual_Network_Gateways.svg"
   inkscape:version="0.92.3 (2405546, 2018-03-11)">
  <sodipodi:namedview
     pagecolor="#ffffff"
     bordercolor="#666666"
     borderopacity="1"
     objecttolerance="10"
     gridtolerance="10"
     guidetolerance="10"
     inkscape:pageopacity="0"
     inkscape:pageshadow="2"
     inkscape:window-width="1920"
     inkscape:window-height="1017"
     id="namedview70587"
     showgrid="false"
     fit-margin-top="0"
     fit-margin-left="0"
     fit-margin-right="0"
     fit-margin-bottom="0"
     inkscape:zoom="48.111111"
     inkscape:cx="6.78"
     inkscape:cy="9.05"
     inkscape:window-x="-8"
     inkscape:window-y="-8"
     inkscape:window-maximized="1"
     inkscape:current-layer="b6f74ca5-3ae6-426f-9ef1-9ff6bbaa7f1c" />
  <defs
     id="defs70572">
    <linearGradient
       id="bd7305f8-8789-4600-a1f2-6594e60eefcc"
       x1="8.5900002"
       y1="-7.79"
       x2="9.1199999"
       y2="20.049999"
       gradientUnits="userSpaceOnUse">
      <stop
         offset="0.22"
         stop-color="#32d4f5"
         id="stop70557" />
      <stop
         offset="0.47"
         stop-color="#31d1f3"
         id="stop70559" />
      <stop
         offset="0.63"
         stop-color="#2ec9eb"
         id="stop70561" />
      <stop
         offset="0.77"
         stop-color="#29bade"
         id="stop70563" />
      <stop
         offset="0.89"
         stop-color="#22a5cb"
         id="stop70565" />
      <stop
         offset="1"
         stop-color="#198ab3"
         id="stop70567" />
      <stop
         offset="1"
         stop-color="#198ab3"
         id="stop70569" />
    </linearGradient>
  </defs>
  <title
     id="title70574">Icon-networking-63</title>
  <path
     d="m 12.84,8.6704425 h -1 v -3.08 a 5.81,5.81 0 0 0 -1.49,-3.92 A 4.79,4.79 0 0 0 6.69,4.4247096e-4 4.79,4.79 0 0 0 2.99,1.6704425 a 5.73,5.73 0 0 0 -1.49,3.92 v 3.08 H 0.69 a 0.7,0.7 0 0 0 -0.69,0.69 v 7.9999995 a 0.7,0.7 0 0 0 0.69,0.69 h 12.15 a 0.71,0.71 0 0 0 0.7,-0.69 V 9.3604425 a 0.71,0.71 0 0 0 -0.7,-0.69 z m -3.37,0 H 3.91 v -3.13 a 3.18,3.18 0 0 1 0.87,-2.15 2.51,2.51 0 0 1 1.88,-0.86 2.54,2.54 0 0 1 1.89,0.86 3.19,3.19 0 0 1 0.32,0.43 v 0 a 3,3 0 0 1 0.61,1.71 z"
     id="path70576"
     inkscape:connector-curvature="0"
     style="fill:url(#bd7305f8-8789-4600-a1f2-6594e60eefcc)" />
  <path
     d="M 12.87,8.6704425 H 0.7 a 0.66,0.66 0 0 0 -0.44,0.17 l 13.05,8.9999995 a 0.67,0.67 0 0 0 0.25,-0.52 V 9.3204425 a 0.71,0.71 0 0 0 -0.69,-0.65 z"
     id="path70578"
     inkscape:connector-curvature="0"
     style="fill:#50e6ff" />
  <path
     d="m 0.72,8.6704425 h 12.16 a 0.7,0.7 0 0 1 0.45,0.17 L 0.27,17.840442 a 0.7,0.7 0 0 1 -0.25,-0.52 V 9.3204425 a 0.72,0.72 0 0 1 0.7,-0.65 z"
     id="path70580"
     inkscape:connector-curvature="0"
     style="opacity:0.2;fill:#ffffff" />
  <path
     d="m 5.58,10.600442 1.2,-1.1999995 a 0.07,0.07 0 0 1 0.09,0 l 1.19,1.1999995 a 0.06,0.06 0 0 1 0,0.1 h -0.7 a 0.06,0.06 0 0 0 -0.06,0.06 v 1.54 a 0.06,0.06 0 0 1 -0.06,0.06 H 6.45 a 0.05,0.05 0 0 1 -0.06,-0.06 v -1.54 a 0.07,0.07 0 0 0 -0.07,-0.06 h -0.7 a 0.06,0.06 0 0 1 -0.04,-0.1 z m 2.47,5.48 -1.19,1.19 a 0.06,0.06 0 0 1 -0.09,0 l -1.19,-1.19 a 0.06,0.06 0 0 1 0,-0.1 h 0.7 a 0.07,0.07 0 0 0 0.07,-0.06 v -1.55 a 0.06,0.06 0 0 1 0.06,-0.06 h 0.74 a 0.06,0.06 0 0 1 0.06,0.06 v 1.55 a 0.06,0.06 0 0 0 0.06,0.06 h 0.7 a 0.06403124,0.06403124 0 0 1 0.08,0.1 z m -4.7,-1.55 v -0.7 a 0.06,0.06 0 0 0 -0.06,-0.06 H 1.78 a 0.06,0.06 0 0 1 -0.06,-0.06 v -0.71 a 0.06,0.06 0 0 1 0.06,-0.09 h 1.51 a 0.06,0.06 0 0 0 0.06,-0.06 v -0.7 a 0.07,0.07 0 0 1 0.11,-0.05 l 1.19,1.2 a 0.06,0.06 0 0 1 0,0.08 l -1.19,1.2 a 0.07,0.07 0 0 1 -0.11,-0.05 z m 6.93,-2.38 v 0.7 a 0.06,0.06 0 0 0 0.06,0.06 h 1.54 c 0,0 0.07,0 0.07,0.06 v 0.74 a 0.07,0.07 0 0 1 -0.07,0.06 h -1.54 a 0.06,0.06 0 0 0 -0.06,0.06 v 0.7 a 0.06,0.06 0 0 1 -0.1,0.05 l -1.19,-1.2 a 0,0 0 0 0 0,-0.08 l 1.19,-1.2 c 0,0 0.1,-0.01 0.1,0.05 z"
     id="path70582"
     inkscape:connector-curvature="0"
     style="fill:#ffffff" />
  <metadata
     id="metadata70584">
    <rdf:RDF>
      <rdf:li>public:true</rdf:li>
      <rdf:li>sdk:false</rdf:li>
      <rdf:li>category: Networking</rdf:li>
      <cc:Work
         rdf:about="">
        <dc:format>image/svg+xml</dc:format>
        <dc:type
           rdf:resource="http://purl.org/dc/dcmitype/StillImage" />
        <dc:title>Icon-networking-63</dc:title>
      </cc:Work>
    </rdf:RDF>
  </metadata>
</svg>
