<?xml version="1.0" encoding="UTF-8" standalone="no"?>
<svg
   xmlns:dc="http://purl.org/dc/elements/1.1/"
   xmlns:cc="http://creativecommons.org/ns#"
   xmlns:rdf="http://www.w3.org/1999/02/22-rdf-syntax-ns#"
   xmlns:svg="http://www.w3.org/2000/svg"
   xmlns="http://www.w3.org/2000/svg"
   xmlns:sodipodi="http://sodipodi.sourceforge.net/DTD/sodipodi-0.dtd"
   xmlns:inkscape="http://www.inkscape.org/namespaces/inkscape"
   id="a264d655-1dbb-49d2-ab11-5661636dcac3"
   width="18.006025"
   height="10.784314"
   viewBox="0 0 18.006025 10.784314"
   version="1.1"
   sodipodi:docname="Virtual_Networks_(Classic).svg"
   inkscape:version="0.92.3 (2405546, 2018-03-11)">
  <sodipodi:namedview
     pagecolor="#ffffff"
     bordercolor="#666666"
     borderopacity="1"
     objecttolerance="10"
     gridtolerance="10"
     guidetolerance="10"
     inkscape:pageopacity="0"
     inkscape:pageshadow="2"
     inkscape:window-width="1920"
     inkscape:window-height="1017"
     id="namedview71013"
     showgrid="false"
     fit-margin-top="0"
     fit-margin-left="0"
     fit-margin-right="0"
     fit-margin-bottom="0"
     inkscape:zoom="48.111111"
     inkscape:cx="9.0042855"
     inkscape:cy="5.3913512"
     inkscape:window-x="-8"
     inkscape:window-y="-8"
     inkscape:window-maximized="1"
     inkscape:current-layer="a264d655-1dbb-49d2-ab11-5661636dcac3" />
  <defs
     id="defs70992">
    <linearGradient
       id="a852e611-5849-4670-89ce-518ddf7edeae"
       x1="10.7"
       y1="11.32"
       x2="10.7"
       y2="9"
       gradientTransform="rotate(-0.08,-822.61174,-1454.4552)"
       gradientUnits="userSpaceOnUse">
      <stop
         offset="0"
         stop-color="#0078d4"
         id="stop70977" />
      <stop
         offset="0.82"
         stop-color="#5ea0ef"
         id="stop70979" />
    </linearGradient>
    <linearGradient
       id="a2350862-f997-4c57-aad0-c16f9ca4c0c3"
       x1="6.9899998"
       y1="11.32"
       x2="7"
       y2="9"
       gradientUnits="userSpaceOnUse">
      <stop
         offset="0"
         stop-color="#0078d4"
         id="stop70982" />
      <stop
         offset="0.82"
         stop-color="#5ea0ef"
         id="stop70984" />
    </linearGradient>
    <linearGradient
       id="e5473695-068a-44ff-b3dc-927159226a8e"
       x1="3.29"
       y1="11.32"
       x2="3.3"
       y2="9"
       gradientUnits="userSpaceOnUse">
      <stop
         offset="0"
         stop-color="#0078d4"
         id="stop70987" />
      <stop
         offset="0.82"
         stop-color="#5ea0ef"
         id="stop70989" />
    </linearGradient>
  </defs>
  <title
     id="title70994">Icon-networking-75</title>
  <circle
     cx="12.744286"
     cy="5.3829632"
     r="1.16"
     id="circle70996"
     style="fill:url(#a852e611-5849-4670-89ce-518ddf7edeae)" />
  <circle
     cx="9.0442858"
     cy="5.3929634"
     r="1.16"
     id="circle70998"
     style="fill:url(#a2350862-f997-4c57-aad0-c16f9ca4c0c3)" />
  <circle
     cx="5.3442855"
     cy="5.3929634"
     r="1.16"
     id="circle71000"
     style="fill:url(#e5473695-068a-44ff-b3dc-927159226a8e)" />
  <path
     d="M 6.1863956,10.030542 5.5226439,10.69615 a 0.3,0.3 0 0 1 -0.4242636,5.93e-4 L 0.18421208,5.7962782 A 0.6,0.6 0 0 1 0.18302731,4.9477509 L 0.84677897,4.2821431 6.1858032,9.6062787 a 0.3,0.3 0 0 1 5.924e-4,0.4242633 z"
     id="path71002"
     inkscape:connector-curvature="0"
     style="fill:#50e6ff" />
  <path
     d="M 5.4221989,0.10117925 6.0878067,0.76493091 A 0.3,0.3 0 0 1 6.0883991,1.1891946 L 0.84193654,6.4503285 0.17632875,5.7865769 A 0.6,0.6 0 0 1 0.17514398,4.9380496 L 4.9979353,0.10177164 a 0.3,0.3 0 0 1 0.4242636,-5.9239e-4 z"
     id="path71004"
     inkscape:connector-curvature="0"
     style="fill:#1490df" />
  <path
     d="m 17.160946,4.2730297 0.663752,0.6656078 a 0.6,0.6 0 0 1 -0.0012,0.8485273 l -4.914168,4.9004642 a 0.3,0.3 0 0 1 -0.424264,-5.92e-4 l -0.663752,-0.665608 a 0.3,0.3 0 0 1 5.93e-4,-0.4242636 z"
     id="path71006"
     inkscape:connector-curvature="0"
     style="fill:#50e6ff" />
  <path
     d="M 17.822617,5.7800309 17.157009,6.4437825 11.910546,1.1826486 a 0.3,0.3 0 0 1 5.93e-4,-0.42426368 l 0.672688,-0.67081284 a 0.3,0.3 0 0 1 0.424264,5.9238e-4 l 4.822791,4.83627794 a 0.6,0.6 0 0 1 -0.0012,0.8485273 z"
     id="path71008"
     inkscape:connector-curvature="0"
     style="fill:#1490df" />
  <metadata
     id="metadata71010">
    <rdf:RDF>
      <rdf:li>public:true</rdf:li>
      <rdf:li>sdk:false</rdf:li>
      <rdf:li>category: Networking</rdf:li>
      <cc:Work
         rdf:about="">
        <dc:format>image/svg+xml</dc:format>
        <dc:type
           rdf:resource="http://purl.org/dc/dcmitype/StillImage" />
        <dc:title>Icon-networking-75</dc:title>
      </cc:Work>
    </rdf:RDF>
  </metadata>
</svg>
