<svg xmlns="http://www.w3.org/2000/svg" viewBox="-526.909 -96 50 50" width="50" height="50"><path d="M-526.91-96h50v50h-50z" fill="#0072c6"/><path d="M-500.4-76.375c-.25.125-.375.125-.75.25v12.875c.375.125.875.375 1.25.75l5.75-4.625c-.125-.25-.125-.75-.125-1.125s.125-1 .25-1.375zm-9.5 6.75c.25.375.375 1 .375 1.5 0 .375-.125.875-.25 1.25l5.75 4.625c.25-.25.75-.5 1.125-.75v-13.125c-.25-.125-.375-.125-.5-.25zm8-21.375l-20 23.75 20 16.25 20-16.25zm10.875 26.125c-.75 0-1.375-.25-2-.75l-5.75 4.75c.125.25.125.5.125.875 0 1.75-1.375 3.25-3.25 3.25s-3.25-1.375-3.25-3.25c0-.25 0-.5.125-.75l-6.125-4.75c-.5.375-1.125.5-1.75.5-1.75 0-3.25-1.375-3.25-3.25 0-1.75 1.375-3.25 3.25-3.25.5 0 1 .125 1.5.375l6.375-7c-.125-.375-.25-.875-.25-1.375 0-1.75 1.375-3.25 3.25-3.25s3.25 1.375 3.25 3.25c0 .5-.125 1.125-.375 1.5l6.25 7a3.85 3.85 0 0 1 1.625-.375c1.75 0 3.25 1.375 3.25 3.25a3.027 3.027 0 0 1-3 3.25z" fill="#fff"/></svg>