<svg xmlns="http://www.w3.org/2000/svg" width="50" height="50"><path fill="#59b4d9" d="M25 50c-1.232 0-2.392-.48-3.26-1.352L1.35 28.26a4.64 4.64 0 0 1 0-6.521L21.74 1.352a4.58 4.58 0 0 1 6.522 0L48.648 21.74C49.52 22.608 50 23.767 50 25s-.48 2.392-1.353 3.263L28.262 48.65a4.58 4.58 0 0 1-3.261 1.352"/><g fill="#fff"><path d="M38.614 21.093a3.91 3.91 0 0 0-3.91 3.909 3.88 3.88 0 0 0 .645 2.143l-7.744 7.744a4.55 4.55 0 0 0-.656-.373V14.76c1.167-.676 1.96-1.924 1.96-3.37A3.91 3.91 0 0 0 25 7.48a3.91 3.91 0 0 0-3.908 3.909c0 1.446.794 2.694 1.96 3.37v19.756a4.48 4.48 0 0 0-.632.353l-7.753-7.753a3.88 3.88 0 0 0 .628-2.113 3.91 3.91 0 0 0-3.908-3.909 3.91 3.91 0 0 0-3.91 3.909 3.91 3.91 0 0 0 3.91 3.909 3.88 3.88 0 0 0 1.274-.23l8.15 8.15c-.234.548-.364 1.15-.364 1.783 0 2.513 2.038 4.55 4.55 4.55a4.55 4.55 0 0 0 4.551-4.551c0-.62-.126-1.212-.35-1.75l8.173-8.172c.392.132.804.22 1.24.22a3.91 3.91 0 0 0 3.908-3.909 3.91 3.91 0 0 0-3.906-3.909z"/><path opacity=".5" d="M40.47 24.983l-1.784 1.784L24.065 12.15l1.784-1.784z"/><path opacity=".5" d="M24.166 10.377l1.785 1.785-14.62 14.62-1.785-1.785z"/></g><path d="M27.665 38.614a2.71 2.71 0 0 1-2.71 2.709 2.71 2.71 0 0 1-2.709-2.709 2.71 2.71 0 0 1 2.709-2.709 2.71 2.71 0 0 1 2.71 2.709m-.49-27.224c0 1.2-.973 2.174-2.174 2.174s-2.174-.973-2.174-2.174S23.8 9.215 25 9.215s2.174.973 2.174 2.174M13.563 25c0 1.2-.975 2.174-2.174 2.174S9.215 26.202 9.215 25s.973-2.174 2.174-2.174 2.174.973 2.174 2.174m27.225 0c0 1.2-.975 2.174-2.175 2.174S36.44 26.202 36.44 25s.974-2.174 2.174-2.174S40.79 23.8 40.79 25" fill="#b8d432"/><path opacity=".1" fill="#fff" d="M28.262 1.352A4.58 4.58 0 0 0 25.001 0c-1.23 0-2.39.48-3.26 1.352L1.352 21.74C.492 22.598 0 23.786 0 25s.492 2.403 1.352 3.26l11.543 11.544L34.6 7.7l-6.348-6.347z"/></svg>