<svg xmlns="http://www.w3.org/2000/svg" height="50" width="50"><path fill="#59b4d9" d="M22 44c-1.1 0-2.1-.4-2.9-1.2L1.2 24.9C.4 24.1 0 23.1 0 22s.4-2.1 1.2-2.9L19.1 1.2C19.9.4 20.9 0 22 0s2.1.4 2.9 1.2l17.9 17.9c.8.8 1.2 1.8 1.2 2.9s-.4 2.1-1.2 2.9L24.9 42.8c-.8.8-1.8 1.2-2.9 1.2"/><g fill="#fff"><path d="M34 18.6a3.37 3.37 0 0 0-3.4 3.4c0 .7.2 1.3.6 1.9l-6.8 6.8-.6-.3V13c1-.6 1.7-1.7 1.7-3a3.37 3.37 0 0 0-3.4-3.4 3.37 3.37 0 0 0-3.4 3.4c0 1.3.7 2.4 1.7 3v17.4l-.6.3-6.8-6.8c.3-.5.6-1.2.6-1.9a3.37 3.37 0 0 0-3.4-3.4A3.37 3.37 0 0 0 6.8 22a3.37 3.37 0 0 0 3.4 3.4c.4 0 .8-.1 1.1-.2l7.2 7.2c-.2.5-.3 1-.3 1.6 0 2.2 1.8 4 4 4s4-1.8 4-4c0-.5-.1-1.1-.3-1.5l7.2-7.2c.3.1.7.2 1.1.2a3.37 3.37 0 0 0 3.4-3.4c-.2-2-1.7-3.5-3.6-3.5z"/><path opacity=".5" d="M21.158 10.653l1.555-1.556 12.87 12.867-1.555 1.556z"/><path opacity=".5" d="M10.01 23.54l-1.556-1.556 12.87-12.87 1.556 1.556z"/></g><path d="M24.3 34c0 1.3-1.1 2.4-2.4 2.4s-2.4-1.1-2.4-2.4 1.1-2.4 2.4-2.4c1.4 0 2.4 1.1 2.4 2.4m-.4-24c0 1.1-.9 1.9-1.9 1.9a1.97 1.97 0 0 1-1.9-1.9A1.97 1.97 0 0 1 22 8.1a1.97 1.97 0 0 1 1.9 1.9m-12 12c0 1.1-.9 1.9-1.9 1.9-1.1 0-1.9-.9-1.9-1.9 0-1.1.9-1.9 1.9-1.9 1.1 0 1.9.8 1.9 1.9m24 0c0 1.1-.9 1.9-1.9 1.9a1.97 1.97 0 0 1-1.9-1.9c0-1.1.9-1.9 1.9-1.9s1.9.8 1.9 1.9" fill="#b8d432"/><path opacity=".1" fill="#fff" d="M24.9 1.2C24.1.4 23.1 0 22 0s-2.1.4-2.9 1.2L1.2 19.1C.4 19.9 0 20.9 0 22s.4 2.1 1.2 2.9L11.3 35 30.5 6.8l-5.6-5.6z"/><path fill="#ba141a" d="M48.2 30.3c-.4-.5-1-.8-1.6-1.1-2.7-1.1-6.6.3-9 3.7-3.8-4.5-8.2-5.4-10.7-2.7-5 5.4 1.3 12.6 6.2 16.6a31.57 31.57 0 0 0 4.4 3.1c2.7-1.2 17.6-12.1 10.7-19.6"/><g fill="#fff"><path opacity=".2" d="M37.6 32.9c-3.8-4.5-8.2-5.4-10.7-2.7-5 5.4 1.3 12.6 6.2 16.6l13.6-17.7c-2.8-1-6.7.4-9.1 3.8"/><path opacity=".5" d="M26.2 39.1H29l2.5-.1 1.9-5.1c.1-.3.3-.9 1.1-.9s.9.6.9.9l.1 8.5 1.4-2.9c.1-.3.4-.4.6-.4h8.1c.4 0 .7.4.7.7s-.3.9-.7.9h-7.3l-2.6 5.2c-.2.5-.4.7-1 .6-.3-.1-.6-.5-.6-.8l-.1-7.8-.8 2.1c-.1.3-.3.7-.6.7h-5.5l-.5-.8-.4-.8z"/></g></svg>