<svg xmlns="http://www.w3.org/2000/svg" width="24" height="24"><path fill="#3c9be4" d="M14 20c0-.41.08-.803.236-1.17.155-.36.37-.678.64-.95s.594-.49.95-.643c.728-.31 1.578-.315 2.303-.02l.07-.07.022-.02A3 3 0 0 1 18 16c0-.41.08-.803.236-1.17.155-.36.37-.678.64-.95s.594-.49.95-.643c.742-.316 1.61-.314 2.344-.002.243.105.458.246.66.403l.17-.14L11.5 0 0 13.5 11.5 23l2.63-2.174c-.078-.27-.13-.545-.13-.826z"/><g fill="#fff"><path opacity=".2" d="M11.5 0L0 13.5 11.5 23z"/><circle cx="11.5" cy="17.5" r="1.5"/><circle cx="5.5" cy="13.5" r="1.5"/><circle cx="11.5" cy="5.5" r="1.5"/><path opacity=".5" d="M11.1 5.8l.8-.6 6 8-.8.6z"/><path d="M5.224 13.916l.555-.832 6 4-.555.832z"/><path opacity=".5" d="M5.1 13.2l5.998-8 .8.6-5.998 8z"/><path d="M11.225 17.085l6-4 .555.832-6 4z"/><path d="M11 5.5h1v12h-1z"/></g><circle fill="#000c82" cx="21" cy="16" r="2"/><g fill="#68217a"><path d="M14 24a3 3 0 1 1 6 0h-6z"/><circle cx="17" cy="20" r="2"/></g><path fill="#000c82" d="M21 17a2.98 2.98 0 0 0-2.001.779c.6.55 1 1.337 1 2.22h4a3 3 0 0 0-3-3z"/><path fill="#fff" d="M17.5 15a1.48 1.48 0 0 0 .76-.214 3.05 3.05 0 0 1 .617-.906c.028-.028.062-.05.092-.076.02-.097.03-.2.03-.304a1.5 1.5 0 1 0-3 0 1.5 1.5 0 0 0 1.5 1.5z"/></svg>