<svg xmlns="http://www.w3.org/2000/svg" width="24" height="24"><path fill="#3c9be4" d="M16.5 9L9 17.804 16.5 24l7.5-6.196L16.5 9z"/><g fill="#fff"><path opacity=".2" d="M16.5 9L9 17.804 16.5 24z"/><path opacity=".5" d="M14.748 16.67l1.308-1.743a1.5 1.5 0 0 1-.804-.594l-1.308 1.744a1.49 1.49 0 0 1 .804.593zm3-2.34c-.188.282-.473.5-.804.594l1.308 1.743a1.5 1.5 0 0 1 .803-.594l-1.307-1.743z"/><path d="M15.605 18.303l-.655-.437a1.49 1.49 0 0 1-.555.832l.655.437a1.49 1.49 0 0 1 .555-.832zm2.445-.437l-.655.437a1.49 1.49 0 0 1 .555.832l.655-.437a1.5 1.5 0 0 1-.555-.832z"/><path d="M16.5 12a1.5 1.5 0 1 0 0 3 1.5 1.5 0 1 0 0-3zm0 6a1.5 1.5 0 1 0 0 3 1.5 1.5 0 1 0 0-3zm-3-2a1.5 1.5 0 1 0 0 3 1.5 1.5 0 1 0 0-3zm6 0a1.5 1.5 0 1 0 0 3 1.5 1.5 0 1 0 0-3z"/><path d="M16 14.5h1v4h-1z"/></g><path fill="#0072c6" d="M7.58 17.93l8.92-10.47 5.706 6.698L23 13.5 11.5 0 0 13.5 11.5 23l1.1-.917z"/></svg>