<svg xmlns="http://www.w3.org/2000/svg" xmlns:xlink="http://www.w3.org/1999/xlink" viewBox="0 0 50 50"><style><![CDATA[.G{enable-background:new}]]></style><path d="M28.6 10.3c0 5.7-4.6 10.3-10.3 10.3S8 16 8 10.3C8.1 4.6 12.7 0 18.3 0 24 0 28.6 4.6 28.6 10.3m-2.8 13.8l-7.5 10.5-7.5-10.5H0V50h36.7V24.1z" fill="#59b4d9"/><path d="M8.1 10.3c0 5.6 4.5 10.1 10 10.3L20.7.4c-.8-.3-1.6-.4-2.4-.4C12.7 0 8.1 4.6 8.1 10.3m2.7 13.8H0V50h14.4l2.3-17.8z" opacity=".2" fill="#fff" class="G"/><use xlink:href="#B" fill="#fcd116"/><g fill="#ff8c00" class="G"><use xlink:href="#B" opacity=".3"/><path d="M28.4 47.1v1.8l7-7-.4-1.3z" opacity=".4"/></g><path d="M37.494 31.957l1.202-1.202 8.202 8.202-1.202 1.202zm-1.8 1.916l1.202-1.202 8.202 8.202-1.202 1.202z" opacity=".5" fill="#fff" class="G"/><defs ><path id="B" d="M46.5 42.7c2 0 3.5-1.6 3.5-3.5v-8.6c0-2-1.6-3.5-3.5-3.5h-8.6c-2 0-3.5 1.6-3.5 3.5v7.6L27 45.4V50h6.3v-2.3h2.3v-2.3h2.3v-2.3l.3-.3 8.3-.1zm.7-12.9c.8.8.8 2.1 0 2.8-.8.8-2.1.8-2.8 0-.8-.8-.8-2.1 0-2.8.7-.8 2-.8 2.8 0z"/></defs></svg>