<svg xmlns="http://www.w3.org/2000/svg" width="50" height="50"><path d="M50 25.4c0-3.3-2.7-5.8-5.8-5.8h-.8c.3-1.3.6-2.7.6-4.1A15.45 15.45 0 0 0 28.5 0C21.8 0 16 4.4 14 10.7c-1.1-.3-2.2-.6-3.4-.6C4.7 10 0 14.7 0 20.7s4.7 10.7 10.5 10.7h34.2c2.9-.4 5.3-2.9 5.3-6" fill="#59b4d9"/><path d="M16 31.3c-1.4-1.4-2.4-3.1-2.8-5.2-1.3-5.8 2.2-11.4 8-12.7a10.15 10.15 0 0 1 3.4-.2C25.1 8 28.4 3.1 33.2.8c-1.4-.5-3-.8-4.7-.8C21.8 0 16 4.4 14 10.7c-1.1-.3-2.2-.6-3.4-.6C4.7 10 0 14.7 0 20.7s4.7 10.7 10.5 10.7H16z" opacity=".2" fill="#fff" enable-background="new"/><path d="M36.5 32c-1.6 1.4-3.7 2.3-6 2.3s-4.4-.9-6-2.3l-.9 18 6.8-6.9 6.8 6.9-.7-18z" fill="#ba141a"/><circle cx="30.6" cy="25.7" r="11.6" fill="#dd5900"/><circle cx="30.6" cy="25.7" r="8.8" fill="#ff8c00"/><path d="M22.3,34c-4.5-4.5-4.5-11.9,0-16.4s11.9-4.5,16.4,0L22.3,34z" opacity=".15" fill="#fff" enable-background="new"/></svg>