<svg xmlns="http://www.w3.org/2000/svg" width="1332.4" height="1029.975" fill="#59b4d9"><path d="M784.1 243.17v122.952l-235.8-75.28V0H0v420.366h271.42l29.328 189.23h-206v420.38h548.3v-292.06L784.1 662.4v1.147h548.3V243.17zm342.93 254.687a69.685 69.685 0 0 1-120.206 25.571L435.8 829.176a69.69 69.69 0 1 1-90.564-46.1l-12.717-82.1-61.17-394.616a69.654 69.654 0 1 1 72.427-66.766q-.084 2.056-.3 4.105L995.66 451.92a69.687 69.687 0 0 1 131.366 45.938zm-136.6-17.183L334.637 271.3a69.488 69.488 0 0 1-27.77 27.033 75.166 75.166 0 0 1-6.939 3.183l74.007 477.52a71.439 71.439 0 0 1 14.343 2.554 69.4 69.4 0 0 1 33.89 22.006L993.2 497.86a69.045 69.045 0 0 1-2.761-17.185zM784.1 590.1l-141.04 75.5v-56.005H365.276l-29.327-189.23H548.3v-62.6l235.8 75.28z"/></svg>