<svg xmlns="http://www.w3.org/2000/svg" viewBox="0 0 49.8 42.6"><path d="M2.4 42.6h45c1.3 0 2.4-1.1 2.4-2.4V2.4c0-1.3-1.1-2.4-2.4-2.4h-45C1.1 0 0 1.1 0 2.4v37.8c0 1.3 1.1 2.4 2.4 2.4z" fill="#7fba00"/><path d="M39.8 0v21.1h-4.1c-.4-2.4-1.6-4.7-3.4-6.6-2.4-2.4-5.5-3.7-8.9-3.7-3.3 0-6.5 1.3-8.9 3.7-.8.8-.8 2.1 0 3 .8.8 2.1.8 3 0 1.6-1.6 3.7-2.4 5.9-2.4s4.3.9 5.9 2.4c3.3 3.3 3.3 8.6 0 11.8-1.6 1.6-3.7 2.4-5.9 2.4s-4.3-.9-5.9-2.4c-.8-.8-2.1-.8-3 0-.8.8-.8 2.1 0 3 2.4 2.4 5.5 3.7 8.9 3.7 3.3 0 6.5-1.3 8.9-3.7 2-2 3.1-4.4 3.5-7h6.1c1.2 0 2.1-.9 2.1-2.1V0M6.1 0v23.2c0 1.2.9 2.1 2.1 2.1H19c.8 1.7 2.5 2.9 4.5 2.9a4.95 4.95 0 0 0 5-5c-.1-2.8-2.4-5-5.1-5-2 0-3.7 1.2-4.5 2.9h-8.7V0" fill="#fff"/></svg>