<svg xmlns="http://www.w3.org/2000/svg" width="50.2" height="41.7"><path d="M20.5 28.5h-8.9c-4.4 0-8-3.6-8-8.1s3.4-8.1 8-8.1c.8 0 1.7.2 2.7.3l1.7.5.5-1.7C18.1 6.2 23.1 3 28.8 3 35.7 3 41 8.3 41 15.2c0 1.1-.2 2.2-.5 3.3l-.7 2.5 2.7-.3h.5c2 0 3.6 1.7 3.6 3.6s-1.4 3.3-3.1 3.6h-8.9c-.3-2.5-1.6-4.7-3.3-6.4-2.2-2.2-5.2-3.5-8.3-3.5-2.2 0-4.4.6-6.1 1.7l1.9 3c1.4-.8 2.8-1.1 4.4-1.1 2.2 0 4.4.8 5.8 2.5 1.6 1.6 2.5 3.6 2.5 5.8s-.8 4.4-2.5 5.8c-1.6 1.7-3.6 2.5-5.8 2.5-1.6 0-3.1-.5-4.4-1.4l-1.9 3c1.9 1.1 4.1 1.9 6.1 1.9 3.1 0 6.1-1.1 8.3-3.4 1.9-1.9 3-4.4 3.3-7h9.3c3.6-.3 6.3-3.4 6.3-7.2 0-3-2.8-5.8-6.1-6.4.2-.6.2-.9.2-1.9C44.3 7 38.1 0 28.2 0 21.9 0 16.3 3.6 14 9.4c-.8 0-1.4-.3-2.3-.3C5.2 9 0 14 0 20.4c0 6.3 5.2 11.3 11.4 11.3h9.8l-.7-3.2z" fill="#59b4d9"/><circle cx="22.8" cy="29.8" r="5.6" fill="#68217a"/></svg>