<svg xmlns="http://www.w3.org/2000/svg" xmlns:xlink="http://www.w3.org/1999/xlink" width="44" height="50" viewBox="1 -1 44 50"><path d="M1 49h44V-1H1z" fill="#59b4d9"/><path d="M3 47h40V1H3z" opacity=".8" fill="#fff"/><g fill="#59b4d9"><path d="M26.8 41.1a1.11 1.11 0 0 1-1.1 1.1H10.6a1.11 1.11 0 0 1-1.1-1.1 1.11 1.11 0 0 1 1.1-1.1h15.1a1.11 1.11 0 0 1 1.1 1.1"/><use xlink:href="#B"/><use xlink:href="#B" y="7.5"/><path d="M35.717-1v12.47h-6.423c-.236-1.418-.946-2.778-2-3.9-1.418-1.418-3.25-2.187-5.26-2.187a7.43 7.43 0 0 0-5.26 2.187c-.473.473-.473 1.24 0 1.773.473.473 1.24.473 1.773 0 .946-.946 2.187-1.418 3.487-1.418s2.54.532 3.487 1.418c1.95 1.95 1.95 5.082 0 6.973-.946.946-2.187 1.418-3.487 1.418s-2.54-.532-3.487-1.418c-.473-.473-1.24-.473-1.773 0-.473.473-.473 1.24 0 1.773 1.418 1.418 3.25 2.187 5.26 2.187a7.43 7.43 0 0 0 5.26-2.187c1.182-1.182 1.832-2.6 2.068-4.137h7.605a1.21 1.21 0 0 0 1.241-1.241V-1M7.8-1v13.7a1.21 1.21 0 0 0 1.241 1.241h10.382c.473 1.005 1.477 1.714 2.66 1.714 1.655 0 2.955-1.3 2.955-2.955-.06-1.655-1.418-2.955-3.014-2.955-1.182 0-2.187.7-2.66 1.714h-9.14V-1"/></g><defs ><path id="B" d="M36.9 26.1a1.11 1.11 0 0 1-1.1 1.1H10.6a1.11 1.11 0 0 1-1.1-1.1 1.11 1.11 0 0 1 1.1-1.1h25.1c.7 0 1.2.5 1.2 1.1"/></defs></svg>