<svg xmlns="http://www.w3.org/2000/svg" xmlns:xlink="http://www.w3.org/1999/xlink" width="50" height="50"><path fill="#59b4d9" d="M25 50c-1.2 0-2.4-.5-3.3-1.4L1.4 28.3C.5 27.4 0 26.2 0 25s.5-2.4 1.4-3.3L21.7 1.4C22.6.5 23.8 0 25 0s2.4.5 3.3 1.4l20.4 20.4c.9.9 1.4 2 1.4 3.3s-.5 2.4-1.4 3.3L28.3 48.6c-.9.9-2.1 1.4-3.3 1.4"/><path opacity=".1" fill="#fff" d="M28.3 1.4C27.4.5 26.2 0 25 0s-2.4.5-3.3 1.4L1.4 21.7C.5 22.6 0 23.8 0 25s.5 2.4 1.4 3.3l11.5 11.5L34.6 7.7l-6.3-6.3z"/><path fill="#3e3e3e" d="M30.6 12.6v-1.2l-.2-.1-1.3-.4-.4-.9.7-1.5-.9-.9-1.4.7-.9-.4-.6-1.5h-1.3v.2L23.8 8l-.9.3-1.4-.7-.9.9v.2l.7 1.3-.4.9-1.5.5v1.3l.2.1 1.3.4.4.9-.7 1.5.9.9.2-.1 1.2-.7.9.4.6 1.5h1.3v-.1l.5-1.4.9-.4 1.4.7.9-.9v-.1l-.7-1.3.4-.9z"/><path opacity=".2" fill="#f1f1f1" d="M28.3 7.7l-1.3.6-.9-.4-.6-1.5h-1.3l-.1.2-.3 1.4-.9.4-1.5-.7-.9.9.1.2.7 1.3-.4.9-1.5.6v1.3l.2.1 1.4.4.4.9-.7 1.5.9.9.2-.1.5-.3.7-1.3 4.3-5.9 1-1.4z"/><circle fill="#59b4d9" cx="25" cy="12" r="2"/><path fill="#3e3e3e" d="M30.6 39.4v-1.3h-.2l-1.3-.5-.4-.9.7-1.4-.9-.9h-.2l-1.2.7-.9-.4-.6-1.5h-1.3v.2l-.5 1.3-.9.4-1.4-.7-.9.9v.2l.7 1.3-.4.8-1.5.6v1.3h.2l1.3.5.4.9-.7 1.4.9 1 .2-.1 1.2-.7.9.4.6 1.5h1.3v-.2l.5-1.3.9-.4 1.4.7.9-.9v-.2l-.7-1.2.4-.9z"/><use xlink:href="#B" opacity=".2" fill="#f1f1f1"/><circle fill="#59b4d9" cx="25" cy="38.8" r="2"/><path fill="#3e3e3e" d="M16.9 25.6v-1.3h-.2l-1.4-.5-.3-.9.7-1.4-.9-.9h-.2l-1.3.7-.9-.4-.5-1.5h-1.3l-.1.2-.4 1.3-.9.4-1.5-.7-.9.9.7 1.4-.3.9-1.6.6v1.3h.2l1.4.5.3.9-.7 1.4.9.9h.2l1.3-.7.9.4.5 1.5h1.3l.1-.2.4-1.3.9-.4 1.5.7.9-.9-.7-1.4.3-.9z"/><path opacity=".2" fill="#f1f1f1" d="M14.6 20.6l-1.3.6-.9-.4-.6-1.5h-1.3l-.1.2-.4 1.4-.9.4-1.5-.7-.9.9.1.2.7 1.3-.4.9-1.5.6v1.3l.2.1 1.4.4.4.9-.7 1.5.9.9.2-.1.5-.3.7-1.2 4.3-5.9 1.1-1.5z"/><circle fill="#59b4d9" cx="11.3" cy="25" r="2"/><path fill="#3e3e3e" d="M44.9 25.6v-1.3h-.2l-1.4-.5-.4-.9.7-1.4-.9-.9h-.1l-1.3.7-.9-.4-.6-1.5h-1.2l-.1.2-.4 1.3-.9.4-1.5-.7-.9.9.7 1.4-.3.9-1.6.6v1.3h.2l1.4.5.3.9-.7 1.4.9.9h.2l1.3-.7.9.4.5 1.5h1.3l.1-.2.4-1.3.9-.4 1.5.7.9-.9-.1-.2-.7-1.2.4-.9z"/><use xlink:href="#B" x="14.3" y="-13.9" opacity=".2" fill="#f1f1f1"/><circle fill="#59b4d9" cx="39.2" cy="25" r="2"/><defs ><path id="B" d="M28.3 34.5l-1.3.6-.9-.4-.6-1.5h-1.3l-.1.2-.4 1.4-.9.4-1.5-.7-.9.9.1.2.7 1.3-.4.9-1.5.6v1.3l.2.1 1.4.4.4.9-.7 1.5.9.9.2-.1.5-.3.8-1.1 4.3-5.9 1-1.6z"/></defs></svg>