<svg xmlns="http://www.w3.org/2000/svg" xmlns:xlink="http://www.w3.org/1999/xlink" width="34.445" height="50"><path d="M34.445 47a3 3 0 0 1-3 3H3a3 3 0 0 1-3-3V3a3 3 0 0 1 3-3h28.445a3 3 0 0 1 3 3v44z" fill="#3e3e3e"/><path d="M2.224 5h30v35.222h-30z" fill="#59b4d9"/><path d="M20.112 45.1a2.89 2.89 0 0 1-2.89 2.889 2.89 2.89 0 0 1-2.888-2.889 2.89 2.89 0 0 1 2.888-2.889 2.89 2.89 0 0 1 2.89 2.889" fill="#fff"/><path d="M19.117 45.1c0 1.046-.848 1.895-1.895 1.895s-1.893-.85-1.893-1.895.848-1.894 1.893-1.894 1.895.848 1.895 1.894" fill="#b8d432"/><path d="M2.223 40.222V5H25l2.03-5H3a3 3 0 0 0-3 3v44a3 3 0 0 0 3 3h3.695l3.974-9.778H2.223z" opacity=".15" fill="#fff"/><use xlink:href="#B" fill="#1e1e1e"/><g fill="#fff"><use xlink:href="#B"/><path d="M17.25 21.31c-.045 0-.09-.014-.134-.038L8.313 16.19a.27.27 0 0 1-.132-.231c0-.095.05-.183.132-.23l8.75-5.05c.082-.046.182-.046.263 0l8.807 5.084c.082.047.13.135.13.23s-.05.183-.13.23l-8.748 5.048a.27.27 0 0 1-.135.038"/><path d="M15.987 33.663c-.05 0-.095-.012-.134-.036L7.075 28.56a.26.26 0 0 1-.136-.231V18.164c0-.096.05-.183.136-.23s.18-.05.268 0l8.777 5.064a.28.28 0 0 1 .13.233v10.166c0 .097-.052.183-.13.23a.28.28 0 0 1-.133.036" opacity=".7"/><path d="M18.47 33.663c-.048 0-.093-.012-.138-.036a.27.27 0 0 1-.129-.231V23.294c0-.094.05-.182.13-.23L27.1 18a.26.26 0 0 1 .264 0c.084.047.135.135.135.23v10.1a.26.26 0 0 1-.135.231L18.6 33.627c-.036.024-.083.036-.13.036" opacity=".4"/></g><defs ><path id="B" d="M22.334 2.817a.74.74 0 0 1-.738.738h-8.744a.74.74 0 0 1-.74-.738.74.74 0 0 1 .74-.739h8.744a.74.74 0 0 1 .738.739"/></defs></svg>