<svg xmlns="http://www.w3.org/2000/svg" width="50" height="49.99"><path d="M40.193 44.84a24.898 24.898 0 0 1-15.167 5.151c-7.52 0-14.956-3.376-19.87-9.803-8.396-10.962-6.324-26.64 4.658-35.04C14.343 1.663 19.686 0 24.98 0c7.52 0 14.958 3.376 19.87 9.81 8.398 10.96 6.305 26.64-4.656 35.03" fill="#59b4d9"/><path d="M35.6 29.378a5.385 5.385 0 0 0 7.541 1.004c.123-.094.218-.208.33-.31l5.025 3.46c.28-.723.472-1.417.67-2.142a130.857 130.857 0 0 1-4.29-3.356c.64-1.68.437-3.64-.73-5.17a5.36 5.36 0 0 0-6.936-1.377 224.317 224.317 0 0 1-8.293-7.833c9.165-4.93 15.676-4.207 15.676-4.207-1.087-1.386-2.305-2.6-3.606-3.697-3.865-.597-9.87-.53-16.73 3.12l-.002-.003h-.001a200.322 200.322 0 0 1-6.983-7.712A23.264 23.264 0 0 0 13.96 2.5c1.75 2.862 4.102 5.75 6.754 8.565l.017.017a46.293 46.293 0 0 0-6.944 6.015c-.3.31-.57.62-.842.93a7.546 7.546 0 0 0-4.117.282C6.564 13.425 6.746 9.5 7.104 7.478c-.983 1.03-1.9 2.113-2.692 3.267-.59 2.415-.76 5.898.985 10.095a7.538 7.538 0 0 0-.005 9.153c.176.23.364.442.56.645a37.87 37.87 0 0 0-1.46 8.761c.237.322.237.582.472.896 1.2 1.538 2.705 2.834 4.16 4.008-.18-2.75.014-6.806 1.714-11.372a7.507 7.507 0 0 0 3.483-.566 64.73 64.73 0 0 0 2.025 1.711 41.672 41.672 0 0 0 7.285 4.643 4.974 4.974 0 0 0 .968 3.518 4.998 4.998 0 0 0 6.983.919 4.918 4.918 0 0 0 1.108-1.216c3.89.866 7.287 1.02 9.806 1.02.386 0 2.177-2.436 3.203-3.946-1.534.32-6.083.946-12.3-.84a4.952 4.952 0 0 0-.898-1.98c-1.58-2.07-4.466-2.518-6.618-1.133a46.853 46.853 0 0 1-6.758-4.49 46.422 46.422 0 0 1-1.359-1.118 7.578 7.578 0 0 0 .318-7.55l.87-.857c2.31-2.16 4.485-3.887 6.52-5.274-.082-.076-.156-.156-.236-.233l.24.227-.002.001c3.12 2.886 6.43 5.62 9.564 8.065-.83 1.758-.7 3.9.562 5.547z" fill="#fff"/></svg>