<svg xmlns="http://www.w3.org/2000/svg" width="44.545" height="47.322"><path d="M0 0h11v11H0zm13 0h12v11H13zm14 0h11v11H27zM0 13h11v11H0zm13 0h12v11H13zm14 0h11v11H27zM0 26h11v12H0zm13 0h12v12H13zm14 0h11v12H27z" fill="#0072c6"/><g fill="#fff"><path d="M30.808 43.742a.31.31 0 0 1-.161-.042l-10.462-6a.31.31 0 0 1-.161-.273V25.4a.32.32 0 0 1 .161-.276c.1-.054.22-.054.32 0l10.46 6a.32.32 0 0 1 .156.275v12.028c.001.112-.06.217-.156.273a.32.32 0 0 1-.157.042m2.954.058a.31.31 0 0 0 .161-.042l10.462-6a.31.31 0 0 0 .161-.273v-12.03a.32.32 0 0 0-.161-.276c-.1-.054-.22-.054-.32 0l-10.46 6a.32.32 0 0 0-.156.275v12.03c-.001.112.06.217.156.273a.32.32 0 0 0 .157.042"/><path d="M32.316 47.322c-.055 0-.1-.016-.157-.045l-10.494-6.014c-.1-.056-.16-.162-.16-.276s.06-.216.16-.27l10.427-5.976c.098-.054.217-.054.315 0l10.5 6.018c.096.056.157.158.158.27a.32.32 0 0 1-.158.275l-10.432 5.973c-.048.03-.103.045-.16.045"/><path d="M32.316 39c-.055 0-.1-.016-.157-.045l-10.494-6.01c-.1-.056-.16-.162-.16-.276s.06-.216.16-.27l10.427-5.976c.098-.054.217-.054.315 0L42.9 32.44c.096.056.157.158.158.27a.32.32 0 0 1-.158.275l-10.425 5.973c-.048.03-.103.045-.16.045"/></g><path d="M30.808 46.46a.31.31 0 0 1-.161-.042l-10.462-6a.31.31 0 0 1-.161-.273V28.118a.32.32 0 0 1 .161-.276c.1-.054.22-.054.32 0l10.46 6a.32.32 0 0 1 .156.275v12.03c.001.112-.06.217-.156.273a.32.32 0 0 1-.157.042m2.96 0a.33.33 0 0 1-.161-.042c-.097-.056-.157-.16-.157-.273V34.19a.32.32 0 0 1 .157-.275l10.458-5.994c.1-.056.22-.056.32 0s.155.16.156.272V40.15c0 .112-.06.216-.156.273l-10.462 6a.29.29 0 0 1-.156.042" fill="#59b4d9"/><path d="M33.768 46.46a.33.33 0 0 1-.161-.042c-.097-.056-.157-.16-.157-.273V34.19a.32.32 0 0 1 .157-.275l10.458-5.994c.1-.056.22-.056.32 0s.155.16.156.272V40.15c0 .112-.06.216-.156.273l-10.462 6a.29.29 0 0 1-.156.042" opacity=".5" fill="#fff"/><path d="M32.316 31.842c-.055 0-.1-.016-.157-.045l-10.494-6.015c-.1-.056-.16-.162-.16-.276s.06-.216.16-.27l10.427-5.976c.098-.054.217-.054.315 0l10.5 6.018c.096.056.157.158.158.27a.32.32 0 0 1-.158.275L32.475 31.8c-.048.03-.103.045-.16.045" fill="#3999c6"/></svg>