<svg xmlns="http://www.w3.org/2000/svg" width="50" height="37"><path d="M0 33a1.58 1.58 0 0 0 1.6 1.6H39a1.58 1.58 0 0 0 1.6-1.6V7.5H0z" fill="#0072c6"/><path d="M39.1 0H1.6A1.58 1.58 0 0 0 0 1.6v8.6h40.7V1.6A1.58 1.58 0 0 0 39.1 0" fill="#a0a1a2"/><g fill="#fff"><path d="M1.6 0A1.58 1.58 0 0 0 0 1.6V33a1.58 1.58 0 0 0 1.6 1.6h1.8L35.5 0z" opacity=".2"/><path d="M10.5 3.9h27.4v3.2H10.5z"/></g><path d="M9.2 5.4c0 2.2-1.8 4-4 4s-4-1.8-4-4 1.8-4 4-4 4 1.8 4 4" fill="#59b4d9"/><path d="M5.6 7.7L3.2 5.5l2.4-2.3h1L4.8 5.1h4.4v.7H4.8l1.8 1.9z" fill="#fff"/><path d="M50 33.3c0-2.1-1.7-3.8-3.7-3.8h-.5c.2-.8.4-1.7.4-2.7 0-5.5-4.5-10-10-10-4.4 0-8.1 2.9-9.4 6.8-.7-.2-1.4-.4-2.2-.4-3.8 0-6.8 3.1-6.8 6.9s3 6.9 6.8 6.9h22c1.9-.1 3.4-1.7 3.4-3.7" fill="#59b4d9"/><path d="M28.2 37c-.9-.9-1.6-2-1.9-3.4-.8-3.7 1.4-7.4 5.1-8.2.8-.2 1.5-.2 2.3-.1.3-3.5 2.4-6.5 5.6-8-1-.3-2-.5-3-.5-4.4 0-8.1 2.9-9.4 6.8-.7-.2-1.4-.4-2.2-.4-3.8 0-6.8 3.1-6.8 6.9s3 6.9 6.8 6.9z" opacity=".2" fill="#fff"/></svg>