<svg xmlns="http://www.w3.org/2000/svg" width="45.725" height="45.198"><path d="M39.245 12.664c0-.357.09-.8.09-1.16-.016-3.054-1.248-5.975-3.424-8.118S30.794.058 27.74.09c-3.693-.085-7.193 1.65-9.364 4.638a8.3 8.3 0 0 0-4.638-1.338A8.74 8.74 0 0 0 5 12.044v.713a8.65 8.65 0 0 0-5 7.844 9.66 9.66 0 0 0 9.993 9.543h24.614a9.66 9.66 0 0 0 9.993-9.543 8.46 8.46 0 0 0-5.355-7.937z" fill="#59b4d9"/><path d="M21.235 33.234l.94 2.232-2.114 3.7 2.32 2.32 3.82-1.792 2.232.94 1.168 3.494.118.41H33l1.38-3.905 2.232-.94 3.29 1.7.41.206 2.32-2.32-1.762-3.636.94-2.232 3.494-1.174.41-.118v-3.29l-3.9-1.38-.94-2.23 1.7-3.29.206-.41-2.232-2.32-3.7 1.79-2.232-.94-1.174-3.494-.208-.41H30.1l-1.38 3.905-2.23.94-3.29-1.7-.41-.206-2.2 2.643 1.586 3.377-.94 2.232-3.494 1.174-.41.206v3.14zm5.756-2.848a4.55 4.55 0 0 1 7.771-3.22 4.55 4.55 0 0 1-3.22 7.771 4.5 4.5 0 0 1-4.551-4.551z" fill="#fcd116"/><path d="M7.07 41.167l.868.93-.37 2.207 1.564.722 1.556-1.575 1.27.058 1.212 1.508.133.182 1.62-.6-.03-2.174.93-.868 1.93.242.24.027.722-1.563-1.528-1.475.058-1.27 1.51-1.212.18-.133-.6-1.62-2.174.03-.868-.93.243-1.93.026-.24-1.52-.738-1.5 1.553-1.27-.058-1.212-1.508-.176-.166-1.548.57.03 2.175-.93.867-1.925-.234-.24-.027-.606 1.7 1.394 1.376L6 38.26l-1.5 1.212-.165.176.57 1.548zm2.32-2.447a2.39 2.39 0 0 1 3.245-2.996 2.39 2.39 0 0 1-.177 4.413c-.594.226-1.255.204-1.832-.063S9.6 39.32 9.388 38.72z" fill="#7fba00"/><path d="M6.247 24.97c0-3.656 1.873-6.5 5.35-8.294v-.713a9.36 9.36 0 0 1 14.18-7.848 12.33 12.33 0 0 1 9.989-5.084A12.08 12.08 0 0 0 27.74 0c-3.697-.01-7.177 1.746-9.364 4.727a8.3 8.3 0 0 0-4.638-1.338A8.74 8.74 0 0 0 5 12.044v.713a8.65 8.65 0 0 0-5 7.844 9.46 9.46 0 0 0 7.5 9.275c-.83-1.5-1.262-3.2-1.253-4.905z" opacity=".2" fill="#fff"/></svg>