<svg xmlns="http://www.w3.org/2000/svg" width="50" height="50"><path d="M20.1 46.5H3.5V30h3.4c-.4-1-.6-2.1-.6-3.3v-.2H0V50h23.6V36h-3.5v10.5zM43.5 30h3v16.6H29.9V36.1h-3.5V50H50V26.5h-7.4c.5 1 .9 2 .9 3.3v.2zm-40-10V3.5h16.6v9.6c1-.8 2.3-1.3 3.5-1.6V0H0v23.5h6.8C7.3 22.3 8 21 9 20.1L3.5 20zm26.4-8.9V3.5h16.6v16.6h-7.3c.3 1 .5 2.2.5 3.4v.1H50V0H26.4v10.9c.3 0 .5-.1.8-.1.9.1 1.8.1 2.7.3z" fill="#a0a1a2"/><path fill="#59b4d9" d="M40.8 29.7c0-2.1-1.7-3.7-3.7-3.7h-.5c.2-.8.4-1.7.4-2.6a9.86 9.86 0 0 0-9.9-9.9c-4.3 0-8 2.8-9.3 6.8-.7-.2-1.4-.4-2.2-.4-3.7 0-6.7 3-6.7 6.8s3 6.8 6.7 6.8h21.8c1.9-.2 3.4-1.8 3.4-3.8"/><path opacity=".2" fill="#fff" d="M19.2 33.5c-.9-.9-1.5-2-1.8-3.3-.8-3.7 1.4-7.3 5.1-8.1.8-.2 1.5-.2 2.2-.1.3-3.4 2.4-6.5 5.5-8-.9-.3-1.9-.5-3-.5-4.3 0-8 2.8-9.3 6.8-.7-.2-1.4-.4-2.2-.4-3.7 0-6.7 3-6.7 6.8s3 6.8 6.7 6.8h3.5z"/></svg>