<svg xmlns="http://www.w3.org/2000/svg" width="50" height="42.6"><path d="M0 40.6c0 1.1.9 2 2 2h46c1.1 0 2-.9 2-2V9.3H0v31.3z" fill="#59b4d9"/><path d="M44 3.7c0-1.2-.9-2.1-2.1-2.1s-2.1.9-2.1 2.1v21.1h-4.1c-.4-2.4-1.6-4.7-3.4-6.6-2.4-2.4-5.5-3.7-8.9-3.7-3.3 0-6.5 1.3-8.9 3.7-.8.8-.8 2.1 0 3 .8.8 2.1.8 3 0 1.6-1.6 3.7-2.4 5.9-2.4s4.3.9 5.9 2.4c3.3 3.3 3.3 8.6 0 11.8-1.6 1.6-3.7 2.4-5.9 2.4s-4.3-.9-5.9-2.4c-.8-.8-2.1-.8-3 0-.8.8-.8 2.1 0 3 2.4 2.4 5.5 3.7 8.9 3.7 3.3 0 6.5-1.3 8.9-3.7 2-2 3.1-4.4 3.5-7h6.1c1.2 0 2.1-.9 2.1-2.1V3.7zM23.4 21.9c-2 0-3.7 1.2-4.5 2.9h-8.7V3.7c0-1.2-.9-2.1-2.1-2.1-1.1 0-2 1-2 2.1v23.2c0 1.2.9 2.1 2.1 2.1H19c.8 1.7 2.5 2.9 4.5 2.9a4.95 4.95 0 0 0 5-5c-.1-2.8-2.4-5-5.1-5z" fill="#fff"/><path d="M48 0H2C.9 0 0 .9 0 2v7.6h50V2c0-1.1-.9-2-2-2" fill="#a0a1a2"/><path d="M2 0C.9 0 0 .9 0 2v38.6c0 1.1.9 2 2 2h2.2L43.6 0H2z" opacity=".2" fill="#fff"/></svg>