<svg xmlns="http://www.w3.org/2000/svg" width="36.654" height="50.001"><path d="M31.185 5.96C20.17 4.745 18.326 0 18.326 0S15.847 6.242 0 6.242v25.61c0 3.097 1.72 5.997 4.104 8.532C9.506 46.133 18.327 50 18.327 50s18.327-8.03 18.327-18.15v-25.6c-2.038 0-3.85-.103-5.47-.282z" fill="#0072c6"/><path d="M22.86 16.543L31.185 5.96C20.17 4.745 18.326 0 18.326 0S15.847 6.242 0 6.242v25.61c0 3.097 1.72 5.997 4.104 8.532l6.154-7.822z" opacity=".2" fill="#fff"/><path d="M7.298 29.998h.03V15l20.114-.03L7.298 15z" fill="#59b4d9"/><g fill="#fff"><path d="M29.756 13H6.74c-.782 0-1.413.7-1.413 1.48v16.05c0 .776.63 1.468 1.413 1.468l8.567.002c.795 2.98-.265 3.423-4.897 3.43h-.083V37h16v-1.57h-.083c-4.632-.005-5.692-.448-4.897-3.43l-.006-.002h8.415c.78 0 1.57-.692 1.57-1.468V14.48c0-.783-.8-1.48-1.57-1.48zm-.46 16.998h-22V15h22zM18.34 22.045c-.025-.001-.05-.007-.07-.02l-4.578-2.643c-.042-.025-.07-.07-.07-.12s.027-.095.07-.12l4.55-2.625a.14.14 0 0 1 .137 0l4.58 2.644c.043.024.068.07.068.12s-.025.095-.068.12l-4.55 2.625c-.02.012-.045.018-.07.02" opacity=".95"/><path d="M17.684 28.468a.13.13 0 0 1-.07-.019l-4.564-2.634c-.044-.024-.07-.07-.07-.12V20.41c0-.05.027-.095.07-.12s.096-.025.14 0l4.564 2.633c.042.026.068.072.068.12v5.286c0 .05-.027.095-.068.12-.02.012-.045.018-.07.02" opacity=".8"/><path d="M18.976 28.468c-.025 0-.05-.007-.072-.02a.14.14 0 0 1-.067-.12v-5.253c0-.05.027-.095.067-.12l4.564-2.633c.042-.025.095-.025.137 0s.07.07.07.12v5.252c0 .05-.026.096-.07.12l-4.562 2.634c-.02.012-.043.02-.067.02" opacity=".6"/></g></svg>