<svg xmlns="http://www.w3.org/2000/svg" height="49.912" width="32.566"><path d="M32.538 14.612v-.3c0-7.7-6.6-14.1-14.7-14.2-.2-.3-4.8.1-4.8.1-7.3.9-13 7-13 14.1 0 .2-.8 5.8 4.9 10.5 2.6 2.3 5.3 8.5 5.7 10.3l.3.6h10.6l.3-.6c.4-1.8 3.2-8 5.7-10.2 5.7-4.8 5-10.1 5-10.3z" fill="#68217a"/><path d="M11.138 39.312h10.6v3.4h-10.6zm0 7.1l3.3 3.5h3.9l3.3-3.5z" fill="#7a7a7a"/><g fill="#fff"><path d="M19.038 35.212h-2v-12.7h-1.7v12.6h-2v-12.6h-1.7a3.76 3.76 0 0 1-3.7-3.7c0-2 1.6-3.7 3.7-3.7s3.7 1.7 3.7 3.7v1.7h1.7v-1.7a3.76 3.76 0 0 1 3.7-3.7 3.76 3.76 0 0 1 3.7 3.7 3.76 3.76 0 0 1-3.7 3.7h-1.7v12.7zm-7.4-18.1c-.9 0-1.7.7-1.7 1.7 0 .9.8 1.7 1.7 1.7h1.7v-1.7c-.1-.9-.8-1.7-1.7-1.7zm9.1 0c-.9 0-1.7.8-1.7 1.7v1.7h1.7c.9 0 1.7-.8 1.7-1.7s-.7-1.7-1.7-1.7z" opacity=".65"/><path d="M17.838.112c-.2-.3-4.8.1-4.8.1-7.3.9-13 7-13 14.1 0 .2-.7 5.1 3.9 9.6l21.6-21.6c-2.3-1.4-4.9-2.2-7.7-2.2z" opacity=".15"/></g></svg>