<svg xmlns="http://www.w3.org/2000/svg" width="50" height="50"><path fill="#7fba00" d="M25 50c-1.2 0-2.4-.5-3.3-1.4L1.4 28.3C.5 27.4 0 26.2 0 25s.5-2.4 1.4-3.3L21.7 1.4C22.6.5 23.8 0 25 0s2.4.5 3.3 1.4l20.4 20.4c.9.9 1.4 2 1.4 3.3 0 1.2-.5 2.4-1.4 3.3L28.3 48.6c-.9.9-2.1 1.4-3.3 1.4"/><g fill="#fff"><path d="M29.738 18.584a7.68 7.68 0 0 1-4.68 1.589 7.7 7.7 0 0 1-6.131-3.025c-2.6-3.382-1.95-8.22 1.437-10.81C21.76 5.262 23.4 4.75 25.043 4.75c2.32 0 4.615 1.042 6.13 3.026a7.71 7.71 0 0 1-1.436 10.809"/><path opacity=".15" d="M28.3 1.4C27.4.5 26.2 0 25 0s-2.4.5-3.3 1.4L1.4 21.7C.5 22.6 0 23.8 0 25s.5 2.4 1.4 3.3l11.5 11.5L34.6 7.7l-6.3-6.3z"/><path d="M25 45.6l6.6-6.6h-4.7V19.15H23V39h-4.6z"/><path d="M39.33 33.48v-9.334L36.077 27.4l-8.444-8.444-2.828 2.828 8.444 8.444-3.253 3.253z"/><path d="M10.685 33.515h9.333l-3.252-3.252 8.68-8.68-2.83-2.83-8.68 8.68-3.252-3.252z"/></g><path fill="#59b4d9" d="M29.115 17.77a6.66 6.66 0 0 1-4.058 1.378c-2.012 0-4.002-.903-5.316-2.623-2.246-2.933-1.692-7.127 1.246-9.375a6.63 6.63 0 0 1 4.057-1.377 6.67 6.67 0 0 1 5.316 2.624c2.248 2.933 1.688 7.128-1.245 9.373"/><path fill="#fff" d="M27.886 13.635a1.44 1.44 0 0 0 2.018.269c.033-.025.058-.056.088-.083l1.344.925c.075-.193.126-.38.18-.573l-1.148-.898c.17-.45.117-.974-.195-1.384-.447-.578-1.238-.725-1.856-.368l-2.22-2.096C28.55 8.108 30.29 8.3 30.29 8.3c-.29-.37-.617-.696-.965-.99-1.034-.16-2.64-.142-4.476.834v-.001L22.98 6.082a6.23 6.23 0 0 0-.886.36c.468.766 1.098 1.538 1.807 2.292-.587.42-1.245.972-1.853 1.614l-.225.25c-.363-.076-.745-.054-1.102.075-.606-1.307-.557-2.357-.46-2.898-.263.276-.51.565-.72.874-.158.646-.203 1.578.264 2.7-.54.707-.566 1.71-.001 2.45.047.06.097.118.15.173-.246.84-.357 1.65-.39 2.344.063.086.063.156.126.24.32.41.724.758 1.113 1.072-.048-.736.004-1.82.46-3.043.314.024.633-.026.932-.15l.542.458c.656.52 1.31.924 1.95 1.242a1.33 1.33 0 0 0 .259.941c.45.582 1.286.69 1.868.246.12-.093.217-.205.296-.325 1.04.232 1.95.273 2.624.273.103 0 .582-.652.857-1.056-.4.086-1.628.253-3.29-.225a1.33 1.33 0 0 0-.24-.53c-.422-.554-1.195-.674-1.77-.303a12.61 12.61 0 0 1-1.808-1.201l-.364-.3c.382-.6.422-1.372.085-2.02l.233-.23a14.63 14.63 0 0 1 1.744-1.411l-.063-.062.064.06 2.558 2.158c-.22.47-.186 1.043.15 1.484z"/></svg>