<svg xmlns="http://www.w3.org/2000/svg" width="50" height="46"><path d="M6 32h38l6 11H0z" fill="#b8d432"/><path d="M0 43h50v3H0z" fill="#7a7a7a"/><path d="M0 43h50v3H0z" opacity=".5" fill="#dd5900"/><path d="M21.4 34.9H8.8V22.5h2.5c-.3-.8-.5-1.6-.5-2.4v-.2H6.2v17.6h17.7V27h-2.6v7.9zm17.5-12.4h2.3V35H28.6v-8H26v10.5h17.7V19.8h-5.6c.4.7.7 1.5.7 2.4.1.2.1.2.1.3zM8.8 15V2.6h12.5v7.2a6.82 6.82 0 0 1 2.6-1.2V0H6.2v17.7h5.1c.3-1 .9-1.9 1.6-2.6zm19.8-6.6V2.6h12.5V15h-5.4a10.68 10.68 0 0 1 .3 2.5v.1h7.7V0H26.1v8.2h.6c.6-.1 1.3 0 1.9.2z" fill="#a0a1a2"/><path d="M36.8 22.3c0-1.5-1.2-2.8-2.8-2.8h-.3c.2-.6.3-1.3.3-2 0-4.1-3.3-7.5-7.4-7.5-3.3 0-6 2.1-7 5.1-.5-.2-1.1-.3-1.7-.3-2.8 0-5.1 2.3-5.1 5.1s2.3 5.1 5.1 5.1h16.4c1.4 0 2.5-1.2 2.5-2.7" fill="#59b4d9"/><path d="M20.6 25.1c-.7-.7-1.2-1.5-1.4-2.5-.6-2.7 1.1-5.5 3.8-6.1.6-.1 1.1-.2 1.7-.1.2-2.6 1.8-4.8 4.1-6-.7-.2-1.5-.4-2.2-.4-3.3 0-6 2.1-7 5.1-.5-.2-1.1-.3-1.7-.3-2.8 0-5.1 2.3-5.1 5.1s2.3 5.1 5.1 5.1h2.7z" opacity=".2" fill="#fff"/></svg>