<svg xmlns="http://www.w3.org/2000/svg" width="50" height="46.1"><path d="M32.4 36.5H18.8c1.6 5.8-.6 6.6-10.2 6.6v3h32.6v-3c-9.5 0-10.4-.8-8.8-6.6" fill="#7a7a7a"/><path d="M47 0H2.7C1.2 0 0 1.3 0 2.8v30.9c0 1.5 1.2 2.8 2.7 2.8H47c1.5 0 3-1.3 3-2.8V2.8C50 1.3 48.5 0 47 0m-.8 3.8v28.8H3.8V3.8l42.4-.1z" fill="#a0a1a2"/><path d="M3.8 32.6V3.8l42.4-.1-.1.1v28.8z" fill="#59b4d9"/><path d="M3.8 32.6V3.8l38.7-.1L47 0H2.7C1.2 0 0 1.3 0 2.8v30.9c0 1.5 1.2 2.8 2.7 2.8h1.1l4.6-3.8H3.8z" opacity=".2" fill="#fff"/><path d="M3.8 3.8l38.7-.1-38.7.1v28.8z" fill="#59b4d9"/><path d="M8.7 43.1h32.7v3H8.7z" fill="#a0a1a2"/><path d="M25.5 2a.68.68 0 0 1-.7.7.68.68 0 0 1-.7-.7.68.68 0 0 1 .7-.7c.4 0 .7.4.7.7" fill="#b8d432"/><g fill="#fff"><path d="M41.3 17.9c.3-.3.3-.8 0-1.2l-1.6-1.6-7.1-7c-.3-.3-.8-.3-1.2 0a.75.75 0 0 0 0 1.2l7.5 7.4c.3.3.3.9 0 1.2l-7.5 7.6c-.3.3-.3.9 0 1.2s.8.3 1.2 0l7.1-7zm-32.6 0c-.3-.3-.3-.8 0-1.2l1.6-1.6 7.1-7c.3-.3.8-.3 1.2 0a.75.75 0 0 1 0 1.2l-7.5 7.4c-.3.3-.3.9 0 1.2l7.5 7.6c.3.3.3.9 0 1.2s-.8.3-1.2 0l-7.1-7zm11.8-.6c0 1.3-1 2.2-2.2 2.2s-2.3-1-2.3-2.2c0-1.1.9-2.2 2.3-2.2 1.3 0 2.2 1 2.2 2.2zm6.7 0c0 1.3-1 2.2-2.2 2.2s-2.3-1-2.3-2.2c0-1.1 1-2.2 2.3-2.2s2.2 1 2.2 2.2z"/><circle cx="31.8" cy="17.3" r="2.2"/></g></svg>