<svg xmlns="http://www.w3.org/2000/svg" width="50" height="48"><path d="M44 48H6a6 6 0 0 1-6-6V2h50v40a6 6 0 0 1-6 6z" fill="#3e3e3e"/><path d="M4 17h42v12H4z" fill="#fff"/><path d="M4 17h42v12H4z" opacity=".85" fill="#804998"/><path d="M4 32h42v12H4z" fill="#fff"/><g fill="#59b4d9"><path d="M4 32h42v12H4z" opacity=".5"/><path d="M4 2h42v12H4z"/></g><g fill="#fff"><path d="M4 17h42v2H4z" opacity=".25"/><path d="M4 2h42v2H4z" opacity=".2"/><path d="M4 32h42v2H4z" opacity=".4"/><path d="M6 48h2.696L40.08 2H0v40a6 6 0 0 0 6 6z" opacity=".15"/></g><path d="M12.91 22.8a.9.9 0 0 0 .892-.795L15.994 1a.9.9 0 0 0-.892-1h-4.386a.9.9 0 0 0-.891 1.001l2.193 21.005c.052.452.435.794.89.794z" fill="#59b4d9"/><g fill="#fff"><path d="M15.212.8L12.996 22h-.173L10.607.8z" opacity=".6"/><path d="M12.91.8l.087 21.2h-.173L10.607.8z" opacity=".6"/></g><path d="M39 27c.57 0 1.05-.427 1.115-.993l2.74-24.756A1.12 1.12 0 0 0 41.741 0H36.26c-.67 0-1.19.584-1.115 1.25l2.74 24.756c.066.566.545.993 1.115.993z" fill="#59b4d9"/><path d="M41.878 1l-2.77 25h-.216l-2.77-25z" opacity=".6" fill="#fff"/><path d="M32.636 22.8a.9.9 0 0 0 .892-.795L35.72 1A.9.9 0 0 0 34.829 0h-4.386a.9.9 0 0 0-.892 1.001l2.193 21.005a.9.9 0 0 0 .892.794z" fill="#59b4d9"/><g fill="#fff"><path d="M30.557 1h4.16l-2.08 19.915z" opacity=".6"/><path d="M30.557 1h2.08v19.915zM39 1l.108 25h-.216l-2.77-25z" opacity=".6"/></g></svg>