<svg xmlns="http://www.w3.org/2000/svg" width="49.8" height="42.8"><path d="M7.9 24.8c-2.1 0-3.6-.4-4.5-1.1-.9-.8-1.3-2.1-1.3-4v-3.4c0-1.7-.7-2.6-2.1-2.6v-2.6c1.4 0 2.1-.9 2.1-2.7V5.2c0-1.9.4-3.3 1.3-4.1S5.8 0 7.9 0v2.6c-1.5 0-2.3.8-2.3 2.5v3c0 2.3-.7 3.7-2.2 4.3 1.4.6 2.2 2 2.2 4.3v2.9c0 .9.2 1.6.5 2 .4.4.9.6 1.7.6v2.6h.1zm34-6.8c2.1 0 3.6.4 4.5 1.1.9.8 1.3 2.1 1.3 4v3.4c0 1.7.7 2.6 2.1 2.6v2.6c-1.4 0-2.1.9-2.1 2.7v3.1c0 1.9-.4 3.3-1.3 4.1s-2.4 1.2-4.5 1.2v-2.6c1.5 0 2.3-.8 2.3-2.5v-3c0-2.3.7-3.7 2.2-4.3-1.4-.6-2.2-2-2.2-4.3v-2.9c0-.9-.2-1.6-.5-2-.4-.4-.9-.6-1.7-.6z" fill="#59b4d9"/><path d="M25.6 23.4H12.8c-1.3 0-2.4-1.1-2.4-2.1s1.1-1.9 2.4-1.9h12.8c1.4 0 2.4.8 2.4 1.9s-1 2.1-2.4 2.1zm11 9.1H16.8c-1.3 0-2.4-1.1-2.4-2.1s1.1-1.9 2.4-1.9h19.8c1.4 0 2.4.8 2.4 1.9s-1 2.1-2.4 2.1zm0-19H12.8c-1.3 0-2.4-1.1-2.4-2.1s1.1-1.9 2.4-1.9h23.8c1.4 0 2.4.8 2.4 1.9s-1 2.1-2.4 2.1zm-4-9.5H12.8c-1.3 0-2.4-1.1-2.4-2.1S11.5 0 12.8 0h19.8C34 0 35 .8 35 1.9S34 4 32.6 4zm-1 38.8H16.8c-1.3 0-2.4-1.1-2.4-2.1s1.1-1.9 2.4-1.9h14.8c1.3 0 2.4.8 2.4 1.9 0 1-1 2.1-2.4 2.1z" fill="#a0a1a2"/></svg>