<svg xmlns="http://www.w3.org/2000/svg" xmlns:xlink="http://www.w3.org/1999/xlink" height="50" width="40"><path d="M38.4 0H1.6A1.58 1.58 0 0 0 0 1.6v46.7c0 1 .7 1.7 1.6 1.7h36.8a1.58 1.58 0 0 0 1.6-1.6V1.6A1.58 1.58 0 0 0 38.4 0z" fill="#59b4d9"/><g fill="#fff"><path d="M1.6 0A1.58 1.58 0 0 0 0 1.6v46.7c0 1 .7 1.7 1.6 1.7H17L34.9 0z" opacity=".1"/><path d="M20.3 25.3h13.3v2.6H20.3z" opacity=".6"/><use xlink:href="#B"/><path d="M5.9 25.1l-.4-.5c-.1-.1-.1-.3 0-.4L6.8 23c.1-.1.1-.1.2-.1s.2 0 .2.1l3.5 3.8 6-7.8c.1-.1.2-.1.2-.1.1 0 .1 0 .2.1l1.4 1.1c.1.1.1.1.1.2s0 .2-.1.2l-7.8 10z"/><path d="M20.3 11.4h13.3V14H20.3z" opacity=".6"/><use xlink:href="#B" y="28.5"/><path d="M20.3 39.9h13.3v2.6H20.3z" opacity=".6"/></g><defs ><path id="B" d="M5.9 11.5l-.4-.5c-.1-.1-.1-.3 0-.4l1.3-1.2c.1-.1.1-.1.2-.1s.2 0 .2.1l3.5 3.8 6-7.8c.1-.1.2-.1.2-.1.1 0 .1 0 .2.1l1.4 1.1c.1.1.1.1.1.2s0 .2-.1.2l-7.8 10z"/></defs></svg>