<svg xmlns="http://www.w3.org/2000/svg" xmlns:xlink="http://www.w3.org/1999/xlink" height="50" width="50"><path fill="#777" d="M29.4 47.5c0 1.4-1.1 2.5-2.5 2.5H2.5C1.1 50 0 48.9 0 47.5v-45C0 1.1 1.1 0 2.5 0h24.3c1.4 0 2.5 1.1 2.5 2.5v45z"/><path fill="#1e1e1e" d="M4.3 27c0-1.8 1.4-3.2 3.2-3.2h14.6c1.8 0 3.2 1.4 3.2 3.2s-1.4 3.2-3.2 3.2H7.5c-1.8 0-3.2-1.4-3.2-3.2z"/><circle fill="#b8d432" cx="7.6" cy="27" r="2.1"/><path fill="#1e1e1e" d="M4.3 17.5c0-1.8 1.4-3.2 3.2-3.2h14.6c1.8 0 3.2 1.4 3.2 3.2s-1.4 3.2-3.2 3.2H7.5c-1.8 0-3.2-1.4-3.2-3.2z"/><circle fill="#b8d432" cx="7.6" cy="17.5" r="2.1"/><path fill="#1e1e1e" d="M4.3 8.1c0-1.8 1.4-3.2 3.2-3.2h14.6c1.8 0 3.2 1.4 3.2 3.2s-1.4 3.2-3.2 3.2H7.5c-1.8 0-3.2-1.5-3.2-3.2z"/><circle fill="#b8d432" cx="7.6" cy="8.1" r="2.1"/><path fill="#59b4d9" d="M48.8 13H21.2c-.7 0-1.2.5-1.2 1.2v34.6c0 .7.5 1.2 1.2 1.2h27.6c.7 0 1.2-.5 1.2-1.2V14.2c0-.7-.5-1.2-1.2-1.2z"/><g fill="#fff"><path opacity=".1" d="M21.2 13c-.7 0-1.2.5-1.2 1.2v34.6c0 .7.5 1.2 1.2 1.2h11.5l13.5-37h-25z"/><path opacity=".6" d="M35.2 31.7h10v2h-10z"/><use xlink:href="#B"/><use xlink:href="#B" y="10.1"/><path opacity=".6" d="M35.2 21.5h10v2h-10z"/><use xlink:href="#B" y="21.1"/><path opacity=".6" d="M35.2 42.5h10v2h-10z"/></g><defs ><path id="B" d="M24.4 21.5l-.3-.4c-.1-.1-.1-.2 0-.3l1-.9s.1-.1.2-.1.1 0 .2.1l2.6 2.8 4.5-5.7c0-.1.1-.1.2-.1h.1l1 .8s.1.1.1.2v.2l-5.8 7.4-3.8-4z"/></defs></svg>