<svg xmlns="http://www.w3.org/2000/svg" width="50.001" height="45.312"><path d="M46.28 21.656c0-.375-.03-.734-.063-1.11L50 18.453a18.72 18.72 0 0 0-.969-3.625l-4.313.078c-.328-.672-.688-1.328-1.094-1.938l2.22-3.703c-.797-.97-1.688-1.86-2.64-2.64L41.014 7.92l-.922 1.375-1.984 2.922a11.92 11.92 0 0 1 4.625 9.438c0 6.594-5.328 11.938-11.922 11.938-6.578 0-11.922-5.344-11.922-11.938 0-5.906 4.28-10.78 9.906-11.75l.906-3.672-2.094-3.78c-1.248.203-2.45.53-3.607.968l.063 4.328a13.84 13.84 0 0 0-1.922 1.094l-3.703-2.22c-.97.78-1.844 1.672-2.64 2.64l2.22 3.703c-.422.61-.766 1.266-1.094 1.938l-4.328-.078a19.91 19.91 0 0 0-.953 3.625l3.766 2.094c-.03.375-.047.734-.047 1.11s.016.734.047 1.11L11.64 24.86a18.72 18.72 0 0 0 .969 3.625l4.313-.078c.328.672.672 1.328 1.094 1.938l-2.22 3.703a19.27 19.27 0 0 0 2.641 2.656l3.703-2.234c.61.422 1.266.78 1.922 1.11L24 39.9c1.156.438 2.36.766 3.61.97l2.11-3.78c.36.03.72.063 1.094.063s.75-.03 1.11-.063l2.094 3.78a18.72 18.72 0 0 0 3.625-.969l-.078-4.313a15.99 15.99 0 0 0 1.938-1.109l3.703 2.234a20.27 20.27 0 0 0 2.641-2.656l-2.22-3.703c.406-.61.766-1.266 1.094-1.938l4.313.078a18.72 18.72 0 0 0 .969-3.625l-3.78-2.094c.03-.374.06-.733.06-1.108z" fill="#a0a1a2"/><path d="M16 38.03v-1.86l-.102-.094-1.902-.64-.5-1.28.942-1.953.104-.22-.59-.594-.716-.72-.25.125-1.86.953-1.28-.36-.81-2.078H7.203l-.094.094-.64 1.898-1.296.488-2.156-1.037-1.313 1.302.125.245.953 1.857-.53 1.28-2.25.81v1.86l.266.078 1.984.656.53 1.28-1.016 2.156 1.313 1.328.25-.125 1.86-.953 1.28.53.813 2.25h1.86l.078-.266.656-1.984 1.266-.53 2.172 1.016 1.313-1.313-.125-.25-.953-1.86.367-1.297L16 38.03zm-7.828 1.72c-1.438 0-2.61-1.172-2.61-2.61s1.172-2.61 2.61-2.61 2.594 1.172 2.594 2.61-1.157 2.61-2.594 2.61z" fill="#7a7a7a"/><path d="M33.297 0l-.72 2.266-1.234 3.938-.594 1.89-.516 1.656L26.64 21.17c-.078.22.03.39.28.39h3.313c.11 0 .188.03.234.094.078.078.094.188.047.313l-3.422 8.297c-.094.22-.03.266.125.078l10.83-12.282c.156-.188.094-.328-.14-.328l-3.547.016-.656.016c-.234 0-.344-.172-.22-.375l3.375-6.016.797-1.438.922-1.656 1.97-3.484 1.125-2.03A21.54 21.54 0 0 0 33.297 0z" fill="#fcd116"/><path d="M39.505 1.68L31.66 17.75h1.953c-.174-.037-.25-.183-.14-.36l3.375-6.016.797-1.438.922-1.656 1.97-3.484 1.125-2.03a22.19 22.19 0 0 0-2.157-1.086zM37.92 17.734l-2.2.01-8.093 12.14L38.06 18.062c.156-.187.094-.328-.14-.328z" opacity=".3" fill="#ff8c00"/></svg>