<svg xmlns="http://www.w3.org/2000/svg" viewBox="0 0 50 50"><path fill="#fcd116" d="M12.4 0H3.7L0 11.6c-.1.3 0 .5.3.5h4.1c.1 0 .2 0 .3.1s.1.2.1.4L.6 22.8c-.1.3 0 .3.2.1L14.1 7.8c.2-.2.1-.4-.2-.4H8.7c-.3 0-.4-.2-.3-.4l4-7z"/><path fill="#0072c6" d="M45.1 20v-1.1c0-5.8-4.8-10.5-10.6-10.5-3.5 0-6.7 1.7-8.7 4.4-1.3-.8-2.7-1.2-4.3-1.2-4.2 0-7.6 3.2-8 7.2.6-.1 1.3-.1 2-.1 3.1 0 6.1 1 8.5 2.8 1.8-4.2 6.4-6.9 11.5-7v-3.6l6.3 5.4-6.3 5.3v-3.5c-2.9.1-5.8 1.2-7.4 3.9h.3c6 0 10.9 4.5 11.6 10.2a13.11 13.11 0 0 1 3.3 3.8 8.68 8.68 0 0 0 6.6-8.5c.1-3.5-1.7-6.1-4.8-7.5z"/><path fill="#59b4d9" d="M4.9 33.8c0-.4-.1-.7-.1-1.1 0-5.8 4.8-10.5 10.6-10.5 3.5 0 6.7 1.7 8.7 4.4 1.3-.8 2.7-1.2 4.3-1.2 4.4 0 8.1 3.6 8.1 8v.6c3 1.5 4.6 4 4.6 7.2 0 5-4 8.8-9.2 8.8H9.2C4 50 0 46.1 0 41.2c0-3.3 1.8-5.9 4.9-7.4z"/><path opacity=".3" d="M13.9 7.4h-2.7L1.3 22.3 14.1 7.8c.2-.2.1-.4-.2-.4zM12.4 0H9.8L6.2 7.4h2.4c-.2 0-.3-.2-.2-.4l4-7z" fill="#ff8c00"/></svg>