<svg xmlns="http://www.w3.org/2000/svg" width="30" height="30"><path fill="#a0a1a2" d="M0 0h30v30H0z"/><path fill="#fff" d="M9.143 11.378c0-.804.258-1.62.774-2.444s1.27-1.51 2.26-2.05 2.146-.813 3.466-.813c1.228 0 2.31.227 3.25.68s1.665 1.068 2.178 1.847a4.53 4.53 0 0 1 .768 2.539c0 .72-.146 1.35-.438 1.892s-.64 1.01-1.04 1.403l-2.165 1.987-.692.69c-.173.2-.302.38-.387.547s-.15.33-.197.494l-.21.87c-.16.88-.664 1.32-1.51 1.32-.44 0-.81-.144-1.1-.432s-.45-.716-.45-1.282c0-.71.1-1.326.33-1.848a4.7 4.7 0 0 1 .876-1.371c.364-.394.854-.86 1.473-1.403l1.175-1.073c.24-.24.443-.5.61-.806a1.96 1.96 0 0 0 .247-.965c0-.677-.252-1.25-.755-1.714s-1.153-.698-1.95-.698c-.93 0-1.616.235-2.057.705s-.813 1.162-1.117 2.076c-.288.957-.834 1.435-1.638 1.435a1.61 1.61 0 0 1-1.2-.501c-.326-.334-.49-.696-.49-1.085zm6.195 13.914c-.517 0-.967-.167-1.352-.5s-.578-.803-.578-1.403a1.81 1.81 0 0 1 .559-1.346 1.88 1.88 0 0 1 1.371-.546 1.83 1.83 0 0 1 1.346.546c.365.364.546.813.546 1.346 0 .593-.2 1.058-.57 1.396s-.822.508-1.32.508z"/></svg>