<svg xmlns="http://www.w3.org/2000/svg" width="32" height="31.9" viewBox="-783 985 32 31.9"><g fill="#b8d432"><path d="M-763.288 1000.266l-7.074-10.063 1.31-.92 7.074 10.063z"/><path d="M-757.03 1011.085l-6.26-10.936 1.39-.795 6.26 10.936z"/><path d="M-777.836 1001.936l-.132-1.595 15.248-1.266.132 1.595z"/><path d="M-767.31 1009.197l-1.37-.826 5.367-8.908 1.37.826z"/></g><path d="M-751.5 985h-8.1c-.3 0-.5.2-.5.6v2.9a.47.47 0 0 0 .5.5h4.6v4.5c0 .3.2.5.6.5h2.9a.47.47 0 0 0 .5-.5v-8a.47.47 0 0 0-.5-.5zm-31 31.9h8.1c.3 0 .5-.2.5-.6v-2.9a.47.47 0 0 0-.5-.5h-4.6v-4.5c0-.3-.2-.5-.6-.5h-2.9a.47.47 0 0 0-.5.5v8a.47.47 0 0 0 .5.5z" fill="#0072c6"/><g fill="#006dd6"><circle cx="-769.6" cy="989.9" r="3.1"/><circle cx="-762.5" cy="999.9" r="3.7"/><circle cx="-756.3" cy="1010.9" r="2.9"/><circle cx="-767.8" cy="1008.9" r="2.5"/><circle cx="-777.9" cy="1001.3" r="2.5"/></g></svg>