<svg xmlns="http://www.w3.org/2000/svg" width="47.689" height="47.823" fill="none"><path d="M33.804 20.014c3.556 0 6.792 1.337 9.252 3.534V1.97c0-1.09-.88-1.97-1.97-1.97H1.97C.88 0 0 .88 0 1.97v32.074c0 1.09.88 1.97 1.97 1.97h18.115c-.102-.682-.157-1.385-.157-2.1-.007-7.674 6.213-13.902 13.877-13.902z" fill="#00947d"/><path d="M13.12 3.613H3.543v6.07h9.578z" fill="#1fc1a7"/><path d="M26.29 3.613h-9.58v6.07h9.58z" fill="#61ddc9"/><path d="M13.12 13.232H3.543v6.07h9.578z" fill="#9bfdec"/><path d="M13.12 22.852H3.543v5.982h9.578z" fill="#00b99d"/><path d="M26.29 13.232h-9.58v6.07h9.58z" fill="#04bca1"/><path d="M39.485 3.613h-9.578v6.07h9.578z" fill="#1dc0a7"/><path d="M43.053 34.044v-10.49a13.82 13.82 0 0 0-9.251-3.533c-7.664 0-13.884 6.22-13.884 13.902a14.25 14.25 0 0 0 .157 2.101h21c1.1-.007 1.97-.887 1.97-1.978z" fill="#00ba9d"/><path d="M43.057 23.553V34.05a1.97 1.97 0 0 1-1.969 1.971h-21c1.008 6.678 6.772 11.8 13.727 11.8 7.67-.007 13.884-6.228 13.884-13.91a13.87 13.87 0 0 0-4.632-10.362z" fill="#27cfb2"/><path d="M40.937 27.074l-8.7 8.704-4.47-4.475-2.67 2.68 7.3 7.32 2.67-2.68 8.7-8.704z" fill="#c5fdf4"/></svg>