<svg xmlns="http://www.w3.org/2000/svg" width="84.1" height="111.4"><path d="M0 15.2v80.9c0 8.5 18.8 15.2 41.9 15.2V15.2z" fill="#005f87"/><path d="M41.5 111.4h.7c23.3 0 41.9-6.7 41.9-15.2v-81H41.5z" fill="#0f80b0"/><path d="M84.1 15.2c0 8.3-18.8 15.2-41.9 15.2S0 23.5 0 15.2 18.8 0 41.9 0s42.2 7 42.2 15.2" fill="#fff"/><path d="M75.6 14.3c0 5.6-15 10.1-33.4 10.1S8.5 20 8.5 14.3s15-10.1 33.4-10.1 33.7 4.5 33.7 10.1" fill="#7fb900"/><path d="M68.4 20.4c4.5-1.8 7-3.8 7-6.1 0-5.6-15-10.1-33.4-10.1S8.5 8.7 8.5 14.3c0 2.2 2.7 4.5 7 6.1 6.1-2.5 15.7-3.8 26.5-3.8s20.3 1.6 26.4 3.8" fill="#b7d332"/><path d="M75.5 72.7c0 4.8-3.3 8.9-8 8.9h-18v-7h16c1-.1 1.8-2.9 1.8-2.9l-1.8.9h-10c-4 0-7-2.3-7-6v-11l-3-1v19h-8V59.1L33 69.3c-1.2 2.7-2.4 4.4-5.4 4.4-2.9.1-5.6-1.7-6.7-4.4l-4.3-10.6v15h-8V51.4c0-2.6.5-4.2 2.9-4.9 1.1-.4 2.2-.6 3.4-.6 2.7-.1 5.1 1.4 6.1 3.9l6.6 12.8 5.3-12.8c1-2.5 3.4-4 6.1-3.9 1.1 0 2.3.2 3.4.5 2.4.8 3.2 2.6 3.2 5.2v2.8c0 .1-.1.2 0 .2h12v10c.5.6 1.2.9 2 1h7v-11h9v18.1z" fill="#fff"/></svg>