<svg xmlns="http://www.w3.org/2000/svg" width="48" height="48"><path d="M48 24c0 13.254-10.746 24-24 24S0 37.254 0 24 10.744 0 24 0s24 10.746 24 24" fill="#804998"/><g fill="#fff"><path d="M12.5 43.918C1.498 37.567-2.27 23.5 4.08 12.5S24.498-2.27 35.5 4.08" opacity=".15"/><path d="M37.06 28.06l-2.12-2.12-9.256 9.256c-.06-.027-.122-.048-.184-.072V21h-3v14.123l-.184.072-6.5-6.5c.23-.517.363-1.085.363-1.687-.005-2.3-1.87-4.163-4.17-4.166s-4.167 1.873-4.166 4.17 1.87 4.166 4.167 4.166h.003a4.13 4.13 0 0 0 1.682-.362l6.5 6.5c-.238.53-.362 1.105-.363 1.687.004 2.3 1.867 4.163 4.167 4.166h.003c2.3-.004 4.164-1.87 4.166-4.17 0-.6-.134-1.166-.363-1.682zM12 26.832c.046 0 .088.02.12.05l-.237.237c-.03-.032-.05-.074-.05-.12-.001-.08.09-.167.167-.167zm12 12.336c-.044 0-.087-.018-.118-.05L24 39l.12.12c-.032.03-.074.05-.12.05z"/></g><path d="M26.168 39a2.17 2.17 0 0 1-2.167 2.169 2.17 2.17 0 0 1-2.169-2.167 2.17 2.17 0 0 1 2.167-2.169H24a2.17 2.17 0 0 1 2.168 2.167" fill="#7fba00"/><path d="M36 31.168c-2.296 0-4.165-1.868-4.167-4.166s1.867-4.168 4.166-4.17 4.165 1.866 4.17 4.166c-.001 2.3-1.865 4.167-4.166 4.17zM36 26.832a.19.19 0 0 0-.168.167c0 .068.04.13.103.156s.135.012.183-.036.063-.12.037-.183-.087-.104-.155-.104z" fill="#fff"/><path d="M38.168 27a2.17 2.17 0 0 1-2.167 2.169 2.17 2.17 0 0 1-2.169-2.167 2.17 2.17 0 0 1 2.167-2.169 2.17 2.17 0 0 1 2.169 2.167m-24 0a2.17 2.17 0 0 1-2.167 2.169 2.17 2.17 0 0 1-2.169-2.167 2.17 2.17 0 0 1 2.167-2.169 2.17 2.17 0 0 1 2.169 2.167" fill="#7fba00"/><path d="M28.973 13.9a4.9 4.9 0 1 1-9.8 0 4.9 4.9 0 1 1 9.8 0" fill="#804998"/><g fill="#fff"><path d="M24.073 6a7.9 7.9 0 1 0 0 15.8 7.9 7.9 0 1 0 0-15.8zm0 12.8a4.9 4.9 0 0 1-4.9-4.9 4.9 4.9 0 1 1 9.8 0 4.9 4.9 0 0 1-4.9 4.9z"/><path d="M15.02 26.1l6.762-6.762a5.93 5.93 0 0 1-2.388-1.855L12.9 23.98a3.16 3.16 0 0 1 2.121 2.121zm17.997 0l-6.762-6.762a5.93 5.93 0 0 0 2.388-1.855l6.496 6.496a3.16 3.16 0 0 0-2.122 2.121z" opacity=".5"/></g></svg>