<svg xmlns="http://www.w3.org/2000/svg" width="47.915" height="47.845" fill="none"><path d="M16.523 41.303l6.492 6.492H33.55a2.32 2.32 0 0 0 2.316-2.316V21.143L16.523 40.5c-.228.216-.228.576 0 .804z" fill="#235dc1"/><path d="M0 14.246v10.536l6.492 6.492c.228.228.588.228.804 0l19.356-19.356H2.316A2.33 2.33 0 0 0 0 14.246z" fill="#3b6ec6"/><path d="M24.36 2.448L8.736 26.352A2.05 2.05 0 0 0 9 28.92l10.008 10.008c.684.684 1.764.792 2.568.264L45.48 23.556c1.524-.996 2.436-2.7 2.436-4.512V2.376A2.38 2.38 0 0 0 45.539 0H28.883c-1.824 0-3.516.924-4.524 2.448z" fill="#5d8de4"/><path d="M3.516 44.51V36.06H0v11.784h11.964V44.51z" fill="#9fbbf0"/><path d="M35.925 17.71c3.287 0 5.952-2.665 5.952-5.952s-2.665-5.952-5.952-5.952-5.952 2.665-5.952 5.952 2.665 5.952 5.952 5.952z" fill="#adc5f2"/><path d="M25.27 19.733L12.543 32.46l2.936 2.936L28.207 22.67z" fill="#6c9aee"/><path d="M12.944 37.93l2.53-2.53-2.936-2.936-2.53 2.53z" fill="#88acef"/></svg>