<svg xmlns="http://www.w3.org/2000/svg" width="24" height="24"><path d="M21.216 9.44h-.336c.192-.623.24-1.295.24-1.965C21.168 3.354 17.808 0 13.728 0a7.348 7.348 0 0 0-7.007 5.08 4.71 4.71 0 0 0-1.633-.287C2.256 4.793 0 7.094 0 9.92c0 2.814 2.234 5.055 5 5.076v-2.35c0-2.314 3.888-3.37 7.5-3.37s7.5 1.055 7.5 3.37V15h1.408C22.896 14.857 24 13.658 24 12.22a2.785 2.785 0 0 0-2.784-2.78z" fill="#0072c6"/><path d="M6 12.646v8.986c0 1.297 2.863 2.348 6.41 2.365V24h.09c3.6 0 6.5-1.06 6.5-2.367v-8.986H6z" fill="#59b4d9"/><path d="M12.5 12.646V24c3.6 0 6.5-1.06 6.5-2.367v-8.986h-6.5z" fill="#3999c6"/><path d="M19 12.646c0 1.307-2.9 2.367-6.5 2.367S6 13.953 6 12.646s2.9-2.37 6.5-2.37 6.5 1.06 6.5 2.37" fill="#b8d432"/><path d="M2 11.584a5.417 5.417 0 0 1 7.976-4.773A7.488 7.488 0 0 1 16.498 3c1.395 0 2.695.387 3.814 1.05C19.085 1.648 16.585 0 13.728 0a7.348 7.348 0 0 0-7.007 5.08 4.71 4.71 0 0 0-1.633-.287C2.256 4.793 0 7.094 0 9.92a5.053 5.053 0 0 0 2.843 4.557A5.388 5.388 0 0 1 2 11.584z" opacity=".2" fill="#ecf0f1"/><path d="M12.5 3l-4 4H11v6h3V7h2.5z" fill="#fff"/></svg>