<svg xmlns="http://www.w3.org/2000/svg" width="43" height="47.725" fill="none"><path d="M33.955 0H9.042a1.73 1.73 0 0 0-1.733 1.733V7.41h28.38V1.733A1.73 1.73 0 0 0 33.955 0z" fill="#bc3200"/><path d="M36.888 3.467H6.112c-1.387 0-2.506 1.12-2.506 2.506v1.97h35.79v-1.97c0-1.387-1.12-2.506-2.506-2.506z" fill="#d13600"/><path d="M40.494 7.023H2.506C1.12 7.023 0 8.143 0 9.53v35.68a2.52 2.52 0 0 0 2.516 2.516h37.968A2.52 2.52 0 0 0 43 45.209V9.53c0-1.387-1.12-2.506-2.506-2.506z" fill="#e15815"/><g fill="#ffb290"><path d="M12.69 10.697a4.78 4.78 0 0 0-4.774 4.774 4.78 4.78 0 0 0 4.775 4.775 4.78 4.78 0 0 0 4.775-4.775 4.78 4.78 0 0 0-4.774-4.774zm0 7.865a3.1 3.1 0 1 1 0-6.201 3.1 3.1 0 1 1 0 6.201z"/><path d="M14.482 19.732h-3.536V29.4h3.536z"/></g><path d="M35.364 15.542a4.78 4.78 0 0 0-4.774-4.774A4.78 4.78 0 0 0 28.876 20v3.28l-17.93 5.924h-.03v6.072c-1.753.703-2.99 2.427-2.99 4.428a4.78 4.78 0 0 0 4.775 4.774 4.78 4.78 0 0 0 4.775-4.774 4.79 4.79 0 0 0-2.922-4.408V31.53l17.83-5.894-.04-.07h.04V19.96c1.743-.703 2.982-2.417 2.982-4.418zM15.79 39.712a3.1 3.1 0 1 1-6.201 0 3.1 3.1 0 1 1 6.201 0zm14.8-21.08a3.1 3.1 0 0 1 0-6.201 3.1 3.1 0 0 1 3.101 3.1c0 1.714-1.397 3.1-3.1 3.1z" fill="#ffdbca"/></svg>