<svg xmlns="http://www.w3.org/2000/svg" width="95.552" height="88.779"><circle cx="39.348" cy="39.348" r="39.348" fill="#804998"/><path d="M50.61 26.374c4.67 2.38 7.746 7.262 7.746 12.52-.843 0-2.173.288-2.945 0-.83-.31-.47-.16-.638-1.41-.143-1.028-.442-2.028-.886-2.966-1.813-3.886-5.916-6.364-10.207-6.076-4.137.278-7.807 3.134-9.185 7.03-.75 2.12-.384 4.372-1.05 6.508a10.59 10.59 0 0 1-3.781 5.339c4.67 2.38 7.746 7.262 7.746 12.52-.835 0-2.19.283-2.946 0-.715-.267-.46-.05-.603-1.06-.148-1.042-.354-2.028-.774-3.003-1.64-3.813-5.478-6.41-9.642-6.41-4.05 0-7.784 2.448-9.496 6.1-.445.938-.743 1.938-.886 2.966-.114.847.125 1.12-.495 1.41-.68.318-2.305 0-3.09 0 0-5.257 3.075-10.142 7.746-12.52-5.083-3.76-5.638-11.355-1.173-15.82s12.058-3.908 15.82 1.174a14.39 14.39 0 0 1 6.3-6.302c-7.93-5.865-3.643-18.9 6.22-18.9s14.15 13.034 6.22 18.902c1.182.602.6-.31 0 0zM23.443 45.877c8.993 0 8.99-13.954 0-13.965s-8.992 13.965 0 13.965zm13.965-27.93c0 8.993 13.976 8.99 13.965 0s-13.965-8.993-13.965 0zm5.063 46.185l24.807-24.81L91.925 63.97l-24.81 24.808z" fill="#fff"/><path d="M69.25 52.704c-.355.178-.533.178-1.066.355v18.304c.533.178 1.244.533 1.777 1.066l8.174-6.575c-.177-.355-.177-1.066-.177-1.6s.177-1.422.355-1.955zM55.745 62.3c.355.533.533 1.422.533 2.132 0 .533-.178 1.244-.355 1.777l8.175 6.575c.355-.355 1.066-.7 1.6-1.066V53.06c-.355-.178-.533-.178-.7-.355zm11.373-30.388L38.685 65.677 67.12 88.78l28.433-23.102zm15.46 37.14c-1.066 0-1.955-.355-2.843-1.066L71.56 74.74c.178.355.178.7.178 1.244 0 2.488-1.955 4.62-4.62 4.62s-4.62-1.955-4.62-4.62c0-.355 0-.7.178-1.066l-8.708-6.753c-.7.533-1.6.7-2.488.7-2.488 0-4.62-1.955-4.62-4.62 0-2.488 1.955-4.62 4.62-4.62.7 0 1.422.178 2.133.533l9.063-9.952c-.178-.533-.355-1.244-.355-1.955 0-2.488 1.955-4.62 4.62-4.62s4.62 1.955 4.62 4.62c0 .7-.178 1.6-.533 2.132l8.885 9.952a5.48 5.48 0 0 1 2.31-.533c2.488 0 4.62 1.955 4.62 4.62.177 2.665-1.956 4.62-4.266 4.62z" fill="#59b4d9"/></svg>