<svg xmlns="http://www.w3.org/2000/svg" width="49.9" height="49.9"><path d="M19.5 10c.9-5.7 5.8-10 11.8-10 6.6 0 11.9 5.4 11.9 12 0 .8-.1 1.5-.2 2.2 3.9.4 6.9 4 6.9 8.3 0 4.6-3.5 8.4-7.7 8.4h-22c-5.6 0-10.2-4.8-10.2-10.6.1-5.4 4.3-9.8 9.5-10.3z" fill="#59b4d9"/><path d="M41 21.9c0-1.1-.9-2-2-2H28c-.365 0-.704.106-1 .28-.302-.18-.648-.277-1-.28H15c-.365 0-.704.106-1 .28-.302-.18-.648-.277-1-.28H2c-1.1 0-2 .9-2 2v5c0 .365.106.704.28 1-.18.302-.277.648-.28 1v5c0 .365.106.704.28 1-.18.302-.277.648-.28 1v5c0 .365.106.704.28 1-.18.302-.277.648-.28 1v5c0 1.1.9 2 2 2h11c.365 0 .704-.106 1-.28.296.173.635.28 1 .28h11c.365 0 .704-.106 1-.28.296.173.635.28 1 .28h11c1.1 0 2-.9 2-2v-5c0-.365-.106-.704-.28-1 .173-.296.28-.635.28-1v-5c0-.365-.106-.704-.28-1 .173-.296.28-.635.28-1v-5c0-.365-.106-.704-.28-1 .173-.296.28-.635.28-1z" fill="#a0a1a2"/><path d="M15 21.9h11v5H15z" fill="#dd5900"/><path d="M28 21.9h11v5H28zm-26 0h11v5H2zm13 7h11v5H15z" fill="#ba141a"/><path d="M2 35.9h11v5H2z" fill="#dd5900"/><path d="M2 28.9h11v5H2zm13 14h11v5H15zm13-7h11v5H28zm0-7h11v5H28zm-13 7h11v5H15z" fill="#ba141a"/><path d="M28 42.9h11v5H28z" fill="#dd5900"/><path d="M2 42.9h11v5H2z" fill="#ba141a"/></svg>