<svg xmlns="http://www.w3.org/2000/svg" width="23.536" height="31.999"><path d="M20.048 3.923c-7.022-.776-8.197-3.8-8.197-3.8S10.27 4.1.17 4.1v16.326c0 1.975 1.095 3.826 2.614 5.44C6.23 29.53 11.85 32 11.85 32s11.685-5.118 11.685-11.572V4.1h-.115a32.16 32.16 0 0 1-3.516-.192l.143.013z" fill="#7fba00"/><path d="M11.682 0S10.1 3.978 0 3.978v16.33c0 1.975 1.095 3.823 2.614 5.437L19.88 3.8C12.857 3.027 11.682 0 11.682 0z" fill="#96c414"/><path d="M16.713 21.672a1.543 1.543 0 0 1-1.076-2.65L14 16.14a1.86 1.86 0 0 1-1.279-.034l.012.004-1.205 2a1.33 1.33 0 1 1-.934-.384h.002c.058.002.113.008.167.017l-.007-.001 1.267-2.1a1.94 1.94 0 0 1-.484-.818l-.003-.014-5.008.416a1.336 1.336 0 1 1-.147-.853l.003.007 5.092-.422a1.98 1.98 0 0 1 .47-.989l-.002.002-1.75-2.485a1.656 1.656 0 1 1 .699-.485l.002-.002 1.73 2.462a1.966 1.966 0 0 1 2.116 3.256l-.002.002 1.66 2.897a1.544 1.544 0 1 1 .321 3.052z" fill="#fff"/></svg>