<svg xmlns="http://www.w3.org/2000/svg" width="84.1" height="111.4"><path d="M0 15.2v80.9c0 8.5 18.8 15.2 41.9 15.2V15.2z" fill="#1b3662"/><path d="M41.5 111.4h.7c23.3 0 41.9-6.7 41.9-15.2v-81H41.5z" fill="#2f4c77"/><path d="M84.1 15.2c0 8.3-18.8 15.2-41.9 15.2S0 23.5 0 15.2 18.8 0 41.9 0s42.2 7 42.2 15.2" fill="#fff"/><path d="M75.6 14.3c0 5.6-15 10.1-33.4 10.1S8.5 20 8.5 14.3s15-10.1 33.4-10.1 33.7 4.5 33.7 10.1" fill="#7fb900"/><path d="M68.4 20.4c4.5-1.8 7-3.8 7-6.1 0-5.6-15-10.1-33.4-10.1S8.5 8.7 8.5 14.3c0 2.2 2.7 4.5 7 6.1 6.1-2.5 15.7-3.8 26.5-3.8s20.3 1.6 26.4 3.8" fill="#b7d332"/><path d="M6.5 82.7s3.5-1.58 4.57-1.58l5.62-.53c1.76 0 3.3-1.4 4.57-3.34s6.32-7.73 12.12-9 14.76-2.64 19.68-9.14 7.55-14.23 15.1-14.58 5.1-1.93 7.2-1.93.88 4 .88 4-.7.53-.7.7-.55 2.37-4.4 4.7-4 7.73-4.4 10-3.86 13.35-7.38 16.34l-.88.35s-.35.88-.7 1.05-1.23-.7-1.4-1.05-1.76 3-2.28 3.7a13.7 13.7 0 0 1-10.72 6.5s5.8-9.66 5.27-13.18a21.6 21.6 0 0 0-1.58 3.86c0 .7-1.23 2.1-3.16 2.28s-14.23-2.8-19.32 0-7.2 5.27-10 5.45-5.62.18-6.68-.35l2.46-2.8c-.02-.01-3.38.7-3.88-1.42z" fill="#fff"/><path d="M75.72 47.22l.53-.53s-2.46-.7-3.16-2.46a.85.85 0 0 0 0 .7 10.72 10.72 0 0 0 2.63 2.29zM64.82 49s1.05-2.46 3.34-1.93a1.82 1.82 0 0 1-1.41 2.46 2.54 2.54 0 0 1-1.93-.53z" fill="#1b3662"/><g fill="#fff"><path d="M72.73 46s-1.93 2.64-2.1 3.7m2.46-3.17a23.66 23.66 0 0 0-1.41 3.34m1.6-3.34a10.76 10.76 0 0 0-.53 3.34" stroke-miterlimit="10" stroke="#1b3662" stroke-width=".5"/><path d="M62.2 76.2s-3.16 3-3.34 4 3.5 2.64 5.8 2.1c0 .04-2.46-5.4-2.46-6.1z"/></g></svg>