<svg xmlns="http://www.w3.org/2000/svg" width="60" height="60.002"><path d="M60 0H0l60 60z" fill="#0078d4"/><g fill="#b8d432"><rect x="-3.108" y="43.585" width="33.071" height="5.991" rx=".941" transform="rotate(315 13.428 46.58)"/><rect x="-1.347" y="30.819" width="21.126" height="5.991" rx=".941" transform="rotate(315 9.216 33.814)"/></g><path d="M17.747 17.747l24.506 24.506L60 24.506V0H35.494z" fill="#59b4d9"/><rect x="15.498" y="47.789" width="21.126" height="5.991" rx=".941" transform="rotate(315 26.062 50.785)" fill="#b8d432"/><g fill="#fff"><path d="M60 60V0L30 30z" opacity=".2"/><rect x="30.484" y="15.004" width="5.991" height="5.991" rx="1.333" transform="rotate(315 33.479 18)"/><rect x="38.957" y="6.532" width="5.991" height="5.991" rx="1.333" transform="rotate(315 41.952 9.527)"/><rect x="38.957" y="23.477" width="5.991" height="5.991" rx="1.333" transform="rotate(315 41.952 26.473)"/><rect x="47.429" y="15.004" width="5.991" height="5.991" rx="1.333" transform="rotate(315 50.425 18)"/></g></svg>