<svg xmlns="http://www.w3.org/2000/svg" xmlns:xlink="http://www.w3.org/1999/xlink" width="50" height="49.9"><defs><clipPath ><use xlink:href="#B"/></clipPath><path id="B" d="M1394.3 2.8h336v500h-336z"/></defs><path d="M12 4h12v25.5c0 2.4-5.3 4.4-11.8 4.4H12c-6.6 0-12-2-12-4.4V4z" fill="#804998"/><g fill="#fff"><path d="M12.3 33.9c-6.7 0-12.3-2-12.3-4.4V3.6l12.3.3z" opacity=".2" enable-background="new"/><path d="M24 4.4c0 2.4-5.4 4.7-12 4.7S0 6.8 0 4.4 5.4 0 12 0s12 2 12 4.4"/></g><path d="M21.6 4.3c0 1.5-4.3 2.7-9.5 2.7S2.6 5.8 2.6 4.3s4.3-2.7 9.5-2.7 9.5 1.2 9.5 2.7" fill="#b8d432"/><path d="M4.4 5.9C6.1 6.6 8.9 7 12 7s5.9-.4 7.6-1.1c-1.7-.7-4.5-1.1-7.6-1.1s-5.8.5-7.6 1.1z" fill="#7fba00"/><path d="M38 4h12v25.5c0 2.4-5.3 4.4-11.8 4.4H38c-6.6 0-12-2-12-4.4V4z" fill="#804998"/><g fill="#fff"><path d="M38.3 33.9c-6.7 0-12.3-2-12.3-4.4V3.6l12.3.3z" opacity=".2" enable-background="new"/><path d="M49.9 4.4c0 2.4-5.4 4.7-12 4.7s-12-2.3-12-4.7S31.3 0 37.9 0s12 2 12 4.4"/></g><path d="M47.5 4.3C47.5 5.8 43.2 7 38 7s-9.5-1.2-9.5-2.7 4.3-2.7 9.5-2.7 9.5 1.2 9.5 2.7" fill="#b8d432"/><path d="M30.3 5.9C32 6.6 34.8 7 37.9 7s5.9-.4 7.6-1.1c-1.7-.7-4.5-1.1-7.6-1.1s-5.8.5-7.6 1.1z" fill="#7fba00"/><path d="M38 33.9V22.3c0-1.4-1.2-3.3-2-3.3H14c-.8 0-2 1.9-2 3.3v11.6z" opacity=".4" fill="#fff"/><path d="M25 20h12v25.5c0 2.4-5.3 4.4-11.8 4.4H25c-6.6 0-12-2-12-4.4V20z" fill="#804998"/><g fill="#fff"><path d="M25.3 49.9c-6.7 0-12.3-2-12.3-4.4V19.6l12.3.3z" opacity=".2" enable-background="new"/><path d="M37 20.3c0 2.4-5.4 4.7-12 4.7s-12-2.3-12-4.7 5.4-4.4 12-4.4 12 2 12 4.4"/></g><path d="M34.6 20.2c0 1.5-4.3 2.7-9.6 2.7s-9.6-1.2-9.6-2.7 4.3-2.7 9.6-2.7 9.6 1.2 9.6 2.7" fill="#b8d432"/><path d="M17.3 21.8c1.7.7 4.5 1.1 7.7 1.1 3.1 0 5.9-.4 7.7-1.1-1.7-.7-4.5-1.1-7.7-1.1-3.1 0-5.9.5-7.7 1.1z" fill="#7fba00"/></svg>