<svg xmlns="http://www.w3.org/2000/svg" width="50" height="42"><path d="M2 42h46a2 2 0 0 0 2-2V7H0v33a2 2 0 0 0 2 2z" fill="#a0a1a2"/><path d="M0 1.988V7h50V1.988c-.002-.53-.213-1.035-.588-1.408S48.53-.002 48 0H2C.895 0 0 .9 0 1.988z" fill="#7a7a7a"/><path d="M4 21h42v7H4zm0-10h42v7H4z" fill="#fff"/><path d="M4 31h42v7H4z" fill="#b8d432"/><g fill="#fff"><path d="M43.6 0H1.988A1.99 1.99 0 0 0 0 1.988V40a2 2 0 0 0 2 2h2z" opacity=".2"/><path d="M12 18v17h11v-4h4v4h11V18z" opacity=".4"/></g><path d="M13 15v19h9V22h6v12h9V15z" fill="#0072c6"/></svg>