<svg xmlns="http://www.w3.org/2000/svg" xmlns:xlink="http://www.w3.org/1999/xlink" width="48.001" height="48" fill="none"><path d="M18.156 48H2.093C.943 48 0 47.057 0 45.896v-19.8C0 24.933.943 24 2.093 24h16.063z" fill="#b41055"/><path d="M45.947 48H39.14V24h6.806a2.06 2.06 0 0 1 2.054 2.055v19.89A2.06 2.06 0 0 1 45.947 48z" fill="#e86299"/><path d="M18.304 48h21.768V24h-24v21.777c0 1.22.992 2.223 2.222 2.223z" fill="#f173a7"/><path d="M37.9 0H10.348a2.15 2.15 0 0 0-2.153 2.154V24h31.848V2.154A2.15 2.15 0 0 0 37.89 0z" fill="#c12664"/><path d="M32.056 0H10.348a2.15 2.15 0 0 0-2.153 2.154V24h23.86z" fill="#cf3071"/><path d="M22.214 7.94h-4.167a1.99 1.99 0 0 1-1.984-1.985 1.99 1.99 0 0 1 1.984-1.985h4.167a1.99 1.99 0 0 1 1.984 1.985c0 1.092-.883 1.985-1.984 1.985z" fill="#b5205c"/><path d="M32.005 37.984H20.13v2.035h11.876zm-5.12 4.04H20.13v2.035h6.756z" fill="#fe90be"/><use xlink:href="#B" fill="#cb2e6f"/><use xlink:href="#B" x="-16.105" fill="#900740"/><defs ><path id="B" d="M30.073 32.06h-3.96c-1.14 0-2.064-.923-2.064-2.065s.923-2.065 2.064-2.065h3.96c1.14 0 2.064.923 2.064 2.065s-.923 2.065-2.064 2.065z"/></defs></svg>