<svg xmlns="http://www.w3.org/2000/svg" width="48.292" height="48.673"><path d="M22.576.76L.43 28.813a2 2 0 0 0 .387 2.852l22.146 16.24a2 2 0 0 0 2.365 0l22.146-16.24a2 2 0 0 0 .387-2.852L25.716.76a2 2 0 0 0-3.14 0z" fill="#0072c6"/><path d="M26.344 47.16l20.44-15c-1-1.27-2.47-2.14-4.168-2.275l-5.664-7.208a5.85 5.85 0 0 0 .094-1.015 5.91 5.91 0 0 0-5.9-5.9 5.91 5.91 0 0 0-5.9 5.9 5.86 5.86 0 0 0 .094 1.015l-5.664 7.208c-3.035.24-5.43 2.782-5.43 5.877a5.91 5.91 0 0 0 5.9 5.9c.395 0 .78-.04 1.154-.115l3.99 2.9a5.85 5.85 0 0 0 1.055 2.702z" opacity=".4" fill="#fff"/><g fill="#3999c6"><path d="M45.74 35.49L32.27 18.346h-2.246L16.552 35.49l.212 1.532 13.144 9.56h2.477l13.144-9.56z"/><circle cx="20.146" cy="35.772" r="4.9"/><circle cx="42.146" cy="35.772" r="4.9"/><circle cx="31.146" cy="43.772" r="4.9"/><path d="M31.146 26.573c-2.702 0-4.9-2.198-4.9-4.9s2.198-4.9 4.9-4.9 4.9 2.198 4.9 4.9-2.198 4.9-4.9 4.9z"/></g><g fill="#fff"><path d="M40.718 35.575l-9.572 6.962-9.572-6.962 9.572-3.184z" opacity=".25"/><circle cx="20.146" cy="35.772" r="2.9"/><circle cx="42.146" cy="35.772" r="2.9"/><circle cx="31.146" cy="43.772" r="2.9"/><path d="M31.146 24.672c-1.6 0-2.9-1.3-2.9-2.9s1.3-2.9 2.9-2.9 2.9 1.3 2.9 2.9-1.3 2.9-2.9 2.9z"/><path d="M19.358 35.15l11.005-13.996 1.572 1.236L20.93 36.387z" opacity=".6"/><path d="M30.36 22.39l1.573-1.236 11 14-1.573 1.236z" opacity=".6"/><path d="M32.146 41.8V21.773h-2V41.8l-9.412-6.846-1.176 1.618 11 8h1.176l11-8-1.176-1.618z"/></g><g fill="#7fba00"><circle cx="20.146" cy="35.772" r="1.9"/><circle cx="42.146" cy="35.772" r="1.9"/><circle cx="31.146" cy="43.772" r="1.9"/><circle cx="31.146" cy="21.772" r="1.9"/></g></svg>