<svg xmlns="http://www.w3.org/2000/svg" width="27.988" height="32"><path d="M13.386 31.6C10.248 29.67 0 22.676 0 14.514V4.076l1.095-.083c4.382-.273 6.083-1.41 7.583-2.416C9.956.738 11.06 0 14 0s4.09.77 5.3 1.584c1.507.998 3.21 2.153 7.593 2.422l1.095.07v10.438c0 8.166-10.25 15.156-13.4 17.103l-.612.383z" fill="#0072c6"/><g fill="#fff"><path d="M9.906 28.385l9.18-26.15-.143-.096c-1.188-.79-2.21-1.474-4.945-1.474s-3.713.665-4.948 1.48C7.48 3.197 5.7 4.39 1.134 4.658l-.47.043v9.813c0 5.63 5.19 10.74 9.24 13.872z" opacity=".15"/><path d="M14 9.332h.006a7.32 7.32 0 0 1 7.289 6.636l.002.03h3.327C24.315 10.364 19.672 5.914 14 5.914A10.65 10.65 0 0 0 3.358 15.97l-.001.027h3.327c.347-3.75 3.48-6.665 7.3-6.665h.023zm3.932 7.334c0 1.405-.75 2.704-1.966 3.406s-2.716.703-3.933 0a3.93 3.93 0 0 1-1.966-3.406c0-2.172 1.76-3.933 3.933-3.933s3.933 1.76 3.933 3.933z"/></g></svg>