<svg xmlns="http://www.w3.org/2000/svg" width="48.1" height="48"><path d="M35.5 0C30.337 0 25.906 3.13 24 7.598 22.094 3.13 17.663 0 12.5 0 4 0 0 8.096 0 15c0 21 24 33 24 33s24-12 24-33c0-6.904-4-15-12.5-15z" fill="#ff8c00"/><path d="M24 27C13.287 27 4.1 23.012.11 17.317 1.774 36.878 24 48 24 48s22.226-11.122 23.89-30.683C43.9 23.012 34.713 27 24 27z" opacity=".25" fill="#ba141a"/><g fill="#fff"><circle cx="27" cy="36" r="3.9"/><path d="M3.645 4.1S2.24 9.143 8.08 14.183l1.846-2.364c-.032-.025-3.18-2.564-3.413-6.265C6.323 2.538 7.83.9 7.83.9c-1.672.758-3.064 1.8-4.185 3.19zm43.15 4.32c.892 3.894.563 7.733-1.007 11.266-2.82 6.35-9.488 11.5-19.28 14.896l.982 2.834c8.436-2.924 14.857-7.143 18.686-12.336C47.368 22 48.1 18.638 48.1 15c0-2.172-.497-4.46-1.304-6.58z"/><path d="M8.176 12.176c-5.62 5.62 1.344 15.486 7 21.143l1.06 1.06a1.5 1.5 0 0 0 2.121 0l2.12-2.12a1.5 1.5 0 0 0-.662-2.53 1.5 1.5 0 0 0-1.459.409l-1.13 1.13c-7.778-7.778-10.28-13.903-7.07-17.112s9.334-.707 17.112 7.07l-1.13 1.13a1.5 1.5 0 0 0 .662 2.53 1.5 1.5 0 0 0 1.459-.409l2.12-2.12a1.5 1.5 0 0 0 0-2.121l-1.06-1.06c-5.656-5.657-15.52-12.622-21.142-7z"/></g></svg>