<svg xmlns="http://www.w3.org/2000/svg" viewBox="-568.4 -96 40 40" width="40" height="40"><path d="M-568.4-96h40v40h-40z" fill="#ffb900"/><path d="M-547.2-80.3c-.2.1-.3.1-.6.2v10.3c.3.1.7.3 1 .6l4.6-3.7c-.1-.2-.1-.6-.1-.9s.1-.8.2-1.1zm-7.6 5.4c.2.3.3.8.3 1.2 0 .3-.1.7-.2 1l4.6 3.7c.2-.2.6-.4.9-.6v-10.5c-.2-.1-.3-.1-.4-.2zm6.4-17.1l-16 19 16 13 16-13zm8.7 20.9c-.6 0-1.1-.2-1.6-.6l-4.6 3.8c.1.2.1.4.1.7 0 1.4-1.1 2.6-2.6 2.6s-2.6-1.1-2.6-2.6c0-.2 0-.4.1-.6l-4.9-3.8c-.4.3-.9.4-1.4.4-1.4 0-2.6-1.1-2.6-2.6 0-1.4 1.1-2.6 2.6-2.6.4 0 .8.1 1.2.3l5.1-5.6c-.1-.3-.2-.7-.2-1.1 0-1.4 1.1-2.6 2.6-2.6s2.6 1.1 2.6 2.6c0 .4-.1.9-.3 1.2l5 5.6a3.08 3.08 0 0 1 1.3-.3c1.4 0 2.6 1.1 2.6 2.6.1 1.5-1.1 2.6-2.4 2.6z" fill="#fff"/></svg>