<svg xmlns="http://www.w3.org/2000/svg" width="50.304" height="66.624" viewBox="0 0 37.702 50"><path d="M-.013 6.84V43.16c0 3.823 8.45 6.84 18.813 6.84V6.84z" fill="#3998c5"/><path d="M18.6 50h.3c10.463 0 18.813-3.018 18.813-6.84V6.84H18.6z" fill="#59b3d8"/><path d="M37.714 6.84c0 3.724-8.45 6.84-18.813 6.84S-.013 10.563-.013 6.84 8.438 0 18.8 0s18.914 3.12 18.914 6.84" fill="#fff"/><path d="M33.887 6.438c0 2.515-6.74 4.527-15 4.527S3.8 8.954 3.8 6.438s6.74-4.527 15-4.527 15.087 2.012 15.087 4.527" fill="#7fb900"/><path d="M30.67 9.154c2.012-.8 3.12-1.7 3.12-2.716 0-2.515-6.74-4.527-15-4.527s-15 2.012-15 4.527c0 1.006 1.207 2.012 3.12 2.716 2.716-1.107 7.042-1.7 11.87-1.7a36.67 36.67 0 0 1 11.871 1.71" fill="#b7d332"/><path d="M29.452 33.817c-2.994.617-3.2-.4-3.2-.4 3.16-4.69 4.483-10.645 3.342-12.1-3.11-3.975-8.5-2.095-8.586-2.046l-.03.005a10.68 10.68 0 0 0-2-.208c-1.13-.057-2.248.277-3.162.946 0 0-9.608-3.958-9.16 4.976.1 1.9 2.725 14.384 5.86 10.613 1.146-1.38 2.254-2.544 2.254-2.544a2.91 2.91 0 0 0 1.9.485l.054-.045c-.016.18-.008.36.022.538-.808.9-.57 1.06-2.186 1.394-1.634.337-.673.936-.048 1.093a3.32 3.32 0 0 0 3.706-1.2l-.048.2a5.4 5.4 0 0 1 .5 2.917c-.104.94-.04 1.893.187 2.812.25.678.5 2.205 2.62 1.75a3.13 3.13 0 0 0 2.821-3.009c.1-1.167.3-1 .31-2.04l.165-.494c.2-1.584.03-2.095 1.122-1.857l.266.023c.845.036 1.69-.106 2.476-.417 1.33-.617 2.12-1.65.808-1.378z" fill="#336790"/><g fill="#fff"><path d="M16.813 25.98c-.135-.07-.282-.116-.433-.135a.93.93 0 0 0-.638.09c-.053.036-.1.092-.1.155-.028.2.27.576.64.628.03.004.06.006.1.006a.7.7 0 0 0 .634-.407l.01-.035c.013-.064-.001-.2-.204-.302zm8.274-.312a1.19 1.19 0 0 0-.43-.009c-.3.045-.612.184-.587.368l.005.018c.103.226.33.37.578.37a.65.65 0 0 0 .082-.005.76.76 0 0 0 .426-.234c.094-.084.15-.2.16-.325-.015-.086-.1-.152-.235-.184z"/><path d="M30.357 33.778c-.144-.442-.774-.3-.98-.267-2.11.435-2.7.006-2.823-.115a24.59 24.59 0 0 0 3.263-7.336c.583-2.333.572-4.184-.025-4.947a6.82 6.82 0 0 0-5.3-2.62c-1.2-.05-2.4.11-3.545.473l-.025.006-.04.014-.036.014c-.614-.153-1.244-.235-1.877-.244-1.127-.044-2.238.272-3.174.9-.98-.368-1.998-.624-3.035-.763-1.544-.303-3.145-.014-4.487.808-1.39.987-2.036 2.76-1.91 5.268.06 1.183 1.792 10.606 4.51 11.513a1.66 1.66 0 0 0 1.84-.732c.968-1.164 1.872-2.13 2.1-2.37.482.27 1.025.414 1.577.42a1.42 1.42 0 0 0 .013.167c-.1.113-.2.227-.285.348-.363.462-.45.57-1.626.814-.477.1-1.112.284-1.122.757s.654.77 1.046.867c1.283.417 2.693.076 3.643-.882a24.27 24.27 0 0 0 .351 5.6c.305 1.133 1.33 1.923 2.504 1.93a4.02 4.02 0 0 0 .836-.095c1.573-.124 2.815-1.386 2.913-2.96.173-1 .473-3.43.6-4.654.36.126.74.183 1.122.17.807.007 1.607-.144 2.356-.444.75-.358 1.803-1.08 1.62-1.638zm-5.588 1.3a101.09 101.09 0 0 1-.652 5.167c-.063 1.352-1.136 2.44-2.487 2.52-.56.188-1.172.133-1.688-.152s-.9-.774-1.03-1.348c-.338-2.158-.435-4.347-.3-6.526a.26.26 0 0 0-.028-.122 1.41 1.41 0 0 0-.051-.25c-.107-.352-.35-.647-.675-.818l-.033-.017a1 1 0 0 0-.871-.052c.087-.4.207-.772.36-1.142l.056-.15c.064-.172.14-.343.224-.532.44-.98 1.044-2.32.387-5.356-.083-.502-.37-.948-.792-1.232s-.944-.38-1.44-.268c-.75.102-1.468.358-2.112.753.05-1.808.702-3.547 1.855-4.94a4.58 4.58 0 0 1 3.455-1.3c1.973.004 3.856.827 5.2 2.27a8.43 8.43 0 0 1 1.9 3.12c-1.427-.17-2.386.085-2.858.76-1 1.436.583 4.28 1.346 5.65.13.233.265.474.307.576.2.47.473.905.805 1.293a2.73 2.73 0 0 1 .269.372l-.065.018c-.404.11-1.16.32-1.09 1.706zm-13.725.88c-.9-.3-1.92-2.128-2.844-5.137-.608-1.916-1.04-3.883-1.288-5.878-.115-2.31.45-3.92 1.68-4.792a4.99 4.99 0 0 1 2.906-.782 12.57 12.57 0 0 1 3.792.689c-.058.05-.118.1-.175.16-2.113 2.132-2.038 5.794-2.034 5.948v.018a17.6 17.6 0 0 1-.062 3.425c-.173 1.148.193 2.31.992 3.153.105.108.218.208.337.3-.346.368-1.17 1.26-2.06 2.333-.428.512-.836.695-1.243.56zm2.52-6.28a18 18 0 0 0 .07-3.455 4.21 4.21 0 0 1 2.8-.873 1.21 1.21 0 0 1 1.019 1.06c.618 2.86.08 4.054-.352 5.015-.083.185-.17.376-.24.565l-.056.15c-.145.36-.265.732-.36 1.11-.773.014-1.515-.302-2.04-.868-.682-.724-.99-1.722-.84-2.705zm3.368 4.508a.27.27 0 0 0 .026-.033.46.46 0 0 1 .61-.148l.045.023a.84.84 0 0 1 .365 1.1 3.05 3.05 0 0 1-3.414 1.1 1.47 1.47 0 0 1-.639-.314 1.53 1.53 0 0 1 .673-.242c1.314-.27 1.5-.446 1.947-1.012.1-.128.224-.285.4-.47zm8.43-2.713c-.052-.127-.168-.334-.328-.622l-.007-.012c-.653-1.17-2.182-3.913-1.375-5.067a1.83 1.83 0 0 1 1.585-.575c.3.003.58.024.866.065a7.15 7.15 0 0 1-.109 1.149 9.55 9.55 0 0 0-.13 1.216c-.002.46.032.922.1 1.378a4.87 4.87 0 0 1-.309 3.027 3.67 3.67 0 0 1-.292-.561zm3.756-4.986a27.62 27.62 0 0 1-2.865 6.361c-.045-.064-.1-.135-.17-.22l-.064-.082-.018-.022a5.11 5.11 0 0 0 .5-3.595c-.063-.426-.093-.856-.092-1.287.017-.387.06-.772.125-1.154.085-.464.124-.935.114-1.407a.46.46 0 0 0 .015-.179c-.694-2.52-2.5-4.586-4.906-5.61 4.478-1.094 6.8 1.136 7.6 2.154.6.763.51 2.553-.24 5.04zm-3.1 7.4a1.61 1.61 0 0 0 .2-.066c.044.04.09.074.14.107a4.47 4.47 0 0 0 3.136.114 1.71 1.71 0 0 1 .288-.038 3.57 3.57 0 0 1-1.266.9 4.91 4.91 0 0 1-3.123.231c-.054-.032-.066-.055-.067-.06-.056-.972.325-1.08.7-1.183z"/></g></svg>