<svg xmlns="http://www.w3.org/2000/svg" xmlns:xlink="http://www.w3.org/1999/xlink" width="48" height="50"><circle cx="24" cy="27" r="22" fill="#59b4d9" stroke="#0072c6" stroke-width="2"/><circle cx="24" cy="27" r="21" opacity=".6" fill="#fff"/><path d="M23.476 42.852C20.784 41.196 12 35.258 12 28.325V19.46l.938-.058c3.758-.23 5.215-1.2 6.5-2.053C20.534 16.626 21.48 16 24 16s3.506.653 4.555 1.346c1.3.856 2.75 1.826 6.507 2.058l.938.057v8.864c0 6.934-8.784 12.87-11.477 14.526l-.523.323z" fill="#0072c6"/><circle cx="42" cy="40" r="4" fill="#fff"/><use xlink:href="#B" fill="#0072c6"/><circle cx="6" cy="40" r="4" fill="#fff"/><use xlink:href="#B" x="-36" fill="#0072c6"/><circle cx="24" cy="6" r="4" fill="#fff"/><use xlink:href="#B" x="-18" y="-34" fill="#0072c6"/><defs ><path id="B" d="M42 36a4 4 0 1 1 0 8 4 4 0 1 1 0-8m0-2a6.01 6.01 0 0 0-6 6 6.01 6.01 0 0 0 6 6 6.01 6.01 0 0 0 6-6 6.01 6.01 0 0 0-6-6z"/></defs></svg>