<svg xmlns="http://www.w3.org/2000/svg" width="44.9" height="49.9"><g fill="#0072c6"><path d="M28 0H0v36h28z"/><path d="M15 9v37h25.9L41 9zm23.915 2v15h-21.93V11zm-21.93 33V28h21.93v16z"/></g><circle cx="16" cy="45" r="4.9" fill="#7fba00"/><path d="M16 46.9c-1.048 0-1.9-.853-1.9-1.9s.853-1.9 1.9-1.9 1.9.852 1.9 1.9a1.9 1.9 0 0 1-1.9 1.9z" fill="#fff"/><circle cx="40" cy="45" r="4.9" fill="#7fba00"/><path d="M40 46.9c-1.048 0-1.9-.853-1.9-1.9s.853-1.9 1.9-1.9 1.9.852 1.9 1.9a1.9 1.9 0 0 1-1.9 1.9z" fill="#fff"/><circle cx="40" cy="10" r="4.9" fill="#7fba00"/><circle cx="40" cy="10" r="1.9" fill="#fff"/><circle cx="40" cy="27" r="4.9" fill="#7fba00"/><g fill="#fff"><circle cx="40" cy="27" r="1.9"/><path d="M2.9 2.9h22.257v30H2.9z" opacity=".3"/></g><path d="M19.854 11H28V9h-8.146c-.445-1.664-1.95-2.9-3.754-2.9-2.15 0-3.9 1.75-3.9 3.9 0 1.766 1.188 3.245 2.8 3.723v9.554c-1.613.478-2.8 1.957-2.8 3.723s1.188 3.245 2.8 3.723V36h1.986v-5.21A3.9 3.9 0 0 0 19.854 28H28v-2h-8.146c-.37-1.382-1.47-2.46-2.868-2.79V13.79A3.9 3.9 0 0 0 19.854 11z" opacity=".6" fill="#00188f"/></svg>