<svg xmlns="http://www.w3.org/2000/svg" width="50" height="41.666"><path d="M45.083 11.633l.05-1.083C45.133 4.733 40.35 0 34.483 0 31-.001 27.8 1.666 25.833 4.4c-1.266-.783-2.733-1.216-4.266-1.216-4.183 0-7.633 3.183-8.017 7.233.65-.083 1.3-.15 1.967-.15 3.083 0 6.05 1 8.467 2.767 1.816-4.184 6.433-6.867 11.55-7.017V2.433l6.25 5.35-6.25 5.317V9.6c-2.933.116-5.783 1.216-7.433 3.883l.333-.033c5.967 0 10.9 4.467 11.6 10.183 1.417 1.067 2.533 2.35 3.333 3.817C47.233 26.416 50 23.083 50 19c0-3.283-1.767-5.9-4.917-7.366z" fill="#0072c6"/><path d="M4.917 25.5l-.05-1.1c0-5.817 4.783-10.533 10.65-10.533 3.483 0 6.683 1.667 8.65 4.383 1.267-.783 2.733-1.2 4.267-1.2 4.433 0 8.05 3.583 8.05 7.983l-.017.634c3 1.517 4.617 4.033 4.617 7.183 0 4.95-4.033 8.817-9.183 8.817H9.183C4.033 41.666 0 37.8 0 32.85c0-3.266 1.767-5.883 4.917-7.35z" fill="#59b4d9"/></svg>