<svg xmlns="http://www.w3.org/2000/svg" xmlns:xlink="http://www.w3.org/1999/xlink" width="50" height="41.69"><g fill="#a0a1a2"><use xlink:href="#B"/><use xlink:href="#B" y="-15.592"/><path d="M47.61 39.117H16.787c-1.325 0-2.417-1.12-2.417-2.14 0-1.04 1.09-1.86 2.417-1.86H47.61c1.325 0 2.39.82 2.39 1.86 0 1.02-1.065 2.14-2.39 2.14z"/></g><path d="M1.748 3.502l3.5 3.5L12.252 0 14 1.75l-8.75 8.754L0 5.252zm0 15.593l3.5 3.5 7.003-7.002 1.75 1.75-8.75 8.753L0 20.845zm0 15.592l3.5 3.5 7.003-7.003L14 32.936 5.25 41.7 0 36.437z" fill="#b8d432"/><defs ><path id="B" d="M47.583 23.524H16.787c-1.325 0-2.417-1.12-2.417-2.14s1.09-1.86 2.417-1.86h30.796c1.35 0 2.417.84 2.417 1.86s-1.065 2.14-2.417 2.14z"/></defs></svg>