<svg xmlns="http://www.w3.org/2000/svg" width="50" height="44"><path d="M0 42c0 1.1.9 2 2 2h46c1.1 0 2-.9 2-2V8.6H0z" fill="#3999c6"/><path d="M48 0H2C.9 0 0 .9 0 2v7.3h50V2c0-1.1-.9-2-2-2z" fill="#a0a1a2"/><g fill="#fff"><path d="M0 9.3h50v3.3H0z" opacity=".15"/><path d="M2 0C.9 0 0 .9 0 2v40c0 1.1.9 2 2 2h19.2L43.6 0z" opacity=".1"/><path d="M8.6 20.9l-.5-.5c-.1-.1-.1-.3 0-.4l1.4-1.2c.1-.1.1-.1.2-.1s.2 0 .2.1l3.7 4 6.4-8.1c.1-.1.2-.1.3-.1s.1 0 .2.1l1.5 1.1c.1.1.1.1.1.2s0 .2-.1.2l-8.3 10.5z"/><path d="M22 20.9h20v3.3H22z" opacity=".6"/><path d="M8.6 34l-.5-.5c-.1-.1-.1-.3 0-.5l1.4-1.2c.1-.1.1-.1.2-.1s.2 0 .2.1l3.7 4 6.4-8.1c.1-.1.2-.1.3-.1s.1 0 .2.1l1.5 1.1c.1.1.1.1.1.2s0 .2-.1.2l-8.3 10.5z"/><path d="M22 34h20v3.3H22z" opacity=".6"/></g></svg>