<svg xmlns="http://www.w3.org/2000/svg" viewBox="96 243.8 559.4 536.4" width="559.4" height="536.4"><path d="M357.4 318.4H96v210.9c0 3.3 1.3 6.6 3.6 9.1l-.1.1c.3.3.7.7 1.1.9 2.4 2.2 5.5 3.6 9.2 3.6h271.7c6.9 0 13.8-5.7 13.8-13.8V318.4z" fill="#59b4d9"/><path d="M153.4 365.4h186.8v17.2H153.4zm0 56.1h186.8v17.2H153.4zm0 56.2h186.8v17.2H153.4z" fill="#fff"/><path d="M531.6 467.4s13.8-102-80.2-121.5c0 0-8-1.1-18.3-1.1-11.5 0-16 3.4-16 3.4v41.3s3.4-3.4 18.3-3.4c9.2 0 16 1.1 19.5 1.1 21.8 6.9 42.4 22.9 37.8 79.1h-40.1l63 77.9 61.9-77.9h-45.9z" fill="#7fba00"/><path d="M611.9 598.1h-8v130.6H473.2v10.4c0 4.6 1.1 8 5.7 8h135.3c4.6 0 8-3.4 8-8v-133c0-4.6-5.7-8-10.3-8zm33.2 33.2h-8v129.5c0 1.1-1.1 1.1-1.1 1.1H506.4v10.3c0 4.6 1.1 8 5.7 8h133c5.7 0 10.3-4.6 10.3-10.3V639.3c0-4.5-5.7-8-10.3-8z" fill="#59b4d9"/><path d="M133.9 318.4h261.3v-60.8c0-6.9-5.7-13.8-13.8-13.8H109.8c-6.9 0-13.8 5.7-13.8 13.8v60.8zm442.4 243h-133c-4.6 0-8 3.4-8 8v29.8h148.9v-29.8c.2-4.6-3.3-8-7.9-8z" fill="#3999c6"/><path d="M566 598.1H435.4v104.3c0 4.6 3.4 8 8 8h133c4.6 0 8-3.4 8-8V598.1z" fill="#59b4d9"/><g fill="#fff"><path d="M469.7 616.4h74.5v18.3h-74.5z"/><path d="M357.6 318.4H96.2v210.9c0 3.4 1.4 6.9 3.9 9.5 2.4 2.6 295.3-220.4 295.3-220.4h-37.8zm226.8 279.7h-149v103.7s-.4 3.6 1.9 5.9z" opacity=".2"/></g></svg>