<svg xmlns="http://www.w3.org/2000/svg" width="35.955" height="49.818"><path d="M11.955 41.818h12v3h-12zm3 8h5l3.638-3h-11.5z" fill="#7a7a7a"/><path d="M12.13 39.718a.41.41 0 0 1-.419-.392c-.172-5.37-3.152-8.82-6.033-12.158C2.8 23.847.1 20.7.1 15.878.1 5.8 6.608.018 17.955.018S35.8 5.8 35.8 15.878c0 4.832-2.71 7.97-5.577 11.3-2.88 3.337-5.86 6.788-6.033 12.158a.41.41 0 0 1-.419.392z" fill="#fff"/><path d="M16.955 1.005c0-.573-.486-1.04-1.058-1.003C5.6.68 0 6.513 0 15.878c0 9.825 11.272 12.876 11.6 23.45.013.277.243.493.52.49h3.825a1 1 0 0 0 1-1z" fill="#59b4d9"/><path d="M19 1.005c0-.573.486-1.04 1.058-1.003 10.297.68 15.897 6.51 15.897 15.876 0 9.825-11.272 12.876-11.6 23.45-.013.277-.243.493-.52.49H20a1 1 0 0 1-1-1z" fill="#3999c6"/><path d="M24.047 15.594l-.895-1.788-5.197 2.598-5.197-2.598-.895 1.788 5.472 2.736h1.24zm-.2 16.1l-.895-1.788-4.997 2.498-4.997-2.498-.895 1.788 5.272 2.636h1.24zm-11.06-23.48l-.632-1.897-4.34 1.447-3.4-3.4c-.488.46-.93.96-1.34 1.49L6.4 9.18l-1.446 4.34 1.897.633L8.336 9.7zM32.396 5.29a13.23 13.23 0 0 0-1.433-1.396l-3.87 3.87-4.34-1.446-.632 1.897L26.574 9.7l1.484 4.452 1.897-.632-1.447-4.34zm.63 18.6l-4.608-1.77-.393-4.436-1.992.177.414 4.674-3.49 3.135 1.337 1.488 3.494-3.14 3.955 1.52 1.284-1.65zm-20.07 1.78l-3.49-3.136.414-4.674-1.992-.177-.393 4.436-4.608 1.77 1.285 1.65 3.955-1.52 3.494 3.14z" fill="#fff"/></svg>