<svg xmlns="http://www.w3.org/2000/svg" width="50" height="47.3"><path d="M32.4 37.7H18.8c1.6 5.8-.6 6.6-10.2 6.6v3h32.6v-3c-9.5 0-10.4-.8-8.8-6.6" fill="#7a7a7a"/><path d="M47 0H2.7C1.2 0 0 1.4 0 2.9v32c0 1.5 1.2 2.8 2.7 2.8H47c1.5 0 3-1.3 3-2.8v-32C50 1.4 48.5 0 47 0m-.8 3.9v29.9H3.8V3.9l42.4-.1z" fill="#a0a1a2"/><path d="M3.8 3.9l42.4-.1v30H3.8z" fill="#59b4d9"/><path d="M3.8 33.8V3.9l38.7-.1L47 0H2.7C1.2 0 0 1.4 0 2.9v32c0 1.5 1.2 2.8 2.7 2.8h1.1l4.6-3.8H3.8z" opacity=".2" fill="#fff"/><path d="M3.8 3.9l38.7-.1-38.7.1v29.9z" fill="#59b4d9"/><path d="M8.7 44.3h32.7v3H8.7z" fill="#a0a1a2"/><g fill="#fff"><path d="M8.6 12.6l-.5-.5c-.1-.1-.1-.3 0-.5l1.4-1.2c0-.1.1-.1.2-.1s.2 0 .2.1l3.7 4L20 6.3c.1-.1.2-.1.3-.1s.1 0 .2.1l1.5 1c.1.1.1.1.1.2s0 .2-.1.2l-8.3 10.5z"/><path d="M22 12.6h20v3.3H22z" opacity=".6"/><path d="M8.6 25.7l-.5-.5c-.1-.1-.1-.3 0-.5l1.4-1.2c.1-.1.1-.1.2-.1s.2 0 .2.1l3.7 4 6.4-8.1c.1-.1.2-.1.3-.1s.1 0 .2.1l1.5 1.1c.1.1.1.1.1.2s0 .2-.1.2l-8.2 10.4z"/><path d="M22 25.7h20V29H22z" opacity=".6"/></g></svg>