<svg xmlns="http://www.w3.org/2000/svg" xmlns:xlink="http://www.w3.org/1999/xlink" width="50" height="50"><path fill="#0f0f0f" d="M28.43 27.562c0 .81-.254 1.462-.764 1.955s-1.254.796-2.23.908v1.6h-1.07V30.47c-1.006-.01-1.928-.234-2.768-.674v-2.028c.264.215.684.423 1.264.626s1.08.318 1.504.348v-2.666c-1.078-.4-1.844-.84-2.293-1.314s-.674-1.103-.674-1.88.277-1.432.828-1.967 1.266-.846 2.14-.934V18.62h1.07v1.333c1.03.05 1.8.215 2.307.498v1.978c-.68-.4-1.447-.664-2.307-.762v2.775c1.078.392 1.848.83 2.307 1.318s.687 1.1.687 1.803zm-4.064-3.545v-2.322c-.678.122-1.018.477-1.018 1.063 0 .51.34.932 1.018 1.26zm2.117 3.647c0-.473-.35-.863-1.047-1.172v2.22c.697-.113 1.047-.462 1.047-1.048z"/><use xlink:href="#B" fill="#7fba00"/><use xlink:href="#B" opacity=".1" fill="#fff"/><path fill="#fcd116" d="M50 25H38.81c0 4.096-1.793 7.764-4.625 10.292l7.457 8.36C46.768 39.072 50 32.415 50 25"/><path opacity=".9" fill="#b8d432" d="M38.81 25H50C50 11.193 38.807 0 25 0v11.19c7.626 0 13.8 6.182 13.8 13.81"/><defs ><path id="B" d="M25 38.8c-7.627 0-13.81-6.183-13.81-13.81s6.183-13.81 13.8-13.8 13.8 6.182 13.8 13.81H50C50 11.193 38.807 0 25 0v.001C11.19.002 0 11.194 0 25s11.192 25 25 25c6.393 0 12.22-2.403 16.64-6.35l-7.457-8.358C31.74 37.474 28.53 38.8 25 38.8z"/></defs></svg>