<svg xmlns="http://www.w3.org/2000/svg" width="50" height="48.4"><path d="M29.6 23.2a4.48 4.48 0 0 0-4.5-4.5 4.48 4.48 0 0 0-4.5 4.5 4.48 4.48 0 0 0 4.5 4.5 4.48 4.48 0 0 0 4.5-4.5z" fill="#b8d432"/><path d="M43.1 15.3c.3-1 .4-2 .4-3.1C43.5 5.5 38.2 0 31.7 0c-4.9 0-9.1 3.1-10.9 7.5-1.5-1.9-3.8-3-6.4-3-4.6 0-8.3 3.9-8.3 8.6 0 .8.1 1.6.3 2.4C2.7 16.9 0 20.2 0 24.6c0 5.6 4.4 9.8 9.9 9.8h14.2v-4.1c-1.8-.3-3.4-1.2-4.4-2.6l-3.8 2 1.3 3-5.8-1.5 2-6 1.5 2.8 3.7-2.2a8.21 8.21 0 0 1-.5-2.8c0-.9.2-1.8.5-2.6l-3.9-2.3-1.5 2.7-1.9-6 5.9-1-1.4 2.5 3.9 2.3c1.1-1.4 2.7-2.4 4.6-2.7v-4.4h-2.8l3.8-4.6 4 4.6h-3v4.4c1.9.3 3.5 1.3 4.6 2.7l3.9-2.3-1.5-2.6 5.9 1.2-1.9 5.9-1.5-2.6-3.9 2.3c.3.8.5 1.7.5 2.6s-.2 1.8-.5 2.6l3.9 2.3 1.7-2.9 1.8 6.2-6.3 1.4 1.6-2.9-3.9-2.3c-1.1 1.5-2.8 2.5-4.6 2.7v4.2h14.1c5.5 0 9.8-4.2 9.8-9.8 0-4.5-2.9-8-6.9-9.3z" fill="#59b4d9"/><path d="M23.5 34.4h3v7h-3z" fill="#3999c6"/><circle cx="25" cy="44.4" r="4" fill="#0072c6"/></svg>