<svg xmlns="http://www.w3.org/2000/svg" width="47" height="50"><g fill="#7fba00"><circle cx="22.8" cy="11.1" r="4"/><circle cx="23.1" cy="38.9" r="4"/></g><path d="M13 40.9h-1.9C5 40.9 0 35.9 0 29.8v-9.7C.1 14.3 5 9.3 11 9h3a1.79 1.79 0 0 1 1.8 1.8 1.79 1.79 0 0 1-1.8 1.8h-2.9c-4 .2-7.4 3.5-7.4 7.4v9.7c0 4.1 3.3 7.4 7.4 7.4H13a1.79 1.79 0 0 1 1.8 1.8c0 1.2-.8 2-1.8 2z" fill="#59b4d9"/><path d="M35.9 40.9H32a1.79 1.79 0 1 1 0-3.6h3.9c4.1 0 7.4-3.3 7.4-7.4v-9.7c0-4.1-3.3-7.4-7.4-7.4H33a1.79 1.79 0 0 1-1.8-1.8A1.79 1.79 0 0 1 33 9.2h2.9c6.1 0 11.1 5 11.1 11.1V30c0 6-5 10.9-11.1 10.9z" fill="#804998"/><path d="M22.6 22.2c-2.8 0-5.7-1.1-7.8-3.2-.7-.7-.7-1.9 0-2.6s1.9-.7 2.6 0c2.9 2.9 7.6 2.9 10.4 0 2.9-2.9 2.9-7.6 0-10.4-1.4-1.4-3.3-2.2-5.2-2.2-2 0-3.8.8-5.2 2.2-.7.7-1.9.7-2.6 0s-.7-1.9 0-2.6C16.9 1.2 19.7 0 22.6 0c3 0 5.7 1.2 7.8 3.2 4.3 4.3 4.3 11.4 0 15.7-2.1 2.2-4.9 3.3-7.8 3.3z" fill="#68217a"/><path d="M23 50c-3 0-5.7-1.2-7.8-3.2-4.3-4.3-4.3-11.4 0-15.7 2.1-2.1 4.9-3.2 7.8-3.2 3 0 5.7 1.2 7.8 3.2.7.7.7 1.9 0 2.6s-1.9.7-2.6 0c-1.4-1.4-3.3-2.2-5.2-2.2-2 0-3.8.8-5.2 2.2-2.9 2.9-2.9 7.6 0 10.4 1.4 1.4 3.2 2.2 5.2 2.2s3.8-.8 5.2-2.2c.7-.7 1.9-.7 2.6 0s.7 1.9 0 2.6C28.8 48.8 26 50 23 50z" fill="#0072c6"/></svg>