<svg xmlns="http://www.w3.org/2000/svg" width="50" height="42.7"><path d="M0 40.8c0 1 .8 1.9 1.8 1.9h46.3c1 0 1.9-.8 1.9-1.9V7.7H0z" fill="#a0a1a2"/><path d="M48.1 0H1.8C.8 0 0 .9 0 1.9v5.7h50V1.9c0-1-.8-1.9-1.9-1.9" fill="#7a7a7a"/><path d="M3.7 39h19V21.6L13.1 12H3.7z" fill="#b8d432"/><path d="M4.8 38h16.8V22.3h-9.2v-9.2H4.8z" opacity=".8" fill="#fff"/><path d="M27.2 39h19V21.6L36.6 12h-9.4z" fill="#b8d432"/><g fill="#fff"><path d="M28.3 38h16.8V22.3h-9.2v-9.2h-7.6z" opacity=".8"/><path d="M2 0C.9 0 0 .9 0 2v38.6c0 1.1.9 2 2 2h2.2L43.6 0z" opacity=".2"/></g></svg>