<svg xmlns="http://www.w3.org/2000/svg" width="48.158" height="35.919"><g fill="#0072c6"><circle cx="23.021" cy="15.008" r="5"/><path d="M37.22 10.208c-2.6-7.8-11.1-12.1-19-9.4-5.2 1.8-9.1 6.3-10 11.8-6.3 2.1-9.7 8.9-7.6 15.1s8.9 9.7 15.1 7.6c2.6-.9 4.8-2.6 6.3-4.8v-8.7c-1.6-.2-3.1-1-4.2-2.3l-.9.9c1.9 2.7 1.3 6.5-1.4 8.4s-6.5 1.3-8.4-1.4-1.3-6.4 1.4-8.3c2.1-1.5 4.9-1.5 7 0l1.2-1.2c-1.6-3.5-.1-7.7 3.4-9.3s7.7-.1 9.3 3.4c.8 1.8.9 3.9.1 5.7l2.2 1.6c.2-.2.4-.4.6-.5 2.4-1.7 5.7-1.1 7.3 1.2 1.7 2.4 1.1 5.7-1.2 7.3-2.4 1.7-5.7 1.1-7.3-1.2a5.12 5.12 0 0 1-.5-5.2l-2.1-1.5c-1.1 1.3-2.6 2.2-4.3 2.4v8c3.8 6.1 11.9 7.9 17.9 4s7.9-11.9 4-17.9c-2-2.9-5.2-5.1-8.9-5.7z"/><circle cx="12.021" cy="24.008" r="4"/></g><path d="M12.22 16.608c1.3-8.1 8.9-13.7 17.1-12.4 2.2.3 4.3 1.2 6.1 2.4-4.6-6.8-13.9-8.7-20.8-4-3.4 2.3-5.8 6-6.4 10.1-6.2 2-9.6 8.8-7.6 15.1.9 2.7 2.7 5 5.2 6.5-3.5-5.6-1.7-13 4-16.5.7-.5 1.6-.9 2.4-1.2z" fill="#fff" opacity=".3"/></svg>