<svg xmlns="http://www.w3.org/2000/svg" width="50" height="46"><path d="M44 46H6a6 6 0 0 1-6-6V0h50v40a6 6 0 0 1-6 6z" fill="#3e3e3e"/><path d="M4 30h23v12H4zM4 0h7v12H4z" fill="#804998"/><path d="M4 0h7v2H4z" opacity=".2" fill="#fff"/><path d="M14 0h11v12H14z" fill="#e5e5e5"/><path d="M14 0h11v2H14z" opacity=".2" fill="#fff"/><path d="M28 0h4v12h-4z" fill="#804998"/><path d="M28 0h4v2h-4z" opacity=".2" fill="#fff"/><path d="M35 0h11v12H35z" fill="#59b4d9"/><path d="M35 0h11v2H35zM4 30h23v2H4z" opacity=".2" fill="#fff"/><path d="M30 30h16v12H30z" fill="#59b4d9"/><path d="M30 30h16v2H30z" opacity=".2" fill="#fff"/><path d="M23 15h23v12H23z" fill="#e5e5e5"/><path d="M46 17H23v-2h23z" opacity=".2" fill="#fff"/><path d="M4 15h16v12H4z" fill="#59b4d9"/><g fill="#fff"><path d="M20 17H4v-2h16z" opacity=".2"/><path d="M6 46h2.696L40.08 0H0v40a6 6 0 0 0 6 6z" opacity=".15"/></g></svg>