<svg xmlns="http://www.w3.org/2000/svg" xmlns:xlink="http://www.w3.org/1999/xlink" width="48" height="45.9"><use xlink:href="#B" fill="#59b4d9"/><use xlink:href="#B" opacity=".7" fill="#fff"/><g fill="#0072c6"><path d="M38.1 4.9H11C11 1.9 8.5 0 5.5 0S0 1.9 0 4.9v30c0 5 3 6 6 6h35v5s7 0 7-5V13c0-6-3-8.1-9.9-8.1zM46 41.1s-2-2.2-5.9-2.2H6c-2 0-4-.5-4-3.5 0-1.7 1.3-3.5 4-3.5 3 0 4.9 3 4.9 3h.1v-28h28.1c4 0 6.9 1.1 6.9 5.1zM35 29.85l1.5 4 1.5-4zm0-14h3v12h-3zm1.5-4.9c.828 0 1.5.647 1.5 1.446l-.027 1.454L35 13.826v-1.43c0-.798.672-1.445 1.5-1.445zm-13.5-1c.552 0 1 .647 1 1.446l-.018 1.454L22 12.826v-1.43c0-.798.448-1.445 1-1.445z"/><path d="M23 11.952a3.9 3.9 0 0 0-3.377 5.85 3.9 3.9 0 0 0 7.277-1.95 3.9 3.9 0 0 0-3.9-3.9zm0 6.8c-1.6 0-2.9-1.3-2.9-2.9s1.3-2.9 2.9-2.9 2.9 1.3 2.9 2.9-1.3 2.9-2.9 2.9z"/><path d="M23 18.766v-1.914l-1.867 1.307-4.017 12.364-.285 4.112 2.187-3.494 4.017-12.364z"/><path d="M28.884 30.523L24.867 18.16 23 16.852v1.914l-.035.01 4.018 12.364 2.186 3.494z"/><path d="M31 25.852H15a.5.5 0 1 1 0-1h16a.5.5 0 1 1 0 1z"/></g><defs ><path id="B" d="M42.4 44.856c-.48 0 .01.098-.4 0V39.9H6c-.204 0-5-.046-5-4v-31C1 2.22 3.333 1 5.5 1S10 2.22 10 4.9v1h28.1C43.507 5.9 47 7.53 47 13v28.9c0 2.244-2.02 2.957-4.6 2.957z"/></defs></svg>