<svg xmlns="http://www.w3.org/2000/svg" width="50" height="37.978" fill="#59b4d9"><path d="M36.194 24.326c2.303 0 4.003.407 5.126.8a8.98 8.98 0 0 1 1.236.534l.256.148v-3.206c-1.418-.555-3.62-1.156-6.62-1.156-3 0-5.15.597-6.545 1.154v3.214c.183-.113 2.318-1.5 6.546-1.5zm0-6.226c2.303 0 4.003.42 5.126.815a9.38 9.38 0 0 1 1.236.52l.256.148v-3.206c-1.418-.555-3.62-1.156-6.62-1.156-3 0-5.15.602-6.545 1.16v3.223c.1-.056 2.234-1.5 6.546-1.503zm-6.544-4.73c.098-.07 2.233-1.503 6.545-1.503 2.303 0 4.003.407 5.126.8.562.197.97.393 1.236.52l.256.162v-3.205C41.394 9.6 39.194 9 36.194 9c-3 0-5.15.597-6.545 1.154v3.214zM13.806 24.326c-2.303 0-4.003.407-5.126.8a8.98 8.98 0 0 0-1.236.534l-.256.148v-3.206c1.418-.555 3.62-1.156 6.62-1.156 3 0 5.15.597 6.545 1.154v3.214c-.183-.113-2.318-1.5-6.546-1.5zm0-6.226c-2.303 0-4.003.42-5.126.815a9.38 9.38 0 0 0-1.236.52l-.256.148v-3.206c1.418-.555 3.62-1.156 6.62-1.156 3 0 5.15.602 6.545 1.16v3.223c-.1-.056-2.234-1.5-6.546-1.503zm6.544-4.73c-.098-.07-2.233-1.503-6.545-1.503-2.303 0-4.003.407-5.126.8-.562.197-.97.393-1.236.52l-.256.162v-3.205C8.606 9.6 10.806 9 13.806 9c3 0 5.15.597 6.545 1.154v3.214zm29.4-5.547c-.07-.098-1.32-1.98-3.483-3.905S40.772 0 36.376 0c-4.4-.014-7.7 2.008-9.832 3.932a18.65 18.65 0 0 0-1.545 1.589c-.43-.502-.947-1.043-1.545-1.6-2.12-1.924-5.42-3.947-9.832-3.932-4.396 0-7.74 1.994-9.902 3.918S.307 7.724.237 7.823L0 8.736V37.08l3.4.9h.17v-.014l.014-.028.112-.17c.112-.155.267-.393.492-.674a14.65 14.65 0 0 1 1.952-2.12c1.756-1.545 4.228-3.006 7.486-3.006 3.16 0 5.534 1.362 7.22 2.837.7.626.98 1.286 1.067 1.844h6.18c.1-.558.357-1.218 1.067-1.844 1.685-1.475 4.06-2.837 7.22-2.837 3.258 0 5.73 1.46 7.486 3.006a14.65 14.65 0 0 1 1.952 2.121c.225.28.38.52.492.674l.112.17.014.028v.014h.17l3.4-.9V8.736zm-26 24.284c-2.12-1.868-5.42-3.778-9.7-3.764-4.354 0-8.146 1.952-10.3 3.848V9.256l.38-.52c.435-.562 1.152-1.348 2.008-2.107 1.756-1.545 4.228-3.006 7.486-3.006 3.16 0 6 1.362 7.697 2.837a13.97 13.97 0 0 1 2.43 2.781zm22.5.084c-2.163-1.896-5.955-3.848-10.3-3.848-4.27-.014-7.57 1.896-9.7 3.764V9.242a14 14 0 0 1 2.43-2.781c1.685-1.475 4.536-2.837 7.697-2.837 3.258 0 5.73 1.46 7.486 3.006.857.758 1.573 1.545 2.008 2.107l.38.52V32.2z"/></svg>