<svg xmlns="http://www.w3.org/2000/svg" height="50" width="50"><path fill="#3999c6" d="M49 22.5c1.4 1.4 1.4 3.7 0 5L27.5 49c-1.4 1.4-3.7 1.4-5 0L1 27.5c-1.4-1.4-1.4-3.7 0-5L22.5 1c1.4-1.4 3.7-1.4 5 0L49 22.5z"/><g fill="#fff"><path d="M16.2 30.1l7 9.8 7-9.8zm17.3 0l6.4-1.6-3.5-5.6z"/><path d="M21 11.1h4.5v20.1H21z"/><path d="M37 29.1c-16.9-4.5-15.7-15.3-15.7-15.8l3.7.5-1.9-.2 1.9.2c0 .3-.7 8.1 12.9 11.7l-.9 3.6z"/><path opacity=".2" d="M27.5,1c-1.4-1.4-3.7-1.4-5,0L1,22.5c-1.4,1.4-1.4,3.7,0,5l14.1,14.1L33.7,7.2L27.5,1z"/></g></svg>