<svg xmlns="http://www.w3.org/2000/svg" width="50" height="42.634" viewBox="0.5 0.5 50 42.634"><path d="M.5 41.127c0 1.108.898 2.007 2.007 2.007h45.986c1.11 0 2.007-.9 2.007-2.007V9.798H.5z" fill="#59b4d9"/><path d="M48.493.5H2.507C1.398.5.5 1.398.5 2.507v10.627h50V2.507C50.5 1.398 49.6.5 48.493.5" fill="#a0a1a2"/><g fill="#fff"><path d="M2.514.5C1.406.5.507 1.398.507 2.507v38.62a2.01 2.01 0 0 0 2.007 2.007h2.188L44.12.5z" opacity=".2"/><path d="M13.357 5.28h33.67V9.22h-33.67z"/></g><path d="M11.8 7.183a4.88 4.88 0 0 1-4.878 4.878 4.88 4.88 0 0 1-4.878-4.878 4.88 4.88 0 0 1 4.878-4.879 4.88 4.88 0 0 1 4.878 4.879" fill="#59b4d9"/><path d="M7.428 10.068L4.47 7.25l2.948-2.818h1.198l-2.2 2.322h5.393v.978H6.416l2.213 2.336z" fill="#fff"/></svg>