<svg xmlns="http://www.w3.org/2000/svg" width="50" height="50"><path fill="#7a7a7a" d="M7.824 32.85l.094-2.147H2.1A2.09 2.09 0 0 0 0 32.779a2.09 2.09 0 0 0 2.1 2.076h5.808l-.084-2.005M46.38 20.733c.82-.813.82-2.127 0-2.94a2.12 2.12 0 0 0-2.971 0l-3.713 3.67c.723 1.273 1.327 2.648 1.797 4.1l4.887-4.83zM3.62 45.415a2.06 2.06 0 0 0 0 2.936c.82.812 2.15.812 2.97 0l4.166-4.118c-.72-1.272-1.327-2.646-1.794-4.098l-5.342 5.28zm5.23-19.51a22.12 22.12 0 0 1 1.749-4.148L6.59 17.794a2.12 2.12 0 0 0-2.972 0 2.06 2.06 0 0 0 0 2.939l5.23 5.17zm32.53 14.568c-.49 1.434-1.1 2.792-1.85 4.044l3.88 3.835c.82.812 2.15.812 2.97 0a2.06 2.06 0 0 0 0-2.936l-5.002-4.943zm6.52-9.77h-5.363l.095 2.147-.085 2.005h5.353A2.09 2.09 0 0 0 50 32.779a2.09 2.09 0 0 0-2.102-2.076"/><path d="M23.736 36.485V17.2h-4.762c-4.68 2.85-7.905 8.745-7.905 15.543 0 .55.022 1.095.063 1.633.02.267.06.527.1.8s.052.53.092.787c.06.383.14.757.218 1.13.028.13.047.262.077.4a19.59 19.59 0 0 0 .356 1.301c.016.053.028.1.045.162a19.43 19.43 0 0 0 .494 1.38c.003.006.005.013.007.02a18.14 18.14 0 0 0 2.054 3.772.27.27 0 0 1 .014.022c1.137 1.6 2.504 2.927 4.042 3.93.01.007.02.016.033.023.353.228.715.436 1.084.628.04.02.076.045.114.065a12.74 12.74 0 0 0 1.063.473c.063.025.124.058.188.082a12.07 12.07 0 0 0 1.084.344c.072.02.14.048.212.066.438.1.883.2 1.335.26l.001-13.526zm15.824-3.743l-.036-1.17-.047-.588-.043-.48c-.518-4.874-2.7-9.114-5.826-11.856l-.08-.072c-.25-.216-.506-.42-.768-.618l-.167-.13c-.306-.223-.62-.436-.94-.63H26.89V50c3.964-.536 7.44-3.064 9.742-6.74 1.833-2.92 2.926-6.565 2.926-10.52z" fill="#804998"/><path fill="#7a7a7a" d="M13.372 1.803c3.442.024 5.003 1.288 5.917 2.697.753 1.182.967 2.557 1.014 3.374-1.92 1.3-3.296 3.327-3.727 5.682h17.48c-.43-2.355-1.81-4.38-3.73-5.682.05-.82.262-2.192 1.014-3.374.913-1.407 2.474-2.67 5.92-2.697.504 0 .912-.404.912-.9S37.765 0 37.26 0c-3.93-.024-6.298 1.64-7.47 3.546-.75 1.2-1.068 2.444-1.203 3.412-1.013-.4-2.114-.62-3.27-.623s-2.262.225-3.274.623C21.908 6 21.6 4.746 20.84 3.546 19.667 1.64 17.3-.024 13.372 0c-.506 0-.913.405-.913.902s.407.9.913.9"/><path opacity=".2" d="M18.974 17.2c-4.68 2.85-7.905 8.745-7.905 15.543 0 4.356 1.33 8.335 3.5 11.387l9.156-7.644V17.2h-4.762zm12.682 0h-4.762v16.65l10.994-9.177c-1.395-3.2-3.562-5.848-6.232-7.473" fill="#fff"/></svg>