<svg xmlns="http://www.w3.org/2000/svg" width="50" height="50" viewBox="0.5 0.5 50 50"><path d="M26.93 12.098l6.902-6.548v3.553l-8.33 8.75-8.337-8.72v-3.54l6.865 6.506V.5h2.9zM.5 48.647A1.86 1.86 0 0 0 2.348 50.5h46.295c1.02 0 1.853-.832 1.853-1.853l.004-33.14h-3.768v15.796H4.2V15.508H.5v33.14z" fill="#804998"/><path opacity=".35" fill="#fff" d="M4.228 31.304h42.5V46.5h-42.5z"/><path d="M21.146 19.98h8.323v8.324h-8.323zm12.418 0h8.32v8.324h-8.32zm-24.834 0h8.324v8.324H8.73zm17.943 14.494h8.323v8.324h-8.323zm-12.417 0h8.324v8.324h-8.324z" fill="#b8d432"/></svg>