<svg xmlns="http://www.w3.org/2000/svg" xmlns:xlink="http://www.w3.org/1999/xlink" width="50.002" height="42.139"><g fill="#ba141a"><use xlink:href="#B"/><path d="M48.628 25.74c1.83.75 1.83 1.965 0 2.714l-20.316 8.324c-1.83.75-4.795.75-6.625 0L1.372 28.453c-1.83-.75-1.83-1.965 0-2.714l20.316-8.324c1.83-.75 4.795-.75 6.625 0l20.315 8.324z"/><use xlink:href="#C"/><path d="M48.628 17.313c1.83.75 1.83 1.965 0 2.714L28.312 28.35c-1.83.75-4.795.75-6.625 0L1.372 20.027c-1.83-.75-1.83-1.965 0-2.714L21.688 8.99c1.83-.75 4.795-.75 6.625 0l20.315 8.324z"/><use xlink:href="#D"/></g><g fill="#1e1e1e"><use xlink:href="#B" opacity=".25"/><use xlink:href="#C" opacity=".25"/><use xlink:href="#D" opacity=".25"/></g><path d="M48.628 8.887c1.83.75 1.83 1.965 0 2.714l-20.316 8.324c-1.83.75-4.795.75-6.625 0L1.372 11.6c-1.83-.75-1.83-1.965 0-2.714L21.688.563c1.83-.75 4.795-.75 6.625 0l20.315 8.324z" fill="#ba141a"/><path d="M18.74 11.813c-2.32 1.03-6.078 1.03-8.396 0s-2.32-2.703 0-3.735 6.078-1.03 8.396 0 2.32 2.704 0 3.735zm-1.573 2.657l11.898-1.418-3.188 5.292z" fill="#fff"/><g fill="#1e1e1e"><path d="M42.926 9.974L35.8 13.138l-7.115-3.165L35.8 6.81z" opacity=".25"/><path d="M35.8 13.138l-7.115-3.165L35.8 6.81z" opacity=".25"/></g><path d="M21.66 2.552l3.495 1.425 4.314-.874-1.966 1.918 3.203 1.555-4.7-.24-2.335 1.836-.945-2.067-4.645-.42 4.126-1.038z" fill="#fff"/><defs ><path id="B" d="M.01 31.77c-.085.532.37 1.076 1.362 1.483l20.316 8.324c1.83.75 4.795.75 6.625 0l20.316-8.324c.993-.407 1.447-.95 1.362-1.483l.005-4.768c.062.522-.394 1.052-1.367 1.45l-20.316 8.324c-1.83.75-4.795.75-6.625 0L1.372 28.453C.304 28.015-.14 27.42.04 26.85l-.03 4.92z"/><path id="C" d="M.01 23.344c-.085.532.37 1.076 1.362 1.483l20.316 8.324c1.83.75 4.795.75 6.625 0l20.316-8.324c.993-.407 1.447-.95 1.362-1.483l.005-4.768c.062.522-.394 1.052-1.367 1.45L28.313 28.35c-1.83.75-4.795.75-6.625 0L1.372 20.027C.304 19.59-.14 18.993.04 18.423l-.03 4.92z"/><path id="D" d="M.01 14.918c-.085.532.37 1.076 1.362 1.483l20.316 8.324c1.83.75 4.795.75 6.625 0L48.63 16.4c.993-.407 1.447-.95 1.362-1.483l.005-4.768c.062.522-.394 1.052-1.367 1.45l-20.316 8.324c-1.83.75-4.795.75-6.625 0L1.372 11.6C.304 11.163-.14 10.567.04 9.997l-.03 4.92z"/></defs></svg>