<svg xmlns="http://www.w3.org/2000/svg" width="40.667" height="41.417" viewBox="0 0 244 207.083"><path d="M0 9v180.5c0 19 42 34 93.5 34V9H0z" fill="#3999c6"/><path d="M92.5 223.5H94c52 0 93.5-15 93.5-34V9h-95v214.5z" fill="#59b4d9"/><path d="M187.5 9c0 18.5-42 34-93.5 34S0 27.5 0 9s42-34 93.5-34 94 15.5 94 34" fill="#fff"/><path d="M168.5 7c0 12.5-33.5 22.5-74.5 22.5S19 19.5 19 7s33.5-22.5 74.5-22.5 75 10 75 22.5" fill="#7fba00"/><path d="M152.5 20.5c10-4 15.5-8.5 15.5-13.5 0-12.5-33.5-22.5-74.5-22.5S19-5.5 19 7c0 5 6 10 15.5 13.5C48 15 69.5 12 93.5 12s45.5 3.5 59 8.5" fill="#b8d432"/><g fill="#0072c6"><path d="M119 80.5V201c0 12.5 28 22.5 62.5 22.5v-143H119z"/><path d="M180.5 223.5h1c34.5 0 62.5-10 62.5-22.5V80.5h-63.5v143z"/></g><g fill="#fff"><path d="M180.5 223.5h1c34.5 0 62.5-10 62.5-22.5V80.5h-63.5v143z" opacity=".15"/><path d="M244 80.5c0 12.5-28 22.5-62.5 22.5S119 93 119 80.5 147 58 181.5 58 244 68 244 80.5"/></g><path d="M231 79c0 8-22.5 15-49.5 15S132 87.5 132 79c0-8 22.5-15 49.5-15S231 71 231 79" fill="#7fba00"/><path d="M220.5 88c6.5-2.5 10.5-5.5 10.5-9 0-8-22.5-15-49.5-15C154 64 132 70.5 132 79c0 3.5 4 6.5 10.5 9 9-3.5 23.5-6 39.5-6 15 0 29 2.5 38.5 6" fill="#b8d432"/><path d="M149.5 166.5l69.5-57-27 44h23.5L146 211l27-44.5z" fill="#fff"/></svg>