<svg xmlns="http://www.w3.org/2000/svg" width="50" height="50"><g transform="matrix(-.7071 -.7071 .7071 -.7071 -5.5673 72.8951)"><ellipse cx="12.313" cy="37.601" rx="4.1" ry="16.9" fill="#dd5900"/><ellipse cx="12.313" cy="37.601" rx="2.5" ry="12.2" fill="#fcd116"/></g><path d="M49.986 18.6c0-2.4-1.9-4.3-4.2-4.3h-.6c.2-.9.4-1.9.4-3 0-6.2-5.1-11.2-11.2-11.2-4.9 0-9.1 3.3-10.6 7.6-.8-.2-1.6-.4-2.5-.4-4.3 0-7.6 3.5-7.6 7.8s3.4 7.8 7.6 7.8h24.7c2.3-.3 4-2.1 4-4.3" fill="#3999c6"/><path d="M25.286 22.8c-1-1-1.8-2.2-2.1-3.8-.9-4.2 1.6-8.3 5.7-9.2.9-.2 1.7-.2 2.6-.1.3-3.9 2.7-7.3 6.3-9-1.1-.3-2.2-.6-3.4-.6-4.9 0-9.1 3.3-10.6 7.6-.8-.2-1.6-.4-2.5-.4-4.3 0-7.6 3.5-7.6 7.8s3.4 7.8 7.6 7.8h4v-.1z" opacity=".2" fill="#fff" enable-background="new"/><g fill="#68217a"><path d="M4.686 21.6v9.2l3.9 3.8h9.2v-13z"/><path d="M28.486 45.3h-9.2l-3.9-3.8v-9.2l13.1-.1z"/></g><path d="M30.564 30.016L17.27 43.31 6.523 32.56l13.293-13.293z" fill="#e5e5e5"/><path d="M17.33 43.356l-6.8 2.5-6.5-6.5 2.5-6.8zM19.886 19.3c6.6-6.6 16.1-5.4 16.1-5.4s1.3 9.5-5.4 16.2l-10.7-10.8z" fill="#68217a"/><circle cx="20.686" cy="29.3" r="2.9" fill="#0072c6"/><path d="M35.886 13.8c-1.6-.1-10-.5-16 5.5l-2.3 2.3h-12.9v9.2l1.8 1.8-2.5 6.8 3.2 3.2 28.7-28.8z" opacity=".15" fill="#fff" enable-background="new"/></svg>