<svg xmlns="http://www.w3.org/2000/svg" xmlns:xlink="http://www.w3.org/1999/xlink" width="50" height="42.143"><path d="M50 33.57a3.57 3.57 0 0 1-3.571 3.571H3.57A3.57 3.57 0 0 1 0 33.571v-30A3.57 3.57 0 0 1 3.571 0h42.857A3.57 3.57 0 0 1 50 3.571z" fill="#fcd116"/><path d="M4.286 4.286h41.43v28.57H4.286z" fill="#fff"/><circle cx="12.143" cy="26.429" r="5.714" fill="#dd5900"/><circle cx="12.143" cy="26.429" r="4.286" fill="#ff8c00"/><path d="M12.143 30.714a6.4 6.4 0 0 1-4.317-1.679l-.678 13.03 4.923-4.923 5 5 .072-.714-.683-12.394c-1.143 1.04-2.655 1.68-4.317 1.68z" fill="#dd5900"/><g fill="#7a7a7a"><use xlink:href="#B"/><use xlink:href="#B" y="-4.371"/><path d="M40.962 14.286a.8.8 0 0 1-.799.799h-30.08a.8.8 0 0 1-.799-.799.8.8 0 0 1 .799-.799h30.078a.8.8 0 0 1 .8.799"/></g><defs ><path id="B" d="M40.962 25.085a.8.8 0 0 1-.799.799H22.227a.8.8 0 0 1-.799-.799.8.8 0 0 1 .799-.799h17.936a.8.8 0 0 1 .799.799"/></defs></svg>