<svg xmlns="http://www.w3.org/2000/svg" width="145.7" height="145.7" stroke="#4293f4"><path d="M113.7 145.1c-10.4 0-20.2-5.2-26.1-13.9-3.3-5-8.8-7.9-14.7-7.9-6 0-11.3 2.9-14.7 7.9-5.8 8.7-15.5 14-26.1 14-17.4 0-31.5-14.1-31.5-31.5 0-10.4 5.2-20.2 13.9-26.1 5-3.3 7.9-8.8 7.9-14.7 0-6-2.9-11.3-7.9-14.7C5.8 52.4.5 42.7.5 32.1.5 14.7 14.6.6 32 .6c10.4 0 20.2 5.2 26.1 13.9 3.3 5 8.8 7.9 14.7 7.9s11.4-3 14.7-7.9c5.8-8.7 15.5-14 26.1-14 17.4 0 31.5 14.1 31.5 31.5 0 10.4-5.2 20.2-13.9 26.1-5 3.3-7.9 8.8-7.9 14.7 0 6 2.9 11.3 7.9 14.7 8.7 5.8 14 15.5 14 26.1 0 17.4-14.1 31.5-31.5 31.5zm-40.8-30.3c8.7 0 16.8 4.3 21.7 11.6 4.4 6.4 11.5 10.2 19.1 10.2 12.7 0 23-10.3 23-23 0-7.7-3.8-14.8-10.2-19.1-7.3-4.9-11.7-13.1-11.7-21.8s4.3-16.8 11.6-21.7c6.4-4.4 10.2-11.5 10.2-19.1 0-12.7-10.3-23-23-23-7.7 0-14.8 3.8-19.1 10.2-4.9 7.3-13.1 11.7-21.7 11.7S56 26.5 51.1 19.2C46.7 12.8 39.6 9 32 9 19.3 9 9 19.3 9 32c0 7.7 3.8 14.8 10.2 19.1 7.3 4.9 11.7 13.1 11.7 21.7 0 8.7-4.3 16.8-11.6 21.7-6.4 4.4-10.2 11.5-10.2 19.1 0 12.7 10.3 23 23 23 7.7 0 14.8-3.8 19.1-10.2 4.9-7.3 13-11.6 21.7-11.6zm0-5.9c-6.4 0-12.8-2.4-17.7-7.2L44.3 90.9c-9.8-9.8-9.9-25.8-.2-35.7l10.8-10.9c9.8-9.8 25.8-9.9 35.7-.2l10.9 10.8a24.89 24.89 0 0 1 7.5 17.8c0 6.8-2.6 13.1-7.3 17.9l-10.8 10.9c-4.9 4.9-11.4 7.4-18 7.4zm-.1-63.7c-4.3 0-8.7 1.6-12 4.9l-10.7 11c-6.5 6.6-6.4 17.2.1 23.8l10.9 10.8c6.6 6.5 17.2 6.4 23.8-.1l10.8-10.9c3.2-3.2 4.9-7.4 4.9-11.9a16.33 16.33 0 0 0-5-11.8L84.7 50.2c-3.3-3.4-7.6-5-11.9-5z"/></svg>