<svg xmlns="http://www.w3.org/2000/svg" xmlns:xlink="http://www.w3.org/1999/xlink" width="50" height="50"><path fill="#fff" d="M22.83 4.372a20.66 20.66 0 0 0-13.953 7.579 20.67 20.67 0 0 0-4.508 15.227c.604 5.703 3.45 10.604 7.58 13.95s9.52 5.11 15.222 4.51a20.68 20.68 0 0 0 13.955-7.581 20.67 20.67 0 0 0 4.505-15.225c-.608-5.75-3.528-10.67-7.724-14.064-3.53-2.86-8.032-4.5-12.856-4.5-.733 0-1.474.038-2.222.116"/><path fill="#3999c6" d="M49.86 22.385c-.728-6.937-4.27-12.883-9.273-16.928-.97-.786-2.018-1.472-3.1-2.1l-1.963 3.777c.83.493 1.636 1.024 2.385 1.632 4.196 3.395 7.116 8.312 7.723 14.063.602 5.706-1.165 11.093-4.504 15.226-3.35 4.13-8.25 6.98-13.955 7.58-3.82.4-7.49-.277-10.744-1.76l-1.96 3.774c3.976 1.85 8.48 2.708 13.15 2.214 6.862-.72 12.796-4.164 16.814-9.133 4.02-4.963 6.155-11.487 5.427-18.345"/><use xlink:href="#B" fill="#a0a1a2"/><use xlink:href="#B" fill="#59b4d9"/><g fill="#7a7a7a"><path d="M35.497 31.558l-9.6-3.414a2 2 0 0 1-1.214-2.554 2 2 0 0 1 2.554-1.214l9.6 3.414a2 2 0 0 1 1.214 2.554 2 2 0 0 1-2.554 1.214z"/><path d="M24.8 27.773a2 2 0 0 1-2-2V8.755a2 2 0 1 1 4 0v17.018a2 2 0 0 1-2 2z"/></g><circle fill="#1e1e1e" cx="24.801" cy="25.773" r="2.921"/><path d="M24.418 7.087h1.146v3.556h-1.146zm12.732 4.93l.8.8-2.514 2.514-.8-.8zm1.905 12.398h3.556v1.147h-3.556zm-3.77 10.055l2.514 2.514-.8.8-2.514-2.514zm-10.866 4.526h1.146v3.556h-1.146zM12.716 11.903l2.514 2.514-.8.8-2.514-2.514zm1.878 22.67l.8.8L12.9 37.9l-.8-.8zM7.15 24.415h3.557v1.147H7.15z" fill="#7a7a7a"/><defs ><path id="B" d="M11.95 41.127c-4.133-3.346-6.978-8.247-7.58-13.95-.6-5.708 1.162-11.094 4.508-15.228s8.246-6.977 13.95-7.578c4.613-.484 9.016.574 12.694 2.76l1.963-3.776C33.07.793 27.824-.43 22.38.143 15.522.865 9.588 4.31 5.57 9.274l-.007.01A24.94 24.94 0 0 0 .139 27.621c.723 6.86 4.164 12.796 9.135 16.815 1.582 1.282 3.335 2.346 5.194 3.212l1.96-3.774c-1.603-.73-3.114-1.643-4.478-2.747"/></defs></svg>