<svg xmlns="http://www.w3.org/2000/svg" width="48" height="48" fill-rule="evenodd"><rect width="48" height="48" rx="2" fill="#e4e4e4"/><path d="M26.403 34.715c-.264.19-.64.425-1.13.7s-1.108.545-1.85.808-1.616.5-2.62.682-2.143.287-3.41.287c-1.796 0-3.495-.27-5.1-.808s-3-1.346-4.22-2.423S5.905 31.543 5.2 29.94s-1.06-3.47-1.06-5.602c0-2.083.34-3.932 1.024-5.548s1.616-2.98 2.8-4.093 2.574-1.963 4.166-2.55 3.3-.88 5.153-.88c.98 0 1.867.06 2.657.18s1.5.275 2.1.467a10.65 10.65 0 0 1 1.563.61l1.04.575c.55.407.946.832 1.185 1.274s.36.904.36 1.383a3.16 3.16 0 0 1-.27 1.293 5.18 5.18 0 0 1-.646 1.095c-.227.297-.48.573-.754.826a3.89 3.89 0 0 1-.629.485l-.916-.844a6.39 6.39 0 0 0-1.346-.88c-.582-.284-1.19-.512-1.814-.682-.682-.192-1.442-.288-2.28-.288-1.053 0-2 .174-2.872.52a6.4 6.4 0 0 0-2.245 1.508c-.634.66-1.125 1.455-1.472 2.388s-.52 1.987-.52 3.16c0 1.197.2 2.25.574 3.16s.9 1.67 1.58 2.28c.69.623 1.504 1.094 2.388 1.383.92.31 1.92.467 2.998.467 1.34 0 2.496-.168 3.465-.503s1.706-.682 2.21-1.04l2.693 4.632z" fill="#81ba33"/><path d="M24.257 29.508c.144.12.467.305.97.557s1.137.502 1.903.754 1.652.478 2.657.682 2.095.305 3.268.305c.957 0 1.723-.066 2.298-.197s1.017-.306 1.33-.52.514-.46.6-.736.144-.557.144-.844c0-.575-.234-1.047-.7-1.418s-1.335-.665-2.604-.88l-3.663-.647a21 21 0 0 1-2.872-.718c-.92-.29-1.786-.728-2.568-1.292-.764-.562-1.395-1.286-1.85-2.12-.48-.862-.718-1.927-.718-3.196 0-1.1.203-2.136.6-3.106A6.74 6.74 0 0 1 24.94 13.6c.837-.718 1.897-1.286 3.177-1.705s2.783-.63 4.507-.63c1.245 0 2.334.066 3.268.198s1.735.293 2.406.485 1.214.383 1.633.574l.916.467c.407.24.796.57 1.167.987s.557.916.557 1.5a3.2 3.2 0 0 1-.216 1.168c-.137.358-.31.7-.52 1.023-.204.31-.425.58-.665.808a6.07 6.07 0 0 1-.61.52c-.24-.24-.6-.508-1.077-.807a8.91 8.91 0 0 0-1.724-.808c-.67-.24-1.436-.443-2.298-.6a14.48 14.48 0 0 0-2.765-.252c-.934 0-1.676.078-2.227.233s-.963.348-1.238.575-.455.485-.54.772a2.84 2.84 0 0 0-.126.79c0 .215.03.42.1.6s.204.377.43.557.55.347.97.503.987.305 1.705.45l3.806.754c1.34.263 2.52.592 3.537.987s1.874.88 2.568 1.454a5.44 5.44 0 0 1 1.562 2.083c.347.814.52 1.784.52 2.91 0 2.513-.94 4.476-2.818 5.89s-4.53 2.118-7.954 2.118c-1.556 0-2.986-.13-4.29-.395s-2.448-.568-3.43-.915-1.777-.677-2.387-.988-.976-.526-1.095-.646z" fill="#486385"/></svg>