<svg xmlns="http://www.w3.org/2000/svg" width="50" height="42.434"><path d="M43.34 14.66a12.52 12.52 0 0 0 .291-2.643C43.63 5.4 38.232 0 31.595 0a12 12 0 0 0-10.81 6.736 8.66 8.66 0 0 0-6.114-2.523 8.65 8.65 0 0 0-8.638 8.637c0 .646.072 1.298.218 1.968C2.328 16.416 0 19.73 0 23.763 0 29.2 4.443 33.46 10.113 33.46h.646c.1 4.968 4.18 8.975 9.164 8.975 3.355 0 6.393-1.81 7.996-4.68a6.65 6.65 0 0 0 4.36 1.628c3.42 0 6.25-2.59 6.65-5.922h.96c5.67 0 10.1-4.26 10.1-9.696 0-4.2-2.544-7.654-6.66-9.104" fill="#3e3e3e"/><path d="M39.437 19.192l.736-1.743-.213-.184-1.607-1.396.008-1.4 1.812-1.62-.713-1.753-2.405.172-.992-1.006.135-2.428-1.742-.735-1.58 1.82-1.412-.01-1.62-1.8-1.752.7.17 2.406-1.004 1-2.428-.135-.736 1.743.213.184 1.608 1.397-.01 1.412-1.8 1.62.7 1.752.28-.02L27.2 19l.992 1.005-.135 2.426 1.743.736.184-.213 1.396-1.608 1.412.01 1.62 1.812 1.752-.712-.02-.282-.15-2.124L37 19.058l2.426.135zm-8.8-.5a3.872 3.872 0 1 1 3.01-7.134c1.97.832 2.893 3.103 2.062 5.073a3.87 3.87 0 0 1-5.072 2.061m-2.27 9.256v-1.893l-.266-.086-2.025-.663-.54-1.304 1.04-2.198-1.336-1.337-2.15 1.1-1.305-.54-.818-2.3-1.9-.002-.087.27-.663 2.023-1.304.54-2.198-1.04-1.337 1.337 1.1 2.15-.54 1.302-2.3.82-.001 1.9.267.088 2.025.66.54 1.306-1.04 2.196 1.336 1.34.25-.128 1.9-.964 1.302.54.82 2.3 1.9.001.087-.266.663-2.025 1.305-.54 2.196 1.04 1.34-1.336-.127-.25-.964-1.9.542-1.305 2.3-.817zm-8.313 2.96c-2.138-.001-3.87-1.736-3.87-3.874s1.736-3.87 3.875-3.87a3.87 3.87 0 0 1 3.869 3.874c-.001 2.138-1.736 3.87-3.875 3.87" fill="#fff"/><path d="M34.45 16.103c-.54 1.28-2.014 1.878-3.293 1.338s-1.878-2.014-1.338-3.293 2.014-1.878 3.293-1.338 1.877 2.014 1.338 3.293m-11.9 10.934c-.001 1.4-1.128 2.514-2.515 2.513s-2.512-1.127-2.5-2.516 1.127-2.513 2.513-2.512 2.514 1.127 2.513 2.515" fill="#b8d432"/></svg>