<svg xmlns="http://www.w3.org/2000/svg" xmlns:xlink="http://www.w3.org/1999/xlink" width="48.359" height="49.784"><style><![CDATA[.B{stroke-width:2}.C{fill-rule:nonzero}.D{fill:#486385}.E{stroke:#486385}.F{fill:#eaeaea}]]></style><g fill="none" fill-rule="evenodd"><g stroke="#81ba33"><g fill="#81ba33" stroke-width="3"><path d="M27.833 44.74v-5"/><path d="M44.228 46.724h-12.17m-9.467 0H10.42" stroke-linecap="round"/></g><path d="M23.595 48.784h8.475v-3.87h-8.475z" fill="#fff" class="B"/></g><g class="E"><use xlink:href="#B" class="B C F"/><use xlink:href="#C"/></g><g class="D"><rect width="7.201" height="1.2" x="36.314" y="35.71" rx=".6"/><rect width="7.201" height="1.2" x="36.314" y="33.673" rx=".6"/><rect width="7.201" height="1.2" x="36.314" y="31.673" rx=".6"/></g><g class="E"><use xlink:href="#B" y="-12.626" class="B C F"/><use xlink:href="#C" y="-12.627"/></g><g class="D"><rect width="7.201" height="1.2" x="36.314" y="23.083" rx=".6"/><rect width="7.201" height="1.2" x="36.314" y="21.046" rx=".6"/><rect width="7.201" height="1.2" x="36.314" y="19.046" rx=".6"/></g><g class="E"><path d="M45.857 4.137H9.827c-.845 0-1.502.542-1.502 1.24v7.52c0 .698.657 1.24 1.5 1.24h36.03c.845 0 1.502-.542 1.502-1.24v-7.52c0-.697-.657-1.24-1.502-1.24z" class="B C F"/><use xlink:href="#C" y="-25.255"/></g><g class="D"><rect width="7.201" height="1.2" x="36.314" y="10.455" rx=".6"/><rect width="7.201" height="1.2" x="36.314" y="8.418" rx=".6"/><rect width="7.201" height="1.2" x="36.314" y="6.418" rx=".6"/></g><path d="M47.28 3.425l-.026-.002H9.59c-1.28 0-2.312 1.37-2.312 2.9v31.45c0 1.522 1.032 2.877 2.312 2.877h.896z" opacity=".2" fill="#fff" class="C"/><circle cx="12.705" cy="12.705" r="12.005" fill="#f7f7f7" stroke="#81ba33" stroke-width="1.4"/><path d="M13.152 17.224c-.4.284-.857.51-1.33.672-.865.297-1.775.443-2.69.433-.8 0-1.558-.12-2.273-.36-.694-.228-1.334-.596-1.88-1.08a5.13 5.13 0 0 1-1.28-1.794c-.316-.714-.473-1.547-.473-2.496 0-.93.152-1.753.456-2.473s.72-1.33 1.25-1.825a5.41 5.41 0 0 1 1.856-1.137c.736-.266 1.514-.4 2.297-.392.438 0 .833.027 1.185.08s.664.123.936.208a4.75 4.75 0 0 1 1.16.529c.246.18.422.37.53.568s.16.403.16.616a1.41 1.41 0 0 1-.12.576 2.29 2.29 0 0 1-.288.488c-.1.133-.214.256-.337.37-.086.08-.18.154-.28.216l-.408-.376a2.85 2.85 0 0 0-.6-.393 4.57 4.57 0 0 0-.808-.304c-.332-.09-.674-.132-1.017-.128-.47 0-.896.078-1.28.232-.377.15-.718.38-1 .673-.3.305-.514.668-.657 1.064a4.02 4.02 0 0 0-.232 1.409c0 .533.085 1.003.256 1.408s.406.744.704 1.016a2.97 2.97 0 0 0 1.065.617c.4.138.856.208 1.336.208.598 0 1.113-.075 1.545-.224s.76-.304.984-.464l1.2 2.064z" fill="#81ba33"/><path d="M12.195 14.903c.064.054.21.136.433.25s.506.224.848.336a10.58 10.58 0 0 0 1.184.304c.45.1.934.136 1.457.136.427 0 .768-.03 1.024-.088s.454-.136.593-.232a.68.68 0 0 0 .272-.328 1.16 1.16 0 0 0 .064-.377c.004-.25-.112-.484-.312-.632-.208-.165-.595-.296-1.16-.392l-1.633-.288a9.36 9.36 0 0 1-1.281-.32c-.4-.13-.796-.324-1.144-.576-.34-.25-.623-.573-.825-.945-.213-.384-.32-.86-.32-1.424a3.53 3.53 0 0 1 .272-1.385c.182-.432.46-.808.833-1.128s.845-.574 1.416-.76 1.24-.28 2.01-.28c.555 0 1.04.03 1.456.087a8.15 8.15 0 0 1 1.073.216 5.28 5.28 0 0 1 .728.257l.408.208c.182.106.355.253.52.44a.97.97 0 0 1 .249.664 1.43 1.43 0 0 1-.096.52 2.44 2.44 0 0 1-.233.456c-.1.14-.19.26-.296.36a2.67 2.67 0 0 1-.272.233c-.147-.137-.307-.258-.48-.36a3.97 3.97 0 0 0-.768-.36c-.334-.117-.677-.208-1.025-.273-.406-.077-.82-.114-1.232-.112s-.747.035-.992.104-.43.155-.553.256c-.113.088-.197.208-.24.344-.035.114-.054.233-.056.353a.93.93 0 0 0 .04.272c.027.085.1.168.192.248a1.62 1.62 0 0 0 .432.224c.187.07.44.136.76.2l1.697.336c.538.1 1.065.248 1.577.44.454.176.835.392 1.144.65a2.42 2.42 0 0 1 .697.928c.154.363.232.795.232 1.296 0 1.12-.42 1.996-1.257 2.625s-2.02.945-3.545.945a9.68 9.68 0 0 1-1.913-.176 11.36 11.36 0 0 1-1.528-.408c-.364-.124-.72-.27-1.065-.44-.272-.14-.435-.235-.488-.29z" class="D"/></g><defs ><path id="B" d="M45.857 29.39H9.827c-.845 0-1.502.543-1.502 1.24v7.52c0 .698.657 1.24 1.5 1.24h36.03c.845 0 1.502-.542 1.502-1.24v-7.52c0-.697-.657-1.24-1.502-1.24z"/><path id="C" d="M13.158 35.712c-.75 0-1.407-.616-1.407-1.32s.657-1.32 1.407-1.32 1.408.616 1.408 1.32-.657 1.32-1.408 1.32z"/></defs></svg>