<svg xmlns="http://www.w3.org/2000/svg" width="50" height="42.434"><path d="M43.34 14.66a12.52 12.52 0 0 0 .291-2.643C43.63 5.4 38.232 0 31.595 0a12 12 0 0 0-10.81 6.736 8.66 8.66 0 0 0-6.114-2.523 8.65 8.65 0 0 0-8.638 8.637c0 .646.072 1.298.218 1.968C2.328 16.416 0 19.73 0 23.763 0 29.2 4.443 33.46 10.113 33.46h.646c.1 4.968 4.18 8.975 9.164 8.975a9.14 9.14 0 0 0 7.996-4.681 6.65 6.65 0 0 0 4.36 1.628c3.42 0 6.25-2.59 6.65-5.922h.96c5.67 0 10.1-4.26 10.1-9.696 0-4.2-2.544-7.654-6.66-9.104" fill="#59b4d9"/><path d="M39.437 19.192l.736-1.743-.213-.184-1.607-1.396.008-1.41 1.812-1.62-.713-1.753-.28.02-2.125.152-.992-1.006.135-2.428-1.742-.735-1.58 1.82-1.412-.01-1.62-1.8-1.752.71.17 2.406-1.004 1-2.428-.135-.736 1.743.213.184 1.608 1.397-.01 1.412-1.8 1.62.71 1.752.28-.02L27.2 19l.992 1.005-.135 2.426 1.743.736.184-.213 1.396-1.608 1.412.01 1.62 1.812 1.752-.712-.02-.282-.15-2.124 1.006-.992zm-8.81-.5c-1.97-.83-2.894-3.102-2.063-5.072s3.102-2.894 5.073-2.063 2.894 3.102 2.063 5.073-3.102 2.894-5.073 2.063m-2.27 9.255v-1.893l-.266-.086-2.025-.663-.54-1.304 1.04-2.198-1.336-1.337-2.15 1.09-1.305-.54-.818-2.29-1.89-.002-.087.27-.663 2.023-1.304.54-2.198-1.04-1.337 1.337 1.09 2.15-.54 1.302-2.3.82-.001 1.89.267.088 2.025.66.54 1.306-1.04 2.196 1.336 1.34.25-.128 1.9-.964 1.302.54.82 2.29 1.89.001.087-.266.663-2.025 1.305-.54 2.196 1.04 1.34-1.336-.127-.25-.964-1.9.542-1.305zm-8.313 2.96c-1.384-.001-2.66-.74-3.352-1.94s-.69-2.675.004-3.873 1.972-1.934 3.356-1.933c2.14.002 3.87 1.737 3.87 3.876s-1.737 3.87-3.876 3.87" fill="#fff"/><path d="M34.45 16.103c-.337.845-1.104 1.44-2.006 1.56s-1.797-.26-2.34-.988-.652-1.694-.283-2.525c.556-1.25 2.01-1.826 3.273-1.294s1.865 1.976 1.357 3.247M22.56 27.037c-.001 1.388-1.127 2.512-2.515 2.51s-2.512-1.127-2.51-2.515 1.127-2.512 2.515-2.51 2.512 1.127 2.51 2.515" fill="#b8d432"/></svg>