<svg xmlns="http://www.w3.org/2000/svg" width="49.799" height="35.9"><path d="M45.036 19a10.92 10.92 0 0 0 .778-4.041c0-6.058-4.907-10.97-10.96-10.97-1.683 0-3.27.39-4.696 1.07C27.8 1.987 24.086 0 19.9 0A12.96 12.96 0 0 0 6.958 12.964c0 .58.05 1.15.125 1.7a11 11 0 0 0-4.381 3.047c1 .858 2.395 1.373 3.847 1.373 5.276-.032 12.204-4.33 15.868-6.89l-1.747-1.915 7.902-1.674L26 16.277l-1.713-1.848C22.642 15.76 13.72 22.377 6.5 22.377c-2.232 0-4.106-.635-5.57-1.887-.565 1.27-.89 2.668-.93 4.14 1.4 1.3 3.477 1.963 6.234 1.963 6.822 0 17.44-4.26 26.425-10.596l-1.51-1.814 7.97-1.304-2.924 7.536-1.7-2.007c-9.437 7.1-20.12 11.508-27.812 11.508-2.377 0-4.408-.418-6.04-1.236.55 1.508 1.913 3.53 2.527 3.974 1.083.783 3.312 1.412 6.57 1.412 6.035 0 14.508-2.498 21.95-6.68l-1.507-1.953 8.012-1-3.198 7.423-1.6-2.05C28.995 32.5 24.152 34.603 19.45 35.9h21.383c4.953 0 8.967-4.018 8.967-8.975 0-3.435-1.93-6.417-4.763-7.926z" fill="#59b4d9"/></svg>