<svg xmlns="http://www.w3.org/2000/svg" width="50" height="42.6"><path d="M0 40.6c0 1.1.9 2 2 2h46c1.1 0 2-.9 2-2v-32H0z" fill="#3999c6"/><path d="M48 0H2C.9 0 0 .9 0 2v7.3h50V2c0-1.1-.9-2-2-2z" fill="#a0a1a2"/><g fill="#fff"><path d="M0 9.3h50v3.3H0z" opacity=".15"/><path d="M2 0C.9 0 0 .9 0 2v38.6c0 1.1.9 2 2 2h19.2L43.6 0z" opacity=".1"/><path d="M20.9 35.5l7.4-17.8h2.8l-7.5 17.8zm-2.7-15.8L7 25.6v2.1l11.2 5.9v-2.7l-7.9-4.3 7.9-4.2zm14.7 0l11.2 5.9v2.1l-11.2 5.9v-2.7l8-4.3-8-4.2z"/></g></svg>