<svg xmlns="http://www.w3.org/2000/svg" width="50" height="50"><path fill="#009480" d="M0 0h50v50H0z"/><path fill="#fff" d="M37.488 21.047c0-6.256-5.07-11.35-11.35-11.35s-11.35 5.07-11.35 11.35c0 4.65 2.79 8.628 6.767 10.395-.372.628-1.28 1.488-2.186 2.047-1.744 1.116-3.814 1.698-5.72 2.535-.326.14-.814.35-.837.58-.14 1.07-.14 2.163-.21 3.233.233.07.35.14.465.14 5.395 1 10.28-.28 14.698-3.093 4.605-2.932 9.72-7.7 9.72-15.838z"/><path fill="#414141" d="M26.186 13.465c-4.14-.023-7.535 3.28-7.58 7.372-.047 4.186 3.28 7.605 7.42 7.628 4.163.023 7.58-3.326 7.58-7.465a7.53 7.53 0 0 0-7.419-7.535z"/><path d="M21.07 21.558v-.674l3.977-2.977v1.233l-2.86 2.07v.023l2.86 1.86v1.233l-3.977-2.768zm6.093 2.744V23.07l2.86-1.837V21.2l-2.86-2.07v-1.233l3.977 3v.65l-3.977 2.744z" fill="#fff"/></svg>