<svg xmlns="http://www.w3.org/2000/svg" width="50" height="50"><path fill="#009480" d="M0 0h50v50H0z"/><path fill="#fff" d="M37.488 21.047c0-6.256-5.07-11.35-11.35-11.35s-11.35 5.07-11.35 11.35c0 4.65 2.79 8.628 6.767 10.395-.372.628-1.28 1.488-2.186 2.047-1.744 1.116-3.814 1.698-5.72 2.535-.326.14-.814.35-.837.58-.14 1.07-.14 2.163-.21 3.233.233.07.35.14.465.14 5.395 1 10.28-.28 14.698-3.093 4.605-2.932 9.72-7.7 9.72-15.838z"/><path fill="#414141" d="M26.326 13.465c-4.14-.023-7.535 3.28-7.58 7.372-.047 4.186 3.28 7.605 7.42 7.628 4.163.023 7.58-3.326 7.58-7.465-.001-4.116-3.326-7.488-7.42-7.535z"/><path d="M24.86 25c-.558 0-.953-.116-1.2-.35s-.395-.628-.395-1.163v-1.28c0-.558-.233-.86-.698-.86v-.698c.465 0 .698-.302.698-.907v-1.2c0-.535.14-.907.395-1.163s.676-.37 1.2-.37v.72c-.488 0-.72.28-.72.837v1.2c0 .65-.233 1.07-.674 1.233v.023c.442.14.674.535.674 1.2v1.2c0 .302.047.512.163.65s.302.2.558.2v.7zm2.768-.698c.256 0 .442-.07.558-.2s.163-.35.163-.65v-1.2c0-.65.233-1.047.674-1.2V21c-.442-.163-.674-.58-.674-1.233v-1.2c0-.558-.233-.837-.72-.837V17c.535 0 .953.116 1.2.372s.395.65.395 1.163v1.233c0 .605.233.907.698.907v.698c-.465 0-.698.28-.698.86v1.28c0 .535-.14.907-.395 1.163-.256.233-.674.35-1.2.35v-.722z" fill="#fff"/></svg>