<svg xmlns="http://www.w3.org/2000/svg" xmlns:xlink="http://www.w3.org/1999/xlink" width="50" height="50"><path fill="#009480" d="M0 0h50v50H0z"/><path fill="#fff" d="M31.465 15.58c-2.953-1.395-6.047-1.977-9.256-1.21-6.325 1.488-10.628 5.72-14.51 10.698 2.953 3.907 6.35 7.14 10.674 9.233 4.21 2.047 8.465 2.233 12.767.256 4.442-2.047 7.884-5.256 10.814-9.116.14-.186.256-.395.372-.605-2.976-3.885-6.418-7.164-10.86-9.257z"/><path fill="#414141" d="M25 17.65c-4.14 0-7.488 3.35-7.488 7.512 0 4.14 3.35 7.512 7.488 7.512a7.49 7.49 0 0 0 7.488-7.512C32.488 21 29.14 17.65 25 17.65zm0 13.047c-1.093 0-2.07-1.07-2.07-2.302 0-1 .907-1.814 2.047-1.814s2.07.814 2.07 1.79c.023 1.255-.93 2.325-2.047 2.325z"/><g fill="#fff"><use xlink:href="#B"/><use xlink:href="#B" x="-5.953"/></g><defs ><path id="B" d="M28 24.605a1.19 1.19 0 0 1-1.186-1.186c.023-.65.535-1.163 1.186-1.163a1.19 1.19 0 0 1 1.186 1.186c0 .65-.535 1.163-1.186 1.163z"/></defs></svg>