<svg xmlns="http://www.w3.org/2000/svg" width="50" height="50"><path fill="#009480" d="M0 0h50v50H0z"/><path fill="#fff" d="M31.512 15.628c-2.93-1.395-6.023-2-9.256-1.256-6.326 1.442-10.65 5.65-14.558 10.605 2.93 3.93 6.302 7.163 10.605 9.302 4.186 2.07 8.465 2.28 12.767.326 4.465-2.023 7.93-5.21 10.86-9.047.14-.186.256-.395.395-.605-2.953-3.906-6.372-7.21-10.813-9.325z"/><path fill="#414141" d="M25.07 17.65c-4.116-.023-7.512 3.28-7.558 7.372-.047 4.186 3.28 7.605 7.42 7.628 4.163.023 7.58-3.326 7.58-7.465s-3.326-7.512-7.442-7.535zm-1 11.163h-2.72v-2.72h2.72v2.72zm0-4.605h-2.72v-2.72h2.72v2.72zm4.604 4.605h-2.72v-2.72h2.72v2.72zm0-4.605h-2.72v-2.744h2.72v2.744z"/></svg>