<svg xmlns="http://www.w3.org/2000/svg" width="50" height="50"><path fill="#009480" d="M0 0h50v50H0z"/><path fill="#fff" d="M9.907 25.42v-4.233l.302-1.837c.395-2.86 2.326-5.767 5.837-6.372C22.023 11.93 28 11.907 33.977 13c3.256.605 5.047 2.72 5.698 5.86.605 2.907.558 5.837.07 8.767-.488 2.814-2.465 5.674-6.093 6.116l-7.116.744c-.326.047-.698.116-.953.302-1.326.86-2.07 1.837-3.977 2.605-1.558.674-4.86 1.395-5.116 1.326-.116-.186 2.326-2.884 2.535-4.512l-2.14-.326c-3.72-.558-5.907-2.605-6.605-6.233-.14-.742-.233-1.486-.373-2.23z"/><path fill="#414141" d="M29.047 30.256l1.512-.21c2.605-.372 4.14-1.698 4.628-4.023l.256-1.442v-2.72l-.21-1.186c-.28-1.837-1.628-3.72-4.093-4.116-4.186-.674-8.372-.698-12.558.023-2.28.395-3.535 1.767-4 3.79-.442 1.884-.395 3.767-.047 5.674.326 1.814 1.744 3.58 4.256 3.953 3.72.512 10.255.256 10.255.256z"/><path d="M19 23.186A1.16 1.16 0 0 1 20.186 22a1.19 1.19 0 0 1 1.186 1.186c0 .628-.535 1.163-1.186 1.163-.65.023-1.186-.512-1.186-1.163zM29.93 22a1.16 1.16 0 0 1 1.186 1.186 1.19 1.19 0 0 1-1.186 1.186 1.22 1.22 0 0 1-1.186-1.163c0-.674.535-1.2 1.186-1.2zm-4.883 2.372a1.19 1.19 0 0 1-1.186-1.186c.023-.65.535-1.163 1.186-1.163a1.19 1.19 0 0 1 1.186 1.186c0 .628-.512 1.163-1.186 1.163z" fill="#fff"/></svg>