<svg xmlns="http://www.w3.org/2000/svg" width="50" height="50"><path fill="#009480" d="M0 0h50v50H0z"/><g fill="#fff"><path d="M21.91 9.674h6.147v3.366l3.295 1.378 2.206-2.37 4.45 4.45-2.378 2.244 1.337 3.202h3.362v6.14h-3.364l-1.377 3.294 2.36 2.213-4.415 4.428-2.187-2.386-3.32 1.387v3.3h-6.113v-3.32l-3.264-1.362-2.227 2.37-4.498-4.488 2.44-2.14-1.397-3.336H9.67v-6.1H13l1.362-3.27-2.365-2.21 4.456-4.463 2.214 2.378 3.247-1.357V9.667l.005.007z"/><circle cx="25" cy="25" r="12.705"/></g><path fill="#414142" d="M25.096 17.024c-4.393 0-8.004 3.485-8.06 7.838s3.482 8.078 7.887 8.114 8.05-3.532 8.06-7.944-3.527-7.974-7.887-8.008z"/><path fill="#fff" d="M29.742 23.873a.36.36 0 0 0-.096-.149c-.047-.042-.102-.074-.16-.096a.82.82 0 0 0-.269-.037h-3.13l.204-.596.108-.263a2.59 2.59 0 0 1 .12-.263l.126-.244a1.96 1.96 0 0 1 .13-.204l.22-.3c.08-.115.148-.237.204-.364.064-.148.114-.302.15-.46.042-.196.062-.396.06-.596.001-.087-.014-.174-.043-.256a.6.6 0 0 0-.269-.34c-.063-.03-.133-.047-.204-.047a.55.55 0 0 0-.204.043c-.075.033-.144.08-.204.136-.078.07-.146.15-.204.238a1.98 1.98 0 0 0-.173.352 2.71 2.71 0 0 1-.352.661 3.74 3.74 0 0 1-.495.55c-.187.17-.386.326-.596.466l-.66.417c-.285.16-.553.347-.8.56-.185.162-.35.347-.488.55a1.83 1.83 0 0 0-.25.531 2.01 2.01 0 0 0-.059.37h-2.14v4.885h2.11v-.668c.025.062.07.112.13.142a1.6 1.6 0 0 0 .37.149 5.13 5.13 0 0 0 .55.12l.655.096.7.07.698.047h1.085c.176.02.354.008.525-.037a1.47 1.47 0 0 0 .383-.204 1.91 1.91 0 0 0 .299-.269 4.37 4.37 0 0 0 .287-.364.61.61 0 0 0 .108-.232c.001-.087.015-.174.043-.256a.92.92 0 0 0 .043-.275 1.07 1.07 0 0 1 .096-.293.76.76 0 0 1 .136-.204l.185-.204a2.23 2.23 0 0 0 .185-.238A.92.92 0 0 0 29 26.5c.005-.073.005-.147 0-.22v-.596a1.16 1.16 0 0 1 0-.204c.056-.075.12-.143.19-.204l.12-.22.126-.214.096-.16c.035-.048.067-.097.096-.15s.056-.1.077-.167.04-.118.053-.18c.007-.057.007-.116 0-.173a.46.46 0 0 0-.017-.14z"/></svg>