<svg xmlns="http://www.w3.org/2000/svg" width="50" height="50"><path fill="#009480" d="M0 0h50v50H0z"/><path fill="#fff" d="M37.442 21.038c0-6.267-5.087-11.346-11.36-11.346a11.35 11.35 0 0 0-11.36 11.346c0 4.648 2.79 8.625 6.783 10.385-.37.617-1.3 1.48-2.186 2.052-1.748 1.113-3.8 1.7-5.72 2.535-.32.14-.81.353-.84.588-.142 1.07-.147 2.16-.2 3.222.238.078.348.13.46.15 5.402 1.002 10.298-.27 14.722-3.09 4.593-2.935 9.702-7.7 9.702-15.84z"/><path fill="#414142" d="M26.183 13.374c-4.097 0-7.473 3.252-7.518 7.31s3.25 7.537 7.363 7.567 7.514-3.3 7.525-7.432a7.41 7.41 0 0 0-7.37-7.446z"/><path fill="#fff" d="M28.04 18.412v-1.63h.52v-1.064h-4.522v1.064h.52v1.63l-2.675 5.34.81 1.358h7.235l.802-1.34-2.687-5.358zm-2.113 1.315L23.785 24h-.526l-.285-.272 2.675-5.077v-1.847h1.31v1.853l.52 1.064h-1.555l.006.006z"/></svg>