<svg xmlns="http://www.w3.org/2000/svg" xmlns:xlink="http://www.w3.org/1999/xlink" width="50" height="50"><path fill="#009480" d="M0 0h50v50H0z"/><path fill="#fff" d="M31.512 15.628c-2.93-1.395-6.023-2-9.256-1.256-6.326 1.442-10.65 5.65-14.558 10.605 2.93 3.93 6.302 7.163 10.605 9.302 4.186 2.07 8.465 2.28 12.767.326 4.465-2.023 7.93-5.21 10.86-9.047.14-.186.256-.395.395-.605-2.953-3.906-6.372-7.21-10.813-9.325z"/><path fill="#414141" d="M25.023 17.65c-4.116 0-7.512 3.35-7.512 7.488-.023 4.116 3.35 7.512 7.488 7.512 4.116.023 7.512-3.35 7.512-7.488.001-4.116-3.37-7.512-7.488-7.512zm.07 12.768c-2.047.023-3.953-1.42-4.28-3.256 1.558 1.186 2.814 1.488 4.21 1.488s2.953-.465 4.21-1.488c-.302 1.744-2.21 3.232-4.14 3.256z"/><g fill="#fff"><use xlink:href="#B"/><use xlink:href="#B" x="-5.954"/></g><defs ><path id="B" d="M27.977 24.605a1.19 1.19 0 0 1-1.186-1.186c.023-.65.535-1.163 1.186-1.163a1.19 1.19 0 0 1 1.186 1.186c0 .65-.535 1.163-1.186 1.163z"/></defs></svg>