<svg xmlns="http://www.w3.org/2000/svg" viewBox="64.048 -1062.413 193.082 114.372" width="193.082" height="114.372"><path d="M254.748-1005.72c-3.504-8.302-10.753-15.332-20.133-19.63-4.324-14.54-16.426-29.08-34.475-29.08-.575 0-1.156.015-1.74.044-7.528-5.398-14.84-8.03-22.287-8.03-4.49 0-9.076.99-13.674 2.952-3.405-1.785-7.312-2.715-11.487-2.715-9.237 0-17.998 4.266-23.406 9.264-1.74-.406-3.52-.608-5.304-.604-13.78 0-27.433 11.384-31.124 25.186-11.877 4.31-20.55 12.14-24.624 22.323-3.952 9.882-3.083 20.93 2.384 30.313 5.43 9.32 14.928 14.883 25.408 14.883 4.02 0 7.896-.82 11.43-2.402 6.372 5.793 14.57 9.256 22.334 9.256 2.707 0 5.3-.4 7.75-1.193 6.286 5.17 15.922 7.11 23.74 7.11 9.226 0 17.242-2.437 22.557-6.693 3.444 1.594 7.237 2.42 11.194 2.42h.003c9.9 0 20.127-5.274 25.713-12.607 3.116 1.277 6.396 1.938 9.712 1.938h.003c10.816-.002 20.86-7.063 25.59-17.99 3.604-8.33 3.756-16.886.438-24.747z" fill="#3176bc"/><path d="M118.452-995.685h-9.74c-1.215-5.37-6.015-9.394-11.744-9.394-6.644 0-12.05 5.406-12.05 12.05s5.405 12.05 12.05 12.05c5.696 0 10.47-3.98 11.72-9.3h9.764c1.238.002 2.24 1.004 2.242 2.242v33.09a29.66 29.66 0 0 0 5.408.906v-33.997a7.66 7.66 0 0 0-7.651-7.649zm-21.483 9.708a7.06 7.06 0 0 1-7.049-7.051 7.06 7.06 0 0 1 7.049-7.05 7.06 7.06 0 0 1 7.049 7.05 7.06 7.06 0 0 1-7.049 7.051zm60.294-7.315v-11.256a7.66 7.66 0 0 0-7.648-7.648H132.5c-1.238-.002-2.24-1.005-2.242-2.243v-40.697c-.944.7-1.85 1.432-2.712 2.223a22.18 22.18 0 0 0-2.696-.46v38.934a7.66 7.66 0 0 0 7.65 7.651h17.115c1.236.002 2.238 1.004 2.24 2.24v11.256c-5.344 1.232-9.344 6.02-9.344 11.733 0 6.644 5.404 12.05 12.048 12.05s12.05-5.406 12.05-12.05c0-5.713-4-10.5-9.345-11.733zm-2.704 18.784a7.06 7.06 0 0 1-7.048-7.05 7.06 7.06 0 0 1 7.048-7.051 7.06 7.06 0 0 1 7.049 7.051 7.06 7.06 0 0 1-7.049 7.05zm76.442-30.02c0-6.644-5.404-12.05-12.047-12.05s-12.05 5.405-12.05 12.05c0 5.696 3.978 10.47 9.297 11.72v2.23c-.001 1.237-1.003 2.24-2.24 2.242h-21.668v-38.774a7.66 7.66 0 0 0-7.649-7.65h-11.743c-1.215-5.368-6.014-9.392-11.743-9.392-6.644 0-12.05 5.406-12.05 12.05s5.405 12.048 12.05 12.048c5.696 0 10.47-3.978 11.72-9.298h11.767c1.238.001 2.24 1.004 2.24 2.242v74.03c1.75.423 3.56.672 5.408.737v-30.585h21.668a7.66 7.66 0 0 0 7.65-7.65v-2.207C226.98-994 231-998.798 231-1004.528zm-69.843-20.525a7.06 7.06 0 0 1-7.049-7.048 7.06 7.06 0 0 1 7.049-7.05 7.06 7.06 0 0 1 7.049 7.05 7.06 7.06 0 0 1-7.049 7.048zm57.796 27.574a7.06 7.06 0 0 1-7.049-7.05 7.06 7.06 0 0 1 7.049-7.049 7.06 7.06 0 0 1 7.047 7.049 7.06 7.06 0 0 1-7.047 7.05z" fill="#fff"/></svg>