<svg xmlns="http://www.w3.org/2000/svg" width="50" height="31.251"><path d="M39.063 9.375c1.514 0 2.934.29 4.26.867s2.482 1.36 3.467 2.344a11.14 11.14 0 0 1 2.344 3.467c.578 1.327.866 2.746.866 4.26s-.29 2.934-.867 4.26-1.36 2.482-2.344 3.467a11.14 11.14 0 0 1-3.467 2.344 10.55 10.55 0 0 1-4.26.867h-12.5c-1.514 0-2.934-.29-4.26-.867s-2.482-1.36-3.467-2.344a11.14 11.14 0 0 1-2.344-3.467 10.55 10.55 0 0 1-.867-4.26c0-1.513.29-2.934.867-4.26s1.36-2.482 2.344-3.467a11.14 11.14 0 0 1 3.467-2.344 10.55 10.55 0 0 1 4.26-.867h1.563V12.5c-1.237 0-2.42.142-3.552.427s-2.128.74-2.99 1.367-1.55 1.432-2.063 2.417-.77 2.185-.77 3.6c0 1.074.208 2.083.623 3.027a8.05 8.05 0 0 0 4.163 4.163c.944.415 1.953.623 3.027.623h12.5c1.074 0 2.083-.208 3.027-.623a8.05 8.05 0 0 0 4.163-4.163c.415-.944.623-1.953.623-3.027 0-1.416-.256-2.616-.77-3.6s-1.2-1.8-2.063-2.417-1.86-1.082-2.99-1.367-2.315-.427-3.552-.427V9.375z" fill="#7fba00"/><path d="M21.875 21.875V18.75c1.237 0 2.42-.142 3.552-.427s2.128-.74 2.99-1.367 1.55-1.432 2.063-2.417.77-2.185.77-3.6c0-1.074-.208-2.083-.623-3.027a8.05 8.05 0 0 0-1.685-2.478 8.05 8.05 0 0 0-2.478-1.685c-.944-.415-1.952-.623-3.026-.623h-12.5c-1.074 0-2.083.208-3.027.623a8.05 8.05 0 0 0-2.478 1.685 8.05 8.05 0 0 0-1.685 2.478c-.415.944-.623 1.953-.623 3.027 0 1.416.256 2.616.77 3.6s1.2 1.8 2.063 2.417 1.86 1.082 2.99 1.367 2.315.427 3.552.427v3.125h-1.563c-1.514 0-2.934-.29-4.26-.867S4.195 19.65 3.2 18.665s-1.766-2.14-2.344-3.467A10.55 10.55 0 0 1 0 10.938c0-1.513.29-2.934.867-4.26S2.226 4.196 3.21 3.21A11.14 11.14 0 0 1 6.678.867 10.55 10.55 0 0 1 10.938 0h12.5c1.514 0 2.934.29 4.26.867s2.482 1.36 3.467 2.344a11.14 11.14 0 0 1 2.344 3.467 10.55 10.55 0 0 1 .867 4.26c0 1.513-.29 2.934-.867 4.26s-1.36 2.482-2.344 3.467a11.14 11.14 0 0 1-3.467 2.344 10.55 10.55 0 0 1-4.26.867h-1.563z" fill="#59b4d9"/></svg>