<svg xmlns="http://www.w3.org/2000/svg" height="49.6" width="49.996"><path d="M19.396 45.7l2.8-3.8c-7.3-1.6-14.1-7.8-14.8-15.7-.7-8.6 4.8-16.3 12.9-18.5l3-3.9-3.8-3.5c-12 2.8-20.5 14-19.4 26.6 1 12 10.5 21.3 22 22.7zm9.4-45.7l2.4 3.9-3.3 3.6c7.3 1.7 14.1 7.9 14.8 15.7.7 8.5-4.7 16.2-12.7 18.5l-2.3 4.3 3.5 3c11.7-3 19.8-14 18.7-26.4-1-11.8-10-20.9-21.1-22.6zm-16.1 21.3h4.1V31h-4.1z" fill="#0072c6"/><path d="M19.496 15.8h4.1V31h-4.1z" fill="#59b4d9"/><path d="M26.296 22.7h4.1V31h-4.1z" fill="#3999c6"/><path d="M33.196 18.5h4.1v12.4h-4.1z" fill="#0072c6"/></svg>