<svg xmlns="http://www.w3.org/2000/svg" width="50" height="44.4"><path d="M24.8 0L12.7 4.9l.1 14.1 12-4.8z" fill="#a0a1a2"/><path d="M24.8 0v23.9L36.7 19V4.3L24.8 0z" fill="#7a7a7a"/><path d="M12.8 19l12-4.7L36.7 19l-11.9 4.9z" fill="#3e3e3e"/><path d="M12.1 20.5L0 26.6v12.9l12.1-4.7z" fill="#a0a1a2"/><path d="M12.1 20.5v.2L12 44.4l12-4.9V25.9l-11.9-5.4z" fill="#7a7a7a"/><path d="M0 39.5l12.1-4.7L24 39.5l-11.9 4.9z" fill="#3e3e3e"/><path d="M38.1 20.5L26 26v13.5l12.1-4.7z" fill="#e5e5e5"/><path d="M38.1 20.5v.2L38 44.4l12-4.9V25.9l-11.9-5.4z" fill="#a0a1a2"/><path d="M26 39.5l12.1-4.7L50 39.5l-11.9 4.9z" fill="#0070c9"/><path d="M44.8 37.7H31.3c-.7 0-1.3-.6-1.3-1.3v-8.7c0-.7.5-1.2 1.2-1.2h13.5c.7 0 1.3.6 1.3 1.3v8.6c.1.7-.5 1.3-1.2 1.3z" fill="#000e92"/><g fill="#fff"><path d="M35.9 27.8l.9.9-3.8 3.5 3.6 3.7-.8.8-4.5-4.5zm4.1 0l-.8.9 3.7 3.5-3.6 3.7.8.8 4.5-4.5z"/><path d="M40.6 26.5h-9.4c-.7 0-1.1.7-1.1 1.2v8.8c0 .5.5 1.2 1.2 1.2h3.6z" opacity=".25" enable-background="new"/></g><path d="M44.7 26.5H31.1l6.6-1.6z" opacity=".2" fill="#3e3e3e"/></svg>