<svg xmlns="http://www.w3.org/2000/svg" width="49.797" height="49.909"><path d="M41.797 11.277A11.93 11.93 0 0 0 29.234.018c-3.607.197-6.93 2.018-9.037 4.952-3.188-2.468-7.592-2.64-10.962-.427s-4.965 6.32-3.97 10.227a8.97 8.97 0 0 0 3.696 17.139H39.34c5.78-.003 10.46-4.69 10.458-10.468-.002-4.828-3.308-9.027-8-10.164z" fill="#59b4d9"/><path d="M12.897 21.91a1 1 0 0 0-1 1v26a1 1 0 0 0 1 1h24a1 1 0 0 0 1-1v-26a1 1 0 0 0-1-1z" fill="#804998"/><path d="M22.897 21.91v-7h-3l5-7 5 7h-3v7zm10 3h-18v22h20v-22z" fill="#fff"/><path d="M16.864 26.91h4v18h-4zm6 0h4v18h-4zm6 0h4v18h-4z" fill="#804998"/></svg>