<svg xmlns="http://www.w3.org/2000/svg" width="43.1" height="36.7"><path d="M13.1 28h-6c-4-1-7.1-4.2-7.1-8.3 0-3.5 2.2-6.6 5.3-7.8 0-.4-.1-.7-.1-1.1C5.2 4.8 10 0 16 0c3.3 0 6.3 1.5 8.4 4a8.91 8.91 0 0 1 3.9-.9c4.7 0 8.8 4.2 8.9 8.8L21.1 5.3l-8 4.9z" fill="#59b4d9"/><path d="M43.1 32.4L21 36.6l.1-15.5 22 4.1zM21 7.3l22.1 8.3V24l-22-4.7" fill="#959595"/><path d="M21.1 19.3l-6 2.8V11l6-3.6m21 15.6l-20-4.6V8.5l20 7.4zm-11-3.6l2 .5v-6.5l-2-.7zm-2-7.2l-2-.7v6.9l2 .6zm6 8.3l2 .5v-6.2l-2-.7zm-12-3.2l2 .5v-7.1l-2-.7v7.3zm18-1.1l-2-.7v6l2 .5zm-19 6.6v12.8l20-3.7v-6.1zm1 11.3v-9.9l2 .2v9.3zm6-1l-2 .4v-8.7l2 .3c0-.1 0 8 0 8zm2-.3v-7.6l2 .2v7zm6-1.1l-2 .3v-6.4l2 .3zm4.1-.6l-2.1.3v-5.2l1.9.2z" fill="#b3b4b5"/><path d="M17.1 19.1l-1 .6v-7.9l1-.5c0-.1 0 7.8 0 7.8zm2-9l-1 .7v7.7l1-.5z" fill="#959595"/><path d="M15.1 33.1V24l6-2.9v15.6" fill="#b3b4b5"/><path d="M17 33.1l-.9-.5v-7.7l.9-.4zm2.1-9.6l-1 .5v9.7l1 .5z" fill="#959595"/><path d="M41.1 16.9l-18-6v-.8l18 6.2zm-.1 9.5l-17.9-2.2v.8L41 27.1zM19.1 11.1v-1l-2.9 1.6v.8zm-3 14.4l3-1.1v-.8l-3 1.3z" fill="#7a7a7a"/><path d="M43.1 15.7v16.7l-22 4.2 16.7-23z" opacity=".2" fill="#fff" enable-background="new"/></svg>