<svg xmlns="http://www.w3.org/2000/svg" width="50" height="42.002"><path d="M0 32h50v10.003H0z" fill="#e5e5e5"/><path d="M2 34.062h46v5.94H2z" fill="#7fba00"/><path d="M20 34h28v6.003H20z" opacity=".6" fill="#fff"/><path d="M18 32.003h4v10h-4z" fill="#7a7a7a"/><path d="M18 32h2v10h-2z" opacity=".7" fill="#fff"/><path d="M0 16h50v10.003H0z" fill="#e5e5e5"/><path d="M2 18.06h46v5.94H2z" fill="#7fba00"/><path d="M36 17.994h12v6.003H36z" opacity=".6" fill="#fff"/><path d="M34 16.003h4v10h-4z" fill="#7a7a7a"/><path d="M34 16h2v10h-2z" opacity=".7" fill="#fff"/><path d="M0 0h50v10.003H0z" fill="#e5e5e5"/><path d="M2 2.06h46v5.94H2z" fill="#7fba00"/><path d="M20 2h28v6.003H20z" opacity=".6" fill="#fff"/><path d="M18 .003h4v10h-4z" fill="#7a7a7a"/><path d="M18 .001h2v10h-2z" opacity=".7" fill="#fff"/><path d="M22 32h2v10h-2zM22 .032h2v10h-2zm16 15.963h2v10h-2z" opacity=".2" fill="#1e1e1e"/></svg>