<svg xmlns="http://www.w3.org/2000/svg" width="42.003" height="50"><path d="M0 0h10.003v50H0z" fill="#e5e5e5"/><path d="M2 2h5.94v46H2z" fill="#59b4d9"/><path d="M2 20h6.003v28H2z" opacity=".6" fill="#fff"/><path d="M0 18h10v4H0z" fill="#7a7a7a"/><path d="M.001 18h10v2h-10z" opacity=".7" fill="#fff"/><path d="M16 0h10.003v50H16z" fill="#e5e5e5"/><path d="M18 2h5.94v46H18z" fill="#59b4d9"/><path d="M18.005 36h6.003v12h-6.003z" opacity=".6" fill="#fff"/><path d="M16 34h10v4H16z" fill="#7a7a7a"/><path d="M16 34h10v2H16z" opacity=".7" fill="#fff"/><path d="M32 0h10.003v50H32z" fill="#e5e5e5"/><path d="M34 2h5.94v46H34z" fill="#59b4d9"/><path d="M34 20h6.003v28H34z" opacity=".6" fill="#fff"/><path d="M32 18h10v4H32z" fill="#7a7a7a"/><path d="M32 18h10v2H32z" opacity=".7" fill="#fff"/><path d="M.001 22h10v2h-10zm31.97 0h10v2h-10zM16.007 38h10v2h-10z" opacity=".2" fill="#1e1e1e"/></svg>