<svg xmlns="http://www.w3.org/2000/svg" xmlns:xlink="http://www.w3.org/1999/xlink" width="50" height="37" viewBox="-454 256 50 37"><g fill="#804998"><path d="M-431.1 258.7v6.7l-7.7 3V256z"/><use xlink:href="#B"/><path d="M-413.2 258.7v6.7l-7.7 3V256z"/><use xlink:href="#B" x="17.9"/><path d="M-431.1 283.3v6.7l-7.7 3v-12.4z"/><use xlink:href="#C"/><path d="M-413.2 283.3v6.7l-7.7 3v-12.4z"/><use xlink:href="#C" x="17.9"/><path d="M-421.6 271v6.7l-7.6 2.9v-12.3z"/><use xlink:href="#D"/><path d="M-439.4 271v6.7l-7.6 2.9v-12.3z"/><use xlink:href="#D" x="-17.8"/><path d="M-404 271v6.7l-7.6 2.9v-12.3z"/></g><path d="M-431.1 258.7v6.7l-7.7 3V256zm17.9 0v6.7l-7.7 3V256zm-17.9 24.6v6.7l-7.7 3v-12.4zm17.9 0v6.7l-7.7 3v-12.4zm-8.4-12.3v6.7l-7.6 2.9v-12.3zm-17.8 0v6.7l-7.6 2.9v-12.3zm35.4 0v6.7l-7.6 2.9v-12.3z" opacity=".2" fill="#fff"/><use xlink:href="#D" x="17.6" fill="#804998"/><defs ><path id="B" d="M-445.7 258.1v8.1l5.7 2.2v-12.3l-5.7 2zm.6 7.5l-.3-.1v-6.7l.9-.3v7.3l-.6-.2zm1.5.4l-.4-.1v-7.5l1.2-.3v8.2l-.4-.1-.4-.2zm1.8.6l-.5-.2v-8.5l.5-.1.5-.2.6-.2v9.5l-.6-.2-.5-.1z"/><path id="C" d="M-445.7 282.7v8.1l5.7 2.2v-12.3l-5.7 2zm.6 7.5l-.3-.1v-6.7l.9-.3v7.3l-.6-.2zm1.5.4l-.4-.1V283l1.2-.3v8.2l-.4-.1-.4-.2zm1.8.6l-.5-.2v-8.5l.5-.1.5-.2.6-.2v9.5l-.6-.2-.5-.1z"/><path id="D" d="M-436.2 270.3v8.1l5.7 2.2v-12.3l-5.7 2zm.6 7.5l-.3-.1V271l.9-.3v7.3l-.6-.2zm1.5.5l-.4-.1v-7.5l1.2-.3v8.2l-.4-.1-.4-.2zm1.8.6l-.5-.2v-8.5l.5-.1.5-.2.6-.2v9.5l-.6-.2-.5-.1z"/></defs></svg>