<svg xmlns="http://www.w3.org/2000/svg" xmlns:xlink="http://www.w3.org/1999/xlink" width="50" height="50"><path fill="#59b4d9" d="M18.5 50h.3c10.4 0 18.8-3 18.8-6.8V6.9H18.5V50z"/><path fill="#3999c6" d="M0 6.8v36.3c0 3.8 8.4 6.8 18.8 6.8V6.8H0z"/><path fill="#fff" d="M37.6,6.8c0,3.8-8.4,6.8-18.8,6.8S0,10.6,0,6.8S8.4,0,18.8,0S37.6,3,37.6,6.8"/><path fill="#7fba00" d="M33.7 6.4c0 2.5-6.7 4.5-14.9 4.5S3.9 8.9 3.9 6.4s6.7-4.5 14.9-4.5 14.9 2 14.9 4.5"/><path fill="#b8d432" d="M30.6 9.2c2-.8 3.1-1.8 3.1-2.8 0-2.5-6.7-4.5-14.9-4.5S3.9 3.9 3.9 6.4c0 1 1.1 2 3.1 2.8 2.8-1 7-1.8 11.8-1.8s9 .8 11.8 1.8"/><path fill="#0072c6" d="M48.57 29.114l-4.863-4.864h-17.3V50H50V30.544z"/><path opacity=".8" fill="#fff" d="M43.563 25.68H27.826V48.57H48.57v-17.88h-5.006z"/><g fill="#0072c6"><path d="M43.42 45.136c0 .43-.358.787-.787.787h-10.8c-.43 0-.787-.358-.787-.787s.358-.787.787-.787h10.8c.43 0 .786.358.786.787"/><use xlink:href="#B"/><use xlink:href="#B" y="3.934"/><use xlink:href="#B" y="-3.934"/></g><defs ><path id="B" d="M45.637 37.268c0 .43-.358.787-.787.787H31.832c-.43 0-.787-.358-.787-.787s.358-.787.787-.787H44.78c.5 0 .858.358.858.787"/></defs></svg>