<svg xmlns="http://www.w3.org/2000/svg" width="44.8" height="50"><path d="M39.5 18.5v-2.2c0-4.4-1.6-8.5-4.4-11.4-2.6-3-8.4-4.9-12.7-4.9S12.3 1.9 9.7 4.9c-2.7 2.9-4.4 7-4.4 11.4v2.2l7.9.9v-2c0-2.6.9-5.9 2.4-7.6s4.7-2.5 6.8-2.6c2.1 0 5.3.9 6.8 2.6a9.55 9.55 0 0 1 2.4 6.4v3.2z" fill="#3e3e3e"/><path d="M5.3 18.5c-3.9 0-5.3 2.3-5.3 5.3v20.9C0 47.3 1.6 50 4.6 50h35.6c3.4 0 4.6-2.7 4.6-5.3V23.8c0-2.7-1.1-5.3-5.3-5.3z" fill="#59b4d9"/><g fill="#fff"><path d="M18.77 40.63V26l11 7.316z"/><path d="M31.5 18.5H5.3c-3.9 0-5.3 2.3-5.3 5.3v20.9C0 47.3 1.6 50 4.6 50h6.7z" opacity=".15"/></g></svg>