<svg xmlns="http://www.w3.org/2000/svg" width="50" height="22.8"><path d="M34.9 6.1H8.3c-1.1 0-2-.9-2-2s.9-2 2-2h26.6c1.1 0 2 .9 2 2s-.9 2-2 2zm-5.4 16.7H4.9c-1.1 0-2-.9-2-2s.9-2 2-2h24.6c1.1 0 2 .9 2 2s-.9 2-2 2zm-2.9-8.1H2c-1.1 0-2-.9-2-2s.9-2 2-2h24.6c1.1 0 2 .9 2 2s-.9 2-2 2z" fill="#7a7a7a"/><path d="M50 18.5c0-2.4-1.9-4.3-4.2-4.3h-.6c.2-.9.4-1.9.4-3C45.6 5 40.5 0 34.4 0c-4.9 0-9.1 3.3-10.6 7.6-.8-.2-1.6-.4-2.5-.4-4.3 0-7.6 3.5-7.6 7.8s3.4 7.8 7.6 7.8H46c2.3-.3 4-2.1 4-4.3" fill="#3999c6"/><path d="M25.3 22.7c-1-1-1.8-2.2-2.1-3.8-.9-4.2 1.6-8.3 5.7-9.2.9-.2 1.7-.2 2.6-.1.3-3.9 2.7-7.3 6.3-9-1.1-.3-2.2-.6-3.4-.6-4.9 0-9.1 3.3-10.6 7.6-.8-.2-1.6-.4-2.5-.4-4.3 0-7.6 3.5-7.6 7.8s3.4 7.8 7.6 7.8l4-.1z" opacity=".2" fill="#fff" enable-background="new"/></svg>