<svg xmlns="http://www.w3.org/2000/svg" width="50" height="50"><path d="M25.256 9.065a9.07 9.07 0 0 1-9.066 9.065 9.07 9.07 0 0 1-9.065-9.065 9.07 9.07 0 1 1 18.141 0m-2.448 12.172L16.2 30.523l-6.628-9.286H.001v22.9h32.38v-22.9z" fill="#59b4d9"/><g fill="#fff"><path opacity=".2" d="M7.126 9.065a9.06 9.06 0 0 0 8.843 9.054L18.246.244A8.99 8.99 0 0 0 16.19 0c-5.007 0-9.064 4.06-9.064 9.065m2.438 12.172H0v22.9h12.696l2.002-15.704z"/><path d="M21.5 29H50v14.583H21.5z"/></g><path d="M40.636 41.33c-1.305 1.305-3.04 2.024-4.886 2.024a6.87 6.87 0 0 1-4.886-2.024L21.5 31.966V50H50V31.966l-9.364 9.364zm-4.886-.367a5.48 5.48 0 0 0 3.903-1.617L50 29v-.55H21.5V29l10.347 10.347c1.042 1.042 2.428 1.616 3.903 1.616z" fill="#eac282"/></svg>