<svg xmlns="http://www.w3.org/2000/svg" width="24" height="24"><path d="M8.147 19c1.73-1.22 3.716-2.86 5.86-5.004 2.2-2.2 3.82-4.167 5.008-5.853C17.654 5.678 15.024 4 12 4a8 8 0 0 0-8 8c0 3.02 1.675 5.65 4.147 7zm7.98-2.873a51.6 51.6 0 0 1-4.318 3.863L12 20a8 8 0 0 0 8-8c0-.065-.008-.127-.01-.2a52.08 52.08 0 0 1-3.863 4.318z" fill="#b8d432"/><path d="M23.417.583c-.342-.342-.84-.504-1.46-.504-1.703 0-4.348 1.225-7.312 3.328a8.68 8.68 0 0 1 1.133.433c2.682-1.82 4.904-2.76 6.18-2.76.247 0 .58.037.754.2.947.947-.966 6.4-7.997 13.422-5.4 5.388-10.453 8.208-12.67 8.208-.248 0-.58-.037-.754-.2-.626-.626.01-3.228 2.542-6.95a8.94 8.94 0 0 1-.425-1.118C.537 18.7-.7 22.14.585 23.416c.342.342.84.504 1.46.504 2.82 0 8.2-3.337 13.375-8.5C21.725 9.114 25.305 2.472 23.417.583zM4 0a4 4 0 0 1-4 4 4 4 0 0 1 4 4 4 4 0 0 1 4-4 4 4 0 0 1-4-4zm17 18a3 3 0 0 1-3 3 3 3 0 0 1 3 3 3 3 0 0 1 3-3 3 3 0 0 1-3-3z" fill="#0078d7"/><path d="M8.64 13.194h-.327a2.05 2.05 0 0 0 .061-.51c0-1.205-.98-2.184-2.184-2.184H4.146A7.97 7.97 0 0 0 4 12a7.97 7.97 0 0 0 2.258 5.563h2.38c1.205 0 2.184-.98 2.184-2.184a2.19 2.19 0 0 0-2.184-2.185zM14 14l.852-.876c-.373.188-.675.496-.852.876zm2.127 2.117l-2.83 2.632a1.85 1.85 0 0 0 1.304.54h.665a8 8 0 0 0 4.676-6.37h-.87l-2.943 3.198zm-3.467-4.893h3.926L19 8.16a8.03 8.03 0 0 0-3.531-3.358h-.45c-.817 0-1.47.653-1.47 1.47a1.28 1.28 0 0 0 .061.388h-.94c-1.286 0-2.307 1.02-2.307 2.286s1.02 2.287 2.287 2.287z" fill="#59b4d9"/></svg>