<svg xmlns="http://www.w3.org/2000/svg" height="40" width="50"><path d="M44.5 40h-39c-3 0-5.5-2.5-5.5-5.5v-29C0 2.5 2.5 0 5.5 0h39c3 0 5.5 2.5 5.5 5.5v29c0 3-2.5 5.5-5.5 5.5z" fill="#a0a1a2"/><path d="M2.7 8.1h13v24h-13z" fill="#0072c6"/><g fill="#fff"><path d="M2.7 8.1h13v12h-13z" opacity=".15"/><path d="M14.1 19.7c0 2.5-.5 4.4-1.4 5.7s-2.2 2-3.8 2-2.8-.6-3.7-1.9C4.4 24.2 4 22.4 4 20c0-2.6.4-4.5 1.3-5.9s2.2-2 3.9-2c3.3.1 4.9 2.6 4.9 7.6zm-2.4.1c0-2-.2-3.4-.6-4.3s-1.1-1.4-1.9-1.4c-1.8 0-2.7 2-2.7 5.9 0 1.8.2 3.2.7 4.1s1.1 1.4 2 1.4 1.5-.5 1.9-1.4.5-2.4.6-4.3z"/></g><path d="M18.7 8.1h13v24h-13z" fill="#0072c6"/><g fill="#fff"><path d="M18.7 8.1h13v12h-13z" opacity=".15"/><path d="M30.1 19.7c0 2.5-.5 4.4-1.4 5.7s-2.2 2-3.8 2-2.8-.6-3.7-1.9c-.8-1.3-1.2-3.1-1.2-5.5 0-2.6.4-4.5 1.3-5.9s2.2-2 3.9-2c3.3.1 4.9 2.6 4.9 7.6zm-2.4.1c0-2-.2-3.4-.6-4.3s-1.1-1.4-1.9-1.4c-1.8 0-2.7 2-2.7 5.9 0 1.8.2 3.2.7 4.1s1.1 1.4 2 1.4 1.5-.5 1.9-1.4.5-2.4.6-4.3z"/></g><path d="M34.7 8.1h13v24h-13z" fill="#0072c6"/><g fill="#fff"><path d="M34.7 8.1h13v12h-13z" opacity=".15"/><path d="M42.5 12.1v15h-2.4V15c-.8.6-1.8 1-3.1 1.4v-2c.9-.3 1.7-.6 2.4-1l2-1.2h1.1z"/></g></svg>