<svg xmlns="http://www.w3.org/2000/svg" xmlns:xlink="http://www.w3.org/1999/xlink" width="50" height="49.217"><path d="M11.923 34.94c-.055 0-.107-.013-.155-.043L1.595 29.025c-.1-.056-.158-.158-.158-.267a.3.3 0 0 1 .158-.266l10.11-5.834a.3.3 0 0 1 .306 0l10.172 5.874c.1.054.16.156.16.268a.3.3 0 0 1-.159.265l-10.107 5.832a.28.28 0 0 1-.152.043" fill="#7fba00"/><g fill="#b8d432"><path d="M10.454 49.217c-.052 0-.107-.015-.152-.04L.158 43.32c-.1-.054-.158-.158-.158-.266v-11.75c0-.108.06-.212.158-.266.093-.055.213-.055.307 0l10.143 5.855c.097.055.156.157.156.268V48.91c0 .11-.06.212-.156.268-.05.025-.098.04-.154.04"/><use xlink:href="#B"/></g><path d="M38.146 34.94c-.054 0-.104-.016-.152-.044l-10.176-5.873c-.097-.055-.154-.158-.154-.27a.3.3 0 0 1 .154-.264l10.1-5.835c.096-.053.214-.053.306 0l10.178 5.876a.31.31 0 0 1 .153.264c0 .113-.06.213-.153.268L38.3 34.897c-.05.028-.1.044-.154.044" fill="#7fba00"/><g fill="#b8d432"><path d="M36.683 49.216c-.055 0-.11-.013-.156-.04L26.383 43.32c-.098-.055-.156-.155-.156-.267v-11.75c0-.1.058-.21.156-.27.093-.053.212-.053.3 0L36.835 36.9c.094.057.15.158.15.268v11.75c0 .113-.057.21-.15.267-.05.028-.102.04-.152.04"/><use xlink:href="#C"/></g><path d="M24.937 12.325a.32.32 0 0 1-.155-.044L14.606 6.408c-.093-.055-.152-.158-.152-.268s.06-.21.152-.265L24.72.04c.097-.053.213-.053.306 0l10.178 5.876c.094.055.152.155.152.265s-.058.212-.152.267l-10.11 5.833c-.05.028-.1.044-.155.044" fill="#7fba00"/><g fill="#b8d432"><path d="M23.475 26.6a.3.3 0 0 1-.155-.041l-10.144-5.855c-.1-.056-.156-.156-.156-.267V8.69a.31.31 0 0 1 .156-.27c.094-.053.208-.053.3 0l10.142 5.856c.09.056.15.158.15.267v11.75c0 .113-.06.21-.15.268-.05.027-.103.04-.153.04"/><use xlink:href="#D"/></g><g fill="#fff"><use xlink:href="#B" opacity=".5"/><use xlink:href="#C" opacity=".5"/><use xlink:href="#D" opacity=".5"/></g><defs ><path id="B" d="M13.326 49.217c-.052 0-.105-.015-.156-.04a.31.31 0 0 1-.151-.268V37.235c0-.11.057-.21.15-.268l10.142-5.853c.098-.054.213-.054.3 0a.31.31 0 0 1 .151.268v11.673c0 .108-.057.212-.15.266L13.48 49.177c-.046.025-.1.04-.154.04"/><path id="C" d="M39.553 49.216c-.052 0-.105-.013-.156-.04-.094-.056-.152-.154-.152-.267V37.234c0-.1.058-.21.152-.268l10.14-5.853c.098-.054.213-.054.3 0a.31.31 0 0 1 .152.266v11.674a.31.31 0 0 1-.152.267l-10.144 5.855a.28.28 0 0 1-.151.041"/><path id="D" d="M26.346 26.6c-.056 0-.107-.014-.157-.04-.093-.057-.152-.155-.152-.268V14.618c0-.1.06-.21.152-.267l10.14-5.854a.31.31 0 0 1 .307 0c.097.055.155.157.155.267v11.674c0 .11-.058.21-.155.267l-10.14 5.855a.28.28 0 0 1-.149.041"/></defs></svg>