<svg xmlns="http://www.w3.org/2000/svg" width="50" height="42.634"><path d="M0 40.627c0 1.108.898 2.007 2.007 2.007h45.986c1.11 0 2.007-.9 2.007-2.007V9.298H0z" fill="#0072c6"/><path d="M47.993 0H2.007C.898 0 0 .898 0 2.007v10.627h50V2.007C50 .898 49.1 0 47.993 0" fill="#a0a1a2"/><g fill="#fff"><path d="M2.014 0C.906 0 .007.898.007 2.007v38.62a2.01 2.01 0 0 0 2.007 2.007h2.188L43.62 0z" opacity=".2"/><path d="M12.857 4.78h33.67V8.72h-33.67z"/></g><path d="M11.3 6.683a4.88 4.88 0 0 1-4.878 4.878 4.88 4.88 0 0 1-4.878-4.878 4.88 4.88 0 0 1 4.878-4.879 4.88 4.88 0 0 1 4.878 4.879" fill="#59b4d9"/><path d="M6.928 9.567L3.97 6.75l2.948-2.818h1.198l-2.2 2.322h5.393v.978H5.916L8.13 9.567zm10.358 13.06l-2.644 8.816H13.18l-1.817-6.3a4.11 4.11 0 0 1-.138-.818H11.2a3.8 3.8 0 0 1-.181.801l-1.972 6.328H7.625l-2.67-8.816h1.48l1.825 6.63a3.95 3.95 0 0 1 .121.792h.07a3.7 3.7 0 0 1 .155-.809l2.032-6.612h1.292l1.825 6.646c.057.213.1.477.13.792h.07c.01-.224.06-.488.146-.792l1.8-6.646zm13.614 0l-2.644 8.816h-1.463l-1.817-6.3a4.11 4.11 0 0 1-.138-.818h-.035a3.8 3.8 0 0 1-.181.801l-1.972 6.328h-1.4l-2.67-8.816h1.48l1.825 6.63a3.95 3.95 0 0 1 .121.792h.07a3.7 3.7 0 0 1 .155-.809l2.032-6.612h1.292l1.825 6.646c.057.213.1.477.13.792h.07c.01-.224.06-.488.146-.792l1.8-6.646zm13.635 0l-2.644 8.816h-1.463l-1.817-6.3a4.11 4.11 0 0 1-.138-.818h-.035a3.8 3.8 0 0 1-.181.801l-1.972 6.328h-1.412l-2.67-8.816h1.48l1.825 6.63a3.95 3.95 0 0 1 .121.792h.07a3.7 3.7 0 0 1 .155-.809l2.032-6.612h1.292l1.825 6.646c.057.213.1.477.13.792h.07c.01-.224.06-.488.146-.792l1.8-6.646z" fill="#fff"/></svg>