<svg xmlns="http://www.w3.org/2000/svg" width="47" height="49.9"><path d="M24.9 8.9a8.9 8.9 0 0 1-13.35 7.708A8.9 8.9 0 0 1 16 0a8.9 8.9 0 0 1 8.9 8.9m-2.35 11L16 29.227 9.45 19.9H.001v23h32v-23z" fill="#804998"/><path d="M7.1 8.9c0 4.842 3.867 8.773 8.68 8.9L18.017.24C17.356.083 16.68.002 16 0a8.9 8.9 0 0 0-8.899 8.9m2.35 11H0v23h12.547l1.978-15.772z" opacity=".2" fill="#fff"/><path d="M43.75 49.9H12.25A3.25 3.25 0 0 1 9 46.651V34.15a3.25 3.25 0 0 1 3.249-3.249H43.75A3.25 3.25 0 0 1 47 34.149V46.65a3.25 3.25 0 0 1-3.249 3.249z" fill="#a0a1a2"/><path d="M11 46.798V34.002a1.1 1.1 0 0 1 1.102-1.102h31.796A1.1 1.1 0 0 1 45 34.002v12.796a1.1 1.1 0 0 1-1.102 1.102H12.102A1.1 1.1 0 0 1 11 46.798z" fill="#1e1e1e"/><g fill="#fff"><path d="M12 32.9a1 1 0 0 0-1 1v13a1 1 0 0 0 1 1h16v-15z" opacity=".2"/><path d="M25.475 36.176c-.01-.1-.06-.172-.132-.227l-1.264-.975c-.15-.118-.37-.092-.487.06l-5.55 7.12-3.168-3.397c-.062-.068-.148-.108-.24-.112s-.18.03-.248.092l-1.17 1.08c-.104.095-.14.245-.1.377-.042.12-.015.252.07.346l.405.44 4.592 4.923 7.203-9.235c.06-.072.088-.165.077-.258-.004-.025-.015-.046-.023-.068a.37.37 0 0 0 .023-.163zM42 36.733L40.167 34.9 36.5 38.567 32.833 34.9 31 36.733l3.667 3.667L31 44.067l1.833 1.833 3.667-3.667 3.667 3.667L42 44.067 38.333 40.4z"/></g></svg>