<svg xmlns="http://www.w3.org/2000/svg" xmlns:xlink="http://www.w3.org/1999/xlink" width="50" height="50"><path fill="#59b4d9" d="M44 14.2c0-.4.1-.9.1-1.3 0-7.1-5.8-12.8-13-12.8a12.62 12.62 0 0 0-10.5 5.2c-1.5-1-3.3-1.5-5.2-1.5-5.4 0-9.8 4.4-9.8 9.7v.8C2 16.2 0 19.3 0 23.1c0 6 4.9 10.7 11.2 10.7h27.6c6.3 0 11.2-4.7 11.2-10.7 0-4-2.2-7.2-6-8.9z"/><path opacity=".2" fill="#fff" d="M7 28c0-4.1 2.1-7.3 6-9.3v-.8c0-5.7 4.7-10.3 10.4-10.3 2 0 3.9.5 5.5 1.5 2.5-3.5 6.7-5.7 11.2-5.7-2.4-2.1-5.5-3.4-9-3.4-4.2 0-8.1 2-10.5 5.3-1.5-1-3.3-1.5-5.2-1.5-5.4 0-9.8 4.4-9.8 9.7v.8C2 16.2 0 19.3 0 23.1c0 5.1 3.5 9.3 8.4 10.4C7.5 31.9 7 30 7 28z"/><use xlink:href="#B" fill="#fcd116"/><use xlink:href="#B" opacity=".2" fill="#ff8c00"/><path d="M21.054 41.57h8.43v2.704h-8.43zM23.678 50h3.1l2.624-2.783h-8.35z" fill="#7a7a7a"/><g fill="#fff"><path d="M28.63 18.082c0 1.905-1.54 3.486-3.486 3.486a3.46 3.46 0 0 1-3.486-3.486c0-1.905 1.54-3.486 3.486-3.486s3.486 1.58 3.486 3.486m-.932 4.784l-2.554 3.567-2.554-3.567h-2.635v6.796h10.378v-6.796z"/><path d="M26.38 10.4c-.16-.24-3.817.08-3.817.08-5.805.716-10.337 5.566-10.337 11.212 0 .16-.557 4.055 3.1 7.634L32.504 12.15c-1.83-1.113-3.896-1.75-6.123-1.75z" opacity=".15"/></g><defs ><path id="B" d="M38.07 21.93v-.24c0-6.123-5.248-11.212-11.69-11.29-.16-.24-3.817.08-3.817.08-5.805.716-10.337 5.566-10.337 11.212 0 .16-.636 4.612 3.896 8.35 2.067 1.83 4.214 6.76 4.532 8.2l.24.477h8.43l.24-.477c.318-1.43 2.545-6.36 4.532-8.11 4.533-3.816 3.976-8.03 3.976-8.2z"/></defs></svg>