<svg xmlns="http://www.w3.org/2000/svg" width="37.8" height="50"><path d="M0 6.8v36.3c0 3.7 8.5 6.8 18.8 6.8V6.8z" fill="#3999c6"/><path d="M18.6 50h.3c10.5 0 18.8-3 18.8-6.8V6.8H18.6z" fill="#59b4d9"/><path d="M37.8 6.8c0 3.7-8.5 6.8-18.8 6.8s-19-3-19-6.8S8.5 0 18.8 0s19 3 19 6.8" fill="#fff"/><path d="M33.9 6.4c0 2.5-6.7 4.5-15 4.5S3.9 9 3.9 6.4s6.7-4.5 15-4.5 15 2 15 4.5" fill="#7fba00"/><path d="M30.7 9.2c2-.8 3.1-1.7 3.1-2.7 0-2.5-6.7-4.5-15-4.5s-15 2-15 4.5c0 1 1.2 2 3.1 2.7 2.7-1.1 7-1.7 11.9-1.7 4.9-.1 9.2.6 11.9 1.7" fill="#b8d432"/><path d="M10.4 24.9H8.7v9.9h1.7c1.5 0 2.7-.5 3.6-1.4.8-.9 1.3-2.1 1.3-3.7 0-1.4-.4-2.6-1.2-3.4-1-.9-2.2-1.4-3.7-1.4" fill="#3999c6"/><path d="M27.7 27.8c.4-.4.6-.8.6-1.4 0-1.1-.8-1.7-2.5-1.7h-1.3v3.6H26c.7 0 1.3-.1 1.7-.5m.6 3.6c-.5-.3-1.1-.5-1.9-.5h-1.9V35h1.9c.8 0 1.4-.2 1.9-.6.4-.4.7-.9.7-1.5-.1-.6-.3-1.1-.7-1.5" fill="#59b4d9"/><path d="M10.5 38.2l2.6-2.6c1.5 2.3 4.2 3.8 7.1 3.8 4.7 0 8.5-3.7 8.4-8.5-.1-4.6-3.9-8.5-8.7-8.5a8.24 8.24 0 0 0-6.6 3.3l4 4.3H7.1V19.3l3.7 3.9C13 20.6 16.2 19 20 19c6.7 0 12.2 5.4 12.4 12.1.1 6.6-5.1 11.8-11.9 11.8-4.1 0-7.8-1.8-10-4.7z" fill="#fff"/></svg>