<svg xmlns="http://www.w3.org/2000/svg" width="37.486" height="49.688"><path d="M0 6.788V42.9c0 3.75 8.392 6.79 18.743 6.79v-42.9H0z" fill="#3999c6"/><path d="M18.486 49.687h.257c10.35 0 18.743-3.038 18.743-6.788V6.788h-19v42.9z" fill="#59b4d9"/><path d="M37.486 6.788c0 3.75-8.392 6.788-18.743 6.788S0 10.537 0 6.788 8.392 0 18.743 0s18.743 3.04 18.743 6.788" fill="#fff"/><path d="M33.654 6.397c0 2.475-6.676 4.48-14.91 4.48S3.83 8.872 3.83 6.397s6.677-4.48 14.912-4.48 14.91 2.005 14.91 4.48" fill="#7fba00"/><path d="M30.53 9.134c1.952-.757 3.125-1.705 3.125-2.735 0-2.475-6.676-4.48-14.912-4.48S3.832 3.924 3.832 6.4c0 1.03 1.173 1.978 3.125 2.735 2.726-1.058 6.986-1.74 11.786-1.74s9.06.683 11.787 1.74" fill="#b8d432"/><path d="M30.857 36.068c-1.003.836-2.362 1.256-4.128 1.256h-5.9V21.96h5.587c1.76 0 3.107.32 4.034.986.868.624 1.303 1.497 1.303 2.612 0 .89-.317 1.645-.964 2.3-.55.55-1.213.93-2.03 1.153v.036c1.095.135 1.99.552 2.655 1.253.623.665.944 1.48.944 2.424.004 1.405-.508 2.505-1.512 3.333m-14.355-.905c-1.474 1.442-3.464 2.16-5.947 2.16H5.117V21.96h5.438c5.455 0 8.183 2.483 8.183 7.48 0 2.39-.738 4.3-2.236 5.722" fill="#fff"/><path d="M10.27 24.765H8.567v9.754h1.724c1.515 0 2.69-.474 3.558-1.383.832-.91 1.253-2.12 1.253-3.654 0-1.44-.42-2.573-1.234-3.413-.853-.868-2.046-1.304-3.597-1.304" fill="#3999c6"/><path d="M27.485 27.628c.416-.362.624-.836.624-1.424 0-1.14-.832-1.706-2.52-1.706h-1.302v3.64h1.533c.7 0 1.27-.175 1.665-.5m.57 3.602c-.456-.34-1.076-.53-1.877-.53h-1.893v4.052h1.875c.797 0 1.44-.2 1.913-.568.435-.38.66-.87.66-1.515.004-.607-.223-1.1-.68-1.44" fill="#59b4d9"/></svg>