<svg xmlns="http://www.w3.org/2000/svg" width="50" height="49.9"><path d="M49.9 29.4V17.3L36.2 29.2h-.3V17.3L22.2 29.2V4.3c0-2.1-4.7-4.2-10.9-4.2S0 2.1 0 4.3v45.6h50l-.1-20.5zM11.3 6.3C6.8 6.3 3.2 5.2 3.2 4s3.6-2.3 8.1-2.3 8.1 1 8.1 2.3c-.1 1.2-3.7 2.3-8.1 2.3zm23.6 35.5h-5.5v-5.5h5.5v5.5zm-9.7 0h-5.5v-5.5h5.5v5.5zm14 0v-5.5h5.5v5.5h-5.5z" fill="#59b4d9"/><path d="M0 4h11.1v45.9H0z" fill="#3999c6"/><path d="M22.1 4c0 2.2-5 4-11.1 4S0 6.2 0 4s5-4 11.1-4 11 1.7 11 4" fill="#fff"/><path d="M19.9 3.7c0 1.5-3.9 2.6-8.8 2.6S2.3 5.2 2.3 3.7s3.9-2.6 8.8-2.6 8.8 1.2 8.8 2.6" fill="#7fba00"/><path d="M18 5.3c1.2-.4 1.8-1 1.8-1.6 0-1.5-3.9-2.6-8.8-2.6S2.2 2.3 2.2 3.7c.1.6.8 1.2 1.9 1.6 1.6-.6 4.1-1 7-1 2.8 0 5.3.4 6.9 1" fill="#b8d432"/></svg>