<svg xmlns="http://www.w3.org/2000/svg" height="50" width="37.6" viewBox="275 1149 37.6 50"><path d="M293.5 1199h.3c10.4 0 18.8-3 18.8-6.8v-36.3h-19.1z" fill="#59b4d9"/><path d="M275 1155.8v36.3c0 3.8 8.4 6.8 18.8 6.8v-43.1z" fill="#3999c6"/><path d="M312.6 1155.8c0 3.8-8.4 6.8-18.8 6.8s-18.8-3-18.8-6.8 8.4-6.8 18.8-6.8 18.8 3 18.8 6.8" fill="#fff"/><path d="M308.7 1155.4c0 2.5-6.7 4.5-14.9 4.5s-14.9-2-14.9-4.5 6.7-4.5 14.9-4.5 14.9 2 14.9 4.5" fill="#7fba00"/><path d="M305.6 1158.2c2-.8 3.1-1.8 3.1-2.8 0-2.5-6.7-4.5-14.9-4.5s-14.9 2-14.9 4.5c0 1 1.1 2 3.1 2.8 2.8-1 7-1.8 11.8-1.8s9 .8 11.8 1.8" fill="#b8d432"/><path d="M286.9 1178l6.9-6.1 6.9 6.1v3.8l-5.1-4.6v11H292v-11l-5.1 4.6z" fill="#fff"/></svg>