<svg xmlns="http://www.w3.org/2000/svg" width="399.61" height="256.3"><path d="M301.8 58.3C281.3 22.3 242.1 0 198.6 0c-28.8 0-55.3 9.9-75.6 26.8 26 4.1 50.1 16.2 69.1 35.3 23.7 23.7 36.8 55.2 36.8 88.6v105.5h66.7c57.3 0 104-44.8 104-99.8 0-52.7-43.5-95.9-97.8-98.1z" fill="#2272b9"/><path d="M110.3 45.5C48.4 42.7-2.7 93.9.1 155.7c2.6 56.5 50 100.6 106.6 100.6H211V152c-.1-56.6-44.2-104-100.7-106.5z" fill="#45add2"/><path d="M188.1 159.9v-12.8c0-1.6-1-3-2.6-3.5l-17.8-5.8c-1-.3-1.9-1.1-2.3-2.1l-3.9-9.4c-.4-1-.4-2.1.1-3l8.1-17.2c.7-1.4.4-3.1-.7-4.2l-9.1-9.1c-1.1-1.1-2.9-1.4-4.3-.7l-16.7 8.5c-1 .5-2.1.5-3.1.1l-9.4-3.9c-1-.4-1.7-1.2-2.1-2.2l-6.4-17.9c-.5-1.5-1.9-2.5-3.5-2.5h-12.7c-1.6 0-3 1-3.5 2.6l-5.8 17.8c-.3 1-1.1 1.9-2.1 2.3l-9.4 3.9c-1 .4-2.1.4-3-.1l-17.2-8.1c-1.4-.7-3.1-.4-4.2.7l-9.1 9.1c-1.1 1.1-1.4 2.9-.7 4.3l8.5 16.7c.5 1 .5 2.1.1 3.1l-3.9 9.4c-.4 1-1.2 1.7-2.2 2.1l-17.9 6.4c-1.5.5-2.5 1.9-2.5 3.5v12.8c0 1.6 1 3 2.5 3.5l17.8 5.8c1 .3 1.9 1.1 2.3 2.1l3.9 9.4c.4 1 .4 2.1-.1 3l-8.1 17.2c-.7 1.4-.4 3.1.7 4.2l9.1 9.1c1.1 1.1 2.9 1.4 4.3.7l16.7-8.5c1-.5 2.1-.5 3.1-.1l9.4 3.9c1 .4 1.7 1.2 2.1 2.2l6.4 17.9c.5 1.5 1.9 2.5 3.5 2.5h12.8c1.6 0 3-1 3.5-2.6l5.8-17.8c.3-1 1.1-1.9 2.1-2.3l9.4-3.9c1-.4 2.1-.4 3 .1l17.2 8.1c1.4.7 3.1.4 4.2-.7l9.1-9.1c1.1-1.1 1.4-2.9.7-4.3l-8.5-16.7c-.5-1-.5-2.1-.1-3.1l3.9-9.4c.4-1 1.2-1.7 2.2-2.1l17.9-6.4c1.5-.6 2.5-2 2.5-3.5zm-75.9 32.8c-10.4 1-20.6-2.1-28.6-8.8-8.1-6.6-13.1-16-14.1-26.4s2.1-20.6 8.8-28.6c6.6-8.1 16-13.1 26.4-14.1 14.4-1.5 27.9 5.3 35.8 16.4 3.8 5.4 6.1 11.8 6.9 18.8 2.1 21.5-13.6 40.7-35.2 42.7z" fill="#fff"/></svg>