<svg xmlns="http://www.w3.org/2000/svg" width="37.486" height="49.688" viewBox="-454 256 37.486 49.688"><path d="M-454 262.788v36.11c0 3.75 8.392 6.79 18.743 6.79v-42.9H-454z" fill="#3999c6"/><path d="M-435.514 305.687h.257c10.35 0 18.743-3.038 18.743-6.788v-36.11h-19v42.9z" fill="#59b4d9"/><path d="M-416.514 262.788c0 3.75-8.392 6.788-18.743 6.788S-454 266.537-454 262.788-445.608 256-435.257 256s18.743 3.04 18.743 6.788" fill="#fff"/><path d="M-420.346 262.397c0 2.475-6.676 4.48-14.91 4.48s-14.912-2.004-14.912-4.48 6.677-4.48 14.912-4.48 14.91 2.005 14.91 4.48" fill="#7fba00"/><path d="M-423.47 265.134c1.952-.757 3.125-1.705 3.125-2.735 0-2.475-6.676-4.48-14.912-4.48s-14.91 2.005-14.91 4.48c0 1.03 1.173 1.978 3.125 2.735 2.726-1.058 6.986-1.74 11.786-1.74s9.06.683 11.787 1.74" fill="#b8d432"/><path d="M-443.73 280.765h-1.704v9.754h1.724c1.515 0 2.69-.474 3.558-1.383.832-.91 1.253-2.12 1.253-3.654 0-1.44-.42-2.573-1.234-3.413-.853-.868-2.046-1.304-3.597-1.304" fill="#3999c6"/><path d="M-426.515 283.628c.416-.362.624-.836.624-1.424 0-1.14-.832-1.706-2.52-1.706h-1.302v3.64h1.533c.7 0 1.27-.175 1.665-.5m.57 3.602c-.456-.34-1.076-.53-1.877-.53h-1.893v4.052h1.875c.797 0 1.44-.2 1.913-.568.435-.38.66-.87.66-1.515.004-.607-.223-1.1-.68-1.44" fill="#59b4d9"/><path d="M-436.917 276.56c.687.73 1.206 1.458 1.556 2.187.252.504.666 1.83 1.24 3.974l1.85-2.775c.5-.673 1.086-1.314 1.787-1.924s1.318-1.027 1.85-1.25c.336-.14.708-.2 1.115-.2.603 0 1.083.16 1.44.484s.536.715.536 1.178c0 .533-.105.897-.315 1.093-.393.35-.84.526-1.346.526-.294 0-.6-.063-.946-.19-.66-.224-1.1-.336-1.324-.336-.336 0-.736.197-1.198.59-.87.73-1.906 2.138-3.112 4.226l1.724 7.233c.267 1.107.5 1.77.673 1.987s.364.326.547.326c.294 0 .638-.16 1.03-.484.77-.645 1.43-1.486 1.977-2.523l.736.378c-.883 1.654-2.004 3.028-3.364 4.12-.77.617-1.423.925-1.955.925-.785 0-1.41-.44-1.872-1.324-.294-.547-.904-2.902-1.83-7.065-2.187 3.8-3.94 6.245-5.257 7.338-.855.7-1.682 1.05-2.48 1.05-.56 0-1.072-.203-1.535-.6-.336-.308-.504-.722-.504-1.24 0-.463.154-.848.463-1.156s.687-.463 1.135-.463.925.224 1.43.673c.364.323.645.484.84.484.168 0 .385-.112.652-.336.66-.533 1.556-1.682 2.69-3.448l2.23-3.827-1.41-5.404c-.322-.91-.743-1.556-1.26-1.935s-1.283-.567-2.292-.567l-1.115.042v-.757l5.612-1z" fill="#fff"/></svg>