<svg xmlns="http://www.w3.org/2000/svg" xmlns:xlink="http://www.w3.org/1999/xlink" width="50" height="45.559"><path d="M44 45.56H6a6 6 0 0 1-6-6v-36h50v36a6 6 0 0 1-6 6z" fill="#3e3e3e"/><use xlink:href="#B" fill="#804998"/><g fill="#fff"><use xlink:href="#B" opacity=".1"/><use xlink:href="#C" opacity=".2"/></g><path d="M41.45 2.56c-2.235 0-4.16-.953-5.038-2.326a.49.49 0 0 0-.827-.002C34.7 1.605 32.757 2.56 30.5 2.56s-4.202-.956-5.087-2.33a.49.49 0 0 0-.826 0c-.885 1.375-2.83 2.33-5.087 2.33s-4.196-.952-5.082-2.324a.49.49 0 0 0-.828.003c-.873 1.37-2.778 2.32-5 2.32-1.49 0-2.84-.432-3.83-1.133-.323-.228-.77.026-.77.42v9.712h42v-9.65c0-.39-.438-.647-.762-.428-.99.67-2.322 1.08-3.788 1.08z" fill="#59b4d9"/><path d="M41.45 17.56c-2.235 0-4.16-.953-5.038-2.326a.49.49 0 0 0-.827-.002c-.886 1.374-2.828 2.328-5.085 2.328s-4.202-.956-5.087-2.33a.49.49 0 0 0-.826 0c-.885 1.375-2.83 2.33-5.087 2.33s-4.196-.952-5.082-2.324a.49.49 0 0 0-.828.003c-.873 1.37-2.778 2.32-5 2.32-1.49 0-2.84-.432-3.83-1.133-.323-.228-.77.026-.77.42v9.712h42V15.846c-1.003 1.035-2.666 1.713-4.55 1.713z" fill="#b8d432"/><use xlink:href="#C" y="-15" opacity=".2" fill="#fff"/><defs ><path id="B" d="M41.45 32.56c-2.235 0-4.16-.953-5.038-2.326a.49.49 0 0 0-.827-.002c-.886 1.374-2.828 2.328-5.085 2.328s-4.202-.956-5.087-2.33a.49.49 0 0 0-.826 0c-.885 1.375-2.83 2.33-5.087 2.33s-4.196-.952-5.082-2.324a.49.49 0 0 0-.828.003c-.873 1.37-2.778 2.32-5 2.32-1.49 0-2.84-.432-3.83-1.133-.323-.228-.77.026-.77.42v9.712h42V30.846c-1.003 1.035-2.666 1.713-4.55 1.713z"/><path id="C" d="M41.45 32.56c-2.235 0-4.16-.953-5.038-2.326a.49.49 0 0 0-.827-.002c-.886 1.374-2.828 2.328-5.085 2.328s-4.202-.956-5.087-2.33a.49.49 0 0 0-.826 0c-.885 1.375-2.83 2.33-5.087 2.33s-4.196-.952-5.082-2.324a.49.49 0 0 0-.828.003c-.873 1.37-2.778 2.32-5 2.32-1.49 0-2.84-.432-3.83-1.133-.323-.228-.77.026-.77.42v1.9c.982 1.1 2.674 1.81 4.6 1.81 2.687 0 4.92-1.402 5.4-3.254.49 1.852 2.763 3.254 5.5 3.254s5.013-1.404 5.5-3.258c.487 1.854 2.762 3.258 5.5 3.258s5.01-1.403 5.5-3.256c.484 1.853 2.738 3.256 5.45 3.256 1.885 0 3.547-.678 4.55-1.713v-3c-1.003 1.035-2.666 1.713-4.55 1.713z"/></defs></svg>