<svg xmlns="http://www.w3.org/2000/svg" viewBox="-549 251 100 78.5" width="100" height="78.5"><path d="M-489.9 259.1l-2.9-5a6.3 6.3 0 0 0-5.4-3.1h-44.6c-3.4 0-6.2 2.8-6.2 6.2v3.2h60.2c-.5-.3-.8-.8-1.1-1.3z" fill="#3999c6"/><path d="M-452.9 263.6H-549v59.7c0 3.4 2.8 6.2 6.2 6.2h87.6c3.4 0 6.2-2.8 6.2-6.2v-54c0-2.5-1.6-4.7-3.9-5.7zm-33.4 30l-17.7 25.3c-.2.2-.4.4-.7.4-.1 0-.3 0-.4-.1-.4-.2-.6-.6-.4-1l4.6-15.1h-10.3c-.3 0-.6-.2-.8-.5-.1-.3-.1-.6.1-.9l17.2-25c.2-.2.4-.4.7-.4.1 0 .2 0 .4.1.4.2.6.6.4 1l-4.4 14.8h10.6c.5 0 .9.4.9.9 0 .2-.1.3-.2.5z" fill="#59b4d9"/></svg>