<svg xmlns="http://www.w3.org/2000/svg" width="47" height="50.2"><path d="M35.7 35.7h1.6V0H6C5 .1 2.9 2.6 2.9 2.9v34.5c0 1 .8 1.9 1.9 1.9h28.5v-.6l2.4-3z" fill="#0072c6"/><path d="M7.4 1.6c-.9 0-1.2.1-2 .8-1.7 1.5.4 1.5 1.2 1.5h26.7v34.8l2.4-3.1v-34H7.4z" fill="#e5e5e5"/><g fill="#a0a1a2"><path d="M33.3 3.9v34.8l2.4-3V1.6z" opacity=".5"/><path d="M7.4 21.2c0 .8-.6 1.4-1.4 1.4H1.4C.6 22.6 0 22 0 21.2s.6-1.4 1.4-1.4H6c.8-.1 1.4.6 1.4 1.4zm0-10.3c0 .8-.6 1.4-1.4 1.4H1.4c-.8 0-1.4-.6-1.4-1.4s.6-1.4 1.4-1.4H6c.8 0 1.4.7 1.4 1.4zm0 20.5c0 .8-.6 1.4-1.4 1.4H1.4c-.8 0-1.4-.6-1.4-1.4S.6 30 1.4 30H6c.8 0 1.4.6 1.4 1.4z"/></g><path d="M22.6 22.2v23.5c0 2.4 5.5 4.4 12.2 4.4v-28H22.6z" fill="#3999c6"/><path d="M34.6 50.2h.2c6.7 0 12.2-2 12.2-4.4V22.2H34.6v28z" fill="#59b4d9"/><path d="M47 22.2c0 2.4-5.5 4.4-12.2 4.4s-12.2-2-12.2-4.4 5.5-4.4 12.2-4.4 12.2 2 12.2 4.4" fill="#fff"/><path d="M44.5 21.9c0 1.6-4.4 2.9-9.7 2.9s-9.7-1.3-9.7-2.9 4.4-2.9 9.7-2.9 9.7 1.3 9.7 2.9" fill="#7fba00"/><path d="M42.5 23.7c1.3-.5 2-1.1 2-1.8 0-1.6-4.4-2.9-9.7-2.9-5.4 0-9.7 1.3-9.7 2.9 0 .7.8 1.3 2 1.8 1.8-.7 4.6-1.1 7.7-1.1s5.9.4 7.7 1.1" fill="#b8d432"/></svg>