<svg xmlns="http://www.w3.org/2000/svg" xmlns:xlink="http://www.w3.org/1999/xlink" width="40.081" height="50.001"><linearGradient id="A" gradientUnits="userSpaceOnUse" x1="25" y1="9.893" x2="25" y2="50.023"><stop offset="0" stop-color="#7540b7"/><stop offset="1" stop-color="#9351e5"/></linearGradient><path d="M19.76 49.885L.12 30.245a.4.4 0 0 1 0-.567l19.64-19.64a.4.4 0 0 1 .567 0l19.64 19.64a.4.4 0 0 1 0 .567l-19.64 19.64a.4.4 0 0 1-.566 0" fill="url(#A)"/><linearGradient id="B" gradientUnits="userSpaceOnUse" x1="25.003" y1="41.891" x2="25.003" y2="30.106"><stop offset="0" stop-color="#e9dcf9"/><stop offset="1" stop-color="#fff"/></linearGradient><use xlink:href="#L" fill="url(#B)"/><linearGradient id="C" gradientUnits="userSpaceOnUse" x1="25.006" y1="41.896" x2="25.006" y2="30.111"><stop offset="0" stop-color="#decbf7"/><stop offset="1" stop-color="#f4edfc"/></linearGradient><use xlink:href="#L" x="7.072" y="-7.073" fill="url(#C)"/><linearGradient id="D" gradientUnits="userSpaceOnUse" x1="17.922" y1="34.823" x2="17.922" y2="23.038"><stop offset="0" stop-color="#decbf7"/><stop offset="1" stop-color="#f4edfc"/></linearGradient><path d="M18.746 28.648l-5.49-5.49c-.158-.158-.414-.158-.572 0l-5.49 5.49c-.158.158-.158.414 0 .572l5.49 5.49c.158.158.414.158.572 0l5.49-5.49c.158-.16.158-.415 0-.572z" fill="url(#D)"/><linearGradient id="E" gradientUnits="userSpaceOnUse" x1="39.143" y1="15.958" x2="39.143" y2="27.742"><stop offset="0" stop-color="#d3b9f4"/><stop offset="1" stop-color="#be96ef"/></linearGradient><path d="M39.964 21.575l-5.49-5.49c-.158-.158-.414-.158-.572 0l-5.49 5.49c-.158.158-.158.414 0 .572l5.49 5.49c.158.158.414.158.572 0l5.49-5.49c.157-.158.157-.414 0-.572z" fill="url(#E)"/><linearGradient id="F" gradientUnits="userSpaceOnUse" x1="25.003" y1="15.958" x2="25.003" y2="27.742"><stop offset="0" stop-color="#d3b9f4"/><stop offset="1" stop-color="#be96ef"/></linearGradient><path d="M19.756 16.084l-5.49 5.49c-.158.158-.158.414 0 .572l5.49 5.49c.158.158.414.158.572 0l5.49-5.49c.158-.158.158-.414 0-.572l-5.49-5.49c-.158-.158-.414-.158-.572 0z" fill="url(#F)"/><linearGradient id="G" gradientUnits="userSpaceOnUse" x1="10.846" y1="15.958" x2="10.846" y2="27.742"><stop offset="0" stop-color="#d3b9f4"/><stop offset="1" stop-color="#be96ef"/></linearGradient><path d="M11.673 22.147l-5.49 5.49c-.158.158-.414.158-.572 0l-5.49-5.49c-.158-.158-.158-.414 0-.572l5.49-5.49c.158-.158.414-.158.572 0l5.49 5.49c.158.158.158.414 0 .572z" fill="url(#G)"/><linearGradient id="H" gradientUnits="userSpaceOnUse" x1="32.078" y1="8.083" x2="32.078" y2="19.869"><stop offset="0" stop-color="#be96ef"/><stop offset="1" stop-color="#a873ea"/></linearGradient><path d="M21.338 14.267l5.49 5.49c.158.158.414.158.572 0l5.49-5.49c.158-.158.158-.414 0-.572l-5.49-5.49c-.158-.158-.414-.158-.572 0l-5.49 5.49c-.158.16-.158.414 0 .572z" fill="url(#H)"/><linearGradient id="I" gradientUnits="userSpaceOnUse" x1="17.922" y1="8.083" x2="17.922" y2="19.869"><stop offset="0" stop-color="#be96ef"/><stop offset="1" stop-color="#a873ea"/></linearGradient><path d="M12.684 19.758c.158.158.414.158.572 0l5.49-5.49c.158-.158.158-.414 0-.572l-5.49-5.49c-.158-.158-.414-.158-.572 0l-5.49 5.49c-.158.158-.158.414 0 .572z" fill="url(#I)"/><linearGradient id="J" gradientUnits="userSpaceOnUse" x1="25.003" y1=".001" x2="25.003" y2="11.786"><stop offset="0" stop-color="#a873ea"/><stop offset="1" stop-color="#9351e5"/></linearGradient><path d="M19.756 11.673c.158.158.414.158.572 0l5.49-5.49c.158-.158.158-.414 0-.572L20.328.12c-.158-.158-.414-.158-.572 0l-5.49 5.49c-.158.158-.158.414 0 .572z" fill="url(#J)"/><defs ><path id="L" d="M20.328 30.23c-.158-.158-.414-.158-.572 0l-5.49 5.49c-.158.158-.158.414 0 .572l5.49 5.49c.158.158.414.158.572 0l5.49-5.49c.158-.158.158-.414 0-.572z"/></defs></svg>