<svg xmlns="http://www.w3.org/2000/svg" width="154" height="210.07"><path d="M131 25.05C84.74 19.9 77 0 77 0S66.58 26.23 0 26.23v107.6c0 13 7.23 25.2 17.24 35.85 22.7 24.14 59.76 40.4 59.76 40.4s77-33.72 77-76.24V26.23a208.8 208.8 0 0 1-23-1.18z" fill="#7fba00"/><path d="M96.06 69.5l35-44.46C84.74 19.9 77 0 77 0S66.58 26.23 0 26.23v107.6c0 13 7.23 25.2 17.24 35.85l25.84-32.86z" opacity=".4" fill="#b8d432"/><path d="M108.95 155.97a5.61 5.61 0 0 1-5.66 5.66h-55a5.61 5.61 0 0 1-5.66-5.66V54.2a5.61 5.61 0 0 1 5.66-5.66h55a5.61 5.61 0 0 1 5.66 5.66z" fill="#3e3e3e"/><path d="M52.16 109.6a7.14 7.14 0 0 1 7.23-7.23h33a7.14 7.14 0 0 1 7.23 7.23 7.14 7.14 0 0 1-7.23 7.23h-33a7.29 7.29 0 0 1-7.25-7.23z" fill="#1e1e1e"/><circle cx="59.86" cy="109.6" r="4.76" fill="#b8d432"/><path d="M52.16 88.1a7.14 7.14 0 0 1 7.23-7.19h33a7.14 7.14 0 0 1 7.23 7.23 7.14 7.14 0 0 1-7.23 7.23h-33a7.26 7.26 0 0 1-7.25-7.23z" fill="#1e1e1e"/><circle cx="59.86" cy="88.1" r="4.76" fill="#b8d432"/><path d="M52.16 66.84a7.14 7.14 0 0 1 7.23-7.23h33a7.14 7.14 0 0 1 7.23 7.23 7.14 7.14 0 0 1-7.23 7.23h-33a7.42 7.42 0 0 1-7.25-7.23z" fill="#1e1e1e"/><circle cx="59.86" cy="66.84" r="4.76" fill="#b8d432"/><path d="M43.1 136.82l65.7-83.6a5.59 5.59 0 0 0-5.57-4.69h-54.9a5.61 5.61 0 0 0-5.66 5.66v83.2z" opacity=".1" fill="#fff"/></svg>