<svg xmlns="http://www.w3.org/2000/svg" xmlns:xlink="http://www.w3.org/1999/xlink" width="50" height="48"><g fill="#7fba00"><use xlink:href="#B"/><use xlink:href="#B" y="7"/><use xlink:href="#B" y="-7"/></g><path d="M0 .5v6a.5.5 0 0 0 .5.5h2a.5.5 0 0 0 .5-.5v-3a.5.5 0 0 1 .5-.5h21a.5.5 0 0 1 .5.5v3a.5.5 0 0 0 .5.5h2a.5.5 0 0 0 .5-.5v-6a.5.5 0 0 0-.5-.5H.5a.5.5 0 0 0-.5.5z" fill="#7a7a7a"/><g fill="#7fba00"><use xlink:href="#B" x="11" y="9"/><use xlink:href="#B" x="11" y="16"/><use xlink:href="#B" x="11" y="2"/></g><use xlink:href="#C" fill="#7a7a7a"/><g fill="#7fba00"><use xlink:href="#B" x="22" y="18"/><use xlink:href="#B" x="29" y="14"/><use xlink:href="#B" x="29" y="21"/><use xlink:href="#B" x="36" y="18"/><use xlink:href="#B" x="22" y="25"/><use xlink:href="#B" x="22" y="11"/></g><g fill="#3999c6"><use xlink:href="#C" x="11" y="9"/><path d="M50 47.5v-6a.5.5 0 0 0-.5-.5h-2a.5.5 0 0 0-.5.5v3a.5.5 0 0 1-.5.5h-21a.5.5 0 0 1-.5-.5v-3a.5.5 0 0 0-.5-.5h-2a.5.5 0 0 0-.5.5v6a.5.5 0 0 0 .5.5h27a.5.5 0 0 0 .5-.5z"/></g><path d="M11 27H3.5a.5.5 0 0 1-.5-.5v-3a.5.5 0 0 0-.5-.5h-2a.5.5 0 0 0-.5.5v6a.5.5 0 0 0 .5.5H11zm11 9h-7.5a.5.5 0 0 1-.5-.5v-3a.5.5 0 0 0-.5-.5h-2a.5.5 0 0 0-.5.5v6a.5.5 0 0 0 .5.5H22z" fill="#7a7a7a"/><defs ><path id="B" d="M9.5 17h-4a.5.5 0 0 1-.5-.5v-3a.5.5 0 0 1 .5-.5h4a.5.5 0 0 1 .5.5v3a.5.5 0 0 1-.5.5z"/><path id="C" d="M11 9.5v6a.5.5 0 0 0 .5.5h2a.5.5 0 0 0 .5-.5v-3a.5.5 0 0 1 .5-.5h21a.5.5 0 0 1 .5.5v3a.5.5 0 0 0 .5.5h2a.5.5 0 0 0 .5-.5v-6a.5.5 0 0 0-.5-.5h-27a.5.5 0 0 0-.5.5z"/></defs></svg>