<svg xmlns="http://www.w3.org/2000/svg" width="50" height="42.634"><path d="M0 40.627c0 1.108.898 2.007 2.007 2.007h45.986c1.11 0 2.007-.9 2.007-2.007V8.633H0z" fill="#3e3e3e"/><path d="M47.993 0H2.007C.898 0 0 .898 0 2.006v7.29h50v-7.29C50 .898 49.1 0 47.993 0z" fill="#a0a1a2"/><g fill="#fff"><path d="M0 9.297h50v3.336H0z" opacity=".15"/><path d="M2.014 0C.906 0 .007.898.007 2.007v38.62a2.01 2.01 0 0 0 2.007 2.007h19.188L43.62 0z" opacity=".1"/><path d="M16.343 27.637v-.054l-8.98-5.02v-1.245l11.034 6.188v.238l-11.034 5.6v-1.27zm1.277 10.148h11.262v1.576H17.62z"/></g></svg>