<svg xmlns="http://www.w3.org/2000/svg" width="42.058" height="45.001"><path d="M35.587 10.128l.45.45L38.283 8.7l3.775-6.2-.99-.99-5.93 3.953-1.8 2.337.45.45-11.77 12.134-2.427-2.517-2.7 2.786a4.832 4.832 0 0 1-1.258 3.865 4.262 4.262 0 0 1-3.685 1.348L0 38.08 6.65 45l11.86-12.314a4.61 4.61 0 0 1 1.348-3.865 4.262 4.262 0 0 1 3.685-1.348l2.7-2.786-2.427-2.517z" fill="#00abec"/><path d="M34.5 41.405a4.24 4.24 0 0 0 6.2 0 4.469 4.469 0 0 0 1.258-3.236 4.877 4.877 0 0 0-1.258-3.236l-13.3-13.66-1.26 1.35 2.427 2.517-1.08 1-2.7 2.786-.36.36-.54-.1a5.125 5.125 0 0 0-1.168.09zM16.927 2.924A9.24 9.24 0 0 0 7.98.266l5.22 5.476-1.432 5.28-5.237 1.355L1.4 6.904a9.838 9.838 0 0 0 2.28 9.294 9.1 9.1 0 0 0 9.038 2.569l.177.183 2.387 2.554a2.488 2.488 0 0 0 .1-.807l.018-.448-.174-.362 4.1-4.16.706.82 1.6 1.733 1.274-1.33-3.8-4.195a9.962 9.962 0 0 0-2.181-9.83z" opacity=".8" fill="#525252"/></svg>