<svg xmlns="http://www.w3.org/2000/svg" width="50" height="50"><path d="M46 33c0 1.657-1.36 3-3.036 3H3.036C1.36 36 0 34.657 0 33V3c0-1.657 1.36-3 3.036-3h39.928C44.64 0 46 1.343 46 3z" fill="#3e3e3e"/><path d="M2.962 5H43v26H2.962z" fill="#3999c6"/><g fill="#fff"><path d="M26 2.69a.69.69 0 0 1-.688.688H20.9a.69.69 0 0 1-.69-.688.69.69 0 0 1 .69-.689h4.422a.69.69 0 0 1 .688.689"/><path d="M31 0H3a3 3 0 0 0-3 3v30a3 3 0 0 0 3 3h12z" opacity=".15"/></g><path d="M50 47.545C50 48.9 48.913 50 47.572 50H29.428C28.087 50 27 48.9 27 47.545v-31.1C27 15.1 28.087 14 29.428 14H47.57c1.342 0 2.43 1.1 2.43 2.455z" fill="#3e3e3e"/><path d="M29 18h19v27H29z" fill="#59b4d9"/><g fill="#fff"><path d="M42.607 16.17c0 .335-.436.606-.974.606H35.37c-.54 0-.977-.27-.977-.606s.437-.607.977-.607h6.263c.538 0 .974.272.974.607"/><path d="M45.09 14H29.464A2.46 2.46 0 0 0 27 16.455v31.09A2.46 2.46 0 0 0 29.464 50H31.6z" opacity=".15"/></g></svg>