<svg xmlns="http://www.w3.org/2000/svg" width="44" height="50"><g fill-rule="evenodd"><path d="M25 37l3-7V19H16v25h12z" fill="#a0a1a2"/><path d="M25 37l3-7V19H16v25h12z" opacity=".5" fill="#e5e5e5"/></g><path d="M21.328 41.757l-.5-1.194-2.733-.896L17 39.252v-4.36l3.884-1.387.488-1.19-1.51-2.978-.322-.645 3.1-3.1 3.617 1.726 1.19-.488.563-1.715V3c0-1.657-1.323-3-2.956-3H2.956C1.323 0 0 1.343 0 3v38c0 1.657 1.323 3 2.956 3h17.318z" fill="#3e3e3e"/><path d="M21.372 32.313l-1.51-2.978-.322-.645 3.1-3.09L26 27.21V5H2v33h15v-3.11l3.884-1.387z" fill="#59b4d9"/><g fill="#fff"><path d="M19 2.817c0 .408-.53.738-1.186.738H10.19c-.657 0-1.19-.33-1.19-.738s.532-.74 1.19-.74h7.625c.656 0 1.186.33 1.186.74"/><path d="M22.02 0H3a3 3 0 0 0-3 3v38a3 3 0 0 0 3 3h2.6z" opacity=".15"/></g><path d="M44 38.404V35.44l-.416-.156-3.172-1.04-.832-2.028 1.612-3.432-2.08-2.08-.416.208-2.964 1.508-2.028-.832-1.3-3.588H29.44l-.156.416-1.04 3.172-2.028.832-3.38-1.612-2.08 2.08.208.416 1.508 2.964-.832 2.028-3.64 1.3v2.964l.416.156 3.172 1.04.832 2.028-1.612 3.432 2.08 2.08.416-.208 2.964-1.508 2.028.832 1.3 3.588h2.964l.156-.416 1.04-3.172 2.028-.832 3.432 1.612 2.08-2.08-.208-.416-1.508-2.964.832-2.028zM31 41.42c-2.444 0-4.42-1.976-4.42-4.42s1.976-4.42 4.42-4.42 4.42 1.976 4.42 4.42-1.976 4.42-4.42 4.42z" fill="#7a7a7a"/></svg>