<svg xmlns="http://www.w3.org/2000/svg" width="323.8" height="337.5" fill="#0072c6"><circle cx="127.9" cy="66.8" r="25"/><circle cx="185" cy="147.3" r="29.8"/><circle cx="234.9" cy="235.9" r="23.3"/><circle cx="142.4" cy="219.8" r="20.1"/><circle cx="61" cy="158.6" r="20.1"/><path d="M118.084 68.764l14.807-10.41 59.926 85.246-14.808 10.4z"/><path d="M175.34 148.528l15.71-8.992 52.958 92.518-15.71 8.992z"/><path d="M57.573 148.248l127.963-10.624 1.498 18.038L59.07 166.286z"/><path d="M131.876 216.3l45.88-76.144 15.504 9.342-45.882 76.143z"/><circle cx="33.6" cy="85.5" r="24"/><circle cx="289.6" cy="85.5" r="24"/><circle cx="168" cy="313.5" r="24"/><path d="M59.9 64.4c25.7-26.9 61.9-43.6 102-43.6 39.9 0 76 16.6 101.7 43.3a34.08 34.08 0 0 1 17.9-11.4c-1.6-1.8-3.3-3.6-5.1-5.3-14.9-14.9-32.2-26.5-51.5-34.7C204.9 4.2 183.7 0 161.8 0s-43.1 4.3-63.1 12.7c-19.3 8.2-36.6 19.8-51.5 34.7-1.8 1.8-3.5 3.6-5.2 5.4 7.3 1.9 13.4 6 17.9 11.6zm254.8 43.7c-4.8 5.3-11.2 9-18.5 10.5A141.31 141.31 0 0 1 303 162c0 65.4-44.5 120.4-104.9 136.4 2.3 4.6 3.6 9.7 3.6 15.2 0 1.9-.2 3.8-.5 5.6 8.1-2 16-4.7 23.7-7.9 19.3-8.2 36.6-19.8 51.5-34.7s26.5-32.2 34.7-51.5c8.5-20 12.7-41.2 12.7-63.1 0-18.6-3-36.7-9.1-53.9zm-178 192.7C70.8 288.9 20.8 231.3 20.8 161.9c0-15.1 2.4-29.6 6.8-43.3-7.3-1.3-13.7-5-18.6-10.1-6 17.1-9 35-9 53.4C0 183.8 4.3 205 12.7 225c8.2 19.3 19.8 36.6 34.7 51.5s32.2 26.5 51.5 34.7c11.7 5 23.9 8.5 36.4 10.5-.7-2.6-1-5.4-1-8.2-.1-4.5.8-8.8 2.4-12.7z"/></svg>