<svg xmlns="http://www.w3.org/2000/svg" width="40.959" height="49.959"><path d="M28 41c0 1.657-1.323 3-2.956 3H2.956C1.323 44 0 42.657 0 41V3c0-1.657 1.323-3 2.956-3h22.088C26.677 0 28 1.343 28 3z" fill="#3e3e3e"/><path d="M2 5h24v33H2z" fill="#59b4d9"/><g fill="#fff"><path d="M19 2.817c0 .408-.53.738-1.186.738H10.19c-.657 0-1.19-.33-1.19-.738s.532-.74 1.19-.74h7.625c.656 0 1.186.33 1.186.74"/><path d="M22.02 0H3a3 3 0 0 0-3 3v38a3 3 0 0 0 3 3h2.6z" opacity=".15"/><path stroke-miterlimit="10" d="M17.042 26.042H39.96V48.96H17.042z" stroke="#3999c6" stroke-width="2" stroke-linejoin="round"/></g><path d="M20.26 37.613c-.11-.118-.167-.276-.16-.433s.08-.303.196-.41l1.568-1.45a.59.59 0 0 1 .402-.159.57.57 0 0 1 .432.193l4.158 4.458 7.287-9.334a.58.58 0 0 1 .466-.228.57.57 0 0 1 .362.127l1.698 1.31c.126.1.208.227.228.39.012.13-.003.306-.14.45L27.384 44.53c-.162.207-.47.22-.65.028z" fill="#3999c6"/></svg>