<svg xmlns="http://www.w3.org/2000/svg" width="50" height="50"><path fill="#0072c6" d="M50 25.5c0-3.2-2.6-5.8-5.8-5.8h-.7c.4-1.3.5-2.7.5-4.1C44.1 7 37.1 0 28.6 0 21.8 0 16 4.4 14 10.6c-1.1-.4-2.2-.6-3.4-.6C4.7 10 0 14.8 0 20.7s4.7 10.6 10.5 10.6h34.1c3.1-.3 5.4-2.8 5.4-5.8"/><path opacity=".1" fill="#fff" d="M16.2 31.3c-1.4-1.4-2.4-3.2-2.9-5.2-1.3-5.7 2.2-11.4 7.9-12.7 1.2-.3 2.4-.3 3.5-.2.5-5.4 3.8-10.1 8.6-12.5-1.5-.4-3-.7-4.7-.7C21.8 0 16 4.4 14 10.6c-1.1-.4-2.2-.6-3.4-.6C4.7 10 0 14.8 0 20.7s4.7 10.6 10.5 10.6h5.7z"/><path fill="#59b4d9" d="M46.3,46.3L35.8,28v-7.4H36c1.3,0,2.3-1,2.3-2.3S37.2,16,36,16H24.4c-1.3,0-2.3,1-2.3,2.3s1,2.3,2.3,2.3h0.2 V28L14,46.3c-1.2,2-0.2,3.7,2.1,3.7h28.1C46.6,50,47.5,48.4,46.3,46.3z"/><path fill="#804998" d="M37.6 38.5h-5c.1.3.2.6.2.9 0 1.2-1 2.1-2.1 2.1s-2.1-1-2.1-2.1a2.39 2.39 0 0 1 .2-.9h-6.1L18.4 46H42l-4.4-7.5z"/><g fill="#68217a"><path d="M30.7 41.5c1.2 0 2.1-1 2.1-2.1a2.39 2.39 0 0 0-.2-.9h-3.8c-.1.3-.2.6-.2.9 0 1.2 1 2.1 2.1 2.1z"/><circle cx="33.4" cy="43.2" r="1"/></g><path opacity=".25" fill="#fff" d="M14,46.3L24.6,28v-7.4h-0.2c-1.3,0-2.3-1-2.3-2.3s1-2.3,2.3-2.3h5V28l-5.6,22h-7.7 C13.8,50,12.9,48.4,14,46.3z"/></svg>