<svg xmlns="http://www.w3.org/2000/svg" xmlns:xlink="http://www.w3.org/1999/xlink" viewBox="0 0 50 50"><style><![CDATA[.B{fill:#1e1e1e}.C{fill:#b8d432}.D{opacity:.6}]]></style><path fill="#a0a1a2" d="M23.5 38c0 1.1-.9 2-2 2H2c-1.1 0-2-.9-2-2V2C0 .9.9 0 2 0h19.4c1.1 0 2 .9 2 2v36z"/><use xlink:href="#B" class="B D"/><circle cx="6.1" cy="21.6" r="1.7" class="C"/><use xlink:href="#B" y="-7.6" class="B D"/><circle cx="6.1" cy="14" r="1.7" class="C"/><path d="M3.5 6.5C3.5 5 4.6 3.9 6 3.9h11.7c1.4 0 2.6 1.1 2.6 2.6 0 1.4-1.1 2.6-2.6 2.6H6C4.6 9 3.5 7.9 3.5 6.5z" class="B D"/><circle cx="6.1" cy="6.5" r="1.7" class="C"/><path fill="#a0a1a2" d="M50 38c0 1.1-.9 2-2 2H28.5c-1.1 0-2-.9-2-2V2c0-1.1.9-2 2-2H48c1.1 0 2 .9 2 2v36z"/><use xlink:href="#C" class="B D"/><circle cx="32.6" cy="21.6" r="1.7" class="C"/><use xlink:href="#C" y="-7.6" class="B D"/><circle cx="32.6" cy="14" r="1.7" class="C"/><path d="M30 6.5c0-1.4 1.1-2.6 2.6-2.6h11.7c1.4 0 2.6 1.1 2.6 2.6 0 1.4-1.1 2.6-2.6 2.6H32.5C31.1 9 30 7.9 30 6.5z" class="B D"/><circle cx="32.6" cy="6.5" r="1.7" class="C"/><path fill="#3e3e3e" d="M37.6 48c0 1.1-.9 2-2 2H16.2c-1.1 0-2-.9-2-2V12c0-1.1.9-2 2-2h19.4c1.1 0 2 .9 2 2v36z"/><use xlink:href="#D" class="B"/><circle cx="20.3" cy="31.6" r="1.7" class="C"/><use xlink:href="#D" y="-7.6" class="B"/><circle cx="20.3" cy="24" r="1.7" class="C"/><path d="M17.6 16.5c0-1.4 1.1-2.6 2.6-2.6h11.7c1.4 0 2.6 1.1 2.6 2.6 0 1.4-1.1 2.6-2.6 2.6H20.2c-1.5-.1-2.6-1.2-2.6-2.6z" class="B"/><circle cx="20.3" cy="16.5" r="1.7" class="C"/><defs ><path id="B" d="M3.5 21.6c0-1.4 1.1-2.6 2.6-2.6h11.7c1.4 0 2.6 1.1 2.6 2.6 0 1.4-1.1 2.6-2.6 2.6H6c-1.4 0-2.5-1.2-2.5-2.6z"/><path id="C" d="M30 21.6c0-1.4 1.1-2.6 2.6-2.6h11.7c1.4 0 2.6 1.1 2.6 2.6 0 1.4-1.1 2.6-2.6 2.6H32.5c-1.4 0-2.5-1.2-2.5-2.6z"/><path id="D" d="M17.6 31.6c0-1.4 1.1-2.6 2.6-2.6h11.7c1.4 0 2.6 1.1 2.6 2.6 0 1.4-1.1 2.6-2.6 2.6H20.2c-1.5 0-2.6-1.2-2.6-2.6z"/></defs></svg>