<svg xmlns="http://www.w3.org/2000/svg" height="42.504" width="50"><path d="M50 33.45c0 5-11.194 9.054-25 9.054S0 38.45 0 33.45v-4.88h50v4.88z" fill="#7fba00"/><path d="M50 28.57c0 5-11.194 9.054-25 9.054S0 33.57 0 28.57s11.193-9.054 25-9.054 25 4.054 25 9.054" fill="#b8d432"/><path d="M33.013 28.05c0 1.33-3.588 2.407-8.014 2.407s-8.015-1.077-8.015-2.407 3.59-2.407 8.015-2.407 8.014 1.078 8.014 2.407" fill="#7fba00"/><path d="M43.07 22.367c-3.502-1.327-8.104-2.27-13.28-2.633l-3.244 6.004c1.596.094 3.023.33 4.127.662l12.396-4.033zM5.902 34.46c3.6 1.543 8.598 2.643 14.288 3.045l3.793-7.02c-1.58-.06-3.014-.257-4.168-.552L5.902 34.46z" opacity=".25" fill="#fff"/><path d="M50 13.934c0 5-11.194 9.054-25 9.054S0 18.934 0 13.934v-4.88h50v4.88z" fill="#0072c6"/><path d="M50 9.054c0 5-11.194 9.054-25 9.054S0 14.054 0 9.054 11.193 0 25 0s25 4.053 25 9.054" fill="#59b4d9"/><path d="M33.013 8.533c0 1.33-3.588 2.407-8.014 2.407s-8.015-1.077-8.015-2.407S20.573 6.126 25 6.126s8.014 1.077 8.014 2.407" fill="#0072c6"/><path d="M43.07 2.8C39.57 1.474 34.967.532 29.792.168l-3.244 6.004c1.596.094 3.023.33 4.127.662L43.07 2.8zM5.902 14.894c3.6 1.543 8.598 2.643 14.288 3.045l3.793-7.02c-1.58-.06-3.014-.257-4.168-.552L5.902 14.894z" opacity=".25" fill="#fff"/></svg>