<svg xmlns="http://www.w3.org/2000/svg" width="50.001" height="50"><circle cx="21.001" cy="21" r="21" fill="#0072c6"/><g fill="#fff"><path d="M6.15 35.85c-8.2-8.2-8.2-21.497 0-29.698s21.497-8.2 29.698 0z" opacity=".2"/><path d="M40.32 20.997c0-4.328-1.468-8.5-4.173-11.9l-.155-.155c-.077-.077-.077-.155-.155-.232l-1.236-1.314C30.97 3.686 26.18 1.677 21 1.677h-.154c-5.1.077-9.815 2.01-13.447 5.64L6.086 8.71c-.077.077-.077.155-.155.232l-.154.077c-2.628 3.4-4.096 7.65-4.096 11.978s1.468 8.5 4.173 11.9l.155.155c.077.077.077.155.155.232L7.4 34.598c3.632 3.632 8.346 5.64 13.447 5.64H21c5.1 0 9.97-2.01 13.6-5.64l1.236-1.39c.077-.077.077-.155.155-.232l.155-.155c2.705-3.245 4.173-7.496 4.173-11.823zM32.516 8.4c-.077 0-.155.077-.232.077-.155.077-.31.155-.386.155-.31.155-.696.232-1.082.386-.077 0-.155.077-.232.077-.464.155-.85.232-1.314.386-.077 0-.232.077-.31.077-.696-1.855-1.546-3.478-2.55-4.714 2.24.697 4.327 1.933 6.105 3.556zm-11.67-4.482h.077c2.087 0 4.25 2.24 5.796 6.105-1.777.31-3.71.464-5.72.464s-4.02-.155-5.873-.464c1.47-3.787 3.633-6.028 5.72-6.105zM15.36 4.922c-.927 1.236-1.777 2.782-2.473 4.637h-.155c-.464-.155-.927-.232-1.314-.386-.077 0-.155-.077-.232-.077-.31-.155-.696-.31-1.005-.464-.155-.077-.232-.077-.386-.155-.077-.077-.154-.077-.31-.154 1.778-1.47 3.7-2.705 5.874-3.4zm-5.874 28.67c.077 0 .155-.077.232-.077.155-.077.232-.077.386-.155.31-.155.696-.232 1.082-.386.077 0 .155-.077.232-.077.464-.155.85-.232 1.314-.386h.155c.696 1.777 1.546 3.4 2.473 4.637-2.164-.774-4.174-2-5.874-3.556zm11.438 4.483h-.077c-2.087-.077-4.25-2.24-5.72-6.028 1.855-.31 3.864-.464 5.873-.464s3.864.155 5.72.464c-1.47 3.786-3.7 6.028-5.796 6.028zm5.487-.928c1.005-1.236 1.855-2.86 2.55-4.714.077 0 .232.077.31.077.464.155.927.232 1.314.386.077 0 .155.077.232.077.386.155.696.232 1.082.386.155.077.232.077.386.155.077 0 .155.077.31.155-1.855 1.546-3.94 2.783-6.182 3.478zm7.805-5.332c-.232 0-.386-.077-.618-.155s-.54-.232-.773-.31c-.077 0-.155-.077-.232-.077-.927-.386-1.932-.618-2.937-.927.232-.927.464-1.855.618-2.782h-2.318c-.155.85-.31 1.623-.54 2.318-2.01-.386-4.173-.54-6.414-.54-2.318 0-4.482.232-6.57.618-.232-.773-.386-1.546-.54-2.396h-2.318c.155 1.005.386 1.932.618 2.86-.927.232-1.855.54-2.705.85-.077.077-.232.077-.31.155-.232.077-.54.232-.773.31-.155 0-.386.077-.54.155C5.545 29.11 4.23 25.633 4 22.078H5.93v-2.24H4c.232-3.555 1.546-6.955 3.787-9.66l.077-.077c.155.077.386.155.54.232.31.155.54.232.85.386.077 0 .155.077.232.077.85.31 1.777.618 2.782.85-.232.85-.386 1.7-.54 2.55h2.318l.464-2.087c2.087.386 4.328.618 6.57.618s4.405-.232 6.414-.54a45.17 45.17 0 0 1 .464 2.087h2.318c-.155-.85-.31-1.7-.54-2.55 1.005-.232 1.932-.54 2.86-.927.077 0 .232-.077.31-.077.31-.077.54-.232.85-.31.155-.077.386-.155.54-.232 2.24 2.782 3.632 6.182 3.864 9.737h-2.318v2.24h2.318c-.385 3.478-1.7 6.956-3.94 9.66z" opacity=".8"/><path d="M16.147 20.878c0 .916-.12 1.7-.36 2.35s-.583 1.182-1.03 1.593a4.11 4.11 0 0 1-1.632.906c-.642.192-1.403.3-2.287.3H8.456a.63.63 0 0 1-.428-.15c-.116-.1-.173-.264-.173-.5v-8.702c0-.227.058-.4.173-.5s.26-.15.428-.15h2.56c.9 0 1.645.104 2.265.313s1.142.517 1.567.926.747.914.97 1.515.33 1.3.33 2.1zm-2.098.07c0-.474-.055-.913-.166-1.32a2.79 2.79 0 0 0-.533-1.057c-.245-.297-.558-.53-.942-.698s-.885-.25-1.5-.25H9.874v6.8h1.058c.555 0 1.023-.07 1.404-.216s.698-.36.953-.652.445-.652.57-1.084.2-.935.2-1.5zm11.996 4.36a.77.77 0 0 1-.061.316.71.71 0 0 1-.167.232.62.62 0 0 1-.246.134.98.98 0 0 1-.3.043h-.864c-.18 0-.335-.018-.468-.054a.92.92 0 0 1-.362-.197c-.1-.095-.218-.224-.32-.386a7.28 7.28 0 0 1-.346-.63L20.436 20.1l-.44-.9-.402-.937h-.014l.046 1.106.015 1.137v5.223a.24.24 0 0 1-.043.14c-.03.042-.077.076-.147.104s-.164.05-.28.065a3.51 3.51 0 0 1-.455.024c-.18 0-.33-.008-.448-.024s-.2-.037-.277-.065-.113-.063-.14-.104-.04-.087-.04-.14v-8.972c0-.242.07-.423.212-.544s.315-.18.52-.18h1.087c.196 0 .36.017.494.05a1.02 1.02 0 0 1 .359.166c.105.077.206.184.297.32s.187.305.285.506L23 20.725l.335.652.32.64.3.628.285.617h.008l-.034-1.126-.01-1.118v-4.683a.24.24 0 0 1 .045-.14c.03-.043.082-.077.155-.108s.167-.053.285-.066a4.33 4.33 0 0 1 .455-.019l.44.02c.118.013.2.034.275.066s.1.066.135.108.038.087.038.14v8.973zm8.095-2.285c0 .526-.098.985-.293 1.38s-.46.727-.795 1-.726.464-1.173.598-.926.2-1.435.2a5.25 5.25 0 0 1-.96-.085 5.46 5.46 0 0 1-.783-.204 3.35 3.35 0 0 1-.567-.251 1.64 1.64 0 0 1-.328-.232c-.066-.067-.113-.163-.143-.3s-.043-.307-.043-.544l.016-.4c.01-.108.026-.196.05-.263s.054-.114.092-.143.083-.043.135-.043c.072 0 .174.043.304.128a4.67 4.67 0 0 0 .506.28c.206.1.45.197.737.28a3.48 3.48 0 0 0 .991.128 2.26 2.26 0 0 0 .663-.089 1.5 1.5 0 0 0 .497-.251 1.07 1.07 0 0 0 .312-.401c.072-.16.108-.337.108-.533 0-.227-.062-.42-.186-.582s-.285-.307-.483-.433-.423-.244-.675-.354l-.78-.352a7.24 7.24 0 0 1-.78-.42 3.1 3.1 0 0 1-.675-.564c-.198-.218-.36-.478-.483-.776s-.186-.655-.186-1.073c0-.478.1-.9.266-1.262s.417-.663.717-.903a3.06 3.06 0 0 1 1.065-.536 4.67 4.67 0 0 1 1.299-.177 4.48 4.48 0 0 1 .7.054 5.14 5.14 0 0 1 .663.147 3.77 3.77 0 0 1 .548.208c.16.077.265.14.316.193s.086.095.104.13a.57.57 0 0 1 .046.143 1.46 1.46 0 0 1 .026.224l.008.336-.013.378a1.46 1.46 0 0 1-.038.255c-.018.067-.044.116-.077.147s-.08.046-.135.046-.147-.035-.27-.108a6.11 6.11 0 0 0-.455-.236 4.52 4.52 0 0 0-.624-.232 2.74 2.74 0 0 0-.779-.104 1.89 1.89 0 0 0-.578.08c-.164.053-.303.13-.412.224s-.193.2-.247.343a1.16 1.16 0 0 0-.08.424c0 .22.06.412.18.575s.283.306.486.432a5.11 5.11 0 0 0 .691.354l.787.352a7.96 7.96 0 0 1 .787.42c.257.157.486.344.687.564a2.64 2.64 0 0 1 .486.772c.128.3.2.65.2 1.05z"/></g><circle cx="37.001" cy="37" r="12" fill="#1e1e1e"/><path d="M37 26c6.065 0 11 4.935 11 11s-4.935 11-11 11-11-4.935-11-11 4.935-11 11-11m0-2c-7.18 0-13 5.82-13 13s5.82 13 13 13 13-5.82 13-13-5.82-13-13-13zm3.194 18.412a1.01 1.01 0 0 1-.814-.414L37 38.744l-2.38 3.254c-.188.26-.493.414-.814.414a1 1 0 0 1-.595-.195.99.99 0 0 1-.4-.66.99.99 0 0 1 .183-.749l2.45-3.354-3.688-1.076a1.01 1.01 0 0 1 .282-1.978 1.01 1.01 0 0 1 .283.041l3.67 1.07v-4.07A1.01 1.01 0 0 1 37 30.432a1.01 1.01 0 0 1 1.009 1.008v4.07l3.67-1.07c.093-.027.188-.04.283-.04.445 0 .843.3.968.727a1.01 1.01 0 0 1-.686 1.251l-3.688 1.076 2.45 3.354c.16.217.225.482.183.75a1.01 1.01 0 0 1-.4.66 1 1 0 0 1-.597.196z" fill="#e5e5e5"/><path d="M37 37l-3.788 5.217c-.218-.158-.36-.393-.4-.66a.99.99 0 0 1 .183-.749l2.45-3.354-3.688-1.076a1.01 1.01 0 0 1 .282-1.978 1.01 1.01 0 0 1 .283.041l3.67 1.07V31.44a1.01 1.01 0 0 1 1.009-1.008z" fill="#fff"/></svg>