<svg xmlns="http://www.w3.org/2000/svg" width="50" height="41.948"><path d="M37.02 39.308l4.555-3.918c-.305-.384-.815-.662-1.248-.827-.874-.333-1.736-.22-2.537.242-1.05.606-1.496 1.57-1.457 2.77a2.65 2.65 0 0 0 .394 1.33 3.49 3.49 0 0 0 .293.401m1.3.914c.55.192 1.18.165 1.746.066.3-.123 1.03-.446 1.302-.398l.043.007.04.02c.166.08.325.195.4.363.198.397.103.795-.286 1.02l-.13.075c-1.437.83-2.966.715-4.4-.06-.685-.37-1.2-.92-1.596-1.6l-.1-.157c-.923-1.598-.798-3.28.242-4.8.36-.525.83-.93 1.378-1.248l.208-.12c1.354-.78 2.804-.728 4.195-.042.747.37 1.353.92 1.77 1.642l.075.13c.303.525-.1.983-.495 1.296l-1.397 1.2L38.3 40.21zm10.77-7.27h.15c.455 0 .758.306.758.758 0 .627-.6.788-1.12.788-.68 0-1.33.412-1.8.874-.585.577-.84 1.315-.84 2.127v3.67c0 .42-.262.758-.698.758h-.12c-.436 0-.698-.338-.698-.758v-3.88c0-1.5.725-2.705 1.934-3.558a4.16 4.16 0 0 1 2.432-.779zm-18.887 2.604l1.777-1.757c.167-.162.797-.846 1.045-.846h.27l.03.006c.346.072.605.3.605.662v.15c0 .253-.297.548-.46.72l-2.902 2.945 2.358 2.377.646.664c.075.08.186.178.25.288a.62.62 0 0 1 .109.342v.157l-.01.036c-.085.346-.305.625-.688.625h-.12c-.25 0-.534-.284-.706-.446l-1.042-1.025-1.163-1.142v1.825c0 .42-.263.758-.698.758h-.12c-.435 0-.698-.338-.698-.758V30.853c0-.42.263-.757.698-.757h.12c.435 0 .698.336.698.757v4.703zM25.3 34.53c-.23-.107-.657-.143-.904-.152-1.266-.048-2.182.665-2.72 1.782-.186.385-.27.793-.27 1.22 0 1.298.68 2.207 1.84 2.76.423.202.97.24 1.432.24.407 0 .982-.25 1.343-.42l.063-.03h.28l.03.006c.345.072.605.3.605.66v.15c0 .923-1.686 1.134-2.33 1.18-2.27.157-3.968-1.1-4.616-3.255-.113-.376-.163-.75-.163-1.14v-.3c0-1.643.815-2.945 2.225-3.782a4.15 4.15 0 0 1 2.142-.585h.3a3.85 3.85 0 0 1 2.218.685l.055.038.035.057c.072.12.134.257.134.4v.15c0 .387-.3.595-.64.662l-.03.005h-.1c-.227-.001-.74-.236-.943-.33zM11.473 37.4c0 1.152.565 2 1.538 2.595.457.28.96.406 1.494.406 1.138 0 1.98-.577 2.565-1.538.28-.458.405-.96.405-1.494 0-1.07-.516-1.9-1.398-2.482a2.82 2.82 0 0 0-1.603-.488c-1.27 0-2.183.64-2.73 1.78-.186.384-.27.793-.27 1.22zm2.85-4.518h.2c1.756 0 3.1.852 3.937 2.384.338.613.52 1.282.52 1.983v.3c0 1.643-.8 2.952-2.226 3.783-.656.385-1.38.584-2.14.584h-.3c-1.643 0-2.95-.812-3.782-2.226a4.17 4.17 0 0 1-.584-2.141v-.3c0-1.643.815-2.945 2.225-3.783.655-.4 1.38-.584 2.14-.584zM1.55 37.4c0 1.187.575 2.08 1.615 2.648.42.23.877.354 1.357.354 1.165 0 2.03-.55 2.624-1.536.277-.46.406-.96.406-1.496 0-1.03-.487-1.83-1.316-2.428a2.83 2.83 0 0 0-1.685-.543c-1.27 0-2.183.64-2.73 1.78-.186.384-.27.793-.27 1.22zm6.002-3.387v-3.2c0-.42.263-.758.698-.758h.12c.435 0 .697.338.697.758v6.736c0 1.643-.812 2.95-2.226 3.782a4.18 4.18 0 0 1-2.14.584h-.3c-1.643 0-2.948-.812-3.782-2.226a4.17 4.17 0 0 1-.584-2.141v-.3c0-1.643.812-2.95 2.225-3.784a4.17 4.17 0 0 1 2.14-.574h.3c1.112.002 2.055.433 2.85 1.133zm21.3-25.07h4.472v4.57h2.26a9.81 9.81 0 0 0 3.107-.521c.486-.165 1.03-.394 1.5-.682-.63-.824-.953-1.865-1.048-2.9-.13-1.395.153-3.2 1.097-4.303l.47-.544.56.45c1.4 1.133 2.596 2.716 2.805 4.52 1.698-.5 3.692-.38 5.188.483l.614.354-.323.63c-1.266 2.47-3.912 3.236-6.5 3.1-3.87 9.643-12.3 14.208-22.52 14.208-5.28 0-10.124-1.974-12.882-6.658l-.045-.077-.402-.818c-.932-2.062-1.242-4.32-1.032-6.578l.063-.676h3.824V8.93h4.47V4.47h8.943V0h5.366z" fill="#394d54" fill-rule="evenodd"/><path d="M43.33 10.634c.3-2.33-1.444-4.16-2.525-5.03-1.246 1.44-1.44 5.217.515 6.807-1.09.97-3.4 1.848-5.745 1.848H6.917c-.23 2.458.203 4.72 1.188 6.658l.326.596c.206.35.432.688.676 1.014l3.258.08c1.954-.043 3.548-.274 4.755-.692.18-.062.376.033.438.212s-.033.376-.213.438l-.5.157c-.952.27-1.972.454-3.287.536.078.001-.08.012-.082.012l-.146.012-1.648.035a37.08 37.08 0 0 1-1.929-.047l-.018.012c2.388 2.684 6.12 4.293 10.8 4.293 9.905 0 18.306-4.39 22.026-14.248 2.64.27 5.176-.402 6.33-2.655-1.837-1.06-4.2-.723-5.56-.04z" fill="#00aada"/><path d="M43.33 10.634c.3-2.33-1.444-4.16-2.525-5.03-1.246 1.44-1.44 5.217.515 6.807-1.09.97-3.4 1.848-5.745 1.848H8.614c-.117 3.764 1.28 6.62 3.75 8.348 1.954-.043 3.548-.274 4.755-.692.18-.062.376.033.438.212s-.033.376-.213.438l-.5.157c-.952.27-2.06.478-3.375.56l-.032-.03c3.37 1.73 8.258 1.723 13.862-.43 6.283-2.414 12.13-7.013 16.2-12.273-.062.027-.122.056-.18.085z" fill="#24b8eb"/><path d="M6.97 17.245c.178 1.316.563 2.55 1.134 3.672l.326.596c.206.35.432.688.676 1.014l3.26.08c1.953-.043 3.547-.274 4.754-.692.18-.062.376.033.438.212s-.033.376-.213.438l-.5.157c-.952.27-2.054.466-3.37.547l-.17.006-1.642.047a37.95 37.95 0 0 1-1.952-.047c2.388 2.684 6.145 4.3 10.825 4.3 8.48 0 15.856-3.22 20.138-10.33H6.97z" fill="#008bb8"/><path d="M8.872 17.245c.507 2.31 1.725 4.126 3.493 5.362 1.953-.043 3.547-.274 4.754-.692.18-.062.376.033.438.212s-.033.376-.213.438l-.5.157c-.952.27-2.077.466-3.393.547 3.37 1.73 8.244 1.704 13.847-.448 3.4-1.302 6.652-3.24 9.58-5.576z" fill="#039bc6"/><g fill-rule="evenodd"><path d="M14.053 10h.306v3.23h-.306zm-.587 0h.318v3.23h-.318zm-.587 0h.318v3.23h-.318zm-.588 0h.318v3.23h-.318zm-.587 0h.318v3.23h-.318zm-.575 0h.306v3.23h-.306zm-.322-.323h3.875v3.876h-3.875zm7.718-4.147h.306v3.23h-.306zm-.587 0h.318v3.23h-.318zm-.588 0h.318v3.23h-.318zm-.587 0h.318v3.23h-.318zm-.587 0h.318v3.23h-.318zm-.575 0h.306v3.23H15.6zm-.323-.323h3.876V9.1h-3.876z" fill="#00acd3"/><path d="M18.525 10.01h.306v3.23h-.306zm-.587 0h.318v3.23h-.318zm-.588 0h.318v3.23h-.318zm-.587 0h.318v3.23h-.318zm-.587 0h.318v3.23h-.318zm-.575 0h.306v3.23H15.6zm-.323-.323h3.876v3.876h-3.876z" fill="#20c2ef"/><path d="M22.997 10.01h.306v3.23h-.306zm-.588 0h.318v3.23h-.318zm-.587 0h.318v3.23h-.318zm-.587 0h.318v3.23h-.318zm-.587 0h.318v3.23h-.318zm-.575 0h.306v3.23h-.306zm-.323-.323h3.876v3.876H19.75z" fill="#00acd3"/><path d="M22.997 5.54h.306v3.23h-.306zm-.588 0h.318v3.23h-.318zm-.587 0h.318v3.23h-.318zm-.587 0h.318v3.23h-.318zm-.587 0h.318v3.23h-.318zm-.575 0h.306v3.23h-.306zm-.323-.323h3.876V9.1H19.75zM27.468 10h.306v3.23h-.306zm-.587 0h.318v3.23h-.318zm-.587 0h.318v3.23h-.318zm-.587 0h.318v3.23h-.318zm-.588 0h.318v3.23h-.318zm-.575 0h.306v3.23h-.306zm-.323-.323h3.876v3.876H24.22z" fill="#20c2ef"/><path d="M27.468 5.54h.306v3.23h-.306zm-.587 0h.318v3.23h-.318zm-.587 0h.318v3.23h-.318zm-.587 0h.318v3.23h-.318zm-.588 0h.318v3.23h-.318zm-.575 0h.306v3.23h-.306zm-.323-.323h3.876V9.09H24.22z" fill="#00acd3"/><path d="M27.468 1.068h.306v3.23h-.306zm-.587 0h.318v3.23h-.318zm-.587 0h.318v3.23h-.318zm-.587 0h.318v3.23h-.318zm-.588 0h.318v3.23h-.318zm-.575 0h.306v3.23h-.306zM24.22.745h3.876V4.62H24.22z" fill="#20c2ef"/><path d="M31.94 10.01h.306v3.23h-.306zm-.587 0h.318v3.23h-.318zm-.588 0h.318v3.23h-.318zm-.587 0h.318v3.23h-.318zm-.587 0h.318v3.23h-.318zm-.575 0h.306v3.23h-.306zm-.323-.323h3.876v3.876h-3.876z" fill="#00acd3"/><path d="M18.91 19.847a1.07 1.07 0 0 1 1.069 1.069 1.07 1.07 0 0 1-1.069 1.069 1.07 1.07 0 0 1-1.069-1.069 1.07 1.07 0 0 1 1.069-1.069" fill="#d4edf1"/><path d="M18.9 20.15a.75.75 0 0 1 .277.052c-.093.054-.156.155-.156.27 0 .173.14.312.313.312.118 0 .22-.066.274-.163.037.1.058.2.058.294 0 .423-.343.766-.766.766s-.766-.343-.766-.766.343-.766.766-.766M0 17.63h49.736c-1.083-.275-3.426-.646-3.04-2.065-1.97 2.28-6.718 1.6-7.916.475-1.335 1.936-9.104 1.2-9.646-.308-1.673 1.964-6.858 1.964-8.53 0-.542 1.508-8.3 2.244-9.646.308C9.76 17.165 5 17.845 3.04 15.566c.386 1.42-1.958 1.8-3.04 2.065" fill="#394d54"/></g><path d="M21.753 27.55c-2.648-1.256-4.1-2.964-4.9-4.83-.984.28-2.166.46-3.54.537l-1.633.044a38.99 38.99 0 0 1-2.081-.058c2.428 2.427 5.415 4.295 10.946 4.33a28.9 28.9 0 0 0 1.217-.023z" fill="#bfdbe0"/><path d="M17.827 24.443a9.26 9.26 0 0 1-.983-1.721c-.984.28-2.166.46-3.54.538.944.512 2.293.986 4.523 1.183z" fill="#d4edf1"/></svg>