<svg xmlns="http://www.w3.org/2000/svg" width="37.8" height="50"><path d="M0 6.8v36.3c0 3.8 8.4 6.8 18.9 6.8V6.8H0z" fill="#3999c6"/><path d="M18.6 50h.3c10.4 0 18.9-3.1 18.9-6.8V6.8H18.6V50z" fill="#59b4d9"/><path d="M37.8 6.8c0 3.8-8.4 6.8-18.9 6.8S0 10.6 0 6.8C0 3.1 8.5 0 18.9 0s18.9 3.1 18.9 6.8" fill="#fff"/><path d="M33.9 6.4c0 2.5-6.7 4.5-15 4.5s-15-2-15-4.5 6.7-4.5 15-4.5 15 2 15 4.5" fill="#7fba00"/><path d="M30.8 9.2c2-.8 3.1-1.7 3.1-2.8 0-2.5-6.7-4.5-15-4.5s-15 2-15 4.5c0 1 1.2 2 3.1 2.8 2.7-1.1 7-1.8 11.9-1.8 4.8 0 9.1.7 11.9 1.8" fill="#b8d432"/><path d="M13.5 41.8c-1.5 0-2.7-.2-3.5-.5-.9-.3-1.5-.8-1.9-1.4-.4-.7-.6-1.7-.6-3v-2.2c0-1.4-.6-2.2-1.8-2.2v-2.7c1.2 0 1.8-.7 1.8-2.2v-2c0-1.4.2-2.5.6-3.1.4-.7 1-1.1 1.8-1.5.9-.3 2-.5 3.5-.5v2.7c-.7 0-1.1.1-1.5.4-.3.3-.5.8-.5 1.5v1.7c0 1.1-.1 2-.4 2.7s-.8 1.2-1.5 1.5c.7.3 1.2.8 1.5 1.6.3.7.5 1.7.5 2.8v1.5c0 .7.1 1.2.4 1.5s.8.5 1.5.5v2.9zm17-9.3c-1.2 0-1.8.7-1.8 2.2v2c0 1.4-.2 2.5-.6 3.1-.4.7-1 1.1-1.8 1.5-.9.3-2 .5-3.5.5v-2.7c.7 0 1.2-.1 1.5-.4s.5-.8.5-1.5v-1.7c0-1.1.1-2 .4-2.7s.8-1.2 1.5-1.5c-.7-.3-1.2-.9-1.5-1.6s-.5-1.7-.5-2.8v-1.5c0-.7-.1-1.2-.4-1.5s-.8-.5-1.5-.5v-2.7c1.5 0 2.7.2 3.5.5.9.3 1.5.8 1.9 1.4.4.7.6 1.7.6 3v2.2c0 1.4.6 2.2 1.8 2.2v2.5z" fill="#fff"/></svg>