<svg xmlns="http://www.w3.org/2000/svg" width="47" height="38.9"><path d="M0 2.9v33a1 1 0 0 0 1 1h13c3.956 0 5.33 1.057 5.787 1.634.186.236.47.366.77.366h5.885c.3 0 .584-.13.77-.366.455-.577 1.83-1.634 5.786-1.634h13a1 1 0 0 0 1-1v-33a1 1 0 0 0-1-1H1a1 1 0 0 0-1 1z" fill="#0072c6"/><path d="M4 4.9h39v29H4z" fill="#e5e5e5"/><path d="M44.646 4.076C44.448 3.91 39.736 0 32.642 0c-5.685 0-8.224 3.052-9.142 4.582C22.582 3.052 20.043 0 14.358 0 7.264 0 2.552 3.91 2.354 4.076l-.354.3v29.75h43V4.375z" fill="#7a7a7a"/><path d="M14.472 1C7.593 1 3 4.84 3 4.84V32.9s6.172-1.246 11.543-1.246c4.328 0 8.657 2.246 8.657 2.246V5.788S21.357 1 14.472 1zm18.056 0C39.407 1 44 4.84 44 4.84V32.9s-6.172-1.246-11.543-1.246c-4.328 0-8.657 2.246-8.657 2.246V5.788S25.643 1 32.528 1z" fill="#e5e5e5"/><path d="M5 7.127a19.01 19.01 0 0 1 9.358-2.075c3.115.12 5.235 1.15 6.642 2.284V8.68c-1.222-1.208-3.292-2.5-6.642-2.627C10.188 5.893 6.87 7.264 5 8.288zm0 4a19.01 19.01 0 0 1 9.358-2.075c3.115.12 5.235 1.15 6.642 2.284v1.343c-1.222-1.208-3.292-2.5-6.642-2.627-4.17-.16-7.487 1.212-9.358 2.236zm0 4a19.01 19.01 0 0 1 9.358-2.075c3.115.12 5.235 1.15 6.642 2.284v1.343c-1.222-1.208-3.292-2.5-6.642-2.627-4.17-.16-7.487 1.212-9.358 2.236zm0 4a19.01 19.01 0 0 1 9.358-2.075c3.115.12 5.235 1.15 6.642 2.284v1.343c-1.222-1.208-3.292-2.5-6.642-2.627-4.17-.16-7.487 1.212-9.358 2.236zm0 4a19.01 19.01 0 0 1 9.358-2.075c3.115.12 5.235 1.15 6.642 2.284v1.343c-1.222-1.208-3.292-2.5-6.642-2.627-4.17-.16-7.487 1.212-9.358 2.236zm0 4a19.01 19.01 0 0 1 9.358-2.075c3.115.12 5.235 1.15 6.642 2.284v1.343c-1.222-1.208-3.292-2.5-6.642-2.627-4.17-.16-7.487 1.212-9.358 2.236zm37-20a19.01 19.01 0 0 0-9.358-2.075C29.527 5.17 27.407 6.2 26 7.336V8.68c1.222-1.208 3.292-2.5 6.642-2.627 4.17-.16 7.487 1.212 9.358 2.236zm0 4a19.01 19.01 0 0 0-9.358-2.075c-3.115.12-5.235 1.15-6.642 2.284v1.343c1.222-1.208 3.292-2.5 6.642-2.627 4.17-.16 7.487 1.212 9.358 2.236zm0 4a19.01 19.01 0 0 0-9.358-2.075c-3.115.12-5.235 1.15-6.642 2.284v1.343c1.222-1.208 3.292-2.5 6.642-2.627 4.17-.16 7.487 1.212 9.358 2.236zm0 4a19.01 19.01 0 0 0-9.358-2.075c-3.115.12-5.235 1.15-6.642 2.284v1.343c1.222-1.208 3.292-2.5 6.642-2.627 4.17-.16 7.487 1.212 9.358 2.236zM39 21.9c-1.557-.396-4.357-.925-6.358-.848-3.115.12-5.235 1.15-6.642 2.284v1.343c1.222-1.208 3.292-2.5 6.642-2.627 1.808-.066 3.615.146 5.358.63z" opacity=".4" fill="#231f20"/><path d="M12 2.17c-4.082.57-7.02 2.456-8 3.163v26.362c1.65-.292 4.77-.777 8-.962zM33 2h-.358C27.227 2 25.36 5.25 25 5.997v26.35c1.687-.698 4.605-1.7 7.57-1.7l.43.008z" opacity=".2" fill="#fff"/></svg>