<svg xmlns="http://www.w3.org/2000/svg" width="49" height="38.525" fill="#59b4d9"><path d="M38.4 19.525l-13 6a1.91 1.91 0 0 1-1.8 0l-13.1-6v12.4c0 3.7 6.2 6.6 13.9 6.6s13.9-3 13.9-6.6v-12.4zm5 1.6c-.5-2.5-2.1-4.5-4.5-5.5l-11.9-5c-.3-1.5-5.1-1.4-5.1.2 0 1 2 1.5 3.6 1.2l12.7 5.4c1.7.7 2.9 2.2 3.3 4-.5.3-.8.9-.8 1.5v5.3c0 1 .8 1.9 1.9 1.9s1.9-.8 1.9-1.9v-5.3c0-.8-.4-1.5-1.1-1.8z"/><path d="M48.4 10.825L25.3.225a1.91 1.91 0 0 0-1.8 0L.6 10.825a1.05 1.05 0 0 0 0 1.9l23.1 10.6a1.91 1.91 0 0 0 1.8 0l11.2-5.2-10.8-4.8c-.4.1-.9.1-1.4.1-3.1 0-5.5-1.2-5.5-2.6s2.5-2.6 5.5-2.6 5.6.9 5.7 2.2l11.9 5.1 6.3-2.9c.8-.3.8-1.4 0-1.8z"/></svg>