<svg xmlns="http://www.w3.org/2000/svg" width="45.897" height="46.697"><path d="M0 0h11v11H0zm13 0h12v11H13zm14 0h11v11H27zM0 13h11v11H0zm13 0h12v11H13zm14 0h11v11H27zM0 26h11v12H0zm13 0h12v12H13zm14 0h11v12H27z" fill="#0072c6"/><circle cx="32.3" cy="33.1" r="13.5" fill="#59b4d9" stroke="#59b4d9" stroke-width=".194"/><path d="M45.85 32.636l-4.522-4.522a1.58 1.58 0 0 0-2.348 0c-.313.3-.49.733-.49 1.174s.176.864.49 1.174l-1.74-1.74a1.66 1.66 0 1 0-2.348 2.348l5.99 5.996a1.66 1.66 0 1 1-2.348 2.348l-2.522-2.522a1.66 1.66 0 1 0-2.348 2.348l2.7 2.7a1.66 1.66 0 1 0-2.348 2.348l1.917 1.91c6.125-1.568 10.28-7.255 9.914-13.567zm-22.154 3.897a2 2 0 0 0 0-2.957L21.52 31.4a2 2 0 0 0 2.957 0c.6-.62.782-1.55.435-2.348l2.957 2.957a2 2 0 0 0 2.957 0c.397-.4.62-.922.62-1.478s-.223-1.09-.62-1.48l-2.61-2.783a2 2 0 0 1 0-2.957c.4-.397.922-.62 1.48-.62s1.09.223 1.48.62l1.39 1.39a2.09 2.09 0 0 0 2.957-2.957l-1.993-2.193a12.89 12.89 0 0 0-11.076 4.053A13.6 13.6 0 0 0 18.8 34.671l1.85 1.95a2.18 2.18 0 0 0 3.044-.087z" fill="#b8d432"/></svg>