<svg xmlns="http://www.w3.org/2000/svg" width="49.9" height="50"><path d="M3.067 13h22.667v4H3.067zm5 10h25.667v4H8.067zm-5 10h22.667v4H3.067z" fill="#0072c6"/><g fill="#b8d432"><circle cx="3.9" cy="35" r="3.9"/><circle transform="matrix(.707094 -.707119 .707119 .707094 -9.535165 7.22206)" cx="4" cy="15" r="3.9"/></g><circle transform="matrix(.707094 -.707119 .707119 .707094 -15.141828 13.686711)" cx="9" cy="25" r="3.9" fill="#59b4d9"/><path d="M23.9 20V10l8 5zm0 20V30l8 5zm8-10V20l8 5zm17.2 8.6h-4.8c-.5 0-.8.3-.8.8v4H6.9V50h42.2c.5 0 .8-.3.8-.8v-9.8c0-.5-.3-.8-.8-.8zM49.18 0H6.9v6.7h36.38v4.2c0 .5.3.8 1 .8h4.8c.5 0 .8-.3.8-.8V.9c.1-.6-.2-.9-.7-.9z" fill="#0072c6"/></svg>