<svg xmlns="http://www.w3.org/2000/svg" width="50" height="50"><path fill="#0072c6" d="M39 22v-2H24.004l-.008-.004L16.99 27h-5.17l12-12H32v-2h-9v.005L22.992 13l-14 14H7v2h6l7 7h17v-2H20.828l-5-5H28v-2h-8.18l5-5z"/><g fill="#59b4d9"><circle cx="30" cy="28" r="2.9"/><circle transform="matrix(.7071 -.7071 .7071 .7071 -.2338 27.4349)" cx="33" cy="14" r="2.9"/></g><g fill="#b8d432"><circle transform="matrix(.7071 -.7071 .7071 .7071 -3.1333 34.4349)" cx="40" cy="21" r="2.9"/><circle transform="matrix(.7071 -.7071 .7071 .7071 -13.9114 36.4141)" cx="37" cy="35" r="2.9"/></g><path d="M.8 0C.3 0 0 .3 0 .8v10c0 .5.3.8.8.8h5c.5 0 .8-.3.8-.8V6.7h36.76v4.2c0 .5.3.8 1.002.8h4.808c.5 0 .8-.3.8-.8V.9c.1-.6-.2-.9-.7-.9H.8zm48.4 50c.5 0 .8-.3.8-.8v-9.8c0-.5-.3-.8-.8-.8h-4.8c-.5 0-.8.3-.8.8v4H6.7v-4.2c0-.5-.3-.8-1-.8H.8c-.5 0-.8.3-.8 1v9.8c0 .5.3.8.8.8h48.4z" fill="#0072c6"/></svg>