<svg xmlns="http://www.w3.org/2000/svg" xmlns:xlink="http://www.w3.org/1999/xlink" viewBox="-163 237 29 30" width="29" height="30"><g fill="#b8d432"><use xlink:href="#B"/><use xlink:href="#B" x="7" y="3"/><use xlink:href="#B" y="6"/><use xlink:href="#C"/></g><path d="M-134.5 237h-28a.47.47 0 0 0-.5.5v6a.47.47 0 0 0 .5.5h3a.47.47 0 0 0 .5-.5V241h21v2.5c0 .3.2.5.6.5h2.9a.47.47 0 0 0 .5-.5v-6a.47.47 0 0 0-.5-.5zm0 23.1h-2.9a.47.47 0 0 0-.5.5v2.4H-159v-2.5c0-.3-.2-.5-.6-.5h-2.9c-.3 0-.5.2-.5.6v5.9a.47.47 0 0 0 .5.5h28a.47.47 0 0 0 .5-.5v-5.9a.47.47 0 0 0-.5-.5z" fill="#0072c6"/><g fill="#b8d432"><use xlink:href="#C" y="6"/><use xlink:href="#C" y="12"/></g><defs ><path id="B" d="M-145 250.5a.47.47 0 0 1-.5.5h-3.9a.47.47 0 0 1-.5-.5v-2.9a.47.47 0 0 1 .5-.5h3.9a.47.47 0 0 1 .5.5v2.9z"/><path id="C" d="M-152 247.5a.47.47 0 0 1-.5.5h-4a.47.47 0 0 1-.5-.5v-3a.47.47 0 0 1 .5-.5h3.9c.4 0 .6.2.6.5v3z"/></defs></svg>