<svg xmlns="http://www.w3.org/2000/svg" width="45" height="50.1"><path d="M43 45.4h2V0H4C2.7.2 0 3.3 0 3.8l.1 43.9c0 1.3 1.1 2.4 2.4 2.4h37.6v-.7z" fill="#0072c6"/><path d="M5.8 2c-1.1 0-1.6.2-2.5 1C1 5 3.7 5 4.8 5H40v44.3l3-3.9V2z" fill="#e5e5e5"/><path d="M43 2l-3 3v44.3l3-3.9z" opacity=".5" fill="#a0a1a2"/><path d="M28.3 25.9H11.5c-1.3 0-2-1.4-1.4-2.5l4.2-7.4 4.2-7c.7-1.1 2-1.1 2.7 0l4.2 7.3 4.2 7.2c.7 1.1.1 2.4-1.3 2.4z" fill="#ff8c00"/><g fill="#fff"><circle cx="19.9" cy="21.9" r="1.4"/><path d="M18.8 13.6l.3 6.3h1.8l.3-6.3h-1.4z"/></g><circle cx="20" cy="37.7" r="9" fill="#ba141a"/><path d="M20 36.1l-3.4-3.4-1.6 1.6 3.4 3.4-3.4 3.4 1.6 1.6 3.4-3.4 3.4 3.4 1.6-1.6-3.4-3.4 3.4-3.4-1.6-1.6z" fill="#fff"/></svg>