<svg xmlns="http://www.w3.org/2000/svg" width="28" height="48.05"><path d="M27.96.702c-.002-.01-.001-.02-.004-.03-.012-.043-.034-.074-.05-.112-.24-.548-.9-.56-.9-.56h-26S.343.012.098.552C.08.592.056.626.043.672L.04.702C.013.8 0 .9 0 1v46c0 .957 1 1 1 1h26s1-.043 1-1V1c0-.113-.016-.21-.04-.298z" fill="#0072c6"/><g fill="#fff"><path d="M4 4h4v7H4zm8 0h4v7h-4zm8 0h4v7h-4zM4 15h4v7H4zm8 0h4v7h-4zm8 0h4v7h-4zM4 26h4v7H4zm8 0h4v7h-4zm-1 13h6v9.05h-6zm9-13h4v7h-4z" opacity=".85"/><path d="M25 0H.993C.983 0 .34.016.097.55.08.59.055.625.042.67L.038.7C.016.79 0 .887 0 1v34.295z" opacity=".2"/></g></svg>