<svg xmlns="http://www.w3.org/2000/svg" xmlns:xlink="http://www.w3.org/1999/xlink" width="50" height="30.6"><g fill="#68217a"><path d="M9.8 23.1h31v3.8h-31z"/><path d="M6.12 21.752l14.98-15 2.687 2.687-15 15zM28.98 6.786l15 15-2.687 2.687-15-15z"/></g><g fill="#7fba00"><path d="M25 0a5.59 5.59 0 0 0-5.6 5.6 5.59 5.59 0 1 0 11.2 0A5.59 5.59 0 0 0 25 0zm0 7.4a1.79 1.79 0 0 1-1.8-1.8 1.79 1.79 0 1 1 3.6 0A1.79 1.79 0 0 1 25 7.4z"/><use xlink:href="#B"/><use xlink:href="#B" x="38.8"/></g><defs ><path id="B" d="M5.6 19.4a5.59 5.59 0 1 0 0 11.2 5.59 5.59 0 1 0 0-11.2zm0 7.4a1.79 1.79 0 1 1 0-3.6 1.79 1.79 0 1 1 0 3.6z"/></defs></svg>