<svg xmlns="http://www.w3.org/2000/svg" height="50" width="48"><path d="M40.8 12H12v38h36V19.2l-1.6-1.7-3.9-3.9z" fill="#59b4d9"/><path d="M14 48h32V20h-6v-6H14z" opacity=".8" fill="#fff"/><g fill="#59b4d9"><path d="M19 39.1c0-.5.4-.9.9-.9h12.4c.5 0 .9.4.9.9s-.4.9-.9.9H19.9c-.5 0-.9-.4-.9-.9m0-6.2c0-.5.4-.9.9-.9h20.5c.5 0 .9.4.9.9s-.4.9-.9.9H19.9c-.5 0-.9-.4-.9-.9m0-5.8c0-.5.4-.9.9-.9h20.5c.5 0 .9.4.9.9s-.4.9-.9.9H19.9c-.5 0-.9-.4-.9-.9M2 0h29v6H2z"/><path d="M0 0h6v40H0z"/></g><path d="M2 38h4V6h23V2H2z" opacity=".8" fill="#fff"/><g fill="#59b4d9"><path d="M8 6h29v6H8z"/><path d="M6 6h6v38H6z"/></g><path d="M8 42h4V12h23V8H8z" opacity=".8" fill="#fff"/></svg>