<svg xmlns="http://www.w3.org/2000/svg" width="50" height="46.08"><path d="M47.064 9.912V5.934H21.897L15.963 0H0v43.708a2.37 2.37 0 0 0 2.371 2.372H47.63c1.31 0 2.37-1.063 2.37-2.37V9.912z" fill="#fee087"/><path d="M32.6 36.052c-1.656 1.267-3.607 1.883-5.544 1.883-2.75 0-5.467-1.234-7.263-3.584a9.13 9.13 0 0 1 1.703-12.807 9.05 9.05 0 0 1 5.543-1.882c2.75 0 5.467 1.234 7.263 3.585 3.07 4.006 2.304 9.74-1.702 12.805" fill="#59b4d9"/><g fill="#fff"><path d="M30.91 30.4a1.97 1.97 0 0 0 2.757.367c.045-.034.08-.075.12-.112l1.91 1.314c.104-.265.17-.515.244-.78l-1.64-1.28c.233-.613.158-1.33-.267-1.9-.61-.787-1.688-.988-2.532-.505l-3.034-2.86c3.35-1.802 5.73-1.537 5.73-1.537-.398-.508-.843-.952-1.318-1.352-1.414-.22-3.607-.194-6.115 1.14V22.9l-.367.2.366-.21-2.552-2.82a8.65 8.65 0 0 0-1.211.492c.64 1.046 1.498 2.1 2.47 3.13l.1.102-.1-.1c-.828.57-1.673 1.296-2.53 2.203l-.308.354c-.492-.1-1.01-.074-1.493.1-.83-1.79-.773-3.23-.642-3.968-.36.376-.695.77-.984 1.193-.217.885-.276 2.162.365 3.7-.735.965-.776 2.328-.006 3.336.067.087.146.158.22.235-.336 1.146-.504 2.255-.55 3.204.086.118.086.212.173.327.438.562.992 1.094 1.524 1.523-.065-1.007.007-2.55.63-4.22a2.74 2.74 0 0 0 1.262-.205l.744.63a15.24 15.24 0 0 0 2.663 1.698 1.82 1.82 0 0 0 .354 1.286c.616.795 1.757.944 2.552.336.166-.127.297-.28.405-.445 1.422.317 2.664.372 3.585.372.14 0 .795-.89 1.17-1.44-.56.117-2.226.34-4.497-.313-.055-.253-.16-.5-.328-.72-.577-.756-1.63-.92-2.417-.415-.79-.43-1.618-.963-2.472-1.64l-.495-.422a2.77 2.77 0 0 0 .12-2.735l.314-.325c.807-.753 1.663-1.424 2.387-1.926l3.492 2.944c-.306.643-.258 1.426.202 2.027z"/><path d="M27.31 25.36l.18-.118-.18.118z"/></g><path d="M4.742 9.912v33.796c0 1.31-1.062 2.372-2.37 2.372A2.37 2.37 0 0 1 0 43.708V0h15.963l5.934 5.934h25.167v3.978z" opacity=".2" fill="#1e1e1e"/></svg>