<svg xmlns="http://www.w3.org/2000/svg" width="49.999" height="46.08"><path d="M48.065 9.912V5.935H21.897L15.963 0H0v43.708a2.37 2.37 0 0 0 2.37 2.372h45.258c1.31 0 2.37-1.062 2.37-2.372V9.912z" fill="#fee087"/><path d="M26.176 25.945a.32.32 0 0 1-.155-.044l-10.175-5.873c-.093-.055-.152-.158-.152-.267a.31.31 0 0 1 .152-.266l10.112-5.835c.097-.053.213-.053.306 0l10.178 5.876c.094.054.152.155.152.265s-.058.212-.152.267L26.33 25.9c-.048.028-.1.044-.155.044" fill="#dd5900"/><g fill="#ff8c00"><path d="M24.714 40.22c-.056 0-.1-.013-.155-.04l-10.144-5.855a.3.3 0 0 1-.156-.267V22.31a.31.31 0 0 1 .156-.269c.093-.053.208-.053.3 0l10.143 5.855a.32.32 0 0 1 .15.268v11.75c0 .113-.06.21-.15.267-.05.028-.103.04-.154.04"/><path d="M27.585 40.22c-.055 0-.107-.013-.157-.04a.31.31 0 0 1-.152-.267V28.24c0-.1.06-.21.152-.268l10.14-5.853a.31.31 0 0 1 .306 0c.097.055.156.157.156.266v11.674c0 .112-.06.21-.156.267l-10.14 5.855c-.042.028-.097.04-.15.04" opacity=".5"/></g><path d="M4.742 9.912v33.796c0 1.3-1.062 2.372-2.37 2.372A2.37 2.37 0 0 1 0 43.708V0h15.963l5.934 5.935h26.168v3.977z" opacity=".2" fill="#1e1e1e"/></svg>