<svg xmlns="http://www.w3.org/2000/svg" width="50" height="50"><circle fill="#ec008c" cx="25" cy="25" r="25"/><path d="M10.055 19.625v4.507h5.294v2.18h-5.294v6.38h-2.53V17.446h8.25v2.18h-5.72zm18.615 2.552a5.02 5.02 0 0 1-.383 1.95c-.255.612-.63 1.146-1.127 1.6s-1.105.813-1.828 1.08-1.55.398-2.477.398h-1.807V32.7h-2.53V17.446h4.7c.914 0 1.7.1 2.392.33s1.247.535 1.7.946.792.9 1.016 1.493.335 1.24.335 1.962zm-2.658.085c0-.4-.065-.78-.196-1.1a2.16 2.16 0 0 0-.6-.845 2.77 2.77 0 0 0-1.004-.537c-.4-.124-.874-.186-1.42-.186H21.05v5.485h1.626c1.05 0 1.867-.237 2.456-.712s.88-1.173.88-2.094zm18.784 2.658c0 1.226-.176 2.333-.526 3.322s-.85 1.832-1.5 2.53a6.63 6.63 0 0 1-2.333 1.616c-.907.38-1.92.568-3.04.568-1.085 0-2.07-.188-2.96-.563s-1.65-.9-2.28-1.573-1.12-1.482-1.467-2.43-.52-1.986-.52-3.12c0-1.17.165-2.247.495-3.232s.813-1.837 1.45-2.557a6.61 6.61 0 0 1 2.35-1.685c.93-.405 2-.605 3.2-.605 1.056 0 2.023.184 2.902.553a6.45 6.45 0 0 1 2.259 1.563c.627.674 1.114 1.487 1.462 2.44s.52 2 .52 3.173zm-2.68.234c0-.942-.108-1.77-.324-2.482s-.524-1.308-.925-1.786-.88-.84-1.44-1.084-1.188-.367-1.882-.367c-.723 0-1.375.138-1.956.415s-1.073.665-1.478 1.164-.716 1.093-.936 1.78-.33 1.446-.33 2.275c0 .886.116 1.678.35 2.376s.556 1.3.967 1.775.896.855 1.457 1.1 1.165.383 1.817.383c.694 0 1.327-.118 1.897-.355s1.063-.6 1.478-1.053.735-1.044.962-1.738.34-1.5.34-2.414z" fill="#fff"/></svg>