<svg xmlns="http://www.w3.org/2000/svg" width="106.702" height="98.5"><path d="M69.3 78H38.1c3.5 12.3 1 14.1-19.5 14.1v6.4h69.8v-6.4c-20.6 0-22.6-1.8-19.1-14.1" fill="#7a7a7a"/><path d="M100.3 0H5.8C2.6 0 0 2.9 0 6.1V72c0 3.2 2.6 6 5.8 6h94.5c3.2 0 6.4-2.8 6.4-6V6.1c.1-3.2-3.2-6.1-6.4-6.1" fill="#a0a1a2"/><path d="M100.4 0H5.8C2.6 0 0 2.9 0 6.1V72c0 3.2 2.6 6 5.8 6H8z" opacity=".2" fill="#fff"/><g fill="#59b4d9"><path d="M98.5 8.2v61.6H8.1V8.2z"/><path d="M8.1 69.8h.2V8.2l82.5-.1-82.7.1z"/></g><path d="M18.5 92.1h69.8v6.4H18.5z" fill="#a0a1a2"/><path d="M54.5 4.5A1.54 1.54 0 0 1 53 6a1.54 1.54 0 0 1-1.5-1.5A1.54 1.54 0 0 1 53 3a1.54 1.54 0 0 1 1.5 1.5" fill="#b8d432"/><g fill="#fff"><path d="M53.5 48.8c-.1 0-.1 0-.2-.1L39.9 41c-.1-.1-.2-.2-.2-.4 0-.1.1-.3.2-.3l13.3-7.7c.1-.1.3-.1.4 0L67 40.3c.1.1.2.2.2.3s-.1.3-.2.3l-13.3 7.7-.2.2"/><path d="M51.5 67.5c-.1 0-.1 0-.2-.1L38 59.7c-.1-.1-.2-.2-.2-.4V44a.76.76 0 0 1 .2-.4c.1-.1.3-.1.4 0l13.3 7.7c.1.1.2.2.2.4v15.4a.76.76 0 0 1-.2.4h-.2" opacity=".7"/><path d="M55.3 67.5c-.1 0-.1 0-.2-.1s-.2-.2-.2-.4V51.8a.76.76 0 0 1 .2-.4l13.3-7.7c.1-.1.3-.1.4 0s.2.2.2.3v15.3a.76.76 0 0 1-.2.4l-13.3 7.7c0 .1-.1.1-.2.1" opacity=".4"/></g><path d="M35.9 9c18.2 12.8 17.7 29.6 17.7 29.6s-5-16-26.3-22.6l11.4.3zm31.9 8.1C53.4 25.6 52.5 39 52.5 39s4.9-12.5 21.3-16.1l-8.6-.4zM53.5 36.9c-.2-.3-4.3-6.5-11.4-9.4-4.6-1.8-8.1-2.4-10.5-1.5-1.3.5-2.2 1.3-2.7 2.5-.8 2-.7 5.9 8.8 9.7 7.1 2.9 14.4 1.2 14.7 1.1l2.1-.8zm-12.6-6.4c3.8 1.5 6.7 4.2 8.3 6.1-2.5.2-6.4.2-10.2-1.4-5.5-2.2-7.5-4.5-7.1-5.6.1-.2.2-.5.8-.6.7-.3 3-.6 8.2 1.5zM54.3 39c.3.1 7.4 2.3 14.8.1 4.7-1.5 7.8-3.3 9.1-5.4.7-1.2.9-2.4.5-3.6-.6-2.1-3.2-5-13-2-7.3 2.3-12 8.2-12.2 8.4l-1.3 1.7zm13.9-3c-3.9 1.2-7.8.9-10.3.5 1.8-1.7 4.9-4.2 8.8-5.4 5.7-1.8 8.6-1.3 9-.1.1.2.1.5-.2 1-.4.6-1.9 2.3-7.3 4z" fill="#ba141a"/></svg>