<svg xmlns="http://www.w3.org/2000/svg" width="49.8" height="43.899"><path d="M45.04 19a10.94 10.94 0 0 0 .777-4.041c0-6.058-4.905-10.97-10.956-10.97-1.682 0-3.27.39-4.694 1.07C27.798 1.987 24.095 0 19.92 0A12.96 12.96 0 0 0 6.972 12.964c0 .58.052 1.15.125 1.7C2.953 16.24 0 20.234 0 24.93 0 30.99 4.905 35.9 10.956 35.9h29.88a8.97 8.97 0 0 0 8.964-8.975c.001-3.32-1.83-6.368-4.76-7.926z" fill="#59b4d9"/><g fill="#fff"><path d="M17.9 15.9h14v20.05h-14z"/><path d="M34.838 14.747l-9.678-5.69s-.412-.2-.596-.2c-.917-.001-1.664.052-1.664 1.8V15.9h10v20h3V16.322c0-.7-.424-1.324-1.062-1.575z" opacity=".4"/></g><path d="M34.444 14.667l-9.667-5.684c-.43-.15-.877.184-.877.655v33.57c0 .47.446.804.877.655l9.667-5.684c.276-.098.46-.36.456-.654V15.322a.69.69 0 0 0-.456-.655z" fill="#0072c6"/></svg>