<svg xmlns="http://www.w3.org/2000/svg" width="50" height="42.634"><path d="M0 40.627c0 1.108.898 2.007 2.007 2.007h45.986c1.11 0 2.007-.9 2.007-2.007V9.298H0z" fill="#59b4d9"/><path d="M47.993 0H2.007C.898 0 0 .898 0 2.007v10.627h50V2.007C50 .898 49.1 0 47.993 0" fill="#a0a1a2"/><g fill="#fff"><path d="M14.424 35.232l7.424-17.835h4.708L19.1 35.232zm9.566 0l7.424-17.835h4.708l-7.456 17.835z"/><path d="M2.014 0C.906 0 .007.898.007 2.007v38.62a2.01 2.01 0 0 0 2.007 2.007h2.188L43.62 0z" opacity=".2"/><path d="M12.857 4.78h33.67V8.72h-33.67z"/></g><path d="M11.3 6.683a4.88 4.88 0 0 1-4.878 4.878 4.88 4.88 0 0 1-4.878-4.878 4.88 4.88 0 0 1 4.878-4.879 4.88 4.88 0 0 1 4.878 4.879" fill="#59b4d9"/><path d="M6.928 9.568L3.97 6.75l2.948-2.818h1.198l-2.2 2.322h5.393v.978H5.916L8.13 9.568z" fill="#fff"/></svg>