<svg xmlns="http://www.w3.org/2000/svg" width="64.027" height="59"><path d="M63.613 29.9c.6-.6.5-1.7 0-2.3l-3.1-3.1-13.8-13.4c-.6-.6-1.5-.6-2.2 0-.6.6-.8 1.7 0 2.3l14.5 14.2c.6.6.6 1.7 0 2.3l-14.8 14.7c-.6.6-.6 1.7 0 2.3s1.7.5 2.2 0l13.8-13.7 3.4-3.3zm-63.2 0c-.6-.6-.5-1.7 0-2.3l3.1-3.1 13.8-13.4c.6-.6 1.5-.6 2.2 0 .6.6.8 1.7 0 2.3l-14.2 14.2c-.6.6-.6 1.7 0 2.3l14.5 14.7c.6.6.6 1.7 0 2.3s-1.7.5-2.2 0l-14.1-13.5-3.1-3.5z" fill="#3999c6"/><path d="M30.413 29.7l-10 29.3 27.6-39.1h-13.4l13-19.9h-19.5l-10.5 29.6z" fill="#fcd116"/><path d="M26.613 24.6l12.8.1-19 34.3 27.6-39.1h-13.4l13-19.9h-10.2z" opacity=".3" fill="#ff8c00"/></svg>