<svg xmlns="http://www.w3.org/2000/svg" viewBox="0 0 50 50"><path d="M0 0h11.7v11.5H0zm16.1 0h11.7v11.5H16.1zm16.2 0H44v11.5H32.3zM0 16.1h27.9v11.5H0zm32.3 0H44v11.5H32.3zM0 32.3h44V44H0z" fill="#a0a1a2"/><path d="M45.8 16.5c0 4.7-3.8 8.6-8.6 8.6s-8.6-3.8-8.6-8.6c0-4.7 3.8-8.6 8.6-8.6s8.6 3.9 8.6 8.6m-2.3 11.8l-6.3 8.8-6.3-8.8h-6.5V50H50V28.3z" fill="#0072c6"/><path opacity=".2" d="M28.6 16.5c0 4.7 3.8 8.6 8.6 8.6.3 0 .6-.1.9-.1l2.1-16.5c-.9-.3-1.9-.6-3-.6-4.8 0-8.6 3.9-8.6 8.6m2.3 11.8h-6.5V50H35l1.7-13.6z" fill="#fff"/></svg>