<svg xmlns="http://www.w3.org/2000/svg" width="50" height="50"><path fill="#7a7a7a" d="M50 27.726v-5.7l-.803-.26-6.09-1.99-1.625-3.925 3.124-6.61L40.58 5.23l-.755.38-5.71 2.903L30.2 6.885 27.724 0h-5.688l-2.252 6.9-3.922 1.623L9.25 5.4 5.227 9.422l.383.753 2.9 5.714-1.623 3.92L0 22.276v5.69l.804.264 6.092 1.987L8.52 34.14l-3.123 6.61 4.02 4.025.755-.384 5.712-2.9 3.924 1.625L22.275 50h5.69l2.25-6.892 3.923-1.626 6.6 3.126 4.025-4.026-3.285-6.465 1.627-3.924z"/><g fill="#fff"><path opacity=".2" d="M39.75 5.648l-5.634 2.865L30.2 6.886 27.725 0h-5.69l-.262.807-1.99 6.09-3.922 1.624L9.25 5.398 5.227 9.422l.383.753L8.5 15.9 6.887 19.8 0 22.277v5.7l6.896 2.25L8.52 34.14l-3.123 6.61 4.02 4.025.755-.384 2.433-1.236 3.452-4.77.018.012 19.047-26.32-.018-.014 4.643-6.417z"/><path d="M32.527 16.257l-2.37 2.39c2.137 1.43 3.554 3.88 3.554 6.632 0 4.33-3.472 7.77-7.78 7.7-4.285-.07-7.792-3.635-7.792-7.978 0-2.433 1.245-4.587 2.99-5.994L23 20.747V15h-5.81l1.42 1.522a11.05 11.05 0 0 0-3.817 8.371c0 6.2 5.016 11.312 11.148 11.417 6.155.104 10.916-4.725 10.916-10.915 0-3.693-1.59-7.048-4.332-9.138z"/></g></svg>