<svg xmlns="http://www.w3.org/2000/svg" height="50" width="50"><path fill="#7a7a7a" d="M50 27.7V22l-.8-.3-6.1-2-1.6-3.9 3.1-6.6-4-4-.8.4-5.7 2.9-3.9-1.6L27.7 0H22l-.3.8-2 6.1-3.9 1.6-6.5-3.1-4 4 .4.8 2.9 5.7L7 19.8l-7 2.5V28l.8.3 6.1 2 1.6 3.9-3.1 6.6 4 4 .8-.4 5.7-2.9 3.9 1.6 2.5 6.9H28l.3-.8 2-6.1 3.9-1.6 6.6 3.1 4-4-.4-.8-2.9-5.7 1.6-3.9 6.9-2.5zm-25 3.8a6.49 6.49 0 0 1-6.5-6.5 6.49 6.49 0 0 1 6.5-6.5 6.49 6.49 0 0 1 6.5 6.5 6.49 6.49 0 0 1-6.5 6.5z"/><path opacity=".2" fill="#f1f1f1" d="M39.7 5.6l-5.6 2.9-3.9-1.6L27.7 0H22l-.3.8-2 6.1-3.9 1.6-6.6-3.1-4 4 .4.8 2.9 5.7-1.6 3.9L0 22.3V28l.8.3 6.1 2 1.6 3.9-3.1 6.6 4 4 3.2-1.6 3.5-4.8 5.6-7.8c-1.9-1.1-3.2-3.2-3.2-5.6a6.49 6.49 0 0 1 6.5-6.5c1.7 0 3.2.6 4.3 1.6l5.8-8 4.6-6.5z"/></svg>