<svg xmlns="http://www.w3.org/2000/svg" width="50" height="50"><path d="M44 0H6a6 6 0 0 0-6 6v38a6 6 0 0 0 6 6h38a6 6 0 0 0 6-6V6a6 6 0 0 0-6-6z" fill="#3e3e3e"/><path d="M4 20h42v11H4z" fill="#b8d432"/><path d="M4 35h42v11H4z" fill="#804998"/><path d="M4 5h42v11H4z" fill="#59b4d9"/><g fill="#fff"><path d="M4 20h42v2H4z" opacity=".25"/><path d="M4 5h42v2H4z" opacity=".2"/><path d="M4 35h42v2H4z" opacity=".4"/><path d="M6 50h2.88L42.994 0H6a6 6 0 0 0-6 6v38a6 6 0 0 0 6 6z" opacity=".15"/></g></svg>