<svg xmlns="http://www.w3.org/2000/svg" width="30.981" height="60.021"><path d="M11.995 38.65l-.62-.4L7.1 34.822a6.98 6.98 0 0 1-1.249-7.88c.866-1.406 1.995-2.63 3.327-3.608a52.38 52.38 0 0 1 9.386-5.683 31.35 31.35 0 0 0 6.3-3.793 16.8 16.8 0 0 0 5.919-9.729 12.21 12.21 0 0 0 .165-1.238c.128-.906-.242-1.8-.967-2.367s-1.695-.68-2.537-.323-1.426 1.14-1.53 2.05c-.7 4.342-3.31 7.315-6.962 9.47-1.737 1.025-3.585 1.86-5.365 2.812a40.76 40.76 0 0 0-9 6.147c-1.716 1.627-3.334 3.34-4 5.706a11.7 11.7 0 0 0 3.041 12.129c.916.934 1.943 1.76 2.942 2.61a.75.75 0 0 0 .643.156c1.58-.836 3.137-1.716 4.782-2.63zm6.886 9.13l1.56.984c2.85 1.635 4.78 4.5 5.225 7.758.062.432.1.87.157 1.3.173 1.348 1.386 2.315 2.74 2.183 1.315-.103 2.316-1.223 2.27-2.542-.018-3.4-1.24-6.704-3.45-9.3-.927-.984-1.9-1.913-2.946-2.78-.18-.147-.417-.2-.642-.145L18.88 47.78z" fill="#ff8c00"/><path d="M5.755 5.377a10.03 10.03 0 0 0 1.738 3.231H18.43c-.586.442-1.196.85-1.83 1.222l-1.067.6h-6.2a13.56 13.56 0 0 0 1.191.839l1.56.983-4.912 2.537c-.225.055-.463.002-.642-.145a34.38 34.38 0 0 1-2.946-2.781c-2.2-2.596-3.433-5.9-3.45-9.3-.045-1.317.955-2.436 2.27-2.54 1.353-.132 2.565.834 2.74 2.182l.157 1.3c0 .018.008.033.01.05h17.255v.057a11.97 11.97 0 0 1-1 1.763zm-5.56 50.52a16.8 16.8 0 0 1 5.919-9.729 31.34 31.34 0 0 1 6.3-3.793 52.41 52.41 0 0 0 9.386-5.683l.96-.815H11.93l-1.12-.975a5.4 5.4 0 0 1-.724-.843h14.4a7.7 7.7 0 0 0 .637-.975 6.02 6.02 0 0 0 .655-2.307H8.904c-.066-.605-.055-1.216.032-1.818h16.8a6.8 6.8 0 0 0-1.36-3.181H10.4c.554-.66 1.166-1.267 1.828-1.818h10.15l-2.8-2.183c-.175-.138-.376-.243-.62-.4l4.782-2.633a.75.75 0 0 1 .643.155l2.942 2.608a11.7 11.7 0 0 1 3.05 12.129c-.67 2.367-2.288 4.08-4 5.707-2.71 2.443-5.738 4.5-9 6.147-1.78.954-3.628 1.788-5.365 2.812-.767.454-1.5.962-2.194 1.52h7.31l.117.073a12.66 12.66 0 0 1 2.216 1.745H7.938c-.855.974-1.55 2.08-2.054 3.274h15.83c.25.587.446 1.195.586 1.817h-17c-.085.344-.176.682-.235 1.044-.105.907-.69 1.688-1.53 2.045s-1.81.233-2.534-.323-1.095-1.458-.97-2.363c.034-.415.088-.828.164-1.238z" fill="#59b4d9"/></svg>