<svg xmlns="http://www.w3.org/2000/svg" viewBox="0 0 50 50"><path fill="#ff8c00" d="M25,47.5C12.6,47.5,2.5,37.4,2.5,25S12.6,2.5,25,2.5S47.5,12.6,47.5,25S37.4,47.5,25,47.5z M25,3.5 C13.1,3.5,3.5,13.1,3.5,25S13.1,46.5,25,46.5S46.5,36.9,46.5,25S36.9,3.5,25,3.5z"/><path fill="#59b4d9" stroke="#59b4d9" stroke-width=".194" stroke-miterlimit="10" d="M26.9 35.2c.8-.8 2-.8 2.7 0l-3.1-3.1c-.8-.8-.8-2 0-2.7.8-.8 2-.8 2.7 0l2.9 2.9c.8.8 2 .8 2.7 0 .8-.8.8-2 0-2.7l-2.4-2.4-4.4-4.6c-.8-.8-.8-2 0-2.7.8-.8 2-.8 2.7 0l2 2c-.8-.8-.8-2 0-2.7.8-.8 2-.8 2.7 0l5.2 5.2A15.5 15.5 0 0 0 36 14.1c-2.6-2.6-6-4.1-9.5-4.5l2.3 2.3c1 1 1 2.5 0 3.4s-2.5 1-3.4 0l-1.6-1.6c-1-1-2.5-1-3.4 0-1 1-1 2.5 0 3.4l3.1 3.1c1 1 1 2.5 0 3.4s-2.5 1-3.4 0l-3.4-3.4a2.46 2.46 0 0 1-.5 2.7c-1 1-2.5 1-3.4 0l2.5 2.5c1 1 1 2.5 0 3.4-1 1-2.5 1-3.4 0l-2.3-2.3c.4 3.5 1.8 6.8 4.5 9.5 4.1 4.1 9.9 5.4 15.1 4L27 37.8c-.9-.6-.9-1.8-.1-2.6z"/><path d="M40.7 24.4l-5.2-5.2c-.8-.8-2-.8-2.7 0s-.8 2 0 2.7l-2-2c-.8-.8-2-.8-2.7 0-.8.8-.8 2 0 2.7l6.9 6.9c.8.8.8 2 0 2.7-.8.8-2 .8-2.7 0l-2.9-2.9c-.8-.8-2-.8-2.7 0-.8.8-.8 2 0 2.7l3.1 3.1c-.8-.8-2-.8-2.7 0-.8.8-.8 2 0 2.7l2.2 2.2c2.6-.7 5-2 7-4 3.1-3.1 4.6-7.4 4.4-11.6zm-25.6 4.4c1-1 1-2.5 0-3.4l-2.5-2.5c1 1 2.5 1 3.4 0a2.46 2.46 0 0 0 .5-2.7l3.4 3.4c1 1 2.5 1 3.4 0s1-2.5 0-3.4l-3-3.2c-1-1-1-2.5 0-3.4s2.5-1 3.4 0l1.6 1.6c1 1 2.5 1 3.4 0 1-1 1-2.5 0-3.4l-2.3-2.3c-4.5-.5-9.2 1-12.6 4.5s-5 8.1-4.5 12.6l2.3 2.3c1 .9 2.6.9 3.5-.1z" fill="#b8d432"/><g fill="#fcd116"><circle cx="25" cy="3.6" r="3.6"/><circle cx="25" cy="46.4" r="3.6"/><circle cx="46.4" cy="25" r="3.6"/><circle cx="3.6" cy="25" r="3.6"/></g></svg>