<svg xmlns="http://www.w3.org/2000/svg" width="45" height="47.5"><g fill="#59b4d9"><path d="M22.5 45C10.1 45 0 34.9 0 22.5S10.1 0 22.5 0 45 10.1 45 22.5 34.9 45 22.5 45zm0-44A21.47 21.47 0 0 0 1 22.5 21.47 21.47 0 0 0 22.5 44 21.47 21.47 0 0 0 44 22.5 21.47 21.47 0 0 0 22.5 1z"/><path stroke-miterlimit="10" d="M24.4 32.7c.8-.8 2-.8 2.7 0L24 29.6c-.8-.8-.8-2 0-2.7.8-.8 2-.8 2.7 0l2.9 2.9c.8.8 2 .8 2.7 0 .8-.8.8-2 0-2.7l-2.4-2.4-4.4-4.6c-.8-.8-.8-2 0-2.7.8-.8 2-.8 2.7 0l2 2c-.8-.8-.8-2 0-2.7.8-.8 2-.8 2.7 0l5.2 5.2a15.5 15.5 0 0 0-4.6-10.3c-2.6-2.6-6-4.1-9.5-4.5l2.3 2.3c1 1 1 2.5 0 3.4s-2.5 1-3.4 0l-1.6-1.6c-1-1-2.5-1-3.4 0-1 1-1 2.5 0 3.4l3.1 3.1c1 1 1 2.5 0 3.4s-2.5 1-3.4 0l-3.4-3.4a2.46 2.46 0 0 1-.5 2.7c-1 1-2.5 1-3.4 0l2.5 2.5c1 1 1 2.5 0 3.4-1 1-2.5 1-3.4 0L7.1 24c.4 3.5 1.8 6.8 4.5 9.5 4.1 4.1 9.9 5.4 15.1 4l-2.2-2.2c-.9-.6-.9-1.8-.1-2.6z" stroke="#59b4d9" stroke-width=".194"/></g><path d="M38.2 21.9L33 16.7c-.8-.8-2-.8-2.7 0s-.8 2 0 2.7l-2-2c-.8-.8-2-.8-2.7 0-.8.8-.8 2 0 2.7l6.9 6.9c.8.8.8 2 0 2.7-.8.8-2 .8-2.7 0l-2.9-2.9c-.8-.8-2-.8-2.7 0-.8.8-.8 2 0 2.7l3.1 3.1c-.8-.8-2-.8-2.7 0-.8.8-.8 2 0 2.7l2.2 2.2c2.6-.7 5-2 7-4 3.1-3.1 4.6-7.4 4.4-11.6zm-25.6 4.4c1-1 1-2.5 0-3.4l-2.5-2.5c1 1 2.5 1 3.4 0a2.46 2.46 0 0 0 .5-2.7l3.4 3.4c1 1 2.5 1 3.4 0s1-2.5 0-3.4l-3-3.2c-1-1-1-2.5 0-3.4s2.5-1 3.4 0l1.6 1.6c1 1 2.5 1 3.4 0 1-1 1-2.5 0-3.4L23.9 7c-4.5-.5-9.2 1-12.6 4.5s-5 8.1-4.5 12.6l2.3 2.3c1 .9 2.6.9 3.5-.1z" fill="#b8d432"/><circle cx="22.5" cy="43.9" r="3.6" fill="#0072c6"/></svg>