<svg xmlns="http://www.w3.org/2000/svg" width="47.8" height="49.96"><style><![CDATA[.G{enable-background:new}]]></style><g fill="#0072c6"><path d="M23.9 21.36L0 11.76v-.1l23.9-9.7 23.9 9.6v.1z"/><path d="M23.9 49.96l23.9-9.7v-28.6l-23.9 9.7z"/></g><path d="M23.9 49.96l23.9-9.7v-28.6l-23.9 9.7z" opacity=".15" fill="#fff" class="G"/><path d="M23.9 49.96L0 40.36v-28.6l23.9 9.6z" fill="#0072c6"/><path d="M23.9 49.96L0 40.36v-28.6l23.9 9.6z" opacity=".25" fill="#1e1e1e" class="G"/><path d="M40.1 43.36v-28.7l-6.3 2.7v28.6z" fill="#b8d432"/><path d="M7.3 43.36v-28.7l6.5 2.7v28.6zm26.5-26l6.3-2.7v-.1l-23.9-9.6-6.4 2.6v.1z" fill="#7fba00"/><path d="M13.8 17.36l-6.5-2.7v-.1l24.3-9.6 6.4 2.6v.1z" fill="#b8d432"/><g fill="#7fba00"><path d="M17.9 15.26c.5.1 1.1.1 1.7-.2l7.7-3.1-5.9-3.1-6.9-2.5c-.6-.2-1.1-.3-1.8 0-1.7.7-3.1 2.6-3.1 4.3 0 .8.4 1.5.9 1.8z"/><path d="M20.5 9.46l5.9-7.8c.6-.6 1.1-1.1 1.8-1.4.6-.2 1.2-.3 1.7-.2l7 2.6c.7.3 1.2 1 1.2 2 0 1.7-1.4 3.6-3.1 4.3l-7.7 3.1z"/></g><path d="M37 2.66l-7-2.6c-.5-.1-1.1-.1-1.7.2-.7.3-1.3.8-1.8 1.4l-5.4 7.2-6.5-2.4c-.6-.2-1.1-.3-1.8 0-1.7.7-3.1 2.6-3.1 4.3 0 .8.4 1.5.9 1.8l7.3 2.7c.5.1 1.1.1 1.7-.2l7.7-3.1-.7-.4.8.3 7.7-3.1c1.7-.7 3.1-2.6 3.1-4.3 0-.9-.5-1.6-1.2-1.8z" opacity=".25" fill="#fcd116" class="G"/><path d="M33.3 4.16c.6-.6 1.1-1.1 1.8-1.4 1.7-.7 3.1.2 3.1 1.9s-1.4 3.6-3.1 4.3l-7.7 3.1zm-11.9 4.7c-.6-.2-1.1-.3-1.8 0-1.7.7-3.1 2.6-3.1 4.3s1.4 2.5 3.1 1.9l7.7-3.1z" opacity=".25" fill="#1e1e1e" class="G"/></svg>