<svg xmlns="http://www.w3.org/2000/svg" width="43.656" height="50"><path d="M20.987 40.35h-3.95c.957 5.788-2.336 6.618-7.968 6.618V50h19.15v-3.03c-5.63 0-8.2-.827-7.232-6.618" fill="#7a7a7a"/><path d="M9.07 46.968h19.15V50H9.07z" fill="#a0a1a2"/><path d="M31.948 5.48C28.778 2.3 24.753.517 20.616.097 15.214-.452 9.62 1.34 5.48 5.48S-.452 15.214.096 20.616c.42 4.138 2.213 8.162 5.383 11.332 4.898 4.898 11.833 6.508 18.077 4.842a18.62 18.62 0 0 0 8.392-4.842 18.67 18.67 0 0 0 5.461-14.117c-.21-4.49-2.03-8.92-5.46-12.35z" fill="#7fba00"/><path d="M18.714 43.656c-6.662 0-12.926-2.594-17.637-7.305a1.74 1.74 0 1 1 2.461-2.461 21.32 21.32 0 0 0 15.176 6.286A21.32 21.32 0 0 0 33.89 33.89a21.32 21.32 0 0 0 6.286-15.176A21.32 21.32 0 0 0 33.89 3.538a1.74 1.74 0 1 1 2.461-2.461c4.71 4.71 7.305 10.974 7.305 17.637S41.062 31.64 36.35 36.35s-10.975 7.305-17.637 7.305z" fill="#a0a1a2"/><path d="M10.678 16.034l5.358 5.358 10.717-10.716 2.675 2.68L16.036 26.75l-8.033-8.038z" fill="#fff"/><path d="M17.23 34.91a25.14 25.14 0 0 1-6.187.842c3.95 1.775 8.38 2.142 12.515 1.038a18.62 18.62 0 0 0 8.392-4.842 18.67 18.67 0 0 0 5.461-14.117 18.72 18.72 0 0 0-1.679-6.891c-.045 6.34-2.454 12.665-7.3 17.5a24.89 24.89 0 0 1-11.212 6.469z" opacity=".2" fill="#1e1e1e"/></svg>