<svg xmlns="http://www.w3.org/2000/svg" width="43.708" height="50.051"><path d="M21.04 40.402h-3.95c.957 5.788-2.336 6.618-7.968 6.618v3.03h19.15v-3.03c-5.63 0-8.2-.827-7.232-6.618" fill="#ff8c00"/><path d="M9.122 47.02h19.15v3.032H9.122z" fill="#fcd116"/><path stroke-miterlimit="10" d="M21.02 30.98c.904-.904 2.37-.904 3.274 0l-3.66-3.66c-.904-.904-.904-2.37 0-3.274s2.37-.904 3.274 0l.97.97.756.686 1.8 1.8c.904.904 2.37.904 3.274 0s.904-2.37 0-3.274l-8.37-8.37c-.904-.904-.904-2.37 0-3.274s2.37-.904 3.274 0L28 14.96c-.904-.904-.904-2.37 0-3.274s2.37-.904 3.274 0l6.195 6.195a18.63 18.63 0 0 0-5.458-12.351C28.83 2.36 24.806.568 20.67.148l2.778 2.778a2.92 2.92 0 1 1-4.131 4.131l-1.9-1.9a2.92 2.92 0 1 0-4.131 4.131l3.743 3.743a2.92 2.92 0 1 1-4.131 4.131L8.79 13.056a2.92 2.92 0 0 1-4.722 3.273l2.988 2.988a2.92 2.92 0 1 1-4.131 4.131L.148 20.67c.42 4.138 2.213 8.162 5.383 11.332C10.43 36.9 17.365 38.5 23.608 36.844l-2.59-2.59c-.904-.906-.904-2.372.001-3.276z" fill="#59b4d9" stroke="#59b4d9" stroke-width=".232"/><path d="M37.46 17.882l-6.195-6.195c-.904-.904-2.37-.904-3.274 0s-.904 2.37 0 3.274l-2.387-2.387c-.904-.904-2.37-.904-3.274 0s-.904 2.37 0 3.274l8.37 8.37c.904.904.904 2.37 0 3.274s-2.37.904-3.274 0l-1.8-1.8-.756-.686-.97-.97c-.904-.904-2.37-.904-3.274 0s-.904 2.37 0 3.274l3.66 3.66c-.904-.904-2.37-.904-3.274 0s-.904 2.37 0 3.274l2.6 2.6A18.62 18.62 0 0 0 32.003 32c3.877-3.88 5.697-9.038 5.458-14.118zM7.057 23.445a2.92 2.92 0 0 0 0-4.131L4.07 16.326a2.92 2.92 0 0 0 4.722-3.273l4.106 4.106a2.921 2.921 0 1 0 4.131-4.131l-3.743-3.743a2.921 2.921 0 1 1 4.131-4.131l1.9 1.9a2.921 2.921 0 1 0 4.131-4.131L20.67.145C15.266-.4 9.67 1.392 5.532 5.53S-.4 15.265.15 20.668l2.778 2.778a2.92 2.92 0 0 0 4.13-.001z" fill="#b8d432"/><path d="M18.766 43.707c-6.662 0-12.926-2.594-17.637-7.305a1.74 1.74 0 1 1 2.461-2.461 21.32 21.32 0 0 0 15.176 6.286 21.32 21.32 0 0 0 15.176-6.286 21.32 21.32 0 0 0 6.286-15.176 21.32 21.32 0 0 0-6.286-15.176 1.74 1.74 0 1 1 2.461-2.461c4.71 4.71 7.305 10.974 7.305 17.637s-2.594 12.926-7.305 17.637-10.975 7.305-17.637 7.305z" fill="#fcd116"/></svg>