<svg xmlns="http://www.w3.org/2000/svg" width="50" height="44.051"><g fill="#1e1e1e"><path d="M11.6 42.05c0 1.1-.8 2-1.7 2H6.3c-.9 0-1.7-.9-1.7-2v-9.3c0-1.1.8-2 1.7-2h3.5c.9 0 1.7.9 1.7 2v9.3zm34.3 0c0 1.1-.8 2-1.7 2h-3.5c-.9 0-1.7-.9-1.7-2v-9.3c0-1.1.8-2 1.7-2h3.5c.9 0 1.7.9 1.7 2z"/><path d="M46.6 33.55c0 .4-.3.7-.6.7H4.8c-.3 0-.6-.3-.6-.7l.7-4.2c0-.4.3-.7.6-.7h39.9c.3 0 .6.3.6.7z"/></g><g fill="#a0a1a2"><path d="M45.9 28.05c0 .4-.3.7-.6.7H5.4c-.3 0-.6-.3-.6-.7l2.9-4.5c0-.4.3-.7.6-.7h34.1c.3 0 .6.3.6.7z"/><path d="M42.6 22.45c0 .4-.3.7-.6.7H8.7c-.3 0-.6-.3-.6-.7l4.9-5c0-.4.3-.7.6-.7H37c.3 0 .6.3.6.7z"/></g><path d="M42.2 22.25c0 .4-.3.6-.6.6H9.2a.65.65 0 0 1-.6-.6l4.9-4.5c0-.4.3-.6.6-.6h22.7a.65.65 0 0 1 .6.6z" fill="#59b4d9"/><path d="M45.7 36.95c0 .2-.3.4-.6.4H5.7c-.3 0-.6-.2-.6-.4l-.9-2.5c0-.2.3-.4.6-.4H46c.3 0 .6.2.6.4z" fill="#7a7a7a"/><path d="M45.7 37.95c0 .2-.3.4-.6.4H5.7c-.3 0-.6-.2-.6-.4l-.9-2.5c0-.2.3-.4.6-.4H46c.3 0 .6.2.6.4z" fill="#1e1e1e"/><path d="M45.3 39.15c0 .1-.3.3-.6.3H6.1c-.3 0-.6-.1-.6-.3l-.2-1.6c0-.1.3-.3.6-.3h38.9c.3 0 .6.1.6.3z" fill="#7a7a7a"/><path d="M11.3 32.55c0 .4-.3.7-.6.7H6.4c-.3 0-.6-.3-.6-.7v-2.2c0-.4.3-.7.6-.7h4.3c.3 0 .6.3.6.7zm7.1 0c0 .4-.3.7-.6.7h-4.3c-.3 0-.6-.3-.6-.7v-2.2c0-.4.3-.7.6-.7h4.3c.3 0 .6.3.6.7zm9.8-.5c0 .1-.3.3-.6.3h-4.3c-.3 0-.6-.1-.6-.3v-.9c0-.1.3-.2.6-.2h4.3c.3 0 .6.1.6.2z" fill="#e5e5e5"/><path d="M14.1 36.35c0 .1-.2.1-.6.1H9.2c-.3 0-.7 0-.7-.1v-.7c0-.1.3-.1.7-.1h4.3c.3 0 .6 0 .6.1zm28.5 0c0 .1-.3.1-.6.1h-4.3c-.3 0-.6 0-.6-.1v-.7c0-.1.3-.1.6-.1H42c.3 0 .6 0 .6.1z" fill="#ff8c00"/><path d="M38 32.55c0 .4-.3.7-.6.7h-4.3c-.3 0-.6-.3-.6-.7v-2.2c0-.4.3-.7.6-.7h4.3c.3 0 .6.3.6.7zm6.9 0c0 .4-.3.7-.6.7H40c-.3 0-.6-.3-.6-.7v-2.2c0-.4.3-.7.6-.7h4.3c.3 0 .6.3.6.7z" fill="#e5e5e5"/><path d="M22 15.75l-1-4.7c-.4-.6-3.5-5.3-9.6-6-6.8-.7-10.5 3.9-10.5 4l-.9-.6c.2-.2 4.1-5.2 11.5-4.4 7.1.8 10.4 6.3 10.5 6.6l.1.2 1 4.7z" fill="#1e1e1e"/><g fill-rule="evenodd"><path d="M21.5 10.85s-2.3-4-7.2-5.7c.2-.3.2-.7.1-1.1l-.8-3.1c-.2-.7-.9-1.1-1.5-.9l-.7.3c-.6.2-1 1-.8 1.7l.4 2.5c-7-.5-10 3.6-10 3.6l1 2.8 9.8-4s2.2.3 4.2 1.6c1.8 1.1 3.5 3.1 3.5 3.1l1 3.9h2.1z" fill="#a0a1a2"/><path d="M7.5 7.35c0 .4-3.8 2-4.1 2s-.6-.3-.6-.7 3.8-2 4.1-2c.4 0 .6.3.6.7z" fill="#1e1e1e"/></g><path d="M28 15.75l-1.1-.2 1.1-4.9c.1-.2 3.4-5.8 10.5-6.6 7.5-.8 11.3 4.2 11.5 4.4l-.9.7s-3.7-4.7-10.5-4c-6.1.7-9.2 5.4-9.6 6z" fill="#1e1e1e"/><g fill-rule="evenodd"><path d="M28.5 10.85s2.3-4 7.2-5.7c-.2-.3-.2-.7-.1-1.1l.8-3.1c.2-.7.9-1.1 1.5-.9l.7.3c.6.2 1 1 .8 1.7l-.4 2.5c7-.5 10 3.6 10 3.6l-1 2.8-9.8-4s-2.2.3-4.2 1.6c-1.8 1.1-3.5 3.1-3.5 3.1l-1 3.9h-2.1z" fill="#a0a1a2"/><path d="M42.7 7.35c0 .4 3.6 1.9 3.9 1.9s.6-.3.6-.7-3.6-1.9-3.9-1.9c-.3.1-.6.4-.6.7z" fill="#1e1e1e"/></g><path d="M24.1 23.05c0 .1-.1.1-.2.1l-9.9-1.1c-.1 0-.1 0-.1-.1v-.1c0-.1.1-.2.2-.2l9.9 1.1s.1.1.1.3zm11.3 0c0 .1-.1.1-.2.1l-9.9-1.1c-.1 0-.1 0-.1-.1v-.1c0-.1.1-.2.2-.2l9.9 1.1c.1 0 .2.1.1.3z" fill="#1e1e1e"/><path d="M37.6 16.75c0 .1-.2.1-.5.1H13.6c-.3 0-.5 0-.5-.1l2.5-1c0-.1.2-.1.5-.1h18.5c.3 0 .5 0 .5.1z" fill="#a0a1a2"/></svg>