<svg xmlns="http://www.w3.org/2000/svg" width="40" height="40" fill="#b8d432"><path d="M0 0h8.868v8.792H0zm10.377 0h8.868v8.792h-8.868zm10.35 0h8.895v8.792h-8.895zm10.404 0H40v8.792h-8.868zM0 10.402h8.868v8.792H0zm10.377 0h8.868v8.792h-8.868zm10.35 0h8.895v8.792h-8.895zm10.404 0H40v8.792h-8.868zM0 20.804h8.868v8.917H0zm10.377 0h8.868v8.917h-8.868zm10.35 0h8.895v8.917h-8.895zm10.404 0H40v8.917h-8.868zM0 31.208h8.868V40H0zm10.377 0h8.868V40h-8.868zm10.35 0h8.895V40h-8.895zm10.404 0H40V40h-8.868z"/></svg>