<svg xmlns="http://www.w3.org/2000/svg" xmlns:xlink="http://www.w3.org/1999/xlink" width="50" height="50"><path fill="#fff" d="M22.83 4.368a20.66 20.66 0 0 0-13.953 7.579 20.67 20.67 0 0 0-4.508 15.227c.604 5.703 3.45 10.604 7.58 13.95s9.52 5.11 15.222 4.51a20.68 20.68 0 0 0 13.955-7.581 20.67 20.67 0 0 0 4.505-15.225c-.608-5.75-3.528-10.67-7.724-14.064-3.53-2.86-8.032-4.5-12.856-4.5-.733 0-1.474.038-2.222.116"/><g fill="#a0a1a2"><path d="M49.86 22.38c-.728-6.937-4.27-12.883-9.273-16.928-.97-.786-2.018-1.472-3.1-2.1L35.523 7.13c.83.493 1.636 1.024 2.385 1.632 4.196 3.395 7.116 8.312 7.723 14.063.602 5.706-1.165 11.093-4.504 15.226-3.35 4.13-8.25 6.98-13.955 7.58-3.82.4-7.49-.277-10.744-1.76l-1.96 3.774c3.976 1.85 8.48 2.708 13.15 2.214 6.862-.72 12.796-4.164 16.814-9.133 4.02-4.963 6.155-11.487 5.427-18.345"/><use xlink:href="#B"/></g><use xlink:href="#B" opacity=".2" fill="#fff"/><path fill="#ba141a" d="M29.678 27.103L25 12.803l-4.678 14.3L25 27.103z"/><path fill="#3e3e3e" d="M25 27.103h-4.678L25 41.406l4.678-14.303z"/><path d="M27.834 12.422H26.4l-2.596-3.96-.318-.523h-.016c.022.234.035.574.035 1.02v3.463h-1.34V6.12h1.53l2.5 3.837.318.514h.016c-.022-.153-.035-.442-.035-.865V6.12h1.34v6.302z"/><path opacity=".3" fill="#fff" d="M29.678 27.103L25 12.8v28.605l4.678-14.303z"/><defs ><path id="B" d="M11.95 41.123c-4.133-3.346-6.978-8.247-7.58-13.95-.6-5.708 1.162-11.094 4.508-15.228s8.246-6.977 13.95-7.578c4.613-.484 9.016.574 12.694 2.76l1.963-3.776C33.07.788 27.825-.435 22.38.138 15.522.86 9.588 4.305 5.57 9.27l-.007.01A24.94 24.94 0 0 0 .139 27.617c.723 6.86 4.164 12.796 9.135 16.815 1.582 1.282 3.335 2.346 5.194 3.212l1.96-3.774c-1.603-.73-3.114-1.643-4.478-2.747"/></defs></svg>