<svg xmlns="http://www.w3.org/2000/svg" width="50" height="50" viewBox="17 -17 50 50"><path fill="#3999c6" d="M59.78-2.597L24.775 32.408c-.828.828-2.172.828-3 0l-4.154-4.154c-.828-.828-.828-2.172 0-3L52.626-9.75c.828-.828 2.172-.828 3 0l4.154 4.154a2.12 2.12 0 0 1 0 2.999z"/><path opacity=".6" fill="#0072c6" d="M36.634 6.243l7.637-7.637 7.154 7.154-7.637 7.637z"/><path fill="#7a7a7a" d="M45.818-16.443L66.473 4.212 52.846 17.838 32.19-2.817z"/><path d="M32.2-2.817l-.556-4.94L40.877-17l4.94.556zm34.283 7.03l.557 4.94-9.242 9.242-4.94-.557z" fill="#a0a1a2"/></svg>