<svg xmlns="http://www.w3.org/2000/svg" xmlns:xlink="http://www.w3.org/1999/xlink" width="43.402" height="42.283" fill="none"><path d="M35.785 14.6c2.777 0 5.316.714 7.617 2.063v-.08l-6.823-11.9h-5.395c0 2.222-.793 4.443-2.3 6.1l2.54 4.364c1.35-.397 2.856-.555 4.364-.555zM7.537 20.307a4.8 4.8 0 0 1 1.507 0l2.3-3.967 3.253-5.712c-1.507-1.666-2.3-3.808-2.3-6.03H6.823L0 16.498l2.936 5.078c1.428-.793 3.015-1.27 4.602-1.27zm10.395-7.065l-4.998 8.728c2.142 1.508 3.65 3.808 3.967 6.427h3.73c.397-4.84 3.094-8.966 6.982-11.425l-2.142-3.73a8.94 8.94 0 0 1-7.537 0zm2.938 19.203h-4.284c-.714 2.3-2.222 4.205-4.284 5.395l2.54 4.443H27.22c-3.253-2.222-5.633-5.713-6.347-9.838z" fill="#59b3d8"/><path d="M24.97 8a4.681 4.681 0 1 0-6.62-6.62 4.681 4.681 0 1 0 6.62 6.62zm11.893 26.305a4.681 4.681 0 1 0-2.151-9.111 4.681 4.681 0 1 0 2.151 9.111zm-26-1.222a4.681 4.681 0 1 0-6.62-6.62 4.681 4.681 0 1 0 6.62 6.62z" fill="#414141"/><use xlink:href="#B" fill="#59b3d8"/><use xlink:href="#B" fill="#8bc9e0"/><use xlink:href="#C" fill="#59b3d8"/><use xlink:href="#C" fill="#8bc9e0"/><use xlink:href="#D" fill="#59b3d8"/><use xlink:href="#D" fill="#8bc9e0"/><defs ><path id="B" d="M31.34 15.228l.793 1.35 2.3 3.967c.476-.08.952-.08 1.428 0 1.666 0 3.253.476 4.68 1.27l2.777-5.157c-2.222-1.27-4.84-2.063-7.617-2.063-1.428 0-2.936.16-4.364.635z"/><path id="C" d="M27.216 42.283h1.2l2.54-4.364c-2.063-1.2-3.57-3.174-4.205-5.475h-5.95c.793 4.126 3.174 7.617 6.427 9.838z"/><path id="D" d="M20.633 28.397h5.792a9.4 9.4 0 0 1 4.046-6.427l-2.936-4.998c-3.808 2.46-6.427 6.585-6.903 11.425z"/></defs></svg>