<svg xmlns="http://www.w3.org/2000/svg" width="50.2" height="38.776"><path d="M7.9 12.213l-2.6 3.1-1.4 1.5-1.4.5-.4-.9.7-.9.1-1.3h.5l.4.4-.1-1.3-.5-.4v-.5l-1.2.7-1.2 1.3-.2 1.2.5 1 .4 1.6.9.4h1l.9-.6-.6 3.1.6 3.4-.7 1.6-2.1 2.3.3 1.5 1.1 1.6 1.9 1.3 1.1.2H7l-.7 3 2.6 1.1 3.3.4 1.1-.8.1-1.9 1.3-2.1.1-1.7 3 .3 2.8-.3-2.8 1.7.5 2 1.7 2.8 1.8.7 1.3-.5.6-1.2 2.9-2.2.6.5 4.5.2.9-.8.1-1.3-.3-.5-.2-3.5-1.5-3 .2-1.4.9.5 2.6 2.4 1.2.1 1.4-.6 1.4-1 .7-2.3 4 .3 2.5-1 2-1.8 1.4-2.7.4-3.2-.3-3.6-.8-3.3-.8-1.1-1.1-.3-1.9 2.1-1.7.6-1.5-2.5-1.5-1.4-.9-.5-3.2-2.8-2.7-1.4-2.6-.2-3.1.5-2.7 1-1.8 1.5-1.5 1.8-1.5.4-2.6 2.5-3.5.6-3.1 1.4z" fill="#fcd116" fill-rule="evenodd"/><g fill="#1e1e1e"><path d="M3.9 15.213l-.2.1.4.5.1-.6z"/><path d="M49.7 11.413c-.2-1.5-.6-3-1.2-4-.1-.1-.2-.3-.3-.4-.3-.3-.7-.5-1.1-.7s-.9-.2-1.3 0c-.1.1-.2.1-.3.2-.2.2-.4.5-.6.8s-.5.7-.7.9c-.3.3-.7.4-1.1.6-.2-.4-.3-.8-.6-1.1-.3-.4-.5-.8-.9-1.2l-.8-.8-.9-.6c-.9-.6-1.6-1.2-2.4-1.9-.3-.3-.7-.6-1-.9-1.8-1.5-3.5-2.2-5.3-2.3s-3.7.4-6 1.3c-1.1.5-1.9 1-2.6 1.6s-1.2 1.3-1.9 2.2c-.4 0-.7.1-1 .2-.4.1-.7.4-1.2.8-.3.3-.6.6-.9.8l-.8.8c-2.1.3-3.7.7-5.2 1.3a14.98 14.98 0 0 0-4.3 2.6c-.6.5-1.1 1-1.5 1.6s-.8 1.1-1.1 1.7l-.9.9c-.3.3-.6.5-1 .6-.2.1-.3.1-.3.1v-.1c.5-.5.6-1.2.6-1.9.1.1.1.2.2.3s.1.2.2.3l.2-.2.3.1c.1-.5.2-1 .1-1.6-.1-.3-.2-.6-.5-.8 0-.1.1-.1.1-.2.1-.2.2-.4.2-.7l-.2-.1.2.1.3-.2-.4.1c-.6.1-1.8.8-2.7 1.7a4.44 4.44 0 0 0-.8 1.1c-.3.5-.3.9-.3 1.3.1.4.3.7.6 1.1.1.3.1.5.2.7s.2.4.2.6c.3.5.7.9 1.1 1s.8.1 1.2 0c-.1.5-.1 1-.2 1.5l.1 2.4c0 .2 0 .4.1.6 0 .2.1.4.1.6-.1.2-.2.4-.2.6-.1.3-.2.7-.4 1l-1.7 1.7c-.5.5-.6.6-.5 1.4.1.5.3 1 .5 1.6.2.5.6.9 1 1.4a10.68 10.68 0 0 0 2.5 1.6c.5.2 1.1.3 1.6.2 0 .1 0 .2-.1.2-.1.2-.2.4-.3.7-.6 1.4 0 2.1 1 2.5a9.83 9.83 0 0 0 1.6.5c.1 0 .2.1.4.1.6.2 1.8.5 2.8.6 1.1.1 2.1-.2 2.4-1.2.1-.4.2-.7.2-1v-.9c.3-.7.5-.9.7-1.2 0-.1.1-.1.1-.2.2-.4.4-.6.4-.9v-1.2c.6.1 1.3.1 1.9.1h1c-.1 0-.2.1-.3.1 0 0-.1 0-.1.1-.9.4-.9 1.3-.6 2.1.2.8.7 1.6 1.1 2 .7 1 1.3 1.9 2 2.3.8.5 1.7.5 2.9-.1.6-.3.8-.7 1-1.1.1-.1.2-.3.3-.4.2-.2.8-.7 1.5-1.2.2-.2.4-.3.7-.5.2.1.3.2.6.3s.7.1 1.1.1h2.6c.7 0 1.3 0 1.7-.3.5-.3.7-.7.8-1.5v-.8c0-.2-.1-.4-.3-.7v-2.2c0-.4-.1-.8-.2-1.2s-.2-.7-.4-1.1l-.3-.8-.2.1.2-.1c-.1-.4-.3-.8-.5-1.2v-.3l1 1c.4.4.8.8 1.3 1.1s1 .5 1.7.4c.7 0 1.5-.3 2.2-.8.6-.5 1.1-1.1 1.4-1.8.1-.2.1-.4.2-.6 0-.2.1-.3.1-.5 1 .2 2.2.2 3.2.1s2.1-.4 2.9-.8c1.3-.7 2.2-1.7 2.9-2.9.8-1.3 1.2-2.9 1.4-4.5l-.5-4.7zm-15 12.1c-.3 1-.8 2.7.6 3 .5.1.8.1 1.5-.3-.6.1-.9.1-1.3 0s-.6-.3-.7-.6c.1.1.3.1.7.2 1 .2 2-.2 2.2-1 .1-.4.1-.6.3-1.2.2.1.4.1.7.2-.1.4-.3.8-.4 1.3-.3 1.1-1.6 2-2.8 1.9-1.1 0-1.7-.7-2.5-1.3l-1.5-1.3c-1.3-.4-2.4-.9-3.6-1.8.9 1 1.5 1.6 2.7 2.1-.2 1.8-.8 3.1-1.3 4.8-.2.8-2.1 3.9-2.7 4.2-.4.2-2.7 2.2-3.2 2.5-.3.4-.6 1-1.1 1.3-1.5.8-2.5-.7-3.3-2-.4-.6-1.4-2.3-.5-2.8.8-.4 1.3-.8 2.2-1.3a3.04 3.04 0 0 0 .5.7c0-.3-.1-.5-.1-.8a2.85 2.85 0 0 1 0-1.3c0-.4.1-.9.1-1.3-.1.5-.4.9-.5 1.4-.1.2-.1.3-.1.5-1.9.4-3.9.4-5.8.1-.1-.7-.3-1.5-.4-2v3.2c0 .7 0 1-.4 1.6-.3.6-.5.7-1 1.7 0 .6 0 1-.1 1.6-.3 1-3 .2-3.7 0-.9-.2-2.7-.6-2.3-1.8.4-1 .7-2.1.9-3.6-1.6-2.3-3.1-5.5-3.4-8.4-.2-2.2-.1-3.6.4-4.9.8-2.1 1.8-4 3.5-5.5 2.3-2 4.4-2.8 7.8-3.3l-2.5 2.9c-.9 1-1.4 2.1-2 3.2-.8 1.6-.8 2.2.3 3.5.9 1.2 1.4 1.7 1.7 2.9-.3.7-.4 1.2-.5 2.1 1.1 1.2 1.9 2 2.9 2.2s1.9.2 2.8-.3c2-1 3.9-2.4 6.2-2.5 1.1-2.6 1-4.8.4-7.4a44.29 44.29 0 0 1-.6-5.1c-.4 1.8-.5 3.4-.2 5.2.4 2.2.7 4.6-.4 6.5-2.1.2-3.9 1.4-5.8 2.4-.8.4-1.5.4-2.4.2-.6-.1-1.1-.6-2-1.6 0-1 .2-1.4.6-2.3.7-1.4 1.5-2.7 2.4-4.1l-2.8 3.6c-.3-.9-.8-1.4-1.5-2.4s-.8-1.4-.3-2.6c.6-1.2 1-2.2 2-3.2l4.9-5.5c1-.9 1.4-.9 2.6-1.1l3.5-.7c-1.2.2-2.3.3-3.4.3 1.1-1.4 1.7-2.2 3.5-3 4.4-1.9 7.2-2.1 10.6.8.9.8 1.7 1.5 2.6 2.1-.3 0-.6.1-1 .2.5-.1 1 0 1.5.1.1.1.3.2.4.3.6.4 1 .6 1.4 1.2.5.6.8 1.3 1.2 2-.2-.1-.4-.1-.6-.2-.1-.1-.3-.1-.4-.1-.3 0-.5 0-.8.2-.4.2-.9.4-1.3.4.2.1.6.1.8 0h.1c-.1.1-.1.3-.2.5 0 .2 0 .5.1.7 0 .1.1.1.1.2-.2.1-.3.1-.5.2.8-.1 1.6-.1 2.4 0 .1.3.1.5.2.8h-.3c-.4-.3-.8-.3-1.4-.1-1.7.4-1.3 1.4-2.1 2.9.8-1 .8-2.1 2.1-2.4.3-.1.5-.2.7-.1a1.96 1.96 0 0 0-.9.9c-.4 1.1-.1 1.9-.6 2.9.5-.9.5-1.7 1-2.7.2-.3.8-.9 1.1-.9h.3c.1.6.1 1.2.1 1.6-.1.9-.3 2.2-.4 2.7.5-.6.7-1.8.9-2.7s.2-2 0-3c-.3-1.4 1.1-1.1 1.9-1.8.6-.5 1-1.2 1.5-1.7s1.4.2 1.6.8c.9 2.2 1.3 5.7 1.1 8-.3 2.5-1.5 5.3-3.7 6.5-2.8 1.6-6.2.6-9-.3-.6-.2-1-.5-1.5-.8a2.25 2.25 0 0 1 .2 1.8zm-2.5 10.1c-.1 1-.4 1.1-1.4 1.1-.4 0-2.1 0-2.5-.1-.6-.1-.9-.1-1.1-.2.9-.7 2.5-3.5 2.8-4.5s.7-1.9.9-2.9c.1.4.2.8.4 1.2.3.7.4 1.1.5 1.9 0 .8 0 1.6.1 2.4.3.5.3.6.3 1.1zM3 12.813c-.2.3-.3.6-.3.8-.3 1.1.1 2.1-.9 2.9.5.9.4 1.3 1.5.9.4-.2.8-.4 1.1-.7-.1.4-.3.8-.4 1.2 0 .1 0 .1-.1.2-.8.3-1.8.5-2.2-.3-.2-.4-.3-.8-.4-1.3-1.3-1.3.6-3.1 1.7-3.7zm.1 1.2c0-.1 0-.3.1-.4 0-.1 0-.1.1-.2.3.2.3.4.4.8-.2-.2-.4-.3-.6-.2zm1 11.7c.6 2 1.6 4.1 2.7 5.8-.1.3-.2.6-.3.8-.8 1.1-2.8-.5-3.4-1.1-.7-.7-1.1-1.5-1.2-2.2-.1-.5 0-.5.4-.9l1.5-1.5.3-.9zm38.1-16.5c0 .1.1.2.1.3l-.1.1c-.1-.1-.2-.3-.3-.4h.3zM5 15.313zm-1.6-2.4zm-2.5 3.8zm14 14.7zm24.4-7.4zm9-3.4z"/><path d="M44.7 10.413c1.4-.5 2.1-1.6 2.4-3-.6 1.1-1.4 2.1-2.6 2.6-.6.3-1 .2-1.7.1.7.3 1.2.5 1.9.3zm-8 1.4c-.4 0-.9.1-1.5.2 0-.2-.1-.3-.1-.5-.2-.4-.5-.7-.9-.8l1-.6c-.8.4-1.7.3-2.4.7-.6.4-1.4 1.7-2 2.2.4-.2.8-.5 1.2-.8 0 .2.1.5.2.7.2.3.4.6.7.7-.2.3-.4.6-.5 1 1.1-1.3 2.7-2.4 4.3-2.8zm-7.2-1.5c.3-1.2.7-2.3 2.5-3.1-2.4.6-2.8 1.6-2.5 3.1zm3.9 11.4c-.1.3-.1.8-.2 1.1.1-.4.3-.9.5-1.2.2-.4.3-.4.7-.6.3-.1.8-.4 1-.5-.3 0-.8.2-1.1.2-.7.1-.8.3-.9 1zm-12.8-13.5c-.9.9-1.7 3.8-2 5 .4-1 1.5-3.7 2.3-4.4.2-.2.4-.3.6-.4-.6 1-.5 1.2-.3 2.5.2-1.3.6-1.9 1.4-2.9.8-.2 1.6-.5 2.5-.8l-2.9.3c-.9.2-1.1.2-1.6.7z"/></g><path d="M32.5 13.313c-.2-.3 0-.7.3-.9s.7 0 .9.3v.1c-.3.2-.6.5-.9.8-.1 0-.3-.1-.3-.3m7.4-2.9c0-.3.3-.5.5-.5.3 0 .5.3.5.5v.2c-.3 0-.5.1-.8.2-.1 0-.2-.2-.2-.4" fill-rule="evenodd" fill="#fffacb"/></svg>