<svg xmlns="http://www.w3.org/2000/svg" width="45.001" height="38.306"><path d="M41.7 2.8c-.8-.872-1.755-1.513-2.807-1.95-4.855-2.022-11.87.495-16.26 6.73C15.876-.58 7.798-2.1 3.302 2.8-5.684 12.574 5.57 25.43 14.445 32.728c3.498 2.877 6.627 4.89 8.003 5.514v.064c.012-.002.038-.023.047-.025a.39.39 0 0 0 .066.025v-.064c4.856-2.202 31.66-21.8 19.14-35.452" fill="#ba141a"/><path d="M22.632 7.572C15.876-.58 7.8-2.11 3.302 2.792-5.684 12.575 5.57 25.43 14.445 32.73L38.894.84c-4.856-2.022-11.87.495-16.262 6.73" opacity=".2" fill="#fff"/></svg>