<svg xmlns="http://www.w3.org/2000/svg" width="50" height="32.9"><path d="M37 13.5h10.3a2.69 2.69 0 0 1 2.7 2.7 2.69 2.69 0 0 1-2.7 2.7H37a2.69 2.69 0 0 1-2.7-2.7c-.1-1.5 1.2-2.7 2.7-2.7zm-34.3 0h7.7a2.69 2.69 0 0 1 2.7 2.7 2.69 2.69 0 0 1-2.7 2.7H2.7A2.69 2.69 0 0 1 0 16.2a2.69 2.69 0 0 1 2.7-2.7z" fill="#59b4d9"/><path d="M23 0c4.4 0 8.5 1.7 11.7 4.8 6.4 6.4 6.4 16.9 0 23.3-3.1 3.1-7.3 4.8-11.7 4.8s-8.5-1.7-11.7-4.8c-1.1-1.1-1.1-2.8 0-3.9s2.8-1.1 3.9 0c2.1 2.1 4.8 3.3 7.8 3.3s5.7-1.1 7.8-3.2c4.3-4.3 4.3-11.3 0-15.5-2.1-2.1-4.9-3.3-7.8-3.3s-5.7 1.1-7.8 3.2c-1.1 1.1-2.8 1.1-3.9 0s-1.1-2.8 0-3.9C14.4 1.7 18.6 0 23 0z" fill="#0072c6"/><circle cx="22.8" cy="16.5" r="6" fill="#7fba00"/></svg>