<svg xmlns="http://www.w3.org/2000/svg" width="47.733" height="47.743"><path d="M39.705 39.715c-4.232 4.23-9.856 6.56-15.84 6.56a22.26 22.26 0 0 1-15.839-6.56c-4.23-4.232-6.56-9.856-6.56-15.84s2.33-11.61 6.56-15.84 9.855-6.56 15.84-6.56 11.61 2.33 15.84 6.56a22.25 22.25 0 0 1 6.56 15.839c-.001 5.982-2.33 11.608-6.56 15.84z" fill="#e5e5e5"/><path d="M8.027 39.716c-4.23-4.232-6.56-9.856-6.56-15.84s2.33-11.61 6.56-15.84 9.855-6.56 15.84-6.56 11.61 2.33 15.84 6.56z" opacity=".5" fill="#fff"/><g fill="#2999c6"><path d="M4.477 31.64c-.98-2.438-1.5-5.057-1.5-7.763a20.72 20.72 0 0 1 4.24-12.586 5.85 5.85 0 0 1-1.218-1.12 5.95 5.95 0 0 1-.762-1.226c-5.605 6.985-6.693 16.373-3.3 24.316.763-.687 1.62-1.237 2.55-1.62zM15.205 1.628c.75.763 1.326 1.628 1.746 2.548 2.195-.77 4.518-1.2 6.914-1.2a20.67 20.67 0 0 1 12.25 4 5.85 5.85 0 0 1 1.555-1.96 6.18 6.18 0 0 1 .435-.319c-6.7-4.974-15.38-5.98-22.9-3.058zm28.05 14.484a20.77 20.77 0 0 1 1.511 7.764c-.001 4.608-1.503 8.976-4.24 12.585a5.86 5.86 0 0 1 1.219 1.121c.312.383.56.796.762 1.225 5.605-6.985 6.693-16.372 3.3-24.315-.765.687-1.623 1.237-2.552 1.62zM30.778 43.575c-2.195.77-4.517 1.2-6.912 1.2a20.74 20.74 0 0 1-12.249-3.99 5.85 5.85 0 0 1-1.555 1.96l-.417.305c6.688 4.97 15.37 5.986 22.882 3.074a8.86 8.86 0 0 1-1.749-2.55z"/><path d="M13.045 3.705a5.91 5.91 0 0 1-.005 8.348c-2.302 2.298-6.046 2.297-8.348-.005A5.91 5.91 0 0 1 4.697 3.7a5.91 5.91 0 0 1 8.344.001z"/></g><path d="M10.912 9.92a2.89 2.89 0 0 0 .002-4.089c-1.128-1.13-2.96-1.13-4.09-.002a2.89 2.89 0 0 0-.002 4.089l.001.001a2.89 2.89 0 0 0 4.088.001" fill="#fff"/><path d="M35.693 3.7a5.91 5.91 0 0 1 8.348.005c2.298 2.302 2.297 6.046-.005 8.348a5.91 5.91 0 0 1-8.348-.005 5.91 5.91 0 0 1 .001-8.344z" fill="#2999c6"/><path d="M41.9 5.834a2.89 2.89 0 1 0-4.091 4.087 2.89 2.89 0 0 0 4.089.002l.001-.001c1.128-1.128 1.128-2.96.001-4.088" fill="#fff"/><path d="M34.688 44.046a5.91 5.91 0 0 1 .005-8.348c2.302-2.298 6.046-2.297 8.348.005a5.91 5.91 0 0 1-.005 8.348 5.91 5.91 0 0 1-8.344-.001z" fill="#2999c6"/><path d="M36.82 37.83a2.89 2.89 0 1 0 4.087 4.091 2.89 2.89 0 1 0-4.087-4.091" fill="#fff"/><path d="M12.04 44.05a5.91 5.91 0 0 1-8.348-.005c-2.298-2.302-2.297-6.046.005-8.348a5.91 5.91 0 0 1 8.348.005 5.91 5.91 0 0 1-.001 8.344z" fill="#2999c6"/><path d="M5.822 41.917a2.891 2.891 0 1 0 4.091-4.087 2.89 2.89 0 0 0-4.089-.002c-1.13 1.13-1.13 2.96-.002 4.1m21.044-21.042h-6l3 9z" fill="#fff"/><g fill="#804998"><path d="M33.896 31.654c-.57-5.082-2.936-9.342-7.03-10.778l-3 9-3-9c-3.996 1.343-6.534 5.177-7.032 10.795-.102 1.1.615 2.08 1.602 2.194a1.81 1.81 0 0 0 .18.011h16.5c.986.004 1.79-.883 1.792-1.982a2.41 2.41 0 0 0-.012-.24z"/><circle cx="23.866" cy="15.876" r="5.9"/></g></svg>