<svg xmlns="http://www.w3.org/2000/svg" width="49" height="48"><path d="M38 48H0V0h38zM2 45.97L36 46V2L2 2.03z" fill="#3999c6"/><path d="M2 2.03h34v43.94H2z" fill="#59b4d9"/><path d="M2 2.03h34v43.94H2z" opacity=".4" fill="#fff"/><path d="M29.524 13.963L20.1 8.556c-.694-.4-1.526-.393-2.256.008L8.467 13.93C7.766 14.338 6 15 6 18.247v10.797c0 .836.457 1.604 1.152 1.98l9.33 5.346c.357.22 1.52.63 2.52.63s2.144-.402 2.5-.61l9.335-5.353A2.28 2.28 0 0 0 32 29.044V18.316c0-3.316-1.772-3.955-2.476-4.353z" opacity=".5" fill="#3999c6"/><path d="M19.03 21.59c-.05-.001-.1-.015-.143-.04L9.47 16.15c-.087-.05-.14-.144-.14-.245s.053-.194.14-.245l9.36-5.362a.29.29 0 0 1 .282 0l9.42 5.4c.088.05.14.143.14.244a.28.28 0 0 1-.14.244l-9.356 5.36c-.044.027-.094.04-.145.042" fill="#fff"/><path d="M17.677 34.707c-.05.001-.1-.012-.143-.038l-9.387-5.38c-.09-.048-.147-.142-.147-.245V18.247c0-.102.055-.194.145-.246s.198-.052.287 0l9.386 5.378c.086.053.138.147.14.248v10.797c-.001.1-.053.193-.14.246a.3.3 0 0 1-.141.037m2.657 0c-.05 0-.102-.013-.147-.038-.086-.052-.138-.145-.138-.246V23.695c0-.1.055-.193.138-.246l9.386-5.378a.28.28 0 0 1 .283 0c.088.05.143.143.144.245v10.728a.28.28 0 0 1-.144.246l-9.383 5.38c-.042.025-.1.038-.14.037" fill="#3999c6"/><g fill="#fff"><path d="M17.677 34.707c-.05.001-.1-.012-.143-.038l-9.387-5.38c-.09-.048-.147-.142-.147-.245V18.247c0-.102.055-.194.145-.246s.198-.052.287 0l9.386 5.378c.086.053.138.147.14.248v10.797c-.001.1-.053.193-.14.246a.3.3 0 0 1-.141.037" opacity=".8"/><path d="M20.334 34.707c-.05 0-.102-.013-.147-.038-.086-.052-.138-.145-.138-.246V23.695c0-.1.055-.193.138-.246l9.386-5.378a.28.28 0 0 1 .283 0c.088.05.143.143.144.245v10.728a.28.28 0 0 1-.144.246l-9.383 5.38c-.042.025-.1.038-.14.037" opacity=".6"/></g><path d="M41 29l8 6-8 6z" fill="#804998"/><path d="M36 39.087l2-.37V31.76a19.8 19.8 0 0 0-2 .411z" opacity=".4" fill="#fff"/><path d="M41 37.506c-8 0-13 3.994-14 5.494 0-6.735 7-10.475 14-10.475z" fill="#804998"/></svg>