<svg xmlns="http://www.w3.org/2000/svg" height="39" width="50"><path d="M0 0h50v39H0z" fill="#7a7a7a"/><path d="M2.2 2.2h45.7V37H2.2z" fill="#59b4d9"/><path d="M47.8 22.3L44.5 19c-1.3-1.3-3.4-1.3-4.8 0L21.9 37h26V22.3z" fill="#b8d432"/><path d="M47.8 22.3L44.5 19c-1.3-1.3-3.4-1.3-4.8 0L21.9 37h26V22.3z" opacity=".25" fill="#fff"/><path d="M43.1 37l-14-14a2.66 2.66 0 0 0-3.7 0l-14 14z" fill="#7fba00"/><g fill="#fff"><path d="M43.1 37l-14-14a2.66 2.66 0 0 0-3.7 0l-14 14z" opacity=".25"/><path d="M27.6 17.3c0-1.4-1.1-2.5-2.4-2.5h-.3c.1-.6.2-1.1.2-1.7 0-3.6-2.9-6.6-6.5-6.6-2.9 0-5.3 1.9-6.2 4.5-.5-.2-.9-.3-1.5-.3-2.5 0-4.4 2-4.4 4.5s2 4.5 4.4 4.5h14.4c1.3-.1 2.3-1.1 2.3-2.4" opacity=".63"/></g></svg>