<svg xmlns="http://www.w3.org/2000/svg" width="50" height="48"><path d="M34 43H0V0h34zM2 41l30 .027" fill="#7fba00"/><path d="M2 41V2h30v39z" opacity=".6" fill="#fff"/><path d="M39 48H5V5h34zM7 46l30 .027V7L7 7.027z" fill="#3999c6"/><path d="M7 7h30v39H7z" fill="#59b4d9"/><path d="M7 7h30v39H7z" opacity=".4" fill="#fff"/><path d="M30.905 17.967l-7.982-4.575a1.94 1.94 0 0 0-1.909.007l-7.926 4.54c-.594.344-2.088.904-2.088 3.652v9.136c0 .708.387 1.357.975 1.676l7.894 4.523c.302.186 1.285.533 2.13.533s1.814-.34 2.107-.515l7.9-4.53A1.93 1.93 0 0 0 33 30.728V21.65c0-2.806-1.5-3.346-2.095-3.683z" opacity=".5" fill="#3999c6"/><path d="M22.025 24.42c-.043-.001-.084-.012-.12-.034l-7.967-4.567a.24.24 0 0 1 0-.415l7.92-4.537c.074-.04.164-.04.238 0l7.97 4.568c.074.043.12.122.118.207s-.044.164-.118.207l-7.916 4.536a.25.25 0 0 1-.123.035" fill="#fff"/><path d="M20.88 35.52a.22.22 0 0 1-.121-.032l-7.943-4.552c-.077-.04-.124-.12-.124-.208v-9.136a.24.24 0 0 1 .123-.208.24.24 0 0 1 .243 0L21 25.935a.25.25 0 0 1 .117.21v9.136c0 .085-.045.164-.117.208a.27.27 0 0 1-.12.031m2.25 0c-.044 0-.087-.01-.125-.032a.24.24 0 0 1-.116-.208v-9.078a.25.25 0 0 1 .116-.208l7.942-4.55c.074-.043.165-.043.24 0s.122.12.122.207v9.077c0 .086-.047.166-.122.208l-7.94 4.552a.22.22 0 0 1-.117.032" fill="#3999c6"/><g fill="#fff"><path d="M20.88 35.52a.22.22 0 0 1-.121-.032l-7.943-4.552c-.077-.04-.124-.12-.124-.208v-9.136a.24.24 0 0 1 .123-.208.24.24 0 0 1 .243 0L21 25.935a.25.25 0 0 1 .117.21v9.136c0 .085-.045.164-.117.208a.27.27 0 0 1-.12.031" opacity=".8"/><path d="M23.13 35.52c-.044 0-.087-.01-.125-.032a.24.24 0 0 1-.116-.208v-9.078a.25.25 0 0 1 .116-.208l7.942-4.55c.074-.043.165-.043.24 0s.122.12.122.207v9.077c0 .086-.047.166-.122.208l-7.94 4.552a.22.22 0 0 1-.117.032" opacity=".6"/></g><path d="M42 29l8 6-8 6z" fill="#804998"/><path d="M37 39.087l2-.37V31.76a19.8 19.8 0 0 0-2 .411z" opacity=".4" fill="#fff"/><path d="M42 37.506c-8 0-13 3.994-14 5.494 0-6.735 7-10.475 14-10.475z" fill="#804998"/></svg>