<svg xmlns="http://www.w3.org/2000/svg" width="50" height="50"><path fill="#a0a1a2" d="M48 0H2C.9 0 0 .9 0 2v46c0 1.1.9 2 2 2h46c1.1 0 2-.9 2-2V2c0-1.1-.9-2-2-2z"/><path fill="#0072c6" d="M25 21.9c3.3 0 6.5 1.3 8.9 3.7 4.9 4.9 4.9 12.8 0 17.7-2.4 2.4-5.5 3.7-8.9 3.7-3.3 0-6.5-1.3-8.9-3.7-.8-.8-.8-2.1 0-3 .8-.8 2.1-.8 3 0 1.6 1.6 3.7 2.4 5.9 2.4s4.3-.9 5.9-2.4c3.3-3.3 3.3-8.6 0-11.8-1.6-1.6-3.7-2.4-5.9-2.4s-4.3.9-5.9 2.4c-.8.8-2.1.8-3 0-.8-.8-.8-2.1 0-3 2.4-2.3 5.6-3.6 8.9-3.6z"/><circle fill="#68217a" cx="24.9" cy="34.5" r="4.5"/><path fill="#fff" d="M26.3 13.6L33.2 7v3.6l-8.3 8.8-8.3-8.8V7.1l6.8 6.5V0h2.9z"/><path fill="#68217a" d="M23.5 32.2H0v4.2h23.5c1.2 0 2.1-.9 2.1-2.1s-.9-2.1-2.1-2.1z"/><path fill="#0072c6" d="M50 32.2H35.7c-1.2 0-2.1.9-2.1 2.1s.9 2.1 2.1 2.1H50v-4.2z"/><path fill="#fff" d="M2 0C.9 0 0 .9 0 2v46c0 1.1.9 2 2 2h2.2L43.6 0H2z" opacity=".2"/></svg>