<svg xmlns="http://www.w3.org/2000/svg" width="44.494" height="44.493"><path d="M22.247 0A22.25 22.25 0 0 0 0 22.247a22.25 22.25 0 0 0 22.247 22.246 22.25 22.25 0 0 0 22.247-22.246C44.494 9.96 34.533 0 22.247 0zm-1.543 7.913c.652-.66 1.44-.99 2.37-.99.94 0 1.737.33 2.4.99a3.26 3.26 0 0 1 .976 2.378 3.21 3.21 0 0 1-.987 2.369c-.66.65-1.453.977-2.38.977s-1.717-.326-2.37-.977-.978-1.442-.978-2.37.326-1.72.978-2.378zm7.865 29.165H17.597v-.782c.898-.03 1.564-.3 2-.782.29-.333.434-1.217.434-2.65V21c0-1.433-.166-2.35-.498-2.748s-.98-.627-1.935-.684v-.804h8.517v16.098c0 1.434.166 2.35.5 2.75s.985.626 1.956.684z" fill="#59b4d9"/></svg>