<svg xmlns="http://www.w3.org/2000/svg" width="44.494" height="44.493"><path d="M44.494 22.247a22.25 22.25 0 0 1-22.247 22.246A22.25 22.25 0 0 1 0 22.247 22.25 22.25 0 0 1 22.247 0c12.286 0 22.247 9.96 22.247 22.247" fill="#3999c6"/><path d="M22.247 0C9.96 0 0 9.96 0 22.247c0 5.266 1.84 10.096 4.897 13.906l32.77-29.92C33.667 2.382 28.24 0 22.247 0" fill="#59b4d9"/><path d="M26.114 16.765v16.098c0 1.434.166 2.35.5 2.75s.985.626 1.956.684v.782H17.597v-.782c.898-.03 1.564-.3 2-.782.3-.333.434-1.217.434-2.65V21c0-1.433-.166-2.35-.498-2.748s-.98-.627-1.935-.684v-.804zm-3.04-9.84a3.27 3.27 0 0 1 2.4.99 3.26 3.26 0 0 1 .976 2.378 3.21 3.21 0 0 1-.987 2.369 3.27 3.27 0 0 1-2.38.977 3.23 3.23 0 0 1-2.37-.977 3.22 3.22 0 0 1-.978-2.37c0-.928.326-1.72.978-2.378a3.21 3.21 0 0 1 2.37-.99" fill="#fff"/></svg>