<svg xmlns="http://www.w3.org/2000/svg" width="50" height="50" fill="#59b4d9"><path fill-rule="evenodd" d="M13.796 14.204l7.51-5.84v11.682l-7.51-5.84zM2.84 18.466V9.943l4.26 4.26-4.26 4.262zM21.307 0L10.034 11.273 2.84 5.682 0 7.102v14.205l2.84 1.42 7.193-5.59L21.307 28.41l7.102-2.84V2.84L21.307 0z"/><path d="M45.694 25.26l-3.977-1.068-1.057-3.977 4.057-4.057c-2.398-.648-5.068-.034-6.943 1.852-1.898 1.886-2.5 4.568-1.84 6.977L24.99 35.932c-2.41-.66-5.09-.045-6.99 1.84-1.875 1.875-2.49 4.546-1.84 6.943l4.057-4.057 3.977 1.057 1.057 3.977-4.057 4.057c2.398.648 5.068.034 6.943-1.852 1.977-1.966 2.557-4.807 1.74-7.296l10.727-10.727c2.49.818 5.33.24 7.307-1.74 1.875-1.875 2.49-4.546 1.84-6.943l-4.056 4.068z"/></svg>