<svg xmlns="http://www.w3.org/2000/svg" width="47.8" height="47.8"><circle cx="23.9" cy="23.9" r="23.9" fill="#0072c6"/><circle cx="23.9" cy="23.9" r="21" opacity=".8" fill="#fff"/><g fill="#3999c6"><path d="M24.8 19.3v-5h-2.5v5c0 .9-.8 1.7-2.1 2.1l-3.4.7c-2.3.7-3.9 2.5-3.9 4.5v5.7h2.5v-5.7c0-.9.8-1.7 2.1-2.1l3.4-.8c2.3-.6 3.9-2.4 3.9-4.4z"/><path d="M23 19.3v-5h2.5v5c0 .9.8 1.7 2.1 2.1l3.4.7c2.3.7 3.9 2.5 3.9 4.5v5.7h-2.5v-5.7c0-.9-.8-1.7-2.1-2.1l-3.4-.8c-2.3-.6-3.9-2.4-3.9-4.4z"/></g><path d="M18.5 34.9v-4.6c0-1.1-.9-2-2-2h-4.6c-1.1 0-2 .9-2 2v4.6c0 1.1.9 2 2 2h4.6c1.1 0 2-.9 2-2zm10.8.2v-4.6c0-1.1.9-2 2-2h4.6c1.1 0 2 .9 2 2v4.6c0 1.1-.9 2-2 2h-4.6c-1.1 0-2-.9-2-2z" fill="#7fba00"/><path d="M25.89 9.91v3.978H21.91V9.91h3.978m.86-3.01h-5.7a2.16 2.16 0 0 0-2.15 2.151v5.7a2.16 2.16 0 0 0 2.151 2.15h5.7a2.16 2.16 0 0 0 2.15-2.151v-5.7a2.16 2.16 0 0 0-2.151-2.15z" fill="#804998"/><path d="M21.9 9.9h4v4h-4z" fill="#fff"/></svg>