<svg xmlns="http://www.w3.org/2000/svg" width="48" height="49.9"><path d="M46.677 34.9H1.323C.592 34.9 0 35.492 0 36.223v12.354c0 .73.592 1.323 1.323 1.323h45.354c.73 0 1.323-.592 1.323-1.323V36.223c0-.728-.595-1.323-1.323-1.323z" fill="#7a7a7a"/><path d="M41 37.9h3v3h-3zm0 6h3v3h-3z" fill="#b8d432"/><path d="M41.492 14.737a11.05 11.05 0 0 0 .581-3.522C42.073 5.02 36.98 0 30.697 0c-4.75 0-8.808 2.876-10.51 6.954-1.5-1.595-3.66-2.563-6.047-2.563C9.572 4.39 5.9 8 5.9 12.514c0 .8.12 1.604.337 2.335C2.678 16.18.1 19.563.1 23.562c0 5.15 4.205 9.338 9.4 9.338h29c5.208 0 9.402-4.182 9.402-9.338.01-4.11-2.674-7.6-6.41-8.825z" fill="#59b4d9"/><path d="M3.325 28.792c0-4.066 2.703-7.507 6.436-8.86-.23-.743-.353-1.56-.353-2.374 0-4.58 3.85-8.26 8.64-8.26 2.503 0 4.758.984 6.34 2.606 1.785-4.146 6.04-7.07 11.022-7.07 1.996 0 3.876.47 5.53 1.3C39.095 2.504 35.202 0 30.697 0c-4.75 0-8.808 2.79-10.51 6.742-1.5-1.547-3.66-2.485-6.047-2.485-4.567 0-8.238 3.51-8.238 7.876 0 .776.12 1.555.337 2.264-3.56 1.3-6.138 4.57-6.138 8.45 0 2.74 1.27 5.2 3.27 6.86a9.22 9.22 0 0 1-.046-.915z" opacity=".2" fill="#fff"/><path d="M40.433 24.996a3.71 3.71 0 0 0-3.473-2.37c-.465 0-.922.086-1.357.257-.12.047-.224.115-.337.173l-3.688-3.548A5.46 5.46 0 0 0 32 17.4a5.51 5.51 0 0 0-5.5-5.5 5.48 5.48 0 0 0-3.787 1.521l-2.002-1.247c.05-.564-.016-1.135-.23-1.677-.563-1.44-1.926-2.37-3.472-2.37-.465 0-.922.086-1.357.257-1.914.75-2.86 2.916-2.113 4.83.563 1.44 1.927 2.37 3.472 2.37.466 0 .923-.086 1.358-.257.298-.117.566-.28.818-.46l1.975 1.23A5.45 5.45 0 0 0 21 17.4a5.47 5.47 0 0 0 .276 1.71l-3.855 2.424a3.17 3.17 0 0 0-1.601-.438 3.16 3.16 0 0 0-1.159.22 3.19 3.19 0 0 0-1.804 4.123c.48 1.23 1.645 2.022 2.963 2.022.397 0 .788-.074 1.16-.22 1.28-.5 2.04-1.744 2.01-3.044l4.038-2.54a5.48 5.48 0 0 0 1.695.939L22.116 38.14C20.314 38.73 19 40.405 19 42.4c0 2.48 2.02 4.5 4.5 4.5s4.5-2.02 4.5-4.5c0-1.913-1.205-3.54-2.892-4.2l2.596-15.447a5.48 5.48 0 0 0 1.926-.846l3.712 3.572c-.172.716-.14 1.488.148 2.224a3.71 3.71 0 0 0 3.472 2.37c.465 0 .922-.086 1.357-.257 1.914-.75 2.862-2.916 2.114-4.83z" opacity=".2" fill="#00188f"/><path d="M39.5 25.36a2.73 2.73 0 0 0-3.534-1.546 2.71 2.71 0 0 0-.825.518l-4.796-4.628c.406-.676.654-1.458.654-2.304a4.5 4.5 0 0 0-4.5-4.5c-1.476 0-2.775.72-3.595 1.82l-3.3-2.055a2.7 2.7 0 0 0-.052-1.802 2.73 2.73 0 0 0-3.534-1.546 2.73 2.73 0 0 0-1.546 3.534 2.73 2.73 0 0 0 3.534 1.546 2.71 2.71 0 0 0 1.072-.777l3.274 2.04A4.45 4.45 0 0 0 22 17.4c0 .76.207 1.468.54 2.096l-5.17 3.25a2.18 2.18 0 0 0-3.584 2.328 2.18 2.18 0 0 0 2.827 1.237c1.053-.412 1.594-1.55 1.296-2.616l5.252-3.302c.688.767 1.63 1.29 2.698 1.443L23.297 38.92C21.46 39.028 20 40.537 20 42.4a3.5 3.5 0 1 0 7 0c0-1.662-1.16-3.046-2.714-3.404l2.57-17.132c1.1-.088 2.096-.55 2.83-1.288L34.5 25.21c-.3.65-.35 1.416-.068 2.137a2.73 2.73 0 0 0 3.534 1.546c1.403-.55 2.094-2.13 1.545-3.534z" fill="#fff"/></svg>