<svg xmlns="http://www.w3.org/2000/svg" width="31.003" height="50.001"><path d="M29.337 19.525a5.69 5.69 0 0 0 0-8.045l-9.812-9.813a5.69 5.69 0 0 0-8.046 0L1.666 11.48a5.69 5.69 0 0 0 0 8.045l8.633 8.633V44.8L15.5 50l4.52-4.52v-.033l2.652-2.653-2.63-2.63 2.63-2.63-2.63-2.63 2.63-2.63-2.652-2.653v-.784zM15.502 4.04a3.23 3.23 0 0 1 3.229 3.229 3.23 3.23 0 0 1-3.229 3.229 3.23 3.23 0 0 1-3.229-3.229 3.23 3.23 0 0 1 3.229-3.229z" fill="#fcd116"/><path d="M14.758 30.008l-2.03-1V43.96l2.03 2z" opacity=".4" fill="#ff8c00"/><path d="M5.868 13.616h18.64v2.68H5.868zm0 4.36h18.64v2.68H5.868z" opacity=".5" fill="#fff"/></svg>