<svg xmlns="http://www.w3.org/2000/svg" width="21" height="22"><path d="M10.5 0C7.5 0 5 2.5 5 5.5 5 8 6.6 10 8.7 10.7L7.5 12 9 13.3l-1.5 1.4L9 16l-1.5 1.5 3 2.8 2.5-2.6v-7.3c1.8-1 3-2.8 3-5 0-3-2.5-5.4-5.5-5.4zm1 4s-.2 0-.3.2-.2.2-.3.2H10l-.2-.2-.2-.3V3l.2-.2.3-.2h.9l.2.2.2.3V4z" fill="#fcd116"/><path d="M11 11v7.2l1-1v-6.4a5.5 5.5 0 0 1-1 .2z" opacity=".4" fill="#ff8c00"/><path d="M10.5 9A3.5 3.5 0 0 0 14 6H7a3.5 3.5 0 0 0 3.5 3z" opacity=".4" fill="#fff"/><path d="M16.4 2.8c.3.6.4 1 .5 1.7a9.5 9.5 0 0 1 3 7c0 5.2-4.3 9.5-9.5 9.5S1 16.7 1 11.5a9.5 9.5 0 0 1 3-7l.6-1.7A10.5 10.5 0 0 0 0 11.5a10.5 10.5 0 1 0 21 0c0-3.6-1.8-6.8-4.6-8.7z" fill="#7fba00"/></svg>