<svg xmlns="http://www.w3.org/2000/svg" width="50" height="30.3"><path d="M6.2 0H50v22.7H6.2z" fill="#7a7a7a"/><path d="M10.3 3.8H46v3.8H10.3zm31 5.9h4.5v3.8h-4.5zm-24.5 0h22.3v3.8H16.8zm3 6.1h16.5v3.8H19.8zm18.9 0H46v3.8h-7.3zm-28.4 0h7.3v3.8h-7.3zm0-6.1h4.3v3.8h-4.3z" opacity=".6" fill="#e5e5e5"/><path d="M26.7 0H50L6.2 22.7V0z" opacity=".25" fill="#fff"/><path d="M.8 14.3H16v15.2H.8z" fill="#7fba00"/><path d="M15.2 15.2v13.5H1.7V15.2h13.5m1.6-1.7H0v16.8h16.8zm-4.3 11l-6.7-6.8h6.7z" fill="#fff"/></svg>