<svg xmlns="http://www.w3.org/2000/svg" width="44.8" height="50"><path d="M44.8 27.6c0-7.3-3.5-13.7-8.8-17.8v.7c0 2.2-.6 4.3-1.5 6.1 2.6 2.9 4.2 6.7 4.2 10.9 0 9-7.3 16.3-16.3 16.3S6.1 36.5 6.1 27.5C6.1 23 7.9 19 10.8 16c-.8-1.7-1.3-3.6-1.3-5.6 0-.4 0-.9.1-1.3C3.8 13.1 0 19.9 0 27.5 0 40 10 50 22.4 50s22.4-10 22.4-22.4z" fill="#7fba00"/><path d="M22.7 0C17 0 12.4 4.6 12.4 10.3c0 4.7 3.1 8.6 7.4 9.9v10.2H15v5.2h4.8v3.8h5.7V20.1c4.3-1.2 7.4-5.2 7.4-9.9C33 4.6 28.4 0 22.7 0zm0 5.4a4.91 4.91 0 0 1 4.9 4.9 4.91 4.91 0 0 1-4.9 4.9 4.91 4.91 0 0 1-4.9-4.9 4.91 4.91 0 0 1 4.9-4.9z" fill="#fcd116"/></svg>