<svg xmlns="http://www.w3.org/2000/svg" viewBox="0 174.752 722.846 701.966" width="722.846" height="701.966"><path d="M358.817 175.03a48.37 48.37 0 0 0-18.415 4.66L89.118 299.758c-13.175 6.292-22.744 18.19-26 32.33l-61.994 269.7c-2.892 12.554-.54 25.735 6.524 36.54.848 1.308 1.76 2.573 2.732 3.792L184.3 858.375c9.12 11.335 22.947 17.936 37.57 17.933l278.923-.064c14.616.01 28.443-6.577 37.57-17.9l173.865-216.287c9.125-11.34 12.543-26.187 9.288-40.333l-62.1-269.7c-3.255-14.14-12.825-26.04-26-32.33L382.117 179.69a48.39 48.39 0 0 0-23.3-4.66z" fill="#326ce5"/><path d="M361.307 266.813c-8.306.001-15.04 7.483-15.04 16.712 0 .142.03.277.032.418-.012 1.254-.073 2.765-.032 3.857.198 5.323 1.358 9.397 2.057 14.3 1.265 10.497 2.325 19.198 1.67 27.285-.636 3.05-2.883 5.84-4.885 7.777l-.354 6.363c-9.026.748-18.113 2.117-27.188 4.178-39.053 8.867-72.678 28.984-98.277 56.145-1.66-1.133-4.567-3.218-5.43-3.857-2.685.363-5.4 1.19-8.934-.868-6.73-4.53-12.86-10.785-20.28-18.318-3.4-3.604-5.86-7.035-9.898-10.51-.917-.79-2.317-1.856-3.342-2.667-3.157-2.517-6.88-3.83-10.477-3.953-4.624-.158-9.075 1.65-11.987 5.303-5.178 6.495-3.52 16.422 3.696 22.175.073.058.15.104.225.16.992.804 2.206 1.834 3.117 2.507 4.285 3.164 8.2 4.784 12.47 7.295 8.995 5.555 16.453 10.162 22.368 15.715 2.3 2.462 2.714 6.8 3.02 8.677l4.82 4.306c-25.806 38.836-37.75 86.807-30.69 135.685l-6.3 1.832c-1.66 2.144-4.006 5.517-6.46 6.524-7.74 2.438-16.45 3.333-26.964 4.435-4.937.4-9.196.166-14.43 1.157-1.152.218-2.757.636-4.017.932-.044.01-.085.022-.13.032-.07.016-.16.05-.225.064-8.865 2.142-14.56 10.3-12.727 18.318s10.493 12.913 19.41 10.99c.064-.015.158-.017.225-.032.1-.023.19-.072.29-.096 1.243-.273 2.8-.577 3.89-.868 5.145-1.378 8.872-3.402 13.498-5.174 9.952-3.57 18.194-6.55 26.224-7.713 3.354-.263 6.887 2.07 8.645 3.053l6.556-1.125c15.087 46.775 46.704 84.58 86.74 108.304l-2.732 6.556c.985 2.546 2.07 6 1.337 8.504-2.92 7.57-7.92 15.56-13.614 24.47-2.757 4.116-5.58 7.3-8.067 12.02-.595 1.127-1.354 2.858-1.928 4.05-3.866 8.27-1.03 17.797 6.395 21.372 7.472 3.597 16.747-.197 20.76-8.484.006-.012.026-.02.032-.032s-.004-.023 0-.032c.572-1.175 1.382-2.72 1.864-3.824 2.13-4.882 2.84-9.065 4.34-13.787 3.98-9.996 6.166-20.485 11.644-27.02 1.5-1.8 3.946-2.478 6.48-3.157l3.407-6.17c34.902 13.397 73.97 16.992 112.996 8.13 8.903-2.02 17.498-4.638 25.807-7.777l3.214 5.785c2.577.838 5.39 1.27 7.68 4.66 4.1 7.002 6.902 15.286 10.316 25.292 1.5 4.722 2.24 8.905 4.37 13.787.486 1.113 1.292 2.68 1.864 3.857 4.005 8.314 13.3 12.12 20.793 8.516 7.425-3.577 10.263-13.102 6.395-21.372l-1.96-4.05c-2.488-4.7-5.31-7.872-8.067-11.987-5.695-8.908-10.417-16.308-13.337-23.878-1.22-3.904.206-6.333 1.157-8.87-.57-.653-1.788-4.34-2.507-6.074 41.607-24.567 72.295-63.783 86.707-109.075 1.946.306 5.33.904 6.428 1.125 2.262-1.492 4.342-3.438 8.42-3.117 8.03 1.16 16.272 4.144 26.224 7.713 4.626 1.772 8.352 3.83 13.498 5.206 1.088.29 2.645.563 3.89.836.1.024.19.073.29.096.067.015.16.017.225.032 8.92 1.92 17.58-2.96 19.41-10.99s-3.86-16.18-12.727-18.318c-1.3-.293-3.118-.79-4.37-1.028-5.234-.99-9.493-.747-14.43-1.157-10.515-1.102-19.225-1.998-26.964-4.435-3.155-1.224-5.4-4.98-6.492-6.524l-6.074-1.768c3.15-22.784 2.3-46.496-3.15-70.22-5.5-23.946-15.22-45.847-28.185-65.143l5.335-4.79c.244-2.7.034-5.528 2.828-8.516 5.915-5.554 13.373-10.16 22.368-15.715 4.27-2.512 8.216-4.13 12.502-7.295.97-.716 2.292-1.85 3.3-2.667 7.215-5.755 8.876-15.682 3.696-22.175s-15.217-7.105-22.432-1.35c-1.027.813-2.42 1.874-3.342 2.667-4.038 3.474-6.532 6.905-9.93 10.51-7.417 7.534-13.548 13.82-20.28 18.35-2.917 1.698-7.19 1.1-9.127.996l-5.72 4.08c-32.62-34.205-77.032-56.074-124.855-60.322l-.354-6.717c-1.958-1.873-4.323-3.473-4.917-7.52-.654-8.087.438-16.788 1.703-27.285.698-4.904 1.86-8.978 2.057-14.3.045-1.2-.027-2.966-.032-4.274-.001-9.23-6.734-16.712-15.04-16.712zm-18.833 116.66l-4.467 78.898-.32.16c-.3 7.058-6.11 12.694-13.24 12.694-2.922 0-5.618-.938-7.81-2.54l-.13.064-64.693-45.86c19.883-19.55 45.315-34 74.624-40.654 5.354-1.216 10.705-2.118 16.037-2.764zm37.698 0c34.22 4.21 65.864 19.703 90.114 43.45l-64.275 45.57-.225-.096c-5.705 4.167-13.743 3.133-18.2-2.442a13.17 13.17 0 0 1-2.892-7.681l-.064-.032zM228.354 456.36l59.07 52.834-.064.32c5.332 4.635 6.118 12.678 1.67 18.254a13.26 13.26 0 0 1-6.877 4.531l-.064.257-75.716 21.854c-3.854-35.238 4.45-69.493 21.982-98.052zm265.49.032c8.777 14.225 15.423 30.114 19.38 47.34 3.91 17.018 4.9 34.006 3.278 50.424l-76.102-21.918-.064-.32a13.27 13.27 0 0 1-9.416-15.747 13.15 13.15 0 0 1 4.21-7.038l-.032-.16 58.748-52.577zM349.19 513.277h24.2l15.04 18.8-5.4 23.46-21.725 10.445-21.79-10.477-5.4-23.46zm77.58 64.34c1.028-.052 2.052.04 3.053.225l.13-.16 78.32 13.24c-11.462 32.203-33.395 60.1-62.7 78.77l-30.402-73.435.096-.13a13.28 13.28 0 0 1 6.428-17.194c1.645-.792 3.364-1.23 5.078-1.318zm-131.54.32c5.977.084 11.338 4.232 12.727 10.316.65 2.848.334 5.67-.74 8.163l.225.29-30.08 72.695c-28.124-18.047-50.525-45.07-62.508-78.223l77.645-13.176.13.16c.868-.16 1.75-.237 2.603-.225zm65.593 31.848c2.082-.077 4.195.35 6.203 1.318 2.632 1.268 4.666 3.263 5.945 5.656h.29l38.276 69.16a158.64 158.64 0 0 1-15.298 4.274c-29.273 6.646-58.453 4.633-84.876-4.37l38.18-69.032h.064c2.29-4.283 6.636-6.838 11.216-7.006z" fill="#fff" stroke="#fff" stroke-width=".257"/></svg>