<svg xmlns="http://www.w3.org/2000/svg" xmlns:xlink="http://www.w3.org/1999/xlink" width="49.992" height="36.926"><style><![CDATA[.B{fill:#804998}.C{fill:#68217a}]]></style><path d="M22.883 9.412l-7.647 2.92V0l7.647 2.708z" class="B"/><path d="M8.28 2.028v8.1l5.728 2.18V0zM8.91 9.54l-.312-.097V2.737l.312-.088.328-.092.35-.098V9.75l-.35-.108zm1.436.445l-.392-.12v-7.5l1.25-.352v8.25l-.444-.138zm1.84.57l-.508-.157V1.87l.508-.143 1.128-.318v9.496l-.586-.18z" class="C"/><path d="M40.783 9.412l-7.648 2.92V0l7.648 2.708z" class="B"/><path d="M26.18 2.028v8.1l5.728 2.18V0zm.627 7.513l-.312-.097V2.737l.312-.088.328-.092.35-.098V9.75l-.35-.108zm1.436.445l-.392-.12v-7.5l1.25-.352v8.25l-.444-.138zm1.84.57l-.508-.157V1.87l.508-.143 1.128-.318v9.496l-.586-.18z" class="C"/><path d="M22.883 34.006l-7.647 2.92V24.593l7.647 2.71z" class="B"/><path d="M8.28 26.622v8.1l5.728 2.18V24.593zm.628 7.513l-.312-.097V27.33l.312-.088.328-.092.35-.098v7.292l-.35-.108zm1.436.444l-.392-.12v-7.51l.392-.11.86-.242v8.25l-.444-.138zm1.84.57l-.508-.157v-8.53l.508-.143 1.128-.318v9.496l-.586-.18z" class="C"/><path d="M40.783 34.006l-7.648 2.92V24.593l7.648 2.71z" class="B"/><path d="M26.18 26.622v8.1l5.728 2.18V24.593zm.627 7.513l-.312-.097V27.33l.312-.088.328-.092.35-.098v7.292l-.35-.108zm1.436.444l-.392-.12v-7.51l.392-.11.86-.242v8.25l-.444-.138zm1.84.57l-.508-.157v-8.53l.508-.143 1.128-.318v9.496l-.586-.18z" class="C"/><path d="M32.41 21.673l-7.648 2.92V12.26l7.648 2.708z" class="B"/><use xlink:href="#B" class="C"/><path d="M14.602 21.673l-7.648 2.92V12.26l7.648 2.708z" class="B"/><path d="M0 14.29v8.1l5.728 2.18V12.26zm.627 7.513l-.312-.097v-6.707l.312-.088.328-.092.35-.098v7.292l-.35-.108zm1.436.445l-.392-.12v-7.51l.807-.227.445-.127v8.25l-.444-.138zm1.84.57l-.508-.157V14.13l.508-.143 1.128-.318v9.496l-.586-.18z" class="C"/><path d="M49.992 21.673l-7.648 2.92V12.26l7.648 2.708z" class="B"/><use xlink:href="#B" x="17.593" class="C"/><defs ><path id="B" d="M17.807 14.29v8.1l5.728 2.18V12.26zm.627 7.513l-.312-.097v-6.707l.312-.088.328-.092.35-.098v7.292l-.35-.108zm1.436.445l-.392-.12v-7.51l1.25-.352v8.25l-.444-.138zm1.84.57l-.508-.157V14.13l.508-.143 1.128-.318v9.496l-.586-.18z"/></defs></svg>