<svg xmlns="http://www.w3.org/2000/svg" width="40.933" height="50"><path d="M9.5 14.8l25.6 25.6c4 4 3.8 9.5 3.8 9.5s-5.9-.2-9.5-3.8L3.8 20.5z" fill="#afafaf"/><path d="M40.7.2c-.4 1.4-1.5 2.6-3 3.1-.4.1-.9.2-1.3.2l-2.5-.7-2.2-.6-.5-.1a1.37 1.37 0 0 0-1.7 1 1.37 1.37 0 0 0 1 1.7l4.2 1.1.9.2c.7.1 1.5.1 2.2-.2.6-.2 1.1-.5 1.6-.9 1.3-1.1 1.9-3 1.3-4.8z" fill="#999"/><path d="M33.1 11.9a1.37 1.37 0 0 1-1.7-1l-1.9-7.1a1.37 1.37 0 0 1 1-1.7 1.37 1.37 0 0 1 1.7 1l1.9 7.1c.2.7-.3 1.5-1 1.7z" fill="#e5e5e5"/><path d="M24.2 8.3a1.37 1.37 0 0 0 1 1.7l7.1 1.9a1.37 1.37 0 0 0 1.7-1 1.37 1.37 0 0 0-1-1.7l-7.1-1.9c-.7-.2-1.5.3-1.7 1z" fill="#999"/><path d="M27.8 17.1a1.37 1.37 0 0 1-1.7-1L24.2 9a1.37 1.37 0 0 1 1-1.7 1.37 1.37 0 0 1 1.7 1l1.9 7.1c.2.8-.2 1.5-1 1.7z" fill="#e5e5e5"/><path d="M19 13.5a1.37 1.37 0 0 0 1 1.7l7.1 1.9a1.37 1.37 0 0 0 1.7-1 1.37 1.37 0 0 0-1-1.7l-7.1-1.9c-.7-.1-1.5.3-1.7 1z" fill="#999"/><path d="M22.6 22.4a1.37 1.37 0 0 1-1.7-1L19 14.3a1.37 1.37 0 0 1 1-1.7 1.37 1.37 0 0 1 1.7 1l1.9 7.1c.2.7-.3 1.5-1 1.7z" fill="#e5e5e5"/><path d="M13.7 18.8a1.37 1.37 0 0 0 1 1.7l7.1 1.9a1.37 1.37 0 0 0 1.7-1 1.37 1.37 0 0 0-1-1.7l-7.1-1.9a1.37 1.37 0 0 0-1.7 1z" fill="#999"/><path d="M17.4 27.6a1.37 1.37 0 0 1-1.7-1l-1.9-7.1a1.37 1.37 0 0 1 1-1.7 1.37 1.37 0 0 1 1.7 1l1.9 7.1c.2.8-.3 1.5-1 1.7z" fill="#e5e5e5"/><path d="M8.5 24a1.37 1.37 0 0 0 1 1.7l7.1 1.9a1.37 1.37 0 0 0 1.7-1 1.37 1.37 0 0 0-1-1.7L10.2 23c-.7-.2-1.5.3-1.7 1z" fill="#999"/><path d="M14.8 42.6c0 4.1-3.3 7.4-7.4 7.4S0 46.7 0 42.6V7.4C0 3.3 3.3 0 7.4 0s7.4 3.3 7.4 7.4z" fill="#0072c6"/><g fill="#fff"><path d="M0 32.6V7.4C0 3.3 3.3 0 7.4 0s7.4 3.3 7.4 7.4v12.2z" opacity=".1"/><path d="M12.4 27.7c0-.6-.5-1.2-1.2-1.2h-.1c.1-.3.1-.5.1-.8a3.12 3.12 0 0 0-3.1-3.1c-1.4 0-2.5.9-2.9 2.1-.2-.1-.4-.1-.7-.1-1.2 0-2.1 1-2.1 2.1 0 1.2.9 2.1 2.1 2.1h6.8a1.11 1.11 0 0 0 1.1-1.1"/></g></svg>