<svg xmlns="http://www.w3.org/2000/svg" width="50" height="50"><path fill="#7fba00" d="M25 50c-1.232 0-2.392-.48-3.26-1.352L1.35 28.26A4.64 4.64 0 0 1 0 24.999a4.64 4.64 0 0 1 1.351-3.26L21.74 1.35a4.58 4.58 0 0 1 6.522 0L48.648 21.74C49.52 22.607 50 23.766 50 25s-.48 2.392-1.353 3.263L28.262 48.648A4.58 4.58 0 0 1 25.001 50"/><path fill="#fff" d="M45.613 24.66L39 18.048v4.668l-7.016-.006c-.677-2.418-2.573-4.328-4.984-5.02V11h4.613L25 4.387 18.388 11H23v6.69a7.28 7.28 0 0 0-4.981 5.008L11 22.69v-4.618l-6.613 6.613L11 31.298V26.63l7.022.006A7.28 7.28 0 0 0 23 31.632v4.636c-1 .728-2.528 2.258-2.528 4.04a4.52 4.52 0 0 0 4.514 4.5c2.48 0 4.5-2.02 4.5-4.5 0-1.762-1.496-3.274-2.496-4.013v-4.663a7.28 7.28 0 0 0 4.975-4.983l7.025.006v4.618l6.613-6.613z"/><path fill="#59b4d9" d="M25 19.402c-2.9 0-5.258 2.36-5.258 5.258S22.1 29.918 25 29.918s5.258-2.358 5.258-5.258S27.9 19.402 25 19.402z"/><path opacity=".15" fill="#fff" d="M28.262 1.35a4.58 4.58 0 0 0-3.261-1.352c-1.23 0-2.39.48-3.26 1.352L1.352 21.74C.492 22.597 0 23.785 0 25s.492 2.403 1.352 3.26l11.543 11.544L34.6 7.698 28.262 1.35z"/></svg>