<svg xmlns="http://www.w3.org/2000/svg" width="23.156" height="50.001"><g fill="#3e3e3e"><path d="M7.666 38.42c0 2.16 1.752 3.914 3.913 3.914s3.914-1.753 3.914-3.914c0-1.43-.775-2.666-1.92-3.35l-1.193 1.96-.8 1.286-.8-1.286-1.193-1.96c-1.146.684-1.92 1.92-1.92 3.35" opacity=".8"/><path d="M3.668 38.42a7.92 7.92 0 0 0 7.909 7.911c4.363 0 7.912-3.548 7.912-7.91 0-2.896-1.57-5.426-3.895-6.804l-.693 1.2c1.913 1.138 3.203 3.22 3.203 5.604 0 3.6-2.928 6.525-6.527 6.525S5.053 42.02 5.053 38.42c0-2.383 1.29-4.466 3.2-5.604l-.7-1.2c-2.328 1.378-3.896 3.908-3.896 6.804" opacity=".5"/><path d="M17.38 28.417l-.668 1.214c3.02 1.77 5.058 5.044 5.058 8.8 0 5.62-4.574 10.192-10.193 10.192S1.386 44.04 1.386 38.42c0-3.747 2.038-7.02 5.057-8.8l-.667-1.214C2.328 30.424 0 34.15 0 38.42 0 44.806 5.193 50 11.578 50s11.578-5.195 11.578-11.58c0-4.27-2.328-7.996-5.775-10.004" opacity=".2"/></g><path d="M15.492 10.553c0 2.16-1.752 3.914-3.914 3.914s-3.914-1.753-3.914-3.914S9.417 6.64 11.578 6.64s3.914 1.753 3.914 3.914M11.58 0C5.186 0 .006 5.183.006 11.574S11.58 36.532 11.58 36.532s11.574-18.565 11.574-24.958A11.58 11.58 0 0 0 11.579 0" fill="#b8d432"/><path d="M11.58 14.466c-2.16 0-3.913-1.752-3.913-3.913S9.418 6.64 11.58 6.64c1.484 0 2.76.837 3.425 2.056l2.358-7.135C15.66.573 13.688.001 11.58.001 5.186.001.005 5.182.005 11.573c0 3.98 4.484 12.673 7.87 18.672l5.342-16.148c-.5.23-1.05.37-1.638.37" opacity=".2" fill="#fff"/></svg>