<svg xmlns="http://www.w3.org/2000/svg" width="44.992" height="50" viewBox="-10.5 -9.5 44.992 50"><path d="M32.492 35.865h2V-9.5h-41C-7.8-9.333-10.5-6.2-10.5-5.75l.06 43.882A2.37 2.37 0 0 0-8.073 40.5h37.565v-.73z" fill="#0072c6"/><path d="M-4.726-7.5c-1.105 0-1.58.185-2.507 1-2.275 2 .4 2 1.495 2h35.23v44.27l3-3.906V-7.5z" fill="#e5e5e5"/><path d="M32.492-7.5l-3 3v44.27l3-3.906z" opacity=".5" fill="#a0a1a2"/><path d="M20.492 10.5a2 2 0 0 1-2 2h-17a2 2 0 0 1-2-2v-5a2 2 0 0 1 2-2h17a2 2 0 0 1 2 2z" fill="#fff"/></svg>