<svg xmlns="http://www.w3.org/2000/svg" width="44.992" height="50" viewBox="-10.5 -9.5 44.992 50"><path d="M32.492 35.865h2V-9.5h-41C-7.8-9.333-10.5-6.2-10.5-5.75l.06 43.882A2.37 2.37 0 0 0-8.073 40.5h37.565v-.73z" fill="#7fba00"/><path d="M-4.726-7.5c-1.105 0-1.58.185-2.507 1-2.275 2 .4 2 1.495 2h35.23v44.27l3-3.906V-7.5z" fill="#e5e5e5"/><path d="M32.492-7.5l-3 3v44.27l3-3.906z" opacity=".5" fill="#a0a1a2"/><path d="M13.417 29.203l-4.302-17.58-2.24 6.076h-8.382a1.5 1.5 0 1 1 0-3h6.3l4.915-13.32 4.507 18.42 2.197-5.1h7.09a1.5 1.5 0 1 1 0 3h-5.116z" fill="#fff"/></svg>