<svg xmlns="http://www.w3.org/2000/svg" width="50" height="38.8"><path d="M26 15.7v-5h-2.5v5c0 .9-.8 1.7-2.1 2.1l-3.4.7c-2.3.7-3.9 2.5-3.9 4.5v5.7h2.5V23c0-.9.8-1.7 2.1-2.1l3.4-.8c2.3-.6 3.9-2.4 3.9-4.4z" fill="#59b4d9"/><path d="M19.6 31.3v-4.6c0-1.1-.9-2-2-2H13c-1.1 0-2 .9-2 2v4.6c0 1.1.9 2 2 2h4.6c1.1 0 2-.9 2-2z" fill="#7fba00"/><path d="M23.2 15.7v-5h2.5v5c0 .9.8 1.7 2.1 2.1l4.2.9c2.3.7 3.9 2.5 3.9 4.5v5.7h-2.5v-5.7c0-.9-.8-1.7-2.1-2.1l-4.2-.9c-2.3-.7-3.9-2.5-3.9-4.5z" fill="#59b4d9"/><path d="M30.4 31.5v-4.6c0-1.1.9-2 2-2H37c1.1 0 2 .9 2 2v4.6c0 1.1-.9 2-2 2h-4.6c-1.1 0-2-.9-2-2z" fill="#7fba00"/><path d="M23.2 10.7H26v4.8h-2.8z" fill="#59b4d9"/><path d="M26.5 6.1v3.7h-3.7V6.1h3.7m.8-2.8H22c-1.1 0-2 .9-2 2v5.3c0 1.1.9 2 2 2h5.3c1.1 0 2-.9 2-2V5.3c0-1.1-.9-2-2-2z" fill="#0072c6"/><path d="M7.9 38.8c-2.1 0-3.6-.4-4.5-1.1-.9-.8-1.3-2.1-1.3-4V23.3c0-1.7-.7-2.6-2.1-2.6v-2.6c1.4 0 2.1-.9 2.1-2.7V5.2c0-1.9.4-3.3 1.3-4.1S5.8 0 7.9 0v2.6c-1.5 0-2.3.8-2.3 2.5v10c0 2.3-.7 3.7-2.2 4.3 1.4.6 2.2 2 2.2 4.3v9.9c0 .9.2 1.6.5 2 .4.4.9.6 1.7.6l.1 2.6c-.1 0 0 0 0 0zM42.1 0c2.1 0 3.6.4 4.5 1.1.9.8 1.3 2.1 1.3 4v10.4c0 1.7.7 2.6 2.1 2.6v2.6c-1.4 0-2.1.9-2.1 2.7v10.1c0 1.9-.4 3.3-1.3 4.1s-2.4 1.2-4.5 1.2v-2.6c1.5 0 2.3-.8 2.3-2.5v-10c0-2.3.7-3.7 2.2-4.3-1.4-.6-2.2-2-2.2-4.3V5.2c0-.9-.2-1.6-.5-2-.4-.4-.9-.6-1.7-.6L42.1 0z" fill="#59b4d9"/></svg>