<svg xmlns="http://www.w3.org/2000/svg" xmlns:xlink="http://www.w3.org/1999/xlink" width="44.992" height="50" viewBox="-10.5 -9.5 44.992 50"><g fill="#fff"><use xlink:href="#B"/><use xlink:href="#C"/><use xlink:href="#D"/><use xlink:href="#E"/><use xlink:href="#F"/></g><path d="M32.492 35.865h2V-9.5h-41C-7.8-9.333-10.5-6.2-10.5-5.75l.06 43.882A2.37 2.37 0 0 0-8.073 40.5h37.565v-.73z" fill="#ff8c00"/><path d="M-4.726-7.5c-1.105 0-1.58.185-2.507 1-2.275 2 .4 2 1.495 2h35.23v44.27l3-3.906V-7.5z" fill="#e5e5e5"/><path d="M32.492-7.5l-3 3v44.27l3-3.906z" opacity=".5" fill="#a0a1a2"/><g fill="#fff"><use xlink:href="#B"/><use xlink:href="#C"/><use xlink:href="#D"/><use xlink:href="#E"/><use xlink:href="#F"/></g><defs ><path id="B" d="M5.04 17.125a4.9 4.9 0 0 1 1.396-3.428L4.54 11.8c-1.35 1.373-2.183 3.253-2.183 5.325a7.58 7.58 0 0 0 2.229 5.373l1.896-1.896a4.91 4.91 0 0 1-1.442-3.477z"/><path id="C" d="M14.878 17.125c0 1.356-.552 2.586-1.442 3.477l1.896 1.896c1.377-1.377 2.23-3.277 2.23-5.373 0-2.072-.834-3.952-2.183-5.325l-1.896 1.896c.863.887 1.396 2.096 1.396 3.43z"/><path id="D" d="M19.126 17.125a9.14 9.14 0 0 1-2.688 6.479l1.896 1.896c2.146-2.146 3.475-5.108 3.475-8.375a11.81 11.81 0 0 0-3.429-8.327l-1.896 1.896c1.633 1.656 2.642 3.927 2.642 6.43z"/><path id="E" d="M.792 17.125c0-2.503 1-4.775 2.642-6.43L1.538 8.797a11.81 11.81 0 0 0 .046 16.702l1.896-1.896c-1.66-1.66-2.688-3.95-2.688-6.478z"/><path id="F" d="M12.217 14.96a3.12 3.12 0 0 0-4.516 0c-.54.562-.872 1.324-.872 2.164 0 .864.35 1.647.917 2.213s1.35.917 2.213.917 1.647-.35 2.213-.917.917-1.35.917-2.213c0-.84-.333-1.602-.872-2.164z"/></defs></svg>