<svg xmlns="http://www.w3.org/2000/svg" width="18" height="18"><path d="M3.25 2h.3v10h-.3zm11.5 0h.3v10h-.3zM9 2h.3v2H9zm2.88 0h.3v2h-.3zM6.13 2h.3v2h-.3z" fill="#c9c9c9"/><path d="M0 0v13h3.2l.5-1H1V2h16v10h-3.3l.5 1H18V0z" fill="#a0a1a2"/><path d="M11.7 6.94a.78.78 0 0 0 1-.73v-.46a.86.86 0 0 0-.93-.67H6a.83.83 0 0 0-1 .67v.5a.77.77 0 0 0 1 .68V10l-3.22 6.2L4 18h9.5l1.25-1.8L11.7 10z" fill="#59b4d9"/><path d="M12 13.8H8l-1.44 2.37H4.62l3.42-6.1V6.95h1.98v3.12z" fill="#d5ecf6"/><path d="M1 4h16v.3H1zm3.36 3.15H1v-.3h3.07zm12.64 0h-3.74l.32-.3H17zM1 9.71l4-.004v.3l-4 .004zm11.725.29v-.3l4.27.005v.3z" fill="#c9c9c9"/></svg>