<svg xmlns="http://www.w3.org/2000/svg" width="49.017" height="50"><path d="M48.288 44.623L32.72 17.66V6.743H33c1.862 0 3.372-1.5 3.372-3.372S34.863 0 33 0H16.016c-1.862 0-3.372 1.5-3.372 3.372s1.5 3.372 3.372 3.372h.28V17.66L.73 44.623C-.98 47.58.418 50 3.833 50h41.35c3.414 0 4.81-2.42 3.104-5.377z" fill="#59b4d9"/><path d="M35.466 33.017H13.55L7.127 44.143H41.89z" fill="#b8d432"/><g fill="#7fba00"><path d="M25.334 37.532a3.14 3.14 0 0 0 3.141-3.141c0-.493-.117-.958-.32-1.374h-5.643c-.203.415-.32.88-.32 1.374.001 1.735 1.407 3.14 3.142 3.14z"/><circle cx="29.232" cy="39.956" r="1.541"/></g><path d="M.73 44.623l15.568-26.965V6.743h-.28c-1.862 0-3.372-1.5-3.372-3.372A3.37 3.37 0 0 1 16.016 0h7.32v17.572L15.13 50H3.833C.418 50-.98 47.58.73 44.623z" opacity=".25" fill="#fff"/></svg>