<svg xmlns="http://www.w3.org/2000/svg" width="18" height="18"><path d="M8.77 10.25v-3h.1c.47 0 .66-.33.66-1a.78.78 0 0 0-.93-.87H3.08a.78.78 0 0 0-.8.75v.36a.8.8 0 0 0 .83.76h.1v3L0 16.23 1.1 18h9.26l1.3-1.77zM5 13.8l-1.4 2.34H1.7L5 10.25v-3h1.9v3l2 3.54z" fill="#59b4d9"/><path d="M5 13.8l-1.4 2.34H1.7l3.36-5.88v-3H6.9v3l1.97 3.54z" fill="#e5e5e5"/><path d="M11.76 0h-.26a6.85 6.85 0 0 0-5.87 4l-.17.5h1l.17-.5h1.44L8 4.5h1V4h2v2h-.6a3.54 3.54 0 0 1 0 .44 2.9 2.9 0 0 1-.05.56H11v2h-1v1h1v2h-.32l.53 1h.54A6.43 6.43 0 0 0 18 6.5 6.51 6.51 0 0 0 11.76 0zm-4.6 3a5.91 5.91 0 0 1 2.4-2 4.84 4.84 0 0 0-1.27 2zM11 3H9.2A3.7 3.7 0 0 1 11 .83zm6.23 3h-1.76a5.87 5.87 0 0 0-.29-2h1.4a4.82 4.82 0 0 1 .66 2zm-1-3h-1.3a4.82 4.82 0 0 0-1.13-1.94A6.21 6.21 0 0 1 16.22 3zM12 .83A3.26 3.26 0 0 1 13.94 3H12zM12 4h2.3a7 7 0 0 1 .32 2H12zm0 3h2.62a7.14 7.14 0 0 1-.32 2H12zm0 5v-2h2a3.72 3.72 0 0 1-2 2zm1.52 0A6 6 0 0 0 15 10h1.16a6.63 6.63 0 0 1-2.64 2zm3.14-3h-1.48a7.69 7.69 0 0 0 .35-2h1.7a5.94 5.94 0 0 1-.58 2z" fill="#a0a1a2"/></svg>