<svg xmlns="http://www.w3.org/2000/svg" width="23.525" height="24"><path d="M15.525 0c-4.08 0-7.438 3.055-7.93 7h1.012c.115-.776.354-1.512.702-2.185.364.773.862 1.497 1.436 2.185h1.78v.092c.157-.056.324-.092.5-.092a1.5 1.5 0 1 1 0 3c-.176 0-.343-.036-.5-.092V10h-1v.46c.115.087.225.18.353.248a37.18 37.18 0 0 0-.353 1.49v.507l.693 1.228a32.02 32.02 0 0 1 .628-2.952c.06.004.117.018.18.018a2.49 2.49 0 0 0 1.755-.722c.85.466 1.775.86 2.747 1.2 0 .008-.002.015-.002.023a1.5 1.5 0 0 0 1.5 1.5c.56 0 1.042-.3 1.3-.765.22.044.43.106.653.143C19.694 13.974 17.728 15 15.525 15c-1.127 0-2.186-.277-3.13-.752l.792 1.403a7.99 7.99 0 0 0 2.338.349 8 8 0 1 0 0-16zm6.986 7.714a16.86 16.86 0 0 1-2.015-.919c.018-.096.03-.194.03-.295a1.5 1.5 0 0 0-1.5-1.5c-.308 0-.595.094-.833.253-.8-.658-1.5-1.382-2.042-2.162a24.64 24.64 0 0 1 1.247-1.827c2.862.797 4.988 3.366 5.114 6.45zM19.525 6.5a.5.5 0 1 1-1 0 .5.5 0 1 1 1 0zm-4-5.5a7.09 7.09 0 0 1 .802.049c-.26.36-.515.728-.76 1.107a8.29 8.29 0 0 1-.509-1.133c.154-.01.308-.023.466-.023zm-2.022 5.048c-.155-.03-.314-.048-.478-.048-.542 0-1.04.177-1.45.47l.001-.001c-.704-.834-1.263-1.734-1.62-2.694.994-1.307 2.438-2.245 4.097-2.602.228.675.53 1.328.918 1.95-.543.925-1.022 1.912-1.47 2.925zM19.025 12a.5.5 0 1 1 0-1 .5.5 0 1 1 0 1zm2.567-.527a19.9 19.9 0 0 1-1.088-.186C20.4 10.56 19.78 10 19.025 10a1.49 1.49 0 0 0-1.163.564c-.895-.314-1.745-.68-2.528-1.107a2.5 2.5 0 0 0 .191-.957c0-.867-.442-1.63-1.112-2.078.364-.826.752-1.63 1.182-2.393.564.73 1.24 1.406 2.005 2.026-.044.14-.075.29-.075.445a1.5 1.5 0 0 0 1.5 1.5c.372 0 .707-.14.97-.364.773.418 1.594.792 2.466 1.108-.106.984-.396 1.9-.868 2.73z" fill="#a0a1a2"/><path d="M11.525 8h-7v1h1v3.97l-5.28 9.255C-.33 23.184.15 24 1.253 24H14.74c1.152 0 1.584-.768 1.008-1.776l-5.224-9.255V9h1V8z" fill="#59b4d9"/><path d="M11.652 17H4.376l-3.263 5.72c-.072.12-.098.2-.108.246.043.015.12.034.248.034H14.74c.114 0 .196-.012.25-.025a1.08 1.08 0 0 0-.11-.254L11.652 17z" fill="#0072c6"/><g fill="#ecf0f1"><path d="M4.525 9h1v3.97l-5.28 9.255C-.33 23.184.15 24 1.253 24h1.454l5.818-10.667V8h-4v1z" opacity=".25"/><path d="M3.252 23l3.273-6h-2.15l-3.263 5.72c-.072.12-.098.2-.108.246.043.015.12.034.248.034h2z" opacity=".25"/></g></svg>