<svg xmlns="http://www.w3.org/2000/svg" width="23.525" height="24"><g fill="#a0a1a2"><path d="M16.673 6.148l.008.008A1.45 1.45 0 0 0 16.025 6c-.208 0-.403.04-.586.117a1.51 1.51 0 0 0-.477.32c-.136.136-.242.294-.32.477s-.117.378-.117.586a1.49 1.49 0 0 0 .117.586 1.51 1.51 0 0 0 .32.477c.136.136.294.242.477.32s.378.117.586.117.403-.04.586-.117a1.51 1.51 0 0 0 .477-.32 1.48 1.48 0 0 0 .32-.477c.078-.182.117-.378.117-.586a1.45 1.45 0 0 0-.156-.656l.008.008 2.875-2.875-.703-.703zm-.296 1.704a.48.48 0 0 1-.352.148.48.48 0 0 1-.352-.148c-.098-.1-.148-.216-.148-.352s.05-.252.148-.352S15.9 7 16.025 7s.253.05.352.148a.48.48 0 0 1 .148.352c0 .135-.05.253-.148.352zm2.828 2.828l.7.7c.516-.516.9-1.1 1.184-1.785s.4-1.376.4-2.105a5.55 5.55 0 0 0-.12-1.152 5.41 5.41 0 0 0-.364-1.099l-.906.406a4.5 4.5 0 0 1 .406 1.867c0 .6-.114 1.17-.344 1.7a4.51 4.51 0 0 1-.976 1.446zm4.05-5.168a7.7 7.7 0 0 0-.758-1.793 7.48 7.48 0 0 0-1.172-1.52c-.456-.456-.962-.846-1.52-1.172a7.7 7.7 0 0 0-1.793-.758 7.28 7.28 0 0 0-1.987-.27c-.687 0-1.35.1-1.988.27s-1.235.433-1.793.758a7.49 7.49 0 0 0-1.52 1.172c-.456.456-.847.962-1.172 1.52a7.61 7.61 0 0 0-.757 1.792c-.136.48-.203.98-.237 1.488h1a6.4 6.4 0 0 1 .2-1.227 6.62 6.62 0 0 1 .656-1.55 6.47 6.47 0 0 1 1.016-1.316c.396-.396.835-.734 1.316-1.016s1-.5 1.55-.656A6.32 6.32 0 0 1 16.025 1a6.32 6.32 0 0 1 1.727.234 6.62 6.62 0 0 1 1.55.656 6.5 6.5 0 0 1 1.316 1.016c.396.396.734.835 1.016 1.316s.5 1 .656 1.55a6.31 6.31 0 0 1 .234 1.727 6.32 6.32 0 0 1-.234 1.727 6.62 6.62 0 0 1-.656 1.55 6.5 6.5 0 0 1-1.016 1.316c-.396.396-.835.734-1.316 1.016s-1 .5-1.55.656a6.32 6.32 0 0 1-1.727.234 6.32 6.32 0 0 1-1.727-.234 6.62 6.62 0 0 1-1.55-.656 6.51 6.51 0 0 1-1.223-.933v.53l.712 1.262a7.65 7.65 0 0 0 1.799.762c.638.18 1.302.27 2 .27s1.35-.1 1.988-.27 1.235-.432 1.793-.758a7.49 7.49 0 0 0 1.52-1.172c.457-.456.847-.962 1.172-1.52a7.68 7.68 0 0 0 .758-1.793 7.27 7.27 0 0 0 .27-1.987c0-.687-.1-1.35-.27-1.988zm-11.73 5.138a6.17 6.17 0 0 0 .61.74l.7-.7a4.53 4.53 0 0 1-.56-.68h-.76z"/><path d="M16.025 2.016a5.47 5.47 0 0 0-1.469.195 5.51 5.51 0 0 0-1.312.551 5.44 5.44 0 0 0-1.109.855c-.333.333-.62.703-.86 1.11s-.425.844-.555 1.312c-.087.312-.134.635-.163.962h1c.026-.235.064-.466.127-.69.106-.383.258-.74.453-1.074a4.59 4.59 0 0 1 .699-.91c.27-.273.573-.51.906-.707s.7-.35 1.07-.457S15.6 3 16.002 3a4.49 4.49 0 0 1 1.867.406l.406-.906c-.354-.16-.72-.282-1.098-.363s-.76-.12-1.152-.12z"/></g><path d="M11.525 8h-7v1h1v3.97l-5.28 9.255C-.33 23.184.15 24 1.253 24H14.74c1.152 0 1.584-.768 1.008-1.776l-5.224-9.255V9h1z" fill="#59b4d9"/><path d="M11.652 17H4.376l-3.263 5.72c-.072.12-.098.2-.108.246.043.015.12.034.248.034H14.74c.114 0 .196-.012.25-.025a1.08 1.08 0 0 0-.11-.254z" fill="#0072c6"/><g fill="#ecf0f1"><path d="M4.525 9h1v3.97l-5.28 9.255C-.33 23.184.15 24 1.253 24h1.454l5.818-10.667V8h-4z" opacity=".25"/><path d="M3.252 23l3.273-6h-2.15l-3.263 5.72c-.072.12-.098.2-.108.246.043.015.12.034.248.034z" opacity=".25"/></g></svg>