<svg xmlns="http://www.w3.org/2000/svg" width="18.007" height="18"><g fill="#a0a1a2"><path d="M2.95 4.205l.177-.177 1.046 1.047-.176.177zm12.1 5.525h1.67v.3h-1.67zm.055-2.687l1.3-.462.08.226-1.3.462zm-3.463-3.76l.4-1.4.24.07-.4 1.4zM5.4 2.338l.2-.11.585 1.06-.202.1zm3.1-.838h.3v1.67h-.3z"/><path d="M2.95 4.205l.177-.177 1.046 1.047-.176.177zm12.1 5.525h1.67v.3h-1.67zm.055-2.687l1.3-.462.08.226-1.3.462zm-3.463-3.76l.4-1.4.24.07-.4 1.4zM5.4 2.338l.2-.11.585 1.06-.202.1zM10.74 7.2c-.44.52-.64.57-1.65 1.74a2.67 2.67 0 0 1 1.31 1.25l1.67-1.78 3-4.83zm-2.4 3.4l.76 1.26a1.21 1.21 0 0 0 .64-1.07 1.31 1.31 0 0 0-1.4-1.24v1z"/><path d="M15.3 2.58A9.1 9.1 0 0 0 8.94 0 8.94 8.94 0 0 0 0 8.92v1.27A2.15 2.15 0 0 0 1.72 12l.48-.85A1.22 1.22 0 0 1 .81 9.88v-1.6l.3-1.25A8 8 0 0 1 9 .72a8.18 8.18 0 0 1 8.24 8.11V9.9c0 1.3-.85 1.3-1.7 1.3h-5.12c-.1.8-.43.8-.43.8h6.07A1.68 1.68 0 0 0 18 10.19V8.83a8.68 8.68 0 0 0-2.71-6.25z"/></g><path d="M8 11V8.3h.1c.42-.02.6-.3.6-.9a.7.7 0 0 0-.84-.79h-5a.7.7 0 0 0-.72.74v.26a.72.72 0 0 0 .84.68V11l-2.9 5.4 1 1.6h8.36l1.18-1.6zm-3.4 3.2l-1.26 2.1H1.6l3-5.3V8.3h1.7V11l1.78 3.2z" fill="#59b4d9"/><path d="M4.6 14.2l-1.26 2.1H1.6L4.64 11V8.3h1.68V11l1.78 3.2z" fill="#d5ecf6"/></svg>