<svg xmlns="http://www.w3.org/2000/svg" width="23.525" height="24"><path d="M11.525 8h-7v1h1v3.97l-5.28 9.255C-.33 23.184.15 24 1.253 24H14.74c1.152 0 1.584-.768 1.008-1.776l-5.224-9.255V9h1V8z" fill="#59b4d9"/><path d="M11.652 17H4.376l-3.263 5.72c-.072.12-.098.2-.108.246.043.015.12.034.248.034H14.74c.114 0 .196-.012.25-.025a1.08 1.08 0 0 0-.11-.254L11.652 17z" fill="#0072c6"/><g fill="#ecf0f1"><path d="M4.525 9h1v3.97l-5.28 9.255C-.33 23.184.15 24 1.253 24h1.454l5.818-10.667V8h-4v1z" opacity=".25"/><path d="M3.252 23l3.273-6h-2.15l-3.263 5.72c-.072.12-.098.2-.108.246.043.015.12.034.248.034h2z" opacity=".25"/></g><path d="M10.525 6h-2V4h2v2zm0-3h-2V1h2v2zm3 3h-2V4h2v2zm0-3h-2V1h2v2zm3 9h-2v-2h2v2zm0-3h-2V7h2v2zm0-3h-2V4h2v2zm0-3h-2V1h2v2zm3 9h-2v-2h2v2zm0-3h-2V7h2v2zm0-3h-2V4h2v2zm0-3h-2V1h2v2zm1 10h3V0h-16v7h6v2h-1v1h1v2h-2v.707l.166.293h8.834zm2-1h-2v-2h2v2zm0-3h-2V7h2v2zm0-3h-2V4h2v2zm0-3h-2V1h2v2z" fill="#a0a1a2"/></svg>