<svg xmlns="http://www.w3.org/2000/svg" width="47" height="49.851"><path d="M28.194 32.022c.044 0 .087-.01.125-.03l8.08-4.476a.23.23 0 0 0 .125-.204V18.33c-.001-.086-.05-.165-.125-.206s-.17-.04-.247 0l-8.08 4.476c-.074.042-.12.12-.12.205v8.983c0 .086.046.16.12.204.04.02.08.03.12.03m0 11.83c.044 0 .087-.01.125-.03l8.08-4.476a.23.23 0 0 0 .125-.204v-8.982c-.001-.086-.05-.165-.125-.206s-.17-.04-.247 0l-8.08 4.476c-.074.042-.12.12-.12.205v8.983c0 .086.046.16.12.204.04.02.08.03.12.03M38.67 26.107c.044 0 .087-.01.125-.03l8.08-4.476a.23.23 0 0 0 .124-.204v-8.982c-.001-.086-.05-.165-.125-.206s-.17-.04-.247 0l-8.08 4.476c-.074.042-.12.12-.12.205v8.983c0 .086.046.16.12.204a.25.25 0 0 0 .122.031m0 11.83c.044 0 .087-.01.125-.03l8.08-4.476c.076-.04.124-.118.124-.204v-8.982c-.001-.086-.05-.165-.125-.206s-.17-.04-.247 0l-8.08 4.476c-.074.042-.12.12-.12.205V37.7c0 .086.046.16.12.204a.25.25 0 0 0 .122.031" fill="#3999c6"/><path d="M28.194 43.85c.044 0 .087-.01.125-.03l8.08-4.476a.23.23 0 0 0 .125-.204v-8.982c-.001-.086-.05-.165-.125-.206s-.17-.04-.247 0l-8.08 4.476c-.074.042-.12.12-.12.205v8.983c0 .086.046.16.12.204.04.02.08.03.12.03m10.476-5.915c.044 0 .087-.01.125-.03l8.08-4.476c.076-.04.124-.118.124-.204v-8.982c-.001-.086-.05-.165-.125-.206s-.17-.04-.247 0l-8.08 4.476c-.074.042-.12.12-.12.205V37.7c0 .086.046.16.12.204a.25.25 0 0 0 .122.031m-10.476-5.914c.044 0 .087-.01.125-.03l8.08-4.476a.23.23 0 0 0 .125-.204V18.33c-.001-.086-.05-.165-.125-.206s-.17-.04-.247 0l-8.08 4.476c-.074.042-.12.12-.12.205v8.983c0 .086.046.16.12.204.04.02.08.03.12.03m10.476-5.915c.044 0 .087-.01.125-.03l8.08-4.476a.23.23 0 0 0 .124-.204v-8.982c-.001-.086-.05-.165-.125-.206s-.17-.04-.247 0l-8.08 4.476c-.074.042-.12.12-.12.205v8.983c0 .086.046.16.12.204a.25.25 0 0 0 .122.031" opacity=".15" fill="#62117a"/><path d="M25.806 32.022c-.044 0-.087-.01-.125-.03l-8.08-4.476a.23.23 0 0 1-.125-.204V18.33c0-.084.046-.16.125-.206s.17-.04.247 0l8.08 4.476c.075.043.12.12.12.205v8.983c0 .085-.046.163-.12.204-.037.02-.08.03-.12.03m0 11.83c-.044 0-.087-.01-.125-.03l-8.08-4.476a.23.23 0 0 1-.125-.204v-8.982c0-.084.046-.16.125-.206s.17-.04.247 0l8.08 4.476c.075.043.12.12.12.205v8.983c0 .085-.046.163-.12.204-.037.02-.08.03-.12.03M15.33 26.107c-.044 0-.087-.01-.125-.03L7.124 21.6A.23.23 0 0 1 7 21.396v-8.982c0-.084.046-.16.125-.206s.17-.04.247 0l8.08 4.476c.075.043.12.12.12.205v8.983c0 .085-.046.163-.12.204a.25.25 0 0 1-.122.031m0 11.83c-.044 0-.087-.01-.125-.03l-8.08-4.476C7.048 33.4 7 33.31 7 33.225v-8.982c0-.084.046-.16.125-.206s.17-.04.247 0l8.08 4.476c.075.043.12.12.12.205V37.7c0 .085-.046.163-.12.204a.25.25 0 0 1-.122.031m3.5-22.3c.022-.036.053-.065.1-.085l8.03-4.364a.25.25 0 0 1 .243-.002l7.95 4.327c.074.04.12.116.12.2a.24.24 0 0 1-.124.199l-8.03 4.363c-.076.04-.167.04-.242-.002l-7.95-4.328c-.073-.038-.12-.113-.12-.195.001-.04.013-.08.034-.113m-10.47-5.7c.022-.036.052-.065.09-.085L16.4 5.488c.074-.043.166-.043.24-.002l7.862 4.327c.073.04.12.117.118.2s-.05.16-.123.2l-7.942 4.363a.25.25 0 0 1-.239-.002l-7.863-4.328c-.072-.04-.118-.113-.12-.195.001-.04.013-.08.034-.113m21.16.096c.022-.036.052-.065.09-.085l7.942-4.364c.074-.043.166-.043.24-.002l7.862 4.327c.073.04.12.117.118.2s-.05.16-.123.2l-7.942 4.363a.25.25 0 0 1-.239-.002l-7.863-4.328c-.072-.04-.118-.113-.12-.195.001-.04.013-.08.034-.113M18.88 4.41c.022-.035.053-.064.1-.084L27 .032c.075-.042.167-.043.243-.002l7.95 4.257a.22.22 0 0 1 .119.196c-.004.083-.05.157-.124.196L27.16 8.97c-.076.04-.166.038-.242-.002l-7.95-4.257c-.073-.037-.12-.11-.12-.192a.23.23 0 0 1 .034-.111" fill="#59b4d9"/><path d="M18.84 15.636c.022-.036.053-.065.1-.085l8.03-4.364a.25.25 0 0 1 .243-.002l7.95 4.327c.074.04.12.116.12.2a.24.24 0 0 1-.124.199l-8.03 4.363c-.076.04-.167.04-.242-.002l-7.95-4.328c-.073-.038-.12-.113-.12-.195.001-.04.013-.08.034-.113m-10.47-5.7c.022-.036.052-.065.09-.085L16.4 5.488c.074-.043.166-.043.24-.002l7.862 4.327c.073.04.12.117.118.2s-.05.16-.123.2l-7.942 4.363a.25.25 0 0 1-.239-.002l-7.863-4.328c-.072-.04-.118-.113-.12-.195.001-.04.013-.08.034-.113m21.16.096c.022-.036.052-.065.09-.085l7.942-4.364c.074-.043.166-.043.24-.002l7.862 4.327c.073.04.12.117.118.2s-.05.16-.123.2l-7.942 4.363a.25.25 0 0 1-.239-.002l-7.863-4.328c-.072-.04-.118-.113-.12-.195.001-.04.013-.08.034-.113M18.88 4.41c.022-.035.053-.064.1-.084L27 .032c.075-.042.167-.043.243-.002l7.95 4.257a.22.22 0 0 1 .119.196c-.004.083-.05.157-.124.196L27.16 8.97c-.076.04-.166.038-.242-.002l-7.95-4.257c-.073-.037-.12-.11-.12-.192a.23.23 0 0 1 .034-.111M7.125 33.43l8.08 4.476c.077.042.17.042.246 0s.12-.12.12-.204v-6.766c-.355-.054-.713-.082-1.072-.084-2.196 0-3.833.355-5.152.642-.924.2-1.654.358-2.348.358v1.374c0 .086.046.163.125.204zm18.68 10.422c.04 0 .08-.01.12-.03.074-.04.12-.12.12-.204v-7.223l-2.254.03c-.932 0-1.328-.026-1.49-.044-.233-.168-.686-.802-.994-1.234-.793-1.1-1.956-2.736-3.834-3.635v7.63c0 .086.046.162.125.204l8.08 4.476c.037.02.08.03.124.03zm10.718-4.71v-.963l-3.053 1.306c-.367-2.963-3.394-3.088-4.402-3.13l-.436-.008-.68.007v7.263c0 .086.046.16.12.204s.17.042.246.001l8.08-4.476a.23.23 0 0 0 .124-.204zm3.03-2.31l-1.126.515v.358c0 .086.046.16.12.204s.17.042.246 0l3.302-1.83c-.883.108-1.742.362-2.542.752z" opacity=".2" fill="#fff"/><path d="M18.81 49.35c-2.676 0-6.01-2.854-7.317-4.08l-.857-.79c-2.05-1.795-4.16-2.63-6.637-2.63-2.272 0-3.5-.01-3.5-.01v-8.49H7c.858 0 1.698-.183 2.67-.394 1.245-.27 2.795-.606 4.83-.606 2.975 0 4.426 2.035 5.592 3.67.66.924 1.23 1.722 1.91 1.83.306.05.87.072 1.774.072l2.91-.044 1.958-.034.357.006c2.07.087 2.9.647 3 2 .023.36-.016.7-.117 1.04l-.313 1.023.985-.416 7.65-3.32c1.225-.59 2.52-.916 3.65-.916 1.193 0 2.073.367 2.414 1.008.01.02.942 1.85-2.093 3.628l-5.263 3.043-5.67 3.34c-.887.59-2.11.664-3.076.664-.523 0-1.058-.025-1.588-.05l-1.58-.052c-1.288 0-3.22.146-5.266.3l-2.734.2-.186.006z" fill="#804998"/><path d="M32.75 41.96l7.674-3.33c1.158-.56 2.377-.866 3.433-.866.988 0 1.726.277 1.973.742.022.05.66 1.46-1.904 2.962l-5.26 3.04-5.697 3.357c-.776.515-1.904.58-2.8.58-.5 0-1.01-.023-1.516-.047L27 48.344c-1.296 0-3.218.145-5.253.3l-2.78.202-.157.006c-2.567 0-5.988-3.02-6.976-3.945l-.87-.8C8.82 42.226 6.605 41.35 4 41.35c-1.43 0-2.443-.004-3-.006V33.85h6c.9 0 1.772-.188 2.77-.404 1.236-.268 2.753-.596 4.73-.596 2.717 0 4.027 1.838 5.185 3.46.725 1.016 1.35 1.893 2.237 2.034.34.054.912.078 1.854.078l2.764-.04.31-.007 1.793-.03.336.006c2.245.094 2.47.75 2.522 1.533.02.3-.013.59-.096.86l-.665 1.808s1.318-.3 2.01-.592" opacity=".2" fill="#fff"/><g fill="#68217a"><path d="M18.81 49.85c-2.622 0-5.762-2.436-7.66-4.215l-.846-.778C8.354 43.148 6.35 42.35 4 42.35c-2.275 0-3.504-.01-3.504-.01a.5.5 0 0 1-.496-.5v-8.49a.5.5 0 0 1 .5-.5H7c.803 0 1.62-.177 2.563-.382 1.27-.275 2.848-.618 4.937-.618 3.23 0 4.83 2.242 6 3.88.57.798 1.107 1.55 1.58 1.626.686.1 2.987.058 4.666.02l2.275-.026c1.644.07 3.343.416 3.48 2.467.03.464-.03.872-.138 1.22L40 37.73c2.846-1.374 5.87-1.29 6.72.307.274.514.734 2.53-2.28 4.295l-5.267 3.045-5.645 3.324c-1.313.87-3.183.78-4.99.695L27 49.346c-1.266 0-3.2.146-5.228.3l-2.74.2-.22.006zM1 41.345l3 .006c2.57 0 4.85.9 6.964 2.755l.87.8c1.713 1.605 4.924 4.118 7.132 3.94l2.73-.198L27 48.345l1.576.05c1.646.08 3.35.16 4.39-.53.965-.638 3.054-1.838 5.7-3.357l5.26-3.04c1.516-.888 2.353-2.12 1.905-2.962-.537-1.006-2.898-1.084-5.406.124l-9.086 3.924a.5.5 0 0 1-.821-.396.5.5 0 0 1 .306-.448c.028-.024.755-.67.678-1.825-.06-.907-.492-1.45-2.52-1.533-.354-.017-1.216.004-2.213.026-1.908.044-4.07.09-4.846-.032-.886-.142-1.51-1.02-2.235-2.034-1.1-1.542-2.47-3.46-5.186-3.46-1.98 0-3.438.316-4.725.596-1 .217-1.865.404-2.775.404H1z"/><path d="M23.644 43.368c-1.974 0-3.384-.236-4.177-.932L16.4 39.74l.658-.752 3.078 2.696c1.05.92 5.578.575 7.284.463 2.714-.18 2.996-.314 4.64-.98a.5.5 0 0 1 .375.927c-1.74.702-2.145.864-4.95 1.05l-3.833.224z"/></g></svg>