<svg xmlns="http://www.w3.org/2000/svg" xmlns:xlink="http://www.w3.org/1999/xlink" width="49.376" height="35.9"><path d="M49.188 34.32l-3.5-7.42V2.4A2.41 2.41 0 0 0 43.278 0L6.098.026a2.41 2.41 0 0 0-2.41 2.41V26.9l-3.5 7.42a1 1 0 0 0 .814 1.581h47.372a1 1 0 0 0 .814-1.581z" fill="#3e3e3e"/><path d="M29.284 32.9h-9.19c-.3 0-.495-.26-.36-.482l.808-1.333c.067-.114.207-.185.36-.185h7.576c.153 0 .293.07.36.184l.808 1.333c.134.222-.06.483-.36.483z" opacity=".6" fill="#fff"/><path d="M6.688 2.9h36v24h-36z" fill="#59b4d9"/><path d="M6.688 2.9h36v24h-36z" opacity=".8" fill="#fff"/><use xlink:href="#B" fill="#7fba00"/><use xlink:href="#B" opacity=".15"/><defs ><path id="B" d="M15.027 14.828l-.632-.73c-.164-.193-.164-.498.026-.682l1.824-1.798c.087-.084.2-.128.303-.128.128 0 .243.056.328.156l5.017 5.734 8.632-11.784c.087-.12.216-.184.354-.184a.42.42 0 0 1 .277.103L33.13 7.14c.096.075.155.184.172.314.008.128-.018.26-.096.35L22.12 22.932z"/></defs></svg>