<svg xmlns="http://www.w3.org/2000/svg" width="16000" height="16999"><path d="M12000 3499V2499C12000 1119 9314 0 6000 0S0 1119 0 2499v1000c0 1380 2686 2499 6000 2499s6000-1119 6000-2499z" fill="#fff"/><path d="M6000 16999c-3281 0-5960-1047-6000-2500V3499c41 1454 2720 2500 6000 2500s5960-1046 6001-2500v11000c-42 1453-2721 2500-6001 2500z" fill="#2687ce"/><ellipse cx="6000" cy="2749" rx="4500" ry="1750" fill="#d6e86c"/><path d="M2422 3810c822-418 2119-688 3578-688s2756 270 3578 688c-822 419-2119 689-3578 689s-2756-270-3578-689z" fill="#bad80a"/><path d="M6000 5999v11000C2686 16999 0 15971 0 14499V3499c0 1473 2686 2500 6000 2500z" fill="#0072c6"/><path d="M14000 16999c1105 0 2000-895 2000-2000 0-1192-1031-2112-2211-1989 636-3085-1716-6011-4897-6011-2083 0-3869 1274-4620 3085C2097 9595 0 11244 0 13499c0 1933 1567 3500 3500 3500z" fill="#c0ecfc"/><path d="M13790 10989c-467-2277-2483-3990-4898-3990-2083 0-3869 1274-4620 3085-248-56-507-85-772-85C1567 9999 0 11566 0 13499s1567 3500 3500 3500h2353c-1569 0-2841-1272-2841-2841s1272-2842 2841-2842c216 0 425 24 627 70 610-1470 2059-2505 3750-2505 1534 0 2870 852 3560 2108z" fill="#66d7f7"/><path d="M6000 15999h1000v-3000l1500 1500 1500-1500v3000h1000v-5000h-1000v500l-1500 1500-1500-1500v-500H6000z" fill="#005e79"/></svg>