<svg xmlns="http://www.w3.org/2000/svg" viewBox="0 0 50 50"><path fill="#7a7a7a" d="M50 27.7V22l-.8-.2-6.1-2-1.6-3.9 3.1-6.6-4-4.1-.8.4-5.7 2.9-3.9-1.6L27.7 0H22l-.2.8-2 6.1-3.9 1.6-6.6-3.1-4.1 4 .4.8 2.9 5.7-1.6 3.9L0 22.3V28l.8.2 6.1 2 1.6 3.9-3.1 6.7 4 4 .8-.4 5.7-2.9 3.9 1.6 2.5 6.9H28l.2-.8 2-6.1 3.9-1.6 6.7 3.1 4-4-.4-.8-2.9-5.7 1.6-3.9z"/><g fill="#fff"><path opacity=".2" d="M39.7 5.6l-5.6 2.9-3.9-1.6L27.7 0H22l-.3.8-2 6.1-3.9 1.6-6.6-3.1-4 4 .4.8 2.9 5.7-1.6 3.9L0 22.3V28l.8.3 6.1 2 1.6 3.9-3.1 6.6 4 4 3.2-1.6 3.5-4.8 19-26.3 4.6-6.5z"/><path d="M29.3 27.4v5H17.5V20.7h5v-2.5h-5.9c-.9 0-1.7.8-1.7 1.7v13.4c0 .9.8 1.7 1.7 1.7H30c.9 0 1.7-.8 1.7-1.7v-5.9h-2.4zM36 14h-7.6l2.9 2.8-10.8 10.8 1.9 1.9 10.8-10.7 2.8 2.8z"/></g></svg>