<svg xmlns="http://www.w3.org/2000/svg" width="50" height="40.4"><path d="M35 16.4l-.288.692L25.768 6.36 25 7l-.768-.64-8.944 10.732L15 16.4 9.077 30.615l1.846.77L15 21.6l4.077 9.785 1.846-.77-4.767-11.44L25 8.562l8.844 10.613-4.767 11.44 1.846.77L35 21.6l4.077 9.785 1.846-.77z" fill="#7fba00"/><g fill="#3999c6"><circle cx="40" cy="31" r="3"/><circle cx="30" cy="31" r="3"/></g><circle cx="25" cy="7" r="5" fill="#804998"/><g fill="#0072c6"><circle cx="15" cy="19" r="4"/><circle cx="35" cy="19" r="4"/></g><g fill="#3999c6"><circle cx="20" cy="31" r="3"/><circle cx="10" cy="31" r="3"/></g><path d="M9.5 40.4c-.244-.02-.482-.088-.7-.2l-6.8-4c-1.2-.72-1.954-2-2-3.4V7.6c.02-1.406.78-2.698 2-3.4l6.8-4a1.46 1.46 0 0 1 1.977.514A1.46 1.46 0 0 1 10.3 2.7l-6.8 4c-.28.222-.46.546-.5.9v25.2c.04.354.22.678.5.9l6.8 4c.332.2.57.52.665.896S11 39.37 10.8 39.7a1.71 1.71 0 0 1-1.3.7zM40.5 0c.244.02.482.088.7.2l6.8 4c1.2.72 1.954 2 2 3.4v25.2c-.02 1.406-.78 2.698-2 3.4l-6.8 4a1.46 1.46 0 0 1-1.977-.514A1.46 1.46 0 0 1 39.7 37.7l6.8-4c.28-.222.46-.546.5-.9V7.6c-.04-.354-.22-.678-.5-.9l-6.8-4c-.332-.2-.57-.52-.665-.896S39 1.03 39.2.7a1.89 1.89 0 0 1 1.3-.7z" fill="#7a7a7a"/></svg>