<svg xmlns="http://www.w3.org/2000/svg" width="21" height="24"><path d="M2.5 23a.5.5 0 1 1 0-1H21V0H3a2 2 0 0 0-2 2v20.5A1.5 1.5 0 0 0 2.5 24H21v-1H2.5z" fill="#0072c6"/><path d="M1 22.5A1.5 1.5 0 0 0 2.5 24H21v-1H2.5a.5.5 0 1 1 0-1H21v-1H2.5A1.5 1.5 0 0 0 1 22.5z" opacity=".5" fill="#000c82"/><path d="M2.5 23a.5.5 0 1 1 0-1H21a.5.5 0 1 0 0 1H2.5zM0 3h3v1H0zm0 4h3v1H0zm0 4h3v1H0zm0 4h3v1H0zm0 4h3v1H0z" fill="#a0a1a2"/><path d="M11 10.14l-3-1.5v4.22l3 1.492zm.5-.867l2.883-1.437L11.5 6.398 8.617 7.836zm.5.867v4.2l3-1.492V8.64z" fill="#fff"/></svg>