<svg xmlns="http://www.w3.org/2000/svg" width="76.032" height="100"><path d="M28.284 81.85a5.07 5.07 0 0 1 0-7.172L39.412 63.55V53.6l16.433-16.434a10.83 10.83 0 0 0 0-15.314l-18.68-18.68a10.831 10.831 0 0 0-15.316 0L3.172 21.852a10.828 10.828 0 0 0 0 15.314L20.908 54.9v1.5l-5.05 5.05 5.005 5.005-5.005 5 5.005 5.005-5.005 5 5.05 5.05v.063l8.6 8.6 6.05-6.05zM23.36 13.834a6.147 6.147 0 1 1 6.147 6.147 6.148 6.148 0 0 1-6.147-6.147z" fill="#fcd116"/><path d="M12.364 25.92h35.482v5.1H12.364zm0 8.297h35.482v5.1H12.364z" opacity=".5" fill="#fff"/><path d="M54.3 100a3.978 3.978 0 0 1-2.835-1.175L33.735 81.1a4.008 4.008 0 0 1 0-5.67L51.46 57.7a4.005 4.005 0 0 1 5.67 0l17.724 17.73a4.006 4.006 0 0 1 0 5.672L57.13 98.825A3.978 3.978 0 0 1 54.3 100" fill="#59b4d9"/><g fill="#fff"><path d="M66.132 74.867a3.393 3.393 0 0 0-2.839 5.262L56.56 86.86a3.991 3.991 0 0 0-.57-.324V69.36a3.4 3.4 0 1 0-3.388 0v17.176a3.929 3.929 0 0 0-.55.307l-6.74-6.74a3.493 3.493 0 1 0-1.744 1.361l7.085 7.086a3.957 3.957 0 1 0 7.292.028l7.106-7.105a3.356 3.356 0 0 0 1.079.191 3.4 3.4 0 0 0 0-6.8z"/><path d="M53.484 67.092l1.55-1.552 12.714 12.7-1.552 1.55z" opacity=".5"/><path d="M40.86 78.262L53.57 65.55l1.552 1.55L42.4 79.813z" opacity=".5"/></g><path d="M56.612 90.1a2.356 2.356 0 1 1-2.356-2.355 2.355 2.355 0 0 1 2.356 2.355m-.427-23.67a1.89 1.89 0 1 1-1.89-1.89 1.889 1.889 0 0 1 1.89 1.89M44.352 78.265a1.89 1.89 0 1 1-1.89-1.89 1.891 1.891 0 0 1 1.89 1.89m23.67 0a1.891 1.891 0 1 1-1.891-1.89 1.891 1.891 0 0 1 1.891 1.89" fill="#b8d432"/><path d="M57.13 57.7a4 4 0 0 0-5.669 0L33.735 75.43a4.008 4.008 0 0 0 0 5.67L43.77 91.135l18.88-27.913z" opacity=".1" fill="#fff"/><path d="M34.788 68.137v-12.92l-3.864 1.903V72z" opacity=".4" fill="#ff8c00"/></svg>