<svg xmlns="http://www.w3.org/2000/svg" xmlns:xlink="http://www.w3.org/1999/xlink" width="50" height="42"><path d="M3 10V3h7V0H0v10zm7 29H3v-7H0v10h10zm37-7v7h-7v3h10V32zM40 3h7v7h3V0H40z" fill="#7a7a7a"/><path d="M45 30.757c0 4-8.954 7.243-19.998 7.243S5.004 34.758 5.004 30.757v-3.904H45v3.904z" fill="#7fba00"/><path d="M45 26.854c0 4-8.954 7.243-19.998 7.243S5.004 30.854 5.004 26.854s8.954-7.243 19.998-7.243S45 22.854 45 26.854" fill="#b8d432"/><use xlink:href="#B" fill="#7fba00"/><use xlink:href="#B" opacity=".25" fill="#00188f"/><g fill="#fff"><path d="M39.457 21.892c-2.8-1.06-6.483-1.815-10.622-2.106L26.24 24.59c1.277.075 2.418.263 3.3.53l9.916-3.227z" opacity=".25"/><use xlink:href="#C" opacity=".25"/></g><path d="M45 15.146c0 4-8.954 7.243-19.998 7.243S5.004 19.146 5.004 15.146v-3.904H45v3.904z" fill="#0072c6"/><path d="M45 11.243c0 4-8.954 7.243-19.998 7.243S5.004 15.242 5.004 11.243 13.957 4 25.002 4 45 7.242 45 11.243" fill="#59b4d9"/><path d="M31.412 10.826c0 1.064-2.87 1.925-6.41 1.925s-6.41-.862-6.41-1.925S21.46 8.9 25 8.9s6.41.86 6.41 1.925" fill="#0072c6"/><g fill="#fff"><path d="M39.457 6.24c-2.8-1.062-6.483-1.815-10.622-2.106L26.24 8.938c1.277.075 2.418.263 3.3.53l9.916-3.227z" opacity=".25"/><use xlink:href="#C" y="-15.651" opacity=".25"/></g><defs ><path id="B" d="M31.412 26.437c0 1.064-2.87 1.925-6.41 1.925s-6.41-.862-6.41-1.925 2.87-1.925 6.41-1.925 6.41.862 6.41 1.925"/><path id="C" d="M9.725 31.565c2.88 1.234 6.878 2.114 11.43 2.436l3.034-5.615c-1.263-.048-2.41-.206-3.334-.442l-11.13 3.62z"/></defs></svg>