<svg xmlns="http://www.w3.org/2000/svg" width="42.542" height="50"><g fill="#3e3e3e"><path d="M30.96 41.507H12.063a3.521 3.521 0 1 1 0-7.042H30.96c2.503 0 4.54-2.036 4.54-4.54V11.58c0-2.503-2.036-4.54-4.54-4.54H12.063a3.521 3.521 0 1 1 0-7.042H30.96c6.386 0 11.58 5.195 11.58 11.58v18.346c0 6.385-5.195 11.58-11.58 11.58zM6.315 45.77H25.37v1.76H6.315z"/><path d="M12.323 47.53h7.042V50h-7.042z"/><path d="M14.963 7.042h1.76v40.49h-1.76z"/></g><path d="M0 20.364h28.166v7.922H0z" fill="#5b8ed8"/><path d="M5.28 12.443h19.364v7.922H5.28z" fill="#59b4d9"/><path d="M12.323 9.802h7.042v2.64h-7.042zm0 18.484h7.042v2.47h-7.042z" fill="#666"/></svg>