<svg xmlns="http://www.w3.org/2000/svg" xmlns:xlink="http://www.w3.org/1999/xlink" width="44" height="50"><path d="M35.24 0H0v50h44V8.76L37.24 2z" fill="#59b4d9"/><path d="M2 48h40V9h-7V2H2z" opacity=".8" fill="#fff"/><g fill="#59b4d9"><path d="M35.857 24.738a1.12 1.12 0 0 1-1.119 1.119h-15.1a1.12 1.12 0 0 1-1.119-1.119 1.12 1.12 0 0 1 1.119-1.119h15.1a1.12 1.12 0 0 1 1.119 1.119M8.5 26.485V11.203l13.256 7.64zM35.857 29.9a1.12 1.12 0 0 1-1.119 1.118h-25.1a1.12 1.12 0 1 1-.01-2.247h25.1a1.12 1.12 0 0 1 1.119 1.119"/><use xlink:href="#B"/><use xlink:href="#B" y="5.152"/></g><defs ><path id="B" d="M35.857 35.042a1.12 1.12 0 0 1-1.119 1.119h-25.1a1.12 1.12 0 0 1-1.118-1.119 1.12 1.12 0 0 1 1.118-1.119h25.1a1.12 1.12 0 0 1 1.119 1.119"/></defs></svg>