<svg xmlns="http://www.w3.org/2000/svg" width="43.301" height="50"><path d="M21.65 0L43.3 12.5v25L21.65 50 0 37.5v-25z" fill="#3e3e3e"/><g fill="#fff"><path d="M21.65 50L43.3 37.5v-25S25.413 26.12 21.65 50" opacity=".2"/><path d="M31.172 14.958a14.23 14.23 0 0 0-20.074 0 14.2 14.2 0 0 0 0 20.084 14.23 14.23 0 0 0 20.074 0 14.21 14.21 0 0 0 0-20.084"/></g><path d="M29.227 16.903a11.47 11.47 0 0 0-16.185 0 11.45 11.45 0 0 0 0 16.192 11.47 11.47 0 0 0 16.185 0c4.47-4.47 4.47-11.715 0-16.192" fill="#59b4d9"/><g fill="#fff"><path d="M27.986 25.015l.043-.03-10.902-7.17v7.2z"/><path d="M27.986 25.015h-10.86v7.198z" opacity=".8"/></g></svg>