<svg xmlns="http://www.w3.org/2000/svg" width="50" height="31.8"><path d="M6.7 20.2c0 2.4 2 4.5 4.6 4.8h29.6c5 0 9.1-3.8 9.1-8.5 0-4.8-4.1-8.5-9.1-8.5-1.1 0-2 .3-3 .5-1.8-5-6.8-8.5-12.6-8.5h-.1c-7.4 0-13.3 5.6-13.3 12.4 0 1.1.3 2.3.5 3.3h-.7c-2.7-.2-5 1.8-5 4.5" fill="#0072c6"/><path d="M0 26.5c0 2.7 2.2 5 5.1 5.3H38c5.6 0 10.1-4.2 10.1-9.5s-4.5-9.5-10.1-9.5c-1.2 0-2.3.3-3.3.6-2-5.6-7.5-9.5-14-9.5h-.1c-8.2 0-14.8 6.2-14.8 13.8 0 1.3.3 2.5.6 3.6h-.8c-3 0-5.6 2.2-5.6 5.2" fill="#59b4d9"/><g fill="#fff"><path d="M20.7 3.9h-.1c-8.2 0-14.8 6.2-14.8 13.8 0 1.3.3 2.5.6 3.6h-.8c-3 0-5.6 2.2-5.6 5.2 0 2.7 2.2 5 5.1 5.3h.8c-3-6.8 4.4-8.2 4.4-8.2C9.6 6.9 25.3 5 25.7 4.8c-1.5-.6-3.2-.9-5-.9z" opacity=".2"/><path d="M16.3 15.2h4.9l7.2 7.2-9.5 9.4h-4.8l9.3-9.4zm11-10.7h5l5.7 5.8-7.1 6.9h-4.6l6.7-7zm5.8 12.9H38l4.8 4.8-6.6 6.5h-4.8l6.4-6.5z"/></g></svg>