<svg xmlns="http://www.w3.org/2000/svg" width="34.4" height="50"><path d="M34.4 47c0 1.7-1.3 3-3 3H3c-1.7 0-3-1.3-3-3V3c0-1.7 1.3-3 3-3h28.4c1.7 0 3 1.3 3 3v44z" fill="#3e3e3e"/><path d="M2.2 5h30v35.2h-30z" fill="#59b4d9"/><path d="M20.1 45.1c0 1.6-1.3 2.9-2.9 2.9s-2.9-1.3-2.9-2.9 1.3-2.9 2.9-2.9 2.9 1.3 2.9 2.9" fill="#fff"/><path d="M19.1 45.1c0 1-.8 1.9-1.9 1.9-1 0-1.9-.8-1.9-1.9s.8-1.9 1.9-1.9 1.9.9 1.9 1.9" fill="#b8d432"/><path d="M2.2 40.2V5H25l2-5H3C1.3 0 0 1.3 0 3v44c0 1.7 1.3 3 3 3h3.7l4-9.8H2.2z" opacity=".15" fill="#fff"/><path d="M22.3 2.8a.68.68 0 0 1-.7.7h-8.7a.68.68 0 0 1-.7-.7.68.68 0 0 1 .7-.7h8.7a.68.68 0 0 1 .7.7" fill="#1e1e1e"/><g fill="#fff"><path d="M22.3 2.8a.68.68 0 0 1-.7.7h-8.7a.68.68 0 0 1-.7-.7.68.68 0 0 1 .7-.7h8.7a.68.68 0 0 1 .7.7"/><path d="M5.3 32.3h6v6h-6zm8.7-4.5h6v10.5h-6zm8.7-4.5h6v15h-6z" opacity=".75" fill-rule="evenodd"/><path d="M25.9 7H8.1C6.5 7 5.3 8.3 5.3 9.8v8.6c0 1.6 1.3 2.8 2.8 2.8h3.5v3.7l3.7-3.7h10.6c1.6 0 2.8-1.3 2.8-2.8V9.8c0-1.5-1.2-2.8-2.8-2.8z" opacity=".75"/></g></svg>