<svg xmlns="http://www.w3.org/2000/svg" xmlns:xlink="http://www.w3.org/1999/xlink" width="49.95" height="50.019"><style><![CDATA[.J{enable-background:new}]]></style><path d="M22.805 4.4c-11.4 1.2-19.6 11.4-18.4 22.8s11.4 19.7 22.8 18.5 19.7-11.4 18.5-22.8c-.6-5.5-3.4-10.6-7.7-14.1-3.8-3-8.3-4.6-13-4.5-.7 0-1.4 0-2.2.1" fill="#fff"/><g fill="#7fba00" class="J"><path d="M16.405 19.5l-5-4.1c-2.1 3-3.1 6.6-3 10.2l6.4-.7c.1-1.9.6-3.8 1.6-5.4" opacity=".4"/><path d="M30.605 16.3l4.1-5c-3-2.1-6.6-3.1-10.2-3l.7 6.5c1.8-.1 3.7.4 5.4 1.5" opacity=".8"/><path d="M22.805 15l-.7-6.5c-3.6.6-6.9 2.4-9.3 5.1l5 4.1c1.4-1.4 3.2-2.3 5-2.7" opacity=".6"/><path d="M15.105 27.2l-6.5.7c.6 3.6 2.4 6.9 5.1 9.4l4.1-5c-1.3-1.5-2.3-3.2-2.7-5.1" opacity=".25"/></g><g fill="#a0a1a2"><path d="M49.805 22.4a24.67 24.67 0 0 0-9.3-16.9c-1-.8-2-1.5-3.1-2.1l-2 3.8 2.4 1.6c9 7.1 10.5 20.2 3.3 29.2-3.5 4.4-8.5 7.1-14.1 7.7-3.7.4-7.4-.2-10.7-1.8l-2 3.8c12.5 5.8 27.3.4 33.2-12.1 2-4.1 2.8-8.7 2.3-13.2"/><use xlink:href="#B"/></g><use xlink:href="#B" opacity=".2" fill="#fff" class="J"/><path d="M36.405 12.6l-4.1 5c1 1 1.8 2.2 2.3 3.4h6.8c-.8-3.1-2.5-6.1-5-8.4z" fill="#7fba00"/><path d="M23.105 27c-1.1-1.1-1.2-3 0-4.1.6-.6 1.3-.9 2.1-.9s1.5.3 2.1.8h14.9c1.2 0 2.1.9 2.1 2.1s-.9 2.1-2.1 2.1h-15.2c-.5.5-1.2.8-1.9.8-.8.1-1.5-.2-2-.8" fill="#dd5900"/><defs ><path id="B" d="M11.905 41.1c-8.9-7.2-10.2-20.2-3-29.1 6.5-8 17.8-10 26.6-4.8l2-3.8c-10.7-6.2-24.2-3.7-31.9 5.9-8.7 10.7-7.1 26.4 3.6 35.1 1.6 1.3 3.4 2.4 5.3 3.3l2-3.8c-1.7-.7-3.2-1.7-4.6-2.8"/></defs></svg>