<svg xmlns="http://www.w3.org/2000/svg" width="50" height="50" fill="#59b4d9"><path opacity=".4" d="M16.456 19.473l-5.048-4.086C9.25 18.475 8.27 22.075 8.417 25.62l6.454-.68c0-1.9.52-3.788 1.585-5.467"/><path opacity=".8" d="M30.575 16.28l4.087-5.05c-3.1-2.156-6.693-3.13-10.238-2.982l.68 6.453c1.89-.002 3.79.516 5.472 1.578"/><path opacity=".6" d="M22.853 14.956l-.68-6.46a16.65 16.65 0 0 0-9.348 5.123l5.044 4.084c1.405-1.41 3.143-2.332 4.984-2.747"/><path opacity=".25" d="M15.12 27.19l-6.46.682c.62 3.492 2.345 6.8 5.12 9.357l4.083-5.044a10.19 10.19 0 0 1-2.744-4.995"/><path d="M36.43 12.647l-4.084 5.045a10.16 10.16 0 0 1 2.264 3.437h6.775c-.742-3.17-2.408-6.144-4.955-8.482zm7.83 12.33a2.13 2.13 0 0 0-2.131-2.121l-.004-.005-.62.005H27.22c-.6-.565-1.333-.813-2.076-.813a2.92 2.92 0 0 0-2.061 4.997c.57.565 1.312.845 2.052.845.688 0 1.373-.298 1.923-.78h15.085c1.172-.004 2.114-.952 2.118-2.124h.002zM25 4.2c11.47 0 20.8 9.33 20.8 20.8S36.47 45.8 25 45.8 4.2 36.47 4.2 25 13.53 4.2 25 4.2M25 0C11.193 0 0 11.193 0 25s11.193 25 25 25 25-11.193 25-25S38.807 0 25 0z"/></svg>