<svg xmlns="http://www.w3.org/2000/svg" width="23.239" height="50.118"><ellipse cx="8.428" cy="3.709" rx="2.8" ry="1.6" fill="#b8d432"/><path d="M18.428 22.31l-13.7 1.7-1.8-14.4c-.1-1.2.7-2.2 1.9-2.3l7.9-1c1.2-.1 2.2.6 2.4 1.8l1.3 10.4c.1.6.6 1 1.2.9s1-.6.9-1.2l-2-16.4c-.1-1.2-1.2-1.9-2.4-1.8l-12.2 1.6c-1.2.1-2.1 1.1-1.9 2.3l2.5 20.1c0 .2.1.3.1.5a1.84 1.84 0 0 0-.8 1.8l2.8 22c.1 1.1 1.2 1.9 2.2 1.8l14.8-2c1.1-.1 1.7-1.2 1.6-2.3l-2.8-22c-.1-1-1-1.6-2-1.5zm-10.9-19.3l1.7-.2c.4-.1.8.2.8.6.1.4-.2.8-.6.8l-1.7.2c-.4.1-.8-.2-.8-.6-.1-.4.2-.7.6-.8zm6.1 31.6l.4 3.5-2.6.3-.5-3.6c-.8-.4-1.6-1.2-1.8-2.3-.2-1.6.9-3 2.5-3.2s3 .9 3.2 2.5c.2 1.2-.1 2.2-1.2 2.8z" fill="#3e3e3e"/><path d="M2.528 23.91c0 .2.1.3.1.5a1.84 1.84 0 0 0-.8 1.8l1.7 13.5 6.6-16.3-5.4.6-1.8-14.4c-.1-1.2.7-2.2 1.9-2.3l7.9-1c1.2-.1 2.2.6 2.4 1.8l.3 2.2 1.7-4.1-.5-4.3c-.1-1.2-1.2-1.9-2.4-1.8l-12.3 1.5c-1.2.1-2.1 1.1-1.9 2.3l2.5 20zm5-20.9l1.7-.2c.4-.1.8.2.8.6.1.4-.2.8-.6.8l-1.7.2c-.4.1-.8-.2-.8-.6-.1-.4.2-.7.6-.8z" opacity=".15" fill="#fff"/></svg>