<svg xmlns="http://www.w3.org/2000/svg" width="38" height="50"><g fill="#0072c6"><path d="M0 6.83V43.17C0 46.94 8.507 50 19 50V6.83H0z"/><path d="M18.74 50H19c10.493 0 19-3.057 19-6.83V6.83H18.74V50z"/></g><g fill="#fff"><path d="M18.74 50H19c10.493 0 19-3.057 19-6.83V6.83H18.74V50z" opacity=".15"/><path d="M38 6.83c0 3.773-8.507 6.83-19 6.83S0 10.603 0 6.83 8.507 0 19 0s19 3.058 19 6.83"/></g><path d="M34.115 6.438c0 2.49-6.768 4.507-15.115 4.507S3.884 8.928 3.884 6.438 10.652 1.93 19 1.93s15.115 2.017 15.115 4.507" fill="#dd5900"/><path d="M30.95 9.19c1.98-.762 3.168-1.716 3.168-2.752 0-2.49-6.768-4.508-15.116-4.508S3.886 3.95 3.886 6.44c0 1.036 1.19 2 3.168 2.752C9.816 8.126 14.134 7.44 19 7.44s9.183.687 11.95 1.752" fill="#ff8c00"/><path d="M3.947 33.582H6.35v-9.5l3.72 8.273c.44 1 1.04 1.356 2.218 1.356s1.756-.354 2.195-1.356l3.72-8.273v9.5h2.403v-9.474c0-.924-.37-1.37-1.132-1.602-1.825-.57-3.05-.077-3.605 1.155l-3.65 8.165-3.535-8.165c-.53-1.232-1.78-1.725-3.605-1.155-.763.23-1.132.678-1.132 1.602l.001 9.474zm18.658-7.724h2.402v5.228c-.022.284.1.95 1.407.97h5.226V25.83h2.408c.01 0-.002 8.5-.002 8.525.013 2.094-2.598 2.548-3.8 2.584h-7.588v-1.617h7.6c1.547-.163 1.364-.932 1.364-1.2v-.63h-5.108c-2.376-.022-3.9-1.06-3.908-2.252l-.001-5.393z" fill="#fff"/></svg>