<svg xmlns="http://www.w3.org/2000/svg" width="44.706" height="50"><path d="M0 0h40.205v50H0z" fill="#7fba00"/><path d="M16.2 4.915h18.92v11.888H16.2z"/><path d="M40.205 3.846h4.5v8.577h-4.5zm0 12.238h4.5V38.9h-4.5z" fill="#fcd116"/><path d="M17.8 31.718h3.243v13.4H17.8zm-5.245 0h3.243v13.4h-3.243z"/><path d="M8.492 11.908h8.242v2.098H10.6v21.26h4.046v2.098H8.492zM4.296 7.713h13.487V9.8H6.394v30.7h6.144v2.1H4.296zm19.762 15.12h4.74v-7.8h2.098v9.897h-4.74v13.114h3.964v2.098h-6.062z" opacity=".2"/><path d="M20.003 24.1a2.431 2.431 0 1 1-4.862 0 2.431 2.431 0 1 1 4.862 0zm9.843 8.243h4.322v12.365h-4.322z" fill="#e5e5e5"/></svg>