<svg xmlns="http://www.w3.org/2000/svg" width="50" height="50"><path fill="#fff" d="M31.9 1.1c-9.174 0-16.65 7.354-16.878 16.475C16.8 16.637 18.84 16.1 21 16.1c7.124 0 12.9 5.776 12.9 12.9 0 2.117-.52 4.108-1.423 5.87C41.527 34.563 48.8 27.125 48.8 18c0-9.318-7.582-16.9-16.9-16.9z"/><g fill="#3898c5"><path d="M32.867 35.6c3.674-3.22 7.594-8.33 7.594-17.59S36.604 3.44 32.832.4L31.303 1.9c3.53 2.846 6.796 6.768 6.796 16.11 0 9.375-3.375 13.113-6.83 16.14l1.597 1.45z"/><path d="M16.112 16.94h31.775v2.118H16.112zM32 10.084c-5.212 0-9.918-1.453-12.73-3.618L18 7.736c3.133 2.518 8.23 4.164 14 4.164s10.866-1.646 14-4.165l-1.27-1.27c-2.8 2.166-7.517 3.62-12.73 3.62z"/></g><path fill="#7a7b7b" d="M10.925 35.075L.927 45.077A2.82 2.82 0 0 0 .1 47.075c0 1.56 1.265 2.825 2.825 2.825a2.82 2.82 0 0 0 1.998-.827l.002.002 10-10-4-4z"/><path opacity=".4" fill="#1d1d1d" d="M7 39a14.01 14.01 0 0 0 4 4l2.615-2.615-4-4L7 39z"/><g fill="#fff"><circle cx="20.725" cy="28.9" r="9"/><circle cx="21" cy="29" r="11"/></g><g fill="#3898c5"><path d="M25.92 17.077C26.136 8.414 29.288 4.65 32.696 1.9L31.167.4c-3.54 2.856-7.156 7.715-7.585 15.96a12.92 12.92 0 0 1 2.34.718zm7.023 7.056c.24.6.432 1.205.584 1.836 4.594.253 8.67 1.614 11.202 3.565l1.27-1.27c-2.96-2.38-7.68-3.96-13.056-4.13z"/><path d="M32 .1C22.13.1 14.1 8.13 14.1 18c0 .037.005.073.006.1.72-.457 1.49-.842 2.297-1.15.54-8.144 7.32-14.61 15.597-14.61 8.63 0 15.65 7.02 15.65 15.65 0 8.278-6.465 15.057-14.61 15.597-.31.808-.694 1.576-1.15 2.297.037 0 .073.006.1.006 9.87 0 17.9-8.03 17.9-17.9S41.87.1 32 .1z"/></g><path fill="#7fba00" d="M19.58 35l-2.068-6.107-1.588 3.13H13v-1.57h1.94l2.865-5.646 1.766 5.215 2.525-7.54 2.07 6.097 1.932-3.687H29v1.588l-1.988-.002-3.136 6.18-1.768-5.208L19.58 35z"/><path opacity=".2" fill="#3898c5" d="M13.5 32.5c0-6.5 4.53-11 11-11A10.93 10.93 0 0 1 30 22.98c-1.904-3.28-5.445-5.5-9.5-5.5-6.075 0-11 4.925-11 11 0 4.065 2.21 7.606 5.5 9.5-.942-1.622-1.5-3.5-1.5-5.5z"/><path fill="#7a7b7b" d="M21 15.1c-7.677 0-13.9 6.223-13.9 13.9S13.323 42.9 21 42.9 34.9 36.677 34.9 29 28.677 15.1 21 15.1zm0 24.2a10.3 10.3 0 0 1 0-20.6c5.69 0 10.3 4.612 10.3 10.3S26.69 39.3 21 39.3z"/></svg>