<svg xmlns="http://www.w3.org/2000/svg" width="50" height="50"><path d="M47.285 0H2.997C1.332 0 0 1.333 0 3v43.667C0 48.667 1.332 50 2.997 50h43.955c1.665 0 2.997-1.333 2.997-3V3c.333-1.667-1-3-2.664-3zm-.666 46.667H3.33V13.333h43.29z" fill="#59b4d9"/><path d="M16.65 16.667h6.66v6.667h-6.66zm10 0h6.66v6.667h-6.66zm-19.98 10h6.66v6.667H6.66zm10 0h6.66v6.667h-6.66z" fill="#a0a1a2"/><path d="M26.64 26.667h6.66v6.667h-6.66z" fill="#ba141a"/><path d="M36.63 26.667h6.66v6.667h-6.66zm-29.97 10h6.66v6.667H6.66zm10 0h6.66v6.667h-6.66zm10 0h6.66v6.667h-6.66zm10-20h6.66v6.667h-6.66z" fill="#a0a1a2"/></svg>