<svg xmlns="http://www.w3.org/2000/svg" width="36.6" height="49.9"><path d="M31.2 6c-11-1.2-12.9-6-12.9-6S15.8 6.2 0 6.2v25.6c0 3.1 1.7 6 4.1 8.5 5.4 5.7 14.2 9.6 14.2 9.6s18.3-8 18.3-18.1V6.2c-2 0-3.8-.1-5.4-.2z" fill="#3999c6"/><path d="M22.9 16.5L31.2 6c-11-1.2-12.9-6-12.9-6S15.8 6.2 0 6.2v25.6c0 3.1 1.7 6 4.1 8.5l6.2-7.8 12.6-16z" opacity=".4" fill="#59b4d9"/><g fill="#fff"><path d="M3.8 24.4v6.1c0 2.5 1.4 4.8 3.3 6.8 4.3 4.6 11.3 7.6 11.3 7.6V24.4H3.8z" opacity=".3"/><path d="M18.3 44.9s14.6-6.4 14.6-14.4v-6.1H18.3v20.5z" opacity=".7"/><path d="M18.3 5.1s-2 5-14.6 5v14.3h14.6V5.1z" opacity=".7"/><path d="M28.5 9.9c-8.7-1-10.2-4.7-10.2-4.7v19.2h14.6V10.1c-1.6 0-3.1-.1-4.4-.2z" opacity=".3"/></g><path d="M13.322 29.25h-1.777l-4.683-7.205a3.15 3.15 0 0 1-.294-.567h-.04c.037.2.055.66.055 1.347v6.426H5v-9.803h1.894l4.525 7.034.37.602h.027c-.045-.26-.068-.7-.068-1.32V19.45h1.565v9.8zm1.976-.4v-1.675c.15.137.33.26.537.37s.427.2.66.277a5.38 5.38 0 0 0 .697.174c.232.04.447.062.643.062.684 0 1.193-.114 1.528-.342s.502-.558.502-1c0-.232-.056-.434-.167-.605s-.268-.327-.47-.468-.437-.277-.708-.407l-.872-.407-.93-.54a4 4 0 0 1-.749-.605c-.212-.22-.378-.47-.5-.75s-.18-.604-.18-.978c0-.46.104-.86.3-1.2a2.59 2.59 0 0 1 .82-.84c.34-.22.726-.385 1.16-.492s.875-.16 1.326-.16c1.025 0 1.772.116 2.242.35v1.606c-.556-.4-1.27-.602-2.146-.602a3.87 3.87 0 0 0-.72.068 2.11 2.11 0 0 0-.643.226c-.19.106-.343.24-.46.403a1 1 0 0 0-.177.598 1.11 1.11 0 0 0 .137.567 1.5 1.5 0 0 0 .4.438c.175.133.4.26.643.386l.878.407.967.56c.304.196.57.413.8.65a2.84 2.84 0 0 1 .547.79 2.35 2.35 0 0 1 .202.988c0 .497-.1.916-.3 1.258a2.41 2.41 0 0 1-.81.834 3.6 3.6 0 0 1-1.172.465c-.442.095-.9.144-1.4.144-.164 0-.366-.013-.605-.037l-.735-.1-.7-.175c-.223-.07-.403-.148-.54-.235zm15.722-.28c-1.02.557-2.158.834-3.4.834-1.45 0-2.623-.45-3.52-1.354s-1.347-2.096-1.347-3.582c0-1.518.5-2.763 1.474-3.736s2.23-1.46 3.742-1.46c1.1 0 2.005.16 2.748.48v1.675c-.752-.5-1.647-.752-2.687-.752s-1.9.344-2.567 1.032-1 1.58-1 2.673c0 1.125.287 2 .86 2.655s1.354.968 2.338.968c.675 0 1.258-.13 1.75-.4v-2.33h-2.064v-1.367h3.685v4.655z" fill="#3e3e3e"/></svg>