<svg xmlns="http://www.w3.org/2000/svg" height="49.5" width="50"><path d="M42.3 0L28.6.5 0 29.1l20.3 20.3 28.6-28.6L50 7.7zm1.1 10.6a2.84 2.84 0 0 1-4 0 2.84 2.84 0 0 1 0-4 2.84 2.84 0 0 1 4 0 2.84 2.84 0 0 1 0 4z" fill="#3999c6"/><g fill="#fff"><path d="M24.4 14.4L23 13l2.4-2.5 2.5 2.5-1.4 1.4-1.1-1.1zM15 20.9l.7.7-.7-.7 1.4 1.4-3.1 3.1-1.4-1.4zm5.517-5.46l1.414 1.414-3.04 3.04-1.414-1.414zM9.5 26.5l1.4 1.4-1.1 1 1.1 1.1-1.4 1.4L7 28.9zm4 6.113l3.323 3.323L15.4 37.35l-3.323-3.323zm6 5.987l1 1 1.1-1L23 40l-2.5 2.5L18 40zm7.63-5.547l1.414 1.414-3.04 3.04-1.414-1.414zM32.6 27.5l1.4 1.4-3 3.1-.7-.7.7.7-1.5-1.4zm2.5-2.4l1.4 1.4-1.4-1.4z"/><path d="M36.1 24l-1-1 1.4-1.5L39 24l-2.5 2.5-1.4-1.4zm-5.547-8.332l3.323 3.323-1.414 1.414-3.323-3.323z"/><path d="M24.9 44.9V4.3L0 29.1l20.3 20.4z" opacity=".1"/></g><path d="M45.1 4.9c-2-2-5.3-2-7.3 0s-2 5.3 0 7.3 5.3 2 7.3 0 2-5.2 0-7.3zm-1.7 5.7a2.84 2.84 0 0 1-4 0 2.84 2.84 0 0 1 0-4 2.84 2.84 0 0 1 4 0 2.84 2.84 0 0 1 0 4z" opacity=".3" fill="#1e1e1e"/></svg>