<svg xmlns="http://www.w3.org/2000/svg" width="44.5" height="50"><path d="M30 47.5c0 1.4-1.1 2.5-2.5 2.5h-25C1.1 50 0 48.9 0 47.5v-45C0 1.1 1.1 0 2.5 0h24.9c1.4 0 2.5 1.1 2.5 2.5v45z" fill="#a0a1a2"/><path d="M4 5h6v7H4zm8 0h6v7h-6zm8 0h6v7h-6zM4 16h6v7H4zm8 0h6v7h-6zm8 0h6v7h-6zM4 27h6v7H4zm8 0h6v7h-6zm8 0h6v7h-6z" fill="#7a7a7a"/><path d="M29.8 49.1l2.1.9.2-.3 1.7-2h1.7l2 2.3 2.1-.9v-.3l-.2-2.6 1.2-1.2 3 .2.9-2.2-.2-.3-2-1.7v-1.8l2.2-2-.8-2.2h-.3l-2.6.2-1.2-1.2.2-3-2.2-1-.2.3-1.7 2H34L32 30l-2.1.9v.4l.2 2.6-1.2 1.2-3-.2-.9 2.2.3.2 2 1.7v1.8l-2.2 2L26 45h.3l2.6-.2 1.2 1.3zm.7-11c1-2.5 3.8-3.6 6.2-2.6s3.5 3.9 2.5 6.3c-1 2.5-3.8 3.6-6.2 2.6s-3.6-3.8-2.5-6.3" fill="#3e3e3e"/></svg>