<svg xmlns="http://www.w3.org/2000/svg" width="50.002" height="45.557"><g fill="#ba141a"><path d="M6.65 22.43c.045 1.402.223 2.814.538 4.22l7.677-2.632c-.237-1.48-.242-2.958-.036-4.393zM47.837 8.312l-8.18 2.804a14.65 14.65 0 0 1 2.667 3.491L50 11.975c-.616-1.304-1.34-2.53-2.165-3.663z"/><path d="M36.168 19.392c.668 1.95.903 3.944.757 5.877l8.02-2.75a22.79 22.79 0 0 0-1.174-5.734c-.277-.8-.6-1.6-.956-2.347l-7.677 2.632a14.66 14.66 0 0 1 1.031 2.321zM8.3 28.95a14.8 14.8 0 0 1-.612-2.465L0 29.116a23.19 23.19 0 0 0 .685 2.44c.65 1.898 1.53 3.653 2.6 5.248l8.02-2.75a14.71 14.71 0 0 1-3.006-5.106z"/><path d="M40.883 23.876c-.43 5.698-4.17 10.87-9.918 12.84s-11.876.182-15.7-4.055l-8.02 2.75c5.595 8.405 16.336 12.337 26.336 8.9s16.07-13.123 15.33-23.193zM11.6 20.697c.76-5.303 4.4-10.002 9.807-11.858s11.166-.374 15.02 3.348l8.178-2.803C38.88 1.507 28.493-2.086 18.8 1.236S3.1 13.768 3.423 23.5z"/></g><path d="M14.692 21.402a14.39 14.39 0 0 1 .136-1.775L6.65 22.43l.134 1.682zm34.07-11.68l-.927-1.4-8.18 2.804a14.71 14.71 0 0 1 1.196 1.319zm.163 13.977c.035-.853.04-1.7-.024-2.573l-8.02 2.75c-.07.938-.24 1.86-.484 2.758zm-31.57 10.864c-.755-.564-1.463-1.196-2.102-1.902l-8.02 2.75c.5.735 1.03 1.423 1.595 2.087z" opacity=".4" fill="#1e1e1e"/></svg>