<svg xmlns="http://www.w3.org/2000/svg" width="48.4" height="48.4"><path d="M4.9 21h3.2v3.2H4.9zm0 4.8h3.2V29H4.9zm0-6.4h3.2v-2.9c-1.2.6-2.2 1.3-3.2 2.1v.8zm4.8 16.1h3.2v3.2H9.7zm0 4.8h3.2v3.2H9.7zm0 4.9h3.2v3.2H9.7zm0-14.5h3.2v3.2H9.7zM0 25.8h3.2V29H0zm4.9 14.5h3.2v3.2H4.9zM0 35.5h3.2v3.2H0zm0-4.8h3.2v3.2H0zm4.9 15.2c1 .8 2.1 1.5 3.2 2.1v-2.9H4.9v.8zM.4 24.2h2.9V21h-.8c-.9 1-1.6 2-2.1 3.2zm4.5 11.3h3.2v3.2H4.9zm24.1 8h.8c.8-1 1.5-2.1 2.1-3.2H29v3.2zM9.7 25.8h3.2V29H9.7zm14.5 14.5h3.2v3.2h-3.2z" fill="#59b4d9" fill-rule="evenodd"/><path d="M31.5 0c-9.3 0-16.9 7.6-16.9 16.9v16.9h16.9c9.3 0 16.9-7.6 16.9-16.9S40.8 0 31.5 0z" fill="#7fba00"/><path d="M22.6 14.5h3.2v9.7h-3.2zm6.4 3.2h3.2v6.5H29zm6.5-6.4h3.2v12.9h-3.2z" fill="#68217a"/><path d="M24.2 48c1.2-.6 2.2-1.3 3.2-2.1v-.8h-3.2V48zM29 35.5h3.2v3.2H29zm-4.8 0h3.2v3.2h-3.2zm-9.7 4.8h3.2v3.2h-3.2zM9.7 16.1v3.3h3.2v-3.3zm9.7 24.2h3.2v3.2h-3.2zm0 4.9h3.2v3.2h-3.2zm-4.9-9.7h3.2v3.2h-3.2z" fill="#59b4d9" fill-rule="evenodd"/></svg>