<svg xmlns="http://www.w3.org/2000/svg" width="50" height="46.1"><path d="M47 0H2.7A2.775 2.775 0 0 0 0 2.8v30.9a2.775 2.775 0 0 0 2.7 2.8h16.1c1.6 5.8-.6 6.6-10.2 6.6v3h32.6v-3c-9.6 0-10.6-.8-8.9-6.6H47a3.045 3.045 0 0 0 3-2.8V2.8A3.045 3.045 0 0 0 47 0z" fill="#59b4d9"/><path d="M46.1 3.8v28.9H3.8V3.8z" fill="#fff"/><path d="M25.5 17.4h-.1l-8.8-5.1c-.1 0-.1-.1-.1-.2a.349.349 0 0 1 .1-.2l8.8-5h.3l8.8 5.1c.1 0 .1.1.1.2s0 .2-.1.2l-8.7 5h-.3m-1.2 12.3h-.1l-8.8-5.1c-.1 0-.1-.1-.1-.2V14.2a.349.349 0 0 1 .1-.2h.3l8.8 5.1c.1 0 .1.1.1.2v10.2a.349.349 0 0 1-.1.2h-.2m2.5 0h-.1c-.1 0-.1-.1-.1-.2V19.4a.349.349 0 0 1 .1-.2l8.8-5.1h.3c.1 0 .1.1.1.2v10.1a.349.349 0 0 1-.1.2L27 29.7h-.2M15 6.3H6v9h3v-6h6zm-9 15v9h9v-3H9v-6zm29 9h9v-9h-3v6h-6zm9-15v-9h-9v3h6v6z" fill="#0072c6"/></svg>