<svg xmlns="http://www.w3.org/2000/svg" xmlns:xlink="http://www.w3.org/1999/xlink" height="50" width="50" viewBox="275 1149 50 50"><path fill="#0f0f0f" d="M304.7 1177.4c0 1.1-.3 2-1.1 2.7-.7.6-1.7 1.1-3.1 1.3v2.1H299v-2.1c-1.4 0-2.7-.3-3.7-1v-2.8c.3.3 1 .5 1.7.9a5.44 5.44 0 0 0 2 .4v-3.6c-1.5-.5-2.6-1.2-3.1-1.8-.6-.6-1-1.5-1-2.6s.4-1.9 1.2-2.7c.7-.7 1.7-1.2 2.9-1.3v-1.8h1.5v1.8c1.4.1 2.4.3 3.2.6v2.7c-1-.5-2-.9-3.2-1.1v3.8c1.5.5 2.6 1.2 3.2 1.8.7.9 1 1.7 1 2.7zm-5.6-4.8v-3.2c-1 .2-1.4.6-1.4 1.5.1.7.5 1.2 1.4 1.7zm2.9 4.9c0-.6-.4-1.2-1.4-1.6v3c1-.1 1.4-.5 1.4-1.4z"/><use xlink:href="#B" fill="#ec008c"/><use xlink:href="#B" opacity=".1" fill="#fff"/><path fill="#fcd116" d="M325 1174h-11.2c0 4.1-1.8 7.8-4.6 10.3l7.4 8.4c5.2-4.7 8.4-11.3 8.4-18.7"/><path opacity=".9" fill="#f472d0" d="M313.8 1174H325c0-13.8-11.2-25-25-25v11.2c7.7 0 13.8 6.1 13.8 13.8"/><defs ><path id="B" d="M300 1187.8c-7.7 0-13.8-6.2-13.8-13.8s6.2-13.8 13.8-13.8c7.7 0 13.8 6.2 13.8 13.8H325c0-13.8-11.2-25-25-25s-25 11.2-25 25 11.2 25 25 25c6.4 0 12.2-2.4 16.6-6.4l-7.4-8.4c-2.5 2.2-5.7 3.6-9.2 3.6z"/></defs></svg>