<svg xmlns="http://www.w3.org/2000/svg" xmlns:xlink="http://www.w3.org/1999/xlink" width="50" height="50" viewBox="-774 1476 50 50"><g fill="#68217a"><path d="M-750.9 1485.2h3.8v31h-3.8z"/><path d="M-764.536 1502.197l15 15-2.687 2.687-15-15zm15.004-17.464l-15 15-2.687-2.687 15-15z"/></g><use xlink:href="#B" fill="#7fba00"/><path d="M-733.464 1499.713l-15-15 2.687-2.687 15 15zm-15.004 17.464l15-15 2.687 2.687-15 15z" fill="#68217a"/><g fill="#7fba00"><path d="M-724 1500.91a5.59 5.59 0 1 0-11.2 0 5.59 5.59 0 0 0 5.6 5.6c3.1-.001 5.6-2.5 5.6-5.6zm-7.4 0a1.79 1.79 0 1 1 3.6 0 1.79 1.79 0 1 1-3.6 0z"/><use xlink:href="#B" x="19.4" y="19.4"/><use xlink:href="#B" x="19.4" y="-19.4"/></g><defs ><path id="B" d="M-774 1501a5.59 5.59 0 1 0 11.2 0 5.59 5.59 0 1 0-11.2 0zm7.4 0a1.79 1.79 0 1 1-3.6 0 1.79 1.79 0 1 1 3.6 0z"/></defs></svg>