<svg xmlns="http://www.w3.org/2000/svg" xmlns:xlink="http://www.w3.org/1999/xlink" width="64" height="64"><use xlink:href="#B" fill="#ec008c"/><use xlink:href="#B" opacity=".4" fill="#f05a28"/><path d="M23.753 14.474l.016 7.788-6.202-3.665v26.804l6.242-3.69.016 7.812L51.587 32zm3.093 5.608L45.795 32l-18.95 11.928v-4.01L40.247 32l-13.402-7.92zM20.66 24.02l3.117 1.84.024 12.262-3.14 1.856zm6.185 3.655L34.165 32l-7.32 4.325z" fill="#fff"/><defs ><path id="B" d="M.042 32C.042 49.65 14.35 63.958 32 63.958S63.958 49.65 63.958 32 49.65.042 32 .042.042 14.35.042 32"/></defs></svg>