<svg xmlns="http://www.w3.org/2000/svg" height="42.6" width="50"><path d="M0 40.6c0 1.1.9 2 2 2h46c1.1 0 2-.9 2-2V9.3H0z" fill="#1e1e1e"/><path d="M0 40.6c0 1.1.9 2 2 2h46c1.1 0 2-.9 2-2V9.3H0z" opacity=".25" fill="#0072c6"/><path d="M48 0H2C.9 0 0 .9 0 2v10.6h50V2c0-1.1-.9-2-2-2" fill="#a0a1a2"/><path d="M12.9 4.8h33.7v3.9H12.9z" fill="#fff"/><path d="M11.3 6.7a4.91 4.91 0 0 1-4.9 4.9 4.91 4.91 0 0 1-4.9-4.9 4.91 4.91 0 0 1 4.9-4.9 4.91 4.91 0 0 1 4.9 4.9" fill="#59b4d9"/><path d="M6.9 9.6L4 6.7l2.9-2.8h1.2L5.9 6.2h5.4v1H5.9l2.2 2.4z" fill="#fff"/><path d="M12 19h38v20H12z" fill="#e5e5e5"/><path d="M0 19h12v20H0z" fill="#59b4d9"/><path d="M2 0C.9 0 0 .9 0 2v38.6c0 1.1.9 2 2 2h2.2L43.6 0z" fill="#fff" opacity=".2"/></svg>