<svg xmlns="http://www.w3.org/2000/svg" width="50" height="50"><path d="M23.844 21.87l.395-.263-.395.263zm1.3 1.47l-.012-.013.013.013z" fill="#fff"/><path fill="#a0a1a2" d="M41.386 50c-6.83 0-16.33-5.585-26.07-15.323C1.768 21.125-3.448 8.134 2.338 2.348 3.875.81 6.04 0 8.6 0c6.83 0 16.33 5.585 26.07 15.325 6.637 6.638 11.38 13.177 13.715 18.916 2.365 5.81 2.104 10.572-.736 13.413C46.11 49.19 43.946 50 41.386 50M8.6 3.078c-1.75 0-3.124.486-4.083 1.445C.79 8.25 4.052 19.056 17.495 32.498c9.03 9.032 17.962 14.424 23.892 14.424 1.75 0 3.123-.486 4.082-1.446 1.908-1.908 1.932-5.486.063-10.074C43.35 30.04 38.84 23.85 32.5 17.502 23.46 8.47 14.528 3.078 8.6 3.078"/><path fill="#0f0f0f" d="M8.6 50c-2.56 0-4.724-.81-6.26-2.346-2.84-2.84-3.1-7.602-.735-13.413 2.336-5.74 7.078-12.278 13.715-18.916C25.056 5.585 34.558 0 41.387 0c2.56 0 4.724.81 6.26 2.347 5.786 5.787.57 18.778-12.98 32.33C24.93 44.415 15.427 50 8.6 50M41.387 3.078c-5.93 0-14.86 5.393-23.893 14.424-6.348 6.348-10.86 12.538-13.04 17.9-1.87 4.588-1.845 8.166.063 10.074.96.96 2.332 1.446 4.083 1.446 5.93 0 14.86-5.392 23.892-14.424C45.933 19.056 49.194 8.25 45.468 4.522c-.96-.958-2.33-1.444-4.08-1.444"/><path fill="#ba141a" d="M32.273 20.8c-.303-.33-.665-.573-1.063-.74-1.84-.766-4.496.188-6.16 2.55-2.56-3.088-5.62-3.668-7.323-1.81-3.404 3.706.86 8.576 4.22 11.34 1.325 1.1 2.5 1.853 3.032 2.09v.024c.005-.001.014-.01.018-.01s.018.01.025.01v-.024c1.84-.834 11.994-8.262 7.25-13.43"/><path opacity=".2" fill="#fff" d="M25.05 22.613c-2.56-3.088-5.62-3.668-7.323-1.81-3.404 3.706.86 8.576 4.22 11.34l9.262-12.08c-1.84-.766-4.496.187-6.16 2.55"/></svg>