<svg xmlns="http://www.w3.org/2000/svg" width="50" height="50" fill="#59b4d9"><path opacity=".5" d="M41.386 50c-6.83 0-16.33-5.585-26.07-15.323C1.768 21.125-3.448 8.134 2.338 2.348 3.875.81 6.04 0 8.6 0c6.83 0 16.33 5.585 26.07 15.325 6.637 6.638 11.38 13.177 13.715 18.916 2.365 5.81 2.104 10.572-.736 13.413C46.11 49.19 43.946 50 41.386 50M8.6 3.078c-1.75 0-3.124.486-4.083 1.445C.79 8.25 4.052 19.056 17.495 32.498c9.03 9.032 17.962 14.424 23.892 14.424 1.75 0 3.123-.486 4.082-1.446 1.908-1.908 1.932-5.486.063-10.074C43.35 30.04 38.84 23.85 32.5 17.502 23.46 8.47 14.528 3.078 8.6 3.078"/><path d="M8.6 50c-2.56 0-4.724-.8-6.26-2.346-2.84-2.84-3.1-7.602-.735-13.413C3.94 28.5 8.683 21.963 15.32 15.325 25.056 5.585 34.558 0 41.387 0c2.56 0 4.724.8 6.26 2.347 5.786 5.787.57 18.778-12.98 32.33C24.93 44.415 15.427 50 8.6 50M41.387 3.078c-5.93 0-14.86 5.393-23.893 14.424-6.348 6.348-10.86 12.538-13.04 17.9-1.87 4.588-1.845 8.166.063 10.074.96.96 2.332 1.446 4.083 1.446 5.93 0 14.86-5.392 23.892-14.424C45.933 19.056 49.194 8.25 45.468 4.522c-.96-.958-2.33-1.444-4.08-1.444M31.914 20.03a2.72 2.72 0 0 0-1.022-.7c-1.768-.736-4.322.18-5.922 2.45-2.46-2.968-5.402-3.526-7.04-1.74-3.272 3.563.826 8.244 4.058 10.902 1.274 1.048 2.413 1.78 2.914 2.008v.023c.017-.01.035-.001.04 0v-.023c1.77-.802 11.53-7.943 6.97-12.9"/></svg>