<svg xmlns="http://www.w3.org/2000/svg" xmlns:xlink="http://www.w3.org/1999/xlink" height="40" width="40"><path fill="#b8d432" d="M40 20.4v-2.9L22.5 0H1.8L40 38.1z"/><g fill="#7fba00"><use xlink:href="#B"/><use xlink:href="#C"/><use xlink:href="#D"/><use xlink:href="#E"/><path d="M26.4 18.5l-.6-.6 3.6-3.6.6.6-3.6 3.6z"/><use xlink:href="#F"/><use xlink:href="#G"/></g><g fill="#1e1e1e"><use xlink:href="#B" opacity=".35"/><use xlink:href="#C" opacity=".35"/><use xlink:href="#D" opacity=".35"/><use xlink:href="#E" opacity=".35"/><path opacity=".35" d="M26.4 18.5l-.6-.6 3.6-3.6.6.6-3.6 3.6z"/><use xlink:href="#F" opacity=".35"/><use xlink:href="#G" opacity=".35"/><path opacity=".6" d="M40 38.1L1.8 0H0l40 40z"/></g><defs ><path id="B" d="M15.1 4.6l-1.3 1.3-.6-.6 3.6-3.6 1.1 1.1c.4.4.6.8.7 1.2a1.58 1.58 0 0 1-.5 1.2c-.3.3-.8.5-1.2.5-.5 0-.9-.2-1.3-.6l-.5-.5zm1.8-1.8l-1.3 1.3.4.4c.3.3.5.4.8.4s.5-.1.7-.3c.4-.4.4-.9-.1-1.4l-.5-.4z"/><path id="C" d="M19.1 11.2l-.7-.7.4-1.5c0-.1.1-.3.1-.4v-.3c0-.1 0-.2-.1-.3 0-.1-.1-.2-.2-.2l-.2-.2L16.9 9l-.6-.6 3.6-3.6L21.1 6c.2.2.3.3.4.5s.2.4.2.6 0 .4-.1.6-.2.4-.3.5-.3.2-.4.3-.3.1-.4.1H20c-.2 0-.3-.1-.5-.2v.9c0 .1 0 .2-.1.3l-.3 1.6zm.9-5.3l-1.2 1.2.5.5c.1.1.2.2.3.2s.2.1.3.1.2 0 .3-.1c.1 0 .2-.1.3-.2.2-.2.3-.4.2-.6 0-.2-.1-.4-.3-.6l-.4-.5z"/><path id="D" d="M21.6 13.7l-2-2 3.6-3.6 1.9 1.9-.5.5-1.3-1.3-1 1 1.2 1.2-.5.6-1.2-1.2-1.1 1.1 1.4 1.4-.5.4z"/><path id="E" d="M28.8 13.7L23.9 16l-.7-.7 2.3-4.9.7.7-1.8 3.6c-.1.1-.1.2-.2.4.1-.1.2-.2.4-.2l3.6-1.8.6.6z"/><path id="F" d="M29.4 21.5l-2-2 3.6-3.6 1.9 1.9-.5.5-1.3-1.3-1 1 1.2 1.2-.5.5-1.2-1.2-1.1 1.1 1.4 1.4-.5.5z"/><path id="G" d="M38.3 23.2l-4.6 2.6-.7-.7 1.8-3.2c.1-.1.2-.3.3-.4-.1.1-.3.2-.4.3l-3.2 1.8-.7-.7 2.6-4.6.7.7-2 3.3c-.1.1-.2.3-.3.4.1-.1.2-.2.4-.3l3.4-1.9.6.6-2 3.3c-.1.1-.2.2-.3.4.1-.1.2-.2.4-.3l3.3-2 .7.7z"/></defs></svg>