<svg xmlns="http://www.w3.org/2000/svg" width="45" height="50"><path d="M17.2 50h10.6l-3.2-28.2h-4.2z" fill="#59b4d9"/><g fill="#3e3e3e"><path d="M37.8 22.5C37.8 14 31 7.1 22.5 7.1S7.2 14 7.2 22.5c0 5.6 3 10.5 7.6 13.2.5-.8.9-1.6 1.3-2.3-3.7-2.2-6.2-6.2-6.2-10.9 0-7 5.7-12.7 12.7-12.7s12.7 5.7 12.7 12.7a12.73 12.73 0 0 1-6.2 10.9c.4.7.9 1.5 1.3 2.3 4.4-2.7 7.4-7.6 7.4-13.2" opacity=".5"/><path d="M11.2 41.9l1.3-2.4c-5.9-3.4-9.8-9.8-9.8-17.1 0-10.8 8.9-19.7 19.8-19.7s19.8 8.9 19.8 19.8c0 7.3-4 13.6-9.8 17.1.4.8.9 1.6 1.3 2.4C40.5 38.1 45 30.9 45 22.6 45 10.1 34.9 0 22.5 0S0 10.1 0 22.5C0 30.7 4.6 38 11.2 41.9" opacity=".2"/></g><circle cx="22.5" cy="22.6" r="6.8" fill="#0072c6"/></svg>