<svg xmlns="http://www.w3.org/2000/svg" height="46" width="50"><path d="M32.4 36.4H18.8c1.6 5.7-.6 6.6-10.2 6.6v3h32.6v-3c-9.5 0-10.4-.8-8.8-6.6" fill="#7a7a7a"/><path d="M47 0H2.7C1.2 0 0 1.3 0 2.8v30.8c0 1.5 1.2 2.8 2.7 2.8H47c1.5 0 3-1.3 3-2.8V2.8C50 1.3 48.5 0 47 0m-.8 3.8v28.7H3.8V3.8l42.4-.1z" fill="#a0a1a2"/><path d="M3.8 32.6V3.8h42.3v28.8z" fill="#59b4d9"/><path d="M3.8 32.6V3.8l38.7-.1L47 0H2.7C1.2 0 0 1.3 0 2.8v30.8c0 1.5 1.2 2.8 2.7 2.8h1.1l4.6-3.8z" opacity=".2" fill="#fff"/><path d="M3.8 3.8v28.8z" fill="#59b4d9"/><path d="M8.7 43h32.7v3H8.7z" fill="#a0a1a2"/><path d="M25.5 2.1a.68.68 0 0 1-.7.7.68.68 0 0 1-.7-.7.68.68 0 0 1 .7-.7.68.68 0 0 1 .7.7" fill="#b8d432"/><path d="M16.2 22.9l5.3-6.1 3.6 3.4 6.2-11.6L35 25.1l3.6-8.2 7.6 3v12.7H3.8V18.7l8.7-1.9z" fill="#0072c6"/><path d="M38.1 15.4l-2.8 6.3-3.6-16.2-6.8 12.8-3.5-3.2-5.1 5.9-3.3-5.6-9.2 2v2H4l8-1.8 4 6.7 5.6-6.4 3.8 3.6 5.5-10.4 3.7 16.8 4.5-9.9 6.7 2.6h.3v-2.1z" fill="#b8d432"/></svg>