<svg xmlns="http://www.w3.org/2000/svg" width="37.722" height="50"><path d="M0 6.83V43.17C0 46.94 8.445 50 18.86 50V6.83z" fill="#3999c6"/><path d="M18.603 50h.258c10.416 0 18.86-3.057 18.86-6.83V6.83h-19.12z" fill="#59b4d9"/><path d="M37.722 6.83c0 3.773-8.445 6.83-18.86 6.83S0 10.603 0 6.83 8.445 0 18.86 0s18.86 3.058 18.86 6.83" fill="#fff"/><path d="M33.866 6.438c0 2.49-6.718 4.507-15.005 4.507S3.855 8.928 3.855 6.438 10.574 1.93 18.86 1.93s15.005 2.017 15.005 4.507" fill="#7fba00"/><path d="M30.722 9.19c1.964-.762 3.145-1.716 3.145-2.752 0-2.49-6.718-4.508-15.006-4.508S3.856 3.95 3.856 6.44c0 1.036 1.18 2 3.145 2.752C9.744 8.126 14.03 7.44 18.86 7.44s9.116.687 11.86 1.752" fill="#b8d432"/><path d="M11.186 26.483l5.787 5.788L28.55 20.694l2.9 2.895-14.467 14.47-8.677-8.684z" fill="#fff"/></svg>