<svg xmlns="http://www.w3.org/2000/svg" width="50" height="45.137" viewBox="0.5 0.5 50 45.137" fill="#59b4d9"><path d="M45.636 23.068l-.02-.973h-4.288l.03.973-.054 1.362c-.283 3.82-1.744 7.32-4.023 10.13-1.325-.697-2.826-1.296-4.46-1.78.74-2.513 1.203-5.342 1.31-8.35a38.34 38.34 0 0 0 .027-1.362l-.013-.973c-.077-3.01-.507-5.85-1.217-8.38 1.682-.504 3.22-1.132 4.57-1.863 1.364-.74 2.534-1.582 3.47-2.505-.477-.62-.987-1.215-1.524-1.783C35.328 3.22 29.51.5 23.068.5S10.808 3.22 6.692 7.563a22.71 22.71 0 0 0-1.524 1.783A22.45 22.45 0 0 0 .5 23.068a22.45 22.45 0 0 0 4.843 13.945c.483.612.995 1.2 1.537 1.758 4.104 4.23 9.842 6.866 16.187 6.866S35.15 43 39.255 38.77c.542-.56 1.055-1.145 1.537-1.758a22.45 22.45 0 0 0 4.798-12.583c.028-.45.046-.903.046-1.36zM10.507 36.34a22.95 22.95 0 0 1 3.563-1.355c.838 2.143 1.893 3.98 3.1 5.39-2.515-.858-4.784-2.245-6.673-4.034zM4.834 24.43h7.172c.108 3 .57 5.838 1.31 8.35-1.633.483-3.134 1.082-4.46 1.78-2.28-2.812-3.74-6.3-4.023-10.13zM8.64 11.852c1.35.73 2.888 1.36 4.57 1.863-.7 2.53-1.14 5.37-1.217 8.38H4.81a18.19 18.19 0 0 1 3.83-10.244zm8.543-6.094c-1.284 1.485-2.4 3.444-3.25 5.74-1.326-.396-2.567-.88-3.694-1.447 1.942-1.914 4.3-3.394 6.944-4.293zm4.524 6.97c-1.9-.072-3.76-.293-5.5-.656a20.18 20.18 0 0 1 1.072-2.335c1.278-2.354 2.84-3.923 4.428-4.506zm0 9.367h-7.38c.074-2.77.466-5.417 1.14-7.8 1.95.425 4.048.7 6.24.77zm0 9.366a35.31 35.31 0 0 0-6.133.747c-.705-2.367-1.127-5.008-1.23-7.778h7.364zm0 9.444c-1.59-.583-3.15-2.15-4.428-4.506-.338-.622-.648-1.283-.93-1.976 1.698-.346 3.5-.556 5.358-.627zm2.335-7.123c1.997.053 3.93.27 5.747.64a20.11 20.11 0 0 1-.93 1.976c-1.382 2.546-3.095 4.174-4.817 4.628zm4.817-24.045a20.35 20.35 0 0 1 1.072 2.335c-1.858.388-3.84.616-5.89.67V5.11c1.72.454 3.434 2.082 4.817 4.628zm3.345 1.76c-.86-2.296-1.965-4.254-3.25-5.74 2.634.9 5.002 2.38 6.944 4.293-1.127.568-2.368 1.05-3.694 1.447zM31.8 22.095h-7.77v-7.017c2.334-.06 4.564-.334 6.63-.784.673 2.384 1.066 5.032 1.14 7.8zm-.016 2.335c-.104 2.77-.526 5.412-1.23 7.778-2.035-.437-4.228-.703-6.522-.76V24.43zm3.835 11.91c-1.89 1.8-4.162 3.18-6.677 4.04 1.22-1.4 2.275-3.25 3.114-5.395 1.274.372 2.47.825 3.563 1.356z"/><path d="M36.785 24.43H50.5l-6.858-11.878z"/></svg>