<svg xmlns="http://www.w3.org/2000/svg" height="50" width="41.4"><path d="M4.8 33.6C2.2 33.8 0 36 0 38.8v6C0 47.7 2.4 50 5.2 50h6c2.9 0 5.2-2.4 5.2-5.2v-6c0-2.6-2.1-5-4.8-5.2V16.4c2.6-.2 4.8-2.4 4.8-5.2v-6C16.4 2.3 14 0 11.2 0h-6C2.4 0 .1 2.4.1 5.2v6c0 2.6 2.1 5 4.8 5.2v17.2M12 11.2c0 .2-.2.5-.5.5h-6c-.2 0-.5-.2-.5-.5v-6c0-.2.2-.5.5-.5h6c.2.1.5.3.5.5v6M4.8 39.3c0-.2.2-.5.5-.5h6c.2 0 .5.2.5.5v6c0 .2-.2.5-.5.5h-6c-.2 0-.5-.2-.5-.5z" fill="#194f7a" fill-rule="evenodd"/><path d="M36.7 33.6h-.1V23.3c0-1-.5-1.9-1-2.6l-4-3.9 4.4-4.4H21.5v14.5l5.1-5.1 2.8 2.8v9.1C27 34 25 36.1 25 38.8v6c0 2.9 2.4 5.2 5.2 5.2h6c2.9 0 5.2-2.4 5.2-5.2v-6c0-2.6-2.1-5-4.7-5.2zm0 11.6c0 .2-.2.5-.5.5h-6c-.2 0-.5-.2-.5-.5v-6c0-.2.2-.5.5-.5h6c.2 0 .5.2.5.5z" fill="#59b4d9"/></svg>