<svg xmlns="http://www.w3.org/2000/svg" height="39.5" width="49.9"><path d="M44.7 34.2v-9.7c-2.1 1.2-5 2.3-5.2 2.3-.9 0-2.3-1.8-3.5-3-1.8 1.8-5.2 5.4-5.8 5.4-1.5 0-4.1-7.8-4.9-9.6-1.7 1.5-4.9 4.8-5.5 4.8s-1.2-.8-2.5-1.6v11.5h27.4zm0-12.2V12H17.3v8.2c1 .4 1.2 1.2 2.2 1.8 2-2.1 5.2-5.7 6.1-5.7 1.2 0 4.4 8.7 4.9 9.6 1.7-1.5 4.9-4.8 5.5-4.8.9 0 2.6 2.1 3.8 3.3zM5.5 9.2h39.3V5.3H5.5zm8.9 25V12h-9v22.2zm-2.5-5.8c0 1.1-.9 2-2 2s-1.9-.9-1.9-2 .9-2 1.9-2 2 .9 2 2zm0-5.4c0 1.1-.9 2-2 2S8 24.1 8 23s.9-2 1.9-2 2 .8 2 2zm0-5.6c0 1.1-.9 2-2 2s-1.9-.9-1.9-2 .9-2 1.9-2 2 .9 2 2zM2.3 0C1.2 0 0 1.2 0 2.4v34.7c0 1.2 1.2 2.4 2.3 2.4h45.3c1.2 0 2.3-1.2 2.3-2.4V2.4c0-1.2-1.2-2.4-2.3-2.4zm0 2.4h45.3v34.7H2.3z" fill="#59b4d9" fill-rule="evenodd"/></svg>