<svg xmlns="http://www.w3.org/2000/svg" width="49" height="43"><path d="M44 43H6c-3.314 0-6-3.686-6-7V0h49v37c0 3.314-1.686 6-5 6z" fill="#3e3e3e"/><path d="M19 0h11v39H19z" fill="#fff"/><path d="M19 0h11v39H19z" fill="#59b4d9"/><path d="M34 0h11v39H34z" fill="#804998"/><path d="M4 0h11v39H4z" fill="#59b4d9"/><g fill="#fff"><path d="M19 39V0h2v39zM4 39V0h2v39z" opacity=".4"/><path d="M34 39V0h2v39z" opacity=".3"/><path d="M4.934 42.9H8L40 0H0v36c0 2.95 2.13 6.396 4.934 6.9z" opacity=".15"/></g></svg>