<svg xmlns="http://www.w3.org/2000/svg" width="31.34" height="31.57"><path d="M6.77 17.92s-3.83-2.8-6.77-1.8c.94-2.92 5.1-6.36 8.72-7.17 4.2.3 4.9 1 4.9 1l-6.86 7.97z" fill="#ff8c00"/><g fill="#dd5900"><path d="M13.67 24.8l7.97-6.86s.7.7 1 4.9c-.8 3.63-4.25 7.78-7.17 8.7 1-2.93-1.8-6.76-1.8-6.76z"/><path d="M31.34 0S15.88 2.73 6.6 17.68l7.07 7.07C28.6 15.45 31.34 0 31.34 0z"/><path d="M31.34 0L10.12 21.2l3.54 3.54C28.6 15.45 31.34 0 31.34 0z"/></g><path d="M7.55 18.64C14.8 7.5 25.3 3.17 29.27 2.06c-1.1 4-5.43 14.46-16.58 21.72z" fill="#ff8c00"/><path d="M31.34 0s-3.86.68-8.9 3.23L28.1 8.9C30.65 3.86 31.34 0 31.34 0z" fill="#0072c6"/><path d="M1.05 30.28s.6-9.07 5.54-12.6l7.07 7.07c-3.54 4.96-12.6 5.54-12.6 5.54z" fill="#ff8c00"/><path d="M2.65 28.7c-.17-1.64 2.1-7.44 4.93-10.03l5.1 5.1c-2.6 2.85-8.4 5.1-10.03 4.93z" fill="#fcd116"/><g fill="#fff"><path d="M4.3 27.02c.02-1.57 2.47-5.85 3.98-7.64l3.66 3.66c-2 1.72-6.5 3.97-7.64 3.98z" opacity=".6"/><circle cx="20.02" cy="11.31" r="4"/></g><circle cx="20.02" cy="11.31" r="3" fill="#fcd116"/><path d="M17.3 12.58c-.7-1.5-.05-3.28 1.45-3.98s3.28-.05 3.98 1.45z" opacity=".4" fill="#fff"/><path d="M12.243 17.673l1.414 1.414L8 24.744 6.586 23.33z" fill="#dd5900"/></svg>