<svg xmlns="http://www.w3.org/2000/svg" width="49.999" height="34.002" viewBox="-0.5 0.5 49.999 34.002"><path d="M42.63 15.174c.25-.976.386-1.985.386-3.006 0-4.03-1.973-7.582-5.02-9.73l-4.78 8.054c-.196.303-.045.555.32.555l6.134-.04c.353-.012.442.208.205.472L24.04 29.537c-.234.27-.33.226-.187-.104L28.85 17.23c.116-.323-.05-.59-.4-.59h-4.864c-.347 0-.537-.252-.4-.6L29 .5c-3.935.742-7.17 3.448-8.677 7.054-1.525-1.804-3.8-2.96-6.36-2.96-4.597 0-8.342 3.76-8.342 8.404a8.42 8.42 0 0 0 .32 2.297C2.19 16.69-.5 20.332-.5 24.596c0 5.463 4.398 9.906 9.83 9.906h30.334c5.448 0 9.834-4.436 9.834-9.906a9.84 9.84 0 0 0-6.869-9.422z" fill="#59b4d9"/></svg>