<svg xmlns="http://www.w3.org/2000/svg" height="50" width="50"><path fill="#7a7a7a" d="M50 25.5c0-3.2-2.6-5.8-5.8-5.8h-.7c.4-1.3.5-2.7.5-4.1C44.1 7 37.1 0 28.6 0 21.8 0 16 4.4 14 10.6c-1.1-.4-2.2-.6-3.4-.6C4.7 10 0 14.8 0 20.7s4.7 10.6 10.5 10.6h34.1c3.1-.3 5.4-2.8 5.4-5.8"/><path opacity=".2" fill="#fff" d="M16.2 31.3a10.69 10.69 0 0 1-2.9-5.2c-1.3-5.7 2.2-11.4 7.9-12.7 1.2-.3 2.4-.3 3.5-.2.5-5.4 3.8-10.1 8.6-12.5-1.5-.4-3-.7-4.7-.7C21.8 0 16 4.4 14 10.6c-1.1-.4-2.2-.6-3.4-.6C4.7 10 0 14.8 0 20.7s4.7 10.6 10.5 10.6h5.7z"/><path fill="#59b4d9" d="M38.1 44.8c0 2.9-2.3 5.2-5.2 5.2s-5.2-2.3-5.2-5.2 5.2-12.7 5.2-12.7 5.2 9.8 5.2 12.7z"/><path opacity=".3" fill="#fff" d="M30.5 46.4c-.5-2.5 1.3-9.8 2.5-14.1-.1-.1-.1-.2-.1-.2s-5.2 9.8-5.2 12.7c0 2.7 2.1 5 4.8 5.2-1-.9-1.7-2.2-2-3.6z"/></svg>