<svg xmlns="http://www.w3.org/2000/svg" height="48.8" width="50"><path d="M15.9 0h3.9v4.3h-3.9zm8.5 0h3.9v4.3h-3.9zM33 0h3.9v4.3H33zm8.5 0h3.9v4.3h-3.9zM33 18h3.9v4.3H33zm8.5 0h3.9v4.3h-3.9zM3.6 26.5h3.9v4.3H3.6zm8.5 0H16v4.3h-3.9zm-8.5 18h3.9v4.3H3.6zm8.5 0H16v4.3h-3.9zm8.5 0h3.9v4.3h-3.9zm8.5 0H33v4.3h-3.9z" fill="#fcd116"/><path d="M22.4 8.2l2-2 2.1 2 5.2 5.2.8.9V18H50V4.3H12.4V18h4v-3.7l.8-.9zm4.1 31.7L24.4 42l-2-2.1-5.2-5.1-.8-.9v-3.1H0v13.7h37.6V30.8h-5.1v3.1l-.8.9z" fill="#7fba00"/><path d="M22.7 17.2V31l-3.4-3.5v5.2l5.1 5.2 5.2-5.2v-5.2L26.2 31V17.2l3.4 3.4v-5.1l-5.2-5.2-5.1 5.2v5.1z" fill="#0072c6"/></svg>