<svg xmlns="http://www.w3.org/2000/svg" xmlns:xlink="http://www.w3.org/1999/xlink" width="50.025" height="34.142"><g fill="#0072c6"><path d="M10.213 11.542v12.7c0 3 6.6 5.3 14.8 5.3v-18z"/><path d="M24.813 29.642h.2c8.1 0 14.8-2.4 14.8-5.3v-12.8h-15z"/></g><path d="M24.813 29.642h.2c8.1 0 14.8-2.4 14.8-5.3v-12.8h-15z" opacity=".15" fill="#fff"/><g fill="#0072c6"><path d="M48.654 8.725c1.8.7 1.8 2 0 2.7l-20.3 8.3c-1.8.7-4.8.7-6.6 0l-20.3-8.2c-1.8-.7-1.8-2 0-2.7l20.3-8.3c1.8-.7 4.8-.7 6.6 0z"/><use xlink:href="#B"/></g><g fill="#1e1e1e"><use xlink:href="#B" opacity=".25"/><circle cx="25.013" cy="9.042" r="1.9" opacity=".25"/></g><path d="M10.013 14.642l13.1-5.3.4.9-12.5 5.1v18h-1z" fill="#fcd116"/><path d="M9.113 34.142v-12.5c0-.7.6-1.4 1.4-1.4.7 0 1.4.6 1.4 1.4v12.4h-2.8z" fill="#ff8c00"/><defs ><path id="B" d="M.013 11.742c-.1.5.4 1.1 1.4 1.5l20.3 8.3c1.8.7 4.8.7 6.6 0l20.3-8.3c1-.4 1.4-1 1.4-1.5v-1.8c.1.5-.4 1.1-1.4 1.5l-20.3 8.3c-1.8.7-4.8.7-6.6 0l-20.3-8.3c-1.1-.4-1.5-1-1.3-1.6z"/></defs></svg>