<svg xmlns="http://www.w3.org/2000/svg" xmlns:xlink="http://www.w3.org/1999/xlink" width="47.81" height="47.806"><circle cx="23.905" cy="23.9" r="21.756" fill="#fff"/><path d="M43.853 32.583a21.76 21.76 0 0 1-28.632 11.265L32.588 3.952c11.018 4.795 16.06 17.614 11.265 28.63z" fill="#e5e5e5"/><path d="M23.905 2.97c11.54 0 20.93 9.39 20.93 20.93s-9.39 20.93-20.93 20.93-20.93-9.39-20.93-20.93 9.39-20.93 20.93-20.93m0-2C11.24.97.975 11.236.975 23.9s10.266 22.93 22.93 22.93 22.93-10.266 22.93-22.93S36.57.97 23.905.97z" fill="#a0a1a2"/><g fill="#7a7a7a"><use xlink:href="#B"/><use xlink:href="#C"/><path d="M15.167 38.097l1.683-2.915.94.543-1.682 2.915zM7.102 23.344h3.367v1.086H7.102z"/></g><g fill="#1e1e1e"><use xlink:href="#B" opacity=".5"/><use xlink:href="#C" opacity=".5"/><path d="M15.167 38.097l1.683-2.915.94.543-1.682 2.915z" opacity=".5"/></g><g fill="#7a7a7a"><use xlink:href="#D"/><use xlink:href="#E"/><path d="M9.2 31.846l2.914-1.683.543.94-2.914 1.683z"/></g><g fill="#1e1e1e"><use xlink:href="#D" opacity=".5"/><use xlink:href="#E" opacity=".5"/><path d="M9.2 31.846l2.914-1.683.543.94-2.914 1.683zm-2.098-8.502h3.367v1.086H7.102z" opacity=".5"/></g><g fill="#7a7a7a"><path d="M34.672 28.983l-9.31-2.53c-.994-.286-1.574-1.317-1.302-2.315s1.293-1.594 2.295-1.338l9.31 2.53c.994.286 1.574 1.317 1.302 2.315s-1.293 1.594-2.295 1.338z"/><path d="M24 26.523c-.94 0-1.703-.848-1.703-1.893V8.518c0-1.045.763-1.893 1.703-1.893s1.703.848 1.703 1.893V24.63c0 1.046-.762 1.893-1.703 1.893z"/></g><circle cx="23.905" cy="23.9" r="3.235" fill="#1e1e1e"/><path d="M23.905 46.83c12.664 0 22.93-10.266 22.93-22.93S36.57.97 23.905.97c-.176 0-.35.01-.523.013l-.084 4.022 1 .02c8.613.182 16.015 6.15 18 14.512 2.404 10.14-3.89 20.346-14.028 22.75a18.93 18.93 0 0 1-4.362.513h-.002A18.84 18.84 0 0 1 5.515 28.261c-1.448-6.105.276-12.467 4.41-17.034l4.037 4.11L16.378 2.24C7.413 5.356.975 13.874.975 23.9c0 12.664 10.266 22.93 22.93 22.93z" opacity=".5" fill="#fff"/><g fill="#804998"><path d="M13.328 13.263L3.516 3.277 15.55 1.225z"/><path d="M24.402 0l-.084 4.027c8.844.187 16.815 6.283 18.95 15.28 2.532 10.677-4.094 21.423-14.77 23.955S7.074 39.17 4.542 28.492C2.674 20.615 5.8 12.712 11.85 8.086L8.987 5.224C1.995 10.817-1.553 20.125.65 29.416 3.696 42.26 16.577 50.2 29.42 47.155s20.785-15.927 17.74-28.77C44.592 7.557 35.034.214 24.402 0z"/></g><defs ><path id="B" d="M9.036 15.85l.543-.94 2.915 1.683-.543.94zM23.448 6.94h1.085v3.366h-1.085zm6.817 5.005l1.683-2.915.94.543-1.683 2.915zm7.04 11.4h3.366v1.086h-3.366zM35.2 30.96l.543-.94 2.914 1.682-.543.94z"/><path id="C" d="M35.2 30.96l.543-.94 2.914 1.682-.543.94zm-11.753 6.19h1.085v3.366h-1.085zM9.036 15.85l.543-.94 2.915 1.683-.543.94zm6.13 22.246l1.683-2.915.94.543-1.682 2.915z"/><path id="D" d="M15.013 9.514l.94-.543 1.683 2.915-.94.543zm20.338 7.23l2.915-1.683.543.94-2.915 1.683zM30.12 35.68l.94-.543 1.683 2.914-.94.543z"/><path id="E" d="M30.12 35.68l.94-.543 1.683 2.914-.94.543zM15.013 9.514l.94-.543 1.683 2.915-.94.543zM9.2 31.846l2.914-1.683.543.94-2.914 1.683z"/></defs></svg>