<svg xmlns="http://www.w3.org/2000/svg" width="50" height="46.149"><path d="M48.066 9.912V5.935H21.898L15.964 0H.001v43.708a2.37 2.37 0 0 0 2.37 2.372H47.63c1.3-.001 2.37-1.062 2.37-2.372V9.912z" fill="#fee087"/><path d="M26.177 25.945a.32.32 0 0 1-.155-.044l-10.175-5.873a.31.31 0 0 1 0-.533L25.96 13.66c.095-.053.21-.053.306 0l10.178 5.876c.094.055.152.156.152.265s-.057.212-.152.267L26.332 25.9c-.047.028-.1.044-.155.044" fill="#dd5900"/><g fill="#ff8c00"><path d="M24.715 40.22c-.054.001-.108-.013-.155-.04l-10.144-5.855c-.097-.054-.157-.156-.156-.267V22.31a.31.31 0 0 1 .156-.269c.097-.053.213-.053.3 0l10.143 5.855a.32.32 0 0 1 .15.268v11.75c0 .113-.06.21-.15.267-.047.027-.1.04-.154.04"/><path d="M27.586 40.22c-.055 0-.11-.014-.157-.04a.31.31 0 0 1-.152-.267V28.24c0-.1.06-.21.152-.268l10.14-5.853a.31.31 0 0 1 .462.266v11.674c0 .11-.06.213-.156.267l-10.14 5.855c-.045.028-.097.042-.15.04" opacity=".5"/></g><path d="M4.743 9.912v33.796a2.37 2.37 0 0 1-3.577 2.112 2.37 2.37 0 0 1-1.165-2.112V0h15.963l5.934 5.935h26.168v3.977H4.743z" opacity=".2" fill="#1e1e1e"/></svg>