<svg xmlns="http://www.w3.org/2000/svg" width="50" height="50"><path fill="#a0a1a2" d="M25 50c-1.232 0-2.392-.48-3.26-1.352L1.35 28.26A4.64 4.64 0 0 1 0 24.999a4.64 4.64 0 0 1 1.351-3.26L21.74 1.35a4.58 4.58 0 0 1 6.522 0L48.648 21.74C49.52 22.607 50 23.766 50 25s-.48 2.392-1.353 3.263L28.262 48.648A4.58 4.58 0 0 1 25.001 50"/><g fill="#fff"><path opacity=".15" d="M28.262 1.35a4.58 4.58 0 0 0-3.261-1.352c-1.23 0-2.39.48-3.26 1.352L1.352 21.74C.492 22.597 0 23.785 0 25s.492 2.403 1.352 3.26l11.543 11.544L34.6 7.698 28.262 1.35z"/><path d="M18.27 27.734h1.893l.086-.266.663-2.025 1.304-.54 2.198 1.04 1.337-1.336-.127-.25-.962-1.9.54-1.305 2.29-.818.002-1.89-.27-.087-2.023-.663-.54-1.304 1.04-2.198-1.337-1.337-2.15 1.09-1.302-.54-.82-2.3-1.89-.001-.088.267-.66 2.025-1.306.54-2.196-1.04-1.34 1.336.128.25.964 1.9-.54 1.302-2.29.82-.001 1.89 2.29.75.54 1.305-1.04 2.196 1.336 1.34.25-.127 1.9-.964 1.305.542.817 2.29zm-2.96-8.313c.001-2.138 1.736-3.87 3.874-3.87s3.87 1.736 3.87 3.875a3.87 3.87 0 0 1-3.874 3.869c-2.138-.002-3.87-1.737-3.87-3.875"/></g><path fill="#b8d432" d="M19.18 21.937c-1.39-.001-2.514-1.128-2.513-2.515s1.127-2.512 2.516-2.51 2.513 1.127 2.512 2.513-1.127 2.514-2.515 2.513"/><g fill="#fff"><path d="M40.918 28.692l-2.788 2.9c-1.033 1.063-2.23 1.16-3.607.835l4.88-5.054c.722-.745.27-2.213-.52-2.905-.782-.692-2.28-.945-3-.2L31.01 29.31c-.453-1.278-.444-2.43.58-3.484l2.788-2.9c1.5-1.55 4.4-1.47 6.022-.05s2.064 4.27.565 5.82l-.04-.026zM28.252 38.92l4.88-5.054c.444 1.278.444 2.43-.6 3.485l-2.778 2.9c-1.5 1.55-4.37 1.286-5.992-.134-1.612-1.42-2.055-4.062-.556-5.6l2.788-2.9c1.024-1.062 2.23-1.16 3.597-.844l-4.88 5.054c-.722.754-.34 2.16.45 2.85.782.692 2.245 1.05 2.977.296l.103-.043z"/><path fill-rule="evenodd" d="M27.794 34.505l6.965-7.218c.384-.397 1.23-1.307 1.98-.558.645.645-.082 1.48-.465 1.888l-6.975 7.218c-.384.397-1.46 1.62-2.154.928-.87-.87.256-1.86.65-2.258z"/></g></svg>