<svg xmlns="http://www.w3.org/2000/svg" xmlns:xlink="http://www.w3.org/1999/xlink" height="49.7" width="48.2"><path d="M28.4 10.2c0 5.6-4.6 10.2-10.2 10.2A10.18 10.18 0 0 1 8 10.2C8 4.6 12.6 0 18.2 0a10.18 10.18 0 0 1 10.2 10.2M10.8 23.9H0v25.8h36.5V23.9H25.7l-7.5 10.5z" fill="#b8d432"/><path d="M8 10.2c0 5.6 4.4 10.1 10 10.2L20.6.3c-.7-.2-1.5-.3-2.3-.3C12.6 0 8 4.6 8 10.2M0 49.7h14.3l2.3-17.6-5.8-8.2H0z" opacity=".2" fill="#fff"/><path d="M37.7 37.1h-.1l-9-5.2c-.1 0-.1-.1-.1-.2s.1-.2.1-.2l9-5.2h.3l9 5.2c.1 0 .1.1.1.2s-.1.2-.1.2l-9 5.2c-.1-.1-.2 0-.2 0" fill="#3999c6"/><g fill="#59b4d9"><path d="M36.4 49.7h-.1l-9-5.2c-.1 0-.1-.1-.1-.2V33.8c0-.1.1-.2.1-.2h.3l9 5.2c.1.1.1.1.1.2v10.4c0 .1-.1.2-.1.2-.1.1-.2.1-.2.1"/><use xlink:href="#B"/></g><use xlink:href="#B" opacity=".5" fill="#fff"/><defs ><path id="B" d="M38.9 49.7h-.1c-.1 0-.1-.1-.1-.2V39.1c0-.1.1-.2.1-.2l9-5.2h.3c.1 0 .1.1.1.2v10.4c0 .1-.1.2-.1.2l-9 5.2h-.2"/></defs></svg>