<svg xmlns="http://www.w3.org/2000/svg" xmlns:xlink="http://www.w3.org/1999/xlink" width="50" height="40.342"><path d="M25.047 17.818a.43.43 0 0 1-.22-.064l-14.71-8.5c-.14-.08-.223-.228-.223-.39s.083-.304.223-.382L24.732.058a.45.45 0 0 1 .442 0l14.714 8.495c.133.078.22.224.22.382a.45.45 0 0 1-.221.387l-14.62 8.433a.44.44 0 0 1-.222.063" fill="#3999c6"/><g fill="#59b4d9"><path d="M22.932 38.455c-.08 0-.158-.02-.226-.06L8.042 29.932c-.142-.08-.226-.224-.226-.386V12.56a.45.45 0 0 1 .226-.389c.134-.077.306-.077.448 0l14.662 8.464a.45.45 0 0 1 .218.387V38c0 .163-.083.305-.218.386a.44.44 0 0 1-.22.059"/><use xlink:href="#B"/></g><use xlink:href="#B" opacity=".5" fill="#fff"/><path d="M9.558 40.342a1.45 1.45 0 0 1-.726-.195l-6.845-3.952C.835 35.53 0 34.082 0 32.753V7.6a4.21 4.21 0 0 1 1.987-3.441L8.832.196c.697-.4 1.586-.163 1.987.532s.163 1.585-.532 1.987L3.442 6.667c-.243.14-.532.64-.532.922v25.164c0 .28.3.782.532.922l6.845 3.952c.696.402.934 1.3.532 1.987-.27.467-.758.728-1.26.728zM40.442 0a1.45 1.45 0 0 1 .726.195l6.845 3.952C49.165 4.813 50 6.26 50 7.6v25.164a4.21 4.21 0 0 1-1.987 3.441l-6.845 3.952c-.697.4-1.586.163-1.987-.532s-.163-1.585.532-1.987l6.845-3.952c.243-.14.532-.64.532-.922V7.6c0-.28-.3-.782-.532-.922l-6.845-3.952c-.696-.402-.934-1.3-.532-1.987A1.45 1.45 0 0 1 40.442 0z" fill="#7a7a7a"/><defs ><path id="B" d="M27.08 38.455c-.075 0-.152-.02-.226-.06-.136-.08-.22-.223-.22-.386V21.133a.45.45 0 0 1 .22-.387l14.66-8.46a.46.46 0 0 1 .448 0 .45.45 0 0 1 .22.385v16.877c0 .162-.085.306-.22.386l-14.665 8.464a.4.4 0 0 1-.217.058"/></defs></svg>