<svg xmlns="http://www.w3.org/2000/svg" xmlns:xlink="http://www.w3.org/1999/xlink" width="45" height="50"><path d="M22.56 23.167c-.103 0-.197-.03-.288-.083L3.01 12.045c-.183-.103-.292-.297-.292-.506 0-.203.108-.395.292-.496L22.15.075c.182-.1.405-.1.58 0L41.994 11.12c.174.102.3.29.3.496a.59.59 0 0 1-.29.504l-19.14 10.964c-.09.053-.188.083-.292.083" fill="#3999c6"/><g fill="#59b4d9"><path d="M19.792 50a.57.57 0 0 1-.295-.077L.295 38.917c-.185-.103-.295-.29-.295-.5V16.33c0-.207.1-.397.295-.506a.61.61 0 0 1 .586 0l19.2 11.006c.178.107.286.297.286.504V49.42c0 .212-.108.397-.286.502-.095.053-.192.077-.288.077"/><use xlink:href="#B"/></g><use xlink:href="#B" opacity=".5" fill="#fff"/><defs ><path id="B" d="M25.225 50c-.098 0-.2-.024-.295-.077-.178-.105-.288-.29-.288-.502V27.478a.59.59 0 0 1 .288-.504l19.196-11.002a.6.6 0 0 1 .587 0c.176.103.287.295.287.5v21.943a.58.58 0 0 1-.287.502L25.51 49.923c-.082.053-.186.077-.286.077"/></defs></svg>