<svg xmlns="http://www.w3.org/2000/svg" xmlns:xlink="http://www.w3.org/1999/xlink" height="50" width="50"><path fill="#3999c6" d="M17.2 17.8c-.1 0-.1 0-.2-.1L2.3 9.3a.76.76 0 0 1-.2-.4c0-.2.1-.3.2-.4L16.9.1c.1-.1.3-.1.4 0L32 8.6c.1.1.2.2.2.4s-.1.3-.2.4l-14.6 8.4h-.2"/><g fill="#59b4d9"><path d="M15.1 38.5c-.1 0-.2 0-.2-.1L.2 29.9c-.1 0-.2-.2-.2-.4v-17c0-.2.1-.3.2-.4s.3-.1.4 0l14.7 8.5c.1.1.2.2.2.4v17c0 .2-.1.3-.2.4 0 0-.1.1-.2.1"/><use xlink:href="#B"/></g><use xlink:href="#B" opacity=".5" fill="#fff"/><path fill="#fcd116" d="M42.5 28.3c-.4 0-.6-.3-.4-.6l5.5-9.2H36.3l-5.9 15.6c-.2.4.1.7.5.7h5.7c.4 0 .6.3.5.7l-5.8 14.2c-.2.4-.1.4.2.1l18.4-21c.3-.3.2-.6-.2-.5h-7.2z"/><path opacity=".3" d="M36.6 34.8c.4 0 .6.3.5.7l-5.8 14.2c-.2.4-.1.4.2.1l8.1-15h-3zm-5.7 0h1.7l7.6-16.3h-3.9l-5.9 15.6c-.1.4.1.7.5.7z" fill="#ff8c00"/><defs ><path id="B" d="M19.3 38.5c-.1 0-.2 0-.2-.1-.1-.1-.2-.2-.2-.4V21.1c0-.2.1-.3.2-.4l14.7-8.5c.1-.1.3-.1.4 0s.2.2.2.4v16.9c0 .2-.1.3-.2.4l-14.7 8.5c-.1 0-.2.1-.2.1"/></defs></svg>