<svg xmlns="http://www.w3.org/2000/svg" width="50.043" height="42.008"><g fill="#804998"><path d="M41.68 32.32L39.2 42.008l-8.605-5.095z"/><path d="M24.025 22.004s-.475.862-1 1c6.594 0 10.902 10.95 13.47 17.34l3.33-.962c-2.623-6.94-5.8-17.378-15.8-17.378zM41.68 9.687L39.2 0l-8.605 5.095z"/><path d="M24.025 20.004s-.475-.862-1-1c6.594 0 10.902-10.95 13.47-17.34l3.33.962c-2.623 6.94-5.8 17.378-15.8 17.378zm18.018-5l8 6-8 6z"/><path d="M45.204 19.004v4.004H21v-4.004z"/></g><path d="M4.754 34.008H19c2.625 0 4.754-2.128 4.754-4.754V12.758c0-2.625-2.128-4.754-4.754-4.754H4.754C2.128 8.004 0 10.132 0 12.758v16.497c0 2.625 2.128 4.753 4.754 4.753z" fill="#7fba00"/><g fill="#fff"><path d="M4.754 34.008L19 8.004H4.754C2.128 8.004 0 10.132 0 12.758v16.497c0 2.625 2.128 4.753 4.754 4.753z" opacity=".2"/><path d="M14 18.004h6v6h-6zM4 12.008h6v6H4zm0 12h6v6H4z"/></g></svg>