<svg xmlns="http://www.w3.org/2000/svg" viewBox="0 0 50 50"><path fill="#0072c6" d="M0 48c0 1.1.9 2 2 2h46c1.1 0 2-.9 2-2V8.6H0V48z"/><path fill="#a0a1a2" d="M48 0H2C.9 0 0 .9 0 2v7.3h50V2c0-1.1-.9-2-2-2z"/><path opacity=".1" fill="#fff" d="M2 0C.9 0 0 .9 0 2v46c0 1.1.9 2 2 2h19.2L43.6 0H2z"/><g fill-rule="evenodd"><g fill="#e5e5e5"><path d="M34.6 28.8H15.4c-.8 0-1.5.7-1.5 1.7v7.2l2.6.7v-7h16.9v7l2.6-.7v-7.2c.1-1-.6-1.7-1.4-1.7z"/><path d="M26.3 31.2h-2.6v-7.1h2.6z"/></g><path d="M29.3 13h-8.5c-.9 0-1.7.7-1.7 1.7v8c0 .9.7 1.7 1.7 1.7h8.5c.9 0 1.7-.7 1.7-1.7v-8c-.1-1-.8-1.7-1.7-1.7zm-9.9 22.7h-8.5c-.9 0-1.7.7-1.7 1.7v8c0 .9.7 1.7 1.7 1.7h8.5c.9 0 1.7-.7 1.7-1.7v-8c0-.9-.8-1.7-1.7-1.7zm19.7 0h-8.5c-.9 0-1.7.7-1.7 1.7v8c0 .9.7 1.7 1.7 1.7h8.5c.9 0 1.7-.7 1.7-1.7v-8c-.1-.9-.8-1.7-1.7-1.7z" fill="#59b4d9"/></g></svg>