<svg xmlns="http://www.w3.org/2000/svg" height="49.9" width="46.206"><g fill="#7a7a7a" fill-rule="evenodd"><path d="M37.2 23.2H9c-1.2 0-2.3 1-2.3 2.5v10.7l3.9 1.1V27.1h24.9v10.3l3.9-1.1V25.7c0-1.5-1.1-2.5-2.2-2.5z"/><path d="M21.1 16.4H25v10.4h-3.9z"/></g><path d="M29.4 0H16.8c-1.3 0-2.4 1.1-2.4 2.4v11.7c0 1.3 1.1 2.4 2.4 2.4h12.5c1.3 0 2.4-1.1 2.4-2.4V2.4c.1-1.3-1-2.4-2.3-2.4zM14.9 33.4H2.4c-1.3 0-2.4 1.1-2.4 2.4v11.7c0 1.3 1.1 2.4 2.4 2.4h12.5c1.3 0 2.4-1.1 2.4-2.4V35.8c0-1.3-1.1-2.4-2.4-2.4zm28.9 0H31.3c-1.3 0-2.4 1.1-2.4 2.4v11.7c0 1.3 1.1 2.4 2.4 2.4h12.5c1.3 0 2.4-1.1 2.4-2.4V35.8c.1-1.3-1-2.4-2.4-2.4z" fill-rule="evenodd" fill="#59b4d9"/></svg>