<svg xmlns="http://www.w3.org/2000/svg" width="48" height="24.005"><path d="M0 24h24.26L48 0H0v24" fill="#0072c6"/><path d="M27.703 4.992H23.19v10.73L19.245 4.99h-3.91l-3.367 8.98c-.36-2.263-2.7-3.045-4.542-3.63-1.216-.39-2.507-.965-2.494-1.6.01-.522.692-1.006 2.043-.932a7.38 7.38 0 0 1 3.304.89l1.568-2.73a12.18 12.18 0 0 0-5.113-1.215h-.01a6.21 6.21 0 0 0-4.517 1.649c-.687.705-1.074 1.65-1.08 2.633-.08 1.25.51 2.45 1.55 3.153a10.54 10.54 0 0 0 3.069 1.404C7 13.98 8.023 14.317 8 15.037a1.05 1.05 0 0 1-.295.703 1.99 1.99 0 0 1-1.455.456c-1.328.05-2.637-.324-3.736-1.07l-1.394 2.77c1.558.885 3.318 1.354 5.1 1.36h.234a6.16 6.16 0 0 0 3.884-1.302l.165-.142-.453 1.21h4.1l.69-2.093a7.45 7.45 0 0 0 2.41.382c.798.004 1.592-.118 2.352-.362l.663 2.073h6.687v-4.336h1.46c3.525 0 5.6-1.796 5.6-4.804.001-3.353-2.025-4.89-6.337-4.89zM17.27 14.176c-.493.004-.983-.082-1.446-.253l1.433-4.514h.028l1.405 4.527a4.27 4.27 0 0 1-1.42.24zm10.7-2.594h-.997V7.945h.994c1.326 0 2.388.44 2.388 1.795 0 1.4-1.058 1.842-2.388 1.842" fill="#fff"/><g fill="#0072c6"><path d="M31.162 20.875a1.44 1.44 0 1 1 0 2.88 1.44 1.44 0 1 1 0-2.88m0-.25a1.69 1.69 0 0 0-1.464 2.535 1.69 1.69 0 0 0 3.154-.845 1.69 1.69 0 0 0-1.69-1.69z"/><path d="M31.473 22.42a.46.46 0 0 0 .463-.457l-.001-.03c0-.347-.208-.5-.625-.5h-.674v1.77h.267l.003-.768h.31l.465.766h.3zm-.568-.215v-.55h.362c.185 0 .383.04.383.26 0 .275-.2.29-.427.29z"/></g></svg>