<svg xmlns="http://www.w3.org/2000/svg" width="50" height="50"><path fill="#a0a1a2" d="M35.7,0H2.1C0.9,0,0,1,0,2.2v23.4c0,1.1,0.9,2.1,2.1,2.1h33.7c1.1,0,2.3-1,2.3-2.1V2.2C38,1,36.9,0,35.7,0"/><path opacity=".2" fill="#fff" d="M35.7 0H2.1C.9 0 0 1 0 2.2v23.4c0 1.1.9 2.1 2.1 2.1h.8L35.7 0z"/><path fill="#59b4d9" d="M35.1 24.8H2.9V2.9h32.2z"/><path fill="#b8d432" d="M19.4 1.6a.47.47 0 0 1-.5.5.47.47 0 0 1-.5-.5.47.47 0 0 1 .5-.5.47.47 0 0 1 .5.5"/><path fill="#a0a1a2" d="M41.7 7.5H8c-1.1 0-2.1 1-2.1 2.2v23.4c0 1.1.9 2.1 2.1 2.1h33.7c1.1 0 2.3-1 2.3-2.1V9.6c0-1.1-1.2-2.1-2.3-2.1"/><path opacity=".2" fill="#fff" d="M41.7 7.5H8c-1.1 0-2.1 1-2.1 2.2v23.4c0 1.1.9 2.1 2.1 2.1h.8L41.7 7.5z"/><path fill="#59b4d9" d="M41.1 32.3H8.8V10.4l32.3-.1z"/><path fill="#b8d432" d="M25.4 9a.47.47 0 0 1-.5.5.47.47 0 0 1-.5-.5.47.47 0 0 1 .5-.5c.2 0 .5.2.5.5"/><path fill="#7a7a7a" d="M36.6 42.7H26.2c1.2 4.4-.4 5-7.7 5V50h24.9v-2.3c-7.3 0-8-.6-6.8-5"/><path fill="#a0a1a2" d="M47.7 15H14c-1.1 0-2.1 1-2.1 2.2v23.4c0 1.1.9 2.1 2.1 2.1h33.7c1.1 0 2.3-1 2.3-2.1V17.1c0-1.1-1.2-2.1-2.3-2.1"/><path opacity=".2" fill="#fff" d="M47.7 15H14c-1.1 0-2.1 1-2.1 2.2v23.4c0 1.1.9 2.1 2.1 2.1h.8L47.7 15z"/><path fill="#59b4d9" d="M47.1 39.8H14.9V17.9l32.2-.1z"/><path fill="#a0a1a2" d="M18.6 47.7h24.9V50H18.6z"/><path fill="#b8d432" d="M31.4 16.5a.47.47 0 0 1-.5.5.47.47 0 0 1-.5-.5.47.47 0 0 1 .5-.5c.2 0 .5.2.5.5"/></svg>