<svg xmlns="http://www.w3.org/2000/svg" width="50" height="50" viewBox="-0.5 0.5 50 50"><path fill-rule="evenodd" fill="#a0a1a2" d="M36.167 27.167v10H12.833V13.833h9.997v-5H11.167c-1.84 0-3.333 1.493-3.333 3.333v26.667c0 1.84 1.493 3.333 3.333 3.333h26.667c1.84 0 3.333-1.493 3.333-3.333V27.167h-5z"/><path d="M21.167.5h6.667v5h-6.667zm-10 0h6.667v5h-6.667zm33.333 45h-3.333v5h5c1.84 0 3.333-1.493 3.333-3.333v-5h-5V45.5zm-45-13.333h5v6.667h-5zM21.167 45.5h6.667v5h-6.667zM44.5 32.167h5v6.667h-5zM31.167 45.5h6.667v5h-6.667zm-20 0h6.667v5h-6.667zm-6.667 0v-3.333h-5v5c0 1.84 1.493 3.333 3.333 3.333h5v-5H4.5zm-5-33.333h5v6.667h-5zm5-6.667h3.333v-5h-5C.993.5-.5 1.993-.5 3.833v5h5V5.5zm-5 16.667h5v6.667h-5zm45 0h5v6.667h-5z" fill="#b8d432"/><path fill="#0f0f0f" d="M49.5.5h-15l5.584 5.584-21.37 21.37 3.882 3.88L43.965 9.965 49.5 15.5z"/></svg>