<svg xmlns="http://www.w3.org/2000/svg" xmlns:xlink="http://www.w3.org/1999/xlink" width="49.8" height="43.104"><path d="M27.3 6.304c-3.4.4-6.3 2-8.3 4.5a12.55 12.55 0 0 0-2.7 9c.4 3.4 2 6.3 4.5 8.3a12.55 12.55 0 0 0 9 2.7 12.7 12.7 0 0 0 8.3-4.5 12.55 12.55 0 0 0 2.7-9c-.4-3.4-2.1-6.3-4.6-8.4-2.1-1.7-4.8-2.7-7.6-2.7-.4 0-.8 0-1.3.1" fill="#fff"/><path d="M42.7 17.004c-.4-4-2.5-7.5-5.4-9.8-.6-.5-1.2-.9-1.8-1.2l-1.1 2.2c.5.3.9.6 1.4.9 2.4 2 4.1 4.8 4.5 8.1.3 3.3-.7 6.4-2.6 8.8s-4.8 4-8.1 4.4c-2.2.2-4.3-.2-6.2-1l-1.1 2.2a13.96 13.96 0 0 0 7.6 1.3c4-.4 7.4-2.4 9.7-5.3 2.3-2.8 3.5-6.6 3.1-10.6" fill="#3999c6"/><use xlink:href="#B" fill="#a0a1a2"/><use xlink:href="#B" fill="#59b4d9"/><g fill="#7a7a7a"><path d="M34.4 22.304l-5.6-2c-.6-.2-.9-.9-.7-1.5s.9-.9 1.5-.7l5.6 2c.6.2.9.9.7 1.5s-.9 1-1.5.7z"/><path d="M28.2 20.104c-.6 0-1.2-.5-1.2-1.2v-9.8c0-.6.5-1.2 1.2-1.2.6 0 1.2.5 1.2 1.2v9.8c0 .7-.5 1.2-1.2 1.2z"/></g><circle cx="28.2" cy="19.004" r="1.7" fill="#1e1e1e"/><path d="M26.8 31.504l5.9 5.5-5.2 6 .1-3.9h-1.4c-10.5 0-19.1-8.5-19.1-19.1s8.4-19 19-19c5.3 0 10.1 2.2 13.6 5.7-3-2.9-7.1-4.7-11.6-4.8a16.52 16.52 0 0 0-16.5 16.5c0 8.8 7.1 15.9 15.7 16.5z" fill="#b8d432"/><path d="M27.9 37.404c-10.5-.4-18.6-9.2-18.2-19.6.3-6.5 3.8-12.1 8.9-15.3A19.15 19.15 0 0 0 7 20.104c0 10.5 8.5 19.1 19.1 19.1h1.4l-.1 3.9 5.2-6c-1.5.3-3.1.4-4.7.3z" opacity=".2" fill="#1e1e1e"/><path d="M9.5 40.404c-.2 0-.5-.1-.7-.2l-6.8-4c-1.2-.7-2-2.1-2-3.4v-25.2c0-1.3.8-2.8 2-3.4l6.8-4c.7-.4 1.6-.2 2 .5s.2 1.6-.5 2l-6.8 4c-.2.1-.5.6-.5.9v25.2c0 .3.3.8.5.9l6.8 4c.7.4.9 1.3.5 2-.3.4-.8.7-1.3.7zM40.3.004c.2 0 .5.1.7.2l6.8 4c1.2.7 2 2.1 2 3.4v25.2c0 1.3-.8 2.8-2 3.4l-6.8 4c-.7.4-1.6.2-2-.5s-.2-1.6.5-2l6.8-4c.2-.1.5-.6.5-.9v-25.2c0-.3-.3-.8-.5-.9l-6.8-4c-.7-.4-.9-1.3-.5-2 .4-.4.8-.7 1.3-.7z" fill="#7a7a7a"/><defs ><path id="B" d="M20.8 27.904c-2.4-1.9-4-4.8-4.4-8.1-.3-3.3.7-6.4 2.6-8.8s4.8-4 8.1-4.4c2.7-.3 5.2.3 7.3 1.6l1.1-2.2a14.52 14.52 0 0 0-8.7-1.9c-4 .4-7.4 2.4-9.7 5.3s-3.6 6.6-3.1 10.6c.4 4 2.4 7.4 5.3 9.7.9.7 1.9 1.4 3 1.9l1.1-2.2c-1-.4-1.8-.9-2.6-1.5"/></defs></svg>