<svg xmlns="http://www.w3.org/2000/svg" xmlns:xlink="http://www.w3.org/1999/xlink" width="42.595" height="50"><path d="M24.2 6.2c-4 .4-7.5 2.4-9.9 5.4-2.4 2.9-3.6 6.7-3.2 10.8.4 4 2.4 7.5 5.4 9.9 2.9 2.4 6.7 3.6 10.8 3.2 4-.4 7.5-2.4 9.9-5.4 2.4-2.9 3.6-6.7 3.2-10.8s-2.5-7.6-5.5-10a14.6 14.6 0 0 0-9.1-3.2c-.6.1-1.1.1-1.6.1" fill="#fff"/><path d="M42.5 19.1c-.5-4.8-2.9-8.9-6.4-11.7-.7-.5-1.4-1-2.1-1.4l-1.4 2.6c.6.3 1.1.7 1.6 1.1 2.9 2.3 4.9 5.7 5.3 9.7.4 3.9-.8 7.6-3.1 10.5-2.3 2.8-5.7 4.8-9.6 5.2-2.6.3-5.2-.2-7.4-1.2L18 36.5c2.7 1.3 5.8 1.9 9.1 1.5 4.7-.5 8.8-2.9 11.6-6.3s4.3-7.9 3.8-12.6" fill="#3999c6"/><use xlink:href="#B" fill="#a0a1a2"/><use xlink:href="#B" fill="#59b4d9"/><g fill="#7a7a7a"><path d="M32.6 25.4L26 23c-.7-.3-1.1-1-.8-1.8.3-.7 1-1.1 1.8-.8l6.6 2.4c.7.3 1.1 1 .8 1.8-.3.7-1.1 1-1.8.8z"/><path d="M25.2 22.8c-.8 0-1.4-.6-1.4-1.4V9.7c0-.8.6-1.4 1.4-1.4s1.4.6 1.4 1.4v11.7c0 .8-.6 1.4-1.4 1.4z"/></g><circle cx="25.2" cy="21.4" r="2" fill="#1e1e1e"/><path d="M23.6 36.3l7 6.5-6.3 7.2.1-4.7h-1.7C10.2 45.3 0 35.1 0 22.6S10.2 0 22.7 0a22.66 22.66 0 0 1 16.2 6.8c-3.6-3.5-8.4-5.6-13.8-5.6C14.2 1.1 5.5 9.9 5.4 20.8c0 10.4 8.5 18.9 18.7 19.6z" fill="#b8d432"/><path d="M24.8 43.4C12.4 42.9 2.7 32.4 3.2 20c.3-7.7 4.5-14.4 10.6-18.2C5.7 5.3 0 13.3 0 22.7c0 12.5 10.2 22.7 22.7 22.7h1.7l-.1 4.6 6.2-7.1c-1.8.4-3.7.5-5.7.5z" opacity=".2" fill="#1e1e1e"/><defs ><path id="B" d="M16.4 32c-2.8-2.3-4.8-5.7-5.2-9.6s.8-7.6 3.1-10.5c2.3-2.8 5.7-4.8 9.6-5.2 3.2-.3 6.2.4 8.7 1.9L34 6c-3-1.8-6.7-2.6-10.4-2.2-4.7.5-8.8 2.9-11.6 6.3S7.8 18 8.3 22.7s2.9 8.8 6.3 11.6c1.1.9 2.3 1.6 3.6 2.2l1.4-2.6c-1.2-.5-2.3-1.2-3.2-1.9"/></defs></svg>