<svg xmlns="http://www.w3.org/2000/svg" height="50" width="50" fill="#59b4d9"><path d="M30.9 46.7L29 43.6l1.8-3.2H36c-1.1-1.9-3.2-3.2-5.5-3.2-2.4 0-4.5 1.3-5.6 3.2H11.1c-1.1-1.9-3.2-3.2-5.6-3.2S1.1 38.5 0 40.4h5.1L7 43.6l-1.8 3.2H0C1.1 48.7 3.2 50 5.5 50c2.5 0 4.6-1.4 5.7-3.5h13.5c1.1 2.1 3.2 3.5 5.7 3.5 2.4 0 4.4-1.3 5.5-3.2l-5-.1zm-1.2-28.3c-1.3 0-2.4.8-2.9 1.9H8.2c-3.1 0-5.7-2.6-5.7-5.7s2.6-5.7 5.7-5.7h2.7c.1-.7.3-1.3.5-1.9.1-.2.2-.4.3-.7C13 4 15.5 2.5 18.3 2.5c2.5 0 4.7 1.2 6.1 3.1.8-.4 1.6-.6 2.5-.8C25.2 1.9 22 0 18.4 0 14.1 0 10.5 2.6 9 6.4h-.8C3.7 6.4 0 10 0 14.6a8.24 8.24 0 0 0 8.2 8.2h18.6c.5 1.1 1.6 1.9 2.9 1.9 1.7 0 3.2-1.4 3.2-3.2s-1.4-3.1-3.2-3.1zM40 12.1c-1.9-3.8-5.7-6.3-10.2-6.3-5.4 0-10 3.8-11.1 8.9-2.6.3-4.9 1.7-6.4 3.7h13.6c.9-1.2 2.4-1.9 3.9-1.9 2.8 0 5.1 2.3 5.1 5.1s-2.3 5.1-5.1 5.1c-1.6 0-3-.7-3.9-1.9H10.7c.6 4.3 4.3 7.6 8.8 7.6h20.3a10.07 10.07 0 0 0 10.1-10.1c.1-5.7-4.4-10.2-9.9-10.2zm10 32.3V43l-.2-.1-1.5-.5-.4-1 .8-1.7-1-1-.2.1-1.5.8-1-.4-.6-1.7H43l-.1.2-.5 1.5-1 .4-1.7-.8-1 1 .8 1.6-.4 1-1.7.6v1.4l.2.1 1.5.5.4 1-.8 1.7 1 1 1.6-.8 1 .4.6 1.7h1.4l.1-.2.5-1.5 1-.4 1.7.8 1-1-.1-.2-.6-1.5.4-1 1.7-.6zm-6.2 1.3c-1.1 0-2-.9-2-2s.9-2 2-2 2 .9 2 2c-.1 1.1-1 2-2 2"/></svg>