<svg xmlns="http://www.w3.org/2000/svg" width="48.497" height="47.367"><path d="M15.758 0h9.802v9.695h-9.802zM27.2 0h9.83v9.695H27.2zm11.496 0h9.8v9.695h-9.8zm0 11.47h9.8v9.695h-9.8zm0 11.468h9.8v9.83h-9.8z" fill="#b8d432"/><path d="M3.618 47.367c-.96 0-1.865-.373-2.546-1.048A3.59 3.59 0 0 1 0 43.766a3.59 3.59 0 0 1 1.048-2.564l8.747-8.83c-1.48-2.758-1.888-5.92-1.145-8.952 1.4-5.652 6.43-9.6 12.236-9.6a12.71 12.71 0 0 1 3.022.368 12.52 12.52 0 0 1 7.771 5.718 12.52 12.52 0 0 1 1.45 9.541c-1.39 5.646-6.42 9.59-12.235 9.59a12.63 12.63 0 0 1-3.018-.367 12.5 12.5 0 0 1-2.984-1.16l-8.7 8.784c-.687.693-1.6 1.073-2.573 1.073m17.268-28.77c-3.604 0-6.728 2.452-7.598 5.965a7.84 7.84 0 0 0 1.151 6.27c.545.802 1.223 1.488 2.017 2.037s1.655.94 2.563 1.163a7.79 7.79 0 0 0 1.875.227 7.81 7.81 0 0 0 7.597-5.956c.502-2.028.182-4.133-.9-5.926a7.77 7.77 0 0 0-4.823-3.551c-.62-.153-1.252-.23-1.88-.23" fill="#3e3e3e"/><path d="M24.3 13.08l1.27.38v-2h-9.802v2.284c1.63-.686 3.412-1.068 5.27-1.068a13.65 13.65 0 0 1 3.261.396m8.383 6.168c.372.617.68 1.26.946 1.915h3.4V11.47h-9.83v2.704c2.245 1.137 4.14 2.87 5.474 5.077m1.576 10.3a13.69 13.69 0 0 1-1.243 3.227h4.034v-9.83h-2.807a13.54 13.54 0 0 1 .016 6.604m-6.533-3.127c0 3.703-3.003 6.704-6.705 6.704s-6.705-3-6.705-6.704S17.297 19.7 21 19.7s6.705 3 6.705 6.704" fill="#b8d432"/></svg>