<svg xmlns="http://www.w3.org/2000/svg" xmlns:xlink="http://www.w3.org/1999/xlink" width="50" height="50"><path fill="#59b4d9" d="M44 14.2c0-.4.1-.9.1-1.3 0-7.1-5.8-12.8-13-12.8a12.62 12.62 0 0 0-10.5 5.2c-1.5-1-3.3-1.5-5.2-1.5-5.4 0-9.8 4.4-9.8 9.7v.8C2 16.2 0 19.3 0 23.1c0 6 4.9 10.7 11.2 10.7h27.6c6.3 0 11.2-4.7 11.2-10.7 0-4-2.2-7.2-6-8.9z"/><g fill="#fff"><path opacity=".2" d="M7 28c0-4.1 2.1-7.3 6-9.3v-.8c0-5.7 4.7-10.3 10.4-10.3 2 0 3.9.5 5.5 1.5 2.5-3.5 6.7-5.7 11.2-5.7-2.4-2.1-5.5-3.4-9-3.4-4.2 0-8.1 2-10.5 5.3-1.5-1-3.3-1.5-5.2-1.5-5.4 0-9.8 4.4-9.8 9.7v.8C2 16.2 0 19.3 0 23.1c0 5.1 3.5 9.3 8.4 10.4C7.5 31.9 7 30 7 28z"/><use xlink:href="#B"/></g><g fill="#59b4d9"><use xlink:href="#B" opacity=".1"/><path opacity=".3" d="M30.6 21.7c-.8-.5-1.7-.9-2.6-1.1-.7-.2-1.4-.3-2.1-.3-4 0-7.4 2.7-8.4 6.6-.6 2.5-.1 5 1.3 6.9.2.3.5.7.8 1 1.8-5.7 5.8-10.4 11-13.1"/></g><path fill="#3e3e3e" d="M36.5 22.6a12.35 12.35 0 0 0-7.6-5.6c-1-.2-2-.4-3-.4-5.7 0-10.6 3.9-12 9.4-.8 3.1-.3 6.3 1.3 9.1l-9.4 9.5c-1.2 1.2-1.2 3.3 0 4.5.7.6 1.5.9 2.3.9s1.6-.3 2.3-.9l9.4-9.5c1 .6 2.1 1 3.2 1.3 1 .2 2 .4 3 .4 5.7 0 10.6-3.9 12-9.4.7-3.2.2-6.5-1.5-9.3zM34.3 31c-1 3.9-4.4 6.6-8.4 6.6-.7 0-1.4-.1-2.1-.3-1-.3-2-.7-2.8-1.3-.9-.6-1.6-1.4-2.2-2.2-1.3-2-1.9-4.4-1.3-6.9 1-3.9 4.4-6.6 8.4-6.6.7 0 1.4.1 2.1.3 2.2.6 4.1 1.9 5.3 3.9s1.6 4.3 1 6.5z"/><path opacity=".5" fill="#1e1e1e" d="M18.9 39.1a12.17 12.17 0 0 1-3.2-3.2l-.5-.8-.8.9-.1.1c.1.2.2.4.4.6 1 1.4 2.1 2.6 3.5 3.6.1.1.4.2.7.3l.9-.9c-.4-.3-.6-.4-.9-.6z"/><defs ><path id="B" d="M34.3 31c-1 3.9-4.4 6.6-8.4 6.6-.7 0-1.4-.1-2.1-.3-1-.3-2-.7-2.8-1.3-.9-.6-1.6-1.4-2.2-2.2-1.3-2-1.9-4.4-1.3-6.9 1-3.9 4.4-6.6 8.4-6.6.7 0 1.4.1 2.1.3 2.2.6 4.1 1.9 5.3 3.9 1.2 1.9 1.6 4.3 1 6.5"/></defs></svg>