<svg xmlns="http://www.w3.org/2000/svg" width="36.654" height="50.001" fill="#ffffff"><path d="M31.185 5.96C20.17 4.745 18.326 0 18.326 0S15.847 6.242 0 6.242v25.61c0 3.097 1.72 5.997 4.104 8.532C9.506 46.133 18.327 50 18.327 50s18.327-8.03 18.327-18.15v-25.6c-2.038 0-3.85-.103-5.47-.282z" fill="#7fba00"/><path d="M22.86 16.543L31.185 5.96C20.17 4.745 18.326 0 18.326 0S15.847 6.242 0 6.242v25.61c0 3.097 1.72 5.997 4.104 8.532L22.86 16.543z" opacity=".4" fill="#b8d432"/><path d="M25.595 24.46H24.53v-3.552c0-1.71-.63-3.276-1.67-4.45l-.112-.133c-1.107-1.186-2.683-1.948-4.422-1.947s-3.312.76-4.42 1.947-1.783 2.81-1.783 4.582v3.553H11.06a.8.8 0 0 0-.801.801v9.392a.8.8 0 0 0 .801.801h14.536a.8.8 0 0 0 .801-.801v-9.39a.8.8 0 0 0-.801-.802zm-4.01.001h-5.02.001-1.495v-3.552c0-1.022.386-1.927.988-2.57s1.395-1.013 2.268-1.013 1.665.37 2.27 1.013a3.67 3.67 0 0 1 .389.504l-.001.001a3.8 3.8 0 0 1 .6 2.064v3.554z"/></svg>