<svg xmlns="http://www.w3.org/2000/svg" width="14" height="15.999"><path d="M8.508 1.55C5.503 1.234 5 0 5 0s-.677 1.623-5 1.623v6.66c0 .805.47 1.56 1.12 2.218C2.594 11.994 5 13 5 13s5-2.087 5-4.72V1.623a14.39 14.39 0 0 1-1.492-.073z" fill="#7fba00"/><path d="M6.237 4.3l2.27-2.752C5.503 1.234 5 0 5 0s-.677 1.623-5 1.623v6.66c0 .805.47 1.56 1.12 2.218L2.8 8.466z" opacity=".4" fill="#b8d432"/><path d="M6 7.998h7v7l-6.98.048z" fill="#fff"/><path d="M9 9h3v1H9zm0 2h3v1H9zm0 2h3v1H9zM7 9h1v1H7zm0 2h1v1H7zm0 2h1v1H7z" fill="#3898c6"/><path d="M13.653 6H5.347c-.092-.001-.18.036-.245.1S5 6.252 5 6.344v9.31c0 .2.155.344.347.344h8.305c.092.001.18-.036.246-.1s.102-.153.102-.245v-9.3c0-.092-.037-.18-.102-.245s-.153-.1-.245-.1zM6 15v-7h7v7z" fill="#3999c6"/></svg>