<svg xmlns="http://www.w3.org/2000/svg" width="558.2" height="558.2"><path d="M371.1.1l183-.1c3.4 0 4.1.7 4.1 4.1l-.1 182c-58.9 0-117.8 0-176.8-.1-3.1 0-6.2 1.5-9.2.1-.3-.3-.6-.7-1-1z" fill="#0072c6"/><path d="M.1 186.1h185.8l.4-.1-.2 6.5v179.6l.1-.1H.2L.1 186.1z" fill="#59b4d9"/><path d="M.1 372.1h186v186l-182 .1c-3.4 0-4.1-.7-4.1-4.1l.1-182z" fill="#0072c6"/><path d="M186.1 558.1l-.1-185.9h179.6l6.5-.2-.1.4v185.8l-185.9-.1z" fill="#59b4d9"/><path d="M558.1 372.1h-180l-6 .2.1-.4-.1-185.8c3.1 1.5 6.2-.1 9.2-.1l176.8.1zm-372.2-186l.2-15.4V.1h185v185c-1.1 1.4-2.7 1-4.2 1z" fill="#3999c6"/><path d="M186.4 186H367c1.4 0 3 .4 4.2-1 .3.3.6.7 1 1l.1 185.8-6.5.2H186.2V192.4c-.1-2.1.1-4.2.2-6.4z" fill="#0072c6"/></svg>