<svg xmlns="http://www.w3.org/2000/svg" height="50" width="40"><path d="M29.4 47.5c0 1.4-1.1 2.5-2.5 2.5H2.5C1.1 50 0 48.9 0 47.5v-45C0 1.1 1.1 0 2.5 0h24.3c1.4 0 2.5 1.1 2.5 2.5v45z" fill="#3e3e3e"/><path d="M4.3 27c0-1.8 1.4-3.2 3.2-3.2h14.6c1.8 0 3.2 1.4 3.2 3.2s-1.4 3.2-3.2 3.2H7.5c-1.8 0-3.2-1.4-3.2-3.2z" fill="#1e1e1e"/><circle cx="7.6" cy="27" r="2.1" fill="#b8d432"/><path d="M4.3 17.5c0-1.8 1.4-3.2 3.2-3.2h14.6c1.8 0 3.2 1.4 3.2 3.2s-1.4 3.2-3.2 3.2H7.5c-1.8 0-3.2-1.4-3.2-3.2z" fill="#1e1e1e"/><circle cx="7.6" cy="17.5" r="2.1" fill="#b8d432"/><path d="M4.3 8.1c0-1.8 1.4-3.2 3.2-3.2h14.6c1.8 0 3.2 1.4 3.2 3.2s-1.4 3.2-3.2 3.2H7.5c-1.8 0-3.2-1.5-3.2-3.2z" fill="#1e1e1e"/><circle cx="7.6" cy="8.1" r="2.1" fill="#b8d432"/><path d="M34.2 27.5l5.8 6-5.8 5.9h-3.5l4.3-4.6H19.4v-2.7H35l-4.3-4.6zm-9 22.5l-5.8-5.9 5.7-6h3.5l-4.3 4.6H40v2.7H24.3l4.4 4.6z" fill="#59b4d9"/></svg>