<svg xmlns="http://www.w3.org/2000/svg" xmlns:xlink="http://www.w3.org/1999/xlink" width="50" height="50"><path fill="#3e3e3e" d="M29.364 47.462A2.54 2.54 0 0 1 26.826 50H2.538A2.54 2.54 0 0 1 0 47.462V2.538A2.54 2.54 0 0 1 2.538 0h24.288a2.54 2.54 0 0 1 2.538 2.538v44.924z"/><use xlink:href="#B" fill="#1e1e1e"/><circle fill="#b8d432" cx="7.643" cy="27.024" r="2.142"/><use xlink:href="#B" y="-9.479" fill="#1e1e1e"/><circle fill="#b8d432" cx="7.643" cy="17.545" r="2.142"/><use xlink:href="#B" y="-18.959" fill="#1e1e1e"/><circle fill="#b8d432" cx="7.643" cy="8.065" r="2.142"/><path fill="#ba141a" d="M43.167 25.117l-11.6-5.228-11.61 5.228-4.08 10.287V50h31.38V35.404z"/><path fill="#a0a1a2" d="M47.11 37.362l-4.864-10.84-10.7-4.814-10.69 4.814-4.864 10.84-2.22-.997 5.243-11.68 12.53-5.642 12.53 5.642 5.243 11.68z"/><g fill="#fff"><path d="M39.37 50H23.56V37.812H39.37V50zm-14.182-1.626h12.555V39.44H25.187v8.935z"/><path d="M38.07 49.84l-14.18-10.56.97-1.304 14.18 10.56z"/><path d="M24.858 49.837l-.97-1.304 14.183-10.56.97 1.304z"/></g><path opacity=".5" fill="#1e1e1e" d="M28.943 27.568h5.23v4.187h-5.23z"/><defs ><path id="B" d="M4.316 27.024a3.19 3.19 0 0 1 3.191-3.191H22.12a3.19 3.19 0 1 1 0 6.382H7.507a3.19 3.19 0 0 1-3.191-3.191z"/></defs></svg>