<svg xmlns="http://www.w3.org/2000/svg" width="50" height="50"><path d="M.833 0C.333 0 0 .333 0 .833v10c0 .5.333.833.833.833h5c.5 0 .833-.333.833-.833V6.667h36.667v4.167c0 .5.333.833 1 .833h4.833c.5 0 .833-.333.833-.833v-10C50 .333 49.667 0 49.167 0H.833zm48.334 50c.5 0 .833-.333.833-.833v-9.833c0-.5-.333-.833-.833-.833h-4.833c-.5 0-.833.333-.833.833v4H6.667v-4.167c0-.5-.333-.833-1-.833H.833c-.5 0-.833.333-.833 1v9.833c0 .5.333.833.833.833h48.334z" fill="#0072c6"/><path d="M12.324 25.7a4.42 4.42 0 0 1-3.147 1.303A4.42 4.42 0 0 1 6.03 25.71L0 19.68v12.26h18.354V19.68l-6.03 6.03zm-3.147.4c.95 0 1.842-.37 2.514-1.04l6.663-6.663v-.353H0v.354l6.663 6.663c.672.67 1.564 1.04 2.514 1.04zm34.793-.4a4.42 4.42 0 0 1-3.147 1.303 4.42 4.42 0 0 1-3.147-1.303l-6.03-6.03v12.26H50V19.68l-6.03 6.03zm-3.147.4c.95 0 1.842-.37 2.514-1.04L50 18.415v-.353H31.646v.354l6.663 6.663c.672.67 1.564 1.04 2.514 1.04z" fill="#59b4d9"/><path d="M25.813 23.78h3.084v2.434h-3.084zm-4.77 0h3.262v2.434h-3.262z" fill="#b8d432"/></svg>