<svg xmlns="http://www.w3.org/2000/svg" height="50" width="29.3"><path d="M29.3 47.5c0 1.4-1.1 2.5-2.5 2.5H2.5C1.1 50 0 48.9 0 47.5v-45C0 1.1 1.1 0 2.5 0h24.3c1.4 0 2.5 1.1 2.5 2.5z" fill="#3e3e3e"/><path d="M4.2 27c0-1.8 1.4-3.2 3.2-3.2H22c1.8 0 3.2 1.4 3.2 3.2s-1.4 3.2-3.2 3.2H7.4c-1.7 0-3.2-1.4-3.2-3.2z" fill="#1e1e1e"/><circle cx="7.6" cy="27" r="2.1" fill="#b8d432"/><path d="M4.2 17.5c0-1.8 1.4-3.2 3.2-3.2H22c1.8 0 3.2 1.4 3.2 3.2s-1.4 3.2-3.2 3.2H7.4c-1.7 0-3.2-1.4-3.2-3.2z" fill="#1e1e1e"/><circle cx="7.6" cy="17.5" r="2.1" fill="#b8d432"/><path d="M4.2 8.1c0-1.8 1.4-3.2 3.2-3.2H22c1.8 0 3.2 1.4 3.2 3.2s-1.4 3.2-3.2 3.2H7.4c-1.7 0-3.2-1.5-3.2-3.2z" fill="#1e1e1e"/><circle cx="7.6" cy="8.1" r="2.1" fill="#b8d432"/></svg>