<svg xmlns="http://www.w3.org/2000/svg" width="50" height="50"><path d="M.833 0C.333 0 0 .333 0 .833v10c0 .5.333.833.833.833h5c.5 0 .833-.333.833-.833V6.667h36.667v4.167c0 .5.333.833 1 .833h4.833c.5 0 .833-.333.833-.833v-10C50 .333 49.667 0 49.167 0H.833zm48.334 50c.5 0 .833-.333.833-.833v-9.833c0-.5-.333-.833-.833-.833h-4.833c-.5 0-.833.333-.833.833v4H6.667v-4.167c0-.5-.333-.833-1-.833H.833c-.5 0-.833.333-.833 1v9.833c0 .5.333.833.833.833h48.334z" fill="#0072c6"/><path d="M18.45 22.78l2.157-2.157 1.597 1.597-2.157 2.157zm3.13-3.13l2.16-2.16 1.6 1.6-2.16 2.16zm4.72-1.55l-1.6-1.6 2.14-2.14 1.6 1.6zm-1.6 14.712l1.6-1.6 2.14 2.14-1.6 1.6zm-.97-.982l-2.16-2.16 1.6-1.6 2.16 2.16zM20.6 28.7l-2.16-2.16 1.6-1.6 2.15 2.15z" fill="#b8d432"/><path d="M36.13 15.247c-.527.527-1.23.818-1.974.818a2.77 2.77 0 0 1-1.974-.818L28.4 11.464v7.7h11.515v-7.7l-3.784 3.783zm-1.974.256c.596 0 1.156-.232 1.577-.653l4.18-4.18v-.222H28.4v.222l4.18 4.18c.42.42.98.653 1.576.653zM36.13 34.97c-.527.527-1.23.818-1.974.818a2.77 2.77 0 0 1-1.974-.818L28.4 31.188v7.7h11.515v-7.7L36.13 34.97zm-1.974.257c.596 0 1.156-.232 1.577-.653l4.18-4.18v-.222H28.4v.222l4.18 4.18c.42.42.98.653 1.576.653zm-21.832-9.853a4.42 4.42 0 0 1-3.147 1.303 4.42 4.42 0 0 1-3.147-1.303L0 19.343V31.6h18.354V19.343l-6.03 6.03zm-3.147.408c.95 0 1.842-.37 2.514-1.04l6.663-6.663v-.353H0v.354l6.663 6.663c.672.67 1.564 1.04 2.514 1.04z" fill="#59b4d9"/></svg>