<svg xmlns="http://www.w3.org/2000/svg" height="48.9" width="44.904" viewBox="275 1149 44.904 48.9"><path d="M303.7 1195.4c0 1.4-1.1 2.4-2.4 2.4h-23.8c-1.4 0-2.5-1.1-2.5-2.4v-44c0-1.4 1.1-2.4 2.5-2.4h23.8c1.4 0 2.4 1.1 2.4 2.4z" fill="#3e3e3e"/><path d="M279.1 1175.3a3.05 3.05 0 0 1 3.1-3.1h14.3a3.05 3.05 0 1 1 0 6.2h-14.3a3.12 3.12 0 0 1-3.1-3.1z" fill="#1e1e1e"/><circle cx="282.4" cy="1175.3" r="2.1" fill="#b8d432"/><path d="M279.1 1166a3.05 3.05 0 0 1 3.1-3.1h14.3a3.05 3.05 0 1 1 0 6.2h-14.3a3.12 3.12 0 0 1-3.1-3.1z" fill="#1e1e1e"/><circle cx="282.4" cy="1166" r="2.1" fill="#b8d432"/><path d="M279.1 1156.7a3.05 3.05 0 0 1 3.1-3.1h14.3a3.05 3.05 0 1 1 0 6.2h-14.3c-1.7.1-3.1-1.4-3.1-3.1z" fill="#1e1e1e"/><circle cx="282.4" cy="1156.7" r="2.1" fill="#b8d432"/><path d="M316 1161.8c1.2 0 2.1.9 2.1 2.1v30c0 1.2-.9 2.1-2.1 2.1h-17.5c-1.2 0-2.1-.9-2.1-2.1v-30.1c0-1.2.9-2.1 2.1-2.1l17.5.1m0-1.9h-17.5c-2.3 0-4 1.8-4 4v30c0 2.3 1.8 4 4 4h17.4c2.3 0 4-1.8 4-4v-30.1c.1-2.2-1.7-3.9-3.9-3.9z" fill="#fff"/><path d="M318 1193.9c0 1.2-.9 2.1-2.1 2.1h-17.4c-1.2 0-2.1-.9-2.1-2.1v-30.1c0-1.2.9-2.1 2.1-2.1h17.4c1.2 0 2.1.9 2.1 2.1z" fill="#3e3e3e"/><path d="M298 1165.2h18.5v24H298z" fill="#59b4d9"/><path d="M310.2 1192.6c0 1.1-.9 2-2 2s-2-.9-2-2 .9-2 2-2 2 .9 2 2" fill="#fff"/><path d="M309.5 1192.6c0 .7-.6 1.3-1.3 1.3s-1.3-.6-1.3-1.3.6-1.3 1.3-1.3 1.3.6 1.3 1.3" fill="#b8d432"/><path d="M298 1189.3v-24h15.6l1.4-3.4h-16.4c-1.2 0-2.1.9-2.1 2.1v30c0 1.2.9 2.1 2.1 2.1h2.5l2.7-6.7z" opacity=".15" fill="#fff"/><path d="M311.8 1163.7a.47.47 0 0 1-.5.5h-6a.47.47 0 1 1 0-1h6c.2 0 .5.2.5.5" fill="#1e1e1e"/><g fill="#fff"><path d="M311.8 1163.7a.47.47 0 0 1-.5.5h-6a.5.5 0 1 1 0-1h6c.2 0 .5.2.5.5m-4.5 12.6l-6.1-3.5c-.1 0-.1-.1-.1-.2s0-.1.1-.2l6-3.4h.2l6 3.4c.1 0 .1.1.1.2s0 .1-.1.2l-6.1 3.5"/><path d="M306.4 1184.8l-6.1-3.5c-.1 0-.1-.1-.1-.2v-7c0-.1 0-.1.1-.2h.2l6 3.4c.1 0 .1.1.1.2v7c0 .2 0 .3-.2.3" opacity=".7"/><path d="M308.1 1184.8c-.1 0-.1 0 0 0-.2-.1-.2-.1-.2-.2v-6.9c0-.1 0-.1.1-.2l6-3.4h.2c.1 0 .1.1.1.2v6.9c0 .1 0 .1-.1.2l-6.1 3.4" opacity=".4"/></g></svg>