<svg xmlns="http://www.w3.org/2000/svg" xmlns:xlink="http://www.w3.org/1999/xlink" width="45" height="48"><g fill="#646565"><path d="M0 7h5.5v1H1S0 8 0 7z"/><use xlink:href="#B" opacity=".5"/><path d="M0 13h5.5v1H1s-1 0-1-1z"/><use xlink:href="#B" y="6" opacity=".5"/><path d="M0 19h5.5v1H1s-1 0-1-1z"/><use xlink:href="#B" y="12" opacity=".5"/><path d="M0 25h5.5v1H1s-1 0-1-1z"/><use xlink:href="#B" y="18" opacity=".5"/><path d="M0 31h5.5v1H1s-1 0-1-1z"/><use xlink:href="#B" y="24" opacity=".5"/><path d="M0 37h5.5v1H1s-1 0-1-1z"/><use xlink:href="#B" y="30" opacity=".5"/><path d="M0 43h5.5v1H1s-1 0-1-1z"/><use xlink:href="#B" y="36" opacity=".5"/></g><path d="M12 0C9 0 5 3 5 3h2v42h35v2l3-3V0z" fill="#0072c6"/><g fill="#fff"><path d="M10 1L6.5 3H8v43h34l2-2V1z" opacity=".75"/><path d="M10.5 1L7 3h35l2-2z" opacity=".8"/></g><path d="M4 48v-3h2l1-1v-1l-1-1H4v-3h2l1-1v-1l-1-1H4v-3h2l1-1v-1l-1-1H4v-3h2l1-1v-1l-1-1H4v-3h2l1-1v-1l-1-1H4v-3h2l1-1v-1l-1-1H4V9h2l1-1V7L6 6H4V3h38v45z" fill="#0072c6"/><path d="M26.657 29.053c.024 0 .047-.006.068-.017l4.445-2.462c.042-.022.068-.065.068-.112v-4.94a.13.13 0 0 0-.068-.113c-.043-.022-.093-.022-.136 0L26.6 23.87a.13.13 0 0 0-.066.113v4.94c0 .047.025.09.066.112.02.01.044.017.067.017m0 6.506c.024 0 .047-.006.068-.017l4.445-2.462c.042-.022.068-.065.068-.112v-4.94a.13.13 0 0 0-.068-.113c-.043-.022-.093-.022-.136 0L26.6 30.377a.13.13 0 0 0-.066.113v4.94c0 .035.014.068.04.093s.06.037.094.035m5.76-9.76a.15.15 0 0 0 .069-.017l4.445-2.462c.042-.022.068-.065.068-.112v-4.94c0-.048-.027-.09-.07-.113s-.093-.022-.136 0l-4.444 2.462a.13.13 0 0 0-.066.113v4.94c0 .047.025.09.066.112.02.01.044.016.067.016m0 6.506a.15.15 0 0 0 .069-.017l4.445-2.462c.042-.022.068-.065.068-.112v-4.94c0-.048-.027-.09-.07-.113s-.093-.022-.136 0l-4.444 2.462a.13.13 0 0 0-.066.113v4.94c0 .047.025.09.066.112.02.01.044.016.067.016m-7.075-3.253c-.024 0-.047-.006-.068-.017l-4.445-2.462c-.042-.022-.068-.065-.068-.112v-4.94a.13.13 0 0 1 .068-.113c.043-.022.093-.022.136 0L25.4 23.87a.13.13 0 0 1 .066.113v4.94c0 .035-.014.068-.04.093s-.06.037-.094.035m0 6.506c-.024 0-.047-.006-.068-.017L20.83 33.08c-.042-.022-.068-.065-.068-.112v-4.94a.13.13 0 0 1 .068-.113c.043-.022.093-.022.136 0l4.444 2.462a.13.13 0 0 1 .066.113v4.94c0 .035-.014.068-.04.093s-.06.037-.094.035m-5.76-9.76c-.024 0-.047-.006-.068-.017L15.07 23.32c-.042-.02-.07-.065-.07-.112v-4.94a.13.13 0 0 1 .068-.113c.043-.022.093-.022.136 0l4.444 2.462a.13.13 0 0 1 .066.113v4.94c0 .035-.014.068-.04.092s-.06.037-.093.036m0 6.506c-.024 0-.047-.006-.068-.017l-4.445-2.462c-.042-.02-.07-.065-.07-.112v-4.94a.13.13 0 0 1 .068-.113c.043-.022.093-.022.136 0l4.444 2.462a.13.13 0 0 1 .066.113v4.94c0 .035-.014.068-.04.092s-.06.037-.093.036m1.93-12.265c.012-.02.03-.036.05-.047l4.417-2.4c.04-.024.092-.024.134-.001l4.372 2.38c.04.02.066.064.066.1s-.028.088-.068.1l-4.417 2.4c-.042.022-.092.02-.133-.001l-4.373-2.38c-.03-.015-.052-.043-.06-.075s-.004-.067.013-.096m-5.76-3.135a.13.13 0 0 1 .049-.047l4.368-2.4c.04-.024.09-.024.132-.001l4.324 2.38c.04.022.065.063.065.1s-.028.088-.068.1l-4.368 2.4c-.04.022-.1.02-.13-.001l-4.325-2.38c-.04-.02-.065-.062-.065-.107.001-.023.008-.044.02-.064m11.64.053a.13.13 0 0 1 .049-.047l4.368-2.4c.04-.024.09-.024.132-.001l4.324 2.38c.04.022.065.063.065.1s-.028.088-.068.1l-4.368 2.4c-.04.022-.1.02-.13-.001l-4.325-2.38c-.04-.02-.065-.062-.065-.107.001-.023.008-.045.02-.064m-5.858-3.093a.13.13 0 0 1 .05-.046L26 11.46c.042-.023.092-.023.134-.001l4.372 2.34c.04.02.066.062.066.108s-.028.086-.068.108l-4.417 2.36c-.042.02-.09.02-.133-.001l-4.373-2.342c-.04-.02-.066-.06-.066-.106 0-.023.007-.043.018-.06" fill="#fff"/><path d="M21.136 41.167c-1.797 0-3.402-1.483-4.574-2.567l-.86-.75c-.772-.548-2.28-1.137-3.764-1.137l-1.375-.002c-.826-.004-1.493-.674-1.495-1.5V30.56a1.5 1.5 0 0 1 1.5-1.5h2.24l.11 1.002v-1c.644 0 1.647-.187 2.534-.352l1.938-.308.74-.033c.707 0 3.096.115 4.132 1.597.122.17.685.846.94 1.053.216.174.753.36 1.613.36l.157-.002c.067-.002.225-.017.434-.035l2.183-.13.438.015c1.308.097 2.016.987 2.14 1.827.047.32 0 .76-.175 1.164l.487-.238 4.876-2.207c.44-.153.904-.232 1.37-.236.99 0 1.81.4 2.19 1.097.206.37.458 1.14-.163 2.137-.322.518-.834 1.02-1.404 1.373l-3.273 2.006-1.408.894c-1.61 1.042-2.636 1.686-3.4 1.792-.35.04-.7.058-1.053.052-.342 0-.723-.01-1.106-.018L26 40.85a9.5 9.5 0 0 0-.713.021l-1.02.096-3.132.2z" fill="#0072c6"/><path d="M35.577 32.816c-1.698.574-5.42 2.522-6.273 2.885-1.004.428-2.997.686-5.222.645-1.23-.023-2.11-.156-2.603-.616l-2.118-1.78c-.603-.595.177-1.498.785-1.022l1.924 1.646c.728.545 3.297.29 4.36.217 1.225-.085 1.916-.323 2.19-.456.397-.193.497-.8.46-1.04-.053-.367-.4-.913-1.222-.974s-2.682.148-2.956.155c-1.28.03-2.038-.27-2.422-.578s-1.042-1.126-1.134-1.26c-.645-.923-2.435-1.28-3.962-1.14-1.274.117-3.435.696-4.675.66h-2.24a.5.5 0 0 0-.5.5v4.653a.5.5 0 0 0 .498.5l1.372.002c1.624 0 3.335.607 4.342 1.32s2.956 3.133 4.856 3.133c1.506 0 3.017-.216 4.076-.296s3.087.083 3.91-.03 2.773-1.537 4.422-2.54l3.278-2.01c.455-.283.85-.677 1.084-1.052.815-1.312-.59-2.08-2.23-1.524z" fill="#fff"/><defs ><path id="B" d="M4 4H3a3 3 0 0 0-3 3h1a2 2 0 0 1 2-2h1z"/></defs></svg>