<svg xmlns="http://www.w3.org/2000/svg" width="24" height="21.012"><path d="M17.625 0c-.648 0-1.227.074-1.734.223s-.98.354-1.412.615-.848.576-1.242.943L12 2.988 10.764 1.78c-.395-.367-.81-.68-1.243-.943S8.617.37 8.11.223 7.023 0 6.375 0c-.883 0-1.71.168-2.484.504s-1.45.79-2.028 1.365A6.33 6.33 0 0 0 .498 3.896C.166 4.674 0 5.5 0 6.375a6.33 6.33 0 0 0 .486 2.449 6.29 6.29 0 0 0 1.377 2.062L12 21.012l10.137-10.125a6.3 6.3 0 0 0 1.377-2.062c.324-.78.486-1.598.486-2.45 0-.875-.166-1.7-.498-2.48a6.33 6.33 0 0 0-1.365-2.027C21.56 1.295 20.883.84 20.1.504A6.17 6.17 0 0 0 17.625 0z" fill="#59b4d9"/><g fill="#fff"><path d="M12 2.988L10.764 1.78c-.395-.367-.81-.68-1.243-.943S8.617.37 8.11.223 7.023 0 6.375 0c-.883 0-1.71.168-2.484.504s-1.45.79-2.028 1.365A6.33 6.33 0 0 0 .498 3.896C.166 4.674 0 5.5 0 6.375a6.33 6.33 0 0 0 .486 2.449 6.29 6.29 0 0 0 1.377 2.062L12 21.012V2.988z" opacity=".2"/><path d="M3 12l-1-1h5.69l2.436-4.874 2.057 7.197L13.732 11H17v1h-2.732l-2.452 3.677-1.943-6.803L8.31 12z"/></g></svg>