<svg xmlns="http://www.w3.org/2000/svg" width="46" height="47"><path d="M33.5 46c-2.236 0-4.5-1.717-4.5-5a5.82 5.82 0 0 1 1.547-4H8V8.9c-.05-2.136.78-4.2 2.3-5.7S13.864.85 16 .9h25.614l-1.707 1.707A8.66 8.66 0 0 0 38 7.9V40c0 2.768-1.18 6-4.5 6z" fill="#fff"/><path d="M41 0H17C11 0 7 3.9 7 9.9V36H5.5a5.5 5.5 0 1 0 0 11H34c4 0 5-4 5-6V7.9h6.6c.247-.743.382-1.518.4-2.3C46 2.5 43.8 0 41 0zm-4 7.9V41c0 2-.5 4-3.5 4-1.7 0-3.5-1.3-3.5-4a5.03 5.03 0 0 1 4-4.9V36H9V8.9c-.046-1.87.677-3.677 2-5s3.13-2.046 5-2h23.2a9.62 9.62 0 0 0-2.2 6z"/><path d="M19 17a2 2 0 1 1-4 0 2 2 0 1 1 4 0zm10-2a2 2 0 1 0 0 4 2 2 0 1 0 0-4zm-5.25 13.648v-9.8a2 2 0 0 0-.75-3.854 2 2 0 0 0-.75 3.854v9.8a2 2 0 0 0 .75 3.854 2 2 0 0 0 .75-3.854z" fill="#7fba00"/><path d="M18 25a1 1 0 0 1-.707-.293l-7-7a1 1 0 0 1 0-1.414l7-7a1 1 0 0 1 1.414 1.414L12.414 17l6.293 6.293A1 1 0 0 1 18 25zm10.707-.293l7-7a1 1 0 0 0 0-1.414l-7-7a1 1 0 0 0-1.414 1.414L33.586 17l-6.293 6.293a1 1 0 0 0 .441 1.687 1 1 0 0 0 .973-.273z" fill="#59b4d9"/></svg>