<svg xmlns="http://www.w3.org/2000/svg" width="50" height="50"><g fill="#0072c6"><path d="M.8 0C.3 0 0 .3 0 .8v10c0 .5.3.8.8.8h5c.5 0 .8-.3.8-.8V6.7h36.7v4.2c0 .5.3.8 1 .8h4.8c.5 0 .8-.3.8-.8V.9c.1-.6-.2-.9-.7-.9H.8zm48.4 50c.5 0 .8-.3.8-.8v-9.8c0-.5-.3-.8-.8-.8h-4.8c-.5 0-.8.3-.8.8v4H6.7v-4.2c0-.5-.3-.8-1-.8H.8c-.5 0-.8.3-.8 1v9.8c0 .5.3.8.8.8h48.4zM24 17.33l2.12-1.325L36.55 32.7l-2.12 1.325z"/><path d="M13.8 32.698l10.44-16.706 2.12 1.325-10.44 16.706z"/></g><circle cx="25" cy="16.7" r="5.4" fill="#b8d432"/><g fill="#59b4d9"><circle cx="14.6" cy="33.3" r="5.4"/><circle cx="35.4" cy="33.3" r="5.4"/></g></svg>