<svg xmlns="http://www.w3.org/2000/svg" width="50" height="50"><path d="M.833 0C.333 0 0 .333 0 .833v10c0 .5.333.833.833.833h5c.5 0 .833-.333.833-.833V6.667h36.667v4.167c0 .5.333.833 1 .833h4.833c.5 0 .833-.333.833-.833v-10C50 .333 49.667 0 49.167 0H.833zm48.334 50c.5 0 .833-.333.833-.833v-9.833c0-.5-.333-.833-.833-.833h-4.833c-.5 0-.833.333-.833.833v4H6.667v-4.167c0-.5-.333-.833-1-.833H.833c-.5 0-.833.333-.833 1v9.833c0 .5.333.833.833.833h48.334z" fill="#0072c6"/><path d="M29.857 26.098C28.56 27.395 26.835 28.1 25 28.1s-3.56-.714-4.858-2.012l-9.3-9.3V35.7h28.333V16.788l-9.3 9.3zm-4.857.63a5.45 5.45 0 0 0 3.88-1.607l10.286-10.286V14.3H10.833v.546L21.12 25.12A5.45 5.45 0 0 0 25 26.728z" fill="#59b4d9"/></svg>