<svg xmlns="http://www.w3.org/2000/svg" width="50" height="50"><path fill="#dd5900" d="M24.996 9.48l15.78 13.1-5.32 18.032H14.197L9.18 22.6 24.996 9.48m0-5.586L4.293 21.082l6.64 23.828h27.734l7.03-23.828L24.996 3.894z"/><g fill-rule="evenodd"><path d="M25 0c4.315 0 7.813 3.498 7.813 7.813S29.315 15.625 25 15.625s-7.812-3.498-7.812-7.812S20.685 0 25 0zm17.188 13.28c4.315 0 7.812 3.498 7.812 7.812s-3.498 7.812-7.812 7.812-7.813-3.498-7.813-7.812 3.498-7.812 7.813-7.812zm-5.86 21.095c4.315 0 7.813 3.498 7.813 7.812S40.643 50 36.328 50s-7.812-3.498-7.812-7.812 3.497-7.812 7.812-7.812zm-22.666 0c4.315 0 7.813 3.498 7.813 7.812S17.977 50 13.662 50 5.85 46.502 5.85 42.187s3.498-7.812 7.813-7.812zM7.813 13.28c4.315 0 7.812 3.498 7.812 7.812s-3.498 7.812-7.812 7.812S0 25.4 0 21.094s3.498-7.813 7.813-7.813z" fill="#ff8c00"/><path opacity=".25" fill="#fff" d="M15.055 49.875l3.183-14.018c-1.286-.93-2.866-1.48-4.576-1.48-.4 0-.794.03-1.18.09l-1.71-6.14c2.847-1.167 4.853-3.964 4.853-7.23 0-1.16-.254-2.258-.707-3.248L19.9 13.72a7.81 7.81 0 0 0 3.007 1.619L26.352.12C25.912.042 25.46 0 25 0c-4.315 0-7.812 3.498-7.812 7.813 0 .794.12 1.56.34 2.282l-5.402 4.485c-1.236-.82-2.718-1.298-4.312-1.298C3.498 13.28 0 16.78 0 21.094c0 3.846 2.78 7.04 6.44 7.7l2.094 7.514a7.79 7.79 0 0 0-2.684 5.89C5.85 46.503 9.347 50 13.662 50a7.99 7.99 0 0 0 1.393-.126z"/></g></svg>