<svg xmlns="http://www.w3.org/2000/svg" width="48" height="48"><path d="M0 28h48v20H0z" fill="#0072c6"/><path d="M0 28v20h13.44l18.24-20z" opacity=".2" fill="#fff"/><path d="M1 0v27h3V3h26v24h3V0z" fill="#3999c6"/><path d="M41.5 9H44v18h3V6h-5.5z" fill="#804998"/><path d="M33.5 6H38v21h3V3h-7.5z" fill="#7fba00"/><path d="M4 3h26v24H4z" fill="#3999c6"/><path d="M4 3h26v24H4z" opacity=".5" fill="#fff"/><path d="M33.5 6H38v21h-4.5z" fill="#7fba00"/><path d="M45 9v18h-3.5V9" fill="#804998"/><path d="M41.5 9H44v18h-2.5zm-8-3H38v21h-4.5z" opacity=".6" fill="#fff"/><path d="M9.642 24.45l4.36 2.55h6.044l4.318-2.526c.562-.332.93-.614 1.175-.93A1.42 1.42 0 0 0 26 22.505v-8.93c0-.426-.194-.814-.505-1.075-.245-.292-.602-.558-1.137-.87l-6.672-3.9c-.214-.123-.457-.187-.704-.187a1.45 1.45 0 0 0-.716.191l-6.63 3.874c-.562.332-.93.614-1.175.93A1.41 1.41 0 0 0 8 13.574v8.93c0 .426.194.814.505 1.075.245.293.602.56 1.137.87z" opacity=".5" fill="#3999c6"/><g fill="#fff"><path d="M17.02 17.125c-.036-.001-.07-.01-.1-.03L10.257 13.2c-.062-.037-.1-.104-.1-.177s.038-.14.1-.177l6.622-3.87c.062-.035.137-.035.2 0l6.665 3.897c.062.037.1.104.1.176a.2.2 0 0 1-.099.176l-6.62 3.87c-.03.02-.066.03-.102.03"/><path d="M16.164 18.417l-6.642-3.882c-.062-.038-.14-.038-.203 0s-.103.104-.103.177v7.9c0 .074.04.14.098.18l6.642 3.882c.066.038.306.022.306-.177v-7.9c0-.072-.037-.14-.098-.18z" opacity=".8"/><path d="M17.836 18.417l6.642-3.882c.062-.038.14-.038.203 0s.103.104.103.177v7.9c0 .074-.04.14-.098.18l-6.642 3.882c-.066.038-.306.022-.306-.177v-7.9c0-.074.04-.14.098-.18z" opacity=".5"/></g></svg>