<svg xmlns="http://www.w3.org/2000/svg" width="36.6" height="49.9"><path d="M31.2 6c-11-1.2-12.9-6-12.9-6S15.8 6.2 0 6.2v25.6c0 3.1 1.7 6 4.1 8.5 5.4 5.7 14.2 9.6 14.2 9.6s18.3-8 18.3-18.1V6.2c-2 0-3.8-.1-5.4-.2z" fill="#3999c6"/><path d="M22.9 16.5L31.2 6c-11-1.2-12.9-6-12.9-6S15.8 6.2 0 6.2v25.6c0 3.1 1.7 6 4.1 8.5l6.2-7.8z" opacity=".4" fill="#59b4d9"/><g fill="#fff"><path d="M3.8 24.4v6.1c0 2.5 1.4 4.8 3.3 6.8 4.3 4.6 11.3 7.6 11.3 7.6V24.4z" opacity=".3"/><path d="M18.3 44.9s14.6-6.4 14.6-14.4v-6.1H18.3z" opacity=".7"/><path d="M18.3 5.1s-2 5-14.6 5v14.3h14.6z" opacity=".7"/><path d="M28.5 9.9c-8.7-1-10.2-4.7-10.2-4.7v19.2h14.6V10.1c-1.6 0-3.1-.1-4.4-.2z" opacity=".3"/></g></svg>