<svg xmlns="http://www.w3.org/2000/svg" width="49.9" height="41.8"><path d="M28.4 13.6c6 0 10.9 4.5 11.6 10.2a13.11 13.11 0 0 1 3.3 3.8 8.68 8.68 0 0 0 6.6-8.5c0-3.3-1.8-5.9-4.9-7.4v-1.1C45 4.8 40.2 0 34.4 0c-3.5 0-6.7 1.7-8.7 4.4-1.3-.8-2.7-1.2-4.3-1.2-4.2 0-7.6 3.2-8 7.2.6-.1 1.3-.1 2-.1 3.1 0 6.6.5 9.5 3.6l3.5-.3z" fill="#59b4d9"/><path d="M36.5 25.8v-.6c0-4.4-3.6-8-8-8-1.4 0-2.7.4-3.9 1v.1-.1c-.1.1-.3.1-.4.2l-.1-.1c-2.3 1.7-3.3 4.3-3.4 7.1h3.5l-5.3 6.3-5.4-6.3h3.6c.1-3.8 1.6-7.4 4.2-9.7-1.7-1.1-3.7-1.7-5.8-1.7-5.9 0-10.7 4.7-10.7 10.5v1.1C1.8 27.1 0 29.7 0 33c0 5 4 8.8 9.2 8.8h22.7c5.2 0 9.2-3.9 9.2-8.8 0-3.2-1.6-5.7-4.6-7.2z" fill="#0072c6"/></svg>