<svg xmlns="http://www.w3.org/2000/svg" xmlns:xlink="http://www.w3.org/1999/xlink" width="47.8" height="47.95"><path d="M40.165 14.155l.053-1.036C40.218 5.874 34.245 0 26.876 0c-5.948 0-10.982 3.83-12.704 9.115a12.12 12.12 0 0 0-2.222-.224C5.35 8.89 0 14.042 0 20.395S5.35 31.9 11.95 31.9h26.556c5.133 0 9.294-4.006 9.294-8.948.001-4.395-3.294-8.042-7.635-8.796z" fill="#59b4d9"/><path d="M13.8 31.95V16.028a2.08 2.08 0 0 1 2.078-2.078h17.844a2.08 2.08 0 0 1 2.078 2.078V31.95z" opacity=".4" fill="#fff"/><path d="M33.723 14.95H15.88a1.08 1.08 0 0 0-1.078 1.078V46.87a1.08 1.08 0 0 0 1.078 1.079h17.843a1.08 1.08 0 0 0 1.079-1.078V16.028a1.08 1.08 0 0 0-1.078-1.078z" fill="#7a7a7a"/><path d="M33.723 14.95H26.8l-12 27v4.922a1.08 1.08 0 0 0 1.078 1.078h17.843a1.08 1.08 0 0 0 1.079-1.078V16.028a1.08 1.08 0 0 0-1.078-1.078z" opacity=".4" fill="#1e1e1e"/><use xlink:href="#B" fill="#fff"/><use xlink:href="#B" opacity=".15" fill="#59b4d9"/><defs ><path id="B" d="M16.8 17.95h4v5h-4zm6 0h4v5h-4zm6 0h4v5h-4zm-12 8h4v5h-4zm6 0h4v5h-4zm6 0h4v5h-4zm-12 8h4v5h-4zm6 0h4v5h-4zm0 8h4v6h-4zm6-8h4v5h-4z"/></defs></svg>