<svg xmlns="http://www.w3.org/2000/svg" width="49" height="44"><path d="M46 33c0 1.657-1.36 3-3.036 3H3.036C1.36 36 0 34.657 0 33V3c0-1.657 1.36-3 3.036-3h39.928C44.64 0 46 1.343 46 3z" fill="#3e3e3e"/><path d="M2.962 5H43v26H2.962z" fill="#3999c6"/><g fill="#fff"><path d="M26 2.69a.69.69 0 0 1-.688.688H20.9a.69.69 0 0 1-.69-.688.69.69 0 0 1 .69-.689h4.422a.69.69 0 0 1 .688.689"/><path d="M31 0H3a3 3 0 0 0-3 3v30a3 3 0 0 0 3 3h12z" opacity=".15"/></g><g fill-rule="evenodd"><path d="M33 44s11-1.063 11-14h5l-7.5-9-7.5 9h5c0 11.52-6 14-6 14z" fill="#b8d432"/><path d="M33 44s11-1.063 11-14h5l-7.5-9c1.628 10-.4 20.365-8.5 23zm1-25s-11 1.063-11 14h-5l7.5 9 7.5-9h-5c0-11.52 6-14 6-14z" fill="#7fba00"/><path d="M34 19s-11 1.063-11 14h-5l7.5 9c-1.628-10 .41-20.365 8.5-23z" fill="#b8d432"/></g></svg>