<svg xmlns="http://www.w3.org/2000/svg" width="50" height="50"><g fill-rule="evenodd"><path d="M0 18h15v15H0zm0 17h15v15H0zm17 0h15v15H17z" fill="#dd5900"/><path d="M33.5 0C24.265 0 17 7.265 17 16.5V33h16.5C42.735 33 50 25.735 50 16.5S42.735 0 33.5 0z" fill="#3999c6"/><g fill="#fff"><circle cx="23" cy="25" r="3"/><circle cx="37" cy="22" r="3"/><circle cx="30" cy="14" r="3"/></g></g><path stroke-miterlimit="10" d="M24 24l6-10" fill="none" stroke="#fff" stroke-width="2"/><circle cx="43" cy="11" r="3" fill="#fff" fill-rule="evenodd"/><path stroke-miterlimit="10" d="M42 12l-5 10m0 0l-7-8" fill="none" stroke="#fff" stroke-width="2"/></svg>