<svg xmlns="http://www.w3.org/2000/svg" width="47.673" height="49.8"><path d="M1.193 31.9L21.9 17.193 42.607 31.9 21.9 47.607z" fill="#3999c6"/><path d="M37.538 31.98L21.9 43.84 6.262 31.98 21.9 20.873z" fill="#fff"/><path d="M37.538 31.98L21.9 43.84 6.262 31.98 21.9 20.873z" opacity=".4" fill="#59b4d9"/><circle cx="38.9" cy="31.9" r="6.9" fill="#fff"/><path d="M38.9 28c2.15 0 3.9 1.75 3.9 3.9s-1.75 3.9-3.9 3.9-3.9-1.75-3.9-3.9 1.75-3.9 3.9-3.9m0-3a6.9 6.9 0 0 0 0 13.8 6.9 6.9 0 1 0 0-13.8z" fill="#3999c6"/><path d="M47.673 9.45C47.673 4.288 43.745 0 38.9 0s-8.773 4.113-8.773 9.45S38.9 29.4 38.9 32.9c0-3.5 8.773-18.286 8.773-23.45z" fill="#804998"/><circle cx="38.9" cy="8.9" r="3.9" fill="#fff"/><g fill="#804998"><circle cx="21.9" cy="19.9" r="4.9"/><circle cx="4.9" cy="31.9" r="4.9"/><circle cx="21.9" cy="44.9" r="4.9"/></g></svg>