<svg xmlns="http://www.w3.org/2000/svg" viewBox="-0.5 0.5 50 50" width="50" height="50"><g fill="#0072c6"><path d="M-.5 7.288V43.4c0 3.75 8.392 6.79 18.743 6.79v-42.9z"/><path d="M17.986 50.187h.257c10.35 0 18.743-3.038 18.743-6.788V7.288h-19z"/></g><g fill="#fff"><path d="M17.986 50.187h.257c10.35 0 18.743-3.038 18.743-6.788V7.288h-19z" opacity=".15"/><path d="M36.986 7.288c0 3.75-8.392 6.788-18.743 6.788S-.5 11.037-.5 7.288 7.892.5 18.243.5s18.743 3.04 18.743 6.788"/></g><path d="M33.154 6.897c0 2.475-6.676 4.48-14.91 4.48S3.33 9.372 3.33 6.897s6.677-4.48 14.912-4.48 14.91 2.005 14.91 4.48" fill="#7fba00"/><path d="M30.03 9.634c1.952-.757 3.125-1.705 3.125-2.735 0-2.475-6.676-4.48-14.912-4.48S3.332 4.424 3.332 6.9c0 1.03 1.173 1.978 3.125 2.735 2.726-1.058 6.986-1.74 11.786-1.74s9.06.683 11.787 1.74" fill="#b8d432"/><path d="M12.3 31.354c0 1.122-.407 1.99-1.22 2.607s-1.938.924-3.373.924c-1.22 0-2.24-.22-3.06-.66v-2.64c.946.803 1.988 1.205 3.126 1.205.55 0 .975-.1 1.275-.33a1.03 1.03 0 0 0 .45-.875c0-.357-.144-.668-.433-.932s-.876-.605-1.76-1.023c-1.804-.846-2.706-2.002-2.706-3.464 0-1.06.393-1.912 1.18-2.553s1.83-.96 3.134-.96c1.155 0 2.11.152 2.87.454v2.466c-.797-.55-1.705-.825-2.722-.825-.51 0-.915.108-1.212.325a1.026 1.026 0 0 0-.445.87c0 .374.12.68.36.92s.73.535 1.472.887c1.106.523 1.893 1.053 2.364 1.592s.703 1.21.703 2.013zm12.727-2.672c0 1.39-.317 2.6-.95 3.62s-1.523 1.74-2.672 2.153l3.43 3.176h-3.464l-2.45-2.747c-1.05-.038-1.998-.316-2.842-.833a5.22 5.22 0 0 1-1.955-2.124c-.46-.9-.69-1.902-.69-3.007 0-1.226.25-2.32.746-3.28s1.197-1.698 2.1-2.215 1.935-.775 3.102-.775c1.088 0 2.063.25 2.924.75s1.528 1.212 2.004 2.136.715 1.972.715 3.143zm-2.804.15c0-1.2-.26-2.146-.784-2.842s-1.237-1.044-2.145-1.044a2.69 2.69 0 0 0-2.219 1.047c-.555.7-.833 1.628-.833 2.788 0 1.155.272 2.077.816 2.767s1.267 1.035 2.17 1.035c.92 0 1.647-.334 2.186-1.002s.8-1.584.8-2.75zm11.803 5.848h-7.044V22.85h2.664v9.667h4.38z" fill="#fff"/><path d="M34.755 49.584l2.123.916.224-.265 1.7-2 1.72.01 1.973 2.254 2.135-.887-.023-.347-.185-2.643 1.225-1.234 2.957.168.897-2.167-2.218-1.967.012-1.756L49.5 37.65l-.866-2.18-.342.025-2.588.186-1.206-1.25.164-3.02-2.124-.914-.224.265-1.702 2-1.72-.01-1.975-2.25-2.134.884.026.35.18 2.64-1.224 1.234-2.955-.168-.896 2.167.26.23 1.96 1.736-.012 1.756-2.207 2.016.867 2.18.343-.025 2.587-.186 1.208 1.25zm.608-10.956c1.012-2.452 3.778-3.6 6.177-2.565s3.525 3.858 2.513 6.308-3.78 3.598-6.18 2.565-3.524-3.857-2.51-6.308" fill="#a0a1a2"/></svg>