<svg xmlns="http://www.w3.org/2000/svg" width="47116" height="61538"><rect x="10578" width="36538" height="61538" rx="3846" fill="#777"/><path d="M18270 5770c-2124 0-3846 1722-3846 3846s1722 3846 3846 3846h21154c2124 0 3846-1722 3846-3846s-1722-3846-3846-3846z"/><circle cx="18270" cy="9616" r="1923" fill="#b8d432"/><path d="M18270 17309c-2124 0-3846 1722-3846 3845 0 2124 1722 3846 3846 3846h21154c2124 0 3846-1722 3846-3846 0-2123-1722-3845-3846-3845z"/><circle cx="18270" cy="21154" r="1923" fill="#b8d432"/><path d="M18270 28847c-2124 0-3846 1722-3846 3846s1722 3845 3846 3845h21154c2124 0 3846-1721 3846-3845s-1722-3846-3846-3846z"/><circle cx="18270" cy="32693" r="1923" fill="#b8d432"/><path d="M40384 59619c3186 0 5770-2583 5770-5770 0-3438-2975-6091-6378-5738 1833-8898-4950-17340-14127-17340-6009 0-11160 3676-13327 8901C6048 38260 0 43016 0 49522c0 5575 4520 10095 10096 10095z" fill="#fff"/><path d="M39778 42283c-1347-6570-7161-11512-14129-11512-6009 0-11160 3676-13327 8901-716-161-1461-246-2226-246C4520 39426 0 43946 0 49522c0 5575 4520 10095 10096 10095h6788c-4526 0-8195-3669-8195-8195s3669-8195 8195-8195c621 0 1226 68 1807 200 1760-4241 5940-7225 10818-7225 4426 0 8279 2457 10269 6081z" fill="#c0ecfc"/><path d="M27884 55768c564 0 1100-121 1583-339l340 340h1923v-1923l-339-340c219-483 339-1019 339-1584v-1922c0-2124-1721-3846-3846-3846-2124 0-3846 1722-3846 3846v1922c0 2125 1722 3846 3846 3846zm-10577-9614c-1592 0-2884 1292-2884 2884 0 1594 1292 2885 2884 2885h1923c532 0 962 430 962 962 0 530-430 961-962 961h-4807v1923h4807c1594 0 2885-1292 2885-2884 0-1593-1291-2885-2885-2885h-1923c-530 0-961-430-961-962 0-530 431-960 961-960h4808v-1924zm16347 0h1923v7692h3846v1924h-5769zm-3847 5768h-1923v1924c-1062 0-1922-862-1922-1924v-1922c0-1062 860-1922 1922-1922s1923 860 1923 1922z" fill="#8ba208"/></svg>