<svg xmlns="http://www.w3.org/2000/svg" width="372.9" height="362.6"><path d="M89.8 113.7h35.7v35.7H89.8zm-28.3 96.8h35.7v35.7H61.5zm50.8 0H148v35.7h-35.7zm50.3 0h35.7v35.7h-35.7zM61.5 162.1h35.7v35.7H61.5zm50.8 0H148v35.7h-35.7z" fill="#7fbb42"/><path d="M28.7 96.5v150.9h24V96.5h174.8v141.3h26.4V96.5h26.3V74.7L140.6 0 0 74.7v21.8z" fill="#3999c6"/><g fill="#b8d433"><path d="M89.8 118.3v-4.6h35.7v35.7h-4.1v-31.1z" opacity=".8"/><path d="M125.5 144.9v4.5H89.8v-35.7h4.1v31.2z" opacity=".5"/><path d="M61.5 166.7v-4.6h35.7v35.7h-4v-31.1z" opacity=".8"/><path d="M97.2 193.2v4.6H61.5v-35.7h4.1v31.1z" opacity=".5"/><path d="M112.3 166.7v-4.6h35.9v35.7h-4.3v-31.1z" opacity=".8"/><path d="M148.2 193.2v4.6h-35.9v-35.7h4.3v31.1z" opacity=".5"/><path d="M61.5 215v-4.5h35.7v35.7h-4V215z" opacity=".8"/><path d="M97.2 241.6v4.6H61.5v-35.7h4.1v31.1z" opacity=".5"/><path d="M112.3 215v-4.5h35.9v35.7h-4.3V215z" opacity=".8"/><path d="M148.2 241.6v4.6h-35.9v-35.7h4.3v31.1z" opacity=".5"/><path d="M162.6 215v-4.5h35.7v35.7h-4.1V215z" opacity=".8"/><path d="M198.3 241.6v4.6h-35.7v-35.7h4.1v31.1z" opacity=".5"/><path d="M120.7 113.7h4.8v3.6l-30.4 32.1h-5.3v-4.1zm22.8 48.4h4.7v3.6l-30.6 32.1h-5.3v-4.1zm-51.1 0h4.8v3.6l-30.4 32.1h-5.3v-4.1zm0 48.4h4.8v3.6l-30.4 32.1h-5.3v-4.1zm51.1 0h4.7v3.6l-30.6 32.1h-5.3v-4.1zm50 0h4.8v3.6l-30.4 32.1h-5.3v-4.1z" opacity=".8"/></g><path d="M211.5 177.9v155.4c0 16 36.2 29.2 80.7 29.2V177.9h-80.7z" fill="#3999c6"/><path d="M291 362.6h1.2c44.6 0 80.7-13.2 80.7-29.2V177.9H291v184.7z" fill="#5ab4d9"/><path d="M372.9 177.9c0 16-36.2 29.2-80.7 29.2s-80.7-13.1-80.7-29.2 36.2-29.2 80.7-29.2 80.7 12.9 80.7 29.2" fill="#fff"/><path d="M356.4 176.2c0 10.5-28.7 19.4-64.2 19.4S228 187 228 176.2c0-10.5 28.7-19.4 64.2-19.4s64.2 8.7 64.2 19.4" fill="#7fbb42"/><path d="M343 188c8.4-3.4 13.4-7.4 13.4-11.7 0-10.5-28.7-19.4-64.2-19.4s-64.2 8.6-64.2 19.4c0 4.6 5 8.6 13.4 11.7 11.7-4.6 30.2-7.4 50.8-7.4 20.6-.3 39 2.8 50.8 7.4" fill="#b8d433"/><path d="M231.6 289.3v-11c1.9 1.7 4.1 2.9 6.5 3.8 2.4.7 4.8 1.2 6.9 1.2 1.4 0 2.6-.2 3.6-.5 1-.2 1.9-.5 2.6-1s1.2-1 1.4-1.7.5-1.2.5-1.9c0-1-.2-1.9-.7-2.6s-1.2-1.4-2.2-2.2c-1-.7-2.2-1.2-3.4-1.9l-4.3-1.9c-3.8-1.7-6.7-3.6-8.6-5.7-1.9-2.4-2.9-5-2.9-8.4 0-2.6.5-4.8 1.4-6.5 1-1.9 2.4-3.4 4.1-4.6s3.8-2.2 6.2-2.6c2.4-.5 4.8-.7 7.4-.7s4.8.2 6.7.5a20.21 20.21 0 0 1 5.5 1.4v10.3c-.7-.5-1.7-1-2.6-1.4s-1.9-.7-2.9-1c-1-.2-2.2-.5-3.1-.7-1-.2-1.9-.2-2.9-.2-1.2 0-2.4 0-3.4.2s-1.9.5-2.6 1-1.2 1-1.7 1.4c-.5.7-.5 1.2-.5 1.9s.2 1.4.7 2.2c.5.7 1 1.2 1.9 1.9.7.5 1.7 1.2 2.9 1.7s2.4 1.2 3.8 1.7c1.9.7 3.8 1.7 5.3 2.6 1.7 1 2.9 1.9 4.1 3.1s1.9 2.4 2.6 4.1c.5 1.4 1 3.1 1 5.3 0 2.6-.5 5-1.4 6.9-1 1.9-2.4 3.4-4.3 4.6-1.7 1.2-3.8 1.9-6.2 2.4s-4.8.7-7.4.7-5.3-.2-7.7-.7c-2.5 0-4.6-.8-6.3-1.7zm62 2.9c-6.9 0-12.7-2.4-17.2-6.9-4.3-4.6-6.7-10.5-6.7-18 0-7.7 2.2-13.9 6.7-18.7 4.6-4.8 10.3-7.2 17.7-7.2 6.9 0 12.7 2.4 17 6.9s6.5 10.5 6.5 18.2-2.2 13.9-6.7 18.7l-1 1 12.5 12h-15.6l-6.5-6.7c-1.6.4-4 .7-6.7.7zm.5-41.2c-3.8 0-6.9 1.4-9.3 4.3s-3.4 6.7-3.4 11.5 1.2 8.6 3.4 11.5c2.4 2.9 5.3 4.3 8.9 4.3 3.8 0 6.7-1.4 9.1-4.1 2.2-2.9 3.4-6.7 3.4-11.5 0-5-1.2-9.1-3.4-12-2-2.6-4.9-4-8.7-4zm61.1 40.2H326v-49.1h11v40h18.2v9.1z" fill="#fff"/></svg>