<svg xmlns="http://www.w3.org/2000/svg" viewBox="-382 215 468.527 324.201" width="468.527" height="324.201"><path d="M-259.9 517.1H29.3s51.1-.7 56.4-33.3c6.7-41.3-29.5-44.9-29.5-44.9s39.7-47.7 9.4-97.3c-36.6-59.9-99.4-26.9-99.4-26.9s-13.3-125.2-158-95c-119.5 25-98.7 155.9-98.7 155.9s-70.1-17.7-76.6 58.2c-6.4 75.8 107.2 83.3 107.2 83.3z" fill="#ddd"/><g fill="#edb51d"><path d="M-282 310.1h-100v192.7c0 19.8 44 36 99 36.2v.2h.2c.2 0 .8-.2.8-.2v.2h.2c55.1 0 99.8-16.4 99.8-36.3V310.1h-100z"/><path d="M-26.6 409.5l-76.4 61.4v-39.8h-130v-43h130v-37.8z"/></g><g fill="#fff"><path d="M-381.7 310.4v192.3c0 20 44.7 36.2 99.8 36.2V310.4h-99.8z" opacity=".3"/><path d="M-182 310.4c0 20-44.7 36.2-99.8 36.2s-99.8-16.2-99.8-36.2 44.7-36.2 99.8-36.2c55.1.1 99.8 16.3 99.8 36.2"/></g><path d="M-202.4 308.3c0 13.2-35.6 23.9-79.4 23.9-43.9 0-79.4-10.7-79.4-23.9s35.6-23.9 79.4-23.9c43.8.1 79.4 10.8 79.4 23.9" fill="#7fba00"/><path d="M-219 322.9c10.4-4 16.6-9.1 16.6-14.6 0-13.2-35.6-23.9-79.4-23.9-43.9 0-79.4 10.7-79.4 23.9 0 5.5 6.2 10.5 16.7 14.6 14.5-5.6 37.2-9.3 62.8-9.3 25.4 0 48.1 3.7 62.7 9.3" fill="#b8d432"/></svg>