<svg xmlns="http://www.w3.org/2000/svg" width="37.486" height="49.688" viewBox="-0.5 0.5 37.486 49.688"><g fill="#0072c6"><path d="M-.5 7.288V43.4c0 3.75 8.392 6.79 18.743 6.79v-42.9H-.5z"/><path d="M17.986 50.187h.257c10.35 0 18.743-3.038 18.743-6.788V7.288h-19v42.9z"/></g><g fill="#fff"><path d="M17.986 50.187h.257c10.35 0 18.743-3.038 18.743-6.788V7.288h-19v42.9z" opacity=".15"/><path d="M36.986 7.288c0 3.75-8.392 6.788-18.743 6.788S-.5 11.037-.5 7.288 7.892.5 18.243.5s18.743 3.04 18.743 6.788"/></g><path d="M33.154 6.897c0 2.475-6.676 4.48-14.91 4.48S3.33 9.372 3.33 6.897s6.677-4.48 14.912-4.48 14.91 2.005 14.91 4.48" fill="#7fba00"/><path d="M30.03 9.634c1.952-.757 3.125-1.705 3.125-2.735 0-2.475-6.676-4.48-14.912-4.48S3.332 4.424 3.332 6.9c0 1.03 1.173 1.978 3.125 2.735 2.726-1.058 6.986-1.74 11.786-1.74s9.06.683 11.787 1.74" fill="#b8d432"/><path d="M12.3 32.354c0 1.122-.407 2-1.22 2.607s-1.938.924-3.373.924c-1.22 0-2.24-.22-3.06-.66v-2.64c.946.803 1.988 1.205 3.126 1.205.55 0 .975-.1 1.275-.33a1.03 1.03 0 0 0 .45-.875c0-.357-.144-.668-.433-.932s-.876-.605-1.76-1.023C5.5 29.784 4.6 28.628 4.6 27.166c0-1.06.393-1.912 1.18-2.553s1.83-.96 3.134-.96c1.155 0 2.1.152 2.87.454v2.466c-.797-.55-1.705-.825-2.722-.825-.5 0-.915.108-1.212.325s-.445.508-.445.87c0 .374.12.68.36.92s.73.535 1.472.887c1.106.523 1.893 1.053 2.364 1.592s.703 1.2.703 2.013zm12.717-2.672c0 1.4-.317 2.6-.95 3.62s-1.523 1.74-2.672 2.153l3.43 3.176H21.36l-2.45-2.747c-1.05-.038-1.998-.316-2.842-.833a5.22 5.22 0 0 1-1.955-2.124c-.46-.9-.7-1.902-.7-3.007 0-1.226.25-2.32.746-3.28s1.197-1.698 2.1-2.215 1.935-.775 3.102-.775c1.088 0 2.063.25 2.924.75s1.528 1.212 2.004 2.136.715 1.972.715 3.143zm-2.804.15c0-1.2-.26-2.146-.784-2.842s-1.237-1.044-2.145-1.044a2.69 2.69 0 0 0-2.219 1.047c-.555.7-.833 1.628-.833 2.788s.272 2.077.816 2.767 1.267 1.035 2.17 1.035c.92 0 1.647-.334 2.186-1.002s.8-1.584.8-2.75zm7.423-5.982v9.667h4.38v2.16h-7.044V23.85z" fill="#fff"/></svg>