<svg xmlns="http://www.w3.org/2000/svg" width="50" height="50"><path d="M18.5 50h.3c10.4 0 18.8-3 18.8-6.8V6.9H18.5V50z" fill="#59b4d9"/><path d="M0 6.9v36.3C0 47 8.4 50 18.8 50V6.9H0z" fill="#3999c6"/><path d="M37.6,6.8c0,3.8-8.4,6.8-18.8,6.8S0,10.6,0,6.8S8.4,0,18.8,0S37.6,3,37.6,6.8" fill="#fff"/><path d="M33.7 6.4c0 2.5-6.7 4.5-14.9 4.5S3.9 8.9 3.9 6.4s6.7-4.5 14.9-4.5 14.9 2 14.9 4.5" fill="#7fba00"/><path d="M30.6 9.2c2-.8 3.1-1.8 3.1-2.8 0-2.5-6.7-4.5-14.9-4.5S3.9 3.9 3.9 6.4c0 1 1.1 2 3.1 2.8 2.8-1 7-1.8 11.8-1.8s9 .8 11.8 1.8" fill="#b8d432"/><path d="M12.2 47.6h35.4V35.8H12.2z" fill="#fff"/><path d="M12.2 47.6h35.4V35.8H12.2v11.8zM9.9 50V33.5H50V50H9.9z" fill="#a0a1a2"/><path d="M15.8 38.2h2.4v7.1h-2.4z" fill="#7a7a7a"/><g fill="#804998"><circle cx="9.9" cy="27" r="6.5"/><circle cx="21.7" cy="15.2" r="6.5"/><circle cx="31.1" cy="27" r="6.5"/><circle cx="42.9" cy="15.2" r="6.5"/><path d="M31 29.6l-9.5-11.8-10.4 10.4-2.5-2.5 13.2-13.2 9.5 11.8 10.4-10.4 2.5 2.5z"/></g></svg>