<svg xmlns="http://www.w3.org/2000/svg" height="40.2" width="50.092"><g fill="#a0a1a2"><path d="M50.046 37.6v-8.3h-50v8.3h.1c-.3 1.3.9 2.6 2.7 2.6h44.6c1.7 0 2.9-1.3 2.6-2.6z"/><path d="M49.946 29c.3 1.3-.9 2.6-2.7 2.6h-44.5c-1.8 0-3-1.3-2.7-2.6l6.9-27.7c.1-.6 1.3-1.3 2.5-1.3h31.1c1.3 0 2.4.6 2.6 1.3z"/></g><path d="M49.946 29l-6.8-27.7c-.2-.7-1.3-1.3-2.6-1.3h-31.1c-1.2 0-2.4.7-2.5 1.3L.146 29c-.3 1.3.9 2.6 2.7 2.6h44.6c1.7 0 2.9-1.3 2.5-2.6zm-6.6-.7h-36.6c-1.5 0-2.4-1-2.2-2.1l5.6-22c.1-.5 1.1-1 2.1-1h25.5c1 0 2 .5 2.1 1l5.6 22c.3 1.1-.6 2.1-2.1 2.1z" opacity=".4" fill="#fff"/><path d="M34.046 36.4v-1.6h-1.4v1.6h-4.1v-1.6h-1.5v1.6h-4v-1.6h-1.5v1.6h-4.1v-1.6h-1.4v1.6h-4.1v-1.6h-1.5v2.7h29.2v-2.7h-1.5v1.6z" opacity=".75" fill="#1e1e1e"/><path d="M30.546 13.7h-4.2c-.2 0-.3-.2-.2-.4l3.4-6 .2-.4h-7.2l-3.2 10.2c-.1.2 0 .4.3.4h3.3c.1 0 .2 0 .2.1.1.1.1.2 0 .3l-3.4 8.3c-.1.2 0 .3.1.1l10.8-12.3c.2-.2.2-.3-.1-.3z" fill="#fcd116"/><path d="M30.546 13.7h-2.2l-8.1 12.1 10.4-11.8c.2-.2.2-.3-.1-.3zm-1-6.4l.2-.4h-2.1l-3.3 6.8h2c-.2 0-.2-.2-.1-.4z" opacity=".3" fill="#ff8c00"/></svg>