<svg xmlns="http://www.w3.org/2000/svg" height="50.038" width="40.228"><path d="M6.6 39.138h20.1v4.5H6.6zm-2.5 6.8v-17.6H0v21.7h33.8v-21.7h-4v17.6zm3.086-13.726l20.046 1.462-.327 4.488L6.86 36.7z" fill="#7a7a7a"/><path d="M7.186 32.212l20.046 1.462-.327 4.488L6.86 36.7z" opacity=".1" fill="#ff8c00"/><path d="M9.187 23.28l19.447 5.085-1.138 4.354L8.05 27.632z" fill="#7a7a7a"/><path d="M9.187 23.28l19.447 5.085-1.138 4.354L8.05 27.632z" opacity=".35" fill="#ff8c00"/><path d="M13.818 13.39l17.336 10.173-2.277 3.88L11.54 17.272z" fill="#7a7a7a"/><g fill="#ff8c00"><path d="M13.818 13.39l17.336 10.173-2.277 3.88L11.54 17.272z" opacity=".75"/><path d="M24.056 4.135l11.3 16.63-3.723 2.528-11.3-16.63zM36.968 0l3.26 19.835-4.44.73L32.528.73z"/></g><path d="M36.968 0l3.26 19.835-4.44.73L32.528.73z" opacity=".4" fill="#dd5900"/></svg>