<svg xmlns="http://www.w3.org/2000/svg" width="50.001" height="44.822"><path d="M44.352 20.06h-.784c.313-1.4.627-2.82.627-4.23C44.195 7.053 37.926 0 29.15 0 22.254 0 16.3 4.545 14.262 10.814c-1.097-.313-2.35-.627-3.604-.627C4.858 10.187 0 15.202 0 21.157c0 6.27 4.388 10.5 10.343 10.5h4.23v-2.664h11.9v5.328H38.24v-2.664h6.112c3.3 0 5.642-2.35 5.642-5.642.156-3.3-2.508-5.955-5.642-5.955zM26.33 26.33H14.575v-2.5H26.33v2.508zm0-5.172H14.575V18.65H26.33v2.508zm.156 15.828H38.24v2.508H26.486zm0 5.328H38.24v2.508H26.486z" fill="#59b4d9"/><path d="M19.594 13.802c1.2-.3 2.4-.3 3.5-.2C23.593 8.2 27.846 2.8 32.64.406a15.42 15.42 0 0 0-3.49-.405c-6.896 0-12.85 4.545-14.888 10.814-1.097-.313-2.35-.627-3.604-.627C4.858 10.187 0 15.202 0 21.157c0 6.27 4.388 10.5 10.343 10.5h4.212c-1.378-1.392-2.366-3.077-2.86-5.156-1.3-5.7 2.2-11.4 7.9-12.7zM32.656.396z" opacity=".2" fill="#fff"/></svg>