<svg xmlns="http://www.w3.org/2000/svg" xmlns:xlink="http://www.w3.org/1999/xlink" width="49.8" height="49.9"><path d="M43.247 13.88c.372-1.027.577-2.12.577-3.257C43.824 4.756 38.473 0 31.872 0c-5.153 0-9.532 2.904-11.2 6.968-1.518-1.553-3.757-2.545-6.255-2.545-4.58 0-8.31 3.33-8.31 7.44 0 .72.116 1.4.32 2.034C2.678 15.13 0 18.355 0 22.13c0 4.837 4.38 8.77 9.792 8.77h30.213c5.426 0 9.795-3.927 9.795-8.77.013-3.82-2.727-7.057-6.553-8.25z" fill="#59b4d9"/><g fill="#fff"><path d="M8.35 19.86a7.63 7.63 0 0 1-.364-2.321c0-4.694 4.258-8.494 9.485-8.494 2.85 0 5.407 1.133 7.14 2.906 1.916-4.638 6.914-7.954 12.797-7.954a15.15 15.15 0 0 1 4.332.635C39.586 1.836 35.972 0 31.873 0c-5.153 0-9.532 2.904-11.2 6.968-1.518-1.553-3.758-2.545-6.255-2.545-4.58 0-8.31 3.33-8.31 7.44 0 .72.116 1.4.32 2.034C2.678 15.13 0 18.355 0 22.13c0 1.656.523 3.2 1.416 4.523.948-3.142 3.558-5.678 6.933-6.793z" opacity=".2"/><path d="M37.9 15.4l-22-.5v-2.562a.75.75 0 0 0-1.252-.557L7.905 17.4l6.743 5.62c.483.433 1.252.09 1.252-.558V19.9h5v27.122a1.89 1.89 0 0 0 1.901 1.878H37.9a1.89 1.89 0 0 0 1.901-1.878V17.278a1.89 1.89 0 0 0-1.901-1.878zm-17 .5h.23a1.84 1.84 0 0 0-.23.878V15.9z" opacity=".8"/></g><path d="M39.9 48.022a1.89 1.89 0 0 1-1.901 1.878H22.8a1.89 1.89 0 0 1-1.901-1.878V17.778a1.89 1.89 0 0 1 1.901-1.878H38a1.89 1.89 0 0 1 1.901 1.878v30.244z" fill="#7a7a7a"/><use xlink:href="#B" fill="#1e1e1e"/><circle cx="25.582" cy="44.293" r="1.607" fill="#b8d432"/><use xlink:href="#B" y="-7" fill="#1e1e1e"/><circle cx="25.582" cy="37.293" r="1.607" fill="#b8d432"/><path d="M22.95 21.4c0-1.322 1.075-2.393 2.4-2.393h9.997c1.326 0 2.4 1.072 2.4 2.393s-1.075 2.393-2.4 2.393H25.35c-1.326.001-2.4-1.07-2.4-2.393z" fill="#1e1e1e"/><circle cx="25.582" cy="21.4" r="1.607" fill="#b8d432"/><path d="M28.9 31.9h-8.05v-4h-.95l1-1h8v-2.56a.75.75 0 0 1 1.252-.557l6.743 5.62-6.743 5.62c-.483.433-1.252.1-1.252-.56V31.9z" opacity=".9" fill="#fff"/><path d="M35.35 29.4l-5.5-4.5v3h-11v3h11v3z" fill="#59b4d9"/><path d="M9.4 17.4l5.5 4.5v-3h11v-3h-11v-3z" fill="#7a7a7a"/><defs ><path id="B" d="M22.95 44.293c0-1.32 1.075-2.393 2.4-2.393h9.997c1.326 0 2.4 1.072 2.4 2.393s-1.075 2.393-2.4 2.393H25.35c-1.326 0-2.4-1.07-2.4-2.393z"/></defs></svg>