<svg xmlns="http://www.w3.org/2000/svg" width="48" height="48"><path d="M46 32v14H8v-6h20v-8zM32 10H18v8h14zM18 0H0v10h18zm0 18H6v8h12zm-8 10H2v6h8z" fill="#0072c6"/><path d="M46 16v14H28v-6h10v-8zM26 32h-8v6h8z" fill="#fff"/><path d="M36 14v8H26v8H16v8H6v8.5A1.5 1.5 0 0 0 7.5 48h39a1.5 1.5 0 0 0 1.5-1.5V14zm-8 10h8v6h-8zm8 14h-8v-6h8zm-18-6h8v6h-8zm-2 14H8v-6h8zm10 0h-8v-6h8zm10 0h-8v-6h8zm10 0h-8v-6h8zm0-8h-8v-6h8zm0-8h-8v-6h8zm-8-8v-6h8v6z" fill="#a0a1a2"/><path d="M48 14H36V8h10.5A1.5 1.5 0 0 1 48 9.5z" fill="#7a7a7a"/><g fill="#fff"><path d="M0 0h18v10H0z" opacity=".1"/><path d="M36 18V8h10zM26 28l6-6h-6zm-10 2v8l8-8zM6 38v10l10-10zm26-20H18v-8h14zm-14-8H0V0h18zm0 16H6v-8h12zm-8 8H2v-6h8z" opacity=".1"/></g></svg>