<svg xmlns="http://www.w3.org/2000/svg" width="70.4" height="93.901"><path d="M20.6 93.6v.3h.3z" fill="#7ac3e0"/><path d="M0 12.9v67.7c0 7 15.5 12.7 34.4 12.9V25.4C15.7 25.4.4 19.9 0 12.9z" fill="#39c"/><path d="M35.2 25.6h-.8v67.9h.8c19.7 0 35.2-5.7 35.2-12.9v-68c0 7.4-15.9 13-35.2 13z" fill="#59b4d9"/><path d="M0 12.8v.4C.6 20 15.9 25.6 34.5 25.6h.8c19.2 0 35.1-5.6 35.1-12.8 0-5.5-9.5-10.2-22.7-11.9-4-.6-8.1-.9-12.5-.9C15.9-.1 0 5.8 0 12.8zm63.2-.6c0 1.7-1.7 3.2-4.4 4.4-5.1 2.5-13.8 4-23.7 4-14.2 0-26.3-3.2-28-7.6v-1c0-4.7 12.5-8.5 28-8.5 15.2.2 28.1 4 28.1 8.7z" fill="#fff"/><path d="M63.2 12.2c0-4.7-12.9-8.5-28-8.5 15.1 0 28 4.1 28 8.5zm-27.8 1.7c-9.1 0-17.2 1.3-22.3 3.4-3.2-1.1-5.3-2.5-5.9-4.2 1.5 4.4 13.6 7.6 28 7.6 9.8 0 18.5-1.7 23.7-4-.6.2-1.1.4-1.7.8-5.5-2.3-13.3-3.6-21.8-3.6z" fill="#7fbb42"/><path d="M35.2 3.7c-15.5 0-28 3.8-28 8.5v1c.6 1.7 2.8 3 5.9 4.2 5.1-2.1 13.2-3.4 22.3-3.4 8.5 0 16.3 1.3 21.6 3.4.6-.2 1.1-.4 1.7-.8 2.6-1.1 4.4-2.6 4.4-4.4.1-4.4-12.8-8.5-27.9-8.5z" fill="#b8d433"/><path d="M2.4 49.9c.2.3.1.6 0 .9z" fill="#9a9b9c"/><path d="M55.4 56.5c0-.5-.2-.6-.6-.8L50 54.2c-.3-.1-.5-.2-.6-.5l-1-2.5c-.1-.3-.1-.6 0-.9l2.2-4.5c.2-.4.2-.7-.2-1L48 42.4c-.4-.5-.8-.5-1.3-.1l-.1.1-4.1 2.1c-.3.1-.5.2-.8 0-.8-.4-1.6-.7-2.4-1-.3-.1-.5-.3-.6-.7L37 38c-.1-.3-.3-.5-.6-.5h-3.9c-.4 0-.5.1-.7.5l-1.6 4.8c-.1.3-.2.5-.5.6l-2.5 1c-.3.1-.6.1-.9 0l-4.7-2.3c-.3-.1-.4-.1-.7.1L18.1 45c-.3.3-.3.5-.1.8l2.3 4.5c.2.3.2.6.1.9-.3.8-.7 1.5-1 2.3-.1.4-.3.6-.7.7l-4.8 1.7c-.4.1-.5.3-.5.6v3.9c0 .4.1.6.5.7l4.8 1.6c.3.1.5.2.6.6l1 2.4c.1.3.1.6 0 .9L18 71.4a.47.47 0 0 0 .1.6l2.9 2.9c.1.1.2.3.5.1l2.8-1.5c.7-.3 1.3-.7 2-1 .3-.1.5-.2.8 0 .8.4 1.7.7 2.5 1 .3.1.4.3.5.6l1.7 4.9c.1.3.3.5.6.5h3.9c.4 0 .5-.2.7-.5l1.6-4.8c.1-.3.2-.5.5-.6l2.5-1c.3-.1.6-.1.8 0l4.7 2.3c.3.1.4.1.7-.1l2.8-2.8c.3-.3.3-.4.1-.8l-2.3-4.6c-.2-.3-.2-.6 0-.9.4-.8.7-1.6 1-2.4a.9.9 0 0 1 .6-.6l4.8-1.7c.4-.1.5-.3.5-.7l.1-3.8z" stroke-miterlimit="10" fill="#7c7b7b" stroke="#fff" stroke-width="2"/><path d="M39.3 51.2c.8-.7.8-.7 1.4-.1 4 3.8 3.9 10.4-.2 14-2.9 2.6-7.6 2.9-11 .7-.2-.1-.4-.3-.6-.4-2-1.6-3.3-3.5-3.7-6-.6-3.2.4-6 2.7-8.3.3-.3.3-.4 0-.7s-.5-.6-.8-.9h4.6c.2 0 .3.1.3.3v4.5c-.5-.5-.9-.8-1.3-1.2-.2-.2-.3-.3-.6 0-3.1 2.6-2.9 7.7.4 10.1.3 0 .5.2.7.3 1 .7 2.2 1 3.3 1 2.4-.1 4.3-1 5.5-3.2 1.4-2.6 1-5.6-1.1-7.8-.2-.2-.6-.4-.7-.8-.1-.1-.1-.2 0-.4.4-.4.8-.7 1.1-1.1z" fill="#fff"/></svg>