<svg xmlns="http://www.w3.org/2000/svg" width="43.334" height="50"><path d="M39.7 12.364H1.11L0 47.105 36.667 50l6.667-5.136-.002-.001-1.1-32.5z" fill="#3999c6"/><path d="M39.7 44.345v-31.98h-3.032V50z" opacity=".3" fill="#fff"/><path d="M39.7 47.664l3.635-2.8-3.612-.562-.023.043L36.667 50z" opacity=".2" fill="#1e1e1e"/><path d="M30.037 34.21c0-1.552-1.246-2.8-2.785-2.8a2.52 2.52 0 0 0-.34.024c.17-.63.264-1.295.264-1.98 0-4.137-3.326-7.49-7.428-7.49-3.277 0-6.056 2.14-7.043 5.11a4.98 4.98 0 0 0-1.658-.286c-2.806 0-5.077 2.293-5.077 5.12s2.27 5.123 5.077 5.123h16.43l-.003-.014c1.433-.113 2.562-1.32 2.562-2.797" fill="#fff"/><path d="M20.406 6.76c0-2.45 2.144-4.446 4.78-4.446s4.777 1.995 4.777 4.446v5.604h2.296V6.76c0-3.728-3.173-6.76-7.073-6.76s-7.073 3.032-7.073 6.76v5.604h2.294V6.76z" fill="#a0a1a2"/><path d="M13.37 6.76c0-2.45 2.144-4.446 4.78-4.446s4.78 1.995 4.78 4.446v5.604h2.294V6.76c0-3.728-3.173-6.76-7.073-6.76s-7.073 3.032-7.073 6.76v5.604h2.294V6.76z" fill="#7a7a7a"/></svg>