<svg xmlns="http://www.w3.org/2000/svg" xmlns:xlink="http://www.w3.org/1999/xlink" width="50" height="50"><path fill="#3e3e3e" d="M21.364 47.462A2.54 2.54 0 0 1 18.826 50H2.538A2.54 2.54 0 0 1 0 47.462V18.538A2.54 2.54 0 0 1 2.538 16h16.288a2.54 2.54 0 0 1 2.538 2.538v28.924z"/><use xlink:href="#B" fill="#1e1e1e"/><circle fill="#b8d432" cx="6.643" cy="33.545" r="2.142"/><use xlink:href="#B" y="-9.48" fill="#1e1e1e"/><circle fill="#b8d432" cx="6.643" cy="24.065" r="2.142"/><path fill="#3e3e3e" d="M50 47.462A2.54 2.54 0 0 1 47.462 50H31.174a2.54 2.54 0 0 1-2.538-2.538V18.538A2.54 2.54 0 0 1 31.174 16h16.288A2.54 2.54 0 0 1 50 18.538v28.924z"/><use xlink:href="#C" fill="#1e1e1e"/><circle fill="#b8d432" cx="35.279" cy="33.545" r="2.142"/><use xlink:href="#C" y="-9.48" fill="#1e1e1e"/><circle fill="#b8d432" cx="35.279" cy="24.065" r="2.142"/><g fill="#59b4d9"><path d="M20.627 10.034l-5.84 5.84-5.84-5.84zm20.125 0l-5.84 5.84-5.84-5.84z"/><path d="M13.382 11.426C13.382 5.125 18.51 0 24.8 0s11.554 4.784 11.554 11.084a1.56 1.56 0 1 1-3.126 0c0-4.578-3.852-7.96-8.43-7.96s-8.302 3.723-8.302 8.3h-3.125z"/></g><defs ><path id="B" d="M3.316 33.545a3.19 3.19 0 0 1 3.191-3.191h8.614a3.19 3.19 0 1 1 0 6.382H6.507a3.19 3.19 0 0 1-3.191-3.191z"/><path id="C" d="M31.952 33.545a3.19 3.19 0 0 1 3.191-3.191h8.614a3.19 3.19 0 1 1 0 6.382h-8.614a3.19 3.19 0 0 1-3.191-3.191z"/></defs></svg>