<svg xmlns="http://www.w3.org/2000/svg" height="42.6" width="50"><path d="M0 40.7c0 1 .8 1.9 1.8 1.9h46.3c1 0 1.9-.8 1.9-1.9V7.6H0z" fill="#a0a1a2"/><path d="M48.1 0H1.8C.8 0 0 .8 0 1.9v5.7h50V1.9C50 .8 49.2 0 48.1 0" fill="#7a7a7a"/><path d="M38 17.2v-2.4H22.8l-3.6-3.6H9.7v26.3c0 .8.6 1.4 1.4 1.4h27.2c.8 0 1.4-.6 1.4-1.4V17.2z" opacity=".8" fill="#fff"/><path d="M12.5 17.2v20.3c0 .8-.6 1.4-1.4 1.4s-1.4-.6-1.4-1.4V11.2h9.6l3.6 3.6H38v2.4z" fill="#0072c6"/><path d="M2 0C.9 0 0 .9 0 2v38.6c0 1.1.9 2 2 2h2.2L43.6 0z" opacity=".2" fill="#fff"/></svg>