<svg xmlns="http://www.w3.org/2000/svg" width="50" height="38.8"><path d="M43.3 26.3l1.2-3.1 5.5-1.9v-4.4l-.6-.2-4.9-1.4-1.2-3.1 2.5-5.1L42.7 4l-.6.3-4.5 2.3-3.2-1.3-2-5.3h-4.5l-.2.6-1.5 4.7-3.1 1.2-5.3-2.3-3.2 3.1.3.6 1.4 2.6c2.5-1.4 5.1-2 7.9-2 3.9.2 7.5 1.6 10.3 4.2.6.5 1.2.9 1.9 1.6.3.3.6.8.8 1.1 1.9 3.3 1.1 7.5-2 10-2.3 1.9-5.5 2.2-7.9 1.1-.3-.2-.5-.2-.6-.3-.6-.3-1.2-.8-1.7-1.2-.2 0-.3-.2-.6-.2-.6 0-1.2.3-1.7.8l-.2.2c-1.9 1.9-4 3.3-6.4 4l-.9 1.9 3.2 3.2.6-.3 4.5-2.3 3.1 1.2 1.7 5.3h4.5l.2-.6 1.6-4.7 3.1-1.2 5.3 2.3 3-3.3-.3-.6-2.4-4.4z" fill="#7a7a7a"/><path d="M16.5 18.5c-3.4 3.6-8.9 3.6-12.1-.2-.3-.5-1.1-.5-1.4 0-.2.2-.3.5-.3.8s.2.6.3.8c4 4.5 10.7 4.6 15 .2 3.4-3.4 8.7-3.5 12 .3.5.5 1.1.5 1.4 0 .2-.2.3-.5.3-.8s-.2-.6-.3-.8c-4-4.5-10.7-4.6-14.9-.3z" fill="#48c8ef"/><path d="M24 20.4c-1.9 0-3.4.6-4.8 2l-.4.4c-2.3 2.5-5.5 3.7-8.7 3.6-3.3 0-6.2-1.6-8.6-4-.5-.5-1.1-.5-1.4 0-.1 0-.1.2-.1.5s.3.8.5.9c2.6 3 6.2 4.7 10 4.7 3.7.2 7.3-1.4 10.1-4.4l.4-.4c.9-.9 2-1.4 3.3-1.4 1.2 0 2.3.6 3.3 1.6.5.5 1.1.5 1.4 0 .2-.2.3-.5.3-.8s-.2-.6-.3-.8c-1.4-1.1-3.1-1.9-5-1.9z" fill="#00abec"/><path d="M15.6 16.3c2.3-2.5 5.5-3.7 8.7-3.7s6.2 1.6 8.4 4c.5.5 1.1.5 1.4 0 .2-.2.3-.5.3-.8s-.2-.6-.3-.8c-2.6-3-6.2-4.7-10-4.7s-7.3 1.4-10.1 4.4l-.4.4c-.9.9-2 1.4-3.3 1.4S8 15.9 7 14.9c-.5-.5-1.1-.5-1.4 0-.2.2-.3.5-.3.8s.2.6.3.8c1.2 1.4 3 2.2 4.7 2.2 1.9 0 3.4-.6 4.8-2l.2-.2.3-.2z" fill="#84d6ef"/><path d="M24.9 24.9c-.2 0-.3-.2-.6-.2-.6 0-1.2.3-1.7.8l-.2.2c-1.9 1.9-4 3.3-6.4 4l-.9 1.9 1.6 1.6 8.2-8.3zm-8.5-14.3c2.5-1.4 5.1-2 7.9-2 3.9.2 7.5 1.6 10.3 4.2l1.4 1.1 8.3-8.3-1.7-1.7-.6.3-4.5 2.3-3.1-1.2-2-5.3h-4.5l-.2.6-1.5 4.7-3.1 1.2-5.3-2.3-3.2 3.1.3.6 1.5 2.7z" opacity=".2" fill="#f1f1f1"/></svg>