<svg xmlns="http://www.w3.org/2000/svg" width="50.077" height="28.714"><path d="M49.74 15.075c.5-.5.4-1.3 0-1.8l-2.4-2.4-10.8-10.5c-.5-.5-1.2-.5-1.7 0s-.6 1.3 0 1.8l11.3 11.1c.5.5.5 1.3 0 1.8l-11.5 11.5c-.5.5-.5 1.3 0 1.8s1.3.4 1.7 0l10.8-10.7zm-49.4 0c-.5-.5-.4-1.3 0-1.8l2.4-2.4 10.8-10.5c.5-.5 1.2-.5 1.7 0s.6 1.3 0 1.8l-11.1 11.1c-.5.5-.5 1.3 0 1.8l11.3 11.5c.5.5.5 1.3 0 1.8s-1.3.4-1.7 0l-11-10.6z" fill="#3999c6"/><path d="M28.44 14.175c0 1.9-1.6 3.3-3.3 3.3s-3.5-1.6-3.5-3.3 1.4-3.3 3.5-3.3c2 0 3.3 1.6 3.3 3.3z" fill="#7fba00"/></svg>