<svg xmlns="http://www.w3.org/2000/svg" width="32.38" height="50"><path d="M25.256 14.928a9.07 9.07 0 0 1-9.066 9.065 9.07 9.07 0 0 1-9.065-9.065 9.07 9.07 0 0 1 9.065-9.065 9.07 9.07 0 0 1 9.066 9.065M9.562 27.1H.001V50h32.38V27.1H22.82l-6.62 9.287z" fill="#59b4d9"/><path d="M7.126 14.928a9.06 9.06 0 0 0 8.843 9.054l2.277-17.875a9.03 9.03 0 0 0-2.055-.243c-5.008-.001-9.065 4.058-9.065 9.064M0 50h12.696l2.002-15.703L9.564 27.1H0z" opacity=".2" fill="#fff"/><path d="M30.966 24.14h-6.88V20.8h3.552v-5.827A11.67 11.67 0 0 0 15.983 3.329 11.67 11.67 0 0 0 4.329 14.983v1.665H1v-1.665C1 6.722 7.72 0 15.982 0s14.983 6.722 14.983 14.983v9.157z" fill="#3e3e3e"/><path d="M15.982 0C7.72 0 1 6.722 1 14.983v1.665h3.33v-1.665A11.67 11.67 0 0 1 15.983 3.329c.964 0 1.896.13 2.793.352l.416-3.327C18.156.128 17.085 0 15.982 0z" opacity=".2" fill="#fff"/></svg>