<svg xmlns="http://www.w3.org/2000/svg" xmlns:xlink="http://www.w3.org/1999/xlink" width="27" height="24.9"><style><![CDATA[.F{opacity:.2}.G{enable-background:new}]]></style><path d="M8.2 2.8c-2.4 0-4.3 1.9-4.3 4.3s1.9 4.3 4.3 4.3a4.26 4.26 0 0 0 3.256-1.5H11V8c0-1.25.2-2.446.564-3.53C10.764 3.457 9.54 2.8 8.2 2.8zM0 12.9v11h16v-11h-4.7l-3.1 4.4L5 12.9z" fill="#7a4d86"/><g fill="#fff" class="G"><use xlink:href="#B" class="F"/><path d="M5 12.9H0v11h6.5l.9-7.5z" class="F"/></g><path d="M8 .001c-3.9 0-7 3.2-7 7.1v1.8h2V7.1c0-3 2-5.5 5-5.5 1.677 0 3.023.797 3.9 2a8.82 8.82 0 0 1 .939-1.637C11.587.755 9.9.001 8 .001zm6.074 3.578C13.373 4.776 13 6.325 13 8V9.9h-1v2h3V7.1c0-1.28-.34-2.48-.926-3.52z" fill="#666"/><g fill="#fff"><path d="M8.1 0A7.13 7.13 0 0 0 1 7.1v1.8h2V7.1c0-3 2.2-5.5 5.3-5.5.5 0 .8.1 1.2.2L9.6.2C9.2.1 8.6 0 8.1 0z" class="F G"/><path d="M20.5 10.5c0 4.2-1.9 7.7-4.3 7.7s-4.3-3.4-4.3-7.7 1.9-7.7 4.3-7.7c2.3 0 4.3 3.4 4.3 7.7"/><path d="M10 12.9v11h16v-11h-4.7l-3.1 4.4-3.2-4.4z"/><use xlink:href="#B" x="10" y="-1" class="F G"/><path d="M15 12.9h-5v12h6.5l.9-8.2z" class="F G"/><path d="M11 9.8h1.7v.9H11z"/></g><path d="M23.5 7.1c0 2.4-1.9 4.3-4.3 4.3s-4.3-1.9-4.3-4.3 1.9-4.3 4.3-4.3c2.3 0 4.3 1.9 4.3 4.3M11 12.9v11h16v-11h-4.7l-3.1 4.4-3.2-4.4z" fill="#59b3d8"/><g fill="#fff" class="G"><use xlink:href="#B" x="11" class="F"/><path d="M16 12.9h-5v11h6.5l.9-7.5z" class="F"/></g><path d="M26 11.9h-3v-2h1V7.1c0-3-2-5.5-5-5.5s-5 2.5-5 5.5v1.8h-2V7.1C12 3.2 15.1 0 19 0s7 3.2 7 7.1z" fill="#3e3e3e"/><path d="M19.1 0A7.13 7.13 0 0 0 12 7.1v1.8h2V7.1c0-3 2.2-5.5 5.3-5.5.5 0 .8.1 1.2.2l.1-1.6c-.4-.1-1-.2-1.5-.2z" fill="#fff" class="F G"/><defs ><path id="B" d="M3.9 7.1c0 2.3 1.9 4.2 4.2 4.3l1-8.5c-.3-.1-.6-.1-1-.1-2.3 0-4.2 1.9-4.2 4.3"/></defs></svg>