<svg xmlns="http://www.w3.org/2000/svg" width="49" height="47"><path d="M43 0H6a6 6 0 0 0-6 6v35a6 6 0 0 0 6 6h37a6 6 0 0 0 6-6V6a6 6 0 0 0-6-6z" fill="#3e3e3e"/><path d="M34 4h11v11H34zM19 4h11v11H19zM4 4h11v11H4zm30 14h11v11H34z" opacity=".9" fill="#fff"/><path d="M19 18h11v11H19z" fill="#fcd116"/><path d="M4 18h11v11H4z" opacity=".9" fill="#fff"/><path d="M34 32h11v11H34z" fill="#fcd116"/><path d="M34 32h11v2H34z" opacity=".3" fill="#fff"/><path d="M19 32h11v11H19zM4 32h11v11H4z" fill="#fcd116"/><g fill="#fff"><path d="M19 32h11v2H19zM4 32h11v2H4z" opacity=".3"/><path d="M4 18h11v2H4z" opacity=".6"/><path d="M19 18h11v2H19z" opacity=".3"/><path d="M34 18h11v2H34zm0-14h11v2H34zM19 4h11v2H19zM4 4h11v2H4z" opacity=".6"/><path d="M6 47h2.88L41.994 0H6a6 6 0 0 0-6 6v35a6 6 0 0 0 6 6z" opacity=".15"/></g></svg>