<svg xmlns="http://www.w3.org/2000/svg" height="49.4" width="50"><path d="M42.3 0L28.6.5 0 29.1l20.3 20.3 28.6-28.6L50 7.7zm1.1 10.6a2.84 2.84 0 0 1-4 0 2.84 2.84 0 0 1 0-4 2.84 2.84 0 0 1 4 0 2.84 2.84 0 0 1 0 4z" fill="#804998"/><path d="M24.9 44.9V4.2L0 29.1l20.3 20.3z" opacity=".1" fill="#fff"/><path d="M45.1 4.9c-2-2-5.3-2-7.3 0s-2 5.3 0 7.3 5.3 2 7.3 0 2-5.3 0-7.3zm-1.7 5.7a2.84 2.84 0 0 1-4 0 2.84 2.84 0 0 1 0-4 2.84 2.84 0 0 1 4 0 2.84 2.84 0 0 1 0 4z" opacity=".3" fill="#1e1e1e"/></svg>