<svg xmlns="http://www.w3.org/2000/svg" xmlns:xlink="http://www.w3.org/1999/xlink" width="50" height="38.191"><g fill="#59b4d9"><path d="M47.794 3.404H13.92c-1.218 0-2.206.988-2.206 2.206s.988 2.206 2.206 2.206h33.875C49.012 7.816 50 6.828 50 5.6s-.988-2.206-2.206-2.206z"/><use xlink:href="#B"/><use xlink:href="#B" y="13.177"/><path d="M2.153 10.02V2.966a4.29 4.29 0 0 1-.991.427A6.77 6.77 0 0 1 0 3.609V1.422A7.67 7.67 0 0 0 1.719.926C2.25.7 2.794.392 3.35 0h1.716v10.02zm-2.085 14v-.786c0-.556.068-1.04.205-1.45s.352-.795.646-1.155.805-.822 1.534-1.388l1.036-.885c.17-.18.298-.354.383-.523a1.21 1.21 0 0 0 .126-.547c0-.652-.392-.978-1.176-.978-.798 0-1.552.3-2.263.868V14.8c.542-.273 1.05-.462 1.52-.567s.955-.157 1.452-.157c1.066 0 1.892.253 2.475.76s.875 1.22.875 2.14c0 .707-.152 1.306-.458 1.797S5.55 19.768 4.72 20.3l-1.26.898c-.208.2-.313.35-.318.482H6.97v2.338H.068zm6.768 11.198c0 .943-.342 1.675-1.025 2.194s-1.66.78-2.933.78c-.474 0-.943-.04-1.408-.12s-.863-.186-1.196-.317V35.47c.306.183.654.326 1.046.43a4.62 4.62 0 0 0 1.19.157c.465 0 .82-.083 1.07-.25s.373-.405.373-.715-.152-.56-.458-.738-.73-.267-1.278-.267H1.27V31.94h.834c.552 0 .958-.085 1.22-.257s.393-.393.393-.666a.73.73 0 0 0-.297-.615c-.2-.15-.503-.226-.913-.226-.634 0-1.267.183-1.9.547v-2.18a6.48 6.48 0 0 1 2.502-.492c1.085 0 1.935.22 2.55.663s.923 1.055.923 1.84c0 .6-.165 1.123-.495 1.538s-.795.686-1.392.813v.034c.66.1 1.183.343 1.565.755s.574.92.574 1.522z"/></g><defs ><path id="B" d="M47.794 16.58H13.92c-1.218 0-2.206.988-2.206 2.206s.988 2.206 2.206 2.206h33.875c1.218 0 2.206-.988 2.206-2.206s-.988-2.206-2.206-2.206z"/></defs></svg>