<svg xmlns="http://www.w3.org/2000/svg" xmlns:xlink="http://www.w3.org/1999/xlink" height="38.3" width="49.5"><g fill="#59b4d9"><use xlink:href="#B"/><use xlink:href="#B" y="13.1"/><use xlink:href="#B" y="26.3"/></g><path d="M4.3.1v10H2.1V2.5c-.2.2-.5.4-.9.5s-.8.3-1.2.3V1.5C1.1 1.2 2.1.7 2.9 0h1.4zM2.4 22.3h4.2v1.8H.1v-.7c0-.5.1-1 .3-1.4s.4-.8.8-1.2c.3-.4.8-.8 1.5-1.3.6-.5 1.1-.9 1.3-1.2.3-.3.4-.7.4-1.1 0-.8-.5-1.3-1.4-1.3-.8 0-1.6.3-2.4 1v-2c.9-.6 1.8-.8 2.9-.8 1 0 1.8.2 2.3.7.6.5.9 1.2.9 2 0 .5-.1.9-.3 1.3s-.4.8-.7 1.1-.8.8-1.5 1.2c-.7.5-1.1.8-1.3 1.1-.4.4-.5.6-.5.8zm4.4 13c0 .9-.3 1.6-1 2.2-.7.5-1.6.8-2.8.8-1 0-1.8-.2-2.5-.5v-1.9c.6.5 1.4.7 2.3.7.6 0 1-.1 1.3-.4.3-.2.4-.6.4-1a1.1 1.1 0 0 0-.6-1c-.4-.2-.8-.3-1.5-.3h-.9v-1.7h.8c1.3 0 1.9-.4 1.9-1.3 0-.8-.5-1.2-1.5-1.2-.7 0-1.3.2-1.9.6v-1.8c.7-.3 1.5-.5 2.4-.5 1 0 1.7.2 2.3.7s.9 1 .9 1.8c.1 1.3-.6 2.1-1.9 2.4.7.1 1.2.3 1.6.7.4.5.7 1.1.7 1.7z"/><defs ><path id="B" d="M47.3 3.5H13.4a2.22 2.22 0 0 0-2.2 2.2 2.22 2.22 0 0 0 2.2 2.2h33.9a2.22 2.22 0 0 0 2.2-2.2 2.22 2.22 0 0 0-2.2-2.2z"/></defs></svg>