<svg xmlns="http://www.w3.org/2000/svg" width="50" height="50"><circle fill="#0072c6" cx="25" cy="25" r="25"/><g fill="#fff"><path opacity=".2" d="M7.322 42.678c-9.762-9.763-9.762-25.594 0-35.356s25.594-9.762 35.356 0L7.322 42.678z"/><path d="M34.078 14.665L19.484 37.07h-3.812l14.562-22.405zm-13.086 1.17c-.933-1-2.227-1.484-3.883-1.484-1.73 0-3.112.547-4.148 1.64s-1.555 2.573-1.555 4.437c0 1.708.487 3.068 1.46 4.078s2.258 1.515 3.852 1.515c1.72 0 3.094-.54 4.125-1.625s1.547-2.547 1.547-4.4c0-1.8-.467-3.18-1.4-4.17zm-4.086 7.438c-1.448 0-2.172-1-2.172-3 0-2.114.76-3.172 2.28-3.172 1.406 0 2.1 1.016 2.1 3.047.001 2.083-.74 3.125-2.218 3.125zm20.047 3.906c-.928-.98-2.225-1.47-3.9-1.47-1.73 0-3.112.547-4.148 1.64s-1.555 2.575-1.555 4.45c0 1.7.486 3.068 1.46 4.078s2.258 1.516 3.852 1.516c1.72 0 3.094-.547 4.125-1.64s1.547-2.563 1.547-4.406c0-1.792-.464-3.178-1.4-4.157zm-4.094 7.453c-1.47 0-2.203-1-2.203-3 0-2.114.755-3.172 2.266-3.172.646 0 1.166.266 1.563.797s.594 1.28.594 2.25c-.001 2.084-.74 3.125-2.22 3.125z"/></g></svg>