<svg xmlns="http://www.w3.org/2000/svg" width="50" height="50"><path d="M44.977 10.5a10.21 10.21 0 0 1-20.419 0A10.21 10.21 0 0 1 34.767.291 10.21 10.21 0 0 1 44.977 10.5m-2.745 13.7l-7.465 10.46-7.465-10.46h-7.768V50H50V24.2zm-27.938 3.426c0 3.168-2.568 5.734-5.736 5.734s-5.736-2.566-5.736-5.734S5.4 21.9 8.558 21.9s5.736 2.567 5.736 5.735m-1.544 7.877l-4.193 5.876-4.194-5.876H0V50h17.115V35.512z" fill="#804998"/><path opacity=".2" d="M24.558 10.5c0 5.554 4.437 10.063 9.96 10.197L37.08.565C36.337.4 35.565.3 34.767.3A10.21 10.21 0 0 0 24.558 10.5m2.746 13.7h-7.77V50h11.3l2.254-17.686zm-24.48 3.426c0 3.167 2.567 5.734 5.735 5.734.2 0 .387-.038.582-.057l1.407-11.038a5.71 5.71 0 0 0-1.99-.374c-3.168 0-5.735 2.568-5.735 5.735m1.543 7.876H.001V50h7.062l1.158-9.084z" fill="#fff"/></svg>