<svg xmlns="http://www.w3.org/2000/svg" width="44" height="50"><path d="M35.2 0H0v50h44V8.8L37.2 2z" fill="#59b4d9"/><path d="M2 48h40V9h-7V2H2z" opacity=".8" fill="#fff"/><path d="M10.243 26.675c0 1.08-.267 1.92-.8 2.52s-1.246.9-2.135.9c-.416 0-.756-.05-1.023-.146v-1.424c.242.165.553.248.935.248 1.008 0 1.512-.78 1.512-2.34v-5.605h1.512v5.847zM12 29.58v-1.557a2.42 2.42 0 0 0 .499.343c.193.102.397.188.613.258a4.95 4.95 0 0 0 .648.162c.216.038.415.057.597.057.636 0 1.1-.105 1.42-.317s.467-.52.467-.922c0-.216-.052-.403-.155-.563a1.61 1.61 0 0 0-.436-.435c-.186-.13-.406-.258-.658-.38l-.8-.377-.864-.503c-.267-.17-.5-.356-.696-.562a2.36 2.36 0 0 1-.464-.696 2.28 2.28 0 0 1-.168-.91c0-.428.096-.8.3-1.115a2.43 2.43 0 0 1 .763-.781c.315-.206.674-.358 1.077-.458a5.09 5.09 0 0 1 1.232-.15c.954 0 1.648.108 2.084.324v1.494c-.517-.373-1.182-.56-1.995-.56a3.51 3.51 0 0 0-.67.063c-.222.043-.422.112-.598.2s-.32.223-.43.375a.92.92 0 0 0-.166.553c0 .204.042.38.127.528s.208.284.372.406a3.95 3.95 0 0 0 .597.36l.817.378.9.52c.282.182.53.383.744.604a2.67 2.67 0 0 1 .508.733 2.16 2.16 0 0 1 .188.919c0 .462-.093.852-.28 1.17a2.26 2.26 0 0 1-.753.775 3.33 3.33 0 0 1-1.1.433 6.14 6.14 0 0 1-1.303.133 5.67 5.67 0 0 1-.563-.035l-.683-.102a6.33 6.33 0 0 1-.661-.162c-.208-.063-.372-.134-.5-.215zm11.262.514c-1.314 0-2.366-.426-3.156-1.277s-1.185-1.96-1.185-3.323c0-1.466.402-2.635 1.208-3.508s1.897-1.3 3.278-1.3c1.28 0 2.3.423 3.092 1.27s1.174 1.955 1.174 3.323c0 1.487-.4 2.663-1.2 3.527s-1.872 1.296-3.2 1.296zm.068-8.1c-.834 0-1.513.3-2.036.934s-.785 1.442-.785 2.46c0 1.012.254 1.827.763 2.446s1.173.928 1.996.928c.873 0 1.56-.295 2.064-.884s.756-1.413.756-2.472c0-1.1-.244-1.93-.732-2.523s-1.164-.9-2.026-.9zm13.74 7.946H35.4l-4.354-6.698a2.97 2.97 0 0 1-.273-.528h-.038c.034.195.05.612.05 1.252v5.974h-1.46v-9.113h1.76l4.207 6.54.344.56h.025c-.043-.24-.063-.65-.063-1.227v-5.872h1.455v9.113z" fill="#59b4d9"/></svg>