<svg xmlns="http://www.w3.org/2000/svg" width="50" height="50" viewBox="0.5 0.5 50 50"><path d="M26.84 12.777H37.9v3.57H26.84zm-14.063 13.99h3.57V38h-3.57zm11.73-4.788l9.14 9.14-2.525 2.525-9.14-9.14z" fill="#68217a"/><g fill="#804998"><path d="M14.562 28.625C6.808 28.625.5 22.317.5 14.563S6.808.5 14.562.5s14.062 6.308 14.062 14.062-6.308 14.063-14.062 14.063zm0-24.553c-5.784 0-10.49 4.706-10.49 10.49s4.707 10.49 10.49 10.49 10.49-4.706 10.49-10.49-4.706-10.49-10.49-10.49z"/><circle cx="43.357" cy="14.563" r="7.143"/><circle cx="14.563" cy="43.357" r="7.143"/><circle cx="34.987" cy="34.987" r="7.143"/></g></svg>