<svg xmlns="http://www.w3.org/2000/svg" width="63" height="64" fill="#00b294"><path d="M62.5 24.3C59 10 46.2 0 31.5 0 16.6 0 3.5 10.6.3 25.1L0 26.4h6.4l.2-.8C9.5 14.2 19.8 6.2 31.5 6.2c11.3 0 21.5 7.7 24.7 18.6l.2.7h6.4zM55.9 40l-.2.7C52 50.9 42.3 57.8 31.5 57.8c-10.6 0-20-6.4-23.9-16.3l-.3-.7H.8l.5 1.4C5.6 55.2 17.8 64 31.5 64c14.1 0 26.4-9.1 30.6-22.7l.4-1.3zm-21.3 9l-7-20.2-4 7.4H2.8a2.65 2.65 0 0 1-2.6-2.6A2.65 2.65 0 0 1 2.8 31h17.7l8.2-15L36 37.2l4.5-7h19.9a2.65 2.65 0 0 1 2.6 2.6 2.65 2.65 0 0 1-2.6 2.6H43.3z"/></svg>