<svg xmlns="http://www.w3.org/2000/svg" width="45" height="40.6"><path d="M0 40.6V12.8c0-1.6 1.3-2.9 2.9-2.9H42c1.6 0 2.9 1.3 2.9 2.9v27.8z" fill="#ba141a"/><path d="M42.3 26.6c-2.9 0-5.2 2.3-5.2 5.2s2.3 5.2 5.2 5.2c1 0 1.9-.3 2.7-.8v-8.8c-.8-.5-1.7-.8-2.7-.8z" fill="#804998"/><path d="M35.1 9.9h-3.4V5a1.58 1.58 0 0 0-1.6-1.6H14.9A1.58 1.58 0 0 0 13.3 5v4.9H9.9V5a4.95 4.95 0 0 1 5-5h15.2a4.95 4.95 0 0 1 5 5z" fill="#0f0f0f"/><path d="M0 33.3l15.6 3.8 1.5-6.3L0 26.7z" opacity=".6" fill="#fee087"/><path d="M14.8 14.3c.3 1.7-2.4 3.4-6 4s-6.7-.3-7-2 2.4-3.4 6-4c3.7-.5 6.8.4 7 2" opacity=".8" fill="#ff8c00"/><path d="M42.3 28.3c-2 0-3.5 1.6-3.5 3.5s1.6 3.5 3.5 3.5c1.1 0 2.1-.5 2.7-1.3v-4.4c-.6-.8-1.6-1.3-2.7-1.3z" opacity=".2" fill="#fff"/><g fill="#1e1e1e"><path d="M0 22.1h45v2.1H0z" opacity=".3"/><path d="M26.2 21c.7 0 1.3.6 1.3 1.3v4c0 .7-.6 1.3-1.3 1.3h-7.4c-.7 0-1.3-.6-1.3-1.3v-4c0-.7.6-1.3 1.3-1.3z" opacity=".3"/></g><path d="M0 21h45v2.1H0z" fill="#e5e5e5"/></svg>