<svg xmlns="http://www.w3.org/2000/svg" width="46.8" height="50.036" fill="#59b4d9"><path d="M39.6 11.236l.5.5 2.5-2.1 4.2-6.9-1.1-1.1-6.6 4.4-2 2.6.5.5-13.1 13.5-2.7-2.8-3 3.1c.2 1.5-.3 3.1-1.4 4.3s-2.7 1.7-4.1 1.5L0 42.336l7.4 7.7 13.2-13.7c-.2-1.5.3-3.1 1.5-4.3 1.1-1.2 2.7-1.7 4.1-1.5l3-3.1-2.7-2.8zm-1.2 34.8c1.9 2 5 2 6.9 0 1-1 1.4-2.3 1.4-3.6s-.5-2.6-1.4-3.6l-14.8-15.2-1.4 1.5 2.7 2.8-1.2 1.1-3 3.1-.4.4-.6-.1c-.4 0-.9 0-1.3.1zm-19.7-42.9c-2.7-2.8-6.6-3.7-10-2.8l5.9 6-1.5 5.9-5.8 1.6-5.8-6c-.9 3.6 0 7.5 2.7 10.3s6.6 3.7 10.1 2.7l.2.2 2.7 2.8c.1-.3.1-.6.1-.9v-.5l-.2-.4 4.5-4.7.8.9 1.8 1.9 1.4-1.5-4.3-4.6c1.1-3.7.3-7.9-2.6-10.9z"/></svg>