<svg xmlns="http://www.w3.org/2000/svg" width="50" height="50"><path d="M35.368 0H14.662L0 15.03v20.397L14.632 50h20.736L50 35.5V14.588z" fill="#804998"/><g fill="#fff"><path d="M34.538 2h-19.05L2 15.827v18.765L15.462 48H34.54L48 34.66V15.42zm-1.135 43.24h-.152L21.97 33.794l2.382-2.662h-8.177v8.382l2.677-2.882 8.868 8.608h-11.12L4.76 33.446V16.95l3.322-3.406 8.83 7.955-5.03 5.22h16.06V10.765L22.69 16l-8.885-8.323 2.846-2.917h16.745L45.24 16.567v14.745l-5.622-5.298 4.118-3.706H32.353v10.75l3.72-3.69 6.368 6.915z" opacity=".8"/><path d="M14.662 0L0 15.03v20.398L7.503 42.9 42.896 7.506 35.368 0z" opacity=".2"/></g><circle cx="8" cy="42" r="8" fill="#7fba00"/><path d="M3.99 42.47l-.29-.313c-.075-.083-.075-.214.012-.293l.835-.772c.04-.036.087-.055.14-.055.06 0 .11.024.15.067l2.296 2.462 3.95-5.06c.04-.05.1-.08.162-.08.048 0 .09.016.127.044l.903.697c.044.032.07.08.08.135s-.008.11-.044.15L7.235 45.95z" fill="#fff"/></svg>