<svg xmlns="http://www.w3.org/2000/svg" width="50" height="50"><path fill="#804998" d="M50 35.5V14.588L35.368 0H14.662L0 15.03v20.397L14.632 50h20.736z"/><g fill="#fff"><path opacity=".8" d="M34.538 2h-19.05L2 15.827v18.765L15.462 48H34.54L48 34.66V15.42L34.538 2zm-1.135 43.24h-.152L21.97 33.794l2.382-2.662h-8.177v8.382l2.677-2.882 8.868 8.608h-11.12L4.76 33.446V16.95l3.322-3.406 8.83 7.955-5.03 5.22h16.06V10.765L22.69 16l-8.885-8.323 2.846-2.917h16.745L45.24 16.567v14.745l-5.622-5.298 4.118-3.706H32.353v10.75l3.72-3.69 6.368 6.915-9.038 8.958z"/><path opacity=".2" d="M42.896 7.506L35.368 0H14.662L0 15.03v20.398L7.503 42.9z"/></g><circle fill="#7a7a7a" cx="8" cy="42" r="8"/><path fill="#fff" d="M3 41h10v2H3z"/></svg>