<svg xmlns="http://www.w3.org/2000/svg" width="26.8" height="26.6"><path d="M24.1 5.5c0 3-2.4 5.5-5.5 5.5-3 0-5.5-2.4-5.5-5.5 0-3 2.4-5.5 5.5-5.5 3 0 5.5 2.4 5.5 5.5m-1.5 7.3l-4 5.6-4-5.6h-4.1v13.8h16.3V12.8zM7.7 14.6a3.12 3.12 0 0 1-3.1 3.1 3.12 3.12 0 0 1-3.1-3.1 3.12 3.12 0 0 1 3.1-3.1 3.12 3.12 0 0 1 3.1 3.1m-.9 4.3L4.6 22l-2.3-3.1H0v7.7h9.2v-7.7z" fill="#59b4d9"/><path d="M13.1 5.5c0 3 2.4 5.4 5.3 5.5L19.8.2c-.4-.1-.8-.1-1.2-.1-3-.1-5.5 2.3-5.5 5.4m1.5 7.3h-4.1v13.8h6l1.2-9.5zM1.5 14.6a3.12 3.12 0 0 0 3.1 3.1h.3l.8-5.9c-.3-.1-.7-.2-1.1-.2-1.7 0-3.1 1.3-3.1 3" opacity=".2" fill="#fff"/></svg>