<svg xmlns="http://www.w3.org/2000/svg" width="50" height="49.169"><path d="M23.614 18.375c-.145-.012-.248-.063-.404-.063-8.292 0-11.16 3.297-11.16 3.297 8.13 4.94 11.16 15.41 11.16 15.41l.404-.976.41.976s3.03-10.47 11.16-15.41c0 0-2.87-3.297-11.16-3.297-.155 0-.26.05-.41.063" fill="#e5e5e5"/><path d="M47.11 41.046l.18-.135s-1.514-2.41-4.88-5.014c-1.953-1.5-4.522-3.086-7.79-4.293v-.06c-3.277-1.128-7.008-1.774-10.98-1.774s-7.7.646-10.976 1.774v.06C9.4 32.81 6.83 34.387 4.877 35.897 1.513 38.5 0 40.91 0 40.91l.2.15a24.54 24.54 0 0 0 .649.461c2.58 1.764 10.93 7.646 22.792 7.646s20.217-5.882 22.795-7.646a24.05 24.05 0 0 0 .674-.477" fill="#3999c6"/><path d="M38.025 35.012c0 2.04-6.473 3.696-14.455 3.696S9.115 37.052 9.115 35.012c0-2.047 6.47-3.705 14.455-3.705s14.455 1.658 14.455 3.705" opacity=".5" fill="#1e1e1e"/><path d="M23.52 31.307h-.03c-8 .233-14.327 1.777-14.536 3.58l-.022-1.444c-.025-1.85 6.404-3.448 14.558-3.682h.03c8.15.234 14.58 1.83 14.556 3.682l-.022 1.444c-.2-1.803-6.538-3.347-14.534-3.58" fill="#7a7a7a"/><path d="M20.716 34.06c-.302-.062-7.35-1.457-8.896-7.44-.066-.257.04-.53.274-.65.224-.145.514-.116.7.065.04.035 3.668 3.508 6.656 3.548a.59.59 0 0 1 .55.358l1.367 3.315c.088.2.05.42-.084.6a.59.59 0 0 1-.567.205m12.676-8.43c-.027.035-2.987 3.672-5.753 4.064-.227.02-.4.186-.453.403l-.88 3.22c-.06.203-.002.4.145.543.153.143.364.193.55.132.27-.084 6.643-2.224 7.36-7.96a.52.52 0 0 0-.332-.563c-.22-.104-.48-.032-.64.16" fill="#59b4d9"/><path d="M27.644 37.264h-8.21l.915-6.34h6.38z" fill="#1e1e1e"/><path d="M23.197 37.482c-2.25-8.97-5.546-12.207-9.584-20.914C9.69 8.103 15.972-.173 24.035.003c8.053.187 13.96 8.735 9.656 17-4.42 8.53-7.846 11.612-10.494 20.47" fill="#59b4d9"/><path d="M20.342 14.434c-.017.746-.367 1.33-.78 1.326-.422-.02-.738-.615-.732-1.36.017-.737.376-1.325.78-1.313.42.012.745.62.732 1.348m8.004.202c-.023.727-.368 1.322-.785 1.312s-.74-.6-.717-1.352c.006-.737.354-1.327.78-1.32.414.01.74.613.723 1.36" fill="#1e1e1e"/><path d="M27.645 25.826c-2.353 2.658-3.495 6.26-4.03 8.69-.538-2.43-1.68-6.033-4.034-8.69 0 0-3.785-4.027-7.45-4.063 0 0 9.963 9.47 10.92 15.42h1.13c.96-5.95 10.917-15.42 10.917-15.42-3.668.036-7.452 4.063-7.452 4.063z" fill="#a0a1a2"/><path d="M23.52 36.885h-.03c-8-.23-14.327-1.263-14.536-3.067l-.022 1.448c-.025 1.85 6.404 3.443 14.558 3.68v.003c.018-.003.022 0 .03 0v-.003c8.15-.236 14.58-1.83 14.556-3.68l-.022-1.448c-.2 1.804-6.538 2.838-14.534 3.067" fill="#e5e5e5"/><path d="M43.5 6.905a6.51 6.51 0 0 0-6.511 6.51c0 1.275.15 2.058.783 3.062l-2.14 1.767h3.512c1.154 1.042 2.677 1.68 4.355 1.68a6.51 6.51 0 0 0 0-13.02" fill="#b8d432"/><path d="M46.812 10.702c0 .978-.488 1.863-1.465 2.658-.408.328-.68.597-.818.807s-.207.5-.207.835v.386h-1.824v-.6c0-.847.338-1.555 1.012-2.126.42-.346.707-.63.86-.855s.227-.496.227-.813c0-.295-.107-.536-.326-.723s-.498-.28-.84-.28c-.768 0-1.498.307-2.195.92V8.8c.72-.43 1.53-.646 2.428-.646.986 0 1.758.226 2.314.678s.834 1.07.834 1.862zm-2.068 6.686c0 .337-.12.615-.36.835s-.55.33-.922.33a1.36 1.36 0 0 1-.92-.333 1.05 1.05 0 0 1-.387-.831 1.05 1.05 0 0 1 .373-.824c.248-.218.56-.326.934-.326s.676.108.918.326a1.06 1.06 0 0 1 .365.824z" fill="#fff"/><path d="M23.643 49.17c11.865 0 20.217-5.882 22.795-7.646a24.05 24.05 0 0 0 .674-.477c-4.695 1.893-13.598 5.33-23.512 5.33S4.886 43.004.202 41.062a24.54 24.54 0 0 0 .649.461c2.578 1.764 10.93 7.646 22.792 7.646" opacity=".5" fill="#1e1e1e"/><path d="M30.983 18.23c.013-.648-14.392-.97-14.412-.324-.01.452 1.637 2.518 3.98 3.764.878-.24 1.945-.316 3.052-.155.958.14 1.787.432 2.427.808 2.912-.91 4.946-3.565 4.953-4.093z" opacity=".85" fill="#3e3e3e"/><path d="M24.415 18.92c-.72-.045-.77.51-.74 1.178s.082.915-.216.92-.722-.166-.35-.904c.378-.738.03-1.718-1.46-.848-1.174.686-1.027 1.884-.913 2.362a7.63 7.63 0 0 1 2.868-.115c.958.14 1.787.432 2.427.808.11-.035.21-.087.32-.127.01-.025.02-.042.03-.067.825-1.963-1.245-3.167-1.967-3.207z" fill="#1e1e1e"/><path d="M25.247 19.035c.737-.005 1.344-.598 1.422-1.353l-2.9-.102c.03.813.68 1.462 1.48 1.455zm-3.25-.05c.796.032 1.465-.6 1.52-1.4l-2.23-.024-.675.004c.038.774.634 1.402 1.383 1.43z" fill="#fff"/><path d="M20.552 21.668c1.024.544 2.18.934 3.39.96a6.49 6.49 0 0 0 2.09-.307c-.64-.376-1.47-.668-2.427-.808-1.108-.16-2.175-.085-3.052.155z" fill="#dd5900"/></svg>