<svg xmlns="http://www.w3.org/2000/svg" width="50" height="50"><path d="M43 15.9a8.75 8.75 0 0 1-8.8 8.8 8.75 8.75 0 0 1-8.8-8.8c.1-4.9 4-8.8 8.8-8.8a8.75 8.75 0 0 1 8.8 8.8m-2.4 11.9l-6.4 9-6.4-9h-9.3V50H50V27.8z" fill="#59b4d9"/><path d="M25.5 15.9c0 4.8 3.9 8.7 8.6 8.8l2.2-17.3c-.7-.3-1.4-.3-2.1-.3-4.8 0-8.7 3.9-8.7 8.8m2.3 11.9h-9.3V50h12.4l1.9-15.3z" opacity=".2" enable-background="new" fill="#fff"/><g fill="#a0a1a2"><path d="M5.6 18.4l4.9 5.2h-4L0 16.9l6.5-6.7h4l-4.9 5.1H20v3.1z"/><path d="M20 0v18.4h-3.1V0z"/></g></svg>