<svg xmlns="http://www.w3.org/2000/svg" width="35.5" height="49.9"><path d="M22.47 7.9c0 4.363-3.568 7.9-7.97 7.9s-7.968-3.537-7.968-7.9S10.1 0 14.5 0s7.97 3.537 7.97 7.9m-2.033 11L14.5 27l-5.936-8.1H.001v20h29v-20z" fill="#3999c6"/><g fill="#fff"><path d="M6.532 7.9c0 4.298 3.463 7.787 7.773 7.89l2-15.578A7.95 7.95 0 0 0 14.5 0c-4.4 0-7.968 3.537-7.968 7.9m2.034 11H0v20h11.37l1.793-13.716z" opacity=".2"/><path d="M29 38.9V25.582c-2.117-1.19-2.5-2.682-2.5-2.682s-1 4.12-9 4.12h-1V38.9z" opacity=".4"/></g><path d="M32.814 27.88c-5.41-.608-6.314-2.98-6.314-2.98s-1.217 3.12-9 3.12v12.805c0 1.548.845 2.998 2.015 4.266C22.168 47.966 26.5 49.9 26.5 49.9s9-4.014 9-9.074V28.02c-1 0-1.89-.052-2.686-.14z" fill="#7fba00"/><path d="M28.726 33.17l4.088-5.29c-5.41-.608-6.314-2.98-6.314-2.98s-1.217 3.12-9 3.12v12.805c0 1.548.845 2.998 2.015 4.266l3.022-3.91z" opacity=".4" fill="#b8d432"/></svg>