<svg xmlns="http://www.w3.org/2000/svg" width="44.688" height="48.9"><path d="M22.9 8.4a8.4 8.4 0 0 1-12.6 7.275A8.4 8.4 0 0 1 14.5 0a8.4 8.4 0 0 1 8.4 8.4m-2.464 10.5L14.5 27.416 8.563 18.9H0v21h29v-21z" fill="#59b4d9"/><g fill="#fff"><path d="M38.824 35.9l-4.427-4.414-7.785-3-2.463 3.806-3.266 2.62h-4.006l1.24 2.548h4.76c3.458 5.392 8 9.7 8 9.7s4.53-2.997 8-8.258h1.592c.605-.83 1.08-1.746 1.408-2.72z"/><path d="M44.688 36.9H39.78l-1.24 2.548h4.867z"/></g><path d="M36.518 24.9c-2.42 0-4.494 1.52-5.518 3.718-1.024-2.197-3.098-3.718-5.518-3.718-3.43 0-6.208 3.022-6.208 6.75 0 .833.123 1.673.34 2.5H16.48l.822 1.644h6.402l3.565-5.51 4.142 8.56 3.93-5.5 2.9 3.544h3.39c.68-1.646 1.1-3.408 1.1-5.25-.002-3.728-2.78-6.75-6.2-6.75z" fill="#dd5900"/><path d="M43.877 38.544H37.46l-2.032-2.483-4.3 6.007-4.077-8.425-2.463 3.806h-3.69C24.13 43.623 31 48.9 31 48.9s5.39-3.45 8.862-8.712h3.192z" fill="#ba141a"/></svg>