<svg xmlns="http://www.w3.org/2000/svg" width="41.998" height="40.309"><path d="M18.525.001c1.417 1.504 2.488 3.01 3.21 4.512.52 1.04 1.374 3.775 2.56 8.2l3.818-5.727c1.012-1.388 2.242-2.712 3.688-3.97S34.52.897 35.62.434C36.314.145 37.08 0 37.92 0c1.244 0 2.235.333 2.972.998s1.106 1.475 1.106 2.43c0 1.1-.217 1.85-.65 2.256-.8.723-1.736 1.085-2.777 1.085-.607 0-1.258-.13-1.952-.4-1.36-.462-2.27-.694-2.733-.694-.694 0-1.52.406-2.473 1.215-1.793 1.504-3.934 4.41-6.42 8.72l3.558 14.926c.55 2.285 1.012 3.652 1.388 4.1s.752.673 1.128.673c.607 0 1.316-.332 2.126-.998 1.59-1.33 2.95-3.066 4.08-5.207l1.52.78c-1.822 3.413-4.136 6.248-6.942 8.504-1.59 1.273-2.936 1.91-4.035 1.91-1.62 0-2.907-.91-3.862-2.733-.607-1.128-1.866-5.988-3.775-14.58-4.512 7.84-8.128 12.886-10.847 15.143-1.764 1.446-3.47 2.17-5.12 2.17-1.157 0-2.213-.42-3.167-1.258C.347 38.415 0 37.56 0 36.49c0-.955.318-1.75.955-2.386s1.417-.955 2.343-.955 1.91.463 2.95 1.388c.752.666 1.33.998 1.736.998.347 0 .795-.23 1.345-.694 1.36-1.1 3.21-3.47 5.554-7.116s3.876-6.276 4.6-7.897l-2.907-11.15c-.665-1.88-1.533-3.21-2.603-3.992s-2.647-1.17-4.73-1.17a34.97 34.97 0 0 0-2.3.087V2.04z" fill="#3e3e3e"/></svg>