<svg xmlns="http://www.w3.org/2000/svg" width="50" height="44.501"><path d="M0 31.283c0 .853.69 1.545 1.545 1.545h35.4c.854 0 1.545-.692 1.545-1.545V7.16H0z" fill="#59b4d9"/><path d="M36.955 0h-35.4C.69 0 0 .69 0 1.545v5.873h38.5V1.545C38.5.69 37.808 0 36.955 0" fill="#a0a1a2"/><path d="M1.55 0C.698 0 .006.69.006 1.545v29.738c0 .853.692 1.545 1.545 1.545h1.685L33.588 0z" opacity=".2" fill="#fff"/><path d="M11.5 42.956c0 .853.69 1.545 1.545 1.545h35.4c.854 0 1.545-.692 1.545-1.545V18.832H11.5z" fill="#0072c6"/><path d="M48.455 11.673h-35.4c-.854 0-1.545.69-1.545 1.545v5.873H50v-5.873c0-.854-.692-1.545-1.545-1.545" fill="#3e3e3e"/><path d="M13.05 11.673c-.853 0-1.545.69-1.545 1.545v29.738c0 .853.692 1.545 1.545 1.545h1.685l30.352-32.83H13.05z" opacity=".2" fill="#fff"/></svg>