<svg xmlns="http://www.w3.org/2000/svg" xmlns:xlink="http://www.w3.org/1999/xlink" width="30032" height="31001"><path d="M9687 31000h10656c1066 0 1938-871 1938-1937V9688c0-1066-877-1937-1938-1937l-10656-1c-1061 0-1938 877-1938 1938v19374c0 1061 872 1938 1938 1938z" fill="#777"/><path d="M11625 9687c-1070 0-1938 868-1938 1938s868 1937 1938 1937h6781c1070 0 1937-867 1937-1937s-867-1937-1937-1937z"/><use xlink:href="#B" fill="#b8d432"/><path d="M11625 15501c-1070 0-1938 867-1938 1937s868 1937 1938 1937h6781c1070 0 1937-867 1937-1937s-867-1938-1937-1938z"/><use xlink:href="#B" y="5813" fill="#b8d432"/><path d="M23250 23250h4844c1066 0 1938-872 1938-1937V1938c0-1066-877-1938-1938-1938H17438c-1061 0-1938 877-1938 1938v4844h4844c1599 0 2906 1307 2906 2906z" fill="#777"/><use xlink:href="#C"/><use xlink:href="#D" fill="#b8d432"/><path d="M23250 11625h2907c1070 0 1937-868 1937-1938 0-1069-867-1937-1937-1937l-3652 1c463 515 745 1194 745 1937z"/><path d="M1938 23250h4843V9688c0-1599 1308-2906 2906-2906h4845V1938c0-1066-877-1938-1938-1938H1938C877 0 0 877 0 1938v19374c0 1061 872 1938 1938 1938z" fill="#777"/><use xlink:href="#C" x="-15500"/><use xlink:href="#D" x="-15500" fill="#b8d432"/><path d="M3875 7751c-1070 0-1937 867-1937 1937s867 1937 1937 1937h2906V9688c0-743 283-1423 745-1938z"/><use xlink:href="#B" x="-7750" y="-1937" fill="#b8d432"/><path d="M25187 31001c1606 0 2907-1301 2907-2907 0-1731-1498-3068-3213-2890 924-4482-2493-8735-7116-8735-3028 0-5622 1851-6714 4484-3161-712-6207 1684-6207 4962 0 2808 2277 5085 5085 5085z" fill="#c0ecfc"/><path d="M24882 22268c-678-3310-3607-5799-7117-5799-3028 0-5622 1851-6714 4484-361-81-736-124-1122-124-2808 0-5085 2277-5085 5086 0 2808 2277 5085 5085 5085h3420c-2280 0-4128-1848-4128-4128s1848-4129 4128-4129c313 0 618 35 911 101 886-2136 2992-3639 5449-3639 2230 0 4171 1237 5173 3063z" fill="#66d7f7"/><defs ><path id="B" d="M11625 12594c535 0 969-434 969-969s-434-969-969-969-969 434-969 969 434 969 969 969z"/><path id="C" d="M19375 1937c-1070 0-1937 868-1937 1938 0 1069 867 1937 1937 1937h6782c1070 0 1937-867 1937-1937s-867-1937-1937-1937z"/><path id="D" d="M19375 4843c535 0 969-434 969-968 0-535-434-969-969-969s-969 434-969 969c0 534 434 968 969 968z"/></defs></svg>