<svg xmlns="http://www.w3.org/2000/svg" height="46.1" width="50"><path d="M32.4 36.5H18.8c1.6 5.8-.6 6.6-10.2 6.6v3h32.6v-3c-9.5 0-10.4-.8-8.8-6.6" fill="#7a7a7a"/><path d="M47 0H2.7C1.2 0 0 1.3 0 2.8v30.9c0 1.5 1.2 2.8 2.7 2.8H47c1.5 0 3-1.3 3-2.8V2.8C50 1.3 48.5 0 47 0m-.8 3.8v28.8H3.8V3.8l42.4-.1z" fill="#a0a1a2"/><path d="M3.8 32.7V3.8h42.3v28.9z" fill="#59b4d9"/><path d="M3.8 32.7V3.8l38.7-.1L47 0H2.7C1.2 0 0 1.3 0 2.8v30.9c0 1.5 1.2 2.8 2.7 2.8h1.1l4.6-3.8z" opacity=".2" fill="#fff"/><path d="M3.8 3.8v28.9z" fill="#59b4d9"/><path d="M25.5 2.1a.68.68 0 0 1-.7.7.68.68 0 0 1-.7-.7.68.68 0 0 1 .7-.7.68.68 0 0 1 .7.7" fill="#b8d432"/><g fill-rule="evenodd"><path d="M18 25.8l1.7-2.7-.9-3.9-.6-2.8 1.4-2.9 6.7-1.7 2.2 1.6 1.8 3.3-1 6.9 3.3 8.5.3.6H14.2l.8-2z" fill="#fff"/><path d="M28.8 22.9s2.7-.5 2.4-2.8c-.3-2-2.5-.6-3.6-.8s-1.6-.5-1.6-.5-.8-.1-1.2-.4-.5-.4-.7-.4-.7.1-.9.1c-.2.1-1.1.7-1.4.9s-1.4.8-1.6.9c-.1.1-1.4 1.1-.9 1.6s1.1 2.6 1.7 2.9c.7.4 1.6.7 2.2.6 2.1-.1 3.3-.6 3.3-.6s1.8-.5 2.3-1.5z" fill="#fcd116"/><path d="M13 32.7c.7-1.6 1.5-3.1 2.5-4.4 1.4-1.9 3.3-3.6 2.9-7.5-.1-1.5-.8-2.9-.9-4.3 0-2.2 1-4.7 2.4-5.8C23 8.1 28.5 9 30.5 11.9c.7 1 1.2 2.8 1.4 4.1.4 3.9.4 7.6 2.4 10.8 1.2 1.9 2.9 3.6 3.9 6h-7c-.4-.8-.8-1.6-1.1-2.5-.4-1-.8-2.2-1.2-3.3-.5-1.2-.7-2.6-1.2-3.3-.2-.3 2.7-1 2.7-2.8-.3-2-2.3-1.3-3.1-1.5.8-.7 2-1.8 1.8-3.1-.2-1-1.8-2.3-3.4-1.6-1.2.5-1.1 2.5-1.3 3.7-.7-.1-1.5.1-1.5-.2-.1-1.5-.3-3.1-1.7-3.2-2.4-.2-3.9 2.6-.9 4.9-.3.5-1 .5-.9 1.4 2.2 2.7 6.1.3 8.9-.3-2 1.3-5.1 2.5-8.3 1.6-.2 1.8 1.9 2.7 2.8 2.6 1.5 0 3.6-.3 4.6-1.2-1.8 1.5-4.6 2-7.3.7-1.1 3.2-3.5 5.2-5 8zm14.2-15.4c.2 1.1-.5 1.4-.8 1.9-.4-.1-.7-.3-1.1-.4-.1-1.2 1-2.6 1.9-1.5zm-5 1.5c-.3.2-.6.4-.9.5-.5-.4-1-.8-.9-1.4.3-1.2 1.9-.6 1.8.9z" fill="#1e1e1e"/></g></svg>