<svg xmlns="http://www.w3.org/2000/svg" xmlns:xlink="http://www.w3.org/1999/xlink" width="50" height="50"><use xlink:href="#B" fill="#59b4d9"/><g fill="#fff"><use xlink:href="#B" opacity=".2"/><path opacity=".4" d="M12.55 32H28V17.522c0-1.4-1.146-2.522-2.556-2.522H11.556C10.146 15 9 16.132 9 17.522v13.956c1.126.335 2.316.522 3.55.522z"/></g><path fill="#7a7a7a" d="M27 45.477c0 .84-.696 1.523-1.556 1.523H11.556c-.86 0-1.556-.682-1.556-1.523V17.523c0-.84.696-1.523 1.556-1.523h13.888c.86 0 1.556.682 1.556 1.523v27.954z"/><use xlink:href="#C" fill="#1e1e1e"/><circle fill="#b8d432" cx="14.5" cy="33" r="1.285"/><path fill="#1e1e1e" d="M12.2 27c0-1.057.857-1.915 1.915-1.915h8.768c1.057 0 1.915.857 1.915 1.915s-.857 1.915-1.915 1.915h-8.768c-1.057 0-1.915-.858-1.915-1.915z"/><circle fill="#b8d432" cx="14.5" cy="27" r="1.285"/><use xlink:href="#C" y="-12" fill="#1e1e1e"/><circle fill="#b8d432" cx="14.5" cy="21" r="1.285"/><path fill="#59b4d9" d="M33.5 27.808H24v18.386c0 1.893 4.184 3.43 9.37 3.454v.002h.13c5.246 0 9.5-1.547 9.5-3.456V27.808h-9.5z"/><path fill="#3999c6" d="M33.37 49.65c5.246 0 9.63-1.547 9.63-3.456V27.808l-9.63.25V49.65z"/><path fill="#fff" d="M43 27.808c0 1.91-4.254 3.706-9.5 3.706S24 29.716 24 27.808s4.254-3.456 9.5-3.456S43 25.9 43 27.808"/><path fill="#59b4d9" d="M41.058 27.764c0 1.174-3.384 2.125-7.558 2.125s-7.558-.95-7.558-2.125 3.384-2.125 7.558-2.125 7.558.95 7.558 2.125"/><defs ><path id="B" d="M40.217 12.583c-.012 0-.023.002-.035.002C39.82 5.63 34.1.1 27.075.1c-5.134 0-9.57 2.958-11.73 7.262-.9-.207-1.832-.327-2.794-.327C5.674 7.035.1 12.624.1 19.518S5.674 32 12.55 32h27.667c5.348 0 9.683-4.347 9.683-9.71s-4.335-9.708-9.683-9.708z"/><path id="C" d="M12.2 33c0-1.057.857-1.915 1.915-1.915h8.768c1.057 0 1.915.857 1.915 1.915s-.857 1.915-1.915 1.915h-8.768c-1.057 0-1.915-.857-1.915-1.915z"/></defs></svg>