<svg xmlns="http://www.w3.org/2000/svg" width="50" height="46.1"><path d="M47 0H2.7C1.2 0 0 1.3 0 2.8v30.9c0 1.5 1.2 2.8 2.7 2.8h16.1c1.6 5.8-.6 6.6-10.2 6.6v3h32.6v-3c-9.6 0-10.6-.8-8.9-6.6H47c1.5 0 3-1.3 3-2.8V2.8C50 1.3 48.5 0 47 0z" fill="#59b4d9"/><path d="M3.8 3.8h42.3v28.9H3.8z" fill="#fff"/><path d="M25.5 17.4h-.1l-8.8-5.1c-.1 0-.1-.1-.1-.2s.1-.2.1-.2l8.8-5h.3l8.8 5.1c.1 0 .1.1.1.2s0 .2-.1.2l-8.7 5h-.3m-1.2 12.3h-.1l-8.8-5.1c-.1 0-.1-.1-.1-.2V14.2c0-.1.1-.2.1-.2h.3l8.8 5.1c.1 0 .1.1.1.2v10.2c0 .1-.1.2-.1.2h-.2m2.5 0h-.1c-.1 0-.1-.1-.1-.2V19.4c0-.1.1-.2.1-.2l8.8-5.1h.3c.1 0 .1.1.1.2v10.1c0 .1-.1.2-.1.2L27 29.7h-.2" fill="#0072c6"/></svg>