<svg xmlns="http://www.w3.org/2000/svg" height="28.714" width="50.077"><path d="M49.74 15.075c.5-.5.4-1.3 0-1.8l-2.4-2.4-10.8-10.5c-.5-.5-1.2-.5-1.7 0s-.6 1.3 0 1.8l11.3 11.1c.5.5.5 1.3 0 1.8l-11.5 11.5c-.5.5-.5 1.3 0 1.8s1.3.4 1.7 0l10.8-10.7 2.6-2.6zm-49.4 0c-.5-.5-.4-1.3 0-1.8l2.4-2.4 10.8-10.5c.5-.5 1.2-.5 1.7 0s.6 1.3 0 1.8l-11.1 11.1c-.5.5-.5 1.3 0 1.8l11.3 11.5c.5.5.5 1.3 0 1.8s-1.3.4-1.7 0l-11-10.6-2.4-2.7z" fill="#3999c6"/><g fill="#7fba00"><path d="M18.24 14.175c0 1.9-1.6 3.3-3.3 3.3s-3.5-1.6-3.5-3.3 1.4-3.3 3.5-3.3c2 0 3.3 1.6 3.3 3.3zm10.1 0c0 1.9-1.6 3.3-3.3 3.3s-3.5-1.6-3.5-3.3 1.6-3.3 3.5-3.3 3.3 1.6 3.3 3.3z"/><circle cx="35.239" cy="14.175" r="3.3"/></g></svg>