<svg xmlns="http://www.w3.org/2000/svg" width="50.001" height="46.149"><path d="M32.426 36.534H18.83c1.634 5.768-.56 6.595-10.175 6.595v3.02h32.692v-3.02c-9.614 0-10.557-.824-8.92-6.595" fill="#7a7a7a"/><path d="M46.98 0H2.718C1.214 0 .001 1.345.001 2.847v30.866c0 1.493 1.213 2.823 2.717 2.823H46.98c1.5 0 3.02-1.33 3.02-2.823V2.847C50 1.34 48.48 0 46.98 0" fill="#a0a1a2"/><path d="M47.01.003c-.01 0-.02-.002-.03-.002H2.717C1.213.001 0 1.345 0 2.848v30.865c0 1.494 1.213 2.824 2.717 2.824H3.77L47.01.003z" opacity=".2" fill="#fff"/><g fill="#59b4d9"><path d="M3.8 3.848h42.308v28.84H3.8z"/><path d="M42.528 3.79h.002L3.8 3.85v28.84h.058V3.85z"/></g><path d="M8.655 43.128h32.692v3.02H8.655z" fill="#a0a1a2"/><path d="M25.518 2.095a.71.71 0 0 1-.71.71.71.71 0 0 1-.709-.71.71.71 0 0 1 .709-.71.71.71 0 0 1 .71.71" fill="#b8d432"/><g fill="#fff"><path d="M25.546 17.394c-.045 0-.09-.014-.134-.038l-8.804-5.082a.27.27 0 0 1-.132-.231c0-.095.05-.183.132-.23l8.75-5.05c.082-.046.182-.046.263 0l8.807 5.084c.082.047.13.135.13.23s-.05.183-.13.23l-8.748 5.048a.27.27 0 0 1-.135.038"/><path d="M24.28 29.746c-.05 0-.095-.012-.134-.036l-8.778-5.066a.26.26 0 0 1-.136-.231V14.247c0-.096.05-.183.136-.23s.18-.05.268 0l8.777 5.064a.28.28 0 0 1 .13.233V29.48c0 .097-.052.183-.13.23a.28.28 0 0 1-.133.036" opacity=".7"/><path d="M26.766 29.746c-.048 0-.093-.012-.138-.036a.27.27 0 0 1-.129-.231V19.377c0-.094.05-.182.13-.23l8.777-5.064a.26.26 0 0 1 .264 0c.084.047.135.135.135.23v10.1a.26.26 0 0 1-.135.231L26.895 29.7c-.036.024-.083.036-.13.036" opacity=".4"/></g></svg>