<svg xmlns="http://www.w3.org/2000/svg" viewBox="0 0 544.2 659.6"><path d="M110.3 527.7c-28-40.3-33.4-171.2 31.9-251.8 32.4-38.6 40.6-65.6 43.2-101.7C187.1 133 156.2 9.9 272.7.5c118-9.4 111.7 107.1 111 168.7-.6 52 38.2 81.6 64.7 122.1 49.1 74.5 44.9 202.9-9.2 272.3-68.6 87-127.4 49.2-166.5 52.4-73.1 4.1-75.5 43.1-162.4-88.3z"/><linearGradient id="A" gradientUnits="userSpaceOnUse" x1="418.375" y1="551.63" x2="420.521" y2="384.274"><stop offset="0" stop-color="#ffeed7"/><stop offset="1" stop-color="#bdbfc2"/></linearGradient><path d="M395.4 299c20.3 18.7 73 102.6-10.4 154.9-29.4 18.2 26.2 87.9 52.9 54.1 47.1-60.6 17.1-157.1-11.2-191.7-19.2-24.5-48.5-34-31.3-17.3z" fill="url(#A)"/><path d="M389.7 287.5c33.4 27 94.2 122 5.5 183.8-29.1 19.2 25.8 79.9 56.7 48.9 107.3-107.9-2.8-232-40.7-274.7-33.9-37-63.9 8.8-21.5 42z" stroke="#000" stroke-width="1.563"/><linearGradient id="B" gradientUnits="userSpaceOnUse" x1="274.228" y1="9.897" x2="262.048" y2="109.114"><stop offset="0" stop-color="#fff" stop-opacity=".8"/><stop offset="1" stop-color="#fff" stop-opacity="0"/></linearGradient><path d="M341.6 59.4c-1.2 30.9-35.2 57.9-76.1 60.2s-73-20.9-71.8-51.9S229 9.8 269.8 7.5s73 20.9 71.8 51.9z" fill="url(#B)"/><linearGradient id="C" gradientUnits="userSpaceOnUse" x1="221.138" y1="162.076" x2="219.284" y2="104.959"><stop offset="0" stop-color="#ffeed7"/><stop offset="1" stop-color="#bdbfc2"/></linearGradient><path d="M243.8 133c1.1 20.1-8.5 37-21.5 37.8-13 .7-24.5-14.9-25.7-35s8.5-37 21.5-37.8c13.1-.9 24.6 14.8 25.7 35 0-.1 0 0 0 0z" fill="url(#C)"/><linearGradient id="D" gradientUnits="userSpaceOnUse" x1="300.284" y1="163.529" x2="300.283" y2="102.977"><stop offset="0" stop-color="#ffeed7"/><stop offset="1" stop-color="#bdbfc2"/></linearGradient><path d="M267.5 134.5c.5 23.3 15.5 41.7 33.6 41.2s32.4-19.8 31.9-43-15.5-41.7-33.6-41.2-32.4 19.7-31.9 43z" fill="url(#D)"/><path d="M282.5 139.8c-.3 12.8 6.2 23.1 14.4 23.2 8.2 0 15.1-10.3 15.4-23.1s-6.2-23.1-14.4-23.2c-8.3 0-15.2 10.3-15.4 23.1zm-52.2.1c1 10.6-3 19.7-8.9 20.4s-11.6-7.3-12.6-17.8c-1-10.6 2.9-19.7 8.9-20.5 5.9-.7 11.6 7.3 12.6 17.9z"/><linearGradient id="E" gradientUnits="userSpaceOnUse" x1="295.225" y1="121.026" x2="293.829" y2="144.447"><stop offset="0" stop-color="#fff" stop-opacity=".65"/><stop offset="1" stop-color="#fff" stop-opacity="0"/></linearGradient><path d="M285.9 132.5c-.7 7.1 2.6 13.2 7.4 13.6s9.3-5.1 10-12.2-2.6-13.2-7.4-13.6-9.3 5-10 12.2z" fill="url(#E)"/><linearGradient id="F" gradientUnits="userSpaceOnUse" x1="218.253" y1="125.242" x2="219.481" y2="144.385"><stop offset="0" stop-color="#fff" stop-opacity=".65"/><stop offset="1" stop-color="#fff" stop-opacity="0"/></linearGradient><path d="M225.3 134.3c.6 6-1.8 11.1-5.3 11.6-3.6.4-7-4.1-7.6-10.1s1.8-11.1 5.3-11.6c3.6-.4 7 4.1 7.6 10.1z" fill="url(#F)"/><linearGradient id="G" gradientUnits="userSpaceOnUse" x1="275.429" y1="550.012" x2="275.429" y2="342.766"><stop offset="0" stop-color="#ffeed7"/><stop offset="1" stop-color="#bdbfc2"/></linearGradient><path d="M154.2 356c16-36.4 50.1-100.3 50.9-149.7 0-39.3 117.7-48.7 127.2-9.4 9.4 39.2 33.4 98.1 48.7 126.4s59.8 118.4 12.4 196.9c-42.7 69.6-172.2 124.6-241.3-9.4-23.4-46.5-19.2-104.2 2.1-154.8z" fill="url(#G)"/><linearGradient id="H" gradientUnits="userSpaceOnUse" x1="165.205" y1="552.974" x2="152.232" y2="360.931"><stop offset="0" stop-color="#ffeed7"/><stop offset="1" stop-color="#bdbfc2"/></linearGradient><path d="M139.7 329C126 355 97.4 423.2 167 460.5c74.8 39.6 74.5 121.2-15.4 82.4-82.1-35.1-45.8-176.9-22.9-210.8 15.1-23.7 37.7-52.8 11-3.1z" fill="url(#H)"/><path d="M151.4 299.6c-21.8 35.6-74.2 119.8-4.1 163.4 94.5 57.9 67.7 115.9-18.5 63.7C7.4 453.9 114 307.2 162.7 251.3c55.6-62.8 10.7 11.4-11.3 48.3z" stroke="#000" stroke-width="1.563"/><linearGradient id="I" gradientUnits="userSpaceOnUse" x1="263.984" y1="319.303" x2="264.783" y2="451.915"><stop offset="0" stop-color="#fff" stop-opacity=".8"/><stop offset="1" stop-color="#fff" stop-opacity="0"/></linearGradient><path d="M364.2 369.8c0 39.7-38.1 91.3-103.6 90.8-67.5.6-96.3-51.1-96.3-90.8s44.8-71.9 99.9-71.9c55.2 0 100 32.2 100 71.9z" fill="url(#I)"/><linearGradient id="J" gradientUnits="userSpaceOnUse" x1="267.034" y1="236.139" x2="268.017" y2="288.864"><stop offset="0" stop-color="#fff" stop-opacity=".65"/><stop offset="1" stop-color="#fff" stop-opacity="0"/></linearGradient><path d="M328.6 244.8c-.7 41.2-27.5 50.9-61.4 50.9s-58.5-6.1-61.4-50.9c0-28.1 27.5-44.3 61.4-44.3s61.4 16.2 61.4 44.3z" fill="url(#J)"/><linearGradient id="K" gradientUnits="userSpaceOnUse" x1="124.677" y1="268.646" x2="124.677" y2="462.154"><stop offset="0" stop-color="#fff" stop-opacity=".65"/><stop offset="1" stop-color="#fff" stop-opacity="0"/></linearGradient><path d="M123.7 308c22.1-33.7 68.8-85.5 8.7 7.3-48.7 76.3-18 125.3-2.2 138.8 45.7 40.7 43.7 67.9 8 46.5-77-45.8-61-122.8-14.5-192.6z" fill="url(#K)"/><linearGradient id="L" gradientUnits="userSpaceOnUse" x1="445.769" y1="249.806" x2="445.761" y2="424.648"><stop offset="0" stop-color="#fff" stop-opacity=".65"/><stop offset="1" stop-color="#fff" stop-opacity="0"/></linearGradient><path d="M444.1 321.8C425 282.2 364 182 447 298.6c75.6 105.4 22.5 178.8 13.1 186-9.4 7.3-41.4 21.8-32-3.6 9.5-25.4 56.6-73.7 16-159.2z" fill="url(#L)"/><linearGradient id="M" gradientUnits="userSpaceOnUse" x1="114.586" y1="542.839" x2="84.564" y2="646.721"><stop offset="0" stop-color="#ffa63f"/><stop offset="1" stop-color="#ff0"/></linearGradient><path d="M106.9 633.6c-50.5-26.8-124 5.2-97.3-67.6 5.3-16.5-8-41.3.7-57.4 10.2-19.6 32-15.3 45.1-28.3 12.9-13.6 21.1-37.1 45.1-33.4 24 3.6 39.9 33.1 56.7 69 12.4 25.8 56.2 62.1 53.3 90.9-3.5 44.4-53.9 52.8-103.6 26.8z" fill="url(#M)" stroke="#e68c3f" stroke-width="7.813"/><linearGradient id="N" gradientUnits="userSpaceOnUse" x1="434.475" y1="417.182" x2="430.022" y2="465.38"><stop offset="0" stop-color="#ffeed7"/><stop offset="1" stop-color="#bdbfc2"/></linearGradient><path d="M475.4 462.9c-7.8 14.6-39.8 37.7-61.1 31.7-21.8-5.9-31.6-38.9-27.3-63.8 4-28.1 27.3-29.5 56.6-15.6 31.5 15.2 41 28.4 31.8 47.7z" fill="url(#N)"/><linearGradient id="O" gradientUnits="userSpaceOnUse" x1="406.019" y1="509.116" x2="474.32" y2="638.549"><stop offset="0" stop-color="#ffa63f"/><stop offset="1" stop-color="#ff0"/></linearGradient><path d="M457.7 621.1c37.1-45 119.4-35.7 63.9-97.4-11.7-13.2-8.2-41.9-22.5-54-17-14.8-35.7-2.7-52.9-10.4-17.2-8.3-35.2-24.5-56.3-13-21 11.5-23.3 41.4-25.3 80.6-1.7 28.2-27.5 75.4-13.8 101.3 20.1 40.3 71.6 35 106.9-7.1z" fill="url(#O)" stroke="#e68c3f" stroke-width="7.813"/><linearGradient id="P" gradientUnits="userSpaceOnUse" x1="428.036" y1="455.276" x2="416.185" y2="536.194"><stop offset="0" stop-color="#fff" stop-opacity=".65"/><stop offset="1" stop-color="#fff" stop-opacity="0"/></linearGradient><path d="M441.6 561c57.4-84.7 14.6-84.1.3-90.5-14.4-6.9-29.6-20.2-46.5-10.8s-17.9 33.9-18.3 66c-.6 23.1-20 61.6-8.3 83 13.9 25.1 47.8-11.3 72.8-47.7z" fill="url(#P)"/><linearGradient id="Q" gradientUnits="userSpaceOnUse" x1="108.321" y1="511.038" x2="113.337" y2="557.871"><stop offset="0" stop-color="#fff" stop-opacity=".65"/><stop offset="1" stop-color="#fff" stop-opacity="0"/></linearGradient><path d="M95.2 573.2C9.3 517.6 49.5 498.7 62.5 490c15.6-11.2 15.8-33 35-31s30.4 25.7 43.4 55.1c9.6 21.1 42.4 48.9 40 73.2-3.1 28.5-48.5 9.7-85.7-14.1z" fill="url(#Q)"/><path d="M470.3 462.1c-6.7 11.7-34.3 30.2-52.7 25.4-18.8-4.7-27.2-31.1-23.5-51.1 3.4-22.5 23.5-23.6 48.8-12.5 27.1 12.2 35.3 22.7 27.4 38.2z"/><linearGradient id="R" gradientUnits="userSpaceOnUse" x1="423.147" y1="426.537" x2="430.473" y2="470.264"><stop offset="0" stop-color="#fff" stop-opacity=".65"/><stop offset="1" stop-color="#fff" stop-opacity="0"/></linearGradient><path d="M451.8 455.6c-4.3 8.1-22.5 21-34.9 17.6-12.7-3.3-18.9-21.6-16.9-35.5 1.8-15.6 15.4-16.4 32.6-8.7 18.4 8.5 24.2 15.8 19.2 26.6z" fill="url(#R)"/><linearGradient id="S" gradientUnits="userSpaceOnUse" x1="264.087" y1="158.458" x2="265.264" y2="235.628"><stop offset="0" stop-color="#ffa63f"/><stop offset="1" stop-color="#ff0"/></linearGradient><g stroke="#e68c3f"><path d="M218.2 160.9c8.9-8.5 31-33.8 72.5-7.2 7.7 5 14 5.5 28.8 11.8 29.7 12.2 15.5 41.6-15.9 51.4-13.4 4.4-25.7 20.7-50.2 19.3-20.9-1.2-26.4-14.8-39.2-22.4-22.8-12.9-26.2-30.3-13.9-39.6l17.9-13.3z" fill="url(#S)" stroke-width="4.688"/><path d="M319.9 184.5c-12.4.7-39.2 27.6-67.6 27.6S207.2 186 202.9 186" fill="none" stroke-width="3.125"/></g><linearGradient id="T" gradientUnits="userSpaceOnUse" x1="255.357" y1="151.169" x2="255.014" y2="191.976"><stop offset="0" stop-color="#fff" stop-opacity=".65"/><stop offset="1" stop-color="#fff" stop-opacity="0"/></linearGradient><path d="M232.3 158.5c4.5-4 18.6-15.1 37.4-3.8 4 2.2 8 4.7 14.1 8 12 7 6.1 17.1-8.3 23.5-6.5 2.7-17.3 8.6-25.5 8.2-9.1-.8-15-6.8-21.1-10.7-11.1-7.3-10.4-13.2-5.3-18.2 3.9-3.3 8.3-6.6 8.7-7z" fill="url(#T)"/></svg>