<svg xmlns="http://www.w3.org/2000/svg" width="50" height="50"><path d="M21.667 0h6.667v5h-6.667zm-10 0h6.667v5h-6.667zM45 45h-3.333v5h5C48.508 50 50 48.507 50 46.667v-5h-5V45zM0 31.667h5v6.667H0zM21.667 45h6.667v5h-6.667zM45 31.667h5v6.667h-5zM31.667 45h6.667v5h-6.667zm-20 0h6.667v5h-6.667zM5 45v-3.333H0v5C0 48.508 1.493 50 3.333 50h5v-5H5zM0 11.667h5v6.667H0zM5 5h3.333V0h-5C1.493 0 0 1.493 0 3.333v5h5V5zM0 21.667h5v6.667H0zm45 0h5v6.667h-5zm0-10h5v6.667h-5zM31.666 0h6.667v5h-6.667zM45 5v3.333h5v-5C50 1.492 48.507 0 46.667 0h-5v5H45z" fill="#59b4d9"/><path fill="#a0a1a2" d="M35.328 8.96H9.95c-.863 0-1.558.77-1.558 1.63v17.675c0 .855.695 1.617 1.558 1.617h25.38c.86 0 1.732-.762 1.732-1.617V10.6c.001-.863-.87-1.63-1.732-1.63"/><path opacity=".2" fill="#fff" d="M35.346 8.96H9.95c-.863 0-1.558.77-1.558 1.63v17.674c0 .855.695 1.617 1.558 1.617h.604L35.346 8.96z"/><path fill="#59b4d9" d="M34.88 27.678H10.564V11.163l24.317-.036z"/><path fill="#b8d432" d="M23.022 10.16c0 .225-.182.406-.407.406s-.406-.182-.406-.406.18-.406.406-.406.407.18.407.406"/><path fill="#fff" d="M23.04 18.92c-.026 0-.052-.008-.077-.022l-5.05-2.9c-.046-.027-.075-.078-.075-.132s.03-.105.075-.132l5.018-2.89c.047-.026.104-.026.15 0l5.05 2.912c.047.027.075.078.075.132s-.028.105-.075.132l-5.016 2.9c-.025.014-.05.02-.077.02"/><path fill="#7a7a7a" d="M31.53 35.535h-7.796c.937 3.303-.322 3.776-5.834 3.776v1.73h18.746v-1.73c-5.513-.001-6.054-.472-5.116-3.777"/><path fill="#a0a1a2" d="M39.877 14.614h-25.38c-.863 0-1.558.77-1.558 1.63V33.92c0 .855.695 1.617 1.558 1.617h25.38c.86 0 1.732-.762 1.732-1.617V16.244c0-.862-.872-1.63-1.732-1.63"/><path opacity=".2" fill="#fff" d="M39.895 14.616l-25.398-.002c-.863 0-1.558.77-1.558 1.63v17.674c0 .855.695 1.617 1.558 1.617h.604l24.794-20.92z"/><path fill="#59b4d9" d="M39.43 33.333H15.112V16.818l24.317-.036z"/><path fill="#a0a1a2" d="M17.9 39.31h18.745v1.73H17.9z"/><path fill="#b8d432" d="M27.57 15.814c0 .225-.182.406-.407.406s-.406-.182-.406-.406.18-.406.406-.406.407.18.407.406"/><g fill="#fff"><path d="M27.587 24.575c-.026 0-.052-.008-.077-.022l-5.05-2.9c-.046-.027-.075-.078-.075-.132s.03-.105.075-.132l5.018-2.89c.047-.026.104-.026.15 0l5.05 2.912c.047.027.075.078.075.132s-.028.105-.075.132l-5.016 2.9a.17.17 0 0 1-.077.021"/><path opacity=".7" d="M26.86 31.648c-.03 0-.054-.007-.077-.02l-5.033-2.9c-.05-.027-.078-.076-.078-.132v-5.822a.15.15 0 0 1 .078-.132c.047-.028.103-.028.154 0l5.033 2.9c.044.03.075.078.075.133v5.822c0 .056-.03.105-.075.132a.17.17 0 0 1-.077.02"/><path opacity=".4" d="M28.287 31.648c-.028 0-.054-.007-.08-.02-.044-.027-.074-.077-.074-.132V25.7c0-.054.03-.104.074-.132l5.033-2.9c.048-.027.104-.027.152 0a.15.15 0 0 1 .077.132v5.785c0 .056-.03.106-.077.132l-5.03 2.9c-.023.012-.05.02-.075.02"/></g></svg>