<svg xmlns="http://www.w3.org/2000/svg" xmlns:xlink="http://www.w3.org/1999/xlink" width="47.8" height="47.8"><use xlink:href="#B" fill="#59b4d9"/><g fill="#fff"><use xlink:href="#B" opacity=".2"/><path d="M24.9 47.05c-8.905 0-16.15-7.245-16.15-16.15s7.245-16.15 16.15-16.15 16.15 7.245 16.15 16.15-7.245 16.15-16.15 16.15z"/></g><g fill="#804998"><path d="M24.9 15.5a15.42 15.42 0 0 1 15.4 15.4 15.42 15.42 0 0 1-15.4 15.4A15.42 15.42 0 0 1 9.5 30.9a15.42 15.42 0 0 1 15.4-15.4m0-1.5C15.566 14 8 21.566 8 30.9s7.566 16.9 16.9 16.9 16.9-7.566 16.9-16.9S34.234 14 24.9 14z"/><circle transform="matrix(.342004 -.939699 .939699 .342004 -8.951839 35.518621)" cx="22.223" cy="23.916" r="3.182"/><circle transform="matrix(.342004 -.939699 .939699 .342004 -9.033777 54.015603)" cx="35.39" cy="33.223" r="3.182"/><circle transform="matrix(.342004 -.939699 .939699 .342004 -24.56609 43.061572)" cx="19.802" cy="38.837" r="3.182"/><path d="M17.687 21.07a18.06 18.06 0 0 0-7.509 1.621c-.42.74-.782 1.512-1.085 2.308 2.598-1.553 5.568-2.373 8.594-2.374 9.28 0 16.83 7.55 16.83 16.83a16.74 16.74 0 0 1-1.072 5.905l-.032.085c.71-.422 1.4-.896 2.03-1.418.372-1.468.628-3.05.628-4.572a18.41 18.41 0 0 0-18.385-18.385z"/><path d="M32.173 15.825a16.74 16.74 0 0 0-2.447-.958 18.29 18.29 0 0 0-12.604 17.447c0 6.288 3.16 12.06 8.457 15.467a16.82 16.82 0 0 0 2.608-.317l-.084-.042c-5.814-2.86-9.425-8.65-9.425-15.108-.001-7.996 5.67-14.91 13.495-16.49z"/><path d="M41.085 35.332a16.65 16.65 0 0 0 .364-1.708 18.44 18.44 0 0 0-9.524-2.663c-8.002 0-15.175 5.07-17.85 12.827l-.016.05.038.034a17.65 17.65 0 0 0 1.139.891l.174.124.028-.1c2.33-7.374 8.956-12.187 16.486-12.187 3.263-.001 6.407.948 9.16 2.723z"/></g><defs ><path id="B" d="M38.506 11.7l-.033.002C38.126 5.184 32.635 0 25.892 0c-4.928 0-9.185 2.773-11.26 6.806-.88-.2-1.78-.303-2.682-.306C5.35 6.5 0 11.738 0 18.2s5.35 11.7 11.95 11.7h26.556c5.133 0 9.294-4.074 9.294-9.1s-4.16-9.1-9.294-9.1z"/></defs></svg>