<svg xmlns="http://www.w3.org/2000/svg" height="46.1" width="50"><path d="M32.4 36.5H18.8c1.6 5.8-.6 6.6-10.2 6.6v3h32.6v-3c-9.5 0-10.4-.8-8.8-6.6" fill="#7a7a7a"/><path d="M47 0H2.7C1.2 0 0 1.3 0 2.8v30.9c0 1.5 1.2 2.8 2.7 2.8H47c1.5 0 3-1.3 3-2.8V2.8C50 1.3 48.5 0 47 0m-.8 3.8v28.8H3.8V3.8l42.4-.1z" fill="#a0a1a2"/><path d="M3.8 32.7V3.8h42.3v28.9z" fill="#59b4d9"/><path d="M3.8 32.7V3.8l38.7-.1L47 0H2.7C1.2 0 0 1.3 0 2.8v30.9c0 1.5 1.2 2.8 2.7 2.8h1.1l4.6-3.8z" opacity=".2" fill="#fff"/><path d="M3.8 3.8v28.9z" fill="#59b4d9"/><path d="M25.5 2.1a.68.68 0 0 1-.7.7.68.68 0 0 1-.7-.7.68.68 0 0 1 .7-.7.68.68 0 0 1 .7.7" fill="#b8d432"/><path d="M35.7 7.3L25.9 9v8h9.8zm-22 3.1V17h9.8V9.1zm0 15.8l9.8 1.3v-8h-9.8zm22 3.1v-9.8h-9.8v8.1z" fill="#fff"/></svg>