<svg xmlns="http://www.w3.org/2000/svg" width="50.001" height="46"><path d="M31 36H19c1.634 5.768-.386 7-10 7v3h32v-3c-9.614 0-11.636-1.23-10-7z" fill="#7a7a7a"/><path d="M46.98 0H2.718C1.214 0 .001 1.325.001 2.805v30.412C.001 34.688 1.214 36 2.718 36H46.98c1.5 0 3.02-1.3 3.02-2.782V2.805C50 1.32 48.48 0 46.98 0" fill="#a0a1a2"/><path d="M47.01.003l-.03-.002H2.717C1.213.001 0 1.325 0 2.806v30.41C0 34.7 1.213 36 2.717 36H3.77z" opacity=".2" fill="#fff"/><path d="M46 4v28H4V4z" fill="#59b4d9"/><path d="M9 42.98L41 43v3H9z" fill="#a0a1a2"/><path d="M25.518 2.095a.71.71 0 0 1-1.065.615.71.71 0 0 1 .355-1.325.71.71 0 0 1 .71.71" fill="#b8d432"/><g fill="#fff"><path d="M25.028 16.802a.27.27 0 0 1-.13-.036l-8.56-4.858c-.08-.046-.128-.13-.128-.22s.05-.175.128-.22l8.508-4.826c.08-.044.176-.044.256 0l8.563 4.86a.25.25 0 0 1 .127.22.25.25 0 0 1-.127.22l-8.505 4.825c-.04.023-.086.036-.132.037"/><path d="M23.798 28.608c-.046.001-.09-.01-.13-.034l-8.534-4.842a.25.25 0 0 1-.133-.221v-9.717c0-.092.05-.175.132-.22a.26.26 0 0 1 .261 0l8.533 4.84c.078.048.125.132.126.223v9.717a.26.26 0 0 1-.126.221c-.04.022-.084.033-.13.034" opacity=".7"/><path d="M26.214 28.608a.28.28 0 0 1-.134-.034c-.078-.047-.125-.13-.125-.22v-9.656c0-.1.05-.174.125-.22l8.533-4.84c.08-.046.177-.046.257 0s.13.128.13.22v9.655a.25.25 0 0 1-.131.221l-8.53 4.842c-.038.023-.082.035-.126.034" opacity=".4"/><path d="M15 6H6v9h3V9h6zM6 21v9h9v-3H9v-6zm29 9h9v-9h-3v6h-6zm9-15V6h-9v3h6v6z"/></g></svg>