<svg xmlns="http://www.w3.org/2000/svg" width="50" height="46"><path d="M33 36H19.27c1.65 6-.566 6.86-10.27 6.86V46h33v-3.14c-9.705 0-10.656-.857-9.005-6.86" fill="#7a7a7a"/><path d="M46.98 0H2.718C1.214 0 .001 1.345.001 2.847v31.33C.001 35.67 1.214 37 2.718 37h44.26c1.5 0 3.02-1.33 3.02-2.823V2.847C50 1.34 48.48 0 46.98 0" fill="#a0a1a2"/><path d="M47 .003c-.01 0-.02-.002-.03-.002H2.717C1.213.001 0 1.345 0 2.848v31.328C0 35.67 1.213 37 2.717 37H3.77z" opacity=".2" fill="#fff"/><path d="M4 33V4h42v29z" fill="#59b4d9"/><path d="M9 43h33v3H9z" fill="#a0a1a2"/><path d="M25.517 2.095a.71.71 0 0 1-.71.71.71.71 0 0 1-.709-.71.71.71 0 0 1 .709-.71.71.71 0 0 1 .71.71" fill="#b8d432"/><g opacity=".85"><path d="M26.704 11.83l-.512.315-.443-.807c-.17-.308-.193-.57-.078-.846a.58.58 0 0 1 .556-.375l.06.002c.285.023.57.318.655.58.09.278.09.93-.238 1.13z" opacity=".4" fill="#fff"/><path d="M21.73 27.35c.001-.03-2.533-4.095-2.384-4.8 1.194-5.673 2.614-6.5 3.134-7.7s.22-2.305.842-2.32 2.443.123 2.887.27 1.074.595 1.423 1.574c.473.895.938 1.793 1.084 2.814.013.094.055.184.12.254 1.18 1.3 1.42 2.88 1.333 4.55-.022.423-.077 1.046-.134 1.264s-1.65 5.377-4.16 5.315-3.847-.998-4.143-1.224z" fill="#fbfbf9"/><path d="M35.228 26.146c-.92-.046-1.404-.598-1.408-1.126-.005-.618.255-1.395-.64-1.473l-3.217-.264c-1.07-.197-1.125.24-1.142.55-.008.146.127 1.597-.014 2.163.01.246-.008.49-.046.735l-.267 1.987-.017.97c.78 1.146 2.293 1.19 3.23.196.88-.894 1.94-1.51 3.057-2.052.316-.154.615-.385.783-.83s.01-.84-.32-.855z" fill="#ff8c00"/><path d="M23 25.593c-.126.618-.796 1.165-1.143 1.118-.215-.118-.8-.9-.925-1.08-.38-.577-2.044-2.962-2.53-2.78-.158.02-.248.13-.33.25l-.1.04a1.68 1.68 0 0 1 .05-1.58c.613-1.12.896-2.27 1.208-3.515.105-.418.36-.766.624-1.1.492-.625.48-1.253.982-1.87.32-.394.602-.823.572-1.333L21.21 9.47c.06-1.4 1.292-2.596 2.675-3.104 1.434-.527 2.8-.268 3.943.764.905.8 1.3 1.874 1.37 3.07l.015.658c-.103 2.247.842 4.076 2.274 5.7 1.374 1.566 1.912 3.443 2.036 5.47.032.53-.138 1.025-.355 1.502-.3.7-.73 1.12-1.124 1.297s-1.947.3-1.646-.72c.148-.502.172-.715-.447-.84l.134-1.264c.087-1.67-.206-3-1.472-4.177-.4-.367-.024-.427-.037-.757-.033-.9-.554-1.8-1.027-2.684a1.11 1.11 0 0 0-.228-.442c.035-.14-.053-.24-.1-.352.07-.283.2-.557.134-.86.004-.26-2.666-.372-3-.24-.14-.047-1.562-.108-1.558-.084-.192.143-.327.332-.387.56-.057.216.3.663.327.736l-.048.916-.1.32L21.9 16c-.197.32-.422.63-.45 1.023-.155.4.4.93-.105 1.396s-1 2.714-1.02 3.244c-.01.57 1.032 1.872 1.43 2.248.73.688 1.387.95 1.238 1.68zm-.505 2.145c1.076.304 4.105.395 5.576-1.08l.74-.675c.01.246-.008.5-.046.735l-.267 1.987-.017.97c-1.356-.373-3.4-.505-4-.473s-1.437.184-1.918.3z" fill="#1e1e1e"/><path d="M33.9 25.184l-.067-.096.067.096zm-.394-1.4l-.087-.083.087.083z" fill="#dda516"/><path d="M21.888 26.837l.043.07-.043-.07z" fill="#8c5f07"/><path d="M33.42 23.7h-.002.001z" fill="#e3a906"/><path d="M21.448 26.19c-.786-.815-1.39-1.804-1.942-2.91-.29-.582-1.18-1.044-1.512-.13s-.86 1.285-1.724 1.17c-.63-.084-1.223.4-.96 1.198.285.86.6 1.533-.014 2.135s-.37 1.225.508 1.344 3.2.645 4.523 1.35 2.398-.628 2.54-1.022c.352-.976-.632-2.32-1.42-3.135z" fill="#ff8c00"/><path d="M24.422 16.628c-.75 0-1.253-.71-1.607-1.33-.003 0-1.162-1.626-.74-2.524.06-.126.158-.338 1.35-1.075l.222-.188.212-.107.137-.054c.164-.052.35-.104.528-.104h.082l.158.037.355.12 2.897 1.07.08.434c.066.353-.022.66-.094.905l-.1.425-.248.09c-.22.08-.56.446-.836.74s-.53.568-.796.74l-.298.22c-.415.31-.806.603-1.295.603z" fill="#1e1e1e"/><path d="M26.355 13.07c-.513.443-1.1.824-1.828.844-.027.023-.027.023 0 0 .005-.166-.005-.325-.146-.446-.117-.1-.13-.248-.097-.378.137-.524.053-1.055.073-1.582-.137-.046-.45.07-.492.08l-.19.096-.218.182c-.093.058-1.078.66-1.18.873-.26.552.596 1.905.72 2.063 1 1.755 1.555.994 2.494.337.504-.326 1.16-1.32 1.73-1.53.07-.283.19-.557.134-.86-.36.02-.68.044-1 .32z" fill="#ff8c00"/><path d="M23.942 11.516z" fill="#e3a906"/><path d="M26.946 12.35c.217.11.415.233.41.518-.395.024-.746.05-1.096.353-.56.485-1.32 1.203-2.12 1.225.032-.262-.345-.64-.243-1.086.132-.577.153-1.272.175-1.85.365-.146.704-.013 1.046.094l.427.258.747.286c.196.134.43.15.652.202z" fill="#fcd116"/></g><path d="M23 10.554h1v1h-1zm3 0h1v1h-1z" opacity=".9" fill="#fff"/></svg>