<svg xmlns="http://www.w3.org/2000/svg" xmlns:xlink="http://www.w3.org/1999/xlink" width="50" height="50"><path fill="#a0a1a2" d="M35.723 0H2.066C.923 0 .001 1.02.001 2.162V25.6c0 1.134.922 2.144 2.066 2.144h33.656c1.14 0 2.297-1 2.297-2.144V2.162C38.02 1.018 36.864 0 35.723 0"/><path opacity=".2" fill="#fff" d="M35.746.002c-.008 0-.016-.002-.024-.002H2.066C.922.001 0 1.02 0 2.163V25.6c0 1.134.922 2.144 2.066 2.144h.8L35.746.002z"/><path fill="#59b4d9" d="M35.13 24.823H2.882v-21.9l32.247-.047z"/><use xlink:href="#B" fill="#b8d432"/><use xlink:href="#C" fill="#fff"/><path fill="#a0a1a2" d="M41.67 7.456H8.015c-1.144 0-2.066 1.02-2.066 2.162v23.44c0 1.134.922 2.144 2.066 2.144H41.67c1.14 0 2.297-1 2.297-2.144V9.618c.001-1.144-1.155-2.162-2.297-2.162"/><path opacity=".2" fill="#fff" d="M41.695 7.458c-.008 0-.016-.002-.024-.002H8.015c-1.144 0-2.066 1.02-2.066 2.162v23.438c0 1.134.922 2.144 2.066 2.144h.8l32.88-27.742z"/><path fill="#59b4d9" d="M41.078 32.28H8.83v-21.9l32.248-.047z"/><use xlink:href="#B" x="5.948" y="7.457" fill="#b8d432"/><path fill="#fff" d="M25.374 20.664c-.035 0-.07-.01-.102-.03l-6.695-3.86c-.06-.036-.1-.104-.1-.175s.04-.14.1-.175l6.654-3.834c.062-.035.138-.035.2 0l6.697 3.86c.062.036.1.103.1.175s-.037.14-.1.175l-6.652 3.833c-.033.018-.065.028-.102.028"/><path fill="#7a7a7a" d="M36.636 42.698h-10.34c1.242 4.38-.427 5.008-7.737 5.008V50h24.858v-2.293c-7.31-.001-8.026-.626-6.782-5.01"/><path fill="#a0a1a2" d="M47.703 14.955H14.047c-1.144 0-2.066 1.02-2.066 2.162v23.44c0 1.134.922 2.144 2.066 2.144h33.656c1.14 0 2.297-1 2.297-2.144v-23.44c0-1.143-1.156-2.162-2.297-2.162"/><path opacity=".2" fill="#fff" d="M47.727 14.958c-.008 0-.016-.002-.024-.002H14.046c-1.144 0-2.066 1.02-2.066 2.162v23.438c0 1.134.922 2.144 2.066 2.144h.8l32.88-27.742z"/><path fill="#59b4d9" d="M47.11 39.78H14.862v-21.9l32.247-.048z"/><path fill="#a0a1a2" d="M18.56 47.706H43.42V50H18.56z"/><use xlink:href="#B" x="11.98" y="14.956" fill="#b8d432"/><g fill="#fff"><use xlink:href="#C" x="11.98" y="14.954"/><path opacity=".7" d="M30.443 37.544c-.038 0-.072-.01-.102-.027l-6.675-3.847c-.065-.036-.104-.1-.104-.175v-7.72c0-.073.04-.14.104-.175s.137-.037.204 0l6.674 3.846c.06.038.1.104.1.177v7.72c0 .074-.04.14-.1.175-.033.017-.068.026-.1.026"/><path opacity=".4" d="M32.333 37.544c-.037 0-.07-.01-.105-.027-.06-.036-.098-.102-.098-.175V29.67a.21.21 0 0 1 .098-.175l6.674-3.845a.2.2 0 0 1 .201 0c.064.036.102.102.102.175v7.67c0 .074-.04.14-.102.175l-6.672 3.847c-.028.017-.064.026-.098.026"/></g><defs ><path id="B" d="M19.404 1.59a.54.54 0 0 1-.54.539.54.54 0 0 1-.539-.539.54.54 0 0 1 .539-.539.54.54 0 0 1 .54.539"/><path id="C" d="M19.425 13.21c-.035 0-.07-.01-.102-.03l-6.695-3.86c-.06-.036-.1-.104-.1-.175s.04-.14.1-.175l6.654-3.834c.062-.035.138-.035.2 0l6.697 3.86c.062.036.1.103.1.175s-.037.14-.1.175l-6.652 3.833c-.032.017-.065.028-.102.028"/></defs></svg>