<svg xmlns="http://www.w3.org/2000/svg" width="50" height="46"><path d="M46.98 0H2.718C1.214 0 .001 1.345.001 2.847v31.33C.001 35.67 1.214 37 2.718 37h44.26c1.5 0 3.02-1.33 3.02-2.823V2.847C50 1.34 48.48 0 46.98 0" fill="#804998"/><path d="M47 .003c-.01 0-.02-.002-.03-.002H2.717C1.213.001 0 1.345 0 2.848v31.328C0 35.67 1.213 37 2.717 37H3.77z" opacity=".2" fill="#fff"/><path d="M4 33V4h42v29z" fill="#804998"/><path d="M4 33V4h42v29z" opacity=".4" fill="#fff"/><path d="M35.433 28.997l-19.6-1.58a.9.9 0 0 1-.824-.894v-15.05c0-.464.362-.856.825-.894L35.44 9c.564 0 .962.4.962.894v18.2a.89.89 0 0 1-.264.636c-.17.167-.393.26-.63.26z" opacity=".2" fill="#804998"/><path d="M35.505 18.3V9.894l-9.805.8V18.3zm-11.205 0v-7.503l-8.405.677V18.3zm11.205 1.4v8.404l-9.805-.8V19.7zm-11.205 0v7.5l-8.405-.677V19.7z" opacity=".8" fill="#fff"/><path d="M38 46H12a4 4 0 0 1 4-4h18a4 4 0 0 1 4 4z" fill="#804998"/><path d="M21 37h8v5h-8z" fill="#68217a"/><path d="M25.517 2.095a.71.71 0 0 1-.71.71.71.71 0 0 1-.709-.71.71.71 0 0 1 .709-.71.71.71 0 0 1 .71.71" fill="#b8d432"/></svg>