<svg xmlns="http://www.w3.org/2000/svg" width="50" height="50" viewBox="-454 256 50 50"><path d="M-429.3 298.7h-10.4c1.2 4.4-.4 5-7.7 5v2.3h24.9v-2.3c-7.4 0-8.1-.6-6.8-5" fill="#7a7a7a"/><path d="M-418.3 271H-452c-1.1 0-2.1 1-2.1 2.2v23.4c0 1.1.9 2.1 2.1 2.1h33.7c1.1 0 2.3-1 2.3-2.1v-23.4c0-1.2-1.1-2.2-2.3-2.2" fill="#a0a1a2"/><path d="M-418.3 271H-452c-1.1 0-2.1 1-2.1 2.2v23.4c0 1.1.9 2.1 2.1 2.1h.8l32.9-27.7z" opacity=".2" fill="#fff" enable-background="new"/><path d="M-418.9 295.8h-32.2v-21.9l32.2-.1z" fill="#59b4d9"/><path d="M-447.4 303.7h24.9v2.3h-24.9z" fill="#a0a1a2"/><path d="M-434.6 272.5a.47.47 0 1 1-1 0 .47.47 0 1 1 1 0" fill="#b8d432"/><g fill="#fff"><path d="M-434.6 284.2h-.1l-6.7-3.9c-.1 0-.1-.1-.1-.2s0-.1.1-.2l6.7-3.8h.2l6.7 3.9c.1 0 .1.1.1.2s0 .1-.1.2l-6.7 3.8h-.1"/><path d="M-435.5 293.5h-.1l-6.7-3.8c-.1 0-.1-.1-.1-.2v-7.7c0-.1 0-.1.1-.2h.2l6.7 3.8c.1 0 .1.1.1.2v7.7c0 .1 0 .1-.1.2h-.1" opacity=".7" enable-background="new"/><path d="M-433.6 293.5h-.1c-.1 0-.1-.1-.1-.2v-7.7c0-.1 0-.1.1-.2l6.7-3.8h.2c.1 0 .1.1.1.2v7.7c0 .1 0 .1-.1.2l-6.8 3.8" opacity=".4" enable-background="new"/></g><path d="M-432.3 256h6.7v5h-6.7zm-10 0h6.7v5h-6.7zm33.3 45h-6.3v5h8a3.33 3.33 0 0 0 3.3-3.3v-5h-5v3.3zm0-13.3h5v6.7h-5zm-40-26.7h3.3v-5h-5a3.33 3.33 0 0 0-3.3 3.3v8h5V261zm40 16.7h5v6.7h-5z" fill="#b8d432"/><path d="M-404 256h-15l5.6 5.6-5 4.9 3.9 3.9 5-4.9 5.5 5.5z" fill="#0f0f0f"/></svg>