<svg xmlns="http://www.w3.org/2000/svg" width="44.8" height="50"><path d="M39.5 18.5v-2.2c0-4.4-1.6-8.5-4.4-11.4-2.6-3-8.4-4.9-12.7-4.9S12.3 1.9 9.7 4.9c-2.7 2.9-4.4 7-4.4 11.4v2.2l7.9.9v-2c0-2.6.9-5.9 2.4-7.6s4.7-2.5 6.8-2.6c2.1 0 5.3.9 6.8 2.6a9.55 9.55 0 0 1 2.4 6.4v3.2l7.9-.9z" fill="#a0a1a2"/><path d="M5.3 18.5c-3.9 0-5.3 2.3-5.3 5.3v20.9C0 47.3 1.6 50 4.6 50h35.6c3.4 0 4.6-2.7 4.6-5.3V23.8c0-2.7-1.1-5.3-5.3-5.3H5.3z" fill="#59b4d9"/><g fill="#fff"><path d="M31.5 18.5H5.3c-3.9 0-5.3 2.3-5.3 5.3v20.9C0 47.3 1.6 50 4.6 50h6.7l20.2-31.5z" opacity=".15"/><path d="M16.4 27.1l5.8-5.8 5.8 5.8h-4.1v4.2h-3.5v-4.2h-4zM5.7 35.9v-3.4h6v-4l5.6 5.6-5.6 5.6v-3.9h-6v.1zm16.5 11.3l-5.9-5.9h4.1v-4.1h3.5v4.1h4.2l-5.9 5.9zm16.5-11.3h-6v4L27 34.2l5.7-5.7v4h6v3.4z"/></g></svg>