<svg xmlns="http://www.w3.org/2000/svg" height="50" width="50"><path fill="#7a7a7a" d="M32.4 36.5H18.8c1.6 5.8-.6 6.6-10.2 6.6v3h32.6v-3c-9.5 0-10.4-.8-8.8-6.6"/><path fill="#a0a1a2" d="M47 0H2.7C1.2 0 0 1.3 0 2.8v30.9c0 1.5 1.2 2.8 2.7 2.8H47c1.5 0 3-1.3 3-2.8V2.8C50 1.3 48.5 0 47 0m-.8 3.8v28.8H3.8V3.8l42.4-.1v.1z"/><path fill="#59b4d9" d="M46.2 3.8v28.9H3.8V3.8h42.4z"/><path opacity=".2" fill="#fff" d="M3.8 32.7V3.8l38.7-.1L47 0H2.7C1.2 0 0 1.3 0 2.8v30.9c0 1.5 1.2 2.8 2.7 2.8h1.1l4.6-3.8H3.8z"/><path fill="#59b4d9" d="M3.8 32.7V3.8z"/><path fill="#a0a1a2" d="M8.7 43.1h32.7v3H8.7z"/><path d="M25.5 3.9a.68.68 0 0 1-.7.7.68.68 0 0 1-.7-.7.68.68 0 0 1 .7-.7c.4 0 .7.4.7.7m19.7 22.3c0 3.4-2.8 6.2-6.2 6.2s-6.2-2.8-6.2-6.2S35.6 20 39 20s6.2 2.8 6.2 6.2m-1.7 8.2L39 40.7l-4.5-6.3H28V50h22V34.4z" fill="#b8d432"/><path opacity=".2" d="M32.8 26.2c0 3.4 2.7 6.1 6 6.2l1.5-12.1c-.4-.2-.8-.3-1.3-.3-3.4 0-6.2 2.8-6.2 6.2m1.7 8.2H28V50h8.6L38 39.3z" fill="#fff"/></svg>