<svg xmlns="http://www.w3.org/2000/svg" height="47" width="42"><path d="M30 44.5c0 1.4-1.1 2.5-2.5 2.5h-25C1.1 47 0 45.9 0 44.5v-42C0 1.1 1.1 0 2.5 0h24.9C28.9 0 30 1.1 30 2.5z" fill="#a0a1a2"/><path d="M4 5h6v7H4zm8 0h6v7h-6zm8 0h6v7h-6zM4 16h6v7H4zm8 0h6v7h-6zM4 27h6v7H4zm8 0h6v7h-6z" fill="#0072c6"/><path d="M20 27h6v7h-6z" fill="#777"/><path d="M42 44.5c0 1.4-1.1 2.5-2.5 2.5h-17c-1.4 0-2.5-1.1-2.5-2.5v-28c0-1.4 1.1-2.5 2.5-2.5h16.9c1.4 0 2.5 1.1 2.5 2.5v28z" fill="#7a7a7a"/><path d="M24 19h6v7h-6zm8 0h6v7h-6zm-8 11h6v7h-6zm8 0h6v7h-6z" fill="#59b4d9"/></svg>