<svg xmlns="http://www.w3.org/2000/svg" width="49.9" height="49.897"><path d="M43.663 28.523a15.83 15.83 0 0 1-9.646 3.277c-4.783 0-9.512-2.148-12.637-6.236a15.89 15.89 0 0 1 2.962-22.289A15.75 15.75 0 0 1 33.987 0C38.77 0 43.5 2.148 46.624 6.24c5.34 6.97 4 16.946-2.96 22.283" fill="#59b4d9"/><path d="M40.742 18.688c1.155 1.506 3.298 1.78 4.796.64.078-.06.14-.132.2-.197l3.196 2.2c.177-.46.3-.9.426-1.363l-2.728-2.135c.406-1.07.278-2.316-.464-3.29a3.41 3.41 0 0 0-4.411-.876l-5.274-4.983c5.83-3.135 9.97-2.676 9.97-2.676-.693-.88-1.468-1.653-2.295-2.35-2.458-.38-6.277-.337-10.64 1.984h-.001c-1.455-1.522-2.935-3.154-4.442-4.906-.72.23-1.426.517-2.106.857 1.112 1.82 2.61 3.657 4.296 5.448a30.7 30.7 0 0 0-4.405 3.837c-.184.197-.362.394-.536.592-.863-.18-1.77-.128-2.618.18-1.44-3.107-1.324-5.604-1.096-6.89-.625.655-1.21 1.344-1.712 2.078-.376 1.536-.483 3.752.626 6.422-1.284 1.68-1.345 4.064-.003 5.822.112.146.232.28.356.4-.586 1.996-.848 3.92-.93 5.573.15.205.15.37.3.57.763.978 1.72 1.803 2.646 2.55-.114-1.75.01-4.33 1.1-7.234.746.057 1.505-.06 2.215-.36.407.358.833.72 1.288 1.088 1.56 1.235 3.116 2.197 4.633 2.954a3.16 3.16 0 0 0 .616 2.238 3.18 3.18 0 0 0 4.441.585c.288-.22.516-.487.705-.774 2.473.55 4.635.648 6.237.648.245 0 1.385-1.55 2.037-2.5-.976.204-3.87.602-7.823-.534-.095-.444-.278-.875-.57-1.26-1.004-1.317-2.84-1.602-4.21-.72-1.374-.746-2.814-1.68-4.298-2.856-.3-.237-.587-.474-.864-.71a4.82 4.82 0 0 0 .202-4.803l.554-.545c1.47-1.373 2.852-2.473 4.146-3.355-.052-.048-.1-.1-.15-.148l.152.144c1.984 1.837 4.088 3.577 6.082 5.13-.53 1.12-.447 2.483.355 3.53z" fill="#fff"/><path d="M42 28.147v-6.5a.75.75 0 0 0-.75-.75h-4.5a.75.75 0 0 0-.75.75.75.75 0 0 0-.75-.75h-10.5a.75.75 0 0 0-.75.75.75.75 0 0 0-.75-.75h-10.5a.75.75 0 0 0-.75.75.75.75 0 0 0-.75-.75H.75a.75.75 0 0 0-.75.75v6.5a.75.75 0 0 0 .75.75.75.75 0 0 0-.75.75v5.5a.75.75 0 0 0 .75.75.75.75 0 0 0-.75.75v5.5a.75.75 0 0 0 .75.75.75.75 0 0 0-.75.75v5.5a.75.75 0 0 0 .75.75h4.5a.75.75 0 0 0 .75-.75.75.75 0 0 0 .75.75h10.5a.75.75 0 0 0 .75-.75.75.75 0 0 0 .75.75h10.5a.75.75 0 0 0 .75-.75.75.75 0 0 0 .75.75h10.5a.75.75 0 0 0 .75-.75v-5.5a.75.75 0 0 0-.75-.75.75.75 0 0 0 .75-.75v-5.5a.75.75 0 0 0-.75-.75.75.75 0 0 0 .75-.75v-5.5a.75.75 0 0 0-.75-.75.75.75 0 0 0 .75-.75z" fill="#a0a1a2"/><path d="M13 22.897h10v5H13zm12 0h10v5H25z" fill="#ba141a"/><path d="M1 22.897h10v5H1zm18 7h10v5H19z" fill="#dd5900"/><path d="M31 29.897h10v5H31zm-30 0h4v5H1zm6 0h10v5H7zm6 7h10v5H13z" fill="#ba141a"/><path d="M25 36.897h10v5H25zm-24 0h10v5H1z" fill="#dd5900"/><path d="M31 43.897h10v5H31zm-12 0h10v5H19z" fill="#ba141a"/><path d="M1 43.897h4v5H1zm36-21h4v5h-4zm0 14h4v5h-4z" fill="#dd5900"/><path d="M7 43.897h10v5H7z" fill="#ba141a"/></svg>