<svg xmlns="http://www.w3.org/2000/svg" height="50" width="50" viewBox="0 0 180 180"><path fill="#59b4d9" d="M118.8 132.5c-13.3 10.1-29.2 15.1-44.6 15.1-22.3 0-44.3-10.1-58.7-28.8C-9.7 86.4-3.6 40 28.8 15.1 42.5 5 58 0 73.8 0c22.3 0 44.3 10.1 58.7 28.8 24.8 32.4 18.3 78.8-13.7 103.7"/><path fill="#fff" d="M132.5 82.8c1.8-5 1.4-10.8-2.2-15.1-5-6.5-13.7-7.9-20.5-4-7.6-6.8-15.8-14.4-24.5-23 26.3-14.4 45-13 46.1-13-3.2-4-6.8-7.6-10.8-10.8-11.5-1.8-29.2-1.4-49.3 9.4-6.8-6.8-13.7-14.4-20.5-22.7-3.2 1.1-6.5 2.5-9.7 4 5 8.3 11.9 16.9 19.8 25.2-6.9 4.6-13.7 10.4-20.6 17.6-.7 1.1-1.8 1.8-2.5 2.9-4-.7-8.3-.7-12.2.7-6.5-14.4-6.1-25.6-5-31.7L13 32c-1.8 7.2-2.2 17.3 2.9 29.5-6.1 7.9-6.1 18.7 0 27 .4.7 1.1 1.4 1.8 1.8-2.5 9-4 18-4.3 25.6l1.8 2.9c3.6 4.7 7.6 8.6 11.9 12.2-.4-8.3 0-20.2 5-33.5 3.6.4 6.8-.4 10.4-1.8 1.8 1.8 4 3.2 6.1 5 7.2 5.8 14.4 10.1 21.6 13.7-.4 3.6.4 7.2 2.9 10.4 5 6.5 14 7.6 20.5 2.9 1.4-1.1 2.5-2.2 3.2-3.6 11.2 2.5 21.2 2.9 28.4 2.9 3.2-3.2 6.5-6.8 9-10.4.4-.4.4-.7.7-1.1-4.7 1.1-18 2.9-36.4-2.5-.4-2.2-1.4-4-2.5-5.8-4.7-6.1-13.3-7.6-19.4-3.2-6.5-3.6-13-7.9-19.8-13.3-1.4-1.1-2.9-2.2-4-3.2 4.3-6.5 4.7-15.1 1.1-22.3l2.5-2.5C63 56.9 70.2 51.1 76 47.2c9.3 8.6 19 16.5 28 23.7-2.5 5-2.2 11.5 1.8 16.2 5.4 6.8 15.5 8.3 22.3 2.9l1.1-1.1c6.5 4.7 11.9 8.3 14.8 10.1.7-2.2 1.4-4.3 1.8-6.5-3.6-2.1-7.9-5.4-13.3-9.7z"/><path fill="#7a7a7a" d="M161.6 93.2l-1.4.7-11.2 5.8-7.6-3.2-4.7-13.3H126l-.7 1.4-4 11.9-7.6 3.2-12.6-6.1-7.6 7.9.7 1.4 5.8 11.2-3.2 7.6-13.3 4.7v11.2l1.4.4 11.9 4 3.2 7.6-6 12.4 7.9 7.9 1.4-.7 11.2-5.8 7.6 3.2 4.7 13.3H138l.4-1.4 4-11.9 7.6-3.2 13 6.1 7.9-7.9-7.2-12.6 3.2-7.6 13.3-4.7V126l-1.4-.7-11.9-4-3.2-7.6 5.4-11.5-7.5-9zm-29.8 54c-8.6 0-15.5-6.8-15.5-15.5 0-8.6 6.8-15.5 15.5-15.5s15.5 6.8 15.5 15.5c-.1 8.7-6.9 15.5-15.5 15.5z"/><path opacity=".25" fill="#fff" d="M116.3 131.8c0-8.6 6.8-15.5 15.5-15.5 2.2 0 4 .4 5.8 1.1l7.9-19.1-3.6-1.4-5-13.7H126l-.7 1.4-4 11.9-7.6 3.2-12.6-6.1-7.6 7.9.7 1.4 5.8 11.2-3.2 7.6-13.3 4.7v11.2l1.4.4 11.9 4 3.2 7.6-6 12.4 7.9 7.9 1.4-.7 11.2-5.8 3.2 1.4 7.9-19.1c-5.4-2.4-9.3-7.8-9.3-13.9z"/><path fill="#7a7a7a" d="M72.6 128.7l-.9.4-6.6 3.4-4.5-1.9-2.8-7.9h-6.4l-.4.9-2.3 7-4.5 1.9-7.4-3.6-4.5 4.7.4.9 3.4 6.6-1.9 4.5-7.9 2.8v6.6l.9.2 7 2.3 1.9 4.5-3.6 7.4 4.7 4.7.9-.4 6.6-3.4 4.5 1.9 2.8 7.9h6.6l.2-.9 2.3-7 4.5-1.9 7.7 3.6 4.7-4.7-4.3-7.4 1.9-4.5 7.9-2.8v-6.4l-.9-.4-7-2.3-1.9-4.5 3.2-6.8-4.3-5.4zm-17.7 31.9c-5.1 0-9.1-4-9.1-9.1s4-9.1 9.1-9.1 9.1 4 9.1 9.1-4 9.1-9.1 9.1z"/><path opacity=".25" fill="#fff" d="M45.8 151.5c0-5.1 4-9.1 9.1-9.1a9.34 9.34 0 0 1 3.4.6l4.7-11.3-2.1-.9-3-8.1h-6.4l-.4.9-2.3 7-4.5 1.9-7.4-3.6-4.5 4.7.4.9 3.4 6.6-1.9 4.5-7.9 2.8v6.6l.9.2 7 2.3 1.9 4.5-3.6 7.4 4.7 4.7.9-.4 6.6-3.4 1.9.9 4.7-11.3c-3.3-1.6-5.6-4.8-5.6-8.4z"/></svg>