<svg xmlns="http://www.w3.org/2000/svg" width="50" height="50"><path d="M31.4 35.018c-3.538 2.705-7.706 4.023-11.845 4.023-5.873 0-11.68-2.637-15.518-7.656C-2.53 22.824-.912 10.58 7.664 4.02 11.2 1.3 15.374 0 19.508 0 25.38 0 31.2 2.637 35.026 7.66a19.51 19.51 0 0 1-3.636 27.357" fill="#59b4d9"/><g fill="#fff"><path d="M27.803 22.944c1.418 1.85 4.05 2.184 5.89.784.096-.073.17-.162.258-.24l3.924 2.7c.218-.565.37-1.107.523-1.673l-3.35-2.62c.5-1.312.34-2.843-.57-4.038-1.303-1.687-3.613-2.116-5.417-1.075l-6.477-6.117c7.158-3.85 12.243-3.286 12.243-3.286-.85-1.082-1.8-2.03-2.816-2.887-3.018-.466-7.707-.414-13.065 2.436l-.002-.002h-.001A158.35 158.35 0 0 1 13.489.9c-.886.283-1.75.634-2.587 1.052 1.366 2.235 3.204 4.5 5.275 6.69-1.714 1.22-3.637 2.835-5.4 4.71-.226.24-.444.484-.658.727-1.06-.222-2.174-.157-3.215.22-1.768-3.815-1.626-6.88-1.346-8.46-.768.806-1.485 1.65-2.102 2.553-.462 1.886-.593 4.606.77 7.884-1.577 2.063-1.65 5-.004 7.148.137.18.284.345.437.504a29.58 29.58 0 0 0-1.14 6.842c.185.25.185.455.37.7.936 1.2 2.113 2.213 3.25 3.13-.14-2.148.01-5.315 1.34-8.88.916.07 1.848-.075 2.72-.442.5.44 1.023.884 1.58 1.336 1.916 1.517 3.827 2.697 5.69 3.626-.097.947.14 1.932.756 2.747 1.316 1.7 3.753 2.016 5.454.718.354-.27.633-.598.865-.95 3.037.676 5.69.796 7.658.796.3 0 1.7-1.902 2.5-3.082-1.198.25-4.75.74-9.606-.656a3.86 3.86 0 0 0-.701-1.546c-1.233-1.617-3.488-1.967-5.17-.885-1.688-.915-3.455-2.063-5.278-3.507a35.37 35.37 0 0 1-1.061-.873c1.114-1.755 1.232-4.004.248-5.896l.68-.67c1.805-1.686 3.503-3.036 5.09-4.12-.064-.06-.122-.122-.184-.182l.187.177c2.435 2.255 5.02 4.39 7.467 6.3-.647 1.372-.545 3.044.44 4.332z"/><circle cx="34.938" cy="34.938" r="15.062"/></g><path d="M22.975 34.938c0 4.735 2.752 8.828 6.743 10.767L24 30.07c-.664 1.488-1.036 3.134-1.036 4.87zm20.04-.604c0-1.48-.53-2.503-.986-3.3-.606-.986-1.175-1.82-1.175-2.806 0-1.1.834-2.123 2-2.123.053 0 .103.006.155.01a11.92 11.92 0 0 0-8.079-3.141c-4.18 0-7.857 2.145-9.996 5.392l.77.015c1.25 0 3.188-.152 3.188-.152.645-.038.72.9.077.986 0 0-.648.076-1.37.114l4.356 12.96 2.618-7.852-1.864-5.107c-.645-.038-1.255-.114-1.255-.114-.645-.038-.57-1.024.076-.986 0 0 1.975.152 3.15.152 1.25 0 3.2-.152 3.2-.152.645-.038.72.9.076.986 0 0-.65.076-1.37.114L40.9 42.2l1.194-3.987c.517-1.657.9-2.845.9-3.87zm-7.866 1.65l-3.6 10.43a11.97 11.97 0 0 0 3.38.487 11.96 11.96 0 0 0 3.973-.678 1.22 1.22 0 0 1-.086-.165zm10.288-6.786c.05.38.08.8.08 1.23 0 1.214-.227 2.578-.9 4.285l-3.654 10.565c3.557-2.074 5.95-5.927 5.95-10.34 0-2.08-.53-4.035-1.465-5.74zm-10.498-8.206a13.96 13.96 0 0 0-13.946 13.946c0 7.7 6.256 13.946 13.946 13.946s13.946-6.256 13.946-13.946-6.256-13.946-13.946-13.946zm0 27.253c-7.337 0-13.306-5.97-13.306-13.307s5.97-13.306 13.306-13.306 13.307 5.97 13.307 13.306-5.97 13.307-13.307 13.307z" fill="#464342"/></svg>