<svg xmlns="http://www.w3.org/2000/svg" width="50" height="50"><path d="M31.4 35.018c-3.538 2.705-7.706 4.023-11.845 4.023-5.873 0-11.68-2.637-15.518-7.656C-2.53 22.824-.912 10.58 7.664 4.02 11.2 1.3 15.374 0 19.508 0 25.38 0 31.2 2.637 35.026 7.66a19.51 19.51 0 0 1-3.636 27.357" fill="#59b4d9"/><g fill="#fff"><path d="M27.803 22.944c1.418 1.85 4.05 2.184 5.89.784.096-.073.17-.162.258-.24l3.924 2.7c.218-.565.37-1.107.523-1.673l-3.35-2.62c.5-1.312.34-2.843-.57-4.038-1.303-1.687-3.613-2.116-5.417-1.075l-6.477-6.117c7.158-3.85 12.243-3.286 12.243-3.286-.85-1.082-1.8-2.03-2.816-2.887-3.018-.466-7.707-.414-13.065 2.436l-.002-.002h-.001A158.35 158.35 0 0 1 13.489.9c-.886.283-1.75.634-2.587 1.052 1.366 2.235 3.204 4.5 5.275 6.69-1.714 1.22-3.637 2.835-5.4 4.71-.226.24-.444.484-.658.727-1.06-.222-2.174-.157-3.215.22-1.768-3.815-1.626-6.88-1.346-8.46-.768.806-1.485 1.65-2.102 2.553-.462 1.886-.593 4.606.77 7.884-1.577 2.063-1.65 5-.004 7.148.137.18.284.345.437.504a29.58 29.58 0 0 0-1.14 6.842c.185.25.185.455.37.7.936 1.2 2.113 2.213 3.25 3.13-.14-2.148.01-5.315 1.34-8.88.916.07 1.848-.075 2.72-.442.5.44 1.023.884 1.58 1.336 1.916 1.517 3.827 2.697 5.69 3.626-.097.947.14 1.932.756 2.747 1.316 1.7 3.753 2.016 5.454.718.354-.27.633-.598.865-.95 3.037.676 5.69.796 7.658.796.3 0 1.7-1.902 2.5-3.082-1.198.25-4.75.74-9.606-.656a3.86 3.86 0 0 0-.701-1.546c-1.233-1.617-3.488-1.967-5.17-.885-1.688-.915-3.455-2.063-5.278-3.507a35.37 35.37 0 0 1-1.061-.873c1.114-1.755 1.232-4.004.248-5.896l.68-.67c1.805-1.686 3.503-3.036 5.09-4.12-.064-.06-.122-.122-.184-.182l.187.177c2.435 2.255 5.02 4.39 7.467 6.3-.647 1.372-.545 3.044.44 4.332z"/><circle cx="34.938" cy="34.938" r="15.062"/></g><path d="M20.992 34.955c0-7.712 6.244-13.963 13.946-13.963s13.946 6.25 13.946 13.963-6.244 13.963-13.946 13.963-13.946-6.25-13.946-13.963zm13.663 4.776c-1.37.001-2.447-.094-3.222-.3-.852-.216-1.44-.688-1.762-1.416s-.476-1.85-.46-3.36c.007-.815.056-1.605.148-2.37a31.77 31.77 0 0 1 .274-1.895l.096-.495a.34.34 0 0 0 .003-.045c0-.14-.102-.256-.235-.28l-1.802-.28c-.015-.003-.03-.004-.045-.004-.134 0-.246.093-.276.218a7.3 7.3 0 0 0-.103.476c-.104.53-.198 1.045-.303 1.79s-.173 1.567-.203 2.468c0 0-.044.2 0 1.727s.306 2.746.787 3.658 1.297 1.57 2.447 1.97 2.752.596 4.805.588h.267c2.053.01 3.654-.188 4.805-.588s1.966-1.057 2.447-1.97.743-2.13.787-3.658 0-1.727 0-1.727c-.03-.9-.098-1.724-.203-2.468s-.2-1.26-.303-1.79a8.36 8.36 0 0 0-.102-.476c-.03-.125-.142-.218-.276-.218-.015 0-.03.001-.045.004l-1.802.28c-.134.023-.235.14-.235.28 0 .015.001.03.004.045l.096.495a32.49 32.49 0 0 1 .274 1.895c.09.764.14 1.554.148 2.37.016 1.512-.137 2.633-.46 3.36s-.9 1.2-1.762 1.416c-.774.197-1.85.292-3.22.3z" fill="#ff6e00" fill-rule="evenodd"/></svg>