<svg xmlns="http://www.w3.org/2000/svg" width="50" height="41.611"><path d="M6 27.623h38l6 11H0z" fill="#b8d432"/><path d="M35.387 30.374c-3.07 2.347-6.684 3.49-10.274 3.49-5.094 0-10.13-2.287-13.46-6.64a16.92 16.92 0 0 1 3.156-23.736C17.876 1.126 21.496 0 25.082 0c5.094 0 10.132 2.287 13.46 6.645 5.688 7.423 4.27 18.045-3.155 23.73" fill="#59b4d9"/><path d="M32.276 19.9a3.65 3.65 0 0 0 5.108.68c.083-.063.148-.14.224-.21l3.54 2.436c.19-.5.315-.954.45-1.445L38.56 19c.433-1.138.296-2.465-.494-3.503a3.63 3.63 0 0 0-4.698-.933L27.75 9.248c6.208-3.34 10.62-2.85 10.62-2.85-.736-.94-1.562-1.76-2.443-2.504-2.618-.404-6.685-.36-11.332 2.113l-.002-.002h-.001c-1.55-1.62-3.125-3.358-4.73-5.224a15.84 15.84 0 0 0-2.244.912c1.185 1.94 2.78 3.894 4.575 5.802l.02.02a31.72 31.72 0 0 0-4.713 4.065 27.57 27.57 0 0 0-.571.631c-.92-.192-1.886-.136-2.79.19-1.534-3.31-1.41-5.967-1.168-7.337a17.86 17.86 0 0 0-1.824 2.213c-.4 1.637-.514 3.996.667 6.84-1.368 1.8-1.432 4.328-.004 6.2a5.14 5.14 0 0 0 .379.437c-.624 2.125-.903 4.175-.99 5.935.16.218.16.394.32.607.812 1.042 1.84 2.027 2.824 2.822-.122-1.862.003-4.717 1.155-7.8a5.09 5.09 0 0 0 2.359-.383c.434.382.887.767 1.372 1.16 1.66 1.315 3.32 2.34 4.935 3.145-.084.822.122 1.676.656 2.383 1.14 1.474 3.255 1.75 4.73.622a3.32 3.32 0 0 0 .75-.824c2.635.587 4.936.7 6.643.7.26 0 1.475-1.65 2.17-2.673-1.04.218-4.12.64-8.332-.57-.102-.472-.296-.932-.608-1.34-1.07-1.402-3.026-1.705-4.483-.767-1.464-.794-2.997-1.79-4.578-3.04-.32-.252-.625-.505-.92-.757.966-1.522 1.07-3.473.216-5.114l.6-.58c1.565-1.462 3.038-2.633 4.416-3.573-.042-.038-.078-.114-.118-.153.04.038.08.08.12.08h-.001c2.114 2 4.356 3.843 6.48 5.498-.563 1.19-.475 2.674.38 3.8z" fill="#fff"/><path d="M0 38.61h50v3H0z" fill="#7a7a7a"/><path d="M0 38.61h50v3H0z" opacity=".5" fill="#dd5900"/></svg>