<svg xmlns="http://www.w3.org/2000/svg" width="255.07" height="237.461" preserveAspectRatio="xMidYMid"><path d="M119.54 99.53l-31.153 52.25c-2.665 4.4-3.984 7.985-1.854 13.58 5.877 15.454-2.414 30.493-17.998 34.575-14.697 3.85-29.016-5.808-31.932-21.543-2.584-13.928 8.224-27.58 23.58-29.757 1.287-.184 2.6-.206 4.762-.368L88.302 109.1c-14.69-14.608-23.435-31.685-21.5-52.844 1.368-14.958 7.25-27.883 18-38.477 20.6-20.287 52.002-23.573 76.245-8 23.285 14.958 33.948 44.094 24.858 69.03l-21.343-5.8c2.855-13.864.743-26.315-8.608-36.98-6.178-7.042-14.106-10.733-23.12-12.093-18.07-2.73-35.814 8.88-41.08 26.618-5.976 20.13 3.068 36.576 27.784 48.967z" fill="#c73a63"/><path d="M149.84 78.44l22.587 39.836c38.02-11.763 66.687 9.284 76.97 31.817 12.42 27.22 3.93 59.457-20.465 76.25-25.04 17.24-56.707 14.293-78.892-7.85l17.407-14.566c21.913 14.193 41.077 13.524 55.305-3.282 12.133-14.337 11.87-35.714-.615-49.75-14.408-16.197-33.707-16.69-57.035-1.143L136.21 98.258c-3.16-5.828-6.648-9.21-13.77-10.442-11.893-2.062-19.572-12.275-20.032-23.718-.453-11.316 6.214-21.545 16.634-25.53 10.322-3.948 22.434-.76 29.378 8.015 5.674 7.17 7.477 15.24 4.492 24.083-.83 2.465-1.906 4.85-3.07 7.773z" fill="#4b4b4b"/><path d="M167.706 186.238h-45.77c-4.387 18.044-13.862 32.612-30.2 41.876-12.692 7.2-26.373 9.642-40.933 7.29C24.005 231.08 2.085 206.95.155 179.773-2.03 149 19.13 121.627 47.333 115.48l5.862 21.264c-25.876 13.202-34.832 29.836-27.6 50.636 6.376 18.305 24.485 28.338 44.147 24.457 20.08-3.962 30.204-20.65 28.968-47.43l57.126.097c7.433.117 13.172-.654 18.773-7.208 9.22-10.784 26.19-9.812 36.12.374 10.148 10.41 9.66 27.157-1.077 37.127-10.36 9.62-26.73 9.106-36.423-1.26-1.993-2.137-3.562-4.674-5.533-7.3z" fill="#4a4a4a"/></svg>