<svg xmlns="http://www.w3.org/2000/svg" xmlns:xlink="http://www.w3.org/1999/xlink" width="50" height="50"><path fill="#3e3e3e" d="M29.364 47.462A2.54 2.54 0 0 1 26.826 50H2.538A2.54 2.54 0 0 1 0 47.462V2.538A2.54 2.54 0 0 1 2.538 0h24.288a2.54 2.54 0 0 1 2.538 2.538v44.924z"/><use xlink:href="#B" fill="#1e1e1e"/><circle fill="#b8d432" cx="7.643" cy="27.024" r="2.142"/><use xlink:href="#B" y="-9.479" fill="#1e1e1e"/><circle fill="#b8d432" cx="7.643" cy="17.545" r="2.142"/><use xlink:href="#B" y="-18.959" fill="#1e1e1e"/><circle fill="#b8d432" cx="7.643" cy="8.065" r="2.142"/><path fill="#59b4d9" d="M49.95 45.373c0-2.555-2.05-4.626-4.585-4.626-.19 0-.38.015-.56.04.28-1.04.434-2.132.434-3.26 0-6.8-5.475-12.33-12.227-12.33-5.395 0-9.97 3.523-11.594 8.413-.856-.3-1.772-.47-2.73-.47-4.62 0-8.357 3.775-8.357 8.43S14.07 50 18.688 50h27.048l-.005-.023c2.36-.186 4.218-2.173 4.218-4.604"/><path opacity=".2" fill="#fff" d="M23.128 50c-1.1-1.092-1.918-2.496-2.3-4.123-1.036-4.538 1.768-9.05 6.27-10.08.934-.213 1.864-.252 2.766-.15.41-4.24 2.995-8.01 6.848-9.872-1.17-.376-2.417-.583-3.712-.583-5.395 0-9.97 3.523-11.594 8.413a8.2 8.2 0 0 0-2.73-.471c-4.62 0-8.357 3.775-8.357 8.43S14.068 50 18.687 50h.012 4.43z"/><defs ><path id="B" d="M4.316 27.024a3.19 3.19 0 0 1 3.191-3.191H22.12a3.19 3.19 0 1 1 0 6.382H7.507a3.19 3.19 0 0 1-3.191-3.191z"/></defs></svg>