<svg xmlns="http://www.w3.org/2000/svg" height="45.705" width="50.14"><path d="M33.14 37c-3.7 2.9-8.1 4.2-12.5 4.2-6.2 0-12.3-2.8-16.4-8.1-6.9-9-5.2-22 3.8-28.9 3.8-2.8 8.2-4.2 12.6-4.2 6.2 0 12.3 2.8 16.4 8.1 6.9 9 5.2 22-3.9 28.9" fill="#59b4d9"/><path d="M29.44 24.2c1.5 2 4.3 2.3 6.2.8l.3-.3 4.3 3c.2-.6.4-1.2.5-1.8l-3.7-2.9c.5-1.4.4-3-.6-4.3-1.4-1.8-3.8-2.2-5.7-1.1l-6.8-6.5c7.6-4.1 12.9-3.5 12.9-3.5-.9-1.1-1.9-2.1-3-3-3.2-.4-8.1-.3-13.8 2.7-1.9-2-3.8-4.1-5.8-6.4-.9.3-1.8.7-2.7 1.1 1.4 2.3 3.4 4.7 5.5 7-1.8 1.3-3.8 3-5.7 5-.2.3-.5.5-.7.8-1.1-.2-2.3-.2-3.4.2-1.9-4-1.7-7.3-1.4-8.9-.8.9-1.5 1.8-2.2 2.8-.5 2-.6 4.9.8 8.3-1.7 2.2-1.7 5.3 0 7.5.1.2.3.4.5.5-.8 2.6-1.1 5.1-1.2 7.2.2.3.2.5.4.7 1 1.3 2.2 2.5 3.4 3.4-.1-2.3 0-5.7 1.4-9.5 1 .1 2-.1 2.9-.5.5.5 1.1.9 1.7 1.4 2 1.6 4 2.8 6 3.8-.1 1 .1 2 .8 2.9 1.4 1.8 4 2.1 5.8.8.4-.3.7-.6.9-1 3.2.7 6 .8 8.1.8.3 0 1.8-2 2.6-3.3-1.3.3-5 .8-10.1-.7-.1-.6-.4-1.1-.7-1.6a4.07 4.07 0 0 0-5.5-.9c-1.8-1-3.6-2.2-5.6-3.7-.4-.3-.8-.6-1.1-.9 1.2-1.9 1.3-4.2.3-6.2l.7-.7c1.9-1.8 3.7-3.2 5.4-4.3l-.2-.2.2.2c2.6 2.4 5.3 4.6 7.9 6.7-.8 1.5-.7 3.3.4 4.6z" fill="#fff"/><path d="M45.04 43v-3.1c0-1.5-1.3-2.8-2.8-2.8h-3.7l-3.5-3.5v-5.4h-3.8v6c0 .5.3 1 .5 1.4l4.5 4.4v2.9c0 1.5 1.3 2.8 2.8 2.8h3.2c1.5.1 2.8-1.2 2.8-2.7m-6.1.3c-.1 0-.3-.1-.3-.3v-3.1c0-.1.1-.3.3-.3h3.2c.1 0 .3.1.3.3V43c0 .1-.1.3-.3.3z" fill="#804998"/><path d="M28.74 28.2h12.6c.1 1.4 1.4 2.5 2.8 2.5h3.2c1.5 0 2.8-1.3 2.8-2.8v-3.1c0-1.5-1.3-2.8-2.8-2.8h-3.2c-1.5 0-2.6 1.1-2.8 2.5h-12.6c-.1-1.4-1.4-2.5-2.8-2.5h-3.2c-1.5 0-2.8 1.3-2.8 2.8v3.1c0 1.5 1.3 2.8 2.8 2.8h3.2c1.5 0 2.7-1.1 2.8-2.5m15.4-3.8h3.2c.1 0 .3.1.3.3v3.1c0 .1-.1.3-.3.3h-3.2c-.1 0-.3-.1-.3-.3v-3.1c0-.2.2-.3.3-.3m-21.6 3.8c-.1 0-.3-.1-.3-.3v-3.1c0-.1.1-.3.3-.3h3.2c.1 0 .3.1.3.3v3.1c0 .1-.1.3-.3.3z" fill="#68217a"/></svg>