<svg xmlns="http://www.w3.org/2000/svg" width="50" height="50"><path d="M29.833 31.322a7.93 7.93 0 0 1-4.832 1.642 7.95 7.95 0 0 1-6.331-3.123 7.96 7.96 0 0 1 1.484-11.165c1.443-1.1 3.145-1.64 4.832-1.64 2.396 0 4.765 1.076 6.33 3.125a7.96 7.96 0 0 1-1.483 11.161" fill="#59b4d9"/><g fill="#fff"><path d="M28.37 26.396c.578.754 1.65.89 2.4.32.04-.03.07-.067.106-.1l1.665 1.146a7.08 7.08 0 0 0 .211-.68l-1.428-1.117c.203-.535.138-1.16-.234-1.646-.53-.688-1.47-.863-2.206-.44l-2.644-2.494c2.92-1.57 4.993-1.34 4.993-1.34-.345-.442-.734-.828-1.148-1.178-1.23-.19-3.145-.17-5.33.994l-2.226-2.457a7.45 7.45 0 0 0-1.055.429c.557.912 1.307 1.83 2.152 2.73l.066-.044-.064.044c-.695.495-1.5 1.173-2.208 1.92l-.267.306c-.43-.09-.88-.063-1.303.088-.724-1.558-.674-2.813-.56-3.46a8.34 8.34 0 0 0-.858 1.04c-.19.772-.24 1.885.317 3.225-.64.842-.676 2.03-.004 2.91.058.075.126.136.19.203-.293 1-.44 1.966-.48 2.793.075.103.075.185.15.284.382.49.864.955 1.33 1.33-.058-.877.005-2.223.55-3.68.37.027.746-.03 1.1-.18l.648.55c.782.62 1.56 1.097 2.322 1.476a1.59 1.59 0 0 0 .307 1.125c.537.693 1.53.822 2.226.292a1.6 1.6 0 0 0 .359-.396c1.232.273 2.318.333 3.117.333.123 0 .694-.776 1.022-1.257-.49.102-1.94.295-3.92-.272-.048-.22-.14-.435-.285-.625-.503-.66-1.422-.802-2.106-.363a14.9 14.9 0 0 1-2.155-1.43l-.432-.367a2.41 2.41 0 0 0 .102-2.382l.275-.285c.737-.688 1.43-1.24 2.08-1.68l3.046 2.568a1.7 1.7 0 0 0 .178 1.767z"/><path d="M23.755 20.477l.425-.283-.425.283zm1.39 1.583l-.013-.014.014.014z"/></g><path fill="#a0a1a2" d="M41.386 50c-6.83 0-16.33-5.585-26.07-15.323C1.768 21.125-3.448 8.134 2.338 2.348 3.875.81 6.04 0 8.6 0c6.83 0 16.33 5.585 26.07 15.325 6.637 6.638 11.38 13.177 13.715 18.916 2.365 5.81 2.104 10.572-.736 13.413C46.11 49.19 43.946 50 41.386 50M8.6 3.078c-1.75 0-3.124.486-4.083 1.445C.79 8.25 4.052 19.056 17.495 32.498c9.03 9.032 17.962 14.424 23.892 14.424 1.75 0 3.123-.486 4.082-1.446 1.908-1.908 1.932-5.486.063-10.074C43.35 30.04 38.84 23.85 32.5 17.502 23.46 8.47 14.528 3.078 8.6 3.078"/><path fill="#0f0f0f" d="M8.6 50c-2.56 0-4.724-.81-6.26-2.346-2.84-2.84-3.1-7.602-.735-13.413 2.336-5.74 7.078-12.278 13.715-18.916C25.056 5.585 34.558 0 41.387 0c2.56 0 4.724.81 6.26 2.347 5.786 5.787.57 18.778-12.98 32.33C24.93 44.415 15.427 50 8.6 50M41.387 3.078c-5.93 0-14.86 5.393-23.893 14.424-6.348 6.348-10.86 12.538-13.04 17.9-1.87 4.588-1.845 8.166.063 10.074.96.96 2.332 1.446 4.083 1.446 5.93 0 14.86-5.392 23.892-14.424C45.933 19.056 49.194 8.25 45.468 4.522c-.96-.958-2.33-1.444-4.08-1.444"/></svg>