<svg xmlns="http://www.w3.org/2000/svg" width="43.4" height="50"><path d="M37.77 43.034c0 .687-.557 1.243-1.243 1.243H8.475c-.686 0-1.243-.557-1.243-1.243s.557-1.243 1.243-1.243h28.053c.686 0 1.243.557 1.243 1.243m-12.088 5.724c0 .687-.557 1.242-1.243 1.242H8.474a1.24 1.24 0 0 1-1.242-1.242c0-.687.557-1.243 1.242-1.243H24.44c.686 0 1.243.556 1.243 1.243m11.93-17.52c0 .687-.557 1.243-1.243 1.243H8.474c-.686 0-1.242-.557-1.242-1.243s.557-1.243 1.242-1.243H36.37c.686 0 1.243.558 1.243 1.243M32.35 36.96c0 .687-.557 1.243-1.243 1.243H8.474c-.686 0-1.242-.557-1.242-1.243s.557-1.243 1.242-1.243h22.63c.687 0 1.244.557 1.244 1.243" fill="#3e3e3e"/><path d="M43.4 22.105c0-2.8-2.247-5.067-5.022-5.067a4.55 4.55 0 0 0-.613.043 13.74 13.74 0 0 0 .476-3.572C38.24 6.048 32.243 0 24.846 0c-5.9 0-10.92 3.86-12.7 9.217-.938-.33-1.94-.516-3-.516C4.095 8.7 0 12.836 0 17.936s4.095 9.238 9.155 9.238h29.63l-.005-.025c2.584-.204 4.62-2.38 4.62-5.044" fill="#59b4d9"/><path d="M14.02 27.174c-1.204-1.196-2.1-2.734-2.508-4.517-1.135-4.972 1.937-9.915 6.87-11.04a8.97 8.97 0 0 1 3.03-.163c.448-4.645 3.28-8.776 7.502-10.815C27.63.226 26.264 0 24.846 0c-5.9 0-10.92 3.86-12.7 9.217-.938-.33-1.94-.516-3-.516C4.095 8.7 0 12.836 0 17.936s4.095 9.238 9.155 9.238h.013z" opacity=".2" fill="#fff"/></svg>