<svg xmlns="http://www.w3.org/2000/svg" xmlns:xlink="http://www.w3.org/1999/xlink" viewBox="0 0 50 50"><path fill="#7a7a7a" d="M35.3,39.3c-4,3-8.7,4.5-13.3,4.5c-6.6,0-13.1-3-17.4-8.6C-2.8,25.6-1,11.9,8.6,4.5c4-3.1,8.7-4.5,13.3-4.5 C28.5,0,35,3,39.3,8.6C46.7,18.2,44.9,32,35.3,39.3"/><g opacity=".5" fill="#e5e5e5"><path d="M29.3 33.5c-.1-.6-.4-1.2-.8-1.7-1.4-1.8-3.9-2.2-5.8-1-1.9-1-3.9-2.3-5.9-3.9-.4-.3-.8-.7-1.2-1 1.3-2 1.4-4.5.3-6.6l.8-.8c2-1.9 3.9-3.4 5.7-4.6l-4.2-4.1c-2 1.4-4 3.1-6.1 5.3-.3.3-.5.5-.7.8-1.2-.2-2.4-.2-3.6.2-2-4.3-1.8-7.7-1.5-9.5-.9.9-1.7 1.8-2.4 2.8-.5 2.1-.7 5.2.9 8.9-1.8 2.3-1.9 5.6 0 8 .2.2.3.4.5.6-.8 2.8-1.2 5.4-1.3 7.7.2.3.2.5.4.8C5.4 36.7 6.7 38 8 39c-.2-2.4 0-6.1 1.5-10.1 1 .1 2.1-.1 3.1-.5.6.5 1.1 1 1.8 1.5 2.2 1.7 4.3 3 6.4 4.1-.1 1.1.2 2.2.8 3.1 1.5 1.9 4.2 2.3 6.1.8.4-.3.7-.7 1-1.1 3.4.8 6.4.9 8.6.9.3 0 1.9-2.1 2.8-3.5-1.4.3-5.3.9-10.8-.7z"/><path d="M39.4 24.6c.6-1.5.4-3.2-.6-4.5-1.5-1.9-4.1-2.4-6.1-1.2-2.2-2-4.7-4.3-7.3-6.9 8-4.3 13.8-3.7 13.8-3.7-1-1.2-2-2.3-3.2-3.2-3.4-.5-8.7-.5-14.7 2.7-2-2.1-4-4.3-6.1-6.8-1 .3-2 .7-2.9 1.2 1.5 2.5 3.6 5 5.9 7.5 1.3 1.4 2.7 2.8 4.2 4.1 2.7 2.5 5.6 4.9 8.4 7.1a4.85 4.85 0 0 0 .5 4.9c1.6 2.1 4.5 2.5 6.6.9l.3-.3 4.6 3.2c.2-.6.4-1.2.6-1.9-1-.7-2.3-1.7-4-3.1z"/></g><use xlink:href="#B" opacity=".3" fill="#1e1e1e"/><use xlink:href="#B" x="2.5" y="2.5" fill="#59b4d9"/><g fill="#fff"><path d="M38.3 41.7c-.1-.5-.3-1-.6-1.4-1.1-1.5-3.1-1.8-4.6-.8-1.5-.8-3.1-1.9-4.7-3.2-.3-.3-.6-.5-1-.8 1-1.6 1.1-3.6.2-5.3l.6-.6c1.6-1.5 3.1-2.7 4.6-3.7l-3.3-3.3c-1.6 1.1-3.2 2.5-4.9 4.2-.2.2-.4.4-.6.7-1-.2-2-.1-2.9.2-1.6-3.4-1.5-6.2-1.2-7.6-.7.7-1.3 1.5-1.9 2.3-.4 1.7-.5 4.1.7 7.1-1.4 1.9-1.5 4.5 0 6.4.1.2.3.3.4.5-.6 2.2-.9 4.3-1 6.1.2.2.2.4.3.6.8 1.1 1.9 2.1 2.9 2.9-.1-1.9 0-4.9 1.2-8.1.8.1 1.7-.1 2.4-.4.4.4.9.8 1.4 1.2 1.7 1.4 3.4 2.4 5.1 3.3-.1.9.1 1.7.7 2.5 1.2 1.5 3.4 1.8 4.9.6a2.36 2.36 0 0 0 .8-.9c2.7.6 5.1.7 6.9.7.3 0 1.5-1.7 2.2-2.8-1 .4-4.2.9-8.6-.4z"/><path d="M46.4 34.6c.4-1.2.3-2.6-.5-3.6-1.2-1.5-3.2-1.9-4.9-1l-5.8-5.5c6.4-3.5 11-3 11-3-.8-1-1.6-1.8-2.5-2.6-2.7-.4-6.9-.4-11.7 2.2-1.6-1.7-3.2-3.5-4.9-5.4l-2.3.9c1.2 2 2.9 4 4.7 6 1 1.1 2.2 2.2 3.3 3.3 2.2 2 4.5 3.9 6.7 5.7-.6 1.2-.5 2.7.4 3.9 1.3 1.7 3.6 2 5.3.7.1-.1.2-.1.2-.2 1.7 1.2 3 2.1 3.7 2.5.2-.5.3-1 .5-1.5-.7-.5-1.8-1.3-3.2-2.4z"/></g><defs ><path id="B" d="M40.6 43.9c-3.2 2.4-6.9 3.6-10.6 3.6-5.3 0-10.5-2.4-13.9-6.9-5.9-7.7-4.4-18.7 3.3-24.6 3.2-2.4 6.9-3.6 10.6-3.6 5.3 0 10.5 2.4 13.9 6.9 5.9 7.7 4.4 18.7-3.3 24.6"/></defs></svg>