<svg xmlns="http://www.w3.org/2000/svg" viewBox="0 0 50 50"><path d="M34.9 38.9a21.72 21.72 0 0 1-13.2 4.5c-6.5 0-13-2.9-17.2-8.5-7.3-9.5-5.5-23.1 4-30.4A21.72 21.72 0 0 1 21.7 0c6.5 0 13 2.9 17.2 8.5 7.3 9.5 5.5 23.1-4 30.4" fill="#59b4d9"/><path fill="#fff" d="M30.9 25.5c1.6 2.1 4.5 2.4 6.5.9l.3-.3 4.5 3.1.6-1.9c-.9-.6-2.2-1.7-3.9-3 .6-1.5.4-3.2-.6-4.5-1.4-1.9-4-2.4-6-1.2l-7.2-6.8c8-4.3 13.6-3.7 13.6-3.7a18.84 18.84 0 0 0-3.1-3.2c-3.4-.4-8.6-.4-14.5 2.8-2-2.1-4-4.3-6.1-6.7-1 .3-1.9.7-2.9 1.2 1.5 2.5 3.6 5 5.9 7.4l.3.3-.3-.3c-2 1.4-4 3.1-6 5.2-.3.3-.5.5-.7.8-1.2-.2-2.4-.2-3.6.2-2-4.2-1.8-7.6-1.5-9.4-.9 1-1.7 1.9-2.4 2.9-.5 2.1-.7 5.1.9 8.8-1.8 2.3-1.8 5.5 0 7.9.2.2.3.4.5.6-.8 2.7-1.2 5.4-1.3 7.6.2.3.2.5.4.8 1 1.3 2.4 2.6 3.6 3.6-.2-2.4 0-6 1.5-10 1 .1 2.1-.1 3-.5.6.5 1.1 1 1.8 1.5 2.1 1.7 4.3 3 6.3 4-.1 1.1.2 2.1.8 3.1 1.5 1.9 4.2 2.2 6.1.8.4-.3.7-.7 1-1.1 3.4.8 6.3.9 8.5.9.3 0 1.9-2.1 2.8-3.4-1.3.3-5.3.8-10.7-.7-.1-.6-.4-1.2-.8-1.7-1.4-1.8-3.9-2.2-5.7-1-1.9-1-3.8-2.3-5.9-3.9-.4-.3-.8-.6-1.2-1 1.2-2 1.4-4.5.3-6.6.2-.2.5-.5.8-.7 1.9-1.8 4-3.4 5.7-4.5 2.7 2.5 5.6 4.9 8.3 7-.8 1.4-.7 3.3.4 4.7z"/><path fill="#7a7a7a" d="M50 38.4v-3l-.4-.1-3.2-1-.8-2 1.6-3.4-2.1-2.1-3.4 1.7-2-.8-1.3-3.6h-3l-.1.4-1 3.2-2 .8-3.4-1.6-2.1 2.1 1.7 3.4-.8 2-3.7 1.2v3l.4.1 3.2 1 .8 2-1.6 3.4 2.1 2.1 3.4-1.7 2 .8 1.3 3.6h3l.1-.4 1-3.2 2-.8 3.4 1.6 2.1-2.1-1.7-3.4.8-2 3.7-1.2zm-13 3.3c-2.6 0-4.7-2.1-4.7-4.7s2.1-4.7 4.7-4.7 4.7 2.1 4.7 4.7-2.1 4.7-4.7 4.7z"/></svg>