<svg xmlns="http://www.w3.org/2000/svg" width="47.351" height="50"><path d="M41.418 50H5.93A5.94 5.94 0 0 1 0 44.07v-9.863a1.56 1.56 0 0 1 1.563-1.563 1.56 1.56 0 0 1 1.563 1.563v9.863a2.81 2.81 0 0 0 2.805 2.805h35.49a2.81 2.81 0 0 0 2.805-2.805v-9.863a1.56 1.56 0 1 1 3.126 0v9.863c-.003 3.27-2.663 5.93-5.933 5.93z" fill="#a0a1a2"/><path d="M5.68 16.7h9.87v27.614H5.68zm13.06 0h9.87v27.614h-9.87z" fill="#59b4d9"/><g fill="#b8d432"><path d="M31.8 16.7h9.87v27.614H31.8zm-16.218-5.264C15.582 5.125 20.7 0 27 0s11.554 4.784 11.554 11.084a1.563 1.563 0 1 1-3.126 0c0-4.578-3.852-7.96-8.43-7.96s-8.302 3.723-8.302 8.3z"/><path d="M30.707 8.782H43.04l-6.166 6.166z"/></g></svg>