<svg xmlns="http://www.w3.org/2000/svg" width="50" height="46"><path d="M33.143 36.974c-3.735 2.856-8.137 4.248-12.507 4.248-6.2 0-12.333-2.784-16.385-8.084C-2.672 24.1-.963 11.17 8.093 4.245A20.42 20.42 0 0 1 20.598 0c6.2 0 12.334 2.784 16.385 8.09a20.6 20.6 0 0 1-3.84 28.885" fill="#59b4d9"/><path d="M29.356 24.225c1.497 1.953 4.276 2.305 6.218.828.1-.077.18-.17.272-.255l4.31 2.965c.23-.596.383-1.16.547-1.76l-3.698-2.887c.527-1.385.36-3-.602-4.264a4.42 4.42 0 0 0-5.719-1.136l-6.838-6.46c7.557-4.064 12.927-3.47 12.927-3.47-.896-1.143-1.9-2.144-2.973-3.05-3.187-.492-8.138-.437-13.795 2.572l-.002-.003H20C18.116 5.336 16.197 3.22 14.243.95c-.935.3-1.85.67-2.73 1.11 1.442 2.36 3.383 4.74 5.57 7.063-1.822 1.275-3.84 2.994-5.713 4.974a32.57 32.57 0 0 0-.695.768 6.22 6.22 0 0 0-3.393.232C5.413 11.07 5.563 7.835 5.858 6.166c-.81.85-1.568 1.742-2.22 2.694-.487 1.992-.626 4.864.812 8.325-1.665 2.18-1.743 5.27-.004 7.548.145.19.3.364.46.532-.76 2.587-1.1 5.082-1.204 7.225.195.266.195.48.39.74.99 1.268 2.238 2.467 3.438 3.435-.15-2.267.003-5.742 1.406-9.507a6.19 6.19 0 0 0 2.872-.467c.528.465 1.08.934 1.67 1.41 2.022 1.6 4.04 2.847 6.007 3.83-.102 1 .15 2.04.798 2.9 1.4 1.794 3.962 2.13 5.758.758.374-.286.67-.632.913-1.003 3.207.714 6.01.84 8.086.84.318 0 1.795-2.01 2.64-3.254-1.265.265-5.016.78-10.143-.693-.124-.575-.36-1.134-.74-1.633-1.302-1.707-3.683-2.076-5.457-.934-1.782-.967-3.648-2.178-5.572-3.702a38.06 38.06 0 0 1-1.12-.922c1.176-1.853 1.3-4.228.262-6.225l.72-.707c1.906-1.78 3.698-3.205 5.376-4.35-.066-.062-.126-.127-.192-.19l.194.184c2.57 2.38 5.3 4.636 7.885 6.65-.683 1.448-.576 3.213.464 4.572z" fill="#fff"/><path d="M49.625 43.23l-8.023-13.897v-5.625h.145a1.74 1.74 0 0 0 1.738-1.738 1.74 1.74 0 0 0-1.738-1.738h-8.754a1.74 1.74 0 0 0-1.738 1.738 1.74 1.74 0 0 0 1.738 1.738h.145v5.625L25.115 43.23c-.88 1.524-.16 2.77 1.6 2.77h21.31c1.76 0 2.478-1.247 1.6-2.77z" fill="#a0a1a2"/><path d="M43.016 37.247H39.25c.104.214.165.454.165.708a1.62 1.62 0 0 1-1.619 1.619 1.62 1.62 0 0 1-1.619-1.619c0-.254.06-.494.165-.708h-4.62l-3.3 5.734h17.915z" fill="#b8d432"/><g fill="#7fba00"><path d="M37.795 39.574a1.62 1.62 0 0 0 1.619-1.619c0-.254-.06-.494-.165-.708H36.34c-.104.214-.165.454-.165.708a1.62 1.62 0 0 0 1.619 1.619z"/><circle cx="39.804" cy="40.824" r=".794"/></g><path d="M25.114 43.23l8.023-13.897v-5.625h-.145a1.74 1.74 0 0 1-1.738-1.738 1.74 1.74 0 0 1 1.738-1.738h3.772v9.056L32.536 46h-5.822c-1.76 0-2.48-1.247-1.6-2.77z" opacity=".25" fill="#fff"/></svg>