<svg xmlns="http://www.w3.org/2000/svg" width="107.34" height="107.591"><path d="M86.28 10.81l4.8-9.36a1 1 0 0 0-.94-1.45L55 1.78a1 1 0 0 0-.78 1.54l19.1 29.54a1 1 0 0 0 1.72-.09l4.2-8.2a1 1 0 0 1 1.57-.28c6.62 6.42 13.6 16.26 13.6 29.25a41.15 41.15 0 0 1-60.87 36.11 1 1 0 0 0-1.33.36l-5.46 9.46a1 1 0 0 0 .38 1.39 54.06 54.06 0 0 0 80.2-47.32c0-15.48-7.36-30-20.8-41.52a1 1 0 0 1-.25-1.2z"/><path d="M34 102.5l2.5-4.35A46.89 46.89 0 1 0 60.67 7.981v-5c0-.62-.64 0-1.14-.3l-3.4.1c-.77 0-.3 1 .1 1.6l10.83 18.8a34.33 34.33 0 0 1 9.61 6.5l2.63-5.13a1 1 0 0 1 .9-.55.93.93 0 0 1 .67.27c6.62 6.42 13.6 16.26 13.6 29.25a41.15 41.15 0 0 1-60.92 36.11.94.94 0 0 0-.48-.13 1 1 0 0 0-.85.49l-5.46 9.46a1 1 0 0 0-.11.71l4.94 2.85.34.14a1.64 1.64 0 0 0 2.07-.67zm-8.82-3.94l5.5-9.46a2.82 2.82 0 0 1 2.43-1.4 2.77 2.77 0 0 1 1.35.35 39.33 39.33 0 0 0 58.15-34.51c0-12.08-6.47-21.32-12.24-27.15l-2.4 4.7c11.746 12.7 12.175 32.166.998 45.37s-30.446 15.998-44.912 6.5S14.463 54.678 22.12 39.166 47.8 16.3 64.13 22L52.67 4.3a2.82 2.82 0 0 1-.15-2.81 1.73 1.73 0 0 1 .14-.2h-5.8a1.66 1.66 0 0 0-1.67 1.66v5a46.62 46.62 0 0 0-8.68 2.32L34 5.96a1.66 1.66 0 0 0-2.27-.61L21.2 11.42a1.67 1.67 0 0 0-.61 2.28l2.5 4.36a47.55 47.55 0 0 0-6.35 6.34l-4.35-2.5a1.67 1.67 0 0 0-2.28.61l-6.05 10.5a1.66 1.66 0 0 0 .61 2.27L9 37.8a46.62 46.62 0 0 0-2.34 8.68h-5A1.67 1.67 0 0 0 0 48.151V60.3a1.66 1.66 0 0 0 1.67 1.66h5a46.62 46.62 0 0 0 2.34 8.68l-4.34 2.5a1.67 1.67 0 0 0-.61 2.28l6.07 10.52a1.68 1.68 0 0 0 2.28.61l4.35-2.52a47.63 47.63 0 0 0 6.35 6.35l-2.5 4.36a1.66 1.66 0 0 0 .61 2.27l3.72 2.15a3 3 0 0 1 .25-.62zm47.77-59.27a.22.22 0 0 0-.17-.07h-.62c-8 0-15.4-3.27-18.3-8.14a.24.24 0 0 0-.4 0c-2.9 4.87-10.25 8.14-18.3 8.14h-.62a.25.25 0 0 0-.17.07.23.23 0 0 0-.06.16v19c-.06 5.47 2.34 15.6 19.25 22.45h.18c16.9-6.86 19.3-17 19.25-22.4V39.44a.23.23 0 0 0-.06-.16zm-3.88 3.74v15.5c0 4.17-1.85 12-15.08 18l-.32.1-.3-.14c-13.23-5.93-15.13-13.8-15.08-18V43.02l.67-.07a27.12 27.12 0 0 0 14.25-5.63l.48-.4.48.4a27.2 27.2 0 0 0 14.25 5.63zM48.23 53.37h2.3a.23.23 0 0 0 .23-.24V49.5a2.91 2.91 0 0 1 5.82 0v3.63a.23.23 0 0 0 .23.24h2.3a.24.24 0 0 0 .24-.24V49.5a5.68 5.68 0 1 0-11.36 0v3.63a.24.24 0 0 0 .24.24zm13.05.82a.24.24 0 0 0-.24-.24H46.3a.24.24 0 0 0-.24.24v10.23c0 1.55 4.34 3.63 7.6 3.65s7.6-2.1 7.6-3.68zm-6.17 9.24a.29.29 0 0 1 0 .2.25.25 0 0 1-.19.09h-2.45a.28.28 0 0 1-.19-.09.24.24 0 0 1 0-.2l.6-2.8a1.76 1.76 0 1 1 1.6 0z"/></svg>