<svg xmlns="http://www.w3.org/2000/svg" xmlns:xlink="http://www.w3.org/1999/xlink" height="50" width="50"><path fill="none" stroke="#59b4d9" stroke-width="4.75" stroke-linejoin="round" stroke-miterlimit="10" d="M6.4 39.8V25h37.2v14.8"/><g fill="#59b4d9"><path d="M22.6 14h4.8v24.5h-4.8z"/><use xlink:href="#B"/></g><g fill="#0072c6"><use xlink:href="#B"/><path d="M27.3 37.7h-4.6a3.8 3.8 0 0 0-3.8 3.8v4.6a3.8 3.8 0 0 0 3.8 3.8h4.6a3.8 3.8 0 0 0 3.8-3.8v-4.6a3.8 3.8 0 0 0-3.8-3.8zm.4 8.2a.68.68 0 0 1-.7.7h-4a.68.68 0 0 1-.7-.7v-4.1a.68.68 0 0 1 .7-.7h4a.68.68 0 0 1 .7.7v4.1zM0 41.6v4.6A3.8 3.8 0 0 0 3.8 50h4.6a3.8 3.8 0 0 0 3.8-3.8v-4.6a3.8 3.8 0 0 0-3.8-3.8H3.8C1.7 37.7 0 39.4 0 41.6zm3.4.2a.68.68 0 0 1 .7-.7h4.1a.68.68 0 0 1 .7.7v4.1a.68.68 0 0 1-.7.7H4.1a.68.68 0 0 1-.7-.7v-4.1zm42.8-4.1h-4.6a3.8 3.8 0 0 0-3.8 3.8v4.6a3.8 3.8 0 0 0 3.8 3.8h4.6a3.8 3.8 0 0 0 3.8-3.8v-4.6a3.8 3.8 0 0 0-3.8-3.8zm.4 8.2a.68.68 0 0 1-.7.7h-4.1a.68.68 0 0 1-.7-.7v-4.1a.68.68 0 0 1 .7-.7h4.1a.68.68 0 0 1 .7.7v4.1z"/></g><defs ><path id="B" d="M28.7 0h-7.3a3.8 3.8 0 0 0-3.8 3.8v6.7a3.8 3.8 0 0 0 3.8 3.8h7.3a3.8 3.8 0 0 0 3.8-3.8V3.8A3.8 3.8 0 0 0 28.7 0zm.4 10.2a.68.68 0 0 1-.7.7h-6.8a.68.68 0 0 1-.7-.7V4.1a.68.68 0 0 1 .7-.7h6.8a.68.68 0 0 1 .7.7v6.1z"/></defs></svg>