<svg xmlns="http://www.w3.org/2000/svg" width="50.027" height="35"><path d="M36.057 0s-.5 0-.8.3-2 1.7-3.3 2.3c-.7.3-1.2.7-1.5.7-.7.1-2.4.3-5.4.3s-4.7-.2-5.3-.3c-.3-.2-.8-.3-1.5-.7-1.2-.7-3-2.2-3.3-2.3-.3-.3-.8-.3-.8-.3-1.3.2-2.5.3-3.7.7-2 .7-3.5 1.7-3.5 1.7s-4 9.1-5 13.3c-1.3 6-2.7 11.8-1.5 16 .3 1.5 1.2 3.3 3.8 3.3 2.3 0 7.6-5.2 10.3-7.5 2.3-2 4.7-2.3 10.5-2.3s8.2.2 10.5 2.2c2.5 2.3 8 7.3 10.1 7.5h.2c2.8 0 3.5-1.8 3.8-3.2 1-4.2-.2-10-1.5-16-1-4.2-5-13.3-5-13.3s-1.5-1-3.5-1.7c-1.1-.4-2.3-.6-3.6-.7z" fill="#3e3e3e"/><path d="M14.157 8.7a4.95 4.95 0 0 0-5 5 4.95 4.95 0 0 0 5 5 4.95 4.95 0 0 0 5-5c0-2.8-2.3-5-5-5zm0 7.9c-1.6 0-2.9-1.3-2.9-2.9s1.3-2.9 2.9-2.9 2.9 1.3 2.9 2.9c0 1.5-1.4 2.9-2.9 2.9z" fill="#a0a1a2"/><circle cx="32.157" cy="13.2" r="2.1" fill="#0072c6"/><circle cx="40.857" cy="13.2" r="2.1" fill="#ba141a"/><circle cx="36.457" cy="8.8" r="2.1" fill="#fcd116"/><circle cx="36.457" cy="17.6" r="2.1" fill="#7fba00"/><path d="M14.157 17.3a3.76 3.76 0 0 1-3.7-3.7 3.76 3.76 0 0 1 3.7-3.7 3.76 3.76 0 0 1 3.7 3.7 3.76 3.76 0 0 1-3.7 3.7z" fill="#3e3e3e"/></svg>