<svg xmlns="http://www.w3.org/2000/svg" xmlns:xlink="http://www.w3.org/1999/xlink" viewBox="0 0 115.788 128.577"><style><![CDATA[.v{fill:#58585b}.w{fill:#404042}.x{fill:#231f20}.y{stroke-linecap:square}.z{stroke-linejoin:round}.AA{fill:#a4a6a9}.AB{fill:#abadaf}.AC{fill:#babcbe}.AD{stroke-linecap:round}]]></style><g fill="none" stroke="#626467" stroke-width="2.722" class="z"><path d="M56.617 9.06l2.333-1.24.045 63.36-2.334 1.238z"/><path d="M45.863 2.6l2.334-1.24L58.95 7.823 56.617 9.06z"/><path d="M56.617 9.06l.044 63.357-10.753-6.46L45.863 2.6z"/><path d="M51.646 11.673l2.334-1.24.044 63.358-2.333 1.238z"/><path d="M40.893 5.21l2.334-1.24 10.753 6.462-2.334 1.238z"/><path d="M51.646 11.673l.045 63.357-10.754-6.46-.044-63.357z"/><path d="M46.677 14.607l2.334-1.238.044 63.357-2.334 1.24z"/><path d="M35.924 8.146l2.333-1.24L49.01 13.37l-2.334 1.238z"/><path d="M46.677 14.607l.044 63.358-10.753-6.46-.044-63.358z"/><path d="M41.707 17.22l2.333-1.238.045 63.357-2.334 1.24z"/><path d="M30.953 10.758l2.334-1.24L44.04 15.98l-2.333 1.238z"/><path d="M41.707 17.22l.044 63.358-10.753-6.46-.045-63.358z"/><use xlink:href="#B"/><use xlink:href="#C"/><use xlink:href="#D"/><use xlink:href="#B" x="-4.97" y="2.611"/><path d="M21.013 15.724l2.333-1.24 10.754 6.46-2.334 1.24z"/><path d="M31.766 22.185l.045 63.358-10.754-6.462-.044-63.357z"/><use xlink:href="#E"/><use xlink:href="#F"/><path d="M26.797 25.12l.044 63.357-10.753-6.46-.044-63.357z"/><use xlink:href="#E" x="-4.97" y="2.61"/><use xlink:href="#G"/><use xlink:href="#H"/><path d="M16.856 30.236l2.334-1.238.044 63.357-2.333 1.24z"/><path d="M6.103 23.775l2.334-1.24L19.2 28.998l-2.334 1.238z"/><use xlink:href="#I"/><path d="M12.114 32.475l2.334-1.238.044 63.358-2.333 1.24z"/><use xlink:href="#C" x="-24.623" y="12.902"/><path d="M12.114 32.475l.045 63.36-10.754-6.462-.044-63.358zm41.92 24.73l51.338-27.25.047 65.802-51.34 27.25z"/><path d="M11.626 31.724l51.34-27.25 42.408 25.482-51.338 27.25z"/><path d="M54.035 57.205l.046 65.802-42.4-25.48-.046-65.802zm58.015-16.76l2.333-1.238.045 63.357-2.333 1.24z"/><use xlink:href="#F" x="85.253" y="15.323"/><path d="M112.05 40.444l.045 63.358-10.754-6.46-.044-63.358z"/><use xlink:href="#E" x="80.283" y="17.936"/><use xlink:href="#G" x="85.253" y="15.325"/><use xlink:href="#H" x="85.253" y="15.326"/><use xlink:href="#B" x="65.374" y="26.416"/><path d="M91.356 39.53l2.334-1.24 10.753 6.46-2.334 1.24z"/><use xlink:href="#I" x="85.254" y="15.754"/><path d="M97.14 48.602l2.334-1.24.044 63.358-2.334 1.24z"/><path d="M86.386 42.14l2.333-1.24 10.754 6.46-2.334 1.24z"/><path d="M97.14 48.602l.044 63.358-10.753-6.46-.044-63.358z"/><use xlink:href="#E" x="65.373" y="25.837"/><path d="M81.416 44.495l2.334-1.238 10.753 6.46-2.333 1.238z"/><use xlink:href="#H" x="70.343" y="23.227"/><use xlink:href="#B" x="50.464" y="33.994"/><use xlink:href="#C" x="50.463" y="33.995"/><use xlink:href="#D" x="50.464" y="33.994"/><path d="M82.23 56.503l2.334-1.238.044 63.357-2.333 1.24z"/><path d="M71.476 50.042l2.334-1.24 10.753 6.462-2.334 1.238z"/><path d="M82.23 56.503l.045 63.358-10.754-6.46-.044-63.358z"/><path d="M77.26 59.114l2.333-1.238.046 63.357-2.334 1.24z"/><use xlink:href="#F" x="50.463" y="33.993"/><path d="M77.26 59.114l.045 63.358-10.754-6.46-.043-63.358z"/><path d="M72.3 61.62l2.333-1.24.045 63.358-2.334 1.24z"/><path d="M61.536 55.158l2.334-1.24 10.753 6.46-2.333 1.24z"/><path d="M72.3 61.62l.044 63.358-10.753-6.46-.045-63.358z"/><path d="M67.547 63.86l2.334-1.24.045 63.358-2.334 1.238z"/><path d="M56.794 57.397l2.334-1.24L69.88 62.62l-2.334 1.238z"/><path d="M67.547 63.86l.045 63.357-10.753-6.46-.045-63.357z"/><g class="y"><path d="M52.648 122.157l1.4-.744-.001.043-1.4.743v-.042m.001.043l1.4-.743-.003.083-1.4.743.003-.083"/><path d="M52.645 122.283l1.4-.743-.005.083-1.4.743.006-.083"/><path d="M52.64 122.366l1.4-.744-.008.083-1.4.743.01-.082"/><path d="M52.63 122.448l1.4-.743-.013.084-1.4.743.013-.084m-.013.085l1.4-.743-.016.083-1.4.743.018-.083"/><path d="M52.6 122.616l1.4-.743-.024.1-1.4.743.023-.1"/><path d="M52.576 122.706l1.4-.743a.92.92 0 0 1-.03.093l-1.4.743.03-.093"/><use xlink:href="#J"/><use xlink:href="#K"/><use xlink:href="#L"/></g><path d="M53.516 122.576l-1.4.743c.328-.174.532-.578.532-1.162l1.4-.744c0 .584-.204.99-.532 1.163z"/><g class="y"><path d="M10.737 33.794l1.4-.743a.7.7 0 0 1 .116-.05l-1.4.743a.7.7 0 0 0-.116.05"/><path d="M10.853 33.744l1.4-.743a.73.73 0 0 1 .122-.032l-1.4.743a.81.81 0 0 0-.122.032"/><path d="M10.975 33.712l1.4-.743c.033-.006.066-.01.1-.013l-1.4.743-.1.013"/><path d="M11.074 33.7l1.4-.743.088-.003-1.4.744c-.03-.001-.06 0-.088.002"/><path d="M11.162 33.697l1.4-.743.083.004-1.4.743-.084-.004"/><path d="M11.246 33.7l1.4-.743.077.01-1.4.744a.67.67 0 0 0-.075-.01"/><path d="M11.32 33.71l1.4-.744.075.015-1.4.743-.074-.014"/><path d="M11.395 33.725l1.4-.744.072.018-1.4.744-.07-.018"/><path d="M11.466 33.743l1.4-.743.07.02-1.4.743-.07-.02m.07.02l1.4-.743.07.025-1.4.743-.07-.025m.07.026l1.4-.743.07.028-1.4.743-.07-.028"/><path d="M11.675 33.817l1.4-.743.07.032-1.4.743-.068-.032m.067.033l1.4-.743.07.035-1.4.743-.07-.035"/><path d="M11.813 33.884l1.4-.743.07.04-1.4.743-.07-.04"/><path d="M11.883 33.923l1.4-.743.027.016-1.4.743-.027-.016"/></g><path d="M10.737 33.794l1.4-.743c.307-.163.72-.128 1.173.145l-1.4.743c-.453-.272-.866-.308-1.173-.145z"/><path d="M11.9 33.94l1.4-.743 39.013 23.44-1.4.743zm40.705 26.476l1.4-.743.044 61.74-1.4.743z"/><g class="y"><path d="M50.923 57.38l1.4-.743.044.027-1.4.743-.044-.027m.043.028l1.4-.743.07.046-1.4.743c-.02-.016-.046-.03-.07-.046"/><path d="M51.037 57.453l1.4-.743.073.05-1.4.743-.072-.05m.072.05l1.4-.743.072.055-1.4.743-.07-.055"/><path d="M51.18 57.56l1.4-.743.075.06-1.4.743-.074-.06"/><path d="M51.255 57.62l1.4-.743.074.064-1.4.743-.074-.064"/><path d="M51.33 57.683l1.4-.743.076.07-1.4.743-.074-.07"/><path d="M51.403 57.752l1.4-.743.073.07-1.4.744-.072-.072m.07.073l1.4-.744.07.074-1.4.743-.07-.073"/><path d="M51.545 57.897l1.4-.743.066.073-1.4.743-.065-.073"/><path d="M51.6 57.97l1.4-.743.063.073-1.4.743-.062-.073m.072.073l1.4-.743.06.074-1.4.743-.06-.074"/><path d="M51.733 58.117l1.4-.743.06.075-1.4.743-.058-.075"/><path d="M51.79 58.192l1.4-.743.063.085-1.4.743-.062-.085"/><path d="M51.853 58.277l1.4-.743.064.092-1.4.743-.064-.092"/><use xlink:href="#M"/><path d="M52.19 58.833l1.4-.743.048.097-1.4.744-.048-.098"/><path d="M52.237 58.93l1.4-.743.04.1-1.4.743-.042-.1"/><path d="M52.28 59.02l1.4-.743.035.077-1.4.743-.033-.077"/><path d="M52.312 59.098l1.4-.743.032.077-1.4.743-.03-.077"/><path d="M52.343 59.175l1.4-.743.03.077-1.4.743c-.008-.026-.018-.052-.03-.077m.03.077l1.4-.743.03.078-1.4.743-.028-.078"/><path d="M52.402 59.33l1.4-.743.028.08-1.4.744-.028-.08"/><path d="M52.43 59.4l1.4-.743.028.084-1.4.743-.026-.084m.025.085l1.4-.743.026.086-1.4.743-.025-.086"/><path d="M52.482 59.58l1.4-.743.024.09-1.4.743-.023-.09"/><path d="M52.506 59.67l1.4-.743.022.1-1.4.743-.02-.1"/><path d="M52.527 59.76l1.4-.743.02.1-1.4.743-.02-.1m.02.092l1.4-.743.017.1-1.4.743-.017-.1"/><path d="M52.563 59.942l1.4-.743.014.088-1.4.743-.014-.088"/><path d="M52.577 60.03l1.4-.743.01.087-1.4.743-.01-.087m.01.088l1.4-.743.008.086-1.4.743-.01-.086"/><path d="M52.596 60.204l1.4-.743.006.085-1.4.743-.005-.085"/><path d="M52.6 60.29l1.4-.743.003.084-1.4.743-.003-.084"/><path d="M52.604 60.374l1.4-.743v.042l-1.4.743-.001-.042"/></g><path d="M50.923 57.38l1.4-.743c.927.557 1.682 1.913 1.682 3.035l-1.4.744c-.001-1.122-.755-2.48-1.683-3.036z"/><use xlink:href="#N"/><path d="M34.915 60.022L31.52 57.96v-4.83l3.396 2.06zm0 6.133l-3.396-2.06V59.26l3.396 2.062z"/><use xlink:href="#O"/><use xlink:href="#P"/><use xlink:href="#O" y="17.209"/><use xlink:href="#P" y="17.208"/><path d="M34.915 101.76L31.52 99.7v-4.83l3.396 2.06zm0 6.134l-3.396-2.06V101l3.396 2.062zM24 73.753l-3.396-2.062v-4.83L24 68.92z"/><use xlink:href="#Q" class="y"/><use xlink:href="#O" x="-11.133" y="11.032"/><path d="M23.782 89.453l-3.396-2.06V82.56l3.396 2.062z"/><use xlink:href="#O" x="-11.133" y="23.298"/><use xlink:href="#P" x="-11.133" y="23.3"/></g><path d="M56.617 9.06l2.333-1.238.045 63.358-2.334 1.237z" class="w"/><path d="M45.863 2.6l2.334-1.24L58.95 7.823 56.617 9.06z" class="x"/><path d="M56.617 9.06l.044 63.357-10.753-6.46L45.863 2.6z" class="v"/><path d="M51.646 11.673l2.334-1.24.044 63.358-2.333 1.238z" class="w"/><path d="M40.893 5.21l2.334-1.24 10.753 6.462-2.334 1.238z" class="x"/><path d="M51.646 11.673l.045 63.357-10.754-6.46-.044-63.357z" class="v"/><path d="M46.677 14.607l2.334-1.238.044 63.357-2.334 1.24z" class="w"/><path d="M35.924 8.146l2.333-1.24L49.01 13.37l-2.334 1.238z" class="x"/><path d="M46.677 14.607l.044 63.358-10.753-6.46-.044-63.358z" class="v"/><path d="M41.707 17.22l2.333-1.238.045 63.357-2.334 1.24z" class="w"/><path d="M30.953 10.758l2.334-1.24L44.04 15.98l-2.333 1.238z" class="x"/><path d="M41.707 17.22l.044 63.358-10.753-6.46-.045-63.358z" class="v"/><use xlink:href="#B" class="w"/><use xlink:href="#C" class="x"/><use xlink:href="#D" class="v"/><use xlink:href="#B" x="-4.97" y="2.611" class="w"/><path d="M21.013 15.724l2.333-1.24 10.754 6.46-2.334 1.24z" class="x"/><path d="M31.766 22.185l.045 63.358-10.754-6.462-.044-63.357z" class="v"/><use xlink:href="#E" class="w"/><use xlink:href="#F" class="x"/><path d="M26.797 25.12l.044 63.357-10.753-6.46-.044-63.357z" class="v"/><use xlink:href="#E" x="-4.97" y="2.61" class="w"/><use xlink:href="#G" class="x"/><use xlink:href="#H" class="v"/><path d="M16.856 30.236l2.334-1.238.044 63.357-2.333 1.24z" class="w"/><path d="M6.103 23.775l2.334-1.24L19.2 28.998l-2.334 1.238z" class="x"/><use xlink:href="#I" class="v"/><use xlink:href="#B" x="-24.622" y="12.902" class="w"/><use xlink:href="#C" x="-24.623" y="12.902" class="x"/><path d="M12.114 32.476l.045 63.358-10.754-6.462-.044-63.357z" class="v"/><path d="M54.035 57.205l51.338-27.25.047 65.802-51.34 27.25z" fill="#6c6e70"/><path d="M11.626 31.724l51.34-27.25 42.408 25.482-51.338 27.25z" fill="#d0d2d3"/><path d="M54.035 57.205l.046 65.803-42.41-25.482-.046-65.802z" fill="#b2b3b6"/><path d="M112.05 40.444l2.333-1.238.045 63.357-2.334 1.24z" class="w"/><use xlink:href="#F" x="85.253" y="15.323" class="x"/><path d="M112.05 40.444l.044 63.358-10.753-6.46-.043-63.358z" class="v"/><use xlink:href="#E" x="80.283" y="17.936" class="w"/><use xlink:href="#G" x="85.253" y="15.325" class="x"/><use xlink:href="#H" x="85.253" y="15.326" class="v"/><use xlink:href="#B" x="65.374" y="26.416" class="w"/><path d="M91.356 39.53l2.334-1.24 10.753 6.46-2.334 1.24z" class="x"/><use xlink:href="#I" x="85.254" y="15.754" class="v"/><path d="M97.14 48.602l2.334-1.24.044 63.358-2.334 1.24z" class="w"/><path d="M86.386 42.14l2.333-1.24 10.754 6.46-2.334 1.24z" class="x"/><path d="M97.14 48.602l.044 63.358-10.753-6.46-.044-63.358z" class="v"/><use xlink:href="#E" x="65.373" y="25.837" class="w"/><path d="M81.416 44.495l2.334-1.238 10.753 6.46-2.333 1.238z" class="x"/><use xlink:href="#H" x="70.343" y="23.227" class="v"/><use xlink:href="#B" x="50.464" y="33.994" class="w"/><use xlink:href="#C" x="50.463" y="33.995" class="x"/><use xlink:href="#D" x="50.464" y="33.994" class="v"/><path d="M82.23 56.503l2.334-1.238.044 63.357-2.333 1.24z" class="w"/><path d="M71.476 50.042l2.334-1.24 10.753 6.462-2.334 1.238z" class="x"/><path d="M82.23 56.503l.045 63.358-10.754-6.46-.044-63.358z" class="v"/><path d="M77.26 59.114l2.333-1.238.046 63.357-2.334 1.24z" class="w"/><use xlink:href="#F" x="50.463" y="33.993" class="x"/><path d="M77.26 59.114l.045 63.358-10.754-6.46-.043-63.358z" class="v"/><path d="M72.3 61.62l2.333-1.24.045 63.358-2.334 1.24z" class="w"/><path d="M61.536 55.158l2.334-1.24 10.753 6.46-2.333 1.24z" class="x"/><path d="M72.3 61.62l.044 63.358-10.753-6.46-.045-63.358z" class="v"/><path d="M67.547 63.86l2.334-1.24.045 63.358-2.334 1.238z" class="w"/><path d="M56.794 57.397l2.334-1.24L69.88 62.62l-2.334 1.238z" class="x"/><path d="M67.547 63.86l.045 63.357-10.753-6.46-.045-63.357z" class="v"/><path d="M52.648 122.157l1.4-.744-.001.043-1.4.743v-.042" class="AA"/><path d="M52.648 122.2l1.4-.743-.003.083-1.4.743.003-.083" fill="#a2a5a7"/><path d="M52.645 122.283l1.4-.743-.005.083-1.4.743.006-.083" fill="#a1a3a6"/><path d="M52.64 122.366l1.4-.744-.008.083-1.4.743.01-.082" fill="#9fa1a4"/><path d="M52.63 122.448l1.4-.743-.013.084-1.4.743.013-.084" fill="#9ea0a2"/><path d="M52.617 122.533l1.4-.743-.016.083-1.4.743.018-.083" fill="#9c9ea1"/><path d="M52.6 122.616l1.4-.743-.024.1-1.4.743.023-.1" fill="#9a9c9f"/><path d="M52.576 122.706l1.4-.743a.92.92 0 0 1-.03.093l-1.4.743.03-.093" fill="#999b9d"/><use xlink:href="#J" fill="#97999c"/><use xlink:href="#K" fill="#96989a"/><g fill="#949699"><use xlink:href="#L"/><path d="M10.737 33.794l1.4-.743a.7.7 0 0 1 .116-.05l-1.4.743a.7.7 0 0 0-.116.05"/></g><path d="M10.853 33.744l1.4-.743a.73.73 0 0 1 .122-.032l-1.4.743a.81.81 0 0 0-.122.032" fill="#96989a"/><path d="M10.975 33.712l1.4-.743c.033-.006.066-.01.1-.013l-1.4.743-.1.013" fill="#97999c"/><path d="M11.074 33.7l1.4-.743.088-.003-1.4.744c-.03-.001-.06 0-.088.002" fill="#999b9d"/><path d="M11.162 33.697l1.4-.743.083.004-1.4.743-.084-.004" fill="#9a9c9f"/><path d="M11.246 33.7l1.4-.743.077.01-1.4.744a.67.67 0 0 0-.075-.01" fill="#9c9ea1"/><path d="M11.32 33.71l1.4-.744.075.015-1.4.743-.074-.014" fill="#9ea0a2"/><path d="M11.395 33.725l1.4-.744.072.018-1.4.744-.07-.018" fill="#9fa1a4"/><path d="M11.466 33.743l1.4-.743.07.02-1.4.743-.07-.02" fill="#a1a3a6"/><path d="M11.537 33.764l1.4-.743.07.025-1.4.743-.07-.025" fill="#a2a5a7"/><path d="M11.606 33.79l1.4-.743.07.028-1.4.743-.07-.028" class="AA"/><path d="M11.675 33.817l1.4-.743.07.032-1.4.743-.068-.032" fill="#a6a8aa"/><path d="M11.744 33.85l1.4-.743.07.035-1.4.743-.07-.035" fill="#a7a9ac"/><path d="M11.813 33.884l1.4-.743.07.04-1.4.743-.07-.04" fill="#a9abae"/><path d="M11.883 33.923l1.4-.743.027.016-1.4.743z" class="AB"/><path d="M11.9 33.94l1.4-.743 39.013 23.44-1.4.743z" class="AC"/><path d="M52.605 60.416l1.4-.743.044 61.74-1.4.743z" fill="#898a8c"/><path d="M50.923 57.38l1.4-.743.044.027-1.4.743-.044-.027" class="AB"/><path d="M50.966 57.408l1.4-.743.07.046-1.4.743c-.02-.016-.046-.03-.07-.046" fill="#acaeb1"/><path d="M51.037 57.453l1.4-.743.073.05-1.4.743-.072-.05" fill="#aeb0b2"/><path d="M51.11 57.504l1.4-.743.072.055-1.4.743-.07-.055" fill="#b0b2b4"/><path d="M51.18 57.56l1.4-.743.075.06-1.4.743-.074-.06" fill="#b1b3b6"/><path d="M51.255 57.62l1.4-.743.074.064-1.4.743-.074-.064" fill="#b3b5b7"/><path d="M51.33 57.683l1.4-.743.076.07-1.4.743-.074-.07" fill="#b5b7b9"/><path d="M51.403 57.752l1.4-.743.073.07-1.4.744-.072-.072" fill="#b6b8bb"/><path d="M51.475 57.824l1.4-.744.07.074-1.4.743-.07-.073" fill="#b8babc"/><path d="M51.545 57.897l1.4-.743.066.073-1.4.743-.065-.073" class="AC"/><path d="M51.6 57.97l1.4-.743.063.073-1.4.743-.062-.073" fill="#bbbdc0"/><path d="M51.673 58.043l1.4-.743.06.074-1.4.743-.06-.074" fill="#c0c2c4"/><path d="M51.733 58.117l1.4-.743.06.075-1.4.743-.058-.075" fill="#c2c4c6"/><path d="M51.79 58.192l1.4-.743.063.085-1.4.743-.062-.085" fill="#c3c5c7"/><path d="M51.853 58.277l1.4-.743.064.092-1.4.743-.064-.092" fill="#c5c6c8"/><use xlink:href="#M" fill="#c6c7c9"/><path d="M52.19 58.833l1.4-.743.048.097-1.4.744-.048-.098" fill="#c5c6c8"/><path d="M52.237 58.93l1.4-.743.04.1-1.4.743-.042-.1" fill="#c3c5c7"/><path d="M52.28 59.02l1.4-.743.035.077-1.4.743-.033-.077" fill="#c2c4c6"/><path d="M52.312 59.098l1.4-.743.032.077-1.4.743-.03-.077" fill="#c0c2c4"/><path d="M52.343 59.175l1.4-.743.03.077-1.4.743c-.008-.026-.018-.052-.03-.077" fill="#bbbdc0"/><path d="M52.374 59.252l1.4-.743.03.078-1.4.743-.028-.078" class="AC"/><path d="M52.402 59.33l1.4-.743.028.08-1.4.744-.028-.08" fill="#b8babc"/><path d="M52.43 59.41l1.4-.743.028.084-1.4.743-.026-.084" fill="#b6b8bb"/><path d="M52.457 59.495l1.4-.743.026.086-1.4.743-.025-.086" fill="#b5b7b9"/><path d="M52.482 59.58l1.4-.743.024.09-1.4.743-.023-.09" fill="#b3b5b7"/><path d="M52.506 59.67l1.4-.743.022.1-1.4.743-.02-.1" fill="#b1b3b6"/><path d="M52.527 59.76l1.4-.743.02.09-1.4.743-.02-.09" fill="#b0b2b4"/><path d="M52.547 59.852l1.4-.743.017.1-1.4.743-.017-.1" fill="#aeb0b2"/><path d="M52.563 59.942l1.4-.743.014.088-1.4.743-.014-.088" fill="#acaeb1"/><path d="M52.577 60.03l1.4-.743.01.087-1.4.743-.01-.087" class="AB"/><path d="M52.588 60.118l1.4-.743.008.086-1.4.743-.01-.086" fill="#a9abae"/><path d="M52.596 60.204l1.4-.743.006.085-1.4.743-.005-.085" fill="#a7a9ac"/><path d="M52.6 60.29l1.4-.743.003.084-1.4.743-.003-.084" fill="#a6a8aa"/><path d="M52.604 60.374l1.4-.743v.042l-1.4.743-.001-.042" class="AA"/><use xlink:href="#N" fill="#a6a8ab"/><g fill="#fefefe"><path d="M34.915 60.022L31.52 57.96v-4.83l3.396 2.06zm0 6.133l-3.396-2.06V59.26l3.396 2.062z"/><use xlink:href="#O" y="-0.001"/><use xlink:href="#P"/><use xlink:href="#O" y="17.209"/><use xlink:href="#P" y="17.208"/><path d="M34.915 101.76L31.52 99.7v-4.83l3.396 2.06zm0 6.134l-3.396-2.06V101l3.396 2.062zM24 73.753l-3.396-2.062v-4.83L24 68.92z"/></g><use xlink:href="#Q" fill="none" stroke="#efeeee" stroke-width=".336" class="z AD"/><g fill="#fefefe"><use xlink:href="#O" x="-11.133" y="11.032"/><path d="M23.782 89.453l-3.396-2.06V82.56l3.396 2.062z"/><use xlink:href="#O" x="-11.133" y="23.298"/><use xlink:href="#P" x="-11.133" y="23.3"/></g><path d="M77.925 20.78l3.6-1.905.003 4.67-3.588 1.905z" class="v"/><path d="M74.053 18.454l3.588-1.905 3.873 2.327-3.59 1.905z" fill="#939597"/><path d="M77.925 20.78l.005 4.67-3.873-2.327-.003-4.67z" fill="#808184"/><path d="M72.225 23.85l3.588-1.905.003 4.67-3.588 1.905z" class="v"/><path d="M68.352 21.522l3.588-1.905 3.873 2.327-3.588 1.905z" fill="#939597"/><path d="M72.225 23.85l.003 4.67-3.873-2.327-.003-4.67z" fill="#808184"/><path d="M70.252 33.618l9.334-4.955.004 6.187-9.334 4.955z" fill="#469049"/><path d="M65.41 30.71l9.335-4.955 4.84 2.91-9.334 4.954z" fill="#bbddb1"/><path d="M70.252 33.618l.004 6.187-4.84-2.908-.005-6.187z" fill="#8ccb8e"/><path d="M65.453 30.803l4.8 2.814-.04 6.035m-1.86-18.13l3.84 2.413.032 3.035m1.83-8.516l3.922 2.415-.032 4.44" fill="none" stroke="#dfdfde" stroke-width=".345" class="z AD"/><defs ><path id="B" d="M36.736 19.574l2.334-1.24.044 63.358-2.333 1.24z"/><path id="C" d="M25.983 13.112l2.334-1.238 10.753 6.46-2.334 1.238z"/><path id="D" d="M36.736 19.574l.045 63.358-10.753-6.462-.045-63.357z"/><path id="E" d="M26.797 25.12l2.333-1.24.045 63.358-2.334 1.238z"/><path id="F" d="M16.044 18.66l2.333-1.24 10.753 6.462-2.333 1.238z"/><path id="G" d="M11.073 21.27l2.334-1.24 10.753 6.462-2.333 1.238z"/><path id="H" d="M21.827 27.73l.044 63.357-10.753-6.46-.045-63.357z"/><path id="I" d="M16.856 30.236l.045 63.358-10.753-6.46-.045-63.358z"/><path id="J" d="M52.545 122.798l1.4-.743c-.013.035-.027.068-.043.1l-1.4.743c.016-.032.03-.065.043-.1"/><path id="K" d="M52.502 122.898l1.4-.743a1.2 1.2 0 0 1-.065.118l-1.4.744a1.22 1.22 0 0 0 .065-.119"/><path id="L" d="M52.436 123.017l1.4-.744c-.085.134-.194.236-.32.303l-1.4.743c.127-.067.235-.17.32-.302"/><path id="M" d="M51.918 58.37l1.4-.743a4.21 4.21 0 0 1 .273.464l-1.4.743a4.29 4.29 0 0 0-.271-.464"/><path id="N" d="M50.923 57.38c.928.557 1.682 1.914 1.683 3.036l.043 61.74c.001 1.122-.756 1.58-1.69 1.018L11.92 99.72c-.927-.557-1.68-1.918-1.682-3.036l-.043-61.707c-.001-1.142.768-1.607 1.714-1.038l39.013 23.44z"/><path id="O" d="M34.915 72.288l-3.396-2.062v-4.83l3.396 2.06z"/><path id="P" d="M34.915 78.42l-3.396-2.06v-4.832l3.396 2.062z"/><path id="Q" d="M10.31 34.633c.128-.975.742-.88 1.47-.526 4.946 2.41 23.924 14.325 23.924 14.325l15.358 9.228s.32.203.727.723c.513.657.692 2.24.692 2.24l.15 54.095-.03 7.472c-.183 1.747-1.73.817-1.73.817"/></defs></svg>