<svg xmlns="http://www.w3.org/2000/svg" xmlns:xlink="http://www.w3.org/1999/xlink" viewBox="0 0 66.553 93.942"><style><![CDATA[.K{fill:#bbbdbf}.L{fill:#d7d8d9}.M{fill:#dfe0df}.N{stroke-linejoin:round}.O{stroke-width:.525}.P{stroke-linecap:round}]]></style><g fill="none" stroke="#626366" stroke-width="2.835" class="N"><path d="M60.2 19.312c.53.318.968 1.11.97 1.756l.037 53.61c0 .647-.438.904-.967.585L34.25 59.65c-.536-.322-.974-1.106-.974-1.752l-.038-53.612c-.001-.647.437-.912.973-.59L60.2 19.312z"/><path d="M53.95 22.673c.53.318.968 1.11.97 1.756l.037 53.61c0 .647-.438.904-.967.585L28.004 63.01c-.536-.322-.974-1.106-.974-1.752l-.038-53.612c-.001-.647.437-.912.973-.59L53.95 22.673z"/><path d="M47.716 26.264c.53.318.968 1.11.97 1.756l.037 53.61c0 .647-.438.904-.967.585L21.77 66.6c-.536-.322-.974-1.106-.974-1.752l-.038-53.61c-.001-.647.437-.912.973-.59l25.986 15.615z"/><use xlink:href="#B"/><path d="M34.627 32.875c.53.318.968 1.1.97 1.756l.037 53.6c0 .647-.438.904-.967.585L8.68 73.214c-.536-.322-.974-1.106-.974-1.752l-.038-53.6c-.001-.647.437-.912.973-.6l25.986 15.613zM56.5 22.8l3.644-1.935.038 53.612-3.645 1.934z"/><use xlink:href="#C"/><use xlink:href="#C" x="-6.387" y="3.546"/><use xlink:href="#C" x="-12.637" y="7.106"/><use xlink:href="#D"/><use xlink:href="#E"/><use xlink:href="#F"/><use xlink:href="#G"/><use xlink:href="#H"/><use xlink:href="#H" x="-6.388" y="3.548"/><use xlink:href="#I"/><use xlink:href="#H" x="-19.607" y="10.161"/><use xlink:href="#H" x="-25.839" y="13.731"/><use xlink:href="#E" x="32.107" y="-17.278"/><path d="M34.498 3.543l3.645-1.935L64.13 17.226l-3.645 1.933zm26.955 17.372L65.1 18.98l.037 53.6-3.645 1.934z"/><use xlink:href="#J"/><use xlink:href="#K"/><path d="M24.296 89.83l-1.457.774c.2-.1.308-.334.308-.67l1.458-.774c0 .337-.12.57-.3.67zM6.35 25.082l1.458-.773 15.785 9.483-1.458.774z"/><path d="M23.11 36.324l1.458-.775.038 53.612-1.458.775z"/><path d="M22.135 34.567l1.458-.774c.535.322.974 1.113.974 1.758l-1.458.774c0-.646-.438-1.436-.974-1.758z"/><use xlink:href="#L"/><use xlink:href="#M"/><path d="M18.607 52.48l-3.395-2.058v-4.83l3.395 2.062z"/><use xlink:href="#M" y="12.256"/><path d="M18.607 64.738l-3.395-2.058v-4.83l3.395 2.06zM13.3 65.984l-3.393-2.06v-4.827l3.393 2.06zm5.307 9.666l-3.395-2.06v-4.83l3.395 2.06zm0 6.13l-3.395-2.06V74.9l3.395 2.062z"/></g><path d="M64.13 17.226l-3.645 1.933L34.498 3.543l3.645-1.935z" class="M"/><path d="M65.136 72.6l-3.645 1.934-.038-53.61L65.1 18.98z" class="K"/><path d="M60.486 19.16c.53.318.968 1.11.97 1.756l.037 53.61c0 .647-.438.904-.967.585L34.537 59.497c-.536-.322-.974-1.106-.974-1.752l-.037-53.612c-.001-.647.437-.912.973-.59L60.486 19.16z" class="L"/><path d="M57.88 20.784l-3.645 1.932L28.248 7.102l3.645-1.934z" class="M"/><path d="M58.886 76.148l-3.645 1.934-.038-53.6 3.645-1.935z" class="K"/><path d="M54.236 22.718c.53.318.968 1.11.97 1.756l.037 53.61c0 .647-.438.904-.967.585L28.288 63.055c-.536-.322-.974-1.106-.974-1.752L27.276 7.69c-.001-.647.437-.912.973-.59l25.987 15.616z" class="L"/><path d="M51.492 24.33l-3.645 1.934L21.86 10.65l3.645-1.935z" class="M"/><path d="M52.498 79.695l-3.645 1.934-.037-53.61 3.644-1.937z" class="K"/><path d="M47.847 26.264c.53.318.968 1.11.97 1.756l.037 53.61c0 .647-.438.904-.967.585L21.9 66.6c-.536-.322-.974-1.106-.974-1.752l-.038-53.61c-.001-.647.437-.912.973-.59l25.987 15.616z" class="L"/><path d="M45.242 27.89l-3.645 1.934L15.6 14.208l3.645-1.935z" class="M"/><path d="M46.248 83.254l-3.645 1.934-.037-53.61 3.644-1.937z" class="K"/><use xlink:href="#B" class="L"/><path d="M38.272 30.944l-3.645 1.93L8.64 17.263l3.645-1.937z" class="M"/><path d="M39.278 86.31l-3.645 1.933-.036-53.6 3.645-1.934z" class="K"/><path d="M34.627 32.877c.53.318.968 1.11.97 1.756l.037 53.61c0 .647-.438.904-.967.585L8.68 73.214c-.536-.322-.974-1.106-.974-1.752l-.038-53.6c-.001-.647.437-.912.973-.59l25.986 15.614z" class="L"/><path d="M32.022 34.502l-3.644 1.934L2.39 20.822l3.645-1.936z" class="M"/><path d="M33.028 89.867L29.384 91.8l-.037-53.61 3.645-1.936z" class="K"/><use xlink:href="#K" class="L"/><path d="M7.57 24.458l15.922 9.583-1.47.783L6.1 25.24z" fill="#a9abae"/><path d="M24.567 35.55l.038 53.956-1.458.78-.038-53.958z" fill="#6c6e70"/><use xlink:href="#L" fill="#939597"/><g fill="#fefefe"><use xlink:href="#M"/><path d="M18.607 52.48l-3.395-2.058v-4.83l3.395 2.062z"/><use xlink:href="#M" y="12.256"/><path d="M18.607 64.738l-3.395-2.058v-4.83l3.395 2.06zM13.3 65.984l-3.393-2.06v-4.827l3.393 2.06zm5.307 9.666l-3.395-2.06v-4.83l3.395 2.06zm0 6.13l-3.395-2.06V74.9l3.395 2.062z"/></g><g class="L"><path d="M60.2 19.312c.46.407.336.272.572.555.29.347.463 1.155.463 1.155l3.93-2.088c.05-.222-.214-.784-.422-1.097-.26-.4-.612-.61-.612-.61l-3.93 2.086z"/><use xlink:href="#J" x="-32.108" y="17.276"/><use xlink:href="#J" x="-25.859" y="13.717"/><use xlink:href="#J" x="-18.889" y="10.663"/><use xlink:href="#J" x="-12.639" y="7.104"/><use xlink:href="#J" x="-6.251" y="3.558"/></g><g class="K"><use xlink:href="#E" x="32.107" y="-17.278"/><use xlink:href="#C"/><use xlink:href="#C" x="-6.387" y="3.546"/><use xlink:href="#C" x="-12.637" y="7.106"/><use xlink:href="#D"/><use xlink:href="#E"/><use xlink:href="#H"/><use xlink:href="#H" x="-6.388" y="3.548"/><use xlink:href="#I"/><use xlink:href="#H" x="-19.607" y="10.161"/><use xlink:href="#H" x="-25.839" y="13.731"/></g><use xlink:href="#N" fill="none" stroke="#939597" class="N O P"/><g class="K"><use xlink:href="#G"/><use xlink:href="#F"/><path d="M22.035 34.814l1.458-.774c.535.322.974 1.113.974 1.758l-1.458.774c0-.646-.438-1.435-.974-1.758z"/></g><path d="M24.196 90.23l-1.457.774c.19-.1.308-.334.308-.67l1.458-.774c0 .337-.12.57-.31.67z" fill="#6c6e70"/><g fill="none" class="N O P"><path d="M5.377 25.67c.01-.736.973-.176.973-.176l15.348 9.223.727.723c.456.475.505 1.492.505 1.492l.093 52.034s.082 1.19-.184 1.64-.98-.27-.98-.27" stroke="#efeeee"/><g stroke="#939597"><use xlink:href="#N" x="19.622" y="-10.114"/><use xlink:href="#N" x="6.459" y="-3.583"/><use xlink:href="#N" x="13.372" y="-6.555"/><use xlink:href="#N" x="25.857" y="-13.706"/><use xlink:href="#N" x="32.299" y="-17.284"/></g></g><defs ><path id="B" d="M41.597 29.823c.53.318.968 1.11.97 1.756l.037 53.61c0 .647-.438.904-.967.585L15.65 70.16c-.536-.322-.974-1.106-.974-1.752l-.038-53.61c-.001-.647.437-.912.973-.59l25.987 15.615z"/><path id="C" d="M58.58 76.814l-3.645 1.935c.188-.1.305-.33.305-.666l3.645-1.935c0 .335-.118.567-.305.666z"/><path id="D" d="M38.973 86.975L35.328 88.9c.188-.1.305-.33.305-.666l3.645-1.935c0 .335-.118.567-.305.666z"/><path id="E" d="M32.723 90.535l-3.645 1.935c.188-.1.305-.33.305-.666l3.645-1.935c0 .333-.118.566-.305.666z"/><path id="F" d="M5.436 25.15l1.458-.774c.175-.092.408-.073.665.082L6.1 25.23c-.257-.154-.5-.174-.665-.08z"/><path id="G" d="M33.805 3.378s.147-.062.307-.01l.16.052.21.115L38.143 1.6l-.266-.14-.162-.044-.14-.007c.14.007-.125.025-.125.025l-3.645 1.935z"/><path id="H" d="M27.555 6.935s.147-.062.307-.01l.16.052.21.115 3.663-1.924-.266-.14-.162-.044-.14-.007c.14.007-.125.025-.125.025l-3.645 1.935z"/><path id="I" d="M14.935 14.052s.147-.062.307-.01l.16.052.21.115 3.663-1.924-.266-.14-.163-.043-.14-.007c.14.007-.125.025-.125.025l-3.644 1.934z"/><path id="J" d="M60.486 19.16c.426.377.312.252.53.514.27.322.43 1.07.43 1.07l3.645-1.935c.046-.206-.198-.727-.39-1.017-.24-.36-.568-.566-.568-.566l-3.645 1.934z"/><path id="K" d="M28.378 36.436c.53.318.968 1.11.97 1.756l.037 53.61c0 .647-.438.904-.967.585L2.43 76.772c-.536-.322-.974-1.106-.974-1.752l-.038-53.6c-.001-.647.437-.912.973-.59l25.987 15.615z"/><path id="L" d="M22.135 34.566c.536.322.974 1.112.974 1.758l.038 53.613c0 .646-.437.9-.973.588L6.4 81.04c-.537-.323-.975-1.114-.975-1.76l-.038-53.61c0-.645.437-.91.973-.588l15.785 9.484z"/><path id="M" d="M18.607 46.354l-3.395-2.062v-4.827l3.395 2.06z"/><path id="N" d="M1.265 21.128c.012-.813 1.76.185 1.76.185l25.07 15.065.803.8c.504.525.558 1.648.558 1.648l.08 51.05s-.062 1.603-.356 2.102-.956.418-.956.418"/></defs></svg>