<svg xmlns="http://www.w3.org/2000/svg" xmlns:xlink="http://www.w3.org/1999/xlink" viewBox="0 0 66.553 93.887"><style><![CDATA[.M{fill:#dfe0df}.N{fill:#bbbdbf}.O{fill:#d7d8d9}.P{stroke-linejoin:round}.Q{stroke-width:.525}.R{stroke-linecap:round}]]></style><g fill="none" stroke="#626366" stroke-width="2.835" class="P"><path d="M64.83 73.2l-3.645 1.935c.188-.1.305-.33.305-.666l3.645-1.935c0 .335-.118.568-.305.666zM34.498 3.5l3.645-1.937L64.13 17.17l-3.645 1.934z"/><path d="M65.136 72.536L61.49 74.47l-.038-53.61 3.646-1.935z"/><use xlink:href="#B"/><use xlink:href="#C"/><use xlink:href="#D"/><use xlink:href="#E"/><path d="M28.248 7.047l3.645-1.936L57.88 20.73l-3.645 1.932zm30.638 69.047l-3.645 1.934-.038-53.6 3.645-1.935z"/><use xlink:href="#F"/><use xlink:href="#G"/><path d="M27.65 6.938s.147-.062.307-.01l.16.052.21.115 3.663-1.924-.266-.14-.162-.045-.14-.007c.14.007-.125.025-.125.025L27.65 6.938z"/><use xlink:href="#H"/><use xlink:href="#I"/><use xlink:href="#J"/><use xlink:href="#K"/><use xlink:href="#C" x="-12.639" y="7.104"/><path d="M21.26 10.483s.147-.062.307-.01l.16.052.21.115L25.6 8.715l-.266-.14-.162-.044-.14-.007c.14.007-.125.025-.125.025l-3.645 1.935z"/><use xlink:href="#L"/><use xlink:href="#I" x="-6.26" y="3.559"/><use xlink:href="#J" x="-6.25" y="3.56"/><use xlink:href="#M"/><use xlink:href="#C" x="-18.889" y="10.663"/><path d="M15.01 14.042s.147-.062.307-.01l.16.052.21.115 3.663-1.924-.266-.14-.163-.043-.14-.007c.14.007-.125.025-.125.025l-3.644 1.934z"/><use xlink:href="#H" x="-13.22" y="6.613"/><path d="M8.64 17.208l3.645-1.937L38.272 30.9l-3.645 1.93zm30.638 69.046l-3.645 1.935-.036-53.613 3.645-1.934z"/><use xlink:href="#N"/><use xlink:href="#C" x="-25.859" y="13.718"/><use xlink:href="#O"/><use xlink:href="#E" x="-25.857" y="13.72"/><path d="M2.4 20.767l3.645-1.936L32.02 34.447l-3.644 1.934zm26.957 17.37l3.645-1.936.036 53.613-3.644 1.933z"/><use xlink:href="#P"/><use xlink:href="#C" x="-32.108" y="17.276"/><use xlink:href="#O" x="-6.25" y="3.559"/><use xlink:href="#Q"/><use xlink:href="#R"/><path d="M6.35 25.026l1.458-.773 15.785 9.483-1.458.774zM23.1 36.27l1.458-.775.038 53.613-1.458.775z"/><use xlink:href="#S"/><use xlink:href="#T"/><path d="M18.607 46.3l-3.395-2.063V39.4l3.395 2.06zm0 6.125l-3.395-2.058v-4.83l3.395 2.06zm0 6.13l-3.395-2.063v-4.826l3.395 2.06z"/><use xlink:href="#U"/><path d="M13.3 65.93l-3.393-2.062v-4.826l3.393 2.06z"/><use xlink:href="#U" y="10.912"/><path d="M18.607 81.725l-3.395-2.06v-4.83l3.395 2.062z"/></g><path d="M34.498 3.5l3.645-1.937L64.13 17.17l-3.645 1.934z" class="M"/><path d="M65.136 72.536L61.49 74.47l-.038-53.61 3.646-1.935z" class="N"/><use xlink:href="#B" class="O"/><path d="M28.248 7.047l3.645-1.936L57.88 20.73l-3.645 1.932z" class="M"/><path d="M58.886 76.094l-3.645 1.934-.038-53.61 3.645-1.935z" class="N"/><use xlink:href="#F" class="O"/><use xlink:href="#I" class="M"/><use xlink:href="#J" class="N"/><use xlink:href="#K" class="O"/><use xlink:href="#I" x="-6.26" y="3.559" class="M"/><use xlink:href="#J" x="-6.25" y="3.56" class="N"/><use xlink:href="#M" class="O"/><path d="M8.64 17.208l3.645-1.937L38.272 30.89l-3.645 1.93z" class="M"/><path d="M39.278 86.254l-3.645 1.935-.036-53.613 3.645-1.934z" class="N"/><use xlink:href="#N" class="O"/><path d="M2.39 20.767l3.645-1.936 25.986 15.616-3.644 1.934z" class="M"/><path d="M33.028 89.814l-3.644 1.933-.037-53.6 3.645-1.936z" class="N"/><use xlink:href="#P" class="O"/><path d="M6.35 25.026l1.458-.773 15.785 9.483-1.458.774z" fill="#a9abae"/><path d="M23.11 36.27l1.458-.775.038 53.613-1.458.775z" fill="#6c6e70"/><use xlink:href="#T" fill="#231f20"/><g fill="#fefefe"><path d="M18.607 50.3l-3.395-2.063V43.4l3.395 2.06zm0 6.125l-3.395-2.058v-4.83l3.395 2.06zm0 6.13l-3.395-2.063v-4.826l3.395 2.06z"/><use xlink:href="#U" y="4"/><path d="M13.3 69.93l-3.393-2.062v-4.826L13.3 65.1z"/><use xlink:href="#U" y="14.912"/><path d="M18.607 85.725l-3.395-2.06v-4.83l3.395 2.062z"/></g><g fill="none" stroke="#939597" class="P Q R"><use xlink:href="#V"/><path d="M27.122 7.366c.012-.813 1.76.185 1.76.185l25.07 15.064.803.8c.504.525.558 1.648.558 1.648l.08 51.05s-.062 1.603-.356 2.102-.956.418-.956.418"/><use xlink:href="#V" x="-12.677" y="7.171"/><use xlink:href="#V" x="-18.927" y="10.73"/><use xlink:href="#V" x="-25.84" y="13.713"/></g><path d="M14.066 43.534l-3.823 3.6 2.8.618-2.792 2.25 1.943.43-4.947 3.988 2.797-3.577-2.44-.536 2.34-1.888-2.783-.614 6.644-4.107zM9.35 33.243l.566.32c.505.287.85.092.85-.748 0-.803-.248-1.403-.886-1.764l-.53-.3v2.492zM8.074 28.8l2.234 1.266c1.294.73 1.735 2.2 1.735 3.44 0 1.7-.805 2.012-2 1.33l-.683-.385v3.274L8.084 37v-8.2zm6.07 10.727c.496.282.656-.26.656-1.798s-.16-2.262-.656-2.543c-.603-.342-.655.536-.655 1.8s.052 2.2.655 2.542m0-5.423c1.472.798 1.878 2.165 1.878 4.314 0 2.114-.477 2.98-1.878 2.188-1.47-.798-1.88-2.167-1.88-4.314 0-2.112.478-2.98 1.88-2.188m6.105 1.595v1.354l-2.26-1.277v1.93l2.126 1.203v1.355l-2.126-1.203v2.205l2.35 1.33v1.354l-3.625-2.05v-8.2z" fill="#fefefe"/><g fill="#9a9c9f"><use xlink:href="#E" x="-25.857" y="13.72"/><use xlink:href="#H" x="-13.22" y="6.613"/><use xlink:href="#L"/><use xlink:href="#H"/><use xlink:href="#E"/><path d="M64.83 73.2l-3.645 1.935c.188-.1.305-.33.305-.666l3.645-1.935c0 .335-.118.568-.305.666z"/><use xlink:href="#C" x="-32.108" y="17.276"/><use xlink:href="#C" x="-25.859" y="13.718"/><use xlink:href="#C" x="-18.889" y="10.663"/><use xlink:href="#C" x="-12.639" y="7.104"/><use xlink:href="#G"/><use xlink:href="#C"/><path d="M1.527 20.674s.147-.062.307-.01l.16.052.21.115 3.663-1.924-.266-.14-.162-.045-.14-.007c.14.007-.125.025-.125.025l-3.645 1.936z"/><use xlink:href="#O" x="-0.076" y="-0.045"/><use xlink:href="#O" x="6.893" y="-3.1"/><path d="M21.386 10.458s.147-.062.307-.01l.16.052.2.115 3.66-1.915-.266-.14-.162-.044-.14-.007c.14.007-.125.025-.125.025l-3.645 1.934zM27.573 6.9s.147-.062.307-.01l.16.052.2.115 3.663-1.924-.266-.14-.162-.044-.14-.007c.14.007-.125.025-.125.025L27.573 6.9z"/><use xlink:href="#D"/></g><g fill="#a5a7aa"><use xlink:href="#R"/><use xlink:href="#S"/></g><use xlink:href="#V" x="-32.299" y="17.286" fill="none" stroke="#939597" class="P Q R"/><use xlink:href="#Q" fill="#a5a7aa"/><path d="M5.377 25.615c.01-.736.973-.176.973-.176l15.348 9.223.727.723c.456.475.505 1.492.505 1.492l.093 52.034s.082 1.19-.184 1.64-.98-.27-.98-.27" fill="none" stroke="#efeeee" class="P Q R"/><defs ><path id="B" d="M60.486 19.104c.53.318.968 1.11.97 1.756l.037 53.61c0 .647-.438.904-.967.585L34.537 59.442c-.536-.322-.974-1.106-.974-1.752l-.037-53.612c-.001-.647.437-.912.973-.59l25.987 15.615z"/><path id="C" d="M60.486 19.104c.426.377.312.252.53.514.27.322.43 1.07.43 1.07l3.645-1.935c.046-.206-.198-.727-.39-1.017-.24-.36-.568-.566-.568-.566l-3.645 1.934z"/><path id="D" d="M33.9 3.378s.147-.062.307-.01l.16.052.21.115L38.238 1.6l-.266-.14-.162-.046-.14-.007c.14.007-.125.025-.125.025L33.9 3.378z"/><path id="E" d="M58.58 76.76l-3.645 1.935c.188-.1.305-.33.305-.666l3.645-1.935c0 .335-.118.567-.305.666z"/><path id="F" d="M54.236 22.66c.53.318.968 1.11.97 1.756l.037 53.61c0 .647-.438.904-.967.585L28.288 63c-.536-.322-.974-1.106-.974-1.752l-.038-53.613c-.001-.647.437-.912.973-.59L54.236 22.66z"/><path id="G" d="M54.236 22.66c.426.377.312.252.53.514.27.322.43 1.07.43 1.07L58.84 22.3c.046-.206-.198-.727-.39-1.017-.24-.36-.568-.566-.568-.566l-3.645 1.934z"/><path id="H" d="M52.193 80.307l-3.645 1.935c.188-.1.305-.33.305-.666l3.645-1.935c0 .335-.118.566-.305.666z"/><path id="I" d="M21.86 10.594l3.645-1.936 25.987 15.616-3.645 1.934z"/><path id="J" d="M52.498 79.64l-3.645 1.934-.037-53.6 3.644-1.937z"/><path id="K" d="M47.847 26.208c.53.318.968 1.11.97 1.756l.037 53.61c0 .647-.438.904-.967.585L21.9 66.546c-.536-.322-.974-1.106-.974-1.752l-.038-53.61c-.001-.647.437-.912.973-.59l25.987 15.614z"/><path id="L" d="M45.943 83.866L42.298 85.8c.188-.1.305-.33.305-.666l3.645-1.935c0 .334-.118.566-.305.666z"/><path id="M" d="M41.597 29.767c.53.318.968 1.11.97 1.756l.037 53.61c0 .647-.438.904-.967.585L15.65 70.104c-.536-.322-.974-1.106-.974-1.752l-.038-53.61c-.001-.647.437-.912.973-.59l25.987 15.615z"/><path id="N" d="M34.627 32.822c.53.318.968 1.11.97 1.756l.037 53.61c0 .647-.438.904-.967.585L8.68 73.16c-.536-.322-.974-1.106-.974-1.752l-.038-53.61c-.001-.647.437-.912.973-.59l25.986 15.613z"/><path id="O" d="M8.042 17.097s.147-.062.307-.01l.16.052.21.115 3.663-1.924-.266-.14-.162-.044-.14-.007c.14.007-.125.025-.125.025l-3.645 1.935z"/><path id="P" d="M28.378 36.38c.53.318.968 1.11.97 1.756l.037 53.61c0 .647-.438.904-.967.585L2.43 76.718c-.536-.322-.974-1.106-.974-1.752l-.038-53.6c-.001-.647.437-.912.973-.59L28.378 36.38z"/><path id="Q" d="M24.296 89.777l-1.457.774c.19-.1.308-.334.308-.67l1.458-.774c0 .337-.12.57-.31.67z"/><path id="R" d="M5.685 24.944l1.458-.774c.175-.092.408-.073.665.082l-1.458.774c-.257-.154-.5-.174-.665-.082z"/><path id="S" d="M22.135 34.5l1.458-.774c.535.322.974 1.113.974 1.758l-1.458.774c0-.645-.438-1.435-.974-1.758z"/><path id="T" d="M22.135 34.5c.536.322.974 1.112.974 1.758l.038 53.613c0 .646-.437.9-.973.588L6.4 80.986c-.537-.323-.975-1.114-.975-1.76l-.038-53.612c0-.645.437-.91.973-.588L22.135 34.5z"/><path id="U" d="M18.607 64.684l-3.395-2.06v-4.83l3.395 2.06z"/><path id="V" d="M33.564 3.787c.012-.813 1.76.185 1.76.185l25.07 15.065.803.8c.504.525.558 1.648.558 1.648l.08 51.05s-.062 1.603-.356 2.102-.956.418-.956.418"/></defs></svg>