<svg xmlns="http://www.w3.org/2000/svg" xmlns:xlink="http://www.w3.org/1999/xlink" viewBox="0 0 149.197 152.75"><style><![CDATA[.N{fill:none}.O{stroke-linejoin:round}.P{stroke:#636466}.Q{fill:#636466}.R{stroke-width:.25}.S{fill:#fefefe}]]></style><text transform="translate(33.09 22.57)" font-family="ArialMT" font-size="2.339" class="S">SBx8100</text><g stroke-width="3" class="N O P"><path d="M1.5 37L69.036 1.5l78.62 45.63-67.25 35.836z"/><path d="M80.407 82.967l.03 68.256-78.926-47.42.032-66.78z"/><path d="M80.407 82.967l67.25-35.836.04 69.46-67.24 34.66z"/></g><path d="M1.5 37L69.036 1.5l78.62 45.63-67.25 35.836z" fill="#bbbdbf"/><path d="M80.407 82.967l.03 68.256-78.926-47.42.032-66.78z" fill="#b3b5b7"/><path d="M80.407 82.967l67.25-35.836.04 69.46-67.24 34.66z" fill="#898b8e"/><g stroke-linecap="round" class="N"><path d="M2.285 37.065l78.072 45.663v67.82" stroke="#dfe0df" stroke-width=".75" class="O"/><path d="M4.45 39.255v65.554m71.43-23.56v66.5M39.132 70.433v55.734" stroke="#fefefe" stroke-width=".722"/></g><path d="M75.62 130.834L4.406 87.93V87l71.214 42.904zm.026 9.71L4.434 97.64v-.94l71.212 42.904zm-.001-29.128L4.43 68.513v-.94l71.214 42.904zM75.393 121L4.18 78.087v-.94l71.213 42.904zm.39-19.703L4.572 58.383v-.94l71.212 42.904zm-63.64-23.443L6.576 74.5v-2.615l5.568 3.346zM46.398 98.4l-5.566-3.344V92.44l5.566 3.346zm-25.01-12.495L15.82 82.56v-2.615l5.567 3.346zm35.45 21.635l-5.566-3.344v-2.615l5.566 3.346zm7.286 4.4l-5.567-3.344v-2.615l5.567 3.346zm-35.62-21.568l-5.567-3.344v-2.615l5.567 3.346zm-15.77-29.907L7.167 57.12v-2.615l5.567 3.346zm7.086 4.3l-5.57-3.345v-2.615l5.568 3.346zm7.516 4.48L21.77 65.9v-2.615l5.566 3.346zm7.286 4.4l-5.567-3.344v-2.615l5.567 3.346z" class="S"/><path d="M21.588 59.948L4.936 50.33v-11l16.652 9.726z" class="Q"/><path d="M21.588 59.948L4.936 50.33v-11l16.652 9.726z" class="N O P R"/><path d="M75.01 91.153l-16.65-9.618v-11l16.65 9.726z" class="Q"/><path d="M75.01 91.153l-16.65-9.618v-11l16.65 9.726z" class="N O P R"/><path d="M39.352 70.346L22.7 60.728v-11l16.653 9.726z" class="Q"/><path d="M39.352 70.346L22.7 60.728v-11l16.653 9.726z" class="N O P R"/><path d="M57.285 80.687l-16.65-9.618v-11l16.65 9.726z" class="Q"/><path d="M57.285 80.687l-16.65-9.618v-11l16.65 9.726z" class="N O P R"/><g class="S"><path d="M49.125 82.294l-5.567-3.344v-2.615l5.567 3.346zm7.075 4.3l-5.568-3.344v-2.615L56.2 83.98zm7.527 4.48L58.16 87.73v-2.615l5.567 3.346zm7.286 4.4l-5.567-3.344v-2.615l5.567 3.346zm-50.175-3.427L5.65 82.883V80.63l15.187 9.075zm.057 3.414l-15.2-9.165v-2.254l15.186 9.075z"/><use xlink:href="#B"/><path d="M37.47 105.237l-15.2-9.165v-2.254l15.187 9.075zm19.278 8.363l-15.2-9.165v-2.254l15.187 9.075zm.057 3.424l-15.2-9.165v-2.254l15.187 9.075z"/><use xlink:href="#B" x="35.91" y="21.563"/><use xlink:href="#B" x="35.967" y="24.977"/><path d="M20.793 71.948l-15.2-9.165V60.53L20.8 69.605zm.057 3.414l-15.2-9.165v-2.254l15.187 9.075zm16.518 6.362L22.18 72.56v-2.254l15.187 9.075zm.056 3.414l-15.188-9.165V73.72l15.187 9.075zm19.28 8.372l-15.2-9.165V82.09L56.7 91.167zm.057 3.415l-15.2-9.165v-2.254l15.187 9.075zm16.518 6.36L58.1 94.12v-2.254l15.187 9.075zm.056 3.414l-15.188-9.165V95.28l15.187 9.075zm-52.54-4.757l-15.2-9.165v-2.254L20.8 99.6zm.057 3.414l-15.2-9.165v-2.254l15.187 9.075zm16.518 6.363l-15.188-9.165V100.3l15.187 9.075z"/><use xlink:href="#B" x="0.011" y="13.31"/><path d="M56.703 123.506l-15.2-9.165v-2.254l15.187 9.075zm.057 3.414l-15.2-9.165V115.5l15.187 9.075zm16.518 6.36L58.1 124.116v-2.254l15.187 9.075z"/><use xlink:href="#B" x="35.921" y="34.872"/><path d="M21.1 111.066L5.92 101.9v-2.254l15.187 9.076zm.067 3.414l-15.2-9.165v-2.253l15.187 9.074zm16.52 6.362l-15.2-9.165v-2.254l15.188 9.075z"/><use xlink:href="#B" x="0.327" y="22.433"/><path d="M57.02 132.63l-15.2-9.165V121.2l15.187 9.075zm.057 3.413l-15.2-9.165v-2.254l15.187 9.075z"/><use xlink:href="#B" x="36.183" y="40.581"/><path d="M73.65 145.818l-15.188-9.165V134.4l15.187 9.075z"/></g><path d="M53.818 19.748c-.76-1.238-1.352-1.896-2.2-2.403-.882-.533-1.783-.686-2.302-.398-1.575.873 3.886 3.656.246 5.674-2.004 1.1-4.757.795-6.955-.532-1.72-1.038-2.1-1.817-2.548-2.707l2.248-1.246c.424 1.406.94 2.126 2.024 2.78.94.567 1.798.678 2.4.34 1.713-.95-3.933-3.63-.186-5.708 1.805-1 4.472-.773 6.757.607a7.27 7.27 0 0 1 2.531 2.466L53.81 19.75zm-3.395 7.054l-.984-.595 4.18-5.8 2.14 1.292-2.484 3 5.375-1.254 1.273.768-2.4 3.044L62.8 25.95l2.14 1.292-10.182 2.18-.998-.602 2.176-3.132zm19.627.865c-.673.373-1.745.364-2.38-.02s-.606-1.002.067-1.375 1.743-.365 2.38.02.608 1.004-.065 1.377zm-9.446 5.12l-2.097-1.265 7.05-3.9 2.097 1.266-7.05 3.9zm11.694.648l-2.43-1.467-2.905 1.612c-.688.38-.756.854-.105 1.247.434.262.946.447 1.815.618l-1.605.9c-1.06-.266-1.73-.53-2.38-.922-1.4-.838-1.916-1.936.056-3.03l3.03-1.68-.954-.576.428-.237 6.095-.146.26.156-2.22 1.23 2.43 1.466-1.514.84zm1.342 6.83c-1.16-.328-2.02-.67-2.73-1.1-2.343-1.414-2.424-3.128-.222-4.348 2.157-1.197 5.263-1.092 7.46.234a6.42 6.42 0 0 1 1.783 1.608l-1.652.916c-.243-.5-.7-.98-1.232-1.293-1.258-.76-2.864-.808-4.102-.12-1.254.696-1.284 1.633-.084 2.358.506.306 1.076.508 2.37.863l-1.6.882zm8.914-1.2l.03.018c1.418-.083 2.463.123 3.3.62 1.215.733 1.664 1.907-.248 2.967l-4.496 2.493-2.096-1.266 4.022-2.23c1.055-.585 1.1-1.12.46-1.5-.492-.297-1.232-.372-2.474-.254l-4.496 2.493-2.096-1.267 10.43-5.782 2.098 1.267-4.42 2.45z" fill="#b22216"/><path d="M89.196 43.563l1.056.638c1.996 1.204 3.53 1.157 4.77.47 1.6-.88.894-1.868-.638-2.793l-1.027-.62-4.16 2.307zm-4.925 2.73l2.04 1.232c2.04 1.23 3.737.9 4.685.384 1.025-.57 1.62-1.5-.765-2.942l-1.707-1.03-4.252 2.356zm11.044-4.63c2.662 1.606 1.8 2.803.6 3.473-1.04.577-2.206.705-3.74.434 1.168 1.094 1.03 2.074-.362 2.846-1.712.95-4.07.75-6.08-.464l-2.9-1.746 10.43-5.783 2.053 1.24zm-4.377 9.434l-.695-.42 10.43-5.782.695.42zm8.372.997c-1.614-1.063-3.798-1.478-5-.816-.643.356-.582.96.156 1.404.62.375 1.373.546 2.694.6l2.14-1.187zm-1.142 2.693l-.207-.018c-1.17-.106-1.552-.2-1.828-.377-.318-.193-.236-.338.394-.755-1.32-.106-2.2-.337-2.895-.755-.984-.594-.97-1.5-.007-2.023 1.8-.993 4.312-.196 6.297.896l.87-.483c.918-.5.93-1.068-.038-1.653-.694-.42-1.474-.6-2.852-.713l.75-.416c1.315.193 2.122.432 2.83.86.8.5 1.672 1.417.234 2.214l-4.282 2.374c-.274.153-.308.22-.192.3.16.095.9.17 1.537.22l-.612.34zm10.532.495c-.235-.7-.573-1.1-1.253-1.5-1.504-.908-3.736-.9-5.373-.002-1.666.924-1.748 2.3-.186 3.252.65.393 1.237.57 2.376.7l4.436-2.46zm-4.95 3.547l-.694-.42.536-.296c-1.2-.14-1.86-.343-2.596-.788-1.852-1.117-1.723-2.847.296-3.966 2.05-1.136 4.952-1.137 6.846.006.665.402 1 .758 1.373 1.467l3.975-2.205.693.42-10.43 5.782zm10.45 1.356c1.1-.895 1.064-1.678-.05-2.35-1.068-.646-2.657-.736-4.157-.2l4.208 2.54zm-4.892-2.262c-1.96.854-2 2.394-.515 3.284.867.524 1.882.783 3.44.9l-.826.457c-1.394-.114-2.48-.433-3.42-1-1.88-1.134-1.7-2.803.416-3.98 2.02-1.12 4.744-1.174 6.465-.135 1.4.838 1.853 2.305-.44 3.576l-5.12-3.1zM43.82 40.362l-.896-.54 6.482-.16.385-3.647.896.54-.3 3.114 5.4-.04.896.54-6.33.057-.538 3.75-.896-.54.467-3.207zm19.012 2.408c1.116-.62 1.166-1.617.1-2.254-1.04-.63-2.767-.626-3.9.001-1.147.637-1.2 1.626-.14 2.272 1.085.655 2.753.634 3.93-.02m-8.964.4c-1.207.67-1.32 1.77-.12 2.496 1.215.732 3.032.696 4.348-.034 1.192-.66 1.215-1.745.044-2.452-1.16-.698-3.063-.68-4.272-.01m4.42-3.087c1.515-.84 3.984-.82 5.387.028 1.447.873 1.38 2.284-.136 3.123-.978.543-2.193.73-3.628.555.356.94-.008 1.696-1.124 2.315-1.683.933-4.212.9-5.773-.03-1.6-.96-1.535-2.432.087-3.33 1.117-.62 2.54-.823 4.12-.576-.243-.856.103-1.55 1.066-2.083m1.16 9.712l-.737-.444 10.43-5.783.737.445zM75.06 47.83c-1.417-.855-4.326-.397-7.033 1.104-2.738 1.517-3.65 3.145-2.233 4 1.606.97 4.647.254 7.093-1.102 2.25-1.246 3.836-2.998 2.173-4.002m-9.942 5.546C63.25 52.25 64 50.3 67.105 48.6c2.263-1.255 4.136-1.808 6.04-1.8.894.008 1.94.197 2.648.625.696.42.996.97.97 1.522-.056 1.17-1.302 2.314-3.214 3.373-3.364 1.865-6.738 2.078-8.43 1.057m17.297-1.105c-1.417-.855-4.326-.397-7.033 1.103-2.738 1.518-3.65 3.145-2.233 4 1.606.968 4.647.254 7.093-1.102 2.25-1.246 3.836-2.998 2.173-4.002m-9.942 5.547c-1.866-1.126-1.118-3.066 1.988-4.787 2.263-1.255 4.136-1.807 6.04-1.8.894.008 1.94.197 2.648.625.696.42.996.972.97 1.523-.056 1.17-1.302 2.313-3.214 3.372-3.364 1.865-6.738 2.08-8.43 1.058" fill="#231f20"/><defs ><path id="B" d="M37.413 101.823l-15.188-9.165v-2.254l15.187 9.075z"/></defs></svg>