<svg xmlns="http://www.w3.org/2000/svg" viewBox="0 0 143.37 123.733"><style><![CDATA[.N{fill:none}.O{stroke-linejoin:round}.P{fill:#fefefe}.Q{fill:#636466}.R{stroke:#636466}.S{stroke-width:.25}.T{stroke-linecap:round}.U{stroke-width:.722}]]></style><text transform="translate(27.713 23.424)" font-family="ArialMT" font-size="2.339" class="P">SBx8106</text><g class="N"><path d="M4.128,36.102v40.2" stroke="#fefefe" class="T U"/><g stroke="#626366" stroke-width="2.999" class="O"><path d="M79.88 81.485l61.96-32.89.03 40.746-61.96 32.89z"/><path d="M1.5 34.39L63.46 1.5l78.38 47.098-61.96 32.888z"/><path d="M79.88 81.485l.03 40.748L1.528 75.135 1.5 34.4z"/></g></g><path d="M79.88 81.485l61.96-32.888.03 40.745-61.96 32.89z" fill="#898b8e"/><path d="M1.5 34.4L63.46 1.5l78.38 47.097-61.96 32.89z" fill="#bbbdbf"/><path d="M79.88 81.485l.03 40.748L1.528 75.135 1.5 34.39z" fill="#b3b5b7"/><path d="M75.555 78.794v40.44M38.808 70.186V97.66" stroke="#fefefe" class="N T U"/><path d="M75.297 102.327L4.083 59.424v-.94l71.214 42.903zm.026 9.71L4.1 69.134v-.94l71.212 42.904zm-.253-19.554L3.857 49.58v-.94L75.07 91.544z" class="P"/><path d="M21.6 58.596L4.983 48.562v-11l16.68 9.962z" class="Q"/><path d="M21.6 58.596L4.983 48.562v-11l16.68 9.962z" class="N O R S"/><path d="M20.514 63.542L5.326 54.376v-2.253l15.187 9.075zM37.1 73.316L21.902 64.15v-2.254L37.09 70.97zm.046 3.414l-15.188-9.165V65.3l15.187 9.075zm19.278 8.373l-15.188-9.165v-2.254l15.187 9.075zm.056 3.415l-15.2-9.165V77.1l15.187 9.075zM73 94.88l-15.187-9.165V83.46L73 92.535zm.055 3.413l-15.187-9.165v-2.254l15.186 9.075zM20.47 73.436L5.28 64.27v-2.253l15.187 9.074zm.057 3.414l-15.2-9.165V65.43l15.187 9.075zm16.517 6.362l-15.186-9.165v-2.254l15.185 9.075zM56.38 95l-15.2-9.165V83.58l15.186 9.075zm.057 3.413l-15.2-9.165v-2.254l15.187 9.075zm16.518 6.36L57.768 95.6v-2.254l15.186 9.075zm.045 3.414l-15.187-9.165V96.77L73 105.845zM20.788 82.56L5.6 73.396V71.14l15.186 9.074zm.056 3.414L5.655 76.8v-2.254L20.84 83.63zm16.518 6.36L22.174 83.17v-2.254L37.36 90zm.056 3.415L22.23 86.584V84.33l15.186 9.075zm19.28 8.372l-15.2-9.165v-2.254l15.187 9.075zm.056 3.414l-15.2-9.165v-2.254l15.187 9.075zm16.574 9.774l-15.188-9.165v-2.254l15.187 9.075z" class="P"/><path d="M74.556 90.535L57.95 80.5v-11l16.68 9.963z" class="Q"/><path d="M74.556 90.535L57.95 80.5v-11l16.68 9.963z" class="N O R S"/><path d="M39.17 69.26L22.56 59.227V48.224l16.682 9.964z" class="Q"/><path d="M39.17 69.26L22.56 59.227V48.224l16.682 9.964z" class="N O R S"/><path d="M56.827 79.68L40.22 69.646v-11L56.9 68.61z" class="Q"/><g class="N O"><path d="M56.827 79.68L40.22 69.646v-11L56.9 68.61z" class="R S"/><path d="M2.177 34.597l77.986 46.86v40.252" stroke="#dfe0df" stroke-width=".75" class="T"/></g><path d="M73.066 113.94l-4.26-2.558v-2l4.26 2.558zM9.547 60.5l-4.26-2.557v-2l4.26 2.558zm20.99 22.584l-4.258-2.558v-2l4.258 2.56z" class="P"/><path d="M50.274 19.18c-.76-1.238-1.352-1.896-2.2-2.403-.882-.533-1.783-.686-2.302-.398-1.575.873 3.886 3.656.246 5.674-2.004 1.112-4.758.796-6.956-.532-1.72-1.038-2.1-1.817-2.548-2.707l2.248-1.246c.424 1.406.94 2.126 2.024 2.78.94.567 1.798.678 2.4.34 1.713-.95-3.933-3.63-.186-5.708 1.805-1 4.472-.773 6.757.607a7.27 7.27 0 0 1 2.531 2.466l-2.033 1.128zm-3.396 7.054l-.984-.595 4.182-5.8 2.14 1.292-2.482 3 5.375-1.254 1.27.767-2.4 3.045 5.288-1.308 2.14 1.3-10.182 2.18-.997-.602 2.174-3.132zm19.625.866c-.673.373-1.745.364-2.38-.02s-.606-1.002.067-1.375 1.743-.365 2.38.02.608 1.004-.065 1.377zm-9.445 5.12l-2.097-1.265 7.05-3.9 2.097 1.266-7.05 3.9zm11.694.647l-2.43-1.467-2.905 1.612c-.688.38-.756.854-.105 1.247.434.262.946.447 1.815.618l-1.605.9c-1.06-.266-1.73-.53-2.38-.922-1.4-.838-1.916-1.936.056-3.03l3.03-1.68-.954-.576.428-.237 6.095-.146.26.156-2.22 1.23 2.43 1.466-1.514.84zm1.343 6.83c-1.16-.328-2.02-.67-2.73-1.1-2.343-1.414-2.424-3.128-.222-4.348 2.157-1.197 5.263-1.092 7.46.234a6.42 6.42 0 0 1 1.783 1.608l-1.652.916c-.243-.5-.7-.98-1.232-1.293-1.258-.76-2.864-.808-4.102-.12-1.254.696-1.284 1.633-.084 2.358.506.306 1.076.508 2.37.863l-1.6.882zm8.913-1.2l.03.018c1.418-.083 2.463.123 3.3.62 1.215.733 1.664 1.907-.248 2.967l-4.496 2.493-2.096-1.266L79.5 41.1c1.055-.585 1.1-1.12.46-1.5-.492-.297-1.232-.372-2.474-.254L73 41.84l-2.096-1.267 10.43-5.782 2.098 1.267-4.42 2.45z" fill="#b22216"/><path d="M85.652 42.996l1.056.638c1.996 1.204 3.53 1.157 4.77.47 1.6-.88.894-1.868-.638-2.793l-1.027-.62-4.16 2.307zm-4.925 2.73l2.04 1.232c2.04 1.23 3.737.9 4.685.384 1.025-.57 1.62-1.5-.765-2.942l-1.707-1.03-4.252 2.356zm11.044-4.63c2.662 1.606 1.8 2.803.6 3.473-1.04.577-2.206.705-3.74.434 1.168 1.094 1.03 2.074-.362 2.846-1.712.95-4.07.75-6.08-.464l-2.9-1.746 10.43-5.783 2.053 1.24zm-4.378 9.434l-.694-.42 10.428-5.782.697.42zm8.37.995c-1.614-1.063-3.798-1.478-5-.816-.643.356-.582.96.156 1.404.62.375 1.373.546 2.694.6l2.14-1.187zm-1.142 2.694l-.207-.018c-1.17-.106-1.552-.2-1.828-.377-.318-.193-.236-.338.394-.755-1.32-.106-2.2-.337-2.895-.755-.984-.594-.97-1.5-.007-2.023 1.8-.993 4.312-.196 6.297.896l.87-.483c.918-.5.93-1.068-.038-1.653-.694-.42-1.474-.6-2.852-.713l.75-.416c1.315.193 2.122.432 2.83.86.8.5 1.672 1.417.234 2.214L93.9 53.37c-.274.153-.308.22-.192.3.16.095.9.17 1.537.22l-.612.34zm10.532.495c-.235-.7-.573-1.1-1.253-1.5-1.504-.908-3.736-.9-5.373-.002-1.666.924-1.748 2.3-.186 3.252.65.393 1.237.57 2.376.7l4.436-2.46zm-4.95 3.547l-.694-.418.536-.296c-1.2-.14-1.86-.343-2.596-.788-1.852-1.117-1.723-2.847.296-3.966 2.05-1.136 4.952-1.137 6.846.006.665.402 1 .758 1.373 1.467l3.975-2.205.693.42-10.43 5.78zm10.46 1.355c1.1-.895 1.064-1.678-.05-2.35-1.068-.646-2.657-.736-4.157-.2l4.208 2.54zm-4.892-2.26c-1.96.854-2 2.394-.515 3.284.867.524 1.882.783 3.44.9l-.826.457c-1.394-.114-2.48-.433-3.42-1-1.88-1.134-1.7-2.803.416-3.98 2.02-1.12 4.744-1.174 6.465-.135 1.4.838 1.853 2.305-.44 3.576l-5.12-3.1zM40.47 39.913l-.895-.54 6.482-.16.385-3.646.896.54-.3 3.114 5.4-.04.896.54-6.33.057-.538 3.75-.896-.54.467-3.208zm19.015 2.4c1.116-.62 1.165-1.617.1-2.255-1.04-.628-2.767-.625-3.9.002-1.147.636-1.2 1.625-.14 2.272 1.084.654 2.753.633 3.93-.02m-8.964.396c-1.2.67-1.32 1.77-.12 2.496 1.215.733 3.032.697 4.348-.033 1.193-.66 1.215-1.746.045-2.453-1.16-.697-3.064-.677-4.272-.01m4.42-3.087c1.515-.84 3.984-.818 5.387.03 1.447.873 1.38 2.283-.136 3.123-.978.542-2.194.73-3.63.555.358.94-.007 1.695-1.123 2.314-1.683.933-4.212.9-5.773-.03-1.6-.96-1.535-2.432.087-3.33 1.116-.62 2.54-.823 4.12-.577-.242-.854.105-1.548 1.068-2.083m1.158 9.715l-.74-.447 10.43-5.783.74.448zm15.6-1.965c-1.417-.855-4.326-.397-7.033 1.103-2.738 1.518-3.65 3.145-2.233 4 1.606.968 4.647.254 7.094-1.102 2.248-1.248 3.836-3 2.172-4.002m-9.942 5.545c-1.866-1.126-1.117-3.066 2-4.786 2.263-1.255 4.135-1.808 6.038-1.792.894.008 1.94.197 2.65.625.694.42.995.97.97 1.523-.057 1.17-1.303 2.313-3.215 3.372-3.364 1.867-6.737 2.08-8.43 1.058m7.91 3.92c1.2.725 3.014.774 4.206.113 1.255-.695 1.292-1.788.092-2.512-.796-.48-1.75-.72-3.192-.793-2.312 1.03-2.495 2.354-1.106 3.192zm10.996-4.27c-3.434-.4-6.78-.16-8.857.658 1.258.122 2.24.414 2.994.868 1.576.95 1.538 2.345-.083 3.244-1.713.95-4.1.92-5.742-.065-1.837-1.1-1.57-2.614.662-3.85 2.9-1.603 6.77-1.828 11.142-1.42l-.116.567z" fill="#231f20"/></svg>