<svg xmlns="http://www.w3.org/2000/svg" xmlns:xlink="http://www.w3.org/1999/xlink" viewBox="0 0 130.229 110.987"><style><![CDATA[.J{fill:#fefefe}.K{fill:none}.L{stroke:#fefefe}.M{fill:#b3b5b7}.N{stroke-linejoin:round}.O{stroke-linecap:round}]]></style><g stroke="#626366" stroke-width="3" class="K N"><path d="M1.5 27.426L50.34 1.5l78.38 47.098-48.84 25.924z"/><path d="M79.88 74.522l.008 34.965L1.508 62.39 1.5 27.426z"/><path d="M79.88 74.522l48.84-25.924.008 34.965-48.84 25.924z"/></g><path d="M79.88 74.524L128.72 48.6l.008 34.966-48.84 25.924z" fill="#898b8e"/><path d="M1.5 27.427L50.34 1.502 128.72 48.6 79.88 74.524z" fill="#bbbdbf"/><path d="M79.88 74.524l.008 34.965-78.38-47.096L1.5 27.427z" class="M"/><path d="M1.894 27.33L79.88 74.19v34.995" stroke="#dfe0df" stroke-width=".75" class="K N O"/><use xlink:href="#B" class="J"/><use xlink:href="#B" class="K L"/><use xlink:href="#B" x="-16.262" class="J"/><use xlink:href="#B" x="-16.262" class="K L"/><use xlink:href="#B" x="-15.929" y="-17.334" class="J"/><use xlink:href="#B" x="-15.929" y="-17.334" class="K L"/><path d="M72.98 89.647l-7.563-4.376-.052-3.164 7.563 4.376z" class="J"/><g fill="#231f20"><path d="M45.413 17.77l1.4.714c-.486.34-.793.675-.92 1.005s-.064.695.2 1.1.675.785 1.263 1.14a6.29 6.29 0 0 0 1.63.698c.564.15 1.087.205 1.57.164s.9-.154 1.23-.34.55-.415.617-.67-.027-.563-.287-.92c-.162-.232-.6-.7-1.308-1.4s-1.148-1.235-1.315-1.583c-.22-.45-.25-.862-.086-1.232s.497-.696 1-.975c.552-.306 1.217-.503 1.994-.6s1.574-.03 2.393.177a8.25 8.25 0 0 1 2.273.94c.766.463 1.312.943 1.636 1.442s.392.984.2 1.455-.598.893-1.217 1.263l-1.418-.734c.622-.426.906-.86.852-1.302s-.478-.902-1.273-1.383c-.83-.5-1.593-.775-2.292-.826s-1.277.05-1.73.3c-.393.218-.583.478-.568.78s.437.86 1.285 1.68 1.377 1.4 1.593 1.77c.307.526.38 1 .217 1.423s-.538.8-1.126 1.124c-.582.323-1.3.53-2.12.627s-1.684.044-2.56-.154a8.12 8.12 0 0 1-2.423-.966c-.937-.565-1.577-1.12-1.922-1.66s-.405-1.082-.185-1.62.685-1.017 1.4-1.434m13.896 5.11l2.238 1.35c.606.366 1.084.605 1.432.717a3.4 3.4 0 0 0 1.332.173 2.98 2.98 0 0 0 1.22-.37c.363-.202.6-.43.713-.682s.064-.5-.138-.74-.68-.586-1.42-1.035l-2.068-1.248-3.3 1.834zm-5.055 2.802l2.576 1.555.985.534c.375.156.737.26 1.1.3s.727.043 1.13-.022a3.46 3.46 0 0 0 1.126-.387c.408-.227.664-.482.768-.77s.04-.568-.2-.847-.67-.618-1.33-1.016l-2.393-1.444-3.764 2.086zm-2.66-.1l10.945-6.068 3.883 2.344c.8.477 1.315.922 1.57 1.332s.3.826.1 1.245-.537.767-1.04 1.046c-.468.26-1.027.43-1.68.514s-1.35.05-2.087-.1c.43.486.58.96.45 1.423s-.516.87-1.154 1.223c-.512.285-1.092.487-1.737.607s-1.238.157-1.777.107-1.1-.176-1.676-.384-1.192-.508-1.852-.906l-3.946-2.382zm8.1 4.89l6.86-.63 1.274-3.64 1.588.96-.707 1.725-.368.808 1.446-.14 3.138-.275 1.518.915-6.324.507-1.407 4.008-1.56-.94.925-2.295.255-.615-5.098.545-1.54-.93zM79.93 34.15c.77-.428 1.188-.885 1.254-1.37s-.176-.894-.722-1.223c-.565-.34-1.3-.503-2.208-.485a5.33 5.33 0 0 0-2.523.673c-.697.385-1.065.82-1.104 1.3s.237.9.82 1.25c.587.356 1.3.527 2.102.514a5.02 5.02 0 0 0 2.38-.66m-10.033-.463l1.34.67c-.504.4-.746.763-.728 1.1s.254.63.7.905c.4.235.828.4 1.312.462s.976.08 1.48.017 1.1-.204 1.754-.424 1.275-.487 1.833-.796l.26-.153c-.68.085-1.376.067-2.08-.05s-1.317-.332-1.83-.642c-.857-.516-1.253-1.137-1.2-1.858s.634-1.38 1.708-1.978c1.1-.615 2.314-.924 3.6-.926s2.4.28 3.34.84c.673.407 1.097.884 1.27 1.434s.053 1.107-.368 1.676-1.302 1.223-2.646 1.968c-1.398.776-2.655 1.307-3.77 1.593s-2.174.378-3.174.277-1.882-.384-2.644-.845c-.8-.488-1.233-1.02-1.27-1.592s.32-1.13 1.08-1.67"/><path d="M81.806 37.557c-1.797.996-2.794 1.78-2.992 2.35s-.004 1.03.58 1.382 1.372.483 2.368.392 2.388-.633 4.18-1.626c1.8-1 2.8-1.783 2.994-2.35s-.005-1.032-.598-1.4c-.583-.352-1.3-.488-2.18-.4-1.105.106-2.555.657-4.352 1.653M80.5 36.77c1.294-.718 2.46-1.22 3.5-1.505s2.024-.396 2.948-.334 1.764.32 2.517.775c.555.335.925.695 1.107 1.08s.187.78.014 1.192-.5.842-.985 1.3-1.27.974-2.354 1.575c-1.284.712-2.445 1.2-3.484 1.498s-2.02.4-2.948.34a5.52 5.52 0 0 1-2.527-.777c-.998-.603-1.403-1.285-1.215-2.05.228-.916 1.37-1.944 3.426-3.084m12.288 4.145c-.518.287-.784.617-.798 1s.233.7.736 1.016c.5.295 1.055.446 1.693.455s1.195-.12 1.67-.38c.492-.273.746-.6.758-.98s-.22-.717-.7-1.006-1.05-.445-1.7-.455-1.2.1-1.66.363m-5.465 2.556c-.384.212-.668.47-.854.772a.93.93 0 0 0-.068.924c.144.313.4.588.8.824.607.365 1.316.554 2.123.564s1.53-.162 2.17-.516c.648-.358.978-.778.994-1.26s-.28-.904-.893-1.274c-.598-.36-1.302-.544-2.114-.55s-1.53.166-2.157.514m3.442-1.14c-.324-.433-.423-.83-.298-1.192s.45-.692.976-.984c.797-.44 1.738-.65 2.82-.623s2.075.3 2.974.853c.904.546 1.353 1.137 1.348 1.778s-.404 1.18-1.2 1.622c-.508.28-1.076.45-1.703.507s-1.3-.015-2.017-.2c.416.505.546.992.4 1.463s-.575.893-1.25 1.27c-.936.52-2.035.766-3.298.74s-2.405-.345-3.426-.96-1.525-1.3-1.512-2.024.5-1.363 1.455-1.892a5.5 5.5 0 0 1 2.3-.683c.822-.06 1.634.05 2.44.336M41.715 32.345L43 31.633l4.393 2.643-4.063 2.25c-1.24-.092-2.36-.274-3.363-.547s-1.88-.637-2.63-1.092c-1.017-.613-1.7-1.3-2.082-2.055a2.21 2.21 0 0 1 .117-2.243c.448-.738 1.208-1.406 2.283-2.002 1.066-.6 2.27-1.014 3.616-1.272s2.635-.272 3.874-.043a10.04 10.04 0 0 1 3.404 1.276c.75.452 1.297.932 1.646 1.44s.464 1 .35 1.452-.45.95-1 1.467l-1.593-.547c.403-.403.648-.763.736-1.078s.013-.657-.223-1.02-.617-.705-1.14-1.02a6.98 6.98 0 0 0-1.925-.813c-.66-.163-1.293-.24-1.9-.226s-1.187.082-1.736.206a9.89 9.89 0 0 0-2.598.983c-.975.54-1.632 1.1-1.972 1.645s-.364 1.106-.076 1.65.773 1.02 1.457 1.432c.6.358 1.292.64 2.098.848s1.492.322 2.058.347l2.038-1.13-3.043-1.837zm1.83 6.075L54.5 32.353l7.483 4.516-1.292.716-6.114-3.7-3.35 1.858L56.95 39.2l-1.283.712-5.726-3.456-3.726 2.065 6.354 3.835-1.292.717zm9.026 5.448L63.515 37.8l1.406.848-3.16 8.045 8.594-4.763 1.314.792L60.723 48.8l-1.404-.848 3.166-8.05-8.602 4.77zm17.473 9.052l-1.292.717-6.84-4.13a3.98 3.98 0 0 1 1.08-.428c.668-.168 1.432-.27 2.293-.303s1.968-.004 3.32.085l4.6.1c.965-.077 1.7-.257 2.2-.54.532-.295.802-.652.808-1.072s-.28-.806-.86-1.154a3.95 3.95 0 0 0-2.05-.564c-.755-.007-1.48.18-2.17.558l-1.164-.867c1.118-.518 2.24-.75 3.364-.697a6.63 6.63 0 0 1 3.161.97c.993.6 1.487 1.235 1.484 1.907s-.436 1.247-1.297 1.725c-.438.243-.954.43-1.545.562s-1.32.2-2.18.232-2.156-.016-3.886-.115l-2.845-.122a10.4 10.4 0 0 0-1.265.08l5.076 3.063z"/></g><g class="J"><path d="M77.7 101.666c0 1.91-1.548 2.53-3.458 1.38s-3.46-3.63-3.46-5.537 1.548-2.53 3.46-1.382 3.458 3.626 3.458 5.538"/><path d="M71.02 97.652c.005 1.78 1.442 4.084 3.223 5.157 1.78 1.066 3.215.49 3.22-1.285-.004-1.783-1.44-4.086-3.22-5.16-1.78-1.066-3.218-.5-3.223 1.287m-.475-.285c0-2.044 1.654-2.705 3.698-1.478s3.695 3.876 3.695 5.92-1.652 2.704-3.695 1.476-3.698-3.878-3.698-5.918"/></g><g class="M"><path d="M76.697 104.27l-5.637-9.023c-.177-.286-.177-.573 0-.643s.465.102.643.386l5.637 9.023c.177.285.177.57 0 .643-.09.035-.206.01-.322-.06s-.232-.183-.32-.325"/><path d="M71.095 100.868c-.178-.285-.178-.57 0-.643l5.637-2.252c.177-.07.466.103.642.385s.178.573 0 .644l-5.636 2.252c-.1.036-.206.01-.323-.06a1 1 0 0 1-.32-.326"/><use xlink:href="#C"/></g><g class="J"><path d="M68.54 95.957c0 1.908-1.547 2.528-3.457 1.38s-3.46-3.628-3.46-5.537 1.548-2.53 3.46-1.382 3.457 3.627 3.457 5.54"/><path d="M61.86 91.943c.005 1.78 1.442 4.083 3.223 5.156 1.78 1.067 3.215.5 3.22-1.285-.004-1.783-1.44-4.086-3.22-5.16-1.78-1.066-3.218-.49-3.223 1.288m-.476-.285c0-2.045 1.655-2.706 3.7-1.478s3.695 3.875 3.695 5.92-1.653 2.704-3.695 1.477-3.7-3.878-3.7-5.918"/></g><g class="M"><path d="M67.537 98.56L61.9 89.537c-.177-.285-.177-.573 0-.643s.465.102.643.387l5.637 9.023c.177.284.177.57 0 .642-.09.035-.205.01-.32-.06s-.233-.184-.32-.325"/><path d="M61.934 95.16c-.177-.284-.177-.57 0-.642l5.638-2.253c.177-.07.466.104.64.386s.178.572 0 .643l-5.636 2.253c-.09.035-.206.01-.322-.06a.98.98 0 0 1-.321-.326"/><path d="M66.822 94.985c0 .978-.793 1.292-1.77.704s-1.775-1.856-1.775-2.834.794-1.3 1.775-.7 1.77 1.858 1.77 2.84"/></g><g class="J"><path d="M77.507 80.99c0 1.91-1.547 2.528-3.457 1.38s-3.46-3.63-3.46-5.537 1.548-2.532 3.46-1.382 3.457 3.626 3.457 5.538"/><path d="M70.826 76.976c.005 1.78 1.442 4.084 3.223 5.157 1.78 1.066 3.215.49 3.22-1.285-.004-1.783-1.44-4.086-3.22-5.16-1.78-1.066-3.218-.5-3.223 1.287m-.475-.285c0-2.044 1.654-2.705 3.698-1.478s3.695 3.876 3.695 5.92-1.653 2.704-3.695 1.476-3.698-3.878-3.698-5.918"/></g><g class="M"><path d="M76.504 83.594l-5.637-9.023c-.178-.286-.178-.573 0-.643s.464.102.643.386l5.636 9.023c.178.285.178.57 0 .643-.088.035-.205.01-.32-.06s-.232-.183-.32-.325"/><path d="M70.9 80.193c-.177-.285-.177-.57 0-.643l5.638-2.253c.177-.07.466.104.64.386s.18.572 0 .643l-5.635 2.253c-.1.036-.207.01-.323-.06s-.232-.183-.32-.325"/><use xlink:href="#C" x="-0.193" y="-20.676"/></g><g class="J"><path d="M68.347 75.28c0 1.908-1.548 2.528-3.458 1.38s-3.46-3.628-3.46-5.537 1.548-2.53 3.46-1.382 3.458 3.626 3.458 5.54"/><path d="M61.665 71.267c.005 1.78 1.443 4.083 3.224 5.156 1.78 1.067 3.214.5 3.22-1.285-.005-1.783-1.44-4.086-3.22-5.16-1.78-1.066-3.22-.49-3.224 1.288m-.475-.285c0-2.045 1.655-2.706 3.7-1.48s3.694 3.876 3.694 5.92-1.652 2.704-3.694 1.477-3.7-3.88-3.7-5.918"/></g><g class="M"><path d="M67.343 77.884l-5.637-9.023c-.177-.285-.177-.573 0-.643s.465.102.643.387l5.637 9.023c.177.284.177.57 0 .642-.09.035-.206.01-.322-.06s-.232-.183-.32-.325"/><path d="M61.74 74.483c-.178-.284-.178-.57 0-.642l5.637-2.253c.177-.07.467.104.642.386s.178.572 0 .643l-5.636 2.253c-.09.035-.206.01-.322-.06s-.233-.183-.32-.326"/><path d="M66.63 74.31c0 .978-.794 1.292-1.772.704s-1.774-1.857-1.774-2.835.793-1.298 1.774-.71 1.772 1.858 1.772 2.84"/></g><use xlink:href="#B" x="-8.215" y="5.286" class="J"/><use xlink:href="#B" x="-8.215" y="5.286" class="K L"/><use xlink:href="#B" x="-7.882" y="-12.047" class="J"/><use xlink:href="#B" x="-7.882" y="-12.047" class="K L"/><use xlink:href="#B" x="16.098" y="8.316" class="J"/><use xlink:href="#B" x="16.098" y="8.316" class="K L"/><use xlink:href="#B" x="23.978" y="24.173" class="J"/><use xlink:href="#B" x="23.978" y="24.173" class="K L"/><use xlink:href="#B" x="24.312" y="6.839" class="J"/><g class="K L"><use xlink:href="#B" x="24.312" y="6.839"/><path d="M59.733 64.4v31.048m-56.336-64.7v31.048m8.048-26.204V66.64m8.048-26.32v31.05m8.047-26.32V76.1m8.05-25.873v31.048m8.048-26.518v31.048m8.048-25.958v31.048" stroke-width=".722" class="O"/></g><defs ><path id="B" d="M24.082 64.284l-1.13-.678v-13l1.13.678z"/><path id="C" d="M75.983 100.694c0 .978-.793 1.292-1.77.704s-1.775-1.856-1.775-2.834.794-1.298 1.775-.71 1.77 1.858 1.77 2.84"/></defs></svg>