<svg xmlns="http://www.w3.org/2000/svg" viewBox="0 0 123.668 84.623"><g fill="none" stroke="#626366" stroke-width="3" stroke-linejoin="round"><path d="M79.88 71.04l42.28-22.443.008 12.086-42.28 22.44z"/><path d="M1.5 23.943L43.78 1.5l78.38 47.095L79.88 71.04z"/><path d="M79.88 71.04l.008 12.084-78.38-47.096L1.5 23.943z"/></g><path d="M79.88 71.04l42.28-22.44.008 12.084-42.28 22.443z" fill="#898b8e"/><path d="M1.5 23.943l42.28-22.44 78.38 47.095L79.88 71.04z" fill="#231f20"/><path d="M79.88 71.04l.008 12.086-78.38-47.098L1.5 23.943z" fill="#b3b5b7"/><path d="M1.88 23.95l77.986 46.86v11.995" fill="none" stroke="#dfe0df" stroke-width=".75" stroke-linecap="round" stroke-linejoin="round"/><path d="M11.026 39.32L4.983 35.7v-1.742l6.043 3.63zm64.718 34.728l-13.467-8.092v-3.174l13.467 8.092zm-.05 4.797l-13.463-8.1V67.58l13.463 8.1zM57.58 63.125L44.1 55.03v-3.174l13.47 8.094zm-.05 4.795l-13.467-8.1v-3.175l13.467 8.092zM39.46 52.263L25.992 44.17v-3.176l13.467 8.092zm-.048 4.797l-13.467-8.1v-3.174l13.467 8.1zM19.195 26.6l17.863.147-5.4-8.103L43.785 19.7l-3.754-5.616 21.5 1.852-15.27 2.2 4.712 7.057-10.17-.878 5.378 8.052-25.948-5.56zm19.762 11.952l11.604-5.86 1.046.627-10.233 5.168 3.902 2.332-1.37.7zm12.378 2.143L54.02 42.3l2.387-2.116 1.844-1.552-2.644.864-4.273 1.2zm-7.05 1.04l14.645-4.042 1.13.674-8.36 7.798-1.194-.714 2.6-2.327-3.314-1.98L45.41 42.4l-1.113-.665zm9.66 5.775l4.915-2.482 3.635-5.202 1.275.762-1.936 2.7-1.16 1.473 2.916-.52 4.945-.806 1.22.73-9.848 1.5-4.915 2.482-1.05-.626zm5.17 3.1l11.604-5.86 5.728 3.423-1.37.7-4.68-2.796-3.554 1.795 4.382 2.62-1.36.688-4.383-2.62-3.95 1.995 4.863 2.905-1.37.692zm14.907 1.76l2.254 1.347c.48.286.927.473 1.342.56s.852.094 1.312.016a4.32 4.32 0 0 0 1.25-.399c.55-.277.865-.587.947-.927s-.17-.687-.758-1.04l-2.508-1.498-3.84 1.94zm-7.53 2.647l11.602-5.86 3.514 2.098c.705.422 1.138.795 1.297 1.12s.085.685-.223 1.083-.78.76-1.42 1.08a6.87 6.87 0 0 1-2.627.725c-.928.067-1.85-.087-2.762-.464.082.264.1.487.054.67-.106.4-.33.824-.675 1.3l-1.78 2.418-1.318-.788 1.365-1.845.843-1.26c.17-.304.252-.542.243-.7a.75.75 0 0 0-.17-.44c-.08-.1-.258-.215-.527-.377l-1.217-.727-5.152 2.602-1.048-.626zm13.724 4.823l1.164.486c-.696.473-1.088.88-1.176 1.222s.062.625.447.855c.457.273 1.075.387 1.855.34a5.54 5.54 0 0 0 2.198-.589c.654-.33 1.048-.7 1.18-1.08s-.025-.717-.477-.987c-.183-.1-.464-.22-.843-.33l1.36-.567a1.25 1.25 0 0 0 .141.102c.414.248.944.4 1.592.43s1.302-.1 1.962-.443c.523-.264.834-.555.936-.872s-.038-.6-.42-.818-.867-.327-1.468-.3-1.285.192-2.054.5l-.72-.7c1.074-.4 2.086-.623 3.032-.636s1.732.167 2.36.54c.433.26.696.565.787.92s0 .708-.277 1.06-.68.662-1.207.928c-.5.253-1.05.43-1.644.527s-1.195.1-1.798.008a.92.92 0 0 1 .106 1.15c-.24.406-.733.8-1.482 1.18-1.013.5-2.125.793-3.333.848s-2.2-.15-2.97-.6c-.695-.415-.97-.913-.822-1.494s.673-1.134 1.572-1.66" fill="#fefefe"/></svg>