<svg xmlns="http://www.w3.org/2000/svg" viewBox="0 0 123.668 84.623"><g fill="none" stroke="#626366" stroke-width="3" stroke-linejoin="round"><path d="M79.88 71.04l42.28-22.443.008 12.086-42.28 22.44z"/><path d="M1.5 23.943L43.78 1.5l78.38 47.095L79.88 71.04z"/><path d="M79.88 71.04l.008 12.084-78.38-47.096L1.5 23.943z"/></g><path d="M79.88 71.04l42.28-22.44.008 12.084-42.28 22.443z" fill="#898b8e"/><path d="M1.5 23.943l42.28-22.44 78.38 47.095L79.88 71.04z" fill="#231f20"/><path d="M79.88 71.04l.008 12.086-78.38-47.098L1.5 23.943z" fill="#b3b5b7"/><path d="M1.88 23.95l77.986 46.86v11.995" fill="none" stroke="#dfe0df" stroke-width=".75" stroke-linecap="round" stroke-linejoin="round"/><path d="M11.026 39.32L4.983 35.7v-1.742l6.043 3.63zm64.718 34.728l-13.467-8.092v-3.174l13.467 8.092zm-.05 4.797l-13.463-8.1V67.58l13.463 8.1zM57.58 63.125L44.1 55.03v-3.174l13.47 8.094zm-.05 4.795l-13.467-8.1v-3.175l13.467 8.092zM39.46 52.263L25.992 44.17v-3.176l13.467 8.092zm-.048 4.797l-13.467-8.1v-3.174l13.467 8.1zM19.195 26.6l17.863.147-5.4-8.103L43.785 19.7l-3.754-5.616 21.5 1.852-15.27 2.2 4.712 7.057-10.17-.878 5.378 8.052-25.948-5.56zm19.762 11.952l11.604-5.86 1.046.627-10.233 5.168 3.902 2.332-1.37.7zm12.378 2.143L54.02 42.3l2.387-2.116 1.844-1.552-2.644.864-4.273 1.2zm-7.05 1.04l14.645-4.042 1.13.674-8.36 7.798-1.194-.714 2.6-2.327-3.314-1.98L45.41 42.4l-1.113-.665zm9.66 5.775l4.915-2.482 3.635-5.202 1.275.762-1.936 2.7-1.16 1.473 2.916-.52 4.945-.806 1.22.73-9.848 1.5-4.915 2.482-1.05-.626zm5.17 3.1l11.604-5.86 5.728 3.423-1.37.7-4.68-2.796-3.554 1.795 4.382 2.62-1.36.688-4.383-2.62-3.95 1.995 4.863 2.905-1.37.692zm14.907 1.76l2.254 1.347c.48.286.927.473 1.342.56s.852.094 1.312.016a4.32 4.32 0 0 0 1.25-.399c.55-.277.865-.587.947-.927s-.17-.687-.758-1.04l-2.508-1.498-3.84 1.94zm-7.53 2.647l11.602-5.86 3.514 2.098c.705.422 1.138.795 1.297 1.12s.085.685-.223 1.083-.78.76-1.42 1.08a6.87 6.87 0 0 1-2.627.725c-.928.067-1.85-.087-2.762-.464.082.264.1.487.054.67-.106.4-.33.824-.675 1.3l-1.78 2.418-1.318-.788 1.365-1.845.843-1.26c.17-.304.252-.542.243-.7a.75.75 0 0 0-.17-.44c-.08-.1-.258-.215-.527-.377l-1.217-.727-5.152 2.602-1.048-.626zm17.136 8.73l-1.37.7-5.235-3.128c.334-.178.702-.322 1.102-.432.655-.185 1.383-.317 2.183-.397s1.8-.123 3.03-.127l4.203-.198c.907-.124 1.63-.323 2.167-.595.565-.285.903-.607 1.016-.968s-.053-.673-.496-.938c-.468-.28-1.05-.4-1.742-.36s-1.405.243-2.136.608l-.85-.673c1.16-.5 2.25-.777 3.27-.8s1.905.2 2.657.642c.76.454 1.053.97.88 1.546s-.72 1.095-1.632 1.556a7.7 7.7 0 0 1-1.564.575c-.578.15-1.266.26-2.06.33l-3.543.136-2.584.065c-.422.03-.817.078-1.182.144l3.885 2.322z" fill="#fefefe"/></svg>