<svg xmlns="http://www.w3.org/2000/svg" viewBox="0 0 123.668 84.623"><g fill="none" stroke="#626366" stroke-width="3" stroke-linejoin="round"><path d="M79.88 71.04l42.28-22.443.008 12.085-42.28 22.442z"/><path d="M1.5 23.942L43.78 1.5l78.38 47.095L79.88 71.04z"/><path d="M79.88 71.04l.008 12.084-78.38-47.096L1.5 23.942z"/></g><path d="M79.88 71.04l42.28-22.44.008 12.084-42.28 22.442z" fill="#898b8e"/><path d="M1.5 23.943L43.78 1.5l78.38 47.096L79.88 71.04z" fill="#bbbdbf"/><path d="M79.88 71.04l.008 12.085-78.38-47.097L1.5 23.943z" fill="#b3b5b7"/><path d="M1.878 23.95l77.987 46.86v11.994" fill="none" stroke="#dfe0df" stroke-width=".75" stroke-linecap="round" stroke-linejoin="round"/><path d="M11.026 39.32L4.983 35.7v-1.742l6.043 3.63zm64.718 34.728l-13.467-8.092V62.78l13.467 8.093zm-.05 4.797l-13.463-8.1V67.58l13.463 8.1zM57.58 63.124L44.1 55.03v-3.174l13.47 8.093zm-.05 4.796l-13.467-8.093v-3.174l13.467 8.093zM39.46 52.263L25.992 44.17v-3.176l13.467 8.092zm-.048 4.797l-13.467-8.1v-3.174l13.467 8.1z" fill="#fefefe"/><path d="M27.688 23.4l17.252-8.712 1.56.93-15.217 7.684 5.802 3.467-2.037 1.027zm20.75 5.483c-.84-.155-1.894-.5-3.162-1.007-.72-.293-1.282-.472-1.686-.54s-.822-.065-1.258.007-.84.2-1.207.388c-.566.285-.9.6-.974.974s.152.715.715 1.05c.557.333 1.232.54 2.022.618a7.38 7.38 0 0 0 2.422-.169c.634-.148 1.418-.458 2.352-.93l.776-.393zm-4.6 2.46c-1.202.017-2.2-.054-2.96-.2s-1.44-.406-2.007-.745c-.938-.56-1.32-1.16-1.154-1.8s.77-1.224 1.814-1.75c.612-.3 1.268-.534 1.963-.676a8.01 8.01 0 0 1 1.966-.169c.613.03 1.2.12 1.734.272.394.114.93.316 1.603.607 1.372.595 2.475.987 3.3 1.173l.56-.274c.863-.437 1.335-.825 1.415-1.166.1-.463-.2-.9-.93-1.347-.68-.407-1.358-.618-2.03-.636s-1.53.15-2.573.506l-1.132-.987c1.015-.37 1.943-.606 2.782-.705s1.685-.057 2.536.127a7.83 7.83 0 0 1 2.379.934c.728.436 1.194.852 1.398 1.25s.224.76.058 1.08-.497.653-1 .996c-.314.2-.94.555-1.882 1.03l-2.824 1.425-3.645 1.943a5.2 5.2 0 0 0-1.136.975l-1.5-.902a6.25 6.25 0 0 1 1.253-.95zM41 36.645l1.827-1.1c.192.253.404.45.64.6.32.193.657.307 1.006.343a4.23 4.23 0 0 0 1.132-.05c.304-.053.977-.23 2.02-.533l.647-.185 9.284-8.257 1.558.93-5.462 4.716-2.276 1.832 3.443-1.083 9.108-2.6 1.446.866-15.956 4.478-3.647.947c-.956.2-1.762.282-2.42.247s-1.217-.188-1.678-.463c-.277-.167-.503-.396-.673-.688m21.648-.585l4.766 2.847c.986-.57 1.593-1.076 1.82-1.522.354-.686.166-1.25-.568-1.687C68 35.3 67.106 35.13 66 35.2s-2.224.35-3.364.87m1.324 4.566l1.225 1.03c-1.515.505-2.944.745-4.287.72s-2.512-.333-3.502-.924c-1.248-.746-1.674-1.622-1.28-2.626s1.608-2.022 3.64-3.048c2.103-1.062 4.105-1.665 6.004-1.8s3.44.135 4.618.84c1.14.68 1.504 1.525 1.1 2.53s-1.653 2.032-3.717 3.074l-.573.28-6.363-3.803c-1.32.726-2.105 1.416-2.36 2.068s-.022 1.193.7 1.62c.53.317 1.185.484 1.97.503s1.732-.134 2.845-.455m-.75 3.993l12.498-6.312 1.3.778-1.895.957c1.22-.25 2.1-.36 2.674-.335s1.014.14 1.352.34c.488.3.756.702.804 1.232l-2.464.695c-.047-.365-.248-.654-.602-.866-.315-.188-.738-.287-1.27-.298s-1.095.08-1.697.264c-.913.285-1.816.653-2.7 1.105l-6.543 3.304-1.447-.864zm14.228 3.48l1.728.722c-1.035.705-1.617 1.3-1.748 1.816s.092.93.666 1.273c.68.406 1.6.576 2.758.507a8.26 8.26 0 0 0 3.268-.876c.973-.5 1.56-1.025 1.757-1.604s-.04-1.067-.707-1.467c-.274-.163-.694-.327-1.256-.5l2.02-.843c.08.066.15.116.2.15.616.37 1.407.58 2.37.637s1.937-.162 2.917-.657c.777-.393 1.24-.825 1.392-1.297s-.06-.877-.625-1.217-1.3-.485-2.184-.448-1.9.286-3.052.745l-1.07-1.054c1.597-.6 3.1-.927 4.506-.947s2.577.25 3.5.805c.643.385 1.032.84 1.17 1.367s0 1.054-.412 1.577-1 .985-1.793 1.38c-.745.377-1.562.638-2.446.783a8.49 8.49 0 0 1-2.672.013 1.35 1.35 0 0 1 .157 1.71c-.355.604-1.1 1.188-2.205 1.75-1.506.76-3.158 1.18-4.955 1.262s-3.27-.22-4.416-.907c-1.033-.617-1.44-1.358-1.22-2.22s.998-1.687 2.338-2.47" fill="#010202"/></svg>