<svg xmlns="http://www.w3.org/2000/svg" viewBox="0 0 130.229 87.986"><g fill="none" stroke="#626366" stroke-width="3" stroke-linejoin="round"><path d="M1.5 27.425L50.34 1.5l78.38 47.097-48.84 25.925z"/><path d="M79.88 74.52l.008 11.965L1.508 39.4 1.5 27.424z"/><path d="M79.88 74.52l48.84-25.925.008 11.965-48.84 25.925z"/></g><path d="M79.88 74.523L128.72 48.6l.008 11.965-48.84 25.924z" fill="#898b8e"/><path d="M1.5 27.427L50.34 1.5 128.72 48.6 79.88 74.523z" fill="#bbbdbf"/><path d="M79.88 74.523l.008 11.965-78.38-47.096L1.5 27.427z" fill="#b3b5b7"/><path d="M1.893 27.33L79.88 74.19v11.994" fill="none" stroke="#dfe0df" stroke-width=".75" stroke-linecap="round" stroke-linejoin="round"/><path d="M71.54 74.896L52.48 63.444V60.27l19.06 11.452zm-.07 4.784L52.413 68.23v-3.175l19.057 11.45zM28.858 49.24L9.8 37.788v-3.176l19.06 11.452zm-.07 4.784L9.732 42.575V39.4l19.055 11.45zm21.44 8.053l-19.06-11.45v-3.174l19.06 11.45zm-.07 4.785L31.1 55.4v-3.174l19.057 11.45z" fill="#fefefe"/><path d="M29.845 24.176l17.252-8.712 1.56.93L33.44 24.08l5.802 3.467-2.037 1.027zm20.75 5.484c-.84-.155-1.894-.5-3.162-1.007-.72-.293-1.282-.472-1.686-.54s-.822-.065-1.258.007-.84.2-1.207.388c-.566.285-.9.6-.974.974s.152.715.715 1.05c.557.333 1.232.54 2.022.618a7.38 7.38 0 0 0 2.422-.169c.634-.148 1.418-.458 2.352-.93l.776-.393zm-4.6 2.46c-1.202.017-2.2-.054-2.96-.2s-1.44-.406-2.007-.745c-.938-.56-1.32-1.16-1.154-1.8s.77-1.224 1.814-1.75c.612-.3 1.268-.534 1.963-.676a8.01 8.01 0 0 1 1.966-.169c.613.03 1.2.12 1.734.272.394.114.93.316 1.603.607 1.372.595 2.475.987 3.3 1.173l.56-.274c.863-.437 1.335-.825 1.415-1.166.1-.463-.2-.9-.93-1.347-.68-.407-1.358-.618-2.03-.636s-1.53.15-2.573.506l-1.132-.987c1.015-.37 1.943-.606 2.782-.705s1.685-.057 2.536.127a7.83 7.83 0 0 1 2.379.934c.728.436 1.194.852 1.398 1.25s.224.76.058 1.08-.497.653-1 .996c-.314.2-.94.555-1.882 1.03l-2.824 1.425-3.645 1.943a5.2 5.2 0 0 0-1.136.975l-1.5-.902a6.25 6.25 0 0 1 1.253-.95zm-2.845 5.312l1.827-1.1c.192.253.404.45.64.6.32.193.657.307 1.006.343a4.23 4.23 0 0 0 1.132-.05c.304-.053.977-.23 2.02-.533l.647-.185 9.284-8.257 1.558.93-5.462 4.716-2.276 1.832 3.443-1.083 9.108-2.6 1.446.866-15.956 4.478-3.647.947c-.956.2-1.762.282-2.42.247s-1.217-.188-1.678-.463c-.277-.167-.503-.396-.673-.688m21.645-.585l4.766 2.847c.986-.57 1.593-1.076 1.82-1.522.354-.686.166-1.25-.568-1.687-.664-.398-1.548-.567-2.653-.5s-2.224.35-3.364.87m1.324 4.566l1.225 1.03c-1.515.505-2.944.745-4.287.72s-2.512-.333-3.502-.924c-1.248-.746-1.674-1.622-1.28-2.626s1.608-2.022 3.64-3.048c2.103-1.062 4.105-1.665 6.004-1.8s3.44.135 4.618.84c1.14.68 1.504 1.525 1.1 2.53S71.973 40.16 69.9 41.2l-.573.28-6.363-3.803c-1.32.726-2.105 1.416-2.36 2.068s-.022 1.193.7 1.62c.53.317 1.185.484 1.97.503s1.732-.134 2.845-.455m-.74 4l12.498-6.312 1.3.778-1.895.957c1.22-.25 2.1-.36 2.674-.335s1.014.14 1.352.34c.488.3.756.702.804 1.232l-2.464.695c-.047-.365-.248-.654-.602-.866-.315-.188-.738-.287-1.27-.298s-1.095.08-1.697.264c-.913.285-1.816.653-2.7 1.105l-6.543 3.304-1.447-.864zM84.7 54.702l-2.035 1.028-7.785-4.652a8.09 8.09 0 0 1 1.64-.642c.975-.274 2.058-.47 3.247-.6s2.692-.182 4.504-.188l6.25-.295c1.348-.184 2.422-.48 3.223-.884.84-.423 1.343-.903 1.5-1.44s-.08-1-.74-1.395c-.697-.416-1.56-.594-2.6-.535s-2.1.36-3.176.904l-1.264-1c1.727-.76 3.347-1.157 4.863-1.2s2.832.285 3.952.954c1.13.675 1.565 1.442 1.306 2.3s-1.067 1.628-2.425 2.313a11.52 11.52 0 0 1-2.325.856c-.858.222-1.88.385-3.066.5s-2.94.172-5.266.2l-3.842.1-1.758.215 5.776 3.45z" fill="#010202"/></svg>