<svg xmlns="http://www.w3.org/2000/svg" viewBox="0 0 130.229 87.986"><g fill="none" stroke="#626366" stroke-width="3" stroke-linejoin="round"><path d="M1.5 27.426L50.34 1.5l78.38 47.097L79.88 74.52z"/><path d="M79.88 74.52l.008 11.965L1.508 39.4 1.5 27.427z"/><path d="M79.88 74.52l48.84-25.924.008 11.965-48.84 25.924z"/></g><path d="M79.88 74.523l48.84-25.926.008 11.967-48.84 25.924z" fill="#898b8e"/><path d="M1.5 27.426L50.34 1.502l78.38 47.095-48.84 25.926z" fill="#231f20"/><path d="M79.88 74.523l.008 11.965-78.38-47.096L1.5 27.426z" fill="#b3b5b7"/><path d="M1.893 27.33L79.88 74.19V86.18" fill="none" stroke="#dfe0df" stroke-width=".75" stroke-linecap="round" stroke-linejoin="round"/><path d="M52.918 63.634l-15.322-9.207v-3.174l15.322 9.207zm-.058 4.793l-15.318-9.203V56.05l15.318 9.205zm17.296 5.565l-15.322-9.207V61.6l15.322 9.207zm-.056 4.793l-15.318-9.203v-3.176L70.1 75.6zM18.444 42.9L3.122 33.703V30.53l15.322 9.204zm-.057 4.8L3.07 38.498v-3.176l15.318 9.205zm17.295 5.565L20.36 44.06v-3.174l15.322 9.205zm-.057 4.793l-15.32-9.205V45.68l15.32 9.205zm38.762 18.694l-2.012-1.2v-2.63l2.012 1.2zm-.007 3.994l-2.014-1.2v-2.63l2.014 1.2zm3.065 1.874L75.43 81.4v-2.627l2.014 1.2zM20.192 26.952l17.863.147-5.4-8.103 12.138 1.046-3.755-5.616 21.5 1.852-15.27 2.2L52 25.525l-10.172-.878 5.38 8.052-25.95-5.56zm18.76 13.942l11.604-5.86 1.046.627-10.233 5.17 3.902 2.332-1.37.7zm12.377 2.144l2.686 1.605 2.387-2.116 1.844-1.552-2.644.864-4.273 1.2zm-7.05 1.04l14.645-4.042 1.13.674-8.36 7.798-1.194-.714 2.6-2.327-3.314-1.98-4.383 1.255-1.113-.665zm9.663 5.772l4.915-2.482 3.635-5.202 1.275.762-1.936 2.7-1.16 1.473 2.916-.52 4.945-.806 1.22.73-9.85 1.5-4.915 2.482-1.048-.626zm5.17 3.1l11.604-5.86 5.727 3.423-1.37.7-4.68-2.796-3.553 1.795 4.382 2.62-1.36.688-4.383-2.62-3.95 1.995 4.864 2.905-1.37.692zM74.02 54.7l2.254 1.347c.48.286.927.473 1.342.56s.852.094 1.312.016a4.32 4.32 0 0 0 1.25-.399c.55-.277.865-.587.947-.927s-.17-.687-.758-1.04L77.86 52.76l-3.84 1.94zm-7.53 2.647l11.602-5.86 3.514 2.098c.705.422 1.138.795 1.297 1.12s.085.685-.223 1.083-.78.76-1.42 1.08a6.87 6.87 0 0 1-2.627.725c-.928.067-1.85-.087-2.762-.464.082.264.1.487.054.67-.106.4-.33.824-.675 1.3l-1.78 2.418-1.318-.788 1.365-1.845.843-1.26c.17-.304.252-.542.243-.7a.75.75 0 0 0-.17-.44c-.08-.1-.258-.215-.527-.377l-1.217-.727-5.152 2.602-1.048-.626zm17.137 8.733l-1.37.7-5.235-3.128c.334-.178.702-.322 1.102-.432.655-.185 1.383-.317 2.183-.397s1.8-.123 3.03-.127l4.203-.198c.907-.124 1.63-.323 2.167-.595.565-.285.903-.607 1.016-.968s-.053-.673-.496-.938c-.468-.28-1.05-.4-1.742-.36s-1.405.243-2.136.608l-.85-.673c1.16-.5 2.25-.777 3.27-.8s1.905.2 2.657.642c.76.454 1.053.97.88 1.546s-.72 1.095-1.632 1.556a7.7 7.7 0 0 1-1.564.575c-.578.15-1.266.26-2.06.33l-3.543.136-2.584.065c-.422.03-.817.078-1.182.144l3.885 2.322z" fill="#fefefe"/></svg>