<?xml version="1.0" encoding="UTF-8"?>
<svg width="14px" height="10px" viewBox="0 0 14 10" version="1.1" xmlns="http://www.w3.org/2000/svg" xmlns:xlink="http://www.w3.org/1999/xlink">
    <!-- Generator: sketchtool 51.2 (57519) - http://www.bohemiancoding.com/sketch -->
    <title>0E334220-6C14-41EC-B9A8-AD4B4ACC6069</title>
    <desc>Created with sketchtool.</desc>
    <defs></defs>
    <g id="Artboards" stroke="none" stroke-width="1" fill="none" fill-rule="evenodd">
        <g id="V5-START-grid-veiw" transform="translate(-1005.000000, -468.000000)" fill="#555555">
            <g id="recent-diagrams" transform="translate(428.000000, 442.000000)">
                <g id="all-diagrams" transform="translate(567.000000, 18.000000)">
                    <path d="M21.5,13 C20.6715729,13 20,12.3284271 20,11.5 C20,10.6715729 20.6715729,10 21.5,10 C22.3284271,10 23,10.6715729 23,11.5 C23,12.3284271 22.3284271,13 21.5,13 Z M21,14 L22,14 C23.1045695,14 24,14.8954305 24,16 L24,18 L21,18 L21,14 Z M12.5,13 C11.6715729,13 11,12.3284271 11,11.5 C11,10.6715729 11.6715729,10 12.5,10 C13.3284271,10 14,10.6715729 14,11.5 C14,12.3284271 13.3284271,13 12.5,13 Z M12,14 L13,14 L13,18 L10,18 L10,16 C10,14.8954305 10.8954305,14 12,14 Z M17,12 C15.8954305,12 15,11.1045695 15,10 C15,8.8954305 15.8954305,8 17,8 C18.1045695,8 19,8.8954305 19,10 C19,11.1045695 18.1045695,12 17,12 Z M16,13 L18,13 C19.1045695,13 20,13.8954305 20,15 L20,18 L14,18 L14,15 C14,13.8954305 14.8954305,13 16,13 Z" id="Combined-Shape"></path>
                </g>
            </g>
        </g>
    </g>
</svg>