<?xml version="1.0" encoding="UTF-8" standalone="no"?>
<svg
   xmlns:dc="http://purl.org/dc/elements/1.1/"
   xmlns:cc="http://creativecommons.org/ns#"
   xmlns:rdf="http://www.w3.org/1999/02/22-rdf-syntax-ns#"
   xmlns:svg="http://www.w3.org/2000/svg"
   xmlns="http://www.w3.org/2000/svg"
   xmlns:sodipodi="http://sodipodi.sourceforge.net/DTD/sodipodi-0.dtd"
   xmlns:inkscape="http://www.inkscape.org/namespaces/inkscape"
   inkscape:version="1.0beta1 (32d4812, 2019-09-19)"
   sodipodi:docname="drawlogo-text-bottom copy.svg"
   xml:space="preserve"
   style="enable-background:new 0 0 161.6 217.4;"
   viewBox="0 0 161.6 217.4"
   y="0px"
   x="0px"
   id="Ebene_1"
   version="1.1"><metadata
   id="metadata43">
  <rdf:RDF>
    <cc:Work
       rdf:about="">
      <dc:format>image/svg+xml</dc:format>
      <dc:type
         rdf:resource="http://purl.org/dc/dcmitype/StillImage" />
      <dc:title></dc:title>
    </cc:Work>
  </rdf:RDF>
</metadata>
<defs
   id="defs41">




</defs>
<sodipodi:namedview
   inkscape:current-layer="Ebene_1"
   inkscape:window-maximized="0"
   inkscape:window-y="23"
   inkscape:window-x="0"
   inkscape:cy="132.49309"
   inkscape:cx="73.775536"
   inkscape:zoom="1.979899"
   showgrid="false"
   id="namedview39"
   inkscape:window-height="1229"
   inkscape:window-width="1967"
   inkscape:pageshadow="2"
   inkscape:pageopacity="0"
   guidetolerance="10"
   gridtolerance="10"
   objecttolerance="10"
   borderopacity="1"
   inkscape:document-rotation="0"
   bordercolor="#666666"
   pagecolor="#ffffff" />

<style
   id="style10"
   type="text/css">
	.st0{fill:#F08705;}
	.st1{fill:#DF6C0C;}
	.st2{fill:#FFFFFF;}
	.st3{fill:#333333;}
</style>

<path
   class="st0"
   d="m 161.6,154.7 c 0,3.9 -3.2,6.9 -6.9,6.9 H 6.9 C 3,161.6 0,158.4 0,154.7 V 6.9 C 0,3 3.2,0 6.9,0 h 147.8 c 3.9,0 6.9,3.2 6.9,6.9 z"
   id="path12"
   inkscape:connector-curvature="0"
   style="opacity:1;stop-opacity:1" />
<g
   transform="matrix(0.78848791,0,0,0.77866629,34.180353,35.767528)"
   id="g16"
   style="opacity:1;stop-opacity:1">
		<path
   class="st1"
   d="m 161.6,154.7 c 0,3.9 -3.2,6.9 -6.9,6.9 H 55.3 l -32.2,-32.7 20,-32.7 59.4,-73.8 58.9,60.7 z"
   id="path14"
   inkscape:connector-curvature="0" />

	</g>
<path
   class="st2"
   d="M 103.85111,83.757028 H 97.468953 L 90.711376,72.49346 c 1.501684,-0.294472 2.627947,-1.619598 2.627947,-3.165578 v -8.502889 c 0,-1.803643 -1.464142,-3.239196 -3.303704,-3.239196 H 78.772991 c -1.839563,0 -3.303705,1.435553 -3.303705,3.239196 v 8.502889 c 0,1.582789 1.126263,2.871106 2.590405,3.165578 l -6.757577,11.300377 h -6.382156 c -1.839562,0 -3.303704,1.435553 -3.303704,3.239196 v 8.50289 c 0,1.803643 1.464142,3.239196 3.303704,3.239196 h 11.262628 c 1.839563,0 3.303704,-1.435553 3.303704,-3.239196 v -8.50289 c 0,-1.803643 -1.464141,-3.239196 -3.303704,-3.239196 h -1.088721 l 6.682493,-11.189949 h 5.218351 l 6.720035,11.189949 h -1.126263 c -1.839563,0 -3.303704,1.435553 -3.303704,3.239196 v 8.50289 c 0,1.803643 1.464141,3.239196 3.303704,3.239196 h 11.262629 c 1.83956,0 3.3037,-1.435553 3.3037,-3.239196 v -8.50289 c 0,-1.803643 -1.46414,-3.276005 -3.3037,-3.276005 z"
   id="path18"
   inkscape:connector-curvature="0"
   style="opacity:1;stroke-width:0.371738;stop-opacity:1" />

   <path
    class="st2"
    d="m 0,0 -23.738,17.487 c -2.462,1.924 -5.005,2.709 -7.002,2.477 4.853,6.568 7.486,14.827 6.874,23.611 -1.369,19.591 -18.363,34.362 -37.953,32.991 -19.59,-1.37 -34.362,-18.364 -32.993,-37.953 1.371,-19.592 18.363,-34.362 37.953,-32.992 8.786,0.612 16.596,4.372 22.424,10.093 0.05,-2.009 1.179,-4.417 3.427,-6.588 l 20.621,-21.075 c 3.521,-3.394 8.872,-3.329 11.896,0.148 C 4.534,-8.321 3.854,-3.012 0,0 m -57.505,14.898 c -14.464,-1.01 -27.011,9.899 -28.022,24.361 -1.01,14.465 9.897,27.012 24.36,28.023 14.463,1.013 27.011,-9.896 28.023,-24.36 1.01,-14.464 -9.897,-27.012 -24.361,-28.024"
    id="path20"
    inkscape:connector-curvature="0"
    style="opacity:1;stroke-width:0.371738;stop-opacity:1" />
</svg>
