<svg id="logo_art" data-name="logo art" xmlns="http://www.w3.org/2000/svg" viewBox="0 0 586 559"><defs><style>.cls-1{fill:#fc6d26;}.cls-2{fill:#e24329;}.cls-3{fill:#fca326;}</style></defs><title>gitlab-icon-rgb</title><g id="g44"><path id="path46" class="cls-1" d="M461.17,301.83l-18.91-58.12L404.84,128.43a6.47,6.47,0,0,0-12.27,0L355.15,243.64H230.82L193.4,128.43a6.46,6.46,0,0,0-12.26,0L143.78,243.64l-18.91,58.19a12.88,12.88,0,0,0,4.66,14.39L293,435,456.44,316.22a12.9,12.9,0,0,0,4.73-14.39"/></g><g id="g48"><path id="path50" class="cls-2" d="M293,434.91h0l62.16-191.28H230.87L293,434.91Z"/></g><g id="g56"><path id="path58" class="cls-1" d="M293,434.91,230.82,243.63h-87L293,434.91Z"/></g><g id="g64"><path id="path66" class="cls-3" d="M143.75,243.69h0l-18.91,58.12a12.88,12.88,0,0,0,4.66,14.39L293,435,143.75,243.69Z"/></g><g id="g72"><path id="path74" class="cls-2" d="M143.78,243.69h87.11L193.4,128.49a6.47,6.47,0,0,0-12.27,0l-37.35,115.2Z"/></g><g id="g76"><path id="path78" class="cls-1" d="M293,434.91l62.16-191.28H442.3L293,434.91Z"/></g><g id="g80"><path id="path82" class="cls-3" d="M442.24,243.69h0l18.91,58.12a12.85,12.85,0,0,1-4.66,14.39L293,434.91l149.2-191.22Z"/></g><g id="g84"><path id="path86" class="cls-2" d="M442.28,243.69h-87.1l37.42-115.2a6.46,6.46,0,0,1,12.26,0l37.42,115.2Z"/></g></svg>