<?xml version="1.0" encoding="UTF-8"?>
<svg width="13px" height="13px" viewBox="0 0 13 13" version="1.1" xmlns="http://www.w3.org/2000/svg" xmlns:xlink="http://www.w3.org/1999/xlink">
    <!-- Generator: sketchtool 51.2 (57519) - http://www.bohemiancoding.com/sketch -->
    <title>366530C7-A02E-42AC-9AE7-1CEE7BA971A5</title>
    <desc>Created with sketchtool.</desc>
    <defs></defs>
    <g id="Artboards" stroke="none" stroke-width="1" fill="none" fill-rule="evenodd">
        <g id="V5-START-grid-veiw" transform="translate(-1158.000000, -468.000000)" fill="#555555">
            <g id="recent-diagrams" transform="translate(428.000000, 442.000000)">
                <g id="list-view" transform="translate(723.000000, 18.000000)">
                    <path d="M7,16 L10,16 L10,19 L7,19 L7,16 Z M7,12 L10,12 L10,15 L7,15 L7,12 Z M7,8 L10,8 L10,11 L7,11 L7,8 Z M11,16 L20,16 L20,19 L11,19 L11,16 Z M11,12 L20,12 L20,15 L11,15 L11,12 Z M11,8 L20,8 L20,11 L11,11 L11,8 Z" id="Combined-Shape"></path>
                </g>
            </g>
        </g>
    </g>
</svg>