<?xml version="1.0" standalone="no"?>
<svg xmlns="http://www.w3.org/2000/svg" version="1.1" width="308" height="182.6591" viewBox="0 0 308 182.6591">
    <g transform="translate(296.64282,-173.95523)">
        <g transform="translate(222.85714,-11.428576)">
            <path d="m -419.49993,365.93502 c -18.47931,-4.6173 -28.77445,-19.30626 -28.80701,-41.10136 
                -0.0104,-6.9681 0.49376,-10.3069 2.2331,-14.78872 4.26362,-10.98614 15.55175,-19.27443 
                30.40561,-22.32524 7.3912,-1.51808 9.6683,-3.14802 9.6683,-6.92063 0,-1.18378 0.8797,-4.70915 
                1.9548,-7.83417 4.8844,-14.19664 13.9278,-26.03145 23.5912,-30.87276 10.1136,-5.06692 15.2197,-6.20959 
                27.454,-6.1439 17.3752,0.0933 26.0437,3.86233 38.1679,16.59515 l 6.6679,7.00266 5.9735,-2.06722 c 
                28.9108,-10.0052 57.732,7.02633 60.0552,35.48894 l 0.6355,7.78629 5.6932,2.0398 c 16.2589,5.82539 
                23.9011,18.05787 22.5157,36.0398 -0.906,11.75948 -6.4042,21.14812 -15.1143,25.80891 l -4.0947,2.19109 
                -90.9999,0.17534 c -69.9288,0.13474 -92.1578,-0.11394 -96,-1.07398 z"
                style="fill:#094ab1;fill-opacity:1"/>
            <path d="m -487.71853,353.36403 c -10.78803,-2.56384 -22.21903,-12.09222 -27.5793,-22.9889 
                -3.04063,-6.18117 -3.20213,-7.09029 -3.20213,-18.02547 0,-10.40101 0.25949,-12.06963 2.68006,-17.23407 
                5.1028,-10.88715 14.87971,-18.75377 27.14681,-21.84266 2.58892,-0.6519 5.02163,-1.69242 5.40602,-2.31227 
                0.38439,-0.61986 0.81139,-3.99652 0.94887,-7.5037 0.8539,-21.78191 15.14556,-40.97432 35.10144,-47.13807 
                10.78127,-3.32999 24.32593,-2.51086 36.05253,2.18033 3.7192,1.48788 3.3004,1.80688 11.1643,-8.50453 
                4.6506,-6.09809 14.0477,-13.68221 21.7397,-17.54555 8.3016,-4.16947 16.9354,-6.0904 27.2603,-6.06509 
                28.8573,0.0708 53.7275,18.12068 62.924,45.66805 2.9383,8.80156 2.7918,11.26655 -0.674,11.3392 
                -1.5125,0.0317 -5.8462,0.86464 -9.6305,1.85097 l -6.8805,1.79333 -6.2783,-6.27821 c -17.7018,-17.70181 
                -46.5914,-21.52795 -71.1505,-9.42317 -9.8115,4.83593 -17.6958,11.77857 -23.6512,20.82628 -4.2457,6.45035 
                -9.659,18.48366 -9.659,21.47126 0,2.11952 -1.7162,3.17862 -9.0456,5.58229 -22.69211,7.44184 
                -35.93693,24.62822 -35.92778,46.61961 0.003,8.00419 2.06453,17.79824 4.92624,23.40766 1.07878,2.11458 
                1.6807,4.12542 1.3376,4.46852 -0.87745,0.87745 -29.10623,0.58172 -33.00906,-0.34581 z"
                style="fill:#094ab1;fill-opacity:1"/>
        </g>
    </g>
</svg>