<?xml version="1.0" standalone="no"?>
<!DOCTYPE svg PUBLIC "-//W3C//DTD SVG 20010904//EN"
 "http://www.w3.org/TR/2001/REC-SVG-20010904/DTD/svg10.dtd">
<svg version="1.0" xmlns="http://www.w3.org/2000/svg"
 width="719.000000pt" height="719.000000pt" viewBox="0 0 719.000000 719.000000"
 preserveAspectRatio="xMidYMid meet">
<metadata>
Created by potrace 1.11, written by Peter Selinger 2001-2013
</metadata>
<g transform="translate(0.000000,719.000000) scale(0.100000,-0.100000)"
fill="#000000" stroke="none">
<path d="M0 3595 l0 -3595 3595 0 3595 0 0 3595 0 3595 -3595 0 -3595 0 0
-3595z m4319 2735 c162 -27 286 -148 321 -313 7 -36 10 -238 8 -623 -3 -569
-3 -569 -26 -626 -35 -86 -108 -160 -202 -206 l-78 -38 397 -677 396 -677 370
0 c398 -1 493 -8 564 -42 71 -34 154 -119 187 -191 l29 -62 0 -620 0 -620 -32
-66 c-40 -81 -102 -140 -191 -182 l-67 -32 -765 0 -765 0 -63 29 c-81 37 -171
131 -204 213 l-23 58 0 605 0 605 32 67 c76 162 212 237 431 238 28 0 52 2 52
4 0 1 -177 304 -393 672 l-394 669 -310 3 -310 2 -392 -668 c-215 -368 -391
-671 -391 -674 0 -3 45 -8 101 -12 159 -11 251 -56 329 -159 77 -102 75 -79
75 -757 l0 -605 -32 -67 c-54 -115 -150 -191 -273 -217 -40 -9 -250 -11 -785
-9 l-730 3 -65 31 c-113 53 -171 119 -210 233 -20 61 -21 76 -18 659 l3 597
27 57 c47 101 140 182 253 221 18 6 200 13 449 16 l419 6 393 670 c216 369
393 674 394 678 0 4 -8 10 -17 13 -133 42 -226 133 -267 260 -15 45 -16 117
-14 655 l3 604 27 56 c54 109 173 198 290 218 77 13 1388 13 1467 1z"/>
</g>
</svg>
