<?xml version="1.0" encoding="utf-8"?>
<!-- Generator: Adobe Illustrator 21.0.2, SVG Export Plug-In . SVG Version: 6.00 Build 0)  -->
<svg version="1.1" id="Layer_1" xmlns="http://www.w3.org/2000/svg" xmlns:xlink="http://www.w3.org/1999/xlink" x="0px" y="0px"
	 viewBox="0 0 102.9202 102.9202" style="enable-background:new 0 0 102.9202 102.9202;" xml:space="preserve">
<style type="text/css">
	.st0{fill:#FFFFFF;}
	.st1{fill:#ABE1FA;}
	.st2{fill:#00AEEF;}
	.st3{fill:#CEE6C1;}
	.st4{fill:#62BB46;}
	.st5{fill:#FABFB2;}
	.st6{fill:#ED1941;}
	.st7{fill:#DCB8D7;}
	.st8{fill:#AB218E;}
</style>
<path class="st0" d="M83.9202,102.9202H19c-10.4934,0-19-8.5066-19-19V19C0,8.5066,8.5066,0,19,0h64.9202c10.4934,0,19,8.5066,19,19
	v64.9202C102.9202,94.4136,94.4136,102.9202,83.9202,102.9202z"/>
<g>
	<path class="st1" d="M78.8754,59.8163c10.6051,0,19.2466,8.8088,19.2466,19.6878c0,10.8761-8.6415,19.7051-19.2466,19.7051
		c-10.6426,0-19.261-8.8289-19.261-19.7051C59.6143,68.6253,68.2328,59.8163,78.8754,59.8163"/>
	<path class="st2" d="M78.8754,79.5046h-19.261c0,10.8761,8.6185,19.7051,19.261,19.7051c10.6051,0,19.2466-8.8289,19.2466-19.7051
		c0-10.879-8.6415-19.6878-19.2466-19.6878V79.5046z"/>
	<path class="st3" d="M43.3053,79.5046c0,10.8761-8.6213,19.7051-19.2437,19.7051c-10.6455,0-19.2639-8.8289-19.2639-19.7051
		c0-10.879,8.6185-19.6878,19.2639-19.6878C34.6839,59.8169,43.3053,68.6256,43.3053,79.5046"/>
	<path class="st4" d="M24.0624,79.5046V59.8169c-10.6455,0-19.2639,8.8088-19.2639,19.6878
		c0,10.8761,8.6185,19.7051,19.2639,19.7051c10.6195,0,19.2437-8.8289,19.2437-19.7051
		C43.3061,79.5046,24.0624,79.5046,24.0624,79.5046z"/>
	<path class="st5" d="M24.0624,43.1096c-10.6455,0-19.2639-8.8174-19.2639-19.6993c0-10.879,8.6185-19.6993,19.2639-19.6993
		c10.6195,0,19.2437,8.8203,19.2437,19.6993C43.3061,34.2925,34.6819,43.1096,24.0624,43.1096"/>
	<path class="st6" d="M24.0624,23.4097h19.2437c0-10.879-8.6242-19.6993-19.2437-19.6993c-10.6455,0-19.2639,8.8203-19.2639,19.6993
		c0,10.8819,8.6185,19.6993,19.2639,19.6993V23.4097z"/>
	<path class="st7" d="M59.6149,23.4097c0-10.8934,8.6098-19.6993,19.261-19.6993c10.6051,0,19.2466,8.8059,19.2466,19.6993
		c0,10.8761-8.6415,19.6993-19.2466,19.6993C68.2247,43.1091,59.6149,34.2859,59.6149,23.4097"/>
	<path class="st8" d="M78.8754,23.4097v19.6993c10.6051,0,19.2466-8.8232,19.2466-19.6993c0-10.8934-8.6415-19.6993-19.2466-19.6993
		c-10.6512,0-19.261,8.8059-19.261,19.6993H78.8754z"/>
</g>
</svg>
