<?xml version="1.0" encoding="UTF-8" standalone="no"?>
<svg
   xmlns:dc="http://purl.org/dc/elements/1.1/"
   xmlns:cc="http://creativecommons.org/ns#"
   xmlns:rdf="http://www.w3.org/1999/02/22-rdf-syntax-ns#"
   xmlns:svg="http://www.w3.org/2000/svg"
   xmlns="http://www.w3.org/2000/svg"
   xmlns:sodipodi="http://sodipodi.sourceforge.net/DTD/sodipodi-0.dtd"
   xmlns:inkscape="http://www.inkscape.org/namespaces/inkscape"
   width="17.795"
   height="18.000948"
   viewBox="0 0 17.795 18.000948"
   version="1.1"
   id="svg55661"
   sodipodi:docname="Digital_Twins.svg"
   inkscape:version="0.92.3 (2405546, 2018-03-11)"><sodipodi:namedview
   pagecolor="#ffffff"
   bordercolor="#666666"
   borderopacity="1"
   objecttolerance="10"
   gridtolerance="10"
   guidetolerance="10"
   inkscape:pageopacity="0"
   inkscape:pageshadow="2"
   inkscape:window-width="1920"
   inkscape:window-height="1017"
   id="namedview55663"
   showgrid="false"
   fit-margin-top="0"
   fit-margin-left="0"
   fit-margin-right="0"
   fit-margin-bottom="0"
   inkscape:zoom="48.111111"
   inkscape:cx="8.895"
   inkscape:cy="8.9999754"
   inkscape:window-x="-8"
   inkscape:window-y="-8"
   inkscape:window-maximized="1"
   inkscape:current-layer="svg55661" />
<defs
   id="defs55645">
  <linearGradient
     id="a2543bcd-55aa-4840-a5ac-39d57afd4228"
     x1="9.2609997"
     y1="-0.36399999"
     x2="6.2179999"
     y2="20.052"
     gradientUnits="userSpaceOnUse">
    <stop
       offset="0"
       stop-color="#32bedd"
       id="stop55630" />
    <stop
       offset="1"
       stop-color="#198ab3"
       id="stop55632" />
  </linearGradient>
  <linearGradient
     id="a60145e1-6ccb-441f-b67d-d2694a998ff5"
     x1="10.798"
     y1="7.388"
     x2="14.441"
     y2="19.066"
     gradientUnits="userSpaceOnUse">
    <stop
       offset="0"
       stop-color="#50e6ff"
       id="stop55635" />
    <stop
       offset="0.997"
       stop-color="#32bedd"
       id="stop55637" />
  </linearGradient>
  <linearGradient
     id="b456a054-82ca-4a95-919b-f07fd04a13ed"
     x1="-0.168"
     y1="4.1139998"
     x2="12.572"
     y2="10.895"
     gradientUnits="userSpaceOnUse"
     gradientTransform="translate(0.105,-9.7228349e-4)">
    <stop
       offset="0"
       stop-color="#fff"
       id="stop55640" />
    <stop
       offset="1"
       stop-color="#9cebff"
       id="stop55642" />
  </linearGradient>
</defs>
<path
   d="M 14.323,3.3509723 9.128,0.35097228 a 2.624,2.624 0 0 0 -2.622,0 L 1.311,3.3509723 A 2.625,2.625 0 0 0 0,5.6219723 v 5.9999997 a 2.625,2.625 0 0 0 1.311,2.272 l 5.2,3 a 2.624,2.624 0 0 0 2.622,0 l 5.2,-3 a 2.625,2.625 0 0 0 1.311,-2.272 V 5.6219723 a 2.625,2.625 0 0 0 -1.321,-2.271 z"
   id="path55647"
   inkscape:connector-curvature="0"
   style="fill:url(#a2543bcd-55aa-4840-a5ac-39d57afd4228)" />
<path
   d="m 16.737,7.7439723 -3.653,-2.109 a 2.109,2.109 0 0 0 -2.107,0 l -3.652,2.109 a 2.1,2.1 0 0 0 -1.053,1.824 v 4.2179997 a 2.106,2.106 0 0 0 1.053,1.824 l 3.652,2.109 a 2.109,2.109 0 0 0 2.107,0 l 3.653,-2.109 a 2.108,2.108 0 0 0 1.058,-1.824 V 9.5679723 a 2.107,2.107 0 0 0 -1.058,-1.824 z"
   id="path55649"
   inkscape:connector-curvature="0"
   style="fill:url(#a60145e1-6ccb-441f-b67d-d2694a998ff5)" />
<polygon
   points="13.14,11.728 12.774,12.128 2.835,12.128 2.947,10.931 11.328,10.931 7.578,2.963 8.63,2.381 "
   id="polygon55651"
   style="fill:url(#b456a054-82ca-4a95-919b-f07fd04a13ed)"
   transform="translate(-0.105,9.7228349e-4)" />
<circle
   cx="2.6270001"
   cy="11.585973"
   r="1.5"
   id="circle55653"
   style="fill:#ffffff" />
<circle
   cx="12.031"
   cy="11.676972"
   r="2.3440001"
   id="circle55655"
   style="fill:#ffffff" />
<circle
   cx="7.9360003"
   cy="2.5589724"
   r="1.5"
   id="circle55657"
   style="fill:#ffffff" />
<metadata
   id="metadata55659">​
   <rdf:RDF>​
      <rdf:li>public:true</rdf:li>
​
      <rdf:li>sdk:false</rdf:li>
​
      <rdf:li>category: Internet of Things</rdf:li>
​
   <cc:Work
   rdf:about="">
  <dc:format>image/svg+xml</dc:format>
  <dc:type
     rdf:resource="http://purl.org/dc/dcmitype/StillImage" />
  <dc:title></dc:title>
</cc:Work>
</rdf:RDF>
​
</metadata>
​
</svg>
