<?xml version="1.0" encoding="UTF-8" standalone="no"?>
<svg
   width="18"
   height="18.040001"
   viewBox="0 0 18 18.040001"
   version="1.1"
   id="svg35187"
   sodipodi:docname="Logic_Apps.svg"
   inkscape:version="1.1 (c68e22c387, 2021-05-23)"
   xmlns:inkscape="http://www.inkscape.org/namespaces/inkscape"
   xmlns:sodipodi="http://sodipodi.sourceforge.net/DTD/sodipodi-0.dtd"
   xmlns="http://www.w3.org/2000/svg"
   xmlns:svg="http://www.w3.org/2000/svg">
  <sodipodi:namedview
     id="namedview35189"
     pagecolor="#ffffff"
     bordercolor="#666666"
     borderopacity="1.0"
     inkscape:pageshadow="2"
     inkscape:pageopacity="0.0"
     inkscape:pagecheckerboard="0"
     showgrid="false"
     fit-margin-top="0"
     fit-margin-left="0"
     fit-margin-right="0"
     fit-margin-bottom="0"
     inkscape:zoom="44.055556"
     inkscape:cx="9"
     inkscape:cy="9.0226986"
     inkscape:window-width="1920"
     inkscape:window-height="1017"
     inkscape:window-x="-8"
     inkscape:window-y="-8"
     inkscape:window-maximized="1"
     inkscape:current-layer="svg35187" />
  <defs
     id="defs35174">
    <linearGradient
       id="ba6b54e9-66d7-42e0-a289-95171eaf47f3"
       x1="9"
       y1="1.796"
       x2="9"
       y2="6.3709998"
       gradientUnits="userSpaceOnUse"
       gradientTransform="translate(0,0.02)">
      <stop
         offset="0"
         stop-color="#9cebff"
         id="stop35159" />
      <stop
         offset="1"
         stop-color="#50e6ff"
         id="stop35161" />
    </linearGradient>
    <linearGradient
       id="e5c23c93-889c-4cfe-8adf-72bfa2a5b6e4"
       x1="3.3740001"
       y1="12.14"
       x2="3.3740001"
       y2="18.457001"
       gradientUnits="userSpaceOnUse"
       gradientTransform="translate(0,0.02)">
      <stop
         offset="0.001"
         stop-color="#b4ec36"
         id="stop35164" />
      <stop
         offset="1"
         stop-color="#86d633"
         id="stop35166" />
    </linearGradient>
    <linearGradient
       id="fb46250a-f4a9-418f-b6ae-1a568665f153"
       x1="14.626"
       y1="12.14"
       x2="14.626"
       y2="18.457001"
       gradientTransform="rotate(-90,0.01,-0.01)"
       gradientUnits="userSpaceOnUse">
      <stop
         offset="0.001"
         stop-color="#b4ec36"
         id="stop35169" />
      <stop
         offset="1"
         stop-color="#86d633"
         id="stop35171" />
    </linearGradient>
  </defs>
  <path
     d="M 13.851,9.067 H 10.939 A 1.518,1.518 0 0 1 9.421,7.549 V 4.35 H 8.579 v 3.2 A 1.518,1.518 0 0 1 7.061,9.067 H 4.149 a 1.2,1.2 0 0 0 -1.2,1.2 v 2.338 H 3.79 V 10.264 A 0.355,0.355 0 0 1 4.146,9.909 H 7.061 A 2.353,2.353 0 0 0 8.8,9.145 a 0.278,0.278 0 0 1 0.408,0 2.353,2.353 0 0 0 1.735,0.764 h 2.912 a 0.354,0.354 0 0 1 0.355,0.355 v 2.338 h 0.841 v -2.338 a 1.2,1.2 0 0 0 -1.2,-1.197 z"
     fill="#0078d4"
     id="path35176" />
  <rect
     x="5.6259999"
     y="0"
     width="6.7470002"
     height="6.7470002"
     rx="0.60399997"
     fill="url(#ba6b54e9-66d7-42e0-a289-95171eaf47f3)"
     id="rect35178"
     style="fill:url(#ba6b54e9-66d7-42e0-a289-95171eaf47f3)" />
  <rect
     y="11.293"
     width="6.7470002"
     height="6.7470002"
     rx="0.60399997"
     fill="url(#e5c23c93-889c-4cfe-8adf-72bfa2a5b6e4)"
     id="rect35180"
     style="fill:url(#e5c23c93-889c-4cfe-8adf-72bfa2a5b6e4)"
     x="0" />
  <rect
     x="11.293001"
     y="-18"
     width="6.7470002"
     height="6.7470002"
     rx="0.60399997"
     transform="rotate(90)"
     fill="url(#fb46250a-f4a9-418f-b6ae-1a568665f153)"
     id="rect35182"
     style="fill:url(#fb46250a-f4a9-418f-b6ae-1a568665f153)" />
</svg>
