<?xml version="1.0" encoding="UTF-8" standalone="no"?>
<svg
   xmlns:dc="http://purl.org/dc/elements/1.1/"
   xmlns:cc="http://creativecommons.org/ns#"
   xmlns:rdf="http://www.w3.org/1999/02/22-rdf-syntax-ns#"
   xmlns:svg="http://www.w3.org/2000/svg"
   xmlns="http://www.w3.org/2000/svg"
   xmlns:sodipodi="http://sodipodi.sourceforge.net/DTD/sodipodi-0.dtd"
   xmlns:inkscape="http://www.inkscape.org/namespaces/inkscape"
   width="14.960091"
   height="17.120001"
   viewBox="0 0 14.960091 17.120001"
   version="1.1"
   id="svg2145"
   sodipodi:docname="Infrastructure_Backup.svg"
   inkscape:version="0.92.3 (2405546, 2018-03-11)">
  <sodipodi:namedview
     pagecolor="#ffffff"
     bordercolor="#666666"
     borderopacity="1"
     objecttolerance="10"
     gridtolerance="10"
     guidetolerance="10"
     inkscape:pageopacity="0"
     inkscape:pageshadow="2"
     inkscape:window-width="1920"
     inkscape:window-height="1017"
     id="namedview2147"
     showgrid="false"
     fit-margin-top="0"
     fit-margin-left="0"
     fit-margin-right="0"
     fit-margin-bottom="0"
     inkscape:zoom="48.111111"
     inkscape:cx="7.4800909"
     inkscape:cy="8.56"
     inkscape:window-x="-8"
     inkscape:window-y="-8"
     inkscape:window-maximized="1"
     inkscape:current-layer="svg2145" />
  <defs
     id="defs2116">
    <linearGradient
       id="fdd5d44a-d038-42da-afe7-cecaad9f8ff9"
       x1="6.4899998"
       y1="17.379999"
       x2="6.4899998"
       y2="0.44"
       gradientUnits="userSpaceOnUse"
       gradientTransform="translate(1.5199091,0.43999999)">
      <stop
         offset="0"
         stop-color="#949494"
         id="stop2094" />
      <stop
         offset="0.53"
         stop-color="#a2a2a2"
         id="stop2096" />
      <stop
         offset="1"
         stop-color="#b3b3b3"
         id="stop2098" />
    </linearGradient>
    <linearGradient
       id="bf4a560d-147b-4f76-9d70-f90bc5f8ddd6"
       x1="10.06"
       y1="13.89"
       x2="16.48"
       y2="13.89"
       gradientUnits="userSpaceOnUse"
       gradientTransform="translate(1.5199091,0.43999999)">
      <stop
         offset="0"
         stop-color="#005ba1"
         id="stop2101" />
      <stop
         offset="0.07"
         stop-color="#0060a9"
         id="stop2103" />
      <stop
         offset="0.36"
         stop-color="#0071c8"
         id="stop2105" />
      <stop
         offset="0.52"
         stop-color="#0078d4"
         id="stop2107" />
      <stop
         offset="0.64"
         stop-color="#0074cd"
         id="stop2109" />
      <stop
         offset="0.82"
         stop-color="#006abb"
         id="stop2111" />
      <stop
         offset="1"
         stop-color="#005ba1"
         id="stop2113" />
    </linearGradient>
  </defs>
  <g
     id="a55981fb-ccb2-4f5b-acf6-743ff717cb3a"
     transform="translate(-1.5199091,-0.43999999)">
    <g
       id="g2140">
      <path
         d="M 11,9.57 A 6.72,6.72 0 0 0 8.77,9.89 6.64,6.64 0 0 0 11,10.22 6.56,6.56 0 0 0 13.23,9.89 6.63,6.63 0 0 0 11,9.57 Z"
         id="path2118"
         inkscape:connector-curvature="0"
         style="fill:#198ab3" />
      <g
         id="g2130">
        <path
           d="m 11.47,16.81 a 0.57,0.57 0 0 1 -0.58,0.57 H 2.09 A 0.56,0.56 0 0 1 1.52,16.81 V 1 A 0.57,0.57 0 0 1 2.09,0.44 h 8.8 a 0.58,0.58 0 0 1 0.58,0.57 z"
           id="path2120"
           inkscape:connector-curvature="0"
           style="fill:url(#fdd5d44a-d038-42da-afe7-cecaad9f8ff9)" />
        <path
           d="M 3,6.38 A 1.08,1.08 0 0 1 4.06,5.3 H 9 a 1.08,1.08 0 0 1 1.08,1.08 v 0 A 1.08,1.08 0 0 1 9,7.47 H 4.06 A 1.08,1.08 0 0 1 3,6.38 Z"
           id="path2122"
           inkscape:connector-curvature="0"
           style="fill:#003067" />
        <path
           d="M 3,3.17 A 1.08,1.08 0 0 1 4.06,2.09 H 9 a 1.08,1.08 0 0 1 1.08,1.08 v 0 A 1.08,1.08 0 0 1 9,4.25 H 4.06 A 1.08,1.08 0 0 1 3,3.17 Z"
           id="path2124"
           inkscape:connector-curvature="0"
           style="fill:#003067" />
        <circle
           cx="4.1100001"
           cy="3.1700001"
           r="0.73000002"
           id="circle2126"
           style="fill:#50e6ff" />
        <circle
           cx="4.1100001"
           cy="6.3800001"
           r="0.73000002"
           id="circle2128"
           style="fill:#50e6ff" />
      </g>
      <path
         d="m 13.27,11.38 c -1.77,0 -3.21,-0.53 -3.21,-1.17 v 6.19 c 0,0.63 1.42,1.15 3.17,1.16 v 0 c 1.78,0 3.21,-0.52 3.21,-1.16 v -6.19 c 0.04,0.64 -1.39,1.17 -3.17,1.17 z"
         id="path2132"
         inkscape:connector-curvature="0"
         style="fill:url(#bf4a560d-147b-4f76-9d70-f90bc5f8ddd6)" />
      <path
         d="m 16.48,10.21 c 0,0.64 -1.43,1.17 -3.21,1.17 -1.78,0 -3.21,-0.53 -3.21,-1.17 0,-0.64 1.44,-1.16 3.21,-1.16 1.77,0 3.21,0.52 3.21,1.16"
         id="path2134"
         inkscape:connector-curvature="0"
         style="fill:#e6e6e6" />
      <path
         d="m 15.73,10.12 c 0,0.41 -1.1,0.74 -2.46,0.74 -1.36,0 -2.46,-0.33 -2.46,-0.74 0,-0.41 1.1,-0.74 2.46,-0.74 1.36,0 2.46,0.33 2.46,0.74"
         id="path2136"
         inkscape:connector-curvature="0"
         style="fill:#50e6ff" />
      <path
         d="M 13.68,8.66 15.81,6.53 A 0.11,0.11 0 0 0 15.73,6.34 h -1.24 c 0,-2.57 -1.37,-5.13 -3.84,-5.13 a 6.68,6.68 0 0 1 2,5.13 h -1.18 a 0.11,0.11 0 0 0 -0.08,0.19 l 2.13,2.13 a 0.12,0.12 0 0 0 0.16,0 z"
         id="path2138"
         inkscape:connector-curvature="0"
         style="fill:#50e6ff" />
    </g>
  </g>
  <metadata
     id="metadata2143">
    <rdf:RDF>
      <rdf:li>public:true</rdf:li>
      <rdf:li>sdk:false</rdf:li>
      <rdf:li>category: Azure Stack</rdf:li>
      <cc:Work
         rdf:about="">
        <dc:format>image/svg+xml</dc:format>
        <dc:type
           rdf:resource="http://purl.org/dc/dcmitype/StillImage" />
        <dc:title></dc:title>
      </cc:Work>
    </rdf:RDF>
  </metadata>
</svg>
