<?xml version="1.0" encoding="UTF-8" standalone="no"?>
<svg
   xmlns:dc="http://purl.org/dc/elements/1.1/"
   xmlns:cc="http://creativecommons.org/ns#"
   xmlns:rdf="http://www.w3.org/1999/02/22-rdf-syntax-ns#"
   xmlns:svg="http://www.w3.org/2000/svg"
   xmlns="http://www.w3.org/2000/svg"
   xmlns:sodipodi="http://sodipodi.sourceforge.net/DTD/sodipodi-0.dtd"
   xmlns:inkscape="http://www.inkscape.org/namespaces/inkscape"
   width="17.99984"
   height="17.128"
   viewBox="0 0 17.99984 17.128"
   version="1.1"
   id="svg2301"
   sodipodi:docname="Multi_Tenancy.svg"
   inkscape:version="0.92.3 (2405546, 2018-03-11)">
  <sodipodi:namedview
     pagecolor="#ffffff"
     bordercolor="#666666"
     borderopacity="1"
     objecttolerance="10"
     gridtolerance="10"
     guidetolerance="10"
     inkscape:pageopacity="0"
     inkscape:pageshadow="2"
     inkscape:window-width="1920"
     inkscape:window-height="1017"
     id="namedview2303"
     showgrid="false"
     fit-margin-top="0"
     fit-margin-left="0"
     fit-margin-right="0"
     fit-margin-bottom="0"
     inkscape:zoom="48.111111"
     inkscape:cx="8.9998393"
     inkscape:cy="8.564"
     inkscape:window-x="-8"
     inkscape:window-y="-8"
     inkscape:window-maximized="1"
     inkscape:current-layer="svg2301" />
  <defs
     id="defs2278">
    <linearGradient
       id="e94fd5a6-4ada-41a5-97db-ab7076cce3b5"
       x1="6.2340002"
       y1="5.6789999"
       x2="6.2340002"
       y2="16.030001"
       gradientUnits="userSpaceOnUse"
       gradientTransform="translate(1.606869e-4,0.43599987)">
      <stop
         offset="0.227"
         stop-color="#a67af4"
         id="stop2263" />
      <stop
         offset="1"
         stop-color="#773adc"
         id="stop2265" />
    </linearGradient>
    <linearGradient
       id="b4c9f14c-cd88-421f-a4fa-7e7c86ef7ab6"
       x1="5.9720001"
       y1="0.13"
       x2="6.7270002"
       y2="9.5290003"
       gradientUnits="userSpaceOnUse"
       gradientTransform="translate(1.606869e-4,0.43599987)">
      <stop
         offset="0.225"
         stop-color="#a67af4"
         id="stop2268" />
      <stop
         offset="1"
         stop-color="#773adc"
         id="stop2270" />
    </linearGradient>
    <linearGradient
       id="b9e0f377-f52d-4b6f-89b8-6bbad397e26a"
       x1="9.1280003"
       y1="13.552"
       x2="18"
       y2="13.552"
       gradientUnits="userSpaceOnUse"
       gradientTransform="translate(1.606869e-4,0.43599987)">
      <stop
         offset="0"
         stop-color="#1988d9"
         id="stop2273" />
      <stop
         offset="0.9"
         stop-color="#54aef0"
         id="stop2275" />
    </linearGradient>
  </defs>
  <g
     id="bdbb9a60-650f-4841-b656-90ae680b08db"
     transform="translate(-1.606869e-4,-0.43599987)">
    <g
       id="g2296">
      <g
         id="g2290">
        <path
           d="m 16.312,11.946 a 0.74,0.74 0 0 0 0.742,-0.738 0.532,0.532 0 0 0 0,-0.089 C 16.758,8.792 15.431,6.9 12.9,6.9 10.323,6.9 8.993,8.505 8.734,11.128 a 0.745,0.745 0 0 0 0.664,0.817 0.628,0.628 0 0 0 0.075,0 z"
           id="path2280"
           inkscape:connector-curvature="0"
           style="fill:#773adc" />
        <circle
           cx="12.898"
           cy="5.1139998"
           r="2.335"
           id="circle2282"
           style="fill:#773adc" />
        <path
           d="m 11.355,14.162 a 1.109,1.109 0 0 0 1.112,-1.105 1,1 0 0 0 -0.008,-0.134 C 12.024,9.439 10.036,6.6 6.243,6.6 2.385,6.6 0.394,9 0.006,12.933 A 1.115,1.115 0 0 0 1,14.156 1.051,1.051 0 0 0 1.112,14.162 Z"
           id="path2284"
           inkscape:connector-curvature="0"
           style="fill:url(#e94fd5a6-4ada-41a5-97db-ab7076cce3b5)" />
        <path
           d="M 6.3,7.428 A 3.481,3.481 0 0 1 4.41,6.871 L 6.284,11.766 8.144,6.9 A 3.468,3.468 0 0 1 6.3,7.428 Z"
           id="path2286"
           inkscape:connector-curvature="0"
           style="opacity:0.8;fill:#ffffff" />
        <circle
           cx="6.277"
           cy="3.9319999"
           r="3.4960001"
           id="circle2288"
           style="fill:url(#b4c9f14c-cd88-421f-a4fa-7e7c86ef7ab6)" />
      </g>
      <polygon
         points="13.564,17.564 18,15.751 13.564,9.54 9.128,15.751 "
         id="polygon2292"
         style="fill:url(#b9e0f377-f52d-4b6f-89b8-6bbad397e26a)" />
      <polygon
         points="13.564,17.564 13.564,9.54 9.128,15.751 "
         id="polygon2294"
         style="fill:#50e6ff" />
    </g>
  </g>
  <metadata
     id="metadata2299">
    <rdf:RDF>
      <rdf:li>public:true</rdf:li>
      <rdf:li>sdk:false</rdf:li>
      <rdf:li>category:Azure Stack</rdf:li>
      <cc:Work
         rdf:about="">
        <dc:format>image/svg+xml</dc:format>
        <dc:type
           rdf:resource="http://purl.org/dc/dcmitype/StillImage" />
        <dc:title></dc:title>
      </cc:Work>
    </rdf:RDF>
  </metadata>
</svg>
