<?xml version="1.0" encoding="UTF-8" standalone="no"?>
<svg
   xmlns:dc="http://purl.org/dc/elements/1.1/"
   xmlns:cc="http://creativecommons.org/ns#"
   xmlns:rdf="http://www.w3.org/1999/02/22-rdf-syntax-ns#"
   xmlns:svg="http://www.w3.org/2000/svg"
   xmlns="http://www.w3.org/2000/svg"
   xmlns:sodipodi="http://sodipodi.sourceforge.net/DTD/sodipodi-0.dtd"
   xmlns:inkscape="http://www.inkscape.org/namespaces/inkscape"
   width="17.015347"
   height="16.713921"
   viewBox="0 0 17.015347 16.713921"
   version="1.1"
   id="svg2456"
   sodipodi:docname="Offers.svg"
   inkscape:version="0.92.3 (2405546, 2018-03-11)">
  <sodipodi:namedview
     pagecolor="#ffffff"
     bordercolor="#666666"
     borderopacity="1"
     objecttolerance="10"
     gridtolerance="10"
     guidetolerance="10"
     inkscape:pageopacity="0"
     inkscape:pageshadow="2"
     inkscape:window-width="1920"
     inkscape:window-height="1017"
     id="namedview2458"
     showgrid="false"
     fit-margin-top="0"
     fit-margin-left="0"
     fit-margin-right="0"
     fit-margin-bottom="0"
     inkscape:zoom="48.111111"
     inkscape:cx="8.5025083"
     inkscape:cy="8.3539212"
     inkscape:window-x="-8"
     inkscape:window-y="-8"
     inkscape:window-maximized="1"
     inkscape:current-layer="svg2456" />
  <defs
     id="defs2441">
    <linearGradient
       id="b712480a-5aa7-43a4-9b55-efd538090944"
       x1="13.41"
       y1="14.43"
       x2="7"
       y2="3.72"
       gradientUnits="userSpaceOnUse"
       gradientTransform="translate(0.49749172,0.64)">
      <stop
         offset="0"
         stop-color="#0078d4"
         id="stop2430" />
      <stop
         offset="0.16"
         stop-color="#1380da"
         id="stop2432" />
      <stop
         offset="0.53"
         stop-color="#3c91e5"
         id="stop2434" />
      <stop
         offset="0.82"
         stop-color="#559cec"
         id="stop2436" />
      <stop
         offset="1"
         stop-color="#5ea0ef"
         id="stop2438" />
    </linearGradient>
  </defs>
  <title
     id="title2443">Icon-azurestack-3</title>
  <g
     id="b7d1e9ae-8ff7-48ce-9f16-5d1c2725c60e"
     transform="translate(-0.49749172,-0.64)">
    <g
       id="g2451">
      <path
         d="M 17.33,3.09 15,0.81 A 0.61,0.61 0 0 0 14.58,0.64 L 10.36,0.8 A 0.53,0.53 0 0 0 10,1 l -9.33,9.22 a 0.55,0.55 0 0 0 0,0.8 l 6.2,6.17 a 0.57,0.57 0 0 0 0.8,0 L 17,7.92 a 0.53,0.53 0 0 0 0.17,-0.35 l 0.34,-4 A 0.58,0.58 0 0 0 17.33,3.09 Z M 14.56,4.6 a 1,1 0 1 1 1,-1 1,1 0 0 1 -1,1 z"
         id="path2445"
         inkscape:connector-curvature="0"
         style="fill:url(#b712480a-5aa7-43a4-9b55-efd538090944)" />
      <path
         d="m 14.56,1.72 a 1.85,1.85 0 1 0 1.86,1.85 1.85,1.85 0 0 0 -1.86,-1.85 z m 1,2.05 a 1.0198039,1.0198039 0 0 1 -2,-0.4 1,1 0 0 1 0.81,-0.81 1,1 0 0 1 1.21,1.21 z"
         id="path2447"
         inkscape:connector-curvature="0"
         style="fill:#005ba1" />
      <path
         d="M 9.74,5.21 9.36,4.83 9,5.21 8.51,4.72 9.35,3.85 10.22,4.72 Z M 5.13,9.05 4.64,8.56 5.72,7.48 6,7.73 5.75,7.48 6.21,8 Z M 7.65,5.57 8.14,6.07 7.08,7.13 6.59,6.64 Z M 3.8,11.15 2.93,10.28 3.8,9.44 4.29,9.93 3.91,10.28 4.29,10.66 Z m 1.4,0.42 1.16,1.17 -0.5,0.49 L 4.7,12.07 Z M 7.64,15 6.77,14.13 7.3,13.64 7.64,13.99 8,13.67 8.49,14.16 Z M 10,11.73 10.5,12.22 9.39,13.28 8.9,12.79 Z m 1.35,-0.37 -0.52,-0.49 1.08,-1.08 0.49,0.49 -1,1.08 -0.24,-0.24 z M 13.28,9.44 12.75,9 Z m 0,0 L 12.75,9 13.1,8.61 12.75,8.27 13.24,7.74 14.11,8.61 Z m -2.12,-3.79 1.16,1.16 -0.5,0.5 -1.16,-1.16 z"
         id="path2449"
         inkscape:connector-curvature="0"
         style="fill:#ffffff" />
    </g>
  </g>
  <metadata
     id="metadata2454">
    <rdf:RDF>
      <rdf:li>public:true</rdf:li>
      <rdf:li>sdk:false</rdf:li>
      <rdf:li>category: Azure Stack</rdf:li>
      <cc:Work
         rdf:about="">
        <dc:format>image/svg+xml</dc:format>
        <dc:type
           rdf:resource="http://purl.org/dc/dcmitype/StillImage" />
        <dc:title>Icon-azurestack-3</dc:title>
      </cc:Work>
    </rdf:RDF>
  </metadata>
</svg>
