<?xml version="1.0" encoding="UTF-8" standalone="no"?>
<svg
   xmlns:dc="http://purl.org/dc/elements/1.1/"
   xmlns:cc="http://creativecommons.org/ns#"
   xmlns:rdf="http://www.w3.org/1999/02/22-rdf-syntax-ns#"
   xmlns:svg="http://www.w3.org/2000/svg"
   xmlns="http://www.w3.org/2000/svg"
   xmlns:sodipodi="http://sodipodi.sourceforge.net/DTD/sodipodi-0.dtd"
   xmlns:inkscape="http://www.inkscape.org/namespaces/inkscape"
   width="13.72"
   height="16.780176"
   viewBox="0 0 13.72 16.780176"
   version="1.1"
   id="svg2593"
   sodipodi:docname="Plans.svg"
   inkscape:version="0.92.3 (2405546, 2018-03-11)">
  <sodipodi:namedview
     pagecolor="#ffffff"
     bordercolor="#666666"
     borderopacity="1"
     objecttolerance="10"
     gridtolerance="10"
     guidetolerance="10"
     inkscape:pageopacity="0"
     inkscape:pageshadow="2"
     inkscape:window-width="1920"
     inkscape:window-height="1017"
     id="namedview2595"
     showgrid="false"
     fit-margin-top="0"
     fit-margin-left="0"
     fit-margin-right="0"
     fit-margin-bottom="0"
     inkscape:zoom="48.111111"
     inkscape:cx="6.86"
     inkscape:cy="8.3900877"
     inkscape:window-x="-8"
     inkscape:window-y="-8"
     inkscape:window-maximized="1"
     inkscape:current-layer="svg2593" />
  <defs
     id="defs2572">
    <linearGradient
       id="e12305c3-c719-4f7f-b079-f68282b70e18"
       x1="9"
       y1="17.389999"
       x2="9"
       y2="0.61000001"
       gradientUnits="userSpaceOnUse"
       gradientTransform="translate(2.14,0.60991227)">
      <stop
         offset="0"
         stop-color="#0078d4"
         id="stop2567" />
      <stop
         offset="0.82"
         stop-color="#5ea0ef"
         id="stop2569" />
    </linearGradient>
  </defs>
  <title
     id="title2574">Icon-azurestack-6</title>
  <g
     id="fd3ce364-0de3-4a49-9ae3-702f411d286b"
     transform="translate(-2.14,-0.60991227)">
    <g
       id="g2588">
      <g
         id="g2582">
        <path
           d="M 10,0.73 H 2.81 A 0.57,0.57 0 0 0 2.24,1.3 v 15.4 a 0.57,0.57 0 0 0 0.57,0.57 H 15.19 A 0.57,0.57 0 0 0 15.76,16.7 V 6.51 A 0.57,0.57 0 0 0 15.19,5.94 H 11.08 A 0.56,0.56 0 0 1 10.52,5.38 V 1.3 A 0.56,0.56 0 0 0 10,0.73 Z"
           id="path2576"
           inkscape:connector-curvature="0"
           style="fill:#ffffff" />
        <path
           d="m 9.69,1.45 v 3.87 a 1.42,1.42 0 0 0 1.42,1.42 H 15 v 9.81 H 3 V 1.45 H 9.7 M 10,0.61 H 2.72 A 0.57,0.57 0 0 0 2.14,1.18 v 15.64 a 0.57,0.57 0 0 0 0.58,0.57 h 12.56 a 0.57,0.57 0 0 0 0.58,-0.57 V 6.47 A 0.57,0.57 0 0 0 15.28,5.9 H 11.11 A 0.57,0.57 0 0 1 10.54,5.32 V 1.18 A 0.57,0.57 0 0 0 10,0.61 Z"
           id="path2578"
           inkscape:connector-curvature="0"
           style="fill:url(#e12305c3-c719-4f7f-b079-f68282b70e18)" />
        <path
           d="M 15.64,6 10.34,0.73 V 5 a 1,1 0 0 0 1,1 z"
           id="path2580"
           inkscape:connector-curvature="0"
           style="fill:#0078d4" />
      </g>
      <path
         d="M 13.26,8.49 H 7 a 0.41,0.41 0 1 0 0,0.82 h 6.3 a 0.41,0.41 0 0 0 0,-0.82 z m 0,2.44 H 7 a 0.41,0.41 0 1 0 0,0.81 h 6.3 a 0.41,0.41 0 1 0 0,-0.81 z m 0,2.45 H 7 a 0.41,0.41 0 0 0 0,0.82 h 6.3 a 0.41,0.41 0 1 0 0,-0.82 z"
         id="path2584"
         inkscape:connector-curvature="0"
         style="fill:#83b9f9" />
      <path
         d="M 4.79,9.72 V 8.4 A 0.62,0.62 0 0 1 4.6,8.47 L 4.38,8.53 V 8.12 A 2.29,2.29 0 0 0 4.69,8 1.28,1.28 0 0 0 5,7.86 H 5.32 V 9.72 Z M 4.4,12.32 V 12.17 A 1,1 0 0 1 4.4,11.91 2.26,2.26 0 0 1 4.51,11.69 1.86,1.86 0 0 1 4.79,11.43 0.87,0.87 0 0 0 5,11.26 c 0,0 0,-0.07 0.07,-0.09 a 0.14,0.14 0 0 0 0,-0.11 C 5.07,10.93 5,10.87 4.85,10.87 a 0.67,0.67 0 0 0 -0.43,0.17 v -0.45 a 1.08,1.08 0 0 1 0.28,-0.11 1.26,1.26 0 0 1 0.28,0 0.7,0.7 0 0 1 0.46,0.15 0.51,0.51 0 0 1 0.17,0.39 0.75,0.75 0 0 1 -0.09,0.34 1.15,1.15 0 0 1 -0.32,0.28 L 5,11.76 a 0.18,0.18 0 0 0 -0.06,0.1 h 0.73 v 0.42 z m 1.24,2.08 a 0.45,0.45 0 0 1 -0.19,0.41 0.92,0.92 0 0 1 -0.53,0.15 1.1,1.1 0 0 1 -0.26,0 L 4.43,14.89 v -0.43 a 0.49,0.49 0 0 0 0.19,0.07 0.72,0.72 0 0 0 0.22,0 0.6,0.6 0 0 0 0.21,0 A 0.19,0.19 0 0 0 5.12,14.4 0.15,0.15 0 0 0 5,14.25 1,1 0 0 0 4.76,14.2 H 4.62 V 13.81 H 4.77 A 0.3,0.3 0 0 0 5,13.75 0.12,0.12 0 0 0 5.07,13.62 c 0,0 0,-0.09 0,-0.11 0,-0.02 -0.09,0 -0.17,0 a 0.78,0.78 0 0 0 -0.35,0.1 V 13.2 a 1.23,1.23 0 0 1 0.46,-0.1 0.81,0.81 0 0 1 0.49,0.13 0.38,0.38 0 0 1 0.16,0.34 0.45,0.45 0 0 1 -0.09,0.28 0.45,0.45 0 0 1 -0.26,0.15 0.42,0.42 0 0 1 0.3,0.15 0.58,0.58 0 0 1 0.03,0.25 z"
         id="path2586"
         inkscape:connector-curvature="0"
         style="fill:#0078d4" />
    </g>
  </g>
  <metadata
     id="metadata2591">
    <rdf:RDF>
      <rdf:li>public:true</rdf:li>
      <rdf:li>sdk:false</rdf:li>
      <rdf:li>category: Azure Stack</rdf:li>
      <cc:Work
         rdf:about="">
        <dc:format>image/svg+xml</dc:format>
        <dc:type
           rdf:resource="http://purl.org/dc/dcmitype/StillImage" />
        <dc:title>Icon-azurestack-6</dc:title>
      </cc:Work>
    </rdf:RDF>
  </metadata>
</svg>
