<?xml version="1.0" encoding="UTF-8" standalone="no"?>
<svg
   xmlns:dc="http://purl.org/dc/elements/1.1/"
   xmlns:cc="http://creativecommons.org/ns#"
   xmlns:rdf="http://www.w3.org/1999/02/22-rdf-syntax-ns#"
   xmlns:svg="http://www.w3.org/2000/svg"
   xmlns="http://www.w3.org/2000/svg"
   xmlns:sodipodi="http://sodipodi.sourceforge.net/DTD/sodipodi-0.dtd"
   xmlns:inkscape="http://www.inkscape.org/namespaces/inkscape"
   width="17.689005"
   height="17.480295"
   viewBox="0 0 17.689005 17.480295"
   version="1.1"
   id="svg2699"
   sodipodi:docname="Updates.svg"
   inkscape:version="0.92.3 (2405546, 2018-03-11)">
  <sodipodi:namedview
     pagecolor="#ffffff"
     bordercolor="#666666"
     borderopacity="1"
     objecttolerance="10"
     gridtolerance="10"
     guidetolerance="10"
     inkscape:pageopacity="0"
     inkscape:pageshadow="2"
     inkscape:window-width="1920"
     inkscape:window-height="1017"
     id="namedview2701"
     showgrid="false"
     fit-margin-top="0"
     fit-margin-left="0"
     fit-margin-right="0"
     fit-margin-bottom="0"
     inkscape:zoom="48.111111"
     inkscape:cx="8.8684141"
     inkscape:cy="8.7402946"
     inkscape:window-x="-8"
     inkscape:window-y="-8"
     inkscape:window-maximized="1"
     inkscape:current-layer="svg2699" />
  <defs
     id="defs2679">
    <linearGradient
       id="e45c6200-6488-4339-a709-a13bd54e49f3"
       x1="13.01"
       y1="5.8299999"
       x2="12.78"
       y2="19.82"
       gradientUnits="userSpaceOnUse"
       gradientTransform="translate(0.13158586,0.26)">
      <stop
         offset="0"
         stop-color="#9cebff"
         id="stop2674" />
      <stop
         offset="1"
         stop-color="#50e6ff"
         id="stop2676" />
    </linearGradient>
  </defs>
  <title
     id="title2681">Icon-azurestack-8</title>
  <g
     id="ea18473d-2ef4-4f9c-b256-443e4dcd2a2c"
     transform="translate(-0.13158586,-0.26)">
    <g
       id="g2694">
      <path
         d="m 13.1,0.26 h -7 A 0.45,0.45 0 0 0 5.65,0.71 v 10.2 a 8.8,8.8 0 0 1 1.13,-0.83 h 1.33 l 0.74,1 v 1.54 l -0.93,1.24 -1.28,-0.17 -1,-0.39 v 0.27 a 0.45,0.45 0 0 0 0.45,0.46 h 7 a 0.45,0.45 0 0 0 0.45,-0.46 V 0.71 A 0.45,0.45 0 0 0 13.1,0.26 Z"
         id="path2683"
         inkscape:connector-curvature="0"
         style="fill:#0078d4" />
      <path
         id="ad507295-c076-421c-9034-1cdfff692626"
         d="M 6.7,2.07 H 8 a 0.11,0.11 0 0 1 0.12,0.11 v 1.7 A 0.12,0.12 0 0 1 8,4 H 6.7 A 0.11,0.11 0 0 1 6.59,3.88 V 2.18 A 0.11,0.11 0 0 1 6.7,2.07 Z m 2.3,0 h 1.29 a 0.11,0.11 0 0 1 0.11,0.11 v 1.7 A 0.11,0.11 0 0 1 10.29,4 H 9 A 0.11,0.11 0 0 1 8.89,3.88 V 2.18 A 0.11,0.11 0 0 1 9,2.07 Z m 2.27,0 h 1.28 a 0.11,0.11 0 0 1 0.11,0.11 v 1.7 A 0.11,0.11 0 0 1 12.55,4 H 11.23 A 0.12,0.12 0 0 1 11.11,3.88 V 2.18 A 0.11,0.11 0 0 1 11.23,2.07 Z M 6.7,5.16 H 8 A 0.11,0.11 0 0 1 8.12,5.27 V 7 A 0.11,0.11 0 0 1 8,7.09 H 6.7 A 0.11,0.11 0 0 1 6.59,7 V 5.27 A 0.11,0.11 0 0 1 6.7,5.16 Z m 2.3,0 h 1.29 A 0.11,0.11 0 0 1 10.4,5.27 V 7 A 0.11,0.11 0 0 1 10.29,7.11 H 9 A 0.11,0.11 0 0 1 8.85,7 V 5.27 A 0.11,0.11 0 0 1 9,5.16 Z m 2.27,0 h 1.28 a 0.11,0.11 0 0 1 0.11,0.11 V 7 A 0.11,0.11 0 0 1 12.55,7.11 H 11.23 A 0.11,0.11 0 0 1 11.11,7 V 5.27 a 0.11,0.11 0 0 1 0.12,-0.11 z"
         inkscape:connector-curvature="0"
         style="fill:#f2f2f2" />
      <path
         d="m 7.12,11.05 a 1,1 0 0 0 -1,0.76 H 2.53 a 3.07,3.07 0 0 0 -0.06,0.53 v 0.05 h 3.65 a 1,1 0 1 0 1,-1.34 z"
         id="path2686"
         inkscape:connector-curvature="0"
         style="fill:#50e6ff" />
      <path
         d="M 9.88,10.6 A 2.64,2.64 0 0 0 7.2,8.05 2.67,2.67 0 0 0 4.64,9.83 a 2.57,2.57 0 0 0 -2,1.64 H 5.9 a 1.37,1.37 0 0 1 1.22,-0.76 1.41,1.41 0 1 1 -1.22,2 H 2.53 a 2.55,2.55 0 0 0 2.53,2 H 9.48 9.6 a 2.05,2.05 0 0 0 0.28,-4.09 z"
         id="path2688"
         inkscape:connector-curvature="0"
         style="fill:#32bedd" />
      <path
         d="m 7.12,11.05 a 1,1 0 0 0 -1,0.76 H 2.53 A 1.92,1.92 0 0 1 2.16,11.76 1.84,1.84 0 0 1 2.36,8.13 H 2.53 L 2.59,7.96 a 2,2 0 0 1 2,-1.36 2.08,2.08 0 0 1 1.82,1 A 2.89,2.89 0 0 1 7,7.54 2.66,2.66 0 0 0 4.55,6 2.63,2.63 0 0 0 2.11,7.59 2.42,2.42 0 0 0 1.9,12.3 v 0 a 1.51,1.51 0 0 0 0.59,0.1 h 3.63 a 1,1 0 1 0 1,-1.34 z"
         id="path2690"
         inkscape:connector-curvature="0"
         style="fill:#50e6ff" />
      <path
         d="m 8,11.29 4.5,-4.5 a 0.54,0.54 0 0 1 0.76,0 l 4.49,4.5 a 0.24,0.24 0 0 1 -0.17,0.41 h -2.72 a 0.24,0.24 0 0 0 -0.24,0.24 v 5.61 a 0.19,0.19 0 0 1 -0.19,0.19 h -3 A 0.18,0.18 0 0 1 11.24,17.55 V 11.94 A 0.24,0.24 0 0 0 11,11.7 H 8.21 A 0.24,0.24 0 0 1 8,11.29 Z"
         id="path2692"
         inkscape:connector-curvature="0"
         style="fill:url(#e45c6200-6488-4339-a709-a13bd54e49f3)" />
    </g>
  </g>
  <metadata
     id="metadata2697">
    <rdf:RDF>
      <rdf:li>public:true</rdf:li>
      <rdf:li>sdk:false</rdf:li>
      <rdf:li>category: Azure Stack</rdf:li>
      <cc:Work
         rdf:about="">
        <dc:format>image/svg+xml</dc:format>
        <dc:type
           rdf:resource="http://purl.org/dc/dcmitype/StillImage" />
        <dc:title>Icon-azurestack-8</dc:title>
      </cc:Work>
    </rdf:RDF>
  </metadata>
</svg>
