<?xml version="1.0" encoding="UTF-8" standalone="no"?>
<svg
   xmlns:dc="http://purl.org/dc/elements/1.1/"
   xmlns:cc="http://creativecommons.org/ns#"
   xmlns:rdf="http://www.w3.org/1999/02/22-rdf-syntax-ns#"
   xmlns:svg="http://www.w3.org/2000/svg"
   xmlns="http://www.w3.org/2000/svg"
   xmlns:sodipodi="http://sodipodi.sourceforge.net/DTD/sodipodi-0.dtd"
   xmlns:inkscape="http://www.inkscape.org/namespaces/inkscape"
   width="17.209028"
   height="16.77334"
   viewBox="0 0 17.209028 16.77334"
   version="1.1"
   id="svg2787"
   sodipodi:docname="User_Subscriptions.svg"
   inkscape:version="0.92.3 (2405546, 2018-03-11)">
  <sodipodi:namedview
     pagecolor="#ffffff"
     bordercolor="#666666"
     borderopacity="1"
     objecttolerance="10"
     gridtolerance="10"
     guidetolerance="10"
     inkscape:pageopacity="0"
     inkscape:pageshadow="2"
     inkscape:window-width="1920"
     inkscape:window-height="1017"
     id="namedview2789"
     showgrid="false"
     fit-margin-top="0"
     fit-margin-left="0"
     fit-margin-right="0"
     fit-margin-bottom="0"
     inkscape:zoom="48.111111"
     inkscape:cx="8.607088"
     inkscape:cy="8.3633404"
     inkscape:window-x="-8"
     inkscape:window-y="-8"
     inkscape:window-maximized="1"
     inkscape:current-layer="svg2787" />
  <defs
     id="defs2766">
    <linearGradient
       id="b0670cdb-9407-42e5-ae8f-f3558902da1a"
       x1="7.8899999"
       y1="6.9000001"
       x2="7.8899999"
       y2="19.35"
       gradientUnits="userSpaceOnUse"
       gradientTransform="translate(0.39291204,0.59000015)">
      <stop
         offset="0.22"
         stop-color="#32d4f5"
         id="stop2751" />
      <stop
         offset="1"
         stop-color="#198ab3"
         id="stop2753" />
    </linearGradient>
    <linearGradient
       id="fd04ffc0-49c3-4a18-9b27-999b23712bcb"
       x1="7.5300002"
       y1="0.22"
       x2="8.4399996"
       y2="11.53"
       gradientUnits="userSpaceOnUse"
       gradientTransform="translate(0.39291204,0.59000015)">
      <stop
         offset="0.22"
         stop-color="#32d4f5"
         id="stop2756" />
      <stop
         offset="1"
         stop-color="#198ab3"
         id="stop2758" />
    </linearGradient>
    <radialGradient
       id="aa3ecbb1-1061-42c8-aaf2-d5c01a3fcfd9"
       cx="-19.24"
       cy="6.5100002"
       r="6.1300001"
       gradientTransform="matrix(0.94,0.01,-0.01,0.94,32.422912,6.8500002)"
       gradientUnits="userSpaceOnUse">
      <stop
         offset="0.27"
         stop-color="#ffd70f"
         id="stop2761" />
      <stop
         offset="1"
         stop-color="#fea11b"
         id="stop2763" />
    </radialGradient>
  </defs>
  <g
     id="b245b541-7d80-40be-a5d7-51667bcba1b3"
     transform="translate(-0.39291204,-0.59000015)">
    <g
       id="g2782">
      <g
         id="g2774">
        <path
           d="m 14.05,17.11 a 1.34,1.34 0 0 0 1.34,-1.33 0.81,0.81 0 0 0 0,-0.16 C 14.86,11.42 12.47,8 7.9,8 3.33,8 0.86,10.9 0.4,15.63 a 1.34,1.34 0 0 0 1.19,1.47 h 12.46 z"
           id="path2768"
           inkscape:connector-curvature="0"
           style="fill:url(#b0670cdb-9407-42e5-ae8f-f3558902da1a)" />
        <path
           d="M 7.9,9 A 4.09,4.09 0 0 1 5.63,8.33 l 2.25,5.89 2.24,-5.85 A 4.17,4.17 0 0 1 7.9,9 Z"
           id="path2770"
           inkscape:connector-curvature="0"
           style="opacity:0.8;fill:#ffffff" />
        <circle
           cx="7.9000001"
           cy="4.8000002"
           r="4.21"
           id="circle2772"
           style="fill:url(#fd04ffc0-49c3-4a18-9b27-999b23712bcb)" />
      </g>
      <g
         id="g2780">
        <path
           id="f2ddd4d7-46fc-4e48-ae24-8fde036c39bb"
           d="m 17.27,11.45 a 1.13,1.13 0 0 0 0,-1.6 v 0 l -1.94,-2 a 1.12,1.12 0 0 0 -1.6,0 v 0 l -2,1.94 a 1.14,1.14 0 0 0 0,1.61 l 1.61,1.64 a 0.31,0.31 0 0 1 0.09,0.22 v 3 a 0.36,0.36 0 0 0 0.12,0.28 l 0.73,0.75 a 0.27,0.27 0 0 0 0.37,0 l 0.72,-0.72 v 0 l 0.42,-0.43 a 0.14,0.14 0 0 0 0,-0.2 l -0.31,-0.31 a 0.17,0.17 0 0 1 0,-0.23 l 0.31,-0.31 a 0.13,0.13 0 0 0 0,-0.2 l -0.3,-0.31 a 0.17,0.17 0 0 1 0,-0.23 l 0.31,-0.31 a 0.14,0.14 0 0 0 0,-0.2 L 15.38,13.41 V 13.3 Z M 14.54,8.34 a 0.66,0.66 0 0 1 0.64,0.65 0.63,0.63 0 0 1 -0.65,0.64 0.65,0.65 0 0 1 0,-1.29 z"
           inkscape:connector-curvature="0"
           style="fill:url(#aa3ecbb1-1061-42c8-aaf2-d5c01a3fcfd9)" />
        <path
           id="e15034b6-eebb-4253-ac69-86068a1d4276"
           d="m 14,16.38 v 0 a 0.14,0.14 0 0 0 0.24,-0.1 V 13.83 A 0.16,0.16 0 0 0 14.18,13.7 v 0 a 0.14,0.14 0 0 0 -0.22,0.12 v 2.46 a 0.13,0.13 0 0 0 0.04,0.1 z"
           inkscape:connector-curvature="0"
           style="opacity:0.75;fill:#ff9300" />
        <rect
           id="f3d2a589-08f4-4e99-9635-cc67abadc8f4"
           x="14.38"
           y="9.0699997"
           width="0.38"
           height="3.21"
           rx="0.17"
           transform="rotate(-89.65,14.562113,10.673358)"
           style="opacity:0.75;fill:#ff9300" />
        <rect
           id="bc7793e0-f7bc-4cc4-abb0-181c6c62350c"
           x="14.37"
           y="9.6800003"
           width="0.38"
           height="3.21"
           rx="0.17"
           transform="rotate(-89.65,14.558982,11.290257)"
           style="opacity:0.75;fill:#ff9300" />
      </g>
    </g>
  </g>
  <metadata
     id="metadata2785">
    <rdf:RDF>
      <rdf:li>public:true</rdf:li>
      <rdf:li>sdk:false</rdf:li>
      <rdf:li>category: Azure Stack</rdf:li>
      <cc:Work
         rdf:about="">
        <dc:format>image/svg+xml</dc:format>
        <dc:type
           rdf:resource="http://purl.org/dc/dcmitype/StillImage" />
        <dc:title></dc:title>
      </cc:Work>
    </rdf:RDF>
  </metadata>
</svg>
