<svg xmlns="http://www.w3.org/2000/svg" viewBox="0 0 146.697 297.571"><style><![CDATA[.L{fill:none}.M{stroke-linejoin:round}.N{stroke:#626366}.O{stroke-width:2.7}.P{stroke:#dfe0df}.Q{stroke-width:.675}.R{stroke-linecap:round}.S{fill:#fefefe}.T{fill:#416895}.U{fill:#7d91b4}.V{fill:#607ba4}]]></style><path d="M1.005 33.92c.003-1.264.062-1.974.316-2.658s1.677-1.444 1.677-1.444L57.603 1l85.06 49.035s2.236 1.006 2.682 2.624c.506 1.836.317 5.508.317 5.508l-.128 202.77s.168 4.418-.914 5.687c-.592.695-3.136 2.226-3.136 2.226l-52.302 26.795s-3.703 2.27-7.448-.295c-3.45-2.366-69.125-39.377-69.125-39.377S.816 252.2 1.005 232.766V33.92" fill="#e7ebf0"/><g class="L M"><path d="M1.005 33.92c.003-1.264.062-1.974.316-2.658s1.677-1.444 1.677-1.444L57.603 1l85.06 49.035s2.236 1.006 2.682 2.624c.506 1.836.317 5.508.317 5.508l-.128 202.77s.168 4.418-.914 5.687c-.592.695-3.136 2.226-3.136 2.226l-52.302 26.795s-3.703 2.27-7.448-.295c-3.45-2.366-69.125-39.377-69.125-39.377S.816 252.2 1.005 232.766V33.92z" stroke="#b8c6d3" stroke-width="2"/><g class="N O"><path d="M90.147 270.13l38.053-20.198.007 10.876-38.052 20.197z"/><path d="M19.605 227.743l38.052-20.198L128.2 249.93l-38.053 20.2z"/><path d="M90.147 270.13l.008 10.875-70.543-42.386-.007-10.876z"/></g></g><path d="M90.147 270.13l38.053-20.196.007 10.875-38.052 20.198z" class="T"/><path d="M19.605 227.744l38.052-20.198 70.543 42.387-38.053 20.197z" class="U"/><path d="M90.147 270.13l.008 10.877-70.543-42.388-.007-10.875z" class="V"/><path d="M19.946 227.75l70.188 42.173v10.793" class="L M P Q R"/><path d="M28.178 241.584l-5.44-3.27v-1.567l5.44 3.268zm39.334 24.48l-12.12-7.283v-2.858l12.12 7.284zm-13.786-8.514l-12.12-7.282v-2.856l12.12 7.282zm30.894 18.533l-1.975-1.186v-2.304l1.975 1.185z" class="S"/><g class="L M N O"><path d="M89.876 254.04l38.052-20.2.007 10.876-38.052 20.198z"/><path d="M19.333 211.65l38.05-20.198 70.544 42.386-38.052 20.2z"/><path d="M89.876 254.04l.007 10.875-70.543-42.387-.007-10.876z"/></g><path d="M89.876 254.04l38.052-20.197.007 10.875-38.052 20.198z" class="T"/><path d="M19.333 211.652l38.05-20.198 70.544 42.387-38.052 20.198z" class="U"/><path d="M89.876 254.04l.007 10.876-70.543-42.388-.007-10.875z" class="V"/><path d="M19.674 211.658l70.188 42.173v10.794" class="L M P Q R"/><path d="M27.907 225.492l-5.438-3.27v-1.567l5.438 3.268zm39.333 24.48L55.12 242.7v-2.858l12.12 7.284zm-13.786-8.514l-12.12-7.282v-2.856l12.12 7.282zM84.35 260l-1.975-1.185V256.5l1.975 1.186z" class="S"/><g class="L M N O"><path d="M89.783 236.313l38.052-20.2.007 10.877-38.053 20.198z"/><path d="M19.24 193.925l38.053-20.198 70.543 42.386-38.052 20.2z"/><path d="M89.783 236.313l.006 10.875L19.247 204.8l-.008-10.877z"/></g><path d="M89.783 236.313l38.052-20.198.007 10.875-38.053 20.2z" class="T"/><path d="M19.24 193.926l38.053-20.198 70.543 42.387-38.052 20.198z" class="U"/><path d="M89.783 236.313l.006 10.876L19.247 204.8l-.008-10.875z" class="V"/><path d="M19.58 193.932l70.188 42.173V246.9" class="L M P Q R"/><path d="M27.813 207.766l-5.438-3.27v-1.567l5.438 3.268zm39.334 24.48l-12.12-7.282v-2.858l12.12 7.284zm-13.787-8.513l-12.12-7.283v-2.855l12.12 7.282zm30.895 18.533l-1.974-1.185v-2.305l1.974 1.186z" class="S"/><g class="L M N O"><path d="M90.055 218.95l38.053-20.2.006 10.876-38.05 20.198z"/><path d="M19.513 176.562l38.052-20.198 70.543 42.386-38.053 20.2z"/><path d="M90.055 218.95l.008 10.875-70.543-42.387-.007-10.876z"/></g><path d="M90.055 218.95l38.053-20.197.006 10.875-38.05 20.198z" class="T"/><path d="M19.513 176.563l38.052-20.198 70.543 42.386-38.053 20.198z" class="U"/><path d="M90.055 218.95l.008 10.876-70.543-42.388-.007-10.875z" class="V"/><path d="M19.854 176.568l70.188 42.173v10.794" class="L M P Q R"/><path d="M28.086 190.402l-5.44-3.27v-1.567l5.44 3.268zm39.334 24.48L55.3 207.6v-2.858l12.12 7.284zm-13.786-8.514l-12.12-7.282v-2.856l12.12 7.282zM84.53 224.9l-1.975-1.185V221.4l1.975 1.186z" class="S"/><g class="L M N O"><path d="M90.15 202.197l38.052-20.2.007 10.877-38.052 20.197z"/><path d="M19.605 159.81l38.053-20.2 70.543 42.386-38.052 20.2z"/><path d="M90.15 202.197l.007 10.875-70.543-42.387-.008-10.875z"/></g><path d="M90.15 202.197L128.2 182l.007 10.875-38.052 20.2z" class="T"/><path d="M19.605 159.81l38.053-20.197L128.2 182 90.15 202.198z" class="U"/><path d="M90.15 202.197l.007 10.877-70.543-42.39-.008-10.875z" class="V"/><path d="M19.947 159.816L90.135 202v10.793" class="L M P Q R"/><path d="M28.18 173.65l-5.438-3.268v-1.568l5.438 3.268zm39.333 24.48l-12.12-7.283V188l12.12 7.284zm-13.787-8.513l-12.12-7.283v-2.856l12.12 7.282zm30.896 18.533l-1.976-1.186v-2.304l1.976 1.185z" class="S"/><g class="L M N O"><path d="M89.877 186.105l38.052-20.2.007 10.877-38.052 20.197z"/><path d="M19.334 143.72l38.052-20.2 70.543 42.386-38.052 20.2z"/><path d="M89.877 186.105l.007 10.875-70.543-42.386-.007-10.875z"/></g><path d="M89.877 186.105l38.052-20.197.007 10.875-38.052 20.2z" class="T"/><path d="M19.334 143.72l38.052-20.197 70.543 42.386-38.052 20.198z" class="U"/><path d="M89.877 186.105l.007 10.877-70.543-42.388-.007-10.875z" class="V"/><path d="M19.675 143.725L89.863 185.9v10.793" class="L M P Q R"/><path d="M27.908 157.56l-5.438-3.268v-1.568l5.438 3.268zm39.334 24.48l-12.12-7.283V171.9l12.12 7.284zm-13.787-8.515l-12.12-7.283v-2.856l12.12 7.282zM84.35 192.06l-1.975-1.186v-2.304l1.975 1.185z" class="S"/><g class="L M N O"><path d="M89.784 168.38l38.05-20.2.008 10.877-38.052 20.197z"/><path d="M19.24 125.992l38.052-20.2 70.542 42.386-38.05 20.2z"/><path d="M89.784 168.38l.007 10.875-70.543-42.387-.007-10.875z"/></g><path d="M89.784 168.38l38.05-20.197.008 10.875-38.052 20.2z" class="T"/><path d="M19.24 125.992l38.052-20.197 70.542 42.386-38.05 20.198z" class="U"/><path d="M89.784 168.38l.007 10.877-70.543-42.39-.007-10.875z" class="V"/><path d="M19.58 125.998l70.188 42.174v10.793" class="L M P Q R"/><path d="M27.814 139.832l-5.438-3.268v-1.568l5.438 3.268zm39.333 24.48l-12.12-7.284v-2.858l12.12 7.285zM53.362 155.8l-12.12-7.283v-2.856l12.12 7.282zm30.895 18.532l-1.975-1.186v-2.304l1.975 1.185z" class="S"/><g class="L M N O"><path d="M90.057 151.016l38.052-20.2.007 10.877-38.052 20.197z"/><path d="M19.514 108.63l38.052-20.2 70.543 42.386-38.052 20.2z"/><path d="M90.057 151.016l.007 10.875-70.543-42.386-.007-10.876z"/></g><path d="M90.057 151.016l38.052-20.197.007 10.875-38.052 20.2z" class="T"/><path d="M19.514 108.63l38.052-20.197 70.543 42.386-38.052 20.198z" class="U"/><path d="M90.057 151.016l.007 10.877-70.543-42.388-.007-10.876z" class="V"/><path d="M19.855 108.635l70.188 42.174v10.793" class="L M P Q R"/><path d="M28.087 122.47l-5.437-3.27v-1.568l5.438 3.268zm39.333 24.48l-12.12-7.283V136.8l12.12 7.283zm-13.786-8.514l-12.12-7.282v-2.857l12.12 7.282zM84.53 156.97l-1.976-1.186v-2.304l1.976 1.185z" class="S"/><g class="L M N O"><path d="M90.123 133.91l38.052-20.2.007 10.876-38.052 20.198z"/><path d="M19.58 91.52l38.052-20.197 70.543 42.386-38.052 20.2z"/><path d="M90.123 133.91l.007 10.875-70.543-42.387-.007-10.876z"/></g><path d="M90.123 133.91l38.052-20.197.007 10.875-38.052 20.198z" class="T"/><path d="M19.58 91.522l38.052-20.197 70.543 42.387L90.123 133.9z" class="U"/><path d="M90.123 133.91l.007 10.876-70.543-42.388-.007-10.875z" class="V"/><path d="M19.92 91.527L90.11 133.7v10.794" class="L M P Q R"/><path d="M28.154 105.362l-5.438-3.27v-1.567l5.438 3.268zm39.334 24.48l-12.12-7.282v-2.858l12.12 7.284zm-13.786-8.514l-12.12-7.282V111.2l12.12 7.282zm30.895 18.532l-1.975-1.185v-2.305l1.975 1.186z" class="S"/><g class="L M N O"><path d="M89.85 117.817l38.053-20.2.006 10.876-38.05 20.198z"/><path d="M19.31 75.43L57.36 55.232l70.543 42.386-38.053 20.2z"/><path d="M89.85 117.817l.008 10.875-70.543-42.386-.007-10.877z"/></g><path d="M89.85 117.817l38.053-20.197.006 10.875-38.05 20.198z" class="T"/><path d="M19.31 75.43L57.36 55.233l70.543 42.387-38.053 20.198z" class="U"/><path d="M89.85 117.817l.008 10.876-70.543-42.387-.007-10.876z" class="V"/><path d="M19.65 75.436L89.838 117.6v10.794" class="L M P Q R"/><path d="M27.882 89.27l-5.44-3.268v-1.568l5.44 3.27zm39.334 24.48l-12.12-7.282V103.6l12.12 7.284zm-13.786-8.514L41.3 97.954v-2.856l12.12 7.282zm30.896 18.534l-1.975-1.185v-2.305l1.975 1.186z" class="S"/><g class="L M N O"><path d="M89.758 100.09l38.052-20.2.007 10.876-38.052 20.198z"/><path d="M19.215 57.703l38.052-20.198L127.8 79.89l-38.052 20.2z"/><path d="M89.758 100.09l.007 10.875L19.222 68.58l-.007-10.876z"/></g><path d="M89.758 100.09L127.8 79.894l.007 10.875-38.052 20.198z" fill="#898b8e"/><path d="M19.215 57.704l38.052-20.198L127.8 79.893 89.758 100.09z" fill="#bbbdbf"/><path d="M89.758 100.09l.007 10.876L19.222 68.58l-.007-10.875z" fill="#b3b5b7"/><path d="M19.555 57.71l70.19 42.174v10.794" class="L M P Q R"/><path d="M27.788 71.544l-5.438-3.27v-1.567l5.438 3.268zm39.378 20.162l-12.12-7.283v-2.857l12.12 7.285zm-.044 4.317l-12.12-7.28v-2.86l12.12 7.285zM41.258 75.9v-2.857l12.12 7.282v2.858m-.042 4.307l-12.12-7.282v-2.856l12.12 7.282zm30.896 18.543l-1.975-1.185v-2.305l1.975 1.186z" class="S"/><g class="L M N O"><path d="M90.032 82.727l38.052-20.2.007 10.877L90.04 93.603z"/><path d="M19.49 40.34L57.54 20.142l70.543 42.385-38.052 20.2z"/><path d="M90.032 82.727l.007 10.876-70.543-42.386-.007-10.877z"/></g><path d="M90.032 82.727l38.052-20.197.007 10.876L90.04 93.604z" fill="#898b8e"/><path d="M19.49 40.34L57.54 20.143l70.543 42.386-38.052 20.198z" fill="#bbbdbf"/><path d="M90.032 82.727l.007 10.877-70.543-42.387-.007-10.876z" fill="#b3b5b7"/><path d="M19.83 40.346L90.017 82.52v10.794" class="L M P Q R"/><path d="M28.062 54.18l-5.438-3.268v-1.568l5.438 3.27zM67.44 74.344L55.318 67.06v-2.857l12.122 7.284zm-.044 4.316l-12.12-7.283V68.52l12.12 7.283zM53.65 65.83l-12.12-7.282v-2.86l12.12 7.283zm-.05 4.316l-12.12-7.28v-2.86L53.6 67.3zM84.505 88.68l-1.975-1.185V85.2l1.975 1.185z" class="S"/></svg>