<svg xmlns="http://www.w3.org/2000/svg" viewBox="0 0 146.541 190.512"><style><![CDATA[.L{fill:none}.M{stroke-linejoin:round}.N{stroke:#626366}.O{stroke-width:2.7}.P{stroke:#dfe0df}.Q{stroke-width:.675}.R{stroke-linecap:round}.S{fill:#fefefe}.T{fill:#416895}.U{fill:#7d91b4}.V{fill:#607ba4}]]></style><path d="M1.027 37.4c0-5.57 3.368-7.072 3.368-7.072L58.972 1l81.42 46.04c-.048-.028 5.05 3.705 4.883 12.552-.026 1.41.256 94.284.256 94.284s.167 4.418-.915 5.687c-.592.695-3.137 2.226-3.137 2.226l-52.302 26.795s-3.703 2.27-7.447-.295c-3.45-2.366-69.125-39.377-69.125-39.377S.81 145.14 1.002 125.707L1.027 37.4" fill="#e7ebf0"/><g class="L M"><path d="M1.027 37.4c0-5.57 3.368-7.072 3.368-7.072L58.972 1l81.42 46.04c-.048-.028 5.05 3.705 4.883 12.552-.026 1.41.256 94.284.256 94.284s.167 4.418-.915 5.687c-.592.695-3.137 2.226-3.137 2.226l-52.302 26.795s-3.703 2.27-7.447-.295c-3.45-2.366-69.125-39.377-69.125-39.377S.81 145.14 1.002 125.707L1.027 37.4z" stroke="#b8c6d3" stroke-width="2"/><g class="N O"><path d="M89.78 166.32l38.052-20.2.007 10.877-38.052 20.197z"/><path d="M19.236 123.933l38.052-20.2 70.543 42.386-38.052 20.2z"/><path d="M89.78 166.32l.007 10.875-70.543-42.387-.007-10.875z"/></g></g><path d="M89.78 166.32l38.052-20.197.007 10.875-38.052 20.2z" class="T"/><path d="M19.236 123.933l38.052-20.197 70.543 42.386L89.78 166.32z" class="U"/><path d="M89.78 166.32l.007 10.877-70.543-42.39-.007-10.875z" class="V"/><path d="M19.577 123.94l70.188 42.174v10.793" class="L M P Q R"/><path d="M27.8 137.773l-5.438-3.268v-1.568l5.438 3.268zm39.333 24.48l-12.12-7.283v-2.858l12.12 7.284zm-13.786-8.514l-12.12-7.283V143.6l12.12 7.282zm30.896 18.533l-1.975-1.186v-2.304l1.975 1.185z" class="S"/><g class="L M N O"><path d="M90.053 148.957l38.052-20.2.007 10.877-38.052 20.197z"/><path d="M19.5 106.57l38.052-20.2 70.543 42.386-38.052 20.2z"/><path d="M90.053 148.957l.007 10.875-70.543-42.386-.007-10.876z"/></g><path d="M90.053 148.957l38.052-20.197.007 10.875-38.052 20.2z" class="T"/><path d="M19.5 106.57l38.052-20.197 70.543 42.386-38.052 20.198z" class="U"/><path d="M90.053 148.957l.007 10.877-70.543-42.388-.007-10.876z" class="V"/><path d="M19.85 106.576L90.04 148.75v10.793" class="L M P Q R"/><path d="M28.083 120.4l-5.438-3.268v-1.568l5.438 3.268zm39.334 24.5l-12.12-7.283v-2.857l12.12 7.283zm-13.787-8.523l-12.12-7.282v-2.857l12.12 7.282zM84.526 154.9l-1.975-1.186V151.4l1.975 1.185z" class="S"/><g class="L M N O"><path d="M90.12 131.85l38.052-20.2.007 10.876-38.052 20.198z"/><path d="M19.576 89.462l38.052-20.198 70.543 42.386-38.052 20.2z"/><path d="M90.12 131.85l.007 10.875-70.543-42.387-.007-10.876z"/></g><path d="M90.12 131.85l38.052-20.197.007 10.875-38.052 20.198z" class="T"/><path d="M19.576 89.464l38.052-20.2 70.543 42.387-38.052 20.2z" class="U"/><path d="M90.12 131.85l.007 10.876-70.543-42.388-.007-10.875z" class="V"/><path d="M19.917 89.468l70.188 42.174v10.794" class="L M P Q R"/><path d="M28.15 103.303l-5.438-3.27v-1.567l5.438 3.268zm39.333 24.48l-12.12-7.282v-2.858l12.12 7.284zm-13.786-8.513l-12.12-7.282v-2.856l12.12 7.282zm30.896 18.532l-1.975-1.185v-2.305l1.975 1.186z" class="S"/><g class="L M N O"><path d="M89.848 115.758l38.052-20.2.007 10.876-38.052 20.198z"/><path d="M19.305 73.37l38.052-20.198L127.9 95.56l-38.052 20.2z"/><path d="M89.848 115.758l.007 10.875-70.543-42.386-.007-10.877z"/></g><path d="M89.848 115.758L127.9 95.56l.007 10.875-38.052 20.198z" class="T"/><path d="M19.305 73.372l38.052-20.198L127.9 95.56 89.848 115.76z" class="U"/><path d="M89.848 115.758l.007 10.876-70.543-42.387-.007-10.876z" class="V"/><path d="M19.645 73.377l70.188 42.174v10.794" class="L M P Q R"/><path d="M27.878 87.2l-5.438-3.268v-1.568l5.438 3.27zm39.334 24.48l-12.12-7.282v-2.858l12.12 7.284zm-13.786-8.513l-12.12-7.282V93.04l12.12 7.282zM84.32 121.7l-1.975-1.185v-2.305l1.975 1.186z" class="S"/><g class="L M N O"><path d="M89.754 98.032l38.052-20.2.007 10.876-38.052 20.198z"/><path d="M19.21 55.644l38.052-20.198 70.543 42.386-38.052 20.2z"/><path d="M89.754 98.032l.007 10.875L19.218 66.52l-.007-10.876z"/></g><path d="M89.754 98.032l38.052-20.197.007 10.875-38.052 20.198z" fill="#898b8e"/><path d="M19.21 55.645l38.052-20.198 70.543 42.387-38.052 20.198z" fill="#bbbdbf"/><path d="M89.754 98.032l.007 10.876L19.218 66.52l-.007-10.875z" fill="#b3b5b7"/><path d="M19.552 55.65L89.74 97.824v10.794" class="L M P Q R"/><path d="M27.784 69.485l-5.438-3.27V64.65l5.438 3.268zm39.378 20.162l-12.12-7.283v-2.857l12.12 7.285zm-.044 4.318l-12.12-7.283v-2.857l12.12 7.283zM41.254 73.85v-2.857l12.12 7.282v2.858m-.042 4.317l-12.12-7.282v-2.856l12.12 7.282zm30.895 18.534l-1.975-1.185v-2.305l1.975 1.186z" class="S"/><g class="L M N O"><path d="M90.027 80.668l38.052-20.2.007 10.877-38.052 20.198z"/><path d="M19.484 38.28l38.052-20.198 70.543 42.385-38.052 20.2z"/><path d="M90.027 80.668l.007 10.876L19.49 49.158l-.007-10.877z"/></g><path d="M90.027 80.668L128.08 60.47l.007 10.876-38.052 20.198z" fill="#898b8e"/><path d="M19.484 38.282l38.052-20.198L128.08 60.47 90.027 80.668z" fill="#bbbdbf"/><path d="M90.027 80.668l.007 10.877L19.49 49.158l-.007-10.876z" fill="#b3b5b7"/><path d="M19.825 38.287L90.013 80.46v10.794" class="L M P Q R"/><path d="M28.058 52.12l-5.438-3.268v-1.568l5.438 3.27zm39.377 20.165L55.314 65v-2.857l12.12 7.284zm-.043 4.315l-12.12-7.283V66.46l12.12 7.283zM53.647 63.77l-12.12-7.282v-2.86l12.12 7.283zm-.042 4.317l-12.12-7.28V57.95l12.12 7.282zM84.5 86.62l-1.975-1.185V83.13l1.975 1.185z" class="S"/></svg>