<svg xmlns="http://www.w3.org/2000/svg" xmlns:xlink="http://www.w3.org/1999/xlink" viewBox="0 0 128.082 131.636"><style><![CDATA[.I{fill:none}.J{stroke-linejoin:round}.K{fill:#dfe0df}.L{stroke:#fefefe}.M{stroke-width:.434}]]></style><g stroke="#626366" stroke-width="3.106" class="I J"><path d="M82.7 73.552l43.776-23.232.043 56.525-43.78 23.238z"/><path d="M1.553 24.79L45.33 1.553l81.157 48.766L82.7 73.552z"/><path d="M82.7 73.552l.038 56.53L1.6 81.32l-.037-56.53z"/></g><path d="M82.7 73.552l43.776-23.232.043 56.525-43.78 23.238z" fill="#416895"/><path d="M1.553 24.79L45.33 1.553l81.157 48.766L82.7 73.552z" fill="#7d91b4"/><path d="M82.7 73.552l.038 56.53L1.6 81.32l-.037-56.53z" fill="#607ba4"/><path d="M1.573 25.2L82.73 74.37m0 .087v55.215" stroke-width="1.027" stroke="#dfe0df" stroke-linecap="round" class="I J"/><use xlink:href="#B" class="K"/><use xlink:href="#B" class="I J L M"/><use xlink:href="#C" class="K"/><use xlink:href="#C" class="I J L M"/><use xlink:href="#D" class="K"/><use xlink:href="#D" class="I J L M"/><use xlink:href="#E" class="K"/><use xlink:href="#E" class="I J L M"/><use xlink:href="#F" class="K"/><use xlink:href="#F" class="I J L M"/><use xlink:href="#G" class="K"/><use xlink:href="#G" class="I J L M"/><use xlink:href="#H" class="K"/><use xlink:href="#H" class="I J L M"/><use xlink:href="#I" class="K"/><use xlink:href="#I" class="I J L M"/><use xlink:href="#J" class="K"/><use xlink:href="#J" class="I J L M"/><use xlink:href="#K" class="K"/><use xlink:href="#K" class="I J L M"/><use xlink:href="#L" class="K"/><use xlink:href="#L" class="I J L M"/><use xlink:href="#M" class="K"/><use xlink:href="#M" class="I J L M"/><use xlink:href="#N" class="K"/><use xlink:href="#N" class="I J L M"/><use xlink:href="#O" class="K"/><use xlink:href="#O" class="I J L M"/><use xlink:href="#P" class="K"/><use xlink:href="#P" class="I J L M"/><use xlink:href="#Q" class="K"/><use xlink:href="#Q" class="I J L M"/><use xlink:href="#R" class="K"/><use xlink:href="#R" class="I J L M"/><use xlink:href="#S" class="K"/><use xlink:href="#S" class="I J L M"/><use xlink:href="#T" class="K"/><use xlink:href="#T" class="I J L M"/><use xlink:href="#U" class="K"/><use xlink:href="#U" class="I J L M"/><defs ><path id="B" d="M21.977 48.092c0 .367-.256.51-.568.315l-15.197-9.4c-.312-.193-.567-.65-.566-1.018l.01-6.973c.001-.367.256-.51.568-.315L21.416 40.1c.313.193.567.65.567 1.018l-.006 6.975z"/><path id="C" d="M21.966 58.653c-.001.367-.256.51-.568.315L6.204 49.555c-.312-.193-.567-.65-.566-1.018l.006-6.973c.001-.367.256-.51.568-.315l15.195 9.41a1.33 1.33 0 0 1 .567 1.018l-.008 6.975z"/><path id="D" d="M21.956 69.215c-.001.367-.256.51-.568.315L6.193 60.116c-.312-.193-.566-.65-.566-1.018l.006-6.976c0-.367.256-.51.568-.315l15.194 9.413a1.33 1.33 0 0 1 .567 1.018l-.006 6.977z"/><path id="E" d="M21.945 79.772c-.001.367-.256.51-.568.315L6.18 70.676c-.312-.193-.567-.65-.566-1.018l.01-6.975c.001-.367.256-.51.568-.315l15.193 9.412a1.33 1.33 0 0 1 .567 1.018l-.008 6.974z"/><path id="F" d="M21.934 90.332c0 .367-.255.51-.567.315L6.173 81.235c-.312-.193-.567-.65-.566-1.018l.006-6.975c.001-.367.256-.51.568-.315l15.192 9.412a1.33 1.33 0 0 1 .567 1.018l-.006 6.975z"/><path id="G" d="M40.025 59.27c-.001.367-.256.51-.568.315l-15.194-9.41c-.312-.193-.567-.65-.567-1.018l.006-6.975c.001-.367.256-.51.568-.315l15.197 9.412c.313.193.567.65.567 1.018l-.01 6.972z"/><path id="H" d="M40.016 69.83c0 .367-.255.51-.567.315l-15.196-9.4c-.312-.193-.567-.65-.566-1.018l.006-6.974c.001-.367.256-.51.568-.315l15.193 9.41c.313.193.568.65.568 1.018l-.006 6.975z"/><path id="I" d="M40.005 80.392c-.001.367-.256.51-.568.315L24.24 71.294c-.312-.193-.567-.65-.566-1.018l.01-6.975c0-.367.256-.51.568-.315l15.195 9.41a1.33 1.33 0 0 1 .567 1.018l-.007 6.977z"/><path id="J" d="M39.993 90.95c-.001.367-.256.51-.568.315L24.23 81.852c-.312-.193-.567-.65-.566-1.018l.006-6.973c0-.367.255-.51.567-.315l15.197 9.41a1.33 1.33 0 0 1 .567 1.018l-.008 6.976z"/><path id="K" d="M39.985 101.5c-.001.367-.256.51-.568.315L24.22 92.412c-.312-.193-.567-.65-.566-1.018l.007-6.974c.001-.367.256-.51.568-.315l15.194 9.413c.313.193.568.65.568 1.018l-.006 6.974z"/><path id="L" d="M58.073 70.452c0 .367-.255.51-.567.315l-15.198-9.413c-.312-.193-.567-.65-.566-1.018l.006-6.975c.001-.367.256-.51.568-.315l15.196 9.414a1.33 1.33 0 0 1 .567 1.018l-.006 6.974z"/><path id="M" d="M58.062 81c-.001.367-.256.51-.568.315l-15.197-9.41c-.312-.193-.566-.65-.566-1.018l.01-6.975c.001-.367.256-.51.568-.315l15.197 9.41a1.33 1.33 0 0 1 .567 1.018L58.062 81z"/><path id="N" d="M58.052 91.57c-.001.367-.256.51-.568.315l-15.196-9.4c-.312-.193-.567-.65-.566-1.018l.006-6.978c.001-.367.256-.51.568-.315l15.197 9.414a1.33 1.33 0 0 1 .567 1.018l-.008 6.974z"/><path id="O" d="M58.04 102.128c-.001.367-.256.51-.568.315l-15.196-9.41c-.312-.193-.567-.65-.566-1.018l.006-6.974c0-.367.255-.51.567-.315l15.195 9.408c.313.193.568.65.568 1.018l-.006 6.975z"/><path id="P" d="M58.032 112.686c0 .367-.255.51-.567.315l-15.198-9.412c-.312-.193-.567-.65-.566-1.018l.008-6.97c.001-.367.256-.51.568-.315l15.194 9.41a1.33 1.33 0 0 1 .567 1.018l-.006 6.974z"/><path id="Q" d="M76.12 81.63c-.001.367-.256.51-.568.315L60.36 72.532c-.312-.193-.566-.65-.566-1.018l.006-6.974c0-.367.256-.51.568-.315l15.194 9.412a1.33 1.33 0 0 1 .567 1.018l-.007 6.974z"/><path id="R" d="M76.113 92.187c-.001.367-.256.51-.568.315l-15.197-9.41c-.312-.193-.566-.65-.566-1.018l.01-6.975c.001-.367.256-.51.568-.315l15.194 9.412a1.33 1.33 0 0 1 .567 1.018l-.007 6.974z"/><path id="S" d="M76.103 102.75c-.001.367-.256.51-.568.315L60.34 93.652c-.312-.193-.567-.65-.566-1.018l.006-6.976c0-.367.255-.51.567-.315l15.195 9.412a1.33 1.33 0 0 1 .567 1.018l-.006 6.977z"/><path id="T" d="M76.092 113.307c0 .367-.255.51-.567.315l-15.198-9.41c-.312-.193-.567-.65-.566-1.018l.006-6.974c.001-.367.256-.51.568-.315l15.196 9.414a1.33 1.33 0 0 1 .567 1.018l-.006 6.97z"/><path id="U" d="M76.08 123.868c-.001.367-.256.51-.568.315l-15.192-9.41c-.312-.193-.567-.65-.567-1.018l.006-6.977c.001-.367.256-.51.568-.315l15.195 9.412c.313.193.567.65.567 1.018l-.01 6.976z"/></defs></svg>