<svg xmlns="http://www.w3.org/2000/svg" viewBox="0 0 142.398 288.854"><style><![CDATA[.J{fill:none}.K{stroke-linejoin:round}.L{stroke:#626366}.M{fill:#898b8e}.N{fill:#bbbdbf}.O{fill:#b3b5b7}.P{stroke:#dfe0df}.Q{stroke-width:.655}.R{stroke-linecap:round}.S{fill:#fefefe}.T{stroke-width:2.676}.U{stroke-width:2.621}]]></style><path d="M.976 32.926c0-1.228.06-1.916.306-2.58s1.627-1.4 1.627-1.4L55.914.97l82.568 47.6s2.17.975 2.602 2.545c.492 1.784.3 5.347.3 5.347L141.27 253.3s.163 4.3-.888 5.52c-.573.678-3.044 2.162-3.044 2.162l-50.77 26.012s-3.595 2.204-7.228-.288c-3.35-2.297-67.1-38.225-67.1-38.225S.79 244.81.976 225.947V32.926" fill="#e7ebf0"/><g class="J K"><path d="M.976 32.926c0-1.228.06-1.916.306-2.58s1.627-1.4 1.627-1.4L55.914.97l82.568 47.6s2.17.975 2.602 2.545c.492 1.784.3 5.347.3 5.347L141.27 253.3s.163 4.3-.888 5.52c-.573.678-3.044 2.162-3.044 2.162l-50.77 26.012s-3.595 2.204-7.228-.288c-3.35-2.297-67.1-38.225-67.1-38.225S.79 244.81.976 225.947V32.926z" stroke="#b8c6d3" stroke-width="1.941"/><g class="L T"><path d="M86.917 193.53l37.365-20.108.04 78.274-37.367 20.543z"/><path d="M17.544 151.275L54.9 131.167l69.372 42.255-37.365 20.11z"/><path d="M86.917 193.53l.04 78.71-69.373-41.71-.04-79.256z"/></g></g><path d="M86.917 193.53l37.365-20.108.04 78.274-37.367 20.543z" class="M"/><path d="M17.544 151.275L54.9 131.167l69.372 42.255-37.365 20.11z" class="N"/><path d="M86.917 193.53l.04 78.71-69.373-41.71-.04-79.256z" class="O"/><path d="M17.544 151.148l69.412 41.625v79.467" class="J K P Q R"/><path d="M24.082 181.463v-14.3l1.367.823v14.3zm-3.556-2.136v-14.3l1.373.825v14.3zm6.944 4.173v-14.3l1.373.824v14.298zm3.22 1.93v-14.297l1.37.823v14.3zm3.33 2.004v-14.297l1.367.82v14.3zm7.23 4.242v-14.3l1.368.822v14.3zm-3.557-2.136v-14.3l1.373.825v14.3zm6.945 4.174v-14.3l1.373.826v14.297zm3.218 1.93v-14.298l1.37.823v14.3zm3.332 2.004V183.35l1.368.822v14.296zm6.875 4.137v-14.3l1.37.824v14.3zm-3.553-2.137v-14.3l1.37.825v14.3zm6.946 4.174v-14.3l1.37.825v14.3zm3.214 1.93v-14.297l1.37.823v14.298zm3.333 2.004V193.46l1.37.822v14.297zm7.11 4.52v-14.3l1.37.822v14.3zm-3.554-2.137v-14.3l1.37.825v14.3zm6.946 4.174v-14.3l1.37.825v14.297zm3.216 1.93v-14.297l1.37.823v14.3zm-57.767-16.323v-14.3l1.368.82v14.3zm-3.556-2.136v-14.3l1.373.825v14.3zm6.946 4.172v-14.3l1.373.825v14.298zm3.217 1.932v-14.297l1.37.82v14.3zm3.332 2.003v-14.297l1.368.822v14.297zm7.228 4.242v-14.3l1.368.822v14.3zM37.565 208v-14.3l1.373.825v14.3zm6.935 4.173v-14.3l1.373.826v14.297zm3.228 1.93v-14.298l1.37.823v14.3zm3.332 2.004V201.8l1.367.823v14.296zm6.875 4.136v-14.3l1.37.823v14.3zm-3.553-2.136v-14.3l1.37.825v14.3zm6.945 4.173v-14.3l1.37.825v14.298zm3.216 1.932v-14.297l1.37.82v14.3zm3.332 2.003v-14.297l1.37.823v14.297zm7.108 4.52v-14.3l1.37.822v14.3zM71.43 228.6v-14.3l1.37.825v14.3zm6.945 4.173v-14.3l1.37.825v14.298zm3.215 1.93v-14.297l1.37.823v14.3zM23.953 218.38v-14.3l1.368.825v14.298zm-3.556-2.135v-14.3l1.373.822v14.3zm6.946 4.17v-14.297l1.373.823v14.3zm3.217 1.93V208.05l1.37.823v14.3zm3.332 2.004v-14.297l1.368.82v14.3zm7.228 4.242v-14.3l1.368.825v14.297zm-3.555-2.134V212.16l1.373.822v14.3zm6.935 4.172v-14.297l1.373.822v14.3zm3.228 1.93v-14.298l1.37.823v14.3zm3.332 2.004v-14.297l1.367.822v14.296zm6.875 4.136v-14.3l1.37.826v14.297zm-3.553-2.132v-14.3l1.37.822v14.3zm6.945 4.17V226.44l1.37.82v14.3zm3.216 1.932v-14.297l1.37.823v14.298zm3.332 2.003v-14.297l1.37.822v14.297zm7.108 4.52v-14.3l1.37.826v14.297zm-3.553-2.133v-14.3l1.37.82v14.3zm6.945 4.17v-14.297l1.37.823v14.3zm3.215 1.93v-14.297l1.37.823v14.3zm.904 6.14l-62.87-37.86v-1.5l62.87 37.862zm0 3.567l-62.87-37.86v-1.5l62.87 37.862z" class="S"/><g class="J K L T"><path d="M87.415 108.543l37.364-20.107.04 78.272-37.366 20.545z"/><path d="M18.04 66.288L55.407 46.18l69.372 42.255-37.364 20.108z"/><path d="M87.415 108.543l.038 78.7-69.373-41.71-.04-79.256z"/></g><path d="M87.415 108.543l37.364-20.107.04 78.272-37.366 20.545z" class="M"/><path d="M18.04 66.288L55.407 46.18l69.372 42.255-37.364 20.108z" class="N"/><path d="M87.415 108.543l.038 78.7-69.373-41.71-.04-79.256z" class="O"/><path d="M18.04 66.16l69.412 41.625v79.468" class="J K P Q R"/><path d="M24.58 96.475v-14.3l1.367.822v14.3zm-3.557-2.135v-14.3l1.372.825v14.3zm6.945 4.172v-14.3l1.373.824v14.298zm3.218 1.93V86.146l1.37.822v14.3zm3.332 2.004V88.15l1.367.822v14.297zm7.228 4.243V92.4l1.368.822v14.3zm-3.546-2.137v-14.3l1.373.824v14.3zm6.936 4.173v-14.3l1.373.825v14.297zm3.217 1.93V96.36l1.37.822v14.3zm3.332 2.003V98.363l1.368.823v14.297zm6.875 4.138v-14.3l1.37.822v14.3zm-3.552-2.136v-14.3l1.37.825v14.3zm6.944 4.173v-14.3l1.37.825v14.297zm3.216 1.93v-14.297l1.37.822v14.3zm3.332 2.005v-14.3l1.37.823V123.6zm7.108 4.53V113l1.37.823v14.3zm-3.553-2.146v-14.3l1.37.825v14.3zM79 129.327v-14.3l1.37.825v14.298zm3.216 1.93V116.96l1.37.823v14.3zM24.45 114.934v-14.3l1.367.822v14.3zm-3.556-2.134V98.5l1.373.825v14.3zm6.946 4.17v-14.3l1.372.824v14.297zm3.217 1.932v-14.298l1.37.823v14.3zm3.333 2.004v-14.298l1.368.823v14.297zm7.228 4.24v-14.3l1.367.823v14.3zM38.062 123v-14.3l1.372.824v14.3zm6.945 4.175v-14.3l1.373.825v14.297zm3.218 1.93v-14.298l1.37.823v14.3zm3.332 2.002v-14.296l1.367.822v14.297zm6.875 4.138v-14.3l1.37.823v14.3zm-3.552-2.136v-14.3l1.37.825v14.3zm6.944 4.174v-14.3l1.37.826v14.297zm3.216 1.93v-14.298l1.37.823v14.3zm3.332 2.003V126.93l1.37.823v14.296zm7.108 4.523v-14.3l1.37.822v14.3zm-3.552-2.137v-14.3l1.37.824v14.3zm6.944 4.173v-14.3l1.37.825v14.296zm3.216 1.93V135.42l1.37.822v14.3zM24.45 133.4v-14.3l1.367.826v14.297zm-3.556-2.132v-14.3l1.373.822v14.3zm6.946 4.17v-14.296l1.372.82v14.3zm3.217 1.932v-14.297l1.37.822v14.3zm3.333 2.003v-14.297l1.368.822v14.297zm7.228 4.242v-14.3l1.367.825v14.296zm-3.556-2.135v-14.3l1.372.82v14.302zm6.945 4.172v-14.298l1.373.823v14.3zm3.218 1.93v-14.298l1.37.823v14.3zm3.332 2.004V135.28l1.367.823V150.4zm6.875 4.137v-14.3l1.37.826v14.297zm-3.552-2.134v-14.3l1.37.823v14.3zm6.944 4.17v-14.297l1.37.82v14.3zm3.216 1.93v-14.297l1.37.823v14.3zm3.332 2.005v-14.298l1.37.823v14.297zm7.108 4.52v-14.3l1.37.824v14.3zm-3.552-2.133v-14.3l1.37.82v14.3zm6.944 4.17v-14.297l1.37.822v14.3zm3.216 1.93v-14.297l1.37.823V169zm.902 6.14l-62.87-37.86v-1.5L83 172.807zm0 3.567l-62.87-37.86v-1.5L83 176.382zm-51.808 40.67l-3.234-1.937v-2.1l3.234 1.94z" class="S"/><g class="J K L U"><path d="M86.686 93.25l36.936-19.607.007 10.557-36.938 19.608z"/><path d="M18.21 52.103l36.938-19.605 68.475 41.144L86.687 93.25z"/><path d="M86.686 93.25l.005 10.558L18.216 62.66l-.008-10.557z"/></g><path d="M86.686 93.25l36.936-19.604.007 10.554-36.938 19.608z" class="M"/><path d="M18.21 52.104l36.938-19.606 68.475 41.147L86.687 93.25z" class="N"/><path d="M86.686 93.25l.005 10.558L18.216 62.66l-.008-10.557z" class="O"/><path d="M18.54 52.1l68.13 40.937v10.478" class="J K P Q R"/><path d="M81.322 99.026l-1.918-1.15V95.64l1.918 1.152z" class="S"/><g class="J K L U"><path d="M86.95 76.393l36.938-19.608.005 10.558L86.958 86.95z"/><path d="M18.474 35.25L55.41 15.642l68.478 41.143-36.938 19.61z"/><path d="M86.95 76.393l.007 10.558L18.48 45.806l-.007-10.558z"/></g><path d="M86.95 76.393l36.938-19.605.005 10.558-36.936 19.608z" class="M"/><path d="M18.474 35.25L55.41 15.642l68.478 41.146L86.95 76.394z" class="N"/><path d="M86.95 76.393l.007 10.56L18.48 45.806l-.007-10.557z" class="O"/><path d="M18.805 35.255l68.133 40.938V86.67" class="J K P Q R"/><path d="M81.587 82.173l-1.918-1.15v-2.24l1.918 1.152zm-37.2-9.208l-11.4-6.85V63.43l11.4 6.848zm-.043 4.06l-11.4-6.85V67.49l11.4 6.848zm10.333 6.17l-8.754-5.26v-2.063l8.754 5.26zm-22.84-17.818l-11.398-6.85v-2.7l11.398 6.847zm-.04 4.06l-11.398-6.85V59.9l11.398 6.85zM59.3 86l-3.233-1.936v-2.05L59.3 83.96zM44.098 55.1l-11.4-6.848v-2.687l11.4 6.85zm-.044 4.06l-11.4-6.85v-2.684l11.4 6.85zm10.334 6.172l-8.754-5.26V58l8.754 5.26zm-22.84-17.82l-11.398-6.85v-2.7l11.398 6.85zm-.04 4.06l-11.398-6.85v-2.686l11.398 6.848zm27.517 16.573L55.8 66.198v-2.05l3.234 1.935z" class="S"/></svg>