<svg xmlns="http://www.w3.org/2000/svg" xmlns:xlink="http://www.w3.org/1999/xlink" viewBox="0 0 128.816 111.766"><style><![CDATA[.I{fill:none}.J{stroke-linejoin:round}.K{fill:#dfe0df}.L{stroke:#fefefe}.M{stroke-width:.437}]]></style><g stroke="#626366" stroke-width="3.124" class="I J"><path d="M83.194 73.986l44.03-23.375.03 36.22-44.034 23.373z"/><path d="M1.562 24.934L45.594 1.562l81.63 49.05-44.03 23.375z"/><path d="M83.194 73.986l.026 36.218-81.633-49.05-.025-36.22z"/></g><path d="M83.194 73.986l44.03-23.375.03 36.22-44.034 23.373z" fill="#416895"/><path d="M1.562 24.934L45.594 1.562l81.63 49.05-44.03 23.375z" fill="#7d91b4"/><path d="M83.194 73.986l.026 36.218-81.633-49.05-.025-36.22z" fill="#607ba4"/><path d="M1.562 25.055L83.194 74.5m0 .092v35.48" stroke-width="1.033" stroke="#dfe0df" stroke-linecap="round" class="I J"/><use xlink:href="#B" class="K"/><use xlink:href="#B" class="I J L M"/><use xlink:href="#C" class="K"/><use xlink:href="#C" class="I J L M"/><use xlink:href="#D" class="K"/><use xlink:href="#D" class="I J L M"/><use xlink:href="#E" class="K"/><use xlink:href="#E" class="I J L M"/><use xlink:href="#F" class="K"/><use xlink:href="#F" class="I J L M"/><use xlink:href="#G" class="K"/><use xlink:href="#G" class="I J L M"/><use xlink:href="#H" class="K"/><use xlink:href="#H" class="I J L M"/><use xlink:href="#I" class="K"/><use xlink:href="#I" class="I J L M"/><use xlink:href="#J" class="K"/><use xlink:href="#J" class="I J L M"/><defs ><path id="B" d="M22.118 49.625c0 .37-.257.512-.57.317L6.26 40.477c-.314-.195-.57-.656-.57-1.025l.01-7.014c.001-.37.258-.51.57-.317l15.282 9.465c.313.194.57.655.57 1.024l-.006 7.015z"/><path id="C" d="M22.107 60.247c-.001.37-.258.512-.57.317L6.252 51.097c-.314-.195-.57-.656-.57-1.025l.007-7.012c.001-.37.258-.512.57-.318l15.284 9.466c.313.194.57.655.57 1.024l-.006 7.015z"/><path id="D" d="M22.096 70.87c0 .37-.257.512-.57.317L6.242 61.72a1.35 1.35 0 0 1-.57-1.025l.006-7.016c0-.37.257-.512.57-.318l15.284 9.468c.313.194.57.655.57 1.024l-.006 7.018z"/><path id="E" d="M40.272 60.87c-.001.37-.258.512-.57.317l-15.286-9.465c-.314-.195-.57-.656-.57-1.025l.008-7.014c.001-.37.258-.512.57-.318L39.7 52.832c.313.194.57.655.57 1.024l-.007 7.014z"/><path id="F" d="M40.262 71.5c0 .37-.257.512-.57.317l-15.286-9.465c-.314-.195-.57-.656-.57-1.025l.007-7.014c.001-.37.258-.51.57-.317l15.284 9.465c.313.194.57.655.57 1.024l-.006 7.015z"/><path id="G" d="M40.252 82.112c-.001.37-.258.512-.57.317l-15.286-9.466c-.314-.195-.57-.656-.57-1.025l.007-7.014c.001-.37.258-.512.57-.318L39.7 74.07c.313.194.57.655.57 1.024l-.007 7.017z"/><path id="H" d="M58.424 72.116c0 .37-.257.512-.57.317L42.57 62.965a1.35 1.35 0 0 1-.571-1.025l.006-7.014c0-.37.257-.512.57-.318l15.286 9.47c.313.194.57.655.57 1.024l-.006 7.015z"/><path id="I" d="M58.414 82.735c-.001.37-.258.512-.57.317l-15.286-9.466c-.314-.195-.57-.656-.57-1.025l.01-7.014c.001-.37.258-.512.57-.318l15.285 9.467a1.34 1.34 0 0 1 .57 1.024l-.008 7.015z"/><path id="J" d="M58.402 93.357c-.001.37-.258.512-.57.317L42.548 84.2c-.313-.195-.57-.656-.57-1.025l.004-7.018c.001-.37.258-.512.57-.318l15.288 9.47a1.34 1.34 0 0 1 .57 1.024l-.01 7.014z"/></defs></svg>