<svg xmlns="http://www.w3.org/2000/svg" viewBox="0 0 59.7 59.7"><circle cx="29.8" cy="29.8" r="29.8" fill="#a8226e"/><g fill="#fff"><path d="M22.8 41.9v-8.2l-7.5-4-7.5 4V42l7.5 4 7.5-4.1zm-11.5-2.1v-4.1l4-2.1 4 2.1v4l-4 2.1-4-2zM51.9 26v-8.3l-7.5-4-7.5 4V26l7.5 4 7.5-4zm-11.5-6.1l4-2.1 4 2.1V24l-4 2.1-4-2.1v-4.1z"/><path d="M40.4 24v11.6l-10.6 5.8-10.5-5.8V24l10.5-5.7z"/></g><path d="M29.4 29.2L21 25.4v9.2l8.4 4.6zm.4-.7l8.2-3.8-8.2-4.5-8.2 4.5zm8.8 6.1v-9.2l-8.3 3.8v9.9l8.3-4.5z" fill="#2d3f4a"/><path d="M21 25.4l8.4 3.8v10L21 34.6zm9.3 3.8l8.3-3.8v9.2l-8.3 4.6zm-8.7-4.5l8.2-4.4 8.2 4.4-8.2 3.8z" fill="#a8226e"/></svg>