<svg xmlns="http://www.w3.org/2000/svg" viewBox="0 0 71.7 66.4"><circle cx="32.5" cy="33.9" r="32.5" fill="#e8bd1f"/><path d="M40.6 22.2h-2.8c0 2-.4 4-1.2 5.8l-8.8-4.2c.9-3-.8-6.1-3.8-6.9-1.5-.4-3.1-.2-4.4.5l-2.1-2.1-2 2 2.1 2.1c-1.6 2.7-.7 6.1 2 7.6a5.22 5.22 0 0 0 4.4.5l12.1 25 1.3-.6-6.6-13.7a18.35 18.35 0 0 0 7.8-7.8L52.3 37l.6-1.3-13.7-6.6c.9-2.1 1.4-4.5 1.4-6.9zm-19.1-1a1.52 1.52 0 0 1 2 0 1.52 1.52 0 0 1 0 2c-.5.5-1.4.5-1.9 0-.7-.6-.7-1.5-.1-2zm8.1 14.6L25.3 27c.8-.5 1.5-1.1 1.9-1.9l8.8 4.3c-1.4 2.6-3.6 4.9-6.4 6.4z" fill="#fff"/><path d="M40.6 14.6c-.2-.2-.6-.1-.7-.5.2-.1.4-.2.6-.1 1.1.2 2.2.2 3.3.2h21.4c1.8.1 3.6 0 5.4-.2.3.1.3.2.1.4s-.4.1-.6.2H40.6z" fill="#fcd5c3"/><path d="M71.5 13.2c-.1.4-.5.6-.8.9-.9.2-1.8.3-2.7.3H42.5c-.9 0-1.8 0-2.6-.3-.1-.2-.4-.3-.5-.6s-.3-.5-.4-.7c-.1-.4-.1-.8-.1-1.3V2.9c0-.4 0-.8.2-1.2.3-.5.7-1 1.2-1.3h.1c.4-.1.9-.1 1.3-.1H69c.5 0 .9 0 1.3.1.3 0 .5.2.7.3.2.3.6.6.6 1v11.1c0 .1 0 .3-.1.4z" fill="#f16922"/><path d="M70.3.3h-30c.3-.2.7-.3 1.1-.3h27.7c.5 0 .9.1 1.2.3z" fill="#f27236"/><g fill="#f26f2f"><path d="M39 1.6v11.1c-.2-.3-.3-.7-.3-1.1V2.8c0-.4.1-.8.3-1.2z"/><path d="M40.2.3L39 1.6c.1-.6.6-1.1 1.2-1.3zM39 12.8c.3.1.5.4.5.8-.3-.2-.5-.5-.5-.8z"/></g><path d="M56.1 3.3c3.3 1 3.2 5.8 1.3 7.3-.3.2-.5.4-.8.5-.7.4-1.5.6-2.3.6-.8.1-1.7 0-2.5 0-.4.1-.8-.2-.8-.6V3.7c0-.4.2-.8.6-.8 1.5-.2 3.1-.1 4.5.4zm7.3 5.3c-.4-.4-.5.1-.8.3-.2.6-.2 1.3-.1 1.9 0 .9-.1 1-1.1 1s-1.1-.1-1.1-1V4c0-.4 0-.9.4-.9.5-.2 1.1-.1 1.5.1.2.1.2.4.2.6v1.7c0 .2-.1.4.2.5s.3-.1.4-.2.2-.3.4-.4c.5-.4.9-.8 1.3-1.3.5-.8 1.4-1.2 2.3-1 .2 0 .5-.1.6.1s-.1.4-.3.6l-2.4 2.6c-.6.4-.3.8 0 1.2.3.3.6.6.7 1l1.2 1.7c.2.1.3.3.3.4s.1.2.2.3c.3.4.2.5-.3.5-.9.2-1.9-.3-2.3-1.1l-.7-.8c-.2-.4-.4-.7-.6-1zm-16.3-.2L45 7.8a2.16 2.16 0 0 1-1.8-2.5c0-1.2.9-2.1 2-2.3 1.3-.3 2.6 0 3.8.7.5.3.3.6 0 .9s-.3 1-1 .6c-.6-.4-1.2-.6-1.9-.5-.4 0-.8.2-.9.6-.1.5.2.8.6.9l1.9.6c1 .2 1.7 1 1.9 2 .1 0 .1 0 .1.1s0 0-.1 0v.7c0 .5-.2 1.1-.6 1.5-1.4 1.1-3.3 1.2-4.8.2l-.4-.3c-.9-.6-.9-.6-.3-1.4.4-.5.7-.6 1.1-.1.6.5 1.3.7 2 .7.4 0 .8-.1.9-.6.1-.6 0-1-.4-1.2z" fill="#fefdfd"/><path d="M56.1 3.3c-1.4-.3-2.9-.4-4.4-.3-.5 0-.6.2-.6.6v7.3c0 .3 0 .6.5.6 1.7 0 3.4.2 5-.5-.6.5-1.4.8-2.3.7-.9.1-1.9 0-2.8 0-.2 0-.5-.1-.6-.3-.1-.4-.1-.8-.1-1.2V3.7c0-.2 0-.5.1-.7.2-.3.6-.5 1-.5 1.3-.1 2.6 0 3.9.3.2.2.3.3.3.5z" fill="#f26d2e"/><path d="M63.4 5.3c-.3.5-.6.9-1.1 1.2 0-1-.1-1.8 0-2.7s-.4-.8-1-.8-.9.1-.9.8v7c0 .6.2.8.8.7s1.1.2 1.1-.7V9.5c0-.3 0-.6.3-.7v1.9a1.69 1.69 0 0 1-.3 1c-.6.1-1.2.1-1.8 0l-.3-.1c-.1-.2-.2-.4-.2-.6V3.7c0-.2 0-.5.2-.6.6-.2 1.3-.2 1.9-.1.4 0 .5.4.5.8v2.1c.4-.2.5-.6.8-.6z" fill="#f37438"/><path d="M60.2 3v8.6c-.4 0-.3-.4-.3-.6V3.7c0-.3 0-.6.3-.7z" fill="#f16522"/><path d="M71.5 1.8c.2.2.2.4.2.6v9.7c0 .2.1.5-.2.6V1.8z" fill="#f16322"/><path d="M44.1 11.1c.9.4 1.8.6 2.8.5.7-.1 1.4-.3 2-.8 0-.1.1-.1.2 0-1.3 1.5-4.1 1.3-5 .3z" fill="#f26c2c"/><path d="M50.9 3.1v8.4c-.1-.1-.2-.2-.2-.4v-8c0 .1.1 0 .2 0z" fill="#f16422"/><path d="M47.1 8.4a.65.65 0 0 1 .6.6v.1c0 .4-.3.8-.7.9-.9.2-1.9 0-2.5-.7.5.3 1.1.5 1.7.6.4 0 .9 0 1.1-.4s.1-.7-.2-1.1z" fill="#fbd0bd"/><path d="M64.9 10.4c.2 0 .3.2.4.3a1.76 1.76 0 0 0 1.9.7c.6-.2-.2-.5 0-.8.1.2.3.3.4.5s.2.4-.1.5c-1 .4-2.2-.1-2.6-1.2z" fill="#fbd2bf"/><path d="M66.9 10.2c-.5-.4-1-1-1.2-1.7a6.57 6.57 0 0 1 1.2 1.7z" fill="#fbd1be"/><path d="M49.1 10.8h-.2c.3-.4.5-.9.6-1.4a1.69 1.69 0 0 1-.4 1.4z" fill="#f37338"/><path d="M64.9 7.5c-.7-.6-.7-.7 0-1.2-.4.4-.1.8 0 1.2z" fill="#fcd9ca"/><path d="M60.5 11.8h1.8c-.6.2-1.2.2-1.8 0zm2.9-3.2c.3.3.6.6.8 1-.5-.2-.8-.6-.8-1z" fill="#f26f30"/><path d="M49.5 8.8v-.1c0-.2 0-.4.2-.6.2.2.1.5-.2.7zM59 6.4c-.1-.2-.1-.4 0-.5.1.1 0 .2 0 .5z" fill="#f16222"/><path d="M55.5 4.9c.3.1.6.3.8.6.5.9.6 2 .3 3-.2.3-.3.8-.8.9-.3.1-.7.2-1.1.2-.6-.1-1.1.1-1.7-.1l-.1-4.3c0-.4.2-.5.6-.5.8 0 1.4.1 2 .2z" fill="#f16923"/><path d="M55.5 4.9h-1.9c-.3 0-.5 0-.5.4v4.2c0 2.1.1.1.1.1h.2c.3.1.6.1.9 0 .1 0 .3 0 .4.1.3-.1.7-.2 1.1-.1-.8.4-1.7.6-2.5.4-.3 0-.3-.3-.3-.5V5.4c0-.4.2-.6.6-.6.6-.2 1.3-.1 1.9.1z" fill="#f3753b"/><path d="M56.6 8.5c.1-1 0-2-.3-3 .7.9.8 2.1.3 3z" fill="#f27235"/><path d="M53.4 9.6h-.1a1.95 1.95 0 0 1 1.5 0h-.4c-.4.1-.7.1-1 0z" fill="#f16322"/><path d="M53.4 9.6h.9c-.2.2-.6.2-.9 0z" fill="#f16923"/></svg>