<svg xmlns="http://www.w3.org/2000/svg" width="54.8" height="54.8"><circle cx="27.4" cy="27.4" r="27.4" fill="#90c740"/><path d="M28.2 15.3l-3.3-3.5c-.3-.3-.3-.5 0-.8l3.5-3.5c-.2 1.4.3 1.7 1.7 2C37 11.1 41.9 16.7 42.5 24c.6 6.9-3.3 13.4-9.9 16.1-1.7.8-3.5 1.3-5.4 1.3H8.8v-.3c.5-.8 1.7-1.1 1.6-2-.2-.8-1.1-1.3-1.9-2h17.8c5.8 0 10.5-3.8 11.6-9.6 1.2-5.3-1.8-10.6-6.8-13-.5-.2-.9-.3-1.3-.5-1.1-.5-1.6-.2-1.3 1.1-.1 0-.3.2-.3.2zm-3.9-6c-.3.9-1.7 1.3-1.4 2.2.3.8 1.1 1.3 1.9 2-4.9 1.3-8.3 3.9-9.4 9-1.1 4.9.5 9 4.6 12.4h-5.8c-.5 0-.6-.5-.9-.8-3.5-5.2-3.5-12.4 0-17.6 2.5-4 6.1-6.4 11-7.2zm20.3 26.1c.9 1.1 2 2 3 3.1.3.3.6.5.2.9l-3.5 3.5c.2-1.6-.6-1.6-1.7-1.6h-7.7c.5-.8 1.4-.9 2-1.6.5-.5 1.1-.8 1.6-1.3 1.1-1.4 2.5-1.9 4.3-1.7 1.1.2 1.7-.2 1.4-1.4.2.1.4.1.4.1z" fill="#fff"/></svg>