<svg xmlns="http://www.w3.org/2000/svg" width="54.6" height="54.6"><circle cx="27.3" cy="27.3" r="27.3" fill="#90c740"/><path stroke-miterlimit="10" d="M19.8 26.1l6.1 5.5 9.7-8.6" fill="none" stroke="#fff" stroke-width="1.305"/><path d="M23.7 45.8h-8.6c-1.3 0-2.2.9-2.2 2.2v2.2l12.9.2v-2.2c.1-1.4-.9-2.4-2.1-2.4zm-4.4-2.2c-3 0-5.5-2.5-5.5-5.5s2.5-5.5 5.5-5.5 5.5 2.5 5.5 5.5-2.4 5.5-5.5 5.5zm0-10.3a4.91 4.91 0 0 0-4.9 4.9 4.91 4.91 0 0 0 4.9 4.9 4.91 4.91 0 0 0 4.9-4.9c-.1-2.7-2.2-4.9-4.9-4.9zm21 12.5h-8.6c-1.3 0-2.2.9-2.2 2.2v2.2l12.9.2v-2.2c.1-1.4-.8-2.4-2.1-2.4zm-4.4-2.2c-3 0-5.5-2.5-5.5-5.5s2.5-5.5 5.5-5.5 5.5 2.5 5.5 5.5-2.4 5.5-5.5 5.5zm0-10.3a4.91 4.91 0 0 0-4.9 4.9 4.91 4.91 0 0 0 4.9 4.9 4.91 4.91 0 0 0 4.9-4.9 4.91 4.91 0 0 0-4.9-4.9zM32 16.5h-8.6c-1.3 0-2.2.9-2.2 2.2v2.2l12.9.2v-2.2c.1-1.4-.9-2.4-2.1-2.4zm-4.4-2.2c-3 0-5.5-2.5-5.5-5.5s2.5-5.5 5.5-5.5 5.5 2.5 5.5 5.5-2.4 5.5-5.5 5.5zm0-10.3a4.91 4.91 0 0 0-4.9 4.9 4.91 4.91 0 0 0 4.9 4.9 4.91 4.91 0 0 0 4.9-4.9A4.91 4.91 0 0 0 27.6 4z" fill="#fff"/></svg>