<svg xmlns="http://www.w3.org/2000/svg" viewBox="0 0 65.8 65.5"><ellipse cx="32.9" cy="32.8" rx="32.9" ry="32.8" fill="#e42433"/><g fill="#fff"><path d="M43.6 10.6c.7.2 1.4.6 1.9 1.1.5.6.7 1.3.7 2v18c0 9 0 .1 0 0-.3-.5-.7-1-1.1-1.5-.2-.2-.5-.4-.8-.5s-.4-.3-.4-.5V14c0-.9-.3-1.1-1.1-1.1H20.1c-.9 0-1.2.3-1.2 1.2v30.1c0 .9.3 1.2 1.2 1.2h6.1a1.69 1.69 0 0 1 1 .3 4.67 4.67 0 0 0 1 .5l-1.4 1.4c-.1.1-.2.1-.3.1h-6.8c-1.5 0-2.8-1.1-3-2.6 0-.1 0-.2-.1-.2V13.5c.2-.5.4-1.1.7-1.6.5-.7 1.2-1.1 2-1.3h24.3z"/><path d="M43 49.1l-1.8-.3c-.5-.1-.9.1-1.3.4l-1.2 1.3c-.4.6-1.2.6-1.8.2-.1-.1-.2-.1-.2-.2l-1.2-1.3c-.3-.4-.8-.5-1.3-.4l-1.6.3c-.7.2-1.4-.2-1.7-.9 0-.1-.1-.3-.1-.4l-.3-1.6c-.1-.4-.3-.8-.7-1l-1.5-.8c-.7-.2-1.1-1-.8-1.6 0-.1.1-.2.2-.4.2-.5.5-1 .7-1.4a1.36 1.36 0 0 0 0-1.5c-.3-.5-.5-.9-.7-1.4-.4-.6-.3-1.4.3-1.8.1-.1.2-.1.4-.2l1.4-.7c.5-.2.8-.6.8-1.1l.3-1.8c.1-.7.7-1.2 1.4-1.1h.1l1.7.3c.5.1 1-.1 1.4-.4l1.2-1.2c.4-.5 1.2-.6 1.8-.2l1.4 1.4c.3.4.9.6 1.4.4l1.7-.3c.7-.2 1.4.3 1.5 1v.1l.3 1.8c0 .5.4.9.8 1.1l1.6.8c.6.3 1 1 .7 1.6 0 .1-.1.1-.1.2-.3.5-.5 1-.8 1.5-.3.4-.3 1 0 1.4.3.5.5 1 .8 1.5.4.6.2 1.4-.4 1.7-.1 0-.1.1-.2.1-.5.3-1 .5-1.6.8-.5.2-.8.6-.8 1.1l-.3 1.8c-.1.8-.7 1.3-1.5 1.2zm-5.3-1.5a7.6 7.6 0 1 0 0-15.2 7.6 7.6 0 1 0 0 15.2zm-6.3-29.5h8.1c.2 0 .5 0 .7.1.5.2.7.7.7 1.2-.1.5-.6.9-1.2.9H23.1a1.11 1.11 0 0 1-1.1-1.1c0-.6.5-1.1 1-1.1h8.4zm0 7.7h-8.1c-.6.1-1.2-.2-1.3-.8s.2-1.2.8-1.3h16.7c.2 0 .4 0 .6.1.6.2.9.8.7 1.3-.1.5-.6.8-1.1.8l-8.3-.1zm14.1 21.1l1.9 1.8 1.6 1.6c.2.2.3.5.3.8s-.3.5-.7.5l-1.8.3c-.2 0-.4.2-.4.4l-.3 1.8c-.1.6-.7.9-1.2.4L40.4 50v-.1c.2-.4.6-.5 1-.4l1.6.3c1.1.2 2.2-.6 2.4-1.7 0-.3 0-.7.1-1.2zm-15.6.1c.1.4.1.8.2 1.1.2 1.1 1.2 1.9 2.4 1.7l1.6-.3c.4-.1.8 0 1 .4-.1.1-.2.2-.2.3l-4.2 4.2c-.2.3-.5.5-.9.3s-.5-.4-.5-.8l-.3-1.7c0-.2-.2-.3-.3-.3l-1.9-.3c-.4 0-.6-.4-.6-.7 0-.2.1-.3.2-.4l3.5-3.5c-.1 0-.1 0 0 0z"/></g></svg>