<svg xmlns="http://www.w3.org/2000/svg" width="55" height="55"><circle cx="27.5" cy="27.5" r="27.5" fill="#90c740"/><path d="M45.9 38.5l-.3 1.4c-.5 1.9-1.5 3.4-3.1 4.5-.4.3-.8.5-1.2.8V30.6c.7.3 1.3.8 1.9 1.3 1.1-4.5-.1-10.9-5-15.3a16.33 16.33 0 0 0-18-2.5C13.3 17.5 10 25 11.5 31.9c.6-.4 1.3-.9 2-1.3v14.7c-.4-.2-.7-.4-1-.6-1.5-1.1-2.6-2.5-3.2-4.2s-.6-3.4.1-5.1c.2-.4.4-.8.5-1.3 0-.1.1-.3 0-.4-.2-.9-.5-1.7-.7-2.6-.4-2.1-.5-4.1-.2-6.2.4-3 1.5-5.7 3.3-8.1A18.69 18.69 0 0 1 19 11c2.2-1.1 4.6-1.8 7-1.9.1 0 .2 0 .3-.1h2c.1 0 .2 0 .3.1 1.4.1 2.7.3 4 .7 2.6.8 4.9 2.1 7 3.9 1.5 1.3 2.8 2.9 3.8 4.7 1.1 2 1.9 4.2 2.2 6.4.1.6.1 1.1.2 1.7v2.2c-.1 1.7-.5 3.4-1 5v.3c.5.9.8 1.8.9 2.8 0 .2.1.3.1.5.1.3.1.8.1 1.2zm-27.8-8.7V46c-.7 0-1.4-.1-2.1-.1-.1 0-.1-.1-.1-.2V30.2c0-.3.1-.4.4-.4h1.8zm18.6 16.1V29.7l2.1.1c.1 0 .1.1.2.2v15.5c0 .3-.1.4-.4.4h-1.9z" fill="#fff"/></svg>