<svg xmlns="http://www.w3.org/2000/svg" viewBox="0 0 65 65"><circle transform="matrix(.7071 -.7071 .7071 .7071 -13.4619 32.5)" cx="32.5" cy="32.5" r="32.5" fill="#8cc340"/><path d="M32.2 7.5h.6c.2.1.5.2.7.3l1.8 1 6.7 3.8c.6.3.9.9.9 1.5v1.8c0 .1.1.3.2.3l8.4 4.8a1.78 1.78 0 0 1 1 1.6v9.8c0 .1.1.2.2.3l1.4.8c.6.3 1 .9.9 1.6v9.7c0 .7-.3 1.3-.9 1.6l-8.6 4.9c-.5.3-1.1.3-1.6 0l-1.6-.9c-.1-.1-.3-.1-.4 0l-5.3 3-3.4 2H32l-.3-.2-8.3-4.8c-.1-.1-.2-.1-.3 0l-1.6.9c-.5.3-1.1.3-1.6 0l-8.7-5c-.5-.3-.8-.8-.8-1.4v-10c0-.5.3-1 .8-1.3s1-.6 1.5-.8c.1-.1.2-.2.2-.4V22.2c.1-.5.4-1 .9-1.2l8.5-4.8c.2-.1.2-.2.2-.4v-1.7c0-.7.4-1.4 1-1.6l6-3.4c.6-.5 1.7-1 2.7-1.6zM15.7 31l.2-.1 3.7-2.1a1.72 1.72 0 0 1 1.7 0l8.6 4.9c.6.3.9.9.9 1.5V45c0 .6-.3 1.2-.9 1.5l-3.5 2-.2.1.1.1 6.1 3.5c.1.1.2.1.3 0l6-3.4.2-.1-.2-.1-3.5-2c-.6-.3-.9-.9-.9-1.6v-9.7c0-.7.3-1.3.9-1.6l8.5-4.8a1.65 1.65 0 0 1 1.9 0l3.6 2.1.2.1v-7.3c0-.1-.1-.3-.2-.3L43 19.9l-.2-.1v4.1c0 .6-.3 1.2-.9 1.5l-8.5 4.9c-.5.3-1.2.3-1.8 0l-8.5-4.9c-.6-.3-.9-.9-.9-1.5v-4.2h-.1l-6.2 3.5c-.1.1-.2.2-.1.3V31zm9.6-14.3V23c0 .1.1.3.2.3l5.3 3 .2.1v-6.3c0-.1-.1-.2-.2-.3l-4.4-2.5-1.1-.6zm12 21.1v6.3c0 .1.1.3.2.3l5.3 3 .2.1v-6.3c0-.1-.1-.2-.2-.3l-4.4-2.5-1.1-.6zm-24 0s0 .1 0 0v6.4c0 .1.1.2.1.2l5.4 3.1.2.1v-6.2c0-.1-.1-.3-.2-.3l-5.3-3-.2-.3zm20.8-11.4l.2-.1 5.3-3c.1-.1.2-.2.2-.3v-6.3l-.2.1-5.3 3c-.1.1-.2.2-.2.3v6.3zm-6.4 11.4l-.2.1-5.3 3c-.1.1-.2.2-.2.3v6.3l.2-.1 5.4-3.1c.1-.1.2-.2.2-.3v-6.2zm18.4 9.7l.2-.1 5.3-3c.1-.1.2-.2.2-.3v-6.3l-.2.1-5.3 3c-.1.1-.2.2-.2.3v6.3zM14.9 35.1l5.5 3.2h.3l5.3-3 .2-.1-.1-.2-5.4-3.1c-.1-.1-.2-.1-.3 0l-4.7 2.7-.8.5zm12-21.1l5.5 3.2c.1.1.2.1.3 0l5.3-3 .2-.1-.2-.1-5.4-3.1c-.1-.1-.2-.1-.3 0L28.7 13l-1.8 1zm23.3 21.1l-5.5-3.2c-.1-.1-.2-.1-.3 0L39 35l-.1.1.1.1 5.4 3.1c.1.1.2.1.3 0l3.8-2.2 1.7-1z" fill="#fff"/></svg>