<svg xmlns="http://www.w3.org/2000/svg" viewBox="0 0 66.1 65.9"><g fill="#fff"><circle cx="33" cy="33" r="32" stroke="#787778" stroke-width="2"/><path d="M12 12h42.2v42.3H12V12zm32 36.6c.1-.2.1-.3.2-.5l7.1-15.4c.1-.3.4-.4.6-.4 1 .1 1.9-.6 1.9-1.6 0-.5-.1-.9-.4-1.3-.4-.6-1.2-.9-1.9-.6-.2.1-.5 0-.6-.2L40.7 14.2l-8.8.8-8.5.8c-.4 0-.6 0-.7-.4-.3-.7-1-1.1-1.8-1s-1.4.7-1.6 1.5c-.1.7.2 1.5.8 1.9l-7.5 16.3L23 48.9l-.2.3c-.4.6-.4 1.4 0 2 .5.8 1.7 1 2.5.5.4-.3.7-.7.7-1.1.1-.4.3-.4.6-.4l5.1-.5L44 48.6z"/></g><path d="M44 48.6l-17.2 1.7c-.3 0-.6 0-.6.4a1.74 1.74 0 0 1-2.1 1.4c-.5-.1-.9-.4-1.1-.7-.4-.6-.4-1.4 0-2l.2-.3-10.5-14.9 7.5-16.3c-.6-.4-1-1.2-.8-1.9.1-.8.8-1.4 1.6-1.5s1.5.3 1.8 1c.2.4.3.4.7.4l8.5-.8 8.8-.8 10.1 14.3c.1.2.4.3.6.2.9-.3 1.9.2 2.2 1.2.1.4.1.9-.1 1.3-.3.7-1 1.1-1.8 1-.3-.1-.6.1-.6.4l-7.1 15.4c0 .1-.1.3-.1.5zm-5-14.5v-.2l-1.1-5.6c-.1-.2-.2-.4-.4-.5l-5.9-2.1c-.2-.1-.4 0-.6.1l-4.3 3.7c-.1.2-.2.4-.2.6l1.2 6c.1.2.2.4.4.5l5.5 1.9c.2.1.4 0 .6-.1l4.6-4c.1-.1.2-.2.2-.3zm-18.1-6.9h-.1l-7.6 7 8.7 4.9c-.1-.4-.1-.7-.2-1l-.3-1.8c0-.1-.2-.2-.3-.2-.9-.1-1.6-.8-1.7-1.7 0-.8.5-1.6 1.3-1.9a.55.55 0 0 0 .3-.5v-1.9c-.1-1-.1-2-.1-2.9zM34 44.8l9.6 3.4.3-10.2-2 1.8c.5 1.2.4 2-.4 2.5-.8.6-2 .5-2.6-.3L34 44.8zm-20.2-10v.3l9.3 13.2a1.38 1.38 0 0 0 .4.3c.1-.2.1-.3.1-.5l-1.4-7.5c0-.8-.5-1.5-1.3-1.8-.4-.2-.7-.4-1-.6l-6.1-3.4zm28.9 13.5l-.1-.1-8.8-3.1a.45.45 0 0 0-.5 0l-7.1 4.1c-.1.1-.1.3-.2.4a.76.76 0 0 0 .4.2c.4 0 .8-.1 1.2-.1l12.2-1.1 2.9-.3zM32.3 19.2v.1c.7.2 1.5.5 2.2.6.2 0 .4-.1.5-.2.5-.7 1.4-.9 2.2-.5a1.82 1.82 0 0 1 1 2.1c-.1.2 0 .5.2.6l3.8 2.4c.1.1.2.1.4.2l-2.2-9.7-8.1 4.4zm-18.8 14c.1 0 .2-.1.3-.2l6.8-6.3a1.08 1.08 0 0 0 .3-.7v-7.8c0-.1-.1-.2-.2-.3 0 0-.2.1-.3.2s-.1.2-.1.3l-6.5 14.2-.3.6zm30.5 14c.1-.1.2-.2.2-.3l6.7-14.5v-.5c-.2 0-.3.1-.5.2l-5 4.4c-.9.6-1.3 1.7-1.3 2.7l-.1 8zm-2.8-31.7v.3l2 8.6c.1.2.2.4.5.6l6.6 4.1c.1.1.2.1.3.2h.3V29c0-.1-.1-.2-.2-.3l-9-12.7c-.3-.2-.4-.3-.5-.5zm-1.6-.8h-.4l-3.7.3-9.6 1-2.7.3c-.1 0-.2.1-.3.2.1.1.2.1.3.2.1 0 .2.1.3.1l7.8 2.3c.3.1.6 0 .9-.1a240.63 240.63 0 0 1 7-3.8c0-.2.1-.4.4-.5zM28.5 42.8v-.3l-1.1-5.7c-.1-.2-.2-.4-.4-.5L23.1 35c-.7-.2-.7.8-1.3.9-.1 0-.1.2-.1.3v.1l.5 2.7c.1.2.2.4.4.5l2.2 1.3 3.7 2zm.7.3l4.2 1.5c.2 0 .4 0 .5-.2l3.9-2.2c.6-.3 1-.6.8-1.4-.1-.3-.1-.4-.4-.5L34.5 39c-.2 0-.5 0-.7.2L30 42.4l-.8.7zm-4.4-19.7l-3.2 2.9c-.2.2-.3.5-.3.8v4c0 .7-.1 1.3.8 1.5a.37.37 0 0 0 .6 0l3-2.7c.1-.1.2-.3.2-.5l-1.1-6zM38 22c-.2.2-.5.3-.7.5-.3.1-.3.2-.3.5l.8 4.2c.1.2.2.4.4.5l3 1.1 2.5.9v-.2l-1-4.2c0-.1-.1-.2-.2-.3L38 22zm-3.3-1.6l-2.5-.7c-.3-.1-.6 0-.8.1l-5.4 3c-.1.1-.3.2-.5.3.2.1.4.2.5.2l4.2 1.5c.7.4 1.6.2 2.1-.4.9-.9 1.9-1.6 2.7-2.4l-.3-1.6zm9.3 10l-4.3 3.7c-.3.2-.4.6-.3.9l.6 3.3c.1.5.2.9.8.8.2 0 .3.1.5.2.3.2.4.1.6-.1.5-.5 1.1-1 1.7-1.5.2-.2.3-.4.3-.6l.1-5.3v-1.4zm-21.6 9.4v.3l1.5 7.9c.1.7.6.4 1 .6s.4-.1.5-.3l2.9-4.6c.1-.1.1-.2.2-.4l-6.1-3.5zm8.8-20.4c-.1 0-.1-.1-.2-.1L23.1 17c-.5-.2-.5.4-.8.6-.1 0-.1.4 0 .5l2.5 4.5c.1.1.1.2.2.3l6.2-3.5zM44.3 37c.1-.1.3-.2.4-.3l5.4-4.8c.5-.4.2-.7.1-1a.55.55 0 0 0-.5-.3l-5.4-.3V37zm-16.6-.5l1.2 6.2 4.8-4.1-6-2.1zm10-9c-.2-1.6-.6-3.1-.9-4.6 0-.1-.1-.2-.2-.2-.5-.1-1-.3-1.5-.4l-3.5 3.1 6.1 2.1zm-11.3 2l4.7-4-5.9-2.1 1.2 6.1zM39.2 34l4.7-4-5.9-2.1 1.2 6.1zm-13.1-4l-3.4 2.9c-.1.1-.1.2 0 .3.1.5.2 1 .4 1.5l4.3 1.5-1.3-6.2zm12.5 10.2L40 39l-.8-4.4-4.8 4.1 4.2 1.5zM21.3 26l.1.1 3.1-2.9c.1-.1 0-.4 0-.5l-2.4-4.3c-.1-.2-.2-.5-.5-.4-.2.1-.3.4-.3.6V26zm11.8 18.8l-3.8-1.3c-.3-.1-.5 0-.7.3a116.53 116.53 0 0 0-2.9 4.6c-.1.2-.1.4-.1.6.2 0 .4-.1.6-.1l6-3.4.9-.7zm10.2-19.5l.9 3.9c0 .4.3.6.7.6l4.8.3c.2 0 .4-.2.5-.2-.1-.2-.2-.4-.3-.5l-6.2-3.8-.4-.3z"/><g fill="#fff"><path d="M39 34.1c-.1.1-.1.2-.2.3l-4.6 4c-.2.1-.4.1-.6.1l-5.5-1.9c-.2-.1-.3-.3-.4-.5l-1.2-6c0-.2 0-.4.2-.6l4.3-3.7c.2-.1.4-.2.6-.1l5.9 2.1c.2.1.4.2.4.5l1.1 5.6v.2zm-18.1-6.9v4.7a.55.55 0 0 1-.3.5c-.8.3-1.3 1-1.3 1.9.1.9.8 1.6 1.7 1.7.1 0 .3.1.3.2l.3 1.8c0 .3.1.6.2 1l-8.7-4.9 7.6-7 .2.1zM34 44.8l4.8-2.8c.6.8 1.8 1 2.6.4.8-.5.9-1.4.4-2.5l2-1.8-.2 10.1-9.6-3.4zm-20.2-10l6.1 3.5 1 .6c.7.3 1.2.9 1.3 1.7l1.4 7.5c0 .2 0 .3-.1.5-.1-.1-.3-.2-.4-.3l-9.3-13.2v-.3z"/><path d="M42.7 48.3l-2.9.3-12.2 1.1c-.4 0-.8.1-1.2.1a.76.76 0 0 1-.4-.2c.1-.1.1-.3.2-.4l7.1-4.1a.45.45 0 0 1 .5 0l8.8 3.1.1.1zM32.3 19.2l8.2-4.5 2.2 9.7a.76.76 0 0 1-.4-.2l-3.8-2.4c-.2-.1-.3-.4-.2-.6a1.82 1.82 0 0 0-1-2.1c-.8-.4-1.7-.1-2.2.5-.1.2-.3.2-.5.2-.8 0-1.6-.3-2.3-.6zm-18.8 14c.1-.3.2-.4.2-.5l6.5-14.2c0-.1.1-.2.1-.3.1-.1.2-.2.3-.2.1.1.2.2.2.3v7.8c0 .3-.1.5-.3.7l-6.8 6.3s-.1.1-.2.1zm30.5 14l.1-7.9c-.1-1.1.4-2.1 1.3-2.7l5-4.4c.1-.1.3-.2.5-.2v.5L44.2 47c0 .1-.1.2-.1.3l-.1-.1zm-2.8-31.7c.2.2.3.4.4.5l9 12.7c.1.1.1.2.2.3v.3h-.3c-.1 0-.2-.1-.3-.2L43.7 25c-.2-.1-.4-.3-.5-.6l-2-8.6c-.1-.1-.1-.2 0-.3zm-1.6-.8c-.2.1-.3.2-.5.3l-7 3.8c-.3.1-.6.2-.9.1l-7.8-2.3c-.1 0-.2 0-.3-.1s-.2-.1-.3-.2c.1-.1.2-.2.3-.2l2.7-.3 9.6-.9 3.7-.3a.9.9 0 0 0 .5.1zM28.5 42.8l-3.7-2.1-2.2-1.3c-.2-.1-.3-.3-.4-.5l-.5-2.7v-.1l.1-.3c.6-.1.6-1.1 1.3-.9l3.9 1.3c.2.1.3.3.4.5l1.1 5.7v.4zm.7.3l.8-.7 3.8-3.2c.2-.2.4-.2.7-.2l3.7 1.3c.3.1.3.3.4.5.2.8-.2 1.1-.8 1.4l-3.9 2.2c-.2.1-.3.2-.5.2l-4.2-1.5z"/><path d="M24.8 23.4l1.2 6c0 .2-.1.4-.2.5l-3 2.7a.37.37 0 0 1-.6 0c-.9-.2-.8-.8-.8-1.5v-4c0-.3.1-.6.3-.8l3.1-2.9zM38 22l4.6 2.9c.1.1.2.2.2.3l1 4.2v.2l-2.5-.9-3-1.1c-.2-.1-.4-.3-.4-.5l-.8-4.2c0-.3 0-.4.3-.5.2-.1.4-.3.6-.4zm-3.3-1.6l.4 1.6c-.9.8-1.9 1.5-2.7 2.4-.5.6-1.4.8-2.1.4-1.4-.6-2.8-1-4.2-1.5-.2-.1-.3-.1-.5-.2.2-.1.3-.2.5-.3l5.4-3c.3-.1.5-.2.8-.1.7.1 1.6.5 2.4.7zm9.3 10v1.4l-.1 5.3c0 .2-.1.5-.3.6-.5.5-1.1 1-1.7 1.5-.2.2-.4.3-.6.1-.1-.1-.3-.2-.5-.2-.6.1-.7-.3-.8-.8l-.6-3.3c-.1-.4 0-.7.3-.9l4.3-3.7zm-21.6 9.4l6.1 3.4c-.1.2-.1.3-.2.4l-2.9 4.6c-.1.2-.2.5-.5.3s-.8.1-1-.6L22.4 40v-.2zm8.8-20.4l-6.1 3.4c-.1-.1-.1-.2-.2-.3L22.4 18c-.1-.1-.1-.4 0-.5.3-.2.2-.7.8-.6l7.8 2.3c0 .1.1.2.2.2zM44.4 37v-6.8l5.4.3a.55.55 0 0 1 .5.3c.1.3.4.6-.1 1l-5.4 4.8-.4.4zm-16.6-.4l6 2.1-4.8 4.1-1.2-6.2z"/><path d="M37.8 27.5l-6.2-2.2 3.5-3.1a11.31 11.31 0 0 0 1.5.4c.1 0 .2.1.2.2.4 1.5.7 3 1 4.7zm-11.4 2l-1.2-6.2 5.9 2.1-4.7 4.1zm12.8 4.6L38 28l5.8 2.1-4.6 4zM26.1 30l1.2 6.3-4.3-1.6c-.2-.6-.3-1.1-.4-1.5v-.3l3.5-2.9zm12.5 10.2l-4.2-1.5 4.8-4.1.8 4.4-1.4 1.2zM21.3 26v-7.4c0-.2.1-.4.3-.6.3-.2.4.2.5.4l2.4 4.3c.1.1.1.4 0 .5-1 1-2.1 1.9-3.2 2.8zm11.8 18.8l-1 .6-6 3.4c-.1.1-.3.2-.5.2 0-.2 0-.4.1-.6l2.9-4.6c.2-.3.3-.4.7-.3 1.2.5 2.5.9 3.8 1.3zm10.2-19.5l.5.3 6.1 3.8c.2.1.2.3.3.5-.2.1-.4.2-.5.2l-4.8-.3c-.4 0-.7-.2-.7-.6-.2-1.2-.5-2.5-.9-3.9z"/></g></svg>