<svg xmlns="http://www.w3.org/2000/svg" width="55" height="55"><circle cx="27.5" cy="27.5" r="27.5" fill="#d91f2f" fill-rule="evenodd"/><path d="M15.2 21.8c-.1-.9-.1-2.3.4-4 .5-1.9 1.4-3.1 1.9-3.8s1.6-2.2 3.7-3.4c1.7-.9 3.2-1.2 3.9-1.4 1.5-.3 2.7-.2 3.4-.2 1.8.2 3.2.7 3.5.8.4.2 2 .8 3.6 2.2 1.3 1.2 2 2.3 2.2 2.6.9 1.4 1.2 2.7 1.3 2.9.2.8.3 1.4.3 1.9l.2 8.6m-24.8-3.5c.3 0 .9.1 1.6-.3.7-.3 1.1-.9 1.2-1.1.1-.1.3-.5.6-1.8.2-1.1.1-1.4.3-2.2 0-.2.2-1.2.6-2.1.9-1.8 2.4-2.9 3.2-3.4.6-.4 1.3-.9 2.5-1.2.4-.1 2.5-.7 5-.1.4.1 1.5.4 2.8 1.2 1.1.7 1.8 1.5 2.3 2.1.6.7 1.1 1.3 1.5 2.3.2.6.3 1 .3 1.4.2 1.4.2 4.9.2 7.8 0 .3-.2 1 .2 1.6.3.6.7.9 1.1 1.1.7.5 1.5.7 2 .8m-25.4-3.1c.4 0 1 .1 1.8-.1 1-.2 1.7-.7 2.1-.9a5.51 5.51 0 0 0 1.8-1.7c.4-.6.5-1.5.7-3.2s.2-2 .5-2.7c.1-.2.4-1 1.2-1.8.6-.7 1.3-1.1 1.6-1.2.8-.5 1.6-.6 1.8-.7 1-.2 1.8-.1 2.2 0 .5.1 1.1.2 1.8.5s1.1.7 1.5 1.1.9.8 1.3 1.6.6 1.5.6 1.8c.1.5.1.9.1 1.1-.1 2.5.2 5 .1 7.5 0 .2 0 .7.2 1.2.2.6.9 1.3 1.5 1.8.6.6 1.3.9 1.5 1 .5.3 1.6.6 3.1.7m-25.4-3c.4.1.9.2 1.6.1.9-.1 1.6-.4 2.2-.8.3-.1.9-.5 1.6-1 .4-.3 1.4-1.1 2.3-2.4.6-.8.8-1.2 1.1-1.9.1-.1.2-.7.3-1.9.1-.7.2-1.2.4-1.8.2-.8.3-1 .4-1.2.3-.4.6-.6 1-.9.5-.3.9-.6 1.5-.7.5-.1.9.1 1.1.1.1 0 .6.2 1 .6.1.1.6.5.9 1.1.3.7.3 1.3.1 2.5-.2 1.6-.3 2.4-.6 3.4-.2.5-.7 2.2-1.9 3.9-2.1 3-4.8 4.4-5.8 4.9-2.9 1.5-5.6 1.8-7.2 1.9m.5-2.9c.7 0 1.8 0 3-.4 2.6-.7 4.3-2.2 4.9-2.8 1.2-1.1 1.9-2.2 2.4-2.9s.9-1.4 1.3-2.3c.3-.8.8-2.3.6-4.4m.5 12.6h1.5m1.5-2.9c.1.4.3.9.6 1.5.5.9 1 1.4 1.6 1.9 1 .9 1.9 1.5 2.3 1.7.5.3 1.1.6 2 .9 1.1.3 2.1.3 2.8.2m-2.2 3.2c-.5-.1-1.1-.4-1.9-.7-.9-.3-1.4-.5-2-.9-1-.6-1.3-.7-2.1-1.1-.7-.4-1.7-.7-2.4-.9-.9-.2-1.4-.3-2.8 0-.5.1-.9.3-1.9.7-1.9.9-2 1.2-3.2 1.6-1.2.5-2.3.7-3 .8l-2.2.2m2.5 2.9c.8 0 1.4-.1 1.8-.2.7-.2 1.3-.5 1.7-.7.6-.3.6-.4 1.5-.8l1.4-.7c.7-.3 1.1-.5 1.6-.6.4-.1.6 0 1.2 0 .5 0 .9.1 1.4.2.4.1.8.3 1.5.7l1.1.6 1.5.8c.5.2 1.4.5 2.5.7m-14 2.5c.7-.2 1.3-.4 1.7-.6.5-.2 1.1-.5 1.8-1 .7-.4.7-.6 1.1-.7.7-.3 1.3-.2 1.6-.1.7.1 1.1.3 1.4.4.3.2.6.3 1.2.7l1.2.8.9.4m-5.7 1.1h1.7" stroke-miterlimit="10" fill="none" stroke="#fff" stroke-width="1.32"/></svg>