<svg xmlns="http://www.w3.org/2000/svg" xmlns:xlink="http://www.w3.org/1999/xlink" width="22.6" height="22.6"><circle cx="11.3" cy="11.3" r="11.3" fill="#d91f2f" fill-rule="evenodd"/><path d="M16.1 5c-1.6-1.5-3.9-1.6-5.2-.2-1.2 1.4-1.1 3.7.6 5.2s3.9 1.6 5.2.2c1.2-1.4.9-3.7-.6-5.2zM15 8.9c-.5.4-1.5.2-2.2-.5-.7-.8-.8-1.8-.3-2.2s1.5-.2 2.2.5c.6.7.8 1.7.3 2.2z" fill="#fff"/><path stroke-miterlimit="10" d="M11.4 9.1l-6.2 6" fill="none" stroke="#fff" stroke-width="1.874" stroke-linecap="square"/><path d="M5.3 16.7l1.8 1.9.6-.7-.8-.9.8-.6.8.8.7-.7-1.7-1.8z" fill="#fff"/><path id="A" d="M15.2 18.4c-4.2 1.8-9-.2-10.9-4.5s0-9.2 4.2-11 9 .2 10.9 4.5c1.8 4.3 0 9.2-4.2 11z" fill="none"/><text><textPath xlink:href="#A" startOffset="67.122298%"><tspan font-size="3" font-family="MyriadPro-Bold" fill="#fff">KEY MGMT</tspan></textPath></text></svg>