<svg xmlns="http://www.w3.org/2000/svg" width="55" height="55"><circle cx="27.5" cy="27.5" r="27.5" fill="#335e80"/><g fill="#fff"><path d="M20.1 38.8v-8.2l-7.4-3.9-7.4 3.9v8.2l7.4 3.9zm-11.6-2v-4.1l3.9-2.1 3.9 2.1v4.1l-3.8 2zm40.4-13.7v-8.2L41.5 11l-7.4 3.9v8.2l7.4 3.9zm-11.3-6.2l3.9-2.1 3.9 2.1V21l-3.9 2.1-3.9-2.1z"/><path d="M27 38.4l-10.6-5.7V21.2L27 15.3l10.6 5.9v11.5z"/></g><path d="M18.3 31.6l8.2 4.6v-10l-8.2-3.8zM27 17.4l-8.2 4.4 8.2 3.8 8.2-3.8zm.5 8.8v10l8.3-4.6v-9.2z" fill="#2d3f4a"/><path d="M26.5 36.2l-8.2-4.6v-9.2l8.2 3.8zm9.3-4.6l-8.3 4.6v-10l8.3-3.8zm-.6-9.8L27 25.6l-8.2-3.8 8.2-4.4z" fill="#335e80"/></svg>