<svg xmlns="http://www.w3.org/2000/svg" viewBox="0 0 65.8 65.5"><ellipse cx="32.9" cy="32.7" rx="32.9" ry="32.7" fill="#325c80"/><path d="M33.9 48.2c.4-.4.8-.7 1.2-1 2-1.2 1.2-4.1-.9-4.9-.4-.1-.6-.3-.7-.7-.1-1.5-1.4-2.6-2.9-2.4h-.1c-.4 0-.5 0-.6-.4-.3-1.6-1.7-2.7-3.3-2.4-.4.1-.8.2-1.2.5-.6.4-.7.2-1-.3-.3-.7-.9-1.3-1.6-1.7-.8-.5-1.9-.4-2.7.3-.5.5-1.1.9-1.7 1.4-.1.2-.4.3-.6.1l-.1-.1c-.5-.4-.9-.8-1.4-1.3-.3-.3-.3-.5 0-.8L24.2 24c.2-.2.3-.4.6-.4 2.3 0 4.5.1 6.8.4.2 0 .5.1.8.2-1.6 1.5-3.5 2.7-5.7 3.2-.8.2-1.6.4-2.4.8-1 .4-1.5 1.6-1.1 2.6.1.3.3.5.5.7 1.3 1.7 3.5 2.5 5.6 1.9a9.9 9.9 0 0 0 3.9-1.8c.8-.5 1.7-.8 2.6-.8H42c.2 0 .4 0 .5.1 2 1.2 3.8 2.8 5.2 4.7.4.6.7 1.2.8 1.9.2.8-.3 1.6-1 1.8-.3.1-.7.1-1-.1l-.3-.1c-.1.2-.1.5 0 .7.2 1.8-.7 2.9-2.4 2.9-.8 0-1.1.2-1.2.9-.1.6-.3 1.1-.7 1.5-.6 1-1.8 1.3-2.8.8-.4-.2-.5-.2-.5.3 0 1.1-.9 2-2 2-1 .4-1.9.3-2.7 0zm18.8-15.5c-.1.1-.2.3-.3.4l-2.5 2.8c-.3.4-.5.3-.8-.1-1.4-2.5-3.7-4.1-6-5.7-.2-.1-.5-.2-.7-.2h-7a5.29 5.29 0 0 0-3 .9 7.88 7.88 0 0 1-4.9 1.7c-1.2-.1-2.4-.7-3.1-1.7-.4-.6-.3-1 .3-1.3s1.3-.5 1.9-.7c2-.5 3.9-1.5 5.5-2.8 2.4-1.9 5.4-2.8 8.5-2.4 1.4.2 2.9.1 4.3-.4.4-.2.6 0 .8.3l6.6 8.8c.1 0 .3.2.4.4zm-39.2 2.8c-.3 0-.6-.1-.8-.3L8 31.6c-.5-.2-.7-.8-.5-1.3.1-.1.1-.2.2-.3l9.2-12.4c.2-.5.8-.7 1.3-.5.1.1.2.1.3.2l4.8 3.6c.7.5.7 1 .2 1.6l-9.2 12.3c-.1.4-.4.6-.8.7zm48.2-6.6a1.1 1.1 0 0 1-.6 1l-4.7 3.4c-.7.5-1.2.5-1.8-.2l-9.1-12.3a1.07 1.07 0 0 1-.1-1.4c.1-.1.2-.2.3-.2l4.8-3.6c.4-.4 1-.4 1.4 0 .1.1.2.2.2.3l9.2 12.3c.2.2.3.5.4.7zM28.6 39.4c0 .4-.2.8-.5 1l-4.5 3.9c-.7.7-1.8.7-2.4 0-.7-.7-.7-1.8 0-2.4.1-.1.2-.2.3-.2l4.4-3.7c.5-.5 1.3-.6 1.9-.2.5.3.9.9.8 1.6zm3.7 2.8c-.1.4-.3.8-.6 1l-3.8 3.3c-.9.8-1.8.7-2.4 0s-.5-1.8.4-2.5l3.8-3.2c.5-.4 1.1-.5 1.7-.2s1 .9.9 1.6zm-8.7-4.3c0 .2-.1.5-.3.6l-2.6 2.2c-.3.3-.8.3-1.1.1-.5-.3-.9-.7-1.1-1.2-.4-.5-.2-1.3.3-1.6a16.32 16.32 0 0 0 2-1.7c.4-.5 1.1-.5 1.6-.1l.1.1c.6.3 1 .9 1.1 1.6zM35 45.2c0 .3-.2.7-.4.8l-2.7 2.3a1.07 1.07 0 0 1-1.4.1c-.6-.3-.9-.8-1-1.5 0-.3.2-.4.3-.5l3.2-2.8c.1-.1.3-.2.5-.2.8.2 1.4.9 1.5 1.8z" fill="#fff"/></svg>