<svg xmlns="http://www.w3.org/2000/svg" width="54.4" height="54.4"><circle r="27.2" cy="27.2" cx="27.2" fill="#d91f2f"/><path d="M31.9 32l-16.1-.2c-2.2 0-4.1 1.7-4.1 3.9v4.1l24.1.2v-4.1c.2-2-1.7-3.9-3.9-3.9zm-8-4.2a10.18 10.18 0 0 1-10.2-10.2c0-5.7 4.5-10.2 10.2-10.2s10.2 4.5 10.2 10.2a10.18 10.18 0 0 1-10.2 10.2zm0-19.1c-5 0-8.9 4.1-8.9 8.9s4.1 8.9 8.9 8.9c5 0 8.9-4.1 8.9-8.9s-4-8.9-8.9-8.9z" fill="#fff"/><circle cx="40" cy="36.8" r="9.1" fill="#e12834"/><path d="M43.17 30.1c0-2.7-2.27-5-4.97-5s-5 2.3-5 5v2.2c-1.1 1.1-1.7 2.7-1.7 4.4 0 3.6 3 6.6 6.6 6.6s6.6-3 6.6-6.6c0-1.7-.43-3.1-1.53-4.4zm-8.17 0c0-1.7 1.6-3.3 3.3-3.3s3.3 1.6 3.3 3.3v1c-.9-.6-2-.9-3.3-.9s-2.3.3-3.3.9zm2.1 10.3L34 37.3l1.1-1.1 1.9 1.9 4.4-4.4 1.1 1.1z" fill="#fff"/></svg>