<svg xmlns="http://www.w3.org/2000/svg" width="55" height="55"><circle cx="27.5" cy="27.5" r="27.5" fill="#a9236e" fill-rule="evenodd"/><g fill="#fff"><path d="M32 7.5c.3.1.6.2.8.5.2.2.3.5.3.8v7.6c-.1-.2-.3-.4-.5-.6-.1-.1-.2-.2-.3-.2s-.2-.1-.2-.2V9c0-.4-.1-.5-.5-.5H22c-.4 0-.5.1-.5.5v12.8c0 .4.1.5.5.5h2.6c.2 0 .3 0 .4.1s.3.1.4.2l-.6.6h-3c-.6 0-1.2-.5-1.3-1.1V8.7c.1-.2.2-.5.3-.7.2-.3.5-.4.9-.5H32zm-.2 16.3c-.2 0-.5-.1-.8-.1-.2 0-.4 0-.5.2-.2.2-.3.4-.5.5-.3.3-.6.3-.8 0l-.5-.5c-.1-.1-.3-.2-.5-.2s-.5.1-.7.1c-.4.1-.7-.1-.7-.5 0-.2-.1-.5-.1-.7s-.1-.3-.3-.4-.4-.2-.7-.3c-.4-.2-.5-.5-.3-.8l.3-.6c.1-.2.1-.4 0-.6l-.3-.6c-.2-.4-.1-.7.3-.9l.6-.3a.55.55 0 0 0 .3-.5c0-.2.1-.5.1-.7.1-.3.3-.5.7-.5.2 0 .5.1.7.1s.4 0 .6-.2.3-.4.5-.5c.3-.3.6-.3.8 0l.5.5c.2.2.4.2.6.2s.5-.1.7-.1c.3-.1.6.1.7.5 0 .2.1.5.1.7a.55.55 0 0 0 .3.5c.2.1.4.2.7.3.3.2.4.4.3.8l-.3.6c-.1.2-.1.4 0 .6l.3.6c.2.3.1.6-.3.8-.2.1-.4.2-.7.3a.55.55 0 0 0-.3.5c0 .2-.1.5-.1.7-.1.3-.4.5-.7.5zm-2.3-.6c1.8 0 3.2-1.4 3.2-3.2s-1.4-3.2-3.2-3.2-3.2 1.4-3.2 3.2c0 1.7 1.4 3.2 3.2 3.2zm-2.7-12.5h3.7a.55.55 0 0 1 .3.5c0 .2-.2.4-.5.4h-6.9a.47.47 0 0 1-.5-.5.47.47 0 0 1 .5-.5l3.4.1zm.1 3.2h-3.5c-.3 0-.5-.2-.5-.4s.2-.4.4-.5h7.2a.55.55 0 0 1 .3.5c0 .2-.2.4-.5.4h-3.4z"/><path d="M32.8 22.9l.8.8c.2.2.5.4.7.7.1.1.1.2.1.3s-.1.2-.3.2c-.3 0-.5.1-.8.1-.1 0-.1.1-.2.2 0 .3-.1.5-.1.8-.1.3-.3.4-.5.2l-1.9-1.9c.1-.2.2-.2.4-.2s.5.1.7.1c.5.1.9-.2 1-.7.1-.2.1-.4.1-.6zm-6.6 0a.9.9 0 0 0 .1.5c.1.5.5.8 1 .7.2 0 .4-.1.7-.1.2 0 .3 0 .4.2l-1.9 1.9c-.1.1-.2.2-.4.1s-.2-.2-.2-.3c0-.2-.1-.5-.1-.7 0-.1-.1-.1-.1-.1-.3 0-.5-.1-.8-.1-.3-.1-.3-.3-.2-.5.5-.6 1-1.1 1.5-1.6zM23 45.3V40l-4.7-2.5-4.7 2.5v5.2l4.7 2.5zm-7.2-1.4v-2.6l2.5-1.3 2.5 1.3v2.6l-2.5 1.3zm25.6-8.6V30l-4.7-2.5L32 30v5.2l4.7 2.5zm-7.2-3.9l2.5-1.3 2.5 1.3V34l-2.5 1.3-2.5-1.3z"/><path d="M27.5 45l-6.7-3.7V34l6.7-3.6 6.7 3.6v7.3z"/></g><path d="M21.9 40.7l5.3 2.8v-6.2l-5.3-2.4zm5.6-9.1l-5.2 2.8 5.2 2.4 5.2-2.4zm.3 5.7v6.2l5.2-2.9v.1-5.8z" fill="#2d3f4a"/><path d="M27.2 43.5l-5.3-2.8v-5.8l5.3 2.4zm5.8-2.8l-5.2 2.8v-6.2l5.2-2.4zm-.3-6.3l-5.2 2.4-5.2-2.4 5.2-2.8z" fill="#a9236e"/></svg>