<svg xmlns="http://www.w3.org/2000/svg" viewBox="0 0 65 65"><circle transform="matrix(.7071 -.7071 .7071 .7071 -13.4619 32.5)" cx="32.5" cy="32.5" r="32.5" fill="#9bca52"/><path d="M25.7 44.2v-1.8c0-.6.5-.9 1-.5l5.5 3.7c.5.3.5.7 0 1l-5.5 3.7c-.5.3-.9.1-1-.5s0-1.2 0-1.8h-7.8c-1 .1-2-.6-2.1-1.6V35.2c0-.8.3-1 1-1h1.6c.7 0 1 .3 1 1v9.2l6.3-.2z" fill="none" stroke="#fff" stroke-width=".75" stroke-miterlimit="10"/><path d="M51.2 49.8c.2-.4.3-.8.5-1.2l3.2-.9-.4-4.1-3.1-.4c-.4-.9-.9-1.7-1.6-2.4l.7-2.9-3.7-1.8-1.8 2.4c-.9-.1-1.9 0-2.8.2l-2.3-2.2-3.5 2.2 1.3 3.1c-.5.7-.9 1.4-1.1 2.2l-3.2.9.4 4.1 3.1.5c.4.9.9 1.7 1.6 2.4l-.7 2.9 3.7 1.7 1.9-2.3c.9.1 1.9 0 2.8-.2l2.3 2.2L52 54l-1.3-3c.1-.5.4-.8.5-1.2zm-.2 3.9l-2.5 1.6-2.1-2.1-.4.1c-.8.2-1.7.3-2.6.2H43l-.2.3-1.5 1.9-2.7-1.3.5-2.4.1-.4-.2-.3c-.6-.6-1.1-1.4-1.4-2.2l-.2-.4H37l-2.6-.4-.3-3 2.7-.7.4-.1.1-.4c.2-.7.6-1.4 1-2l.2-.3-.2-.3-1-2.5 2.5-1.5 1.9 1.8.3.3.4-.1c.8-.2 1.7-.3 2.6-.2h.4l.2-.3 1.5-1.9 2.7 1.3-.5 2.4-.1.4.3.3c.6.6 1.1 1.4 1.4 2.2l.2.4h.4l2.6.4.3 3-2.9.5-.4.1-.1.3c-.2.7-.6 1.4-1 2l-.2.3.2.3 1 2.7zm-5-11.1c-2-1-4.5-.2-5.5 1.9s-.1 4.5 1.9 5.5 4.5.2 5.5-1.9c1-2 .2-4.4-1.9-5.5 0 .1 0 .1 0 0zm-2.4 5c-.7-.3-1-1.2-.6-1.8.3-.7 1.2-1 1.8-.6.7.3 1 1.1.6 1.8-.3.6-1.1.9-1.8.6zM23.9 24.2c0-.3 0-.7-.1-1l2-1.7-1.7-2.7-2.3.8c-.6-.5-1.2-.8-2-1.1l-.5-2.3h-3.2l-.5 2.3c-.7.3-1.3.6-1.9 1.1l-2.3-.8-1.7 2.7 2 1.7c-.1.6-.1 1.3 0 1.9l-2 1.7 1.7 2.7 2.3-.8c.6.5 1.2.9 1.9 1.1l.5 2.3h3.2l.5-2.3c.7-.3 1.3-.6 1.9-1.1l2.3.8 1.7-2.7-2-1.7c.2-.2.2-.6.2-.9zm1.2 2.8l-1.2 2-1.9-.7-.3-.1-.2.2c-.5.4-1.1.8-1.7 1l-.3.1-.1.3-.4 1.9h-2.4l-.4-1.8-.1-.3-.3-.1c-.6-.2-1.2-.6-1.7-1l-.2-.2-.3.1-1.9.6-1.2-2 1.6-1.4.2-.2v-.3c-.1-.6-.1-1.2 0-1.8V23l-.2-.2-1.6-1.4 1.2-2 1.9.6.3.1.2-.2c.5-.4 1.1-.8 1.7-1l.3-.1.1-.3.4-1.8H19l.4 1.8.1.3.3.1c.6.2 1.2.6 1.7 1l.2.2.3-.1 1.9-.6 1.2 2-1.6 1.4-.2.2v.3c.1.6.1 1.2 0 1.8v.3l.2.2 1.6 1.4zm-7.3-6c-1.8 0-3.2 1.4-3.2 3.2s1.4 3.2 3.2 3.2S21 26 21 24.2 19.6 21 17.8 21zm0 4.2a1.11 1.11 0 0 1-1.1-1.1 1.11 1.11 0 0 1 1.1-1.1 1.11 1.11 0 0 1 1.1 1.1c0 .7-.5 1.1-1.1 1.1z" fill="#fff"/></svg>