<svg xmlns="http://www.w3.org/2000/svg" width="55" height="55"><circle cx="27.5" cy="27.5" r="27.5" fill="#eec11b"/><g fill="#fff"><path d="M39.2 7.6c.6.2 1.3.5 1.7.9.5.5.6 1.1.6 1.7V26c-.3-.5-.6-.8-.9-1.3-.2-.2-.5-.3-.8-.5s-.3-.2-.3-.5V10.5c0-.8-.3-.9-.9-.9H18.5c-.8 0-1.1.3-1.1.9V37c0 .8.3.9.9.9h5.4c.3 0 .6 0 .9.3.3.2.6.3.9.5L24.2 40h-6.3c-1.4 0-2.4-.9-2.7-2.4V9.7c.2-.5.3-.9.6-1.4.3-.6 1.1-.9 1.7-1.1 7.3.4 14.6.4 21.7.4zm-.5 34c-.5 0-1.1-.2-1.6-.3-.5-.2-.8 0-1.1.3l-1.1 1.1c-.6.6-1.1.6-1.7 0l-1.1-1.1c-.3-.3-.6-.5-1.1-.3s-.9.2-1.4.3c-.9.2-1.4-.2-1.6-1.1 0-.5-.2-.9-.2-1.4s-.3-.8-.6-.9c-.5-.2-.9-.5-1.4-.6-.8-.5-.9-.9-.6-1.7.2-.5.5-.8.6-1.3.3-.5.2-.8 0-1.3s-.5-.8-.6-1.3c-.5-.8-.3-1.4.6-1.7.5-.2.8-.5 1.3-.6.5-.2.6-.5.8-.9 0-.5.2-1.1.2-1.6.2-.6.6-1.1 1.4-.9.5.2.9.2 1.4.3.5 0 .9 0 1.3-.3.3-.3.6-.8 1.1-1.1.5-.5 1.1-.5 1.7 0l1.1 1.1c.3.3.8.5 1.3.3s.9-.2 1.4-.3c.6-.2 1.3.3 1.4.9.2.5.2.9.2 1.6 0 .5.3.8.8.9.5.2.9.5 1.4.6.6.3.8.9.5 1.6-.2.5-.5.9-.6 1.4a1.48 1.48 0 0 0 0 1.3c.3.5.5.9.6 1.4.3.6.2 1.3-.5 1.6-.5.3-.9.5-1.4.6-.5.2-.6.5-.6.9 0 .5-.2 1.1-.2 1.6-.6.4-1.1.9-1.7.9zM34 40.2c3.6 0 6.8-3 6.8-6.6s-3-6.8-6.6-6.8c-3.8 0-6.8 3-6.8 6.6-.2 3.8 2.8 6.8 6.6 6.8zm-5.6-26.1h7.1c.2 0 .5 0 .6.2.5.2.6.6.6 1.1-.2.5-.5.8-1.1.8H21.1c-.6 0-.9-.5-.9-.9 0-.5.5-.9.9-.9 2.4-.3 4.8-.3 7.3-.3zm0 6.8h-7.3c-.6 0-1.1-.3-1.1-.9 0-.5.3-.9.9-.9h15c.5.2.8.6.6 1.1 0 .5-.5.8-.9.8l-7.2-.1z"/><path d="M40.9 39.7l3 3c.2.2.3.5.2.6 0 .3-.3.5-.6.5-.5.2-1.1.2-1.6.3-.2 0-.3.2-.3.3 0 .5-.2 1.1-.3 1.6-.2.6-.6.8-1.1.3l-4-4c.2-.3.5-.5.8-.3.5.2.9.2 1.4.2.9.2 1.9-.5 2.1-1.6.2-.1.2-.6.4-.9zm-13.9 0c0 .3.2.6.2.9.2 1.1 1.1 1.7 2.2 1.6.5 0 .9-.2 1.4-.2.3 0 .6 0 .9.3l-3.8 3.8c-.2.2-.5.5-.8.3s-.5-.3-.5-.6c-.2-.5-.2-.9-.3-1.4 0-.2-.2-.3-.3-.3-.6-.2-1.1-.2-1.7-.3-.5-.2-.8-.6-.3-.9.9-1.1 1.9-2.1 3-3.2z"/></g></svg>