<svg xmlns="http://www.w3.org/2000/svg" width="55" height="55"><circle cx="27.5" cy="27.5" r="27.5" fill="#05b09d"/><path d="M7.8 22.5h2.8c.3 0 .4-.1.5-.4.9-2.8 2.4-5.2 4.6-7.2 2.4-2.3 5.3-3.8 8.6-4.4 3.2-.6 6.4-.3 9.5.8.3.1.4.2.4.5V15c-4.7-2.3-9.3-2.2-13.8.4-3 1.8-5 4.7-5.8 7h3.2c-1.7 2.2-3.3 4.4-4.9 6.6-.2-.3-.4-.5-.6-.8l-4.2-5.6c-.2 0-.3 0-.3-.1zm0 20.7c.1-.3.1-.6.3-.9.7-1.9 2.1-3 4.2-3.4-1-.3-1.8-.7-2.3-1.6s-.6-1.8-.3-2.8c.4-1.3 1.8-2.2 3.3-2.2 1.5.1 2.7 1.1 3 2.6.2.9 0 1.8-.5 2.6s-1.3 1.2-2.2 1.4c2.8.5 4.6 2.7 4.4 4.9H7.9c-.1-.2-.1-.4-.1-.6zM47.3 34H44c-.4 0-.6.1-.7.5-2.3 5-6.1 8.2-11.4 9.7-3.6 1-7.1.7-10.6-.6-.1 0-.3-.2-.3-.3v-3.5c4.3 2.1 8.6 2.2 12.8.1 2.6-1.3 4.6-3.3 6-5.9h-2.4l5-6.6 4.9 6.6zm-5.4-16.5c-2.1-.5-2.9-2.1-2.8-3.5.1-1.9 1.6-3.1 3.2-3.1a3.43 3.43 0 0 1 3.3 2.7c.3 1.7-.6 3.4-2.7 3.9 2.7.6 4.2 2.2 4.4 4.9h-9.9c0-1.3.4-2.4 1.3-3.3.8-.9 1.8-1.4 3.2-1.6z" fill="#fff"/></svg>