<svg xmlns="http://www.w3.org/2000/svg" width="55" height="55"><circle cx="27.5" cy="27.5" r="27.5" fill="#d91f2f" fill-rule="evenodd"/><path d="M46.2 31.5v4.1a4.91 4.91 0 0 1-4.9 4.9H22.7c-.3 0-.5.1-.7.4-2 2.8-4.6 4.2-8.1 3.9-3.6-.3-6.8-3.3-7.6-6.8-.8-4.2 1.5-8.3 5.5-9.8.4-.1.5-.3.5-.7v-9.6c0-2 1-3.5 2.8-4.5.5-.3.9-.5 1.2-.9.2-.3.6-.5 1-.6 2.2-.3 4.4-.5 6.6-.8 2.1-.2 4.2-.5 6.3-.7l6.4-.7 3-.3c1.2-.2 2 .4 2.2 1.6.1.5.1.9.1 1.4 0 .4.1.6.6.7 2 .6 3.3 2 3.7 4.1.1.5 0 .9 0 1.4V22h.4c1.3 0 2.1.9 2.2 2.2v5c0 1.5-.8 2.3-2.3 2.4-.1-.1-.1-.1-.3-.1zm-26.8-9v5.9c0 .4.1.7.5 1 2.2 1.7 3.5 4 3.5 6.9 0 .9-.2 1.8-.2 2.7h18.1c1.9 0 3.2-1.3 3.2-3.2v-4.2h-6.4c-3 0-5.2-2.8-4.9-5.4.3-2.3 2.3-4.1 4.6-4.1h6.7v-4.5c-.1-1.2-.6-2.2-1.8-2.6-.5-.2-1-.2-1.5-.2H17.3c-2 0-3.2 1.2-3.2 3.2v9.7c1.2.2 2.4.3 3.5.5v-5.6c.7-.1 1.2-.1 1.8-.1zm-4.6 20.7c3.9 0 6.9-2.9 6.9-6.9 0-4.5-3.8-6.9-6.8-6.9-3.8 0-6.9 2.8-6.9 6.8-.1 3.9 2.9 7 6.8 7zM47 23.7h-9c-.2 0-.4 0-.6.1-1.7.3-2.7 1.6-2.5 3.4.2 1.7 1.5 2.6 3 2.6h9c.1-2.1.1-4.1.1-6.1zM40.1 11l-15.3 1.7h15.5c-.1-.6-.1-1.1-.2-1.7zM14.8 41.4h-2.1a2.22 2.22 0 0 1-2.2-2.2v-2.9c0-.9.4-1.5 1.1-2 .2-.1.3-.2.3-.5.2-2.2 2.6-3.4 4.4-2.2.8.5 1.1 1.3 1.2 2.2 0 .2.1.3.3.4.8.5 1.2 1.1 1.2 2.1v2.8c0 1.2-.9 2.2-2.2 2.2-.6.1-1.3.1-2 .1zm0-5.5h-2.2c-.3 0-.4.1-.4.4v3c0 .3.1.4.4.4h4.3c.3 0 .4-.1.4-.4v-3c0-.3-.1-.4-.4-.4h-2.1zm1-1.8c0-.8-.4-1.2-1.2-1.1-.6 0-.9.5-.8 1.1h2zm24.4-7.4c0 1.1-1 2.1-2.1 2.1-1 0-2.1-1-2.1-2.1s1-2.1 2.1-2.1c1 0 2.1 1 2.1 2.1zm-1.7.1v-.2c-.2-.1-.3-.2-.5-.2-.3-.1-.4.1-.4.4s.1.4.4.4c.2-.2.4-.3.5-.4zM14 38.8l-.3-.9c-.1-.5.1-.8.4-1.1s.7-.4 1.1-.2c.7.4.9.9.5 1.6-.1.2-.1.4-.2.6H14zm1.5-1.2c-.3-.2-.5-.5-.7-.5s-.5.3-.5.5c0 .1.3.5.5.5s.4-.3.7-.5z" fill="#fff"/><path d="M16.9 21.5l.4 6.5c.3 0 .8.1 1.3.4.6.3.9.7 1.1.9l1.4-7.7h-4.2z" fill="#d91f2f"/></svg>