<svg xmlns="http://www.w3.org/2000/svg" contentScriptType="text/ecmascript" width="65.5" baseProfile="full" zoomAndPan="magnify" contentStyleType="text/css" height="65.5" viewBox="0 -0.1 65.5 65.4" preserveAspectRatio="none meet"><defs><linearGradient x1="28.121" gradientUnits="userSpaceOnUse" x2="11.239" y1="35.051" y2="64.292" id="A"><stop stop-color="#0052cc" offset="0"/><stop stop-color="#2684ff" offset=".923"/></linearGradient></defs><path d="M19.463 30.115a1.856 1.856 0 0 0-3.157.343L.31 62.442a1.912 1.912 0 0 0 1.71 2.767h22.275a1.843 1.843 0 0 0 1.71-1.057c4.805-9.93 1.893-25.026-6.54-34.037z" fill="url(#A)"/><path d="M31.196 1.024a42.188 42.188 0 0 0-2.463 41.65l10.74 21.478a1.912 1.912 0 0 0 1.71 1.057h22.27a1.912 1.912 0 0 0 1.71-2.767L34.448 1.012a1.806 1.806 0 0 0-3.252.012z" fill="#2684ff"/></svg>