<svg xmlns="http://www.w3.org/2000/svg" xmlns:xlink="http://www.w3.org/1999/xlink" contentScriptType="text/ecmascript" width="63.7" baseProfile="full" zoomAndPan="magnify" contentStyleType="text/css" height="73.6" preserveAspectRatio="none meet"><defs><linearGradient x1="16.06" y1="10.61" x2="16.06" gradientUnits="userSpaceOnUse" y2="53.94" id="A"><stop offset="0" stop-color="#0052cc"/><stop offset="1" stop-color="#2684ff"/></linearGradient><linearGradient x1="15.91" x2="15.91" xlink:href="#A" id="B"/></defs><path d="M61.56 41.8h-15.3a2 2 0 0 0-2 1.7A12.57 12.57 0 0 1 31.8 54.33l4.14 18.9a31.81 31.81 0 0 0 27.61-29.3 2 2 0 0 0-2-2.14zm-26.46-.47l22-18.9a2 2 0 0 0 0-3L35.1.48A2 2 0 0 0 31.81 2v37.8a2 2 0 0 0 3.29 1.52z" fill="#2684ff"/><path d="M.3,45.94A31.81,31.81,0,0,0,31.81,73.55V54.34A12.56,12.56,0,0,1,19.25,41.81Z" fill="url(#A)"/><path d="M0 41.5v.3h19.25a12.56 12.56 0 0 1 12.56-12.53l-4.13-18.9A31.79 31.79 0 0 0 0 41.51" fill="url(#B)"/></svg>