<svg xmlns="http://www.w3.org/2000/svg" contentScriptType="text/ecmascript" width="62.5" baseProfile="full" zoomAndPan="magnify" contentStyleType="text/css" height="50.4" viewBox="0 6.1 62.5 56.5" preserveAspectRatio="none meet"><defs><linearGradient x1="64.01" y1="30.27" x2="32.99" gradientUnits="userSpaceOnUse" y2="54.48" id="A"><stop offset=".18" stop-color="#0052cc"/><stop offset="1" stop-color="#2684ff"/></linearGradient></defs><path d="M2 6.26a2 2 0 0 0-2 2.32l8.5 51.54a2.72 2.72 0 0 0 2.66 2.27h40.73a2 2 0 0 0 2-1.68l8.5-52.12a2 2 0 0 0-2-2.32zM37.75 43.5h-13l-3.52-18.4H40.9z" fill="#2684ff"/><path d="M59.67 25.12H40.9l-3.15 18.4h-13L9.4 61.73a2.71 2.71 0 0 0 1.75.66H51.9a2 2 0 0 0 2-1.68z" fill="url(#A)"/></svg>