<svg xmlns="http://www.w3.org/2000/svg" contentScriptType="text/ecmascript" width="71.3" baseProfile="full" zoomAndPan="magnify" contentStyleType="text/css" height="70.8" viewBox="-0.2 0 71.1 70.8" preserveAspectRatio="none meet"><defs><linearGradient x1="28.56" y1="70.6" x2="53.19" gradientUnits="userSpaceOnUse" y2="31.22" id="A"><stop offset="0" stop-color="#0049b0"/><stop offset="1" stop-color="#2684ff"/></linearGradient></defs><path d="M52.48 17.7h.6a17.69 17.69 0 0 0-35.38 0 17.69 17.69 0 1 0 0 35.38 17.69 17.69 0 0 0 35.38 0A17.69 17.69 0 0 0 70.76 35c-.18-9.7-8.54-17.3-18.28-17.3zm.6 20.6H46.9a8.6 8.6 0 0 0-8.6 8.6v6.18h-5.82V46.9a8.6 8.6 0 0 0-8.6-8.6H17.7v-5.82h6.18a8.6 8.6 0 0 0 8.6-8.6V17.7h5.82v6.18a8.6 8.6 0 0 0 8.6 8.6h6.18z" fill="#2684ff"/><path d="M52.48 17.7H38.3v6.18a8.6 8.6 0 0 0 8.6 8.6h6.18v5.82H46.9a8.6 8.6 0 0 0-8.6 8.6v6.18H17.7a17.69 17.69 0 0 0 35.38 0A17.69 17.69 0 0 0 70.76 35c-.18-9.7-8.54-17.3-18.28-17.3z" fill="url(#A)"/></svg>