<svg xmlns="http://www.w3.org/2000/svg" xmlns:xlink="http://www.w3.org/1999/xlink" contentScriptType="text/ecmascript" width="63.4" baseProfile="full" zoomAndPan="magnify" contentStyleType="text/css" height="57.4" viewBox="-0.2 3.3 63.2 60.7" preserveAspectRatio="none meet"><defs><linearGradient x1="59.68" y1="67.65" x2="20.35" gradientUnits="userSpaceOnUse" y2="45.05" id="A"><stop offset=".18" stop-color="#0052cc"/><stop offset="1" stop-color="#2684ff"/></linearGradient><linearGradient x1="3.07" y1="-.37" x2="42.41" xlink:href="#A" y2="22.24" id="B"/></defs><path d="M2.23 49.53l-2 3.27a2 2 0 0 0 .67 2.72l13 8a2 2 0 0 0 2.77-.68l1.92-3.2c5.15-8.5 10.33-7.46 19.67-3l12.9 6.13a2 2 0 0 0 2.69-1l6.2-14a2 2 0 0 0-1-2.62l-13-6.18C28.5 30.45 13.62 31 2.23 49.53z" fill="url(#A)"/><path d="M60.52 17.76l2-3.27a2 2 0 0 0-.67-2.72l-13-8a2 2 0 0 0-2.85.66l-1.92 3.2c-5.15 8.5-10.33 7.46-19.67 3l-12.85-6.1a2 2 0 0 0-2.69 1l-6.2 14a2 2 0 0 0 1 2.62l13 6.18c17.56 8.5 32.45 7.93 43.84-10.58z" fill="url(#B)"/></svg>