<svg xmlns="http://www.w3.org/2000/svg" contentScriptType="text/ecmascript" width="61.3" baseProfile="full" zoomAndPan="magnify" contentStyleType="text/css" viewBox="-0.1 1.9 61.2 63.2" height="61.3" preserveAspectRatio="none meet"><defs><linearGradient x1="30.47" gradientUnits="userSpaceOnUse" x2="30.47" y1="24.34" y2="2.49" id="A"><stop stop-color="#0052cc" offset=".18"/><stop stop-color="#2684ff" offset="1"/></linearGradient></defs><path d="M30.47 2.1C13.64 2.1 0 7.84 0 14.92A6.48 6.48 0 0 0 .11 16l5.37 28.18a25.44 25.44 0 0 0 50 0L60.83 16a6.48 6.48 0 0 0 .11-1.07c0-7.1-13.64-12.84-30.47-12.84zm0 46.67c-8.8 0-8.07-20.45-17.93-23.47-.82-.25-1.6-.52-2.36-.8a59.2 59.2 0 0 1 20.29-3.26 59.2 59.2 0 0 1 20.29 3.26c-.76.28-1.54.56-2.36.8-9.86 3-9.12 23.47-17.93 23.47" fill="#2684ff"/><path d="M10.18 24.5a59.19 59.19 0 0 1 20.29-3.26 59.19 59.19 0 0 1 20.29 3.26c6.24-2.35 10.18-5.76 10.18-9.57C60.94 7.84 47.3 2.1 30.47 2.1S0 7.84 0 14.92c0 3.8 3.93 7.22 10.18 9.57z" fill="url(#A)"/></svg>