<svg xmlns="http://www.w3.org/2000/svg" contentScriptType="text/ecmascript" width="70.9" baseProfile="full" zoomAndPan="magnify" contentStyleType="text/css" height="59.2" viewBox="-0.1 2.6 70.8 61.8" preserveAspectRatio="none meet"><defs><linearGradient x1=".07" y1="33.68" x2="45.5" gradientUnits="userSpaceOnUse" y2="47.33" id="A"><stop offset=".18" stop-color="#0052cc"/><stop offset="1" stop-color="#2684ff"/></linearGradient></defs><path d="M33.12 2.7c-11.2 0-20 8-20 18 0 7.64 5.24 13.2 11.44 13.2a10.76 10.76 0 0 0 11.07-10.76 7.24 7.24 0 0 0-.29-2.06A39.06 39.06 0 0 1 48.5 32.31C45.05 38.46 39.65 45 31.62 45a12.68 12.68 0 0 1-12.38-10.83 2 2 0 0 0-2-1.72H2a2 2 0 0 0-2 2.16 31.39 31.39 0 0 0 31.5 29.61c19 0 30.26-13.66 38.85-31.3a2 2 0 0 0 0-1.77C67.88 26.2 54.2 2.7 33.12 2.7z" fill="#2684ff"/><path d="M70.52 32.3h-22C45.05 38.46 39.65 45 31.62 45a12.68 12.68 0 0 1-12.38-10.83 2 2 0 0 0-2-1.72H2a2 2 0 0 0-2 2.16 31.39 31.39 0 0 0 31.5 29.61c19 0 30.26-13.66 38.85-31.3a2 2 0 0 0 .17-.6z" fill="url(#A)"/></svg>