<svg xmlns="http://www.w3.org/2000/svg" xmlns:xlink="http://www.w3.org/1999/xlink" contentScriptType="text/ecmascript" baseProfile="full" zoomAndPan="magnify" contentStyleType="text/css" viewBox="-0.1 -0.1 73.5 76" preserveAspectRatio="none meet"><defs><linearGradient x1="34.64" y1="15.35" x2="19" gradientUnits="userSpaceOnUse" y2="30.99" id="A"><stop offset=".18" stop-color="#0052cc"/><stop offset="1" stop-color="#2684ff"/></linearGradient><linearGradient x1="38.78" y1="60.28" x2="54.39" xlink:href="#A" y2="44.67" id="B"/></defs><path d="M72.4 35.76L36.64 0 .88 35.76a3 3 0 0 0 0 4.24l35.76 35.76L72.4 40a3 3 0 0 0 0-4.24zM36.64 49.08l-11.2-11.2 11.2-11.2 11.2 11.2z" fill="#2684ff"/><path d="M36.64 26.68A18.86 18.86 0 0 1 36.56.09l-24.5 24.5L25.4 37.93l11.25-11.25z" fill="url(#A)"/><path d="M47.87 37.85L36.64 49.08a18.86 18.86 0 0 1 0 26.68L61.2 51.2z" fill="url(#B)"/></svg>