<svg xmlns="http://www.w3.org/2000/svg" xmlns:xlink="http://www.w3.org/1999/xlink" contentScriptType="text/ecmascript" width="72.2" baseProfile="full" zoomAndPan="magnify" contentStyleType="text/css" height="72.4" viewBox="-0.1 -0.2 72.1 72.2" preserveAspectRatio="none meet"><defs><linearGradient x1="53.96" y1="17.29" x2="39.25" gradientUnits="userSpaceOnUse" y2="32.46" id="A"><stop offset=".18" stop-color="#0052cc"/><stop offset="1" stop-color="#2684ff"/></linearGradient><linearGradient x1="37.83" y1="34.62" x2="20.82" xlink:href="#A" y2="51.16" id="B"/></defs><path d="M68.8 0H34.23a15.61 15.61 0 0 0 15.61 15.61h6.37v6.15a15.61 15.61 0 0 0 15.6 15.6V3a3 3 0 0 0-3-3z" fill="#2684ff"/><path d="M51.7 17.23H17.12a15.61 15.61 0 0 0 15.6 15.6h6.37V39A15.61 15.61 0 0 0 54.7 54.59V20.23a3 3 0 0 0-3-3z" fill="url(#A)"/><path d="M34.58 34.45H0a15.61 15.61 0 0 0 15.61 15.61H22v6.15a15.61 15.61 0 0 0 15.58 15.6V37.45a3 3 0 0 0-3-3z" fill="url(#B)"/></svg>