<svg xmlns="http://www.w3.org/2000/svg" contentScriptType="text/ecmascript" width="57.4" baseProfile="full" zoomAndPan="magnify" contentStyleType="text/css" viewBox="-0.2 -0.2 57.2 72.1" height="71.3" preserveAspectRatio="none meet"><defs><linearGradient x1="28.44" gradientUnits="userSpaceOnUse" x2="28.44" y1=".12" y2=".12" id="A"><stop stop-color="#0052cc" offset="0"/><stop stop-color="#2684ff" offset="1"/></linearGradient><linearGradient x1="42.66" gradientUnits="userSpaceOnUse" x2="42.66" y1="50.35" y2="20.14" id="B"><stop stop-color="#0052cc" offset=".18"/><stop stop-color="#2684ff" offset="1"/></linearGradient></defs><path d="M28.44.12z" fill="url(#A)"/><path d="M56.88 28.44A28.44 28.44 0 0 0 28.44 0a28.43 28.43 0 0 0-8.79 55.48v14.25a2 2 0 0 0 2 2h13.5a2 2 0 0 0 2-2V55.5a28.45 28.45 0 0 0 19.73-27.05zm-28.44 9.6a9.61 9.61 0 1 1 0-19.23 9.61 9.61 0 0 1 0 19.23z" fill="#2684ff"/><path d="M28.44 0v18.83a9.61 9.61 0 0 1 0 19.23 8.79 8.79 0 0 1 8.79 8.79v8.65A28.44 28.44 0 0 0 28.44 0z" fill="url(#B)"/></svg>