<svg xmlns="http://www.w3.org/2000/svg" contentScriptType="text/ecmascript" width="68.5" baseProfile="full" zoomAndPan="magnify" contentStyleType="text/css" height="47.9" viewBox="-0.1 7.3 68.4 55.2" preserveAspectRatio="none meet"><defs><linearGradient x1="31.3" gradientUnits="userSpaceOnUse" x2="1.32" y1="24.34" y2="46.28" id="A"><stop stop-color="#0052cc" offset=".18"/><stop stop-color="#2684ff" offset="1"/></linearGradient></defs><path d="M19.16 7.4v11c0 15.26-7.63 21.14-17.35 22.06a2 2 0 0 0-1.8 2v18a2 2 0 0 0 2.11 2c24.34-1.24 39-19 39-41.05h.07v-14z" fill="url(#A)"/><path d="M68 59.5L42.23 7.4H19.16l27.22 53.36a3 3 0 0 0 2.67 1.64h17.18A2 2 0 0 0 68 59.5z" fill="#2684ff"/></svg>