<svg xmlns="http://www.w3.org/2000/svg" contentScriptType="text/ecmascript" width="102" baseProfile="full" zoomAndPan="magnify" contentStyleType="text/css" height="102" viewBox="0 0 102 101.99" preserveAspectRatio="none meet"><defs><linearGradient x1="51" y1="101.99" x2="51" gradientUnits="userSpaceOnUse" id="A"><stop offset="0" stop-color="#0b7abf"/><stop offset="1" stop-color="#368dcc"/></linearGradient></defs><path d="M89.25,0H12.75A12.75,12.75,0,0,0,0,12.75v76.5A12.75,12.75,0,0,0,12.75,102h76.5A12.75,12.75,0,0,0,102,89.25V12.75A12.75,12.75,0,0,0,89.25,0ZM44.37,77.26a6.12,6.12,0,0,1-6.12,6.12H19.38a6.12,6.12,0,0,1-6.12-6.12V19.38a6.12,6.12,0,0,1,6.12-6.12H38.25a6.12,6.12,0,0,1,6.12,6.12Zm44.37-25.5a6.12,6.12,0,0,1-6.12,6.12H63.75a6.12,6.12,0,0,1-6.12-6.12V19.38a6.12,6.12,0,0,1,6.12-6.12H82.62a6.12,6.12,0,0,1,6.12,6.12Z" fill="url(#A)"/></svg>