<svg xmlns="http://www.w3.org/2000/svg" viewBox="0 0 59.9 59.9"><circle cx="29.9" cy="29.9" r="29.9" fill="#325c80"/><g fill="#fff"><path d="M10.8 13.8h8.4v6.7h-8.4z"/><path d="M12.1 15H18v4.4h-5.9zm18.7-1.2h8.4v6.7h-8.4z"/><path d="M32.1 15H38v4.4h-5.9zm8.4-1.2h8.4v6.7h-8.4z"/><path d="M41.8 15h5.9v4.4h-5.9zm-1.3 7.5h8.4v6.7h-8.4z"/><path d="M41.8 23.7h5.9v4.4h-5.9zm-11.2 7.2H39v6.7h-8.4z"/><path d="M31.8 32h5.9v4.4h-5.9zm-11-9.5h8.4v6.7h-8.4z"/><path d="M22.1 23.7H28v4.4h-5.9zm-11.2 7.2h8.4v6.7h-8.4z"/><path d="M12.2 32h5.9v4.4h-5.9zm8.5-1.4h8.4v6.7h-8.4z"/><path d="M22 31.8h5.9v4.4H22zM10.8 39h8.4v6.7h-8.4z"/><path d="M12.1 40.2H18v4.4h-5.9zm8.6-.8h8.4v6.7h-8.4z"/><path d="M21.9 40.5h5.9v4.4h-5.9zm18.8-1.3h8.4v6.7h-8.4z"/><path d="M41.9 40.3h5.9v4.4h-5.9z"/></g></svg>