<svg xmlns="http://www.w3.org/2000/svg" viewBox="0 0 60 59.9"><ellipse cx="30" cy="29.9" rx="30" ry="29.9" fill="#325c80"/><g fill="#fff"><ellipse cx="30" cy="27.4" rx="9.3" ry="3.9"/><path d="M39.7 28.8c-.5 2.1-4.6 3.7-9.7 3.7s-9.2-1.6-9.7-3.7v15.4c0 2.3 4.4 4.1 9.7 4.1s9.7-1.8 9.7-4.1V28.8zM19.6 15.7l-1.6.1.3 5.4-5.4-.2v1.5l7 .2z"/><path d="M18.5 22.4l-6.4-6.1 1.1-1.2 6.4 6.2zm29.3.5l-.1-1.5-5.4.3.2-5.5h-1.6l-.2 7.1z"/><path d="M42.3 22.8l-1.1-1.1 6.4-6.1 1.1 1.1zM34.9 13l-1.1-1-3.6 4-3.7-4-1.2 1.1 4.9 5.1z"/><path d="M29.3 7.9h1.6v9h-1.6zm19.8 30.3l1-1.1-4-3.6 4-3.7-1.1-1.1-5.2 4.8z"/><path d="M45.3 32.7h8.1v1.6h-8.1zm-34.5-4l-1.1 1.1 4.1 3.6-4 3.7 1 1.1 5.2-4.8z"/><path d="M6.6 32.7h7.9v1.6H6.6z"/></g></svg>