<svg xmlns="http://www.w3.org/2000/svg" viewBox="0 0 59.2 59.2"><circle cx="29.6" cy="29.6" r="29.6" fill="#345d80"/><g fill="#fff"><ellipse cx="29.3" cy="11.4" rx="6.9" ry="2.9"/><path d="M36.4 12.5c-.4 1.5-3.4 2.7-7.1 2.7s-6.8-1.2-7.1-2.7v11.4c0 1.7 3.2 3 7.2 3s7.2-1.4 7.2-3l-.2-11.4z"/><ellipse cx="18.5" cy="30.6" rx="6.9" ry="2.9"/><path d="M25.6 31.6c-.4 1.5-3.4 2.7-7.1 2.7s-6.8-1.2-7.1-2.7V43c0 1.7 3.2 3 7.1 3s7.1-1.3 7.1-3V31.6z"/><ellipse cx="40.7" cy="30.6" rx="6.9" ry="2.9"/><path d="M47.8 31.6c-.4 1.5-3.4 2.7-7.1 2.7s-6.8-1.2-7.1-2.7V43c0 1.7 3.2 3 7.2 3s7.2-1.3 7.2-3l-.2-11.4zM26.5 37h6.2v3.5h-6.2zm-5-13.3l-3.3 3.2h.5c1.2 0 2.5.1 3.7.5l.9-.9c-1.1-.5-1.9-1.3-1.9-2l.1-.8zm18.7 3.2h.4l-3.4-3.4v1c0 .7-.6 1.4-1.7 1.9l.9.9c1.2-.3 2.5-.5 3.8-.4z"/></g></svg>