<svg xmlns="http://www.w3.org/2000/svg" viewBox="0 0 59.3 59.3"><circle cx="29.7" cy="29.7" r="29.7" fill="#325c80"/><g fill="#fff"><ellipse cx="24.3" cy="19.8" rx="9.2" ry="3.9"/><path d="M32.7 34.5v-2.4c0-1.2.5-2.4 1.3-3.3v-7.7c-.5 2.1-4.6 3.7-9.6 3.7s-9.1-1.6-9.5-3.6v15.2c0 2.2 4.3 4.1 9.6 4.1 2.3 0 4.5-.3 6.6-1.1v-.3c-.1-1.7.5-3.3 1.6-4.6z"/></g><g fill="none" stroke="#fff" stroke-miterlimit="10"><path d="M30.8 39.4c.1 3.8 3.3 6.8 7.2 6.7 3.8-.1 6.8-3.3 6.7-7.2-.1-1.6-.7-3.2-1.7-4.4v-2.4c0-2.9-2.4-5.2-5.2-5.2-1.5 0-3 .7-4 1.9m.4 3.4c0-1.9 1.6-3.5 3.5-3.5s3.5 1.6 3.5 3.5v.9c-2.1-1.2-4.8-1.2-7 0v-.9zM36.4 43l-3.2-3.2 1.2-1.2 2 2L41 36l1.2 1.2-5.8 5.8z" stroke-width=".47"/><path d="M34 28.9c-.8.9-1.2 2.1-1.3 3.3v2.4c-1.1 1.3-1.7 2.9-1.7 4.6v.3" stroke-width=".19"/></g><path d="M34.4 38.5l2 2 4.6-4.6 1.2 1.2-5.8 5.9-3.2-3.3z" fill="#fff"/></svg>