<svg xmlns="http://www.w3.org/2000/svg" viewBox="0 0 60 59.9"><ellipse cx="30" cy="29.9" rx="30" ry="29.9" fill="#325c80"/><g fill="#fff"><path d="M47.5 37.1l-.7-.3c-2.4-.8-4.8-1.2-7.3-1.2s-5.1.4-7.5 1.2l-.6.2V16.2l.3-.1c2.5-.8 5.1-1.2 7.8-1.2 2.6 0 5.2.4 7.7 1.3l.3.1v20.8zM32.4 16.9v18.9c2.3-.7 4.7-1 7.2-1 2.4 0 4.7.3 7 1V16.9c-2.3-.7-4.6-1.1-7-1.1-2.5 0-4.9.3-7.2 1.1zM49 38.8H31v-1h17.1V17.7h.9z"/><path d="M14.7 27.3v-9.7h-.9v9.9c.3 0 .6-.1.9-.2zm16.5-11.2c-2.5-.8-5.1-1.2-7.8-1.2-2.6 0-5.2.4-7.7 1.3l-.3.1v11.1c.3-.1.6-.1.9-.1V16.9c2.3-.7 4.6-1.1 7-1.1s4.9.4 7.2 1.1v18.9c-1.4-.4-2.8-.7-4.2-.9v1c1.5.2 3 .5 4.5 1l.6.2V16.2l-.2-.1zm-4.8 21.7h5v.9h-5z"/><ellipse cx="18.1" cy="30.9" rx="6.9" ry="2.9"/><path d="M25.3 31.9c-.4 1.5-3.5 2.8-7.2 2.8s-6.9-1.2-7.2-2.8v11.5c0 1.7 3.2 3.1 7.3 3.1s7.3-1.4 7.3-3.1l-.2-11.5z"/></g></svg>