<svg xmlns="http://www.w3.org/2000/svg" viewBox="0 0 60.6 60.6"><style><![CDATA[.C{fill:#325c80}.D{fill:#fff}]]></style><circle cx="30.3" cy="30.3" r="30.3" class="C"/><path d="M9.8 13h41v34.7h-41z" class="D"/><path d="M11 14.1h11.9v9.3H11z" class="C"/><path d="M14.2 18.3h5.4v1h-5.4z" class="D"/><path d="M23.7 14.1h12.8v9.3H23.7z" class="C"/><path d="M27.2 18.3h5.9v1h-5.9z" class="D"/><path d="M38 14.1h11.9v9.3H38z" class="C"/><path d="M41.2 18.3h5.4v1h-5.4z" class="D"/><path d="M38 24.5h11.3v11.3H38z" class="C"/><path d="M41.1 29.5h5.2v1.2h-5.2z" class="D"/><path d="M10.7 24.5h11.9v11.3H10.7z" class="C"/><path d="M14 29.5h5.4v1.2H14z" class="D"/><path d="M23.7 24.5h12.9v11.6H23.7z" class="C"/><path d="M27.2 29.6h5.9v1.3h-5.9z" class="D"/><path d="M11 37.2h11.9v9.3H11z" class="C"/><path d="M14.2 41.3h5.4v1h-5.4z" class="D"/><path d="M23.7 37.2h12.9v9.3H23.7z" class="C"/><path d="M27.2 41.3h5.9v1h-5.9z" class="D"/><path d="M38 37.2h11.3v9.3H38z" class="C"/><path d="M41.1 41.3h5.2v1h-5.2z" class="D"/></svg>