<svg xmlns="http://www.w3.org/2000/svg" viewBox="0 0 59.9 59.9"><circle cx="29.9" cy="29.9" r="29.9" fill="#325c80"/><g fill="#fff"><path d="M48.1 39.1c.1-.3.1-.6.1-.9l2-1.1-.8-2.8-2.1.1c-.4-.6-.8-1-1.3-1.4l.1-2.1-2.6-.7-.9 1.9c-.6.1-1.3.3-1.8.6L39 31.5l-2 2 1.2 2c-.1.2-.2.5-.2.8-.1.3-.1.6-.1.9l-2 1.1.8 2.8 2.1-.2c.4.6.8 1 1.3 1.4l-.1 2.2 2.6.7.9-1.9c.6-.1 1.3-.3 1.8-.6l1.8 1.2 2-2-1.2-2c.1-.2.2-.5.2-.8zm.4 2.8l-1.4 1.5-1.5-1-.2-.2-.2.1c-.5.3-1.1.5-1.7.6h-.3l-.1.2-.8 1.5-1.9-.5v-2l-.1-.1c-.5-.4-.9-.8-1.2-1.3l-.1-.3h-.3l-1.7.1-.6-2 1.6-.9.2-.1v-.3c0-.3.1-.5.1-.8.1-.3.1-.5.3-.8l.1-.3-.1-.2-1-1.6L39 32l1.5 1 .2.2.2-.1c.5-.3 1.1-.4 1.7-.5h.3l.1-.2.7-1.6 1.9.5v2l.2.2c.5.3.9.8 1.2 1.3l.1.2h.3l1.7-.2.6 2-1.6 1-.3.2v.3c0 .3-.1.5-.1.8-.1.3-.1.5-.3.8l-.1.3.1.2 1.1 1.5zm-4.7-7c-1.5-.4-3 .5-3.3 2v.1c-.4 1.5.4 3.1 1.9 3.6 1.5.4 3-.5 3.3-2v-.1c.4-1.6-.5-3.2-1.9-3.6zm-1 3.8c-.5-.2-.8-.7-.7-1.2s.6-.8 1.1-.7c.5.2.8.7.7 1.2-.1.4-.5.8-1.1.7z"/><path d="M24.9 18.5v-3.8H9.6v28.1h27.9v-1.3H10.9V22.3h35.7v11.3h1.3V18.5z"/></g></svg>