<?xml version="1.0" encoding="UTF-8" standalone="no"?>
<svg
   xmlns:dc="http://purl.org/dc/elements/1.1/"
   xmlns:cc="http://creativecommons.org/ns#"
   xmlns:rdf="http://www.w3.org/1999/02/22-rdf-syntax-ns#"
   xmlns:svg="http://www.w3.org/2000/svg"
   xmlns="http://www.w3.org/2000/svg"
   xmlns:sodipodi="http://sodipodi.sourceforge.net/DTD/sodipodi-0.dtd"
   xmlns:inkscape="http://www.inkscape.org/namespaces/inkscape"
   width="13.02949"
   height="17.993078"
   viewBox="0 0 13.02949 17.993078"
   version="1.1"
   id="svg11383"
   sodipodi:docname="Elixir_Purple.svg"
   inkscape:version="0.92.3 (2405546, 2018-03-11)">
  <sodipodi:namedview
     pagecolor="#ffffff"
     bordercolor="#666666"
     borderopacity="1"
     objecttolerance="10"
     gridtolerance="10"
     guidetolerance="10"
     inkscape:pageopacity="0"
     inkscape:pageshadow="2"
     inkscape:window-width="1920"
     inkscape:window-height="1017"
     id="namedview11385"
     showgrid="false"
     fit-margin-top="0"
     fit-margin-left="0"
     fit-margin-right="0"
     fit-margin-bottom="0"
     inkscape:zoom="48.111111"
     inkscape:cx="7.2033866"
     inkscape:cy="8.9991974"
     inkscape:window-x="-8"
     inkscape:window-y="-8"
     inkscape:window-maximized="1"
     inkscape:current-layer="svg11383" />
  <defs
     id="defs11348">
    <linearGradient
       id="ee3107cb-f796-4406-911c-5a17e68e91fb"
       x1="158.08447"
       y1="192.33629"
       x2="147.53897"
       y2="201.83781"
       gradientTransform="rotate(-22.27503,-389.71138,467.04954)"
       gradientUnits="userSpaceOnUse">
      <stop
         offset="0"
         stop-color="#5a468a"
         stop-opacity="0.8"
         id="stop11328" />
      <stop
         offset="1"
         stop-color="#5a468a"
         id="stop11330" />
    </linearGradient>
    <linearGradient
       id="e74d3aef-2017-49d8-a83e-c6414265589b"
       x1="1.7963099"
       y1="12.69456"
       x2="14.56845"
       y2="12.69456"
       gradientUnits="userSpaceOnUse"
       gradientTransform="translate(1.7966134,0.00611972)">
      <stop
         offset="0.00102"
         stop-color="#5a468a"
         id="stop11333" />
      <stop
         offset="1"
         stop-color="#5a468a"
         stop-opacity="0.6"
         id="stop11335" />
    </linearGradient>
    <linearGradient
       id="b5250439-e639-4530-8f00-c26def2b7f11"
       x1="8.1800203"
       y1="11.12855"
       x2="8.1800203"
       y2="17.99999"
       gradientUnits="userSpaceOnUse"
       gradientTransform="translate(1.7966134,0.00611972)">
      <stop
         offset="0"
         stop-color="#5a468a"
         stop-opacity="0.6"
         id="stop11338" />
      <stop
         offset="1"
         stop-color="#5a468a"
         stop-opacity="0.3"
         id="stop11340" />
    </linearGradient>
    <linearGradient
       id="f69a20b2-df71-45a7-8f9f-27fa69181fc3"
       x1="2.7369699"
       y1="12.44588"
       x2="14.56845"
       y2="12.44588"
       gradientUnits="userSpaceOnUse"
       gradientTransform="translate(1.7966134,0.00611972)">
      <stop
         offset="0"
         stop-color="#5a468a"
         stop-opacity="0.8"
         id="stop11343" />
      <stop
         offset="1"
         stop-color="#5a468a"
         stop-opacity="0.6"
         id="stop11345" />
    </linearGradient>
  </defs>
  <g
     id="abb3595c-bba7-4eb6-87f2-516b155f6903"
     transform="translate(-1.7966134,-0.00611972)">
    <g
       id="g11378">
      <path
         d="m 13.79791,2.85964 c -0.1323,-0.02266 -0.285,-0.05775 -0.45375,-0.10429 v 0 C 13.31916,2.74744 13.28529,2.73864 13.26006,2.73147 13.08611,2.68209 12.83834,2.59633 12.83342,2.59365 12.78296,2.57158 12.71269,2.54965 12.66095,2.53086 12.60867,2.51186 12.53946,2.48507 12.48795,2.4641 a 10.868,10.868 0 0 1 -1.00872,-0.46273 5.91657,5.91657 0 0 1 -1.126,-0.734 10.79579,10.79579 0 0 1 -2.14754,3.3599 C 6.12152,6.13228 3.71914,6.78463 2.97224,7.921 a 6.387,6.387 0 1 0 11.55266,4.46605 l 0.0042,0.0015 a 5.06434,5.06434 0 0 0 0.0104,-1.12214 C 14.28473,9.56967 13.21833,8.14047 13.11675,5.71241 a 8.4705,8.4705 0 0 1 0.82026,-2.832 C 13.89426,2.87506 13.848,2.86823 13.79791,2.85964 Z"
         id="path11350"
         inkscape:connector-curvature="0"
         style="opacity:0.8;fill:url(#ee3107cb-f796-4406-911c-5a17e68e91fb)" />
      <path
         d="m 14.1221,1.85 c 0.39688,0.44213 -0.02766,0.59053 -0.94687,0.33192 A 5.98236,5.98236 0 0 1 10.78982,0.9125 C 10.39294,0.47037 10.81749,0.32197 11.73819,0.581 A 5.98028,5.98028 0 0 1 14.1221,1.85 Z"
         id="path11352"
         inkscape:connector-curvature="0"
         style="opacity:0.6;fill:#5a468a" />
      <path
         d="M 14.76374,1.98182 C 14.68353,1.81682 14.39166,1.4562 13.33802,0.89559 A 10.49579,10.49579 0 0 0 11.98252,0.30277 C 11.88081,0.26745 11.74433,0.22293 11.64169,0.19042 11.58538,0.17258 11.52807,0.15811 11.47156,0.141 11.41856,0.12491 11.36403,0.11438 11.31083,0.09895 11.26619,0.08601 11.20513,0.0747 11.15983,0.06431 v 0 A 1.896,1.896 0 0 0 10.391,0.03044 0.52543,0.52543 0 0 0 10.0439,0.39416 l -0.02205,0.07 a 0.24994,0.24994 0 0 0 -0.01062,0.0548 0.24993,0.24993 0 0 1 0.01061,-0.0548 0.719,0.719 0 0 0 0.30538,0.78065 5.77414,5.77414 0 0 0 1.15195,0.75653 10.86242,10.86242 0 0 0 1.00873,0.46273 c 0.05154,0.021 0.12075,0.04774 0.173,0.06678 0.05173,0.01882 0.122,0.04071 0.17244,0.06278 0.0049,0.00269 0.25271,0.08844 0.42665,0.13783 0.02524,0.00715 0.05911,0.016 0.08411,0.02387 0.16879,0.04656 0.32145,0.08165 0.45375,0.1043 a 1.34074,1.34074 0 0 0 0.62871,0.0068 v 0 a 0.51905,0.51905 0 0 0 0.347,-0.36356 v -6e-5 l 0.02206,-0.07 A 0.58948,0.58948 0 0 0 14.76374,1.98182 Z M 13.17523,2.1819 A 5.98244,5.98244 0 0 1 10.78983,0.91249 C 10.39294,0.47037 10.81748,0.322 11.73819,0.581 A 5.98022,5.98022 0 0 1 14.1221,1.85 c 0.3969,0.44209 -0.02766,0.59049 -0.94687,0.3319 z"
         id="path11354"
         inkscape:connector-curvature="0"
         style="opacity:0.8;fill:#5a468a" />
      <g
         id="g11358"
         style="opacity:0.6">
        <path
           d="M 12.334,9.73871 C 10.82946,9.4198 9.58663,8.3509 8.11582,7.90138 A 8.57421,8.57421 0 0 0 3.88221,7.52961 C 3.60791,7.60468 3.3383,7.69372 3.07168,7.79105 3.03754,7.83405 3.00144,7.87655 2.97224,7.92098 A 6.387,6.387 0 1 0 14.52489,12.387 l 0.0043,0.0015 A 5.06713,5.06713 0 0 0 14.53951,11.26636 8.17956,8.17956 0 0 0 14.12751,9.74554 4.48154,4.48154 0 0 1 12.334,9.73871 Z"
           id="path11356"
           inkscape:connector-curvature="0"
           style="fill:url(#e74d3aef-2017-49d8-a83e-c6414265589b)" />
      </g>
      <path
         d="M 10.60631,17.52163 A 6.38427,6.38427 0 0 0 14.52489,12.387 l 0.0043,0.0015 c 0.0015,-0.01686 0.0215,-0.18268 0.03237,-0.402 l -0.0079,0.0073 a 8.95348,8.95348 0 0 1 -6.6582,1.80737 8.28661,8.28661 0 0 1 -6.06746,-2.66 L 1.81742,11.12851 a 6.38452,6.38452 0 0 0 8.78889,6.39308 z"
         id="path11360"
         inkscape:connector-curvature="0"
         style="opacity:0.8;fill:url(#b5250439-e639-4530-8f00-c26def2b7f11)" />
      <g
         id="g11364"
         style="opacity:0.6">
        <path
           d="m 14.52489,12.387 0.0043,0.0015 a 5.06713,5.06713 0 0 0 0.01035,-1.12219 C 14.32901,9.86444 13.56575,8.64359 13.24912,6.89265 A 3.274,3.274 0 0 0 11.58887,7.7943 11.61716,11.61716 0 0 0 10.02187,9.9852 10.82031,10.82031 0 0 1 6.38675,13.73945 11.68015,11.68015 0 0 1 2.737,14.93185 6.38232,6.38232 0 0 0 14.52489,12.387 Z"
           id="path11362"
           inkscape:connector-curvature="0"
           style="fill:url(#f69a20b2-df71-45a7-8f9f-27fa69181fc3)" />
      </g>
      <path
         d="m 13.79791,2.85964 c -0.1323,-0.02266 -0.285,-0.05775 -0.45375,-0.10429 v 0 C 13.31916,2.74744 13.28529,2.73864 13.26006,2.73147 13.08611,2.68209 12.83834,2.59633 12.83342,2.59365 12.78296,2.57158 12.71269,2.54965 12.66095,2.53086 12.60867,2.51186 12.53946,2.48507 12.48795,2.4641 a 10.868,10.868 0 0 1 -1.00872,-0.46273 5.91657,5.91657 0 0 1 -1.126,-0.734 10.79579,10.79579 0 0 1 -2.14754,3.3599 C 6.12152,6.13228 3.71914,6.78463 2.97224,7.921 a 6.387,6.387 0 1 0 11.55266,4.46605 l 0.0042,0.0015 a 5.06434,5.06434 0 0 0 0.0104,-1.12214 C 14.28473,9.56967 13.21833,8.14047 13.11675,5.71241 a 8.4705,8.4705 0 0 1 0.82026,-2.832 C 13.89426,2.87506 13.848,2.86823 13.79791,2.85964 Z"
         id="path11366"
         inkscape:connector-curvature="0"
         style="fill:none" />
      <g
         id="g11374">
        <circle
           cx="9.8748999"
           cy="6.2367201"
           r="0.61306"
           id="circle11368"
           style="fill:#5a468a" />
        <circle
           cx="7.3204699"
           cy="9.7107401"
           r="0.81742001"
           id="circle11370"
           style="fill:#5a468a" />
        <circle
           cx="10.69232"
           cy="15.53484"
           r="0.61306"
           id="circle11372"
           style="opacity:0.2;fill:#ffffff" />
      </g>
      <path
         d="m 3.61289,7.28167 a 0.31149,0.31149 0 0 1 0.03066,0.04784 l 0.058,0.15268 A 6.76518,6.76518 0 0 0 4.87419,9.38684 0.327,0.327 0 0 1 4.38253,9.81803 7.41563,7.41563 0 0 1 3.10473,7.74786 2.99961,2.99961 0 0 1 3.61289,7.28167 Z M 1.89463,10.512 A 6.35773,6.35773 0 0 0 1.79663,11.6386 7.30483,7.30483 0 0 0 2.5658,12.60494 0.3269,0.3269 0 1 0 3.03905,12.15385 6.60586,6.60586 0 0 1 1.89463,10.512 Z M 4.3861,12.22617 A 0.32692,0.32692 0 1 0 4.79888,11.71911 6.72567,6.72567 0 0 1 2.7701,8.9919 C 2.74888,8.94026 2.63,8.63565 2.6099,8.58363 a 0.306,0.306 0 0 0 -0.025,-0.039 6.42821,6.42821 0 0 0 -0.37092,0.80493 7.3552,7.3552 0 0 0 2.17212,2.87661 z"
         id="path11376"
         inkscape:connector-curvature="0"
         style="opacity:0.6;fill:#ffffff" />
    </g>
  </g>
  <metadata
     id="metadata11381">
    <rdf:RDF>
      <rdf:li>public:true</rdf:li>
      <rdf:li>sdk:false</rdf:li>
      <rdf:li>category:CXP</rdf:li>
      <cc:Work
         rdf:about="">
        <dc:format>image/svg+xml</dc:format>
        <dc:type
           rdf:resource="http://purl.org/dc/dcmitype/StillImage" />
        <dc:title></dc:title>
      </cc:Work>
    </rdf:RDF>
  </metadata>
</svg>
