<?xml version="1.0" encoding="UTF-8" standalone="no"?>
<svg
   xmlns:dc="http://purl.org/dc/elements/1.1/"
   xmlns:cc="http://creativecommons.org/ns#"
   xmlns:rdf="http://www.w3.org/1999/02/22-rdf-syntax-ns#"
   xmlns:svg="http://www.w3.org/2000/svg"
   xmlns="http://www.w3.org/2000/svg"
   xmlns:sodipodi="http://sodipodi.sourceforge.net/DTD/sodipodi-0.dtd"
   xmlns:inkscape="http://www.inkscape.org/namespaces/inkscape"
   width="13.029542"
   height="17.993143"
   viewBox="0 0 13.029542 17.993143"
   version="1.1"
   id="svg11257"
   sodipodi:docname="Elixir.svg"
   inkscape:version="0.92.3 (2405546, 2018-03-11)">
  <sodipodi:namedview
     pagecolor="#ffffff"
     bordercolor="#666666"
     borderopacity="1"
     objecttolerance="10"
     gridtolerance="10"
     guidetolerance="10"
     inkscape:pageopacity="0"
     inkscape:pageshadow="2"
     inkscape:window-width="1920"
     inkscape:window-height="1017"
     id="namedview11259"
     showgrid="false"
     fit-margin-top="0"
     fit-margin-left="0"
     fit-margin-right="0"
     fit-margin-bottom="0"
     inkscape:zoom="48.111111"
     inkscape:cx="7.2222262"
     inkscape:cy="9.0044074"
     inkscape:window-x="-8"
     inkscape:window-y="-8"
     inkscape:window-maximized="1"
     inkscape:current-layer="svg11257" />
  <defs
     id="defs11216">
    <linearGradient
       id="a131e81e-0cf1-4ca9-9f2c-204f0df255d8"
       x1="160.90083"
       y1="177.92992"
       x2="150.35533"
       y2="187.43143"
       gradientTransform="rotate(-22.27503,-351.70774,467.09996)"
       gradientUnits="userSpaceOnUse">
      <stop
         offset="0"
         stop-color="#fff"
         stop-opacity="0.8"
         id="stop11196" />
      <stop
         offset="1"
         stop-color="#fff"
         id="stop11198" />
    </linearGradient>
    <linearGradient
       id="affdcf41-c1c6-4a1c-a682-e3f326607dc0"
       x1="1.77747"
       y1="12.69972"
       x2="14.54962"
       y2="12.69972"
       gradientUnits="userSpaceOnUse"
       gradientTransform="translate(1.7777738,0.01126404)">
      <stop
         offset="0"
         stop-color="#fff"
         id="stop11201" />
      <stop
         offset="1"
         stop-color="#fff"
         stop-opacity="0.6"
         id="stop11203" />
    </linearGradient>
    <linearGradient
       id="bcd58042-8755-4b70-a7ed-1804f9ccec78"
       x1="8.1611795"
       y1="11.13371"
       x2="8.1611795"
       y2="18.00515"
       gradientUnits="userSpaceOnUse"
       gradientTransform="translate(1.7777738,0.01126404)">
      <stop
         offset="0"
         stop-color="#fff"
         stop-opacity="0.8"
         id="stop11206" />
      <stop
         offset="1"
         stop-color="#fff"
         stop-opacity="0.6"
         id="stop11208" />
    </linearGradient>
    <linearGradient
       id="b942da6c-8336-4ea6-aefc-b540e2701d87"
       x1="2.7181399"
       y1="12.45104"
       x2="14.54962"
       y2="12.45104"
       gradientUnits="userSpaceOnUse"
       gradientTransform="translate(1.7777738,0.01126404)">
      <stop
         offset="0"
         stop-color="#fff"
         id="stop11211" />
      <stop
         offset="1"
         stop-color="#fff"
         stop-opacity="0.6"
         id="stop11213" />
    </linearGradient>
  </defs>
  <g
     id="bac42036-29e6-4066-9d1b-50204ee24d78"
     transform="translate(-1.7777738,-0.01126404)">
    <g
       id="g11252">
      <path
         d="m 13.77907,2.8648 c -0.1323,-0.02266 -0.285,-0.05775 -0.45374,-0.10429 v 0 C 13.30033,2.7526 13.26646,2.7438 13.24123,2.73663 13.06728,2.68724 12.81951,2.60149 12.81459,2.59881 12.76413,2.57674 12.69386,2.55481 12.64213,2.53602 c -0.05228,-0.019 -0.1215,-0.04579 -0.173,-0.06676 a 10.86489,10.86489 0 0 1 -1.00871,-0.46274 5.91641,5.91641 0 0 1 -1.126,-0.734 10.796,10.796 0 0 1 -2.14753,3.3599 C 6.10268,6.13744 3.7003,6.78979 2.9534,7.92615 a 6.387,6.387 0 1 0 11.55266,4.46606 l 0.0043,0.0015 a 5.06434,5.06434 0 0 0 0.01035,-1.12218 C 14.2659,9.57483 13.1995,8.14563 13.09791,5.71757 a 8.4705,8.4705 0 0 1 0.82026,-2.832 C 13.87543,2.88022 13.8292,2.87339 13.77907,2.8648 Z"
         id="path11218"
         inkscape:connector-curvature="0"
         style="opacity:0.8;fill:url(#a131e81e-0cf1-4ca9-9f2c-204f0df255d8)" />
      <path
         d="M 14.10327,1.85513 C 14.50014,2.29726 14.0756,2.44565 13.1564,2.18705 A 5.98241,5.98241 0 0 1 10.771,0.91766 C 10.37413,0.47553 10.79867,0.32713 11.71937,0.58615 a 5.98028,5.98028 0 0 1 2.3839,1.26898 z"
         id="path11220"
         inkscape:connector-curvature="0"
         style="opacity:0.6;fill:#ffffff" />
      <path
         d="M 14.7449,1.987 C 14.66469,1.822 14.37282,1.46138 13.31918,0.90077 A 10.49579,10.49579 0 0 0 11.96368,0.30795 C 11.862,0.27261 11.7255,0.22809 11.62285,0.19558 11.56654,0.17774 11.50924,0.16327 11.45272,0.14612 11.39969,0.13 11.34519,0.11949 11.292,0.10407 11.24735,0.09113 11.18629,0.07982 11.141,0.06943 v 0 A 1.89615,1.89615 0 0 0 10.3722,0.03559 0.52545,0.52545 0 0 0 10.0251,0.39932 l -0.022,0.07 A 0.25,0.25 0 0 0 9.99247,0.52412 0.25051,0.25051 0 0 1 10.003,0.46933 0.719,0.719 0 0 0 10.3084,1.25 a 5.77379,5.77379 0 0 0 1.152,0.75654 10.86121,10.86121 0 0 0 1.00873,0.46273 c 0.05153,0.021 0.12075,0.04774 0.173,0.06677 0.05173,0.01883 0.122,0.04072 0.17245,0.06279 0.0049,0.00269 0.2527,0.08844 0.42665,0.13783 0.02523,0.00715 0.0591,0.016 0.08411,0.02387 0.16879,0.04655 0.32144,0.08165 0.45374,0.1043 a 1.34055,1.34055 0 0 0 0.62872,0.00679 v 0 a 0.51907,0.51907 0 0 0 0.347,-0.36356 v -6e-5 l 0.02206,-0.07 A 0.58945,0.58945 0 0 0 14.7449,1.987 Z M 13.1564,2.18707 A 5.98249,5.98249 0 0 1 10.771,0.91765 C 10.37411,0.47553 10.79865,0.32712 11.71936,0.58616 a 5.98015,5.98015 0 0 1 2.38391,1.269 C 14.50013,2.29725 14.0756,2.44564 13.1564,2.18705 Z"
         id="path11222"
         inkscape:connector-curvature="0"
         style="opacity:0.8;fill:#ffffff" />
      <g
         id="g11230">
        <path
           d="M 3.08589,7.753 A 7.41557,7.41557 0 0 0 4.3637,9.82319 0.327,0.327 0 0 0 4.85535,9.392 6.76518,6.76518 0 0 1 3.68274,7.48735 L 3.62474,7.33467 A 0.31074,0.31074 0 0 0 3.59408,7.28683 2.99957,2.99957 0 0 0 3.08589,7.753 Z"
           id="path11224"
           inkscape:connector-curvature="0"
           style="fill:#ffffff" />
        <path
           d="m 1.87579,10.51717 a 6.35953,6.35953 0 0 0 -0.098,1.1266 7.30474,7.30474 0 0 0 0.76918,0.96634 0.3269,0.3269 0 0 0 0.47325,-0.45109 6.60589,6.60589 0 0 1 -1.14443,-1.64185 z"
           id="path11226"
           inkscape:connector-curvature="0"
           style="fill:#ffffff" />
        <path
           d="M 4.36726,12.23132 A 0.32691,0.32691 0 1 0 4.78004,11.72432 6.72576,6.72576 0 0 1 2.75126,8.99706 C 2.73004,8.94542 2.61116,8.64081 2.59107,8.58879 a 0.30462,0.30462 0 0 0 -0.025,-0.039 6.42552,6.42552 0 0 0 -0.37093,0.80493 7.3551,7.3551 0 0 0 2.17212,2.8766 z"
           id="path11228"
           inkscape:connector-curvature="0"
           style="fill:#ffffff" />
      </g>
      <g
         id="g11234"
         style="opacity:0.6">
        <path
           d="M 12.31517,9.74386 C 10.81062,9.425 9.5678,8.35606 8.097,7.90654 A 8.5741,8.5741 0 0 0 3.86339,7.53477 C 3.58908,7.60984 3.31948,7.69888 3.05285,7.79621 3.01872,7.83921 2.98261,7.8817 2.95341,7.92614 a 6.387,6.387 0 1 0 11.55264,4.46606 l 0.0043,0.0015 A 5.06647,5.06647 0 0 0 14.5207,11.27151 8.17935,8.17935 0 0 0 14.1087,9.75069 4.48136,4.48136 0 0 1 12.3152,9.74381 Z"
           id="path11232"
           inkscape:connector-curvature="0"
           style="fill:url(#affdcf41-c1c6-4a1c-a682-e3f326607dc0)" />
      </g>
      <path
         d="m 10.58747,17.52679 a 6.38426,6.38426 0 0 0 3.91858,-5.13459 l 0.0043,0.0015 c 0.0015,-0.01686 0.0215,-0.18269 0.03237,-0.402 l -0.0079,0.0073 a 8.95348,8.95348 0 0 1 -6.6582,1.80737 8.28663,8.28663 0 0 1 -6.06746,-2.66 L 1.79858,11.13372 a 6.38452,6.38452 0 0 0 8.78889,6.39308 z"
         id="path11236"
         inkscape:connector-curvature="0"
         style="opacity:0.8;fill:url(#bcd58042-8755-4b70-a7ed-1804f9ccec78)" />
      <g
         id="g11240"
         style="opacity:0.8">
        <path
           d="m 14.50605,12.3922 0.0043,0.0015 A 5.06647,5.06647 0 0 0 14.5207,11.27151 C 14.31017,9.86964 13.54692,8.64879 13.23029,6.89785 A 3.27407,3.27407 0 0 0 11.57,7.79949 11.61768,11.61768 0 0 0 10.003,9.9904 10.82037,10.82037 0 0 1 6.36789,13.74465 11.68013,11.68013 0 0 1 2.71814,14.937 6.38231,6.38231 0 0 0 14.50605,12.3922 Z"
           id="path11238"
           inkscape:connector-curvature="0"
           style="fill:url(#b942da6c-8336-4ea6-aefc-b540e2701d87)" />
      </g>
      <path
         d="m 13.77907,2.8648 c -0.1323,-0.02266 -0.285,-0.05775 -0.45374,-0.10429 v 0 C 13.30033,2.7526 13.26646,2.7438 13.24123,2.73663 13.06728,2.68724 12.81951,2.60149 12.81459,2.59881 12.76413,2.57674 12.69386,2.55481 12.64213,2.53602 c -0.05228,-0.019 -0.1215,-0.04579 -0.173,-0.06676 a 10.86489,10.86489 0 0 1 -1.00871,-0.46274 5.91641,5.91641 0 0 1 -1.126,-0.734 10.796,10.796 0 0 1 -2.14753,3.3599 C 6.10268,6.13744 3.7003,6.78979 2.9534,7.92615 a 6.387,6.387 0 1 0 11.55266,4.46606 l 0.0043,0.0015 a 5.06434,5.06434 0 0 0 0.01035,-1.12218 C 14.2659,9.57483 13.1995,8.14563 13.09791,5.71757 a 8.4705,8.4705 0 0 1 0.82026,-2.832 C 13.87543,2.88022 13.8292,2.87339 13.77907,2.8648 Z"
         id="path11242"
         inkscape:connector-curvature="0"
         style="fill:none" />
      <g
         id="g11250">
        <circle
           cx="9.8560696"
           cy="6.2418699"
           r="0.61306"
           id="circle11244"
           style="fill:#ffffff" />
        <circle
           cx="7.30164"
           cy="9.7159004"
           r="0.81742001"
           id="circle11246"
           style="fill:#ffffff" />
        <circle
           cx="10.67348"
           cy="15.54"
           r="0.61306"
           id="circle11248"
           style="opacity:0.2;fill:#5a468a" />
      </g>
    </g>
  </g>
  <metadata
     id="metadata11255">
    <rdf:RDF>
      <rdf:li>public:true</rdf:li>
      <rdf:li>sdk:false</rdf:li>
      <rdf:li>category:CXP</rdf:li>
      <cc:Work
         rdf:about="">
        <dc:format>image/svg+xml</dc:format>
        <dc:type
           rdf:resource="http://purl.org/dc/dcmitype/StillImage" />
        <dc:title></dc:title>
      </cc:Work>
    </rdf:RDF>
  </metadata>
</svg>
