<svg xmlns="http://www.w3.org/2000/svg" xmlns:xlink="http://www.w3.org/1999/xlink" viewBox="0 0 53 36"><defs><linearGradient id="A" x1="34.21" y1="17.85" x2="18.79" y2="-8.85" gradientUnits="userSpaceOnUse"><stop offset="0" stop-color="#00ad69"/><stop offset="1" stop-color="#7ccc6c"/></linearGradient><linearGradient id="B" y1="25.85" y2="-.85" xlink:href="#A"/><linearGradient id="C" y1="33.85" y2="7.15" xlink:href="#A"/><linearGradient id="D" x1="6" y1="30" x2="47" y2="30" xlink:href="#A"/><linearGradient id="E" x1="10.09" y1="27.79" x2="-4.09" y2="3.21" xlink:href="#A"/><linearGradient id="F" x1="57.09" y1="27.79" x2="42.91" y2="3.21" xlink:href="#A"/></defs><rect x="2" width="49" height="9" rx="2" fill="#fff"/><path d="M49,2V7H4V2H49m0-2H4A2,2,0,0,0,2,2V7A2,2,0,0,0,4,9H49a2,2,0,0,0,2-2V2a2,2,0,0,0-2-2Z" fill="url(#A)"/><path d="M49 1a1 1 0 0 1 1 1v5a1 1 0 0 1-1 1H4a1 1 0 0 1-1-1V2a1 1 0 0 1 1-1h45m0-1H4a2 2 0 0 0-2 2v5a2 2 0 0 0 2 2h45a2 2 0 0 0 2-2V2a2 2 0 0 0-2-2zM37 4h1v1h-1zm2 0h1v1h-1zm2 0h1v1h-1zm2 0h1v1h-1zm2 0h1v1h-1zM25 4h1v1h-1zm2 0h1v1h-1zm2 0h1v1h-1zm2 0h1v1h-1zm2 0h1v1h-1zm2 0h1v1h-1zM13 4h1v1h-1zm2 0h1v1h-1zm2 0h1v1h-1zm2 0h1v1h-1zm2 0h1v1h-1zm2 0h1v1h-1zM7 4h1v1H7zm2 0h1v1H9zm2 0h1v1h-1z" fill="#8c9aa6"/><rect x="2" y="8" width="49" height="9" rx="2" fill="#fff"/><path d="M49,10v5H4V10H49m0-2H4a2,2,0,0,0-2,2v5a2,2,0,0,0,2,2H49a2,2,0,0,0,2-2V10a2,2,0,0,0-2-2Z" fill="url(#B)"/><path d="M49 9a1 1 0 0 1 1 1v5a1 1 0 0 1-1 1H4a1 1 0 0 1-1-1v-5a1 1 0 0 1 1-1h45m0-1H4a2 2 0 0 0-2 2v5a2 2 0 0 0 2 2h45a2 2 0 0 0 2-2v-5a2 2 0 0 0-2-2zm-12 4h1v1h-1zm2 0h1v1h-1zm2 0h1v1h-1zm2 0h1v1h-1zm2 0h1v1h-1zm-20 0h1v1h-1zm2 0h1v1h-1zm2 0h1v1h-1zm2 0h1v1h-1zm2 0h1v1h-1zm2 0h1v1h-1zm-22 0h1v1h-1zm2 0h1v1h-1zm2 0h1v1h-1zm2 0h1v1h-1zm2 0h1v1h-1zm2 0h1v1h-1zM7 12h1v1H7zm2 0h1v1H9zm2 0h1v1h-1z" fill="#8c9aa6"/><rect x="2" y="16" width="49" height="9" rx="2" fill="#fff"/><path d="M49,18v5H4V18H49m0-2H4a2,2,0,0,0-2,2v5a2,2,0,0,0,2,2H49a2,2,0,0,0,2-2V18a2,2,0,0,0-2-2Z" fill="url(#C)"/><path d="M49 17a1 1 0 0 1 1 1v5a1 1 0 0 1-1 1H4a1 1 0 0 1-1-1v-5a1 1 0 0 1 1-1h45m0-1H4a2 2 0 0 0-2 2v5a2 2 0 0 0 2 2h45a2 2 0 0 0 2-2v-5a2 2 0 0 0-2-2zm-12 4h1v1h-1zm2 0h1v1h-1zm2 0h1v1h-1zm2 0h1v1h-1zm2 0h1v1h-1zm-20 0h1v1h-1zm2 0h1v1h-1zm2 0h1v1h-1zm2 0h1v1h-1zm2 0h1v1h-1zm2 0h1v1h-1zm-22 0h1v1h-1zm2 0h1v1h-1zm2 0h1v1h-1zm2 0h1v1h-1zm2 0h1v1h-1zm2 0h1v1h-1zM7 20h1v1H7zm2 0h1v1H9zm2 0h1v1h-1z" fill="#8c9aa6"/><rect x="6" y="24" width="41" height="12" rx="2" fill="#fff"/><path d="M45,26v8H8V26H45m0-2H8a2,2,0,0,0-2,2v8a2,2,0,0,0,2,2H45a2,2,0,0,0,2-2V26a2,2,0,0,0-2-2Z" fill="url(#D)"/><path d="M45 25a1 1 0 0 1 1 1v8a1 1 0 0 1-1 1H8a1 1 0 0 1-1-1v-8a1 1 0 0 1 1-1h37m0-1H8a2 2 0 0 0-2 2v8a2 2 0 0 0 2 2h37a2 2 0 0 0 2-2v-8a2 2 0 0 0-2-2zm-34 4h1v4h-1zm3 0h1v4h-1zm3 0h1v4h-1zm3 0h1v4h-1zm3 0h1v4h-1zm3 0h1v4h-1zm3 0h1v4h-1zm3 0h1v4h-1zm3 0h1v4h-1zm3 0h1v4h-1zm3 0h1v4h-1z" fill="#8c9aa6"/><rect width="6" height="31" rx="2" fill="#fff"/><path d="M4,2V29H2V2H4M4,0H2A2,2,0,0,0,0,2V29a2,2,0,0,0,2,2H4a2,2,0,0,0,2-2V2A2,2,0,0,0,4,0Z" fill="url(#E)"/><path d="M4,1A1,1,0,0,1,5,2V29a1,1,0,0,1-1,1H2a1,1,0,0,1-1-1V2A1,1,0,0,1,2,1H4M4,0H2A2,2,0,0,0,0,2V29a2,2,0,0,0,2,2H4a2,2,0,0,0,2-2V2A2,2,0,0,0,4,0Z" fill="#8c9aa6"/><rect x="47" width="6" height="31" rx="2" fill="#fff"/><path d="M51,2V29H49V2h2m0-2H49a2,2,0,0,0-2,2V29a2,2,0,0,0,2,2h2a2,2,0,0,0,2-2V2a2,2,0,0,0-2-2Z" fill="url(#F)"/><path d="M51,1a1,1,0,0,1,1,1V29a1,1,0,0,1-1,1H49a1,1,0,0,1-1-1V2a1,1,0,0,1,1-1h2m0-1H49a2,2,0,0,0-2,2V29a2,2,0,0,0,2,2h2a2,2,0,0,0,2-2V2a2,2,0,0,0-2-2Z" fill="#8c9aa6"/></svg>