<svg xmlns="http://www.w3.org/2000/svg" width="452.515" height="397.973" viewBox="0 0 119.728 105.297"><style><![CDATA[.B{dominant-baseline:auto}]]></style><path d="M31.962 0a1.75 1.75 0 0 0-1.498.844L.253 50.82a1.75 1.75 0 0 0-.016 1.787l30.213 51.82a1.75 1.75 0 0 0 1.512.869h54.74a1.75 1.75 0 0 0 1.498-.846l31.275-51.82a1.75 1.75 0 0 0-.016-1.834L88.185.82A1.75 1.75 0 0 0 86.703 0z" fill="#8c9aa6" class="B"/><path d="M35.052 3.5h48.465L71.08 23.094H46.8z" fill="#d0d5de" class="B"/><path d="M86.69 5.03l28.127 44.945H62.896L48.888 26.594h23.154a1.75 1.75 0 0 0 1.477-.812z" fill="#f4f6f8" fill-opacity=".995" class="B"/><path d="M31.956 5.142l11.77 19.646L26.68 49.976H4.853z" fill="#b5bdc9" class="B"/><path d="M45.7 28.1l14.162 23.64L44.61 78.158l-14.94-26.352z" fill="#fff" class="B"/><path d="M4.796 53.476H26.59l15.988 28.197-10.623 18.385z" fill="#b5bdc9" class="B"/><path d="M62.913 53.476h51.963l-28.25 46.81-13.13-19.61a1.75 1.75 0 0 0-1.453-.775H47.646z" fill="#f4f6f8" class="B"/><path d="M45.622 83.402H71.11l12.316 18.395h-48.43z" fill="#d0d5de" class="B"/><path d="M83.517 3.5L71.08 23.094H46.8l2.098 3.5h23.154a1.75 1.75 0 0 0 1.477-.812L86.7 5.03l-.97-1.513zm-.092 98.297L71.1 83.402H45.55l2.098-3.5h24.426a1.75 1.75 0 0 1 1.477.813l13.078 19.572-.996 1.492z" fill="#bbc4cc" class="B"/></svg>