<svg xmlns="http://www.w3.org/2000/svg" viewBox="0 0 48 48"><defs><linearGradient id="A" x1="3.43" y1="36.85" x2="43.49" y2="11.82" gradientUnits="userSpaceOnUse"><stop offset="0" stop-color="#7ccc6c"/><stop offset="1" stop-color="#009271"/></linearGradient><clipPath id="B"><path d="M9.76 11.52h25v25h-25z" fill="none"/></clipPath></defs><circle cx="24" cy="24" r="24" fill="url(#A)"/><g clip-path="url(#B)"><g clip-path="url(#B)" fill="#fff"><path d="M26.66 29.7l-1.36.14c-.3 0-.43.3-.5.58l-.22 1c-.07.36.3.36.57.43l1.44-.43c.57 0 .7-1 .7-1.3a.54.54 0 0 0-.64-.43m-16.9 6.83L20.7 26.47l-1.2-1-9.74 11.06z"/><path d="M33.25 20.5l-1.07.15a.58.58 0 0 0-.65.5l-.07 1.44a.13.13 0 0 0 0 .06.51.51 0 0 0 .51.51l.8.2a.57.57 0 0 0 .64-.5l.35-1.87a.49.49 0 0 0-.5-.48m1.5-4.6a4.37 4.37 0 1 0-7 3.53 1.46 1.46 0 0 0-.5.28l-.86-.8a.54.54 0 0 0-.78 0l-5.48 4.88-.07.08a.45.45 0 0 0 .07.64l1.3 1.23c.2.2.64.14.93-.22l2.15-2.5a26 26 0 0 1 2.43-2.38c.15-.07.22-.14.08.08a27 27 0 0 0-2.94 4.17c-.36.7-1.93 3.73-1.22 4.3.08.07.22.15.57.07a6.88 6.88 0 0 0 1.79-.43A9.87 9.87 0 0 0 27.94 27c.94-.87 2.65-2.73 2.94-4.46a3.65 3.65 0 0 0-.54-2.3 4.45 4.45 0 0 0 4.42-4.38M27 15.9v-.1a3.25 3.25 0 0 1 3.3-3.19 3.31 3.31 0 0 1 0 6.61 3 3 0 0 1-.59-.07v-.58a3.11 3.11 0 0 0 1.65-1.08c.8-.8.8-2.5-.36-2.87-.93-.3-2 .65-2.3 1.44a2.69 2.69 0 0 0 .15 2.51v.3a3.34 3.34 0 0 1-1.86-3"/></g></g></svg>