<svg xmlns="http://www.w3.org/2000/svg" viewBox="0 0 48 10"><rect x=".5" y=".5" width="47" height="9" rx="1.5" fill="#fff"/><path d="M46 1a1 1 0 0 1 1 1v6a1 1 0 0 1-1 1H2a1 1 0 0 1-1-1V2a1 1 0 0 1 1-1h44m0-1H2a2 2 0 0 0-2 2v6a2 2 0 0 0 2 2h44a2 2 0 0 0 2-2V2a2 2 0 0 0-2-2zM32 4h10v2H32z" fill="#8c9aa6"/><path d="M1.548 1.632h25.795v6.622H1.548z" fill="#364149" paint-order="normal"/><text xml:space="preserve" x="7.132" y="6.753" font-size="40" font-family="sans-serif" letter-spacing="0" word-spacing="0" fill="#fff"><tspan x="7.132" y="6.753" font-size="5.333">DDos</tspan></text></svg>