<svg xmlns="http://www.w3.org/2000/svg" width="1369.436" height="487.453" viewBox="0 0 362.33 128.972"><path d="M44.33 84.556c-7.345 2.795-13.305 2.375-20.502.552C12.325 81.358 4.697 73.82 4 64.88c.13-10.8 10.607-18.344 21.21-21.61 6.895-1.812 12.557-.77 19.277 1.1 5.04-16.53 20.748-26.96 42.734-29.883 14.993-1.134 29.306 3.917 39.466 12.805 11.842-13.14 28.167-26.06 64.3-22.79 18.773.87 34.616 10.496 44.742 22.95 11.887-9.605 28.742-16.974 52.48-10.484 15.35 6.228 24.427 11.224 30.05 27.214 17.648-6.034 39.438 5.164 40.065 18.804.435 18.504-25.12 27.372-39.97 21.545-6.74 18.087-19.07 25.05-39.404 29.67-14.16 2-30.754-1.942-43.373-12.568-13.157 15.867-31.68 24.552-59.176 23.216-23.265-.935-37.13-9.194-49.446-23.098-12.84 10.134-26.2 14.38-44.336 12.047-14.758-2.352-32.1-10.125-38.288-29.234z" fill="#fff" stroke="#cbd4e0" stroke-width="8"/></svg>