<svg xmlns="http://www.w3.org/2000/svg" viewBox="0 0 150 34.8" fill="#36424a"><path d="M90.8 15.7V5.9h3v9.6c0 3.2 1.6 4.8 4.3 4.8s4.3-1.5 4.3-4.7V5.9h3v9.6c0 5-2.9 7.6-7.3 7.6s-7.3-2.5-7.3-7.4zm-33 0V5.9h3v9.6c0 3.2 1.6 4.8 4.3 4.8s4.3-1.5 4.3-4.7V5.9h3v9.6c0 5-2.9 7.6-7.3 7.6s-7.3-2.5-7.3-7.4zm-39.7 0V5.9h3v9.6c0 3.2 1.6 4.8 4.3 4.8s4.3-1.5 4.3-4.7V5.9h3v9.6c0 5-2.9 7.6-7.3 7.6s-7.3-2.5-7.3-7.4zM0 14.4a8.6 8.6 0 0 1 8.4-8.8h.3a9 9 0 0 1 6.7 2.7l-1.9 2.1a6.33 6.33 0 0 0-4.7-2 6 6 0 0 0-5.6 6.4 5.94 5.94 0 0 0 5.5 5.6 6.41 6.41 0 0 0 4.8-2.2l1.9 1.9a8.57 8.57 0 0 1-6.9 3A8.5 8.5 0 0 1 0 14.61zm108.2 6l1.7-2.2a8 8 0 0 0 5.3 2.2c1.8 0 3-.8 3-2.2 0-1.2-.7-1.8-3.8-2.6-3.6-.8-5.6-1.9-5.6-5 0-2.9 2.5-4.9 5.7-4.9a9.07 9.07 0 0 1 6.1 2.1l-1.6 2.3a7 7 0 0 0-4.6-1.7c-1.7 0-2.8.9-2.8 2 0 1.3.8 1.8 4 2.7 3.6.8 5.4 2.2 5.4 4.9 0 3.2-2.5 5-6 5a9.69 9.69 0 0 1-6.81-2.6zm-71.3 2.5v-17h3.3l5.1 8 5.1-8h3.2v16.9h-3V10.7l-5.3 8h-.1l-5.3-7.9v12.1zm39.8-.1V5.9h3v14.2h8.9v2.7zm62 2.5l-1.9.2c-.4 0-.6.4-.7.8l-.3 1.4c-.1.5.4.5.8.6l2-.6c.8 0 1-1.4 1-1.8a.78.78 0 0 0-.9-.6zm-23.6 9.5l15.3-14-1.7-1.4-13.6 15.4zm32.8-22.3l-1.5.2a.82.82 0 0 0-.9.7l-.1 2v.1a.7.7 0 0 0 .7.71l1.1.3a.8.8 0 0 0 .9-.7l.5-2.6a.68.68 0 0 0-.7-.7zm2.1-6.4a6.1 6.1 0 1 0-9.71 4.9 2.2 2.2 0 0 0-.7.39l-1.2-1.1a.78.78 0 0 0-1.1 0l-7.7 6.8-.1.1a.65.65 0 0 0 .1.9l1.8 1.7c.3.3.9.2 1.3-.3.2-.3 1.6-2 3-3.5a35.32 35.32 0 0 1 3.4-3.3c.2-.1.3-.2.1.1a39.71 39.71 0 0 0-4.1 5.8c-.5 1-2.7 5.2-1.7 6 .1.1.3.2.8.1a10.36 10.36 0 0 0 2.5-.6 14.06 14.06 0 0 0 3.8-2.5c1.3-1.2 3.7-3.8 4.1-6.2a5.13 5.13 0 0 0-.76-3.2A6.21 6.21 0 0 0 150 6.1zm-10.8 0V6a4.52 4.52 0 0 1 4.6-4.45 4.6 4.6 0 0 1 0 9.2 4.27 4.27 0 0 1-.81-.09V9.8a4.44 4.44 0 0 0 2.3-1.5c1.1-1.1 1.1-3.5-.5-4-1.3-.4-2.8.9-3.2 2-.5 1.4-.4 2.9.2 3.5v.4a4.63 4.63 0 0 1-2.59-4.1z"/></svg>