<svg xmlns="http://www.w3.org/2000/svg" viewBox="0 0 53 36"><rect x="3" y="1" width="47" height="7" rx="1" fill="#fff"/><path d="M49,2V7H4V2H49m0-2H4A2,2,0,0,0,2,2V7A2,2,0,0,0,4,9H49a2,2,0,0,0,2-2V2a2,2,0,0,0-2-2Z" fill="#83389b"/><path d="M49 1a1 1 0 0 1 1 1v5a1 1 0 0 1-1 1H4a1 1 0 0 1-1-1V2a1 1 0 0 1 1-1h45m0-1H4a2 2 0 0 0-2 2v5a2 2 0 0 0 2 2h45a2 2 0 0 0 2-2V2a2 2 0 0 0-2-2zM37 4h1v1h-1zm2 0h1v1h-1zm2 0h1v1h-1zm2 0h1v1h-1zm2 0h1v1h-1zM25 4h1v1h-1zm2 0h1v1h-1zm2 0h1v1h-1zm2 0h1v1h-1zm2 0h1v1h-1zm2 0h1v1h-1zM13 4h1v1h-1zm2 0h1v1h-1zm2 0h1v1h-1zm2 0h1v1h-1zm2 0h1v1h-1zm2 0h1v1h-1zM7 4h1v1H7zm2 0h1v1H9zm2 0h1v1h-1z" fill="#8c9aa6"/><rect x="3" y="9" width="47" height="7" rx="1" fill="#fff"/><path d="M49,10v5H4V10H49m0-2H4a2,2,0,0,0-2,2v5a2,2,0,0,0,2,2H49a2,2,0,0,0,2-2V10a2,2,0,0,0-2-2Z" fill="#83389b"/><path d="M49 9a1 1 0 0 1 1 1v5a1 1 0 0 1-1 1H4a1 1 0 0 1-1-1v-5a1 1 0 0 1 1-1h45m0-1H4a2 2 0 0 0-2 2v5a2 2 0 0 0 2 2h45a2 2 0 0 0 2-2v-5a2 2 0 0 0-2-2zm-12 4h1v1h-1zm2 0h1v1h-1zm2 0h1v1h-1zm2 0h1v1h-1zm2 0h1v1h-1zm-20 0h1v1h-1zm2 0h1v1h-1zm2 0h1v1h-1zm2 0h1v1h-1zm2 0h1v1h-1zm2 0h1v1h-1zm-22 0h1v1h-1zm2 0h1v1h-1zm2 0h1v1h-1zm2 0h1v1h-1zm2 0h1v1h-1zm2 0h1v1h-1zM7 12h1v1H7zm2 0h1v1H9zm2 0h1v1h-1z" fill="#8c9aa6"/><rect x="3" y="17" width="47" height="7" rx="1" fill="#fff"/><path d="M49,18v5H4V18H49m0-2H4a2,2,0,0,0-2,2v5a2,2,0,0,0,2,2H49a2,2,0,0,0,2-2V18a2,2,0,0,0-2-2Z" fill="#83389b"/><path d="M49 17a1 1 0 0 1 1 1v5a1 1 0 0 1-1 1H4a1 1 0 0 1-1-1v-5a1 1 0 0 1 1-1h45m0-1H4a2 2 0 0 0-2 2v5a2 2 0 0 0 2 2h45a2 2 0 0 0 2-2v-5a2 2 0 0 0-2-2zm-12 4h1v1h-1zm2 0h1v1h-1zm2 0h1v1h-1zm2 0h1v1h-1zm2 0h1v1h-1zm-20 0h1v1h-1zm2 0h1v1h-1zm2 0h1v1h-1zm2 0h1v1h-1zm2 0h1v1h-1zm2 0h1v1h-1zm-22 0h1v1h-1zm2 0h1v1h-1zm2 0h1v1h-1zm2 0h1v1h-1zm2 0h1v1h-1zm2 0h1v1h-1zM7 20h1v1H7zm2 0h1v1H9zm2 0h1v1h-1z" fill="#8c9aa6"/><rect x="7" y="25" width="39" height="10" rx="1" fill="#fff"/><path d="M45,26v8H8V26H45m0-2H8a2,2,0,0,0-2,2v8a2,2,0,0,0,2,2H45a2,2,0,0,0,2-2V26a2,2,0,0,0-2-2Z" fill="#83389b"/><path d="M45 25a1 1 0 0 1 1 1v8a1 1 0 0 1-1 1H8a1 1 0 0 1-1-1v-8a1 1 0 0 1 1-1h37m0-1H8a2 2 0 0 0-2 2v8a2 2 0 0 0 2 2h37a2 2 0 0 0 2-2v-8a2 2 0 0 0-2-2zm-34 4h1v4h-1zm3 0h1v4h-1zm3 0h1v4h-1zm3 0h1v4h-1zm3 0h1v4h-1zm3 0h1v4h-1zm3 0h1v4h-1zm3 0h1v4h-1zm3 0h1v4h-1zm3 0h1v4h-1zm3 0h1v4h-1z" fill="#8c9aa6"/><rect x="1" y="1" width="4" height="29" rx="1" fill="#fff"/><path d="M4,2V29H2V2H4M4,0H2A2,2,0,0,0,0,2V29a2,2,0,0,0,2,2H4a2,2,0,0,0,2-2V2A2,2,0,0,0,4,0Z" fill="#83389b"/><path d="M4,1A1,1,0,0,1,5,2V29a1,1,0,0,1-1,1H2a1,1,0,0,1-1-1V2A1,1,0,0,1,2,1H4M4,0H2A2,2,0,0,0,0,2V29a2,2,0,0,0,2,2H4a2,2,0,0,0,2-2V2A2,2,0,0,0,4,0Z" fill="#8c9aa6"/><rect x="48" y="1" width="4" height="29" rx="1" fill="#fff"/><path d="M51,2V29H49V2h2m0-2H49a2,2,0,0,0-2,2V29a2,2,0,0,0,2,2h2a2,2,0,0,0,2-2V2a2,2,0,0,0-2-2Z" fill="#83389b"/><path d="M51,1a1,1,0,0,1,1,1V29a1,1,0,0,1-1,1H49a1,1,0,0,1-1-1V2a1,1,0,0,1,1-1h2m0-1H49a2,2,0,0,0-2,2V29a2,2,0,0,0,2,2h2a2,2,0,0,0,2-2V2a2,2,0,0,0-2-2Z" fill="#8c9aa6"/></svg>