<svg xmlns="http://www.w3.org/2000/svg" viewBox="0 0 48 57"><defs><linearGradient id="A" x1="32.23" y1="20.26" x2="15.77" y2="-8.26" gradientUnits="userSpaceOnUse"><stop offset="0" stop-color="#7ccc6c"/><stop offset=".21" stop-color="#1eb7bd"/><stop offset=".43" stop-color="#83389b"/><stop offset=".64" stop-color="#f1446f"/><stop offset=".83" stop-color="#ffa12d"/><stop offset="1" stop-color="#ffc82e"/></linearGradient></defs><rect x=".5" y="11.5" width="47" height="9" rx="1.5" fill="#fff"/><path d="M46 12a1 1 0 0 1 1 1v6a1 1 0 0 1-1 1H2a1 1 0 0 1-1-1v-6a1 1 0 0 1 1-1h44m0-1H2a2 2 0 0 0-2 2v6a2 2 0 0 0 2 2h44a2 2 0 0 0 2-2v-6a2 2 0 0 0-2-2zm-14 4h10v2H32z" fill="#8c9aa6"/><rect x=".5" y="20.5" width="47" height="9" rx="1.5" fill="#fff"/><path d="M46 21a1 1 0 0 1 1 1v6a1 1 0 0 1-1 1H2a1 1 0 0 1-1-1v-6a1 1 0 0 1 1-1h44m0-1H2a2 2 0 0 0-2 2v6a2 2 0 0 0 2 2h44a2 2 0 0 0 2-2v-6a2 2 0 0 0-2-2zm-14 4h10v2H32z" fill="#8c9aa6"/><rect x=".5" y="29.5" width="47" height="9" rx="1.5" fill="#fff"/><path d="M46 30a1 1 0 0 1 1 1v6a1 1 0 0 1-1 1H2a1 1 0 0 1-1-1v-6a1 1 0 0 1 1-1h44m0-1H2a2 2 0 0 0-2 2v6a2 2 0 0 0 2 2h44a2 2 0 0 0 2-2v-6a2 2 0 0 0-2-2zm-14 4h10v2H32z" fill="#8c9aa6"/><rect x=".5" y="38.5" width="47" height="9" rx="1.5" fill="#fff"/><path d="M46 39a1 1 0 0 1 1 1v6a1 1 0 0 1-1 1H2a1 1 0 0 1-1-1v-6a1 1 0 0 1 1-1h44m0-1H2a2 2 0 0 0-2 2v6a2 2 0 0 0 2 2h44a2 2 0 0 0 2-2v-6a2 2 0 0 0-2-2zm-14 4h10v2H32z" fill="#8c9aa6"/><rect x=".5" y="47.5" width="47" height="9" rx="1.5" fill="#fff"/><path d="M46 48a1 1 0 0 1 1 1v6a1 1 0 0 1-1 1H2a1 1 0 0 1-1-1v-6a1 1 0 0 1 1-1h44m0-1H2a2 2 0 0 0-2 2v6a2 2 0 0 0 2 2h44a2 2 0 0 0 2-2v-6a2 2 0 0 0-2-2zm-14 4h10v2H32z" fill="#8c9aa6"/><rect width="48" height="12" rx="2" fill="#fff"/><path d="M45,3V9H3V3H45m1-3H2A2,2,0,0,0,0,2v8a2,2,0,0,0,2,2H46a2,2,0,0,0,2-2V2a2,2,0,0,0-2-2Z" fill="url(#A)"/><path d="M46 1a1 1 0 0 1 1 1v8a1 1 0 0 1-1 1H2a1 1 0 0 1-1-1V2a1 1 0 0 1 1-1h44m0-1H2a2 2 0 0 0-2 2v8a2 2 0 0 0 2 2h44a2 2 0 0 0 2-2V2a2 2 0 0 0-2-2zm-6 5h2v2h-2zm-5 0h2v2h-2zm-5 0h2v2h-2z" fill="#8c9aa6"/></svg>