<svg xmlns="http://www.w3.org/2000/svg" viewBox="0 0 48 12"><defs><linearGradient id="A" x1="32.23" y1="20.26" x2="15.77" y2="-8.26" gradientUnits="userSpaceOnUse"><stop offset="0" stop-color="#00ad69"/><stop offset="1" stop-color="#7ccc6c"/></linearGradient></defs><rect width="48" height="12" rx="2" fill="#fff"/><path d="M45,3V9H3V3H45m1-3H2A2,2,0,0,0,0,2v8a2,2,0,0,0,2,2H46a2,2,0,0,0,2-2V2a2,2,0,0,0-2-2Z" fill="url(#A)"/><path d="M46 1a1 1 0 0 1 1 1v8a1 1 0 0 1-1 1H2a1 1 0 0 1-1-1V2a1 1 0 0 1 1-1h44m0-1H2a2 2 0 0 0-2 2v8a2 2 0 0 0 2 2h44a2 2 0 0 0 2-2V2a2 2 0 0 0-2-2zm-6 5h2v2h-2zm-5 0h2v2h-2zm-5 0h2v2h-2z" fill="#8c9aa6"/></svg>