<svg xmlns="http://www.w3.org/2000/svg" width="50.03" height="49.986"><g fill="#3999c6"><path d="M18.5 34.786v-17.5H1v12.4l5.1 5.1z"/><path d="M15.3 31.586h17.5v17.5H20.5l-5.2-5.1z"/></g><path d="M3.384 32.095L28.133 7.346 42.558 21.77 17.81 46.52z" fill="#e5e5e5"/><path d="M3.4 32.086l14.5 14.5-9 3.4-8.9-8.9zm24.8-24.7c8.9-8.9 21.7-7.2 21.7-7.2s1.7 12.7-7.2 21.7l-14.5-14.5z" fill="#59b4d9"/><circle cx="27.2" cy="22.786" r="3.9" fill="#0072c6"/><path d="M49.5.086c-2.2-.2-13.3-.7-21.3 7.3l-9.9 9.9H1v12.4l2.5 2.5-3.5 8.9 4.2 4.2L49.5.086z" opacity=".15" fill="#fff"/></svg>