<svg xmlns="http://www.w3.org/2000/svg" width="50" height="33.8"><path d="M44 14.1c0-.4.1-.9.1-1.3 0-7.1-5.8-12.8-13-12.8-4.2 0-8.1 2-10.5 5.3-1.5-1-3.3-1.5-5.2-1.5-5.4 0-9.8 4.4-9.8 9.7v.8C2 16.2 0 19.3 0 23.1c0 6 4.9 10.7 11.2 10.7h27.6c6.3 0 11.2-4.7 11.2-10.7 0-4-2.2-7.2-6-9z" fill="#59b4d9"/><path d="M32.3 9.2zm.1-.3c0 .1-.1.1-.1.2 0-.1 0-.1.1-.2l4.3-7.6-4.3 7.6zM22.7 15h4.9c.2 0 .3 0 .3.1.1.1.1.3.1.5l-5 12.2c-.1.3 0 .4.2.1l.7-.8L35.7 9.4h3.2-9.2l4.7-9c-1-.3-2.1-.4-3.2-.4a13.3 13.3 0 0 0-4.5.8l-4.3 13.7c-.2.3 0 .5.3.5z" fill="#fcd116"/><path d="M39.1 9.9L23.9 27.1l-.1.2L39.1 9.9c.3-.3.2-.5-.2-.5.3 0 .4.2.2.5z" fill="#59b4d9"/><path d="M39.1 9.9L23.9 27.1l-.1.2L39.1 9.9c.3-.3.2-.5-.2-.5.3 0 .4.2.2.5z" opacity=".3" fill="#ff8c00"/><path d="M23.9 27.1L39.1 9.9c.2-.3.1-.5-.2-.5h-3.2L23.9 27.1z" fill="#fcd116"/><g fill="#ff8c00"><path d="M23.9 27.1L39.1 9.9c.2-.3.1-.5-.2-.5h-3.2L23.9 27.1z" opacity=".3"/><path d="M32.6 9.4c-.1 0-.2-.1-.2-.2-.1.1 0 .2.2.2zm-.3-.2v-.1.1z"/><path d="M32.4 8.9l4.3-7.6C36 1 35.2.7 34.4.5l-4.7 9h2.9c-.1 0-.2-.1-.2-.2v-.1c-.1-.2-.1-.3 0-.3z"/></g></svg>