<svg xmlns="http://www.w3.org/2000/svg" width="37.8" height="50"><path d="M0 6.8v36.3c0 3.8 8.4 6.8 18.9 6.8V6.8H0z" fill="#3e3e3e"/><path d="M18.6 50h.3c10.4 0 18.9-3.1 18.9-6.8V6.8H18.6V50z" fill="#a0a1a2"/><path d="M37.8 6.8c0 3.8-8.4 6.8-18.9 6.8S0 10.6 0 6.8C0 3.1 8.5 0 18.9 0s18.9 3.1 18.9 6.8" fill="#fff"/><path d="M33.9 6.4c0 2.5-6.7 4.5-15 4.5s-15-2-15-4.5 6.7-4.5 15-4.5 15 2 15 4.5" fill="#7fba00"/><path d="M30.8 9.2c2-.8 3.1-1.7 3.1-2.8 0-2.5-6.7-4.5-15-4.5s-15 2-15 4.5c0 1 1.2 2 3.1 2.8 2.7-1.1 7-1.8 11.9-1.8 4.8 0 9.1.7 11.9 1.8" fill="#b8d432"/><path d="M18.6 50V32c-2.8 0-5.2-1.5-6.6-3.7-1.4 2.2-3.7 3.7-6.5 3.7-2.2 0-4.1-.9-5.5-2.4v13.6c0 3.7 8.3 6.7 18.6 6.8zm.3 0z" fill="#3999c6"/><g fill="#59b4d9"><path d="M18.6 50zM32 32c-2.8 0-5.3-1.5-6.7-3.7-1.3 2.2-3.7 3.6-6.5 3.7v18c10.4 0 18.9-3.1 18.9-6.8V29.5C36.3 31 34.3 32 32 32z"/><path d="M18.7 32l-.1 18h.2V32h-.1z"/></g></svg>