<svg xmlns="http://www.w3.org/2000/svg" width="50" height="50" viewBox="-162 256 50 50"><path d="M-162 262.8v36.3c0 3.8 8.4 6.8 18.9 6.8v-43.1H-162z" fill="#3e3e3e"/><path d="M-143.4 306h.3c10.4 0 18.9-3.1 18.9-6.8v-36.4h-19.2V306z" fill="#a0a1a2"/><path d="M-124.2 262.8c0 3.8-8.4 6.8-18.9 6.8s-18.9-3-18.9-6.8c0-3.7 8.5-6.8 18.9-6.8s18.9 3.1 18.9 6.8" fill="#fff"/><path d="M-128.1 262.4c0 2.5-6.7 4.5-15 4.5s-15-2-15-4.5 6.7-4.5 15-4.5 15 2 15 4.5" fill="#7fba00"/><path d="M-131.2 265.2c2-.8 3.1-1.7 3.1-2.8 0-2.5-6.7-4.5-15-4.5s-15 2-15 4.5c0 1 1.2 2 3.1 2.8 2.7-1.1 7-1.8 11.9-1.8 4.8 0 9.1.7 11.9 1.8" fill="#b8d432"/><path d="M-143.4 306v-18c-2.8 0-5.2-1.5-6.6-3.7-1.4 2.2-3.7 3.7-6.5 3.7-2.2 0-4.1-.9-5.5-2.4v13.6c0 3.7 8.3 6.7 18.6 6.8zm.3 0z" fill="#3999c6"/><g fill="#59b4d9"><path d="M-143.4 306zm13.4-18c-2.8 0-5.3-1.5-6.7-3.7-1.3 2.2-3.7 3.6-6.5 3.7v18c10.4 0 18.9-3.1 18.9-6.8v-13.7c-1.4 1.5-3.4 2.5-5.7 2.5z"/><path d="M-143.3 288l-.1 18h.2v-18h-.1z"/></g><path d="M-139.084 291.933h4.9V306h-4.9zm7.278-3.308h4.9V306h-4.9zm7.27 5.567h4.906V306h-4.906zm7.287-4.222h4.9V306h-4.9zm-20.86-2.497l10.432-7.665 5.372 7.82 8.382-7.32.53.607-.468.408.288.33-8.965 7.83-5.436-7.914-9.397 6.905z" fill="#68217a"/><g fill="#804998"><circle cx="-137.969" cy="288.05" r="1.864"/><circle cx="-127.864" cy="280.88" r="1.864"/><circle cx="-122.552" cy="288.556" r="1.864"/><circle cx="-113.864" cy="281.141" r="1.864"/></g></svg>