<svg xmlns="http://www.w3.org/2000/svg" width="50" height="50" viewBox="-162 256 50 50"><path d="M-162 262.8v36.3c0 3.8 8.4 6.8 18.9 6.8v-43.1H-162z" fill="#3e3e3e"/><path d="M-143.4 306h.3c10.4 0 18.9-3.1 18.9-6.8v-36.4h-19.2V306z" fill="#a0a1a2"/><path d="M-124.2 262.8c0 3.8-8.4 6.8-18.9 6.8s-18.9-3-18.9-6.8c0-3.7 8.5-6.8 18.9-6.8s18.9 3.1 18.9 6.8" fill="#fff"/><path d="M-128.1 262.4c0 2.5-6.7 4.5-15 4.5s-15-2-15-4.5 6.7-4.5 15-4.5 15 2 15 4.5" fill="#7fba00"/><path d="M-131.2 265.2c2-.8 3.1-1.7 3.1-2.8 0-2.5-6.7-4.5-15-4.5s-15 2-15 4.5c0 1 1.2 2 3.1 2.8 2.7-1.1 7-1.8 11.9-1.8 4.8 0 9.1.7 11.9 1.8" fill="#b8d432"/><path d="M-143.4 306v-18c-2.8 0-5.2-1.5-6.6-3.7-1.4 2.2-3.7 3.7-6.5 3.7-2.2 0-4.1-.9-5.5-2.4v13.6c0 3.7 8.3 6.7 18.6 6.8zm.3 0z" fill="#3999c6"/><g fill="#59b4d9"><path d="M-143.4 306zm13.4-18c-2.8 0-5.3-1.5-6.7-3.7-1.3 2.2-3.7 3.6-6.5 3.7v18c10.4 0 18.9-3.1 18.9-6.8v-13.7c-1.4 1.5-3.4 2.5-5.7 2.5z"/><path d="M-143.3 288l-.1 18h.2v-18h-.1z"/></g><path d="M-113.05 286.378v-2.158h-14.197l-3.22-3.22h-8.66v23.713c0 .7.575 1.287 1.286 1.287h24.554c.7 0 1.286-.576 1.286-1.287v-18.336h-1.05z" fill="#fee087"/><path d="M-136.553 286.378v18.335c0 .71-.576 1.287-1.286 1.287s-1.286-.576-1.286-1.287V281h8.66l3.22 3.22h14.197v2.158h-23.505z" opacity=".2" fill="#1e1e1e"/></svg>