<svg xmlns="http://www.w3.org/2000/svg" width="50" height="50"><path d="M45.302 25.945c0-7.08 1.778-13.536 4.698-18.43V6.83H24.657V50H25h1.27l.39-.008.867-.018.465-.016.77-.027.526-.025.7-.034 1.19-.074.583-.044.592-.046.57-.05.58-.054.58-.06.537-.058.585-.07.51-.063.583-.08.48-.067.584-.09.45-.07.59-.1.408-.07.59-.11.38-.074.58-.12.355-.076.568-.13.33-.078.56-.14.295-.077.557-.154.26-.074.552-.167.223-.07.54-.18.2-.07.52-.2.173-.066.5-.203.15-.063c.164-.07.323-.142.477-.214l.127-.06a13.53 13.53 0 0 0 .451-.226l.106-.057a10.95 10.95 0 0 0 .422-.237l.086-.052c.136-.082.267-.165.39-.25l.07-.048c.125-.086.244-.173.356-.26.018-.014.034-.028.052-.042.113-.1.22-.18.318-.273a1.31 1.31 0 0 0 .038-.037c.1-.094.192-.19.277-.285.01-.01.017-.02.026-.03a3.41 3.41 0 0 0 .232-.296c.006-.008.01-.017.017-.025a3 3 0 0 0 .184-.307c.003-.006.006-.013.01-.02.013-.027.02-.054.034-.08-2.802-4.85-4.498-11.164-4.498-18.076z" fill="#0072c6"/><path d="M45.302 25.945c0-7.08 1.778-13.536 4.698-18.43V6.83H24.657V50H25c12.75 0 23.26-2.608 24.796-5.98-2.798-4.85-4.494-11.163-4.494-18.075z" opacity=".15" fill="#fff"/><path d="M0 6.83v.49l.274.82C2.978 12.955 4.6 19.163 4.6 25.945 4.6 32.818 2.933 39.1.164 43.938 1.564 47.348 12.147 50 25 50V6.83H0z" fill="#0072c6"/><path d="M50 6.83c0 3.773-11.194 6.83-25 6.83S0 10.603 0 6.83 11.193 0 25 0s25 3.058 25 6.83" fill="#fff"/><path d="M44.89 6.437c0 2.49-8.905 4.507-19.89 4.507S5.1 8.928 5.1 6.437 14.016 1.93 25 1.93s19.89 2.018 19.89 4.507" fill="#7fba00"/><path d="M40.722 9.19C43.326 8.43 44.9 7.475 44.9 6.44c0-2.49-8.905-4.508-19.9-4.508S5.11 3.95 5.11 6.44c0 1.036 1.565 2 4.168 2.752C12.915 8.127 18.598 7.44 25 7.44s12.083.688 15.722 1.752" fill="#b8d432"/><path d="M18.547 32.354c0 1.122-.407 2-1.22 2.607s-1.938.924-3.373.924c-1.22 0-2.24-.22-3.06-.66v-2.64c.946.803 1.988 1.205 3.126 1.205.55 0 .975-.1 1.275-.33a1.03 1.03 0 0 0 .45-.875c0-.357-.144-.668-.433-.932s-.876-.605-1.76-1.023c-1.804-.846-2.706-2.002-2.706-3.464 0-1.06.393-1.912 1.18-2.553s1.83-.96 3.134-.96c1.155 0 2.1.152 2.87.454v2.466c-.797-.55-1.705-.825-2.722-.825-.5 0-.915.108-1.212.325s-.445.508-.445.87c0 .374.12.68.36.92s.73.535 1.472.887c1.106.523 1.893 1.053 2.364 1.592s.703 1.2.703 2.013zm12.727-2.672c0 1.4-.317 2.6-.95 3.62s-1.523 1.74-2.672 2.153l3.43 3.176H27.62l-2.45-2.747c-1.05-.038-1.998-.316-2.842-.833a5.22 5.22 0 0 1-1.955-2.124c-.46-.9-.7-1.902-.7-3.007 0-1.226.25-2.32.746-3.28s1.197-1.698 2.1-2.215 1.935-.775 3.102-.775c1.088 0 2.063.25 2.924.75s1.528 1.212 2.004 2.136.715 1.972.715 3.143zm-2.804.15c0-1.2-.26-2.146-.784-2.842s-1.237-1.044-2.145-1.044a2.69 2.69 0 0 0-2.219 1.047c-.555.7-.833 1.628-.833 2.788s.272 2.077.816 2.767 1.267 1.035 2.17 1.035c.92 0 1.647-.334 2.186-1.002s.8-1.584.8-2.75zm7.423-5.982v9.667h4.38v2.16H33.23V23.85z" fill="#fff"/></svg>