<?xml version="1.0" encoding="UTF-8" standalone="no"?>
<svg
   width="17.262314"
   height="17.859879"
   viewBox="0 0 17.262314 17.859879"
   version="1.1"
   id="svg27889"
   sodipodi:docname="AAD_Licenses.svg"
   inkscape:version="1.1 (c68e22c387, 2021-05-23)"
   xmlns:inkscape="http://www.inkscape.org/namespaces/inkscape"
   xmlns:sodipodi="http://sodipodi.sourceforge.net/DTD/sodipodi-0.dtd"
   xmlns="http://www.w3.org/2000/svg"
   xmlns:svg="http://www.w3.org/2000/svg">
  <sodipodi:namedview
     id="namedview27891"
     pagecolor="#ffffff"
     bordercolor="#666666"
     borderopacity="1.0"
     inkscape:pageshadow="2"
     inkscape:pageopacity="0.0"
     inkscape:pagecheckerboard="0"
     showgrid="false"
     fit-margin-top="0"
     fit-margin-left="0"
     fit-margin-right="0"
     fit-margin-bottom="0"
     inkscape:zoom="44.055556"
     inkscape:cx="8.6368222"
     inkscape:cy="8.9319042"
     inkscape:window-width="1920"
     inkscape:window-height="1017"
     inkscape:window-x="-8"
     inkscape:window-y="-8"
     inkscape:window-maximized="1"
     inkscape:current-layer="svg27889" />
  <defs
     id="defs27873">
    <linearGradient
       id="a16adbb9-578e-482b-adfc-4d82cc09754e"
       x1="8.0109997"
       y1="6.4990001"
       x2="8.0109997"
       y2="19.191"
       gradientUnits="userSpaceOnUse"
       gradientTransform="translate(-0.36868672,-0.07099962)">
      <stop
         offset="0.225"
         stop-color="#32d4f5"
         id="stop27846" />
      <stop
         offset="0.473"
         stop-color="#31d1f3"
         id="stop27848" />
      <stop
         offset="0.633"
         stop-color="#2ec9eb"
         id="stop27850" />
      <stop
         offset="0.999"
         stop-color="#198ab3"
         id="stop27852" />
      <stop
         offset="1"
         stop-color="#198ab3"
         id="stop27854" />
    </linearGradient>
    <linearGradient
       id="aee8c9ca-fb88-4033-9f01-0af417440dda"
       x1="7.6490002"
       y1="-0.30399999"
       x2="8.5749998"
       y2="11.219"
       gradientUnits="userSpaceOnUse"
       gradientTransform="translate(-0.36868672,-0.07099962)">
      <stop
         offset="0.225"
         stop-color="#32d4f5"
         id="stop27857" />
      <stop
         offset="0.473"
         stop-color="#31d1f3"
         id="stop27859" />
      <stop
         offset="0.633"
         stop-color="#2ec9eb"
         id="stop27861" />
      <stop
         offset="0.999"
         stop-color="#198ab3"
         id="stop27863" />
      <stop
         offset="1"
         stop-color="#198ab3"
         id="stop27865" />
    </linearGradient>
    <linearGradient
       id="a9bad8b8-57b0-4671-9bb7-bde0d12c5e5b"
       x1="14.349"
       y1="17.929001"
       x2="14.349"
       y2="13.063"
       gradientUnits="userSpaceOnUse"
       gradientTransform="translate(-0.36868672,-0.07099962)">
      <stop
         offset="0"
         stop-color="#a67af4"
         id="stop27868" />
      <stop
         offset="0.999"
         stop-color="#773adc"
         id="stop27870" />
    </linearGradient>
  </defs>
  <path
     d="m 13.921313,16.829 a 1.358,1.358 0 0 0 1.364,-1.354 1.488,1.488 0 0 0 -0.009,-0.164 c -0.534,-4.272 -2.972,-7.7509996 -7.6219997,-7.7509996 -4.731,0 -7.17200002,2.9459996 -7.64700002,7.7619996 a 1.366,1.366 0 0 0 1.21900002,1.5 c 0.045,0 0.091,0.007 0.137,0.007 z"
     fill="url(#a16adbb9-578e-482b-adfc-4d82cc09754e)"
     id="path27875"
     style="fill:url(#a16adbb9-578e-482b-adfc-4d82cc09754e)" />
  <path
     d="m 7.6543133,8.5730004 a 4.262,4.262 0 0 1 -2.323,-0.683 l 2.3,5.9999996 2.281,-5.9609996 a 4.256,4.256 0 0 1 -2.258,0.644 z"
     fill="#ffffff"
     opacity="0.8"
     id="path27877" />
  <circle
     cx="7.6543131"
     cy="4.2870002"
     r="4.2870002"
     fill="url(#aee8c9ca-fb88-4033-9f01-0af417440dda)"
     id="circle27879"
     style="fill:url(#aee8c9ca-fb88-4033-9f01-0af417440dda)" />
  <path
     id="f44074e4-c42e-42c6-8df9-7a396ecfe859"
     d="m 15.809313,12.992 a 2.7,2.7 0 0 1 -3.609,0 l -0.224,4.48 a 0.356,0.356 0 0 0 0.609,0.268 l 1.4,-0.887 1.389,0.9 a 0.356,0.356 0 0 0 0.61,-0.264 z"
     fill="url(#a9bad8b8-57b0-4671-9bb7-bde0d12c5e5b)"
     style="fill:url(#a9bad8b8-57b0-4671-9bb7-bde0d12c5e5b)" />
  <ellipse
     id="a1389c58-3ec0-4325-aa99-bedaec9edf9e"
     cx="14.041313"
     cy="10.696001"
     rx="3.221"
     ry="3.2320001"
     fill="#a67af4" />
  <ellipse
     id="a2a2e69d-d43b-4ef8-b3dd-f3eae8b8900d"
     cx="14.041313"
     cy="10.696001"
     rx="2.444"
     ry="2.4519999"
     fill="#ffe452" />
</svg>
