<?xml version="1.0" encoding="UTF-8" standalone="no"?>
<svg
   xmlns:dc="http://purl.org/dc/elements/1.1/"
   xmlns:cc="http://creativecommons.org/ns#"
   xmlns:rdf="http://www.w3.org/1999/02/22-rdf-syntax-ns#"
   xmlns:svg="http://www.w3.org/2000/svg"
   xmlns="http://www.w3.org/2000/svg"
   xmlns:sodipodi="http://sodipodi.sourceforge.net/DTD/sodipodi-0.dtd"
   xmlns:inkscape="http://www.inkscape.org/namespaces/inkscape"
   id="b9ca928b-2484-469e-887a-b914e6d20206"
   width="18.030001"
   height="16.76"
   viewBox="0 0 18.030001 16.76"
   version="1.1"
   sodipodi:docname="Active_Directory_Connect_Health.svg"
   inkscape:version="0.92.3 (2405546, 2018-03-11)">
  <sodipodi:namedview
     pagecolor="#ffffff"
     bordercolor="#666666"
     borderopacity="1"
     objecttolerance="10"
     gridtolerance="10"
     guidetolerance="10"
     inkscape:pageopacity="0"
     inkscape:pageshadow="2"
     inkscape:window-width="1920"
     inkscape:window-height="1017"
     id="namedview52759"
     showgrid="false"
     fit-margin-top="0"
     fit-margin-left="0"
     fit-margin-right="0"
     fit-margin-bottom="0"
     inkscape:zoom="48.111111"
     inkscape:cx="9.03"
     inkscape:cy="8.38"
     inkscape:window-x="-8"
     inkscape:window-y="-8"
     inkscape:window-maximized="1"
     inkscape:current-layer="b9ca928b-2484-469e-887a-b914e6d20206" />
  <defs
     id="defs52732">
    <linearGradient
       id="e042fd95-47e9-47d7-a97e-6414df5d5c10"
       x1="13.23"
       y1="12.83"
       x2="8.6000004"
       y2="4.0599999"
       gradientUnits="userSpaceOnUse"
       gradientTransform="translate(-0.03,0.62)">
      <stop
         offset="0"
         stop-color="#1988d9"
         id="stop52716" />
      <stop
         offset="0.9"
         stop-color="#54aef0"
         id="stop52718" />
    </linearGradient>
    <linearGradient
       id="ebbd60b7-1e21-4536-af03-7974490dde86"
       x1="11.23"
       y1="10.28"
       x2="14.44"
       y2="15.8"
       gradientUnits="userSpaceOnUse"
       gradientTransform="translate(-0.03,0.62)">
      <stop
         offset="0.1"
         stop-color="#54aef0"
         id="stop52721" />
      <stop
         offset="0.29"
         stop-color="#4fabee"
         id="stop52723" />
      <stop
         offset="0.51"
         stop-color="#41a2e9"
         id="stop52725" />
      <stop
         offset="0.74"
         stop-color="#2a93e0"
         id="stop52727" />
      <stop
         offset="0.88"
         stop-color="#1988d9"
         id="stop52729" />
    </linearGradient>
  </defs>
  <title
     id="title52734">Icon-identity-224</title>
  <g
     id="g52754"
     transform="translate(0.03,-0.62)">
    <polygon
       points="16.96,9.98 17.97,11.16 8.9,17 -0.03,11.16 0.99,10 8.9,15.14 "
       id="polygon52736"
       style="fill:#50e6ff" />
    <polygon
       points="16.37,9.35 8.9,14.07 1.58,9.34 8.9,0.62 "
       id="polygon52738"
       style="fill:#ffffff" />
    <polygon
       points="1.58,9.34 8.9,0.62 8.9,14.07 "
       id="polygon52740"
       style="fill:#50e6ff" />
    <polygon
       points="16.37,9.35 8.9,0.62 8.9,14.07 "
       id="polygon52742"
       style="fill:url(#e042fd95-47e9-47d7-a97e-6414df5d5c10)" />
    <polygon
       points="8.9,14.07 8.9,7.57 16.37,9.35 "
       id="polygon52744"
       style="fill:#53b1e0" />
    <polygon
       points="8.9,7.57 8.9,14.07 1.58,9.34 "
       id="polygon52746"
       style="fill:#9cebff" />
    <polygon
       points="16.96,9.98 8.9,15.14 8.9,17 17.97,11.16 "
       id="polygon52748"
       style="fill:url(#ebbd60b7-1e21-4536-af03-7974490dde86)" />
    <path
       d="m 13.52,17.38 v 0 C 17.9,14.24 18,12.45 18,11.89 c 0,-0.8 -0.08,-2.88 -2.17,-3 A 2.27,2.27 0 0 0 13.5,10.41 2.26,2.26 0 0 0 11.2,8.85 C 9.11,9 9,11.09 9,11.89 c 0,0.56 0.13,2.35 4.47,5.46"
       id="path52750"
       inkscape:connector-curvature="0"
       style="fill:#f04049" />
    <path
       d="m 18,11.57 h -2 a 0.17,0.17 0 0 0 -0.14,0.08 l -0.63,1.07 a 0.08,0.08 0 0 1 -0.14,0 L 14.14,11 a 0.16,0.16 0 0 0 -0.3,0 L 13,13.6 a 0.08,0.08 0 0 1 -0.15,0 l -0.76,-1.75 a 0.16,0.16 0 0 0 -0.29,0 l -1,1.82 a 0.16,0.16 0 0 1 -0.15,0.09 H 9.69 a 7.13,7.13 0 0 0 0.48,0.65 H 11 a 0.17,0.17 0 0 0 0.14,-0.09 l 0.71,-1.32 1,2.19 a 0.16,0.16 0 0 0 0.3,0 l 1,-2.93 0.85,1.66 a 0.16,0.16 0 0 0 0.28,0 l 1,-1.62 a 0.17,0.17 0 0 1 0.14,-0.08 H 18"
       id="path52752"
       inkscape:connector-curvature="0"
       style="fill:#ffffff" />
  </g>
  <metadata
     id="metadata52756">
    <rdf:RDF>
      <rdf:li>public:true</rdf:li>
      <rdf:li>sdk:false</rdf:li>
      <rdf:li>category: Identity</rdf:li>
      <cc:Work
         rdf:about="">
        <dc:format>image/svg+xml</dc:format>
        <dc:type
           rdf:resource="http://purl.org/dc/dcmitype/StillImage" />
        <dc:title>Icon-identity-224</dc:title>
      </cc:Work>
    </rdf:RDF>
  </metadata>
</svg>
