<?xml version="1.0" encoding="UTF-8" standalone="no"?>
<svg
   xmlns:dc="http://purl.org/dc/elements/1.1/"
   xmlns:cc="http://creativecommons.org/ns#"
   xmlns:rdf="http://www.w3.org/1999/02/22-rdf-syntax-ns#"
   xmlns:svg="http://www.w3.org/2000/svg"
   xmlns="http://www.w3.org/2000/svg"
   xmlns:sodipodi="http://sodipodi.sourceforge.net/DTD/sodipodi-0.dtd"
   xmlns:inkscape="http://www.inkscape.org/namespaces/inkscape"
   id="a76a0103-ce03-4d58-859d-4c27e02925d2"
   width="16.74"
   height="16.940001"
   viewBox="0 0 16.74 16.940001"
   version="1.1"
   sodipodi:docname="App_Registrations.svg"
   inkscape:version="0.92.3 (2405546, 2018-03-11)">
  <sodipodi:namedview
     pagecolor="#ffffff"
     bordercolor="#666666"
     borderopacity="1"
     objecttolerance="10"
     gridtolerance="10"
     guidetolerance="10"
     inkscape:pageopacity="0"
     inkscape:pageshadow="2"
     inkscape:window-width="1920"
     inkscape:window-height="1017"
     id="namedview52835"
     showgrid="false"
     fit-margin-top="0"
     fit-margin-left="0"
     fit-margin-right="0"
     fit-margin-bottom="0"
     inkscape:zoom="48.111111"
     inkscape:cx="8.37"
     inkscape:cy="8.47"
     inkscape:window-x="-8"
     inkscape:window-y="-8"
     inkscape:window-maximized="1"
     inkscape:current-layer="a76a0103-ce03-4d58-859d-4c27e02925d2" />
  <defs
     id="defs52816">
    <linearGradient
       id="efeb8e96-2af0-4681-9a6a-45f9b0262f19"
       x1="-6518.7798"
       y1="1118.86"
       x2="-6518.7798"
       y2="1090.0601"
       gradientTransform="matrix(0.5,0,0,-0.5,3267.42,559.99)"
       gradientUnits="userSpaceOnUse">
      <stop
         offset="0"
         stop-color="#5ea0ef"
         id="stop52803" />
      <stop
         offset="0.18"
         stop-color="#589eed"
         id="stop52805" />
      <stop
         offset="0.41"
         stop-color="#4897e9"
         id="stop52807" />
      <stop
         offset="0.66"
         stop-color="#2e8ce1"
         id="stop52809" />
      <stop
         offset="0.94"
         stop-color="#0a7cd7"
         id="stop52811" />
      <stop
         offset="1"
         stop-color="#0078d4"
         id="stop52813" />
    </linearGradient>
  </defs>
  <title
     id="title52818">Icon-identity-232</title>
  <path
     d="M 5.04,10.08 H 9.37 V 14.4 H 5.04 Z m -5,-5.76 H 4.37 V 0 H 0.6 A 0.6,0.6 0 0 0 0,0.6 Z M 0.64,14.4 H 4.37 V 10.08 H 0 v 3.72 a 0.6,0.6 0 0 0 0.6,0.6 z m -0.6,-5 H 4.37 V 5.04 H 0 Z m 10.08,5 h 3.72 a 0.6,0.6 0 0 0 0.6,-0.6 v -3.72 h -4.36 z m -5,-5 H 9.37 V 5.04 H 5.04 Z m 5,0 h 4.25 V 5.04 h -4.29 z m 0,-9.36 v 4.28 h 4.25 V 0.6 A 0.6,0.6 0 0 0 13.77,0 Z m -5,4.32 H 9.37 V 0 H 5.04 Z"
     id="path52820"
     inkscape:connector-curvature="0"
     style="fill:url(#efeb8e96-2af0-4681-9a6a-45f9b0262f19)" />
  <polygon
     points="13.5,17.47 13.5,12.96 17.37,10.7 17.37,15.21 "
     id="polygon52822"
     style="fill:#32bedd"
     transform="translate(-0.63,-0.53)" />
  <polygon
     points="9.63,10.7 13.5,8.44 17.37,10.7 13.5,12.97 "
     id="polygon52824"
     style="fill:#9cebff"
     transform="translate(-0.63,-0.53)" />
  <polygon
     points="9.63,15.21 9.63,10.7 13.5,12.97 13.5,17.47 "
     id="polygon52826"
     style="fill:#50e6ff"
     transform="translate(-0.63,-0.53)" />
  <polygon
     points="13.5,17.47 9.63,15.21 13.5,12.96 "
     id="polygon52828"
     style="fill:#9cebff"
     transform="translate(-0.63,-0.53)" />
  <polygon
     points="13.5,17.47 17.37,15.21 13.5,12.96 "
     id="polygon52830"
     style="fill:#50e6ff"
     transform="translate(-0.63,-0.53)" />
  <metadata
     id="metadata52832">
    <rdf:RDF>
      <rdf:li>public:true</rdf:li>
      <rdf:li>sdk:false</rdf:li>
      <rdf:li>category: Identity</rdf:li>
      <cc:Work
         rdf:about="">
        <dc:format>image/svg+xml</dc:format>
        <dc:type
           rdf:resource="http://purl.org/dc/dcmitype/StillImage" />
        <dc:title>Icon-identity-232</dc:title>
      </cc:Work>
    </rdf:RDF>
  </metadata>
</svg>
