<?xml version="1.0" encoding="UTF-8" standalone="no"?>
<svg
   xmlns:dc="http://purl.org/dc/elements/1.1/"
   xmlns:cc="http://creativecommons.org/ns#"
   xmlns:rdf="http://www.w3.org/1999/02/22-rdf-syntax-ns#"
   xmlns:svg="http://www.w3.org/2000/svg"
   xmlns="http://www.w3.org/2000/svg"
   xmlns:sodipodi="http://sodipodi.sourceforge.net/DTD/sodipodi-0.dtd"
   xmlns:inkscape="http://www.inkscape.org/namespaces/inkscape"
   id="ffd65ef0-46f1-4123-aa86-6c2243292f5f"
   width="18"
   height="16.760078"
   viewBox="0 0 18 16.760078"
   version="1.1"
   sodipodi:docname="Azure_AD_B2C.svg"
   inkscape:version="0.92.3 (2405546, 2018-03-11)">
  <sodipodi:namedview
     pagecolor="#ffffff"
     bordercolor="#666666"
     borderopacity="1"
     objecttolerance="10"
     gridtolerance="10"
     guidetolerance="10"
     inkscape:pageopacity="0"
     inkscape:pageshadow="2"
     inkscape:window-width="1920"
     inkscape:window-height="1017"
     id="namedview53066"
     showgrid="false"
     fit-margin-top="0"
     fit-margin-left="0"
     fit-margin-right="0"
     fit-margin-bottom="0"
     inkscape:zoom="48.111111"
     inkscape:cx="9"
     inkscape:cy="8.3800781"
     inkscape:window-x="-8"
     inkscape:window-y="-8"
     inkscape:window-maximized="1"
     inkscape:current-layer="ffd65ef0-46f1-4123-aa86-6c2243292f5f" />
  <defs
     id="defs53033">
    <linearGradient
       id="ae0c4e08-2440-488c-bae1-6509c7a4ef07"
       x1="13.25"
       y1="12.83"
       x2="8.6199999"
       y2="4.0599999"
       gradientUnits="userSpaceOnUse"
       gradientTransform="translate(0,0.62)">
      <stop
         offset="0"
         stop-color="#1988d9"
         id="stop53028" />
      <stop
         offset="0.9"
         stop-color="#54aef0"
         id="stop53030" />
    </linearGradient>
  </defs>
  <g
     id="g53061"
     transform="translate(0,-0.62)">
    <polygon
       points="16.99,9.99 18,11.16 8.93,17.01 0,11.17 1.01,10.01 8.93,15.14 "
       id="polygon53035"
       style="fill:#50e6ff" />
    <polygon
       points="16.4,9.36 8.93,14.08 1.61,9.35 8.93,0.62 "
       id="polygon53037"
       style="fill:#ffffff" />
    <polygon
       points="1.61,9.35 8.93,0.62 8.93,14.08 "
       id="polygon53039"
       style="fill:#50e6ff" />
    <polygon
       points="16.4,9.36 8.93,0.62 8.93,14.08 "
       id="polygon53041"
       style="fill:url(#ae0c4e08-2440-488c-bae1-6509c7a4ef07)" />
    <polygon
       points="8.93,14.08 8.93,7.57 16.4,9.36 "
       id="polygon53043"
       style="fill:#53b1e0" />
    <polygon
       points="8.93,7.57 8.93,14.08 1.61,9.35 "
       id="polygon53045"
       style="fill:#9cebff" />
    <polygon
       points="16.99,9.99 8.93,15.14 8.93,17.01 18,11.16 "
       id="polygon53047"
       style="fill:#5ea0ef" />
    <path
       d="m 17.45,16 a 0.44,0.44 0 0 0 0.44,-0.44 v 0 a 2.5,2.5 0 0 0 -2.45,-2.5 c -1.53,0 -2.32,0.95 -2.47,2.5 a 0.45,0.45 0 0 0 0.39,0.49 h 4.09 z"
       id="path53049"
       inkscape:connector-curvature="0"
       style="fill:#773adc" />
    <path
       d="m 15.44,13.38 a 1.35,1.35 0 0 1 -0.75,-0.22 l 0.74,1.93 0.73,-1.92 a 1.38,1.38 0 0 1 -0.72,0.21 z"
       id="path53051"
       inkscape:connector-curvature="0"
       style="opacity:0.8;fill:#ffffff" />
    <circle
       cx="15.44"
       cy="12"
       r="1.38"
       id="circle53053"
       style="fill:#773adc" />
    <path
       d="m 14.68,17.38 a 0.65,0.65 0 0 0 0.66,-0.66 v -0.08 c -0.26,-2.05 -1.43,-3.73 -3.67,-3.73 -2.24,0 -3.45,1.42 -3.67,3.74 a 0.65,0.65 0 0 0 0.58,0.72 h 6.11 z"
       id="path53055"
       inkscape:connector-curvature="0"
       style="fill:#a67af4" />
    <path
       d="m 11.7,13.4 a 2,2 0 0 1 -1.11,-0.33 l 1.1,2.93 1.1,-2.87 A 2,2 0 0 1 11.7,13.4 Z"
       id="path53057"
       inkscape:connector-curvature="0"
       style="opacity:0.8;fill:#ffffff" />
    <circle
       cx="11.69"
       cy="11.34"
       r="2.0599999"
       id="circle53059"
       style="fill:#a67af4" />
  </g>
  <metadata
     id="metadata53063">
    <rdf:RDF>
      <rdf:li>public:truee</rdf:li>
      <rdf:li>sdk:false</rdf:li>
      <rdf:li>category: Identity</rdf:li>
      <cc:Work
         rdf:about="">
        <dc:format>image/svg+xml</dc:format>
        <dc:type
           rdf:resource="http://purl.org/dc/dcmitype/StillImage" />
        <dc:title></dc:title>
      </cc:Work>
    </rdf:RDF>
  </metadata>
</svg>
