<?xml version="1.0" encoding="UTF-8" standalone="no"?>
<svg
   xmlns:dc="http://purl.org/dc/elements/1.1/"
   xmlns:cc="http://creativecommons.org/ns#"
   xmlns:rdf="http://www.w3.org/1999/02/22-rdf-syntax-ns#"
   xmlns:svg="http://www.w3.org/2000/svg"
   xmlns="http://www.w3.org/2000/svg"
   xmlns:sodipodi="http://sodipodi.sourceforge.net/DTD/sodipodi-0.dtd"
   xmlns:inkscape="http://www.inkscape.org/namespaces/inkscape"
   id="a760b6f1-1e55-4349-bcad-563b81ab52cb"
   width="16.85075"
   height="16.860001"
   viewBox="0 0 16.85075 16.860001"
   version="1.1"
   sodipodi:docname="Enterprise_Applications.svg"
   inkscape:version="0.92.3 (2405546, 2018-03-11)">
  <sodipodi:namedview
     pagecolor="#ffffff"
     bordercolor="#666666"
     borderopacity="1"
     objecttolerance="10"
     gridtolerance="10"
     guidetolerance="10"
     inkscape:pageopacity="0"
     inkscape:pageshadow="2"
     inkscape:window-width="1920"
     inkscape:window-height="1017"
     id="namedview53431"
     showgrid="false"
     fit-margin-top="0"
     fit-margin-left="0"
     fit-margin-right="0"
     fit-margin-bottom="0"
     inkscape:zoom="48.111111"
     inkscape:cx="8.4307505"
     inkscape:cy="8.4300003"
     inkscape:window-x="-8"
     inkscape:window-y="-8"
     inkscape:window-maximized="1"
     inkscape:current-layer="a760b6f1-1e55-4349-bcad-563b81ab52cb" />
  <defs
     id="defs53408">
    <linearGradient
       id="b715ec20-95db-414c-982b-71456fb0c9ab"
       x1="-6784.8501"
       y1="1118.78"
       x2="-6784.8501"
       y2="1089.98"
       gradientTransform="matrix(0.5,0,0,-0.5,3400.41,559.99)"
       gradientUnits="userSpaceOnUse">
      <stop
         offset="0"
         stop-color="#5ea0ef"
         id="stop53373" />
      <stop
         offset="0.18"
         stop-color="#589eed"
         id="stop53375" />
      <stop
         offset="0.41"
         stop-color="#4897e9"
         id="stop53377" />
      <stop
         offset="0.66"
         stop-color="#2e8ce1"
         id="stop53379" />
      <stop
         offset="0.94"
         stop-color="#0a7cd7"
         id="stop53381" />
      <stop
         offset="1"
         stop-color="#0078d4"
         id="stop53383" />
    </linearGradient>
    <linearGradient
       id="f7e46209-f134-49aa-a850-2e9a1b04fba6"
       x1="-1.47"
       y1="14.91"
       x2="17.16"
       y2="14.8"
       gradientUnits="userSpaceOnUse">
      <stop
         offset="0"
         stop-color="#449cdd"
         stop-opacity="0.15"
         id="stop53386" />
      <stop
         offset="0.16"
         stop-color="#2870ab"
         stop-opacity="0"
         id="stop53388" />
      <stop
         offset="0.18"
         stop-color="#2469a3"
         stop-opacity="0.06"
         id="stop53390" />
      <stop
         offset="0.23"
         stop-color="#1a5991"
         stop-opacity="0.19"
         id="stop53392" />
      <stop
         offset="0.28"
         stop-color="#144f86"
         stop-opacity="0.27"
         id="stop53394" />
      <stop
         offset="0.34"
         stop-color="#124c82"
         stop-opacity="0.3"
         id="stop53396" />
      <stop
         offset="0.76"
         stop-color="#002851"
         stop-opacity="0.35"
         id="stop53398" />
      <stop
         offset="0.9"
         stop-color="#2f7ab6"
         stop-opacity="0"
         id="stop53400" />
      <stop
         offset="1"
         stop-color="#449cdd"
         stop-opacity="0"
         id="stop53402" />
    </linearGradient>
    <clipPath
       id="b36c7b72-34c8-47c6-ac8b-a96783f174f2">
      <circle
         cx="13.26"
         cy="13.27"
         r="4.1599998"
         id="circle53405"
         style="fill:none" />
    </clipPath>
  </defs>
  <title
     id="title53410">Icon-identity-225</title>
  <path
     d="m 5.0407505,10.08 h 4.33 v 4.35 h -4.33 z M 0.04075049,4.32 H 4.3207505 V 0 H 0.60075049 A 0.6,0.6 0 0 0 7.5049283e-4,0.6 Z m 0.56,10.11 H 4.3207505 V 10.08 H 7.5049283e-4 V 13.8 A 0.6,0.6 0 0 0 0.60075049,14.43 Z M 7.5049283e-4,9.43 H 4.3207505 V 5.04 H 7.5049283e-4 Z M 10.09075,14.43 h 3.72 a 0.6,0.6 0 0 0 0.6,-0.6 v -3.75 h -4.32 z m -4.9999995,-5 h 4.28 V 5.04 h -4.33 z m 5.0499995,0 h 4.29 V 5.04 h -4.34 z m 0,-9.36 v 4.25 h 4.29 V 0.6 a 0.6,0.6 0 0 0 -0.6,-0.6 z M 5.1407505,4.39 h 4.23 V 0 h -4.33 z"
     id="path53412"
     inkscape:connector-curvature="0"
     style="fill:url(#b715ec20-95db-414c-982b-71456fb0c9ab)" />
  <path
     d="m 10.09075,14.43 h 4.15 a 0.59,0.59 0 0 1 -0.18,-0.29 h -4 z"
     id="path53414"
     inkscape:connector-curvature="0"
     style="opacity:0.95;fill:url(#f7e46209-f134-49aa-a850-2e9a1b04fba6)" />
  <circle
     cx="12.690751"
     cy="12.700001"
     r="4.1599998"
     id="circle53416"
     style="fill:#32bedd" />
  <g
     clip-path="url(#b36c7b72-34c8-47c6-ac8b-a96783f174f2)"
     id="g53426"
     transform="translate(-0.56924951,-0.57)">
    <path
       d="m 17.06,13.87 c -0.21,0.11 -0.51,0.05 -0.65,0.16 a 1.6,1.6 0 0 0 -0.63,0.66 c 0,0.06 0,0.15 -0.07,0.18 -0.28,0.19 -0.56,0.39 -0.3,0.81 -0.3,0 -0.2,-0.27 -0.34,-0.35 a 0.77,0.77 0 0 0 -1.06,0.54 0.34,0.34 0 0 0 0.16,0.37 0.26,0.26 0 0 0 0.36,-0.12 0.18,0.18 0 0 1 0.26,-0.06 c 0,0.16 -0.28,0.45 0.18,0.46 0.12,0 0.09,0.14 0.06,0.23 -0.03,0.09 0.06,0.24 0.19,0.3 0.13,0.06 0,0 0,0.05 0,0.05 0,0 0,0 -0.37,0 -0.45,-0.45 -0.81,-0.5 A 4.28,4.28 0 0 1 13.98,16.46 C 13.71,16.37 13.4,16.32 13.34,15.92 A 0.77,0.77 0 0 0 12.98,15.43 C 12.86,15.35 12.79,15.2 12.67,15.11 a 1,1 0 0 0 -0.22,-0.36 0.94,0.94 0 0 1 -0.14,-0.87 2.32,2.32 0 0 0 -0.1,-1.68 c -0.1,-0.32 -0.12,-0.65 -0.48,-0.86 -0.36,-0.21 -0.3,0.12 -0.44,0.05 -0.14,-0.07 -0.22,0.13 -0.26,0.15 -0.29,0.08 -0.54,0.33 -0.91,0.29 0.14,-0.07 0.25,-0.11 0.35,-0.17 0.1,-0.06 0.29,-0.14 0.07,-0.38 -0.22,-0.24 -0.14,-0.59 0.45,-0.83 -0.05,-0.14 -0.41,-0.11 -0.25,-0.37 0.16,-0.26 0.28,-0.13 0.43,0 0.1,-0.19 -0.12,-0.43 0.05,-0.54 a 2.86,2.86 0 0 1 0.72,-0.29 0.25,0.25 0 0 1 0.34,0.11 c 0.18,0.28 0.54,0.33 0.72,0.61 0.05,0.09 0.15,0 0.22,0 0.41,-0.14 0.68,0.12 1,0.33 0.32,0.21 0.27,0.34 0.53,0.31 a 0.49,0.49 0 0 1 0.21,0 c 0.16,0.07 0.31,0.11 0.43,-0.06 a 0.3,0.3 0 0 0 0.26,-0.23 c 0.06,-0.09 0.09,-0.22 0.24,-0.16 A 1.15,1.15 0 0 0 16,11 c 0.13,-0.1 0.26,-0.16 0.11,-0.39 a 0.37,0.37 0 0 1 0.25,-0.56 0.54,0.54 0 0 1 0.63,0.23 c 0.19,0.34 0.25,0.73 0.47,1 0.07,0.09 0,0.13 0,0.2 0,0.07 -0.18,0 -0.28,-0.06 l 0.07,0.43 A 0.66,0.66 0 0 1 16.43,11.6 c 0,-0.12 0,-0.17 0.12,-0.23 0.12,-0.06 0.19,-0.11 0.19,-0.24 a 0.19,0.19 0 0 0 -0.1,-0.2 c -0.08,0 -0.13,0 -0.15,0.09 -0.02,0.09 -0.33,0.25 -0.28,0.53 0.05,0.28 -0.19,0.22 -0.33,0.14 -0.33,-0.17 -0.45,0.13 -0.59,0.29 -0.14,0.16 0,0.34 0.16,0.46 0.16,0.12 0.31,0.21 0.37,0.4 a 0.88,0.88 0 0 0 0.29,-0.58 c 0,-0.18 0.07,-0.43 0.32,-0.46 a 0.43,0.43 0 0 1 0.44,0.28 c 0.05,0.11 0.13,0.12 0.23,0.13 a 8.79,8.79 0 0 1 0.54,1.52 l -0.37,-0.05 c 0,-0.29 -0.25,-0.16 -0.39,-0.22 -0.04,0.18 0.19,0.23 0.18,0.41 z"
       id="path53418"
       inkscape:connector-curvature="0"
       style="fill:#b4ec36" />
    <path
       d="m 15.62,10.27 c -0.13,-0.12 -0.27,-0.23 -0.06,-0.4 0.21,-0.17 0.2,-0.29 0.3,0 a 0.37,0.37 0 0 1 -0.24,0.4 z"
       id="path53420"
       inkscape:connector-curvature="0"
       style="fill:#b4ec36" />
    <path
       d="m 15.93,9.87 c 0.11,-0.11 0.25,-0.1 0.27,0 0.02,0.1 -0.13,0.19 -0.26,0.23 -0.13,0.04 -0.09,-0.1 -0.01,-0.23 z"
       id="path53422"
       inkscape:connector-curvature="0"
       style="fill:#b4ec36" />
    <path
       d="M 15.16,8.94 14.81,9 c 0,-0.25 0.25,-0.27 0.42,-0.23 0.17,0.04 -0.02,0.12 -0.07,0.17 z"
       id="path53424"
       inkscape:connector-curvature="0"
       style="fill:#b4ec36" />
  </g>
  <metadata
     id="metadata53428">
    <rdf:RDF>
      <rdf:li>public:true</rdf:li>
      <rdf:li>sdk:false</rdf:li>
      <rdf:li>category: Identity</rdf:li>
      <cc:Work
         rdf:about="">
        <dc:format>image/svg+xml</dc:format>
        <dc:type
           rdf:resource="http://purl.org/dc/dcmitype/StillImage" />
        <dc:title>Icon-identity-225</dc:title>
      </cc:Work>
    </rdf:RDF>
  </metadata>
</svg>
