<?xml version="1.0" encoding="UTF-8" standalone="no"?>
<svg
   id="a8898592-bf29-4eda-b1ea-2b18c7285ba5"
   width="17.288967"
   height="17.495115"
   viewBox="0 0 17.288967 17.495115"
   version="1.1"
   sodipodi:docname="Verifiable_Credentials.svg"
   inkscape:version="1.1 (c68e22c387, 2021-05-23)"
   xmlns:inkscape="http://www.inkscape.org/namespaces/inkscape"
   xmlns:sodipodi="http://sodipodi.sourceforge.net/DTD/sodipodi-0.dtd"
   xmlns="http://www.w3.org/2000/svg"
   xmlns:svg="http://www.w3.org/2000/svg">
  <sodipodi:namedview
     id="namedview31038"
     pagecolor="#ffffff"
     bordercolor="#666666"
     borderopacity="1.0"
     inkscape:pageshadow="2"
     inkscape:pageopacity="0.0"
     inkscape:pagecheckerboard="0"
     showgrid="false"
     fit-margin-top="0"
     fit-margin-left="0"
     fit-margin-right="0"
     fit-margin-bottom="0"
     inkscape:zoom="44.055556"
     inkscape:cx="8.6368222"
     inkscape:cy="8.7503153"
     inkscape:window-width="1920"
     inkscape:window-height="1017"
     inkscape:window-x="-8"
     inkscape:window-y="-8"
     inkscape:window-maximized="1"
     inkscape:current-layer="a8898592-bf29-4eda-b1ea-2b18c7285ba5" />
  <defs
     id="defs31014">
    <linearGradient
       id="b818bdbf-e663-48cc-a78e-2514f2e62555"
       x1="5.6259999"
       y1="20.16"
       x2="7.1849999"
       y2="2.336"
       gradientTransform="matrix(1,0,0,-1,-0.35600001,19.748)"
       gradientUnits="userSpaceOnUse">
      <stop
         offset="0.5"
         stop-color="#b796f9"
         id="stop30982" />
      <stop
         offset="0.9"
         stop-color="#a67af4"
         id="stop30984" />
    </linearGradient>
    <linearGradient
       id="a95912e5-4bbc-452c-a181-55ee58dce6cf"
       x1="-21.466999"
       y1="2.2750001"
       x2="-21.129"
       y2="-1.5880001"
       gradientTransform="matrix(1,0,0,-1,27.244,7.552)"
       gradientUnits="userSpaceOnUse">
      <stop
         offset="0"
         stop-color="#a67af4"
         id="stop30987" />
      <stop
         offset="0.241"
         stop-color="#9065db"
         id="stop30989" />
      <stop
         offset="0.748"
         stop-color="#653eab"
         id="stop30991" />
      <stop
         offset="1"
         stop-color="#552f99"
         id="stop30993" />
    </linearGradient>
    <linearGradient
       id="b84ce264-95e1-4f08-a0d6-a2024606ee73"
       x1="-21.32"
       y1="5.276"
       x2="-21.023001"
       y2="1.887"
       gradientTransform="matrix(1,0,0,-1,27.244,7.552)"
       gradientUnits="userSpaceOnUse">
      <stop
         offset="0"
         stop-color="#a67af4"
         id="stop30996" />
      <stop
         offset="0.241"
         stop-color="#9065db"
         id="stop30998" />
      <stop
         offset="0.748"
         stop-color="#653eab"
         id="stop31000" />
      <stop
         offset="1"
         stop-color="#552f99"
         id="stop31002" />
    </linearGradient>
    <linearGradient
       id="ec05d69e-0e76-48d4-9c6c-f76452764ef1"
       x1="13.248"
       y1="2.2520001"
       x2="13.248"
       y2="10.977"
       gradientTransform="matrix(1,0,0,-1,-0.35600001,19.748)"
       gradientUnits="userSpaceOnUse">
      <stop
         offset="0"
         stop-color="#76bc2d"
         id="stop31005" />
      <stop
         offset="0.309"
         stop-color="#7ac22e"
         id="stop31007" />
      <stop
         offset="0.718"
         stop-color="#84d332"
         id="stop31009" />
      <stop
         offset="0.785"
         stop-color="#86d633"
         id="stop31011" />
    </linearGradient>
  </defs>
  <rect
     x="0"
     y="0"
     width="12.099"
     height="17"
     rx="0.58499998"
     fill="url(#b818bdbf-e663-48cc-a78e-2514f2e62555)"
     id="rect31016"
     style="fill:url(#b818bdbf-e663-48cc-a78e-2514f2e62555)" />
  <rect
     x="2.5710001"
     y="12.735001"
     width="6.9569998"
     height="1.24"
     rx="0.30599999"
     fill="#773adc"
     id="rect31018" />
  <rect
     x="2.5710001"
     y="10.33"
     width="6.9569998"
     height="1.24"
     rx="0.30599999"
     fill="#773adc"
     id="rect31020" />
  <path
     d="m 8.544,8.923 a 0.52,0.52 0 0 0 0.539,-0.5 V 8.406 a 0.342,0.342 0 0 0 0,-0.064 C 8.869,6.642 7.903,5.267 6.062,5.267 c -1.841,0 -2.847,1.17 -3.047,3.062 a 0.543,0.543 0 0 0 0.486,0.594 z"
     fill="url(#a95912e5-4bbc-452c-a181-55ee58dce6cf)"
     id="path31022"
     style="fill:url(#a95912e5-4bbc-452c-a181-55ee58dce6cf)" />
  <path
     d="M 6.084,5.671 A 1.681,1.681 0 0 1 5.184,5.4 l 0.9,2.38 0.91,-2.363 a 1.72,1.72 0 0 1 -0.91,0.254 z"
     fill="#f2f2f2"
     id="path31024" />
  <circle
     cx="6.073"
     cy="3.97"
     r="1.701"
     fill="url(#b84ce264-95e1-4f08-a0d6-a2024606ee73)"
     id="circle31026"
     style="fill:url(#b84ce264-95e1-4f08-a0d6-a2024606ee73)" />
  <path
     d="m 13.328,8.9 0.5,0.323 A 0.793,0.793 0 0 0 14.26,9.35 h 0.6 a 0.8,0.8 0 0 1 0.727,0.468 l 0.249,0.544 a 0.785,0.785 0 0 0 0.295,0.34 l 0.5,0.323 a 0.8,0.8 0 0 1 0.359,0.786 l -0.085,0.592 a 0.786,0.786 0 0 0 0.064,0.446 l 0.248,0.544 a 0.8,0.8 0 0 1 -0.123,0.855 L 16.703,14.7 a 0.788,0.788 0 0 0 -0.187,0.41 l -0.086,0.592 a 0.8,0.8 0 0 1 -0.566,0.653 l -0.573,0.169 a 0.8,0.8 0 0 0 -0.379,0.243 l -0.392,0.452 a 0.8,0.8 0 0 1 -0.829,0.244 l -0.574,-0.169 a 0.8,0.8 0 0 0 -0.45,0 l -0.574,0.169 A 0.8,0.8 0 0 1 11.264,17.219 L 10.872,16.767 A 0.807,0.807 0 0 0 10.493,16.524 L 9.919,16.355 A 0.8,0.8 0 0 1 9.354,15.702 L 9.268,15.11 A 0.8,0.8 0 0 0 9.081,14.7 L 8.69,14.248 A 0.8,0.8 0 0 1 8.567,13.393 L 8.815,12.849 A 0.8,0.8 0 0 0 8.879,12.403 L 8.794,11.811 a 0.8,0.8 0 0 1 0.359,-0.786 l 0.5,-0.323 a 0.8,0.8 0 0 0 0.295,-0.34 l 0.249,-0.544 a 0.8,0.8 0 0 1 0.727,-0.47 h 0.6 a 0.8,0.8 0 0 0 0.432,-0.127 l 0.5,-0.323 A 0.8,0.8 0 0 1 13.328,8.9 Z"
     fill="url(#ec05d69e-0e76-48d4-9c6c-f76452764ef1)"
     id="path31030"
     style="fill:url(#ec05d69e-0e76-48d4-9c6c-f76452764ef1)" />
  <path
     d="m 12.799,10.213 a 3,3 0 1 0 3,3 v 0 a 3,3 0 0 0 -3,-3 z"
     fill="#b4ec36"
     id="path31032" />
</svg>
