<svg xmlns="http://www.w3.org/2000/svg" viewBox="0 0 59.5 59.5"><g fill="#f3783a"><circle cx="29.7" cy="29.7" r="29.7"/><ellipse cx="35.1" cy="48.8" rx="3" ry="1.7"/></g><g fill="none"><ellipse cx="29.2" cy="29.4" rx="18.1" ry="18" stroke="#fff" stroke-width="6"/><g stroke="#f3783b" stroke-width="2" stroke-miterlimit="10"><path d="M51.5 17.4L46.3 25"/><path d="M47.3 24.5L35 22.9M4 33.8l7.9-4.5"/><path d="M10.9 29.2l10.2 7"/></g></g><g fill="#f3783a"><circle cx="39.6" cy="45.7" r="5.3"/><ellipse cx="29.1" cy="47.5" rx="7.2" ry="7"/></g><g fill="#fff"><path d="M34 47.5c0-.6-.1-1.1-.3-1.7l1.2-1.5-1.5-1.9-1.8.9c-.2-.1-.4-.2-.7-.3-.2-.1-.4-.2-.7-.2l-.6-1.8-2.3.5-.1 1.8c-.5.2-.9.6-1.3 1.1l-1.8-.2-.9 2.2 1.5 1A4.53 4.53 0 0 0 25 49l-1.2 1.4 1.5 1.8 1.7-.8c.2.1.4.2.7.3.2.1.4.2.7.2l.7 1.8 2.3-.4.1-1.8c.5-.3.9-.6 1.3-1.1l1.8.2.9-2.2-1.5-.9zm.4 2.8l-1.5-.2h-.2l-.1.2c-.3.4-.7.7-1.2 1l-.2.1V53l-1.8.3-.6-1.5-.1-.2h-.2c-.2-.1-.5-.1-.7-.2L27 51l-.2.1-1.5.8-1.1-1.4 1-1.2.1-.2V49c-.2-.5-.3-1-.3-1.5v-.2l-.2-.1-1.2-.8.6-1.7 1.5.2h.2l.1-.2c.3-.4.7-.7 1.2-1l.2-.1v-.2l.1-1.5 1.8-.3.6 1.5.1.2h.2c.2.1.5.1.7.2l.8.4.2-.1 1.5-.8 1.1 1.4-1 1.2-.1.2.1.2c.2.5.3 1 .3 1.5v.2l.2.1 1.2.8-.8 1.7z" stroke="#fff" stroke-miterlimit="10"/><path d="M27.2 46.6c-.5 1.2.2 2.6 1.4 3.1s2.6-.1 3.1-1.3v-.1c.5-1.2-.2-2.6-1.4-3.1s-2.6 0-3.1 1.2v.2zm3 1.2c-.2.4-.6.7-1.1.5-.4-.2-.7-.6-.5-1.1.1-.5.6-.6 1.1-.5.4.2.6.6.5 1.1z"/><path d="M42.7 44c-.2-.3-.5-.6-.8-.8L42 42l-1.5-.5-.7 1.1c-.2 0-.3 0-.5.1-.2 0-.3.1-.5.1l-1-.8-1.2 1.1.6 1.1c-.2.3-.3.7-.4 1.1l-1.1.5.3 1.6h1.2c.2.3.5.6.8.8l-.1 1.2 1.5.5.7-1.1c.2 0 .3 0 .5-.1.2 0 .3-.1.5-.1l1.1.8 1.2-1.1-.6-1.1c.2-.3.3-.7.4-1.1l1.1-.5-.5-1.6h-1.1zm1.2 1.5l-.9.3-.1.1v.1l-.3 1-.1.1.1.1.5.9-.9.8-.9-.7-.1-.1-.1.1c-.1.1-.3.1-.4.1-.2 0-.3 0-.5.1H40v.1l-.6.9-1.1-.4.1-1v-.2l-.1-.1c-.3-.2-.5-.5-.7-.8l-.1-.1h-1l-.2-1.2.9-.4.1-.1V45l.3-1 .1-.1-.1-.1-.5-.8.9-.8.9.7.1.1.1-.1c.1-.1.3-.1.4-.1.2 0 .3 0 .5-.1h.2l.1-.1.6-.9 1.1.4-.1 1v.2l.1.1c.3.2.5.5.7.8l.1.1h1.1v1.2z" stroke="#fff" stroke-miterlimit="10"/><path d="M38.4 45.9c.2.9 1.1 1.4 1.9 1.3s1.4-.9 1.3-1.8v-.1c-.2-.9-1.1-1.4-1.9-1.3-.9.2-1.4 1-1.3 1.9zm2.2-.4c.1.2 0 .5-.3.6h-.1c-.3.1-.6-.1-.7-.4-.1-.2 0-.5.3-.6h.1c.3-.1.6.1.7.4z"/></g></svg>