<svg xmlns="http://www.w3.org/2000/svg" viewBox="0 0 60.2 60.2"><circle cx="30.1" cy="30.1" r="30.1" fill="#f37738"/><path d="M45.3 39.6H35.2c-1.4 0-2.5 1.1-2.5 2.5V46h15.2v-3.8c-.1-1.4-1.2-2.5-2.6-2.6zm-20.3 0H14.9c-1.4 0-2.5 1.1-2.6 2.5V46h15.2v-3.8c.1-1.4-1-2.5-2.5-2.6zm11.4-22.8c0-3.5-2.9-6.3-6.4-6.3s-6.3 2.9-6.3 6.4 2.8 6.3 6.3 6.3c3.6 0 6.4-2.8 6.4-6.4 0 .1 0 .1 0 0zm-6.3 5.1c-2.8 0-5.1-2.3-5.1-5.1s2.3-5.1 5.1-5.1 5.1 2.3 5.1 5.1-2.3 5.1-5.1 5.1zm3.8 8.9c0 3.5 2.8 6.3 6.3 6.3s6.3-2.8 6.3-6.3-2.8-6.3-6.3-6.3-6.3 2.8-6.3 6.3zm6.3-5.1c2.8 0 5.1 2.3 5.1 5.1s-2.3 5.1-5.1 5.1-5.1-2.3-5.1-5.1c.1-2.8 2.3-5.1 5.1-5.1zM19.9 37.1c3.5 0 6.3-2.8 6.3-6.3s-2.8-6.3-6.3-6.3-6.3 2.8-6.3 6.3 2.8 6.3 6.3 6.3zm0-11.4c2.8 0 5.1 2.2 5.1 5s-2.2 5.1-5 5.1-5.1-2.2-5.1-5 2.3-5.1 5-5.1z" fill="#fff"/></svg>