<svg xmlns="http://www.w3.org/2000/svg" viewBox="0 0 60.2 60.2"><circle cx="30.1" cy="30.1" r="30.1" fill="#f37738"/><path d="M16.5 32L12 27.5l1.4-1.4h1.7v-1.7l7.1-7.1h9L19.6 28.9h-1.7v1.7L16.5 32zm-3.4-4.5l3.3 3.3.6-.6V28h2.2l10-10h-6.7l-6.6 6.7V27h-2.2l-.6.5zm25.7 4.7c3.7 1.3 7.7-.7 9-4.4.4-1.1.5-2.4.3-3.5l-.3-1.5-3.8 3.8c-1.1 1.1-2.8 1.1-3.9 0s-1.1-2.8 0-3.9l3.8-3.8-1.5-.3c-3.8-.7-7.5 1.9-8.2 5.7-.1.4-.1.8-.1 1.3 0 .8.1 1.6.4 2.3l-3.4 3.4-6.2-6.2-3.7 3.7 6.2 6.2-4.9 4.9c-1.2 1.2-1.2 3.1 0 4.3s3.1 1.2 4.3 0l4.9-4.9 6 6 3.7-3.7-6-6 3.4-3.4zm-16.4-3.4l2.5-2.5 5.6 5.6-2.5 2.5-5.6-5.6zm17.8 12.8l-2.5 2.5-5.4-5.4 2.5-2.5 5.4 5.4zm-2-10l-12 12a2.23 2.23 0 0 1-3.2 0 2.23 2.23 0 0 1 0-3.2L35.4 28l-.2-.5c-1.1-3.3.6-6.8 3.9-8 1-.3 2.1-.4 3.1-.2l-2.7 2.8c-1.4 1.4-1.4 3.6 0 5.1a3.5 3.5 0 0 0 5 0l2.7-2.7c.6 3.4-1.6 6.6-5 7.3-1.1.2-2.2.1-3.2-.3l-.5-.3-.3.4z" fill="#fff"/></svg>