<svg xmlns="http://www.w3.org/2000/svg" viewBox="0 0 60.2 60.2"><circle cx="30.1" cy="30.1" r="30.1" fill="#f37738"/><path d="M14.593 43.155l2.45-3.162.712.55-2.45 3.162zm.38 2.85l3.67-3.684.638.635-3.67 3.684zm2.87.232l3.245-2.506.55.712-3.245 2.506zM46.4 15.3s-7.3-6.2-18.8 10.4l-1.3 1.8c-6.6-.3-10.4 6.5-10.4 6.5l5.1 1.4-1.2 1.7v.1s-.4.6 1.6 2.9l.1.1c.1.1.2.1.3.2 1.9 1.6 2.6 1.6 2.8 1.6l.2-.1 1.8-1.2L28 46s6.8-3.8 6.4-10.4v-.3l1.7-1.2c16.5-11.5 10.3-18.8 10.3-18.8zM37 28.1c-1.8 0-3.2-1.4-3.3-3.2 0-1.8 1.4-3.2 3.2-3.3 1.8 0 3.2 1.4 3.3 3.2 0 1.8-1.4 3.3-3.2 3.3z" fill="#fff"/></svg>