<svg xmlns="http://www.w3.org/2000/svg" viewBox="0 0 59.5 59.4"><circle cx="29.7" cy="29.7" r="29.7" fill="#f37738"/><g fill="#fff"><path d="M48.3 48.8H39a.47.47 0 0 1-.5-.5V29.7a.47.47 0 0 1 .5-.5h9.3a.47.47 0 0 1 .5.5v18.6c.1.3-.2.5-.5.5zm-8.8-1h8.3V30.2h-8.3v17.6zM27.3 20.9a.47.47 0 0 1-.5-.5v-9.3a.47.47 0 0 1 .5-.5c.1 0 .2 0 .2.1l8.1 4.7c.2.1.3.5.2.7 0 .1-.1.1-.2.2l-8.1 4.6h-.2zm.5-8.9v7.5l6.5-3.8-6.5-3.7z"/><path d="M15.8 35.4a.47.47 0 0 1-.5-.5V15.8a.47.47 0 0 1 .5-.5h11.5c.3.1.5.3.4.6 0 .2-.2.4-.4.4h-11v18.6c0 .2-.3.5-.5.5m0 13.4c-2.8 0-5.2-2.3-5.2-5.2 0-2.8 2.3-5.2 5.2-5.2s5.2 2.3 5.2 5.2c-.1 2.9-2.4 5.2-5.2 5.2zm0-9.3c-2.3 0-4.1 1.9-4.1 4.1 0 2.3 1.9 4.1 4.1 4.1 2.3 0 4.1-1.8 4.1-4.1 0-2.2-1.8-4.1-4.1-4.1z"/><path d="M34.9 44.2H20.4c-.3.1-.5-.1-.6-.4s.1-.5.4-.6h14.6c.3-.1.5.1.6.4s-.1.5-.4.6h-.1zm8.8-14a.47.47 0 0 1-.5-.5V16.3h-3.6c-.3.1-.5-.1-.6-.4s.1-.5.4-.6h4.4a.47.47 0 0 1 .5.5v14c-.1.3-.3.5-.6.4z"/></g></svg>