<?xml version="1.0" encoding="UTF-8" standalone="no"?>
<svg
   width="15.6"
   height="18.002312"
   viewBox="0 0 15.6 18.002312"
   version="1.1"
   id="svg15318"
   sodipodi:docname="CloudTest.svg"
   inkscape:version="1.1 (c68e22c387, 2021-05-23)"
   xmlns:inkscape="http://www.inkscape.org/namespaces/inkscape"
   xmlns:sodipodi="http://sodipodi.sourceforge.net/DTD/sodipodi-0.dtd"
   xmlns="http://www.w3.org/2000/svg"
   xmlns:svg="http://www.w3.org/2000/svg"><sodipodi:namedview
   id="namedview15320"
   pagecolor="#ffffff"
   bordercolor="#666666"
   borderopacity="1.0"
   inkscape:pageshadow="2"
   inkscape:pageopacity="0.0"
   inkscape:pagecheckerboard="0"
   showgrid="false"
   fit-margin-top="0"
   fit-margin-left="0"
   fit-margin-right="0"
   fit-margin-bottom="0"
   inkscape:zoom="44.055556"
   inkscape:cx="7.7969735"
   inkscape:cy="9"
   inkscape:window-width="1920"
   inkscape:window-height="1017"
   inkscape:window-x="-8"
   inkscape:window-y="-8"
   inkscape:window-maximized="1"
   inkscape:current-layer="svg15318" />
<defs
   id="defs15308">
  <linearGradient
     id="a21442fc-506b-43e3-a358-5cded6ec12b1"
     x1="9"
     y1="780.461"
     x2="9"
     y2="791.51599"
     gradientTransform="matrix(1,0,0,-1,-1.2,791.51831)"
     gradientUnits="userSpaceOnUse">
    <stop
       offset="0"
       stop-color="#0078d4"
       id="stop15298" />
    <stop
       offset="1"
       stop-color="#5ea0ef"
       id="stop15300" />
  </linearGradient>
  <linearGradient
     id="a2adb825-0205-4c0d-ac4b-0541f30617d1"
     x1="7.9050002"
     y1="18"
     x2="7.9050002"
     y2="5.1620002"
     gradientUnits="userSpaceOnUse"
     gradientTransform="translate(-1.2,0.00231238)">
    <stop
       offset="0"
       stop-color="#50e6ff"
       id="stop15303" />
    <stop
       offset="1"
       stop-color="#9cebff"
       id="stop15305" />
  </linearGradient>
</defs>
<path
   d="m 15.6,7.5933124 a 3.5,3.5 0 0 0 -3.04,-3.365 A 4.412,4.412 0 0 0 8.009,0.00231238 4.529,4.529 0 0 0 3.681,2.9563124 4.179,4.179 0 0 0 0,6.9773124 4.242,4.242 0 0 0 4.39,11.054312 c 0.13,0 0.259,-0.006 0.386,-0.016 h 7.11 a 0.706,0.706 0 0 0 0.183,-0.029 3.544,3.544 0 0 0 3.531,-3.4159996 z"
   fill="url(#a21442fc-506b-43e3-a358-5cded6ec12b1)"
   id="path15310"
   style="fill:url(#a21442fc-506b-43e3-a358-5cded6ec12b1)" />
<path
   d="M 12.819,18.002312 H 0.6 c -0.393,0 -0.621,-0.621 -0.406,-0.95 l 4.206,-6.869 A 0.426,0.426 0 0 0 4.493,9.9023124 v -3.318 a 0.252,0.252 0 0 0 -0.241,-0.241 H 4.024 a 0.481,0.481 0 0 1 -0.481,-0.482 v 0 -0.215 a 0.481,0.481 0 0 1 0.481,-0.482 h 5.361 a 0.481,0.481 0 0 1 0.481,0.482 v 0 0.215 a 0.481,0.481 0 0 1 -0.481,0.482 H 9.157 a 0.241,0.241 0 0 0 -0.241,0.241 v 3.333 a 0.453,0.453 0 0 0 0.089,0.2789996 l 4.207,6.856 c 0.216,0.316 -0.012,0.95 -0.393,0.95 z"
   fill="url(#a2adb825-0205-4c0d-ac4b-0541f30617d1)"
   id="path15312"
   style="fill:url(#a2adb825-0205-4c0d-ac4b-0541f30617d1)" />
<path
   d="m 1.446,16.781312 3.577,-5.959 a 1.334,1.334 0 0 0 0.284,-0.738 V 8.7183124 a 0.412,0.412 0 0 1 0.411,-0.416 h 2.044 a 0.412,0.412 0 0 1 0.412,0.412 v 1.5079996 a 0.866,0.866 0 0 0 0.156,0.5 l 3.662,6.058 a 0.327,0.327 0 0 1 -0.255,0.5 H 1.8 a 0.312,0.312 0 0 1 -0.354,-0.5 z"
   fill="#005ba1"
   id="path15314" />
<path
   d="m 9.181,14.694312 a 1.314,1.314 0 0 0 -1.131,-0.638 c -0.014,0 -0.022,0.012 -0.035,0.015 a 1.261,1.261 0 0 0 -0.1,-0.465 1.2,1.2 0 0 0 0.761,-0.56 0.1854973,0.1854973 0 1 0 -0.321,-0.186 0.825,0.825 0 0 1 -0.67,0.406 1.244,1.244 0 0 0 -0.437,-0.318 0.571,0.571 0 0 0 0.244,-0.461 0.582,0.582 0 0 0 -0.582,-0.585 H 6.579 a 0.583,0.583 0 0 0 -0.582,0.582 0.571,0.571 0 0 0 0.244,0.461 1.243,1.243 0 0 0 -0.474,0.373 0.819,0.819 0 0 1 -0.671,-0.406 0.18611421,0.18611421 0 0 0 -0.323,0.185 1.191,1.191 0 0 0 0.783,0.564 1.249,1.249 0 0 0 -0.09,0.446 v 0.018 c -0.008,0 -0.014,-0.01 -0.023,-0.01 a 1.314,1.314 0 0 0 -1.131,0.638 0.185,0.185 0 0 0 0.062,0.255 0.192,0.192 0 0 0 0.1,0.027 0.184,0.184 0 0 0 0.158,-0.09 0.948,0.948 0 0 1 0.814,-0.459 c 0.009,0 0.015,-0.008 0.023,-0.009 v 0.444 a 1.228,1.228 0 0 0 0.065,0.322 1.307,1.307 0 0 0 -0.842,0.806 0.186,0.186 0 0 0 0.108,0.24 0.2,0.2 0 0 0 0.062,0.01 0.186,0.186 0 0 0 0.175,-0.123 0.938,0.938 0 0 1 0.641,-0.591 1.24,1.24 0 0 0 1.047,0.6 h 0.036 a 1.246,1.246 0 0 0 1.088,-0.662 0.94,0.94 0 0 1 0.641,0.591 0.186,0.186 0 0 0 0.175,0.123 0.2,0.2 0 0 0 0.062,-0.01 0.186,0.186 0 0 0 0.113,-0.238 1.31,1.31 0 0 0 -0.87,-0.814 1.165,1.165 0 0 0 0.051,-0.251 v -0.508 c 0.01,0 0.016,0.011 0.027,0.011 a 0.948,0.948 0 0 1 0.814,0.459 0.184,0.184 0 0 0 0.158,0.09 0.192,0.192 0 0 0 0.1,-0.027 0.186,0.186 0 0 0 0.061,-0.255 z"
   fill="#c3f1ff"
   id="path15316" />
​
</svg>
