<?xml version="1.0" encoding="UTF-8" standalone="no"?>
<svg
   xmlns:dc="http://purl.org/dc/elements/1.1/"
   xmlns:cc="http://creativecommons.org/ns#"
   xmlns:rdf="http://www.w3.org/1999/02/22-rdf-syntax-ns#"
   xmlns:svg="http://www.w3.org/2000/svg"
   xmlns="http://www.w3.org/2000/svg"
   xmlns:sodipodi="http://sodipodi.sourceforge.net/DTD/sodipodi-0.dtd"
   xmlns:inkscape="http://www.inkscape.org/namespaces/inkscape"
   id="a98517fd-0655-40a4-8dda-ae47a1480280"
   width="17.02"
   height="16.402159"
   viewBox="0 0 17.02 16.402159"
   version="1.1"
   sodipodi:docname="DevTest_Labs.svg"
   inkscape:version="0.92.3 (2405546, 2018-03-11)">
  <sodipodi:namedview
     pagecolor="#ffffff"
     bordercolor="#666666"
     borderopacity="1"
     objecttolerance="10"
     gridtolerance="10"
     guidetolerance="10"
     inkscape:pageopacity="0"
     inkscape:pageshadow="2"
     inkscape:window-width="1920"
     inkscape:window-height="1017"
     id="namedview16192"
     showgrid="false"
     fit-margin-top="0"
     fit-margin-left="0"
     fit-margin-right="0"
     fit-margin-bottom="0"
     inkscape:zoom="48.111111"
     inkscape:cx="8.52"
     inkscape:cy="8.2"
     inkscape:window-x="-8"
     inkscape:window-y="-8"
     inkscape:window-maximized="1"
     inkscape:current-layer="a98517fd-0655-40a4-8dda-ae47a1480280" />
  <defs
     id="defs16179">
    <linearGradient
       id="b80226ba-6d0d-4956-8f19-ab3101ca010c"
       x1="9"
       y1="16.389999"
       x2="9"
       y2="-1.9400001"
       gradientUnits="userSpaceOnUse">
      <stop
         offset="0"
         stop-color="#0078d4"
         id="stop16153" />
      <stop
         offset="0.16"
         stop-color="#1380da"
         id="stop16155" />
      <stop
         offset="0.53"
         stop-color="#3c91e5"
         id="stop16157" />
      <stop
         offset="0.82"
         stop-color="#559cec"
         id="stop16159" />
      <stop
         offset="1"
         stop-color="#5ea0ef"
         id="stop16161" />
    </linearGradient>
    <linearGradient
       id="a4c1ad8b-2628-48af-97c3-ee4a90db0ba3"
       x1="9.8800001"
       y1="7.1100001"
       x2="9.9899998"
       y2="17.27"
       gradientUnits="userSpaceOnUse">
      <stop
         offset="0"
         stop-color="#32d4f5"
         id="stop16164" />
      <stop
         offset="0.32"
         stop-color="#31d1f3"
         id="stop16166" />
      <stop
         offset="0.53"
         stop-color="#2ec9eb"
         id="stop16168" />
      <stop
         offset="0.7"
         stop-color="#29bade"
         id="stop16170" />
      <stop
         offset="0.86"
         stop-color="#22a5cb"
         id="stop16172" />
      <stop
         offset="1"
         stop-color="#198ab3"
         id="stop16174" />
      <stop
         offset="1"
         stop-color="#198ab3"
         id="stop16176" />
    </linearGradient>
  </defs>
  <title
     id="title16181">Icon-devops-264</title>
  <path
     d="m 17.02,8.2821581 a 3.82,3.82 0 0 0 -3.32,-3.67 4.81,4.81 0 0 0 -4.95,-4.61 5,5 0 0 0 -4.75,3.2 4.54,4.54 0 0 0 -4,4.39 4.62,4.62 0 0 0 4.79,4.4399999 3,3 0 0 0 0.42,0 h 7.75 a 0.64,0.64 0 0 0 0.2,0 3.86,3.86 0 0 0 3.86,-3.7499999 z"
     id="path16183"
     inkscape:connector-curvature="0"
     style="fill:url(#b80226ba-6d0d-4956-8f19-ab3101ca010c)" />
  <path
     d="M 14.33,16.402158 H 4.69 c -0.31,0 -0.49,-0.49 -0.32,-0.75 l 3.32,-4.84 a 0.34,0.34 0 0 0 0.07,-0.22 V 7.3921581 a 0.2,0.2 0 0 0 -0.19,-0.19 H 7.39 a 0.38,0.38 0 0 1 -0.38,-0.38 v -0.17 a 0.38,0.38 0 0 1 0.38,-0.38 h 4.23 a 0.38,0.38 0 0 1 0.38,0.38 v 0.17 a 0.38,0.38 0 0 1 -0.38,0.38 h -0.18 a 0.19,0.19 0 0 0 -0.19,0.19 v 3.2099999 a 0.36,0.36 0 0 0 0.07,0.22 l 3.32,4.83 c 0.17,0.25 -0.01,0.75 -0.31,0.75 z"
     id="path16185"
     inkscape:connector-curvature="0"
     style="fill:url(#a4c1ad8b-2628-48af-97c3-ee4a90db0ba3)" />
  <path
     d="m 5.8,15.102158 2.52,-3.68 a 0.94,0.94 0 0 0 0.2,-0.52 V 9.4221581 a 0.29,0.29 0 0 1 0.29,-0.29 h 1.44 a 0.29,0.29 0 0 1 0.29,0.29 v 1.5799999 a 0.61,0.61 0 0 0 0.11,0.35 l 2.58,3.75 a 0.23,0.23 0 0 1 -0.18,0.35 h -7 a 0.22,0.22 0 0 1 -0.25,-0.35 z"
     id="path16187"
     inkscape:connector-curvature="0"
     style="fill:#552f99" />
  <metadata
     id="metadata16189">
    <rdf:RDF>
      <rdf:li>public:true</rdf:li>
      <rdf:li>sdk:false</rdf:li>
      <rdf:li>category: DevOps</rdf:li>
      <cc:Work
         rdf:about="">
        <dc:format>image/svg+xml</dc:format>
        <dc:type
           rdf:resource="http://purl.org/dc/dcmitype/StillImage" />
        <dc:title>Icon-devops-264</dc:title>
      </cc:Work>
    </rdf:RDF>
  </metadata>
</svg>
