<?xml version="1.0" encoding="UTF-8" standalone="no"?>
<svg
   xmlns:dc="http://purl.org/dc/elements/1.1/"
   xmlns:cc="http://creativecommons.org/ns#"
   xmlns:rdf="http://www.w3.org/1999/02/22-rdf-syntax-ns#"
   xmlns:svg="http://www.w3.org/2000/svg"
   xmlns="http://www.w3.org/2000/svg"
   xmlns:sodipodi="http://sodipodi.sourceforge.net/DTD/sodipodi-0.dtd"
   xmlns:inkscape="http://www.inkscape.org/namespaces/inkscape"
   id="af6a2c42-bd48-4857-a479-aecf8b3de4f6"
   width="18.08"
   height="15.9"
   viewBox="0 0 18.08 15.9"
   version="1.1"
   sodipodi:docname="Container_Services_(Deprecated).svg"
   inkscape:version="0.92.3 (2405546, 2018-03-11)">
  <sodipodi:namedview
     pagecolor="#ffffff"
     bordercolor="#666666"
     borderopacity="1"
     objecttolerance="10"
     gridtolerance="10"
     guidetolerance="10"
     inkscape:pageopacity="0"
     inkscape:pageshadow="2"
     inkscape:window-width="1920"
     inkscape:window-height="1017"
     id="namedview4391"
     showgrid="false"
     fit-margin-top="0"
     fit-margin-left="0"
     fit-margin-right="0"
     fit-margin-bottom="0"
     inkscape:zoom="48.111111"
     inkscape:cx="9"
     inkscape:cy="8.12"
     inkscape:window-x="-8"
     inkscape:window-y="-8"
     inkscape:window-maximized="1"
     inkscape:current-layer="af6a2c42-bd48-4857-a479-aecf8b3de4f6" />
  <defs
     id="defs4352">
    <linearGradient
       id="b70c9cf1-bab8-47e0-bbdb-ce1cd664d268"
       x1="2.9400001"
       y1="3.74"
       x2="8.6700001"
       y2="3.74"
       gradientUnits="userSpaceOnUse"
       gradientTransform="translate(0,1.22)">
      <stop
         offset="0"
         stop-color="#b77af4"
         id="stop4317" />
      <stop
         offset="1"
         stop-color="#773adc"
         id="stop4319" />
    </linearGradient>
    <linearGradient
       id="beb69953-bd96-4515-8843-ac12546af936"
       x1="9.1300001"
       y1="3.79"
       x2="14.85"
       y2="3.79"
       gradientUnits="userSpaceOnUse"
       gradientTransform="translate(0,1.22)">
      <stop
         offset="0"
         stop-color="#b77af4"
         id="stop4322" />
      <stop
         offset="1"
         stop-color="#773adc"
         id="stop4324" />
    </linearGradient>
    <linearGradient
       id="a39c76e8-547e-4eb4-bc25-d81c0f8cda62"
       x1="0.0099999998"
       y1="9.1199999"
       x2="5.73"
       y2="9.1199999"
       gradientUnits="userSpaceOnUse"
       gradientTransform="translate(0,1.22)">
      <stop
         offset="0"
         stop-color="#b77af4"
         id="stop4327" />
      <stop
         offset="1"
         stop-color="#773adc"
         id="stop4329" />
    </linearGradient>
    <linearGradient
       id="f0a2a491-17dc-4bb8-bbfc-ee58a5cf47da"
       x1="6.1799998"
       y1="9.0799999"
       x2="11.9"
       y2="9.0799999"
       gradientUnits="userSpaceOnUse"
       gradientTransform="translate(0,1.22)">
      <stop
         offset="0"
         stop-color="#b77af4"
         id="stop4332" />
      <stop
         offset="1"
         stop-color="#773adc"
         id="stop4334" />
    </linearGradient>
    <linearGradient
       id="efc6a56d-8585-417d-931a-1dac2114ccd0"
       x1="12.35"
       y1="9.1300001"
       x2="18.08"
       y2="9.1300001"
       gradientUnits="userSpaceOnUse"
       gradientTransform="translate(0,1.22)">
      <stop
         offset="0"
         stop-color="#b77af4"
         id="stop4337" />
      <stop
         offset="1"
         stop-color="#773adc"
         id="stop4339" />
    </linearGradient>
    <linearGradient
       id="e399aa93-341f-4df2-9c02-603b82b484c2"
       x1="2.8699999"
       y1="14.56"
       x2="8.6000004"
       y2="14.56"
       gradientUnits="userSpaceOnUse"
       gradientTransform="translate(0,1.22)">
      <stop
         offset="0"
         stop-color="#b77af4"
         id="stop4342" />
      <stop
         offset="1"
         stop-color="#773adc"
         id="stop4344" />
    </linearGradient>
    <linearGradient
       id="a152bba0-ba2b-483a-b8c1-0ae7de355990"
       x1="9.0500002"
       y1="14.6"
       x2="14.78"
       y2="14.6"
       gradientUnits="userSpaceOnUse"
       gradientTransform="translate(0,1.22)">
      <stop
         offset="0"
         stop-color="#b77af4"
         id="stop4347" />
      <stop
         offset="1"
         stop-color="#773adc"
         id="stop4349" />
    </linearGradient>
  </defs>
  <title
     id="title4354">Icon-compute-23</title>
  <polygon
     points="2.94,5.65 5.8,6.26 8.67,5.11 8.67,2.2 5.8,1.22 2.94,1.75 "
     id="polygon4356"
     style="fill:url(#b70c9cf1-bab8-47e0-bbdb-ce1cd664d268)"
     transform="translate(0,-1.22)" />
  <path
     d="M 5.91,4.98 8.53,3.92 A 0.2,0.2 0 0 0 8.65,3.78 V 1.14 A 0.21,0.21 0 0 0 8.52,0.96 L 5.87,0.06 H 5.75 L 3.15,0.54 A 0.2,0.2 0 0 0 3,0.72 V 4.25 A 0.19,0.19 0 0 0 3.15,4.44 L 5.78,4.99 A 0.32,0.32 0 0 0 5.91,4.98 Z"
     id="path4358"
     inkscape:connector-curvature="0"
     style="fill:none" />
  <path
     d="m 2.94,0.53 v 3.9 l 2.89,0.61 v -5 z M 4.16,4.13 3.35,3.97 v -3 L 4.16,0.84 Z M 5.42,4.36 4.49,4.21 V 0.78 L 5.42,0.62 Z"
     id="path4360"
     inkscape:connector-curvature="0"
     style="fill:#341a6e" />
  <polygon
     points="9.13,5.7 11.99,6.31 14.85,5.15 14.85,2.25 11.99,1.27 9.13,1.8 "
     id="polygon4362"
     style="fill:url(#beb69953-bd96-4515-8843-ac12546af936)"
     transform="translate(0,-1.22)" />
  <path
     d="m 9.13,0.58 v 3.9 L 12,5.09 v -5 z m 1.21,3.6 -0.81,-0.16 v -3 L 10.34,0.89 Z M 11.6,4.41 10.67,4.26 V 0.83 L 11.6,0.66 Z"
     id="path4364"
     inkscape:connector-curvature="0"
     style="fill:#341a6e" />
  <polygon
     points="0.01,11.03 2.87,11.64 5.74,10.49 5.74,7.58 2.87,6.6 0.01,7.13 "
     id="polygon4366"
     style="fill:url(#a39c76e8-547e-4eb4-bc25-d81c0f8cda62)"
     transform="translate(0,-1.22)" />
  <path
     d="m 0,5.91 v 3.87 l 2.89,0.61 v -5 z M 1.21,9.52 0.4,9.35 v -3 L 1.21,6.21 Z M 2.48,9.78 1.55,9.63 V 6.16 L 2.48,6 Z"
     id="path4368"
     inkscape:connector-curvature="0"
     style="fill:#341a6e" />
  <polygon
     points="6.18,10.99 9.04,11.61 11.9,10.45 11.9,7.54 9.04,6.56 6.18,7.09 "
     id="polygon4370"
     style="fill:url(#f0a2a491-17dc-4bb8-bbfc-ee58a5cf47da)"
     transform="translate(0,-1.22)" />
  <path
     d="m 6.18,5.87 v 3.91 l 2.88,0.61 v -5 z M 7.39,9.48 6.58,9.31 v -3 L 7.39,6.17 Z M 8.65,9.7 7.72,9.55 V 6.12 L 8.65,5.96 Z"
     id="path4372"
     inkscape:connector-curvature="0"
     style="fill:#341a6e" />
  <polygon
     points="12.35,11.04 15.21,11.65 18.08,10.5 18.08,7.59 15.21,6.61 12.35,7.14 "
     id="polygon4374"
     style="fill:url(#efc6a56d-8585-417d-931a-1dac2114ccd0)"
     transform="translate(0,-1.22)" />
  <path
     d="m 12.35,5.92 v 3.86 l 2.89,0.61 v -5 z m 1.22,3.61 -0.81,-0.17 v -3 L 13.57,6.22 Z M 14.83,9.75 13.9,9.6 V 6.17 l 0.93,-0.16 z"
     id="path4376"
     inkscape:connector-curvature="0"
     style="fill:#341a6e" />
  <polygon
     points="2.87,16.46 5.73,17.08 8.6,15.92 8.6,13.02 5.73,12.04 2.87,12.56 "
     id="polygon4378"
     style="fill:url(#e399aa93-341f-4df2-9c02-603b82b484c2)"
     transform="translate(0,-1.22)" />
  <path
     d="m 5.84,15.78 2.61,-1 A 0.18,0.18 0 0 0 8.57,14.6 V 12 A 0.2,0.2 0 0 0 8.44,11.78 L 5.8,10.88 a 0.17,0.17 0 0 0 -0.12,0 l -2.6,0.47 a 0.19,0.19 0 0 0 -0.16,0.19 v 3.54 a 0.19,0.19 0 0 0 0.15,0.19 l 2.63,0.51 a 0.23,0.23 0 0 0 0.14,0 z"
     id="path4380"
     inkscape:connector-curvature="0"
     style="fill:none" />
  <path
     d="m 2.87,11.34 v 3.9 l 2.89,0.62 v -5.08 z m 1.22,3.61 -0.81,-0.17 v -3 l 0.81,-0.14 z m 1.26,0.23 -0.93,-0.15 v -3.44 l 0.93,-0.16 z"
     id="path4382"
     inkscape:connector-curvature="0"
     style="fill:#341a6e" />
  <polygon
     points="9.05,16.51 11.91,17.12 14.78,15.97 14.78,13.06 11.91,12.08 9.05,12.61 "
     id="polygon4384"
     style="fill:url(#a152bba0-ba2b-483a-b8c1-0ae7de355990)"
     transform="translate(0,-1.22)" />
  <path
     d="m 9.05,11.39 v 3.9 l 2.89,0.61 v -5 z M 10.27,15 9.46,14.83 v -3 l 0.81,-0.14 z m 1.26,0.22 -0.93,-0.15 v -3.43 l 0.93,-0.16 z"
     id="path4386"
     inkscape:connector-curvature="0"
     style="fill:#341a6e" />
  <metadata
     id="metadata4388">
    <rdf:RDF>
      <rdf:li>public:true</rdf:li>
      <rdf:li>sdk:false</rdf:li>
      <rdf:li>category: Compute</rdf:li>
      <cc:Work
         rdf:about="">
        <dc:format>image/svg+xml</dc:format>
        <dc:type
           rdf:resource="http://purl.org/dc/dcmitype/StillImage" />
        <dc:title>Icon-compute-23</dc:title>
      </cc:Work>
    </rdf:RDF>
  </metadata>
</svg>
