<?xml version="1.0" encoding="UTF-8" standalone="no"?>
<svg
   xmlns:dc="http://purl.org/dc/elements/1.1/"
   xmlns:cc="http://creativecommons.org/ns#"
   xmlns:rdf="http://www.w3.org/1999/02/22-rdf-syntax-ns#"
   xmlns:svg="http://www.w3.org/2000/svg"
   xmlns="http://www.w3.org/2000/svg"
   xmlns:sodipodi="http://sodipodi.sourceforge.net/DTD/sodipodi-0.dtd"
   xmlns:inkscape="http://www.inkscape.org/namespaces/inkscape"
   width="17"
   height="17.01"
   version="1.1"
   id="svg4641"
   sodipodi:docname="Disk_Encryption_Sets.svg"
   inkscape:version="0.92.3 (2405546, 2018-03-11)">
  <sodipodi:namedview
     pagecolor="#ffffff"
     bordercolor="#666666"
     borderopacity="1"
     objecttolerance="10"
     gridtolerance="10"
     guidetolerance="10"
     inkscape:pageopacity="0"
     inkscape:pageshadow="2"
     inkscape:window-width="1920"
     inkscape:window-height="1017"
     id="namedview4643"
     showgrid="false"
     fit-margin-top="0"
     fit-margin-left="0"
     fit-margin-right="0"
     fit-margin-bottom="0"
     inkscape:zoom="48.111111"
     inkscape:cx="8.5"
     inkscape:cy="8.51"
     inkscape:window-x="-8"
     inkscape:window-y="-8"
     inkscape:window-maximized="1"
     inkscape:current-layer="svg4641" />
  <defs
     id="defs4613">
    <radialGradient
       id="548fd318-b3ed-4f2d-8adb-48f6e9685bcf"
       cx="8.3800001"
       cy="445.94"
       r="4.0500002"
       gradientTransform="matrix(1,0,0,1.59,0,-704.99)"
       gradientUnits="userSpaceOnUse">
      <stop
         offset="0"
         stop-color="#5ea0ef"
         id="stop4602" />
      <stop
         offset=".11"
         stop-color="#519aeb"
         id="stop4604" />
      <stop
         offset=".51"
         stop-color="#2588df"
         id="stop4606" />
      <stop
         offset=".82"
         stop-color="#0a7cd7"
         id="stop4608" />
      <stop
         offset="1"
         stop-color="#0078d4"
         id="stop4610" />
    </radialGradient>
  </defs>
  <path
     d="M 1.62,0 H 3.6 V 0.57 H 1.62 Z m 14.5,0.57 h 0.32 v 0.3 h 0.55 V 0 H 16.12 Z M 0.9,16.4 H 0.62 V 16.08 H 0 v 0.93 h 0.9 v -0.6 z m 15.55,-0.3 v 0.3 H 16.13 V 17 H 17 V 16.1 Z M 0.63,0.86 V 0.56 H 0.91 V 0 H 0 V 0.86 Z M 4.57,0 H 6.54 V 0.57 H 4.57 Z M 7.5,0 H 9.47 V 0.57 H 7.5 Z m 2.96,0 h 1.97 v 0.57 h -1.97 z m 2.94,0 h 1.97 V 0.57 H 13.4 Z M 1.64,16.4 H 3.6 v 0.57 H 1.64 Z m 2.94,0 h 1.97 v 0.57 H 4.58 Z m 2.95,0 H 9.5 v 0.57 H 7.53 Z m 2.95,0 h 1.97 v 0.57 h -1.97 z m 2.94,0 h 1.97 v 0.57 h -1.97 z m 3,-14.85 h 0.57 v 1.97 h -0.57 z m 0,2.95 h 0.57 v 1.97 h -0.57 z m 0,2.94 h 0.57 V 9.4 h -0.57 z m 0,2.94 h 0.57 v 1.97 h -0.57 z m 0,2.95 h 0.57 V 15.3 H 16.42 Z M 0,1.53 H 0.57 V 3.5 H 0 Z M 0,4.48 H 0.57 V 6.45 H 0 Z M 0,7.42 H 0.57 V 9.4 H 0 Z m 0,2.95 h 0.57 v 1.97 H 0 Z m 0,2.93 h 0.57 v 1.97 H 0 Z"
     id="path4615"
     inkscape:connector-curvature="0"
     style="fill:#0078d4" />
  <path
     d="m 9.8,10.5 a 1.5,1.5 0 0 1 0,-2.11 L 10.56,7.63 A 12.13,12.13 0 0 0 7.89,7.34 c -3.07,0 -5.55,1 -5.55,2.28 0,1.28 2.46,2.28 5.54,2.28 a 11.83,11.83 0 0 0 2.93,-0.4 z"
     id="path4617"
     inkscape:connector-curvature="0"
     style="fill:#76bc2d" />
  <ellipse
     cx="7.8800001"
     cy="4.5500002"
     rx="5.54"
     ry="2.28"
     id="ellipse4619"
     style="fill:url(#548fd318-b3ed-4f2d-8adb-48f6e9685bcf)" />
  <ellipse
     cx="8.0100002"
     cy="4.52"
     rx="1.84"
     ry="0.5"
     id="ellipse4621"
     style="fill:#005ba1" />
  <g
     id="g4627"
     style="fill:#0078d4"
     transform="translate(-0.5,-0.5)">
    <path
       d="m 15.58,10.65 a 1,1 0 0 0 0,-1.44 L 13.82,7.44 a 1,1 0 0 0 -1.44,0 L 10.62,9.2 a 1,1 0 0 0 0,1.44 l 1.47,1.5 a 0.32,0.32 0 0 1 0.08,0.2 v 2.73 a 0.35,0.35 0 0 0 0.1,0.24 l 0.67,0.67 a 0.24,0.24 0 0 0 0.33,0 l 1.02,-1.02 a 0.14,0.14 0 0 0 0,-0.19 l -0.3,-0.28 a 0.13,0.13 0 0 1 0,-0.2 l 0.27,-0.28 a 0.14,0.14 0 0 0 0,-0.19 l -0.27,-0.27 a 0.14,0.14 0 0 1 0,-0.21 l 0.27,-0.27 a 0.14,0.14 0 0 0 0,-0.19 l -0.38,-0.4 V 12.35 Z M 13.1,7.87 a 0.58,0.58 0 1 1 0,1.13 0.58,0.58 0 0 1 0,-1.16 z"
       id="path4623"
       inkscape:connector-curvature="0" />
    <path
       d="m 12.05,7.1 a 1.49,1.49 0 0 1 1,-0.44 1.59,1.59 0 0 1 0.65,0.15 1.2,1.2 0 0 0 0.17,-0.48 V 5 c 0,1.25 -2.48,2.27 -5.54,2.27 -3.06,0 -5.5,-1 -5.5,-2.27 v 1.26 c 0,1.26 2.48,2.28 5.55,2.28 A 12.65,12.65 0 0 0 10.86,8.3 Z"
       id="path4625"
       inkscape:connector-curvature="0" />
  </g>
  <g
     id="g4635"
     style="fill:#c3f1ff"
     transform="translate(-0.5,-0.5)">
    <path
       d="m 12.65,15.1 a 0.13,0.13 0 0 0 0.18,0 0.11,0.11 0 0 0 0,-0.08 v -2.25 a 0.17,0.17 0 0 0 -0.06,-0.11 0.13,0.13 0 0 0 -0.17,0 0.07,0.07 0 0 0 0,0.07 V 15 a 0.11,0.11 0 0 0 0.05,0.1 z"
       id="path4629"
       inkscape:connector-curvature="0"
       style="opacity:0.75" />
    <rect
       x="11.7"
       y="9.79"
       width="2.8900001"
       height="0.34"
       rx="0.16"
       id="rect4631"
       style="opacity:0.75" />
    <rect
       x="11.7"
       y="10.35"
       width="2.8900001"
       height="0.34"
       rx="0.16"
       id="rect4633"
       style="opacity:0.75" />
  </g>
  <path
     d="M 11.2,11.92 10.78,11.5 a 12.21,12.21 0 0 1 -2.9,0.34 c -3.07,0 -5.55,-1 -5.55,-2.28 v 1.27 c 0,1.26 2.48,2.28 5.55,2.28 A 11.72,11.72 0 0 0 11.2,12.65 Z M 9.37,9.24 A 4.91,4.91 0 0 0 8.01,9.07 c -1,0 -1.84,0.23 -1.84,0.5 0,0.27 0.83,0.5 1.84,0.5 A 4.89,4.89 0 0 0 9.44,9.88 1.59,1.59 0 0 1 9.37,9.23 Z"
     id="path4637"
     inkscape:connector-curvature="0"
     style="fill:#5e9624" />
  <metadata
     id="metadata4639">
    <rdf:RDF>
      <rdf:li>public:true</rdf:li>
      <rdf:li>sdk:false</rdf:li>
      <rdf:li>category: Compute</rdf:li>
      <cc:Work
         rdf:about="">
        <dc:format>image/svg+xml</dc:format>
        <dc:type
           rdf:resource="http://purl.org/dc/dcmitype/StillImage" />
        <dc:title></dc:title>
      </cc:Work>
    </rdf:RDF>
  </metadata>
</svg>
