<?xml version="1.0" encoding="UTF-8" standalone="no"?>
<svg
   id="a0f448ad-2648-4cd6-b442-513e4a5b2ace"
   width="15.39"
   height="16.910074"
   viewBox="0 0 15.39 16.910074"
   version="1.1"
   sodipodi:docname="Host_Groups.svg"
   inkscape:version="1.1 (c68e22c387, 2021-05-23)"
   xmlns:inkscape="http://www.inkscape.org/namespaces/inkscape"
   xmlns:sodipodi="http://sodipodi.sourceforge.net/DTD/sodipodi-0.dtd"
   xmlns="http://www.w3.org/2000/svg"
   xmlns:svg="http://www.w3.org/2000/svg"
   xmlns:rdf="http://www.w3.org/1999/02/22-rdf-syntax-ns#"
   xmlns:cc="http://creativecommons.org/ns#"
   xmlns:dc="http://purl.org/dc/elements/1.1/">
  <sodipodi:namedview
     id="namedview6989"
     pagecolor="#ffffff"
     bordercolor="#666666"
     borderopacity="1.0"
     inkscape:pageshadow="2"
     inkscape:pageopacity="0.0"
     inkscape:pagecheckerboard="0"
     showgrid="false"
     fit-margin-top="0"
     fit-margin-left="0"
     fit-margin-right="0"
     fit-margin-bottom="0"
     inkscape:zoom="44.055556"
     inkscape:cx="7.6834805"
     inkscape:cy="8.4552333"
     inkscape:window-width="1920"
     inkscape:window-height="1017"
     inkscape:window-x="-8"
     inkscape:window-y="-8"
     inkscape:window-maximized="1"
     inkscape:current-layer="a0f448ad-2648-4cd6-b442-513e4a5b2ace" />
  <defs
     id="defs6960">
    <linearGradient
       id="b45e255d-bffa-451b-8846-6f6c550d3933"
       x1="10.03"
       y1="6.02"
       x2="10.03"
       y2="1.92"
       gradientUnits="userSpaceOnUse"
       gradientTransform="translate(-1.31,-0.54992647)">
      <stop
         offset="0"
         stop-color="#198ab3"
         id="stop6949" />
      <stop
         offset="0.1"
         stop-color="#1c93bb"
         id="stop6951" />
      <stop
         offset="0.7"
         stop-color="#2cc2e5"
         id="stop6953" />
      <stop
         offset="1"
         stop-color="#32d4f5"
         id="stop6955" />
    </linearGradient>
    <linearGradient
       id="b7f9cef7-9703-4b9c-b1cd-681c80a1857e"
       x1="76.431686"
       y1="105.05941"
       x2="76.431686"
       y2="74.57872"
       href="#b45e255d-bffa-451b-8846-6f6c550d3933"
       gradientTransform="matrix(1.7957276,0,0,0.55687733,-1.31,-0.54992647)"
       gradientUnits="userSpaceOnUse" />
    <linearGradient
       id="afc15d94-3b96-41df-93b4-2a0f23c10140"
       x1="37.3232"
       y1="67.139"
       x2="37.3232"
       y2="58.048798"
       href="#b45e255d-bffa-451b-8846-6f6c550d3933"
       gradientUnits="userSpaceOnUse"
       gradientTransform="translate(-1.31,-0.54992647)" />
  </defs>
  <title
     id="title6962">Icon-other-346</title>
  <path
     d="m 12.69,7.3533446e-5 h -12 A 0.68,0.68 0 0 0 0,0.68007353 V 3.7600735 a 0.69,0.69 0 0 0 0.69,0.69 h 12 a 0.69,0.69 0 0 0 0.69,-0.69 V 0.68007353 A 0.69,0.69 0 0 0 12.69,7.3533446e-5 Z M 12.69,6.1600735 h -12 a 0.68,0.68 0 0 0 -0.69,0.68 v 3.08 a 0.69,0.69 0 0 0 0.69,0.6900005 h 12 a 0.69,0.69 0 0 0 0.69,-0.6900005 v -3.08 a 0.68,0.68 0 0 0 -0.69,-0.68 z"
     fill="#198ab3"
     id="path6964" />
  <path
     d="m 7.84,4.4500735 h 1 V 14.710074 h -1 z"
     fill="#32bedd"
     id="path6966" />
  <path
     d="M 14.82,1.3700735 H 2.61 a 0.57,0.57 0 0 0 -0.57,0.57 v 3 a 0.57,0.57 0 0 0 0.57,0.51 h 12.21 a 0.57,0.57 0 0 0 0.57,-0.57 v -3 a 0.57,0.57 0 0 0 -0.57,-0.51 z"
     fill="url(#b45e255d-bffa-451b-8846-6f6c550d3933)"
     id="path6968"
     style="fill:url(#b45e255d-bffa-451b-8846-6f6c550d3933)" />
  <rect
     x="13.2"
     y="1.9400735"
     width="1.05"
     height="1.05"
     rx="0.15000001"
     fill="#b4ec36"
     id="rect6970" />
  <rect
     x="13.2"
     y="3.7500737"
     width="1.05"
     height="1.05"
     rx="0.15000001"
     fill="#b4ec36"
     id="rect6972" />
  <path
     d="M 14.82,7.5300735 H 2.61 a 0.57,0.57 0 0 0 -0.57,0.57 v 3.0000005 a 0.57,0.57 0 0 0 0.57,0.57 h 12.21 a 0.57,0.57 0 0 0 0.57,-0.57 V 8.1000735 a 0.57,0.57 0 0 0 -0.57,-0.57 z"
     fill="url(#b7f9cef7-9703-4b9c-b1cd-681c80a1857e)"
     id="path6976"
     style="fill:url(#b7f9cef7-9703-4b9c-b1cd-681c80a1857e)" />
  <circle
     cx="8.3499994"
     cy="15.400073"
     r="1.51"
     fill="url(#afc15d94-3b96-41df-93b4-2a0f23c10140)"
     id="circle6978"
     style="fill:url(#afc15d94-3b96-41df-93b4-2a0f23c10140)" />
  <rect
     x="13.2"
     y="8.1500731"
     width="1.05"
     height="1.05"
     rx="0.15000001"
     fill="#b4ec36"
     id="rect6980" />
  <rect
     x="13.2"
     y="9.9600735"
     width="1.05"
     height="1.05"
     rx="0.15000001"
     fill="#b4ec36"
     id="rect6982" />
  <metadata
     id="metadata7071">
    <rdf:RDF>
      <cc:Work
         rdf:about="">
        <dc:title>Icon-other-346</dc:title>
      </cc:Work>
    </rdf:RDF>
  </metadata>
</svg>
