<?xml version="1.0" encoding="UTF-8" standalone="no"?>
<svg
   width="17.494001"
   height="15.414"
   viewBox="0 0 17.494001 15.414"
   version="1.1"
   id="svg8438"
   sodipodi:docname="Image_Templates.svg"
   inkscape:version="1.1 (c68e22c387, 2021-05-23)"
   xmlns:inkscape="http://www.inkscape.org/namespaces/inkscape"
   xmlns:sodipodi="http://sodipodi.sourceforge.net/DTD/sodipodi-0.dtd"
   xmlns="http://www.w3.org/2000/svg"
   xmlns:svg="http://www.w3.org/2000/svg">
  <sodipodi:namedview
     id="namedview8440"
     pagecolor="#ffffff"
     bordercolor="#666666"
     borderopacity="1.0"
     inkscape:pageshadow="2"
     inkscape:pageopacity="0.0"
     inkscape:pagecheckerboard="0"
     showgrid="false"
     fit-margin-top="0"
     fit-margin-left="0"
     fit-margin-right="0"
     fit-margin-bottom="0"
     inkscape:zoom="44.055556"
     inkscape:cx="8.7503153"
     inkscape:cy="7.7061791"
     inkscape:window-width="1920"
     inkscape:window-height="1017"
     inkscape:window-x="-8"
     inkscape:window-y="-8"
     inkscape:window-maximized="1"
     inkscape:current-layer="svg8438" />
  <defs
     id="defs8391">
    <linearGradient
       id="a743bfbf-43b1-4b79-b3a1-696091f8e2ab"
       x1="7.7249999"
       y1="12.859"
       x2="7.7249999"
       y2="2.8959999"
       gradientUnits="userSpaceOnUse"
       gradientTransform="translate(-0.25299999,-1.293)">
      <stop
         offset="0"
         stop-color="#0078d4"
         id="stop8386" />
      <stop
         offset="0.817"
         stop-color="#5ea0ef"
         id="stop8388" />
    </linearGradient>
  </defs>
  <path
     d="m 8.321,11.041 v 0 A 0.231,0.231 0 0 1 8.095,10.805 c 0,-0.123 0,-0.25 0,-0.381 H 7.709 a 0.231,0.231 0 0 1 0,-0.462 h 0.616 a 0.231,0.231 0 0 1 0.231,0.231 q 0,0.327 0,0.622 a 0.231,0.231 0 0 1 -0.235,0.226 z"
     fill="#37c2b1"
     id="path8393" />
  <path
     d="M 7.432,13.248 A 0.231,0.231 0 0 1 7.332,12.81 1.171,1.171 0 0 0 7.961,11.996 0.231,0.231 0 0 1 8.406,12.12 1.642,1.642 0 0 1 7.537,13.225 0.233,0.233 0 0 1 7.432,13.248 Z"
     fill="#37c2b1"
     id="path8395" />
  <path
     d="M 6.673,14.273 H 6.057 A 0.23,0.23 0 0 1 5.826,14.042 1.057,1.057 0 0 1 6.112,13.325 0.23137956,0.23137956 0 0 1 6.451,13.64 0.627,0.627 0 0 0 6.337,13.811 h 0.336 a 0.231,0.231 0 0 1 0,0.462 z"
     fill="#37c2b1"
     id="path8397" />
  <path
     d="m 11.665,14.273 h -1.248 a 0.231,0.231 0 0 1 0,-0.462 h 1.248 a 0.231,0.231 0 0 1 0,0.462 z"
     fill="#37c2b1"
     id="path8399" />
  <path
     d="m 13.529,14.273 h -0.616 a 0.231,0.231 0 0 1 0,-0.462 h 0.334 a 0.636,0.636 0 0 0 -0.114,-0.17 0.231,0.231 0 0 1 0.337,-0.315 1.048,1.048 0 0 1 0.289,0.716 0.231,0.231 0 0 1 -0.23,0.231 z"
     fill="#37c2b1"
     id="path8401" />
  <path
     d="m 12.152,13.249 a 0.23,0.23 0 0 1 -0.1,-0.023 1.641,1.641 0 0 1 -0.872,-1.1 0.23111144,0.23111144 0 1 1 0.445,-0.125 1.176,1.176 0 0 0 0.631,0.814 0.231,0.231 0 0 1 -0.1,0.438 z"
     fill="#37c2b1"
     id="path8403" />
  <path
     d="m 11.26,11.041 a 0.231,0.231 0 0 1 -0.231,-0.226 c 0,-0.2 0,-0.4 0,-0.622 A 0.232,0.232 0 0 1 11.26,9.962 h 0.616 a 0.231,0.231 0 0 1 0,0.462 h -0.389 c 0,0.131 0,0.258 0,0.381 a 0.231,0.231 0 0 1 -0.226,0.236 z"
     fill="#37c2b1"
     id="path8405" />
  <path
     d="m 16.714,10.424 h -1.21 a 0.231,0.231 0 0 1 0,-0.462 h 1.21 a 0.231,0.231 0 1 1 0,0.462 z m -2.421,0 h -1.21 a 0.231,0.231 0 0 1 0,-0.462 h 1.21 a 0.231,0.231 0 0 1 0,0.462 z m -7.8,0 H 5.282 a 0.231,0.231 0 0 1 0,-0.462 h 1.211 a 0.231,0.231 0 0 1 0,0.462 z m -2.421,0 H 2.861 a 0.231,0.231 0 0 1 0,-0.462 h 1.211 a 0.231,0.231 0 0 1 0,0.462 z M 17.263,9.548 A 0.23,0.23 0 0 1 17.032,9.317 v -1.21 a 0.231,0.231 0 0 1 0.462,0 v 1.21 a 0.231,0.231 0 0 1 -0.231,0.231 z m -14.944,0 A 0.231,0.231 0 0 1 2.088,9.317 V 8.101 a 0.231,0.231 0 0 1 0.462,0 V 9.312 A 0.232,0.232 0 0 1 2.319,9.543 Z M 17.263,7.127 A 0.23,0.23 0 0 1 17.032,6.896 v -1.21 a 0.231,0.231 0 0 1 0.462,0 v 1.21 A 0.231,0.231 0 0 1 17.263,7.127 Z M 2.319,7.122 A 0.231,0.231 0 0 1 2.088,6.891 V 5.68 a 0.231,0.231 0 0 1 0.462,0 V 6.891 A 0.232,0.232 0 0 1 2.319,7.122 Z M 17.263,4.707 A 0.23,0.23 0 0 1 17.032,4.476 V 3.265 a 0.231,0.231 0 0 1 0.462,0 v 1.21 A 0.231,0.231 0 0 1 17.263,4.707 Z M 2.319,4.7 A 0.23,0.23 0 0 1 2.088,4.469 v -1.21 a 0.231,0.231 0 0 1 0.462,0 v 1.21 A 0.231,0.231 0 0 1 2.319,4.7 Z M 17.263,2.285 A 0.23,0.23 0 0 1 17.032,2.054 v -1.21 a 0.231,0.231 0 1 1 0.462,0 v 1.21 A 0.231,0.231 0 0 1 17.263,2.285 Z M 2.319,2.279 A 0.23,0.23 0 0 1 2.088,2.048 v -1.21 a 0.231,0.231 0 1 1 0.462,0 v 1.21 A 0.231,0.231 0 0 1 2.319,2.279 Z M 16.447,0.462 h -1.206 a 0.231,0.231 0 0 1 0,-0.462 h 1.206 a 0.231,0.231 0 1 1 0,0.462 z m -2.422,0 h -1.21 a 0.231,0.231 0 0 1 0,-0.462 h 1.21 a 0.231,0.231 0 1 1 0,0.462 z m -2.421,0 h -1.21 a 0.231,0.231 0 0 1 0,-0.462 h 1.21 a 0.231,0.231 0 1 1 0,0.462 z m -2.421,0 H 7.978 A 0.231,0.231 0 0 1 7.978,0 h 1.21 a 0.231,0.231 0 1 1 0,0.462 z m -2.421,0 H 5.557 A 0.231,0.231 0 0 1 5.557,0 h 1.21 a 0.231,0.231 0 1 1 0,0.462 z m -2.421,0 H 3.136 A 0.231,0.231 0 0 1 3.136,0 h 1.211 a 0.231,0.231 0 0 1 0,0.462 z"
     fill="#37c2b1"
     id="path8407" />
  <rect
     x="0"
     y="1.6029999"
     width="14.944"
     height="9.9630003"
     rx="0.49900001"
     fill="url(#a743bfbf-43b1-4b79-b3a1-696091f8e2ab)"
     id="rect8411"
     style="fill:url(#a743bfbf-43b1-4b79-b3a1-696091f8e2ab)" />
  <path
     d="M 10.469,14.579 C 8.992,14.348 8.934,13.279 8.938,11.566 H 6.007 c 0,1.716 -0.054,2.782 -1.532,3.013 a 0.87,0.87 0 0 0 -0.736,0.835 h 7.472 a 0.875,0.875 0 0 0 -0.742,-0.835 z"
     fill="#1f56a3"
     id="path8413" />
  <polygon
     points="9.987,6.379 9.987,9.01 7.725,10.337 7.725,7.699 "
     fill="#50e6ff"
     id="polygon8415"
     transform="translate(-0.25299999,-1.293)" />
  <polygon
     points="9.987,6.379 7.733,7.706 5.464,6.379 7.733,5.06 "
     fill="#c3f1ff"
     id="polygon8417"
     transform="translate(-0.25299999,-1.293)" />
  <polygon
     points="7.725,7.706 7.725,10.337 5.464,9.01 5.464,6.379 "
     fill="#9cebff"
     id="polygon8419"
     transform="translate(-0.25299999,-1.293)" />
  <polygon
     points="7.725,10.337 5.464,9.01 7.725,7.699 "
     fill="#c3f1ff"
     id="polygon8421"
     transform="translate(-0.25299999,-1.293)" />
  <polygon
     points="7.725,10.337 9.987,9.01 7.725,7.699 "
     fill="#9cebff"
     id="polygon8423"
     transform="translate(-0.25299999,-1.293)" />
  <path
     d="M 4.366,2.787 H 2.293 a 0.5,0.5 0 0 0 -0.5,0.5 v 2.08 A 0.249,0.249 0 0 0 2.042,5.616 H 2.208 A 0.249,0.249 0 0 0 2.457,5.367 V 3.443 H 4.366 A 0.248,0.248 0 0 0 4.607,3.194 V 3.036 A 0.248,0.248 0 0 0 4.366,2.787 Z"
     fill="#ffffff"
     id="path8425" />
  <path
     d="M 4.366,9.316 H 2.447 V 7.407 A 0.248,0.248 0 0 0 2.199,7.159 H 2.047 A 0.249,0.249 0 0 0 1.798,7.407 v 2.111 a 0.5,0.5 0 0 0 0.49,0.505 H 4.366 A 0.255,0.255 0 0 0 4.61,9.755 V 9.729 9.564 A 0.248,0.248 0 0 0 4.366,9.316 Z"
     fill="#ffffff"
     id="path8427" />
  <path
     d="M 12.682,2.807 H 10.639 A 0.248,0.248 0 0 0 10.39,3.055 v 0.162 a 0.247,0.247 0 0 0 0.225,0.27 h 1.932 V 5.38 a 0.248,0.248 0 0 0 0.249,0.249 h 0.173 A 0.248,0.248 0 0 0 13.218,5.38 V 3.307 a 0.5,0.5 0 0 0 -0.5,-0.5 z"
     fill="#ffffff"
     id="path8429" />
  <path
     d="M 12.938,7.175 H 12.78 a 0.248,0.248 0 0 0 -0.249,0.248 v 0 1.915 H 10.639 A 0.249,0.249 0 0 0 10.39,9.587 v 0.166 a 0.249,0.249 0 0 0 0.249,0.249 h 2.073 a 0.505,0.505 0 0 0 0.505,-0.5 V 7.423 A 0.249,0.249 0 0 0 12.97,7.173 0.172,0.172 0 0 0 12.938,7.175 Z"
     fill="#ffffff"
     id="path8431" />
</svg>
