<?xml version="1.0" encoding="UTF-8" standalone="no"?>
<svg
   xmlns:dc="http://purl.org/dc/elements/1.1/"
   xmlns:cc="http://creativecommons.org/ns#"
   xmlns:rdf="http://www.w3.org/1999/02/22-rdf-syntax-ns#"
   xmlns:svg="http://www.w3.org/2000/svg"
   xmlns="http://www.w3.org/2000/svg"
   xmlns:sodipodi="http://sodipodi.sourceforge.net/DTD/sodipodi-0.dtd"
   xmlns:inkscape="http://www.inkscape.org/namespaces/inkscape"
   id="a2157f88-f641-4f7d-abc7-f40ccf5cf69a"
   width="17"
   height="17"
   viewBox="0 0 17 17"
   version="1.1"
   sodipodi:docname="VM_Scale_Sets.svg"
   inkscape:version="0.92.3 (2405546, 2018-03-11)">
  <sodipodi:namedview
     pagecolor="#ffffff"
     bordercolor="#666666"
     borderopacity="1"
     objecttolerance="10"
     gridtolerance="10"
     guidetolerance="10"
     inkscape:pageopacity="0"
     inkscape:pageshadow="2"
     inkscape:window-width="1920"
     inkscape:window-height="1017"
     id="namedview10114"
     showgrid="false"
     fit-margin-top="0"
     fit-margin-left="0"
     fit-margin-right="0"
     fit-margin-bottom="0"
     inkscape:zoom="48.111111"
     inkscape:cx="8.21"
     inkscape:cy="8.89"
     inkscape:window-x="-8"
     inkscape:window-y="-8"
     inkscape:window-maximized="1"
     inkscape:current-layer="a2157f88-f641-4f7d-abc7-f40ccf5cf69a" />
  <defs
     id="defs10077">
    <linearGradient
       id="b816c8ea-05a2-41fb-ba99-96d84599c9f4"
       x1="12.74"
       y1="15.28"
       x2="12.74"
       y2="8.5200005"
       gradientUnits="userSpaceOnUse">
      <stop
         offset="0"
         stop-color="#0078d4"
         id="stop10067" />
      <stop
         offset="0.82"
         stop-color="#5ea0ef"
         id="stop10069" />
    </linearGradient>
    <linearGradient
       id="ab373d88-41af-4fc3-b172-d4489f9107a0"
       x1="12.74"
       y1="17.889999"
       x2="12.74"
       y2="15.28"
       gradientUnits="userSpaceOnUse">
      <stop
         offset="0.15"
         stop-color="#ccc"
         id="stop10072" />
      <stop
         offset="1"
         stop-color="#707070"
         id="stop10074" />
    </linearGradient>
  </defs>
  <title
     id="title10079">Icon-compute-34</title>
  <rect
     x="0"
     y="0"
     width="10.11"
     height="6.75"
     rx="0.34"
     id="rect10081"
     style="fill:#005ba1" />
  <polygon
     points="5.85,6.23 5.85,4.27 7.53,3.28 7.53,5.25 "
     id="polygon10083"
     style="fill:#50e6ff"
     transform="translate(-0.79000002,-0.88999999)" />
  <polygon
     points="4.16,3.28 5.85,2.29 7.53,3.28 5.85,4.27 "
     id="polygon10085"
     style="fill:#c3f1ff"
     transform="translate(-0.79000002,-0.88999999)" />
  <polygon
     points="4.16,5.25 4.16,3.28 5.85,4.27 5.85,6.23 "
     id="polygon10087"
     style="fill:#9cebff"
     transform="translate(-0.79000002,-0.88999999)" />
  <rect
     x="3.9700003"
     y="3.8700004"
     width="10.11"
     height="6.75"
     rx="0.34"
     id="rect10089"
     style="fill:#0078d4" />
  <polygon
     points="9.82,10.11 9.82,8.14 11.5,7.16 11.5,9.12 "
     id="polygon10091"
     style="fill:#50e6ff"
     transform="translate(-0.79000002,-0.88999999)" />
  <polygon
     points="8.13,7.16 9.82,6.17 11.5,7.16 9.82,8.14 "
     id="polygon10093"
     style="fill:#c3f1ff"
     transform="translate(-0.79000002,-0.88999999)" />
  <polygon
     points="8.13,9.12 8.13,7.16 9.82,8.14 9.82,10.11 "
     id="polygon10095"
     style="fill:#9cebff"
     transform="translate(-0.79000002,-0.88999999)" />
  <rect
     x="6.8899999"
     y="7.6300006"
     width="10.11"
     height="6.75"
     rx="0.34"
     id="rect10097"
     style="fill:url(#b816c8ea-05a2-41fb-ba99-96d84599c9f4)" />
  <polygon
     points="12.74,13.87 12.74,11.9 14.42,10.92 14.42,12.88 "
     id="polygon10099"
     style="fill:#50e6ff"
     transform="translate(-0.79000002,-0.88999999)" />
  <polygon
     points="11.05,10.92 12.74,9.93 14.42,10.92 12.74,11.91 "
     id="polygon10101"
     style="fill:#c3f1ff"
     transform="translate(-0.79000002,-0.88999999)" />
  <polygon
     points="11.05,12.88 11.05,10.92 12.74,11.91 12.74,13.87 "
     id="polygon10103"
     style="fill:#9cebff"
     transform="translate(-0.79000002,-0.88999999)" />
  <polygon
     points="12.74,13.87 11.05,12.88 12.74,11.9 "
     id="polygon10105"
     style="fill:#c3f1ff"
     transform="translate(-0.79000002,-0.88999999)" />
  <polygon
     points="12.74,13.87 14.42,12.88 12.74,11.9 "
     id="polygon10107"
     style="fill:#9cebff"
     transform="translate(-0.79000002,-0.88999999)" />
  <path
     d="m 13.97,16.43 c -1,-0.16 -1,-0.88 -1,-2 h -2 c 0,1.16 0,1.88 -1,2 A 0.59,0.59 0 0 0 9.47,17 h 5 a 0.59,0.59 0 0 0 -0.5,-0.57 z"
     id="path10109"
     inkscape:connector-curvature="0"
     style="fill:url(#ab373d88-41af-4fc3-b172-d4489f9107a0)" />
  <metadata
     id="metadata10111">
    <rdf:RDF>
      <rdf:li>public:true</rdf:li>
      <rdf:li>sdk:false</rdf:li>
      <rdf:li>category: Compute</rdf:li>
      <cc:Work
         rdf:about="">
        <dc:format>image/svg+xml</dc:format>
        <dc:type
           rdf:resource="http://purl.org/dc/dcmitype/StillImage" />
        <dc:title>Icon-compute-34</dc:title>
      </cc:Work>
    </rdf:RDF>
  </metadata>
</svg>
