<?xml version="1.0" encoding="UTF-8" standalone="no"?>
<svg
   xmlns:dc="http://purl.org/dc/elements/1.1/"
   xmlns:cc="http://creativecommons.org/ns#"
   xmlns:rdf="http://www.w3.org/1999/02/22-rdf-syntax-ns#"
   xmlns:svg="http://www.w3.org/2000/svg"
   xmlns="http://www.w3.org/2000/svg"
   xmlns:sodipodi="http://sodipodi.sourceforge.net/DTD/sodipodi-0.dtd"
   xmlns:inkscape="http://www.inkscape.org/namespaces/inkscape"
   width="17.030001"
   height="14.669786"
   viewBox="0 0 17.030001 14.669786"
   version="1.1"
   id="svg10176"
   sodipodi:docname="Workspaces.svg"
   inkscape:version="0.92.3 (2405546, 2018-03-11)">
  <sodipodi:namedview
     pagecolor="#ffffff"
     bordercolor="#666666"
     borderopacity="1"
     objecttolerance="10"
     gridtolerance="10"
     guidetolerance="10"
     inkscape:pageopacity="0"
     inkscape:pageshadow="2"
     inkscape:window-width="1920"
     inkscape:window-height="1017"
     id="namedview10178"
     showgrid="false"
     fit-margin-top="0"
     fit-margin-left="0"
     fit-margin-right="0"
     fit-margin-bottom="0"
     inkscape:zoom="48.111111"
     inkscape:cx="8.52"
     inkscape:cy="7.3193708"
     inkscape:window-x="-8"
     inkscape:window-y="-8"
     inkscape:window-maximized="1"
     inkscape:current-layer="svg10176" />
  <defs
     id="defs10158">
    <linearGradient
       id="A"
       x1="9"
       y1="-0.15000001"
       x2="9"
       y2="15.59"
       gradientUnits="userSpaceOnUse">
      <stop
         offset=".09"
         stop-color="#5ea0ef"
         id="stop10152" />
      <stop
         offset="1"
         stop-color="#0078d4"
         id="stop10154" />
    </linearGradient>
    <path
       id="B"
       d="m 2.55,3.32 h 2.87 a 0.14,0.14 0 0 1 0.14,0.14 v 3 A 0.13,0.13 0 0 1 5.43,6.59 H 2.6 A 0.14,0.14 0 0 1 2.46,6.45 v -3 a 0.14,0.14 0 0 1 0.1,-0.13 z"
       inkscape:connector-curvature="0" />
  </defs>
  <path
     d="m 0.52,4.1566773e-4 h 16 A 0.5,0.5 0 0 1 17.03,0.46041567 V 11.560416 a 0.49,0.49 0 0 1 -0.51,0.46 h -16 A 0.5,0.5 0 0 1 0,11.560416 V 0.48041567 A 0.5,0.5 0 0 1 0.52,4.1566773e-4 Z"
     id="path10160"
     inkscape:connector-curvature="0"
     style="fill:url(#A)" />
  <use
     href="#B"
     id="use10162"
     style="fill:#ffffff"
     x="0"
     y="0"
     width="100%"
     height="100%"
     transform="translate(-0.48,-1.6495843)" />
  <path
     d="m 11.39,6.6904157 2.66,1.54 2.67,1.53 a 0.16,0.16 0 0 1 0,0.2700003 l -1.78,1 1.27,2.18 a 0.88,0.88 0 0 1 -0.32,1.19 l -0.26,0.15 a 0.87,0.87 0 0 1 -1.19,-0.31 l -1.27,-2.2 -1.77,1 a 0.15,0.15 0 0 1 -0.23,-0.14 V 6.8304157 a 0.16,0.16 0 0 1 0.22,-0.14 z"
     id="path10164"
     inkscape:connector-curvature="0"
     style="fill:#50e6ff" />
  <g
     id="g10170"
     style="fill:#ffffff"
     transform="translate(-0.48,-1.6495843)">
    <use
       href="#B"
       y="4.8299999"
       id="use10166"
       x="0"
       width="100%"
       height="100%" />
    <path
       d="m 7.6,3.32 h 2.88 a 0.14,0.14 0 0 1 0.14,0.14 v 3 A 0.13,0.13 0 0 1 10.49,6.59 H 7.66 A 0.14,0.14 0 0 1 7.52,6.45 v -3 A 0.13,0.13 0 0 1 7.61,3.32 Z"
       id="path10168"
       inkscape:connector-curvature="0" />
  </g>
  <path
     d="M 7.12,6.5004157 H 10 a 0.15,0.15 0 0 1 0.14,0.14 v 3 a 0.13,0.13 0 0 1 -0.13,0.13 H 7.18 a 0.14,0.14 0 0 1 -0.14,-0.14 v -3 a 0.13,0.13 0 0 1 0.09,-0.13 z m 5.3,-4.83 h 2.88 a 0.14,0.14 0 0 1 0.14,0.14 v 3 a 0.13,0.13 0 0 1 -0.13,0.13 h -2.84 a 0.14,0.14 0 0 1 -0.14,-0.14 v -3 a 0.13,0.13 0 0 1 0.09,-0.13 z"
     id="path10172"
     inkscape:connector-curvature="0"
     style="fill:#83b9f9" />
  <metadata
     id="metadata10174">
    <rdf:RDF>
      <rdf:li>public:true</rdf:li>
      <rdf:li>sdk:false</rdf:li>
      <rdf:li>category: Compute</rdf:li>
      <cc:Work
         rdf:about="">
        <dc:format>image/svg+xml</dc:format>
        <dc:type
           rdf:resource="http://purl.org/dc/dcmitype/StillImage" />
        <dc:title></dc:title>
      </cc:Work>
    </rdf:RDF>
  </metadata>
</svg>
