<svg xmlns="http://www.w3.org/2000/svg" viewBox="0 0 60.3 60.2"><g opacity="0" fill="#fff"><ellipse cx="26.7" cy="21.2" rx="8" ry="7.9" opacity=".38" enable-background="new"/><circle cx="26.7" cy="21.2" r="5.5" opacity=".38" enable-background="new"/></g><ellipse cx="30.2" cy="30.1" rx="30.2" ry="30.1" fill="#ecc01b"/><g fill="#fff"><path d="M18.7 20.3h2.5v1.4h-2.5zm13.4.2h2.4v1.4h-2.4zM26 13.3h1.4v2.5H26zm5.2 4.7l-1-1 1.7-1.7 1 1zm-8.9-.1l-1.8-1.8 1-1 1.8 1.7zm24.9 6.7a2.26 2.26 0 0 0-2.3 2.3c0 .8.4 1.5 1 1.9l-4.5 9.9c-.3-.1-.5-.1-.8-.1-.5 0-1.1.1-1.5.4l-.8-4.9c.9-.3 1.5-1.2 1.5-2.2 0-1.3-1.1-2.4-2.4-2.5-.6.1-1.3.3-1.8.6l-2.3-.4c-.1-1.2-1.1-2-2.3-2h-.4l-1.8-5.9c.1-.2.2-.5.2-.8a2.26 2.26 0 0 0-2.3-2.3c-1.3 0-2.3 1.1-2.3 2.4v.1l-9.4 8c-.9-.9-2.3-1-3.3-.1-.9.9-1 2.3-.1 3.3s2.3 1 3.3.1c.5-.4.8-1.1.8-1.7 0-.2-.1-.4-.2-.6l9.1-7.8c.4.8 1.2 1.2 2.1 1.2.5 0 1-.2 1.4-.5l1.7 5.2c-.6 0-.9 1.2-.9 1.9 0 1.3 1 2.4 2.3 2.4.9 0 1.7-.6 1.9-1.5l1.7.5v.6c.1 1.3 1.3 2.4 2.6 2.3h.1l1.2 5.7c-.1.3-.2.6-.2.8 0 1.3 1.1 2.3 2.3 2.3A2.22 2.22 0 0 0 43 41v-.1c.1-.7-.3-1.4-.9-1.7l4.7-10h.4c1.3 0 2.4-1 2.4-2.3-.1-1.2-1.1-2.3-2.4-2.3zm-34 7.5c-.7 0-1.3-.6-1.2-1.3 0-.7.6-1.3 1.3-1.2.7 0 1.2.6 1.2 1.3 0 .6-.6 1.2-1.3 1.2zm2-2.4zm9.2-7.9zm2.2.7c-.7 0-1.3-.6-1.2-1.3 0-.7.6-1.3 1.3-1.2.7 0 1.2.6 1.2 1.3.1.6-.5 1.2-1.3 1.2zm1.8.2zm1.7 5.3zm1 3.5c-.7 0-1.3-.6-1.3-1.3s.6-1.3 1.3-1.3 1.3.6 1.3 1.3-.6 1.3-1.3 1.3zm2.3-.9c0-.1.1-.3.1-.4 0 .1 0 .3-.1.4zm2.1.4zm.8 1.1c0-.7.6-1.3 1.3-1.3s1.3.6 1.3 1.3-.6 1.3-1.3 1.3h-.1c-.7-.1-1.2-.6-1.2-1.3zm2.7 7.5zm1.8 2.7c-.7 0-1.3-.6-1.3-1.3s.6-1.3 1.3-1.3 1.3.6 1.3 1.3-.6 1.3-1.3 1.3zm1.1-3.3zm4.4-9.8zm.9-.9c-.7 0-1.3-.6-1.2-1.3 0-.7.6-1.3 1.3-1.2.7 0 1.2.6 1.2 1.2 0 .7-.6 1.3-1.3 1.3z"/><circle cx="26.7" cy="21.2" r="1.8"/></g></svg>