<svg xmlns="http://www.w3.org/2000/svg" xmlns:xlink="http://www.w3.org/1999/xlink" viewBox="0 0 59.2 59.2"><circle cx="29.6" cy="29.6" r="29.6" fill="#e8bd1f"/><g fill="#fff"><path d="M20.1 46.6v-2.1h5.5v-3.8h8v3.2c0 .5 0 .5.5.5h4.7v2.2H20.1zm9.4-34h8.8l6.8-.1c1-.1 2 .3 2.7.9s1.1 1.4 1.1 2.3v18.2c0 1.5-.5 3-1.5 4.3-.4.6-1 .9-1.6 1.1H14a1.69 1.69 0 0 1-1-.3c-1.6-.8-2.7-2.5-2.6-4.3l-.2-16.1v-2.8c0-1.5 1.1-2.8 2.6-3.1.5-.1.9-.1 1.4-.1h15.3zm0 1.7l-1.3.1-12 .1h-2.7c-.8 0-1.5.6-1.5 1.4 0 .2-.1.4-.1.6v2.6l.1 9.2.1 6.7c0 .6.2 1.3.6 1.8.3.5.9.9 1.5.9h30.9c.4 0 .7-.1.9-.4.7-.8 1.1-1.8 1.2-2.9V16.2c.1-.8-.5-1.6-1.3-1.7h-.1c-.5-.1-1-.1-1.5-.1h-6l-8.8-.1zm-5.9 16.5h-6.8c-.9 0-1.7.7-1.7 1.7v1.7h10.2v-1.7c0-1-.8-1.7-1.7-1.7z"/><use xlink:href="#B"/><path d="M41.2 30.8h-6.8c-.9 0-1.7.7-1.7 1.7v1.7h10.2v-1.7c-.1-1-.8-1.7-1.7-1.7z"/><use xlink:href="#B" x="17.6"/></g><defs ><path id="B" d="M20.1 29c-2.4 0-4.3-2-4.3-4.3s2-4.3 4.3-4.3c2.4 0 4.3 1.9 4.3 4.3.1 2.4-1.9 4.3-4.3 4.3zm0-8.1a3.8 3.8 0 1 0 0 7.6 3.8 3.8 0 1 0 0-7.6z"/></defs></svg>