<svg xmlns="http://www.w3.org/2000/svg" viewBox="0 0 59.2 59.2"><circle cx="29.6" cy="29.6" r="29.6" fill="#ecc01b"/><path d="M24.9 31.3l.3-1 2.5-1-.6-3.4-2.5-.1c-.4-.7-.8-1.3-1.4-1.9l.3-2.5-3.1-1.3-1.3 2.1c-.8 0-1.5.2-2.2.5l-2-1.6-2.6 2.2 1.2 2.5c-.2.3-.3.7-.4 1l-.3 1-2.5 1 .6 3.4 2.5.1c.4.7.8 1.3 1.4 1.8l-.3 2.5 3.1 1.2 1.3-2.1c.8 0 1.5-.2 2.2-.5l2 1.7 2.6-2.2-1.3-2.5c.2-.2.4-.6.5-.9zm.1 3.3l-1.9 1.6-1.6-1.4-.2-.2-.3.1c-.6.3-1.3.4-2 .4h-.3l-.2.3-1.1 1.8-2.3-.9.3-2V34l-.2-.2c-.5-.5-1-1.1-1.3-1.7l-.1-.3h-.3l-2.1-.1-.4-2.5 2.1-.9.3-.1.1-.3c.1-.3.1-.6.3-.9.1-.3.2-.6.4-.9l.1-.3-.1-.3-1-2 1.9-1.6 1.6 1.4.2.2.3-.1c.6-.3 1.3-.4 2-.4h.3l.2-.3 1.1-1.7 2.3.9-.3 2v.3l.2.2c.5.5 1 1.1 1.3 1.7l.2.3h.3l2.1.1.4 2.5-2.3.7-.3.1-.1.3c-.1.3-.1.6-.3.9-.1.3-.2.6-.4.9l-.2.3.1.3 1.2 2.1zm-4.7-8.9a3.31 3.31 0 0 0-4.2 2v.1c-.7 1.8.2 3.7 1.9 4.5 1.7.6 3.6-.3 4.2-2.1v-.1c.5-1.7-.3-3.6-1.9-4.4zm-1.7 4.5c-.6-.2-.9-.9-.6-1.5a1.08 1.08 0 0 1 1.4-.7h.1c.6.2.9.9.6 1.5-.2.5-.8.9-1.5.7zm20.5-10.1c.1-.3.2-.6.2-.8l2-.9-.5-2.8-2.1-.1c-.3-.6-.7-1.1-1.2-1.5l.3-2.1-2.5-1-1.1 1.8c-.6 0-1.3.1-1.8.4l-1.6-1.4-2.1 1.8 1 2.1c-.1.3-.3.5-.3.8-.1.3-.1.6-.2.9l-2 .9.5 2.8 2.1.1c.3.6.7 1.1 1.2 1.5l-.3 2.1 2.5 1 1.1-1.8c.6 0 1.3-.1 1.8-.4l1.6 1.4 2.1-1.8-1-2c.2-.5.3-.7.3-1zm.2 2.7l-1.5 1.3-1.4-1.1-.2-.2-.2.1c-.5.2-1.1.3-1.7.3H34l-.1.2-.9 1.5-1.9-.7.2-1.7v-.3l-.2-.2a7.55 7.55 0 0 1-1.1-1.4v-.2h-1.9l-.4-2 1.7-.7.2-.1v-.3c0-.3.1-.5.2-.8.1-.2.2-.5.3-.7l.1-.2v-.2l-.8-1.7 1.5-1.3 1.3 1.1.2.2.2-.1c.5-.2 1.1-.3 1.7-.3h.2l.1-.2.9-1.4 1.9.7-.2 1.6v.3l.2.2a7.55 7.55 0 0 1 1.1 1.4l.1.2h2l.4 2-1.7.7-.3.1v.3c0 .3-.1.5-.2.8-.1.2-.2.5-.3.7l-.1.2.1.2.8 1.7zm-4-7.3c-1.4-.5-3 .2-3.5 1.6v.1c-.6 1.5.1 3.1 1.6 3.7 1.4.5 3-.2 3.5-1.6v-.1c.5-1.5-.2-3.1-1.6-3.7zM34 19.1c-.5-.2-.7-.8-.5-1.2.1-.5.7-.7 1.1-.6.5.2.7.8.5 1.2a.8.8 0 0 1-1.1.6zm11.1 20.5c.2-.5.3-.9.4-1.4l3.3-1.4-.8-4.5-3.3-.1c-.5-.9-1.1-1.8-1.9-2.5l.4-3.3-4.1-1.6-1.8 2.8c-1 0-2 .2-3 .6L31.8 26l-3.5 3 1.7 3.3-.6 1.3c-.2.4-.3.9-.4 1.4l-3.3 1.4.8 4.5 3.3.1c.5.9 1.1 1.8 1.9 2.5l-.4 3.3 4.1 1.6 1.8-2.8c1 0 2-.2 3-.6l2.6 2.2 3.4-2.9-1.7-3.3.6-1.4zm.2 4.3L42.8 46l-2.2-1.8-.3-.2-.4.2c-.9.4-1.8.5-2.7.5h-.4l-.3.3-1.4 2.3-3-1.2.4-2.7V43l-.3-.3c-.7-.6-1.3-1.4-1.7-2.3l-.2-.3h-.4l-2.8-.1-.6-3.3 2.7-1.1.4-.2.4-1.6c.1-.4.3-.8.5-1.2l.2-.4-.2-.4-1.4-2.7 2.5-2.1 2.2 1.8.3.3.4-.2c.9-.4 1.8-.5 2.7-.5h.4l.2-.4 1.4-2.3 3 1.2-.2 2.8v.4l.3.3c.7.6 1.3 1.4 1.7 2.3l.2.4h.4l2.8.1.6 3.3-2.7 1.1-.4.2-.4 1.6c-.1.4-.3.8-.5 1.2l-.2.4.2.4 1.3 2.5zm-6.5-11.7c-2.3-.8-4.8.4-5.6 2.7 0 .1 0 .1-.1.2-.9 2.4.2 5 2.5 6 2.3.8 4.8-.4 5.6-2.7 0-.1 0-.1.1-.2 1-2.4-.2-5-2.5-6zm-2 5.8c-.8-.3-1.1-1.2-.8-2 .2-.8 1.1-1.2 1.8-1h.1c.8.3 1.1 1.2.8 2s-1.1 1.3-1.9 1z" fill="#fff"/><path d="M10 45.5c2.8 3 6.2 5.5 10 7.2 13 5.5 27.9-.6 33.4-13.5.1-.3.3-.7.4-1 3.3-9 1.4-19-4.8-26.2a25.86 25.86 0 0 0-25.3-7.9c-8.8 2.3-15.8 9-18.5 17.7-.4 1.1-.6 2.2-.8 3.4" fill="none" stroke="#fff" stroke-linecap="round" stroke-linejoin="round"/><path d="M11.1 51.6c.2 0 .3-.2.3-.5l-1.3-5.6 5.6 1.2c.2.1.4 0 .5-.2s0-.4-.2-.5h-.1l-6.2-1.3c-.2 0-.4.1-.4.3v.2l1.4 6.2c0 .1.2.3.4.2z" fill="#fff"/></svg>