<svg xmlns="http://www.w3.org/2000/svg" viewBox="0 0 65 64.9"><circle transform="matrix(1 -.003316 .003316 1 -.1074 .108)" cx="32.5" cy="32.5" r="32.5" fill="#eabe1b"/><path d="M47.8 56.6H18.6V11.7a3.12 3.12 0 0 1 3.1-3.1h22.9a3.12 3.12 0 0 1 3.1 3.1V56l.1.6zm-1.7-1.7V11.4c0-.8-.3-1.1-1.2-1.1H21.6c-.7 0-1.2.5-1.2 1.2v43.3l25.7.1zm-1.8-27.4H22.1v-5.1h22.3v5.1zm-20.5-1.7h18.9V24H23.8v1.8zm-1.7 8.5v-5.1h22.3v5.1H22.1zm2.5-1.7h18v-1.7h-18v1.7zM22.1 42v-5.1h22.3V42H22.1zm2.5-1.7h18v-1.7h-18v1.7zm19.7-25.7v5.1H22.1v-5.1h22.2zM24.6 18h18v-1.7h-18V18z" fill="#fff"/></svg>