<svg xmlns="http://www.w3.org/2000/svg" viewBox="0 0 60.2 60.2"><circle cx="30.1" cy="30.1" r="30.1" fill="#ecc01b"/><path d="M23.6 29.6c0-.4 0-.8-.1-1.1l2.3-2-1.9-3.2-2.7.9c-.7-.6-1.4-1-2.2-1.3l-.6-2.6h-3.8l-.6 2.6c-.8.3-1.5.8-2.2 1.3L9 23.3l-1.9 3.2 2.3 2c-.1.7-.1 1.5 0 2.3l-2.3 2L9 35.9l2.7-.9c.7.6 1.4 1 2.2 1.3l.6 2.6h3.8l.6-2.6c.8-.3 1.6-.7 2.2-1.3l2.7.9 1.9-3.2-2.3-2c.1-.3.2-.7.2-1.1zm1.4 3.3l-1.4 2.3-2.3-.7-.3-.2-.3.2c-.6.5-1.3.9-2 1.2l-.3.1-.1.3-.6 2.2H15l-.5-2.2-.1-.3-.3-.1c-.7-.3-1.4-.7-2-1.2l-.3-.2-.3.1-2.3.8-1.4-2.3 1.9-1.7.3-.2v-.3c-.1-.7-.1-1.4 0-2.1v-.3l-.2-.3-1.9-1.6 1.4-2.3 2.3.7.3.1.3-.2c.6-.5 1.3-.9 2-1.2l.3-.1.1-.3.5-2.1h2.7l.5 2.1.1.3.3.1c.7.3 1.4.7 2 1.2l.3.2.3-.1 2.3-.7 1.4 2.3-2 1.6-.3.2v.3c.1.7.1 1.4 0 2.1v.3l.3.2 2 1.8zm-8.6-7a3.8 3.8 0 1 0 0 7.6c2.1 0 3.7-1.7 3.8-3.8s-1.7-3.8-3.8-3.8zm0 5c-.7 0-1.3-.6-1.3-1.3s.6-1.3 1.3-1.3 1.3.6 1.3 1.3-.6 1.3-1.3 1.3zm32.1 4.2c.3-.4.5-.8.7-1.3l3.8-.6.1-4.8-3.5-.9a8.47 8.47 0 0 0-1.5-3l1.2-3.3-4-2.6-2.5 2.5c-1.1-.2-2.2-.3-3.3-.1l-2.3-2.8-4.3 2 1.1 3.7c-.7.7-1.2 1.5-1.6 2.4l-3.8.6-.1 4.8 3.5.9a8.47 8.47 0 0 0 1.5 3l-1.2 3.3 4 2.6 2.5-2.4c1.1.2 2.2.3 3.3.1l2.3 2.8 4.3-2.1-1.1-3.8c.3-.3.6-.6.9-1zm-.7 4.4L44.7 41l-1.9-2.4-.3-.3-.5.1c-1 .1-2 .1-3-.1l-.5-.1-2.3 2.3-3-1.9 1-2.7.2-.4-.4-.3c-.6-.8-1.1-1.7-1.4-2.7l-.1-.5-.4-.1-2.9-.8.1-3.5 3.2-.5.4-.1.2-.4c.3-.8.8-1.6 1.4-2.2l.3-.3-.1-.4-.9-3.1 3.1-1.5 1.9 2.4.3.4.5-.1c1-.1 2-.1 3 .1l.4.1 2.3-2.3 3 1.9-1 2.7-.2.4.3.4c.6.8 1.1 1.7 1.4 2.7l.1.4.4.1 2.9.8-.1 3.5-3.1.4h-.5l-.2.4c-.3.8-.8 1.6-1.4 2.2l-.3.4.1.4 1.1 3.1zm-4.5-13.4c-2.2-1.5-5.2-.8-6.7 1.4s-.8 5.2 1.4 6.7 5.2.8 6.7-1.4c1.5-2.3.9-5.3-1.4-6.7zm-3.4 5.3c-.7-.5-1-1.5-.5-2.2s1.5-1 2.2-.5 1 1.5.5 2.2c-.5.8-1.5 1-2.2.5z" fill="#fff"/></svg>