<svg xmlns="http://www.w3.org/2000/svg" viewBox="0 0 59.6 59.6"><circle cx="29.8" cy="29.8" r="29.8" fill="#eabe1d"/><path d="M34.8 19.1h-2.6c0 1.8-.4 3.7-1.1 5.4L23 20.6c.8-2.7-.7-5.6-3.5-6.4a5.06 5.06 0 0 0-4 .5l-1.9-1.9-1.8 1.8 1.9 1.9c-1.4 2.4-.6 5.6 1.8 7 1.2.7 2.7.9 4 .5l11.1 22.9 1.2-.6-6.1-12.5a16.69 16.69 0 0 0 7.2-7.2l12.6 6.1.6-1.2-12.5-6.1c.8-1.9 1.2-4.1 1.2-6.3zm-17.6-.9c.5-.5 1.3-.5 1.8 0s.5 1.3 0 1.8-1.3.5-1.8 0c-.4-.5-.4-1.3 0-1.8zm7.5 13.3l-3.9-8.1c.8-.4 1.4-1.1 1.8-1.8l8.1 3.9c-1.4 2.6-3.5 4.7-6 6z" fill="#fff"/></svg>