<svg xmlns="http://www.w3.org/2000/svg" viewBox="0 0 59.2 59.2"><circle cx="29.6" cy="29.6" r="29.6" fill="#e8bd1f"/><path d="M44 33.4h-5.4V31h5.3c.4 0 .7-.3.8-.7v-1c0-.4-.3-.7-.7-.8h-5.3v-2.6H44c.4 0 .7-.3.8-.7v-1c0-.4-.3-.7-.7-.8h-5.3v-3.1h-2.7v-5.6c0-.4-.3-.7-.7-.8h-.9c-.4 0-.7.3-.8.7v5.6H31v-5.5c0-.4-.3-.7-.7-.8h-1c-.4 0-.7.3-.8.7v5.5h-2.6v-5.5c0-.4-.3-.7-.7-.8h-1c-.4 0-.7.3-.8.7V20h-2.9v3h-5.2c-.4 0-.7.3-.8.7v1c0 .4.3.7.7.8h5.2v2.8h-5.3c-.4 0-.7.3-.8.7v.9c0 .4.3.7.7.8h5.3v2.6H15c-.4 0-.7.3-.8.7v1c0 .4.3.7.7.8h5.3V39h2.9v5.6l.6.7H25c.4 0 .7-.3.8-.7V39h2.5v5.5c0 .4.3.7.7.8h1c.4 0 .7-.3.8-.7V39h2.7v5.5a.68.68 0 0 0 .7.7h1.1c.4 0 .7-.3.8-.7V39h2.8v-3.1h5.4c.4 0 .7-.3.8-.7v-1c-.2-.6-.6-.9-1.1-.8zm-14.5.1c-2 0-3.7-1.6-3.7-3.7s1.6-3.7 3.7-3.7 3.7 1.6 3.7 3.7a3.9 3.9 0 0 1-3.7 3.7z" fill="#fff"/></svg>