<svg xmlns="http://www.w3.org/2000/svg" viewBox="0 0 83.8 60.8"><g opacity=".3"><circle cx="43.2" cy="30.4" r="30.4" fill="#efcc2e"/><path d="M52 22.7h-2.6c0 1.9-.4 3.7-1.1 5.5l-8.3-4c.8-2.8-.7-5.7-3.5-6.5-1.4-.4-2.9-.2-4.2.5l-2-2-1.7 1.8 2 2c-1.5 2.5-.7 5.7 1.8 7.1 1.3.8 2.8.9 4.2.5L47.8 51l1.2-.6-6.2-12.8c3.1-1.6 5.7-4.2 7.3-7.3l12.8 6.2.6-1.2-12.8-6.2c.9-1.9 1.3-4.1 1.3-6.4zm-17.8-.9c.5-.5 1.3-.5 1.8 0s.5 1.3 0 1.8-1.3.5-1.8 0-.5-1.3 0-1.8zm7.5 13.6l-4-8.2c.8-.4 1.4-1.1 1.8-1.8l8.2 4c-1.3 2.5-3.4 4.6-6 6z" fill="#fff"/></g><g opacity=".2"><circle cx="53.4" cy="30.4" r="30.4" fill="#efcc2e"/><path d="M62.2 22.7h-2.6c0 1.9-.4 3.7-1.1 5.5l-8.3-4c.8-2.8-.7-5.7-3.5-6.5-1.4-.4-2.9-.2-4.2.5l-2-2-1.8 1.8 2 2c-1.5 2.5-.7 5.7 1.8 7.1 1.3.8 2.8.9 4.2.5L58 51.1l1.2-.6L53 37.7c3.1-1.6 5.7-4.2 7.3-7.3l12.8 6.2.6-1.2-12.8-6.2c.8-2 1.3-4.2 1.3-6.5zm-17.9-.9c.5-.5 1.3-.5 1.8 0s.5 1.3 0 1.8-1.3.5-1.8 0-.5-1.3 0-1.8zm7.6 13.6l-4-8.2c.8-.4 1.4-1.1 1.8-1.8l8.2 4c-1.3 2.5-3.4 4.6-6 6z" fill="#fff"/></g><circle cx="30.4" cy="30.4" r="30.4" fill="#efcc2e" opacity=".8"/><path d="M39.2 22.7h-2.6c0 1.9-.4 3.7-1.1 5.5l-8.3-4c.8-2.8-.7-5.7-3.5-6.5-1.4-.4-2.9-.2-4.2.5l-2-2-1.8 1.8 2 2c-1.5 2.5-.7 5.7 1.8 7.1 1.3.8 2.8.9 4.2.5L35 51.1l1.2-.6L30 37.7c3.1-1.6 5.7-4.2 7.3-7.3l12.8 6.2.6-1.2-12.8-6.2c.8-2 1.3-4.2 1.3-6.5zm-17.8-.9c.5-.5 1.3-.5 1.8 0s.5 1.3 0 1.8-1.3.5-1.8 0c-.6-.5-.6-1.3 0-1.8zm7.5 13.6l-4-8.2c.8-.4 1.4-1.1 1.8-1.8l8.2 4c-1.3 2.5-3.5 4.6-6 6z" fill="#fff"/></svg>