<svg xmlns="http://www.w3.org/2000/svg" viewBox="0 0 60.1 60.1"><circle cx="30" cy="30" r="30" fill="#e8bd1f"/><path d="M38.8 22.5h-2.6c0 1.9-.4 3.7-1.1 5.4l-8.2-4c.8-2.7-.8-5.6-3.5-6.4-1.4-.4-2.8-.2-4.1.5l-1.9-1.9-1.8 1.8 1.9 1.9c-1.4 2.5-.6 5.6 1.8 7.1 1.2.7 2.7.9 4.1.5l11.2 23.1 1.1-.6-6.1-12.7a16.69 16.69 0 0 0 7.2-7.2l12.7 6.1.6-1.1-12.7-6.2c.9-1.9 1.4-4.1 1.4-6.3zm-17.7-.9c.5-.5 1.3-.5 1.8 0s.5 1.3 0 1.8-1.3.5-1.8 0-.5-1.3 0-1.8zM28.5 35l-3.9-8.1c.7-.4 1.4-1.1 1.8-1.8l8.1 3.9a13.4 13.4 0 0 1-6 6z" fill="#fff"/></svg>