<svg xmlns="http://www.w3.org/2000/svg" viewBox="0 0 60.3 60.2"><circle cx="30.1" cy="30.1" r="30.1" fill="#ecc01b"/><path d="M52.5 28.6h-3c-.7-9.5-8.3-17.1-17.9-17.8v-3h-3v3a19.31 19.31 0 0 0-17.8 17.8h-3v3h3a19.31 19.31 0 0 0 17.8 17.8v3h3v-3a19.31 19.31 0 0 0 17.8-17.8h3v-3zm-6 0H42c-.7-5.4-5-9.7-10.4-10.3v-4.5c7.9.7 14.2 6.9 14.9 14.8zm-6 3c-.7 4.6-4.3 8.2-8.8 8.8v-5.9h-3v5.8c-4.6-.7-8.2-4.3-8.8-8.8h5.8v-3h-5.9c.7-4.6 4.3-8.2 8.8-8.8v5.8h3v-5.8c4.6.7 8.2 4.3 8.8 8.8h-5.9v3h6zM28.6 13.8v4.5c-5.4.7-9.7 4.9-10.3 10.3h-4.5c.7-7.9 7-14.1 14.8-14.8zM13.8 31.6h4.5c.7 5.4 4.9 9.6 10.3 10.3v4.5c-7.8-.7-14.1-6.9-14.8-14.8zm17.8 14.8v-4.5C37 41.2 41.3 37 42 31.6h4.5c-.7 7.9-7 14.1-14.9 14.8z" fill="#fff"/><g fill="#ecc01b"><path d="M31.6 17.8h9v9.4h-9zM33 31.6h9V41h-9z"/><path d="M39 23.1h3.1v5.5H39zm-7.4 15.2h3.1v5.5h-3.1zM20.1 17.5h8.6v7.3h-8.6zm-2.3 14.1h8.6v7.3h-8.6z"/><path d="M17.8 22.4h5v6.2h-5zM22.1 38h6.6v6.2h-6.6z"/></g></svg>