<svg xmlns="http://www.w3.org/2000/svg" viewBox="0 0 58.2 58.2"><circle transform="matrix(.7071 -.7071 .7071 .7071 -12.0495 29.09)" cx="29.1" cy="29.1" r="29.1" fill="#eabe1d"/><path d="M22.4 28.3c0-.4 0-.7-.1-1.1l2.3-2-1.9-3.2-2.7.9c-.7-.6-1.4-1-2.2-1.3l-.6-2.6h-3.7l-.6 2.6c-.8.3-1.6.7-2.2 1.3L7.9 22 6 25.2l2.3 2c-.1.7-.1 1.5 0 2.2l-2.3 2 1.9 3.2 2.7-.9c.7.6 1.4 1 2.2 1.3l.6 2.6h3.7l.6-2.6c.8-.3 1.6-.7 2.2-1.3l2.7.9 1.9-3.2-2.3-2c.2-.4.2-.8.2-1.1zm1.4 3.2l-1.4 2.3-2.2-.7-.4-.1-.3.2c-.6.5-1.3.9-2 1.2l-.3.1-.1.3-.4 2.2h-2.8l-.5-2.1-.1-.3-.3-.2c-.7-.3-1.4-.7-2-1.2l-.3-.2-.3.1-2.2.7-1.4-2.3 1.9-1.6.3-.2-.1-.3c-.1-.7-.1-1.3 0-2V27l-.3-.2L6.7 25l1.4-2.3 2.2.7.3.1.3-.2c.6-.5 1.3-.9 2-1.2l.3-.1.1-.3.5-2.1h2.7l.5 2.1.1.3.3.2c.7.3 1.4.7 2 1.2l.3.2.3-.1 2.2-.7 1.4 2.3-1.8 1.6-.3.2v.3c.1.7.1 1.3 0 2v.3l.3.2 2 1.8zm-8.5-7c-2.1 0-3.7 1.7-3.7 3.7a3.76 3.76 0 0 0 3.7 3.7 3.76 3.76 0 0 0 3.7-3.7 3.76 3.76 0 0 0-3.7-3.7zm0 5c-.7 0-1.2-.5-1.2-1.2s.5-1.2 1.2-1.2 1.2.5 1.2 1.2-.6 1.2-1.2 1.2zm24.8-12c0-.4 0-.7-.1-1.1l2.3-2-1.9-3.2-2.7.9c-.7-.6-1.4-1-2.2-1.3l-.6-2.6H31l-.6 2.6c-.8.3-1.6.7-2.2 1.3l-2.7-.9-1.9 3.2 2.3 2c-.1.7-.1 1.5 0 2.2l-2.3 2 1.9 3.2 2.7-.9c.7.6 1.4 1 2.2 1.3l.6 2.6h3.7l.6-2.6c.8-.3 1.6-.7 2.2-1.3l2.7.9 1.9-3.2-2.3-2c.2-.4.3-.7.3-1.1zm1.3 3.3L40 23.1l-2.2-.7-.3-.1-.3.2c-.6.5-1.3.9-2 1.2l-.3.1-.1.3-.5 2.1h-2.8L31 24l-.1-.3-.3-.1c-.7-.3-1.4-.7-2-1.2l-.2-.2-.4.1-2.2.7-1.4-2.3 1.9-1.6.2-.2v-.3c-.1-.7-.1-1.3 0-2v-.4l-.3-.2-1.9-1.7 1.4-2.3 2.2.7.3.1.3-.2c.6-.5 1.3-.9 2-1.2l.3-.1.1-.3.5-2.1h2.7l.5 2.1.1.3.3.1c.7.3 1.4.7 2 1.2l.3.2.3-.1L40 12l1.4 2.3-1.9 1.6-.3.2v.3c.1.7.1 1.3 0 2v.3l.3.2 1.9 1.9zm-8.5-7c-2.1 0-3.7 1.7-3.7 3.7a3.76 3.76 0 0 0 3.7 3.7c2.1 0 3.7-1.7 3.7-3.7s-1.6-3.7-3.7-3.7zm0 5c-.7 0-1.2-.6-1.2-1.2s.6-1.2 1.2-1.2c.7 0 1.2.6 1.2 1.2s-.5 1.2-1.2 1.2zm9.8 23.9c.2-.4.4-.9.5-1.3l3.7-1-.4-4.7-3.6-.5c-.4-1-1-2-1.8-2.8l.8-3.4-4.3-2.1-2.2 2.7c-1.1-.1-2.2 0-3.3.3l-2.7-2.6-4 2.6 1.5 3.6c-.6.8-1 1.7-1.3 2.6l-3.7 1 .4 4.7 3.6.5c.4 1 1 2 1.8 2.8l-.7 3.2 4.3 2.1 2.2-2.7a9.26 9.26 0 0 0 3.3-.3l2.7 2.6 4-2.6-1.5-3.5c.3-.4.5-.8.7-1.2zm-.2 4.5L39.6 49l-2.2-2.1-.3-.3-.4.1c-1 .3-2 .3-3 .2h-.4l-.3.3-1.8 2.2-3.2-1.5.6-2.7.1-.4-.3-.3a7.82 7.82 0 0 1-1.7-2.6l-.2-.4-.5-.1-3-.4-.3-3.4 3.1-.8.4-.1.1-.4c.2-.8.6-1.6 1.2-2.4l.3-.4-.2-.4-1.2-3 2.9-1.9 2.2 2.1.3.3.4-.1c1-.3 2-.3 3-.2h.4l.3-.3 1.8-2.2 3.2 1.6-.6 2.6-.1.4.3.3c.7.8 1.3 1.6 1.7 2.6l.2.4.5.1 3 .4.3 3.4-3.2 1-.4.1-.1.4c-.2.8-.6 1.6-1.2 2.4l-.3.4.2.4 1.3 2.9zm-5.9-12.9c-2.4-1.2-5.2-.2-6.4 2.2s-.2 5.2 2.2 6.4 5.2.2 6.4-2.2c1.2-2.3.2-5.2-2.2-6.4zm-2.8 5.8c-.8-.4-1.1-1.3-.7-2.1s1.3-1.1 2.1-.7 1.1 1.3.7 2.1c-.4.7-1.3 1.1-2.1.7z" fill="#fff"/></svg>