<svg xmlns="http://www.w3.org/2000/svg" viewBox="0 0 60.4 60.2"><ellipse cx="30.2" cy="30.1" rx="30.2" ry="30.1" fill="#ecc01b"/><path d="M42.5 21.3c-.6-5.7-5.6-9.8-11.3-9.2-4.6.5-8.4 4-9.1 8.6-.4-.1-.9-.1-1.4-.1-5 0-9.1 4.1-9.1 9.1s4.1 9.1 9.1 9.1h6.7v-2.5h-6.7c-3.7 0-6.7-3-6.7-6.6s3-6.7 6.6-6.7c.3 0 .7 0 1 .1l2.4.3.4-2.4c.7-4.3 4.7-7.2 9.1-6.6a7.96 7.96 0 0 1 6.6 7l.1 1.5 1.3.6c3.4 1.4 5 5.4 3.6 8.8-1 2.5-3.5 4.1-6.1 4.1h-4.4V39H39c5 0 9.1-4 9.1-9v-.1a9.43 9.43 0 0 0-5.6-8.6zm-15.2 10h6.6V43h3.3l-6.4 11.4-6.2-11.5h3.1V31.3" fill="#fff"/></svg>