<svg xmlns="http://www.w3.org/2000/svg" viewBox="0 0 64.5 64.2"><ellipse cx="32.3" cy="32.1" rx="32.3" ry="32.1" fill="#e9bc1d"/><path d="M33.1 48.7l-.8-.1c-1-.2-1.9-.5-2.8-.9L21 43.4l-1.2-.6c-.5-.2-1.1-.2-1.6.1l-2.1 1.3-1.1.7a.97.97 0 0 1-1.4-.1c-.1-.1-.1-.2-.2-.3l-1.9-4.2-3.3-7.1c-.3-.5-.1-1.2.4-1.4 0 0 .1 0 .1-.1l1.2-.5 5.5-2.4c.9-.4 1.9-.8 2.9-1 1.2-.3 2.5-.4 3.8-.3.7 0 1.3.1 2 .3a5.1 5.1 0 0 1 2.6 1.4l2 2.1.6.7c.4.5 1 .9 1.7 1 1.4.4 2.9.6 4.4.8.7.1 1.5.1 2.2.1.8 0 1.6.2 2.3.5 1.2.6 1.7 2.1 1.1 3.3-.2.3-.4.6-.6.8-.5.4-1.2.6-1.8.7-.4 0-.8.1-1.2.1h-5c-1.3 0-2.7-.1-4-.4l-2.9-.6a1.11 1.11 0 0 0-1.3.8c-.2.6.2 1.1.8 1.3l3.1.7c1.6.3 3.3.4 5 .4h4.4a8.15 8.15 0 0 0 3.1-.6c1.2-.5 2.1-1.5 2.5-2.7 0-.1.1-.2.2-.2l9.8-6.4c.7-.5 1.5-.7 2.3-.7 1 0 1.8.9 1.9 1.9 0 .9-.3 1.7-.9 2.4-.6.8-1.4 1.4-2.3 1.9l-13.3 8.7-3.9 2.4c-.9.1-1.9.4-2.9.5h-.9zm-.9-35.5h.3c.3 0 .6.2.6.5l.3 1.6s0 .1.1.1l.7.3h.1l1.3-.9a.53.53 0 0 1 .8.1l1.2 1.2c.2.2.3.6.1.8l-1 1.3v.1c.1.2.2.5.3.7l.1.1 1.6.3c.3 0 .5.3.5.6v1.7c0 .3-.2.6-.6.6l-1.6.3c-.1 0-.1 0-.1.1-.1.2-.2.5-.3.7v.1l1 1.3a.53.53 0 0 1-.1.8l-1.2 1.2c-.2.2-.6.3-.8.1l-1.3-1H34l-.7.3c-.1 0-.1.1-.1.1l-.3 1.6c0 .3-.3.5-.6.5h-1.7c-.3 0-.6-.2-.6-.5l-.3-1.6c0-.1 0-.1-.1-.1l-.7-.3h-.2l-1.3.9c0 .2-.4.2-.6 0l-1.2-1.2a.53.53 0 0 1-.1-.8l.9-1.3v-.2c-.1-.2-.2-.5-.3-.7l-.1-.1-1.6-.3c-.3 0-.6-.3-.5-.6v-1.7c0-.3.2-.6.5-.6L26 19s.1 0 .1-.1l.3-.7v-.1l-.9-1.3a.53.53 0 0 1 .1-.8l1.2-1.2c.2-.2.6-.3.8-.1l1.3.9h.2l.7-.3s.1 0 .1-.1l.3-1.5c0-.3.2-.5.5-.6l1.5.1zm1.7 7.7c0-1.3-1-2.4-2.3-2.4s-2.4 1-2.4 2.3 1 2.4 2.3 2.4c1.4 0 2.4-1 2.4-2.3zm7.6 12l1.2-.8 4.4-2.7c1-.6 2.2-.8 3.2-.4.4.1.8.4 1.1.7l-8.3 5.5c-.2-.9-.8-1.7-1.6-2.3zm-7.1-1.5l1.2-.7 3.6-2.2c1.2-.8 2.6-1.1 4-1.1.7 0 1.4.2 2 .6l.1.1-5.4 3.3-.6.4h-.1c-.7-.1-1.3-.2-2-.2-.8 0-1.7-.1-2.5-.2h-.3z" fill="#fff"/></svg>