<svg xmlns="http://www.w3.org/2000/svg" viewBox="0 0 60.3 60.2"><g fill="#ecc01b"><circle cx="30.1" cy="30.1" r="30.1"/><path d="M28.3 35.2c0 2.3-.8 4.5-2.2 6.3-1.1 1.5-4.9 6.7-8 9.4v-5.3h-.3c-5.8 0-10.4-4.7-10.4-10.5s4.7-10.4 10.5-10.4c5.7 0 10.4 4.7 10.4 10.5z" stroke="#fff" stroke-miterlimit="10"/></g><g fill="#fff"><circle cx="22.7" cy="34.9" r="1.2"/><circle cx="17.8" cy="34.9" r="1.2"/><circle cx="13" cy="34.9" r="1.2"/><path d="M20 15.1l-1.4-1.2 2.5-3.1-3-2.6 1.2-1.5 4.6 3.8-3.9 4.6z"/><path d="M8.4 25.1c-.2-1.7-.1-3.4.3-5 1-4.1 3.8-7.5 7.5-9.3 1.4-.7 3-1.1 4.5-1.3l.3 2.3c-6.5.7-11.1 6.6-10.4 13.1l-2.2.2zm43 12.9H26V6.9h18.9l6.6 6.5-.1 24.6z"/></g><path d="M30.1 15.6H48v3H30.1v-3zm0 6.6H43v3H30.1v-3zm0 6.3h16v3h-16v-3zm21.3-15h-6.6V6.9l6.6 6.6z" fill="#ecc01b"/></svg>