<svg xmlns="http://www.w3.org/2000/svg" viewBox="0 0 60.2 60.2"><circle cx="30.1" cy="30.1" r="30.1" fill="#ecc01b"/><path d="M30.1 22.9a7.17 7.17 0 0 0-7.2 7.2 7.17 7.17 0 0 0 7.2 7.2 7.17 7.17 0 0 0 7.2-7.2c0-3.9-3.2-7.2-7.2-7.2zm0 9.6c-1.3 0-2.4-1.1-2.4-2.4s1.1-2.4 2.4-2.4 2.4 1.1 2.4 2.4-1 2.4-2.4 2.4zm0-13.2c-8.1 0-14.2 4.3-18 10.8 3.8 6.4 9.9 10.8 18 10.8s14.2-4.3 18-10.8c-3.8-6.4-9.9-10.8-18-10.8zm0 20.4c-6.9 0-12.7-3.4-16.6-9.6 3.9-6.2 9.7-9.6 16.6-9.6s12.7 3.4 16.6 9.6c-3.9 6.2-9.7 9.6-16.6 9.6z" fill="#fff"/></svg>