<svg xmlns="http://www.w3.org/2000/svg" viewBox="0 0 60.3 60.2"><circle cx="30.1" cy="30.1" r="30.1" fill="#ecc01b"/><path d="M42.2 19.6c-2.7 0-5.4 1.1-7.3 3h-2.1c-.8-1.4-2.7-1.9-4.1-1.1-.4.3-.8.6-1.1 1.1h-2.1c-4.1-4.1-10.8-4-14.9.2s-4 10.8.2 14.9 10.8 4 14.9-.2c1.9-2 3-4.6 3-7.4h3a10.5 10.5 0 1 0 21 0 10.5 10.5 0 0 0-10.5-10.5zm-24 18c-4.1 0-7.5-3.4-7.5-7.5s3.4-7.5 7.5-7.5 7.5 3.4 7.5 7.5-3.4 7.5-7.5 7.5c-.1 0-.1 0 0 0zm24 0c-4.1 0-7.5-3.4-7.5-7.5s3.4-7.5 7.5-7.5 7.5 3.4 7.5 7.5-3.4 7.5-7.5 7.5z" fill="#fff"/></svg>