<svg xmlns="http://www.w3.org/2000/svg" viewBox="0 0 60 59.9"><circle cx="30" cy="30" r="30" fill="#c5972c"/><path d="M43.6 21.6h-11v27.6H51V28.9l-7.4-7.3zM50 48.3H33.5V22.5h9.2v7.3H50v18.5zM36.2 32.6h11v.9h-11zm0 1.9h11v.9h-11zm0 1.8h5.5v.9h-5.5zm-8.6-2.9l-14.8-.1c-2 0-3.6 1.6-3.7 3.6v3.7l22.2.2v-3.7a3.76 3.76 0 0 0-3.7-3.7zm-7.5-3.8a9.39 9.39 0 1 1 0-18.8 9.39 9.39 0 1 1 0 18.8zm0-17.7a8.24 8.24 0 0 0-8.2 8.2 8.24 8.24 0 0 0 8.2 8.2 8.24 8.24 0 0 0 8.2-8.2c0-4.5-3.6-8.2-8.2-8.2z" fill="#fff"/></svg>