<svg xmlns="http://www.w3.org/2000/svg" viewBox="0 0 59.6 59.6"><circle cx="29.8" cy="29.8" r="29.8" fill="#c3952d"/><g fill="#fff"><circle cx="29.8" cy="29.8" r="1.4"/><path d="M29.8 34.5c-2.6 0-4.7-2.1-4.7-4.7s2.1-4.7 4.7-4.7 4.7 2.1 4.7 4.7-2.1 4.7-4.7 4.7zm0-8.1a3.37 3.37 0 0 0-3.4 3.4 3.37 3.37 0 0 0 3.4 3.4 3.37 3.37 0 0 0 3.4-3.4 3.37 3.37 0 0 0-3.4-3.4zm0 11.4c-4.4 0-8-3.6-8-8s3.6-8 8-8 8 3.6 8 8-3.6 8-8 8zm0-14.7a6.7 6.7 0 0 0 0 13.4 6.7 6.7 0 0 0 0-13.4zm0 18a11.29 11.29 0 0 1-11.3-11.3c0-6.3 5-11.3 11.3-11.3s11.3 5 11.3 11.3c0 6.2-5.1 11.3-11.3 11.3zm0-21.2c-5.5 0-9.9 4.5-9.9 9.9s4.5 9.9 9.9 9.9 9.9-4.5 9.9-9.9a9.86 9.86 0 0 0-9.9-9.9zm0 24.1a14.3 14.3 0 1 1 0-28.6c7.9 0 14.2 6.5 14.2 14.4S37.7 44 29.8 44zm0-27.1c-7.1 0-12.9 5.8-12.9 12.9s5.8 12.9 12.9 12.9 12.9-5.8 12.9-12.9-5.8-12.9-12.9-12.9zm0 30c-9.4 0-17.1-7.7-17.1-17.1s7.7-17.1 17.1-17.1 17.1 7.7 17.1 17.1-7.7 17.1-17.1 17.1zm0-32.9C21.1 14 14 21.1 14 29.8s7.1 15.8 15.8 15.8 15.8-7.1 15.8-15.8S38.5 14 29.8 14z"/></g></svg>