<svg xmlns="http://www.w3.org/2000/svg" viewBox="0 0 59.6 59.6"><circle cx="29.8" cy="29.8" r="29.8" fill="#c3952d"/><path d="M13.8 48.6l-2.2-2.2C2.4 36.4 3 20.8 13 11.6l.4-.4c.2-.2.3-.2.6 0l2.1 2.1c.2.2.2.3 0 .4-3.2 2.8-5.6 6.4-6.6 10.5a19.62 19.62 0 0 0-.6 7.6c.5 4.8 2.7 9.3 6.1 12.7.4.4.8.8 1.3 1.2.2.2.2.3 0 .5l-2.1 2.1c-.1.1-.2.1-.2.3h-.2zm31.8 0c-.6-.7-1.3-1.4-2-2l-.3-.3c-.2-.2-.2-.3 0-.5 2-1.7 3.7-3.7 4.9-6 1.3-2.4 2.2-5.1 2.5-7.8a21.05 21.05 0 0 0-6.2-17.3c-.3-.4-.7-.7-1.1-1-.1-.1-.2-.2 0-.3l2.3-2.3c.2-.2.3-.1.4 0a24.12 24.12 0 0 1 5.6 7.1 25.61 25.61 0 0 1 2.6 8.1c.1.6.2 1.2.2 1.9 0 .1 0 .1.1.2v2.8c-.1 0-.1.1-.1.2l-.4 3c-.8 4.5-2.9 8.7-6 12.1-.7.8-1.5 1.5-2.3 2.2l-.2-.1zM22.7 19.9c-5.4 3.9-6.6 11.5-2.6 16.9a12.4 12.4 0 0 0 2.8 2.8c0 .1 0 .1-.1.1L20.5 42c-.1.2-.2.2-.4 0-6.8-5.4-8-15.3-2.7-22.1.3-.4.6-.7.9-1 .5-.5 1-1 1.6-1.5.1-.1.2-.1.4 0l2.4 2.5zm22.9 9.8c0 4.8-2.2 9.3-6 12.3-.2.1-.3.2-.5 0l-2.2-2.2c-.2-.2-.2-.3 0-.4 5.4-3.9 6.6-11.5 2.6-16.9-.3-.3-.5-.7-.8-1-.5-.6-1.1-1.1-1.7-1.5-.2-.1-.2-.2 0-.4l2.2-2.2c.2-.2.3-.2.5 0 3.1 2.5 5.1 6.1 5.7 10 .1.8.1 1.6.2 2.3zm-11.2.1c0 2.6-2.1 4.7-4.7 4.7s-4.6-2.2-4.6-4.7c0-2.6 2.2-4.6 4.7-4.6 2.6 0 4.6 2 4.6 4.6z" fill="#fff"/></svg>