<svg xmlns="http://www.w3.org/2000/svg" contentScriptType="text/ecmascript" zoomAndPan="magnify" baseProfile="full" contentStyleType="text/css" width="100.032" preserveAspectRatio="xMidYMid meet" viewBox="0 0 75 75" height="100.032" overflow="visible" color-interpolation-filters="sRGB" fill="none" fill-rule="evenodd" stroke-linecap="square" stroke-miterlimit="3"><circle fill="#e2002f" r="37.5" cx="37.5" cy="37.5"/><path fill="#fff" d="M27.682 43.556c-2.793 0-5.162 1.963-5.807 4.57H15.73v2.833h6.146c.645 2.607 3.014 4.57 5.807 4.57s5.162-1.963 5.808-4.57h27.395v-2.833H33.492c-.645-2.608-3.016-4.57-5.8-4.57zm0 4.25a1.7 1.7 0 0 1 1.736 1.734c0 .983-.752 1.737-1.736 1.737s-1.734-.754-1.734-1.737a1.7 1.7 0 0 1 1.734-1.734zM49.048 31.41c-2.793 0-5.16 1.962-5.807 4.57H15.73v2.836h27.513c.646 2.606 3.014 4.567 5.807 4.567s5.162-1.96 5.808-4.567h6.03V35.98h-6.03c-.646-2.607-3.015-4.57-5.808-4.57zm0 4.252a1.7 1.7 0 0 1 1.736 1.734 1.7 1.7 0 0 1-1.736 1.734 1.7 1.7 0 0 1-1.734-1.734 1.7 1.7 0 0 1 1.734-1.734zm-21.366-16.4c-2.793 0-5.162 1.963-5.807 4.57H15.73v2.833h6.146c.645 2.607 3.014 4.57 5.807 4.57s5.162-1.963 5.808-4.57h27.395v-2.833H33.492c-.645-2.608-3.016-4.57-5.8-4.57zm0 4.25a1.7 1.7 0 0 1 1.736 1.734c0 .983-.752 1.737-1.736 1.737s-1.734-.754-1.734-1.737a1.7 1.7 0 0 1 1.734-1.734z"/></svg>