<svg xmlns="http://www.w3.org/2000/svg" width="100.032" height="100.032" viewBox="0 0 75 75" fill="none" fill-rule="evenodd" overflow="visible" stroke-linecap="square" stroke-miterlimit="3" color-interpolation-filters="sRGB"><style><![CDATA[.B{color-interpolation-filters:sRGB}]]></style><circle r="37.5" cx="37.5" cy="37.5" fill="#8dc53f" class="B"/><path d="M19.096 49.793v12.76h37.59v-12.76zm11.092 3.328a3.053 3.053 0 0 1 3.053 3.053 3.053 3.053 0 1 1-6.105 0 3.053 3.053 0 0 1 3.053-3.053zM19.096 13.87v12.76h37.59V13.87zm11.092 3.328a3.053 3.053 0 0 1 3.053 3.053 3.053 3.053 0 0 1-6.105 0 3.053 3.053 0 0 1 3.053-3.053zM19.096 31.832v12.76h37.59v-12.76zm11.092 3.328a3.053 3.053 0 0 1 3.053 3.053 3.053 3.053 0 0 1-6.105 0 3.053 3.053 0 0 1 3.053-3.053z" fill="#fff" paint-order="normal" class="B"/></svg>