<svg xmlns="http://www.w3.org/2000/svg" width="100.032" height="100.032" viewBox="0 0 75 75" fill="none" fill-rule="evenodd" overflow="visible" stroke-linecap="square" stroke-miterlimit="3" color-interpolation-filters="sRGB"><circle r="37.5" cx="37.5" cy="37.5" color-interpolation-filters="sRGB" fill="#8dc53f"/><path d="M67.362 41.722L56.07 48.01v11.713l11.293-6.298zm-26.793 0l11.293 6.287v11.713L40.57 53.424zm2.257-3.388l11.154-6.208 11.126 6.235-11.126 6.212zm-6.386 3.388L25.148 48.01v11.713l11.293-6.298zm-26.793 0L20.94 48.01v11.713L9.648 53.424zm2.257-3.388l11.154-6.208 11.126 6.235-11.126 6.212zM51.9 15.548L40.61 21.835v11.713L51.9 27.25zm-26.793 0L36.4 21.835v11.713L25.11 27.25zm2.257-3.388L38.52 5.953l11.126 6.235L38.52 18.4z" fill="#fff"/></svg>