<svg xmlns="http://www.w3.org/2000/svg" width="742.409" height="742.409" viewBox="0 0 196.429 196.429"><rect width="196.429" height="196.429" rx="8.367" fill="#4c7bb4" fill-opacity=".975" paint-order="normal"/><path d="M175.248 62.153l-20.12 14.385 2.908 4.068 20.12-14.387zm-32.312-33.508L130.97 50.75l4.396 2.38 11.967-22.102zM98.742 16.45v25.707h5V16.45zM60.37 27.858l-4.436 2.307 12.738 24.48 4.436-2.307zM28.326 62.25l-2.875 4.092 20.945 14.72 2.875-4.092zm75.928-7.018c-9.45-.59-18.673 1.868-26.64 6.252l-.027.014-.027.016C64.903 68.898 57.38 79.502 53.37 91s-4.593 23.882-3.69 35.238l4.984-.396c-.865-10.896-.26-22.616 3.428-33.197s10.368-20.025 21.973-26.8c14.505-7.965 32.672-9.09 48.885 5.188l3.305-3.754c-8.874-7.814-18.55-11.454-28-12.045zm37.498 26.54c-18.034 0-30.342 12.518-35.594 21.244l4.285 2.578c4.548-7.558 15.626-18.822 31.31-18.822 8.328 0 16.405 4.802 22.47 12.598s9.994 18.497 9.994 29.693c0 10.81-4.315 20.85-10.33 28.127s-13.713 11.61-19.865 11.61H55.385c-7.562 0-14.4-4.7-19.408-11.006s-7.953-14.21-7.953-19.096c0-14.24 4.86-21.965 13.734-31.98l-3.742-3.316c-9.155 10.33-14.992 19.855-14.992 35.297 0 6.712 3.405 15.11 9.037 22.205s13.723 12.896 23.324 12.896h88.635c8.368 0 17.017-5.318 23.72-13.426s11.477-19.183 11.477-31.312c0-12.357-4.27-24.052-11.047-32.764s-16.18-14.527-26.416-14.527z" dominant-baseline="auto" fill="#fff"/></svg>