<?xml version="1.0" encoding="UTF-8" standalone="no"?>
<!-- Created with Inkscape (http://www.inkscape.org/) -->

<svg
   xmlns:dc="http://purl.org/dc/elements/1.1/"
   xmlns:cc="http://creativecommons.org/ns#"
   xmlns:rdf="http://www.w3.org/1999/02/22-rdf-syntax-ns#"
   xmlns:svg="http://www.w3.org/2000/svg"
   xmlns="http://www.w3.org/2000/svg"
   xmlns:sodipodi="http://sodipodi.sourceforge.net/DTD/sodipodi-0.dtd"
   xmlns:inkscape="http://www.inkscape.org/namespaces/inkscape"
   width="21.175133mm"
   height="21.175133mm"
   viewBox="0 0 21.175133 21.175133"
   version="1.1"
   id="svg8"
   inkscape:version="0.92.3 (2405546, 2018-03-11)"
   sodipodi:docname="CloudServices.svg">
  <defs
     id="defs2">
    <style
       id="style38">.cls-1,.cls-2{fill:#8fc440;}.cls-2,.cls-3,.cls-4{stroke:#fff;stroke-miterlimit:10;}.cls-2{stroke-width:2.72px;}.cls-3{fill:#fff;stroke-width:1.99px;}.cls-4{fill:#7cbb42;stroke-width:2.99px;}</style>
  </defs>
  <sodipodi:namedview
     id="base"
     pagecolor="#ffffff"
     bordercolor="#666666"
     borderopacity="1.0"
     inkscape:pageopacity="0.0"
     inkscape:pageshadow="2"
     inkscape:zoom="7.9195959"
     inkscape:cx="53.213052"
     inkscape:cy="28.470745"
     inkscape:document-units="mm"
     inkscape:current-layer="layer1"
     showgrid="false"
     fit-margin-top="0"
     fit-margin-left="0"
     fit-margin-right="0"
     fit-margin-bottom="0"
     inkscape:window-width="1920"
     inkscape:window-height="1017"
     inkscape:window-x="-8"
     inkscape:window-y="-8"
     inkscape:window-maximized="1" />
  <metadata
     id="metadata5">
    <rdf:RDF>
      <cc:Work
         rdf:about="">
        <dc:format>image/svg+xml</dc:format>
        <dc:type
           rdf:resource="http://purl.org/dc/dcmitype/StillImage" />
        <dc:title></dc:title>
      </cc:Work>
    </rdf:RDF>
  </metadata>
  <g
     inkscape:label="Layer 1"
     inkscape:groupmode="layer"
     id="layer1"
     transform="translate(-208.4263,-159.86072)">
    <circle
       style="color-interpolation-filters:sRGB;fill:#8fc93c;fill-rule:evenodd;stroke-width:0.2823351;stroke-linecap:square;stroke-miterlimit:3;stroke:none;fill-opacity:1"
       r="10.587566"
       cx="219.01387"
       cy="170.44829"
       id="circle212" />
    <path
       id="path3966-9"
       style="color:#000000;font-style:normal;font-variant:normal;font-weight:normal;font-stretch:normal;font-size:medium;line-height:normal;font-family:sans-serif;font-variant-ligatures:normal;font-variant-position:normal;font-variant-caps:normal;font-variant-numeric:normal;font-variant-alternates:normal;font-feature-settings:normal;text-indent:0;text-align:start;text-decoration:none;text-decoration-line:none;text-decoration-style:solid;text-decoration-color:#000000;letter-spacing:normal;word-spacing:normal;text-transform:none;writing-mode:lr-tb;direction:ltr;text-orientation:mixed;dominant-baseline:auto;baseline-shift:baseline;text-anchor:start;white-space:normal;shape-padding:0;clip-rule:nonzero;display:inline;overflow:visible;visibility:visible;opacity:1;isolation:auto;mix-blend-mode:normal;color-interpolation:sRGB;color-interpolation-filters:linearRGB;solid-color:#000000;solid-opacity:1;vector-effect:none;fill:#ffffff;fill-opacity:1;fill-rule:nonzero;stroke:none;stroke-width:0.70172566;stroke-linecap:round;stroke-linejoin:miter;stroke-miterlimit:4;stroke-dasharray:none;stroke-dashoffset:17.00787544;stroke-opacity:1;paint-order:normal;color-rendering:auto;image-rendering:auto;shape-rendering:auto;text-rendering:auto;enable-background:accumulate"
       d="m 214.18538,165.4428 c -0.58788,0 -1.07179,0.48389 -1.07179,1.07177 0,0.58789 0.48391,1.07179 1.07179,1.07179 0.58787,0 1.07177,-0.4839 1.07177,-1.07179 0,-0.58788 -0.4839,-1.07177 -1.07177,-1.07177 z m 0,0.70172 c 0.20862,0 0.37004,0.16141 0.37004,0.37005 0,0.20864 -0.16142,0.37005 -0.37004,0.37005 -0.20864,0 -0.37007,-0.16141 -0.37007,-0.37005 0,-0.20864 0.16143,-0.37005 0.37007,-0.37005 z m 0.44501,-2.36411 -0.90808,0.002 a 0.11587576,0.11587576 0 0 0 -0.11372,0.0936 l -0.14549,0.76594 c -0.21171,0.0821 -0.35988,0.15982 -0.52345,0.29265 l -0.69235,-0.26088 a 0.11587576,0.11587576 0 0 0 -0.14047,0.0468 l -0.47997,0.78601 a 0.11587576,0.11587576 0 0 0 0.0251,0.14883 l 0.55689,0.46994 c -0.0322,0.22297 -0.0345,0.46426 0.005,0.70238 l -0.49835,0.44151 a 0.11587576,0.11587576 0 0 0 -0.0251,0.14047 l 0.43817,0.82613 a 0.11587576,0.11587576 0 0 0 0.1388,0.0553 l 0.66726,-0.22075 c 0.23488,0.17571 0.43128,0.28766 0.61542,0.3746 l 0.1154,0.69236 a 0.11587576,0.11587576 0 0 0 0.11205,0.097 l 0.9315,0.0151 a 0.11587576,0.11587576 0 0 0 0.11706,-0.097 l 0.10869,-0.69738 c 0.20264,-0.1043 0.39081,-0.22007 0.56024,-0.35119 l 0.59703,0.24584 a 0.11587576,0.11587576 0 0 0 0.14382,-0.0502 l 0.48331,-0.85791 a 0.11587576,0.11587576 0 0 0 -0.0251,-0.1455 l -0.48499,-0.41474 c 0.0314,-0.2276 0.0236,-0.42961 -0.0134,-0.65388 l 0.53014,-0.51843 a 0.11587576,0.11587576 0 0 0 0.0167,-0.14383 l -0.47661,-0.77763 a 0.11587576,0.11587576 0 0 0 -0.13546,-0.0502 l -0.63383,0.21908 c -0.18008,-0.14049 -0.38052,-0.2563 -0.60538,-0.33783 l -0.14717,-0.74585 a 0.11587576,0.11587576 0 0 0 -0.11372,-0.092 z m -0.0953,0.23078 0.14048,0.70239 a 0.11587576,0.11587576 0 0 0 0.0786,0.087 c 0.24786,0.0782 0.46074,0.20842 0.65891,0.37127 a 0.11587576,0.11587576 0 0 0 0.11204,0.02 l 0.59201,-0.20402 0.37963,0.61876 -0.49836,0.48833 a 0.11587576,0.11587576 0 0 0 -0.0335,0.10369 c 0.0492,0.26986 0.0642,0.45775 0.0185,0.71743 a 0.11587576,0.11587576 0 0 0 0.0385,0.1087 l 0.44819,0.38465 -0.38464,0.68732 -0.55689,-0.2291 a 0.11587576,0.11587576 0 0 0 -0.11707,0.0185 c -0.18207,0.14861 -0.39672,0.27831 -0.63382,0.39635 a 0.11587576,0.11587576 0 0 0 -0.0635,0.087 l -0.10202,0.64719 -0.73416,-0.0134 -0.10702,-0.64719 a 0.11587576,0.11587576 0 0 0 -0.0669,-0.087 c -0.20847,-0.0956 -0.41124,-0.20267 -0.68566,-0.41641 a 0.11587576,0.11587576 0 0 0 -0.10703,-0.0185 l -0.62379,0.20571 -0.34951,-0.65891 0.46658,-0.41307 a 0.11587576,0.11587576 0 0 0 0.0351,-0.11037 c -0.0529,-0.24906 -0.0431,-0.52478 -0.002,-0.76761 a 0.11587576,0.11587576 0 0 0 -0.0402,-0.10871 l -0.5201,-0.43815 0.37628,-0.61877 0.65221,0.24417 a 0.11587576,0.11587576 0 0 0 0.11707,-0.0217 c 0.19949,-0.17615 0.29545,-0.21276 0.58531,-0.32276 a 0.11587576,0.11587576 0 0 0 0.0735,-0.087 l 0.13545,-0.72413 z m -0.65054,5.52711 c -0.15456,0 -0.2949,0.0564 -0.38129,0.15886 -0.0864,0.10253 -0.11707,0.23391 -0.11707,0.36625 v 3.4718 c 0,0.24326 0.0605,0.46579 0.19734,0.63381 0.13683,0.16802 0.35253,0.26757 0.60539,0.26757 h 2.50517 v 0.44318 c 0,0.1283 0.0689,0.26334 0.19901,0.31942 0.1301,0.0561 0.28756,0.0247 0.43982,-0.0753 l 1.63556,-1.09706 c 0.13685,-0.0909 0.21709,-0.23599 0.20904,-0.37962 -0.007,-0.14363 -0.0944,-0.2725 -0.21908,-0.35621 l -1.65729,-1.1188 -0.004,-0.002 c -0.12025,-0.0735 -0.26067,-0.0862 -0.3813,-0.0402 -0.12061,0.0461 -0.22241,0.17077 -0.22241,0.31942 v 0.43481 h -1.77102 v -2.83464 c 0,-0.1358 -0.041,-0.26919 -0.13546,-0.36624 -0.0944,-0.097 -0.23424,-0.14549 -0.38966,-0.14549 z m 0,0.29934 h 0.51341 c 0.0962,0 0.14377,0.0243 0.17392,0.0552 0.0302,0.031 0.0519,0.079 0.0519,0.15719 v 3.13398 h 0.14885 2.22088 v -0.73416 c 0,-0.0293 0.004,-0.0301 0.0301,-0.0402 0.0264,-0.0101 0.0741,-0.01 0.11707,0.0167 l 1.65061,1.11379 c 0.0614,0.0413 0.085,0.0895 0.087,0.12376 0.002,0.0343 -0.007,0.0687 -0.0753,0.11371 l -1.63555,1.0954 c -0.0982,0.0637 -0.1453,0.0545 -0.15554,0.0502 -0.0104,-0.005 -0.0185,-0.0116 -0.0185,-0.0435 v -0.74252 h -2.80452 c -0.17972,0 -0.29197,-0.0578 -0.37294,-0.1572 -0.081,-0.0994 -0.13044,-0.25179 -0.13044,-0.44484 v -3.47179 c 0,-0.085 0.0206,-0.1412 0.0468,-0.17225 0.0262,-0.0311 0.0624,-0.0535 0.15219,-0.0535 z m 9.08586,2.61388 c -0.71733,0 -1.30778,0.59044 -1.30778,1.30777 0,0.71734 0.59045,1.30778 1.30778,1.30778 0.71732,0 1.30777,-0.59044 1.30777,-1.30778 0,-0.71733 -0.59045,-1.30777 -1.30777,-1.30777 z m 0,0.85624 c 0.25457,0 0.45153,0.19695 0.45153,0.45153 0,0.25459 -0.19696,0.45154 -0.45153,0.45154 -0.25458,0 -0.45154,-0.19695 -0.45154,-0.45154 0,-0.25458 0.19696,-0.45153 0.45154,-0.45153 z m 0.86627,-2.91155 a 0.14985722,0.14985722 0 0 0 -0.1087,0.0602 l -0.52177,0.69236 c -0.29472,-0.0205 -0.59292,-0.002 -0.89304,0.0735 l -0.69737,-0.69235 a 0.14985722,0.14985722 0 0 0 -0.18897,-0.0167 l -0.97163,0.65724 a 0.14985722,0.14985722 0 0 0 -0.0535,0.18395 l 0.39802,0.92648 c -0.16762,0.24088 -0.27179,0.43053 -0.35119,0.69068 l -0.9315,0.22242 a 0.14985722,0.14985722 0 0 0 -0.11539,0.15218 l 0.0535,1.18905 a 0.14985722,0.14985722 0 0 0 0.13379,0.14215 l 0.93819,0.102 c 0.12679,0.26187 0.29583,0.52304 0.51006,0.74922 l -0.21406,0.83283 a 0.14985722,0.14985722 0 0 0 0.0735,0.1689 l 1.06696,0.56861 a 0.14985722,0.14985722 0 0 0 0.18897,-0.0418 l 0.55856,-0.71744 c 0.37775,0.0185 0.66849,-0.005 0.92816,-0.0451 l 0.62546,0.66058 a 0.14985722,0.14985722 0 0 0 0.19064,0.0217 l 1.0101,-0.65556 a 0.14985722,0.14985722 0 0 0 0.0535,-0.18898 l -0.38631,-0.82446 c 0.14202,-0.25826 0.26074,-0.51797 0.34784,-0.78099 l 0.8161,-0.16891 a 0.14985722,0.14985722 0 0 0 0.12042,-0.15887 l -0.10369,-1.26931 a 0.14985722,0.14985722 0 0 0 -0.13211,-0.13713 l -0.81945,-0.0953 c -0.13064,-0.26614 -0.28544,-0.47742 -0.48665,-0.69068 l 0.19232,-0.93986 a 0.14985722,0.14985722 0 0 0 -0.0836,-0.16723 l -1.07366,-0.48999 a 0.14985722,0.14985722 0 0 0 -0.0735,-0.0134 z m 0.0585,0.33614 0.85456,0.39133 -0.18228,0.883 a 0.14985722,0.14985722 0 0 0 0.0402,0.13546 c 0.24779,0.25376 0.39803,0.44434 0.53683,0.75591 a 0.14985722,0.14985722 0 0 0 0.11873,0.0886 l 0.76092,0.0886 0.0836,1.0151 -0.76259,0.15721 a 0.14985722,0.14985722 0 0 0 -0.11371,0.10368 c -0.0879,0.29096 -0.22405,0.58673 -0.393,0.88467 a 0.14985722,0.14985722 0 0 0 -0.005,0.13714 l 0.35955,0.76761 -0.79604,0.51674 -0.58531,-0.61709 a 0.14985722,0.14985722 0 0 0 -0.13212,-0.0435 c -0.29267,0.0482 -0.58806,0.0793 -1.03686,0.0484 a 0.14985722,0.14985722 0 0 0 -0.12877,0.0569 l -0.5201,0.67228 -0.85122,-0.4532 0.20069,-0.78099 a 0.14985722,0.14985722 0 0 0 -0.0402,-0.14549 c -0.23678,-0.22891 -0.42738,-0.52917 -0.55856,-0.81946 a 0.14985722,0.14985722 0 0 0 -0.12042,-0.0886 l -0.87463,-0.0936 -0.0435,-0.93652 0.87464,-0.20904 a 0.14985722,0.14985722 0 0 0 0.11038,-0.10702 c 0.0866,-0.3331 0.16331,-0.4418 0.39467,-0.76929 a 0.14985722,0.14985722 0 0 0 0.0167,-0.1455 l -0.37796,-0.8763 0.76761,-0.5201 0.65723,0.65222 a 0.14985722,0.14985722 0 0 0 0.14885,0.0368 c 0.32223,-0.0954 0.64475,-0.11004 0.97497,-0.0786 a 0.14985722,0.14985722 0 0 0 0.13379,-0.0602 z"
       inkscape:connector-curvature="0" />
  </g>
</svg>
