<?xml version="1.0" encoding="UTF-8" standalone="no"?>
<svg
   xmlns:dc="http://purl.org/dc/elements/1.1/"
   xmlns:cc="http://creativecommons.org/ns#"
   xmlns:rdf="http://www.w3.org/1999/02/22-rdf-syntax-ns#"
   xmlns:svg="http://www.w3.org/2000/svg"
   xmlns="http://www.w3.org/2000/svg"
   xmlns:sodipodi="http://sodipodi.sourceforge.net/DTD/sodipodi-0.dtd"
   xmlns:inkscape="http://www.inkscape.org/namespaces/inkscape"
   width="742.409"
   height="742.409"
   viewBox="0 0 196.429 196.429"
   version="1.1"
   id="svg1487"
   sodipodi:docname="EnterpriseTag.svg"
   inkscape:version="0.92.3 (2405546, 2018-03-11)">
  <metadata
     id="metadata1493">
    <rdf:RDF>
      <cc:Work
         rdf:about="">
        <dc:format>image/svg+xml</dc:format>
        <dc:type
           rdf:resource="http://purl.org/dc/dcmitype/StillImage" />
      </cc:Work>
    </rdf:RDF>
  </metadata>
  <defs
     id="defs1491" />
  <sodipodi:namedview
     pagecolor="#ffffff"
     bordercolor="#666666"
     borderopacity="1"
     objecttolerance="10"
     gridtolerance="10"
     guidetolerance="10"
     inkscape:pageopacity="0"
     inkscape:pageshadow="2"
     inkscape:window-width="1920"
     inkscape:window-height="1017"
     id="namedview1489"
     showgrid="false"
     inkscape:zoom="0.80958174"
     inkscape:cx="236.09773"
     inkscape:cy="354.21285"
     inkscape:window-x="-8"
     inkscape:window-y="-8"
     inkscape:window-maximized="1"
     inkscape:current-layer="svg1487" />
  <rect
     width="196.429"
     height="196.429"
     rx="8.367"
     fill="#4c7bb4"
     paint-order="normal"
     id="rect1483" />
  <path
     style="opacity:1;vector-effect:none;fill:#ffffff;fill-opacity:1;stroke:none;stroke-width:3.77952766;stroke-linecap:round;stroke-linejoin:round;stroke-miterlimit:4;stroke-dasharray:none;stroke-dashoffset:17.00787544;stroke-opacity:0.64313725;paint-order:normal"
     d="M 252.98828 95.123047 L 252.98828 225.46484 L 47.435547 225.46484 L 47.435547 676.29297 L 695.82422 676.29297 L 695.82422 332.40625 L 524.62305 332.40625 L 524.62305 95.123047 L 252.98828 95.123047 z M 272.99023 115.12109 L 504.61914 115.12109 L 504.61914 352.4043 L 675.82031 352.4043 L 675.82031 656.29102 L 435.88672 656.29102 L 435.88672 464.66016 L 352.86328 464.66016 L 352.86328 656.29102 L 272.99023 656.29102 L 272.99023 115.12109 z M 296.91602 159.08398 L 296.91602 249.20117 L 335.85742 249.20117 L 335.85742 159.08398 L 296.91602 159.08398 z M 373.30859 159.08398 L 373.30859 249.20117 L 412.25 249.20117 L 412.25 159.08398 L 373.30859 159.08398 z M 446.45508 159.08398 L 446.45508 249.20117 L 485.39844 249.20117 L 485.39844 159.08398 L 446.45508 159.08398 z M 67.433594 245.46289 L 252.98828 245.46289 L 252.98828 656.29102 L 183.41797 656.29102 L 183.41797 548.29102 L 137.12695 548.29102 L 137.12695 656.29102 L 67.433594 656.29102 L 67.433594 245.46289 z M 99.339844 277.61328 L 99.339844 367.73047 L 138.2832 367.73047 L 138.2832 277.61328 L 99.339844 277.61328 z M 182.50781 277.61328 L 182.50781 367.73047 L 221.44922 367.73047 L 221.44922 277.61328 L 182.50781 277.61328 z M 296.91602 298.7207 L 296.91602 388.83789 L 335.85742 388.83789 L 335.85742 298.7207 L 296.91602 298.7207 z M 373.30859 298.7207 L 373.30859 388.83789 L 412.25 388.83789 L 412.25 298.7207 L 373.30859 298.7207 z M 446.45508 298.7207 L 446.45508 388.83789 L 485.39844 388.83789 L 485.39844 298.7207 L 446.45508 298.7207 z M 516.76953 395.07227 L 516.76953 485.1875 L 555.71289 485.1875 L 555.71289 395.07227 L 516.76953 395.07227 z M 599.91602 395.07227 L 599.91602 485.1875 L 638.85938 485.1875 L 638.85938 395.07227 L 599.91602 395.07227 z M 99.339844 420.91211 L 99.339844 511.0293 L 138.2832 511.0293 L 138.2832 420.91211 L 99.339844 420.91211 z M 182.50781 420.91211 L 182.50781 511.0293 L 221.44922 511.0293 L 221.44922 420.91211 L 182.50781 420.91211 z M 516.76953 538.38281 L 516.76953 628.5 L 555.71289 628.5 L 555.71289 538.38281 L 516.76953 538.38281 z M 599.91602 538.38281 L 599.91602 628.5 L 638.85938 628.5 L 638.85938 538.38281 L 599.91602 538.38281 z "
     transform="scale(0.26458327)"
     id="rect1512" />
</svg>
