<svg xmlns="http://www.w3.org/2000/svg" xmlns:xlink="http://www.w3.org/1999/xlink" width="100.032" height="100.032" viewBox="0 0 75 75" fill="none" fill-rule="evenodd" overflow="visible" stroke-linecap="square" stroke-miterlimit="3" color-interpolation-filters="sRGB"><defs><path d="M1.75-2.76L0-.76l-1.75-2" id="A"/></defs><g fill="#8dc53f"><marker overflow="visible" markerUnits="strokeWidth"><use xlink:href="#A" fill="none" stroke="#8dc53f" stroke-miterlimit="10" transform="rotate(315)" stroke-linecap="round"/></marker><circle r="37.5" cx="37.5" cy="37.5" color-interpolation-filters="sRGB"/></g><path d="M14.587 63.472v-3.76h6.018v-2.107h-6.018V40.808h22.1v9.76l-4.053-4.218c-.748-.676-1.432-.795-2.143-.24-.602.523-.46 1.77.055 2.34l7.635 7.11 7.47-7.11c.775-.823.752-1.698.194-2.34-.57-.526-1.498-.497-2.327.24l-3.82 4.218v-9.76H61.29v16.796h-6.347v2.107h6.347v3.76h-9.643c0-1.004-.595-1.56-1.36-1.56-.736 0-1.36.692-1.36 1.56h-1.57v-3.76h5.3v-2.107H39.41v2.107h5.13v3.76h-8.75c0-.978-.633-1.56-1.47-1.56-.735 0-1.47.728-1.47 1.56H31.35v-3.76h5.49v-2.107h-13.58v2.107h5.393v3.76h-8.9c0-1.06-.5-1.56-1.285-1.56-.82 0-1.285.65-1.285 1.56zm12.627-24.318c-3.042 0-5.837-2.692-7.52-5.208-1.633-2.34-2.023-6.89-.666-11.664 1.234-4.315 4.614-6.11 10.064-6.076-.15-3.4 2.042-7.32 5.23-9.166 3.083-1.947 6.755-2.94 11.94 1.254 3.024 2.66 3.532 5.07 4.183 9.043 5.245 2.025 5.83 8.397 5.268 12.91-.68 4.954-4.286 8.856-8.822 8.856z" fill="#fff"/></svg>