<svg xmlns="http://www.w3.org/2000/svg" width="380.595" height="283.51" viewBox="0 0 100.699 75.012"><path d="M22.422 75.012c-8.097 0-15.335-6.34-19.4-13.457-4.556-8.02-4.712-20.07 4.812-29.915 4.48-4.72 12.68-8.2 21.5-6.536C30.67 16.407 34.557 9.027 44.74 3.177 55.27-2.82 67.036.29 75.924 7.382c6.052 5.088 9.243 12.114 9.402 19.182 7.158 2.657 12.323 8.288 14.08 15.214 3.058 11.045.325 18.826-4.347 24.427-3.438 4.466-9.927 8.808-16.63 8.808z" fill="#3592fc"/><path d="M55.89 59.46V36.144h6.898l6.567 16.264 6-16.264h7.276V59.46h-4.937V41.022L71.2 59.46H66.71l-6.45-18.485V59.46zm-15.04-13.6h3.302c1.65 0 2.323-1.97 2.323-3.238 0-1.135-.917-2.57-2.398-2.57h-3.227zm0 9.87h4.286c1.397 0 2.396-1.518 2.396-3.108 0-1.516-.874-2.932-2.253-2.932h-4.43zm-4.944 3.73V36.144h8.416c3.4 0 6.807 1.66 6.807 6.145 0 2.348-1.572 4.59-3.508 4.59 3.287.88 4.914 2.988 4.914 6.237 0 3.622-3.635 6.343-7.276 6.343zm-9.625 0V36.144h5.082V59.46z" fill="#fff"/></svg>