<svg xmlns="http://www.w3.org/2000/svg" width="100.032" height="100.032" viewBox="0 0 75 75" fill="none" fill-rule="evenodd" overflow="visible" stroke-linecap="square" stroke-miterlimit="3" color-interpolation-filters="sRGB"><circle r="37.5" cx="37.5" cy="37.5" color-interpolation-filters="sRGB" fill="#8dc53f"/><path d="M40.746 41.152h8.324v-2.764h-8.324zm0 3.47h8.324v-2.764h-8.324zm-6.658-3.048a1.912 1.912 0 1 1-3.824 0 1.912 1.912 0 0 1 3.824 0zm-10.408 4.49v-9.09h27.796v9.09zm17.066 5.026h8.324v-2.764h-8.324zm0 3.47h8.324v-2.764h-8.324zm-6.658-3.048a1.912 1.912 0 1 1-3.824 0 1.912 1.912 0 0 1 3.824 0zm-10.408 4.49v-9.09h27.796v9.09zm28.017 2.365l2.17-1.812V35.9c0-.427-.387-.814-.8-.814H21.542v21.75l1.917 1.522zm3.527-28.704h-13.57v-13.15zM18.522 60.028V14.972H39.1v17.5h17.388v27.566z" fill="#fff" paint-order="normal"/></svg>