<svg xmlns="http://www.w3.org/2000/svg" width="100.032" height="100.032" viewBox="0 0 75 75" fill="none" fill-rule="evenodd" overflow="visible" stroke-linecap="square" stroke-miterlimit="3" color-interpolation-filters="sRGB"><style><![CDATA[.B{color-interpolation-filters:sRGB}]]></style><circle r="37.5" cx="37.5" cy="37.5" fill="#90c34b" fill-opacity=".975" class="B"/><path d="M27.432 41.263a2.032 2.032 0 1 1-4.063 0 2.032 2.032 0 1 1 4.063 0zm12.485.412V42.8h10.248v-1.125zm0-2.97v1.125h10.248v-1.125zM20.493 35.48L18.7 38.182V44.3l2.336 2.564H52.88l2.328-1.93V38.23l-3.1-2.75zm1.006 1.875h29.898l1.938 1.72v4.97l-1.13.936H21.864l-1.29-1.416V38.75zm5.933 17.078a2.032 2.032 0 1 1-4.063 0 2.032 2.032 0 1 1 4.063 0zm12.485.412v1.125h10.248v-1.125zm0-2.97v1.125h10.248v-1.125zm-19.424-3.225L18.7 51.352v6.107l2.336 2.564H52.88l2.328-1.93v-6.695l-3.1-2.75zm1.006 1.875h29.898l1.938 1.72v4.97l-1.13.936H21.864l-1.29-1.416v-4.814zM14.84 10.73v53.553h45.73V31.29L40.26 10.73zm2.25 2.25h21.574v19.896h19.654v29.156H17.1zm23.824 1.615l15.838 16.03H40.914z" fill="#fff" paint-order="normal" class="B"/></svg>