<svg xmlns="http://www.w3.org/2000/svg" width="100.032" height="100.032" viewBox="0 0 75 75" fill="none" fill-rule="evenodd" overflow="visible" stroke-linecap="square" stroke-miterlimit="3" color-interpolation-filters="sRGB"><circle r="37.5" cx="37.5" cy="37.5" color-interpolation-filters="sRGB" fill="#8dc53f"/><path d="M31.333 53.37a3.808 3.808 0 1 1-7.615 0 3.808 3.808 0 0 1 7.615 0zM23.98 42.244c-4.15 0-6.912-2.776-8.78-5.672-2.346-3.67-3.164-9.187.39-14.22 3.05-4.687 6.366-6.387 11.928-5.867.186-4.382 3.092-9.45 8.625-11.112 5.014-1.492 10.488-.903 14.686 3.458 3.624 3.975 3.618 6.17 3.963 9.48 5.222 2.738 7.18 5.61 6.877 11.384-.4 7.55-4.358 12.5-10.762 12.5l-11.112.078-.078-11.733 5.206 5.634 2.992-3.07-9.52-10.723L28.06 33.153l3.186 2.914 4.623-5.245-.078 11.5zm-10.636 1.512H61.82v18.147H13.343z" fill="#fff" paint-order="normal"/></svg>