<svg xmlns="http://www.w3.org/2000/svg" width="93.312" height="91.968" viewBox="0 0 69.971 68.995" fill="#00459d" fill-rule="nonzero" overflow="visible" stroke-linecap="square" stroke-miterlimit="3" color-interpolation-filters="sRGB"><path d="M37.565 61.332v4.438c.746-.222 1.4-.632 1.985-1.222s1.098-1.36 1.557-2.3l.402-.916zm-6.658 0h3.944v4.438c-.746-.222-1.403-.632-1.987-1.222s-1.096-1.36-1.555-2.3l-.402-.916zm6.658-7.272v4.554H42.3a24.71 24.71 0 0 0 .522-4.554zm-7.972 0h5.258v4.554h-4.736a24.71 24.71 0 0 1-.522-4.554zm7.972-7.27v4.554h5.183c-.122-1.583-.375-3.135-.755-4.554zm-7.14 0h4.428v4.554H29.67c.122-1.583.375-3.135.755-4.554zm7.14-6.677v3.965h3.465l-.186-.414c-.455-.917-.954-1.676-1.5-2.27s-1.137-1.025-1.78-1.28zm-2.715 0v3.965h-3.465l.186-.414c.455-.917.954-1.676 1.5-2.27s1.137-1.025 1.78-1.28z" dominant-baseline="auto" paint-order="normal"/><path d="M37.565 61.332h3.944l-.402.916c-.46.94-.972 1.7-1.557 2.3s-1.24 1-1.985 1.222zm-6.658 0l.402.916c.46.94.97 1.7 1.555 2.3s1.242 1 1.987 1.222v-4.438zm6.658-7.272h5.258a24.71 24.71 0 0 1-.522 4.554h-4.736zm-7.972 0a24.71 24.71 0 0 0 .522 4.554h4.736V54.06zm7.972-7.27h4.428c.38 1.42.633 2.972.755 4.554h-5.183zm-7.14 0c-.38 1.42-.633 2.972-.755 4.554h5.183V46.8zm7.14-6.677c.642.254 1.234.684 1.78 1.28s1.045 1.354 1.5 2.27l.186.414h-3.465zm-2.715 0c-.642.254-1.234.684-1.78 1.28s-1.045 1.354-1.5 2.27l-.186.414h3.465zm.465-36.117c2.76.088 5.546.982 7.94 2.875l.016.01.016.014c4.554 3.442 7.314 5.883 7.448 14.212l.03 1.812 1.808.137C58.68 23.51 63 26.228 65.6 34.46c.688 2.38.42 5.48-.563 8.315-.98 2.825-2.68 5.34-4.334 6.628-4.77 3.27-6.1 3.497-8.556 3.493-.02-8.84-7.218-16.028-16.063-16.028-7.767 0-14.263 5.543-15.744 12.88l-4.454-.082c-2.684 0-5.624-1.863-7.92-4.644-2.284-2.765-3.802-6.355-3.98-8.872.016-4.828 1.216-7.904 2.865-10.113s3.83-3.607 6.005-4.744c2.993-1.472 9.06-1.505 11.85.073 4.027 2.533 5.854 4.867 7.707 8.02l3.422-2c-2.025-3.445-4.486-6.537-9.06-9.403l-.033-.022-.035-.018c-2.1-1.208-4.66-1.76-7.232-1.845 1.185-3.975 3.643-6.588 6.213-8.862 2.574-2.13 6.08-3.344 9.63-3.23zM35.53.013a18.23 18.23 0 0 0-1.51.006c-4.018.185-7.9 1.685-10.885 4.16l-.024.022-.022.018c-2.965 2.62-6.48 6.377-7.76 12.176-1.513.286-2.967.705-4.248 1.34l-.02.008-.018.01c-2.396 1.25-5.194 2.983-7.376 5.907S0 30.662 0 36.23v.065l.004.065c.244 3.74 2.118 7.826 4.896 11.2s6.585 6.083 10.982 6.083l4.177.078c.412 8.493 7.43 15.283 16.022 15.283 7.5 0 13.798-5.174 15.56-12.135 3.113-.04 5.846-.426 11.376-4.224l.043-.033.045-.033c2.54-1.958 4.487-5.052 5.683-8.495s1.63-7.265.622-10.735l-.004-.022-.006-.02c-2.714-8.628-8.304-12.802-14.902-13.85-.605-8.125-4.326-12.32-8.8-15.7C42.623 1.312 39.06.143 35.53.012zM30.152 40.9c1.808-.894 3.772-1.504 5.93-1.504 2.44 0 4.603.816 6.577 1.94.23.37.485.712.682 1.108a17.97 17.97 0 0 1 .694 1.622h2.1c.722.82 1.32 1.735 1.828 2.714H44.86a28.04 28.04 0 0 1 .679 4.554h3.912c.062.526.16 1.042.16 1.585 0 .387-.08.75-.112 1.13h-3.893a27.6 27.6 0 0 1-.451 4.554h3.116c-.468 1.002-1.14 1.866-1.828 2.716H44.46a16.74 16.74 0 0 1-.845 2.11c-.13.267-.316.5-.463.745-2.086 1.313-4.413 2.27-7.066 2.27-2.37 0-4.48-.767-6.415-1.832-.25-.4-.527-.76-.735-1.183-.325-.665-.602-1.374-.845-2.1h-2.363c-.688-.85-1.358-1.714-1.826-2.716h3.5c-.277-1.468-.42-3.004-.45-4.554h-4.27c-.032-.38-.112-.743-.112-1.13 0-.543.097-1.06.16-1.585h4.287a27.89 27.89 0 0 1 .682-4.554h-3.48c.507-.98 1.105-1.894 1.826-2.714h2.48a17.85 17.85 0 0 1 .694-1.622c.274-.552.612-1.05.95-1.545z" dominant-baseline="auto" paint-order="normal"/></svg>