<svg xmlns="http://www.w3.org/2000/svg" width="100.032" height="100.032" viewBox="0 0 75 75" fill="none" fill-rule="evenodd" overflow="visible" stroke-linecap="square" stroke-miterlimit="3" color-interpolation-filters="sRGB"><circle r="37.5" cx="37.5" cy="37.5" color-interpolation-filters="sRGB" fill="#8dc53f"/><g fill="#fff" stroke="#016e14"><path d="M26.456 52.865c-2.254 0-7.078-1.615-9.14-5.054-3.204-5.636-1.915-10.98.538-14.086 3.096-3.8 6.62-4.768 10.502-3.584-.014-4.16 2.14-7.11 5.27-9.427 4.127-2.77 8.126-2.597 12.187-.86 3.16 1.572 6.45 5.48 6.237 10.538 3.397 1.372 5.4 2.887 6.63 6.38 2.506 7.96-.71 16.273-5.986 16.273z" stroke-width="1.5"/><g fill-rule="nonzero" stroke-width=".75"><path d="M54.056 21.74c-3.46 0-6.287 2.827-6.287 6.286 0 1.056.267 2.05.73 2.925l-4.65 3.624c-1.152-1.266-2.805-2.067-4.642-2.067-3.46 0-6.287 2.825-6.287 6.284s2.828 6.287 6.287 6.287a6.25 6.25 0 0 0 4.02-1.465l5 3.766a6.23 6.23 0 0 0-.469 2.367c0 3.46 2.828 6.286 6.287 6.286s6.286-2.827 6.286-6.286-2.827-6.287-6.286-6.287c-1.814 0-3.45.782-4.6 2.02l-4.786-3.596a6.23 6.23 0 0 0 .825-3.094 6.22 6.22 0 0 0-.444-2.3l4.84-3.775c1.11.988 2.568 1.595 4.163 1.595 3.46 0 6.286-2.828 6.286-6.287s-2.827-6.286-6.286-6.286z" dominant-baseline="auto" paint-order="normal"/><path d="M54.056 45.71a4.02 4.02 0 1 1 0 8.073 4.02 4.02 0 1 1 0-8.073zM39.208 34.758c2.243 0 4.037 1.79 4.037 4.034a4.02 4.02 0 1 1-8.074 0c0-2.243 1.794-4.034 4.037-4.034zM54.056 24a4.02 4.02 0 0 1 4.036 4.036 4.02 4.02 0 1 1-8.073 0 4.02 4.02 0 0 1 4.037-4.036z" dominant-baseline="auto" paint-order="normal"/></g></g></svg>