<svg xmlns="http://www.w3.org/2000/svg" contentScriptType="text/ecmascript" zoomAndPan="magnify" contentStyleType="text/css" width="100.032" preserveAspectRatio="xMidYMid meet" viewBox="0 0 75 75" height="100.032" overflow="visible" color-interpolation-filters="sRGB" fill="none" fill-rule="evenodd" stroke-linecap="square" stroke-miterlimit="3"><circle fill="#92c24b" r="37.5" cx="37.5" cy="37.5"/><path d="M32.064 11.572c-8.037 0-14.3 5.95-15.665 12.547C9.12 25.41 4.094 32.025 4.094 38.2c0 9.403 7.27 15.606 15.786 15.606h.003l19.036-.077c1.894.945 3.912 1.446 5.852 1.446 4.945 0 8.966-1.794 11.67-4.637.404-.425.776-.875 1.12-1.342l.36.234a5.232 5.232 0 0 0 4.782 7.344 5.232 5.232 0 1 0 0-10.463 5.232 5.232 0 0 0-3.705 1.544l-.418-.272c1.28-2.315 1.945-4.956 1.945-7.665a14.18 14.18 0 0 0-3.177-9.037l1.515-1.014a5.232 5.232 0 0 0 8.778-3.836 5.232 5.232 0 1 0-10.463 0 5.232 5.232 0 0 0 .539 2.307l-1.67 1.116c-2.247-2.125-5.053-3.345-7.87-3.968-.996-8.777-8.78-13.912-16.115-13.912zm0 3.54c6.02 0 12.516 4.165 12.758 11.785l.046 1.498 1.485.2a13.57 13.57 0 0 1 6.649 2.896l-5.325 3.563a5.232 5.232 0 0 0-8.956 3.671 5.232 5.232 0 0 0 8.714 3.896l7.154 4.643c-.223.288-.46.566-.712.83-2.025 2.13-4.995 3.536-9.105 3.536-4.143 0-9.86-3.75-10.842-10.335l-3.502.524c.505 3.38 1.96 6.206 3.91 8.384l-14.457.062c-6.892 0-12.244-4.4-12.244-12.067 0-4.607 4.812-10.77 11.34-10.77 5.853 0 9.636 3.748 11.038 7.38l3.305-1.277c-1.788-4.634-6.453-9.14-13.2-9.6 1.423-4.515 6.108-8.822 11.954-8.822zm22.34 17.736c1.575 1.8 2.58 4.125 2.58 7.068 0 2.06-.48 4.023-1.378 5.736L48.604 41.1a5.232 5.232 0 0 0 .58-2.385 5.232 5.232 0 0 0-.442-2.089z" dominant-baseline="auto" fill="#fff" fill-rule="nonzero"/></svg>