<svg xmlns="http://www.w3.org/2000/svg" width="100.032" height="100.032" viewBox="0 0 75 75" fill="none" fill-rule="evenodd" overflow="visible" stroke-linecap="square" stroke-miterlimit="3" color-interpolation-filters="sRGB"><circle r="37.5" cx="37.5" cy="37.5" color-interpolation-filters="sRGB" fill="#8dc53f"/><path d="M44.68 29.664c-1.548-1.26-2.798-3.258-3.137-5.2-.5-2.313.68-4.602 2.71-5.303 2.194-.795 4.143-.054 5.84.906 2.046 1.258 3.8 3.817 4.05 5.697.296 2.398-.283 4.623-2.748 5.606-1.916.613-4.242.31-6.715-1.697zm-13.7 32.9l-6.316-6.296 7.657-7.676 6.413 6.316-2.604 2.662-2.313-2.487-2.507 2.468 2.37 2.4zM23.62 54.64c-.96.797-1.927 1.175-2.922.297l-2.71-2.74c-.7-.763-.612-1.784.265-2.656L36.4 31.316c-1.29-2.493-3.032-5.022-2.053-10.672 1.142-4.995 4.723-8.924 11.277-9.11 5.637-.346 9.712 2.68 12.37 5.775 2.785 3.374 4.3 7.532 3.428 12.506-.713 4.244-4.67 8.55-10.33 9.195-2.9.276-6.908-.607-9.377-2.42z" fill="#fff"/></svg>