<svg xmlns="http://www.w3.org/2000/svg" width="100.032" height="100.032" viewBox="0 0 75 75" fill="none" fill-rule="evenodd" overflow="visible" stroke-linecap="square" stroke-miterlimit="3" color-interpolation-filters="sRGB"><circle r="37.5" cx="37.5" cy="37.5" color-interpolation-filters="sRGB" fill="#92c24b"/><path d="M37.707 11.55a5.89 5.89 0 0 0-1.701 11.528v3.35c-2.006.313-3.84 1.156-5.34 2.4l-6.117-5.473a5.89 5.89 0 0 0-5.212-8.625 5.89 5.89 0 1 0 0 11.78 5.89 5.89 0 0 0 2.824-.728l6.252 5.594c-.82 1.27-1.382 2.717-1.625 4.27h-5.273a5.89 5.89 0 0 0-11.525 1.701 5.89 5.89 0 0 0 11.528 1.701h5.27c.74 4.73 4.488 8.478 9.218 9.217v3.52a5.89 5.89 0 0 0 1.701 11.525 5.89 5.89 0 0 0 1.699-11.528v-3.516c1.974-.308 3.78-1.132 5.268-2.344l6.403 5.73a5.89 5.89 0 0 0 1.057 6.88 5.89 5.89 0 0 0 8.331 0 5.89 5.89 0 0 0-4.165-10.056 5.89 5.89 0 0 0-2.843.74l-6.504-5.818a10.99 10.99 0 0 0 1.673-4.349h5.115a5.89 5.89 0 0 0 11.525-1.701 5.89 5.89 0 0 0-11.528-1.701h-5.112a11.09 11.09 0 0 0-9.218-9.218v-3.352a5.89 5.89 0 0 0-1.699-11.525zm0 18.135c4.25 0 7.66 3.408 7.66 7.66s-3.4 7.663-7.66 7.663-7.66-3.41-7.66-7.663 3.4-7.66 7.66-7.66z" fill="#fff" fill-opacity=".975" paint-order="normal"/></svg>