<svg xmlns="http://www.w3.org/2000/svg" width="100.032" height="100.032" viewBox="0 0 75 75" fill="none" fill-rule="evenodd" overflow="visible" stroke-linecap="square" stroke-miterlimit="3" color-interpolation-filters="sRGB"><circle r="37.5" cx="37.5" cy="37.5" color-interpolation-filters="sRGB" fill="#92c24b"/><path d="M37.568 8.146c-16.193 0-29.355 13.164-29.355 29.357S21.375 66.86 37.568 66.86s29.357-13.162 29.357-29.355S53.76 8.146 37.568 8.146zm0 3.402c14.355 0 25.955 11.6 25.955 25.955S51.923 63.46 37.568 63.46s-25.955-11.6-25.955-25.955 11.6-25.955 25.955-25.955zm.116 7.04a4.288 4.288 0 0 0-1.238 8.392v2.438c-1.46.228-2.796.842-3.888 1.747l-4.453-3.984a4.288 4.288 0 0 0-3.794-6.279 4.288 4.288 0 0 0 0 8.576 4.288 4.288 0 0 0 2.056-.53l4.55 4.073a7.99 7.99 0 0 0-1.183 3.109h-3.84a4.288 4.288 0 0 0-8.39 1.238 4.288 4.288 0 0 0 8.392 1.238h3.837a8.08 8.08 0 0 0 6.711 6.71v2.563a4.288 4.288 0 0 0 1.238 8.39 4.288 4.288 0 0 0 1.237-8.392v-2.56a8.02 8.02 0 0 0 3.835-1.706l4.66 4.17a4.288 4.288 0 0 0 3.802 6.265 4.288 4.288 0 1 0 0-8.577 4.288 4.288 0 0 0-2.07.539l-4.735-4.236a8 8 0 0 0 1.218-3.166h3.724a4.288 4.288 0 0 0 8.39-1.238 4.288 4.288 0 0 0-8.392-1.238h-3.722c-.537-3.444-3.266-6.174-6.71-6.71v-2.44a4.288 4.288 0 0 0-1.237-8.39zm0 13.202c3.095 0 5.577 2.48 5.577 5.576a5.56 5.56 0 1 1-11.154 0c0-3.095 2.482-5.576 5.577-5.576z" dominant-baseline="auto" fill="#fff" fill-rule="nonzero" paint-order="normal"/></svg>