<svg xmlns="http://www.w3.org/2000/svg" width="98.208" height="88.896" viewBox="0 0 73.629 66.639" fill="none" fill-rule="evenodd" overflow="visible" stroke-linecap="square" stroke-miterlimit="3" color-interpolation-filters="sRGB"><path d="M9.38 0L1.267.06a1.276 1.276 0 1 0 .02 2.553l7.096-.055 6.672 28.38a1.276 1.276 0 0 0 .035.209c.01.047.032.073.043.12l2.527 10.75a1.276 1.276 0 0 0 .008.031c.58 2.208 1.286 4.222 2.762 5.746s3.677 2.367 6.662 2.367a1.276 1.276 0 0 0 .002 0l41.68-.033a1.276 1.276 0 1 0-.002-2.551l-41.68.033c-2.54 0-3.873-.602-4.83-1.6s-1.582-2.55-2.123-4.615l-.682-2.895c1.61 1.11 3.47 1.625 5.432 1.625a1.276 1.276 0 0 0 .002 0l38.37-.057c2.067 0 3.902-.288 5.365-1.375s2.334-2.876 2.713-5.295a1.276 1.276 0 0 0 .002-.018l2.277-15.965a1.276 1.276 0 0 0-1.264-1.455l-51.695.022a1.276 1.276 0 1 0 .002 2.551l50.225-.02-2.068 14.492c-.32 2.04-.913 3.047-1.713 3.64s-2.025.873-3.844.873a1.276 1.276 0 0 0-.002 0l-38.37.055c-1.835 0-3.246-.372-4.42-1.36-1.153-.97-2.154-2.674-2.852-5.535L10.632.984A1.276 1.276 0 0 0 9.38 0zm31.15.215a16.21 16.21 0 0 0-5.074.49 1.276 1.276 0 0 0-.045.014c-3.9 1.162-7.267 3.855-8.88 7.64-3.426-2.21-6.87-1.96-9.645-1.178a1.276 1.276 0 1 0 .693 2.455c2.893-.816 5.486-1.237 8.682 1.55a1.276 1.276 0 0 0 2.072-.637c.953-3.632 4.048-6.255 7.78-7.375 2.51-.644 5.754-.768 9.043.902 3.183 1.82 5.058 4.32 5.457 6.793a1.276 1.276 0 0 0 2.121.738c2.316-2.122 4.696-3.126 8.03-2.334 2.96 1.07 4.212 2.877 4.516 3.813a1.276 1.276 0 1 0 2.426-.789c-.61-1.874-2.488-4.16-6.135-5.455a1.276 1.276 0 0 0-.123-.037c-3.45-.846-6.417.037-8.896 1.76-1.02-2.655-3.152-5.012-6.148-6.72a1.276 1.276 0 0 0-.051-.027C44.372.804 42.39.335 40.53.215zM26.357 53.658c-3.57 0-6.5 2.92-6.5 6.5s2.92 6.5 6.5 6.5 6.5-2.92 6.5-6.5-2.92-6.5-6.5-6.5zm33.465 0c-3.57 0-6.5 2.92-6.5 6.5s2.92 6.5 6.5 6.5 6.5-2.92 6.5-6.5-2.92-6.5-6.5-6.5zm-33.465 2.55a3.92 3.92 0 1 1 0 7.879 3.92 3.92 0 1 1 0-7.879zm33.465 0a3.92 3.92 0 1 1 0 7.879 3.92 3.92 0 1 1 0-7.879z" dominant-baseline="auto" fill="#00459d" fill-rule="nonzero" paint-order="normal"/></svg>