<svg xmlns="http://www.w3.org/2000/svg" width="742.409" height="742.409" viewBox="0 0 196.429 196.429"><rect width="196.429" height="196.429" rx="8.367" fill="#4c7bb4" paint-order="normal"/><path d="M156.047 141.4H117.62c-5.327 0-9.512 4.185-9.512 9.512v14.84h57.833V151.29c-.38-5.327-4.566-9.512-9.892-9.893zm-77.237 0H40.38c-5.327 0-9.512 4.185-9.892 9.512v14.84h57.833v-14.458c.38-5.327-3.805-9.512-9.512-9.893zm43.375-86.75c0-13.317-11.034-23.97-24.35-23.97s-23.97 11.034-23.97 24.35A23.87 23.87 0 0 0 97.834 79c13.697 0 24.35-10.654 24.35-24.35 0 .38 0 .38 0 0zm-23.97 19.405c-10.653 0-19.404-8.75-19.404-19.405s8.75-19.404 19.404-19.404 19.404 8.75 19.404 19.404-8.75 19.405-19.404 19.405zm14.458 33.863a23.87 23.87 0 0 0 23.97 23.97 23.87 23.87 0 0 0 23.97-23.97 23.87 23.87 0 0 0-23.97-23.97 23.87 23.87 0 0 0-23.97 23.97zm23.97-19.405c10.653 0 19.404 8.75 19.404 19.405s-8.75 19.404-19.404 19.404-19.404-8.75-19.404-19.404c.38-10.653 8.75-19.405 19.404-19.405zm-77.237 43.375a23.87 23.87 0 0 0 23.97-23.97 23.87 23.87 0 0 0-23.97-23.97 23.87 23.87 0 0 0-23.97 23.97 23.87 23.87 0 0 0 23.97 23.97zm0-43.375c10.653 0 19.404 8.37 19.404 19.024s-8.37 19.405-19.024 19.405-19.404-8.37-19.404-19.024 8.75-19.405 19.024-19.405z" fill="#fff"/></svg>