<svg xmlns="http://www.w3.org/2000/svg" width="100.032" height="100.032" viewBox="0 0 75 75" fill="none" fill-rule="evenodd" overflow="visible" stroke-linecap="square" stroke-miterlimit="3" color-interpolation-filters="sRGB"><circle r="37.5" cx="37.5" cy="37.5" color-interpolation-filters="sRGB" fill="#8dc53f"/><path d="M37.523 11.464L27 21.74l2.62 2.684 6.028-5.89v37.9l-5.987-5.892-2.63 2.672 10.493 10.33 10.494-10.33-2.63-2.672-5.988 5.893v-37.89l6.03 5.89 2.62-2.684zM21.675 26.916l-2.646 2.656 5.933 5.91-13.605.02.006 3.75 13.598-.02-5.934 5.934 2.65 2.65 10.47-10.47zm31.65.013L42.85 37.36l10.47 10.47 2.65-2.65-5.934-5.934 13.598.02.006-3.75-13.605-.02 5.933-5.91z" dominant-baseline="auto" fill="#fff" fill-rule="nonzero"/></svg>