<svg xmlns="http://www.w3.org/2000/svg" width="273.396" height="376.622" viewBox="0 0 72.336 99.648"><path d="M36.153 0C22.073 0 9.288 12.365 9.288 26.877V39.34a36.17 36.17 0 0 0 1.305 49.716 36.17 36.17 0 0 0 25.575 10.593c19.975 0 36.168-16.193 36.168-36.168a36.17 36.17 0 0 0-9.317-24.168V26.877C63.02 12.482 50.462 0 36.153 0zm0 8c9.38 0 18.866 9.41 18.866 18.877v5.79a36.17 36.17 0 0 0-18.851-5.354 36.17 36.17 0 0 0-18.88 5.354v-5.79C17.288 17.382 27.084 8 36.153 8z" fill="#af1f23" paint-order="normal"/><path d="M53.735 45.875L29.347 69.85l-10.574-10.29-6.975 7.166 17.584 17.113 31.363-30.832z" dominant-baseline="auto" fill="#fff"/></svg>