<svg xmlns="http://www.w3.org/2000/svg" width="535.264" height="729.158" viewBox="0 0 141.622 192.923"><rect width="141.622" height="141.622" rx="6.032" fill="#168733" paint-order="normal"/><text xml:space="preserve" x="49.243" y="244.031" font-size="25.4" font-family="sans-serif" letter-spacing="0" word-spacing="0"><tspan x="14.748" y="192.124" font-size="56.444">ACL</tspan></text><path d="M40.445 64h6.214V50.133c0-16.316 11.93-25.997 25.03-25.997 12.765 0 24.503 10.2 24.503 26.392V64h6.038v49.402H40.445zm14.272 0h33.198V50.44c0-11.46-8.313-18.092-16.753-18.092-7.97 0-16.445 7.045-16.445 16.95zm34.45 7.457a2.75 2.75 0 0 0-1.867.884l-19.8 20.923L56.144 81.55c-.684-.708-1.694-.998-2.65-.76s-1.7.97-1.98 1.917-.012 1.966.674 2.672l15.35 15.85 23.755-25.098a2.75 2.75 0 0 0-2.13-4.666z" dominant-baseline="auto" fill="#fff"/></svg>