<svg xmlns="http://www.w3.org/2000/svg" width="380.595" height="283.51" viewBox="0 0 100.699 75.012"><path d="M22.422 75.012c-8.097 0-15.335-6.34-19.4-13.457-4.556-8.02-4.712-20.07 4.812-29.915 4.48-4.72 12.68-8.2 21.5-6.536C30.67 16.407 34.557 9.027 44.74 3.177 55.27-2.82 67.036.29 75.924 7.382c6.052 5.088 9.243 12.114 9.402 19.182 7.158 2.657 12.323 8.288 14.08 15.214 3.058 11.045.325 18.826-4.347 24.427-3.438 4.466-9.927 8.808-16.63 8.808z" fill="#3592fc"/><path d="M83.297 55.877c-2 2.986-4.033 5.032-8.528 5.032-3.856 0-7.315-2.086-8.386-6.567-.813-3.08-.826-6.164.52-10.04 1.092-2.763 3.53-5.268 7.937-5.268 5.083 0 6.796 2.162 8.552 4.96l-4.347 2.173c-.67-1.36-1.224-3.118-4.158-3.118-3.018 0-4.134 3.52-4.134 6.993 0 3.692 1.073 6.355 4.276 6.355 2.323 0 3.424-1.442 4.37-3.07zM50.85 48.673h4.285c1.618 0 2.446-.945 2.446-2.688 0-1.797-1.073-2.418-2.63-2.418h-4.1zm-5.034 12V39.238h9.406c4.295 0 7.028 2.22 7.028 6.987 0 3.794-2.284 6.732-6.343 6.732H50.85v7.727zm-15.516 0l-7.065-21.445h5.025l4.78 17.405 4.686-17.405h4.914l-7.08 21.445z" fill="#fff"/></svg>