<svg xmlns="http://www.w3.org/2000/svg" width="742.409" height="742.409" viewBox="0 0 196.429 196.429"><rect width="196.429" height="196.429" rx="8.367" fill="#4c7bb4" fill-opacity=".975" paint-order="normal"/><path d="M98.742 16.45v25.707h5V16.45h-5zM60.37 27.858l-4.435 2.307 12.738 24.48 4.436-2.306-12.74-24.48zm82.564.787L130.97 50.75l4.397 2.38 11.967-22.1-4.4-2.38zm-41.332 26.5c-8.517-.026-16.77 2.365-24 6.34l-.027.014-.027.016C64.902 68.898 57.38 79.503 53.37 91s-4.594 23.882-3.692 35.238l4.985-.396c-.865-10.896-.26-22.616 3.428-33.197s10.367-20.025 21.972-26.8c14.505-7.965 32.672-9.088 48.885 5.188l3.305-3.754c-8.874-7.814-18.55-11.454-28-12.045a44.68 44.68 0 0 0-2.651-.087zm73.645 7.007l-20.12 14.385 2.908 4.068 20.12-14.387-2.906-4.066zm-146.922.098l-2.875 4.092L46.396 81.06l2.875-4.092L28.326 62.25zM103.2 80.455c-10.91 0-20.846 8.062-20.846 21.65v11.557H77.19v41.144h51.457v-41.144h-5.03v-11.228c0-3.36-.606-6.408-1.68-9.093 5.296-3.756 11.98-6.567 19.815-6.567 8.328 0 16.405 4.802 22.47 12.598s9.994 18.497 9.994 29.693c0 10.81-4.315 20.85-10.33 28.127s-13.713 11.61-19.865 11.61H55.384c-7.562 0-14.4-4.7-19.408-11.006s-7.953-14.208-7.953-19.095c0-14.24 4.86-21.965 13.735-31.98l-3.742-3.317c-9.155 10.33-14.992 19.855-14.992 35.297 0 6.712 3.405 15.11 9.037 22.205s13.723 12.897 23.324 12.897h88.635c8.368 0 17.017-5.318 23.72-13.426s11.476-19.183 11.476-31.312c0-12.357-4.27-24.053-11.047-32.764s-16.18-14.527-26.416-14.527c-8.847 0-16.313 3.016-22.247 7.116-3.835-5.37-9.91-8.435-16.295-8.435zm-.44 6.84c4.35 0 8.656 2.117 11.31 6-3.447 3.25-6.107 6.718-7.922 9.735l4.285 2.578c1.363-2.266 3.318-4.864 5.803-7.392.3 1.285.477 2.672.477 4.157v11.3h-27.65v-12.25c0-8.25 7.06-14.117 13.696-14.117zm15.225 32.577a2.29 2.29 0 0 1 1.543 3.888L99.754 144.66l-12.784-13.2c-.576-.587-.793-1.438-.57-2.23s.855-1.402 1.653-1.6 1.64.046 2.2.64l9.455 9.765 16.49-17.426a2.29 2.29 0 0 1 1.786-.737z" dominant-baseline="auto" fill="#fff"/></svg>