<svg xmlns="http://www.w3.org/2000/svg" width="100.032" height="100.032" viewBox="0 0 75 75" fill="none" fill-rule="evenodd" overflow="visible" stroke-linecap="square" stroke-miterlimit="3" color-interpolation-filters="sRGB"><circle r="37.5" cx="37.5" cy="37.5" color-interpolation-filters="sRGB" fill="#8dc53f"/><path d="M39.004 10.7c-3.3 0-5.92 1.42-7.644 3.38s-2.6 4.43-2.6 6.71l-.026 11.43a18.964 18.964 0 0 0 9.924 35.106 18.964 18.964 0 0 0 9.841-35.147l.004-7.838 13.787-.026-4.04 4.286 1.65 1.554 6.583-6.98-6.587-6.94-1.645 1.562 4.037 4.25-13.784.028v-1.21c0-5.308-4.28-10.162-9.5-10.162zm0 2.268c3.758 0 7.233 3.838 7.233 7.894l-.006 10.125a18.964 18.964 0 0 0-7.573-1.588 18.964 18.964 0 0 0-7.655 1.639l.016-6.72 12.356.023.004-2.268-12.355-.023.003-1.26c0-1.678.696-3.686 2.038-5.213s3.272-2.61 5.938-2.61zm-21.615 3.22l-6.606 6.89 6.587 7.072 1.658-1.547-4.066-4.364 10.752.07.013-2.27-10.74-.067 4.04-4.216z" fill="#fff" paint-order="normal"/></svg>