<svg xmlns="http://www.w3.org/2000/svg" width="100.032" height="100.032" viewBox="0 0 75 75" fill="none" fill-rule="evenodd" overflow="visible" stroke-linecap="square" stroke-miterlimit="3" color-interpolation-filters="sRGB"><circle r="37.5" cx="37.5" cy="37.5" color-interpolation-filters="sRGB" fill="#90c34b" fill-opacity=".98"/><path d="M48.547 35.63a1.5 1.5 0 0 0-1.025.465l-12 12.31-7.008-7.04a1.501 1.501 0 1 0-2.127 2.117l9.154 9.195L49.668 38.19a1.5 1.5 0 0 0-1.121-2.561zm-20.58-4.336h19.69V23.37c0-7.297-5.558-10.452-9.692-10.452-5.545 0-9.997 4.278-9.997 9.93zm-8.5 28.61v-28.61h3.637v-8.32c0-7.567 5.828-14.83 14.9-14.83 6.474 0 14.56 4.715 14.56 15.767v7.383h3.655v28.61zM64.84 19.762l-1.268 1.383 3.588 3.29h-13.9v1.875h13.922l-3.564 3.29 1.273 1.377 6.072-5.607zm-54.016.012L4.69 25.37l6.13 5.63 1.268-1.38-3.605-3.31H22.38v-1.875H8.498l3.6-3.277zm18.162 4.662v1.875h17.342v-1.875z" dominant-baseline="auto" fill="#fff" fill-rule="nonzero"/></svg>