<svg xmlns="http://www.w3.org/2000/svg" width="100.032" height="100.032" viewBox="0 0 75 75" fill="none" fill-rule="evenodd" overflow="visible" stroke-linecap="square" stroke-miterlimit="3" color-interpolation-filters="sRGB"><circle r="37.5" cx="37.5" cy="37.5" color-interpolation-filters="sRGB" fill="#90c34b"/><path d="M44.77 38.523a1.125 1.125 0 0 0-.764.361l-8.098 8.557-4.643-4.795a1.126 1.126 0 1 0-1.617 1.566l6.277 6.482 9.715-10.264a1.125 1.125 0 0 0-.871-1.908zm-14.088-3.05h13.576v-5.55c0-4.687-3.4-7.4-6.85-7.4-3.26 0-6.725 2.88-6.725 6.932zm-5.836 0h2.54V29.8c0-6.673 4.88-10.63 10.236-10.63 5.22 0 10.02 4.167 10.02 10.793v5.513h2.47v20.203H24.845zM37.537 5.64C19.98 5.64 5.713 19.905 5.713 37.463S19.98 69.287 37.537 69.287 69.36 55.02 69.36 37.463 55.095 5.64 37.537 5.64zm0 3c15.937 0 28.822 12.886 28.822 28.822S53.474 66.287 37.537 66.287 8.713 53.4 8.713 37.463 21.6 8.64 37.537 8.64z" dominant-baseline="auto" fill="#fff" fill-rule="nonzero"/></svg>