<svg xmlns="http://www.w3.org/2000/svg" width="742.409" height="742.409" viewBox="0 0 196.429 196.429"><rect width="196.429" height="196.429" rx="8.367" fill="#168733" paint-order="normal"/><path d="M59.972 24.42v18.774H24.79v114.022h35.18v8.63h70.272v-8.63h35.1V43.193h-35.1V24.42H59.972zm8 8h54.272v125.426H67.972V32.42zm45.096 10.452l-36.547.172.037 8 36.547-.174-.037-7.998zM32.79 51.193h27.18v10.484l-18.632.14.037 8 18.595-.14v8.912L41.39 78.37l-.06 8 18.642.218v10.154l-18.628.103.03 8 18.6-.103v44.473H32.79V51.193zm97.452 0h27.1v98.022h-27.1V104.82l17.948-.1-.027-8-17.92.1V86.426l17.905.212.06-8-17.964-.213V69.78l17.952-.138-.037-7.998-17.915.136V51.193zM76.57 59.596l-.058 8 36.547.268.058-8-36.547-.268zm36.504 18.348l-36.55.127.03 8 36.547-.127-.027-8z" dominant-baseline="auto" fill="#fff"/></svg>