<?xml version="1.0" encoding="UTF-8" standalone="no"?>
<svg
   xmlns:dc="http://purl.org/dc/elements/1.1/"
   xmlns:cc="http://creativecommons.org/ns#"
   xmlns:rdf="http://www.w3.org/1999/02/22-rdf-syntax-ns#"
   xmlns:svg="http://www.w3.org/2000/svg"
   xmlns="http://www.w3.org/2000/svg"
   xmlns:sodipodi="http://sodipodi.sourceforge.net/DTD/sodipodi-0.dtd"
   xmlns:inkscape="http://www.inkscape.org/namespaces/inkscape"
   id="eccfbced-10ca-487a-a425-bf34f9e15139"
   width="17"
   height="17"
   viewBox="0 0 17 17"
   version="1.1"
   sodipodi:docname="Bot_Services.svg"
   inkscape:version="0.92.3 (2405546, 2018-03-11)">
  <sodipodi:namedview
     pagecolor="#ffffff"
     bordercolor="#666666"
     borderopacity="1"
     objecttolerance="10"
     gridtolerance="10"
     guidetolerance="10"
     inkscape:pageopacity="0"
     inkscape:pageshadow="2"
     inkscape:window-width="1920"
     inkscape:window-height="1017"
     id="namedview5046"
     showgrid="false"
     fit-margin-top="0"
     fit-margin-left="0"
     fit-margin-right="0"
     fit-margin-bottom="0"
     inkscape:zoom="48.111111"
     inkscape:cx="8.5"
     inkscape:cy="8.5"
     inkscape:window-x="-8"
     inkscape:window-y="-8"
     inkscape:window-maximized="1"
     inkscape:current-layer="eccfbced-10ca-487a-a425-bf34f9e15139" />
  <defs
     id="defs5028">
    <radialGradient
       id="b915730c-dc69-4cd4-8cf3-619882b8e8ab"
       cx="55.709999"
       cy="71.919998"
       r="9"
       gradientTransform="matrix(0.94,0,0,0.94,-43.61,-58.92)"
       gradientUnits="userSpaceOnUse">
      <stop
         offset="0.67"
         stop-color="#6bb9f2"
         id="stop5017" />
      <stop
         offset="0.74"
         stop-color="#61b4f1"
         id="stop5019" />
      <stop
         offset="0.85"
         stop-color="#47a8ef"
         id="stop5021" />
      <stop
         offset="0.99"
         stop-color="#1d94eb"
         id="stop5023" />
      <stop
         offset="1"
         stop-color="#1b93eb"
         id="stop5025" />
    </radialGradient>
  </defs>
  <title
     id="title5030">Icon-machinelearning-165</title>
  <path
     id="f6a29e1b-194b-4d8d-8529-49edea7bbba0"
     d="M 8.5,0 A 8.5,8.5 0 1 0 17,8.5 8.5,8.5 0 0 0 8.5,0 Z"
     inkscape:connector-curvature="0"
     style="fill:url(#b915730c-dc69-4cd4-8cf3-619882b8e8ab)" />
  <circle
     cx="8.5"
     cy="8.5"
     r="7.0300002"
     id="circle5033"
     style="fill:#ffffff" />
  <circle
     cx="6.9499998"
     cy="8.5"
     r="0.76999998"
     id="circle5035"
     style="fill:#32bedd" />
  <path
     d="M 4.76,6.3 H 4.38 A 0.29,0.29 0 0 0 4.09,6.59 v 5.72 a 0.59,0.59 0 0 0 0.59,0.59 h 5.57 a 0.29,0.29 0 0 0 0.29,-0.3 v -0.38 a 0.29,0.29 0 0 0 -0.29,-0.29 h -5 A 0.14,0.14 0 0 1 5.11,11.78 V 6.59 A 0.29,0.29 0 0 0 4.76,6.3 Z"
     id="path5037"
     inkscape:connector-curvature="0"
     style="fill:#32bedd" />
  <circle
     cx="10.05"
     cy="8.5"
     r="0.76999998"
     id="circle5039"
     style="fill:#32bedd" />
  <path
     d="M 11.92,4.1 H 6.73 A 0.29,0.29 0 0 0 6.44,4.4 v 0.38 a 0.29,0.29 0 0 0 0.29,0.29 h 5 a 0.15,0.15 0 0 1 0.15,0.15 v 5.19 a 0.29,0.29 0 0 0 0.29,0.29 h 0.38 a 0.29,0.29 0 0 0 0.29,-0.29 V 4.69 A 0.59,0.59 0 0 0 12.26,4.1 Z"
     id="path5041"
     inkscape:connector-curvature="0"
     style="fill:#32bedd" />
  <metadata
     id="metadata5043">
    <rdf:RDF>
      <rdf:li>public:true</rdf:li>
      <rdf:li>sdk:false</rdf:li>
      <rdf:li>category: AI + Machine Learning</rdf:li>
      <cc:Work
         rdf:about="">
        <dc:format>image/svg+xml</dc:format>
        <dc:type
           rdf:resource="http://purl.org/dc/dcmitype/StillImage" />
        <dc:title>Icon-machinelearning-165</dc:title>
      </cc:Work>
    </rdf:RDF>
  </metadata>
</svg>
