<?xml version="1.0" encoding="UTF-8" standalone="no"?>
<svg
   id="adba0893-37e1-4f7d-b5c1-84a49b4b1271"
   width="8.8373146"
   height="17.042692"
   viewBox="0 0 8.8373146 17.042692"
   version="1.1"
   sodipodi:docname="Genomics.svg"
   inkscape:version="1.1 (c68e22c387, 2021-05-23)"
   xmlns:inkscape="http://www.inkscape.org/namespaces/inkscape"
   xmlns:sodipodi="http://sodipodi.sourceforge.net/DTD/sodipodi-0.dtd"
   xmlns="http://www.w3.org/2000/svg"
   xmlns:svg="http://www.w3.org/2000/svg"
   xmlns:rdf="http://www.w3.org/1999/02/22-rdf-syntax-ns#"
   xmlns:cc="http://creativecommons.org/ns#"
   xmlns:dc="http://purl.org/dc/elements/1.1/">
  <sodipodi:namedview
     id="namedview2261"
     pagecolor="#ffffff"
     bordercolor="#666666"
     borderopacity="1.0"
     inkscape:pageshadow="2"
     inkscape:pageopacity="0.0"
     inkscape:pagecheckerboard="0"
     showgrid="false"
     fit-margin-top="0"
     fit-margin-left="0"
     fit-margin-right="0"
     fit-margin-bottom="0"
     inkscape:zoom="44.055556"
     inkscape:cx="4.4148802"
     inkscape:cy="8.5006305"
     inkscape:window-width="1920"
     inkscape:window-height="1017"
     inkscape:window-x="-8"
     inkscape:window-y="-8"
     inkscape:window-maximized="1"
     inkscape:current-layer="adba0893-37e1-4f7d-b5c1-84a49b4b1271" />
  <defs
     id="defs2246">
    <linearGradient
       id="bf123a67-f518-4ef5-98b7-581849ab5886"
       x1="9"
       y1="0.5"
       x2="9"
       y2="17.5"
       gradientUnits="userSpaceOnUse"
       gradientTransform="translate(-4.5879817,-0.49730761)">
      <stop
         offset="0"
         stop-color="#faa21d"
         id="stop2228" />
      <stop
         offset="0.28"
         stop-color="#f99e1b"
         id="stop2230" />
      <stop
         offset="0.57"
         stop-color="#f69113"
         id="stop2232" />
      <stop
         offset="0.87"
         stop-color="#f27d07"
         id="stop2234" />
      <stop
         offset="1"
         stop-color="#ef7100"
         id="stop2236" />
    </linearGradient>
    <linearGradient
       id="aa72cb41-12a0-478d-a1d4-69ceb2dfaac2"
       x1="9.9499998"
       y1="5.5500002"
       x2="10.08"
       y2="5.8200002"
       gradientUnits="userSpaceOnUse"
       gradientTransform="translate(-4.5879817,-0.49730761)">
      <stop
         offset="0"
         stop-color="#003c90"
         id="stop2239" />
      <stop
         offset="0.15"
         stop-color="#194f9b"
         stop-opacity="0.9"
         id="stop2241" />
      <stop
         offset="1"
         stop-color="#194f9b"
         stop-opacity="0"
         id="stop2243" />
    </linearGradient>
  </defs>
  <title
     id="title2248">Icon-machinelearning-164</title>
  <path
     d="m 7.1020183,8.6126924 c 0,-1.6 -1.57,-2.66 -2.69,-3.22 -1.12,0.56 -2.69,1.62 -2.69,3.22 0,0.24 0.14,1.4499996 2.69,2.6699996 2.55,-1.22 2.69,-2.4299996 2.69,-2.6699996 z"
     fill="none"
     id="path2250" />
  <path
     d="m 5.4120183,11.732692 -0.25,-0.11 v 0 c -0.27,-0.11 -0.51,-0.21 -0.73,-0.32 -0.22,0.11 -0.46,0.21 -0.73,0.32 v 0 l -0.29,0.11 -0.68,0.3 a 10.6,10.6 0 0 0 1.68,0.86 10.6,10.6 0 0 0 1.69,-0.86 z"
     fill="url(#bf123a67-f518-4ef5-98b7-581849ab5886)"
     id="path2252"
     style="fill:url(#bf123a67-f518-4ef5-98b7-581849ab5886)" />
  <path
     d="m 6.0820183,4.6526924 a 5.53,5.53 0 0 1 -0.74,0.36 c -0.35,0.12 -0.93,0.38 -0.93,0.38 l 0.43,0.23 0.82,-0.33 a 5.09,5.09 0 0 0 0.75,-0.42 z"
     opacity="0.3"
     fill="url(#aa72cb41-12a0-478d-a1d4-69ceb2dfaac2)"
     id="path2254"
     style="fill:url(#aa72cb41-12a0-478d-a1d4-69ceb2dfaac2)" />
  <path
     d="m 1.9720183,14.502692 a 2.47,2.47 0 0 0 -0.42,0.91 h 6.25 v 0.5 h -6.34 c 0,0.12 0,0.25 0,0.38 a 0.74,0.74 0 0 1 -0.72000003,0.75 v 0 a 0.74,0.74 0 0 1 -0.74,-0.72 4.46,4.46 0 0 1 2.74000003,-4.25 10.6,10.6 0 0 0 1.67,0.82 l -0.15,0.07 -0.28,0.12 a 6.11,6.11 0 0 0 -1.57,0.87 h 5.35 v 0.55 z m 3.44,-2.77 -0.25,-0.11 v 0 c -0.27,-0.11 -0.51,-0.21 -0.73,-0.32 -0.22,0.11 -0.46,0.21 -0.73,0.32 v 0 l -0.29,0.11 -0.68,0.3 a 10.6,10.6 0 0 0 1.68,0.86 10.6,10.6 0 0 0 1.69,-0.86 z m 2.76,-10.6399996 h -6.69 a 1.78,1.78 0 0 1 0,-0.28000001 0.73334848,0.73334848 0 1 0 -1.46000003,-0.14 c 0,0.09 -0.19,2.32000001 2.75000003,4.00000001 a 9.82,9.82 0 0 1 1.64,-0.9 l -0.63,-0.27 a 5.35,5.35 0 0 1 -0.9,-0.54 h 4 v -0.46 h -4.59 a 3.16,3.16 0 0 1 -0.64,-0.9 h 6.52 z m -2.09,3.56 -0.43,0.23 h -0.11 a 8.93,8.93 0 0 0 -1.13,0.51 6.46,6.46 0 0 1 1.91,1.37 H 0.79201827 v 0.5 H 6.7020183 a 2.63,2.63 0 0 1 0.35,0.89 H 0.79201827 v 0.51 H 7.0920183 a 1.8,1.8 0 0 1 -0.38,0.91 H 0.79201827 V 10.082692 H 6.2620183 a 7.47,7.47 0 0 1 -1.85,1.2 c 0.22,0.11 0.46,0.21 0.73,0.32 v 0 l 0.25,0.11 0.68,0.3 c 2.19,-1.36 2.47,-2.7899996 2.47,-3.4199996 a 4.87,4.87 0 0 0 -2.46,-3.94 z"
     fill="#0078d4"
     id="path2256" />
  <path
     d="m 3.4120183,11.732692 -0.68,0.3 C 0.53201827,10.672692 0.25201827,9.2426924 0.25201827,8.6126924 a 4.87,4.87 0 0 1 2.49000003,-4 l 0.43,0.23 h 0.11 a 8.93,8.93 0 0 1 1.13,0.55 c -1.12,0.56 -2.69,1.62 -2.69,3.22 0,0.24 0.14,1.4499996 2.69,2.6699996 -0.22,0.11 -0.46,0.21 -0.73,0.32 v 0 z m 5.42,-11.05999961 a 0.74,0.74 0 0 0 -0.8,-0.67 0.71,0.71 0 0 0 -0.66,0.81 c 0,0 0.33,1.33000001 -2.07,2.59000001 l -0.89,0.37 a 9.82,9.82 0 0 1 1.67,0.88 c 2.94,-1.66 2.76,-3.89000001 2.75,-3.98000001 z m -2.73,11.35999961 a 10.6,10.6 0 0 1 -1.69,0.86 l 0.15,0.07 0.28,0.12 c 1.24,0.54 2.57,1.26 2.53,3.17 a 0.74,0.74 0 0 0 0.72,0.75 v 0 a 0.74,0.74 0 0 0 0.74,-0.72 4.46,4.46 0 0 0 -2.73,-4.25 z m -0.25,-7.2599996 0.23,-0.12 a 9.82,9.82 0 0 0 -1.67,-0.88 9.82,9.82 0 0 0 -1.67,0.88 l 0.43,0.23 h 0.11 a 8.93,8.93 0 0 1 1.13,0.51 c 0.59,-0.23 0.95,-0.38 1.17,-0.48 h 0.07 v 0 a 1.12,1.12 0 0 0 0.2,-0.11 z"
     fill="#32bedd"
     id="path2258" />
  <metadata
     id="metadata2343">
    <rdf:RDF>
      <cc:Work
         rdf:about="">
        <dc:title>Icon-machinelearning-164</dc:title>
      </cc:Work>
    </rdf:RDF>
  </metadata>
</svg>
