<?xml version="1.0" standalone="no"?>
<svg contentScriptType="text/ecmascript" zoomAndPan="magnify" xmlns:rdf="http://www.w3.org/1999/02/22-rdf-syntax-ns#"
    xmlns:xlink="http://www.w3.org/1999/xlink" xmlns:svg="http://www.w3.org/2000/svg" baseProfile="full"
    contentStyleType="text/css" id="b97bbf6b-86e6-4ebc-9146-dd962aa81e49" sodipodi:docname="00030-icon-service-Machine-Learning-Studio-(Classic)-Web-Services.svg"
    version="1.1" width="17.032106" xmlns:sodipodi="http://sodipodi.sourceforge.net/DTD/sodipodi-0.dtd" xmlns:dc="http://purl.org/dc/elements/1.1/"
    xmlns:inkscape="http://www.inkscape.org/namespaces/inkscape" xmlns:cc="http://creativecommons.org/ns#"
    preserveAspectRatio="xMidYMid meet" inkscape:version="0.92.3 (2405546, 2018-03-11)" viewBox="0 0 17.032106 17.067297"
    height="17.067297" xmlns="http://www.w3.org/2000/svg">
    <defs id="defs3307">
        <linearGradient x1="5.77" y1="7.0799999" x2="5.8800001" gradientUnits="userSpaceOnUse" y2="17.58" id="aa5994b0-7cc1-426e-80f1-5365573f8425">
            <stop offset="0" stop-color="#32d4f5" id="stop3292"/>
            <stop offset="0.32" stop-color="#31d1f3" id="stop3294"/>
            <stop offset="0.53" stop-color="#2ec9eb" id="stop3296"/>
            <stop offset="0.7" stop-color="#29bade" id="stop3298"/>
            <stop offset="0.86" stop-color="#22a5cb" id="stop3300"/>
            <stop offset="1" stop-color="#198ab3" id="stop3302"/>
            <stop offset="1" stop-color="#198ab3" id="stop3304"/>
        </linearGradient>
    </defs>
    <path style="fill:#f2f2f2" d="M 14.579808,11.217298 A 6.2538648,6.2538648 0 1 1 6.9098079,1.3372976 l 0.07,-0.05 a 
        6.2522976,6.2522976 0 0 1 7.6000001,9.9300004"/>
    <path style="fill:#0078d4" d="m 15.739808,2.5072976 a 6.26,6.26 0 0 0 -8.7600001,-1.23 l -0.07,0.05 a 6.26,6.26 0 0 
        0 3.8500001,11.2400004 6.16,6.16 0 0 0 3.82,-1.31 v 0 a 6.28,6.28 0 0 0 1.16,-8.7500004 z m -10.4300001,3.37 a 
        5.55,5.55 0 0 1 0.61,-2.13 h 1.51 a 10.84,10.84 0 0 0 -0.29,2.13 z m 3,-2.13 h 2.0800001 v 2.13 H 7.9498079 a 
        9.41,9.41 0 0 1 0.32,-2.13 z m 2.8800001,0 h 2.08 a 9.41,9.41 0 0 1 0.32,2.13 h -2.4 z m -0.8,2.93 v 2.12 H 
        8.2698079 a 9.24,9.24 0 0 1 -0.32,-2.12 z m 0.8,0 h 2.4 a 9.24,9.24 0 0 1 -0.32,2.12 h -2.12 z m 3.21,0 h 1.82 a 
        5.61,5.61 0 0 1 -0.6,2.12 h -1.56 a 10,10 0 0 0 0.3,-2.12 z m 0,-0.8 a 10.13,10.13 0 0 0 -0.3,-2.13 h 1.52 a 
        5.41,5.41 0 0 1 0.6,2.13 z m 0.71,-2.93 h -1.29 a 5.92,5.92 0 0 0 -0.88,-1.66 5.4,5.4 0 0 1 2.13,1.66 z m 
        -2.12,0 h -1.8 V 0.94729758 a 3.27,3.27 0 0 1 1.76,2.00000002 z m -2.6,-2.00000002 V 2.9472976 H 8.5498079 A 
        3.27,3.27 0 0 1 10.349808,0.90729758 Z M 7.4098079,1.9672976 v 0 a 5.39,5.39 0 0 1 1.1,-0.65 6.12,6.12 0 0 0 
        -0.88,1.67 h -1.2 a 5.05,5.05 0 0 1 0.98,-1.02 z m -2.1,4.71 h 1.83 a 10.74,10.74 0 0 0 0.29,2.12 h -1.51 a 
        5.22,5.22 0 0 1 -0.61,-2.12 z m 1.13,2.94 h 1.24 a 6.06,6.06 0 0 0 0.88,1.6600004 5.35,5.35 0 0 1 
        -2.12,-1.6600004 z m 2.11,0 H 10.349808 V 11.617298 A 3.27,3.27 0 0 1 8.5498079,9.5672976 Z M 
        11.149808,11.617298 V 9.5672976 h 1.8 a 3.27,3.27 0 0 1 -1.8,2.0800004 z m 2.94,-1.05 v 0 a 5,5 0 0 1 -1.16,0.68 
        5.82,5.82 0 0 0 0.89,-1.6800004 h 1.25 a 5.68,5.68 0 0 1 -0.98,1.0000004 z"/>
    <path style="fill:url(#aa5994b0-7cc1-426e-80f1-5365573f8425)" d="M 10.349808,17.067298 H 0.3898079 c -0.31,0 
        -0.5,-0.51 -0.32,-0.77 l 3.43,-5 a 0.39,0.39 0 0 0 0.07,-0.23 V 7.7672976 a 0.2,0.2 0 0 0 -0.2,-0.2 h -0.18 a 
        0.39,0.39 0 0 1 -0.39,-0.39 v -0.18 a 0.39,0.39 0 0 1 0.39,-0.43 h 4.37 a 0.4,0.4 0 0 1 0.39,0.4 v 0.18 a 
        0.4,0.4 0 0 1 -0.39,0.42 h -0.19 a 0.19,0.19 0 0 0 -0.19,0.2 v 3.3100004 a 0.34,0.34 0 0 0 0.07,0.22 l 
        3.4300001,5 c 0.18,0.27 -0.01,0.77 -0.33,0.77 z"/>
    <path style="fill:#ffffff" d="m 1.7398079,15.747298 2.47,-3.6 a 0.87,0.87 0 0 0 0.16,-0.52 v -1.45 a 0.29,0.29 0 0 1 
        0.29,-0.2800004 h 1.4 a 0.29,0.29 0 0 1 0.29,0.2800004 v 1.55 a 0.6,0.6 0 0 0 0.1,0.35 l 2.53,3.67 a 0.22,0.22 0 
        0 1 -0.18,0.34 h -6.88 a 0.22,0.22 0 0 1 -0.18,-0.34 z"/>
</svg>