<svg xmlns="http://www.w3.org/2000/svg" xmlns:xlink="http://www.w3.org/1999/xlink" viewBox="0 0 90.458 175.661"><defs><filter id="A" filterUnits="userSpaceOnUse" x="47.779" y="149.499" width="42.679" height="25.822"><feColorMatrix values="1 0 0 0 0 0 1 0 0 0 0 0 1 0 0 0 0 0 1 0"/></filter><path id="B" d="M27.157 107.826l6.667 4.02-.016 8.24s-.405-4.83-3.238-8.528c-2.6-3.392-3.413-3.732-3.413-3.732"/><path id="C" d="M16.186 101.212l6.67 4.02-.016 8.24s-.41-4.83-3.243-8.53c-2.6-3.39-3.41-3.73-3.41-3.73"/></defs><mask maskUnits="userSpaceOnUse" x="47.779" y="149.499" width="42.679" height="25.822" id="D"><g filter="url(#A)"><path d="M49.682 171.143c.002 2.102-.73 3.556-1.903 4.178l40.776-21.645c1.17-.622 1.904-2.075 1.903-4.176" fill="#fff"/></g></mask><path d="M49.682 171.143L90.458 149.5c.001 2.102-.732 3.555-1.903 4.177L47.78 175.32c1.172-.622 1.904-2.075 1.903-4.178" mask="url(#D)" fill="#1c5a84"/><path d="M49.638 111.872c0-.016-.004-.034-.004-.05L49.6 52.764c0-1.18-.793-2.612-1.772-3.2L1.77 21.895c-.978-.588-1.77-.108-1.77 1.07l.09 118.378c.003 4.014 2.68 8.874 5.978 10.856l37.648 22.62c3.298 1.982 5.97.335 5.967-3.678l-.044-59.27z" fill="#1f608c"/><path d="M46.186 130.85l-8.7-5.222v-12.853l8.7 5.22v12.854zm0 19.13l-8.7-5.222v-12.85l8.7 5.22v12.852zm0 18.736l-8.7-5.22v-12.853l8.7 5.222v12.85zm-11.64-44.86l-8.692-5.222v-12.854L34.545 111v12.853zm0 19.13l-8.692-5.224V124.9l8.692 5.223v12.852zM14.868 131.16V118.31l8.695 5.225v12.852l-8.695-5.225zm-3.006-20.936L3.17 105V92.148l8.693 5.223v12.854zm0 19.13L3.17 124.13v-12.85l8.693 5.223v12.852zm-.34 18.533l-8.69-5.223v-12.852l8.69 5.223v12.852zm3.345-48.71l8.695 5.225v12.854l-8.695-5.224V99.177zm1.125 58.622v-19.323l7.284 4.377v19.32l-7.284-4.375zm9.265 5.566v-19.323l7.07 4.25v19.323l-7.07-4.25z" fill="#fefefe"/><g fill="#d6dee6"><path d="M38.8 114.838l6.667 4.02-.015 8.242s-.406-4.83-3.24-8.53c-2.6-3.4-3.412-3.73-3.412-3.73M4.37 94.1l6.666 4.018-.016 8.24s-.406-4.83-3.242-8.53c-2.6-3.4-3.408-3.73-3.408-3.73m34.4 39.73l6.667 4.02-.016 8.247s-.404-4.832-3.24-8.532c-2.6-3.394-3.412-3.734-3.412-3.734"/><use xlink:href="#B"/><path d="M27.128 126.815l6.667 4.02-.016 8.247s-.405-4.833-3.238-8.532c-2.602-3.394-3.413-3.734-3.413-3.734"/><use xlink:href="#C"/><path d="M16.156 120.2l6.67 4.02-.016 8.246s-.408-4.833-3.24-8.534c-2.602-3.393-3.412-3.733-3.412-3.733m-11.818-7.12l6.666 4.02-.016 8.247s-.406-4.833-3.24-8.535c-2.6-3.392-3.4-3.73-3.4-3.73m34.4 39.7l6.667 4.02-.016 8.245s-.404-4.832-3.24-8.532c-2.6-3.4-3.4-3.733-3.4-3.733M4.1 131.896l6.666 4.02-.016 8.244s-.407-4.832-3.237-8.53c-2.603-3.4-3.413-3.732-3.413-3.732"/></g><path d="M41.855.004l-.001.001c-.193-.018-.37.015-.52.096L.558 21.745c.15-.08.328-.113.522-.096l15.394-8.17L1.08 21.65a1.66 1.66 0 0 1 .689.246L42.545.252c-.244-.148-.478-.228-.7-.248z" fill="#6089b1"/><path d="M1.77 21.895L42.545.25l46.05 27.668-40.776 21.645z" fill="#276e9f"/><path d="M90.458 149.5l-.092-118.38L49.6 52.764l.09 118.38z" fill="#19557d"/><g fill="#1c5a84"><path d="M48.146 49.798c.08.066.158.138.234.214l40.776-21.645-.234-.214c-.106-.088-.217-.167-.328-.235L47.818 49.564c.112.067.222.146.328.234"/><path d="M48.38 50.012a3.97 3.97 0 0 1 .352.407l.126.176.11.172.122.212.154.31c.083.187.154.378.21.568.088.307.137.614.137.906L90.367 31.12a3.31 3.31 0 0 0-.137-.906 4.46 4.46 0 0 0-.209-.568l-.154-.312-.123-.21-.11-.173-.125-.176c-.1-.146-.228-.283-.352-.408"/></g><path d="M46.138 71.74l-8.7-5.222V53.666l8.7 5.22V71.74zm0 19.13l-8.7-5.222v-12.85l8.7 5.22V90.87zm0 18.736l-8.7-5.22V91.534l8.7 5.222v12.85zm-11.64-44.86l-8.692-5.222V46.67l8.692 5.223v12.853zm0 19.13l-8.692-5.224v-12.85l8.692 5.223v12.852zM14.82 72.053V59.2l8.695 5.225v12.852l-8.695-5.225zm-3.006-20.936L3.12 45.893V33.04l8.693 5.223v12.854zm0 19.13L3.12 65.023v-12.85l8.693 5.223v12.852zm-.34 18.533l-8.69-5.223V70.705l8.69 5.223V88.78zm3.345-48.71l8.695 5.225v12.854l-8.695-5.224V40.07z" fill="#fefefe"/><g fill="#d6dee6"><path d="M38.742 55.73l6.667 4.02-.015 8.242s-.406-4.83-3.24-8.53c-2.6-3.4-3.412-3.73-3.412-3.73m-34.42-20.75L11 39l-.016 8.24s-.406-4.83-3.242-8.53c-2.6-3.4-3.408-3.73-3.408-3.73M38.7 74.718l6.667 4.02-.016 8.247s-.404-4.832-3.24-8.532c-2.6-3.394-3.412-3.734-3.412-3.734"/><use xlink:href="#B" x="-0.047" y="-59.109"/><path d="M27.08 67.706l6.667 4.02-.016 8.247s-.405-4.833-3.238-8.532c-2.602-3.394-3.413-3.734-3.413-3.734"/><use xlink:href="#C" x="-0.048" y="-59.108"/><path d="M16.108 61.092l6.67 4.02-.016 8.246s-.408-4.833-3.24-8.534C16.92 61.43 16.1 61.09 16.1 61.09M4.293 53.97L10.96 58l-.016 8.247s-.406-4.833-3.24-8.535c-2.6-3.392-3.4-3.73-3.4-3.73m34.39 39.688l6.667 4.02-.016 8.245s-.404-4.832-3.24-8.532c-2.6-3.4-3.4-3.733-3.4-3.733M4.052 72.787l6.666 4.02-.016 8.244s-.407-4.832-3.237-8.53c-2.603-3.4-3.413-3.732-3.413-3.732"/></g><path d="M34.19 102.095L25.5 96.873V84.02l8.692 5.223v12.853zM14.514 77.418l8.695 5.225v12.854l-8.695-5.224V77.418z" fill="#fefefe"/><g fill="#d6dee6"><use xlink:href="#B" x="-0.542" y="-21.769"/><use xlink:href="#C" x="-0.542" y="-21.768"/></g></svg>