<svg xmlns="http://www.w3.org/2000/svg" viewBox="0 0 201.889 184.58"><path d="M58.628.108L15.65 22.92c.155-.084.345-.116.55-.1.22.02.467.105.725.264L59.907.266C59.65.11 59.405.023 59.18.004a.96.96 0 0 0-.552.104z" fill="#6089b1"/><defs><filter id="A" filterUnits="userSpaceOnUse" x="65.374" y="95.283" width="44.989" height="27.221"><feColorMatrix values="1 0 0 0 0 0 1 0 0 0 0 0 1 0 0 0 0 0 1 0"/></filter></defs><mask maskUnits="userSpaceOnUse" x="65.374" y="95.283" width="44.989" height="27.221" id="B"><g filter="url(#A)"><path d="M67.38 118.098c0 2.218-.77 3.75-2.006 4.406l42.984-22.818c1.235-.655 2.008-2.183 2.005-4.403" fill="#fff"/></g></mask><path d="M67.38 118.098l42.983-22.815c.002 2.22-.77 3.748-2.005 4.403l-42.984 22.818c1.235-.657 2.006-2.187 2.006-4.406" mask="url(#B)" fill="#1c5a84"/><path d="M16.924 23.08l48.54 29.165 42.985-22.814L59.908.266z" fill="#276e9f"/><path d="M67.335 55.617l42.98-22.814.047 62.48-42.983 22.815z" fill="#19557d"/><path d="M108.45 29.434L65.465 52.246c1.087.71 1.87 2.314 1.87 3.37l42.98-22.814c0-1.833-.898-2.77-1.867-3.37z" fill="#1c5a84"/><path d="M65.464 52.246c1.032.62 1.87 2.13 1.87 3.37l.045 62.48c.003 4.234-2.816 5.968-6.29 3.875L21.4 98.132c-3.474-2.09-6.295-7.214-6.295-11.446l-.047-62.48c0-1.24.833-1.744 1.865-1.125l48.54 29.165z" fill="#1f608c"/><path d="M63.694 75.625l-9.16-5.505V56.567l9.16 5.5zm-12.27-7.375l-9.16-5.503V49.194l9.16 5.5zm-20.74 7.704v-13.55l9.166 5.5v13.544zm-3.17-22.07l-9.164-5.507V34.83l9.164 5.508zm0 20.165l-9.164-5.507V54.997l9.164 5.504zm-.358 19.537l-9.16-5.506V74.533l9.16 5.507zm3.527-51.347l9.166 5.503v13.554l-9.166-5.506z" fill="#fefefe"/><g fill="#d6dee6"><path d="M55.9 58.748l7.028 4.233-.015 8.7s-.432-5.094-3.42-8.993c-2.74-3.57-3.594-3.93-3.594-3.93M19.617 36.872l7.025 4.24-.016 8.688s-.43-5.094-3.418-8.997c-2.74-3.573-3.6-3.93-3.6-3.93"/><path d="M43.64 51.353l7.025 4.24-.016 8.686s-.426-5.1-3.416-9c-2.74-3.573-3.593-3.936-3.593-3.936M32.07 44.38l7.03 4.243-.014 8.685s-.435-5.094-3.42-9c-2.74-3.578-3.595-3.937-3.595-3.937m-.03 20.02l7.032 4.232-.02 8.7s-.43-5.094-3.418-8.996c-2.74-3.58-3.595-3.935-3.595-3.935m-12.456-7.51l7.03 4.235-.02 8.694s-.427-5.096-3.416-8.998c-2.743-3.576-3.594-3.93-3.594-3.93"/></g><path d="M150.155 55.097l-42.98 22.812c.16-.085.344-.116.558-.098s.46.104.72.262l42.982-22.817c-.258-.156-.503-.242-.725-.263-.208-.016-.392.018-.553.104z" fill="#6089b1"/><defs><filter id="C" filterUnits="userSpaceOnUse" x="156.902" y="150.272" width="44.987" height="27.219"><feColorMatrix values="1 0 0 0 0 0 1 0 0 0 0 0 1 0 0 0 0 0 1 0"/></filter></defs><mask maskUnits="userSpaceOnUse" x="156.902" y="150.272" width="44.987" height="27.219" id="D"><g filter="url(#C)"><path d="M158.908 173.09c0 2.214-.774 3.746-2.007 4.403l42.984-22.814c1.233-.657 2.005-2.187 2.004-4.406" fill="#fff"/></g></mask><path d="M158.908 173.09l42.98-22.817c.001 2.22-.77 3.75-2.004 4.406l-42.983 22.813c1.233-.656 2.006-2.188 2.006-4.402" mask="url(#D)" fill="#1c5a84"/><path d="M108.45 78.073l42.982-22.816 48.542 29.165-42.986 22.814z" fill="#276e9f"/><path d="M158.86 110.61l42.98-22.816.048 62.48-42.98 22.817z" fill="#19557d"/><path d="M199.975 84.422l-42.986 22.814c1.173.804 1.87 2.322 1.87 3.373l42.982-22.816c0-1.52-.9-2.763-1.867-3.37z" fill="#1c5a84"/><path d="M156.99 107.236c1.032.62 1.87 2.13 1.872 3.373l.046 62.48c.003 4.23-2.816 5.964-6.3 3.875l-39.69-23.843c-3.476-2.088-6.297-7.214-6.3-11.444l-.045-62.482c0-1.24.833-1.74 1.867-1.123l48.538 29.163z" fill="#1f608c"/><path d="M155.22 130.613l-9.16-5.504v-13.55l9.16 5.508zm0 20.164l-9.16-5.502v-13.547l9.16 5.502zm0 19.753l-9.16-5.505V151.48l9.16 5.504zm-12.272-47.288l-9.16-5.506v-13.55l9.16 5.507zm0 20.168l-9.16-5.5v-13.55l9.16 5.5zm-20.742-12.465v-13.55l9.167 5.506v13.546zm-3.166-22.07l-9.163-5.5V89.82l9.163 5.5zm3.166-11.645l9.167 5.503v13.553l-9.167-5.504zm1.188 61.792v-20.368l7.678 4.6v20.37zm9.766 5.865V144.52l7.454 4.478v20.37z" fill="#fefefe"/><path d="M147.424 113.738l7.028 4.232-.016 8.7s-.43-5.092-3.416-9c-2.74-3.574-3.596-3.932-3.596-3.932m-36.282-21.876l7.025 4.238-.013 8.687s-.43-5.1-3.42-8.992c-2.74-3.572-3.592-3.933-3.592-3.933m36.25 41.888l7.028 4.236-.02 8.698s-.423-5.098-3.412-8.997c-2.74-3.577-3.597-3.937-3.597-3.937m-12.23-27.407l7.027 4.238-.016 8.688s-.427-5.093-3.414-9c-2.742-3.575-3.597-3.935-3.597-3.935m-.03 20.018l7.025 4.236-.016 8.694s-.427-5.1-3.413-8.994c-2.746-3.58-3.596-3.936-3.596-3.936m-11.54-26.995l7.034 4.244-.017 8.688s-.432-5.095-3.42-8.994c-2.74-3.577-3.598-3.938-3.598-3.938m-.026 20.023l7.03 4.233-.017 8.697s-.43-5.092-3.418-8.993c-2.744-3.58-3.594-3.937-3.594-3.937m23.795 34.33l7.027 4.238-.016 8.693s-.428-5.097-3.417-8.997c-2.74-3.572-3.594-3.934-3.594-3.934" fill="#d6dee6"/><path d="M46.018 61.226c-.182-.05-.462-.097-.726 0l-.01.005c-.033.012-.067.024-.1.042L.635 84.92c.036-.02.077-.034.112-.048.263-.094.542-.05.725 0 .113.032.192.068.207.076L46.226 61.3c-.017-.007-.095-.042-.208-.074z" fill="#6089b1"/><path d="M1.678 84.948L46.226 61.3l12.548 7.54-44.546 23.644z" fill="#276e9f"/><g fill="#6089b1"><path d="M59.283 60.287L14.735 83.934c.03-.017.058-.03.088-.04l44.46-23.608z"/><path d="M59.9 60.25c-.198-.06-.38-.06-.54 0L14.824 83.895c.16-.058.346-.058.502-.013a1.72 1.72 0 0 1 .401.174L60.27 60.4a1.47 1.47 0 0 0-.361-.161z"/></g><defs><filter id="E" filterUnits="userSpaceOnUse" x="77.102" y="156.557" width="46.396" height="27.69"><feColorMatrix values="1 0 0 0 0 0 1 0 0 0 0 0 1 0 0 0 0 0 1 0"/></filter></defs><mask maskUnits="userSpaceOnUse" x="77.102" y="156.557" width="46.396" height="27.69" id="F"><g filter="url(#E)"><path d="M78.95 180.196c.003 2.038-.71 3.45-1.85 4.05l44.546-23.64c1.14-.605 1.853-2.012 1.85-4.05" fill="#fff"/></g></mask><path d="M78.95 180.197l44.547-23.64c.002 2.037-.7 3.445-1.85 4.05l-44.545 23.64c1.14-.602 1.852-2.013 1.85-4.05" mask="url(#F)" fill="#1c5a84"/><path d="M15.726 84.056L60.27 60.4l44.78 26.9-44.545 23.64z" fill="#276e9f"/><path d="M61.986 113.628L106.53 89.98l.007 7.56-44.547 23.644z" fill="#1a5881"/><g fill="#1c5a84"><path d="M105.598 87.772l-.164-.165a2.11 2.11 0 0 0-.383-.288L60.505 110.96c.134.08.26.183.383.292L74 104.298l-13.1 6.955a1.78 1.78 0 0 1 .162.163l8.022-4.258-8.022 4.258c.14.15.268.318.382.498l44.547-23.65a3.62 3.62 0 0 0-.382-.493z"/><path d="M106.17 88.605l-.088-.163-.103-.177-44.547 23.65.105.173.087.162 3.733-1.98-3.733 1.982.096.21 44.547-23.645-.097-.21z"/><path d="M106.51 89.658c-.022-.17-.064-.348-.12-.524l-41.012 21.77 41.012-21.77-.12-.32-44.547 23.645.122.32a3.26 3.26 0 0 1 .121.523L74.2 106.81l-12.235 6.495c.013.11.02.217.022.325l44.543-23.65a2.56 2.56 0 0 0-.021-.322z"/></g><path d="M61.99 121.184l44.547-23.644 14.07 8.454-44.546 23.644z" fill="#276e9f"/><path d="M78.92 134.382l44.545-23.646.032 45.82-44.547 23.64z" fill="#1a5881"/><defs><filter id="G" filterUnits="userSpaceOnUse" x="0" y="83.85" width="78.951" height="100.73"><feColorMatrix values="1 0 0 0 0 0 1 0 0 0 0 0 1 0 0 0 0 0 1 0"/></filter></defs><mask maskUnits="userSpaceOnUse" x="0" y="83.85" width="78.951" height="100.73" id="H"><g filter="url(#G)"><path d="M0 83.85h78.95v100.73H0z" fill="#fff"/></g></mask><path d="M60.506 110.96c.816.492 1.478 1.685 1.48 2.667l.003 7.556 14.07 8.454c2.858 1.717 2.862 4.592 2.862 4.744l.03 45.814c.003 3.905-2.614 5.5-5.856 3.553l-67.197-40.37C2.663 141.432.036 136.7.033 132.784L0 86.6c0-2.417 1.596-1.69 1.678-1.652l12.55 7.538-.005-7.393c.03-1.127.686-1.526 1.504-1.036l44.78 26.905z" mask="url(#H)" fill="#1f5f8b"/><path d="M120.605 105.993L76.06 129.64c1.56.896 2.86 2.88 2.86 4.744l44.545-23.646c.001-1.95-1.24-3.657-2.86-4.744z" fill="#1c5a84"/><path d="M75.417 147.69l-8.632-5.185v-12.757l8.632 5.182v12.76zm0 19.007l-8.632-5.187v-12.767l8.632 5.184v12.77zM59.19 130.248l-8.628-5.185v-12.766l8.628 5.185v12.766zm0 19l-8.628-5.19v-12.763l8.628 5.186v12.766zm0 18.605l-8.628-5.185v-12.764l8.628 5.185v12.764zm-11.562-44.552l-8.63-5.188v-12.767l8.63 5.19v12.766zm0 19l-8.63-5.187V124.35l8.63 5.188V142.3zm-19.54-11.742v-12.764l8.636 5.19v12.763l-8.636-5.188zm-2.984-20.794l-8.635-5.185V91.812L25.102 97v12.766zm0 19l-8.635-5.19v-12.76L25.102 116v12.764zm-.337 18.405l-8.633-5.185V129.22l8.633 5.19v12.76zm3.32-48.378l8.636 5.19v12.766l-8.636-5.2V98.79zm-16.662 10.45l-8.636-5.2V91.293l8.636 5.187v12.76zm0 19l-8.636-5.19v-12.765l8.636 5.2v12.764zm17.78 28.77v-19.2l7.234 4.347v19.187l-7.234-4.344zm9.2 5.528v-19.188l7.02 4.218v19.192l-7.02-4.222z" fill="#fefefe"/><g fill="#d6dee6"><path d="M51.845 114.566l6.62 3.992-.016 8.186s-.403-4.798-3.217-8.472c-2.583-3.367-3.388-3.706-3.388-3.706M17.662 93.96l6.62 4-.018 8.187s-.405-4.797-3.22-8.474c-2.583-3.366-3.384-3.702-3.384-3.702m34.152 39.463l6.623 3.992-.016 8.192s-.402-4.8-3.217-8.475c-2.58-3.373-3.4-3.7-3.4-3.7m-11.5-25.82l6.62 4-.015 8.185s-.404-4.797-3.218-8.47c-2.583-3.366-3.388-3.707-3.388-3.707m-.03 18.862l6.624 4-.016 8.2s-.404-4.802-3.217-8.474c-2.583-3.37-3.4-3.708-3.4-3.708m-10.865-25.426l6.624 3.992-.018 8.186s-.405-4.797-3.218-8.473c-2.583-3.368-3.388-3.705-3.388-3.705m-.03 18.856L36 123.885l-.015 8.192s-.407-4.802-3.22-8.475c-2.582-3.374-3.387-3.7-3.387-3.7m-11.748-7.074l6.62 3.993-.014 8.2s-.404-4.804-3.22-8.476c-2.582-3.37-3.385-3.708-3.385-3.708"/><path d="M51.784 152.238l6.623 4-.015 8.2s-.403-4.798-3.218-8.473c-2.58-3.365-3.4-3.708-3.4-3.708M17.392 131.5l6.62 4-.016 8.2s-.403-4.8-3.215-8.473c-2.587-3.37-3.4-3.706-3.4-3.706M4.1 93.475l6.618 4-.015 8.188s-.4-4.8-3.215-8.47c-2.583-3.372-3.388-3.7-3.388-3.7m-.03 19.132l6.62 4-.016 8.192s-.402-4.798-3.216-8.474c-2.585-3.368-3.388-3.707-3.388-3.707m63.964 19.4l6.624 4-.018 8.2s-.4-4.797-3.215-8.467c-2.585-3.374-3.4-3.712-3.4-3.712m-.03 19.13l6.62 3.992-.014 8.2s-.4-4.8-3.22-8.474c-2.584-3.368-3.388-3.707-3.388-3.707"/></g></svg>