<svg xmlns="http://www.w3.org/2000/svg" viewBox="0 0 124.348 125.232"><path d="M1.482 24.83a1.71 1.71 0 0 1 .209.076L46.543 1.1a1.63 1.63 0 0 0-.208-.077c-.186-.05-.465-.095-.73.002l-.007.004c-.034.012-.068.027-.102.044L.64 24.88a1.23 1.23 0 0 1 .841-.05z" fill="#6089b1"/><path d="M1.7 24.907l44.853-23.81L59.18 8.7 14.326 32.5z" fill="#276e9f"/><path d="M59.69.076l-44.853 23.81c.39-.198.758-.017.994.125L60.686.2c-.38-.267-.78-.223-.995-.125z" fill="#6089b1"/><defs><filter id="A" filterUnits="userSpaceOnUse" x="77.633" y="97.011" width="46.715" height="27.885"><feColorMatrix values="1 0 0 0 0 0 1 0 0 0 0 0 1 0 0 0 0 0 1 0"/></filter></defs><mask maskUnits="userSpaceOnUse" x="77.633" y="97.011" width="46.715" height="27.885" id="B"><g filter="url(#A)"><path d="M79.495 120.82c.001 2.05-.714 3.468-1.862 4.076l44.853-23.808c1.148-.6 1.863-2.027 1.862-4.076" fill="#fff"/></g></mask><path d="M79.495 120.82l44.853-23.81c.001 2.05-.714 3.467-1.862 4.077l-44.853 23.808c1.147-.608 1.863-2.026 1.862-4.076" mask="url(#B)" fill="#1c5a84"/><path d="M15.832 24.01l45.09 27.093 44.853-23.81L60.685.202z" fill="#276e9f"/><path d="M62.41 53.786l44.854-23.81.004 7.6-44.853 23.808z" fill="#1a5881"/><path d="M105.775 27.295l-44.85 23.81c.84.568 1.486 1.738 1.486 2.684l44.855-23.81c.001-1.16-.64-2.066-1.5-2.684z" fill="#1c5a84"/><path d="M62.416 61.395l44.854-23.81 14.166 8.512-44.854 23.81z" fill="#276e9f"/><path d="M79.462 74.684l.033 46.136 44.853-23.81-.033-46.136z" fill="#1a5881"/><defs><filter id="C" filterUnits="userSpaceOnUse" x="0" y="23.802" width="79.495" height="101.43"><feColorMatrix values="1 0 0 0 0 0 1 0 0 0 0 0 1 0 0 0 0 0 1 0"/></filter></defs><mask maskUnits="userSpaceOnUse" x="0" y="23.802" width="79.495" height="101.43" id="D"><g filter="url(#C)"><path d="M0 23.802h79.495v101.43H0z" fill="#fff"/></g></mask><path d="M60.923 51.103c.82.493 1.487 1.693 1.488 2.683l.005 7.61 14.166 8.512c2.878 1.728 2.88 4.625 2.88 4.777l.033 46.136c.002 3.932-2.634 5.536-5.897 3.575L5.938 83.74C2.68 81.784.035 77.006.032 73.074L0 26.572c-.002-2.435 1.606-1.704 1.69-1.665L14.326 32.5l-.006-7.448c.03-1.133.69-1.535 1.512-1.04l45.09 27.093z" mask="url(#D)" fill="#1f5f8b"/><path d="M121.436 46.097l-44.854 23.8c1.497.865 2.88 3.03 2.88 4.777l44.854-23.81c0-2.078-1.343-3.79-2.88-4.778z" fill="#1c5a84"/><path d="M75.937 88.085l-8.69-5.223V70.015l8.69 5.22v12.85zm0 19.132l-8.692-5.223V89.142l8.69 5.222.001 12.853zM59.597 70.52l-8.7-5.22V52.445l8.7 5.222V70.52zm0 19.13l-8.7-5.22V71.577l8.7 5.223v12.85zm0 18.738l-8.7-5.222V90.314l8.7 5.22v12.853zm-11.64-44.862l-8.693-5.222V45.45l8.693 5.223v12.853zm0 19.13l-8.693-5.222V64.58l8.693 5.224v12.85zm-19.68-11.823V57.98l8.695 5.225v12.852l-8.695-5.225zm-3.006-20.936l-8.693-5.224V31.82l8.693 5.225v12.853zm0 19.13l-8.692-5.222V50.952l8.693 5.223-.001 12.85zm-.338 18.534l-8.69-5.222V69.485l8.69 5.223V87.56zm3.344-48.71l8.695 5.224v12.855l-8.695-5.225V38.85zM11.5 49.368l-8.694-5.224V31.296L11.5 36.52v12.848zm0 19.13l-8.694-5.225v-12.85l8.695 5.224V68.5zM29.403 97.47V78.147l7.284 4.377v19.322l-7.284-4.375zm9.264 5.565v-19.32l7.07 4.248v19.323l-7.07-4.25z" fill="#fefefe"/><g fill="#d6dee6"><path d="M52.2 54.73l6.667 4.02L58.85 67s-.404-4.83-3.24-8.53c-2.6-3.4-3.412-3.73-3.412-3.73M17.78 33.983L24.447 38l-.016 8.24s-.407-4.83-3.242-8.53c-2.6-3.4-3.408-3.73-3.408-3.73m34.39 39.74l6.668 4.02-.017 8.247s-.404-4.832-3.24-8.532c-2.6-3.394-3.412-3.734-3.412-3.734m-11.6-26l6.667 4.018-.016 8.242s-.405-4.83-3.238-8.53c-2.6-3.4-3.413-3.73-3.413-3.73m-.03 18.988l6.668 4.02-.017 8.247s-.405-4.833-3.238-8.532c-2.6-3.394-3.413-3.734-3.413-3.734m-10.94-25.603l6.67 4.02-.017 8.242s-.408-4.832-3.242-8.532c-2.6-3.392-3.4-3.73-3.4-3.73m-.032 18.988l6.67 4.02-.017 8.246s-.407-4.833-3.24-8.534c-2.6-3.393-3.412-3.732-3.412-3.732M17.75 52.97l6.666 4.018-.016 8.248s-.406-4.834-3.242-8.535c-2.6-3.393-3.408-3.73-3.408-3.73"/><path d="M52.14 92.664l6.667 4.02-.016 8.245s-.404-4.832-3.24-8.532c-2.6-3.4-3.4-3.732-3.4-3.732M17.5 71.8l6.666 4.018-.016 8.244s-.407-4.832-3.237-8.53C18.32 72.13 17.5 71.8 17.5 71.8M4.137 33.493l6.665 4.018-.016 8.248s-.405-4.834-3.238-8.53c-2.602-3.393-3.4-3.736-3.4-3.736m-.033 19.273l6.666 4.018-.017 8.246s-.404-4.832-3.237-8.532c-2.6-3.4-3.412-3.732-3.412-3.732M68.513 72.3l6.667 4.02-.016 8.247s-.403-4.832-3.237-8.53c-2.602-3.392-3.414-3.736-3.414-3.736m-.03 19.272l6.667 4.02-.016 8.245s-.403-4.83-3.238-8.532c-2.6-3.4-3.413-3.732-3.413-3.732"/></g></svg>