<svg xmlns="http://www.w3.org/2000/svg" viewBox="0 0 208.73 215.073"><style><![CDATA[.J{fill:#fefefe}.K{fill:#d6dee6}]]></style><path d="M1.84 26.193c1.46-.63 2.88-.194 3.977.486L54.657.755C53.422-.028 52.612-.1 51.075.097L1.84 26.193z" fill="#216391"/><path d="M208.73 184.806l-48.84 25.926c.018 1.83-.628 3.252-1.842 4.008l48.84-25.924c1.45-.715 1.843-2.623 1.843-4z" fill="#18547d"/><path d="M54.656.755l148.192 89.043L154 115.722 5.816 26.68z" fill="#276e9f"/><g fill="#19557d"><path d="M159.83 126.236l48.84-25.925.06 84.495-48.84 25.926z"/><path d="M202.85 89.798L154 115.722c3.223 2.066 5.82 6.83 5.82 10.514l48.84-25.924c0-3.902-2.572-8.463-5.82-10.514z"/></g><defs><filter id="A" filterUnits="userSpaceOnUse" x="0" y="25.859" width="159.889" height="189.214"><feColorMatrix values="1 0 0 0 0 0 1 0 0 0 0 0 1 0 0 0 0 0 1 0"/></filter></defs><mask maskUnits="userSpaceOnUse" x="0" y="25.859" width="159.889" height="189.214" id="B"><g filter="url(#A)"><path d="M0 25.86h159.89v189.214H0z" fill="#fff"/></g></mask><path d="M154 115.722c3.197 1.922 5.816 6.65 5.82 10.514l.06 84.496c.004 3.86-2.613 5.445-5.81 3.524L5.887 125.213C2.682 123.288.06 118.558.06 114.696L0 30.2c-.004-3.864 2.614-5.447 5.817-3.522L154 115.722z" mask="url(#B)" fill="#1f608c"/><path d="M95.582 129.974l-8.69-5.223v-12.853l8.69 5.222v12.854zm0 19.13l-8.69-5.22v-12.85l8.69 5.22v12.852zm0 18.736l-8.69-5.22v-12.852l8.69 5.22v12.85zm-11.64-44.86l-8.693-5.22v-12.855l8.693 5.224v12.852zm0 19.13l-8.693-5.223v-12.85l8.693 5.222v12.852zm-19.677-11.824v-12.852l8.695 5.225v12.853l-8.695-5.226zm-3.006-20.936l-8.694-5.223V91.273l8.694 5.222v12.854zm0 19.13l-8.694-5.225v-12.85l8.694 5.224v12.852zm-.34 18.533l-8.69-5.223v-12.853l8.69 5.223v12.853zm3.346-48.71l8.695 5.225v12.853l-8.695-5.224V98.302zm1.125 58.62V137.6l7.283 4.377v19.32l-7.283-4.375zm9.263 5.567v-19.323l7.07 4.248v19.323l-7.07-4.248z" class="J"/><path d="M88.186 113.962l6.668 4.02-.016 8.242s-.406-4.832-3.24-8.532c-2.602-3.4-3.412-3.73-3.412-3.73m-34.42-20.748l6.666 4.018-.016 8.242s-.406-4.83-3.242-8.53c-2.598-3.392-3.408-3.73-3.408-3.73m34.39 39.736l6.668 4.02-.016 8.246s-.404-4.832-3.24-8.532c-2.6-3.395-3.412-3.734-3.412-3.734m-11.6-26l6.668 4.018-.016 8.242s-.406-4.83-3.238-8.528c-2.602-3.393-3.414-3.732-3.414-3.732m-.03 19l6.666 4.02-.016 8.246s-.404-4.832-3.238-8.532c-2.6-3.394-3.412-3.734-3.412-3.734m-10.94-25.603l6.67 4.02-.016 8.242s-.4-4.832-3.244-8.532c-2.6-3.4-3.4-3.73-3.4-3.73m-.042 18.99l6.67 4.02-.016 8.246s-.408-4.832-3.242-8.534c-2.6-3.393-3.412-3.732-3.412-3.732m-11.814-7.123l6.666 4.02-.016 8.246s-.406-4.832-3.242-8.534c-2.6-3.393-3.408-3.732-3.408-3.732m34.39 39.69l6.668 4.02-.016 8.246s-.404-4.832-3.24-8.532c-2.6-3.4-3.412-3.734-3.412-3.734m-34.63-20.874l6.666 4.018-.016 8.244s-.408-4.832-3.238-8.53c-2.6-3.392-3.412-3.732-3.412-3.732" class="K"/><path d="M141.455 158.66l-8.69-5.22v-12.854l8.69 5.22v12.855zm0 19.13l-8.69-5.223v-12.85l8.69 5.222V177.8zm0 18.737l-8.69-5.22v-12.853l8.69 5.223v12.85zm-11.64-44.862l-8.69-5.223V133.59l8.69 5.222v12.854zm0 19.13l-8.69-5.225v-12.85l8.69 5.224v12.852zM110.14 158.97v-12.85l8.695 5.225v12.85l-8.695-5.225zm-3.006-20.934l-8.694-5.225V119.96l8.694 5.224v12.854zm0 19.128l-8.694-5.223v-12.85l8.694 5.222v12.852zm-.34 18.534l-8.692-5.223v-12.85l8.692 5.222V175.7zm3.346-48.712l8.695 5.225v12.855l-8.695-5.224v-12.856z" class="J"/><path d="M134.06 142.65l6.666 4.018-.016 8.242s-.404-4.83-3.24-8.53c-2.6-3.4-3.4-3.73-3.4-3.73m-34.43-20.748l6.666 4.018-.016 8.24s-.406-4.83-3.242-8.53c-2.6-3.4-3.408-3.73-3.408-3.73m34.4 39.738l6.668 4.018-.018 8.248s-.402-4.832-3.238-8.532c-2.6-3.394-3.412-3.734-3.412-3.734m-11.602-26.002l6.666 4.02-.016 8.24s-.404-4.828-3.238-8.528c-2.6-3.392-3.412-3.732-3.412-3.732m-.03 19l6.666 4.018-.016 8.248s-.406-4.834-3.238-8.532c-2.6-3.394-3.412-3.734-3.412-3.734m-10.94-25.603l6.67 4.02-.018 8.24s-.408-4.83-3.242-8.53c-2.6-3.392-3.4-3.732-3.4-3.732m-.04 18.99l6.67 4.02-.016 8.247s-.408-4.834-3.242-8.534c-2.6-3.394-3.412-3.734-3.412-3.734M99.6 140.9l6.664 4.018-.016 8.248s-.406-4.834-3.24-8.536c-2.6-3.392-3.408-3.73-3.408-3.73m34.4 39.68l6.668 4.02-.016 8.244s-.406-4.832-3.24-8.532c-2.6-3.4-3.412-3.732-3.412-3.732m-34.63-20.874l6.666 4.02-.018 8.244s-.406-4.832-3.236-8.532c-2.603-3.4-3.412-3.732-3.412-3.732" class="K"/><path d="M49.332 103.37l-8.69-5.222V85.296l8.69 5.22v12.854zm0 19.13l-8.69-5.222v-12.85l8.69 5.22V122.5zm0 18.736l-8.69-5.22v-12.853l8.69 5.222v12.85zm-11.64-44.86L29 91.154V78.3l8.69 5.223v12.853zm0 19.13L29 110.283v-12.85l8.69 5.223v12.852zm-19.675-11.824V90.83l8.695 5.225v12.852l-8.695-5.225zM15 82.747l-8.694-5.224V64.67L15 69.893v12.854zm0 19.13l-8.694-5.224v-12.85L15 89.025v12.852zm-.34 18.533l-8.692-5.223v-12.852l8.692 5.223V120.4zm3.346-48.71l8.695 5.225v12.854l-8.695-5.224V71.7z" class="J"/><path d="M41.937 87.36l6.666 4.02-.016 8.242s-.404-4.83-3.24-8.53c-2.6-3.4-3.4-3.73-3.4-3.73m-34.43-20.75l6.666 4.018-.016 8.24s-.406-4.83-3.242-8.53c-2.6-3.4-3.408-3.73-3.408-3.73m34.39 39.74l6.668 4.02-.018 8.247s-.402-4.832-3.238-8.532c-2.6-3.394-3.412-3.734-3.412-3.734m-11.6-26.003l6.666 4.02-.016 8.24s-.404-4.83-3.238-8.528c-2.6-3.392-3.412-3.732-3.412-3.732m-.03 18.99l6.666 4.02-.016 8.247s-.406-4.833-3.238-8.532c-2.6-3.394-3.412-3.734-3.412-3.734m-10.94-25.603l6.67 4.02-.018 8.24s-.408-4.83-3.242-8.53c-2.6-3.4-3.4-3.73-3.4-3.73m-.04 18.988l6.67 4.02-.016 8.246s-.408-4.833-3.242-8.534c-2.6-3.393-3.412-3.733-3.412-3.733M7.488 85.6l6.664 4.02-.016 8.247s-.406-4.833-3.24-8.535c-2.6-3.392-3.408-3.73-3.408-3.73m34.39 39.7l6.668 4.02-.016 8.245s-.406-4.832-3.24-8.532c-2.6-3.4-3.412-3.733-3.412-3.733m-34.63-20.874l6.666 4.02-.018 8.244s-.406-4.832-3.236-8.53c-2.603-3.4-3.412-3.732-3.412-3.732" class="K"/><path d="M153.484 202.308l-8.7-5.22v-12.85l8.7 5.22zm0-18.736l-8.7-5.22V165.5l8.7 5.22zm0-19.13l-8.7-5.223v-12.853l8.7 5.222z" class="J"/><path d="M146.1 148.43l6.666 4.02-.016 8.242s-.404-4.832-3.24-8.532c-2.6-3.4-3.4-3.73-3.4-3.73m-.05 19l6.668 4.02-.018 8.246s-.402-4.832-3.238-8.532c-2.6-3.394-3.412-3.734-3.412-3.734m-.03 18.943l6.668 4.02-.016 8.246s-.406-4.832-3.24-8.532c-2.6-3.4-3.412-3.734-3.412-3.734" class="K"/><path d="M109.87 163.492l8.7 5.224v12.852l-8.7-5.222m20.333 12.218l-8.7-5.222V170.5l8.7 5.22z" class="J"/><path d="M129.46 184.814s-.404-4.83-3.24-8.53c-2.6-3.4-3.4-3.73-3.4-3.73l6.666 4.02-.016 8.242m-18.294-19.276l6.666 4.02-.016 8.24s-.404-4.83-3.238-8.528c-2.6-3.392-3.412-3.732-3.412-3.732" class="K"/><path d="M17.664 108.804l8.693 5.225v12.85l-8.693-5.22m20.334 12.217l-8.7-5.223V115.8l8.7 5.222z" class="J"/><path d="M37.254 130.126s-.406-4.832-3.24-8.53c-2.602-3.4-3.412-3.73-3.412-3.73l6.668 4.02-.016 8.242M18.97 110.853l6.668 4.018-.016 8.242s-.406-4.83-3.238-8.528c-2.602-3.392-3.414-3.732-3.414-3.732" class="K"/><path d="M50.71 82.384l-8.69-5.22v-12.85l8.69 5.22v12.852zM39.068 75.4l-8.693-5.223v-12.85l8.693 5.222V75.4zM19.39 63.566V50.714l8.695 5.225v12.853l-8.695-5.226zm-3.006-1.805L7.69 56.536v-12.85l8.694 5.224V61.76z" class="J"/><path d="M43.28 66.232l6.668 4.02-.016 8.246s-.404-4.832-3.24-8.532c-2.6-3.394-3.412-3.734-3.412-3.734M31.65 59.22l6.666 4.02-.016 8.246s-.404-4.832-3.238-8.532c-2.6-3.394-3.412-3.734-3.412-3.734m-10.972-6.613l6.67 4.02-.016 8.246s-.408-4.832-3.242-8.534c-2.6-3.392-3.412-3.732-3.412-3.732M8.863 45.484l6.666 4.02-.016 8.246s-.406-4.832-3.242-8.534c-2.6-3.392-3.408-3.732-3.408-3.732" class="K"/><path d="M96.965 110.394l-8.69-5.222V92.32l8.69 5.22v12.852zm-11.64-6.994l-8.69-5.224v-12.85l8.69 5.223V103.4zM65.65 91.576V78.724l8.695 5.225V96.8l-8.695-5.225zm-3.006-1.806l-8.694-5.224v-12.85l8.694 5.223V89.77z" class="J"/><path d="M89.54 94.242l6.668 4.02-.018 8.247s-.402-4.832-3.238-8.532c-2.6-3.395-3.412-3.734-3.412-3.734M77.908 87.23l6.666 4.02-.016 8.247s-.406-4.833-3.238-8.532c-2.6-3.394-3.412-3.734-3.412-3.734m-10.972-6.615l6.67 4.02-.016 8.246s-.408-4.833-3.242-8.534c-2.602-3.393-3.412-3.733-3.412-3.733m-11.816-7.12l6.664 4.02-.016 8.247s-.406-4.833-3.24-8.535c-2.6-3.393-3.408-3.73-3.408-3.73" class="K"/><path d="M142.375 137.554l-8.69-5.223v-12.85l8.69 5.222v12.852zm-11.64-6.994l-8.693-5.225v-12.85l8.693 5.224v12.852zm-19.677-11.824v-12.852l8.695 5.225v12.85l-8.695-5.224zm-3.006-1.807l-8.694-5.223v-12.85l8.694 5.222v12.852z" class="J"/><path d="M134.947 121.402l6.668 4.018-.016 8.248s-.404-4.832-3.24-8.532c-2.6-3.394-3.412-3.734-3.412-3.734m-11.63-7.002l6.666 4.018-.016 8.248s-.404-4.834-3.238-8.532c-2.6-3.394-3.412-3.734-3.412-3.734m-10.972-6.625l6.67 4.02-.016 8.247s-.408-4.834-3.242-8.534c-2.6-3.394-3.412-3.734-3.412-3.734m-11.814-7.12l6.666 4.018-.016 8.248s-.406-4.834-3.242-8.536c-2.6-3.392-3.408-3.73-3.408-3.73" class="K"/><path d="M153.883 144.09l-8.693-5.223v-12.85l8.693 5.222z" class="J"/><path d="M146.36 127.814l6.666 4.018-.016 8.248s-.406-4.834-3.242-8.536c-2.6-3.392-3.408-3.73-3.408-3.73" class="K"/></svg>