<svg xmlns="http://www.w3.org/2000/svg" viewBox="0 0 90.411 116.551"><defs><filter id="A" filterUnits="userSpaceOnUse" x=".559" y="0" width="41.986" height="21.893"><feColorMatrix values="1 0 0 0 0 0 1 0 0 0 0 0 1 0 0 0 0 0 1 0"/></filter></defs><mask maskUnits="userSpaceOnUse" x=".559" y="0" width="41.986" height="21.893" id="B"><g filter="url(#A)"><path d="M41.334.1L.558 21.744c.317-.168.743-.13 1.21.15L42.546.25c-.284-.17-.552-.25-.8-.25-.155 0-.297.034-.422.1" fill="#fff"/></g></mask><path d="M41.855.003l-.004.002c-.192-.018-.367.015-.517.095L.56 21.743c.15-.08.327-.113.52-.096.2.02.444.1.69.246L42.545.25c-.244-.148-.478-.228-.7-.248z" mask="url(#B)" fill="#447ca8"/><defs><filter id="C" filterUnits="userSpaceOnUse" x="47.731" y="90.39" width="42.679" height="25.822"><feColorMatrix values="1 0 0 0 0 0 1 0 0 0 0 0 1 0 0 0 0 0 1 0"/></filter></defs><mask maskUnits="userSpaceOnUse" x="47.731" y="90.39" width="42.679" height="25.822" id="D"><g filter="url(#C)"><path d="M49.634 112.034c.002 2.102-.73 3.556-1.902 4.178l40.775-21.645c1.172-.622 1.904-2.075 1.903-4.176" fill="#fff"/></g></mask><path d="M49.634 112.034L90.4 90.4c.001 2.102-.732 3.555-1.903 4.177L47.73 116.212c1.172-.622 1.904-2.075 1.903-4.178" mask="url(#D)" fill="#1c5a84"/><path d="M1.77 21.895l46.05 27.668L88.593 27.92 42.545.25z" fill="#276e9f"/><path d="M90.41 90.39V31.12L49.59 52.764l.043 59.27z" fill="#19557d"/><defs><filter id="E" filterUnits="userSpaceOnUse" x="47.818" y="27.919" width="42.549" height="24.844"><feColorMatrix values="1 0 0 0 0 0 1 0 0 0 0 0 1 0 0 0 0 0 1 0"/></filter></defs><mask maskUnits="userSpaceOnUse" x="47.818" y="27.919" width="42.549" height="24.844" id="F"><g filter="url(#E)"><path d="M47.818 49.563c.98.588 1.772 2.02 1.773 3.2L90.366 31.12c0-1.18-.793-2.61-1.773-3.2" fill="#fff"/></g></mask><path d="M88.594 27.92L47.818 49.563c1.12.772 1.682 2 1.773 3.2l40.775-21.645c.001-1.354-.78-2.41-1.772-3.198z" mask="url(#F)" fill="#4d7ea6"/><path d="M47.818 49.563c.98.588 1.772 2.02 1.772 3.2l.044 59.27c.003 4.013-2.67 5.66-5.967 3.678L6.02 93.09C2.72 91.11.044 86.25.04 82.235L0 22.965c-.001-1.18.79-1.66 1.77-1.07l46.05 27.67z" fill="#1f608c"/><path d="M46.138 71.74l-8.7-5.222V53.665l8.7 5.22V71.74zm0 19.13l-8.7-5.222v-12.85l8.7 5.22V90.87zm0 18.736l-8.7-5.22V91.533l8.7 5.222v12.85zm-11.64-44.86l-8.692-5.222V46.67l8.692 5.223v12.853zm0 19.13l-8.692-5.224V65.8l8.692 5.223v12.852zM14.82 72.052V59.2l8.695 5.225v12.852l-8.695-5.225zm-3.006-20.936L3.12 45.892V33.04l8.693 5.223v12.854zm0 19.13L3.12 65.022V52.17l8.693 5.223v12.852zm-.34 18.533l-8.69-5.223V70.704l8.69 5.223V88.78zm3.345-48.71l8.695 5.225v12.854l-8.695-5.224V40.068zM15.945 98.7V79.367l7.284 4.377v19.32L15.945 98.7zm9.265 5.566V84.933l7.07 4.25v19.323l-7.07-4.25z" fill="#fefefe"/><path d="M38.742 55.73l6.667 4.02-.015 8.25s-.406-4.83-3.24-8.53c-2.6-3.4-3.412-3.73-3.412-3.73M4.323 34.98L11 39l-.016 8.24s-.406-4.83-3.242-8.53c-2.6-3.4-3.408-3.73-3.408-3.73m34.388 39.738l6.667 4.02-.016 8.247s-.404-4.832-3.24-8.532c-2.6-3.394-3.412-3.734-3.412-3.734M27.1 48.717l6.667 4.02-.016 8.24s-.405-4.83-3.238-8.528c-2.6-3.392-3.413-3.732-3.413-3.732m-.02 18.99l6.667 4.02-.016 8.247s-.405-4.833-3.238-8.532c-2.602-3.394-3.413-3.734-3.413-3.734M16.14 42.103l6.67 4.02-.016 8.24s-.4-4.83-3.243-8.53c-2.6-3.4-3.4-3.73-3.4-3.73m-.033 18.99l6.67 4.02-.016 8.246s-.408-4.833-3.24-8.534C16.92 61.43 16.1 61.09 16.1 61.09M4.293 53.97L10.96 58l-.016 8.247s-.406-4.833-3.24-8.535c-2.6-3.392-3.4-3.73-3.4-3.73m34.4 39.688l6.667 4.02-.016 8.245s-.404-4.832-3.24-8.532c-2.6-3.4-3.4-3.733-3.4-3.733M4.053 72.787l6.666 4.02-.016 8.244s-.407-4.832-3.237-8.53c-2.603-3.4-3.413-3.732-3.413-3.732" fill="#d6dee6"/></svg>