<svg xmlns="http://www.w3.org/2000/svg" xmlns:xlink="http://www.w3.org/1999/xlink" viewBox="0 0 274.629 277.106"><style><![CDATA[.w{fill:#143b55}.x{fill:#1e567d}.y{fill:#276e9f}.z{fill:#215880}.AA{fill:#1c4f73}.AB{fill:#d6dee6}.AC{fill:#276b9c}.AD{fill:#286c9d}]]></style><path d="M133.623 208.21l-13.33-.025 13.33.025z" fill="#fefefe"/><path d="M82.617 58.975L.76 102.418c.388-.212.92-.074 1.178.032l81.857-43.444c-.396-.157-.9-.176-1.178-.03z" fill="#1d5176"/><path d="M1.937 102.45l81.858-43.443 65.36 39.297-81.857 43.444z" class="y"/><path d="M149.752 88.693l-81.857 43.443c.376-.2.85-.023 1.102.143l81.857-43.443c-.313-.29-.816-.275-1.102-.143z" class="z"/><path d="M119.373 162.662l-50.377-30.384 81.857-43.443 50.377 30.382z" class="y"/><path d="M202.883 129.743l.005-7.523-81.857 43.443-.006 7.524 71.358-37.872-71.358 37.872-.006.962 81.858-43.443.005-.963z" class="x"/><path d="M201.23 119.22l-81.857 43.443c.965.584 1.66 2.04 1.66 3.002L202.9 122.22a3.46 3.46 0 0 0-1.66-3.002z" fill="#2b75ac"/><path d="M274.58 228.746l-81.857 43.445c0 1.935-.688 3.812-2.078 4.54l81.857-43.445c1.534-.82 2.078-2.763 2.078-4.54z" class="AA"/><path d="M274.58 228.747l-81.858 43.444.048-51.49 81.858-43.444z" fill="#19557d"/><path d="M121.02 174.15l81.857-43.443 68.663 41.3-81.858 43.443-.123-.075-68.54-41.215" class="y"/><path d="M271.54 171.998l-81.857 43.443c2.12 1.322 3.02 3.578 3.1 5.248v.012l81.857-43.455c0-1.992-1.374-4.174-3.1-5.248z" fill="#2b75ac"/><defs><filter id="A" filterUnits="userSpaceOnUse" x="0" y="102.299" width="192.771" height="174.807"><feColorMatrix values="1 0 0 0 0 0 1 0 0 0 0 0 1 0 0 0 0 0 1 0"/></filter><path id="B" d="M173.992 225.41l9.615 5.6-.138-13.588-9.33-5.793z"/><path id="C" d="M148.236 209.942l9.615 5.6-.136-13.588-9.33-5.793z"/><path id="D" d="M43.108 135.374l6.667 4.02-.016 8.242s-.405-4.83-3.24-8.53c-2.6-3.4-3.41-3.73-3.41-3.73"/><path id="E" d="M4.806 112.13l6.666 4.018-.016 8.24s-.406-4.83-3.242-8.53c-2.6-3.39-3.408-3.73-3.408-3.73"/><path id="F" d="M17.608 119.486l6.668 4.02-.016 8.24s-.406-4.83-3.238-8.528c-2.602-3.392-3.414-3.732-3.414-3.732"/><path id="G" d="M55.933 163.882l6.67 4.02-.017 8.24s-.41-4.83-3.243-8.53c-2.6-3.39-3.4-3.73-3.4-3.73"/></defs><mask maskUnits="userSpaceOnUse" x="0" y="102.299" width="192.771" height="174.807" id="H"><g filter="url(#A)"><path d="M0 102.3h192.77v174.807H0z" fill="#fff"/></g></mask><path d="M68.996 132.278l50.377 30.384c.912.548 1.658 1.894 1.658 3l-.012 8.486 68.54 41.215c3.205 1.933 3.212 5.315 3.212 5.338l-.048 51.49c-.004 4.393-2.952 6.17-6.6 3.972L6.58 168.117c-3.635-2.192-6.6-7.53-6.58-11.92l.043-51.894c.004-2.722 1.8-1.896 1.894-1.853l65.36 39.298.045-8.3c-.002-1.285.736-1.732 1.654-1.18" mask="url(#H)" fill="#1f608c"/><path d="M182.62 163.937h.174c-.12-.01-.174 0-.174 0" class="AB"/><path d="M133.646 133.995l38.98-20.687.007 10.59-38.98 20.69z" fill="#19557d"/><path d="M100.7 114.202l38.98-20.687 32.944 19.792-38.98 20.688z" class="y"/><path d="M133.646 133.995l.006 10.593-32.943-19.793-.008-10.593z" class="w"/><path d="M134.795 91.69l23.39-12.412.025 35.987-23.387 12.412z" class="x"/><g class="w"><path d="M134.81 90.956l.013 36.72-20.734-12.456-.01-36.72z"/><path d="M136.07 89.838v2.57l-24.326-14.623v-2.57l24.326 14.623z"/></g><path d="M111.744 75.215l23.39-12.412 24.327 14.623-23.4 12.412-24.326-14.623z" fill="#225e89"/><path d="M134.254 45.303l23.39-12.413.03 43.392-23.39 12.414z" class="x"/><path d="M134.254 45.303l.06 44.735-20.726-12.453-.06-44.734z" class="w"/><path d="M117.76 44.105c.567-.326 1.252-.373 1.844-.424.682-.01 1.3.2 1.934.4.65.237 1.27.63 1.832.98.706.47 1.37 1.1 1.943 1.643.73.736 1.394 1.647 1.96 2.418.548.788 1.012 1.667 1.424 2.5.396.81.716 1.742.98 2.512l.11.38v.002l.2.795c.13.536.196 1.073.268 1.584.083.632.072 1.293.063 1.88-.015.513-.118 1.01-.203 1.48-.125.65-.435 1.23-.72 1.773-.377.588-.855 1.037-1.414 1.334l.39-.207c1.148-.692 1.613-1.573 2.03-2.71.34-1.106.34-2.242.283-3.373-.066-.944-.278-1.864-.506-2.76v-.002c-.314-1.164-.79-2.263-1.305-3.332-.633-1.224-1.318-2.214-2.027-3.178-.77-1.025-1.85-1.968-2.768-2.717-.66-.514-1.4-.874-2.148-1.204-.733-.31-1.538-.377-2.318-.393-.678.033-1.34.378-1.85.62z" fill="#cbcbcb"/><path d="M122.863 44.74c4.12 2.477 7.463 8.508 7.467 13.478s-3.334 6.988-7.455 4.512-7.465-8.5-7.47-13.478 3.334-6.99 7.457-4.512" fill="#888788"/><path d="M122.76 56.244l.39-.207.228.064-.4.206z" fill="#1d5174"/><path d="M122.986 56.307l.39-.206-.118.255-.388.207z" fill="#16405d"/><path d="M122.87 56.563l.39-.207.636.713-.4.207z" class="AC"/><path d="M122.986 56.307l-.115.256.635.713c-.15.047-.336.016-.538-.105-.492-.296-.886-1.01-.886-1.602 0-.387.166-.623.418-.658l.26 1.333.227.063z" class="w"/><path d="M122.36 54.956l.39-.207c.02-.01.04-.02.06-.026l-.4.206c-.02.007-.04.016-.06.027" fill="#123953"/><path d="M122.42 54.93l.39-.206a.45.45 0 0 1 .06-.017l-.39.207c-.02.004-.04.01-.062.016" fill="#143b56"/><path d="M122.482 54.913l.39-.207-.37.205" fill="#163e5a"/><path d="M122.5 54.91l.39-.207.257 1.333-.388.207z" fill="#24618e"/><path d="M123.13 56l.39-.207-.145.308-.39.206z" fill="#17405c"/><path d="M123.13 55.998l.39-.207.714.802-.4.207z" class="AC"/><g fill="#24618e"><path d="M122.94 55.016l.39-.207.19.984-.4.207z"/><path d="M121.992 50.14l.39-.207.95 4.877-.39.207z"/></g><path d="M122.94 55.016l.39-.207c.007.005.015.01.023.014l-.39.207-.025-.014" class="x"/><path d="M122.965 55.03l.39-.207.004.002-.39.207" class="z"/><path d="M123.855 56.636l.39-.207v.02l-.39.207z" class="AA"/><path d="M123.855 56.657l.39-.207-.002.044-.39.207c.002-.015.002-.028.002-.044" fill="#1b4d70"/><path d="M123.854 56.7l.39-.207-.004.044-.39.207.002-.044" fill="#194b6d"/><path d="M123.852 56.745l.39-.207c0 .016-.002.03-.004.045l-.39.207.006-.045" fill="#194a6b"/><path d="M123.846 56.8l.39-.207-.393.217" fill="#194766"/><g class="w"><path d="M123.13 56l-.145.307-.226-.065-1.213-6.228-.326-.427-.094-2.826 1.055 3.1-.2.28.947 4.877z"/><path d="M122.97 55.032c.486.293.887 1.01.887 1.604a1.08 1.08 0 0 1-.012.164l-.713-.8-.19-.985c.01.006.02.01.03.016"/></g><path d="M122.97 55.032l.39-.207.023.015-.39.207-.02-.015" class="z"/><path d="M123 55.047l.39-.207a.47.47 0 0 0 .037.024l-.39.207-.037-.024" fill="#215b84"/><path d="M123.027 55.07l.39-.207.037.026-.39.207c-.014-.008-.025-.018-.04-.026" fill="#225c86"/><path d="M123.066 55.097l.39-.207.037.028-.39.207c-.014-.008-.025-.02-.037-.028" fill="#23608b"/><path d="M123.104 55.126l.39-.207.04.032-.39.207-.04-.032" fill="#23618e"/><path d="M123.143 55.158l.39-.207.04.034-.39.207-.04-.034" fill="#236390"/><path d="M123.182 55.192l.39-.207.04.036-.39.207-.04-.036" fill="#256593"/><path d="M123.22 55.228l.39-.207.04.038-.39.207c-.012-.014-.025-.025-.037-.038" fill="#256796"/><path d="M123.258 55.266l.39-.207.037.038-.39.207-.037-.038" fill="#266a9a"/><path d="M123.295 55.305l.39-.207.035.038-.39.207z" class="AD"/><path d="M123.33 55.343l.39-.207c.01.014.02.026.03.04l-.39.207-.033-.04" fill="#286e9f"/><path d="M123.363 55.382l.39-.207.033.04-.39.207c-.01-.014-.02-.026-.03-.04" fill="#437fab"/><path d="M123.395 55.42l.39-.207c.01.014.02.026.03.04l-.39.207-.03-.04" fill="#4d87af"/><path d="M123.426 55.46l.39-.207.033.045-.39.207-.033-.045" fill="#548cb5"/><path d="M123.46 55.506l.39-.207.035.05-.39.207c-.01-.018-.02-.033-.033-.05" fill="#5c91b7"/><path d="M123.492 55.556l.39-.207c.052.077.1.16.142.244l-.388.207a2.12 2.12 0 0 0-.145-.244" fill="#6195b8"/><path d="M123.637 55.8l.39-.207.025.052-.39.206-.025-.05" fill="#5c91b7"/><path d="M123.662 55.85l.39-.206.023.048-.39.207-.02-.05" fill="#548cb5"/><path d="M123.684 55.9l.39-.207.017.04-.4.207z" fill="#4d87af"/><path d="M123.7 55.94l.39-.207c.004.014.01.027.015.04l-.388.207-.018-.04" fill="#437fab"/><path d="M123.72 55.98l.39-.207a.34.34 0 0 1 .015.041l-.388.207-.016-.04" fill="#286e9f"/><path d="M123.734 56.02l.39-.207a.34.34 0 0 1 .015.041l-.4.207c-.004-.014-.01-.027-.014-.04" class="AD"/><path d="M123.748 56.062l.39-.207.015.043-.4.207c-.004-.015-.01-.028-.016-.043" fill="#266a9a"/><path d="M123.764 56.105l.39-.207c.004.015.007.03.013.044l-.4.207-.014-.044" fill="#256796"/><path d="M123.777 56.15l.39-.207c.004.016.007.03.013.046l-.4.207-.014-.046" fill="#256593"/><path d="M123.79 56.195l.39-.207.01.048-.4.207-.012-.048" fill="#236390"/><path d="M123.803 56.243l.39-.207.01.047-.4.207z" fill="#23618e"/><path d="M123.814 56.3l.39-.207c.004.016.005.032.01.048l-.4.207c-.001-.017-.006-.032-.01-.048" fill="#23608b"/><path d="M123.824 56.338l.39-.207c.004.017.005.032.007.048l-.388.207c-.002-.016-.006-.032-.01-.048" fill="#225c86"/><path d="M123.834 56.386l.39-.207c.004.016.006.03.007.047l-.388.207c-.004-.016-.006-.03-.008-.047" fill="#215b84"/><path d="M123.842 56.432l.39-.207.006.046-.39.206-.006-.045" class="z"/><path d="M123.848 56.477l.39-.206.004.046-.39.206-.004-.046" class="x"/><path d="M123.852 56.523l.39-.206.004.045-.39.207-.002-.046" fill="#1f547a"/><path d="M123.854 56.57l.39-.207.002.045-.39.206-.002-.044" fill="#1d5176"/><path d="M123.855 56.613l.39-.206v.02l-.39.207z" class="AA"/><path d="M123.844 56.8l.39-.207 1.86 2.082-.39.207z" class="AC"/><path d="M126 58.718l.39-.207.95 1.982-.39.207z" class="AD"/><path d="M126.95 60.7l-1.504-.763v-.5l-2.576-2.884.115-.255.143-.3.715.802 1.86 2.082.295-.164z" class="w"/><path d="M122.182 49.86l.39-.207-.192.28-.388.207z" fill="#143b56"/><path d="M121.127 46.762l.39-.207 1.054 3.1-.4.207z" fill="#266997"/><g fill="#fefefe"><path d="M83.866 212.32l8.802 5.466V195.57l-8.846-5.698zm9.594-16.238v.02l-.084-.053h.1l.05 22.512 8.697 5.14.26-.1.03-21.7z"/><use xlink:href="#B"/><use xlink:href="#B" y="20.65"/><use xlink:href="#B" x="-12.746" y="-7.678"/><use xlink:href="#B" x="-12.746" y="12.97"/><use xlink:href="#C"/><use xlink:href="#C" y="20.648"/><use xlink:href="#C" x="-12.736" y="-7.678"/><use xlink:href="#C" x="-12.736" y="12.97"/><use xlink:href="#B" x="-51.396" y="-30.9"/><use xlink:href="#B" x="-51.396" y="-10.25"/><path d="M54.934 153.852l9.615 5.59-.138-13.587-9.33-5.793z"/><use xlink:href="#B" x="-119.058" y="-50.91"/><use xlink:href="#B" x="-131.804" y="-79.237"/><use xlink:href="#B" x="-131.804" y="-58.59"/><use xlink:href="#C" x="-119.058" y="-71.559"/><use xlink:href="#C" x="-119.058" y="-50.912"/><use xlink:href="#C" x="-131.804" y="-79.238"/><use xlink:href="#C" x="-131.804" y="-58.59"/><use xlink:href="#C" x="-40.111" y="-32.656"/><use xlink:href="#C" x="-40.111" y="-12.007"/><use xlink:href="#C" x="-52.856" y="-40.335"/><use xlink:href="#C" x="-52.856" y="-19.686"/><use xlink:href="#B" x="-91.622" y="-63.593"/><use xlink:href="#B" x="-91.622" y="-42.944"/><use xlink:href="#B" x="-104.367" y="-71.27"/><use xlink:href="#B" x="-104.367" y="-50.623"/><use xlink:href="#B" x="-66.285" y="-7.39"/><use xlink:href="#B" x="-104.367" y="-29.91"/><use xlink:href="#B" x="-170.455" y="-102.46"/><path d="M3.537 143.6l9.615 5.59-.138-13.587-9.33-5.793z"/></g><path d="M72.367,206.395l37.063,21.832" fill="none" stroke="#1f608c" stroke-width="2"/><g class="AB"><path d="M108.852 206.83l6.668 4.02-.018 8.247s-.402-4.832-3.238-8.532c-2.6-3.394-3.412-3.734-3.412-3.734"/><use xlink:href="#D"/><use xlink:href="#E"/><use xlink:href="#F"/><path d="M30.2 127.644l6.666 4.02-.016 8.247s-.406-4.833-3.238-8.532c-2.602-3.394-3.412-3.734-3.412-3.734m25.53 15.458l6.67 4.02-.017 8.24s-.4-4.83-3.243-8.53c-2.602-3.4-3.4-3.73-3.4-3.73M71 184.452l6.668 4.02-.016 8.245s-.405-4.832-3.24-8.532c-2.6-3.4-3.412-3.733-3.412-3.733"/></g><path d="M136.07 43.838v2.57l-24.326-14.623v-2.57l24.326 14.623z" class="w"/><path d="M111.744 29.215l23.39-12.412 24.327 14.623-23.4 12.412-24.326-14.623z" fill="#225e89"/><path d="M159.46 31.426v2.57l-23.4 12.412v-2.57l23.4-12.412z" class="x"/><g class="AB"><use xlink:href="#D" x="0.205" y="20.778"/><use xlink:href="#E" x="0.194" y="20.777"/><path d="M17.813 140.264l6.666 4.02-.016 8.24s-.404-4.83-3.238-8.528c-2.6-3.4-3.412-3.732-3.412-3.732m12.58 8.16l6.666 4.02-.016 8.247s-.404-4.833-3.238-8.532c-2.6-3.394-3.412-3.734-3.412-3.734"/><use xlink:href="#G"/><use xlink:href="#D" x="118.442" y="71.552"/><use xlink:href="#E" x="118.441" y="71.55"/><use xlink:href="#F" x="118.442" y="71.552"/><path d="M148.63 199.196l6.666 4.02-.016 8.247s-.406-4.833-3.238-8.532c-2.6-3.394-3.412-3.734-3.412-3.734"/><use xlink:href="#G" x="118.237" y="50.773"/><path d="M162.47 227.68l6.666 4.02-.016 8.242s-.404-4.83-3.24-8.53c-2.6-3.4-3.4-3.73-3.4-3.73m-38.314-23.248l6.666 4.018-.016 8.24s-.406-4.83-3.242-8.53c-2.6-3.392-3.408-3.73-3.408-3.73"/><path d="M136.968 211.8l6.667 4.02-.016 8.24s-.405-4.83-3.238-8.528c-2.6-3.392-3.413-3.732-3.413-3.732m12.582 8.16l6.666 4.02-.016 8.247s-.405-4.833-3.238-8.532c-2.6-3.394-3.412-3.734-3.412-3.734m25.538 15.457l6.67 4.02-.016 8.24s-.4-4.83-3.244-8.53c-2.6-3.4-3.4-3.73-3.4-3.73M96.23 159l6.668 4.02-.016 8.242s-.406-4.83-3.24-8.53c-2.6-3.4-3.412-3.73-3.412-3.73m-25.5-15.89l6.667 4.02-.016 8.24s-.405-4.83-3.238-8.528c-2.6-3.392-3.413-3.732-3.413-3.732m12.582 8.157l6.666 4.02-.016 8.247s-.405-4.833-3.238-8.532c-2.6-3.394-3.412-3.734-3.412-3.734m25.54 15.46l6.67 4.02-.018 8.24s-.408-4.83-3.242-8.53c-2.6-3.4-3.4-3.73-3.4-3.73"/><use xlink:href="#D" x="53.409" y="44.146"/><use xlink:href="#F" x="53.408" y="44.148"/><path d="M83.598 171.792l6.666 4.02-.016 8.247s-.406-4.833-3.238-8.532c-2.6-3.394-3.412-3.734-3.412-3.734"/><use xlink:href="#G" x="53.204" y="23.368"/></g><path d="M159.46 77.426v2.57l-23.4 12.412v-2.57l23.4-12.412z" class="x"/><defs><filter id="I" filterUnits="userSpaceOnUse" x="125.307" y="0" width="28.375" height="40.665"><feColorMatrix values="1 0 0 0 0 0 1 0 0 0 0 0 1 0 0 0 0 0 1 0"/></filter></defs><mask maskUnits="userSpaceOnUse" x="125.307" y="0" width="28.375" height="40.665" id="J"><g filter="url(#I)"><path d="M125.307 0h28.375v40.665h-28.375z" fill="#fff"/></g></mask><path d="M125.307 10.344L144.797 0l8.885 30.322-19.5 10.343z" mask="url(#J)" fill="#256695"/><path d="M125.307 10.344l8.885 30.32-17.725-10.65z" class="w"/></svg>