<svg xmlns="http://www.w3.org/2000/svg" xmlns:xlink="http://www.w3.org/1999/xlink" viewBox="0 0 271.87 185.188"><style><![CDATA[.AQ{fill:none}.AR{stroke:#626366}.AS{stroke-width:1.078}.AT{fill:#fff}.AU{fill:#fefefe}.AV{fill:#d6dee6}.AW{fill:#d0d2d3}.AX{fill:#bbbdbf}.AY{fill:#216390}.AZ{stroke-width:.115}]]></style><path d="M242.087 82.917c.094.293 3.477.175 4.705-.982 0 0-.707-.825.47-2.885 1.12-1.953 6.746-3.672 12.744.076 6.92 4.324 6.473 9.367 5.648 10.44-2.076 2.7-7.04 2.857-11.293.816-4.162-1.998-4.29-3.305-5.01-3.682 0 0-2.588 1.15-5.174.953 0 0 2.437 3.812 8.344 6.687 7.52 3.66 14.597 2.34 17.84-1.97 1.944-2.584 1.858-11.327-8.816-17.345-8.908-5.02-17.182-2.127-19.094 1.285-1.273 2.27-.7 5.58-.363 6.608" class="AX"/><path d="M242.087 82.917c.094.293 3.477.175 4.705-.982 0 0-.707-.825.47-2.885 1.12-1.953 6.746-3.672 12.744.076 6.92 4.324 6.473 9.367 5.648 10.44-2.076 2.7-7.04 2.857-11.293.816-4.162-1.998-4.29-3.305-5.01-3.682 0 0-2.588 1.15-5.174.953 0 0 2.437 3.812 8.344 6.687 7.52 3.66 14.597 2.34 17.84-1.97 1.944-2.584 1.858-11.327-8.816-17.345-8.908-5.02-17.182-2.127-19.094 1.285-1.273 2.27-.7 5.58-.363 6.608z" class="AQ AR AS"/><path d="M208.3 63.985c.094.293 3.477.176 4.705-.982 0 0-.707-.825.47-2.885 1.12-1.953 6.746-3.672 12.744.076 6.92 4.324 6.473 9.367 5.648 10.44-2.076 2.7-7.04 2.86-11.293.82-4.162-2-4.29-3.307-5.01-3.684 0 0-2.588 1.153-5.174.953 0 0 2.437 3.812 8.344 6.686 7.52 3.66 14.597 2.34 17.84-1.97 1.944-2.583 1.858-11.327-8.816-17.344-8.908-5.022-17.182-2.128-19.094 1.284-1.273 2.27-.7 5.58-.363 6.608" class="AX"/><path d="M208.3 63.985c.094.293 3.477.176 4.705-.982 0 0-.707-.825.47-2.885 1.12-1.953 6.746-3.672 12.744.076 6.92 4.324 6.473 9.367 5.648 10.44-2.076 2.7-7.04 2.86-11.293.82-4.162-2-4.29-3.307-5.01-3.684 0 0-2.588 1.153-5.174.953 0 0 2.437 3.812 8.344 6.686 7.52 3.66 14.597 2.34 17.84-1.97 1.944-2.583 1.858-11.327-8.816-17.344-8.908-5.022-17.182-2.128-19.094 1.284-1.273 2.27-.7 5.58-.363 6.608z" class="AQ AR AS"/><defs><filter id="A" filterUnits="userSpaceOnUse" x="224.763" y="63.426" width="30.06" height="23.889"><feColorMatrix values="1 0 0 0 0 0 1 0 0 0 0 0 1 0 0 0 0 0 1 0"/></filter><path id="B" d="M225.212 68.12c-1.146 3.592-.762 11 9.283 16.52 5.97 3.273 10.5 2.73 12.598 2.473 3.462-.425 7.27-3.55 7.672-6.998.187-1.63-.117-3.402-.356-3.42-2.77-.17-4.35.384-5 .712 0 0 .817 3.43-3.45 4.953-1.38.492-5.156.798-9.402-1.517-4.12-2.25-5.147-4.293-6.08-6.302-2.27-4.89 2.098-6.034 2.003-6.672-.115-.76-1.27-3.82-2.17-4.44-.007-.004-.017-.006-.03-.006-.435 0-4.285 2.215-5.077 4.695"/><path id="C" d="M235.558 62.957l1.21 2.298.77 2.363c-.092-.55 6.338.907 9.666 5.275 1.004-.234 1.006-.222 2.243-.597 1.247-.38 2.744-.252 2.744-.252-1.623-3.242-9.564-9.118-15.86-9.118a9.84 9.84 0 0 0-.772.031"/><path id="D" d="M46.34 70.42c-1.643 2.232-2.033 3.863-2.104 4.58 0 0 3.324 1.17 2.296 5.583-.333 1.424-2.12 4.767-6.367 7.08-4.122 2.246-6.396 2.004-8.59 1.7-5.337-.74-3.937-5.032-4.524-5.295-.704-.316-3.9-1.002-4.907-.578-.243.102-.532 4.76 1.177 6.832 2.398 2.908 8.843 6.6 18.914 1.14 5.983-3.245 7.976-7.34 8.9-9.252 1.518-3.138.953-8.032-1.73-10.237-1.125-.925-2.558-1.583-2.964-1.583-.05 0-.085.01-.1.032"/><path id="E" d="M24.58 78.827l2.587.228 2.404.63c-.514-.22 4.194-4.836 9.67-5.267.345-.973.357-.967.71-2.2.357-1.253 1.275-2.442 1.275-2.442-.184-.02-.383-.03-.596-.03-4.11 0-13.17 3.707-16.05 9.1"/><path id="F" d="M241.735 91.384c-1.642 2.234-2.033 3.863-2.105 4.58 0 0 3.326 1.172 2.297 5.582-.334 1.425-2.12 4.765-6.367 7.08-4.122 2.245-6.395 2-8.6 1.7-5.338-.74-3.938-5.032-4.525-5.296-.7-.315-3.9-1-4.907-.577-.242.1-.53 4.76 1.178 6.832 2.4 2.908 8.842 6.603 18.914 1.14 5.983-3.247 7.976-7.34 8.9-9.252 1.517-3.14.953-8.034-1.73-10.24-1.124-.924-2.558-1.582-2.963-1.582-.05 0-.086.01-.102.032"/><path id="G" d="M219.976 99.8l2.586.228 2.404.63c-.513-.22 4.194-4.836 9.667-5.268.347-.97.36-.966.712-2.21.358-1.254 1.275-2.443 1.275-2.443-.185-.02-.384-.03-.596-.03-4.11.001-13.17 3.705-16.048 9.09"/><path id="H" d="M191.778 118.616c-1.642 2.235-2.033 3.863-2.103 4.58 0 0 3.326 1.172 2.295 5.582-.332 1.425-2.12 4.767-6.368 7.082-4.12 2.245-6.394 2-8.59 1.7-5.338-.74-3.936-5.03-4.524-5.295-.703-.316-3.902-1-4.905-.58-.245.103-.534 4.76 1.175 6.835 2.398 2.907 8.843 6.6 18.914 1.14 5.984-3.246 7.976-7.34 8.9-9.252 1.518-3.14.953-8.035-1.73-10.24-1.126-.925-2.56-1.584-2.965-1.584-.05 0-.085.01-.1.032"/><path id="I" d="M170.02 127.024l2.586.226 2.406.633c-.516-.222 4.193-4.836 9.668-5.267.346-.972.357-.967.71-2.21.355-1.257 1.275-2.444 1.275-2.444-.184-.02-.383-.03-.596-.03-4.11.001-13.172 3.706-16.05 9.09"/><path id="J" d="M159.102 136.404c-1.643 2.235-2.033 3.864-2.106 4.58 0 0 3.326 1.173 2.297 5.583-.332 1.426-2.12 4.767-6.367 7.08-4.12 2.246-6.394 2.004-8.6 1.7-5.337-.74-3.935-5.03-4.524-5.297-.703-.314-3.9-1.002-4.906-.578-.244.104-.533 4.76 1.177 6.832 2.397 2.908 8.84 6.604 18.913 1.14 5.984-3.243 7.977-7.34 8.9-9.25 1.518-3.14.953-8.035-1.728-10.24-1.127-.926-2.562-1.583-2.966-1.583-.05 0-.084.01-.1.03"/><path id="K" d="M137.342 144.813l2.586.227 2.404.63c-.514-.222 4.193-4.837 9.67-5.268.344-.97.357-.966.71-2.21.355-1.254 1.275-2.444 1.275-2.444a5.53 5.53 0 0 0-.595-.03c-4.1 0-13.172 3.705-16.05 9.093"/><path id="L" d="M84.833 142.91c-1.147 3.59-.762 11.008 9.283 16.518 5.968 3.273 10.5 2.73 12.598 2.472 3.46-.42 7.27-3.55 7.67-6.998.2-1.628-.118-3.402-.355-3.416-2.768-.172-4.35.382-5 .7 0 0 .817 3.43-3.45 4.954-1.38.49-5.156.8-9.402-1.52-4.12-2.248-5.146-4.29-6.08-6.3-2.27-4.886 2.096-6.032 2-6.67-.114-.763-1.27-3.822-2.17-4.437-.007-.005-.018-.007-.032-.007-.438 0-4.284 2.216-5.075 4.695"/><path id="M" d="M95.178 137.743l1.21 2.298.77 2.364c-.092-.553 6.336.906 9.665 5.276 1.002-.237 1.005-.224 2.242-.6 1.248-.38 2.744-.25 2.744-.25-1.622-3.244-9.563-9.12-15.86-9.12a9.36 9.36 0 0 0-.772.031"/><path id="N" d="M34.22 114.836c-1.146 3.59-.762 11 9.283 16.52 5.97 3.273 10.49 2.73 12.598 2.473 3.462-.425 7.272-3.55 7.67-7 .188-1.63-.117-3.402-.355-3.416-2.77-.172-4.35.38-4.99.71 0 0 .817 3.43-3.45 4.952-1.378.49-5.156.8-9.402-1.518-4.12-2.25-5.145-4.293-6.08-6.302-2.27-4.888 2.098-6.033 2-6.67-.114-.764-1.27-3.824-2.17-4.44-.006-.005-.017-.007-.03-.007-.437 0-4.285 2.217-5.076 4.696"/><path id="O" d="M44.564 109.67l1.2 2.298.77 2.364c-.09-.552 6.337.906 9.665 5.275 1.004-.236 1.006-.223 2.24-.598 1.25-.38 2.745-.252 2.745-.252-1.622-3.243-9.562-9.118-15.86-9.118a9.38 9.38 0 0 0-.772.031"/><path id="P" d="M51.083 139.494l3.896 2.314.235-16.854c.05-1.342.806-3.278 2.94-3.847 1.37-.366 2.166-.047 3.49.71 1.742.996 2.843 2.028 4.537 4.3 1.653 2.224 2.157 3.53 2.693 5.625.52 2.03.428 4.808.428 4.808l.113 13.863 3.96 2.317-.058-17.877s-.354-1.986-1.372-5.097-1.68-4.407-3.777-7.178-4.664-5.042-6.9-6.167c-1.092-.548-3.313-1.825-5.49-1.02-2.138.794-3.02 1.7-3.902 3.566-.904 1.9-.623 3.62-.737 4.638s-.058 2.434-.058 2.434v13.465z"/></defs><mask maskUnits="userSpaceOnUse" x="224.763" y="63.426" width="30.06" height="23.889" id="Q"><g filter="url(#A)"><use xlink:href="#B" class="AT"/></g></mask><linearGradient id="R" gradientUnits="userSpaceOnUse" x1="235.821" y1="61.788" x2="243.592" y2="88.24"><stop offset="0" stop-color="#e6e7e7"/><stop offset="1" stop-color="#a7a9ac"/></linearGradient><use xlink:href="#B" mask="url(#Q)" fill="url(#R)"/><path d="M230.32 63.432c.9.617 2.055 3.678 2.17 4.44.096.638-4.272 1.783-2.002 6.67.934 2.01 1.96 4.052 6.08 6.302 4.246 2.317 8.023 2 9.402 1.518 4.266-1.524 3.45-4.953 3.45-4.953.64-.33 2.22-.88 5-.71.238.015.543 1.79.355 3.418-.4 3.448-4.21 6.573-7.672 6.998-2.107.257-6.628.8-12.597-2.473-10.045-5.5-10.43-12.928-9.283-16.52.816-2.558 4.89-4.835 5.107-4.69z" class="AQ AR AS"/><defs><filter id="S" filterUnits="userSpaceOnUse" x="235.558" y="62.926" width="16.631" height="9.967"><feColorMatrix values="1 0 0 0 0 0 1 0 0 0 0 0 1 0 0 0 0 0 1 0"/></filter></defs><mask maskUnits="userSpaceOnUse" x="235.558" y="62.926" width="16.631" height="9.967" id="T"><g filter="url(#S)"><use xlink:href="#C" class="AT"/></g></mask><linearGradient id="U" gradientUnits="userSpaceOnUse" x1="235.322" y1="55.288" x2="251.962" y2="80.575"><stop offset="0" stop-color="#e6e7e7"/><stop offset="1" stop-color="#a7a9ac"/></linearGradient><use xlink:href="#C" mask="url(#T)" fill="url(#U)"/><path d="M237.536 67.62l-.77-2.364-1.21-2.297c6.4-.522 14.942 5.71 16.63 9.086 0 0-1.496-.127-2.744.252-1.236.375-1.238.363-2.242.597-3.328-4.368-9.758-5.826-9.666-5.274z" class="AQ AR AS"/><path d="M44.926 83.588c.297.078 2.03-2.83 1.723-4.5 0 0-1.077.15-2.17-1.957-1.036-1.996.566-7.658 6.965-10.672 7.382-3.477 11.38-.37 11.836.904 1.145 3.207-1.412 7.467-5.43 9.936-3.935 2.418-5.102 1.814-5.8 2.218 0 0-.433 2.8-2 4.868 0 0 4.525.015 10.14-3.395 7.15-4.34 9.87-11.006 8.005-16.064-1.12-3.034-8.517-7.696-19.356-1.98-9.046 4.77-11.093 13.293-9.26 16.748 1.22 2.3 4.312 3.6 5.36 3.885" class="AX"/><path d="M44.926 83.588c.297.078 2.03-2.83 1.723-4.5 0 0-1.077.15-2.17-1.957-1.036-1.996.566-7.658 6.965-10.672 7.382-3.477 11.38-.37 11.836.904 1.145 3.207-1.412 7.467-5.43 9.936-3.935 2.418-5.102 1.814-5.8 2.218 0 0-.433 2.8-2 4.868 0 0 4.525.015 10.14-3.395 7.15-4.34 9.87-11.006 8.005-16.064-1.12-3.034-8.517-7.696-19.356-1.98-9.046 4.77-11.093 13.293-9.26 16.748 1.22 2.3 4.312 3.6 5.36 3.885z" class="AQ AR AS"/><defs><filter id="V" filterUnits="userSpaceOnUse" x="21.959" y="70.389" width="30.005" height="23.878"><feColorMatrix values="1 0 0 0 0 0 1 0 0 0 0 0 1 0 0 0 0 0 1 0"/></filter></defs><mask maskUnits="userSpaceOnUse" x="21.959" y="70.389" width="30.005" height="23.878" id="W"><g filter="url(#V)"><use xlink:href="#D" class="AT"/></g></mask><linearGradient id="X" gradientUnits="userSpaceOnUse" x1="23.747" y1="77.976" x2="50.194" y2="85.768"><stop offset="0" stop-color="#e6e7e7"/><stop offset="1" stop-color="#a7a9ac"/></linearGradient><use xlink:href="#D" mask="url(#W)" fill="url(#X)"/><path d="M22.145 83.49c1.005-.424 4.203.262 4.906.578.587.264-.813 4.557 4.524 5.295 2.195.305 4.47.547 8.59-1.7 4.247-2.313 6.034-5.656 6.367-7.08C47.562 76.17 44.237 75 44.237 75c.07-.717.462-2.348 2.104-4.58.142-.194 1.798.51 3.066 1.55 2.682 2.205 3.248 7.1 1.73 10.24-.925 1.912-2.918 6.006-8.9 9.252-10.07 5.46-16.517 1.767-18.915-1.14-1.708-2.072-1.42-6.73-1.176-6.832z" class="AQ AR AS"/><defs><filter id="Y" filterUnits="userSpaceOnUse" x="24.58" y="69.737" width="16.645" height="9.949"><feColorMatrix values="1 0 0 0 0 0 1 0 0 0 0 0 1 0 0 0 0 0 1 0"/></filter></defs><mask maskUnits="userSpaceOnUse" x="24.58" y="69.737" width="16.645" height="9.949" id="Z"><g filter="url(#Y)"><use xlink:href="#E" class="AT"/></g></mask><linearGradient id="a" gradientUnits="userSpaceOnUse" x1="24.817" y1="87.414" x2="41.455" y2="62.042"><stop offset="0" stop-color="#e6e7e7"/><stop offset="1" stop-color="#a7a9ac"/></linearGradient><use xlink:href="#E" mask="url(#Z)" fill="url(#a)"/><path d="M29.57 79.686l-2.404-.63-2.587-.228c3.028-5.662 12.892-9.47 16.645-9.06 0 0-.918 1.2-1.275 2.443-.353 1.243-.365 1.237-.7 2.21-5.476.432-10.183 5.047-9.67 5.268z" class="AQ AR AS"/><defs><filter id="b" filterUnits="userSpaceOnUse" x="159.526" y=".504" width="71.394" height="40.691"><feColorMatrix values="1 0 0 0 0 0 1 0 0 0 0 0 1 0 0 0 0 0 1 0"/></filter></defs><mask maskUnits="userSpaceOnUse" x="159.526" y=".504" width="71.394" height="40.691" id="c"><g filter="url(#b)"><path d="M159.527 1.205l68.148 39.99c1.594-.85 2.603-.83 3.244-.454l-68.15-40c-.26-.153-.583-.247-.982-.247-.578 0-1.317.197-2.26.7" class="AT"/></g></mask><path d="M161.767.504c-.408.003-.894.106-1.475.342h-.002c-.238.096-.492.213-.764.36l68.148 40c.273-.146.527-.263.766-.36 1.16-.47 1.948-.406 2.48-.096L162.77.752c-.266-.156-.595-.252-1.002-.248z" mask="url(#c)" fill="#1d5c87"/><path d="M227.675 41.196L206.2 52.615l-68.15-39.992 21.476-11.418z" class="AY"/><defs><filter id="d" filterUnits="userSpaceOnUse" x="135.835" y="0" width="69.716" height="40.257"><feColorMatrix values="1 0 0 0 0 0 1 0 0 0 0 0 1 0 0 0 0 0 1 0"/></filter></defs><mask maskUnits="userSpaceOnUse" x="135.835" y="0" width="69.716" height="40.257" id="e"><g filter="url(#d)"><path d="M136.753 0c-.28.006-.592.09-.92.265l68.148 39.992c.613-.325 1.168-.342 1.57-.105L137.404.163c-.175-.103-.376-.16-.6-.163" class="AT"/></g></mask><path d="M136.804 0c-.222-.004-.463.044-.717.146a2.72 2.72 0 0 0-.252.119l68.146 39.992a2.23 2.23 0 0 1 .254-.119c.51-.207.968-.2 1.316.014l-68.148-40a1.22 1.22 0 0 0-.599-.162z" mask="url(#e)" fill="#1e5e89"/><defs><filter id="f" filterUnits="userSpaceOnUse" x="43.257" y="133.857" width="70.838" height="45.912"><feColorMatrix values="1 0 0 0 0 0 1 0 0 0 0 0 1 0 0 0 0 0 1 0"/></filter></defs><mask maskUnits="userSpaceOnUse" x="43.257" y="133.857" width="70.838" height="45.912" id="g"><g filter="url(#f)"><path d="M45.947 139.777l68.148 39.992c-1.664-.977-2.698-3.034-2.69-5.923l-68.15-39.99c-.007 2.887 1.025 4.943 2.69 5.92" class="AT"/></g></mask><path d="M43.257 133.857a10.46 10.46 0 0 0 .16 1.889l-.002-.002c.11.586.27 1.124.48 1.61a5.56 5.56 0 0 0 .91 1.469 4.57 4.57 0 0 0 1.141.953l68.15 39.992c-.426-.25-.808-.57-1.143-.955-.363-.415-.668-.904-.908-1.47-.2-.484-.37-1.02-.48-1.61-.107-.58-.162-1.214-.16-1.89l-68.148-39.988z" mask="url(#g)" fill="#236796"/><path d="M133.302 91.375l-68.15-39.99.025-10.74 68.15 40z" fill="#276e9f"/><path d="M135.628 76.603l-68.15-40L135.833.265l68.15 39.992z" class="AY"/><defs><filter id="h" filterUnits="userSpaceOnUse" x="65.178" y="36.613" width="70.45" height="44.021"><feColorMatrix values="1 0 0 0 0 0 1 0 0 0 0 0 1 0 0 0 0 0 1 0"/></filter></defs><mask maskUnits="userSpaceOnUse" x="65.178" y="36.613" width="70.45" height="44.021" id="i"><g filter="url(#h)"><path d="M65.177 40.644l68.15 40c.046-1.68 1.054-3.37 2.3-4.03l-68.15-40c-1.245.66-2.253 2.35-2.3 4.03" class="AT"/></g></mask><path d="M67.478 36.613c-.08.042-.16.088-.238.14h-.002a3.44 3.44 0 0 0-.408.311c-.125.11-.246.232-.36.363-.202.223-.383.476-.547.75-.182.307-.338.636-.46.98l-.002-.002c-.167.477-.268.984-.283 1.488l68.15 40c.014-.504.115-1.01.28-1.488.12-.344.274-.675.46-.98a4.92 4.92 0 0 1 .549-.75c.116-.13.237-.25.36-.363h.002c.13-.115.267-.217.406-.31h.002a2.11 2.11 0 0 1 .24-.143l-68.15-39.99z" mask="url(#i)" fill="#457aa5"/><path d="M111.405 173.846l-68.15-39.99.165-67.055 68.148 39.99z" fill="#276e9f"/><path d="M114.146 101.56L45.998 61.57l19.154-10.185 68.15 39.99z" class="AY"/><path d="M203.982 40.257c1.244-.662 2.248-.04 2.246 1.38l-.027 10.978 21.474-11.42c4.364-2.32 4.354 1.852 4.354 2.072l-.165 66.53c-.013 5.672-4.026 12.396-8.972 15.026L120.324 179.36c-4.938 2.625-8.934.158-8.918-5.515l.164-67.055c.008-3.513 2.45-5.144 2.576-5.23l19.156-10.185.026-10.74c.047-1.68 1.054-3.37 2.3-4.03l68.354-36.346z" fill="#1d5c87"/><defs><filter id="j" filterUnits="userSpaceOnUse" x="43.423" y="61.568" width="70.722" height="45.225"><feColorMatrix values="1 0 0 0 0 0 1 0 0 0 0 0 1 0 0 0 0 0 1 0"/></filter></defs><mask maskUnits="userSpaceOnUse" x="43.423" y="61.568" width="70.722" height="45.225" id="k"><g filter="url(#j)"><path d="M43.42 66.802l68.148 40c.008-3.513 2.45-5.145 2.577-5.232l-68.15-39.992c-.13.088-2.568 1.72-2.576 5.234" class="AT"/></g></mask><path d="M45.997 61.568c-.03.02-.198.133-.43.338a6.22 6.22 0 0 0-.518.516c-.23.26-.478.582-.71.97l68.148 40c.23-.386.477-.708.71-.967h.002v-.002a5.8 5.8 0 0 1 .516-.516c.233-.205.398-.314.43-.336L45.997 61.568zm66.492 41.813L44.34 63.393a6.13 6.13 0 0 0-.545 1.158c-.21.596-.352 1.283-.373 2.068h.002 0l-.002.182 68.146 40v-.186c.022-.783.163-1.472.373-2.064a6.14 6.14 0 0 1 .545-1.162z" mask="url(#k)" fill="#467da8"/><path d="M168.927 152.88l-11.753 6.224.064-32.23 11.75-6.225zm16.14-8.707l-11.754 6.225.065-32.234 11.75-6.225zm17.3-76.453l-12.97 6.87.035-17.6 12.97-6.872z" class="AU"/><path d="M191.148 57.67l9.96-5.277-.027 13.867s-.604-7.38-4.836-8.48c-3.884-1.002-5.096-.11-5.096-.11" class="AV"/><path d="M151.14 94.86l-12.973 6.87.035-17.6 12.973-6.873z" class="AU"/><path d="M139.732 84.9l9.96-5.275-.027 13.865s-.606-7.377-4.84-8.477c-3.885-1.004-5.092-.113-5.092-.113" class="AV"/><path d="M202.316 93.914l-12.97 6.87.03-17.596 12.97-6.87z" class="AU"/><path d="M191.095 83.867l9.96-5.276-.027 13.872s-.602-7.385-4.837-8.482c-3.884-1.007-5.097-.114-5.097-.114" class="AV"/><path d="M184.993 76.925l-12.973 6.873.035-17.6 12.973-6.873z" class="AU"/><path d="M173.773 66.876l9.957-5.275-.025 13.865s-.604-7.377-4.834-8.48c-3.89-1-5.098-.11-5.098-.11" class="AV"/><path d="M184.942 103.117l-12.972 6.874.034-17.596 12.972-6.872z" class="AU"/><path d="M173.72 93.074l9.96-5.277-.025 13.87s-.604-7.385-4.836-8.487c-3.885-1.002-5.098-.107-5.098-.107" class="AV"/><path d="M168.605 85.605l-12.978 6.878.035-17.602 12.976-6.874z" class="AU"/><path d="M157.382 75.56l9.963-5.278-.027 13.866s-.608-7.377-4.84-8.477c-3.884-1.002-5.095-.11-5.095-.11" class="AV"/><path d="M168.553 111.8l-12.978 6.873.036-17.596 12.976-6.873z" class="AU"/><path d="M157.33 101.755l9.963-5.276-.027 13.87s-.608-7.38-4.84-8.482c-3.887-1.002-5.096-.11-5.096-.11" class="AV"/><path d="M151.09 121.05l-12.973 6.875.032-17.6 12.972-6.87z" class="AU"/><path d="M139.683 111.105l9.956-5.274-.026 13.87s-.607-7.38-4.842-8.48c-3.88-1.006-5.088-.115-5.088-.115" class="AV"/><path d="M202.267 119.57l-12.97 6.868.034-17.595 12.97-6.873z" class="AU"/><path d="M191.046 109.517l9.96-5.275-.027 13.87s-.604-7.38-4.838-8.48c-3.883-1.006-5.096-.115-5.096-.115" class="AV"/><path d="M150.534 146.972l-12.972 6.875.036-17.6 12.97-6.872z" class="AU"/><path d="M139.317 136.92l9.957-5.274-.027 13.87s-.606-7.38-4.834-8.483c-3.887-1-5.096-.114-5.096-.114" class="AV"/><path d="M130.567 116.35l-12.975 6.878.033-17.593 12.977-6.875z" class="AU"/><path d="M119.347 106.304l9.957-5.273-.027 13.875s-.604-7.387-4.834-8.483c-3.887-1.003-5.096-.12-5.096-.12" class="AV"/><path d="M130.515 142.55l-12.975 6.873.036-17.598 12.974-6.876z" class="AU"/><path d="M119.296 132.5l9.957-5.273-.027 13.872s-.604-7.383-4.834-8.486c-3.886-1-5.096-.113-5.096-.113" class="AV"/><path d="M226.732 65.407L213.76 72.28l.035-17.592 12.97-6.87z" class="AU"/><path d="M215.51 55.358l9.96-5.274-.028 13.875s-.6-7.39-4.832-8.483c-3.887-1.003-5.1-.118-5.1-.118" class="AV"/><path d="M226.68 91.604l-12.97 6.872.03-17.6 12.973-6.87z" class="AU"/><path d="M215.462 81.554l9.96-5.275-.03 13.872s-.602-7.384-4.834-8.484c-3.885-1.002-5.098-.113-5.098-.113" class="AV"/><path d="M34.177 89.43c-.096.29-3.665.014-4.9-.775 0 0 .606-1.442-.284-3.098-1.065-1.982-6.743-3.676-12.743.064-6.924 4.32-6.48 9.364-5.657 10.438 2.072 2.7 7.04 2.863 11.292.826 4.163-1.996 4.384-3.437 5.106-3.812 0 0 3.888 1.138 5.082 1.09 0 0-2.44 3.81-8.35 6.678-7.523 3.654-14.6 2.326-17.838-1.984-1.943-2.584-1.85-11.328 8.83-17.338 8.912-5.014 17.183-2.113 19.093 1.3 1.27 2.27.695 5.582.358 6.61" class="AW"/><path d="M34.177 89.43c-.096.29-3.665.014-4.9-.775 0 0 .606-1.442-.284-3.098-1.065-1.982-6.743-3.676-12.743.064-6.924 4.32-6.48 9.364-5.657 10.438 2.072 2.7 7.04 2.863 11.292.826 4.163-1.996 4.384-3.437 5.106-3.812 0 0 3.888 1.138 5.082 1.09 0 0-2.44 3.81-8.35 6.678-7.523 3.654-14.6 2.326-17.838-1.984-1.943-2.584-1.85-11.328 8.83-17.338 8.912-5.014 17.183-2.113 19.093 1.3 1.27 2.27.695 5.582.358 6.61z" class="AQ AR AS"/><path d="M264.18 90.833c-.094.29-4.092 1.395-5.316.605 0 0 .605-1.44-.284-3.097-1.066-1.983-6.744-3.676-12.744.064-6.924 4.32-6.48 9.364-5.656 10.438 2.072 2.7 7.04 2.863 11.29.824 4.164-1.994 4.385-3.436 5.107-3.813 0 0 3.887 1.14 5.08 1.092 0 0-2.44 3.81-8.348 6.68-7.524 3.654-14.6 2.326-17.838-1.984-1.943-2.586-1.85-11.33 8.83-17.338 8.9-5.014 17.182-2.116 19.092 1.3 1.27 2.27 1.123 4.203.785 5.23" class="AW"/><path d="M264.18 90.833c-.094.29-4.092 1.395-5.316.605 0 0 .605-1.44-.284-3.097-1.066-1.983-6.744-3.676-12.744.064-6.924 4.32-6.48 9.364-5.656 10.438 2.072 2.7 7.04 2.863 11.29.824 4.164-1.994 4.385-3.436 5.107-3.813 0 0 3.887 1.14 5.08 1.092 0 0-2.44 3.81-8.348 6.68-7.524 3.654-14.6 2.326-17.838-1.984-1.943-2.586-1.85-11.33 8.83-17.338 8.9-5.014 17.182-2.116 19.092 1.3 1.27 2.27 1.123 4.203.785 5.23z" class="AQ AR AS"/><defs><filter id="l" filterUnits="userSpaceOnUse" x="217.354" y="91.352" width="30.005" height="23.879"><feColorMatrix values="1 0 0 0 0 0 1 0 0 0 0 0 1 0 0 0 0 0 1 0"/></filter></defs><mask maskUnits="userSpaceOnUse" x="217.354" y="91.352" width="30.005" height="23.879" id="m"><g filter="url(#l)"><use xlink:href="#F" class="AT"/></g></mask><linearGradient id="n" gradientUnits="userSpaceOnUse" x1="219.136" y1="98.94" x2="245.588" y2="106.732"><stop offset="0" stop-color="#e6e7e7"/><stop offset="1" stop-color="#a7a9ac"/></linearGradient><use xlink:href="#F" mask="url(#m)" fill="url(#n)"/><path d="M217.538 104.452c1.006-.424 4.205.262 4.906.578.588.264-.812 4.557 4.526 5.295 2.195.303 4.468.547 8.59-1.7 4.247-2.315 6.034-5.654 6.368-7.08 1.03-4.4-2.297-5.582-2.297-5.582.072-.717.463-2.346 2.105-4.58.14-.194 1.8.51 3.065 1.55 2.683 2.205 3.248 7.1 1.73 10.24-.924 1.912-2.918 6.006-8.9 9.252-10.072 5.463-16.516 1.767-18.914-1.14-1.71-2.072-1.42-6.73-1.178-6.832z" class="AQ AR AS"/><defs><filter id="o" filterUnits="userSpaceOnUse" x="219.976" y="90.699" width="16.644" height="9.95"><feColorMatrix values="1 0 0 0 0 0 1 0 0 0 0 0 1 0 0 0 0 0 1 0"/></filter></defs><mask maskUnits="userSpaceOnUse" x="219.976" y="90.699" width="16.644" height="9.95" id="p"><g filter="url(#o)"><use xlink:href="#G" class="AT"/></g></mask><linearGradient id="q" gradientUnits="userSpaceOnUse" x1="220.211" y1="108.374" x2="236.849" y2="83.007"><stop offset="0" stop-color="#e6e7e7"/><stop offset="1" stop-color="#a7a9ac"/></linearGradient><use xlink:href="#G" mask="url(#p)" fill="url(#q)"/><path d="M224.966 100.65l-2.404-.63-2.586-.228c3.027-5.664 12.892-9.47 16.644-9.06 0 0-.918 1.2-1.275 2.443-.352 1.243-.365 1.24-.71 2.21-5.475.432-10.182 5.047-9.668 5.268z" class="AQ AR AS"/><path d="M229.853 110.682c-.094.29-3.664.014-4.89-.775 0 0 .606-1.442-.283-3.096-1.066-1.984-6.744-3.678-12.744.064-6.924 4.32-6.48 9.364-5.656 10.436 2.072 2.7 7.04 2.863 11.29.826 4.164-1.996 4.385-3.437 5.107-3.812 0 0 3.887 1.138 5.08 1.09 0 0-2.44 3.81-8.347 6.678-7.524 3.654-14.6 2.328-17.84-1.984-1.942-2.584-1.848-11.328 8.832-17.338 8.9-5.014 17.18-2.113 19.092 1.3 1.27 2.27.695 5.582.357 6.61" class="AW"/><path d="M229.853 110.682c-.094.29-3.664.014-4.89-.775 0 0 .606-1.442-.283-3.096-1.066-1.984-6.744-3.678-12.744.064-6.924 4.32-6.48 9.364-5.656 10.436 2.072 2.7 7.04 2.863 11.29.826 4.164-1.996 4.385-3.437 5.107-3.812 0 0 3.887 1.138 5.08 1.09 0 0-2.44 3.81-8.347 6.678-7.524 3.654-14.6 2.328-17.84-1.984-1.942-2.584-1.848-11.328 8.832-17.338 8.9-5.014 17.18-2.113 19.092 1.3 1.27 2.27.695 5.582.357 6.61z" class="AQ AR AS"/><path d="M213.442 119.624c-.096.29-3.664.014-4.89-.775 0 0 .606-1.442-.285-3.096-1.064-1.984-6.742-3.678-12.742.064-6.924 4.32-6.48 9.362-5.658 10.436 2.072 2.7 7.04 2.863 11.293.826 4.162-1.996 4.385-3.437 5.105-3.812 0 0 3.89 1.138 5.082 1.09 0 0-2.44 3.81-8.347 6.678-7.524 3.654-14.6 2.328-17.84-1.984-1.942-2.584-1.848-11.328 8.83-17.338 8.912-5.014 17.183-2.113 19.094 1.3 1.27 2.27.695 5.582.357 6.61" class="AW"/><path d="M213.442 119.624c-.096.29-3.664.014-4.89-.775 0 0 .606-1.442-.285-3.096-1.064-1.984-6.742-3.678-12.742.064-6.924 4.32-6.48 9.362-5.658 10.436 2.072 2.7 7.04 2.863 11.293.826 4.162-1.996 4.385-3.437 5.105-3.812 0 0 3.89 1.138 5.082 1.09 0 0-2.44 3.81-8.347 6.678-7.524 3.654-14.6 2.328-17.84-1.984-1.942-2.584-1.848-11.328 8.83-17.338 8.912-5.014 17.183-2.113 19.094 1.3 1.27 2.27.695 5.582.357 6.61z" class="AQ AR AS"/><defs><filter id="r" filterUnits="userSpaceOnUse" x="167.398" y="118.584" width="30.004" height="23.881"><feColorMatrix values="1 0 0 0 0 0 1 0 0 0 0 0 1 0 0 0 0 0 1 0"/></filter></defs><mask maskUnits="userSpaceOnUse" x="167.398" y="118.584" width="30.004" height="23.881" id="s"><g filter="url(#r)"><use xlink:href="#H" class="AT"/></g></mask><linearGradient id="t" gradientUnits="userSpaceOnUse" x1="169.18" y1="126.169" x2="195.628" y2="133.964"><stop offset="0" stop-color="#e6e7e7"/><stop offset="1" stop-color="#a7a9ac"/></linearGradient><use xlink:href="#H" mask="url(#s)" fill="url(#t)"/><path d="M167.583 131.684c1.004-.422 4.203.264 4.906.58.588.264-.814 4.555 4.524 5.295 2.195.303 4.468.545 8.6-1.7 4.248-2.315 6.035-5.656 6.367-7.082 1.03-4.4-2.295-5.582-2.295-5.582.07-.717.46-2.346 2.103-4.58.143-.192 1.8.51 3.067 1.552 2.68 2.203 3.246 7.098 1.728 10.24-.924 1.912-2.916 6.006-8.9 9.252-10.07 5.46-16.516 1.767-18.914-1.14-1.71-2.074-1.42-6.73-1.176-6.834z" class="AQ AR AS"/><defs><filter id="u" filterUnits="userSpaceOnUse" x="170.019" y="117.933" width="16.646" height="9.95"><feColorMatrix values="1 0 0 0 0 0 1 0 0 0 0 0 1 0 0 0 0 0 1 0"/></filter></defs><mask maskUnits="userSpaceOnUse" x="170.019" y="117.933" width="16.646" height="9.95" id="v"><g filter="url(#u)"><use xlink:href="#I" class="AT"/></g></mask><linearGradient id="w" gradientUnits="userSpaceOnUse" x1="170.254" y1="135.61" x2="186.895" y2="110.24"><stop offset="0" stop-color="#e6e7e7"/><stop offset="1" stop-color="#a7a9ac"/></linearGradient><use xlink:href="#I" mask="url(#v)" fill="url(#w)"/><path d="M175.01 127.883l-2.406-.633-2.586-.226c3.027-5.664 12.892-9.47 16.646-9.06 0 0-.92 1.188-1.275 2.443-.354 1.243-.365 1.237-.71 2.21-5.475.432-10.184 5.045-9.668 5.268z" class="AQ AR AS"/><path d="M157.043 150.352c.297.078 2.03-2.828 1.723-4.488 0 0-1.078.148-2.172-1.957-1.035-1.998.566-7.66 6.965-10.672 7.38-3.477 11.38-.37 11.837.904 1.144 3.205-1.413 7.467-5.43 9.936-3.935 2.416-5.103 1.814-5.8 2.218 0 0-.433 2.8-2 4.868 0 0 4.523.013 10.138-3.395 7.15-4.34 9.87-11.006 8.004-16.064-1.117-3.034-8.516-7.696-19.355-1.98-9.046 4.77-11.093 13.293-9.26 16.748 1.218 2.3 4.3 3.6 5.36 3.883" class="AX"/><path d="M157.043 150.352c.297.078 2.03-2.828 1.723-4.488 0 0-1.078.148-2.172-1.957-1.035-1.998.566-7.66 6.965-10.672 7.38-3.477 11.38-.37 11.837.904 1.144 3.205-1.413 7.467-5.43 9.936-3.935 2.416-5.103 1.814-5.8 2.218 0 0-.433 2.8-2 4.868 0 0 4.523.013 10.138-3.395 7.15-4.34 9.87-11.006 8.004-16.064-1.117-3.034-8.516-7.696-19.355-1.98-9.046 4.77-11.093 13.293-9.26 16.748 1.218 2.3 4.3 3.6 5.36 3.883z" class="AQ AR AS"/><defs><filter id="x" filterUnits="userSpaceOnUse" x="134.721" y="136.373" width="30.004" height="23.879"><feColorMatrix values="1 0 0 0 0 0 1 0 0 0 0 0 1 0 0 0 0 0 1 0"/></filter></defs><mask maskUnits="userSpaceOnUse" x="134.721" y="136.373" width="30.004" height="23.879" id="y"><g filter="url(#x)"><use xlink:href="#J" class="AT"/></g></mask><linearGradient id="z" gradientUnits="userSpaceOnUse" x1="136.511" y1="143.962" x2="162.956" y2="151.754"><stop offset="0" stop-color="#e6e7e7"/><stop offset="1" stop-color="#a7a9ac"/></linearGradient><use xlink:href="#J" mask="url(#y)" fill="url(#z)"/><path d="M134.906 149.473c1.004-.424 4.203.264 4.906.578.588.266-.814 4.557 4.524 5.297 2.195.303 4.468.545 8.6-1.7 4.248-2.313 6.035-5.654 6.367-7.08 1.03-4.4-2.297-5.582-2.297-5.582.072-.717.463-2.346 2.105-4.58.143-.192 1.8.51 3.067 1.55 2.68 2.205 3.246 7.1 1.728 10.24-.924 1.9-2.916 6.006-8.9 9.25-10.072 5.463-16.516 1.767-18.914-1.14-1.71-2.072-1.42-6.728-1.176-6.832z" class="AQ AR AS"/><defs><filter id="AA" filterUnits="userSpaceOnUse" x="137.342" y="135.72" width="16.646" height="9.951"><feColorMatrix values="1 0 0 0 0 0 1 0 0 0 0 0 1 0 0 0 0 0 1 0"/></filter></defs><mask maskUnits="userSpaceOnUse" x="137.342" y="135.72" width="16.646" height="9.951" id="AB"><g filter="url(#AA)"><use xlink:href="#K" class="AT"/></g></mask><linearGradient id="AC" gradientUnits="userSpaceOnUse" x1="137.578" y1="153.396" x2="154.219" y2="128.026"><stop offset="0" stop-color="#e6e7e7"/><stop offset="1" stop-color="#a7a9ac"/></linearGradient><use xlink:href="#K" mask="url(#AB)" fill="url(#AC)"/><path d="M142.332 145.67l-2.404-.63-2.586-.226c3.027-5.666 12.892-9.47 16.646-9.063 0 0-.92 1.2-1.275 2.443-.354 1.243-.367 1.24-.71 2.21-5.477.432-10.184 5.047-9.67 5.268z" class="AQ AR AS"/><path d="M123.83 168.448c.297.078 2.03-2.828 1.723-4.488 0 0-1.077.148-2.17-1.957-1.037-1.998.566-7.66 6.965-10.672 7.382-3.477 11.38-.37 11.836.904 1.144 3.205-1.413 7.467-5.43 9.936-3.934 2.416-5.102 1.814-5.81 2.218 0 0-.433 2.8-2 4.866 0 0 4.524.015 10.137-3.393 7.15-4.342 9.87-11.006 8.004-16.066-1.117-3.032-8.516-7.694-19.354-1.98-9.047 4.77-11.093 13.29-9.26 16.748 1.22 2.297 4.312 3.6 5.36 3.883" class="AX"/><path d="M123.83 168.448c.297.078 2.03-2.828 1.723-4.488 0 0-1.077.148-2.17-1.957-1.037-1.998.566-7.66 6.965-10.672 7.382-3.477 11.38-.37 11.836.904 1.144 3.205-1.413 7.467-5.43 9.936-3.934 2.416-5.102 1.814-5.81 2.218 0 0-.433 2.8-2 4.866 0 0 4.524.015 10.137-3.393 7.15-4.342 9.87-11.006 8.004-16.066-1.117-3.032-8.516-7.694-19.354-1.98-9.047 4.77-11.093 13.29-9.26 16.748 1.22 2.297 4.312 3.6 5.36 3.883z" class="AQ AR AS"/><path d="M102.192 157.426c.095.29 3.478.174 4.706-.983 0 0-.708-.824.47-2.885 1.118-1.952 6.746-3.67 12.744.075 6.92 4.324 6.473 9.367 5.648 10.44-2.076 2.7-7.04 2.857-11.293.817-4.162-2-4.29-3.307-5.01-3.683 0 0-2.59 1.152-5.174.954 0 0 2.436 3.81 8.344 6.686 7.52 3.66 14.597 2.338 17.84-1.97 1.944-2.584 1.858-11.327-8.816-17.344-8.908-5.023-17.183-2.128-19.095 1.284-1.27 2.27-.7 5.58-.363 6.61" class="AX"/><path d="M102.192 157.426c.095.29 3.478.174 4.706-.983 0 0-.708-.824.47-2.885 1.118-1.952 6.746-3.67 12.744.075 6.92 4.324 6.473 9.367 5.648 10.44-2.076 2.7-7.04 2.857-11.293.817-4.162-2-4.29-3.307-5.01-3.683 0 0-2.59 1.152-5.174.954 0 0 2.436 3.81 8.344 6.686 7.52 3.66 14.597 2.338 17.84-1.97 1.944-2.584 1.858-11.327-8.816-17.344-8.908-5.023-17.183-2.128-19.095 1.284-1.27 2.27-.7 5.58-.363 6.61z" class="AQ AR AS"/><path d="M91.46 151.552c-.297.077-1.998-3.072-1.998-4.53 0 0 1.54-.27 2.45-1.915 1.09-1.97-.56-7.66-6.954-10.678-7.38-3.483-11.382-.38-11.838.894-1.148 3.205 1.405 7.47 5.422 9.94 3.932 2.42 5.263 1.825 5.97 2.23 0 0 1.147 3.885 1.834 4.864 0 0-4.525.01-10.136-3.403-7.146-4.347-9.862-11.013-7.99-16.072 1.12-3.03 8.522-7.687 19.356-1.965 9.042 4.778 11.082 13.303 9.247 16.756-1.22 2.298-4.315 3.606-5.362 3.88" class="AW"/><path d="M91.46 151.552c-.297.077-1.998-3.072-1.998-4.53 0 0 1.54-.27 2.45-1.915 1.09-1.97-.56-7.66-6.954-10.678-7.38-3.483-11.382-.38-11.838.894-1.148 3.205 1.405 7.47 5.422 9.94 3.932 2.42 5.263 1.825 5.97 2.23 0 0 1.147 3.885 1.834 4.864 0 0-4.525.01-10.136-3.403-7.146-4.347-9.862-11.013-7.99-16.072 1.12-3.03 8.522-7.687 19.356-1.965 9.042 4.778 11.082 13.303 9.247 16.756-1.22 2.298-4.315 3.606-5.362 3.88z" class="AQ AR AS"/><defs><filter id="AD" filterUnits="userSpaceOnUse" x="84.384" y="138.214" width="30.06" height="23.887"><feColorMatrix values="1 0 0 0 0 0 1 0 0 0 0 0 1 0 0 0 0 0 1 0"/></filter></defs><mask maskUnits="userSpaceOnUse" x="84.384" y="138.214" width="30.06" height="23.887" id="AE"><g filter="url(#AD)"><use xlink:href="#L" class="AT"/></g></mask><linearGradient id="AF" gradientUnits="userSpaceOnUse" x1="95.44" y1="136.577" x2="103.21" y2="163.032"><stop offset="0" stop-color="#e6e7e7"/><stop offset="1" stop-color="#a7a9ac"/></linearGradient><use xlink:href="#L" mask="url(#AE)" fill="url(#AF)"/><path d="M89.94 138.22c.9.616 2.057 3.675 2.17 4.437.096.638-4.272 1.785-2 6.67.934 2 1.96 4.053 6.08 6.3 4.245 2.32 8.022 2.01 9.4 1.52 4.266-1.524 3.45-4.954 3.45-4.954.64-.328 2.222-.882 5-.7.236.014.545 1.788.355 3.416-.4 3.45-4.21 6.576-7.67 6.998-2.108.258-6.63.8-12.598-2.472-10.045-5.5-10.43-12.928-9.282-16.52.816-2.558 4.887-4.837 5.106-4.688z" class="AQ AR AS"/><defs><filter id="AG" filterUnits="userSpaceOnUse" x="95.178" y="137.712" width="16.631" height="9.969"><feColorMatrix values="1 0 0 0 0 0 1 0 0 0 0 0 1 0 0 0 0 0 1 0"/></filter></defs><mask maskUnits="userSpaceOnUse" x="95.178" y="137.712" width="16.631" height="9.969" id="AH"><g filter="url(#AG)"><use xlink:href="#M" class="AT"/></g></mask><linearGradient id="AI" gradientUnits="userSpaceOnUse" x1="94.941" y1="130.078" x2="111.582" y2="155.357"><stop offset="0" stop-color="#e6e7e7"/><stop offset="1" stop-color="#a7a9ac"/></linearGradient><use xlink:href="#M" mask="url(#AH)" fill="url(#AI)"/><path d="M97.157 142.405l-.77-2.363-1.208-2.3c6.4-.522 14.942 5.71 16.63 9.09 0 0-1.496-.13-2.744.25-1.236.376-1.24.362-2.242.6-3.328-4.37-9.757-5.83-9.665-5.276z" class="AQ AR AS"/><defs><filter id="AJ" filterUnits="userSpaceOnUse" x="33.77" y="110.14" width="30.059" height="23.888"><feColorMatrix values="1 0 0 0 0 0 1 0 0 0 0 0 1 0 0 0 0 0 1 0"/></filter></defs><mask maskUnits="userSpaceOnUse" x="33.77" y="110.14" width="30.059" height="23.888" id="AK"><g filter="url(#AJ)"><use xlink:href="#N" class="AT"/></g></mask><linearGradient id="AL" gradientUnits="userSpaceOnUse" x1="44.827" y1="108.508" x2="52.6" y2="134.962"><stop offset="0" stop-color="#e6e7e7"/><stop offset="1" stop-color="#a7a9ac"/></linearGradient><use xlink:href="#N" mask="url(#AK)" fill="url(#AL)"/><path d="M39.326 110.147c.9.616 2.056 3.677 2.17 4.44.097.637-4.27 1.782-2.002 6.67.935 2.01 1.96 4.053 6.08 6.302 4.246 2.317 8.023 2.01 9.402 1.518 4.265-1.523 3.45-4.952 3.45-4.952.64-.33 2.22-.883 4.99-.71.238.014.543 1.787.355 3.417-.4 3.448-4.2 6.573-7.672 6.998-2.107.256-6.628.8-12.597-2.474-10.045-5.508-10.43-12.927-9.283-16.52.816-2.558 4.888-4.836 5.107-4.688z" class="AQ AR AS"/><defs><filter id="AM" filterUnits="userSpaceOnUse" x="44.564" y="109.64" width="16.631" height="9.968"><feColorMatrix values="1 0 0 0 0 0 1 0 0 0 0 0 1 0 0 0 0 0 1 0"/></filter></defs><mask maskUnits="userSpaceOnUse" x="44.564" y="109.64" width="16.631" height="9.968" id="AN"><g filter="url(#AM)"><use xlink:href="#O" class="AT"/></g></mask><linearGradient id="AO" gradientUnits="userSpaceOnUse" x1="44.328" y1="102.005" x2="60.968" y2="127.286"><stop offset="0" stop-color="#e6e7e7"/><stop offset="1" stop-color="#a7a9ac"/></linearGradient><use xlink:href="#O" mask="url(#AN)" fill="url(#AO)"/><path d="M46.544 114.333l-.77-2.363-1.208-2.3c6.4-.52 14.94 5.71 16.63 9.088 0 0-1.497-.128-2.745.252-1.235.374-1.237.36-2.24.597-3.328-4.37-9.757-5.827-9.665-5.275z" class="AQ AR AS"/><path d="M40.757 123.874c-.297.078-1.997-3.072-1.997-4.53 0 0 1.54-.273 2.45-1.917 1.1-1.97-.56-7.66-6.954-10.678-7.38-3.48-11.382-.378-11.837.895-1.148 3.206 1.404 7.47 5.42 9.94 3.932 2.42 5.264 1.826 5.97 2.23 0 0 1.147 3.885 1.834 4.862 0 0-4.526.012-10.136-3.402-7.146-4.346-9.862-11.014-7.99-16.07 1.12-3.032 8.523-7.687 19.356-1.965 9.042 4.777 11.083 13.3 9.247 16.755-1.22 2.298-4.315 3.607-5.362 3.88" class="AW"/><path d="M40.757 123.874c-.297.078-1.997-3.072-1.997-4.53 0 0 1.54-.273 2.45-1.917 1.1-1.97-.56-7.66-6.954-10.678-7.38-3.48-11.382-.378-11.837.895-1.148 3.206 1.404 7.47 5.42 9.94 3.932 2.42 5.264 1.826 5.97 2.23 0 0 1.147 3.885 1.834 4.862 0 0-4.526.012-10.136-3.402-7.146-4.346-9.862-11.014-7.99-16.07 1.12-3.032 8.523-7.687 19.356-1.965 9.042 4.777 11.083 13.3 9.247 16.755-1.22 2.298-4.315 3.607-5.362 3.88z" class="AQ AR AS"/><path d="M24.353 114.92c-.296.078-1.996-3.072-1.997-4.53 0 0 1.54-.272 2.45-1.916 1.09-1.97-.56-7.66-6.955-10.678-7.38-3.482-11.38-.38-11.837.894-1.15 3.206 1.405 7.47 5.42 9.942 3.932 2.42 5.263 1.825 5.97 2.228 0 0 1.147 3.885 1.835 4.864 0 0-4.525.01-10.136-3.403-7.147-4.345-9.862-11.014-7.992-16.072 1.12-3.03 8.523-7.687 19.357-1.965 9.04 4.778 11.083 13.3 9.248 16.756-1.222 2.3-4.317 3.606-5.364 3.88" class="AW"/><g class="AQ"><path d="M24.353 114.92c-.296.078-1.996-3.072-1.997-4.53 0 0 1.54-.272 2.45-1.916 1.09-1.97-.56-7.66-6.955-10.678-7.38-3.482-11.38-.38-11.837.894-1.15 3.206 1.405 7.47 5.42 9.942 3.932 2.42 5.263 1.825 5.97 2.228 0 0 1.147 3.885 1.835 4.864 0 0-4.525.01-10.136-3.403-7.147-4.345-9.862-11.014-7.992-16.072 1.12-3.03 8.523-7.687 19.357-1.965 9.04 4.778 11.083 13.3 9.248 16.756-1.222 2.3-4.317 3.606-5.364 3.88z" class="AR AS"/><g stroke="#4f504f"><path d="M46.478 168.21c-.564-.337-1.754-.74-1.77-2.095l.1-24.003c.04-.627-.065-1.722.322-1.936l1.637-.853 3.986-2.13.117-15.887c.157-1.278.746-3.267 2.082-4.448s1.864-1.218 3.8-2.258c1.89-1.017 5.605-3.396 7.22-3.6 1.463-.196 3.963.135 5.43 1.075 1.28.818 4.56 2.716 6.66 5.84 1.502 2.236 4.304 7.278 5.02 11.016.238 1.242.36 4.356.4 6.302.018.688-.13 8.434-.13 8.434l4.877 2.977c.338.225 1.47.718 1.436 2.297-.023 1.022-.02 23.7 0 24.176.035.86-.07 1.58-1.615 2.258-.98.434-14.098 7.462-14.098 7.462s-.467.574-1.685-.217c-1.592-1.028-23.81-14.4-23.81-14.4z" stroke-width="4.32"/><path d="M69.176 136.412c-.574-.108-6.063-3.732-6.063-3.732l-.037-9.65s3.697 3.733 4.808 6.422c.682 1.65 1.262 6.073 1.148 6.64-.007.035.19.33.144.322z" stroke-width="2.25"/></g></g><defs><filter id="AP" filterUnits="userSpaceOnUse" x="45.575" y="132.172" width="16.142" height="8.37"><feColorMatrix values="1 0 0 0 0 0 1 0 0 0 0 0 1 0 0 0 0 0 1 0"/></filter></defs><mask maskUnits="userSpaceOnUse" x="45.575" y="132.172" width="16.142" height="8.37" id="AQ"><g filter="url(#AP)"><path d="M61.106 132.225l-15.53 8.24c.162-.085.377-.067.612.074l15.53-8.244c-.14-.084-.272-.123-.39-.123a.47.47 0 0 0-.219.052" class="AT"/></g></mask><path d="M61.284 132.172l-.053.01c-.022.003-.042.01-.064.018l-15.53 8.24c.02-.01.042-.012.064-.018s.035-.006.053-.006l15.53-8.244zm-15.646 8.267l15.53-8.242a.27.27 0 0 0-.061.027l-15.53 8.242c.02-.01.042-.022.063-.027zm15.646-8.265l-15.53 8.244c.014-.003.03-.004.047-.004s.03.004.043.004.027.003.04.006l.002-.002c.012.003.024.003.037.006s.025.006.037.012l.035.01c.012.006.024.01.037.016l.002-.002c.01.003.022.01.033.016s.022.008.035.014l.035.02h.002l.033.02 15.545-8.234-.05-.028-.07-.036c-.01-.006-.023-.01-.035-.016v.002h-.002c-.012-.003-.024-.01-.035-.014s-.025-.01-.037-.012-.025-.005-.037-.008l-.04-.01-.004.002c-.01-.001-.022-.004-.033-.004s-.03-.002-.045-.002h-.047z" mask="url(#AQ)" fill="#ac8631"/><defs><filter id="AR" filterUnits="userSpaceOnUse" x="71.543" y="173.771" width="15.814" height="8.848"><feColorMatrix values="1 0 0 0 0 0 1 0 0 0 0 0 1 0 0 0 0 0 1 0"/></filter></defs><mask maskUnits="userSpaceOnUse" x="71.543" y="173.771" width="15.814" height="8.848" id="AS"><g filter="url(#AR)"><path d="M71.825 182.012c0 .305-.107.516-.28.606l15.53-8.24c.172-.09.282-.3.282-.606l-15.532 8.24z" class="AT"/></g></mask><path d="M87.356 173.77l-15.53 8.24v.023l15.53-8.244v-.02zm-15.53 8.264l-.002.04c0 .015-.002.03-.004.045s-.003.028-.004.043l-.008.045c-.002.015-.006.026-.008.04l-.012.047-.018.05h.002l-.02.05-.002.002-.035.064c-.043.07-.102.122-.17.158l15.53-8.24a.46.46 0 0 0 .17-.162c.012-.017.024-.04.035-.063l.02-.053.018-.045v-.002c.004-.015.01-.03.012-.045l.01-.045c.002-.015.007-.028.008-.043s.004-.027.004-.04l.002-.045.004-.043-15.532 8.243z" mask="url(#AS)" fill="#a3802e"/><path d="M61.717 132.296L86.44 147.15l-15.53 8.245-24.723-14.854z" fill="#d3a43e"/><path d="M87.337 148.77l.02 25.002-15.53 8.24-.02-25.002z" fill="#c49939"/><defs><filter id="AT" filterUnits="userSpaceOnUse" x="70.909" y="147.148" width="16.429" height="9.865"><feColorMatrix values="1 0 0 0 0 0 1 0 0 0 0 0 1 0 0 0 0 0 1 0"/></filter></defs><mask maskUnits="userSpaceOnUse" x="70.909" y="147.148" width="16.429" height="9.865" id="AU"><g filter="url(#AT)"><path d="M70.91 155.394c.49.292.897 1.027.897 1.616l15.53-8.24c0-.592-.407-1.324-.898-1.62" class="AT"/></g></mask><path d="M86.438 147.148l-15.53 8.244c.008.003.016.01.023.012l.037.027c.013.006.023.013.035.02l15.53-8.24c-.01-.01-.023-.016-.037-.025l-.037-.023c-.006-.006-.013-.01-.023-.016zm.098.067l-15.53 8.24a.39.39 0 0 0 .039.029c.012.012.025.02.037.03l.04.033c.014.015.025.025.04.037l15.53-8.24c-.013-.015-.025-.027-.04-.04-.01-.012-.024-.022-.037-.03s-.027-.024-.04-.033-.024-.018-.037-.027zm.154.13l-15.53 8.242c.012.012.024.02.037.037l.037.037.035.04c.01.015.02.026.033.04l.033.037.03.04.035.047c.012.015.023.033.035.05a2.21 2.21 0 0 1 .146.252c.01.018.018.034.025.053s.018.03.023.05l.036.082.018.045c.006.012.01.026.016.04a.36.36 0 0 0 .014.043l.016.045c.004.018.01.032.014.047h-.002l.014.047.012.05c.004.014.006.03.01.045v.002l.008.045.008.047.006.047.004.045.004.043.002.045v.02l15.53-8.242v-.02l-.002-.043-.002-.045-.006-.047c-.001-.015-.005-.03-.006-.043s-.004-.033-.006-.047-.006-.033-.01-.047-.006-.032-.008-.05-.01-.03-.012-.047l-.014-.05-.014-.047a.43.43 0 0 1-.014-.043l-.016-.045-.016-.043c-.004-.012-.01-.027-.016-.04l-.036-.082-.023-.05v-.002l-.027-.05a2.15 2.15 0 0 0-.146-.252c-.01-.018-.023-.037-.035-.05s-.02-.033-.033-.047-.02-.027-.03-.04l-.03-.04-.033-.037-.035-.04h-.002c-.012-.015-.023-.025-.035-.037s-.027-.027-.04-.04z" mask="url(#AU)" fill="#dfb04b"/><path d="M45.087 141.876c-.105-.926.06-2.32 1.232-1.485 1.07.756 22.252 13.532 23.014 13.907 2.457 1.213 2.7 2.32 2.57 3.533s-.023 22.872-.043 23.78c-.01.774.157 1.62-1.255.888-.686-.357-24.14-14.502-24.726-14.88-.58-.384-.733-1.134-.696-2.19.052-1.49.01-22.63-.096-23.552" fill="#fcbd56"/><path d="M45.087 141.876c-.105-.926.06-2.32 1.232-1.485 1.07.756 22.252 13.532 23.014 13.907 2.457 1.213 2.7 2.32 2.57 3.533s-.023 22.872-.043 23.78c-.01.774.157 1.62-1.255.888-.686-.357-24.14-14.502-24.726-14.88-.58-.384-.733-1.134-.696-2.19.052-1.49.01-22.63-.096-23.552z" stroke="#f2efef" class="AQ AZ"/><path d="M60.605 170.633c0 1.245-.873 1.737-1.94 1.1l-.86-.52c-1.066-.642-1.94-2.183-1.94-3.43v-15.257c0-1.246.874-1.74 1.94-1.1l.86.516c1.067.64 1.94 2.185 1.94 3.43v15.26z" class="AU"/><path d="M62.097 132.305l23.5 14.25-15.157 7.924-23.906-14.317z" fill="#9d8043"/><path d="M55.066 127.888c0-1.52.016-2.906.358-3.904s.923-1.978 1.732-2.43l7.766-4.123c-.767.41-1.5 1.516-1.784 2.565-.268.994-.325 2.26-.306 3.77l.01 14.007-7.766 4.12-.01-14.005z" fill="#bfbec0"/><defs><filter id="AV" filterUnits="userSpaceOnUse" x="55.071" y="129.671" width="7.771" height="12.22"><feColorMatrix values="1 0 0 0 0 0 1 0 0 0 0 0 1 0 0 0 0 0 1 0"/></filter></defs><mask maskUnits="userSpaceOnUse" x="55.071" y="129.671" width="7.771" height="12.22" id="AW"><g filter="url(#AV)"><path d="M55.072 133.793l.005 8.097 7.766-4.12-.006-8.1" class="AT"/></g></mask><path d="M55.07 133.793l7.766-4.122.005 8.1-7.765 4.12-.006-8.098" mask="url(#AW)" fill="#b7b7b8"/><defs><filter id="AX" filterUnits="userSpaceOnUse" x="73.307" y="133.063" width="7.845" height="19.74"><feColorMatrix values="1 0 0 0 0 0 1 0 0 0 0 0 1 0 0 0 0 0 1 0"/></filter></defs><mask maskUnits="userSpaceOnUse" x="73.307" y="133.063" width="7.845" height="19.74" id="AY"><g filter="url(#AX)"><path d="M73.236 134.915c.147 1.26.15 17.21.15 17.888l7.765-4.122L81 130.793" class="AT"/></g></mask><path d="M73.307 137.182l7.765-4.12.08 15.618-7.766 4.122-.08-15.62" mask="url(#AY)" fill="#b7b7b8"/><path d="M69.43 150.37l3.883 2.332-.152-17.818c-.157-1.3-.872-4.087-1.77-6.33-.843-2.098-2.274-4.51-4.254-7.146-1.415-1.875-3.644-3.58-5.25-4.547l-1.275-.688c-2.3-1.075-4.573-.686-5.543-.28-3.02 1.248-3.47 4.064-3.682 5.417-.046.317-.082.563-.14.698-.276.68-.134 16.467-.134 17.458l3.9 2.338-.02-14.12c.01-.153.01-.33.018-.537.018-1.08.044-2.88.562-3.794l.165-.3c.405-.747.858-1.6 2.345-1.9.953-.196 2.125-.205 4.212.993l.14.082c1.983 1.193 3.467 3.258 4.66 5.12 1.88 2.944 2.25 6.53 2.287 6.93.067.753.057 14.99.057 16.093m3.807-15.454c.147 1.26.15 17.21.15 17.89l-4.04-2.382-.06-16.184c-.036-.4-.4-3.937-2.25-6.844-1.183-1.845-2.654-3.887-4.612-5.065l-.14-.082c-2.07-1.2-3.223-1.18-4.166-1-1.477.28-1.92 1.128-2.316 1.872-.057.11-.11.21-.168.3-.516.894-.54 2.68-.56 3.75a8.11 8.11 0 0 1-.007.542c-.028.742-.007 3.77.004 5.224v.838l.005 8.097-4.04-2.37c-.01-.74-.15-16.883.137-17.592.045-.138.082-.372.137-.674.21-1.365.662-4.2 3.71-5.467.978-.4 3.252-.797 5.582.3.396.185.832.4 1.283.683 1.617.972 3.863 2.69 5.287 4.6 1.998 2.65 3.44 5.075 4.293 7.202.898 2.24 1.62 5.047 1.77 6.363" fill="#a1a1a3"/><use xlink:href="#P" fill="#d0d1d1"/><use xlink:href="#P" stroke="#4f504f" class="AQ AZ"/><path d="M73.316 152.655l-.13-17.537c-.42-5.647-4.54-12.433-7.504-15.356-2.622-2.47-6.767-5.747-11.066-3.7l7.636-4.18c2.8-1.342 5.82-.685 9.124 1.874 3.615 2.662 5.743 6.266 7.61 10.034.873 2.078 1.965 5.435 2.025 7.234l.067 17.512-7.764 4.12z" fill="#bfbec0"/></svg>