<?xml version="1.0" encoding="UTF-8" standalone="no"?>
<svg
   xmlns:dc="http://purl.org/dc/elements/1.1/"
   xmlns:cc="http://creativecommons.org/ns#"
   xmlns:rdf="http://www.w3.org/1999/02/22-rdf-syntax-ns#"
   xmlns:svg="http://www.w3.org/2000/svg"
   xmlns="http://www.w3.org/2000/svg"
   xmlns:sodipodi="http://sodipodi.sourceforge.net/DTD/sodipodi-0.dtd"
   xmlns:inkscape="http://www.inkscape.org/namespaces/inkscape"
   id="fd3d8d4a-46e1-4408-ba1e-9135a7e34c49"
   width="16"
   height="16"
   viewBox="0 0 16 16"
   version="1.1"
   sodipodi:docname="App_Service_Environments.svg"
   inkscape:version="0.92.3 (2405546, 2018-03-11)">
  <sodipodi:namedview
     pagecolor="#ffffff"
     bordercolor="#666666"
     borderopacity="1"
     objecttolerance="10"
     gridtolerance="10"
     guidetolerance="10"
     inkscape:pageopacity="0"
     inkscape:pageshadow="2"
     inkscape:window-width="1920"
     inkscape:window-height="1017"
     id="namedview1130"
     showgrid="false"
     fit-margin-top="0"
     fit-margin-left="0"
     fit-margin-right="0"
     fit-margin-bottom="0"
     inkscape:zoom="48.111111"
     inkscape:cx="8"
     inkscape:cy="8.08"
     inkscape:window-x="-8"
     inkscape:window-y="-8"
     inkscape:window-maximized="1"
     inkscape:current-layer="fd3d8d4a-46e1-4408-ba1e-9135a7e34c49" />
  <defs
     id="defs1113">
    <linearGradient
       id="b25a6eef-63a1-4028-981f-ae9a6e561a3b"
       x1="9"
       y1="3.72"
       x2="9"
       y2="15.02"
       gradientUnits="userSpaceOnUse">
      <stop
         offset="0.18"
         stop-color="#5ea0ef"
         id="stop1108" />
      <stop
         offset="1"
         stop-color="#0078d4"
         id="stop1110" />
    </linearGradient>
  </defs>
  <title
     id="title1115">Icon-web-47</title>
  <path
     d="M 7.57,7.61 H 0 V 1.1 A 1.1,1.1 0 0 1 1.09,0 H 7.57 Z M 0.94,6.67 H 6.63 V 0.92 H 1.09 A 0.15,0.15 0 0 0 0.94,1.07 Z"
     id="path1117"
     inkscape:connector-curvature="0"
     style="fill:#949494" />
  <path
     d="M 16,7.61 H 8.43 V 0 h 6.48 A 1.1,1.1 0 0 1 16,1.1 Z M 9.37,6.67 h 5.69 V 1.1 A 0.15,0.15 0 0 0 14.91,0.92 H 9.37 Z"
     id="path1119"
     inkscape:connector-curvature="0"
     style="fill:#949494" />
  <path
     d="M 7.57,16 H 1.09 A 1.09,1.09 0 0 1 0,14.92 V 8.4 H 7.57 Z M 0.94,9.34 v 5.58 a 0.15,0.15 0 0 0 0.15,0.15 H 6.63 V 9.34 Z"
     id="path1121"
     inkscape:connector-curvature="0"
     style="fill:#949494" />
  <path
     d="M 14.91,16 H 8.43 V 8.4 H 16 v 6.52 A 1.09,1.09 0 0 1 14.91,16 Z M 9.37,15.06 h 5.54 a 0.15,0.15 0 0 0 0.15,-0.15 V 9.34 H 9.37 Z"
     id="path1123"
     inkscape:connector-curvature="0"
     style="fill:#949494" />
  <path
     d="M 13.67,9.54 A 2.59,2.59 0 0 0 11.46,7.04 3.24,3.24 0 0 0 8.15,3.92 3.32,3.32 0 0 0 5,6.09 a 3.08,3.08 0 0 0 -2.66,3 3.11,3.11 0 0 0 3.19,3 H 11 11.14 a 2.61,2.61 0 0 0 2.53,-2.55 z"
     id="path1125"
     inkscape:connector-curvature="0"
     style="fill:url(#b25a6eef-63a1-4028-981f-ae9a6e561a3b)" />
  <metadata
     id="metadata1127">
    <rdf:RDF>
      <rdf:li>public:true</rdf:li>
      <rdf:li>sdk:false</rdf:li>
      <rdf:li>category: App Services</rdf:li>
      <cc:Work
         rdf:about="">
        <dc:format>image/svg+xml</dc:format>
        <dc:type
           rdf:resource="http://purl.org/dc/dcmitype/StillImage" />
        <dc:title>Icon-web-47</dc:title>
      </cc:Work>
    </rdf:RDF>
  </metadata>
</svg>
