<?xml version="1.0" encoding="UTF-8" standalone="no"?>
<svg
   xmlns:dc="http://purl.org/dc/elements/1.1/"
   xmlns:cc="http://creativecommons.org/ns#"
   xmlns:rdf="http://www.w3.org/1999/02/22-rdf-syntax-ns#"
   xmlns:svg="http://www.w3.org/2000/svg"
   xmlns="http://www.w3.org/2000/svg"
   xmlns:sodipodi="http://sodipodi.sourceforge.net/DTD/sodipodi-0.dtd"
   xmlns:inkscape="http://www.inkscape.org/namespaces/inkscape"
   id="f6a79126-a7ef-4190-b01b-e34b5ccb7977"
   width="18"
   height="16.483812"
   viewBox="0 0 18 16.483812"
   version="1.1"
   sodipodi:docname="App_Service_Certificates.svg"
   inkscape:version="0.92.3 (2405546, 2018-03-11)">
  <sodipodi:namedview
     pagecolor="#ffffff"
     bordercolor="#666666"
     borderopacity="1"
     objecttolerance="10"
     gridtolerance="10"
     guidetolerance="10"
     inkscape:pageopacity="0"
     inkscape:pageshadow="2"
     inkscape:window-width="1920"
     inkscape:window-height="1017"
     id="namedview954"
     showgrid="false"
     fit-margin-top="0"
     fit-margin-left="0"
     fit-margin-right="0"
     fit-margin-bottom="0"
     inkscape:zoom="48.111111"
     inkscape:cx="8.2413395"
     inkscape:cy="8.2438118"
     inkscape:window-x="-8"
     inkscape:window-y="-8"
     inkscape:window-maximized="1"
     inkscape:current-layer="f6a79126-a7ef-4190-b01b-e34b5ccb7977" />
  <defs
     id="defs937">
    <linearGradient
       id="efc95f57-28bf-41de-a09e-d4f8c25449a4"
       x1="9"
       y1="13.51"
       x2="9"
       y2="0.75999999"
       gradientUnits="userSpaceOnUse">
      <stop
         offset="0"
         stop-color="#f78d1e"
         id="stop928" />
      <stop
         offset="0.44"
         stop-color="#f8911e"
         id="stop930" />
      <stop
         offset="0.85"
         stop-color="#f99c1d"
         id="stop932" />
      <stop
         offset="1"
         stop-color="#faa21d"
         id="stop934" />
    </linearGradient>
  </defs>
  <title
     id="title939">Icon-web-49</title>
  <rect
     y="0"
     width="18"
     height="12.75"
     rx="0.60000002"
     id="rect941"
     x="0"
     style="fill:url(#efc95f57-28bf-41de-a09e-d4f8c25449a4)" />
  <rect
     x="1.05"
     y="1.12"
     width="15.9"
     height="10.5"
     rx="0.30000001"
     id="rect943"
     style="fill:#ffffff" />
  <path
     id="bcc3d4fb-2f67-48ef-b6e7-f3c11ba0061b"
     d="m 14.94,8.58 a 0.29,0.29 0 0 1 -0.28,0.29 h -6.5 a 0.29,0.29 0 0 1 0,-0.58 h 6.5 a 0.28,0.28 0 0 1 0.28,0.29"
     inkscape:connector-curvature="0"
     style="fill:#d15900" />
  <path
     id="e696babd-447d-4e2b-bc61-f978fd3ed1bc"
     d="m 14.94,6.78 a 0.29,0.29 0 0 1 -0.28,0.29 h -6.5 a 0.29,0.29 0 0 1 0,-0.58 h 6.5 a 0.28,0.28 0 0 1 0.28,0.29"
     inkscape:connector-curvature="0"
     style="fill:#d15900" />
  <path
     id="b5d2bd6a-dd0a-43be-bfa5-16266f75812c"
     d="M 14.94,4.17 A 0.28,0.28 0 0 1 14.66,4.46 H 3.77 a 0.29,0.29 0 1 1 0,-0.58 h 10.89 a 0.28,0.28 0 0 1 0.28,0.29"
     inkscape:connector-curvature="0"
     style="fill:#d15900" />
  <path
     id="aad840c2-43d5-415e-a865-328ca9d53f36"
     d="m 5.13,11.93 a 2.52,2.52 0 0 1 -3.37,0 l -0.21,4.19 a 0.33,0.33 0 0 0 0.57,0.25 l 1.3,-1.32 1.31,1.33 A 0.33,0.33 0 0 0 5.3,16.14 Z"
     inkscape:connector-curvature="0"
     style="fill:#b31b1b" />
  <ellipse
     id="beae3214-3e24-4a7c-af86-a4353a2d1797"
     cx="3.48"
     cy="9.7799997"
     rx="3.01"
     ry="3.02"
     style="fill:#e62323" />
  <circle
     id="f1e213df-20de-4eb9-9bf3-0c6690c16a0a"
     cx="3.48"
     cy="9.7799997"
     r="2.29"
     style="fill:#ffb34d" />
  <metadata
     id="metadata951">
    <rdf:RDF>
      <rdf:li>public:true</rdf:li>
      <rdf:li>sdk:MsPortalFx.Base.Images.Polychromatic.Certificate()</rdf:li>
      <rdf:li>category: App Services</rdf:li>
      <cc:Work
         rdf:about="">
        <dc:format>image/svg+xml</dc:format>
        <dc:type
           rdf:resource="http://purl.org/dc/dcmitype/StillImage" />
        <dc:title>Icon-web-49</dc:title>
      </cc:Work>
    </rdf:RDF>
  </metadata>
</svg>
