<?xml version="1.0" encoding="UTF-8" standalone="no"?>
<svg
   xmlns:dc="http://purl.org/dc/elements/1.1/"
   xmlns:cc="http://creativecommons.org/ns#"
   xmlns:rdf="http://www.w3.org/1999/02/22-rdf-syntax-ns#"
   xmlns:svg="http://www.w3.org/2000/svg"
   xmlns="http://www.w3.org/2000/svg"
   xmlns:sodipodi="http://sodipodi.sourceforge.net/DTD/sodipodi-0.dtd"
   xmlns:inkscape="http://www.inkscape.org/namespaces/inkscape"
   id="e5cb9f87-7b25-4ce4-8df5-8cd66afecc6d"
   width="17"
   height="14.157609"
   viewBox="0 0 17 14.157609"
   version="1.1"
   sodipodi:docname="Notification_Hubs.svg"
   inkscape:version="0.92.3 (2405546, 2018-03-11)">
  <sodipodi:namedview
     pagecolor="#ffffff"
     bordercolor="#666666"
     borderopacity="1"
     objecttolerance="10"
     gridtolerance="10"
     guidetolerance="10"
     inkscape:pageopacity="0"
     inkscape:pageshadow="2"
     inkscape:window-width="1920"
     inkscape:window-height="1017"
     id="namedview1693"
     showgrid="false"
     fit-margin-top="0"
     fit-margin-left="0"
     fit-margin-right="0"
     fit-margin-bottom="0"
     inkscape:zoom="48.111111"
     inkscape:cx="8.5"
     inkscape:cy="7.0775224"
     inkscape:window-x="-8"
     inkscape:window-y="-8"
     inkscape:window-maximized="1"
     inkscape:current-layer="e5cb9f87-7b25-4ce4-8df5-8cd66afecc6d" />
  <defs
     id="defs1676">
    <linearGradient
       id="bd9b1662-9bee-4ea8-9cee-787e4ccd4f18"
       x1="9"
       y1="0.81"
       x2="9"
       y2="21.280001"
       gradientUnits="userSpaceOnUse"
       gradientTransform="translate(0.49999999,1.9199138)">
      <stop
         offset="0"
         stop-color="#ffd70f"
         id="stop1667" />
      <stop
         offset="0.34"
         stop-color="#eeb309"
         id="stop1669" />
      <stop
         offset="0.77"
         stop-color="#dc8c03"
         id="stop1671" />
      <stop
         offset="1"
         stop-color="#d57d01"
         id="stop1673" />
    </linearGradient>
  </defs>
  <title
     id="title1678">Icon-web-45</title>
  <g
     id="g1688"
     transform="translate(-0.49999999,-1.9199138)">
    <g
       id="g1686">
      <path
         d="m 17.5,2.5 v 10.83 a 0.58,0.58 0 0 1 -0.59,0.58 h -4.52 a 0.14,0.14 0 0 0 -0.14,0.14 V 15.8 A 0.28,0.28 0 0 1 11.8,16.02 L 9.08,13.94 H 8.99 1.09 A 0.58,0.58 0 0 1 0.5,13.36 V 2.5 A 0.58,0.58 0 0 1 1.09,1.92 H 16.91 A 0.58,0.58 0 0 1 17.5,2.5 Z"
         id="path1680"
         inkscape:connector-curvature="0"
         style="fill:url(#bd9b1662-9bee-4ea8-9cee-787e4ccd4f18)" />
      <path
         d="m 2.05,9 3,2.52 A 0.29,0.29 0 0 0 5.52,11.3 V 10.2 H 17.48 V 8.5 H 2.23 A 0.29,0.29 0 0 0 2.05,9 Z"
         id="path1682"
         inkscape:connector-curvature="0"
         style="fill:#ffe452" />
      <path
         d="M 16.24,6.46 13.13,3.94 a 0.29,0.29 0 0 0 -0.47,0.22 v 1.1 H 0.5 V 7 h 15.56 a 0.29,0.29 0 0 0 0.18,-0.54 z"
         id="path1684"
         inkscape:connector-curvature="0"
         style="fill:#ffffff" />
    </g>
  </g>
  <metadata
     id="metadata1690">
    <rdf:RDF>
      <rdf:li>public:true</rdf:li>
      <rdf:li>sdk:false</rdf:li>
      <rdf:li>category: IoT, App Services</rdf:li>
      <cc:Work
         rdf:about="">
        <dc:format>image/svg+xml</dc:format>
        <dc:type
           rdf:resource="http://purl.org/dc/dcmitype/StillImage" />
        <dc:title>Icon-web-45</dc:title>
      </cc:Work>
    </rdf:RDF>
  </metadata>
</svg>
