<?xml version="1.0" encoding="UTF-8" standalone="no"?>
<svg
   xmlns:dc="http://purl.org/dc/elements/1.1/"
   xmlns:cc="http://creativecommons.org/ns#"
   xmlns:rdf="http://www.w3.org/1999/02/22-rdf-syntax-ns#"
   xmlns:svg="http://www.w3.org/2000/svg"
   xmlns="http://www.w3.org/2000/svg"
   xmlns:sodipodi="http://sodipodi.sourceforge.net/DTD/sodipodi-0.dtd"
   xmlns:inkscape="http://www.inkscape.org/namespaces/inkscape"
   id="f470e112-f1d8-4c18-a381-9b54e11a9ca3"
   width="18"
   height="13.098808"
   viewBox="0 0 18 13.098808"
   version="1.1"
   sodipodi:docname="Search_Services.svg"
   inkscape:version="0.92.3 (2405546, 2018-03-11)">
  <sodipodi:namedview
     pagecolor="#ffffff"
     bordercolor="#666666"
     borderopacity="1"
     objecttolerance="10"
     gridtolerance="10"
     guidetolerance="10"
     inkscape:pageopacity="0"
     inkscape:pageshadow="2"
     inkscape:window-width="1920"
     inkscape:window-height="1017"
     id="namedview1741"
     showgrid="false"
     fit-margin-top="0"
     fit-margin-left="0"
     fit-margin-right="0"
     fit-margin-bottom="0"
     inkscape:zoom="48.111111"
     inkscape:cx="9"
     inkscape:cy="6.4177954"
     inkscape:window-x="-8"
     inkscape:window-y="-8"
     inkscape:window-maximized="1"
     inkscape:current-layer="f470e112-f1d8-4c18-a381-9b54e11a9ca3" />
  <defs
     id="defs1728">
    <linearGradient
       id="b198f9ad-224e-4f37-99bb-f1c5a20d3916"
       x1="9"
       y1="0.36000001"
       x2="9"
       y2="18.309999"
       gradientUnits="userSpaceOnUse">
      <stop
         offset="0.18"
         stop-color="#5ea0ef"
         id="stop1723" />
      <stop
         offset="1"
         stop-color="#0078d4"
         id="stop1725" />
    </linearGradient>
  </defs>
  <title
     id="title1730">Icon-web-44</title>
  <path
     d="m 18,9.0010133 a 4.12,4.12 0 0 0 -3.51,-4 5.15,5.15 0 0 0 -5.25,-5.00000002 5.25,5.25 0 0 0 -5,3.49000002 4.86,4.86 0 0 0 -4.24,4.78 5,5 0 0 0 5.07,4.8199997 h 0.44 8.21 a 0.78,0.78 0 0 0 0.22,0 A 4.13,4.13 0 0 0 18,9.0010133 Z"
     id="path1732"
     inkscape:connector-curvature="0"
     style="fill:url(#b198f9ad-224e-4f37-99bb-f1c5a20d3916)" />
  <path
     d="m 12.33,4.2710133 a 3.07,3.07 0 0 0 -5.61,0.85 3.16,3.16 0 0 0 0.33,2.27 l -2.34,2.37 a 0.79,0.79 0 0 0 0,1.1199997 0.78,0.78 0 0 0 0.56,0.23 0.76,0.76 0 0 0 0.56,-0.23 L 8.16,8.5210133 a 3.14,3.14 0 0 0 0.81,0.33 3.08,3.08 0 0 0 3.36,-4.58 z m -0.54,2.1 a 2.16,2.16 0 0 1 -2.09,1.65 1.79,1.79 0 0 1 -0.51,-0.07 1.87,1.87 0 0 1 -0.7,-0.32 2.13,2.13 0 0 1 -0.56,-0.56 2.17,2.17 0 0 1 -0.31,-1.73 2.14,2.14 0 0 1 2.08,-1.66 2.31,2.31 0 0 1 0.52,0.06 2.18,2.18 0 0 1 1.32,1 2.13,2.13 0 0 1 0.25,1.63 z"
     id="path1734"
     inkscape:connector-curvature="0"
     style="fill:#f2f2f2" />
  <ellipse
     cx="9.6899996"
     cy="5.8610134"
     rx="2.1500001"
     ry="2.1600001"
     id="ellipse1736"
     style="fill:#83b9f9" />
  <metadata
     id="metadata1738">
    <rdf:RDF>
      <rdf:li>public:true</rdf:li>
      <rdf:li>sdk:false</rdf:li>
      <rdf:li>category: App Services</rdf:li>
      <cc:Work
         rdf:about="">
        <dc:format>image/svg+xml</dc:format>
        <dc:type
           rdf:resource="http://purl.org/dc/dcmitype/StillImage" />
        <dc:title>Icon-web-44</dc:title>
      </cc:Work>
    </rdf:RDF>
  </metadata>
</svg>
