<?xml version="1.0" encoding="UTF-8" standalone="no"?>
<svg
   xmlns:dc="http://purl.org/dc/elements/1.1/"
   xmlns:cc="http://creativecommons.org/ns#"
   xmlns:rdf="http://www.w3.org/1999/02/22-rdf-syntax-ns#"
   xmlns:svg="http://www.w3.org/2000/svg"
   xmlns="http://www.w3.org/2000/svg"
   xmlns:sodipodi="http://sodipodi.sourceforge.net/DTD/sodipodi-0.dtd"
   xmlns:inkscape="http://www.inkscape.org/namespaces/inkscape"
   id="e2354665-da3e-47da-bdbf-c0a061b5d0b5"
   data-name="Layer 1"
   width="16.964279"
   height="17.507851"
   viewBox="0 0 16.964279 17.507851"
   version="1.1"
   sodipodi:docname="Device_Provisioning_Services.svg"
   inkscape:version="0.92.3 (2405546, 2018-03-11)">
  <sodipodi:namedview
     pagecolor="#ffffff"
     bordercolor="#666666"
     borderopacity="1"
     objecttolerance="10"
     gridtolerance="10"
     guidetolerance="10"
     inkscape:pageopacity="0"
     inkscape:pageshadow="2"
     inkscape:window-width="1920"
     inkscape:window-height="1017"
     id="namedview56141"
     showgrid="false"
     fit-margin-top="0"
     fit-margin-left="0"
     fit-margin-right="0"
     fit-margin-bottom="0"
     inkscape:zoom="48.111111"
     inkscape:cx="8.4901277"
     inkscape:cy="8.7499999"
     inkscape:window-x="-8"
     inkscape:window-y="-8"
     inkscape:window-maximized="1"
     inkscape:current-layer="e2354665-da3e-47da-bdbf-c0a061b5d0b5" />
  <defs
     id="defs56102">
    <linearGradient
       id="a2ce308d-2865-4d56-bfb4-da21e9e9e552"
       x1="8.9919996"
       y1="16.975"
       x2="8.9919996"
       y2="0.242"
       gradientUnits="userSpaceOnUse">
      <stop
         offset="0"
         stop-color="#b3b2b3"
         id="stop56095" />
      <stop
         offset="0.31"
         stop-color="#9e9e9e"
         id="stop56097" />
      <stop
         offset="0.54"
         stop-color="#949494"
         id="stop56099" />
    </linearGradient>
  </defs>
  <g
     id="g56114"
     transform="translate(-0.50987234,-0.24214895)">
    <circle
       cx="10.1"
       cy="8.0500002"
       r="1.4299999"
       id="circle56104"
       style="fill:#ffffff" />
    <circle
       cx="12.5"
       cy="12.31"
       r="1.12"
       id="circle56106"
       style="fill:#ffffff" />
    <circle
       cx="8.04"
       cy="11.54"
       r="0.97000003"
       id="circle56108"
       style="fill:#ffffff" />
    <circle
       cx="7.3499999"
       cy="4.1799998"
       r="1.2"
       id="circle56110"
       style="fill:#ffffff" />
    <circle
       cx="4.1300001"
       cy="8.5900002"
       r="0.97000003"
       id="circle56112"
       style="fill:#ffffff" />
  </g>
  <path
     d="m 12.250128,11.837851 -2.4200003,-4.23 -0.24,0.13 0.2,-0.14 -2.74,-3.9 -0.5,0.36 2.43,3.45 -5.38,0.45 0.05,0.62 5.33,-0.45 -1.77,2.94 0.53,0.32 1.82,-3.02 2.1600003,3.77 0.54,-0.3 z"
     id="path56116"
     inkscape:connector-curvature="0"
     style="fill:#989898" />
  <g
     id="g56128"
     transform="translate(-0.50987234,-0.24214895)">
    <circle
       cx="10.09"
       cy="8.0600004"
       r="1.42"
       id="circle56118"
       style="fill:#32bedd" />
    <circle
       cx="7.3499999"
       cy="4.1799998"
       r="1.2"
       id="circle56120"
       style="fill:#32bedd" />
    <circle
       cx="4.1300001"
       cy="8.5900002"
       r="0.97000003"
       id="circle56122"
       style="fill:#32bedd" />
    <circle
       cx="8.04"
       cy="11.54"
       r="0.97000003"
       id="circle56124"
       style="fill:#32bedd" />
    <circle
       cx="12.5"
       cy="12.31"
       r="1.12"
       id="circle56126"
       style="fill:#32bedd" />
  </g>
  <circle
     cx="14.540128"
     cy="3.607851"
     r="1.42"
     id="circle56130"
     style="fill:#198ab3" />
  <circle
     cx="2.6601276"
     cy="3.607851"
     r="1.42"
     id="circle56132"
     style="fill:#198ab3" />
  <circle
     cx="8.5001278"
     cy="16.087851"
     r="1.42"
     id="circle56134"
     style="fill:#198ab3" />
  <path
     d="m 4.4301277,2.877851 a 6.881,6.881 0 0 1 8.2900003,0.12 1.918,1.918 0 0 1 1,-1.15 8.431,8.431 0 0 0 -10.4200003,-0.09 1.941,1.941 0 0 1 1.13,1.12 z m 11.6600003,1.88 a 1.91,1.91 0 0 1 -1.34,0.76 6.842,6.842 0 0 1 0.67,3 6.92,6.92 0 0 1 -5.22,6.7 1.871,1.871 0 0 1 0.24,0.91 1.765,1.765 0 0 1 -0.13,0.65 8.45,8.45 0 0 0 5.77,-12.02 z m -9.5000003,11.32 a 1.95,1.95 0 0 1 0.23,-0.9 6.909,6.909 0 0 1 -4.56,-9.69 2,2 0 0 1 -1,-0.53 1.676,1.676 0 0 1 -0.30000004,-0.4 8.47,8.47 0 0 0 5.74000004,12.2 1.926,1.926 0 0 1 -0.12,-0.68 z"
     id="path56136"
     inkscape:connector-curvature="0"
     style="fill:url(#a2ce308d-2865-4d56-bfb4-da21e9e9e552)" />
  <metadata
     id="metadata56138">
    <rdf:RDF>
      <rdf:li>public:true</rdf:li>
      <rdf:li>sdk:false</rdf:li>
      <rdf:li>category: IoT</rdf:li>
      <cc:Work
         rdf:about="">
        <dc:format>image/svg+xml</dc:format>
        <dc:type
           rdf:resource="http://purl.org/dc/dcmitype/StillImage" />
        <dc:title></dc:title>
      </cc:Work>
    </rdf:RDF>
  </metadata>
</svg>
