<?xml version="1.0" encoding="UTF-8" standalone="no"?>
<svg
   xmlns:dc="http://purl.org/dc/elements/1.1/"
   xmlns:cc="http://creativecommons.org/ns#"
   xmlns:rdf="http://www.w3.org/1999/02/22-rdf-syntax-ns#"
   xmlns:svg="http://www.w3.org/2000/svg"
   xmlns="http://www.w3.org/2000/svg"
   xmlns:sodipodi="http://sodipodi.sourceforge.net/DTD/sodipodi-0.dtd"
   xmlns:inkscape="http://www.inkscape.org/namespaces/inkscape"
   id="aa9b6cd1-47ec-44db-bbf1-958203b5601f"
   width="17.059999"
   height="16.99"
   viewBox="0 0 17.059999 16.99"
   version="1.1"
   sodipodi:docname="IoT_Hub.svg"
   inkscape:version="0.92.3 (2405546, 2018-03-11)">
  <sodipodi:namedview
     pagecolor="#ffffff"
     bordercolor="#666666"
     borderopacity="1"
     objecttolerance="10"
     gridtolerance="10"
     guidetolerance="10"
     inkscape:pageopacity="0"
     inkscape:pageshadow="2"
     inkscape:window-width="1920"
     inkscape:window-height="1017"
     id="namedview56696"
     showgrid="false"
     fit-margin-top="0"
     fit-margin-left="0"
     fit-margin-right="0"
     fit-margin-bottom="0"
     inkscape:zoom="48.111111"
     inkscape:cx="8.53"
     inkscape:cy="8.49"
     inkscape:window-x="-8"
     inkscape:window-y="-8"
     inkscape:window-maximized="1"
     inkscape:current-layer="aa9b6cd1-47ec-44db-bbf1-958203b5601f" />
  <defs
     id="defs56676">
    <linearGradient
       id="faaeb69b-3035-4577-9cb1-ddd3fba791e3"
       x1="9.1300001"
       y1="18.809999"
       x2="8.8500004"
       y2="-8.1000004"
       gradientUnits="userSpaceOnUse">
      <stop
         offset="0"
         stop-color="#198ab3"
         id="stop56661" />
      <stop
         offset="0"
         stop-color="#198ab3"
         id="stop56663" />
      <stop
         offset="0.09"
         stop-color="#22a5cb"
         id="stop56665" />
      <stop
         offset="0.19"
         stop-color="#29bade"
         id="stop56667" />
      <stop
         offset="0.29"
         stop-color="#2ec9eb"
         id="stop56669" />
      <stop
         offset="0.42"
         stop-color="#31d1f3"
         id="stop56671" />
      <stop
         offset="0.62"
         stop-color="#32d4f5"
         id="stop56673" />
    </linearGradient>
  </defs>
  <circle
     id="fa3a22e9-e4e8-46a1-bc09-f9532747c739"
     cx="10.929999"
     cy="7.9399996"
     r="1.97"
     style="fill:#ffffff" />
  <circle
     id="eb214416-6791-4934-ac0c-35afaa829f6e"
     cx="14.23"
     cy="13.8"
     r="1.55"
     style="fill:#ffffff" />
  <circle
     id="a4424413-b91f-48da-aedd-39e3a978b430"
     cx="8.0999994"
     cy="12.74"
     r="1.33"
     style="fill:#ffffff" />
  <circle
     id="f7ecfc1a-3268-471b-9464-57023bfc9cc4"
     cx="7.1400003"
     cy="2.6099999"
     r="1.65"
     style="fill:#ffffff" />
  <circle
     id="b4388938-ad80-41b4-b729-5c21e3eab320"
     cx="2.72"
     cy="8.6899996"
     r="1.33"
     style="fill:#ffffff" />
  <polygon
     points="11.4,8.35 11.67,8.15 7.9,2.79 7.21,3.29 10.55,8.04 3.15,8.65 3.22,9.51 10.55,8.9 8.12,12.94 8.85,13.38 11.35,9.22 14.32,14.41 15.06,13.99 11.73,8.16 "
     id="polygon56683"
     style="fill:#949494"
     transform="translate(-0.47,-0.5)" />
  <g
     id="g56689"
     transform="translate(-0.47,-0.5)">
    <path
       d="m 17.53,1.23 v 0 A 0.73,0.73 0 0 0 16.8,0.5 H 13 A 0.36,0.36 0 0 0 12.64,0.86 V 2.27 A 0.36,0.36 0 0 0 13,2.63 h 2.35 v 2.3 a 0.38,0.38 0 0 0 0.37,0.37 h 1.4 a 0.38,0.38 0 0 0 0.37,-0.37 v -3.7 z"
       id="path56685"
       inkscape:connector-curvature="0"
       style="fill:#949494" />
    <path
       d="M 5,15.37 H 2.61 v -2.3 A 0.38,0.38 0 0 0 2.24,12.7 h -1.4 a 0.38,0.38 0 0 0 -0.37,0.37 v 3.7 0 A 0.73,0.73 0 0 0 1.2,17.49 H 5 a 0.36,0.36 0 0 0 0.36,-0.36 v -1.4 A 0.36,0.36 0 0 0 5,15.37 Z"
       id="path56687"
       inkscape:connector-curvature="0"
       style="fill:#949494" />
  </g>
  <path
     d="m 10.93,5.99 a 2,2 0 1 1 -2,1.95 2,2 0 0 1 2,-1.95 z M 5.53,2.61 A 1.66,1.66 0 1 0 7.15,0.96 1.65,1.65 0 0 0 5.53,2.61 Z M 1.39,8.68 A 1.33,1.33 0 1 0 2.72,7.35 1.33,1.33 0 0 0 1.39,8.68 Z m 5.38,4.05 A 1.34,1.34 0 1 0 8.11,11.4 1.33,1.33 0 0 0 6.77,12.73 Z m 5.92,1.07 a 1.55,1.55 0 1 0 1.55,-1.54 1.53,1.53 0 0 0 -1.55,1.54 z"
     id="path56691"
     inkscape:connector-curvature="0"
     style="fill:url(#faaeb69b-3035-4577-9cb1-ddd3fba791e3)" />
  <metadata
     id="metadata56693">
    <rdf:RDF>
      <rdf:li>public:true</rdf:li>
      <rdf:li>sdk:false</rdf:li>
      <rdf:li>category: IoT</rdf:li>
      <cc:Work
         rdf:about="">
        <dc:format>image/svg+xml</dc:format>
        <dc:type
           rdf:resource="http://purl.org/dc/dcmitype/StillImage" />
        <dc:title></dc:title>
      </cc:Work>
    </rdf:RDF>
  </metadata>
</svg>
