<?xml version="1.0" encoding="UTF-8" standalone="no"?>
<svg
   id="e6e9dc42-aa45-4c25-a153-3c4dea6d1408"
   width="18"
   height="17.822309"
   viewBox="0 0 18 17.822309"
   version="1.1"
   sodipodi:docname="IoT_Edge.svg"
   inkscape:version="1.1 (c68e22c387, 2021-05-23)"
   xmlns:inkscape="http://www.inkscape.org/namespaces/inkscape"
   xmlns:sodipodi="http://sodipodi.sourceforge.net/DTD/sodipodi-0.dtd"
   xmlns="http://www.w3.org/2000/svg"
   xmlns:svg="http://www.w3.org/2000/svg">
  <sodipodi:namedview
     id="namedview40567"
     pagecolor="#ffffff"
     bordercolor="#666666"
     borderopacity="1.0"
     inkscape:pageshadow="2"
     inkscape:pageopacity="0.0"
     inkscape:pagecheckerboard="0"
     showgrid="false"
     fit-margin-top="0"
     fit-margin-left="0"
     fit-margin-right="0"
     fit-margin-bottom="0"
     inkscape:zoom="44.055556"
     inkscape:cx="9"
     inkscape:cy="8.9092055"
     inkscape:window-width="1920"
     inkscape:window-height="1017"
     inkscape:window-x="-8"
     inkscape:window-y="-8"
     inkscape:window-maximized="1"
     inkscape:current-layer="e6e9dc42-aa45-4c25-a153-3c4dea6d1408" />
  <defs
     id="defs40556">
    <linearGradient
       id="bee47a41-9626-4448-9119-87ad28e72505"
       x1="9"
       y1="12.85"
       x2="9"
       y2="0.090000004"
       gradientUnits="userSpaceOnUse"
       gradientTransform="translate(0,-0.08769081)">
      <stop
         offset="0"
         stop-color="#198ab3"
         id="stop40548" />
      <stop
         offset="0.44"
         stop-color="#28b7db"
         id="stop40550" />
      <stop
         offset="0.78"
         stop-color="#32d4f5"
         id="stop40552" />
    </linearGradient>
    <linearGradient
       id="beb70c0a-9df6-4825-adec-20340c00add6"
       x1="40.986601"
       y1="81.829799"
       x2="40.986601"
       y2="67.5414"
       href="#bee47a41-9626-4448-9119-87ad28e72505"
       gradientUnits="userSpaceOnUse"
       gradientTransform="translate(0,-0.08769081)" />
  </defs>
  <path
     d="m 18,8.7623092 a 4.06,4.06 0 0 0 -3.51,-3.85 5.1,5.1 0 0 0 -5.25,-4.91000001 5.23,5.23 0 0 0 -5,3.41000001 4.82,4.82 0 0 0 -4.24,4.64 4.9,4.9 0 0 0 5.07,4.7099998 h 0.44 8.21 a 0.78,0.78 0 0 0 0.22,0 A 4.09,4.09 0 0 0 18,8.7623092 Z"
     fill="url(#bee47a41-9626-4448-9119-87ad28e72505)"
     id="path40558"
     style="fill:url(#bee47a41-9626-4448-9119-87ad28e72505)" />
  <rect
     x="8.5799999"
     y="8.3723097"
     width="0.77999997"
     height="6.1900001"
     fill="#b3b3b3"
     id="rect40560" />
  <circle
     cx="8.9700003"
     cy="6.5023093"
     r="2.0799999"
     fill="#f2f2f2"
     id="circle40562" />
  <rect
     x="7.0799999"
     y="14.04231"
     width="3.78"
     height="3.78"
     rx="0.73000002"
     fill="url(#beb70c0a-9df6-4825-adec-20340c00add6)"
     id="rect40564"
     style="fill:url(#beb70c0a-9df6-4825-adec-20340c00add6)" />
</svg>
