<?xml version="1.0" encoding="UTF-8" standalone="no"?>
<svg
   id="a7c41816-c460-4394-bf0d-7d5af4f59c5d"
   width="12.82"
   height="17"
   viewBox="0 0 12.82 17"
   version="1.1"
   sodipodi:docname="Time_Series_Data_Sets.svg"
   inkscape:version="1.1 (c68e22c387, 2021-05-23)"
   xmlns:inkscape="http://www.inkscape.org/namespaces/inkscape"
   xmlns:sodipodi="http://sodipodi.sourceforge.net/DTD/sodipodi-0.dtd"
   xmlns="http://www.w3.org/2000/svg"
   xmlns:svg="http://www.w3.org/2000/svg"
   xmlns:rdf="http://www.w3.org/1999/02/22-rdf-syntax-ns#"
   xmlns:cc="http://creativecommons.org/ns#"
   xmlns:dc="http://purl.org/dc/elements/1.1/">
  <sodipodi:namedview
     id="namedview41816"
     pagecolor="#ffffff"
     bordercolor="#666666"
     borderopacity="1.0"
     inkscape:pageshadow="2"
     inkscape:pageopacity="0.0"
     inkscape:pagecheckerboard="0"
     showgrid="false"
     fit-margin-top="0"
     fit-margin-left="0"
     fit-margin-right="0"
     fit-margin-bottom="0"
     inkscape:zoom="44.055556"
     inkscape:cx="6.4123581"
     inkscape:cy="8.5006305"
     inkscape:window-width="1920"
     inkscape:window-height="1017"
     inkscape:window-x="-8"
     inkscape:window-y="-8"
     inkscape:window-maximized="1"
     inkscape:current-layer="a7c41816-c460-4394-bf0d-7d5af4f59c5d" />
  <defs
     id="defs41801">
    <linearGradient
       id="ab5214c3-3e17-4021-b3c2-de63248529d4"
       x1="2.5899999"
       y1="10.16"
       x2="15.41"
       y2="10.16"
       gradientUnits="userSpaceOnUse"
       gradientTransform="translate(-2.59,-0.5)">
      <stop
         offset="0"
         stop-color="#005ba1"
         id="stop41779" />
      <stop
         offset="0.07"
         stop-color="#0060a9"
         id="stop41781" />
      <stop
         offset="0.36"
         stop-color="#0071c8"
         id="stop41783" />
      <stop
         offset="0.52"
         stop-color="#0078d4"
         id="stop41785" />
      <stop
         offset="0.64"
         stop-color="#0074cd"
         id="stop41787" />
      <stop
         offset="0.82"
         stop-color="#006abb"
         id="stop41789" />
      <stop
         offset="1"
         stop-color="#005ba1"
         id="stop41791" />
    </linearGradient>
    <radialGradient
       id="bd8cfab1-5dd6-4d45-ad3d-d0c2bffa7473"
       cx="9.3599997"
       cy="10.57"
       r="7.0700002"
       gradientUnits="userSpaceOnUse"
       gradientTransform="translate(-2.59,-0.5)">
      <stop
         offset="0"
         stop-color="#f2f2f2"
         id="stop41794" />
      <stop
         offset="0.58"
         stop-color="#eee"
         id="stop41796" />
      <stop
         offset="1"
         stop-color="#e6e6e6"
         id="stop41798" />
    </radialGradient>
  </defs>
  <title
     id="title41803">Icon-iot-198</title>
  <path
     d="M 6.41,4.64 C 2.87,4.64 0,3.64 0,2.32 v 12.36 c 0,1.27 2.82,2.3 6.32,2.32 h 0.09 c 3.54,0 6.41,-1 6.41,-2.32 V 2.32 c 0,1.29 -2.87,2.32 -6.41,2.32 z"
     fill="url(#ab5214c3-3e17-4021-b3c2-de63248529d4)"
     id="path41805"
     style="fill:url(#ab5214c3-3e17-4021-b3c2-de63248529d4)" />
  <path
     d="M 12.82,2.32 C 12.82,3.61 9.95,4.64 6.41,4.64 2.87,4.64 0,3.64 0,2.32 0,1 2.87,0 6.41,0 c 3.54,0 6.41,1 6.41,2.32"
     fill="#e8e8e8"
     id="path41807" />
  <path
     d="m 11.33,2.13 c 0,0.82 -2.21,1.48 -4.92,1.48 -2.71,0 -4.92,-0.66 -4.92,-1.48 0,-0.82 2.21,-1.47 4.92,-1.47 2.71,0 4.92,0.66 4.92,1.47"
     fill="#50e6ff"
     id="path41809" />
  <path
     d="M 6.41,2.5 A 11.55,11.55 0 0 0 2.52,3.07 11.42,11.42 0 0 0 6.41,3.61 11.15,11.15 0 0 0 10.3,3.03 11.84,11.84 0 0 0 6.41,2.5 Z"
     fill="#198ab3"
     id="path41811" />
  <path
     d="M 10.31,10.9 V 7.5 h -0.9 v 4.13 h 2.46 V 10.9 Z M 3.17,9.23 A 1.83,1.83 0 0 1 2.66,8.92 0.44,0.44 0 0 1 2.53,8.6 0.35,0.35 0 0 1 2.69,8.3 0.68,0.68 0 0 1 3.11,8.18 a 1.67,1.67 0 0 1 1,0.29 V 7.61 A 2.67,2.67 0 0 0 3.11,7.45 1.64,1.64 0 0 0 2.02,7.79 1.08,1.08 0 0 0 1.6,8.68 c 0,0.51 0.32,0.91 1,1.21 a 2.88,2.88 0 0 1 0.62,0.36 0.42,0.42 0 0 1 0.15,0.32 0.38,0.38 0 0 1 -0.16,0.31 0.73,0.73 0 0 1 -0.45,0.11 1.66,1.66 0 0 1 -1.09,-0.42 V 11.5 A 2.17,2.17 0 0 0 2.74,11.74 1.88,1.88 0 0 0 3.92,11.41 1.08,1.08 0 0 0 4.25,10.5 1.05,1.05 0 0 0 4,9.8 2.42,2.42 0 0 0 3.17,9.23 Z m 5.24,1.59 A 2.34,2.34 0 0 0 8.74,9.56 2.32,2.32 0 0 0 8.41,8.5 1.81,1.81 0 0 0 7.71,7.75 2,2 0 0 0 6.71,7.49 2.11,2.11 0 0 0 5.63,7.76 1.86,1.86 0 0 0 4.9,8.5 2.46,2.46 0 0 0 4.64,9.64 a 2.26,2.26 0 0 0 0.24,1 1.76,1.76 0 0 0 0.69,0.74 2.06,2.06 0 0 0 1,0.3 l 0.86,1 h 1.21 l -1.23,-1.1 a 1.79,1.79 0 0 0 1,-0.76 z m -1,-0.25 a 0.94,0.94 0 0 1 -0.76,0.35 0.92,0.92 0 0 1 -0.76,-0.36 1.52,1.52 0 0 1 -0.29,-1 1.53,1.53 0 0 1 0.29,-1 1,1 0 0 1 0.78,-0.37 0.87,0.87 0 0 1 0.75,0.37 1.62,1.62 0 0 1 0.27,1 1.46,1.46 0 0 1 -0.28,1.01 z"
     fill="url(#bd8cfab1-5dd6-4d45-ad3d-d0c2bffa7473)"
     id="path41813"
     style="fill:url(#bd8cfab1-5dd6-4d45-ad3d-d0c2bffa7473)" />
  <metadata
     id="metadata41898">
    <rdf:RDF>
      <cc:Work
         rdf:about="">
        <dc:title>Icon-iot-198</dc:title>
      </cc:Work>
    </rdf:RDF>
  </metadata>
</svg>
