<?xml version="1.0" encoding="UTF-8" standalone="no"?>
<svg
   id="a77476ec-9e85-432a-ab9d-7f79bc9f41f3"
   width="17.282816"
   height="17.118595"
   viewBox="0 0 17.282816 17.118595"
   version="1.1"
   sodipodi:docname="Windows10_Core_Services.svg"
   inkscape:version="1.1 (c68e22c387, 2021-05-23)"
   xmlns:inkscape="http://www.inkscape.org/namespaces/inkscape"
   xmlns:sodipodi="http://sodipodi.sourceforge.net/DTD/sodipodi-0.dtd"
   xmlns="http://www.w3.org/2000/svg"
   xmlns:svg="http://www.w3.org/2000/svg"
   xmlns:rdf="http://www.w3.org/1999/02/22-rdf-syntax-ns#"
   xmlns:cc="http://creativecommons.org/ns#"
   xmlns:dc="http://purl.org/dc/elements/1.1/">
  <sodipodi:namedview
     id="namedview42330"
     pagecolor="#ffffff"
     bordercolor="#666666"
     borderopacity="1.0"
     inkscape:pageshadow="2"
     inkscape:pageopacity="0.0"
     inkscape:pagecheckerboard="0"
     showgrid="false"
     fit-margin-top="0"
     fit-margin-left="0"
     fit-margin-right="0"
     fit-margin-bottom="0"
     inkscape:zoom="44.055556"
     inkscape:cx="8.6368222"
     inkscape:cy="8.5687264"
     inkscape:window-width="1920"
     inkscape:window-height="1017"
     inkscape:window-x="-8"
     inkscape:window-y="-8"
     inkscape:window-maximized="1"
     inkscape:current-layer="a77476ec-9e85-432a-ab9d-7f79bc9f41f3" />
  <defs
     id="defs42313">
    <linearGradient
       id="b734931e-8934-4af3-8c82-4538553c4341"
       x1="8.4099998"
       y1="17.49"
       x2="8.4099998"
       y2="0.44"
       gradientUnits="userSpaceOnUse"
       gradientTransform="translate(-0.36,-0.44)">
      <stop
         offset="0"
         stop-color="#0078d4"
         id="stop42300" />
      <stop
         offset="0.06"
         stop-color="#0a7cd7"
         id="stop42302" />
      <stop
         offset="0.34"
         stop-color="#2e8ce1"
         id="stop42304" />
      <stop
         offset="0.59"
         stop-color="#4897e9"
         id="stop42306" />
      <stop
         offset="0.82"
         stop-color="#589eed"
         id="stop42308" />
      <stop
         offset="1"
         stop-color="#5ea0ef"
         id="stop42310" />
    </linearGradient>
  </defs>
  <title
     id="title42315">Icon-iot-203</title>
  <path
     d="M 14.87,3.32 13.49,1.98 h -0.14 l -1.86,1 L 10.16,2.39 9.32,0 7.39,0.02 7.3,0.29 6.64,2.37 5.31,2.94 3.05,1.94 1.71,3.29 1.85,3.56 2.85,5.49 2.32,6.82 0,7.69 v 1.95 l 0.27,0.09 2.08,0.64 0.57,1.33 -1,2.27 1.39,1.35 0.25,-0.14 1.93,-1 0.62,0.76 1.6,2.11 h 1.93 l 0.09,-0.27 0.69,-1.22 1.1,-0.55 2.18,-0.13 1.36,-1.39 v -0.13 l 0.27,-1 0.79,-2.37 z m -6.36,9.57 a 4.37,4.37 0 1 1 4.36,-4.33 4.36,4.36 0 0 1 -4.36,4.33 z"
     fill="url(#b734931e-8934-4af3-8c82-4538553c4341)"
     id="path42317"
     style="fill:url(#b734931e-8934-4af3-8c82-4538553c4341)" />
  <path
     d="m 11.52,8.45 c 0,1.94 -2.39,3.5 -2.91,3.82 a 0.23,0.23 0 0 1 -0.2,0 C 7.89,11.95 5.51,10.39 5.51,8.45 V 6.12 A 0.19,0.19 0 0 1 5.69,5.93 c 1.86,0 1.43,-0.85 2.82,-0.85 1.39,0 1,0.8 2.82,0.85 a 0.2,0.2 0 0 1 0.19,0.19 z"
     fill="#32bedd"
     id="path42319" />
  <path
     d="m 11.27,8.47 c 0,1.78 -2.19,3.21 -2.67,3.5 a 0.19,0.19 0 0 1 -0.18,0 C 7.94,11.68 5.76,10.25 5.76,8.47 V 6.33 A 0.17,0.17 0 0 1 5.92,6.16 c 1.71,0 1.32,-0.78 2.59,-0.78 1.27,0 0.89,0.74 2.59,0.78 a 0.18,0.18 0 0 1 0.17,0.17 z"
     fill="#50e6ff"
     id="path42321" />
  <path
     d="M 9.72,8.12 H 9.55 V 7.56 A 1.14,1.14 0 0 0 9.25,6.79 0.94,0.94 0 0 0 8.51,6.47 1,1 0 0 0 7.77,6.79 1.14,1.14 0 0 0 7.47,7.56 v 0.6 H 7.3 A 0.14,0.14 0 0 0 7.16,8.3 V 9.86 A 0.14,0.14 0 0 0 7.3,9.99 H 9.72 A 0.13,0.13 0 0 0 9.86,9.86 V 8.26 A 0.14,0.14 0 0 0 9.72,8.12 Z m -0.66,0 H 7.96 V 7.56 A 0.59,0.59 0 0 1 8.13,7.14 0.52,0.52 0 0 1 8.51,6.97 0.5,0.5 0 0 1 8.89,7.14 l 0.07,0.08 v 0 a 0.67,0.67 0 0 1 0.1,0.34 z"
     fill="#f2f2f2"
     id="path42323" />
  <path
     d="M 13.8,1.95 14.51,0.48 A 0.15,0.15 0 0 0 14.44,0.27 H 14.36 L 8.85,0.69 a 0.16,0.16 0 0 0 -0.14,0.17 0.13,0.13 0 0 0 0,0.08 l 3.12,4.5 a 0.16,0.16 0 0 0 0.22,0 L 12.1,5.38 12.72,4.09 a 0.17,0.17 0 0 1 0.21,-0.08 v 0 a 6.33,6.33 0 0 1 2.32,4.55 6.42,6.42 0 0 1 -6.29,6.56 6.68,6.68 0 0 1 -3.11,-0.7 0.16,0.16 0 0 0 -0.21,0.06 l -0.82,1.48 a 0.16,0.16 0 0 0 0.06,0.21 v 0 A 8.52,8.52 0 0 0 16.33,12.56 8.31,8.31 0 0 0 17.28,8.48 8.42,8.42 0 0 0 13.84,2.14 0.17,0.17 0 0 1 13.8,1.95 Z"
     fill="#86d633"
     id="path42325" />
  <metadata
     id="metadata42412">
    <rdf:RDF>
      <cc:Work
         rdf:about="">
        <dc:title>Icon-iot-203</dc:title>
      </cc:Work>
    </rdf:RDF>
  </metadata>
</svg>
