<?xml version="1.0" encoding="UTF-8" standalone="no"?>
<svg
   width="17.959999"
   height="13.62"
   viewBox="0 0 17.959999 13.62"
   version="1.1"
   id="svg54179"
   sodipodi:docname="ACS_Solutions_Builder.svg"
   inkscape:version="1.1 (c68e22c387, 2021-05-23)"
   xmlns:inkscape="http://www.inkscape.org/namespaces/inkscape"
   xmlns:sodipodi="http://sodipodi.sourceforge.net/DTD/sodipodi-0.dtd"
   xmlns="http://www.w3.org/2000/svg"
   xmlns:svg="http://www.w3.org/2000/svg">
  <sodipodi:namedview
     id="namedview54181"
     pagecolor="#ffffff"
     bordercolor="#666666"
     borderopacity="1.0"
     inkscape:pageshadow="2"
     inkscape:pageopacity="0.0"
     inkscape:pagecheckerboard="0"
     showgrid="false"
     fit-margin-top="0"
     fit-margin-left="0"
     fit-margin-right="0"
     fit-margin-bottom="0"
     inkscape:zoom="44.055556"
     inkscape:cx="8.9773014"
     inkscape:cy="6.8209332"
     inkscape:window-width="1920"
     inkscape:window-height="1017"
     inkscape:window-x="-8"
     inkscape:window-y="-8"
     inkscape:window-maximized="1"
     inkscape:current-layer="svg54179" />
  <defs
     id="defs54158">
    <linearGradient
       id="e6400ba9-49d8-4b02-9a0f-1333bc33e50e"
       x1="-1516.205"
       y1="1550.824"
       x2="-1516.205"
       y2="1560.012"
       gradientTransform="matrix(1,0,0,-1,1523.98,1563.326)"
       gradientUnits="userSpaceOnUse">
      <stop
         offset="0.001"
         stop-color="#773adc"
         id="stop54142" />
      <stop
         offset="0.229"
         stop-color="#7b3fde"
         id="stop54144" />
      <stop
         offset="0.507"
         stop-color="#864ee4"
         id="stop54146" />
      <stop
         offset="0.811"
         stop-color="#9867ed"
         id="stop54148" />
      <stop
         offset="1"
         stop-color="#a67af4"
         id="stop54150" />
    </linearGradient>
    <linearGradient
       id="bb9c78f3-a270-43d5-9dc3-e0d9ffcbf24b"
       x1="-551.78101"
       y1="1016.108"
       x2="-551.78101"
       y2="1009.663"
       gradientTransform="matrix(1,0,0,-1,563.98,1023.326)"
       gradientUnits="userSpaceOnUse">
      <stop
         offset="0"
         stop-color="#50e6ff"
         id="stop54153" />
      <stop
         offset="1"
         stop-color="#32bedd"
         id="stop54155" />
    </linearGradient>
  </defs>
  <path
     d="m 0,3.31 h 15.549 v 8.669 a 0.52,0.52 0 0 1 -0.519,0.52 H 0.52 A 0.52,0.52 0 0 1 0,11.979 Z"
     fill="url(#e6400ba9-49d8-4b02-9a0f-1333bc33e50e)"
     id="path54160"
     style="fill:url(#e6400ba9-49d8-4b02-9a0f-1333bc33e50e)" />
  <path
     d="m 0.522,0 h 14.505 a 0.519,0.519 0 0 1 0.519,0.52 v 0 2.79 H 0 V 0.52 A 0.52,0.52 0 0 1 0.52,0 Z"
     fill="#773adc"
     id="path54162" />
  <path
     d="M 1.827,8.533 V 4.702 c 0,-0.1 0.06,-0.183 0.134,-0.183 h 5.338 c 0.074,0 0.134,0.082 0.134,0.183 v 3.831 c 0,0.1 -0.06,0.182 -0.134,0.182 H 1.961 C 1.887,8.715 1.827,8.634 1.827,8.533 Z"
     fill="#f2f2f2"
     id="path54164" />
  <path
     d="M 7.126,11.296 H 2.134 c -0.17,0 -0.307,-0.082 -0.307,-0.182 V 9.841 c 0,-0.1 0.137,-0.182 0.307,-0.182 h 4.992 c 0.17,0 0.307,0.081 0.307,0.182 v 1.269 c 0,0.1 -0.137,0.186 -0.307,0.186 z"
     fill="#b796f9"
     id="path54166" />
  <path
     d="M 13.98,6.036 H 8.807 C 8.631,6.036 8.489,5.955 8.489,5.854 V 4.597 c 0,-0.1 0.142,-0.182 0.318,-0.182 h 5.173 c 0.176,0 0.318,0.081 0.318,0.182 V 5.854 C 14.297,5.955 14.155,6.036 13.98,6.036 Z"
     fill="#b796f9"
     id="path54168" />
  <path
     d="M 17.623,12.61 14.346,11.085 A 0.381,0.381 0 0 1 14.113,10.696 V 10.17 a 0.386,0.386 0 0 1 0.233,-0.39 l 3.277,-1.524 c 0.175,-0.045 0.337,0.142 0.337,0.389 v 3.575 c 0,0.248 -0.164,0.434 -0.337,0.39 z"
     fill="#32bedd"
     id="path54170" />
  <rect
     x="8.5239992"
     y="7.1979995"
     width="7.3499999"
     height="6.4219999"
     rx="0.38499999"
     fill="url(#bb9c78f3-a270-43d5-9dc3-e0d9ffcbf24b)"
     id="rect54172"
     style="fill:url(#bb9c78f3-a270-43d5-9dc3-e0d9ffcbf24b)" />
  <path
     d="M 10.77,10.433 V 9.054 a 0.382,0.382 0 0 1 0.573,-0.331 l 1.2,0.69 1.194,0.689 a 0.383,0.383 0 0 1 0,0.662 l -1.194,0.689 -1.2,0.69 A 0.382,0.382 0 0 1 10.77,11.81 Z"
     fill="#c3f1ff"
     id="path54174" />
</svg>
