<?xml version="1.0" encoding="UTF-8" standalone="no"?>
<svg
   width="18"
   height="16.636"
   viewBox="0 0 18 16.636"
   version="1.1"
   id="svg55123"
   sodipodi:docname="AVS_VM.svg"
   inkscape:version="1.1 (c68e22c387, 2021-05-23)"
   xmlns:inkscape="http://www.inkscape.org/namespaces/inkscape"
   xmlns:sodipodi="http://sodipodi.sourceforge.net/DTD/sodipodi-0.dtd"
   xmlns="http://www.w3.org/2000/svg"
   xmlns:svg="http://www.w3.org/2000/svg">
  <sodipodi:namedview
     id="namedview55125"
     pagecolor="#ffffff"
     bordercolor="#666666"
     borderopacity="1.0"
     inkscape:pageshadow="2"
     inkscape:pageopacity="0.0"
     inkscape:pagecheckerboard="0"
     showgrid="false"
     fit-margin-top="0"
     fit-margin-left="0"
     fit-margin-right="0"
     fit-margin-bottom="0"
     inkscape:zoom="44.055556"
     inkscape:cx="9"
     inkscape:cy="8.2055485"
     inkscape:window-width="1920"
     inkscape:window-height="1017"
     inkscape:window-x="-8"
     inkscape:window-y="-8"
     inkscape:window-maximized="1"
     inkscape:current-layer="svg55123" />
  <defs
     id="defs55102">
    <linearGradient
       id="a59ad8ae-3a02-43f1-9a80-d69d1427296a"
       x1="9"
       y1="12.798"
       x2="9"
       y2="0.79799998"
       gradientUnits="userSpaceOnUse"
       gradientTransform="translate(0,-0.79799998)">
      <stop
         offset="0"
         stop-color="#76bc2d"
         id="stop55092" />
      <stop
         offset="0.817"
         stop-color="#86d633"
         id="stop55094" />
    </linearGradient>
    <linearGradient
       id="a2c0bd49-b629-49f3-99aa-bb168c82df0b"
       x1="9"
       y1="17.434"
       x2="9"
       y2="12.798"
       gradientUnits="userSpaceOnUse"
       gradientTransform="translate(0,-0.79799998)">
      <stop
         offset="0.149"
         stop-color="#ccc"
         id="stop55097" />
      <stop
         offset="1"
         stop-color="#707070"
         id="stop55099" />
    </linearGradient>
  </defs>
  <rect
     y="0"
     width="18"
     height="12"
     rx="0.60100001"
     fill="url(#a59ad8ae-3a02-43f1-9a80-d69d1427296a)"
     id="rect55104"
     style="fill:url(#a59ad8ae-3a02-43f1-9a80-d69d1427296a)"
     x="0" />
  <polygon
     points="12,5.053 9,6.807 6,5.052 9,3.298 "
     fill="#ffffff"
     id="polygon55106"
     transform="translate(0,-0.79799998)" />
  <polygon
     points="8.996,6.804 6,5.052 6,8.544 "
     fill="#ffffff"
     opacity="0.8"
     id="polygon55108"
     transform="translate(0,-0.79799998)" />
  <polygon
     points="5.998,8.543 8.998,10.297 8.998,6.805 8.994,6.803 "
     fill="#ffffff"
     id="polygon55110"
     transform="translate(0,-0.79799998)" />
  <polygon
     points="12,5.053 9,6.802 12,8.544 "
     fill="#ffffff"
     opacity="0.6"
     id="polygon55112"
     transform="translate(0,-0.79799998)" />
  <polygon
     points="9,6.802 9,10.298 12,8.544 "
     fill="#ffffff"
     opacity="0.8"
     id="polygon55114"
     transform="translate(0,-0.79799998)" />
  <path
     d="M 12.607,15.63 C 10.827,15.352 10.757,14.068 10.763,12 H 7.232 c 0,2.068 -0.065,3.352 -1.844,3.63 A 1.048,1.048 0 0 0 4.5,16.636 h 9 A 1.053,1.053 0 0 0 12.607,15.63 Z"
     fill="url(#a2c0bd49-b629-49f3-99aa-bb168c82df0b)"
     id="path55118"
     style="fill:url(#a2c0bd49-b629-49f3-99aa-bb168c82df0b)" />
</svg>
