<?xml version="1.0" standalone="no"?>
<svg contentScriptType="text/ecmascript" zoomAndPan="magnify" xmlns:rdf="http://www.w3.org/1999/02/22-rdf-syntax-ns#"
    xmlns:xlink="http://www.w3.org/1999/xlink" xmlns:svg="http://www.w3.org/2000/svg" baseProfile="full"
    contentStyleType="text/css" id="b0b75603-46b6-4f8f-91b1-0770f4d80bc9" sodipodi:docname="02360-icon-service-Azure-Backup-Center.svg"
    version="1.1" width="17.4" xmlns:sodipodi="http://sodipodi.sourceforge.net/DTD/sodipodi-0.dtd" xmlns:dc="http://purl.org/dc/elements/1.1/"
    xmlns:inkscape="http://www.inkscape.org/namespaces/inkscape" xmlns:cc="http://creativecommons.org/ns#"
    preserveAspectRatio="xMidYMid meet" inkscape:version="0.92.3 (2405546, 2018-03-11)" viewBox="0 0 17.4 15.894398"
    height="15.894398" xmlns="http://www.w3.org/2000/svg">
    <defs id="defs4378">
        <linearGradient gradientTransform="matrix(1,0,0,-1,0,18)" x1="11.176" y1="7.698" x2="11.176" gradientUnits="userSpaceOnUse"
            y2="16.950001" id="bf1351b6-2f7f-4ceb-8808-067f2a41a599">
            <stop offset="0" stop-color="#0078d4" id="stop4365"/>
            <stop offset="0.149" stop-color="#1882db" id="stop4367"/>
            <stop offset="0.373" stop-color="#378fe4" id="stop4369"/>
            <stop offset="0.594" stop-color="#4c99ea" id="stop4371"/>
            <stop offset="0.806" stop-color="#5a9eee" id="stop4373"/>
            <stop offset="1" stop-color="#5ea0ef" id="stop4375"/>
        </linearGradient>
    </defs>
    <path style="fill:url(#bf1351b6-2f7f-4ceb-8808-067f2a41a599)" d="m 17.4,6.3546239 a 2.93,2.93 0 0 0 -2.544,-2.818 
        3.7,3.7 0 0 0 -3.806,-3.53500002 3.793,3.793 0 0 0 -3.623,2.47100002 3.5,3.5 0 0 0 -3.076,3.367 3.551,3.551 0 0 
        0 3.675,3.41 2.494,2.494 0 0 0 0.324,-0.014 h 5.95 a 0.6,0.6 0 0 0 0.157,-0.024 2.966,2.966 0 0 0 2.943,-2.857 
        z"/>
    <path style="fill:#ffffff" d="m 10.477,8.9146239 0.019,0.431 0.428,0.057 a 2.54,2.54 0 0 1 2.2,2.4300001 2.579,2.579 
        0 0 1 -2.546,2.5 h -0.044 l -0.032,0.006 -0.035,-0.007 h -6.6 a 3.232,3.232 0 0 1 -1.238,-0.168 3.375,3.375 0 0 
        1 -1.106,-0.643 3.324,3.324 0 0 1 -0.741,-1.035 3.039,3.039 0 0 1 0.559,-3.2100001 3.147,3.147 0 0 1 
        1.959,-0.966 l 0.313,-0.037 0.109,-0.295 a 3.487,3.487 0 0 1 1.29,-1.662 3.434,3.434 0 0 1 2,-0.6 h 0.025 a 
        3.338,3.338 0 0 1 3.439,3.2 z"/>
    <path style="fill:#50e6ff" d="m 10.491,14.849624 -0.085,-0.019 H 3.867 a 3.738,3.738 0 0 1 -1.4,-0.194 3.865,3.865 0 
        0 1 -1.274,-0.741 3.815,3.815 0 0 1 -0.867,-1.2 3.56,3.56 0 0 1 0.644,-3.7550001 3.65,3.65 0 0 1 2.279,-1.128 v 
        -0.008 a 3.959,3.959 0 0 1 1.475,-1.9 3.793,3.793 0 0 1 2.293,-0.689 3.852,3.852 0 0 1 3.954,3.677 l 0.014,0.014 
        a 3.033,3.033 0 0 1 2.635,2.9090001 3.078,3.078 0 0 1 -3.04,3.017 z M 7,6.2156239 a 2.939,2.939 0 0 0 
        -2.809,1.934 l -0.215,0.583 -0.617,0.072 a 2.654,2.654 0 0 0 -1.659,0.815 2.546,2.546 0 0 0 -0.46,2.6750001 
        2.8,2.8 0 0 0 0.623,0.863 2.8,2.8 0 0 0 0.927,0.533 2.723,2.723 0 0 0 1.043,0.142 h 6.677 0.01 0.01 a 
        2.083,2.083 0 0 0 2.09,-2.016 2.028,2.028 0 0 0 -1.767,-1.9190001 l -0.843,-0.111 -0.037,-0.852 a 2.842,2.842 0 
        0 0 -2.92,-2.719 z"/>
    <path style="fill:#0078d4" d="m 4.8,11.449624 v -0.3 l -0.307,-0.1 -0.078,-0.21 0.15,-0.313 v -0.036 l -0.1,-0.1 
        -0.114,-0.121 H 4.312 l -0.3,0.151 -0.21,-0.054 -0.127,-0.337 h -0.3 l -0.1,0.307 -0.21,0.078 -0.349,-0.165 
        -0.216,0.217 v 0.036 l 0.15,0.3 -0.084,0.21 -0.366,0.127 v 0.3 h 0.042 l 0.319,0.108 0.09,0.205 -0.168,0.349 
        0.217,0.217 h 0.036 l 0.3,-0.156 0.21,0.084 0.133,0.367 h 0.3 v -0.042 l 0.109,-0.325 0.2,-0.084 0.355,0.162 
        0.21,-0.21 v -0.042 l -0.132,-0.289 0.06,-0.211 z m -1.269,0.277 a 0.427,0.427 0 1 1 0.155,-0.822 0.435,0.435 0 
        0 1 0.193,0.157 0.427,0.427 0 0 1 0.072,0.238 0.422,0.422 0 0 1 -0.4,0.427 z"/>
    <path style="fill:#0078d4;fill-rule:evenodd" d="m 3.516,14.854624 a 3.537,3.537 0 1 1 3.558,-3.537 H 6 a 2.462,2.462 
        0 1 0 -2.464,2.46 H 4.32 a 0.056,0.056 0 0 0 0.056,-0.016 0.063,0.063 0 0 0 0.016,-0.026 0.076,0.076 0 0 0 
        0,-0.03 v -0.872 a 0.087,0.087 0 0 1 0.052,-0.067 0.1,0.1 0 0 1 0.083,0.018 l 1.5,1.5 a 0.082,0.082 0 0 1 
        0,0.049 0.079,0.079 0 0 1 -0.027,0.042 l -1.5,1.5 a 0.083,0.083 0 0 1 -0.042,0.018 0.075,0.075 0 0 1 
        -0.044,-0.007 0.082,0.082 0 0 1 -0.035,-0.029 0.074,0.074 0 0 1 -0.014,-0.043 v -0.886 a 0.075,0.075 0 0 0 
        -0.022,-0.053 0.073,0.073 0 0 0 -0.054,-0.022 H 3.516 Z"/>
</svg>