<?xml version="1.0" encoding="UTF-8" standalone="no"?>
<svg
   width="18"
   height="15.332081"
   viewBox="0 0 18 15.332081"
   version="1.1"
   id="svg65899"
   sodipodi:docname="Cloud_Services_(extended_support).svg"
   inkscape:version="1.1 (c68e22c387, 2021-05-23)"
   xmlns:inkscape="http://www.inkscape.org/namespaces/inkscape"
   xmlns:sodipodi="http://sodipodi.sourceforge.net/DTD/sodipodi-0.dtd"
   xmlns="http://www.w3.org/2000/svg"
   xmlns:svg="http://www.w3.org/2000/svg"><sodipodi:namedview
   id="namedview65901"
   pagecolor="#ffffff"
   bordercolor="#666666"
   borderopacity="1.0"
   inkscape:pageshadow="2"
   inkscape:pageopacity="0.0"
   inkscape:pagecheckerboard="0"
   showgrid="false"
   fit-margin-top="0"
   fit-margin-left="0"
   fit-margin-right="0"
   fit-margin-bottom="0"
   inkscape:zoom="44.055556"
   inkscape:cx="9"
   inkscape:cy="7.6607818"
   inkscape:window-width="1920"
   inkscape:window-height="1017"
   inkscape:window-x="-8"
   inkscape:window-y="-8"
   inkscape:window-maximized="1"
   inkscape:current-layer="svg65899" />
<defs
   id="defs65883">
  <linearGradient
     id="bd7a88a6-b2a0-4bbd-bde5-8454bb7d344f"
     x1="8.0059996"
     y1="1.867"
     x2="8.0059996"
     y2="12.695"
     gradientUnits="userSpaceOnUse"
     gradientTransform="translate(0,-1.3319181)">
    <stop
       offset="0"
       stop-color="#5ea0ef"
       id="stop65871" />
    <stop
       offset="1"
       stop-color="#0078d4"
       id="stop65873" />
  </linearGradient>
  <linearGradient
     id="b1c3bb17-1c64-46b8-b65c-c043f47f3b01"
     x1="14.119"
     y1="8.901"
     x2="14.119"
     y2="16.872999"
     gradientUnits="userSpaceOnUse"
     gradientTransform="translate(0,-1.3319181)">
    <stop
       offset="0"
       stop-color="#faa21d"
       id="stop65876" />
    <stop
       offset="0.4"
       stop-color="#f79415"
       id="stop65878" />
    <stop
       offset="1"
       stop-color="#ef7100"
       id="stop65880" />
  </linearGradient>
</defs>
<path
   d="m 9.637,11.450082 a 4.487,4.487 0 0 1 4.482,-4.4820001 v 0 a 4.426,4.426 0 0 1 1.891,0.434 3.672,3.672 0 0 0 -3.065,-2.934 A 4.592,4.592 0 0 0 8.255,0.00108185 4.7,4.7 0 0 0 3.788,3.1010819 4.352,4.352 0 0 0 0,7.3930819 4.413,4.413 0 0 0 4.529,11.682082 h 5.132 c -0.004,-0.079 -0.024,-0.152 -0.024,-0.232 z"
   fill="url(#bd7a88a6-b2a0-4bbd-bde5-8454bb7d344f)"
   id="path65885"
   style="fill:url(#bd7a88a6-b2a0-4bbd-bde5-8454bb7d344f)" />
<circle
   cx="4.3140001"
   cy="7.2980819"
   r="0.65700001"
   fill="#e3e3e3"
   id="circle65887" />
<path
   d="m 6.627,7.5480819 v -0.527 H 6.553 l -0.565,-0.185 -0.148,-0.361 0.287,-0.607 -0.37,-0.37 H 5.683 l -0.527,0.27 -0.356,-0.145 -0.232,-0.638 H 4.036 v 0.074 l -0.185,0.564 -0.389,0.145 -0.6,-0.287 -0.37,0.37 v 0.074 l 0.268,0.527 -0.148,0.361 -0.648,0.231 v 0.574 h 0.074 l 0.565,0.185 0.147,0.365 -0.287,0.611 0.37,0.37 h 0.074 l 0.528,-0.269 0.36,0.148 0.232,0.64 h 0.527 v -0.074 l 0.185,-0.565 0.361,-0.148 0.611,0.287 0.37,-0.37 v -0.074 l -0.269,-0.527 0.148,-0.361 z m -2.313,0.768 a 1.008,1.008 0 1 1 0.018,0 z"
   fill="#ffffff"
   id="path65889" />
<circle
   cx="8.7180004"
   cy="4.4670815"
   r="0.77700001"
   fill="#e3e3e3"
   id="circle65891" />
<path
   d="m 11.494,4.7680819 v -0.634 H 11.41 l -0.684,-0.213 -0.158,-0.472 0.343,-0.74 -0.444,-0.441 h -0.084 l -0.638,0.324 -0.426,-0.176 -0.277,-0.768 H 8.385 v 0.092 l -0.222,0.676 -0.435,0.176 -0.722,-0.343 -0.444,0.444 0.046,0.084 0.259,0.684 -0.148,0.463 -0.777,0.25 v 0.675 h 0.093 l 0.675,0.219 0.157,0.417 -0.342,0.74 0.463,0.472 0.092,-0.046 0.629,-0.324 0.435,0.175 0.278,0.768 h 0.629 v -0.092 l 0.222,-0.676 0.435,-0.175 0.731,0.341 0.444,-0.444 -0.046,-0.083 -0.269,-0.667 0.176,-0.434 z m -2.776,0.92 a 1.221,1.221 0 1 1 1.221,-1.22 v 0 a 1.212,1.212 0 0 1 -1.2,1.221 z"
   fill="#ffffff"
   id="path65893" />
<path
   d="m 14.121,7.5680819 v 0 A 3.882,3.882 0 1 0 18,11.450082 3.882,3.882 0 0 0 14.119,7.5680819 Z"
   fill="url(#b1c3bb17-1c64-46b8-b65c-c043f47f3b01)"
   id="path65895"
   style="fill:url(#b1c3bb17-1c64-46b8-b65c-c043f47f3b01)" />
<path
   d="m 16.1,9.2830819 -2.288,0.014 a 0.135,0.135 0 0 0 -0.1,0.232 l 0.823,0.8070001 -1.535,1.539 -0.806,-0.822 a 0.136,0.136 0 0 0 -0.233,0.094 l -0.014,2.288 a 0.183,0.183 0 0 0 0.183,0.183 l 2.288,-0.014 a 0.135,0.135 0 0 0 0.135,-0.136 0.139,0.139 0 0 0 -0.04,-0.1 l -0.823,-0.807 1.539,-1.539 0.807,0.822 a 0.137,0.137 0 0 0 0.233,-0.094 l 0.014,-2.2880001 a 0.183,0.183 0 0 0 -0.183,-0.179 z"
   fill="#ffffff"
   id="path65897" />
​
</svg>
