<?xml version="1.0" encoding="UTF-8" standalone="no"?>
<svg
   width="16.861"
   height="16.861"
   viewBox="0 0 16.861 16.861"
   version="1.1"
   id="svg69598"
   sodipodi:docname="Container_App_Environments.svg"
   inkscape:version="1.1 (c68e22c387, 2021-05-23)"
   xmlns:inkscape="http://www.inkscape.org/namespaces/inkscape"
   xmlns:sodipodi="http://sodipodi.sourceforge.net/DTD/sodipodi-0.dtd"
   xmlns="http://www.w3.org/2000/svg"
   xmlns:svg="http://www.w3.org/2000/svg">
  <sodipodi:namedview
     id="namedview69600"
     pagecolor="#ffffff"
     bordercolor="#666666"
     borderopacity="1.0"
     inkscape:pageshadow="2"
     inkscape:pageopacity="0.0"
     inkscape:pagecheckerboard="0"
     showgrid="false"
     fit-margin-top="0"
     fit-margin-left="0"
     fit-margin-right="0"
     fit-margin-bottom="0"
     inkscape:zoom="44.055556"
     inkscape:cx="8.3644388"
     inkscape:cy="8.3871375"
     inkscape:window-width="1920"
     inkscape:window-height="1017"
     inkscape:window-x="-8"
     inkscape:window-y="-8"
     inkscape:window-maximized="1"
     inkscape:current-layer="svg69598" />
  <defs
     id="defs69579">
    <linearGradient
       id="a3a44093-b157-426e-a8fe-cec9f9c23978"
       x1="11.729"
       y1="4.8800001"
       x2="11.729"
       y2="13.099"
       gradientUnits="userSpaceOnUse"
       gradientTransform="translate(-0.639,-0.624)">
      <stop
         offset="0.001"
         stop-color="#773adc"
         id="stop69559" />
      <stop
         offset="0.528"
         stop-color="#6635bb"
         id="stop69561" />
      <stop
         offset="1"
         stop-color="#552f99"
         id="stop69563" />
    </linearGradient>
    <linearGradient
       id="ad838859-03f4-472f-81bc-ebc921d71335"
       x1="6.3499999"
       y1="13.914"
       x2="6.3499999"
       y2="4.198"
       gradientUnits="userSpaceOnUse"
       gradientTransform="translate(-0.639,-0.624)">
      <stop
         offset="0.001"
         stop-color="#773adc"
         id="stop69566" />
      <stop
         offset="0.307"
         stop-color="#793ddd"
         id="stop69568" />
      <stop
         offset="0.532"
         stop-color="#8046e1"
         id="stop69570" />
      <stop
         offset="0.731"
         stop-color="#8c56e7"
         id="stop69572" />
      <stop
         offset="0.915"
         stop-color="#9c6def"
         id="stop69574" />
      <stop
         offset="1"
         stop-color="#a67af4"
         id="stop69576" />
    </linearGradient>
  </defs>
  <path
     d="M 7.978,8.02 H 0 V 1.16 A 1.16,1.16 0 0 1 1.149,0 H 7.978 Z M 0.991,7.029 h 6 V 0.97 H 1.149 A 0.158,0.158 0 0 0 0.991,1.128 v 0 z"
     fill="#949494"
     id="path69581" />
  <path
     d="M 16.861,8.02 H 8.884 V 0 h 6.828 a 1.16,1.16 0 0 1 1.149,1.16 z M 9.874,7.029 h 6 V 1.16 a 0.157,0.157 0 0 0 -0.123,-0.187 0.2,0.2 0 0 0 -0.035,0 H 9.874 Z"
     fill="#949494"
     id="path69583" />
  <path
     d="M 7.978,16.861 H 1.149 A 1.149,1.149 0 0 1 0,15.723 V 8.852 H 7.978 Z M 0.991,9.843 v 5.88 a 0.158,0.158 0 0 0 0.158,0.158 H 6.987 V 9.843 Z"
     fill="#949494"
     id="path69585" />
  <path
     d="M 15.712,16.861 H 8.884 V 8.852 h 7.977 v 6.871 a 1.149,1.149 0 0 1 -1.149,1.138 z M 9.874,15.87 h 5.838 A 0.157,0.157 0 0 0 15.87,15.712 V 9.843 h -6 z"
     fill="#949494"
     id="path69587" />
  <path
     d="m 13.961,5.67 a 0.294,0.294 0 0 0 -0.2,-0.278 L 8.405,3.581 A 0.128,0.128 0 0 0 8.361,3.576 v 0 A 0.132,0.132 0 0 0 8.228,3.709 v 9.445 a 0.133,0.133 0 0 0 0.133,0.133 v 0 a 0.138,0.138 0 0 0 0.049,-0.01 l 5.365,-2.145 a 0.292,0.292 0 0 0 0.184,-0.272 z"
     fill="url(#a3a44093-b157-426e-a8fe-cec9f9c23978)"
     id="path69589"
     style="fill:url(#a3a44093-b157-426e-a8fe-cec9f9c23978)" />
  <path
     d="M 8.327,3.576 3.034,4.542 A 0.161,0.161 0 0 0 2.904,4.7 v 7.306 a 0.16,0.16 0 0 0 0.126,0.157 l 5.293,1.123 a 0.161,0.161 0 0 0 0.191,-0.121 0.22,0.22 0 0 0 0,-0.036 V 3.734 a 0.16,0.16 0 0 0 -0.153,-0.158 0.163,0.163 0 0 0 -0.034,0 z"
     fill="url(#ad838859-03f4-472f-81bc-ebc921d71335)"
     id="path69591"
     style="fill:url(#ad838859-03f4-472f-81bc-ebc921d71335)" />
  <path
     d="m 5.881,5.032 v 6.8 l 1.842,0.3 V 4.711 Z M 3.619,5.399 v 5.955 l 1.6,0.326 V 5.13 Z"
     fill="#b796f9"
     opacity="0.5"
     id="path69593" />
</svg>
