<?xml version="1.0" encoding="UTF-8" standalone="no"?>
<svg
   width="17.983999"
   height="18"
   viewBox="0 0 17.983999 18"
   version="1.1"
   id="svg70363"
   sodipodi:docname="Custom_IP_Prefix.svg"
   inkscape:version="1.1 (c68e22c387, 2021-05-23)"
   xmlns:inkscape="http://www.inkscape.org/namespaces/inkscape"
   xmlns:sodipodi="http://sodipodi.sourceforge.net/DTD/sodipodi-0.dtd"
   xmlns="http://www.w3.org/2000/svg"
   xmlns:svg="http://www.w3.org/2000/svg">
  <sodipodi:namedview
     id="namedview70365"
     pagecolor="#ffffff"
     bordercolor="#666666"
     borderopacity="1.0"
     inkscape:pageshadow="2"
     inkscape:pageopacity="0.0"
     inkscape:pagecheckerboard="0"
     showgrid="false"
     fit-margin-top="0"
     fit-margin-left="0"
     fit-margin-right="0"
     fit-margin-bottom="0"
     inkscape:zoom="44.055556"
     inkscape:cx="9"
     inkscape:cy="9"
     inkscape:window-width="1920"
     inkscape:window-height="1017"
     inkscape:window-x="-8"
     inkscape:window-y="-8"
     inkscape:window-maximized="1"
     inkscape:current-layer="svg70363" />
  <defs
     id="defs70346">
    <linearGradient
       id="b262a39f-334e-4f70-a28d-64b8b000186e"
       x1="8.4399996"
       y1="4.5289998"
       x2="8.4399996"
       y2="12.659"
       gradientUnits="userSpaceOnUse"
       gradientTransform="translate(-0.008)">
      <stop
         offset="0.196"
         stop-color="#5ea0ef"
         id="stop70341" />
      <stop
         offset="1"
         stop-color="#0078d4"
         id="stop70343" />
    </linearGradient>
  </defs>
  <path
     d="m 13.998,0.47 v 8.579 h -0.047 -0.028 l -0.592,0.005 h -0.039 a 0.288,0.288 0 0 0 -0.041,0 A 4.7,4.7 0 0 0 9.886,11 c -0.028,0.038 -0.053,0.075 -0.078,0.112 a 0.209,0.209 0 0 0 -0.027,0.039 0.238,0.238 0 0 0 -0.023,0.041 v 0 l -0.01,0.022 -0.013,0.04 H 9.057 A 0.573,0.573 0 0 0 8.981,10.892 1.057,1.057 0 0 0 8.798,10.658 L 7.16,8.874 A 0.675,0.675 0 0 0 6.942,8.693 0.666,0.666 0 0 0 6.642,8.621 0.655,0.655 0 0 0 6.129,8.869 l -1.76,1.818 A 0.669,0.669 0 0 0 4.137,11.255 H 0.469 A 0.471,0.471 0 0 1 0,10.785 V 0.461 A 0.469,0.469 0 0 1 0.469,0 h 13.059 a 0.471,0.471 0 0 1 0.47,0.47 z"
     fill="#005ba1"
     id="path70348" />
  <path
     d="M 15.31,4.529 V 9.317 A 4.7,4.7 0 0 0 9.131,12.659 H 2.016 A 0.461,0.461 0 0 1 1.555,12.198 V 4.529 Z"
     fill="url(#b262a39f-334e-4f70-a28d-64b8b000186e)"
     id="path70350"
     style="fill:url(#b262a39f-334e-4f70-a28d-64b8b000186e)" />
  <path
     d="M 2.017,1.6 H 14.848 A 0.461,0.461 0 0 1 15.31,2.061 V 4.529 H 1.556 V 2.053 A 0.46,0.46 0 0 1 2.017,1.6 Z"
     fill="#0078d4"
     id="path70352" />
  <path
     d="M 11.88,6.591 A 1.068,1.068 0 1 1 10.812,7.659 1.068,1.068 0 0 1 11.88,6.591 Z M 7.411,7.659 A 1.068,1.068 0 1 0 8.479,6.591 1.067,1.067 0 0 0 7.411,7.659 Z m -3.493,0 A 1.068,1.068 0 1 0 4.985,6.591 1.067,1.067 0 0 0 3.918,7.659 Z"
     fill="#ffffff"
     id="path70354" />
  <path
     d="m 15.951,15.8 h 1.509 a 4.242,4.242 0 0 0 0.524,-1.909 H 16.33 A 5.267,5.267 0 0 1 15.951,15.8 Z m 0.379,-2.211 h 1.654 A 4.228,4.228 0 0 0 17.461,11.68 h -1.535 a 4.918,4.918 0 0 1 0.404,1.906 z M 14.086,18 a 4.285,4.285 0 0 0 3.192,-1.9 H 15.802 A 5.111,5.111 0 0 1 14.086,18 Z m 1.688,-6.625 h 1.5 A 4.28,4.28 0 0 0 13.992,9.471 h -0.066 l 0.066,0.037 a 5.343,5.343 0 0 1 1.784,1.867 z m -2.006,0 h 1.677 c -0.072,-0.114 -0.146,-0.224 -0.226,-0.33 A 5.16,5.16 0 0 0 13.992,9.865 C 13.92,9.815 13.846,9.765 13.77,9.72 Z m 0,2.211 h 2.26 a 4.549,4.549 0 0 0 -0.433,-1.909 h -1.827 z m 0,2.211 h 1.845 a 4.882,4.882 0 0 0 0.415,-1.909 h -2.26 z m 1.7,0.3 h -1.7 v 1.751 A 4.984,4.984 0 0 0 15.466,16.1 Z m -2,0 h -1.576 a 4.923,4.923 0 0 0 1.577,1.673 z m 0,-6.381 a 4.752,4.752 0 0 0 -1.527,1.531 l -0.075,0.124 h 1.6 z m 0,4.168 h -2.14 a 4.847,4.847 0 0 0 0.415,1.909 h 1.725 z m 0,-2.211 h -1.745 a 4.973,4.973 0 0 0 -0.264,0.8 4.891,4.891 0 0 0 -0.133,1.114 h 2.14 z M 13.258,18 a 5.139,5.139 0 0 1 -1.707,-1.9 h -1.41 c 0.015,0.021 0.028,0.042 0.045,0.062 a 4.02,4.02 0 0 0 0.356,0.454 4.288,4.288 0 0 0 2.716,1.384 z m 0.034,-8.527 a 4.291,4.291 0 0 0 -3.072,1.778 c -0.03,0.041 -0.057,0.081 -0.084,0.121 h 1.4 c 0.022,-0.04 0.043,-0.08 0.066,-0.121 a 4.983,4.983 0 0 1 1.69,-1.778 z m -3.158,1.9 z m -0.709,2.211 h 1.6 a 5.135,5.135 0 0 1 0.126,-1.114 5.364,5.364 0 0 1 0.243,-0.795 h -1.44 a 4.211,4.211 0 0 0 -0.338,0.8 4.324,4.324 0 0 0 -0.188,1.111 z M 9.954,15.8 h 1.448 c -0.017,-0.044 -0.035,-0.089 -0.05,-0.133 a 5.175,5.175 0 0 1 -0.314,-1.442 c -0.009,-0.11 -0.013,-0.222 -0.014,-0.334 h -1.6 c 0,0.07 0.007,0.14 0.013,0.209 a 3.947,3.947 0 0 0 0.065,0.46 4.22,4.22 0 0 0 0.452,1.24 z M 9.615,16.05 A 4.191,4.191 0 0 1 5.862,11.568 0.2,0.2 0 0 0 5.848,11.481 0.207,0.207 0 0 0 5.733,11.357 0.232,0.232 0 0 0 5.647,11.339 h -0.8 c -0.309,0 -0.378,-0.167 -0.18,-0.368 L 6.443,9.143 a 0.226,0.226 0 0 1 0.084,-0.075 0.233,0.233 0 0 1 0.212,0 0.222,0.222 0 0 1 0.083,0.075 l 1.643,1.787 a 0.774,0.774 0 0 1 0.122,0.152 c 0.052,0.094 0.031,0.154 -0.062,0.188 A 0.738,0.738 0 0 1 8.285,11.3 H 7.549 a 0.229,0.229 0 0 0 -0.23,0.23 2.743,2.743 0 0 0 1.733,2.86 4.618,4.618 0 0 0 0.563,1.657 z"
     fill="#50e6ff"
     id="path70358" />
</svg>
