<?xml version="1.0" encoding="UTF-8" standalone="no"?>
<svg
   width="18"
   height="16.530216"
   viewBox="0 0 18 16.530216"
   version="1.1"
   id="svg71933"
   sodipodi:docname="Dedicated_HSM.svg"
   inkscape:version="1.1 (c68e22c387, 2021-05-23)"
   xmlns:inkscape="http://www.inkscape.org/namespaces/inkscape"
   xmlns:sodipodi="http://sodipodi.sourceforge.net/DTD/sodipodi-0.dtd"
   xmlns="http://www.w3.org/2000/svg"
   xmlns:svg="http://www.w3.org/2000/svg">
  <sodipodi:namedview
     id="namedview71935"
     pagecolor="#ffffff"
     bordercolor="#666666"
     borderopacity="1.0"
     inkscape:pageshadow="2"
     inkscape:pageopacity="0.0"
     inkscape:pagecheckerboard="0"
     showgrid="false"
     fit-margin-top="0"
     fit-margin-left="0"
     fit-margin-right="0"
     fit-margin-bottom="0"
     inkscape:zoom="44.055556"
     inkscape:cx="9"
     inkscape:cy="8.4779319"
     inkscape:window-width="1920"
     inkscape:window-height="1017"
     inkscape:window-x="-8"
     inkscape:window-y="-8"
     inkscape:window-maximized="1"
     inkscape:current-layer="svg71933" />
  <defs
     id="defs71924">
    <linearGradient
       id="bd9dd92d-9e34-4cab-857e-a2a2fdebfa6c"
       x1="9"
       y1="17.052"
       x2="9"
       y2="10.292"
       gradientUnits="userSpaceOnUse"
       gradientTransform="translate(0,-0.52178389)">
      <stop
         offset="0"
         stop-color="#0078d4"
         id="stop71914" />
      <stop
         offset="1"
         stop-color="#5ea0ef"
         id="stop71916" />
    </linearGradient>
    <linearGradient
       id="aad0839e-83c1-45ac-aa97-068c800d9ea6"
       x1="8.8199997"
       y1="15.612"
       x2="8.8199997"
       y2="0.528"
       gradientUnits="userSpaceOnUse"
       gradientTransform="translate(0,-0.52178389)">
      <stop
         offset="0"
         stop-color="#fea11b"
         id="stop71919" />
      <stop
         offset="0.734"
         stop-color="#ffd70f"
         id="stop71921" />
    </linearGradient>
  </defs>
  <path
     d="m 17.4,9.7702161 h -7.155 v 5.1699999 a 0.676,0.676 0 0 1 -0.675,0.675 h -1.5 a 0.676,0.676 0 0 1 -0.675,-0.675 v -0.762 H 6.27 a 0.676,0.676 0 0 1 -0.675,-0.675 v -1.5 a 0.676,0.676 0 0 1 0.675,-0.675 H 7.4 V 9.7702161 H 0.6 A 0.6,0.6 0 0 0 0,10.370216 v 5.56 a 0.6,0.6 0 0 0 0.6,0.6 h 16.8 a 0.6,0.6 0 0 0 0.6,-0.6 v -5.56 A 0.6,0.6 0 0 0 17.4,9.7702161 Z"
     fill="url(#bd9dd92d-9e34-4cab-857e-a2a2fdebfa6c)"
     id="path71926"
     style="fill:url(#bd9dd92d-9e34-4cab-857e-a2a2fdebfa6c)" />
  <path
     d="m 15.63,11.130216 h 0.78 a 0.15,0.15 0 0 1 0.15,0.15 v 0.78 a 0.15,0.15 0 0 1 -0.15,0.15 h -0.78 a 0.15,0.15 0 0 1 -0.15,-0.15 v -0.782 a 0.15,0.15 0 0 1 0.15,-0.148 z m -2.16,0 h 0.78 a 0.15,0.15 0 0 1 0.15,0.15 v 0.78 a 0.15,0.15 0 0 1 -0.15,0.15 h -0.78 a 0.15,0.15 0 0 1 -0.15,-0.15 v -0.782 a 0.15,0.15 0 0 1 0.15,-0.148 z m -2.16,0 h 0.78 a 0.15,0.15 0 0 1 0.15,0.15 v 0.78 a 0.15,0.15 0 0 1 -0.15,0.15 h -0.78 a 0.15,0.15 0 0 1 -0.15,-0.15 v -0.782 a 0.15,0.15 0 0 1 0.15,-0.148 z"
     fill="#c3f1ff"
     id="path71928" />
  <path
     d="m 12.564,3.7502161 a 3.744,3.744 0 1 0 -4.644,3.628 v 4.3189999 a 0.15,0.15 0 0 1 -0.15,0.15 h -1.5 a 0.15,0.15 0 0 0 -0.15,0.15 v 1.5 a 0.15,0.15 0 0 0 0.15,0.15 h 1.5 a 0.15,0.15 0 0 1 0.15,0.15 v 1.14 a 0.15,0.15 0 0 0 0.15,0.15 h 1.5 a 0.15,0.15 0 0 0 0.15,-0.15 V 7.3782161 a 3.743,3.743 0 0 0 2.844,-3.628 z m -3.488,1.945 a 1.962,1.962 0 1 1 1.689,-1.689 1.963,1.963 0 0 1 -1.689,1.689 z"
     fill="url(#aad0839e-83c1-45ac-aa97-068c800d9ea6)"
     id="path71930"
     style="fill:url(#aad0839e-83c1-45ac-aa97-068c800d9ea6)" />
</svg>
