<?xml version="1.0" encoding="UTF-8" standalone="no"?>
<svg
   width="15.788444"
   height="17.998501"
   viewBox="0 0 15.788444 17.998501"
   version="1.1"
   id="svg73509"
   sodipodi:docname="Device_Update_IoT_Hub.svg"
   inkscape:version="1.1 (c68e22c387, 2021-05-23)"
   xmlns:inkscape="http://www.inkscape.org/namespaces/inkscape"
   xmlns:sodipodi="http://sodipodi.sourceforge.net/DTD/sodipodi-0.dtd"
   xmlns="http://www.w3.org/2000/svg"
   xmlns:svg="http://www.w3.org/2000/svg">
  <sodipodi:namedview
     id="namedview73511"
     pagecolor="#ffffff"
     bordercolor="#666666"
     borderopacity="1.0"
     inkscape:pageshadow="2"
     inkscape:pageopacity="0.0"
     inkscape:pagecheckerboard="0"
     showgrid="false"
     fit-margin-top="0"
     fit-margin-left="0"
     fit-margin-right="0"
     fit-margin-bottom="0"
     inkscape:zoom="44.055556"
     inkscape:cx="7.887768"
     inkscape:cy="9"
     inkscape:window-width="1920"
     inkscape:window-height="1017"
     inkscape:window-x="-8"
     inkscape:window-y="-8"
     inkscape:window-maximized="1"
     inkscape:current-layer="svg73509" />
  <defs
     id="defs73490">
    <linearGradient
       id="a15d23b7-d69e-4d72-8039-5ceb7e59206e"
       x1="8.9989996"
       y1="6.8070002"
       x2="8.9989996"
       y2="13.192"
       gradientUnits="userSpaceOnUse"
       gradientTransform="translate(-1.1058288,-4.8101171e-4)">
      <stop
         offset="0"
         stop-color="#50e6ff"
         id="stop73485" />
      <stop
         offset="0.949"
         stop-color="#32bedd"
         id="stop73487" />
    </linearGradient>
  </defs>
  <path
     d="m 13.869171,9.020519 c 0,0.052 0,0.1 0,0.155 a 5.977,5.977 0 0 1 -5.9749998,5.824 h -0.063 l -0.857,-1.455 a 0.871,0.871 0 0 0 -0.759,-0.435 0.88,0.88 0 0 0 -0.821,0.554 l -0.262,0.657 c -0.1,-0.053 -0.2,-0.11 -0.3,-0.167 l -0.089,-0.054 c -0.041,-0.023 -0.08,-0.049 -0.12,-0.076 l -0.115,-0.078 c -0.027,-0.019 -0.054,-0.038 -0.08,-0.058 -0.026,-0.02 -0.054,-0.038 -0.08,-0.058 -0.026,-0.02 -0.031,-0.023 -0.048,-0.036 l -0.134,-0.1 v 0 0 c -0.046,-0.037 -0.092,-0.075 -0.135,-0.113 -0.043,-0.038 -0.077,-0.066 -0.115,-0.1 v 0 a 0.063,0.063 0 0 1 -0.022,-0.026 c -0.076,-0.066 -0.15,-0.137 -0.223,-0.21 l -0.114,-0.116 a 0.081,0.081 0 0 1 -0.016,-0.016 c -0.069,-0.074 -0.138,-0.15 -0.2,-0.229 -0.036,-0.041 -0.07,-0.083 -0.1,-0.125 -0.03,-0.042 -0.069,-0.086 -0.1,-0.13 -0.031,-0.044 -0.066,-0.087 -0.1,-0.13 -0.034,-0.043 -0.064,-0.09 -0.1,-0.137 -0.036,-0.047 -0.06,-0.091 -0.09,-0.138 a 0.839,0.839 0 0 1 -0.05,-0.081 c -0.02,-0.03 -0.037,-0.059 -0.055,-0.09 -0.035,-0.059 -0.07,-0.12 -0.1,-0.182 -0.026,-0.042 -0.048,-0.085 -0.071,-0.129 -0.043,-0.083 -0.084,-0.167 -0.122,-0.255 -0.021,-0.046 -0.042,-0.092 -0.062,-0.14 -0.02,-0.048 -0.044,-0.1 -0.063,-0.153 -0.019,-0.053 -0.04,-0.1 -0.056,-0.152 -0.016,-0.052 -0.031,-0.08 -0.044,-0.123 -0.013,-0.043 -0.021,-0.062 -0.031,-0.094 -0.01,-0.032 -0.023,-0.072 -0.032,-0.107 -0.017,-0.055 -0.033,-0.108 -0.047,-0.163 -0.014,-0.055 -0.028,-0.108 -0.041,-0.163 -0.013,-0.055 -0.025,-0.111 -0.036,-0.166 a 5.964,5.964 0 0 1 -0.111,-0.842 c 0,-0.048 -0.006,-0.1 -0.007,-0.147 0,-0.071 0,-0.143 0,-0.216 a 5.955,5.955 0 0 1 0.071,-0.941 c 0.011,-0.074 0.025,-0.15 0.039,-0.226 0.014,-0.076 0.026,-0.121 0.04,-0.182 a 0.645,0.645 0 0 1 0.021,-0.084 c 0.014,-0.062 0.029,-0.124 0.048,-0.186 v -0.017 c 0.018,-0.064 0.038,-0.129 0.059,-0.194 v -0.012 a 5.978,5.978 0 0 1 5.675,-4.133 l 0.831,1.41 a 0.883,0.883 0 0 0 1.5809998,-0.121 l 0.265,-0.665 c 0.08,0.039 0.161,0.082 0.238,0.125 0.077,0.043 0.139,0.079 0.208,0.123 l 0.047,0.026 c 0.05,0.033 0.1,0.065 0.151,0.1 0.089,0.058 0.176,0.118 0.261,0.182 0.112,0.081 0.222,0.17 0.327,0.263 0.052,0.045 0.1,0.091 0.155,0.139 a 5.921,5.921 0 0 1 1.873,3.586 c 0.01,0.067 0.018,0.136 0.025,0.205 0.012,0.12 0.021,0.24 0.026,0.361 0,0.051 0,0.1 0,0.154 0.005,0.029 0.005,0.057 0.005,0.087 z"
     fill="url(#a15d23b7-d69e-4d72-8039-5ceb7e59206e)"
     id="path73492"
     style="fill:url(#a15d23b7-d69e-4d72-8039-5ceb7e59206e)" />
  <polygon
     points="8.085,11.219 8.493,11.465 9.89,9.14 11.551,12.041 11.964,11.806 10.103,8.548 9.918,8.654 10.069,8.542 7.962,5.546 7.576,5.825 9.443,8.48 5.307,8.821 5.346,9.302 9.443,8.961 "
     fill="#ffffff"
     opacity="0.48"
     id="polygon73494"
     transform="translate(-1.1058288,-4.8101171e-4)" />
  <path
     d="m 10.669171,11.118519 h -0.006 a 0.879,0.879 0 0 0 -0.187,0.018 0.856,0.856 0 0 0 -0.6789998,0.826 v 0.017 a 0.866,0.866 0 1 0 0.8719998,-0.861 z m -2.9129998,-0.27 a 0.728,0.728 0 0 0 -0.431,-0.205 0.457,0.457 0 0 0 -0.083,-0.006 h -0.006 a 0.746,0.746 0 0 0 -0.75,0.738 v 0.006 a 0.75,0.75 0 1 0 1.27,-0.533 z m -2.878,-2.084 a 0.743,0.743 0 1 0 0.088,0.353 0.742,0.742 0 0 0 -0.088,-0.353 z m 1.849,-3.965 h -0.027 a 0.92803893,0.92803893 0 0 0 0.017,1.856 0.954,0.954 0 0 0 0.3,-0.049 0.933,0.933 0 0 0 0.628,-0.873 0.927,0.927 0 0 0 -0.918,-0.934 z m 2.085,2.815 a 1.119,1.119 0 0 0 -0.438,0.085 1.123,1.123 0 0 0 -0.661,0.83 0.984,0.984 0 0 0 -0.019,0.17 v 0.027 a 1.131,1.131 0 0 0 0.314,0.776 1.106,1.106 0 0 0 0.4,0.266 1.125,1.125 0 0 0 0.407,0.078 1.147,1.147 0 0 0 0.348,-0.055 1.118,1.118 0 0 0 -0.348,-2.181 z"
     fill="#ffffff"
     id="path73496"
     style="opacity:0.8" />
  <path
     d="m 15.394171,11.492519 a 0.463,0.463 0 0 1 -0.611,0.288 l -0.539,-0.216 a 0.461,0.461 0 0 1 -0.263,-0.574 6.408,6.408 0 0 0 -3.656,-7.891 l -0.156,0.391 -0.2749998,0.688 a 0.461,0.461 0 0 1 -0.825,0.062 l -0.693,-1.177 -0.893,-1.515 a 0.461,0.461 0 0 1 0.272,-0.67700001 l 3.0059998,-0.854 a 0.462,0.462 0 0 1 0.555,0.616 l -0.432,1.07700001 a 7.909,7.909 0 0 1 4.51,9.782 z"
     fill="#0078d4"
     id="path73500" />
  <path
     d="m 7.9261712,17.128519 -3.006,0.852 a 0.46,0.46 0 0 1 -0.554,-0.614 l 0.433,-1.081 a 7.907,7.907 0 0 1 -4.40499996,-9.736 0.464,0.464 0 0 1 0.61099996,-0.288 l 0.529,0.212 a 0.467,0.467 0 0 1 0.274,0.574 6.409,6.409 0 0 0 3.548,7.852 l 0.157,-0.391 0.273,-0.682 a 0.461,0.461 0 0 1 0.826,-0.063 l 0.714,1.212 0.872,1.48 a 0.461,0.461 0 0 1 -0.272,0.673 z"
     fill="#0078d4"
     id="path73502" />
</svg>
