<?xml version="1.0" encoding="UTF-8" standalone="no"?>
<svg
   width="18"
   height="17.345692"
   viewBox="0 0 18 17.345692"
   version="1.1"
   id="svg74790"
   sodipodi:docname="Disk_Pool.svg"
   inkscape:version="1.1 (c68e22c387, 2021-05-23)"
   xmlns:inkscape="http://www.inkscape.org/namespaces/inkscape"
   xmlns:sodipodi="http://sodipodi.sourceforge.net/DTD/sodipodi-0.dtd"
   xmlns="http://www.w3.org/2000/svg"
   xmlns:svg="http://www.w3.org/2000/svg">
  <sodipodi:namedview
     id="namedview74792"
     pagecolor="#ffffff"
     bordercolor="#666666"
     borderopacity="1.0"
     inkscape:pageshadow="2"
     inkscape:pageopacity="0.0"
     inkscape:pagecheckerboard="0"
     showgrid="false"
     fit-margin-top="0"
     fit-margin-left="0"
     fit-margin-right="0"
     fit-margin-bottom="0"
     inkscape:zoom="44.055556"
     inkscape:cx="9"
     inkscape:cy="8.6822194"
     inkscape:window-width="1920"
     inkscape:window-height="1017"
     inkscape:window-x="-8"
     inkscape:window-y="-8"
     inkscape:window-maximized="1"
     inkscape:current-layer="svg74790" />
  <defs
     id="defs74756">
    <linearGradient
       id="bc28d075-e521-4396-a6ce-a58a84c669db"
       x1="5.368"
       y1="2.599"
       x2="9.6809998"
       y2="7.2319999"
       gradientUnits="userSpaceOnUse"
       gradientTransform="translate(0,-0.32715391)">
      <stop
         offset="0"
         stop-color="#5ea0ef"
         id="stop74730" />
      <stop
         offset="0.2"
         stop-color="#83b9f9"
         id="stop74732" />
      <stop
         offset="0.5"
         stop-color="#83b9f9"
         id="stop74734" />
      <stop
         offset="0.75"
         stop-color="#83b9f9"
         id="stop74736" />
      <stop
         offset="0.9"
         stop-color="#6facf4"
         id="stop74738" />
      <stop
         offset="1"
         stop-color="#5ea0ef"
         id="stop74740" />
    </linearGradient>
    <linearGradient
       id="a7ec1ec3-6991-48ca-bc13-e2e2f72b726d"
       x1="8.3199997"
       y1="6.3319998"
       x2="12.637"
       y2="10.969"
       gradientUnits="userSpaceOnUse"
       gradientTransform="translate(0,-0.32715391)">
      <stop
         offset="0"
         stop-color="#5ea0ef"
         id="stop74743" />
      <stop
         offset="0.2"
         stop-color="#83b9f9"
         id="stop74745" />
      <stop
         offset="0.5"
         stop-color="#83b9f9"
         id="stop74747" />
      <stop
         offset="0.75"
         stop-color="#83b9f9"
         id="stop74749" />
      <stop
         offset="0.9"
         stop-color="#6facf4"
         id="stop74751" />
      <stop
         offset="1"
         stop-color="#5ea0ef"
         id="stop74753" />
    </linearGradient>
  </defs>
  <path
     d="m 6.218,10.551846 a 1.615,1.615 0 0 1 -0.7,-1.2649999 v -0.727 a 1.313,1.313 0 0 1 -0.018,-0.249 c 0,-0.927 0.88,-1.591 2.108,-1.979 -0.039,0 -0.074,0 -0.113,0 -2.42,0 -4.381,0.806 -4.381,1.8 a 0.791,0.791 0 0 0 0.023,0.187 v 0.789 c 0,0.767 1.205,1.4189999 2.846,1.6769999 a 2.145,2.145 0 0 1 0.235,-0.233 z"
     fill="#0078d4"
     id="path74758" />
  <path
     d="m 10.386,5.9268461 c 0.919,-0.33 1.51,-0.809 1.51,-1.349 0,-0.994 -1.961,-1.8 -4.381,-1.8 -2.42,0 -4.382,0.805 -4.382,1.8 0,0.995 1.937,1.787 4.335,1.795 a 9.54,9.54 0 0 1 2.918,-0.446 z"
     fill="url(#bc28d075-e521-4396-a6ce-a58a84c669db)"
     id="path74760"
     style="fill:url(#bc28d075-e521-4396-a6ce-a58a84c669db)" />
  <ellipse
     cx="7.6259999"
     cy="4.5548463"
     rx="1.455"
     ry="0.39700001"
     fill="#005ba1"
     id="ellipse74762" />
  <path
     d="m 10.467,5.9258461 a 10.79,10.79 0 0 1 1.29,0.085 0.845,0.845 0 0 0 0.137,-0.407 v -1.063 c 0,0.564 -0.619,1.058 -1.61,1.388 0.061,-0.001 0.122,-0.003 0.183,-0.003 z"
     fill="#5ea0ef"
     id="path74764" />
  <path
     d="M 7.6,6.3338461 H 7.539 c -2.442,0 -4.4,-0.806 -4.381,-1.8 v 1.02 c 0,0.764 1.194,1.413 2.824,1.674 a 3.943,3.943 0 0 1 1.618,-0.894 z"
     fill="#5ea0ef"
     id="path74766" />
  <path
     d="m 14.828,11.859846 c 0,-0.994 -1.962,-1.8 -4.382,-1.8 -2.42,0 -4.381,0.806 -4.381,1.8 a 0.783,0.783 0 0 0 0.023,0.186 v 0.789 c 0,0.993 2.01,1.8 4.382,1.8 2.372,0 4.3,-0.789 4.381,-1.753 l -0.023,-0.748 z"
     fill="#0078d4"
     id="path74768" />
  <ellipse
     cx="10.557"
     cy="11.835846"
     rx="1.455"
     ry="0.39700001"
     fill="#005ba1"
     id="ellipse74770" />
  <ellipse
     cx="10.467"
     cy="8.3108454"
     rx="4.382"
     ry="1.799"
     fill="url(#a7ec1ec3-6991-48ca-bc13-e2e2f72b726d)"
     id="ellipse74772"
     style="fill:url(#a7ec1ec3-6991-48ca-bc13-e2e2f72b726d)" />
  <ellipse
     cx="10.578"
     cy="8.2878456"
     rx="1.455"
     ry="0.39700001"
     fill="#005ba1"
     id="ellipse74774" />
  <path
     d="m 10.465,10.103846 c 2.425,0 4.382,-0.8059999 4.382,-1.7999999 v 0 1.069 0 c -0.082,0.9639999 -2.01,1.7529999 -4.382,1.7529999 -2.372,0 -4.381,-0.807 -4.381,-1.7999999 v -1.021 c -0.024,0.993 1.939,1.7989999 4.381,1.7989999 z"
     fill="#5ea0ef"
     id="path74776" />
  <path
     d="m 0,15.259846 a 0.174,0.174 0 0 0 0.08600001,0.15 l 1.22099999,0.708 2.075,1.2 a 0.169,0.169 0 0 0 0.232,-0.061 v 0 l 0.7,-1.215 a 0.175,0.175 0 0 0 -0.063,-0.236 l -2.428,-1.4 a 0.169,0.169 0 0 1 -0.086,-0.149 V 3.0948461 a 0.169,0.169 0 0 1 0.086,-0.149 l 2.428,-1.409 a 0.175,0.175 0 0 0 0.063,-0.235 L 3.616,0.08684609 a 0.172,0.172 0 0 0 -0.233,-0.065 v 0 l -2.034,1.18100001 -1.26299999,0.733 A 0.172,0.172 0 0 0 0,2.0848461 Z"
     fill="#949494"
     id="path74778" />
  <path
     d="M 4.314,1.3018461 3.616,0.08684609 a 0.171,0.171 0 0 0 -0.174,-0.084 0.161,0.161 0 0 0 -0.086,0.021 l -2.032,1.17900001 -1.26299999,0.733 A 0.175,0.175 0 0 0 0,1.9958461 l 0.02000001,0.012 A 0.173,0.173 0 0 0 0,2.0848461 l 1.739,1.01 a 0.167,0.167 0 0 1 0.086,-0.149 l 2.426,-1.409 a 0.175,0.175 0 0 0 0.063,-0.235 z"
     fill="#a3a3a3"
     id="path74780" />
  <path
     d="m 4.314,16.044846 -0.7,1.215 a 0.172,0.172 0 0 1 -0.174,0.084 0.161,0.161 0 0 1 -0.086,-0.021 l -2.032,-1.18 -1.26099999,-0.732 A 0.178,0.178 0 0 1 0,15.349846 l 0.02000001,-0.011 A 0.165,0.165 0 0 1 0,15.260846 l 1.739,-1.009 a 0.169,0.169 0 0 0 0.086,0.149 l 2.426,1.408 a 0.175,0.175 0 0 1 0.063,0.236 z"
     fill="#a3a3a3"
     id="path74782" />
  <path
     d="m 18,2.0858461 a 0.174,0.174 0 0 0 -0.086,-0.15 l -1.221,-0.708 -2.077,-1.20400001 a 0.169,0.169 0 0 0 -0.232,0.061 v 0 l -0.7,1.21500001 a 0.175,0.175 0 0 0 0.063,0.236 l 2.426,1.408 a 0.169,0.169 0 0 1 0.086,0.149 V 14.250846 a 0.169,0.169 0 0 1 -0.086,0.149 l -2.426,1.409 a 0.175,0.175 0 0 0 -0.063,0.235 l 0.7,1.215 a 0.172,0.172 0 0 0 0.233,0.065 v 0 l 2.033,-1.18 1.263,-0.733 a 0.172,0.172 0 0 0 0.087,-0.15 z"
     fill="#949494"
     id="path74784" />
  <path
     d="m 13.684,16.043846 0.7,1.215 a 0.171,0.171 0 0 0 0.174,0.084 0.161,0.161 0 0 0 0.086,-0.021 l 2.032,-1.179 1.263,-0.733 a 0.175,0.175 0 0 0 0.061,-0.06 l -0.02,-0.012 a 0.173,0.173 0 0 0 0.02,-0.077 l -1.739,-1.01 a 0.167,0.167 0 0 1 -0.086,0.149 l -2.426,1.409 a 0.174,0.174 0 0 0 -0.065,0.235 z"
     fill="#a3a3a3"
     id="path74786" />
  <path
     d="m 13.684,1.3008461 0.7,-1.21500001 a 0.172,0.172 0 0 1 0.174,-0.084 0.161,0.161 0 0 1 0.086,0.021 l 2.032,1.18000001 1.263,0.732 a 0.172,0.172 0 0 1 0.061,0.061 l -0.02,0.011 a 0.165,0.165 0 0 1 0.02,0.078 l -1.741,1.009 a 0.169,0.169 0 0 0 -0.086,-0.149 l -2.426,-1.408 a 0.175,0.175 0 0 1 -0.063,-0.236 z"
     fill="#a3a3a3"
     id="path74788" />
</svg>
