<?xml version="1.0" encoding="UTF-8" standalone="no"?>
<svg
   id="a1f33b3c-3faf-4020-87e6-f8edac0a12a2"
   width="10.000182"
   height="17.000181"
   viewBox="0 0 10.000182 17.000181"
   version="1.1"
   sodipodi:docname="Exchange_On_Premises_Access.svg"
   inkscape:version="1.1 (c68e22c387, 2021-05-23)"
   xmlns:inkscape="http://www.inkscape.org/namespaces/inkscape"
   xmlns:sodipodi="http://sodipodi.sourceforge.net/DTD/sodipodi-0.dtd"
   xmlns="http://www.w3.org/2000/svg"
   xmlns:svg="http://www.w3.org/2000/svg"
   xmlns:rdf="http://www.w3.org/1999/02/22-rdf-syntax-ns#"
   xmlns:cc="http://creativecommons.org/ns#"
   xmlns:dc="http://purl.org/dc/elements/1.1/">
  <sodipodi:namedview
     id="namedview75844"
     pagecolor="#ffffff"
     bordercolor="#666666"
     borderopacity="1.0"
     inkscape:pageshadow="2"
     inkscape:pageopacity="0.0"
     inkscape:pagecheckerboard="0"
     showgrid="false"
     fit-margin-top="0"
     fit-margin-left="0"
     fit-margin-right="0"
     fit-margin-bottom="0"
     inkscape:zoom="44.055556"
     inkscape:cx="5.0050441"
     inkscape:cy="8.5006305"
     inkscape:window-width="1920"
     inkscape:window-height="1017"
     inkscape:window-x="-8"
     inkscape:window-y="-8"
     inkscape:window-maximized="1"
     inkscape:current-layer="a1f33b3c-3faf-4020-87e6-f8edac0a12a2" />
  <defs
     id="defs75836">
    <linearGradient
       id="e41cab83-4c54-4068-816f-b081f152f701"
       x1="9"
       y1="0.5"
       x2="9"
       y2="17.5"
       gradientUnits="userSpaceOnUse"
       gradientTransform="translate(-3.9999091,-0.49990908)">
      <stop
         offset="0"
         stop-color="#5ea0ef"
         id="stop75825" />
      <stop
         offset="0.18"
         stop-color="#559cec"
         id="stop75827" />
      <stop
         offset="0.47"
         stop-color="#3c91e5"
         id="stop75829" />
      <stop
         offset="0.84"
         stop-color="#1380da"
         id="stop75831" />
      <stop
         offset="1"
         stop-color="#0078d4"
         id="stop75833" />
    </linearGradient>
  </defs>
  <title
     id="title75838">Icon-intune-334</title>
  <path
     d="M 10.000091,0.57009092 V 16.430091 a 0.56,0.56 0 0 1 -0.5600001,0.57 H 0.57009092 a 0.56,0.56 0 0 1 -0.569999995878,-0.57 V 0.57009092 A 0.56,0.56 0 0 1 0.57009092,9.0924122e-5 H 9.4300909 A 0.56,0.56 0 0 1 10.000091,0.57009092 Z"
     fill="url(#e41cab83-4c54-4068-816f-b081f152f701)"
     id="path75840"
     style="fill:url(#e41cab83-4c54-4068-816f-b081f152f701)" />
  <path
     id="a1bc77ea-5288-41a0-8f9a-2d282cf54a86"
     d="m 1.3300909,1.7700909 h 1.67 a 0.14,0.14 0 0 1 0.14,0.14 v 2.1 a 0.14,0.14 0 0 1 -0.14,0.14 h -1.67 a 0.15,0.15 0 0 1 -0.15,-0.14 v -2.1 a 0.15,0.15 0 0 1 0.15,-0.14 z m 2.86,0 h 1.62 a 0.14,0.14 0 0 1 0.14,0.14 v 2.1 a 0.14,0.14 0 0 1 -0.14,0.14 h -1.62 a 0.14,0.14 0 0 1 -0.14,-0.14 v -2.1 a 0.14,0.14 0 0 1 0.14,-0.14 z m 2.86,0 h 1.62 a 0.15,0.15 0 0 1 0.15,0.14 v 2.1 a 0.15,0.15 0 0 1 -0.15,0.14 h -1.62 a 0.14,0.14 0 0 1 -0.14,-0.14 v -2.1 a 0.14,0.14 0 0 1 0.14,-0.14 z m -5.72,3.81 h 1.67 a 0.14,0.14 0 0 1 0.14,0.14 v 2.1 a 0.15,0.15 0 0 1 -0.14,0.15 h -1.67 a 0.15,0.15 0 0 1 -0.15,-0.15 v -2.1 a 0.15,0.15 0 0 1 0.15,-0.14 z m 2.86,0 h 1.62 a 0.14,0.14 0 0 1 0.14,0.14 v 2.1 a 0.15,0.15 0 0 1 -0.14,0.15 h -1.62 a 0.15,0.15 0 0 1 -0.14,-0.15 v -2.1 a 0.14,0.14 0 0 1 0.14,-0.14 z m 2.86,0 h 1.62 a 0.15,0.15 0 0 1 0.15,0.14 v 2.1 a 0.15,0.15 0 0 1 -0.15,0.15 h -1.62 a 0.15,0.15 0 0 1 -0.14,-0.15 v -2.1 a 0.14,0.14 0 0 1 0.14,-0.14 z m -5.72,3.82 h 1.67 a 0.14,0.14 0 0 1 0.14,0.14 v 2.1000001 a 0.14,0.14 0 0 1 -0.14,0.14 h -1.67 a 0.15,0.15 0 0 1 -0.15,-0.14 V 9.5000909 a 0.15,0.15 0 0 1 0.15,-0.1 z m 2.86,0 h 1.62 a 0.14,0.14 0 0 1 0.19,0.1 v 2.1000001 a 0.14,0.14 0 0 1 -0.14,0.14 h -1.67 a 0.14,0.14 0 0 1 -0.14,-0.14 V 9.5000909 a 0.14,0.14 0 0 1 0.14,-0.1 z m 0,3.8100001 h 1.62 a 0.14,0.14 0 0 1 0.14,0.14 v 3.15 a 0.14,0.14 0 0 1 -0.14,0.14 h -1.62 a 0.14,0.14 0 0 1 -0.14,-0.14 v -3.15 a 0.14,0.14 0 0 1 0.14,-0.14 z m 2.86,-3.8100001 h 1.62 a 0.15,0.15 0 0 1 0.15,0.14 v 2.1000001 a 0.15,0.15 0 0 1 -0.15,0.14 h -1.62 a 0.14,0.14 0 0 1 -0.14,-0.14 V 9.5000909 a 0.14,0.14 0 0 1 0.14,-0.1 z"
     fill="#f2f2f2" />
  <metadata
     id="metadata75926">
    <rdf:RDF>
      <cc:Work
         rdf:about="">
        <dc:title>Icon-intune-334</dc:title>
      </cc:Work>
    </rdf:RDF>
  </metadata>
</svg>
