<?xml version="1.0" encoding="UTF-8" standalone="no"?>
<svg
   width="14.361679"
   height="18.004532"
   viewBox="0 0 14.361679 18.004532"
   version="1.1"
   id="svg76127"
   sodipodi:docname="Fiji.svg"
   inkscape:version="1.1 (c68e22c387, 2021-05-23)"
   xmlns:inkscape="http://www.inkscape.org/namespaces/inkscape"
   xmlns:sodipodi="http://sodipodi.sourceforge.net/DTD/sodipodi-0.dtd"
   xmlns="http://www.w3.org/2000/svg"
   xmlns:svg="http://www.w3.org/2000/svg">
  <defs
     id="defs76131" />
  <sodipodi:namedview
     id="namedview76129"
     pagecolor="#ffffff"
     bordercolor="#666666"
     borderopacity="1.0"
     inkscape:pageshadow="2"
     inkscape:pageopacity="0.0"
     inkscape:pagecheckerboard="0"
     showgrid="false"
     fit-margin-top="0"
     fit-margin-left="0"
     fit-margin-right="0"
     fit-margin-bottom="0"
     inkscape:zoom="44.055556"
     inkscape:cx="7.184111"
     inkscape:cy="9"
     inkscape:window-width="1920"
     inkscape:window-height="1017"
     inkscape:window-x="-8"
     inkscape:window-y="-8"
     inkscape:window-maximized="1"
     inkscape:current-layer="svg76127" />
  <path
     d="m 7.1916791,15.122531 v 2.882 h -0.12 a 0.01,0.01 0 0 0 -0.01,-0.01 0.41,0.41 0 0 1 -0.11,-0.01 c -0.04,-0.01 -0.08,-0.03 -0.12,-0.04 h -0.01 c -2.05,-1.16 -4.28,-2.48 -6.31999999,-3.64 -0.15,-0.1 -0.53,-0.25 -0.5,-0.45 l 0.02,-2.88 a 0.326,0.326 0 0 0 0.19,0.27 l 6.53999999,3.77 a 0.313,0.313 0 0 0 0.1,0.05 0.974,0.974 0 0 0 0.34,0.058 z m -0.11,-3.41 a 0.865,0.865 0 0 1 -0.23,-0.06 1.037,1.037 0 0 1 -0.1,-0.04 L 0.21167911,7.8325311 a 0.314,0.314 0 0 1 -0.19,-0.27 l -0.02,2.8799999 c -0.03,0.2 0.35,0.35 0.5,0.45 2.03999999,1.17 4.26999999,2.49 6.31999999,3.64 h 0.01 l 0.1,0.03 a 0.031,0.031 0 0 0 0.02,0.01 c 0.04,0.01 0.07,0.01 0.11,0.02 h 0.13 v -2.88 z m -0.23,-3.4599999 c -0.17,-0.07 -6.47999999,-3.75 -6.63999999,-3.83 a 0.314,0.314 0 0 1 -0.19,-0.27 l -0.02,2.88 c -0.03,0.2 0.35,0.36 0.5,0.45 2.03999999,1.17 4.26999999,2.49 6.31999999,3.6399999 h 0.01 a 0.564,0.564 0 0 0 0.12,0.04 c 0.04,0.01 0.07,0.01 0.11,0.02 h 0.01 c 0.03,0 0.06,0.01 0.09,0.01 h 0.03 V 8.3125311 a 1.276,1.276 0 0 1 -0.34,-0.06 z"
     fill="#0078d4"
     id="path76116" />
  <path
     d="m 11.611679,4.3725311 -4.3599999,2.51 a 0.382,0.382 0 0 1 -0.33,0 l -4.16,-2.37 a 0.329,0.329 0 0 1 0,-0.57 l 4.36,-2.51 a 0.382,0.382 0 0 1 0.33,0 l 4.1599999,2.37 a 0.325,0.325 0 0 1 0,0.57 z"
     fill="#003067"
     id="path76118" />
  <path
     d="m 14.341679,4.2225311 v 0.01 l -0.03,0.06 a 0.348,0.348 0 0 1 -0.14,0.13 l -6.4999999,3.782 a 1.089,1.089 0 0 1 -0.32,0.1 0.57,0.57 0 0 1 -0.13,0.01 h -0.03 v 2.8799999 a 0.487,0.487 0 0 0 0.12,-0.01 0.873,0.873 0 0 0 0.22,-0.05 0.433,0.433 0 0 0 0.12,-0.05 l 4.7499999,-2.7599999 0.43,-0.25 1.32,-0.77 a 0.555,0.555 0 0 0 0.08,-0.06 c 0.02,-0.01 0.03,-0.03 0.05,-0.05 v -0.01 h 0.01 v -0.01 c 0.02,-0.01 0.02,-0.03 0.03,-0.05 v -0.01 l 0.01,-0.01 c 0,-0.02 0.01,-0.04 0.01,-0.06 l 0.02,-2.88 a 0.142,0.142 0 0 1 -0.02,0.058 z m 0,3.41 v 0.01 l -0.03,0.06 a 0.436,0.436 0 0 1 -0.14,0.13 l -0.05,0.03 -0.15,0.08 -0.12,0.07 -0.76,0.44 -1.33,0.78 -0.6,0.35 -0.3,0.18 -0.6,0.3499999 -0.8699999,0.5 -0.99,0.57 -0.73,0.42 a 0.869,0.869 0 0 1 -0.32,0.11 h -0.13 a 0.019,0.019 0 0 1 -0.03,0 v 2.88 h 0.12 a 0.873,0.873 0 0 0 0.22,-0.05 0.337,0.337 0 0 0 0.12,-0.06 l 1.02,-0.59 0.49,-0.28 1.1399999,-0.66 0.6,-0.35 0.31,-0.18 0.6,-0.35 2.34,-1.36 a 0.555,0.555 0 0 0 0.08,-0.06 c 0.02,-0.01 0.03,-0.03 0.05,-0.05 v -0.01 h 0.01 v -0.01 c 0.02,-0.02 0.02,-0.04 0.03,-0.06 a 0.01,0.01 0 0 1 0.01,-0.01 c 0,-0.02 0.01,-0.04 0.01,-0.07 l 0.02,-2.8699999 a 0.107,0.107 0 0 1 -0.02,0.06 z m 0,3.4099999 v 0.01 l -0.03,0.06 a 0.584,0.584 0 0 1 -0.14,0.13 l -6.4999999,3.77 a 0.708,0.708 0 0 1 -0.32,0.1 0.57,0.57 0 0 1 -0.13,0.01 h -0.03 v 2.882 h 0.12 a 0.873,0.873 0 0 0 0.22,-0.05 c 0.3,-0.12 6.3599999,-3.7 6.6199999,-3.84 a 0.558,0.558 0 0 0 0.08,-0.05 l 0.05,-0.05 v -0.01 h 0.01 v -0.01 c 0.02,-0.02 0.02,-0.04 0.03,-0.06 0.01,-0.02 0,-0.01 0.01,-0.01 0,-0.02 0.01,-0.05 0.01,-0.07 l 0.02,-2.88 a 0.145,0.145 0 0 1 -0.02,0.068 z"
     fill="#005ba1"
     id="path76120" />
  <path
     d="m 14.171679,11.242531 -6.4999999,3.77 a 1.017,1.017 0 0 1 -0.93,0 l -6.52999999,-3.77 c -0.26,-0.15 -0.26,-0.38 -0.01,-0.53 2.14299999,1.246 4.46199999,2.6 6.61999999,3.82 a 0.9,0.9 0 0 1 0.11,0.03 0.952,0.952 0 0 0 0.72,-0.08 c 0.02,-0.01 6.4999999,-3.765 6.5099999,-3.78 a 0.286,0.286 0 0 1 0.01,0.54 z m -0.01,-3.9499999 a 0.01,0.01 0 0 1 -0.01,0.01 c 0,0 -6.4899999,3.7699999 -6.4999999,3.7799999 a 1.014,1.014 0 0 1 -0.82,0.04 h -0.01 c -2.158,-1.2179999 -4.478,-2.5709999 -6.61999999,-3.8179999 -0.25,0.15 -0.25,0.38 0.01,0.53 L 6.7416791,11.604531 a 1.017,1.017 0 0 0 0.93,0 L 14.171679,7.8345311 a 0.286,0.286 0 0 0 -0.01,-0.542 z m 0.01,-2.87 -6.4999999,3.782 a 1.082,1.082 0 0 1 -0.93,0 l -6.52999999,-3.78 a 0.278,0.278 0 0 1 0,-0.53 l 6.48999999,-3.782 a 1.017,1.017 0 0 1 0.93,0 l 6.5299999,3.78 c 0.26,0.15 0.26,0.39 0.01,0.53 z m -2.56,-0.62 -4.1599999,-2.37 a 0.382,0.382 0 0 0 -0.33,0 l -4.36,2.51 a 0.329,0.329 0 0 0 0,0.57 l 4.16,2.37 a 0.382,0.382 0 0 0 0.33,0 l 4.3599999,-2.51 a 0.325,0.325 0 0 0 0,-0.568 z m 2.144,9.9619999 -0.009,-1.32 a 0.042,0.042 0 0 0 -0.062,-0.036 l -3.239,1.877 a 0.042,0.042 0 0 0 -0.021,0.036 l 0.01,1.32 a 0.041,0.041 0 0 0 0.061,0.035 l 3.24,-1.877 a 0.039,0.039 0 0 0 0.02,-0.035 z m -0.02,-3.372 -3.24,1.876 a 0.04,0.04 0 0 1 -0.061,-0.035 l -0.01,-1.32 a 0.043,0.043 0 0 1 0.021,-0.036 l 3.239,-1.8729999 a 0.041,0.041 0 0 1 0.062,0.035 l 0.009,1.3199999 a 0.041,0.041 0 0 1 -0.02,0.033 z m 0,-3.4079999 -3.24,1.877 a 0.041,0.041 0 0 1 -0.061,-0.036 l -0.01,-1.321 a 0.041,0.041 0 0 1 0.021,-0.036 l 3.239,-1.877 a 0.041,0.041 0 0 1 0.062,0.035 l 0.009,1.32 a 0.04,0.04 0 0 1 -0.02,0.038 z"
     fill="#5ea0ef"
     id="path76122" />
  <path
     d="m 5.9666791,15.375531 a 0.559,0.559 0 0 1 0.256,0.444 v 0.732 c 0,0.164 -0.115,0.233 -0.258,0.15 l -0.637,-0.368 a 0.57,0.57 0 0 1 -0.259,-0.448 v -0.732 c 0,-0.165 0.118,-0.228 0.261,-0.146 z m -0.637,-3.771 c -0.143,-0.082 -0.261,-0.018 -0.261,0.146 v 0.732 a 0.573,0.573 0 0 0 0.259,0.449 l 0.637,0.367 c 0.143,0.083 0.258,0.015 0.258,-0.15 v -0.732 a 0.561,0.561 0 0 0 -0.256,-0.444 z m 0,-3.4069999 c -0.143,-0.083 -0.261,-0.019 -0.261,0.145 v 0.732 a 0.573,0.573 0 0 0 0.259,0.449 l 0.637,0.368 c 0.143,0.082 0.258,0.014 0.258,-0.15 v -0.732 a 0.561,0.561 0 0 0 -0.256,-0.445 z"
     fill="#50e6ff"
     id="path76124" />
</svg>
