<?xml version="1.0" encoding="UTF-8" standalone="no"?>
<svg
   xmlns:dc="http://purl.org/dc/elements/1.1/"
   xmlns:cc="http://creativecommons.org/ns#"
   xmlns:rdf="http://www.w3.org/1999/02/22-rdf-syntax-ns#"
   xmlns:svg="http://www.w3.org/2000/svg"
   xmlns="http://www.w3.org/2000/svg"
   xmlns:sodipodi="http://sodipodi.sourceforge.net/DTD/sodipodi-0.dtd"
   xmlns:inkscape="http://www.inkscape.org/namespaces/inkscape"
   id="fab23b23-e919-4dd4-b247-de15da1c5ef9"
   data-name="azure-fluent-icons"
   width="17.000364"
   height="16.78252"
   viewBox="0 0 17.000364 16.78252"
   version="1.1"
   sodipodi:docname="Instance_Pools.svg"
   inkscape:version="0.92.3 (2405546, 2018-03-11)">
  <sodipodi:namedview
     pagecolor="#ffffff"
     bordercolor="#666666"
     borderopacity="1"
     objecttolerance="10"
     gridtolerance="10"
     guidetolerance="10"
     inkscape:pageopacity="0"
     inkscape:pageshadow="2"
     inkscape:window-width="1920"
     inkscape:window-height="1017"
     id="namedview71542"
     showgrid="false"
     fit-margin-top="0"
     fit-margin-left="0"
     fit-margin-right="0"
     fit-margin-bottom="0"
     inkscape:zoom="48.111111"
     inkscape:cx="8.5003638"
     inkscape:cy="8.3925211"
     inkscape:window-x="-8"
     inkscape:window-y="-8"
     inkscape:window-maximized="1"
     inkscape:current-layer="fab23b23-e919-4dd4-b247-de15da1c5ef9" />
  <defs
     id="defs71519">
    <linearGradient
       id="a30745b0-ad63-49cb-b0a6-bfff2ae873e7"
       x1="5.4099998"
       y1="17.33"
       x2="5.4099998"
       y2="4.6100001"
       gradientUnits="userSpaceOnUse"
       gradientTransform="translate(0.49963624,0.60999988)">
      <stop
         offset="0"
         stop-color="#949494"
         id="stop71501" />
      <stop
         offset="0.53"
         stop-color="#a2a2a2"
         id="stop71503" />
      <stop
         offset="1"
         stop-color="#b3b3b3"
         id="stop71505" />
    </linearGradient>
    <linearGradient
       id="a9d4c02a-89a8-4dd3-9cb4-7cc2e8933fb4"
       x1="10.04"
       y1="-1347.39"
       x2="10.04"
       y2="-1336.8199"
       gradientTransform="matrix(1,0,0,-1,0.49963624,-1329.39)"
       gradientUnits="userSpaceOnUse">
      <stop
         offset="0"
         stop-color="#0078d4"
         id="stop71508" />
      <stop
         offset="0.16"
         stop-color="#1380da"
         id="stop71510" />
      <stop
         offset="0.53"
         stop-color="#3c91e5"
         id="stop71512" />
      <stop
         offset="0.82"
         stop-color="#559cec"
         id="stop71514" />
      <stop
         offset="1"
         stop-color="#5ea0ef"
         id="stop71516" />
    </linearGradient>
  </defs>
  <title
     id="title71521">Icon-databases-138</title>
  <g
     id="g71537"
     transform="translate(-0.49963624,-0.60999988)">
    <path
       d="m 14.32,12.76 a 0.59,0.59 0 0 1 -0.57,0.57 H 5.07 A 0.57,0.57 0 0 1 4.5,12.76 V 1.18 A 0.55,0.55 0 0 1 5.05,0.61 h 8.7 a 0.57,0.57 0 0 1 0.57,0.57 z"
       id="path71523"
       inkscape:connector-curvature="0"
       style="fill:#777777" />
    <path
       d="m 12.32,14.76 a 0.59,0.59 0 0 1 -0.57,0.57 H 3.07 A 0.57,0.57 0 0 1 2.5,14.76 V 3.18 A 0.55,0.55 0 0 1 3.05,2.61 h 8.7 a 0.57,0.57 0 0 1 0.57,0.57 z"
       id="path71525"
       inkscape:connector-curvature="0"
       style="fill:#999999" />
    <path
       d="M 10.32,16.76 A 0.59,0.59 0 0 1 9.75,17.33 H 1.07 A 0.58,0.58 0 0 1 0.5,16.76 V 5.18 A 0.55,0.55 0 0 1 1.05,4.61 h 8.7 a 0.57,0.57 0 0 1 0.57,0.57 z"
       id="path71527"
       inkscape:connector-curvature="0"
       style="fill:url(#a30745b0-ad63-49cb-b0a6-bfff2ae873e7)" />
    <path
       d="M 1.94,7.31 A 1.06,1.06 0 0 1 3,6.24 h 4.9 a 1.07,1.07 0 0 1 1.1,1 v 0 0 A 1.08,1.08 0 0 1 7.92,8.37 H 3 A 1.08,1.08 0 0 1 1.94,7.31 Z"
       id="path71529"
       inkscape:connector-curvature="0"
       style="fill:#003067" />
    <circle
       cx="3.0599999"
       cy="7.3099999"
       r="0.72000003"
       id="circle71531"
       style="fill:#50e6ff" />
    <path
       d="m 17.5,14.08 a 3.35,3.35 0 0 0 -2.91,-3.22 4.21,4.21 0 0 0 -4.35,-4 4.31,4.31 0 0 0 -4.14,2.78 4,4 0 0 0 -3.52,3.85 4.06,4.06 0 0 0 4.2,3.9 h 7.39 a 3.38,3.38 0 0 0 3.33,-3.31 z"
       id="path71533"
       inkscape:connector-curvature="0"
       style="fill:url(#a9d4c02a-89a8-4dd3-9cb4-7cc2e8933fb4)" />
    <path
       d="m 13.61,14.45 v -3.36 h -0.93 v 4.12 h 2.45 V 14.45 Z M 6.51,12.8 A 2.67,2.67 0 0 1 6,12.49 0.47,0.47 0 0 1 5.88,12.17 a 0.32,0.32 0 0 1 0.15,-0.3 0.63,0.63 0 0 1 0.42,-0.12 1.68,1.68 0 0 1 1,0.29 v -0.86 a 2.82,2.82 0 0 0 -1,-0.15 1.7,1.7 0 0 0 -1.09,0.33 1.08,1.08 0 0 0 -0.41,0.89 1.35,1.35 0 0 0 0.94,1.2 2.51,2.51 0 0 1 0.61,0.36 0.42,0.42 0 0 1 0.15,0.32 A 0.33,0.33 0 0 1 6.5,14.43 0.78,0.78 0 0 1 6.05,14.55 1.61,1.61 0 0 1 5,14.13 v 0.92 A 2.28,2.28 0 0 0 6,15.28 1.93,1.93 0 0 0 7.15,15 1.06,1.06 0 0 0 7.58,14.09 1,1 0 0 0 7.33,13.39 2.26,2.26 0 0 0 6.51,12.8 Z m 5.16,1.58 A 2.33,2.33 0 0 0 12,13.12 2.27,2.27 0 0 0 11.75,12 1.7,1.7 0 0 0 11.06,11.26 1.88,1.88 0 0 0 10,11 2.1,2.1 0 0 0 9,11.29 1.87,1.87 0 0 0 8.27,12.06 2.49,2.49 0 0 0 8,13.2 a 2.28,2.28 0 0 0 0.24,1.05 1.86,1.86 0 0 0 0.68,0.74 2.07,2.07 0 0 0 1,0.29 l 0.85,1 H 12 l -1.19,-1.1 a 1.82,1.82 0 0 0 0.86,-0.8 z m -0.93,-0.25 a 0.93,0.93 0 0 1 -0.76,0.35 0.92,0.92 0 0 1 -0.75,-0.36 1.5,1.5 0 0 1 -0.28,-1 1.43,1.43 0 0 1 0.29,-1 0.93,0.93 0 0 1 0.77,-0.37 0.87,0.87 0 0 1 0.74,0.37 1.48,1.48 0 0 1 0.28,1 1.47,1.47 0 0 1 -0.29,1.01 z"
       id="path71535"
       inkscape:connector-curvature="0"
       style="fill:#f2f2f2" />
  </g>
  <metadata
     id="metadata71539">
    <rdf:RDF>
      <rdf:li>public:true</rdf:li>
      <rdf:li>sdk:false</rdf:li>
      <rdf:li>category: Databases, Other</rdf:li>
      <cc:Work
         rdf:about="">
        <dc:format>image/svg+xml</dc:format>
        <dc:type
           rdf:resource="http://purl.org/dc/dcmitype/StillImage" />
        <dc:title>Icon-databases-138</dc:title>
      </cc:Work>
    </rdf:RDF>
  </metadata>
</svg>
