<?xml version="1.0" encoding="UTF-8" standalone="no"?>
<svg
   width="18"
   height="16.92942"
   viewBox="0 0 18 16.92942"
   version="1.1"
   id="svg79206"
   sodipodi:docname="Mission_Landing_Zone.svg"
   inkscape:version="1.1 (c68e22c387, 2021-05-23)"
   xmlns:inkscape="http://www.inkscape.org/namespaces/inkscape"
   xmlns:sodipodi="http://sodipodi.sourceforge.net/DTD/sodipodi-0.dtd"
   xmlns="http://www.w3.org/2000/svg"
   xmlns:svg="http://www.w3.org/2000/svg">
  <sodipodi:namedview
     id="namedview79208"
     pagecolor="#ffffff"
     bordercolor="#666666"
     borderopacity="1.0"
     inkscape:pageshadow="2"
     inkscape:pageopacity="0.0"
     inkscape:pagecheckerboard="0"
     showgrid="false"
     fit-margin-top="0"
     fit-margin-left="0"
     fit-margin-right="0"
     fit-margin-bottom="0"
     inkscape:zoom="44.055556"
     inkscape:cx="9"
     inkscape:cy="8.4552333"
     inkscape:window-width="1920"
     inkscape:window-height="1017"
     inkscape:window-x="-8"
     inkscape:window-y="-8"
     inkscape:window-maximized="1"
     inkscape:current-layer="svg79206" />
  <defs
     id="defs79193">
    <linearGradient
       id="b19ea74f-b8c7-4b64-9a97-b6e9eebc071e"
       x1="-554.99902"
       y1="1012.218"
       x2="-554.99902"
       y2="1024.9771"
       gradientTransform="matrix(1,0,0,-1,564,1024.9773)"
       gradientUnits="userSpaceOnUse">
      <stop
         offset="0"
         stop-color="#0078d4"
         id="stop79182" />
      <stop
         offset="0.156"
         stop-color="#1380da"
         id="stop79184" />
      <stop
         offset="0.528"
         stop-color="#3c91e5"
         id="stop79186" />
      <stop
         offset="0.822"
         stop-color="#559cec"
         id="stop79188" />
      <stop
         offset="1"
         stop-color="#5ea0ef"
         id="stop79190" />
    </linearGradient>
  </defs>
  <path
     d="m 17.992,12.231294 c -0.105,0.675 -1.083,1.057 -1.639,1.26 -1.7,0.619 -14.109,0.429 -15.535,-0.394 -0.041,-0.023 -0.078,-0.047 -0.118,-0.071 l -0.064,-0.04 c -0.057,-0.038 -0.11,-0.076 -0.16,-0.115 A 1,1 0 0 1 0,12.116294 v 2.438 c 0,1.093 2.118,1.535 2.9,1.737 a 20.963,20.963 0 0 0 4,0.554 29.042,29.042 0 0 0 8.145,-0.529 c 0.889,-0.2 2.594,-0.575 2.927,-1.567 a 0.675,0.675 0 0 0 0.02,-0.1 c 0,-0.019 0,-0.037 0,-0.076 v -2.438 a 0.894,0.894 0 0 1 0,0.096 z"
     fill="#5e9624"
     id="path79195" />
  <ellipse
     cx="-12.116384"
     cy="9.0155859"
     rx="2.358"
     ry="8.9960003"
     transform="rotate(-89.936)"
     fill="#76bc2d"
     id="ellipse79197" />
  <path
     d="m 11.5,13.769294 c -4.087,0.3 -8.518,-0.188 -9.9,-1.1 -1.382,-0.912 0.814,-1.888 4.9,-2.191 4.086,-0.303 8.516,0.188 9.9,1.1 1.384,0.912 -0.816,1.888 -4.9,2.191 z"
     fill="#f2f2f2"
     id="path79199" />
  <path
     d="m 18,8.7612941 a 4.042,4.042 0 0 0 -3.51,-3.886 5.1,5.1 0 0 0 -5.248,-4.873 5.227,5.227 0 0 0 -5,3.407 4.823,4.823 0 0 0 -4.242,4.652 4.9,4.9 0 0 0 5.068,4.6999999 c 0.151,0 0.3,-0.007 0.446,-0.02 h 8.205 a 0.837,0.837 0 0 0 0.217,-0.032 A 4.091,4.091 0 0 0 18,8.7612941 Z"
     fill="url(#b19ea74f-b8c7-4b64-9a97-b6e9eebc071e)"
     id="path79201"
     style="fill:url(#b19ea74f-b8c7-4b64-9a97-b6e9eebc071e)" />
</svg>
