<?xml version="1.0" encoding="UTF-8" standalone="no"?>
<svg
   width="18.000813"
   height="17.884001"
   viewBox="0 0 18.000813 17.884001"
   version="1.1"
   id="svg79937"
   sodipodi:docname="Modular_Data_Center.svg"
   inkscape:version="1.1 (c68e22c387, 2021-05-23)"
   xmlns:inkscape="http://www.inkscape.org/namespaces/inkscape"
   xmlns:sodipodi="http://sodipodi.sourceforge.net/DTD/sodipodi-0.dtd"
   xmlns:xlink="http://www.w3.org/1999/xlink"
   xmlns="http://www.w3.org/2000/svg"
   xmlns:svg="http://www.w3.org/2000/svg"><sodipodi:namedview
   id="namedview79939"
   pagecolor="#ffffff"
   bordercolor="#666666"
   borderopacity="1.0"
   inkscape:pageshadow="2"
   inkscape:pageopacity="0.0"
   inkscape:pagecheckerboard="0"
   showgrid="false"
   fit-margin-top="0"
   fit-margin-left="0"
   fit-margin-right="0"
   fit-margin-bottom="0"
   inkscape:zoom="44.055556"
   inkscape:cx="9"
   inkscape:cy="8.9546028"
   inkscape:window-width="1920"
   inkscape:window-height="1017"
   inkscape:window-x="-8"
   inkscape:window-y="-8"
   inkscape:window-maximized="1"
   inkscape:current-layer="svg79937" />
<defs
   id="defs79918">
  <linearGradient
     id="f3c9c6cf-71c9-42ca-b4dd-00d026ddcdcb"
     x1="12.764"
     y1="-0.26899999"
     x2="12.764"
     y2="16.422001"
     gradientUnits="userSpaceOnUse">
    <stop
       offset="0"
       stop-color="#5ea0ef"
       id="stop79898" />
    <stop
       offset="0.2"
       stop-color="#328de2"
       id="stop79900" />
    <stop
       offset="0.4"
       stop-color="#0078d4"
       id="stop79902" />
    <stop
       offset="0.7"
       stop-color="#006abb"
       id="stop79904" />
    <stop
       offset="1"
       stop-color="#005ba1"
       id="stop79906" />
  </linearGradient>
  <linearGradient
     id="a375960d-7477-4345-8fc5-1463a0ab7dff"
     x1="9.3669996"
     y1="20.931999"
     x2="9.3669996"
     y2="9.3500004"
     gradientUnits="userSpaceOnUse">
    <stop
       offset="0"
       stop-color="#198ab3"
       id="stop79909" />
    <stop
       offset="0.4"
       stop-color="#29b8dc"
       id="stop79911" />
    <stop
       offset="0.7"
       stop-color="#38d5f6"
       id="stop79913" />
    <stop
       offset="1"
       stop-color="#9cebff"
       id="stop79915" />
  </linearGradient>
  <linearGradient
     inkscape:collect="always"
     xlink:href="#f3c9c6cf-71c9-42ca-b4dd-00d026ddcdcb"
     id="linearGradient80039"
     gradientUnits="userSpaceOnUse"
     x1="12.764"
     y1="-0.26899999"
     x2="12.764"
     y2="16.422001"
     gradientTransform="translate(8.1112509e-4,-0.05499915)" />
  <linearGradient
     inkscape:collect="always"
     xlink:href="#a375960d-7477-4345-8fc5-1463a0ab7dff"
     id="linearGradient80041"
     gradientUnits="userSpaceOnUse"
     x1="9.3669996"
     y1="20.931999"
     x2="9.3669996"
     y2="9.3500004"
     gradientTransform="translate(8.1112509e-4,-0.05499915)" />
  <linearGradient
     inkscape:collect="always"
     xlink:href="#f3c9c6cf-71c9-42ca-b4dd-00d026ddcdcb"
     id="linearGradient80043"
     gradientUnits="userSpaceOnUse"
     x1="12.764"
     y1="-0.26899999"
     x2="12.764"
     y2="16.422001"
     gradientTransform="translate(8.1112509e-4,-0.05499915)" />
  <linearGradient
     inkscape:collect="always"
     xlink:href="#a375960d-7477-4345-8fc5-1463a0ab7dff"
     id="linearGradient80045"
     gradientUnits="userSpaceOnUse"
     x1="9.3669996"
     y1="20.931999"
     x2="9.3669996"
     y2="9.3500004"
     gradientTransform="translate(8.1112509e-4,-0.05499915)" />
</defs>
<path
   d="M 17.407811,8.460249e-7 H 8.1328111 A 0.6,0.6 0 0 0 7.5328111,0.59300085 V 13.862001 h 0.179 a 1.75,1.75 0 0 1 1.574,-1.059 h 0.013 a 1.74,1.74 0 1 1 -0.789,3.3 1.723,1.723 0 0 1 -0.773,-0.746 h -0.2 v 0.737 a 0.6,0.6 0 0 0 0.6,0.593 h 9.2749999 a 0.592,0.592 0 0 0 0.589,-0.59 V 0.59300085 A 0.592,0.592 0 0 0 17.407811,8.460249e-7 Z"
   fill="url(#f3c9c6cf-71c9-42ca-b4dd-00d026ddcdcb)"
   id="path79920"
   style="fill:url(#linearGradient80039)" />
<path
   id="b19a0d7e-b21d-4954-a674-52d8fc27e153"
   d="m 8.9158111,1.8530008 h 1.7049999 a 0.148,0.148 0 0 1 0.148,0.148 v 0 2.2 a 0.148,0.148 0 0 1 -0.148,0.148 H 8.9208111 a 0.148,0.148 0 0 1 -0.148,-0.148 v 0 -2.2 a 0.148,0.148 0 0 1 0.148,-0.148 z m 2.9999999,0 h 1.705 a 0.148,0.148 0 0 1 0.148,0.148 v 0 2.2 a 0.148,0.148 0 0 1 -0.148,0.148 h -1.7 a 0.148,0.148 0 0 1 -0.148,-0.148 v 0 -2.2 a 0.148,0.148 0 0 1 0.148,-0.148 z m 3.007,0 h 1.7 a 0.148,0.148 0 0 1 0.148,0.148 v 0 2.2 a 0.148,0.148 0 0 1 -0.148,0.148 h -1.7 a 0.148,0.148 0 0 1 -0.148,-0.148 v 0 -2.2 a 0.148,0.148 0 0 1 0.148,-0.148 z m -5.9999999,3.981 h 1.6979999 a 0.148,0.148 0 0 1 0.148,0.148 v 0 2.223 a 0.149,0.149 0 0 1 -0.148,0.149 H 8.9208111 a 0.149,0.149 0 0 1 -0.148,-0.149 v 0 -2.2 a 0.149,0.149 0 0 1 0.126,-0.168 z m 2.9999999,0 h 1.705 a 0.148,0.148 0 0 1 0.148,0.148 v 0 2.223 a 0.149,0.149 0 0 1 -0.148,0.149 h -1.7 a 0.149,0.149 0 0 1 -0.148,-0.149 v 0 -2.2 a 0.148,0.148 0 0 1 0.125,-0.168 z m 3.007,0 h 1.7 a 0.148,0.148 0 0 1 0.148,0.148 v 0 2.223 a 0.149,0.149 0 0 1 -0.148,0.149 h -1.7 a 0.149,0.149 0 0 1 -0.148,-0.149 v 0 -2.2 a 0.148,0.148 0 0 1 0.119,-0.17 z m -5.9999999,3.469 h 1.6909999 a 0.148,0.148 0 0 1 0.148,0.148 v 0 2.2240002 a 0.148,0.148 0 0 1 -0.148,0.148 H 8.9208111 a 0.148,0.148 0 0 1 -0.148,-0.148 v 0 -2.2000002 a 0.148,0.148 0 0 1 0.126,-0.167 z m 2.9999999,0 h 1.705 a 0.148,0.148 0 0 1 0.148,0.148 v 0 2.2240002 a 0.148,0.148 0 0 1 -0.148,0.148 h -1.7 a 0.148,0.148 0 0 1 -0.148,-0.148 v 0 -2.2000002 a 0.146,0.146 0 0 1 0.125,-0.167 z m 3.007,0 h 1.7 a 0.148,0.148 0 0 1 0.148,0.148 v 0 2.2240002 a 0.148,0.148 0 0 1 -0.148,0.148 h -1.7 a 0.148,0.148 0 0 1 -0.148,-0.148 v 0 -2.2000002 a 0.146,0.146 0 0 1 0.112,-0.17 z"
   fill="#f2f2f2"
   opacity="0.4" />
<path
   d="M 15.181811,10.945001 H 3.5538111 a 0.587,0.587 0 0 0 -0.588,0.587 v 2.327 h 4.742 a 1.75,1.75 0 0 1 1.574,-1.059 h 0.013 a 1.74,1.74 0 1 1 -0.789,3.3 1.723,1.723 0 0 1 -0.773,-0.746 h -4.767 v 1.943 a 0.587,0.587 0 0 0 0.588,0.587 H 15.181811 a 0.588,0.588 0 0 0 0.588,-0.587 v -5.762 a 0.588,0.588 0 0 0 -0.588,-0.59 z"
   fill="url(#a375960d-7477-4345-8fc5-1463a0ab7dff)"
   id="path79923"
   style="fill:url(#linearGradient80041)" />
<rect
   x="12.070811"
   y="11.837001"
   width="1.8660001"
   height="5.1659999"
   rx="0.23800001"
   fill="#ffffff"
   opacity="0.8"
   id="rect79925" />
<path
   d="m 6.6008111,13.862001 v -1.787 a 0.238,0.238 0 0 0 -0.238,-0.238 h -1.389 a 0.237,0.237 0 0 0 -0.238,0.238 v 1.787 z"
   fill="#ffffff"
   opacity="0.8"
   id="path79927" />
<path
   d="m 4.7358111,15.360001 v 1.405 a 0.237,0.237 0 0 0 0.238,0.237 h 1.39 a 0.238,0.238 0 0 0 0.237,-0.237 v -1.405 z"
   fill="#ffffff"
   opacity="0.8"
   id="path79929" />
<path
   d="m 9.2818111,12.803001 h 0.013 a 1.742,1.742 0 0 1 0.9749999,0.323 v -1.051 a 0.238,0.238 0 0 0 -0.238,-0.238 H 8.6408111 a 0.238,0.238 0 0 0 -0.238,0.238 v 0.995 a 1.745,1.745 0 0 1 0.879,-0.267 z"
   fill="#ffffff"
   opacity="0.8"
   id="path79931" />
<path
   d="m 9.8338111,16.187001 a 1.736,1.736 0 0 1 -1.328,-0.081 c -0.039,-0.019 -0.066,-0.034 -0.1,-0.055 v 0.714 a 0.238,0.238 0 0 0 0.238,0.237 h 1.3909999 a 0.238,0.238 0 0 0 0.238,-0.237 v -0.811 a 1.753,1.753 0 0 1 -0.4389999,0.233 z"
   fill="#ffffff"
   opacity="0.8"
   id="path79933" />
<path
   d="m 10.571811,14.156001 a 1.352,1.352 0 0 0 -2.6159999,0.095 h -4.773 a 2.318,2.318 0 0 1 -0.5,-0.063 2.4,2.4 0 0 1 0.265,-4.7520002 h 0.233 l 0.074,-0.212 a 2.716,2.716 0 0 1 2.61,-1.814 2.792,2.792 0 0 1 1.656,0.527 v -0.876 a 3.5,3.5 0 0 0 -1.624,-0.4 3.478,3.478 0 0 0 -3.276,2.064 3.12,3.12 0 0 0 -0.244,6.1100002 2.129,2.129 0 0 0 0.774,0.127 h 4.805 a 1.369,1.369 0 0 0 2.6159999,-0.806 z"
   fill="#32bedd"
   id="path79935" />
​
<path
   d="M 17.407811,8.460249e-7 H 8.1328111 A 0.6,0.6 0 0 0 7.5328111,0.59300085 V 13.862001 h 0.179 a 1.75,1.75 0 0 1 1.574,-1.059 h 0.013 a 1.74,1.74 0 1 1 -0.789,3.3 1.723,1.723 0 0 1 -0.773,-0.746 h -0.2 v 0.737 a 0.6,0.6 0 0 0 0.6,0.593 h 9.2749999 a 0.592,0.592 0 0 0 0.589,-0.59 V 0.59300085 A 0.592,0.592 0 0 0 17.407811,8.460249e-7 Z"
   fill="url(#f3c9c6cf-71c9-42ca-b4dd-00d026ddcdcb)"
   id="path80021"
   style="fill:url(#linearGradient80043)" />
<path
   id="path80023"
   d="m 8.9158111,1.8530008 h 1.7049999 a 0.148,0.148 0 0 1 0.148,0.148 v 0 2.2 a 0.148,0.148 0 0 1 -0.148,0.148 H 8.9208111 a 0.148,0.148 0 0 1 -0.148,-0.148 v 0 -2.2 a 0.148,0.148 0 0 1 0.148,-0.148 z m 2.9999999,0 h 1.705 a 0.148,0.148 0 0 1 0.148,0.148 v 0 2.2 a 0.148,0.148 0 0 1 -0.148,0.148 h -1.7 a 0.148,0.148 0 0 1 -0.148,-0.148 v 0 -2.2 a 0.148,0.148 0 0 1 0.148,-0.148 z m 3.007,0 h 1.7 a 0.148,0.148 0 0 1 0.148,0.148 v 0 2.2 a 0.148,0.148 0 0 1 -0.148,0.148 h -1.7 a 0.148,0.148 0 0 1 -0.148,-0.148 v 0 -2.2 a 0.148,0.148 0 0 1 0.148,-0.148 z m -5.9999999,3.981 h 1.6979999 a 0.148,0.148 0 0 1 0.148,0.148 v 0 2.223 a 0.149,0.149 0 0 1 -0.148,0.149 H 8.9208111 a 0.149,0.149 0 0 1 -0.148,-0.149 v 0 -2.2 a 0.149,0.149 0 0 1 0.126,-0.168 z m 2.9999999,0 h 1.705 a 0.148,0.148 0 0 1 0.148,0.148 v 0 2.223 a 0.149,0.149 0 0 1 -0.148,0.149 h -1.7 a 0.149,0.149 0 0 1 -0.148,-0.149 v 0 -2.2 a 0.148,0.148 0 0 1 0.125,-0.168 z m 3.007,0 h 1.7 a 0.148,0.148 0 0 1 0.148,0.148 v 0 2.223 a 0.149,0.149 0 0 1 -0.148,0.149 h -1.7 a 0.149,0.149 0 0 1 -0.148,-0.149 v 0 -2.2 a 0.148,0.148 0 0 1 0.119,-0.17 z m -5.9999999,3.469 h 1.6909999 a 0.148,0.148 0 0 1 0.148,0.148 v 0 2.2240002 a 0.148,0.148 0 0 1 -0.148,0.148 H 8.9208111 a 0.148,0.148 0 0 1 -0.148,-0.148 v 0 -2.2000002 a 0.148,0.148 0 0 1 0.126,-0.167 z m 2.9999999,0 h 1.705 a 0.148,0.148 0 0 1 0.148,0.148 v 0 2.2240002 a 0.148,0.148 0 0 1 -0.148,0.148 h -1.7 a 0.148,0.148 0 0 1 -0.148,-0.148 v 0 -2.2000002 a 0.146,0.146 0 0 1 0.125,-0.167 z m 3.007,0 h 1.7 a 0.148,0.148 0 0 1 0.148,0.148 v 0 2.2240002 a 0.148,0.148 0 0 1 -0.148,0.148 h -1.7 a 0.148,0.148 0 0 1 -0.148,-0.148 v 0 -2.2000002 a 0.146,0.146 0 0 1 0.112,-0.17 z"
   fill="#f2f2f2"
   opacity="0.4" />
<path
   d="M 15.181811,10.945001 H 3.5538111 a 0.587,0.587 0 0 0 -0.588,0.587 v 2.327 h 4.742 a 1.75,1.75 0 0 1 1.574,-1.059 h 0.013 a 1.74,1.74 0 1 1 -0.789,3.3 1.723,1.723 0 0 1 -0.773,-0.746 h -4.767 v 1.943 a 0.587,0.587 0 0 0 0.588,0.587 H 15.181811 a 0.588,0.588 0 0 0 0.588,-0.587 v -5.762 a 0.588,0.588 0 0 0 -0.588,-0.59 z"
   fill="url(#a375960d-7477-4345-8fc5-1463a0ab7dff)"
   id="path80025"
   style="fill:url(#linearGradient80045)" />
<rect
   x="12.070811"
   y="11.837001"
   width="1.8660001"
   height="5.1659999"
   rx="0.23800001"
   fill="#ffffff"
   opacity="0.8"
   id="rect80027" />
<path
   d="m 6.6008111,13.862001 v -1.787 a 0.238,0.238 0 0 0 -0.238,-0.238 h -1.389 a 0.237,0.237 0 0 0 -0.238,0.238 v 1.787 z"
   fill="#ffffff"
   opacity="0.8"
   id="path80029" />
<path
   d="m 4.7358111,15.360001 v 1.405 a 0.237,0.237 0 0 0 0.238,0.237 h 1.39 a 0.238,0.238 0 0 0 0.237,-0.237 v -1.405 z"
   fill="#ffffff"
   opacity="0.8"
   id="path80031" />
<path
   d="m 9.2818111,12.803001 h 0.013 a 1.742,1.742 0 0 1 0.9749999,0.323 v -1.051 a 0.238,0.238 0 0 0 -0.238,-0.238 H 8.6408111 a 0.238,0.238 0 0 0 -0.238,0.238 v 0.995 a 1.745,1.745 0 0 1 0.879,-0.267 z"
   fill="#ffffff"
   opacity="0.8"
   id="path80033" />
<path
   d="m 9.8338111,16.187001 a 1.736,1.736 0 0 1 -1.328,-0.081 c -0.039,-0.019 -0.066,-0.034 -0.1,-0.055 v 0.714 a 0.238,0.238 0 0 0 0.238,0.237 h 1.3909999 a 0.238,0.238 0 0 0 0.238,-0.237 v -0.811 a 1.753,1.753 0 0 1 -0.4389999,0.233 z"
   fill="#ffffff"
   opacity="0.8"
   id="path80035" />
<path
   d="m 10.571811,14.156001 a 1.352,1.352 0 0 0 -2.6159999,0.095 h -4.773 a 2.318,2.318 0 0 1 -0.5,-0.063 2.4,2.4 0 0 1 0.265,-4.7520002 h 0.233 l 0.074,-0.212 a 2.716,2.716 0 0 1 2.61,-1.814 2.792,2.792 0 0 1 1.656,0.527 v -0.876 a 3.5,3.5 0 0 0 -1.624,-0.4 3.478,3.478 0 0 0 -3.276,2.064 3.12,3.12 0 0 0 -0.244,6.1100002 2.129,2.129 0 0 0 0.774,0.127 h 4.805 a 1.369,1.369 0 0 0 2.6159999,-0.806 z"
   fill="#32bedd"
   id="path80037" />
</svg>
