<?xml version="1.0" encoding="UTF-8" standalone="no"?>
<svg
   width="18"
   height="12.760398"
   viewBox="0 0 18 12.760398"
   version="1.1"
   id="svg80673"
   sodipodi:docname="Private_Mobile_Network.svg"
   inkscape:version="1.1 (c68e22c387, 2021-05-23)"
   xmlns:inkscape="http://www.inkscape.org/namespaces/inkscape"
   xmlns:sodipodi="http://sodipodi.sourceforge.net/DTD/sodipodi-0.dtd"
   xmlns:xlink="http://www.w3.org/1999/xlink"
   xmlns="http://www.w3.org/2000/svg"
   xmlns:svg="http://www.w3.org/2000/svg">
  <sodipodi:namedview
     id="namedview80675"
     pagecolor="#ffffff"
     bordercolor="#666666"
     borderopacity="1.0"
     inkscape:pageshadow="2"
     inkscape:pageopacity="0.0"
     inkscape:pagecheckerboard="0"
     showgrid="false"
     fit-margin-top="0"
     fit-margin-left="0"
     fit-margin-right="0"
     fit-margin-bottom="0"
     inkscape:zoom="44.055556"
     inkscape:cx="9"
     inkscape:cy="6.3896595"
     inkscape:window-width="1920"
     inkscape:window-height="1017"
     inkscape:window-x="-8"
     inkscape:window-y="-8"
     inkscape:window-maximized="1"
     inkscape:current-layer="svg80673" />
  <defs
     id="defs80650">
    <linearGradient
       id="edebaf98-f979-4154-9101-76108988ba81"
       x1="307"
       y1="388.13501"
       x2="307"
       y2="400.896"
       gradientTransform="matrix(1,0,0,-1,-298,403.516)"
       gradientUnits="userSpaceOnUse">
      <stop
         offset="0"
         stop-color="#005ba1"
         id="stop80634" />
      <stop
         offset="0.202"
         stop-color="#0068b7"
         id="stop80636" />
      <stop
         offset="0.422"
         stop-color="#0071c7"
         id="stop80638" />
      <stop
         offset="0.67"
         stop-color="#0076d1"
         id="stop80640" />
      <stop
         offset="1"
         stop-color="#0078d4"
         id="stop80642" />
    </linearGradient>
    <linearGradient
       id="a4ea4d5c-fb5f-4d73-bef9-3e109b021cd3"
       x1="4.7379999"
       y1="15.38"
       x2="4.7379999"
       y2="6.013"
       gradientUnits="userSpaceOnUse">
      <stop
         offset="0"
         stop-color="#32bedd"
         id="stop80645" />
      <stop
         offset="1"
         stop-color="#50e6ff"
         id="stop80647" />
    </linearGradient>
    <linearGradient
       inkscape:collect="always"
       xlink:href="#edebaf98-f979-4154-9101-76108988ba81"
       id="linearGradient80794"
       gradientUnits="userSpaceOnUse"
       gradientTransform="matrix(1,0,0,-1,-298,400.89632)"
       x1="307"
       y1="388.13501"
       x2="307"
       y2="400.896" />
    <linearGradient
       inkscape:collect="always"
       xlink:href="#a4ea4d5c-fb5f-4d73-bef9-3e109b021cd3"
       id="linearGradient80796"
       gradientUnits="userSpaceOnUse"
       x1="4.7379999"
       y1="15.38"
       x2="4.7379999"
       y2="6.013"
       gradientTransform="translate(0,-2.6196824)" />
    <linearGradient
       inkscape:collect="always"
       xlink:href="#edebaf98-f979-4154-9101-76108988ba81"
       id="linearGradient80798"
       gradientUnits="userSpaceOnUse"
       gradientTransform="matrix(1,0,0,-1,-298,400.89632)"
       x1="307"
       y1="388.13501"
       x2="307"
       y2="400.896" />
    <linearGradient
       inkscape:collect="always"
       xlink:href="#a4ea4d5c-fb5f-4d73-bef9-3e109b021cd3"
       id="linearGradient80800"
       gradientUnits="userSpaceOnUse"
       x1="4.7379999"
       y1="15.38"
       x2="4.7379999"
       y2="6.013"
       gradientTransform="translate(0,-2.6196824)" />
  </defs>
  <path
     d="M 13.943,12.705318 A 4.091,4.091 0 0 0 18,8.7623176 4.042,4.042 0 0 0 14.489,4.8803176 5.1,5.1 0 0 0 9.24,0.00231759 5.229,5.229 0 0 0 4.24,3.4093176 4.827,4.827 0 0 0 0,8.0513176 4.9,4.9 0 0 0 5.07,12.757318"
     fill="url(#edebaf98-f979-4154-9101-76108988ba81)"
     id="path80652"
     style="fill:url(#linearGradient80794)" />
  <path
     d="m 9.473,12.760318 v -4.7750004 0 a 4.745,4.745 0 0 0 -4.828,-4.592 4.779,4.779 0 0 0 -4.645,4.775 4.886,4.886 0 0 0 4.738,4.5920004 z"
     fill="url(#a4ea4d5c-fb5f-4d73-bef9-3e109b021cd3)"
     id="path80654"
     style="fill:url(#linearGradient80796)" />
  <path
     d="m 4.394,5.3693176 a 6.786,6.786 0 0 1 7.918,-3.2 0.069,0.069 0 0 1 0.029,0.112 l -1.5,1.652 a 0.064,0.064 0 0 1 -0.07,0.017 c -2.508,-0.823 -4.621,-0.412 -6.258,1.5 a 0.072,0.072 0 0 1 -0.119,-0.081 z"
     fill="#86d633"
     id="path80656" />
  <path
     d="m 9.373,5.6683176 1.027,-1.131 a 0.055,0.055 0 0 0 -0.02,-0.087 4.694,4.694 0 0 0 -5.8,1.617 0.058,0.058 0 0 0 0.085,0.077 c 1.36,-1.217 2.94,-1.17 4.648,-0.465 a 0.052,0.052 0 0 0 0.06,-0.011 z"
     fill="#86d633"
     id="path80658" />
  <path
     d="m 8.374,6.8753176 0.612,-0.67 a 0.077,0.077 0 0 0 -0.023,-0.118 3.565,3.565 0 0 0 -4.4,0.869 0.07695616,0.07695616 0 0 0 0.1,0.117 3.38,3.38 0 0 1 3.59,-0.176 0.1,0.1 0 0 0 0.121,-0.022 z"
     fill="#86d633"
     id="path80660" />
  <path
     d="m 12.719,2.1223176 a 0.442,0.442 0 0 0 -0.289,-0.31 6.587,6.587 0 0 0 -2.093,-0.339 7.3,7.3 0 0 0 -6.265,3.707 0.441,0.441 0 0 0 -0.006,0.449 0.446,0.446 0 0 0 0.232,0.194 l -0.016,0.019 a 0.428,0.428 0 0 0 -0.043,0.452 0.439,0.439 0 0 0 0.265,0.222 c -0.028,0.029 -0.057,0.054 -0.084,0.084 a 0.451,0.451 0 0 0 0.587,0.678 2.328,2.328 0 0 1 1.508,-0.433 3.731,3.731 0 0 1 1.576,0.393 0.479,0.479 0 0 0 0.56,-0.108 l 0.021,-0.024 0.591,-0.647 a 0.453,0.453 0 0 0 0.109,-0.383 l -0.006,-0.021 a 0.42,0.42 0 0 0 0.284,-0.135 l 0.323,-0.354 0.708,-0.776 a 0.422,0.422 0 0 0 0.071,-0.468 c 0.013,0 0.026,0.006 0.039,0.006 a 0.437,0.437 0 0 0 0.325,-0.144 l 0.639,-0.7 0.864,-0.949 a 0.444,0.444 0 0 0 0.1,-0.413 z m -3.733,4.083 -0.612,0.67 a 0.1,0.1 0 0 1 -0.076,0.033 0.12,0.12 0 0 1 -0.048,-0.011 4.07,4.07 0 0 0 -1.735,-0.429 3.206,3.206 0 0 0 -1.855,0.605 0.075,0.075 0 0 1 -0.044,0.015 0.078,0.078 0 0 1 -0.053,-0.132 3.7,3.7 0 0 1 2.737,-1.284 3.672,3.672 0 0 1 1.667,0.415 0.077,0.077 0 0 1 0.019,0.118 z m 1.414,-1.668 -1.027,1.131 a 0.049,0.049 0 0 1 -0.037,0.016 0.063,0.063 0 0 1 -0.022,-0.004 5.813,5.813 0 0 0 -2.194,-0.5 3.562,3.562 0 0 0 -2.454,0.962 0.059,0.059 0 0 1 -0.038,0.015 0.058,0.058 0 0 1 -0.047,-0.092 4.8,4.8 0 0 1 3.85,-2.036 4.878,4.878 0 0 1 1.952,0.419 0.055,0.055 0 0 1 0.017,0.089 z m 1.941,-2.257 -1.5,1.652 a 0.064,0.064 0 0 1 -0.048,0.021 0.057,0.057 0 0 1 -0.022,0 7.4,7.4 0 0 0 -2.3,-0.4 5.021,5.021 0 0 0 -3.96,1.9 0.072,0.072 0 0 1 -0.117,-0.083 6.969,6.969 0 0 1 5.943,-3.521 6.22,6.22 0 0 1 1.975,0.32 0.069,0.069 0 0 1 0.029,0.111 z"
     fill="#ffffff"
     id="path80662" />
  <path
     d="M 2.1,10.619318 V 9.9853176 a 1.437,1.437 0 0 0 0.751,0.2110004 0.717,0.717 0 0 0 0.469,-0.139 0.467,0.467 0 0 0 0.169,-0.3800004 q 0,-0.5 -0.722,-0.5 a 5.379,5.379 0 0 0 -0.614,0.04 l 0.13,-1.88 H 4.1 v 0.606 H 2.862 l -0.048,0.675 c 0.123,-0.01 0.229,-0.015 0.319,-0.015 a 1.188,1.188 0 0 1 0.83,0.273 0.945,0.945 0 0 1 0.3,0.733 1.072,1.072 0 0 1 -0.357,0.8330004 1.392,1.392 0 0 1 -0.969,0.323 2.117,2.117 0 0 1 -0.837,-0.146 z"
     fill="#ffffff"
     id="path80664" />
  <path
     d="m 7.493,10.480318 a 2.523,2.523 0 0 1 -1.252,0.284 1.833,1.833 0 0 1 -1.308,-0.45 1.619,1.619 0 0 1 -0.479,-1.2340004 1.711,1.711 0 0 1 0.523,-1.3 1.929,1.929 0 0 1 1.391,-0.5 2.872,2.872 0 0 1 0.964,0.148 v 0.712 a 1.941,1.941 0 0 0 -0.974,-0.226 1.054,1.054 0 0 0 -0.785,0.307 1.113,1.113 0 0 0 -0.3,0.818 1.114,1.114 0 0 0 0.273,0.8 0.97,0.97 0 0 0 0.735,0.2840004 1.054,1.054 0 0 0 0.441,-0.077 V 9.3883176 H 6.03 v -0.606 h 1.463 z"
     fill="#ffffff"
     id="path80666" />
  <path
     d="M 13.943,12.705318 A 4.091,4.091 0 0 0 18,8.7623176 4.042,4.042 0 0 0 14.489,4.8803176 5.1,5.1 0 0 0 9.24,0.00231759 5.229,5.229 0 0 0 4.24,3.4093176 4.827,4.827 0 0 0 0,8.0513176 4.9,4.9 0 0 0 5.07,12.757318"
     fill="url(#edebaf98-f979-4154-9101-76108988ba81)"
     id="path80778"
     style="fill:url(#linearGradient80798)" />
  <path
     d="m 9.473,12.760318 v -4.7750004 0 a 4.745,4.745 0 0 0 -4.828,-4.592 4.779,4.779 0 0 0 -4.645,4.775 4.886,4.886 0 0 0 4.738,4.5920004 z"
     fill="url(#a4ea4d5c-fb5f-4d73-bef9-3e109b021cd3)"
     id="path80780"
     style="fill:url(#linearGradient80800)" />
  <path
     d="m 4.394,5.3693176 a 6.786,6.786 0 0 1 7.918,-3.2 0.069,0.069 0 0 1 0.029,0.112 l -1.5,1.652 a 0.064,0.064 0 0 1 -0.07,0.017 c -2.508,-0.823 -4.621,-0.412 -6.258,1.5 a 0.072,0.072 0 0 1 -0.119,-0.081 z"
     fill="#86d633"
     id="path80782" />
  <path
     d="m 9.373,5.6683176 1.027,-1.131 a 0.055,0.055 0 0 0 -0.02,-0.087 4.694,4.694 0 0 0 -5.8,1.617 0.058,0.058 0 0 0 0.085,0.077 c 1.36,-1.217 2.94,-1.17 4.648,-0.465 a 0.052,0.052 0 0 0 0.06,-0.011 z"
     fill="#86d633"
     id="path80784" />
  <path
     d="m 8.374,6.8753176 0.612,-0.67 a 0.077,0.077 0 0 0 -0.023,-0.118 3.565,3.565 0 0 0 -4.4,0.869 0.07695616,0.07695616 0 0 0 0.1,0.117 3.38,3.38 0 0 1 3.59,-0.176 0.1,0.1 0 0 0 0.121,-0.022 z"
     fill="#86d633"
     id="path80786" />
  <path
     d="m 12.719,2.1223176 a 0.442,0.442 0 0 0 -0.289,-0.31 6.587,6.587 0 0 0 -2.093,-0.339 7.3,7.3 0 0 0 -6.265,3.707 0.441,0.441 0 0 0 -0.006,0.449 0.446,0.446 0 0 0 0.232,0.194 l -0.016,0.019 a 0.428,0.428 0 0 0 -0.043,0.452 0.439,0.439 0 0 0 0.265,0.222 c -0.028,0.029 -0.057,0.054 -0.084,0.084 a 0.451,0.451 0 0 0 0.587,0.678 2.328,2.328 0 0 1 1.508,-0.433 3.731,3.731 0 0 1 1.576,0.393 0.479,0.479 0 0 0 0.56,-0.108 l 0.021,-0.024 0.591,-0.647 a 0.453,0.453 0 0 0 0.109,-0.383 l -0.006,-0.021 a 0.42,0.42 0 0 0 0.284,-0.135 l 0.323,-0.354 0.708,-0.776 a 0.422,0.422 0 0 0 0.071,-0.468 c 0.013,0 0.026,0.006 0.039,0.006 a 0.437,0.437 0 0 0 0.325,-0.144 l 0.639,-0.7 0.864,-0.949 a 0.444,0.444 0 0 0 0.1,-0.413 z m -3.733,4.083 -0.612,0.67 a 0.1,0.1 0 0 1 -0.076,0.033 0.12,0.12 0 0 1 -0.048,-0.011 4.07,4.07 0 0 0 -1.735,-0.429 3.206,3.206 0 0 0 -1.855,0.605 0.075,0.075 0 0 1 -0.044,0.015 0.078,0.078 0 0 1 -0.053,-0.132 3.7,3.7 0 0 1 2.737,-1.284 3.672,3.672 0 0 1 1.667,0.415 0.077,0.077 0 0 1 0.019,0.118 z m 1.414,-1.668 -1.027,1.131 a 0.049,0.049 0 0 1 -0.037,0.016 0.063,0.063 0 0 1 -0.022,-0.004 5.813,5.813 0 0 0 -2.194,-0.5 3.562,3.562 0 0 0 -2.454,0.962 0.059,0.059 0 0 1 -0.038,0.015 0.058,0.058 0 0 1 -0.047,-0.092 4.8,4.8 0 0 1 3.85,-2.036 4.878,4.878 0 0 1 1.952,0.419 0.055,0.055 0 0 1 0.017,0.089 z m 1.941,-2.257 -1.5,1.652 a 0.064,0.064 0 0 1 -0.048,0.021 0.057,0.057 0 0 1 -0.022,0 7.4,7.4 0 0 0 -2.3,-0.4 5.021,5.021 0 0 0 -3.96,1.9 0.072,0.072 0 0 1 -0.117,-0.083 6.969,6.969 0 0 1 5.943,-3.521 6.22,6.22 0 0 1 1.975,0.32 0.069,0.069 0 0 1 0.029,0.111 z"
     fill="#ffffff"
     id="path80788" />
  <path
     d="M 2.1,10.619318 V 9.9853176 a 1.437,1.437 0 0 0 0.751,0.2110004 0.717,0.717 0 0 0 0.469,-0.139 0.467,0.467 0 0 0 0.169,-0.3800004 q 0,-0.5 -0.722,-0.5 a 5.379,5.379 0 0 0 -0.614,0.04 l 0.13,-1.88 H 4.1 v 0.606 H 2.862 l -0.048,0.675 c 0.123,-0.01 0.229,-0.015 0.319,-0.015 a 1.188,1.188 0 0 1 0.83,0.273 0.945,0.945 0 0 1 0.3,0.733 1.072,1.072 0 0 1 -0.357,0.8330004 1.392,1.392 0 0 1 -0.969,0.323 2.117,2.117 0 0 1 -0.837,-0.146 z"
     fill="#ffffff"
     id="path80790" />
  <path
     d="m 7.493,10.480318 a 2.523,2.523 0 0 1 -1.252,0.284 1.833,1.833 0 0 1 -1.308,-0.45 1.619,1.619 0 0 1 -0.479,-1.2340004 1.711,1.711 0 0 1 0.523,-1.3 1.929,1.929 0 0 1 1.391,-0.5 2.872,2.872 0 0 1 0.964,0.148 v 0.712 a 1.941,1.941 0 0 0 -0.974,-0.226 1.054,1.054 0 0 0 -0.785,0.307 1.113,1.113 0 0 0 -0.3,0.818 1.114,1.114 0 0 0 0.273,0.8 0.97,0.97 0 0 0 0.735,0.2840004 1.054,1.054 0 0 0 0.441,-0.077 V 9.3883176 H 6.03 v -0.606 h 1.463 z"
     fill="#ffffff"
     id="path80792" />
</svg>
