<?xml version="1.0" encoding="UTF-8" standalone="no"?>
<svg
   id="b88b3828-ef78-412f-8d84-c8abf44d0075"
   width="17.694214"
   height="17.694214"
   viewBox="0 0 17.694214 17.694214"
   version="1.1"
   sodipodi:docname="RTOS.svg"
   inkscape:version="1.1 (c68e22c387, 2021-05-23)"
   xmlns:inkscape="http://www.inkscape.org/namespaces/inkscape"
   xmlns:sodipodi="http://sodipodi.sourceforge.net/DTD/sodipodi-0.dtd"
   xmlns="http://www.w3.org/2000/svg"
   xmlns:svg="http://www.w3.org/2000/svg">
  <sodipodi:namedview
     id="namedview81565"
     pagecolor="#ffffff"
     bordercolor="#666666"
     borderopacity="1.0"
     inkscape:pageshadow="2"
     inkscape:pageopacity="0.0"
     inkscape:pagecheckerboard="0"
     showgrid="false"
     fit-margin-top="0"
     fit-margin-left="0"
     fit-margin-right="0"
     fit-margin-bottom="0"
     inkscape:zoom="44.055556"
     inkscape:cx="8.8411097"
     inkscape:cy="8.8411097"
     inkscape:window-width="1920"
     inkscape:window-height="1017"
     inkscape:window-x="-8"
     inkscape:window-y="-8"
     inkscape:window-maximized="1"
     inkscape:current-layer="b88b3828-ef78-412f-8d84-c8abf44d0075" />
  <defs
     id="defs81550">
    <linearGradient
       id="aa17ea79-e1b1-4771-8623-8089fc66d31f"
       x1="9.2519999"
       y1="14.005"
       x2="9.2519999"
       y2="-0.028000001"
       gradientTransform="translate(-0.15289303,1.847107)"
       gradientUnits="userSpaceOnUse">
      <stop
         offset="0"
         stop-color="#b3b4b4"
         id="stop81531" />
      <stop
         offset="0.33"
         stop-color="#b3b4b4"
         id="stop81533" />
      <stop
         offset="0.82"
         stop-color="#cccccb"
         id="stop81535" />
      <stop
         offset="1"
         stop-color="#cccccb"
         id="stop81537" />
    </linearGradient>
    <linearGradient
       id="e4e801cf-1833-4cda-9534-289a2affc042"
       x1="10.558"
       y1="15.244"
       x2="10.439"
       y2="17.218"
       gradientUnits="userSpaceOnUse"
       gradientTransform="translate(-0.15289303,-0.15289303)">
      <stop
         offset="0.317"
         stop-color="#33bedd"
         id="stop81540" />
      <stop
         offset="1"
         stop-color="#74cfeb"
         id="stop81542" />
    </linearGradient>
    <linearGradient
       id="f4710473-a20d-4433-b34a-8d485da6bbc6"
       x1="9"
       y1="14.113"
       x2="9"
       y2="3.938"
       gradientUnits="userSpaceOnUse"
       gradientTransform="translate(-0.15289303,-0.15289303)">
      <stop
         offset="0"
         stop-color="#616261"
         id="stop81545" />
      <stop
         offset="1"
         stop-color="#b6b8ba"
         id="stop81547" />
    </linearGradient>
  </defs>
  <path
     d="m 11.014107,17.565107 -10.07900003,-4.535 a 1.52,1.52 0 0 1 -0.806,-2.016 L 4.664107,0.93510697 a 1.52,1.52 0 0 1 2.016,-0.806 l 10.079,4.53500003 a 1.52,1.52 0 0 1 0.806,2.016 l -4.535,10.079 a 1.52,1.52 0 0 1 -2.016,0.806 z"
     fill="#74cfeb"
     id="path81552" />
  <path
     d="m 15.747107,4.967107 -2.717,-2.72 a 1.294,1.294 0 0 0 -1.008,-0.4 h -8.567 a 1.378,1.378 0 0 0 -1.408,1.406 v 11.188 a 1.378,1.378 0 0 0 1.411,1.411 h 11.289 a 1.378,1.378 0 0 0 1.411,-1.411 v -8.466 a 1.54,1.54 0 0 0 -0.4,-1.008 z"
     fill="url(#aa17ea79-e1b1-4771-8623-8089fc66d31f)"
     id="path81554"
     style="fill:url(#aa17ea79-e1b1-4771-8623-8089fc66d31f)" />
  <path
     d="m 7.296107,15.852107 3.7,1.652 c 1.166,0.681 2.139,-0.777 2.43,-1.652"
     fill="url(#e4e801cf-1833-4cda-9534-289a2affc042)"
     id="path81556"
     style="fill:url(#e4e801cf-1833-4cda-9534-289a2affc042)" />
  <path
     d="m 13.934107,9.422107 v -1.16 l -0.162,-0.061 -1.242,-0.407 -0.325,-0.794 0.63,-1.343 -0.814,-0.81 -0.162,0.081 -1.16,0.591 -0.794,-0.326 -0.509,-1.4 h -1.159 l -0.062,0.154 -0.407,1.242 -0.793,0.326 -1.323,-0.631 -0.814,0.814 0.082,0.163 0.59,1.159 -0.326,0.794 -1.424,0.509 v 1.16 l 0.162,0.061 1.242,0.407 0.325,0.793 -0.63,1.343 0.814,0.814 0.162,-0.081 1.16,-0.59 0.794,0.325 0.509,1.4 h 1.159 l 0.062,-0.163 0.407,-1.242 0.793,-0.325 1.343,0.631 0.814,-0.814 -0.081,-0.163 -0.59,-1.16 0.325,-0.794 z"
     fill="url(#f4710473-a20d-4433-b34a-8d485da6bbc6)"
     id="path81558"
     style="fill:url(#f4710473-a20d-4433-b34a-8d485da6bbc6)" />
  <path
     d="m 9.499107,6.139107 a 0.1,0.1 0 0 0 -0.052,-0.013 0.139,0.139 0 0 0 -0.094,0.053 l -2.306,3.355 a 0.129,0.129 0 0 0 -0.013,0.121 0.137,0.137 0 0 0 0.107,0.067 h 1.378 l -0.617,2.025 a 0.1,0.1 0 0 0 0.054,0.135 0.081,0.081 0 0 0 0.053,0.013 0.133,0.133 0 0 0 0.094,-0.048 l 2.376,-3.4 c 0.013,-0.027 0.026,-0.04 0.026,-0.067 a 0.12,0.12 0 0 0 -0.12,-0.121 h -1.423 l 0.591,-1.986 a 0.1,0.1 0 0 0 -0.054,-0.134 z"
     fill="#ffffff"
     id="path81560" />
</svg>
