<?xml version="1.0" encoding="UTF-8" standalone="no"?>
<svg
   width="18.000225"
   height="18.025099"
   viewBox="0 0 18.000225 18.025099"
   version="1.1"
   id="svg81877"
   sodipodi:docname="Savings_Plan.svg"
   inkscape:version="1.1 (c68e22c387, 2021-05-23)"
   xmlns:inkscape="http://www.inkscape.org/namespaces/inkscape"
   xmlns:sodipodi="http://sodipodi.sourceforge.net/DTD/sodipodi-0.dtd"
   xmlns="http://www.w3.org/2000/svg"
   xmlns:svg="http://www.w3.org/2000/svg">
  <sodipodi:namedview
     id="namedview81879"
     pagecolor="#ffffff"
     bordercolor="#666666"
     borderopacity="1.0"
     inkscape:pageshadow="2"
     inkscape:pageopacity="0.0"
     inkscape:pagecheckerboard="0"
     showgrid="false"
     fit-margin-top="0"
     fit-margin-left="0"
     fit-margin-right="0"
     fit-margin-bottom="0"
     inkscape:zoom="44.055556"
     inkscape:cx="9"
     inkscape:cy="9"
     inkscape:window-width="1920"
     inkscape:window-height="1017"
     inkscape:window-x="-8"
     inkscape:window-y="-8"
     inkscape:window-maximized="1"
     inkscape:current-layer="svg81877" />
  <defs
     id="defs81856">
    <linearGradient
       id="bce84c29-5f3f-4d0f-81eb-915e2f9fac02"
       x1="8.3879995"
       y1="1.268"
       x2="8.3879995"
       y2="15.439"
       gradientUnits="userSpaceOnUse"
       gradientTransform="translate(1.3192585e-4,0.01100691)">
      <stop
         offset="0.163"
         stop-color="#f2f2f2"
         id="stop81846" />
      <stop
         offset="1"
         stop-color="#e6e6e6"
         id="stop81848" />
    </linearGradient>
    <linearGradient
       id="a87e99b9-afee-450b-958c-022d5e7fd0e2"
       x1="13.511"
       y1="8.9700003"
       x2="13.511"
       y2="17.914"
       gradientUnits="userSpaceOnUse"
       gradientTransform="translate(1.3192585e-4,0.01100691)">
      <stop
         offset="0"
         stop-color="#86d633"
         id="stop81851" />
      <stop
         offset="0.999"
         stop-color="#76bc2d"
         id="stop81853" />
    </linearGradient>
  </defs>
  <path
     d="m 15.580132,8.4190069 c 0,0.216 -0.012,0.434 -0.031,0.646 -3.949,-1.97 -8.4650001,2.5780001 -6.4940001,6.5270001 -5.149,0.619 -9.36499997,-5.017 -7.348,-9.7810001 a 7.121,7.121 0 0 1 1.4,-2.247 c 0.676,1.292 0.86,-0.864 1.363,-1.175 5.038,-3.11799999 11.2930001,0.465 11.1100001,6.03 z"
     fill="url(#bce84c29-5f3f-4d0f-81eb-915e2f9fac02)"
     id="path81858"
     style="fill:url(#bce84c29-5f3f-4d0f-81eb-915e2f9fac02)" />
  <path
     d="m 8.4001319,1.2380069 h -0.028 a 7.136,7.136 0 0 0 -3.9,1.15 l -0.567,-1.088 A 8.353,8.353 0 0 1 8.3911319,6.9124042e-6 0.6,0.6 0 0 0 7.7961319,0.60000691 v 0.016 a 0.625,0.625 0 0 0 0.604,0.62199999 z m -0.543,1.514 v 5.412 a 0.514,0.514 0 0 0 0.514,0.514 h 0.1 a 0.515,0.515 0 0 0 0.515,-0.514 v -5.412 a 0.515,0.515 0 0 0 -0.515,-0.514 h -0.1 a 0.514,0.514 0 0 0 -0.514,0.514 z m 1.407,5.8 a 0.514,0.514 0 0 0 -0.727,0 l -0.071,0.069 a 0.517,0.517 0 0 0 0,0.728 l 1.17,1.1690001 A 4.925,4.925 0 0 1 10.428132,9.7180069 Z"
     fill="#7a7a7a"
     id="path81860" />
  <circle
     cx="8.3711319"
     cy="8.4110069"
     r="1.187"
     fill="#4f4f4f"
     id="circle81862" />
  <path
     d="m 9.0551319,15.592007 c 0.086,0.364 0.824,0.963 0.213,1.166 -7.494,0.853 -12.443,-8.4470001 -6.893,-14.2050001 -0.149,-0.248 -0.87,-0.887 -0.254,-1.043 l 2.4,-0.283 c 0.67,0.016 0.028,0.879 -0.053,1.162 -0.1,0.236 -0.5,1.089 -0.655,1.452 -0.27,0.418 -0.553,-0.023 -0.708,-0.277 -0.131,0.142 -0.255,0.291 -0.374,0.441 l -0.004,0.006 c -0.045,0.06 -0.09,0.119 -0.133,0.179 l -0.012,0.021 a 6.9,6.9 0 0 0 -0.871,1.595 v 0.007 c -2.05499997,4.9070001 2.259,10.2830001 7.344,9.7790001 z M 12.084132,0.85600691 a 0.185,0.185 0 0 0 -0.065,-0.031 8.3,8.3 0 0 0 -3.6270001,-0.822 0.619,0.619 0 0 0 0,1.23599999 h 0.133 a 7.188,7.188 0 0 1 7.0150001,7.82 v 0 c 1.144,0.644 1.261,0.8 1.26,-0.662 a 8.409,8.409 0 0 0 -4.716,-7.54099999 z"
     fill="#76bc2d"
     id="path81864" />
  <path
     d="m 16.594132,10.267007 a 4.575,4.575 0 0 0 -1.1,-0.7610001 c -0.019,-0.011 -0.042,-0.023 -0.065,-0.034 a 4.492,4.492 0 0 0 -5.9860001,5.9700001 0.748,0.748 0 0 0 0.039,0.081 4.473,4.473 0 0 0 0.7410001,1.071 c 0,0.008 0.012,0.012 0.019,0.02 a 4.49,4.49 0 1 0 6.347,-6.347 z"
     fill="url(#a87e99b9-afee-450b-958c-022d5e7fd0e2)"
     id="path81868"
     style="fill:url(#a87e99b9-afee-450b-958c-022d5e7fd0e2)" />
  <path
     d="m 14.734132,13.958007 a 1.4,1.4 0 0 0 -0.726,-0.692 4.175,4.175 0 0 1 -0.69,-0.341 0.361,0.361 0 0 1 -0.162,-0.487 0.338,0.338 0 0 1 0.13,-0.119 1.31,1.31 0 0 1 1.168,0.042 1.578,1.578 0 0 1 0.211,0.119 v -0.8 a 2.846,2.846 0 0 0 -1.536,-0.085 1.222,1.222 0 0 0 -0.792,0.523 0.145,0.145 0 0 1 -0.019,0.034 1.053,1.053 0 0 0 -0.123,0.515 1.013,1.013 0 0 0 0.219,0.653 1.768,1.768 0 0 0 0.669,0.457 c 0.325,0.15 0.991,0.334 0.787,0.8 a 0.326,0.326 0 0 1 -0.119,0.123 0.982,0.982 0 0 1 -0.492,0.1 1.64,1.64 0 0 1 -0.987,-0.338 0.813,0.813 0 0 1 -0.069,-0.054 v 0.857 a 1.823,1.823 0 0 0 0.507,0.169 c 0.077,0.011 0.15,0.023 0.246,0.031 0.625,0.05 1.5,0.007 1.787,-0.663 a 1.039,1.039 0 0 0 -0.009,-0.844 z m -1.294,1.8 a 0.386,0.386 0 1 0 0.384,0.388 0.387,0.387 0 0 0 -0.384,-0.385 z m 0.019,-5.233 v 0 a 0.387,0.387 0 1 0 0.384,0.384 v 0 a 0.379,0.379 0 0 0 -0.384,-0.381 z"
     fill="#ffffff"
     id="path81870" />
</svg>
