<?xml version="1.0" encoding="UTF-8" standalone="no"?>
<svg
   width="16.563993"
   height="18.000978"
   viewBox="0 0 16.563993 18.000978"
   version="1.1"
   id="svg82179"
   sodipodi:docname="Sonic_Dash.svg"
   inkscape:version="1.1 (c68e22c387, 2021-05-23)"
   xmlns:inkscape="http://www.inkscape.org/namespaces/inkscape"
   xmlns:sodipodi="http://sodipodi.sourceforge.net/DTD/sodipodi-0.dtd"
   xmlns="http://www.w3.org/2000/svg"
   xmlns:svg="http://www.w3.org/2000/svg">
  <sodipodi:namedview
     id="namedview82181"
     pagecolor="#ffffff"
     bordercolor="#666666"
     borderopacity="1.0"
     inkscape:pageshadow="2"
     inkscape:pageopacity="0.0"
     inkscape:pagecheckerboard="0"
     showgrid="false"
     fit-margin-top="0"
     fit-margin-left="0"
     fit-margin-right="0"
     fit-margin-bottom="0"
     inkscape:zoom="44.055556"
     inkscape:cx="8.2736444"
     inkscape:cy="9"
     inkscape:window-width="1920"
     inkscape:window-height="1017"
     inkscape:window-x="-8"
     inkscape:window-y="-8"
     inkscape:window-maximized="1"
     inkscape:current-layer="svg82179" />
  <defs
     id="defs82152">
    <linearGradient
       id="ef87fcf1-80a8-4017-8aaf-e37f828c17d2"
       x1="2.9349999"
       y1="10.418"
       x2="12.643"
       y2="10.418"
       gradientUnits="userSpaceOnUse"
       gradientTransform="translate(-0.71700591,6.842487e-4)">
      <stop
         offset="0"
         stop-color="#50e6ff"
         id="stop82142" />
      <stop
         offset="1"
         stop-color="#32bedd"
         id="stop82144" />
    </linearGradient>
    <linearGradient
       id="b6e8c397-1df9-4a37-b232-5186d1c03b98"
       x1="9.1339998"
       y1="9.7589998"
       x2="15.163"
       y2="9.7589998"
       gradientUnits="userSpaceOnUse"
       gradientTransform="translate(-0.71700591,6.842487e-4)">
      <stop
         offset="0"
         stop-color="#005ba1"
         id="stop82147" />
      <stop
         offset="1"
         stop-color="#003067"
         id="stop82149" />
    </linearGradient>
  </defs>
  <path
     d="m 16.346994,12.255684 -7.4999999,4.363 a 1.252,1.252 0 0 1 -1.073,0 l -7.53000001,-4.361 a 0.32,0.32 0 0 1 0,-0.611 L 7.7299941,7.2846842 a 1.174,1.174 0 0 1 1.073,0 l 7.5319999,4.3599998 c 0.3,0.173 0.3,0.45 0.012,0.611 z"
     fill="#e6e6e6"
     id="path82154" />
  <path
     d="m 7.9029941,16.676684 c -0.2,-0.081 -7.47400001,-4.326 -7.65900001,-4.418 a 0.363,0.363 0 0 1 -0.219,-0.312 l -0.023,1.254 c -0.035,0.23 0.4,0.415 0.577,0.519 2.35300001,1.349 4.92500001,2.872 7.29000001,4.2 h 0.014 a 0.69,0.69 0 0 0 0.139,0.047 c 0.046,0.011 0.08,0.011 0.127,0.023 h 0.011 c 0.035,0 0.069,0.011 0.1,0.011 h 0.035 v -1.255 a 1.494,1.494 0 0 1 -0.392,-0.069 z"
     fill="#b3b3b3"
     id="path82156" />
  <path
     d="m 16.542994,12.027684 v 0.012 l -0.035,0.069 a 0.4,0.4 0 0 1 -0.161,0.15 l -7.4999999,4.362 a 1.289,1.289 0 0 1 -0.369,0.116 0.685,0.685 0 0 1 -0.15,0.011 h -0.032 v 1.253 a 0.586,0.586 0 0 0 0.138,-0.012 1.007,1.007 0 0 0 0.249,-0.058 0.5,0.5 0 0 0 0.138,-0.057 l 5.4789999,-3.184 0.5,-0.288 1.523,-0.889 a 0.614,0.614 0 0 0 0.092,-0.069 c 0.023,-0.011 0.035,-0.034 0.058,-0.057 v -0.012 h 0.01 v -0.011 c 0.023,-0.012 0.023,-0.035 0.035,-0.058 v -0.012 l 0.011,-0.011 c 0,-0.023 0.012,-0.046 0.012,-0.069 l 0.023,-1.253 a 0.172,0.172 0 0 1 -0.021,0.067 z"
     fill="#999999"
     id="path82158" />
  <path
     d="m 11.925994,10.778684 v 0.01 a 0.266,0.266 0 0 1 -0.03,0.12 c -0.01,0.01 -0.02,0.03 -0.04,0.04 -0.02,0.01 -0.01,0.02 -0.02,0.02 -0.01,0 -0.02,0.02 -0.03,0.02 l -3.3689999,1.95 c 0,0 -6.154,-3.5489998 -6.219,-3.5889998 a 0.2,0.2 0 0 1 0.09,-0.09 l 2.339,-1.359 0.81,0.47 -1.29,0.74 a 0.245,0.245 0 0 0 0,0.43 c 0.75,0.44 4.07,2.3589998 4.25,2.4589998 a 0.275,0.275 0 0 0 0.25,0 l 2.4389999,-1.41 a 0.22,0.22 0 0 0 0.12,-0.2 V 8.4596842 c 0.05,-0.03 0.69,-0.4 0.69,-0.4 z"
     fill="url(#ef87fcf1-80a8-4017-8aaf-e37f828c17d2)"
     id="path82160"
     style="fill:url(#ef87fcf1-80a8-4017-8aaf-e37f828c17d2)" />
  <path
     d="m 7.9599941,9.8126842 c -0.346,0.1999998 -1.325,0.7649998 -1.662,0.9599998 -0.735,-0.423 -1.642,-0.9489998 -2.358,-1.3609998 a 0.1,0.1 0 0 1 0,-0.17 l 1.514,-0.874 z"
     fill="#005ba1"
     id="path82162" />
  <path
     d="M 9.2369941,0.57068425 V 3.1706842 a 0.251,0.251 0 0 1 -0.12,0.22 l -2.47,1.419 -0.37,0.21 c -0.83,-0.47 -1.66,-0.96 -2.32,-1.34 l -0.18,-0.1 0.17,-0.1 0.01,-0.009 5.24,-3.01999995 a 0.159,0.159 0 0 1 0.04,0.12 z"
     fill="#005ba1"
     id="path82164" />
  <path
     d="m 14.355994,3.7596842 c -0.06,0.03 -0.16,0.09 -0.29,0.17 -1.7,0.97 -3.589,2.082 -5.2999999,3.06 a 2.032,2.032 0 0 1 -0.22,0.13 c -0.06,0.03 -0.11,0.06 -0.13,0.07 a 0.746,0.746 0 0 1 -0.12,-0.07 l -6.098,-3.519 a 0.267,0.267 0 0 1 0.09,-0.09 c 0.043,-0.03 5.989,-3.45999995 6.019,-3.47999995 0.01,-0.01 0.02,-0.01 0.04,-0.01 a 0.149,0.149 0 0 1 0.09,-0.0200000013 0.309,0.309 0 0 1 0.08,0.0200000013 0.06,0.06 0 0 1 0.04,0.01 l 0.55,0.33 a 0.2,0.2 0 0 1 0.09,0.09 l -5.24,3.01999995 -0.01,0.009 a 0.117,0.117 0 0 0 0.01,0.2 c 0.66,0.38 1.49,0.87 2.32,1.34 0.12,0.07 0.25,0.15 0.38,0.22 0.45,0.26 0.89,0.52 1.28,0.74 0.19,0.11 0.37,0.21 0.54,0.31 a 0.091,0.091 0 0 0 0.1,0 l 0.45,-0.26 4.5789999,-2.639 a 0.25,0.25 0 0 1 0.24,0 l 0.45,0.259 a 0.236,0.236 0 0 1 0.09,0.08 q -0.003,0.015 -0.03,0.03 z"
     fill="#50e6ff"
     id="path82166" />
  <path
     d="m 14.445994,12.218684 a 0.244,0.244 0 0 1 -0.12,0.21 l -5.5589999,3.21 -0.2,0.12 a 0.308,0.308 0 0 1 -0.13,0.03 v -2.85 l 3.3689999,-1.95 c 0.01,0 0.02,-0.01 0.03,-0.02 0.01,-0.01 0.01,-0.01 0.02,-0.02 0.01,-0.01 0.03,-0.03 0.04,-0.04 a 0.266,0.266 0 0 0 0.03,-0.12 v -0.01 l -0.01,-2.5489998 a 0.093,0.093 0 0 0 -0.14,-0.08 c -0.17,0.09 -0.49,0.28 -0.86,0.5 l -0.06,0.03 c -0.84,0.48 -1.8689999,1.08 -2.3889999,1.3699998 -0.01,0.01 -0.02,0.01 -0.04,0.01 h -0.01 V 7.1496842 a 0.277,0.277 0 0 0 0.13,-0.03 2.032,2.032 0 0 0 0.22,-0.13 c 1.7069999,-0.968 3.5999999,-2.094 5.2999999,-3.06 0.13,-0.08 0.23,-0.14 0.29,-0.17 l 0.03,-0.03 a 0.157,0.157 0 0 1 0.03,0.1 c -0.001,0.471 0.029,7.8709998 0.029,8.3889998 z"
     fill="url(#b6e8c397-1df9-4a37-b232-5186d1c03b98)"
     id="path82168"
     style="fill:url(#b6e8c397-1df9-4a37-b232-5186d1c03b98)" />
  <path
     d="m 2.2179941,9.3496842 a 0.213,0.213 0 0 0 -0.03,0.12 c 0,0.52 -0.01,2.2999998 -0.01,2.6789998 a 0.11,0.11 0 0 0 0.06,0.1 l 6.079,3.51 a 0.266,0.266 0 0 0 0.12,0.03 v -2.85 c 0,0 -6.136,-3.5379998 -6.219,-3.5889998 z"
     fill="#0078d4"
     id="path82170" />
  <path
     d="m 8.4269941,10.059684 h -0.01 a 0.076,0.076 0 0 1 -0.04,-0.01 c 0,0 -5.849,-3.3799998 -6.089,-3.5199998 a 0.245,0.245 0 0 1 -0.13,-0.21 c 0,-0.49 0.01,-2.11 0.01,-2.6 a 0.238,0.238 0 0 1 0.03,-0.12 l 6.1,3.52 a 0.266,0.266 0 0 0 0.12,0.03 v 0.04 z"
     fill="#0078d4"
     id="path82172" />
</svg>
