<?xml version="1.0" encoding="UTF-8" standalone="no"?>
<svg
   width="17.995024"
   height="18"
   viewBox="0 0 17.995024 18"
   version="1.1"
   id="svg82498"
   sodipodi:docname="Storage_Tasks.svg"
   inkscape:version="1.1 (c68e22c387, 2021-05-23)"
   xmlns:inkscape="http://www.inkscape.org/namespaces/inkscape"
   xmlns:sodipodi="http://sodipodi.sourceforge.net/DTD/sodipodi-0.dtd"
   xmlns="http://www.w3.org/2000/svg"
   xmlns:svg="http://www.w3.org/2000/svg">
  <sodipodi:namedview
     id="namedview82500"
     pagecolor="#ffffff"
     bordercolor="#666666"
     borderopacity="1.0"
     inkscape:pageshadow="2"
     inkscape:pageopacity="0.0"
     inkscape:pagecheckerboard="0"
     showgrid="false"
     fit-margin-top="0"
     fit-margin-left="0"
     fit-margin-right="0"
     fit-margin-bottom="0"
     inkscape:zoom="44.055556"
     inkscape:cx="9"
     inkscape:cy="9"
     inkscape:window-width="1920"
     inkscape:window-height="1017"
     inkscape:window-x="-8"
     inkscape:window-y="-8"
     inkscape:window-maximized="1"
     inkscape:current-layer="svg82498" />
  <defs
     id="defs82485">
    <linearGradient
       id="a849a14b-05f7-4f2b-a39b-e6e661c86e4e"
       x1="13.498"
       y1="8.6879997"
       x2="13.498"
       y2="18.040001"
       gradientUnits="userSpaceOnUse"
       gradientTransform="translate(-0.005)">
      <stop
         offset="0"
         stop-color="#a67af4"
         id="stop82480" />
      <stop
         offset="0.999"
         stop-color="#773adc"
         id="stop82482" />
    </linearGradient>
  </defs>
  <path
     d="m 10.376,9.7 a 4.89,4.89 0 0 0 -1.8,3.629 v 0.007 c -0.207,0.005 -0.415,0.006 -0.625,0.006 -4.311,0 -7.819,-0.81 -7.927,-1.817 a 0.4,0.4 0 0 1 0,-0.048 0.716,0.716 0 0 1 0.331,-0.536 C 1.331,10.172 4.363,9.61 7.955,9.61 8.795,9.611 9.612,9.642 10.376,9.7 Z M 0,6.681 c 0,1.03 3.55,1.865 7.929,1.865 4.379,0 7.929,-0.835 7.929,-1.865 0,-1.03 -3.55,-1.866 -7.929,-1.866 C 3.55,4.815 0,5.65 0,6.681 Z M 0,1.866 c 0,1.03 3.55,1.865 7.929,1.865 4.379,0 7.929,-0.835 7.929,-1.865 C 15.858,0.836 12.308,0 7.929,0 3.55,0 0,0.835 0,1.866 Z"
     fill="#83b9f9"
     id="path82487" />
  <path
     d="M 9.734,16.671 A 0.236,0.236 0 0 1 9.565,17.059 H 9.56 c -0.206,0.01 -0.412,0.015 -0.623,0.023 Q 8.451,17.096 7.952,17.096 C 3.574,17.1 0.025,16.262 0.025,15.229 v -3.757 a 0.412,0.412 0 0 0 0.01,0.092 v 0 c 0.205,0.966 3.543,1.739 7.678,1.768 0.08,0 0.159,0 0.239,0 0.08,0 0.165,0 0.248,0 l 0.377,-0.005 v 0.007 c 0,0.055 0,0.11 0,0.166 a 4.893,4.893 0 0 0 1.157,3.171 z M 15.857,6.658 v 0 C 15.808,7.68 12.277,8.5 7.93,8.5 3.583,8.5 0.084,7.692 0.008,6.673 V 10.4 a 0.725,0.725 0 0 0 0.345,0.544 v 0 c 0.99,0.764 4.01,1.32 7.583,1.32 0.27,0 0.535,0 0.8,-0.01 A 4.92,4.92 0 0 1 10.376,9.7 v 0 A 4.906,4.906 0 0 1 15.518,9.019 0.237,0.237 0 0 0 15.857,8.805 Z M 7.929,3.689 C 3.595,3.689 0.084,2.877 0.008,1.858 v 0 3.724 c 0,1.031 3.549,1.866 7.929,1.866 4.287,0 7.776,-0.8 7.921,-1.8 v 0 V 5.5 5.5 1.823 C 15.856,2.854 12.307,3.689 7.929,3.689 Z"
     fill="#0078d4"
     id="path82489" />
  <path
     d="m 17.995,13.5 a 4.5,4.5 0 0 1 -9,0 c 0,-0.059 0,-0.118 0,-0.176 V 13.32 a 4.378,4.378 0 0 1 0.176,-1.081 4.5,4.5 0 0 1 8.824,1.261 z"
     fill="url(#a849a14b-05f7-4f2b-a39b-e6e661c86e4e)"
     id="path82491"
     style="fill:url(#a849a14b-05f7-4f2b-a39b-e6e661c86e4e)" />
  <path
     d="m 14.478,14.522 c 0.02,0.084 0.037,0.165 0.057,0.246 0.051,0.2 0.1,0.4 0.159,0.6 a 0.288,0.288 0 0 0 0.209,0.22 0.3,0.3 0 0 0 0.254,-0.075 1.59,1.59 0 0 0 0.388,-0.4 c 0.036,-0.053 0.066,-0.11 0.1,-0.167 l -0.092,-0.044 a 1.145,1.145 0 0 1 -0.11,0.164 1.629,1.629 0 0 1 -0.22,0.2 c -0.057,0.044 -0.105,0.025 -0.139,-0.037 A 0.6,0.6 0 0 1 15.03,15.088 q -0.123,-0.5 -0.242,-1.008 L 14.736,13.863 C 14.712,13.776 14.69,13.701 14.67,13.626 a 1.162,1.162 0 0 0 -0.268,-0.53 0.072,0.072 0 0 0 -0.073,-0.023 c -0.2,0.038 -0.406,0.072 -0.608,0.109 -0.079,0.014 -0.079,0.016 -0.065,0.105 h 0.046 a 1.776,1.776 0 0 1 0.179,0 0.4,0.4 0 0 1 0.374,0.337 c 0.063,0.209 0.114,0.424 0.166,0.636 z"
     fill="#e6e6e6"
     id="path82493" />
  <path
     d="m 14.489,14.522 c -0.119,0.185 -0.226,0.369 -0.348,0.543 a 3.96,3.96 0 0 1 -0.319,0.378 0.5,0.5 0 0 1 -0.282,0.149 0.271,0.271 0 0 1 -0.309,-0.17 0.205,0.205 0 0 1 0.064,-0.222 0.191,0.191 0 0 1 0.234,-0.022 c 0.042,0.027 0.084,0.056 0.123,0.087 0.056,0.044 0.087,0.05 0.139,0 a 1.342,1.342 0 0 0 0.204,-0.233 c 0.147,-0.221 0.284,-0.448 0.422,-0.674 l 0.327,-0.5 0.067,-0.1 a 2.474,2.474 0 0 1 0.329,-0.44 0.927,0.927 0 0 1 0.351,-0.242 0.292,0.292 0 0 1 0.3,0.055 0.212,0.212 0 0 1 0.046,0.238 0.175,0.175 0 0 1 -0.169,0.109 0.374,0.374 0 0 1 -0.169,-0.027 0.282,0.282 0 0 0 -0.37,0.1 c -0.117,0.151 -0.223,0.31 -0.331,0.467 z m -0.131,-3.346 a 0.285,0.285 0 0 1 -0.091,0.212 0.311,0.311 0 0 1 -0.219,0.083 1.886,1.886 0 0 1 -0.342,-0.053 0.783,0.783 0 0 0 -0.153,-0.021 c -0.059,0 -0.118,0.046 -0.177,0.136 a 1.512,1.512 0 0 0 -0.187,0.484 l -0.083,0.351 h 0.632 l -0.035,0.156 -0.038,0.169 -0.023,0.1 h -0.647 l -0.348,1.432 a 2.24,2.24 0 0 1 -0.594,1.115 1.33,1.33 0 0 1 -0.919,0.391 0.49,0.49 0 0 1 -0.3,-0.085 0.3,0.3 0 0 1 -0.131,-0.246 0.271,0.271 0 0 1 0.1,-0.218 0.362,0.362 0 0 1 0.233,-0.075 c 0.055,0 0.11,0.006 0.164,0.013 a 2.59,2.59 0 0 0 0.3,0.021 0.352,0.352 0 0 0 0.252,-0.072 1.216,1.216 0 0 0 0.182,-0.486 l 0.445,-1.79 h -0.571 l 0.04,-0.158 0.043,-0.17 0.025,-0.1 h 0.57 a 2.936,2.936 0 0 1 0.314,-0.828 1.473,1.473 0 0 1 0.517,-0.5 1.228,1.228 0 0 1 0.614,-0.185 0.466,0.466 0 0 1 0.3,0.084 0.294,0.294 0 0 1 0.127,0.24 z m -3.451,4.366 a 0.307,0.307 0 0 0 0.112,0.047 0.278,0.278 0 0 1 -0.11,-0.048 0.216,0.216 0 0 1 -0.059,-0.065 0.216,0.216 0 0 0 0.059,0.065 z"
     fill="#ffffff"
     id="path82495" />
</svg>
