<?xml version="1.0" encoding="UTF-8" standalone="no"?>
<svg
   width="18.000002"
   height="17.889"
   viewBox="0 0 18.000002 17.889"
   version="1.1"
   id="svg85277"
   sodipodi:docname="Update_Center.svg"
   inkscape:version="1.1 (c68e22c387, 2021-05-23)"
   xmlns:inkscape="http://www.inkscape.org/namespaces/inkscape"
   xmlns:sodipodi="http://sodipodi.sourceforge.net/DTD/sodipodi-0.dtd"
   xmlns="http://www.w3.org/2000/svg"
   xmlns:svg="http://www.w3.org/2000/svg">
  <sodipodi:namedview
     id="namedview85279"
     pagecolor="#ffffff"
     bordercolor="#666666"
     borderopacity="1.0"
     inkscape:pageshadow="2"
     inkscape:pageopacity="0.0"
     inkscape:pagecheckerboard="0"
     showgrid="false"
     fit-margin-top="0"
     fit-margin-left="0"
     fit-margin-right="0"
     fit-margin-bottom="0"
     inkscape:zoom="44.055556"
     inkscape:cx="9"
     inkscape:cy="8.9546028"
     inkscape:window-width="1920"
     inkscape:window-height="1017"
     inkscape:window-x="-8"
     inkscape:window-y="-8"
     inkscape:window-maximized="1"
     inkscape:current-layer="svg85277" />
  <defs
     id="defs85256">
    <linearGradient
       id="a3e739ae-cb17-4b89-95d8-31ac90290d58"
       x1="9"
       y1="-0.052000001"
       x2="9"
       y2="17.947001"
       gradientUnits="userSpaceOnUse"
       gradientTransform="translate(1.6295655e-6,-0.053)">
      <stop
         offset="0.219"
         stop-color="#0078d4"
         id="stop85226" />
      <stop
         offset="1"
         stop-color="#005ba1"
         id="stop85228" />
    </linearGradient>
    <linearGradient
       id="bc6bb556-6442-4211-ba5d-93a2c6e42561"
       x1="9.0129995"
       y1="4.4250002"
       x2="9.0129995"
       y2="13.575"
       gradientUnits="userSpaceOnUse"
       gradientTransform="translate(1.6295655e-6,-0.053)">
      <stop
         offset="0.191"
         stop-color="#005ba1"
         id="stop85231" />
      <stop
         offset="1"
         stop-color="#003067"
         id="stop85233" />
    </linearGradient>
    <linearGradient
       id="a5b82a41-94a6-4cb6-9b6d-96e201e4f28b"
       x1="6.033"
       y1="4.6599998"
       x2="12.241"
       y2="4.6599998"
       gradientUnits="userSpaceOnUse"
       gradientTransform="translate(1.6295655e-6,-0.053)">
      <stop
         offset="0.314"
         stop-color="#9cebff"
         id="stop85236" />
      <stop
         offset="1"
         stop-color="#50e6ff"
         id="stop85238" />
    </linearGradient>
    <linearGradient
       id="adf8b433-0d4b-44dc-9066-35193fbbfb85"
       x1="8.6330004"
       y1="8.3280001"
       x2="14.824"
       y2="8.3280001"
       gradientUnits="userSpaceOnUse"
       gradientTransform="translate(1.6295655e-6,-0.053)">
      <stop
         offset="0.357"
         stop-color="#50e6ff"
         id="stop85241" />
      <stop
         offset="1"
         stop-color="#32bedd"
         id="stop85243" />
    </linearGradient>
    <linearGradient
       id="e01e6017-d158-463b-ab8a-471754e6302c"
       x1="5.119"
       y1="13.34"
       x2="11.689"
       y2="13.34"
       gradientUnits="userSpaceOnUse"
       gradientTransform="translate(1.6295655e-6,-0.053)">
      <stop
         offset="0.314"
         stop-color="#9cebff"
         id="stop85246" />
      <stop
         offset="1"
         stop-color="#50e6ff"
         id="stop85248" />
    </linearGradient>
    <linearGradient
       id="b3c94a3b-6e49-4382-bec6-90a5495464b5"
       x1="6.164"
       y1="5.9860001"
       x2="6.164"
       y2="13.06"
       gradientUnits="userSpaceOnUse"
       gradientTransform="translate(1.6295655e-6,-0.053)">
      <stop
         offset="0.357"
         stop-color="#50e6ff"
         id="stop85251" />
      <stop
         offset="1"
         stop-color="#32bedd"
         id="stop85253" />
    </linearGradient>
  </defs>
  <path
     d="M 18.000002,9.564 V 8.347 a 0.562,0.562 0 0 0 -0.385,-0.534 l -2.029,-0.676 a 0.284,0.284 0 0 1 -0.173,-0.166 l -0.437,-1.136 a 0.285,0.285 0 0 1 0.011,-0.227 l 0.927,-1.861 a 0.562,0.562 0 0 0 -0.106,-0.648 l -0.908,-0.906 a 0.561,0.561 0 0 0 -0.649,-0.106 l -1.858,0.927 a 0.278,0.278 0 0 1 -0.226,0.01 l -1.141,-0.439 a 0.277,0.277 0 0 1 -0.162,-0.163 l -0.774,-2.057 A 0.563,0.563 0 0 0 9.5640016,0 h -1.22 a 0.564,0.564 0 0 0 -0.532,0.378 l -0.677,1.945 a 0.28,0.28 0 0 1 -0.148,0.163 l -1.145,0.527 a 0.283,0.283 0 0 1 -0.243,0 l -1.846,-0.926 a 0.563,0.563 0 0 0 -0.649,0.1 l -0.91,0.909 a 0.565,0.565 0 0 0 -0.106,0.65 l 0.929,1.861 a 0.285,0.285 0 0 1 0.011,0.227 l -0.44,1.142 a 0.282,0.282 0 0 1 -0.164,0.162 L 0.36500163,7.91 A 0.561,0.561 0 0 0 1.6295655e-6,8.437 V 9.653 A 0.561,0.561 0 0 0 0.38500163,10.186 l 2.03199997,0.678 a 0.282,0.282 0 0 1 0.173,0.166 l 0.438,1.137 a 0.285,0.285 0 0 1 -0.011,0.227 l -0.929,1.853 a 0.564,0.564 0 0 0 0.1,0.65 l 0.911,0.911 a 0.561,0.561 0 0 0 0.649,0.1 l 1.855,-0.928 a 0.277,0.277 0 0 1 0.227,-0.011 l 1.145,0.439 a 0.283,0.283 0 0 1 0.161,0.161 l 0.767,1.962 a 0.562,0.562 0 0 0 0.524,0.358 h 1.228 a 0.563,0.563 0 0 0 0.5340004,-0.385 l 0.677,-2.029 a 0.283,0.283 0 0 1 0.166,-0.174 l 1.135,-0.436 a 0.278,0.278 0 0 1 0.226,0.01 l 1.858,0.926 a 0.563,0.563 0 0 0 0.649,-0.106 l 0.9,-0.9 a 0.562,0.562 0 0 0 0.1,-0.658 l -0.913,-1.745 a 0.282,0.282 0 0 1 -0.013,-0.231 l 0.438,-1.14 a 0.283,0.283 0 0 1 0.164,-0.163 l 2.056,-0.77 a 0.562,0.562 0 0 0 0.368,-0.524 z M 9.0130016,13.522 A 4.575,4.575 0 1 1 13.587002,8.947 4.576,4.576 0 0 1 9.0130016,13.522 Z"
     fill="url(#a3e739ae-cb17-4b89-95d8-31ac90290d58)"
     id="path85258"
     style="fill:url(#a3e739ae-cb17-4b89-95d8-31ac90290d58)" />
  <circle
     cx="9.0130014"
     cy="8.9469995"
     r="4.5749998"
     fill="url(#bc6bb556-6442-4211-ba5d-93a2c6e42561)"
     id="circle85260"
     style="fill:url(#bc6bb556-6442-4211-ba5d-93a2c6e42561)" />
  <path
     d="m 12.773002,5.287 c -0.073,-0.039 -0.147,-0.076 -0.223,-0.112 a 4.661,4.661 0 0 0 -3.9170004,-0.134 3.959,3.959 0 0 0 -1.633,0.558 0.318,0.318 0 0 1 -0.444,-0.131 c -0.115,-0.229 -0.231,-0.458 -0.352,-0.7 a 0.319,0.319 0 0 1 0.121,-0.417 4.8,4.8 0 0 1 4.7530004,-0.281 5.612,5.612 0 0 1 1.695,1.217 z"
     fill="url(#a5b82a41-94a6-4cb6-9b6d-96e201e4f28b)"
     id="path85262"
     style="fill:url(#a5b82a41-94a6-4cb6-9b6d-96e201e4f28b)" />
  <path
     d="m 12.541002,11.702 -0.976,-1.947 a 0.319,0.319 0 0 1 0.35,-0.454 l 0.584,0.123 a 3.376,3.376 0 0 0 -0.691,-3.04 3.549,3.549 0 0 0 -3.1750004,-1.343 4.661,4.661 0 0 1 3.9170004,0.134 c 0.076,0.036 0.15,0.073 0.223,0.112 a 5.045,5.045 0 0 1 1.256,3.774 q -0.012,0.327 -0.051,0.669 l 0.124,0.026 0.47,0.1 a 0.319,0.319 0 0 1 0.138,0.556 l -1.34,1.11 c -0.114,0.094 -0.227,0.189 -0.343,0.284 a 0.318,0.318 0 0 1 -0.486,-0.104 z"
     fill="url(#adf8b433-0d4b-44dc-9066-35193fbbfb85)"
     id="path85264"
     style="fill:url(#adf8b433-0d4b-44dc-9066-35193fbbfb85)" />
  <path
     d="m 5.1190016,12.607 c 0.073,0.039 0.147,0.076 0.224,0.112 a 4.661,4.661 0 0 0 3.917,0.134 3.955,3.955 0 0 0 1.6330004,-0.558 0.318,0.318 0 0 1 0.444,0.131 l 0.352,0.7 a 0.319,0.319 0 0 1 -0.121,0.417 4.8,4.8 0 0 1 -4.7530004,0.281 5.624,5.624 0 0 1 -1.696,-1.217 z"
     fill="url(#e01e6017-d158-463b-ab8a-471754e6302c)"
     id="path85266"
     style="fill:url(#e01e6017-d158-463b-ab8a-471754e6302c)" />
  <path
     d="m 5.3520016,6.192 0.975,1.947 a 0.319,0.319 0 0 1 -0.35,0.454 l -0.584,-0.123 a 3.376,3.376 0 0 0 0.691,3.04 3.549,3.549 0 0 0 3.176,1.343 4.661,4.661 0 0 1 -3.917,-0.134 c -0.077,-0.036 -0.151,-0.073 -0.224,-0.112 a 5.04,5.04 0 0 1 -1.255,-3.774 q 0.011,-0.327 0.051,-0.669 l -0.124,-0.026 -0.47,-0.1 a 0.318,0.318 0 0 1 -0.138,-0.556 c 0.454,-0.376 0.894,-0.74 1.339,-1.11 l 0.343,-0.284 a 0.319,0.319 0 0 1 0.487,0.104 z"
     fill="url(#b3c94a3b-6e49-4382-bec6-90a5495464b5)"
     id="path85268"
     style="fill:url(#b3c94a3b-6e49-4382-bec6-90a5495464b5)" />
</svg>
