<?xml version="1.0" encoding="UTF-8" standalone="no"?>
<svg
   width="18"
   height="16.629999"
   viewBox="0 0 18 16.629999"
   version="1.1"
   id="svg85608"
   sodipodi:docname="VM_Application_Definition.svg"
   inkscape:version="1.1 (c68e22c387, 2021-05-23)"
   xmlns:inkscape="http://www.inkscape.org/namespaces/inkscape"
   xmlns:sodipodi="http://sodipodi.sourceforge.net/DTD/sodipodi-0.dtd"
   xmlns="http://www.w3.org/2000/svg"
   xmlns:svg="http://www.w3.org/2000/svg">
  <sodipodi:namedview
     id="namedview85610"
     pagecolor="#ffffff"
     bordercolor="#666666"
     borderopacity="1.0"
     inkscape:pageshadow="2"
     inkscape:pageopacity="0.0"
     inkscape:pagecheckerboard="0"
     showgrid="false"
     fit-margin-top="0"
     fit-margin-left="0"
     fit-margin-right="0"
     fit-margin-bottom="0"
     inkscape:zoom="44.055556"
     inkscape:cx="9"
     inkscape:cy="8.3190416"
     inkscape:window-width="1920"
     inkscape:window-height="1017"
     inkscape:window-x="-8"
     inkscape:window-y="-8"
     inkscape:window-maximized="1"
     inkscape:current-layer="svg85608" />
  <defs
     id="defs85590">
    <linearGradient
       id="a6239b38-8870-45d5-a956-76fe314707f4"
       x1="-555"
       y1="1012.831"
       x2="-555"
       y2="1024.8311"
       gradientTransform="matrix(1,0,0,-1,564,1024.831)"
       gradientUnits="userSpaceOnUse">
      <stop
         offset="0"
         stop-color="#0078d4"
         id="stop85580" />
      <stop
         offset="0.82"
         stop-color="#5ea0ef"
         id="stop85582" />
    </linearGradient>
    <linearGradient
       id="b504b1da-6339-49fa-89c2-5db4100573e8"
       x1="-554.98999"
       y1="1008.201"
       x2="-554.98999"
       y2="1012.831"
       gradientTransform="matrix(1,0,0,-1,564,1024.831)"
       gradientUnits="userSpaceOnUse">
      <stop
         offset="0"
         stop-color="#1490df"
         id="stop85585" />
      <stop
         offset="0.98"
         stop-color="#1f56a3"
         id="stop85587" />
    </linearGradient>
  </defs>
  <rect
     y="0"
     width="18"
     height="12"
     rx="0.60000002"
     fill="url(#a6239b38-8870-45d5-a956-76fe314707f4)"
     id="rect85592"
     style="fill:url(#a6239b38-8870-45d5-a956-76fe314707f4)"
     x="0" />
  <path
     d="M 12.61,15.63 C 10.83,15.35 10.76,14.07 10.77,12 H 7.2 c 0,2.07 0,3.35 -1.81,3.63 a 1,1 0 0 0 -0.88,1 h 9 a 1.061,1.061 0 0 0 -0.9,-1 z"
     fill="url(#b504b1da-6339-49fa-89c2-5db4100573e8)"
     id="path85594"
     style="fill:url(#b504b1da-6339-49fa-89c2-5db4100573e8)" />
  <rect
     x="7.3039999"
     y="5.0149999"
     width="2.793"
     height="2.793"
     rx="0.11"
     fill="#9cebff"
     id="rect85596" />
  <path
     d="M 11.864,3.045 H 9.225 A 0.109,0.109 0 0 0 9.116,3.153 v 0 0.48 a 0.109,0.109 0 0 0 0.109,0.109 h 1.941 a 0.218,0.218 0 0 1 0.219,0.218 v 0 1.974 a 0.108,0.108 0 0 0 0.108,0.108 h 0.481 A 0.108,0.108 0 0 0 12.083,5.934 V 3.264 A 0.219,0.219 0 0 0 11.864,3.045 Z"
     fill="#773adc"
     id="path85598" />
  <path
     d="m 10.938,6.502 v 1.737 a 0.2,0.2 0 0 1 -0.2,0.2 H 6.772 a 0.2,0.2 0 0 1 -0.2,-0.2 v 0 -3.744 a 0.2,0.2 0 0 1 0.2,-0.2 H 8.761 A 0.109,0.109 0 0 0 8.869,4.186 v 0 V 3.77 A 0.109,0.109 0 0 0 8.761,3.661 H 6.137 a 0.2,0.2 0 0 0 -0.2,0.2 v 5.014 a 0.2,0.2 0 0 0 0.2,0.2 h 5.237 a 0.2,0.2 0 0 0 0.2,-0.2 V 6.502 A 0.109,0.109 0 0 0 11.465,6.393 h -0.418 a 0.108,0.108 0 0 0 -0.109,0.108 z"
     fill="#ffffff"
     id="path85600" />
</svg>
