<?xml version="1.0" encoding="UTF-8" standalone="no"?>
<svg
   xmlns:dc="http://purl.org/dc/elements/1.1/"
   xmlns:cc="http://creativecommons.org/ns#"
   xmlns:rdf="http://www.w3.org/1999/02/22-rdf-syntax-ns#"
   xmlns:svg="http://www.w3.org/2000/svg"
   xmlns="http://www.w3.org/2000/svg"
   xmlns:sodipodi="http://sodipodi.sourceforge.net/DTD/sodipodi-0.dtd"
   xmlns:inkscape="http://www.inkscape.org/namespaces/inkscape"
   width="17"
   height="17"
   viewBox="0 0 17 17"
   version="1.1"
   id="svg72081"
   sodipodi:docname="Windows_Virtual_Desktop.svg"
   inkscape:version="0.92.3 (2405546, 2018-03-11)">
  <sodipodi:namedview
     pagecolor="#ffffff"
     bordercolor="#666666"
     borderopacity="1"
     objecttolerance="10"
     gridtolerance="10"
     guidetolerance="10"
     inkscape:pageopacity="0"
     inkscape:pageshadow="2"
     inkscape:window-width="1920"
     inkscape:window-height="1017"
     id="namedview72083"
     showgrid="false"
     fit-margin-top="0"
     fit-margin-left="0"
     fit-margin-right="0"
     fit-margin-bottom="0"
     inkscape:zoom="48.111111"
     inkscape:cx="8.5"
     inkscape:cy="8.5"
     inkscape:window-x="-8"
     inkscape:window-y="-8"
     inkscape:window-maximized="1"
     inkscape:current-layer="svg72081" />
  <defs
     id="defs72064">
    <radialGradient
       id="e9a2b8bf-efad-4e15-89f0-635373400131"
       cx="9"
       cy="9"
       r="8.5"
       gradientUnits="userSpaceOnUse"
       gradientTransform="translate(0.5,0.5)">
      <stop
         offset="0"
         stop-color="#198ab3"
         id="stop72049" />
      <stop
         offset="0.382"
         stop-color="#1a8cb5"
         id="stop72051" />
      <stop
         offset="0.576"
         stop-color="#1c94bc"
         id="stop72053" />
      <stop
         offset="0.727"
         stop-color="#21a1c8"
         id="stop72055" />
      <stop
         offset="0.856"
         stop-color="#27b4d8"
         id="stop72057" />
      <stop
         offset="0.97"
         stop-color="#2fccee"
         id="stop72059" />
      <stop
         offset="1"
         stop-color="#32d4f5"
         id="stop72061" />
    </radialGradient>
  </defs>
  <g
     id="faeec9e4-44b9-413a-8332-867d334dcda2"
     transform="translate(-0.5,-0.5)">
    <g
       id="g72070">
      <circle
         cx="9"
         cy="9"
         r="8.5"
         id="circle72066"
         style="fill:url(#e9a2b8bf-efad-4e15-89f0-635373400131)" />
      <circle
         cx="9"
         cy="9"
         r="7.3210001"
         id="circle72068"
         style="fill:#005ba1" />
    </g>
    <g
       id="g72076">
      <path
         d="M 9.1,9.937 6.266,7.125 a 0.507,0.507 0 0 0 -0.709,0 L 5.2,7.48 A 0.469,0.469 0 0 0 5.057,7.817 0.476,0.476 0 0 0 5.198,8.156 l 2.132,2.122 -2.178,2.163 a 0.473,0.473 0 0 0 0,0.676 l 0.361,0.355 a 0.507,0.507 0 0 0 0.709,0 L 9.1,10.612 A 0.475,0.475 0 0 0 9.241,10.274 0.468,0.468 0 0 0 9.1,9.937 Z"
         id="path72072"
         inkscape:connector-curvature="0"
         style="fill:#f2f2f2" />
      <path
         d="m 8.755,7.678 a 0.475,0.475 0 0 0 0.141,0.338 l 2.88,2.859 a 0.507,0.507 0 0 0 0.709,0 l 0.361,-0.356 A 0.469,0.469 0 0 0 12.989,10.182 0.475,0.475 0 0 0 12.848,9.844 L 10.674,7.682 12.806,5.559 A 0.475,0.475 0 0 0 12.947,5.221 0.469,0.469 0 0 0 12.804,4.884 L 12.443,4.528 a 0.507,0.507 0 0 0 -0.709,0 L 8.9,7.34 A 0.472,0.472 0 0 0 8.755,7.678 Z"
         id="path72074"
         inkscape:connector-curvature="0"
         style="fill:#f2f2f2" />
    </g>
  </g>
  <metadata
     id="metadata72079">
    <rdf:RDF>
      <rdf:li>public:true</rdf:li>
      <rdf:li>sdk:false</rdf:li>
      <rdf:li>category: Other</rdf:li>
      <cc:Work
         rdf:about="">
        <dc:format>image/svg+xml</dc:format>
        <dc:type
           rdf:resource="http://purl.org/dc/dcmitype/StillImage" />
        <dc:title></dc:title>
      </cc:Work>
    </rdf:RDF>
  </metadata>
</svg>
