<?xml version="1.0" encoding="UTF-8" standalone="no"?>
<svg
   width="18.000566"
   height="17.464001"
   viewBox="0 0 18.000566 17.464001"
   version="1.1"
   id="svg87919"
   sodipodi:docname="Worker_Container_App.svg"
   inkscape:version="1.1 (c68e22c387, 2021-05-23)"
   xmlns:inkscape="http://www.inkscape.org/namespaces/inkscape"
   xmlns:sodipodi="http://sodipodi.sourceforge.net/DTD/sodipodi-0.dtd"
   xmlns="http://www.w3.org/2000/svg"
   xmlns:svg="http://www.w3.org/2000/svg">
  <sodipodi:namedview
     id="namedview87921"
     pagecolor="#ffffff"
     bordercolor="#666666"
     borderopacity="1.0"
     inkscape:pageshadow="2"
     inkscape:pageopacity="0.0"
     inkscape:pagecheckerboard="0"
     showgrid="false"
     fit-margin-top="0"
     fit-margin-left="0"
     fit-margin-right="0"
     fit-margin-bottom="0"
     inkscape:zoom="44.055556"
     inkscape:cx="9"
     inkscape:cy="8.7276166"
     inkscape:window-width="1920"
     inkscape:window-height="1017"
     inkscape:window-x="-8"
     inkscape:window-y="-8"
     inkscape:window-maximized="1"
     inkscape:current-layer="svg87919" />
  <defs
     id="defs87874">
    <linearGradient
       id="b27f1ad0-7d11-4247-9da3-91bce6211f32"
       x1="8.7980003"
       y1="8.7030001"
       x2="14.683"
       y2="8.7030001"
       gradientUnits="userSpaceOnUse"
       gradientTransform="translate(5.3672785e-4,-0.26799821)">
      <stop
         offset="0.001"
         stop-color="#773adc"
         id="stop87864" />
      <stop
         offset="1"
         stop-color="#552f99"
         id="stop87866" />
    </linearGradient>
    <linearGradient
       id="b2f92112-4ca9-4b17-a019-c9f26c1a4a8f"
       x1="5.7639999"
       y1="3.777"
       x2="5.7639999"
       y2="13.78"
       gradientUnits="userSpaceOnUse"
       gradientTransform="translate(5.3672785e-4,-0.26799821)">
      <stop
         offset="0"
         stop-color="#a67af4"
         id="stop87869" />
      <stop
         offset="0.999"
         stop-color="#773adc"
         id="stop87871" />
    </linearGradient>
  </defs>
  <path
     d="m 16.932537,11.310002 a 8.448,8.448 0 0 1 -7.9500003,5.59 8.15,8.15 0 0 1 -2.33,-0.33 2.133,2.133 0 0 0 0.18,-0.83 c 0.01,0 0.03,0.01 0.04,0.01 a 7.422,7.422 0 0 0 2.11,0.3 7.646,7.646 0 0 0 6.8500003,-4.28 l 0.01,-0.01 z"
     fill="#32bedd"
     id="path87876" />
  <path
     d="m 3.5825367,13.800002 a 2.025,2.025 0 0 0 -0.64,0.56 8.6,8.6 0 0 1 -1.67,-2.44 l 1.04,0.23 v 0.26 a 0.6,0.6 0 0 0 0.47,0.59 l 0.14,0.03 a 6.136,6.136 0 0 0 0.62,0.73 z"
     fill="#32bedd"
     id="path87878" />
  <path
     d="m 12.352537,0.69000179 a 2.28,2.28 0 0 0 -0.27,0.81000001 c -0.02,-0.01 -0.05,-0.02 -0.07,-0.03 a 7.479,7.479 0 0 0 -3.0300003,-0.63000001 7.643,7.643 0 0 0 -5.9,2.80000001 l -0.29,0.06 a 0.6,0.6 0 0 0 -0.48,0.58 v 0.46 l -1.02,0.19 A 8.454,8.454 0 0 1 8.9825367,1.7885711e-6 8.6,8.6 0 0 1 12.352537,0.69000179 Z"
     fill="#32bedd"
     id="path87880" />
  <path
     d="m 16.872537,5.4320018 -1.09,-0.38 a 6.6,6.6 0 0 0 -0.72,-1.16 c -0.02,-0.03 -0.04,-0.05 -0.05,-0.07 a 2.083,2.083 0 0 0 0.72,-0.45 7.81,7.81 0 0 1 1.14,2.06 z"
     fill="#32bedd"
     id="path87882" />
  <path
     d="m 10.072537,11.640002 2.54,0.56 -3.9400003,1.632 c -0.02,0 -0.03,0.01 -0.05,0.01 a 0.154,0.154 0 0 1 -0.15,-0.15 V 3.1800018 a 0.154,0.154 0 0 1 0.15,-0.15 0.09,0.09 0 0 1 0.05,0.01 l 4.4600003,1.56 -3.05,0.57 a 0.565,0.565 0 0 0 -0.4400003,0.54 v 5.4000002 a 0.537,0.537 0 0 0 0.4300003,0.53 z"
     fill="#ffffff"
     id="path87884" />
  <path
     d="m 1.1005367,5.4000018 1.21,-0.23 v 6.5500002 l -1.23,-0.27 -0.98999997,-0.22 a 0.111,0.111 0 0 1 -0.0900000022,-0.12 V 5.7100018 a 0.12,0.12 0 0 1 0.0900000022,-0.12 z"
     fill="#a67af4"
     id="path87886" />
  <path
     d="m 10.072537,11.640002 2.54,0.56 -3.9400003,1.632 c -0.02,0 -0.03,0.01 -0.05,0.01 a 0.154,0.154 0 0 1 -0.15,-0.15 V 3.1800018 a 0.154,0.154 0 0 1 0.15,-0.15 0.09,0.09 0 0 1 0.05,0.01 l 4.4600003,1.56 -3.05,0.57 a 0.565,0.565 0 0 0 -0.4400003,0.54 v 5.4000002 a 0.537,0.537 0 0 0 0.4300003,0.53 z"
     fill="url(#b27f1ad0-7d11-4247-9da3-91bce6211f32)"
     id="path87889"
     style="fill:url(#b27f1ad0-7d11-4247-9da3-91bce6211f32)" />
  <path
     d="m 8.5865367,3.0320018 -5.708,1.078 a 0.177,0.177 0 0 0 -0.14,0.175 v 8.1270002 a 0.177,0.177 0 0 0 0.137,0.174 l 5.706,1.246 a 0.176,0.176 0 0 0 0.21,-0.174 V 3.2100018 a 0.175,0.175 0 0 0 -0.172,-0.178 z"
     fill="url(#b2f92112-4ca9-4b17-a019-c9f26c1a4a8f)"
     id="path87891"
     style="fill:url(#b2f92112-4ca9-4b17-a019-c9f26c1a4a8f)" />
  <polygon
     points="7.934,12.814 7.934,4.564 5.948,4.921 5.948,12.483 "
     fill="#b796f9"
     opacity="0.5"
     id="polygon87896"
     transform="translate(5.3672785e-4,-0.26799821)" />
  <polygon
     points="5.238,12.317 5.238,5.031 3.509,5.329 3.509,11.954 "
     fill="#b796f9"
     opacity="0.5"
     id="polygon87898"
     transform="translate(5.3672785e-4,-0.26799821)" />
  <path
     d="m 16.000537,1.7800018 a 1.755,1.755 0 1 1 -1.76,-1.76000001 1.756,1.756 0 0 1 1.76,1.76000001 z"
     fill="#32bedd"
     id="path87906" />
  <circle
     cx="4.650537"
     cy="15.705002"
     r="1.7589999"
     fill="#32bedd"
     id="circle87908" />
  <path
     d="m 18.000537,6.4210018 v 3.8440002 a 0.222,0.222 0 0 1 -0.133,0.2 l -0.766,0.316 -3.07,1.268 h -0.011 a 0.126,0.126 0 0 1 -0.038,0 0.1,0.1 0 0 1 -0.1,-0.1 V 4.9660018 a 0.1,0.1 0 0 1 0.054,-0.088 v 0 h 0.019 a 0.031,0.031 0 0 1 0.019,0 0.055,0.055 0 0 1 0.034,0.008 h 0.011 0.012 l 3.019,1.046 0.8,0.282 a 0.213,0.213 0 0 1 0.15,0.207 z"
     fill="#773adc"
     id="path87912" />
  <path
     d="m 13.959537,4.8720018 -3.8,0.715 a 0.118,0.118 0 0 0 -0.093,0.117 v 5.4090002 a 0.118,0.118 0 0 0 0.091,0.116 l 3.8,0.831 a 0.115,0.115 0 0 0 0.137,-0.09 0.109,0.109 0 0 0 0,-0.026 V 4.9880018 a 0.117,0.117 0 0 0 -0.115,-0.118 0.082,0.082 0 0 0 -0.02,0.002 z"
     fill="#a67af4"
     id="path87914" />
</svg>
