<?xml version="1.0" encoding="UTF-8" standalone="no"?>
<svg
   xmlns:dc="http://purl.org/dc/elements/1.1/"
   xmlns:cc="http://creativecommons.org/ns#"
   xmlns:rdf="http://www.w3.org/1999/02/22-rdf-syntax-ns#"
   xmlns:svg="http://www.w3.org/2000/svg"
   xmlns="http://www.w3.org/2000/svg"
   xmlns:sodipodi="http://sodipodi.sourceforge.net/DTD/sodipodi-0.dtd"
   xmlns:inkscape="http://www.inkscape.org/namespaces/inkscape"
   id="beb440f5-d017-4dda-989a-ddd425fce02e"
   width="16.889999"
   height="18.00601"
   viewBox="0 0 16.889999 18.00601"
   version="1.1"
   sodipodi:docname="Container_Instances.svg"
   inkscape:version="0.92.3 (2405546, 2018-03-11)">
  <sodipodi:namedview
     pagecolor="#ffffff"
     bordercolor="#666666"
     borderopacity="1"
     objecttolerance="10"
     gridtolerance="10"
     guidetolerance="10"
     inkscape:pageopacity="0"
     inkscape:pageshadow="2"
     inkscape:window-width="1920"
     inkscape:window-height="1017"
     id="namedview10604"
     showgrid="false"
     fit-margin-top="0"
     fit-margin-left="0"
     fit-margin-right="0"
     fit-margin-bottom="0"
     inkscape:zoom="48.111111"
     inkscape:cx="8.46"
     inkscape:cy="9.0035202"
     inkscape:window-x="-8"
     inkscape:window-y="-8"
     inkscape:window-maximized="1"
     inkscape:current-layer="beb440f5-d017-4dda-989a-ddd425fce02e" />
  <defs
     id="defs10585">
    <linearGradient
       id="f7543904-4a89-435e-96cd-11521c829faa"
       x1="9"
       y1="11.95"
       x2="9"
       gradientUnits="userSpaceOnUse">
      <stop
         offset="0"
         stop-color="#0078d4"
         id="stop10574" />
      <stop
         offset="0.16"
         stop-color="#1380da"
         id="stop10576" />
      <stop
         offset="0.53"
         stop-color="#3c91e5"
         id="stop10578" />
      <stop
         offset="0.82"
         stop-color="#559cec"
         id="stop10580" />
      <stop
         offset="1"
         stop-color="#5ea0ef"
         id="stop10582" />
    </linearGradient>
  </defs>
  <title
     id="title10587">Icon-containers-104</title>
  <path
     d="m 16.89,8.2124895 a 3.78,3.78 0 0 0 -3.29,-3.64 A 4.77,4.77 0 0 0 8.68,0.00248954 4.91,4.91 0 0 0 4,3.1924895 a 4.52,4.52 0 0 0 -4,4.35 4.6,4.6 0 0 0 4.78,4.4600005 h 0.42 7.68 0.21 a 3.84,3.84 0 0 0 3.8,-3.7900005 z"
     id="path10589"
     inkscape:connector-curvature="0"
     style="fill:url(#f7543904-4a89-435e-96cd-11521c829faa)" />
  <path
     d="m 5.82,6.4624895 2.64,-2.59 a 0.3,0.3 0 0 1 0.43,0 l 2.57,2.59 a 0.13,0.13 0 0 1 -0.1,0.23 H 9.74 a 0.15,0.15 0 0 0 -0.14,0.14 V 10.07249 a 0.11,0.11 0 0 1 -0.11,0.11 H 7.75 a 0.11,0.11 0 0 1 -0.11,-0.11 V 6.8324895 a 0.14,0.14 0 0 0 -0.13,-0.14 h -1.6 a 0.13,0.13 0 0 1 -0.09,-0.23 z"
     id="path10591"
     inkscape:connector-curvature="0"
     style="fill:#f2f2f2" />
  <path
     d="m 13.46,11.37249 a 0.13,0.13 0 0 0 -0.09,-0.13 L 8.62,9.6524895 H 8.46 V 18.00249 h 0.13 l 4.71,-1.88 a 0.13,0.13 0 0 0 0.16,-0.12 z"
     id="path10593"
     inkscape:connector-curvature="0"
     style="fill:#a67af4" />
  <path
     d="M 8.46,9.6824895 3.95,10.51249 a 0.14,0.14 0 0 0 -0.12,0.13 v 6.23 a 0.15,0.15 0 0 0 0.11,0.14 l 4.52,0.99 a 0.13,0.13 0 0 0 0.16,-0.13 V 9.8724895 a 0.14,0.14 0 0 0 -0.16,-0.19 z"
     id="path10595"
     inkscape:connector-curvature="0"
     style="fill:#552f99" />
  <polygon
     points="8.49,16.98 8.49,10.65 6.92,10.92 6.92,16.73 "
     id="polygon10597"
     style="opacity:0.75;fill:#b77af4"
     transform="translate(-0.54,0.00248954)" />
  <polygon
     points="6.35,16.6 6.35,11.01 4.98,11.24 4.98,16.32 "
     id="polygon10599"
     style="opacity:0.75;fill:#b77af4"
     transform="translate(-0.54,0.00248954)" />
  <metadata
     id="metadata10601">
    <rdf:RDF>
      <rdf:li>public:true</rdf:li>
      <rdf:li>sdk:false</rdf:li>
      <rdf:li>category: Compute, Containers</rdf:li>
      <cc:Work
         rdf:about="">
        <dc:format>image/svg+xml</dc:format>
        <dc:type
           rdf:resource="http://purl.org/dc/dcmitype/StillImage" />
        <dc:title>Icon-containers-104</dc:title>
      </cc:Work>
    </rdf:RDF>
  </metadata>
</svg>
