<?xml version="1.0" encoding="UTF-8" standalone="no"?>
<svg
   xmlns:dc="http://purl.org/dc/elements/1.1/"
   xmlns:cc="http://creativecommons.org/ns#"
   xmlns:rdf="http://www.w3.org/1999/02/22-rdf-syntax-ns#"
   xmlns:svg="http://www.w3.org/2000/svg"
   xmlns="http://www.w3.org/2000/svg"
   xmlns:sodipodi="http://sodipodi.sourceforge.net/DTD/sodipodi-0.dtd"
   xmlns:inkscape="http://www.inkscape.org/namespaces/inkscape"
   id="a75e3f3a-2661-410b-82fb-d300d37dea2d"
   width="14"
   height="17.006681"
   viewBox="0 0 14 17.006681"
   version="1.1"
   sodipodi:docname="Azure_Sentinel.svg"
   inkscape:version="0.92.3 (2405546, 2018-03-11)">
  <sodipodi:namedview
     pagecolor="#ffffff"
     bordercolor="#666666"
     borderopacity="1"
     objecttolerance="10"
     gridtolerance="10"
     guidetolerance="10"
     inkscape:pageopacity="0"
     inkscape:pageshadow="2"
     inkscape:window-width="1920"
     inkscape:window-height="1017"
     id="namedview73508"
     showgrid="false"
     fit-margin-top="0"
     fit-margin-left="0"
     fit-margin-right="0"
     fit-margin-bottom="0"
     inkscape:zoom="48.111111"
     inkscape:cx="7"
     inkscape:cy="8.506682"
     inkscape:window-x="-8"
     inkscape:window-y="-8"
     inkscape:window-maximized="1"
     inkscape:current-layer="a75e3f3a-2661-410b-82fb-d300d37dea2d" />
  <defs
     id="defs73493">
    <linearGradient
       id="aff60ddf-eec1-40bf-8bf5-f3e3b50e8818"
       x1="9"
       y1="16.209999"
       x2="9"
       y2="0.62"
       gradientUnits="userSpaceOnUse">
      <stop
         offset="0"
         stop-color="#1b93eb"
         id="stop73480" />
      <stop
         offset="0.21"
         stop-color="#2095eb"
         id="stop73482" />
      <stop
         offset="0.44"
         stop-color="#2e9ced"
         id="stop73484" />
      <stop
         offset="0.69"
         stop-color="#45a7ef"
         id="stop73486" />
      <stop
         offset="0.95"
         stop-color="#64b6f1"
         id="stop73488" />
      <stop
         offset="1"
         stop-color="#6bb9f2"
         id="stop73490" />
    </linearGradient>
  </defs>
  <title
     id="title73495">Icon-security-248</title>
  <path
     d="m 14,7.94 c 0,4.57 -5.53,8.25 -6.73,9 a 0.43,0.43 0 0 1 -0.46,0 C 5.57,16.19 1.4677822e-8,12.5 1.4677822e-8,7.94 V 2.44 A 0.44,0.44 0 0 1 0.43000001,2 C 4.77,1.89 3.78,0 7,0 c 3.22,0 2.23,1.89 6.53,2 a 0.44,0.44 0 0 1 0.43,0.44 z"
     id="path73497"
     inkscape:connector-curvature="0"
     style="fill:#1b93eb" />
  <path
     d="m 13.38,7.98 c 0,4.2 -5.07,7.57 -6.17,8.25 a 0.4,0.4 0 0 1 -0.42,0 C 5.69,15.55 0.62000001,12.18 0.62000001,7.98 v -5 A 0.41,0.41 0 0 1 1,2.5 C 4.94,2.39 4,0.67 7,0.67 c 3,0 2.05,1.76 6,1.83 a 0.41,0.41 0 0 1 0.39,0.4 z"
     id="path73499"
     inkscape:connector-curvature="0"
     style="fill:url(#aff60ddf-eec1-40bf-8bf5-f3e3b50e8818)" />
  <path
     d="m 7,6.03 a 2.88,2.88 0 0 1 2.84,2.47 0.49,0.49 0 0 0 0.49,0.4 h 1.4 a 0.49,0.49 0 0 0 0.5,-0.53 5.26,5.26 0 0 0 -10.46,0 0.49,0.49 0 0 0 0.5,0.53 h 1.4 A 0.49,0.49 0 0 0 4.16,8.5 2.88,2.88 0 0 1 7,6.03 Z"
     id="path73501"
     inkscape:connector-curvature="0"
     style="fill:#c3f1ff" />
  <circle
     cx="7"
     cy="8.8999996"
     r="1.91"
     id="circle73503"
     style="fill:#ffffff" />
  <metadata
     id="metadata73505">
    <rdf:RDF>
      <rdf:li>public:true</rdf:li>
      <rdf:li>sdk:false</rdf:li>
      <rdf:li>category: Security</rdf:li>
      <cc:Work
         rdf:about="">
        <dc:format>image/svg+xml</dc:format>
        <dc:type
           rdf:resource="http://purl.org/dc/dcmitype/StillImage" />
        <dc:title>Icon-security-248</dc:title>
      </cc:Work>
    </rdf:RDF>
  </metadata>
</svg>
