<?xml version="1.0" standalone="no"?>
<svg contentScriptType="text/ecmascript" zoomAndPan="magnify" xmlns:rdf="http://www.w3.org/1999/02/22-rdf-syntax-ns#"
    xmlns:xlink="http://www.w3.org/1999/xlink" xmlns:svg="http://www.w3.org/2000/svg" baseProfile="full"
    contentStyleType="text/css" id="svg4637" sodipodi:docname="02247-icon-service-Azure-Defender.svg" version="1.1"
    width="14.728" xmlns:sodipodi="http://sodipodi.sourceforge.net/DTD/sodipodi-0.dtd" xmlns:dc="http://purl.org/dc/elements/1.1/"
    xmlns:inkscape="http://www.inkscape.org/namespaces/inkscape" xmlns:cc="http://creativecommons.org/ns#"
    preserveAspectRatio="xMidYMid meet" inkscape:version="0.92.3 (2405546, 2018-03-11)" viewBox="0 0 14.728 17.994978"
    height="17.994978" xmlns="http://www.w3.org/2000/svg">
    <defs id="defs4621">
        <linearGradient x1="9" y1="17.253" x2="9" gradientUnits="userSpaceOnUse" y2="0.74699998" id="a5d53553-f668-4fa0-ac9f-76a8e299111d">
            <stop offset="0" stop-color="#50e6ff" id="stop4616"/>
            <stop offset="1" stop-color="#9cebff" id="stop4618"/>
        </linearGradient>
    </defs>
    <path style="fill:#50e6ff" d="m 14.728,8.4 c 0,4.84 -5.849,8.736 -7.122,9.526 a 0.459,0.459 0 0 1 -0.484,0 C 
        5.849,17.136 0,13.24 0,8.4 V 2.582 A 0.463,0.463 0 0 1 0.452,2.12 C 5.002,2 3.954,0 7.364,0 c 3.41,0 2.362,2 
        6.912,2.12 a 0.463,0.463 0 0 1 0.452,0.462 z"/>
    <path style="fill:url(#a5d53553-f668-4fa0-ac9f-76a8e299111d)" d="m 14.118,8.454 c 0,4.438 -5.365,8.011 -6.532,8.736 
        a 0.418,0.418 0 0 1 -0.444,0 C 5.975,16.465 0.61,12.89 0.61,8.454 V 3.114 A 0.425,0.425 0 0 1 1.025,2.691 C 
        5.198,2.578 4.237,0.747 7.364,0.747 c 3.127,0 2.166,1.831 6.339,1.944 a 0.425,0.425 0 0 1 0.415,0.423 z"/>
    <circle r="1.281" style="fill:#ffffff" cx="8.2180004" cy="8.0369997"/>
    <circle r="0.86500001" style="fill:#ffffff" cx="6.3779998" cy="11.159"/>
    <circle r="1.073" style="fill:#ffffff" cx="5.7539997" cy="4.5710001"/>
    <polygon id="polygon4630" style="fill:#e6e6e6" points="9.302,7.777 4.489,8.174 4.535,8.733 9.302,8.337 7.721,10.964 
        8.196,11.25 9.822,8.545 11.753,11.92 12.234,11.646 10.069,7.855 9.854,7.979 10.03,7.849 7.578,4.363 7.13,4.689"
        transform="translate(-1.636)"/>
    <path style="fill:#ffffff" d="m 8.218,6.769 a 1.3,1.3 0 1 1 -1.3,1.3 V 8.037 a 1.3,1.3 0 0 1 1.3,-1.268 z M 
        4.707,4.569 A 1.08,1.08 0 1 0 5.792,3.5 H 5.764 A 1.071,1.071 0 0 0 4.707,4.571 Z M 2.015,8.519 A 0.865,0.865 0 
        1 0 2.879,7.654 0.865,0.865 0 0 0 2.015,8.519 Z m 3.5,2.633 A 0.872,0.872 0 1 0 6.393,10.287 H 6.384 a 
        0.866,0.866 0 0 0 -0.871,0.859 z m 3.85,0.7 a 1.008,1.008 0 1 0 1.014,-1 h -0.006 a 0.994,0.994 0 0 0 
        -1.009,0.976 z"/>​
</svg>