<?xml version="1.0" encoding="UTF-8" standalone="no"?>
<svg
   xmlns:dc="http://purl.org/dc/elements/1.1/"
   xmlns:cc="http://creativecommons.org/ns#"
   xmlns:rdf="http://www.w3.org/1999/02/22-rdf-syntax-ns#"
   xmlns:svg="http://www.w3.org/2000/svg"
   xmlns="http://www.w3.org/2000/svg"
   xmlns:sodipodi="http://sodipodi.sourceforge.net/DTD/sodipodi-0.dtd"
   xmlns:inkscape="http://www.inkscape.org/namespaces/inkscape"
   id="a12d75ea-cbb6-44fa-832a-e54cce009101"
   width="14.16"
   height="17.006681"
   viewBox="0 0 14.16 17.006681"
   version="1.1"
   sodipodi:docname="Conditional_Access.svg"
   inkscape:version="0.92.3 (2405546, 2018-03-11)">
  <sodipodi:namedview
     pagecolor="#ffffff"
     bordercolor="#666666"
     borderopacity="1"
     objecttolerance="10"
     gridtolerance="10"
     guidetolerance="10"
     inkscape:pageopacity="0"
     inkscape:pageshadow="2"
     inkscape:window-width="1920"
     inkscape:window-height="1017"
     id="namedview73596"
     showgrid="false"
     fit-margin-top="0"
     fit-margin-left="0"
     fit-margin-right="0"
     fit-margin-bottom="0"
     inkscape:zoom="48.111111"
     inkscape:cx="7.08"
     inkscape:cy="8.506682"
     inkscape:window-x="-8"
     inkscape:window-y="-8"
     inkscape:window-maximized="1"
     inkscape:current-layer="a12d75ea-cbb6-44fa-832a-e54cce009101" />
  <defs
     id="defs73579">
    <linearGradient
       id="e2b13d81-97e0-465a-b9ed-b7f57e1b3f8c"
       x1="9"
       y1="16.790001"
       x2="9"
       y2="1.21"
       gradientUnits="userSpaceOnUse">
      <stop
         offset="0"
         stop-color="#0078d4"
         id="stop73566" />
      <stop
         offset="0.06"
         stop-color="#0a7cd7"
         id="stop73568" />
      <stop
         offset="0.34"
         stop-color="#2e8ce1"
         id="stop73570" />
      <stop
         offset="0.59"
         stop-color="#4897e9"
         id="stop73572" />
      <stop
         offset="0.82"
         stop-color="#589eed"
         id="stop73574" />
      <stop
         offset="1"
         stop-color="#5ea0ef"
         id="stop73576" />
    </linearGradient>
  </defs>
  <title
     id="title73581">Icon-identity-233</title>
  <path
     d="m 14.16,7.94 c 0,4.57 -5.62,8.25 -6.85,9 a 0.43,0.43 0 0 1 -0.46,0 C 5.62,16.2 1.4677824e-8,12.52 1.4677824e-8,7.94 V 2.44 A 0.44,0.44 0 0 1 0.43000001,2 C 4.81,1.89 3.8,0 7.08,0 c 3.28,0 2.27,1.89 6.65,2 a 0.44,0.44 0 0 1 0.43,0.44 z"
     id="path73583"
     inkscape:connector-curvature="0"
     style="fill:#0078d4" />
  <path
     d="m 13.58,7.98 c 0,4.2 -5.16,7.57 -6.29,8.25 a 0.4,0.4 0 0 1 -0.42,0 C 5.74,15.55 0.58000001,12.18 0.58000001,7.98 v -5 a 0.41,0.41 0 0 1 0.4,-0.48 C 5,2.43 4.08,0.71 7.08,0.71 c 3,0 2.08,1.72 6.1,1.79 a 0.41,0.41 0 0 1 0.4,0.4 z"
     id="path73585"
     inkscape:connector-curvature="0"
     style="fill:url(#e2b13d81-97e0-465a-b9ed-b7f57e1b3f8c)" />
  <path
     d="M 9.93,7.16 H 9.53 V 5.74 a 2.62,2.62 0 0 0 -0.7,-1.81 2.37,2.37 0 0 0 -3.48,0 2.61,2.61 0 0 0 -0.7,1.81 V 7.16 H 4.25 A 0.32,0.32 0 0 0 3.9,7.5 v 3.68 a 0.32,0.32 0 0 0 0.33,0.32 h 5.7 a 0.32,0.32 0 0 0 0.33,-0.32 V 7.5 A 0.32,0.32 0 0 0 9.93,7.16 Z m -1.55,0 H 5.78 V 5.72 a 1.43,1.43 0 0 1 0.41,-1 1.19,1.19 0 0 1 1.78,0 1.56,1.56 0 0 1 0.16,0.2 v 0 a 1.4,1.4 0 0 1 0.25,0.79 z"
     id="path73587"
     inkscape:connector-curvature="0"
     style="fill:#ffbd02" />
  <path
     d="m 4.23,7.16 h 5.7 a 0.32,0.32 0 0 1 0.21,0.08 L 4.02,11.4 A 0.33,0.33 0 0 1 3.9,11.16 V 7.5 A 0.32,0.32 0 0 1 4.23,7.16 Z"
     id="path73589"
     inkscape:connector-curvature="0"
     style="fill:#ffe452" />
  <path
     d="M 9.93,7.16 H 4.23 A 0.32,0.32 0 0 0 4.02,7.24 l 6.12,4.16 a 0.3,0.3 0 0 0 0.12,-0.24 V 7.5 A 0.32,0.32 0 0 0 9.93,7.16 Z"
     id="path73591"
     inkscape:connector-curvature="0"
     style="opacity:0.5;fill:#ffd400" />
  <metadata
     id="metadata73593">
    <rdf:RDF>
      <rdf:li>public:true</rdf:li>
      <rdf:li>sdk:false</rdf:li>
      <rdf:li>category: Security</rdf:li>
      <cc:Work
         rdf:about="">
        <dc:format>image/svg+xml</dc:format>
        <dc:type
           rdf:resource="http://purl.org/dc/dcmitype/StillImage" />
        <dc:title>Icon-identity-233</dc:title>
      </cc:Work>
    </rdf:RDF>
  </metadata>
</svg>
