<?xml version="1.0" encoding="UTF-8" standalone="no"?>
<svg
   xmlns:dc="http://purl.org/dc/elements/1.1/"
   xmlns:cc="http://creativecommons.org/ns#"
   xmlns:rdf="http://www.w3.org/1999/02/22-rdf-syntax-ns#"
   xmlns:svg="http://www.w3.org/2000/svg"
   xmlns="http://www.w3.org/2000/svg"
   xmlns:sodipodi="http://sodipodi.sourceforge.net/DTD/sodipodi-0.dtd"
   xmlns:inkscape="http://www.inkscape.org/namespaces/inkscape"
   width="16.326"
   height="18"
   viewBox="0 0 16.326 18"
   version="1.1"
   id="svg73679"
   sodipodi:docname="ExtendedSecurityUpdates.svg"
   inkscape:version="0.92.3 (2405546, 2018-03-11)">
  <sodipodi:namedview
     pagecolor="#ffffff"
     bordercolor="#666666"
     borderopacity="1"
     objecttolerance="10"
     gridtolerance="10"
     guidetolerance="10"
     inkscape:pageopacity="0"
     inkscape:pageshadow="2"
     inkscape:window-width="1920"
     inkscape:window-height="1017"
     id="namedview73681"
     showgrid="false"
     fit-margin-top="0"
     fit-margin-left="0"
     fit-margin-right="0"
     fit-margin-bottom="0"
     inkscape:zoom="48.111111"
     inkscape:cx="8.163"
     inkscape:cy="9"
     inkscape:window-x="-8"
     inkscape:window-y="-8"
     inkscape:window-maximized="1"
     inkscape:current-layer="svg73679" />
  <defs
     id="defs73666">
    <linearGradient
       id="a0a9e6cf-445c-437a-a4cc-1cf69d025bb3"
       x1="7.9809999"
       y1="16.737"
       x2="7.9809999"
       y2="0.72399998"
       gradientUnits="userSpaceOnUse"
       gradientTransform="translate(0.837)">
      <stop
         offset="0"
         stop-color="#0078d4"
         id="stop73661" />
      <stop
         offset="1"
         stop-color="#5ea0ef"
         id="stop73663" />
    </linearGradient>
  </defs>
  <g
     id="f3812ff1-dab6-4c66-bd45-5c638c6b6a32"
     transform="translate(-0.837)">
    <path
       d="m 15.125,8.153 c 0,4.7 -5.674,8.475 -6.909,9.241 a 0.443,0.443 0 0 1 -0.47,0 C 6.512,16.628 0.837,12.848 0.837,8.153 V 2.5 A 0.449,0.449 0 0 1 1.276,2.053 C 5.69,1.937 4.674,0 7.981,0 c 3.307,0 2.292,1.937 6.706,2.057 a 0.449,0.449 0 0 1 0.438,0.447 z"
       id="path73668"
       inkscape:connector-curvature="0"
       style="fill:#0078d4" />
    <path
       d="m 14.533,8.2 c 0,4.306 -5.2,7.772 -6.336,8.475 a 0.408,0.408 0 0 1 -0.431,0 C 6.634,15.973 1.43,12.507 1.43,8.2 V 3.021 a 0.411,0.411 0 0 1 0.4,-0.41 C 5.88,2.5 4.948,0.724 7.981,0.724 c 3.033,0 2.1,1.777 6.15,1.887 a 0.411,0.411 0 0 1 0.4,0.41 z"
       id="path73670"
       inkscape:connector-curvature="0"
       style="fill:url(#a0a9e6cf-445c-437a-a4cc-1cf69d025bb3)" />
    <circle
       cx="11.946"
       cy="12.783"
       r="5.217"
       id="circle73672"
       style="fill:#76bc2d" />
    <path
       d="M 8.22,12.293 A 0.184,0.184 0 0 1 7.967,12.228 L 7.746,11.856 a 0.185,0.185 0 0 1 0.065,-0.253 l 1.751,-1.039 a 0.184,0.184 0 0 1 0.253,0.065 l 1.039,1.751 a 0.184,0.184 0 0 1 -0.065,0.253 l -0.372,0.221 a 0.185,0.185 0 0 1 -0.253,-0.065 l -0.308,-0.52 a 2.356,2.356 0 0 0 -0.048,0.877 2.165,2.165 0 0 0 0.289,0.831 2.127,2.127 0 0 0 0.4,0.5 2.394,2.394 0 0 0 0.521,0.362 2.3,2.3 0 0 0 0.6,0.207 2.362,2.362 0 0 0 0.476,0.043 0.182,0.182 0 0 1 0.18,0.167 l 0.084,0.9 a 3.291,3.291 0 0 1 -0.945,-0.051 3.468,3.468 0 0 1 -0.884,-0.306 3.351,3.351 0 0 1 -0.765,-0.534 3.331,3.331 0 0 1 -1.03,-2 3.351,3.351 0 0 1 0.093,-1.33 z m 4.256,-1.7 a 2.323,2.323 0 0 1 0.6,0.21 2.378,2.378 0 0 1 0.52,0.362 2.184,2.184 0 0 1 0.692,1.326 2.356,2.356 0 0 1 -0.048,0.877 l -0.308,-0.52 a 0.185,0.185 0 0 0 -0.253,-0.065 l -0.372,0.221 a 0.184,0.184 0 0 0 -0.065,0.253 l 1.039,1.752 a 0.185,0.185 0 0 0 0.253,0.064 l 1.751,-1.039 a 0.184,0.184 0 0 0 0.065,-0.253 l -0.221,-0.372 a 0.185,0.185 0 0 0 -0.253,-0.064 l -0.606,0.359 a 3.346,3.346 0 0 0 0.093,-1.329 3.33,3.33 0 0 0 -1.03,-2 3.378,3.378 0 0 0 -0.765,-0.533 3.454,3.454 0 0 0 -0.884,-0.306 3.3,3.3 0 0 0 -0.755,-0.063 0.182,0.182 0 0 0 -0.172,0.2 l 0.066,0.71 a 0.182,0.182 0 0 0 0.181,0.168 2.1,2.1 0 0 1 0.472,0.049 z"
       id="path73674"
       inkscape:connector-curvature="0"
       style="fill:#ffffff" />
  </g>
  <metadata
     id="metadata73677">
    <rdf:RDF>
      <rdf:li>public:true</rdf:li>
      <rdf:li>sdk:false</rdf:li>
      <rdf:li>category: Security</rdf:li>
      <cc:Work
         rdf:about="">
        <dc:format>image/svg+xml</dc:format>
        <dc:type
           rdf:resource="http://purl.org/dc/dcmitype/StillImage" />
        <dc:title></dc:title>
      </cc:Work>
    </rdf:RDF>
  </metadata>
</svg>
