<?xml version="1.0" encoding="UTF-8" standalone="no"?>
<svg
   xmlns:dc="http://purl.org/dc/elements/1.1/"
   xmlns:cc="http://creativecommons.org/ns#"
   xmlns:rdf="http://www.w3.org/1999/02/22-rdf-syntax-ns#"
   xmlns:svg="http://www.w3.org/2000/svg"
   xmlns="http://www.w3.org/2000/svg"
   xmlns:sodipodi="http://sodipodi.sourceforge.net/DTD/sodipodi-0.dtd"
   xmlns:inkscape="http://www.inkscape.org/namespaces/inkscape"
   id="bc93169a-24c4-4686-9f37-c7e4f53b3d34"
   width="17"
   height="17"
   viewBox="0 0 17 17"
   version="1.1"
   sodipodi:docname="Key_Vaults.svg"
   inkscape:version="0.92.3 (2405546, 2018-03-11)">
  <sodipodi:namedview
     pagecolor="#ffffff"
     bordercolor="#666666"
     borderopacity="1"
     objecttolerance="10"
     gridtolerance="10"
     guidetolerance="10"
     inkscape:pageopacity="0"
     inkscape:pageshadow="2"
     inkscape:window-width="1920"
     inkscape:window-height="1017"
     id="namedview73850"
     showgrid="false"
     fit-margin-top="0"
     fit-margin-left="0"
     fit-margin-right="0"
     fit-margin-bottom="0"
     inkscape:zoom="48.111111"
     inkscape:cx="8.5"
     inkscape:cy="8.5"
     inkscape:window-x="-8"
     inkscape:window-y="-8"
     inkscape:window-maximized="1"
     inkscape:current-layer="bc93169a-24c4-4686-9f37-c7e4f53b3d34" />
  <defs
     id="defs73834">
    <radialGradient
       id="fb114c93-7c16-4540-899a-0796041629e6"
       cx="9"
       cy="9"
       r="8.5"
       gradientUnits="userSpaceOnUse">
      <stop
         offset="0.18"
         stop-color="#5ea0ef"
         id="stop73808" />
      <stop
         offset="0.56"
         stop-color="#5c9fee"
         id="stop73810" />
      <stop
         offset="0.69"
         stop-color="#559ced"
         id="stop73812" />
      <stop
         offset="0.78"
         stop-color="#4a97e9"
         id="stop73814" />
      <stop
         offset="0.86"
         stop-color="#3990e4"
         id="stop73816" />
      <stop
         offset="0.93"
         stop-color="#2387de"
         id="stop73818" />
      <stop
         offset="0.99"
         stop-color="#087bd6"
         id="stop73820" />
      <stop
         offset="1"
         stop-color="#0078d4"
         id="stop73822" />
    </radialGradient>
    <radialGradient
       id="ec478bd3-5b38-4e7f-b661-11f355578bff"
       cx="38.950001"
       cy="182.07001"
       r="9.8800001"
       gradientTransform="matrix(0.94,0,0,0.94,-28.21,-162.74)"
       gradientUnits="userSpaceOnUse">
      <stop
         offset="0.27"
         stop-color="#ffd70f"
         id="stop73825" />
      <stop
         offset="0.49"
         stop-color="#ffcb12"
         id="stop73827" />
      <stop
         offset="0.88"
         stop-color="#feac19"
         id="stop73829" />
      <stop
         offset="1"
         stop-color="#fea11b"
         id="stop73831" />
    </radialGradient>
  </defs>
  <title
     id="title73836">Icon-security-245</title>
  <path
     id="aacf8311-a317-400f-b613-74bd00da5ce3"
     d="M 8.5,0 A 8.5,8.5 0 1 0 17,8.5 8.51,8.51 0 0 0 8.5,0 Z m 0,15.84 A 7.34,7.34 0 1 1 15.84,8.5 7.34,7.34 0 0 1 8.5,15.84 Z"
     inkscape:connector-curvature="0"
     style="fill:url(#fb114c93-7c16-4540-899a-0796041629e6)" />
  <circle
     cx="8.5"
     cy="8.5"
     r="7.3400002"
     id="circle73839"
     style="fill:#ffffff" />
  <g
     id="g73845"
     transform="translate(-0.5,-0.5)">
    <path
       id="bd983c41-db73-40ec-a4f4-da1213fc9924"
       d="m 13.44,7.33 a 1.84,1.84 0 0 0 0,-2.59 v 0 L 10.29,1.58 a 1.83,1.83 0 0 0 -2.58,0 v 0 L 4.56,4.74 a 1.84,1.84 0 0 0 0,2.59 L 7.18,10 a 0.51,0.51 0 0 1 0.15,0.36 v 4.88 a 0.63,0.63 0 0 0 0.18,0.44 l 1.2,1.2 a 0.41,0.41 0 0 0 0.58,0 l 1.16,-1.16 v 0 l 0.68,-0.68 a 0.25,0.25 0 0 0 0,-0.34 l -0.49,-0.49 a 0.27,0.27 0 0 1 0,-0.37 l 0.49,-0.49 a 0.25,0.25 0 0 0 0,-0.34 l -0.49,-0.49 a 0.27,0.27 0 0 1 0,-0.37 l 0.49,-0.49 a 0.25,0.25 0 0 0 0,-0.34 L 10.45,10.63 V 10.38 Z M 9,2.35 A 1.035,1.035 0 0 1 9,4.42 1.035,1.035 0 1 1 9,2.35 Z"
       inkscape:connector-curvature="0"
       style="fill:url(#ec478bd3-5b38-4e7f-b661-11f355578bff)" />
    <path
       id="ad2e7e44-9bfd-4775-8bf4-8ef26a544921"
       d="m 8.18,15.3 v 0 a 0.23,0.23 0 0 0 0.38,-0.17 v -4 a 0.24,0.24 0 0 0 -0.11,-0.2 v 0 a 0.22,0.22 0 0 0 -0.34,0.2 v 4 a 0.28,0.28 0 0 0 0.07,0.17 z"
       inkscape:connector-curvature="0"
       style="opacity:0.75;fill:#ff9300" />
    <rect
       id="a996fbff-3936-4b24-b407-369336c143ba"
       x="6.48"
       y="5.79"
       width="5.1700001"
       height="0.61000001"
       rx="0.28"
       style="opacity:0.75;fill:#ff9300" />
    <rect
       id="bb12d31c-3352-4a18-87dd-a169a4a8721d"
       x="6.48"
       y="6.7800002"
       width="5.1700001"
       height="0.61000001"
       rx="0.28"
       style="opacity:0.75;fill:#ff9300" />
  </g>
  <metadata
     id="metadata73847">
    <rdf:RDF>
      <rdf:li>public:true</rdf:li>
      <rdf:li>sdk:false</rdf:li>
      <rdf:li>category: Security</rdf:li>
      <cc:Work
         rdf:about="">
        <dc:format>image/svg+xml</dc:format>
        <dc:type
           rdf:resource="http://purl.org/dc/dcmitype/StillImage" />
        <dc:title>Icon-security-245</dc:title>
      </cc:Work>
    </rdf:RDF>
  </metadata>
</svg>
