<?xml version="1.0" encoding="UTF-8" standalone="no"?>
<svg
   xmlns:dc="http://purl.org/dc/elements/1.1/"
   xmlns:cc="http://creativecommons.org/ns#"
   xmlns:rdf="http://www.w3.org/1999/02/22-rdf-syntax-ns#"
   xmlns:svg="http://www.w3.org/2000/svg"
   xmlns="http://www.w3.org/2000/svg"
   xmlns:sodipodi="http://sodipodi.sourceforge.net/DTD/sodipodi-0.dtd"
   xmlns:inkscape="http://www.inkscape.org/namespaces/inkscape"
   id="fe62c4da-ab98-4bb3-a1a5-9a22b229614c"
   width="14.166"
   height="17.003187"
   viewBox="0 0 14.166 17.003187"
   version="1.1"
   sodipodi:docname="Security_Center.svg"
   inkscape:version="0.92.3 (2405546, 2018-03-11)">
  <sodipodi:namedview
     pagecolor="#ffffff"
     bordercolor="#666666"
     borderopacity="1"
     objecttolerance="10"
     gridtolerance="10"
     guidetolerance="10"
     inkscape:pageopacity="0"
     inkscape:pageshadow="2"
     inkscape:window-width="1920"
     inkscape:window-height="1017"
     id="namedview74113"
     showgrid="false"
     fit-margin-top="0"
     fit-margin-left="0"
     fit-margin-right="0"
     fit-margin-bottom="0"
     inkscape:zoom="48.111111"
     inkscape:cx="7.083"
     inkscape:cy="8.5031875"
     inkscape:window-x="-8"
     inkscape:window-y="-8"
     inkscape:window-maximized="1"
     inkscape:current-layer="fe62c4da-ab98-4bb3-a1a5-9a22b229614c" />
  <defs
     id="defs74096">
    <linearGradient
       id="f36136e6-f568-4134-ab6f-c0fefbc04f83"
       x1="9"
       y1="16.795"
       x2="9"
       y2="1.205"
       gradientUnits="userSpaceOnUse"
       gradientTransform="translate(1.917,0.5)">
      <stop
         offset="0"
         stop-color="#5e9624"
         id="stop74087" />
      <stop
         offset="0.321"
         stop-color="#639d26"
         id="stop74089" />
      <stop
         offset="0.794"
         stop-color="#6fb12a"
         id="stop74091" />
      <stop
         offset="0.999"
         stop-color="#76bc2d"
         id="stop74093" />
    </linearGradient>
  </defs>
  <g
     id="g74108"
     transform="translate(-1.917,-0.5)">
    <path
       d="m 16.083,8.438 c 0,4.571 -5.626,8.25 -6.85,9 a 0.449,0.449 0 0 1 -0.466,0 c -1.224,-0.747 -6.85,-4.426 -6.85,-9 v -5.5 A 0.44,0.44 0 0 1 2.351,2.5 C 6.728,2.386 5.72,0.5 9,0.5 c 3.28,0 2.272,1.886 6.649,2 a 0.44,0.44 0 0 1 0.434,0.435 z"
       id="path74098"
       inkscape:connector-curvature="0"
       style="fill:#76bc2d" />
    <path
       d="m 15.5,8.485 c 0,4.191 -5.16,7.566 -6.282,8.25 a 0.412,0.412 0 0 1 -0.428,0 C 7.664,16.051 2.5,12.676 2.5,8.485 V 3.441 a 0.4,0.4 0 0 1 0.4,-0.4 C 6.916,2.935 5.992,1.205 9,1.205 c 3.008,0 2.084,1.73 6.1,1.837 a 0.4,0.4 0 0 1 0.4,0.4 z"
       id="path74100"
       inkscape:connector-curvature="0"
       style="fill:url(#f36136e6-f568-4134-ab6f-c0fefbc04f83)" />
    <path
       d="M 11.853,7.66 H 11.445 V 6.243 a 2.652,2.652 0 0 0 -0.7,-1.809 2.358,2.358 0 0 0 -3.483,0 2.606,2.606 0 0 0 -0.7,1.808 V 7.66 H 6.147 A 0.328,0.328 0 0 0 5.821,7.98 v 3.682 a 0.329,0.329 0 0 0 0.326,0.32 h 5.706 a 0.329,0.329 0 0 0 0.326,-0.32 V 7.98 A 0.328,0.328 0 0 0 11.853,7.66 Z m -1.549,0 H 7.7 V 6.219 a 1.434,1.434 0 0 1 0.41,-0.99 1.2,1.2 0 0 1 1.788,0 1.394,1.394 0 0 1 0.153,0.2 v 0 a 1.445,1.445 0 0 1 0.258,0.791 z"
       id="path74102"
       inkscape:connector-curvature="0"
       style="fill:#ffffff" />
    <path
       d="m 6.148,7.658 h 5.705 a 0.328,0.328 0 0 1 0.21,0.08 L 5.938,11.9 A 0.313,0.313 0 0 1 5.822,11.659 V 7.979 A 0.328,0.328 0 0 1 6.148,7.658 Z"
       id="path74104"
       inkscape:connector-curvature="0"
       style="opacity:0.15;fill:#b3b3b3" />
    <path
       d="M 11.853,7.658 H 6.147 a 0.328,0.328 0 0 0 -0.209,0.08 l 6.124,4.162 a 0.314,0.314 0 0 0 0.117,-0.241 V 7.979 A 0.329,0.329 0 0 0 11.853,7.658 Z"
       id="path74106"
       inkscape:connector-curvature="0"
       style="opacity:0.08999999;fill:#a3a3a3" />
  </g>
  <metadata
     id="metadata74110">
    <rdf:RDF>
      <rdf:li>public:true</rdf:li>
      <rdf:li>sdk:MsPortalFx.Base.Images.Polychromatic.SslCustomDomains()</rdf:li>
      <rdf:li>category: Security</rdf:li>
      <cc:Work
         rdf:about="">
        <dc:format>image/svg+xml</dc:format>
        <dc:type
           rdf:resource="http://purl.org/dc/dcmitype/StillImage" />
        <dc:title></dc:title>
      </cc:Work>
    </rdf:RDF>
  </metadata>
</svg>
