<?xml version="1.0" encoding="UTF-8" standalone="no"?>
<svg
   xmlns:dc="http://purl.org/dc/elements/1.1/"
   xmlns:cc="http://creativecommons.org/ns#"
   xmlns:rdf="http://www.w3.org/1999/02/22-rdf-syntax-ns#"
   xmlns:svg="http://www.w3.org/2000/svg"
   xmlns="http://www.w3.org/2000/svg"
   xmlns:sodipodi="http://sodipodi.sourceforge.net/DTD/sodipodi-0.dtd"
   xmlns:inkscape="http://www.inkscape.org/namespaces/inkscape"
   width="18"
   height="17.82"
   viewBox="0 0 18 17.82"
   version="1.1"
   id="svg3003"
   sodipodi:docname="Azure_Blockchain_Service.svg"
   inkscape:version="0.92.3 (2405546, 2018-03-11)">
  <defs
     id="defs3007" />
  <sodipodi:namedview
     pagecolor="#ffffff"
     bordercolor="#666666"
     borderopacity="1"
     objecttolerance="10"
     gridtolerance="10"
     guidetolerance="10"
     inkscape:pageopacity="0"
     inkscape:pageshadow="2"
     inkscape:window-width="1920"
     inkscape:window-height="1017"
     id="namedview3005"
     showgrid="false"
     fit-margin-top="0"
     fit-margin-left="0"
     fit-margin-right="0"
     fit-margin-bottom="0"
     inkscape:zoom="48.111111"
     inkscape:cx="9"
     inkscape:cy="8.91"
     inkscape:window-x="-8"
     inkscape:window-y="-8"
     inkscape:window-maximized="1"
     inkscape:current-layer="svg3003" />
  <title
     id="title2969">Icon-Blockchain-366</title>
  <polygon
     points="9.18,9.3 9.18,4.7 13.13,2.4 13.13,6.99 "
     id="polygon2971"
     style="fill:#773adc"
     transform="translate(0,-0.09)" />
  <path
     d="m 11.45,4.62 c 0.55,-0.32 1,-0.07 1,0.56 a 2.18,2.18 0 0 1 -1,1.72 c -0.55,0.32 -1,0.07 -1,-0.57 a 2.17,2.17 0 0 1 1,-1.71 z"
     id="path2973"
     inkscape:connector-curvature="0"
     style="fill:#552f99" />
  <polygon
     points="3.95,17.9 3.95,13.3 7.9,11 7.9,15.59 "
     id="polygon2975"
     style="fill:#773adc"
     transform="translate(0,-0.09)" />
  <path
     d="m 5.92,13.44 c 0.55,-0.31 1,-0.06 1,0.57 a 2.2,2.2 0 0 1 -1,1.72 c -0.55,0.32 -1,0.06 -1,-0.57 a 2.2,2.2 0 0 1 1,-1.72 z"
     id="path2977"
     inkscape:connector-curvature="0"
     style="fill:#552f99" />
  <polygon
     points="0,15.59 0,11 3.95,13.3 3.95,17.9 "
     id="polygon2979"
     style="fill:#a67af4"
     transform="translate(0,-0.09)" />
  <polygon
     points="14.05,17.91 14.05,13.31 18,11.01 18,15.6 "
     id="polygon2981"
     style="fill:#773adc"
     transform="translate(0,-0.09)" />
  <path
     d="m 11.49,6.11 a 4.17,4.17 0 0 1 2.37,2.61 l 0.19,-0.11 1,0.58 a 5.21,5.21 0 0 0 -3.15,-4.06 0.54039338,0.54039338 0 0 0 -0.41,1 z"
     id="path2983"
     inkscape:connector-curvature="0"
     style="fill:#32bedd" />
  <polygon
     points="10.1,15.6 10.1,11.01 14.05,13.32 14.05,17.91 "
     id="polygon2985"
     style="fill:#a67af4"
     transform="translate(0,-0.09)" />
  <path
     d="m 12.19,13.5 c -0.52,-0.3 -0.94,-0.05 -0.94,0.54 a 2.08,2.08 0 0 0 0.94,1.63 c 0.52,0.3 0.94,0.06 0.94,-0.54 A 2.08,2.08 0 0 0 12.19,13.5 Z"
     id="path2987"
     inkscape:connector-curvature="0"
     style="fill:#552f99" />
  <path
     d="m 9.2,16.02 a 5.46,5.46 0 0 1 -3.18,-1 0.55,0.55 0 1 1 0.64,-0.89 4.36,4.36 0 0 0 4.81,0.18 0.55226805,0.55226805 0 1 1 0.58,0.94 5.54,5.54 0 0 1 -2.85,0.77 z"
     id="path2989"
     inkscape:connector-curvature="0"
     style="fill:#32bedd" />
  <polygon
     points="5.24,2.4 9.19,0.09 13.13,2.4 9.19,4.71 "
     id="polygon2991"
     style="fill:#b796f9"
     transform="translate(0,-0.09)" />
  <path
     d="m 5.24,5.21 a 5.25,5.25 0 0 0 -2.36,4 L 4,8.6 V 8.65 A 4.2,4.2 0 0 1 5.24,6.58 Z"
     id="path2993"
     inkscape:connector-curvature="0"
     style="fill:#32bedd" />
  <polygon
     points="10.1,11.01 14.05,8.7 18,11.01 14.05,13.32 "
     id="polygon2995"
     style="fill:#b796f9"
     transform="translate(0,-0.09)" />
  <polygon
     points="0,11 3.95,8.69 7.9,11 3.95,13.3 "
     id="polygon2997"
     style="fill:#b796f9"
     transform="translate(0,-0.09)" />
  <polygon
     points="5.24,6.99 5.24,2.4 9.18,4.71 9.18,9.3 "
     id="polygon2999"
     style="fill:#a67af4"
     transform="translate(0,-0.09)" />
  <metadata
     id="metadata3001">
    <rdf:RDF>
      <rdf:li>public:true</rdf:li>
      <rdf:li>sdk:false</rdf:li>
      <rdf:li>category: Blockchain</rdf:li>
      <cc:Work
         rdf:about="">
        <dc:format>image/svg+xml</dc:format>
        <dc:type
           rdf:resource="http://purl.org/dc/dcmitype/StillImage" />
        <dc:title>Icon-Blockchain-366</dc:title>
      </cc:Work>
    </rdf:RDF>
  </metadata>
</svg>
