<?xml version="1.0" encoding="UTF-8" standalone="no"?>
<svg
   xmlns:dc="http://purl.org/dc/elements/1.1/"
   xmlns:cc="http://creativecommons.org/ns#"
   xmlns:rdf="http://www.w3.org/1999/02/22-rdf-syntax-ns#"
   xmlns:svg="http://www.w3.org/2000/svg"
   xmlns="http://www.w3.org/2000/svg"
   xmlns:sodipodi="http://sodipodi.sourceforge.net/DTD/sodipodi-0.dtd"
   xmlns:inkscape="http://www.inkscape.org/namespaces/inkscape"
   width="15.485551"
   height="17.804001"
   viewBox="0 0 15.485551 17.804001"
   version="1.1"
   id="svg3083"
   sodipodi:docname="Azure_Token_Service.svg"
   inkscape:version="0.92.3 (2405546, 2018-03-11)">
  <defs
     id="defs3087" />
  <sodipodi:namedview
     pagecolor="#ffffff"
     bordercolor="#666666"
     borderopacity="1"
     objecttolerance="10"
     gridtolerance="10"
     guidetolerance="10"
     inkscape:pageopacity="0"
     inkscape:pageshadow="2"
     inkscape:window-width="1920"
     inkscape:window-height="1017"
     id="namedview3085"
     showgrid="false"
     fit-margin-top="0"
     fit-margin-left="0"
     fit-margin-right="0"
     fit-margin-bottom="0"
     inkscape:zoom="48.111111"
     inkscape:cx="7.742"
     inkscape:cy="8.896"
     inkscape:window-x="-8"
     inkscape:window-y="-8"
     inkscape:window-maximized="1"
     inkscape:current-layer="svg3083" />
  <path
     d="m 12.018,3.516 v 6.992 l -6.01,3.514 V 7.018 l 6.01,-3.503 z"
     id="path3063"
     inkscape:connector-curvature="0"
     style="fill:#773adc" />
  <path
     d="M 12.018,3.516 6.01,7.028 0.01,3.514 6.01,0 12.018,3.515 Z"
     id="path3065"
     inkscape:connector-curvature="0"
     style="fill:#b796f9" />
  <path
     d="m 6.009,7.028 v 6.994 L 0,10.508 V 3.515 l 6.01,3.514 z"
     id="path3067"
     inkscape:connector-curvature="0"
     style="fill:#a67af4" />
  <path
     d="m 10.402,13.008 c 0,0.033 -0.006,0.066 -0.012,0.1 -0.006,0.034 -0.013,0.054 -0.02,0.08 l -0.027,0.095 c -0.01,0.032 -0.02,0.05 -0.032,0.076 l -0.047,0.1 a 1.434,1.434 0 0 1 -0.08,0.134 l -0.016,0.02 a 1.531,1.531 0 0 1 -0.1,0.129 l -0.02,0.025 -0.133,0.13 a 1.03,1.03 0 0 1 -0.1,0.08 l -0.09,0.07 -0.113,0.076 -0.12,0.077 a 3.322,3.322 0 0 1 -0.3,0.151 l -0.1,0.038 -0.25,0.094 -0.1,0.03 -0.163,0.047 -0.124,0.033 -0.175,0.038 -0.12,0.024 -0.36,0.05 c -0.037,0 -0.075,0.006 -0.113,0.01 L 7.475,14.73 H 7.042 l -0.16,-0.008 -0.296,-0.034 -0.142,-0.02 -0.167,-0.03 -0.13,-0.027 -0.2,-0.048 -0.108,-0.03 -0.34,-0.114 -0.16,-0.068 -0.08,-0.035 -0.232,-0.12 a 1.582,1.582 0 0 1 -0.932,-1.3 v 1.406 a 1.582,1.582 0 0 0 0.932,1.3 l 0.232,0.12 c 0.026,0.013 0.054,0.024 0.082,0.036 l 0.14,0.062 0.018,0.006 0.366,0.123 c 0.026,0.008 0.054,0.013 0.08,0.02 l 0.2,0.048 0.052,0.013 0.08,0.014 0.167,0.03 0.067,0.01 c 0.025,0 0.05,0.006 0.075,0.01 l 0.157,0.017 c 0.026,0 0.05,0.007 0.075,0.01 H 6.89 l 0.16,0.008 H 7.505 Q 7.612,16.123 7.718,16.114 H 7.83 l 0.36,-0.05 h 0.017 l 0.1,-0.02 0.176,-0.038 0.123,-0.033 0.164,-0.047 0.034,-0.01 c 0.02,-0.006 0.037,-0.014 0.056,-0.02 l 0.25,-0.094 0.1,-0.038 0.3,-0.15 0.04,-0.023 c 0.03,-0.017 0.053,-0.036 0.08,-0.054 l 0.114,-0.076 0.088,-0.07 0.1,-0.08 0.02,-0.016 c 0.04,-0.037 0.078,-0.076 0.114,-0.114 l 0.02,-0.025 0.06,-0.07 a 0.68,0.68 0 0 0 0.042,-0.059 l 0.016,-0.02 0.07,-0.11 0.01,-0.024 a 1.079,1.079 0 0 0 0.046,-0.1 l 0.027,-0.058 0.006,-0.02 a 1.01,1.01 0 0 0 0.027,-0.094 l 0.018,-0.064 V 14.52 a 1.09,1.09 0 0 0 0.012,-0.1 c 0.003,-0.034 0.007,-0.044 0.007,-0.065 v -1.447 l -0.013,0.1 z"
     id="path3069"
     inkscape:connector-curvature="0"
     style="fill:#32bedd" />
  <path
     d="m 9.477,11.608 c 1.238,0.714 1.244,1.873 0.015,2.587 a 4.925,4.925 0 0 1 -4.468,0 C 3.786,13.48 3.781,12.321 5.011,11.607 a 4.92,4.92 0 0 1 4.466,0.001 z"
     id="path3071"
     inkscape:connector-curvature="0"
     style="fill:#50e6ff" />
  <path
     d="m 15.476,14.682 c 0,0.033 -0.005,0.066 -0.01,0.1 -0.005,0.034 -0.014,0.054 -0.02,0.08 l -0.027,0.095 c -0.01,0.03 -0.02,0.05 -0.032,0.077 l -0.046,0.1 c -0.017,0.034 -0.05,0.1 -0.08,0.134 l -0.015,0.02 -0.1,0.13 -0.02,0.024 -0.133,0.13 a 1.46,1.46 0 0 1 -0.1,0.08 l -0.088,0.07 c -0.03,0.023 -0.075,0.05 -0.114,0.075 l -0.12,0.077 a 3.078,3.078 0 0 1 -0.3,0.151 l -0.1,0.04 -0.248,0.094 -0.09,0.03 -0.163,0.046 -0.124,0.034 -0.175,0.037 -0.12,0.024 -0.36,0.05 -0.113,0.01 -0.213,0.014 H 12.11 c -0.054,0 -0.107,0 -0.16,-0.01 -0.053,-0.01 -0.1,-0.007 -0.146,-0.012 l -0.158,-0.018 -0.14,-0.02 -0.168,-0.03 -0.13,-0.026 -0.2,-0.048 -0.108,-0.03 -0.34,-0.115 -0.16,-0.068 -0.08,-0.035 -0.232,-0.12 a 1.581,1.581 0 0 1 -0.932,-1.3 v 1.405 a 1.582,1.582 0 0 0 0.932,1.3 l 0.232,0.12 0.08,0.035 0.143,0.062 0.017,0.006 q 0.165,0.064 0.34,0.114 l 0.027,0.01 0.08,0.02 0.2,0.05 c 0.018,0 0.035,0.01 0.052,0.012 l 0.08,0.014 0.168,0.03 c 0.022,0 0.044,0.01 0.066,0.012 l 0.075,0.008 0.158,0.018 0.075,0.008 h 0.07 c 0.053,0 0.106,0.006 0.16,0.008 h 0.455 c 0.07,0 0.142,-0.01 0.213,-0.014 0.028,0 0.057,0 0.086,-0.006 h 0.027 l 0.36,-0.05 h 0.017 l 0.1,-0.022 0.174,-0.037 0.124,-0.034 0.163,-0.046 0.035,-0.01 0.056,-0.02 0.248,-0.095 0.1,-0.038 a 3.322,3.322 0 0 0 0.3,-0.151 l 0.04,-0.023 c 0.03,-0.017 0.054,-0.036 0.08,-0.054 l 0.114,-0.076 0.088,-0.07 0.1,-0.08 0.02,-0.017 a 1.532,1.532 0 0 0 0.114,-0.114 l 0.02,-0.025 0.06,-0.07 0.043,-0.058 0.015,-0.02 0.07,-0.1 0.012,-0.024 c 0.017,-0.032 0.03,-0.065 0.046,-0.1 l 0.027,-0.058 v -0.02 c 0.01,-0.032 0.02,-0.063 0.027,-0.095 l 0.02,-0.063 v -0.018 c 0.006,-0.033 0.008,-0.066 0.01,-0.1 0.002,-0.034 0.007,-0.043 0.007,-0.065 v -1.428 c 0.007,0.026 0.002,0.057 -10e-4,0.088 z"
     id="path3073"
     inkscape:connector-curvature="0"
     style="fill:#32bedd" />
  <path
     d="m 14.542,13.288 a 1.367,1.367 0 0 1 0.014,2.587 4.921,4.921 0 0 1 -4.468,0 C 8.851,15.16 8.845,14.001 10.075,13.287 a 4.922,4.922 0 0 1 4.467,10e-4 z"
     id="path3075"
     inkscape:connector-curvature="0"
     style="fill:#50e6ff" />
  <path
     d="m 15.484,11.528 c 0,0.03 -0.005,0.062 -0.008,0.092 l -0.01,0.1 c -0.006,0.033 -0.014,0.054 -0.02,0.08 l -0.027,0.094 c -0.01,0.03 -0.02,0.05 -0.032,0.077 l -0.046,0.1 c -0.017,0.034 -0.05,0.1 -0.08,0.134 l -0.015,0.02 -0.1,0.13 -0.02,0.024 a 2.06,2.06 0 0 1 -0.133,0.131 1.46,1.46 0 0 1 -0.1,0.08 l -0.09,0.07 -0.113,0.075 -0.12,0.078 a 3.191,3.191 0 0 1 -0.3,0.15 l -0.1,0.04 -0.25,0.094 -0.1,0.03 -0.163,0.047 -0.124,0.033 -0.175,0.037 -0.12,0.024 -0.36,0.05 -0.113,0.01 -0.213,0.014 h -0.454 c -0.054,0 -0.107,0 -0.16,-0.01 -0.053,-0.01 -0.1,-0.007 -0.146,-0.012 l -0.158,-0.018 -0.14,-0.02 -0.168,-0.03 -0.13,-0.026 -0.2,-0.05 -0.108,-0.03 q -0.174,-0.05 -0.34,-0.114 l -0.16,-0.068 -0.082,-0.035 -0.232,-0.12 a 1.583,1.583 0 0 1 -0.933,-1.3 v 1.406 a 1.583,1.583 0 0 0 0.933,1.3 l 0.232,0.12 0.08,0.035 0.143,0.062 0.017,0.006 0.34,0.114 0.027,0.01 0.08,0.02 0.2,0.048 c 0.018,0 0.035,0.01 0.053,0.013 l 0.078,0.014 0.168,0.03 c 0.022,0 0.044,0.01 0.067,0.012 l 0.074,0.008 0.158,0.018 0.075,0.008 h 0.07 c 0.053,0 0.106,0.006 0.16,0.008 h 0.454 c 0.072,0 0.143,-0.008 0.214,-0.014 0.028,0 0.057,0 0.086,-0.006 h 0.026 l 0.36,-0.05 h 0.018 l 0.1,-0.022 0.175,-0.037 0.123,-0.034 0.164,-0.046 0.035,-0.01 c 0.02,-0.006 0.036,-0.015 0.055,-0.02 l 0.25,-0.094 0.1,-0.04 a 3.2,3.2 0 0 0 0.3,-0.151 l 0.038,-0.022 0.082,-0.055 0.113,-0.075 0.09,-0.07 0.1,-0.08 0.02,-0.017 a 1.75,1.75 0 0 0 0.114,-0.114 l 0.02,-0.024 0.06,-0.072 0.043,-0.058 0.015,-0.02 A 1.18,1.18 0 0 0 15.32,13.5 l 0.012,-0.024 c 0.017,-0.032 0.03,-0.065 0.046,-0.1 l 0.027,-0.057 v -0.02 a 1.03,1.03 0 0 0 0.027,-0.095 l 0.02,-0.063 v -0.017 c 0.006,-0.033 0.008,-0.067 0.01,-0.1 0.002,-0.033 0.007,-0.043 0.007,-0.064 v -0.028 z"
     id="path3077"
     inkscape:connector-curvature="0"
     style="fill:#32bedd" />
  <ellipse
     cx="-11.482985"
     cy="12.357864"
     rx="1.83"
     ry="3.1589999"
     transform="rotate(-89.838025)"
     id="ellipse3079"
     style="fill:#50e6ff" />
  <metadata
     id="metadata3081">
    <rdf:RDF>
      <rdf:li>public:true</rdf:li>
      <rdf:li>sdk:false</rdf:li>
      <rdf:li>category: Blockchain</rdf:li>
      <cc:Work
         rdf:about="">
        <dc:format>image/svg+xml</dc:format>
        <dc:type
           rdf:resource="http://purl.org/dc/dcmitype/StillImage" />
        <dc:title></dc:title>
      </cc:Work>
    </rdf:RDF>
  </metadata>
</svg>
