<?xml version="1.0" encoding="UTF-8" standalone="no"?>
<svg
   xmlns:dc="http://purl.org/dc/elements/1.1/"
   xmlns:cc="http://creativecommons.org/ns#"
   xmlns:rdf="http://www.w3.org/1999/02/22-rdf-syntax-ns#"
   xmlns:svg="http://www.w3.org/2000/svg"
   xmlns="http://www.w3.org/2000/svg"
   xmlns:sodipodi="http://sodipodi.sourceforge.net/DTD/sodipodi-0.dtd"
   xmlns:inkscape="http://www.inkscape.org/namespaces/inkscape"
   width="18.036192"
   height="16.337399"
   viewBox="0 0 18.036192 16.337399"
   version="1.1"
   id="svg3269"
   sodipodi:docname="Outbound_Connection.svg"
   inkscape:version="0.92.3 (2405546, 2018-03-11)">
  <defs
     id="defs3273" />
  <sodipodi:namedview
     pagecolor="#ffffff"
     bordercolor="#666666"
     borderopacity="1"
     objecttolerance="10"
     gridtolerance="10"
     guidetolerance="10"
     inkscape:pageopacity="0"
     inkscape:pageshadow="2"
     inkscape:window-width="1920"
     inkscape:window-height="1017"
     id="namedview3271"
     showgrid="false"
     fit-margin-top="0"
     fit-margin-left="0"
     fit-margin-right="0"
     fit-margin-bottom="0"
     inkscape:zoom="48.111111"
     inkscape:cx="9"
     inkscape:cy="8.1673987"
     inkscape:window-x="-8"
     inkscape:window-y="-8"
     inkscape:window-maximized="1"
     inkscape:current-layer="svg3269" />
  <title
     id="title3255">Icon-Blockchain-364</title>
  <polygon
     points="9.04,13.99 9.04,7.42 14.68,4.13 14.68,10.7 "
     id="polygon3257"
     style="fill:#773adc"
     transform="translate(0,-0.83)" />
  <polygon
     points="3.4,4.13 9.04,0.83 14.68,4.13 9.04,7.43 "
     id="polygon3259"
     style="fill:#b796f9"
     transform="translate(0,-0.83)" />
  <polygon
     points="3.4,10.7 3.4,4.13 9.04,7.43 9.04,13.99 "
     id="polygon3261"
     style="fill:#a67af4"
     transform="translate(0,-0.83)" />
  <path
     d="M 6.06,6.69 C 5.32,6.27 4.72,6.61 4.72,7.46 A 2.93,2.93 0 0 0 6.06,9.77 C 6.79,10.2 7.4,9.86 7.4,9.01 A 3,3 0 0 0 6.06,6.69 Z"
     id="path3263"
     inkscape:connector-curvature="0"
     style="fill:#773adc" />
  <path
     d="m 18,13.52 -2.59,-2.6 a 0.14,0.14 0 0 0 -0.21,0 v 2 H 3.36 a 2,2 0 1 1 0,-4 H 5.75 A 0.68,0.68 0 0 0 6.42,8.24 0.67,0.67 0 0 0 5.75,7.57 H 3.36 a 3.36,3.36 0 0 0 0,6.72 h 11.8 v 2 a 0.14,0.14 0 0 0 0.21,0 L 18,13.7 a 0.13,0.13 0 0 0 0,-0.18 z"
     id="path3265"
     inkscape:connector-curvature="0"
     style="fill:#32bedd" />
  <metadata
     id="metadata3267">
    <rdf:RDF>
      <rdf:li>public:true</rdf:li>
      <rdf:li>sdk:false</rdf:li>
      <rdf:li>category: Blockchain</rdf:li>
      <cc:Work
         rdf:about="">
        <dc:format>image/svg+xml</dc:format>
        <dc:type
           rdf:resource="http://purl.org/dc/dcmitype/StillImage" />
        <dc:title>Icon-Blockchain-364</dc:title>
      </cc:Work>
    </rdf:RDF>
  </metadata>
</svg>
