<svg xmlns="http://www.w3.org/2000/svg" viewBox="0 0 59.8 59.8"><circle cx="29.9" cy="29.9" r="29.9" fill="#734198"/><path d="M50.4 26.4c-1.4 0-2.5 1.1-2.5 2.5A2.61 2.61 0 0 0 49 31l-4.8 10.6c-.2-.1-.5-.1-.7-.1-.5 0-1 .2-1.5.5l-1-5.2c1.3-.5 1.9-1.9 1.4-3.2-.4-1-1.3-1.6-2.4-1.6-.8 0-1.5-.1-2 .9l-2.4-.7c-.1-1.3-1.1-2.3-2.4-2.3-.2 0-.1.1-.2.2L31.3 24v-1.1c0-1.4-1.2-2.5-2.6-2.6-1.4 0-2.6 1-2.6 2.4L16 31.3c-.9-1-2.5-1.1-3.5-.2s-1.1 2.5-.2 3.5 2.5 1.1 3.5.2c.5-.5.8-1.1.8-1.8 0-.2 0-.5-.1-.7l9.9-8.4a2.33 2.33 0 0 0 2.1 1.3c.5 0 1.1-.2 1.5-.5v.3l1.8 5.9c-.6 0-1 .9-1 1.7 0 1.3 1.1 2.4 2.4 2.4h.1c1.1 0 2.1-.7 2.6-1.7l2.4.5v.6c-.1 1.2.8 2.4 2 2.5h.5-.8l1.2 6.2c-.5 1.3.2 2.7 1.4 3.2s2.7-.2 3.2-1.4c.4-1 .1-2.1-.7-2.8L50 31.3h.3c1.4 0 2.5-1.1 2.5-2.5.1-1.4-1-2.5-2.4-2.4zm-36.3 8c-.8 0-1.4-.6-1.4-1.4s.6-1.4 1.4-1.4 1.4.6 1.4 1.4-.7 1.4-1.4 1.4zm2.2-2.6zm9.8-8.4zm2.4.7c-.8 0-1.4-.6-1.4-1.4s.6-1.4 1.4-1.4 1.4.6 1.4 1.4-.6 1.4-1.4 1.4zm1.9.2zm1.9 5.8zm1 3.6c-.8 0-1.4-.6-1.4-1.4s.6-1.4 1.4-1.4 1.4.6 1.4 1.4c-.1.8-.7 1.4-1.4 1.4zm2.4-.9v-.5a.45.45 0 0 1 0 .5zm2.3.4zm.8 1.2c0-.8.6-1.4 1.4-1.4s1.4.6 1.4 1.4-.6 1.4-1.4 1.4-1.5-.6-1.4-1.4c-.1 0-.1 0 0 0zm2.8 8zm2 3c-.8 0-1.4-.6-1.4-1.4s.6-1.4 1.4-1.4 1.4.6 1.4 1.4c0 .7-.7 1.4-1.4 1.4zm1.2-3.6zm4.7-10.6zm.9-.9c-.8 0-1.4-.6-1.4-1.4s.6-1.4 1.4-1.4 1.4.6 1.4 1.4-.6 1.4-1.4 1.4z" fill="#fff"/><path d="M23.1 18l2.7 2.3m.1-4.2l1.3 3.3" fill="none" stroke="#fff" stroke-miterlimit="10"/><path d="M29.3,15.6L29,19.2" fill="#fff" stroke="#fff" stroke-miterlimit="10"/><path d="M32.5 16.8l-2 3" fill="none" stroke="#fff" stroke-miterlimit="10"/></svg>