<svg xmlns="http://www.w3.org/2000/svg" viewBox="0 0 59.9 59.8"><ellipse cx="30" cy="29.9" rx="30" ry="29.9" fill="#734198"/><g fill="#fff"><ellipse cx="29.7" cy="11.6" rx="6.9" ry="2.9"/><path d="M36.9 12.6c-.4 1.5-3.4 2.8-7.2 2.8s-6.8-1.2-7.2-2.8v11.5c0 1.7 3.2 3 7.2 3s7.2-1.4 7.2-3V12.6z"/><ellipse cx="18.7" cy="30.9" rx="6.9" ry="2.9"/><path d="M25.9 31.9c-.4 1.5-3.5 2.8-7.2 2.8s-6.8-1.2-7.2-2.8v11.5c0 1.7 3.2 3 7.2 3s7.2-1.4 7.2-3V31.9z"/><ellipse cx="41.2" cy="30.9" rx="6.9" ry="2.9"/><path d="M48.4 31.9c-.4 1.5-3.4 2.8-7.2 2.8s-6.8-1.2-7.2-2.8v11.5c0 1.7 3.2 3 7.2 3s7.2-1.4 7.2-3V31.9zm-21.6 5.5h6.3v3.5h-6.3zm-5-13.5l-3.3 3.3h.5c1.3 0 2.5.1 3.7.5l.9-.9c-1.2-.5-1.9-1.3-1.9-2l.1-.9zm18.9 3.2h.4l-3.5-3.4v1c0 .8-.6 1.4-1.7 2l.9.9c1.3-.3 2.6-.5 3.9-.5z"/></g></svg>