<svg xmlns="http://www.w3.org/2000/svg" viewBox="0 0 60.1 59.9"><circle cx="30" cy="30" r="30" fill="#734198"/><path d="M46.9 24.5a2.26 2.26 0 0 0-2.3 2.3c0 .8.4 1.5 1 1.9l-4.5 9.8c-.3-.1-.6-.1-.8-.1-.5 0-1.1.2-1.6.4l-.7-4.7c.9-.3 1.5-1.2 1.6-2.2 0-1.4-1-2.5-2.4-2.7-.7 0-1.3-.5-1.8.5l-2.2-.2c-.1-1.2-1.1-2-2.3-1.9-.2 0-.2.1-.4.1L28.8 22c0-.5.1-.6.1-.9 0-1.3-1.1-2.4-2.4-2.4s-2.3 1.1-2.3 2.4l-9.4 8c-.9-.9-2.3-1-3.3-.1-.9.9-1 2.3-.1 3.3.9.9 2.3 1 3.3.1.5-.4.7-1.1.7-1.7 0-.2-.2-.4-.3-.6l9-7.8c.5.8 1.3 1.2 2.2 1.2.5 0 1-.2 1.5-.5v-.2l1.7 5c-.6 0-.9 1.3-.9 2 0 1.3 1 2.4 2.3 2.4 1 0 1.8-.5 2.2-1.4l2.1.5v.5c-.1 1.2.9 2.3 2.1 2.3h-.2l1.2 5.8c-.1.3-.2.5-.2.8a2.26 2.26 0 0 0 2.3 2.3c1.2 0 2.2-1 2.1-2.2v-.1c-.1-.7-.4-1.3-1-1.7l4.7-10h.4c1.3 0 2.4-1 2.4-2.3.1-1.2-.9-2.2-2.1-2.2zm-33.8 7.4c-.7 0-1.3-.6-1.3-1.3s.6-1.3 1.3-1.3 1.3.6 1.3 1.3-.6 1.3-1.3 1.3zm2-2.4zm9.2-7.8zm2.2.7c-.7 0-1.3-.6-1.3-1.3s.6-1.3 1.3-1.3 1.3.6 1.3 1.3-.6 1.3-1.3 1.3zm1.8.1zm1.7 5.4zm1 3.4c-.7 0-1.3-.6-1.3-1.3s.6-1.3 1.3-1.3 1.3.6 1.3 1.3-.6 1.3-1.3 1.3zm2.3-.9V30v.4zm2.1.4zm.7 1.1c0-.7.6-1.3 1.3-1.3s1.3.6 1.3 1.3-.6 1.3-1.3 1.3-1.3-.5-1.3-1.3zm2.7 7.5zm1.8 2.7c-.7 0-1.3-.6-1.3-1.3s.6-1.3 1.3-1.3 1.3.6 1.3 1.3-.6 1.3-1.3 1.3zm1.1-3.3zm4.4-9.8zm.9-.9c-.7 0-1.3-.6-1.3-1.3s.6-1.3 1.3-1.3 1.3.6 1.3 1.3-.6 1.3-1.3 1.3c0 0-.1 0 0 0z" fill="#fff"/></svg>