<svg xmlns="http://www.w3.org/2000/svg" viewBox="0 0 61 60.8"><ellipse cx="30.5" cy="30.4" rx="30.5" ry="30.4" fill="#744298"/><g fill="#fff"><path d="M38 52.5H22.9c-2.8 0-5.1-2.3-5.1-5.1v-34c0-2.8 2.3-5.1 5.1-5.1H38c2.8 0 5.1 2.3 5.1 5.1v34c.1 2.8-2.2 5.1-5.1 5.1zM23 9.6a3.8 3.8 0 0 0-3.8 3.8v34a3.8 3.8 0 0 0 3.8 3.8h15a3.8 3.8 0 0 0 3.8-3.8v-34A3.8 3.8 0 0 0 38 9.6H23z"/><ellipse cx="30.5" cy="48" rx="1.8" ry="1.9"/><path d="M28 10.9h5v.9h-5z"/></g><g fill="none" stroke="#fff" stroke-miterlimit="10"><path d="M21.1 13.8h18.8v31.6H21.1z"/><path d="M27.3 22.3v14.6m3.3-11.4v11.4m3.2-8v8"/></g></svg>