<svg xmlns="http://www.w3.org/2000/svg" viewBox="0 0 59.9 59.8"><ellipse cx="30" cy="29.9" rx="30" ry="29.9" fill="#734198"/><g fill="#fff"><path d="M43.4 24.5c-1.1 0-1.9.8-1.9 1.9 0 .7.3 1.3.9 1.6l-3.7 8.2c-.2 0-.3-.1-.5-.1-.4 0-.8.1-1.1.3l-.8-4c.7-.3 1.2-1 1.2-1.8 0-1.1-.9-1.9-2-1.9-.6 0-1.1.2-1.5.6l-2-.4c-.1-1-.9-1.7-1.9-1.8-.1 0-.2.1-.4.1l-1.5-4.8c.1-.3.1-.5.2-.8 0-1.1-.9-2-1.9-2-1.1 0-1.9.8-1.9 1.9l-7.8 6.6c-.7-.8-1.9-.9-2.7-.2s-.9 1.9-.2 2.7 1.9.9 2.7.2c.4-.3.6-.8.6-1.3V29l7.6-6.5a1.78 1.78 0 0 0 1.6 1c.4 0 .8-.1 1.1-.4l1.4 4.3c-.5.3-.8.9-.8 1.5 0 1.1.9 1.9 1.9 1.9.8 0 1.5-.5 1.7-1.2l1.6.4v.5c.1 1 .8 1.8 1.8 1.9l1 4.8c-.1.2-.1.5-.1.7 0 1.1.8 1.9 1.9 1.9s1.9-.8 1.9-1.9c0-.6-.2-1.1-.6-1.5l3.8-8.3h.3c1.1.1 2-.7 2.1-1.8s-.7-2-1.8-2.1c0 .3-.1.3-.2.3zm-28.1 6.2a1.11 1.11 0 0 1-1.1-1.1 1.11 1.11 0 0 1 1.1-1.1 1.11 1.11 0 0 1 1.1 1.1 1.11 1.11 0 0 1-1.1 1.1zm11.1-7.9a1.11 1.11 0 0 1-1.1-1.1 1.11 1.11 0 0 1 1.1-1.1 1.11 1.11 0 0 1 1.1 1.1 1.11 1.11 0 0 1-1.1 1.1zm3.7 7.4a1.11 1.11 0 0 1-1.1-1.1 1.11 1.11 0 0 1 1.1-1.1c.6 0 1 .5 1.1 1 0 .7-.5 1.1-1.1 1.2 0-.1 0-.1 0 0zm1.9-.7v-.4.4zm2.4 1.2a1.11 1.11 0 0 1 1.1-1.1 1.11 1.11 0 0 1 1.1 1.1 1.11 1.11 0 0 1-1.1 1.1c-.7 0-1.1-.5-1.1-1.1zm1 1.9zm2.7 6.6a1.11 1.11 0 0 1-1.1-1.1 1.11 1.11 0 0 1 1.1-1.1 1.11 1.11 0 0 1 1.1 1.1 1.27 1.27 0 0 1-1.1 1.1zm5.3-11.6a1.11 1.11 0 0 1-1.1-1.1 1.11 1.11 0 0 1 1.1-1.1 1.11 1.11 0 0 1 1.1 1.1 1.27 1.27 0 0 1-1.1 1.1zM8.3 16l.3 1.6 5.6-.9.4 5.6 1.6-.1-.5-7.4z"/><path d="M29.9 51.8a22.2 22.2 0 0 1-5.1-.6c-11.6-2.8-18.8-14.4-16-26 .9-3.7 2.7-7.1 5.4-9.9l1.4 1.3c-7.5 8-7 20.4.9 27.9 6.5 6.1 16.2 7.1 23.7 2.5l1 1.6c-3.5 2.1-7.4 3.2-11.3 3.2zm22.3-8.7l-.4-1.6-5.5 1.4-.9-5.7-1.6.3 1.1 7.3z"/><path d="M46.3 44.1l-1.4-1.2c7-8.3 6-20.8-2.3-27.8-6.5-5.5-15.8-6.2-23-1.8l-1-1.6c10.1-6.2 23.4-3 29.6 7.2 4.9 7.9 4.1 18.1-1.9 25.2z"/></g></svg>